<svg xmlns="http://www.w3.org/2000/svg" width="24" height="24" fill="none" stroke-width="1.5" viewBox="0 0 24 24">
    <path d="m18.447 11.252-7 .5a.75.75 0 0 0-.695.8.75.75 0 0 0 .8.696l5.989-.428-1.271 5.512a.75.75 0 0 0 .562.898.75.75 0 0 0 .898-.562l1.5-6.5a.75.75 0 0 0-.783-.916" style="color:#000;fill:currentColor;stroke-linecap:round;stroke-linejoin:round;-inkscape-stroke:none"/>
    <path d="M12.936 4.39a.75.75 0 0 0-.967.079l-2.5 2.5a.75.75 0 0 0 0 1.062.75.75 0 0 0 1.062 0l2.051-2.05 2.299 1.64-3.938 4.377a.75.75 0 0 0 .055 1.059.75.75 0 0 0 1.059-.055l4.5-5a.75.75 0 0 0-.121-1.111ZM18.5 1.75c-1.51 0-2.75 1.24-2.75 2.75s1.24 2.75 2.75 2.75 2.75-1.24 2.75-2.75-1.24-2.75-2.75-2.75m0 1.5c.7 0 1.25.55 1.25 1.25s-.55 1.25-1.25 1.25-1.25-.55-1.25-1.25.55-1.25 1.25-1.25" style="color:#000;fill:currentColor;stroke-linecap:round;stroke-linejoin:round;-inkscape-stroke:none"/>
    <path d="M8.5 10.75c-1.291 0-2.49.429-3.451 1.15a.75.75 0 0 0-.149 1.051.75.75 0 0 0 1.05.149c.71-.534 1.59-.85 2.55-.85a4.24 4.24 0 0 1 4.25 4.25c0 .607-.126 1.18-.354 1.7a.75.75 0 0 0 .387.988.75.75 0 0 0 .988-.387 5.7 5.7 0 0 0 .479-2.301 5.76 5.76 0 0 0-5.75-5.75m-4.547 3.535a.75.75 0 0 0-.94.49A5.8 5.8 0 0 0 2.75 16.5a5.76 5.76 0 0 0 5.75 5.75c1.044 0 2.03-.28 2.875-.77a.75.75 0 0 0 .273-1.025.75.75 0 0 0-1.023-.273 4.2 4.2 0 0 1-2.125.568 4.24 4.24 0 0 1-4.25-4.25c0-.446.07-.873.195-1.275a.75.75 0 0 0-.492-.94" style="color:#000;fill:currentColor;stroke-linecap:round;stroke-linejoin:round;-inkscape-stroke:none"/>
</svg>
