<svg xmlns="http://www.w3.org/2000/svg" width="24" height="24" fill="none" stroke-width="1.5" viewBox="0 0 24 24">
    <path d="M12 1.25C6.072 1.25 1.25 6.072 1.25 12S6.072 22.75 12 22.75 22.75 17.928 22.75 12 17.928 1.25 12 1.25m0 1.5A9.24 9.24 0 0 1 21.25 12 9.24 9.24 0 0 1 12 21.25 9.24 9.24 0 0 1 2.75 12 9.24 9.24 0 0 1 12 2.75" style="color:#000;fill:currentColor;stroke-linecap:round;stroke-linejoin:round;-inkscape-stroke:none"/>
    <path d="M7.146 8.264a.75.75 0 0 0-.882.59.75.75 0 0 0 .59.882l4.396.88v2.236L9.303 17.72a.75.75 0 0 0 .418.976.75.75 0 0 0 .976-.418L12 15.023l1.303 3.256a.75.75 0 0 0 .976.418.75.75 0 0 0 .418-.976l-1.947-4.87v-2.236l4.396-.879a.75.75 0 0 0 .59-.882.75.75 0 0 0-.882-.59L12 9.234Z" style="color:#000;fill:currentColor;stroke-linecap:round;stroke-linejoin:round;-inkscape-stroke:none"/>
    <circle cx="12" cy="6.5" r="1.25" style="fill:#000;stroke-width:2.27213;stroke-linecap:round;stroke-linejoin:round"/>
</svg>
