<svg xmlns="http://www.w3.org/2000/svg" width="24" height="24" fill="none" stroke-width="1.5" viewBox="0 0 24 24">
    <path d="M7 2.25A4.761 4.761 0 0 0 2.25 7v10A4.761 4.761 0 0 0 7 21.75h10A4.761 4.761 0 0 0 21.75 17V7A4.761 4.761 0 0 0 17 2.25Zm0 1.5h10A3.239 3.239 0 0 1 20.25 7v10A3.239 3.239 0 0 1 17 20.25H7A3.239 3.239 0 0 1 3.75 17V7A3.239 3.239 0 0 1 7 3.75" style="color:#000;fill:currentColor;stroke-linecap:round;stroke-linejoin:round;-inkscape-stroke:none"/>
    <path d="M16 11.25a.75.75 0 0 0-.75.75v4a.75.75 0 0 0 .75.75.75.75 0 0 0 .75-.75v-4a.75.75 0 0 0-.75-.75M16 8.25a.75.75 0 0 0-.75.75v.01a.75.75 0 0 0 .75.75.75.75 0 0 0 .75-.75V9a.75.75 0 0 0-.75-.75M10 7.25a.75.75 0 0 0-.703.486l-1.875 5-1.125 3a.75.75 0 0 0 .44.967.75.75 0 0 0 .966-.44l.943-2.513h2.708l.943 2.514a.75.75 0 0 0 .967.44.75.75 0 0 0 .44-.968l-1.126-3-.01-.023-1.865-4.977A.75.75 0 0 0 10 7.25m0 2.889.791 2.111H9.209Z" style="color:#000;fill:currentColor;stroke-linecap:round;stroke-linejoin:round;-inkscape-stroke:none"/>
</svg>
