<svg xmlns="http://www.w3.org/2000/svg" width="24" height="24" fill="none" stroke-width="1.5" viewBox="0 0 24 24">
    <path d="M7 2.25A4.761 4.761 0 0 0 2.25 7v10A4.761 4.761 0 0 0 7 21.75h10A4.761 4.761 0 0 0 21.75 17V7A4.761 4.761 0 0 0 17 2.25Zm0 1.5h10A3.239 3.239 0 0 1 20.25 7v10A3.239 3.239 0 0 1 17 20.25H7A3.239 3.239 0 0 1 3.75 17V7A3.239 3.239 0 0 1 7 3.75" style="color:#000;fill:currentColor;stroke-linecap:round;stroke-linejoin:round;-inkscape-stroke:none"/>
    <path d="M7 7.25a.75.75 0 0 0-.75.75v8a.75.75 0 0 0 .75.75h4a.75.75 0 0 0 .75-.75.75.75 0 0 0-.75-.75H7.75V8A.75.75 0 0 0 7 7.25M14 9.75a.75.75 0 0 0-.75.75V16a.75.75 0 0 0 .75.75.75.75 0 0 0 .75-.75v-3s.006-.427.268-.863c.261-.436.69-.887 1.982-.887a.75.75 0 0 0 .75-.75.75.75 0 0 0-.75-.75c-.98 0-1.695.288-2.266.666A.75.75 0 0 0 14 9.75" style="color:#000;fill:currentColor;stroke-linecap:round;stroke-linejoin:round;-inkscape-stroke:none"/>
</svg>
