<svg xmlns="http://www.w3.org/2000/svg" width="24" height="24" fill="none" stroke-width="1.5" viewBox="0 0 24 24">
    <path d="M7 2.25A4.76 4.76 0 0 0 2.25 7v10A4.76 4.76 0 0 0 7 21.75h10A4.76 4.76 0 0 0 21.75 17V7A4.76 4.76 0 0 0 17 2.25Zm0 1.5h10A3.24 3.24 0 0 1 20.25 7v10A3.24 3.24 0 0 1 17 20.25H7A3.24 3.24 0 0 1 3.75 17V7A3.24 3.24 0 0 1 7 3.75" style="color:#000;fill:currentColor;stroke-linecap:round;stroke-linejoin:round;-inkscape-stroke:none"/>
    <path d="M6.664 7.33a.75.75 0 0 0-.334 1.006L8.162 12 6.33 15.664a.75.75 0 0 0 .334 1.006.75.75 0 0 0 1.006-.334L9 13.676l1.33 2.66a.75.75 0 0 0 1.006.334.75.75 0 0 0 .334-1.006L9.838 12l1.832-3.664a.75.75 0 0 0-.334-1.006.75.75 0 0 0-1.006.334L9 10.324l-1.33-2.66a.75.75 0 0 0-1.006-.334M17 8.25a.75.75 0 0 0-.75.75v2.25H15c-1.51 0-2.75 1.24-2.75 2.75s1.24 2.75 2.75 2.75h1.4a1.36 1.36 0 0 0 1.35-1.35V9a.75.75 0 0 0-.75-.75m-2 4.5h1.25v2.5H15c-.7 0-1.25-.55-1.25-1.25s.55-1.25 1.25-1.25" style="color:#000;fill:currentColor;stroke-linecap:round;stroke-linejoin:round;-inkscape-stroke:none"/>
</svg>
