<svg xmlns="http://www.w3.org/2000/svg" width="24" height="24" fill="none" stroke-width="1.5" viewBox="0 0 24 24">
    <path d="M12 7.25a.75.75 0 0 0-.75.75v14a.75.75 0 0 0 .75.75.75.75 0 0 0 .75-.75v-9.687l2.781-2.782a.75.75 0 0 0 0-1.062.75.75 0 0 0-1.062 0l-1.719 1.719V8a.75.75 0 0 0-.75-.75" style="color:#000;fill:currentColor;stroke-linecap:round;stroke-linejoin:round;-inkscape-stroke:none"/>
    <path d="M12 1.34c-2.31 0-4.619.747-6.541 2.242-2.958 2.3-3.232 6.706-.582 9.356l6.168 6.167c.52.521 1.39.521 1.91 0l6.168-6.167c2.65-2.65 2.376-7.055-.582-9.356A10.638 10.638 0 0 0 12 1.34m0 1.496c1.983 0 3.965.643 5.62 1.93a4.738 4.738 0 0 1 .442 7.111L12 17.939l-6.062-6.062a4.738 4.738 0 0 1 .443-7.111A9.136 9.136 0 0 1 12 2.836" style="color:#000;fill:currentColor;stroke-linecap:round;stroke-linejoin:round;-inkscape-stroke:none"/>
</svg>
