<svg xmlns="http://www.w3.org/2000/svg" width="24" height="24" fill="none" stroke-width="1.5" viewBox="0 0 24 24">
    <path d="M19.5 15.75a.75.75 0 0 0-.531.219.75.75 0 0 0 0 1.062l1.218 1.219H17.5a.75.75 0 0 0-.75.75.75.75 0 0 0 .75.75h2.688l-1.22 1.219a.75.75 0 0 0 0 1.062.75.75 0 0 0 1.063 0l2.5-2.5a.75.75 0 0 0 .194-.468.75.75 0 0 0 .025-.063.75.75 0 0 0-.025-.129.75.75 0 0 0-.02-.098.75.75 0 0 0-.174-.304l-2.5-2.5a.75.75 0 0 0-.531-.219M12 1.25a.75.75 0 0 0-.531.219l-2.5 2.5a.75.75 0 0 0 0 1.062l2.5 2.5a.75.75 0 0 0 1.062 0 .75.75 0 0 0 0-1.062L10.562 4.5l1.97-1.969a.75.75 0 0 0 0-1.062A.75.75 0 0 0 12 1.25" style="color:#000;fill:currentColor;stroke-linecap:round;stroke-linejoin:round;-inkscape-stroke:none"/>
    <path d="M10.5 3.75a.75.75 0 0 0-.75.75.75.75 0 0 0 .75.75A6.739 6.739 0 0 1 17.25 12a6.739 6.739 0 0 1-6.75 6.75H2a.75.75 0 0 0-.75.75.75.75 0 0 0 .75.75h8.5c4.547 0 8.25-3.703 8.25-8.25 0-4.547-3.703-8.25-8.25-8.25" style="color:#000;fill:currentColor;stroke-linecap:round;stroke-linejoin:round;-inkscape-stroke:none"/>
    <path d="M6.95 4.775a.75.75 0 0 0-.57.075A8.254 8.254 0 0 0 3.9 16.95a.75.75 0 0 0 1.05.149.75.75 0 0 0 .15-1.051A6.708 6.708 0 0 1 3.75 12a6.74 6.74 0 0 1 3.38-5.85.75.75 0 0 0 .276-1.025.75.75 0 0 0-.457-.35" style="color:#000;fill:currentColor;stroke-linecap:round;stroke-linejoin:round;-inkscape-stroke:none"/>
</svg>
