<svg xmlns="http://www.w3.org/2000/svg" width="24" height="24" fill="none" stroke-width="1.5" viewBox="0 0 24 24">
    <path d="M2.6 2.25A1.36 1.36 0 0 0 1.25 3.6V11a.75.75 0 0 0 .75.75h20a.75.75 0 0 0 .75-.75V3.6a1.36 1.36 0 0 0-1.35-1.35Zm.15 1.5h18.5v6.5H2.75Z" style="color:#000;fill:currentColor;stroke-linecap:round;stroke-linejoin:round;-inkscape-stroke:none"/>
    <path d="M18 6.25a.75.75 0 0 0-.75.75.75.75 0 0 0 .75.75h1a.75.75 0 0 0 .75-.75.75.75 0 0 0-.75-.75ZM1.781 10.283a.75.75 0 0 0-.498.936l.79 2.584a2.758 2.758 0 0 0 2.63 1.947H6a.75.75 0 0 0 .75-.75.75.75 0 0 0-.75-.75H4.703a1.244 1.244 0 0 1-1.195-.885l-.791-2.584a.75.75 0 0 0-.936-.498M22.219 10.283a.75.75 0 0 0-.936.498l-.79 2.584a1.244 1.244 0 0 1-1.196.885H18a.75.75 0 0 0-.75.75.75.75 0 0 0 .75.75h1.297a2.758 2.758 0 0 0 2.63-1.947l.79-2.584a.75.75 0 0 0-.498-.936M9.5 13.75a.75.75 0 0 0-.75.75s-.007 1.682-.416 3.318c-.204.818-.514 1.61-.91 2.139-.396.528-.799.793-1.424.793a.75.75 0 0 0-.75.75.75.75 0 0 0 .75.75c1.125 0 2.035-.61 2.623-1.395.588-.784.935-1.741 1.168-2.673.466-1.864.459-3.682.459-3.682a.75.75 0 0 0-.75-.75M14.5 13.75a.75.75 0 0 0-.75.75s-.007 1.818.459 3.682c.233.932.58 1.89 1.168 2.673.588.785 1.498 1.395 2.623 1.395a.75.75 0 0 0 .75-.75.75.75 0 0 0-.75-.75c-.625 0-1.028-.265-1.424-.793-.396-.528-.706-1.32-.91-2.139-.409-1.636-.416-3.318-.416-3.318a.75.75 0 0 0-.75-.75M12 13.75a.75.75 0 0 0-.75.75v7a.75.75 0 0 0 .75.75.75.75 0 0 0 .75-.75v-7a.75.75 0 0 0-.75-.75" style="color:#000;fill:currentColor;stroke-linecap:round;stroke-linejoin:round;-inkscape-stroke:none"/>
</svg>
