<svg xmlns="http://www.w3.org/2000/svg" width="24" height="24" fill="none" stroke-width="1.5" viewBox="0 0 24 24">
    <path d="M12 8.256A3.74 3.74 0 0 0 9.348 9.35a3.76 3.76 0 0 0 0 5.302 3.763 3.763 0 0 0 5.304 0 3.76 3.76 0 0 0 0-5.302A3.74 3.74 0 0 0 12 8.256m0 1.49c.574 0 1.15.222 1.592.664a2.238 2.238 0 0 1 0 3.182 2.24 2.24 0 0 1-3.184 0 2.238 2.238 0 0 1 0-3.182A2.245 2.245 0 0 1 12 9.746" style="color:#000;fill:currentColor;stroke-linecap:round;stroke-linejoin:round;-inkscape-stroke:none"/>
    <path d="M12 2.252c-.79 0-1.56.095-2.297.273C5.427 3.56 2.252 7.42 2.252 12.002a9.718 9.718 0 0 0 1.484 5.17.75.75 0 0 0 1.034.236.75.75 0 0 0 .236-1.035 8.205 8.205 0 0 1-1.254-4.371c0-3.89 2.69-7.145 6.303-8.02a.75.75 0 0 0 .002 0A8.236 8.236 0 0 1 12 3.752a.75.75 0 0 0 .75-.75.75.75 0 0 0-.75-.75M19.896 6.639a.75.75 0 0 0-.568.086.75.75 0 0 0-.256 1.029A8.192 8.192 0 0 1 20.25 12a8.256 8.256 0 0 1-5.234 7.682v-.002a8.22 8.22 0 0 1-3.016.57.75.75 0 0 0-.75.75.75.75 0 0 0 .75.75 9.73 9.73 0 0 0 3.564-.674c3.622-1.425 6.186-4.959 6.186-9.076 0-1.833-.51-3.552-1.393-5.02a.75.75 0 0 0-.46-.341" style="color:#000;fill:currentColor;stroke-linecap:round;stroke-linejoin:round;-inkscape-stroke:none"/>
    <path d="M18.797 2.889c-.541-.07-1.054.075-1.496.3-.884.451-1.595 1.217-2.295 1.916a.75.75 0 0 0-.004.004c-.883.894-1.253 2.085-1.443 3.041-.191.957-.188 1.73-.188 1.73a.75.75 0 0 0 .752.749s.782-.003 1.742-.195c.96-.193 2.15-.558 3.03-1.44.718-.72 1.468-1.455 1.902-2.342.217-.443.353-.949.287-1.48s-.342-1.046-.775-1.48c-.45-.45-.971-.734-1.512-.803m-.19 1.488c.17.022.365.099.641.375.255.255.325.436.346.605.02.17-.015.371-.145.637-.26.532-.906 1.229-1.617 1.942-.522.523-1.451.866-2.262 1.029-.338.068-.36.045-.605.068.022-.24-.002-.257.064-.588.16-.803.499-1.73 1.037-2.277.71-.709 1.394-1.376 1.916-1.643.262-.133.455-.17.625-.148M9.877 13.371s-.782.003-1.742.195c-.96.193-2.15.558-3.03 1.44-.718.72-1.468 1.455-1.902 2.342-.217.443-.353.949-.287 1.48s.342 1.046.775 1.48c.45.45.971.734 1.512.803.541.07 1.054-.075 1.496-.3.884-.451 1.595-1.217 2.295-1.916a.75.75 0 0 0 .004-.004c.883-.894 1.253-2.085 1.443-3.041.191-.957.188-1.73.188-1.73a.75.75 0 0 0-.752-.749m-.842 1.596c-.022.24.002.257-.064.588-.16.803-.499 1.73-1.037 2.277-.71.709-1.394 1.376-1.916 1.643-.262.133-.455.17-.625.148-.17-.022-.365-.099-.641-.375-.255-.255-.325-.436-.346-.605-.02-.17.015-.371.145-.637.26-.532.906-1.229 1.617-1.942.522-.523 1.451-.866 2.262-1.029.338-.068.36-.045.605-.068" style="color:#000;clip-rule:evenodd;fill:currentColor;fill-rule:evenodd;stroke-linecap:round;stroke-linejoin:round;-inkscape-stroke:none"/>
</svg>
