<svg xmlns="http://www.w3.org/2000/svg" width="24" height="24" fill="none" stroke-width="1.5" viewBox="0 0 24 24">
    <path d="M12 8.254a3.74 3.74 0 0 0-2.652 1.094 3.763 3.763 0 0 0 0 5.304 3.76 3.76 0 0 0 5.302 0 3.763 3.763 0 0 0 0-5.304A3.74 3.74 0 0 0 12 8.254m0 1.492c.574 0 1.147.22 1.59.662a2.24 2.24 0 0 1 0 3.184 2.24 2.24 0 0 1-3.182 0 2.24 2.24 0 0 1 0-3.184A2.24 2.24 0 0 1 12 9.746" style="color:#000;fill:currentColor;stroke-linecap:round;stroke-linejoin:round;stroke-miterlimit:1.5;-inkscape-stroke:none"/>
    <path d="M5.172 2.916c-.531.066-1.046.342-1.48.775-.45.45-.734.971-.803 1.512s.075 1.054.3 1.496c.451.884 1.217 1.595 1.916 2.295l.004.004c.894.883 2.085 1.253 3.041 1.443.957.191 1.73.188 1.73.188a.75.75 0 0 0 .749-.752s-.003-.782-.195-1.742c-.193-.96-.558-2.15-1.44-3.03-.72-.718-1.455-1.468-2.342-1.902-.443-.217-.949-.353-1.48-.287m.185 1.488c.17-.02.37.017.635.147.532.26 1.23.906 1.944 1.617.523.522.864 1.451 1.027 2.262.068.338.045.36.068.605-.24-.022-.258.001-.588-.064-.803-.16-1.73-.498-2.277-1.037l-.002-.002c-.708-.71-1.372-1.393-1.639-1.914-.133-.262-.17-.455-.148-.625s.099-.365.375-.641c.255-.255.436-.327.605-.348M18.797 2.889c-.541-.07-1.054.075-1.496.3-.884.451-1.595 1.217-2.295 1.916l-.004.004c-.883.894-1.253 2.085-1.443 3.041-.191.957-.188 1.73-.188 1.73a.75.75 0 0 0 .752.749s.782-.003 1.742-.195c.96-.193 2.15-.558 3.03-1.44.718-.72 1.468-1.455 1.902-2.342.217-.443.353-.949.287-1.48s-.342-1.046-.775-1.48c-.45-.45-.971-.734-1.512-.803m-.19 1.488c.17.022.365.099.641.375.255.255.327.436.348.605.02.17-.017.37-.147.635-.26.532-.906 1.23-1.617 1.944-.522.523-1.451.864-2.262 1.027-.338.068-.36.045-.605.068.022-.24-.001-.258.064-.588.16-.803.498-1.73 1.037-2.277l.002-.002c.71-.708 1.393-1.372 1.914-1.639.262-.133.455-.17.625-.148M9.877 13.371s-.782.003-1.742.195c-.96.193-2.15.558-3.03 1.44-.718.72-1.468 1.455-1.902 2.342-.217.443-.353.949-.287 1.48s.342 1.046.775 1.48c.45.45.971.734 1.512.803s1.054-.075 1.496-.3c.884-.451 1.595-1.217 2.295-1.916l.004-.004c.883-.894 1.253-2.085 1.443-3.041.191-.957.188-1.73.188-1.73a.75.75 0 0 0-.752-.749m-.842 1.598c-.022.24.001.258-.064.588-.16.804-.5 1.732-1.04 2.279-.708.708-1.392 1.372-1.913 1.639-.262.133-.455.17-.625.148s-.365-.099-.641-.375c-.255-.255-.327-.436-.348-.605-.02-.17.017-.37.147-.635.26-.532.906-1.23 1.617-1.944.522-.523 1.451-.864 2.262-1.027.338-.068.36-.045.605-.068M14.12 13.371a.75.75 0 0 0-.749.752s.003.782.195 1.742c.193.96.558 2.15 1.44 3.03.72.718 1.455 1.468 2.342 1.902.443.217.949.353 1.48.287s1.046-.342 1.48-.775c.45-.45.734-.971.803-1.512s-.075-1.054-.3-1.496c-.451-.884-1.217-1.595-1.916-2.295l-.004-.004c-.894-.883-2.085-1.253-3.041-1.443-.957-.191-1.73-.188-1.73-.188m.849 1.594c.24.022.258-.001.588.064.804.16 1.732.5 2.279 1.04.708.708 1.372 1.392 1.639 1.913.133.262.17.455.148.625s-.099.365-.375.641c-.255.255-.436.327-.605.348-.17.02-.37-.017-.635-.147-.532-.26-1.23-.906-1.944-1.617-.523-.522-.864-1.451-1.027-2.262-.068-.338-.045-.36-.068-.605" style="color:#000;clip-rule:evenodd;fill:currentColor;fill-rule:evenodd;stroke-linecap:round;stroke-linejoin:round;stroke-miterlimit:1.5;-inkscape-stroke:none"/>
</svg>
