<svg xmlns="http://www.w3.org/2000/svg" width="24" height="24" fill="none" stroke-width="1.5" viewBox="0 0 24 24">
    <path d="M12 8.25A3.761 3.761 0 0 0 8.25 12 3.761 3.761 0 0 0 12 15.75 3.761 3.761 0 0 0 15.75 12 3.761 3.761 0 0 0 12 8.25m0 1.5c1.252 0 2.25.999 2.25 2.25 0 1.252-.998 2.25-2.25 2.25A2.239 2.239 0 0 1 9.75 12c0-1.251.999-2.25 2.25-2.25" style="color:#000;fill:currentColor;stroke-linecap:round;stroke-linejoin:round;stroke-miterlimit:1.5;-inkscape-stroke:none"/>
    <path d="M12 .25c-.635 0-1.205.168-1.637.502-.431.334-.692.797-.845 1.27C9.21 2.965 9.25 4.01 9.25 5a.75.75 0 0 0 0 .004c.007 1.256.59 2.36 1.13 3.172a9.648 9.648 0 0 0 1.09 1.355.75.75 0 0 0 1.061-.002s.551-.553 1.094-1.369c.543-.815 1.127-1.917 1.125-3.162-.001-1.018.01-2.066-.31-3-.16-.467-.424-.92-.846-1.248-.423-.329-.98-.5-1.594-.5m0 1.5c.36 0 .54.077.674.182.135.105.25.272.346.552.192.56.229 1.512.23 2.518.001.74-.415 1.638-.873 2.326-.191.287-.223.287-.379.477-.153-.185-.182-.182-.37-.461-.455-.683-.873-1.58-.878-2.348 0-1.001.015-1.955.195-2.512.09-.279.2-.442.336-.546.136-.105.329-.188.719-.188M18.996 9.25c-1.256.007-2.36.59-3.172 1.13-.811.542-1.355 1.09-1.355 1.09a.75.75 0 0 0 .002 1.061s.554.551 1.369 1.094 1.917 1.127 3.162 1.125c1.018-.001 2.066.01 3-.31.467-.16.92-.424 1.248-.846.329-.423.5-.98.5-1.594 0-.635-.168-1.205-.502-1.637-.334-.431-.797-.692-1.27-.845C21.035 9.21 19.99 9.25 19 9.25a.75.75 0 0 0-.004 0m.008 1.5c1.001 0 1.955.015 2.512.195.279.09.442.2.546.336.105.136.188.329.188.719 0 .36-.077.54-.182.674-.105.135-.272.25-.552.346-.56.192-1.512.229-2.518.23-.74.001-1.638-.415-2.326-.873-.287-.191-.287-.223-.477-.379.185-.153.182-.182.461-.37.683-.455 1.58-.873 2.348-.878M4.998 9.25c-1.018.002-2.066-.01-3 .31-.467.16-.92.424-1.248.846-.329.423-.5.98-.5 1.594 0 .635.168 1.205.502 1.637.334.431.797.692 1.27.845.944.307 1.988.268 2.978.268a.75.75 0 0 0 .004 0c1.256-.007 2.36-.59 3.172-1.13.811-.542 1.355-1.09 1.355-1.09a.75.75 0 0 0-.002-1.061s-.553-.551-1.369-1.094c-.815-.543-1.917-1.127-3.162-1.125m.004 1.5c.74-.001 1.638.415 2.326.873.287.191.287.223.477.379-.185.153-.182.182-.461.37-.683.455-1.58.873-2.348.878-1.001 0-1.955-.015-2.512-.195-.279-.09-.442-.2-.546-.336-.105-.136-.188-.329-.188-.719 0-.36.077-.54.182-.674.105-.135.272-.25.552-.346.56-.192 1.512-.229 2.518-.23M12.53 14.469a.75.75 0 0 0-1.061.002s-.551.554-1.094 1.369-1.127 1.917-1.125 3.162c.002 1.018-.01 2.066.31 3 .16.467.424.92.846 1.248.423.329.98.5 1.594.5.635 0 1.205-.168 1.637-.502.431-.334.692-.797.845-1.27.307-.944.268-1.988.268-2.978a.75.75 0 0 0 0-.002.75.75 0 0 0 0-.002c-.007-1.256-.59-2.36-1.13-3.172-.542-.811-1.09-1.355-1.09-1.355m-.528 1.726c.153.185.182.182.37.461.455.683.873 1.58.878 2.348 0 1.001-.015 1.955-.195 2.512-.09.279-.2.442-.336.547-.136.104-.329.187-.719.187-.36 0-.54-.077-.674-.182-.135-.105-.25-.272-.346-.552-.192-.56-.229-1.512-.23-2.518-.001-.74.415-1.638.873-2.326.191-.287.223-.287.379-.477" style="color:#000;clip-rule:evenodd;fill:currentColor;fill-rule:evenodd;stroke-linecap:round;stroke-linejoin:round;stroke-miterlimit:1.5;-inkscape-stroke:none"/>
</svg>
