<svg xmlns="http://www.w3.org/2000/svg" width="24" height="24" fill="none" stroke-width="1.5" viewBox="0 0 24 24">
    <path d="M12 7.25a.75.75 0 0 0-.75.75v5a.75.75 0 0 0 .75.75h5a.75.75 0 0 0 .75-.75.75.75 0 0 0-.75-.75h-4.25V8a.75.75 0 0 0-.75-.75M7.105 1.258a.75.75 0 0 0-.554.142l-2 1.5a.75.75 0 0 0-.15 1.05.75.75 0 0 0 1.048.15l2-1.5a.75.75 0 0 0 .15-1.05.75.75 0 0 0-.494-.292M16.895 1.258a.75.75 0 0 0-.495.293.75.75 0 0 0 .15 1.049l2 1.5a.75.75 0 0 0 1.05-.15.75.75 0 0 0-.15-1.05l-2-1.5a.75.75 0 0 0-.555-.142" style="color:#000;fill:currentColor;stroke-linecap:round;stroke-linejoin:round;-inkscape-stroke:none"/>
    <path d="M12 3.25c-5.376 0-9.75 4.374-9.75 9.75s4.374 9.75 9.75 9.75 9.75-4.374 9.75-9.75S17.376 3.25 12 3.25m0 1.5A8.24 8.24 0 0 1 20.25 13 8.24 8.24 0 0 1 12 21.25 8.24 8.24 0 0 1 3.75 13 8.24 8.24 0 0 1 12 4.75" style="color:#000;fill:currentColor;stroke-linecap:round;stroke-linejoin:round;-inkscape-stroke:none"/>
</svg>
