<svg xmlns="http://www.w3.org/2000/svg" width="24" height="24" fill="none" stroke-width="1.5" viewBox="0 0 24 24">
    <path d="M15.148 1.465a.75.75 0 0 0-.882.586.75.75 0 0 0 .586.885A9.246 9.246 0 0 1 22.25 12a9.246 9.246 0 0 1-7.398 9.064.75.75 0 0 0-.586.885.75.75 0 0 0 .882.586c4.91-.996 8.602-5.342 8.602-10.535s-3.693-9.539-8.602-10.535" style="color:#000;fill:currentColor;stroke-linecap:round;stroke-linejoin:round;-inkscape-stroke:none"/>
    <path d="M15.182 8.271a.75.75 0 0 0-.91.547.75.75 0 0 0 .546.91C15.55 9.91 16.25 10.81 16.25 12s-.7 2.09-1.432 2.271a.75.75 0 0 0-.547.91.75.75 0 0 0 .91.548c1.551-.386 2.569-1.958 2.569-3.729s-1.018-3.343-2.568-3.729M1 1.25A.75.75 0 0 0 .25 2a.75.75 0 0 0 .75.75h9.25v18.5H1a.75.75 0 0 0-.75.75.75.75 0 0 0 .75.75h10a.75.75 0 0 0 .75-.75V2a.75.75 0 0 0-.75-.75Z" style="color:#000;fill:currentColor;stroke-linecap:round;stroke-linejoin:round;-inkscape-stroke:none"/>
    <path d="M4.6 6.25A1.36 1.36 0 0 0 3.25 7.6v5.963c-.257-.103-.459-.313-.75-.313A2.26 2.26 0 0 0 .25 15.5a2.26 2.26 0 0 0 2.25 2.25c1.027 0 1.762-.77 2.027-1.717a.75.75 0 0 0 .223-.533V7.75H7A.75.75 0 0 0 7.75 7 .75.75 0 0 0 7 6.25Zm-2.1 8.5c.423 0 .75.327.75.75s-.327.75-.75.75a.74.74 0 0 1-.75-.75c0-.423.327-.75.75-.75" style="color:#000;fill:currentColor;stroke-linecap:round;-inkscape-stroke:none"/>
</svg>
