<svg xmlns="http://www.w3.org/2000/svg" width="24" height="24" fill="none" stroke-width="1.5" viewBox="0 0 24 24">
    <path d="M4.512 15.432a.75.75 0 0 0-1.059.054l-.01.012a.75.75 0 0 0 .055 1.059.75.75 0 0 0 1.059-.055l.01-.012a.75.75 0 0 0-.055-1.058M3.97 19.24a.75.75 0 0 0-.517.246l-.01.012a.75.75 0 0 0 .055 1.059.75.75 0 0 0 1.059-.055l.01-.012a.75.75 0 0 0-.055-1.058.75.75 0 0 0-.541-.192M7.97 19.24a.75.75 0 0 0-.517.246l-.01.012a.75.75 0 0 0 .055 1.059.75.75 0 0 0 1.059-.055l.01-.012a.75.75 0 0 0-.055-1.058.75.75 0 0 0-.541-.192M11.97 19.24a.75.75 0 0 0-.517.246l-.01.012a.75.75 0 0 0 .055 1.059.75.75 0 0 0 1.059-.055l.01-.012a.75.75 0 0 0-.055-1.058.75.75 0 0 0-.541-.192M16.512 19.432a.75.75 0 0 0-1.059.054l-.01.012a.75.75 0 0 0 .055 1.059.75.75 0 0 0 1.059-.055l.01-.012a.75.75 0 0 0-.055-1.058M19.97 19.24a.75.75 0 0 0-.517.246l-.01.012a.75.75 0 0 0 .055 1.059.75.75 0 0 0 1.059-.055l.01-.012a.75.75 0 0 0-.055-1.058.75.75 0 0 0-.541-.192M19.97 15.24a.75.75 0 0 0-.517.246l-.01.012a.75.75 0 0 0 .055 1.059.75.75 0 0 0 1.059-.055l.01-.012a.75.75 0 0 0-.055-1.058.75.75 0 0 0-.541-.192M4 3.25a.75.75 0 0 0-.75.75v8a.75.75 0 0 0 .75.75h16a.75.75 0 0 0 .75-.75V4a.75.75 0 0 0-.75-.75Zm.75 1.5h14.5v6.5H4.75Z" style="color:#000;fill:currentColor;stroke-linecap:round;stroke-linejoin:round;-inkscape-stroke:none"/>
</svg>
