<svg xmlns="http://www.w3.org/2000/svg" width="24" height="24" fill="none" stroke-width="1.5" viewBox="0 0 24 24">
    <path d="M8.057 19.246a.75.75 0 0 0-.541.192l-.012.01a.75.75 0 0 0-.057 1.058.75.75 0 0 0 1.06.057l.01-.01a.75.75 0 0 0 .057-1.059.75.75 0 0 0-.517-.248M3.516 19.438l-.012.01a.75.75 0 0 0-.057 1.058.75.75 0 0 0 1.06.057l.01-.01a.75.75 0 0 0 .057-1.059.75.75 0 0 0-1.058-.056M4.057 15.246a.75.75 0 0 0-.541.191l-.012.01a.75.75 0 0 0-.057 1.059.75.75 0 0 0 1.06.057l.01-.01a.75.75 0 0 0 .057-1.059.75.75 0 0 0-.517-.248M4.057 11.246a.75.75 0 0 0-.541.191l-.012.01a.75.75 0 0 0-.057 1.059.75.75 0 0 0 1.06.057l.01-.01a.75.75 0 0 0 .057-1.059.75.75 0 0 0-.517-.248M4.057 7.246a.75.75 0 0 0-.541.191l-.012.01a.75.75 0 0 0-.057 1.059.75.75 0 0 0 1.06.056l.01-.01a.75.75 0 0 0 .057-1.058.75.75 0 0 0-.517-.248M4.057 3.246a.75.75 0 0 0-.541.192l-.012.01a.75.75 0 0 0-.057 1.058.75.75 0 0 0 1.06.056l.01-.01a.75.75 0 0 0 .057-1.058.75.75 0 0 0-.517-.248M8.057 3.246a.75.75 0 0 0-.541.192l-.012.01a.75.75 0 0 0-.057 1.058.75.75 0 0 0 1.06.056l.01-.01a.75.75 0 0 0 .057-1.058.75.75 0 0 0-.517-.248M12.006 3.256a.75.75 0 0 0-.75.75v16a.75.75 0 0 0 .75.75h8a.75.75 0 0 0 .75-.75v-16a.75.75 0 0 0-.75-.75zm.75 1.5h6.5v14.5h-6.5z" style="color:#000;fill:currentColor;stroke-linecap:round;stroke-linejoin:round;-inkscape-stroke:none"/>
</svg>
