<svg xmlns="http://www.w3.org/2000/svg" width="24" height="24" fill="none" stroke-width="1.5" viewBox="0 0 24 24">
    <path d="M4.04 7.252a.75.75 0 0 0-.542.191.75.75 0 0 0-.055 1.059l.01.012a.75.75 0 0 0 1.059.054.75.75 0 0 0 .056-1.058l-.011-.012a.75.75 0 0 0-.518-.246M4.04 3.252a.75.75 0 0 0-.542.191.75.75 0 0 0-.055 1.059l.01.012a.75.75 0 0 0 1.059.054.75.75 0 0 0 .056-1.058l-.011-.012a.75.75 0 0 0-.518-.246M8.04 3.252a.75.75 0 0 0-.542.191.75.75 0 0 0-.055 1.059l.01.012a.75.75 0 0 0 1.059.054.75.75 0 0 0 .056-1.058l-.011-.012a.75.75 0 0 0-.518-.246M12.04 3.252a.75.75 0 0 0-.542.191.75.75 0 0 0-.055 1.059l.01.012a.75.75 0 0 0 1.059.054.75.75 0 0 0 .056-1.058l-.011-.012a.75.75 0 0 0-.518-.246M15.498 3.443a.75.75 0 0 0-.055 1.059l.01.012a.75.75 0 0 0 1.059.054.75.75 0 0 0 .056-1.058l-.011-.012a.75.75 0 0 0-1.059-.055M20.04 3.252a.75.75 0 0 0-.542.191.75.75 0 0 0-.055 1.059l.01.012a.75.75 0 0 0 1.059.054.75.75 0 0 0 .056-1.058l-.011-.012a.75.75 0 0 0-.518-.246M20.04 7.252a.75.75 0 0 0-.542.191.75.75 0 0 0-.055 1.059l.01.012a.75.75 0 0 0 1.059.054.75.75 0 0 0 .056-1.058l-.011-.012a.75.75 0 0 0-.518-.246M4 11.25a.75.75 0 0 0-.75.75v8a.75.75 0 0 0 .75.75h16a.75.75 0 0 0 .75-.75v-8a.75.75 0 0 0-.75-.75Zm.75 1.5h14.5v6.5H4.75Z" style="color:#000;fill:currentColor;stroke-linecap:round;stroke-linejoin:round;-inkscape-stroke:none"/>
</svg>
