<svg xmlns="http://www.w3.org/2000/svg" width="24" height="24" fill="none" stroke-width="1.5" viewBox="0 0 24 24">
    <path d="m15.502 3.438-.012.01a.75.75 0 0 0-.054 1.06.75.75 0 0 0 1.058.055l.012-.01a.75.75 0 0 0 .055-1.06.75.75 0 0 0-1.059-.055M20.043 3.246a.75.75 0 0 0-.541.192l-.012.01a.75.75 0 0 0-.054 1.06.75.75 0 0 0 1.058.055l.012-.01a.75.75 0 0 0 .055-1.06.75.75 0 0 0-.518-.247M19.502 7.438l-.012.01a.75.75 0 0 0-.054 1.06.75.75 0 0 0 1.058.055l.012-.01a.75.75 0 0 0 .055-1.06.75.75 0 0 0-1.059-.056M19.502 11.438l-.012.01a.75.75 0 0 0-.054 1.06.75.75 0 0 0 1.058.055l.012-.01a.75.75 0 0 0 .055-1.06.75.75 0 0 0-1.059-.055M20.043 15.246a.75.75 0 0 0-.541.191l-.012.01a.75.75 0 0 0-.054 1.06.75.75 0 0 0 1.058.056l.012-.01a.75.75 0 0 0 .055-1.06.75.75 0 0 0-.518-.247M20.043 19.246a.75.75 0 0 0-.541.192l-.012.01a.75.75 0 0 0-.054 1.06.75.75 0 0 0 1.058.055l.012-.01a.75.75 0 0 0 .055-1.06.75.75 0 0 0-.518-.247M16.043 19.246a.75.75 0 0 0-.541.192l-.012.01a.75.75 0 0 0-.054 1.06.75.75 0 0 0 1.058.055l.012-.01a.75.75 0 0 0 .055-1.06.75.75 0 0 0-.518-.247M4.006 3.244a.75.75 0 0 0-.75.75v16a.75.75 0 0 0 .75.75h8a.75.75 0 0 0 .75-.75v-16a.75.75 0 0 0-.75-.75zm.75 1.5h6.5v14.5h-6.5Z" style="color:#000;fill:currentColor;stroke-linecap:round;stroke-linejoin:round;-inkscape-stroke:none"/>
</svg>
