<svg xmlns="http://www.w3.org/2000/svg" width="24" height="24" fill="none" stroke-width="1.5" viewBox="0 0 24 24">
    <path d="M3 2.25a.75.75 0 0 0-.75.75v18a.75.75 0 0 0 .75.75h18a.75.75 0 0 0 .75-.75v-6a.75.75 0 0 0-.75-.75H9.75V3A.75.75 0 0 0 9 2.25Zm.75 1.5h4.5V15a.75.75 0 0 0 .75.75h11.25v4.5H3.75Z" style="color:#000;fill:currentColor;stroke-linecap:round;stroke-linejoin:round;-inkscape-stroke:none"/>
    <path d="M13 18.25a.75.75 0 0 0-.75.75v2a.75.75 0 0 0 .75.75.75.75 0 0 0 .75-.75v-2a.75.75 0 0 0-.75-.75M9 18.25a.75.75 0 0 0-.75.75v2a.75.75 0 0 0 .75.75.75.75 0 0 0 .75-.75v-2a.75.75 0 0 0-.75-.75M3 6.25a.75.75 0 0 0-.75.75.75.75 0 0 0 .75.75h2A.75.75 0 0 0 5.75 7 .75.75 0 0 0 5 6.25ZM3 10.25a.75.75 0 0 0-.75.75.75.75 0 0 0 .75.75h2a.75.75 0 0 0 .75-.75.75.75 0 0 0-.75-.75ZM3 14.25a.75.75 0 0 0-.75.75.75.75 0 0 0 .75.75h2a.75.75 0 0 0 .75-.75.75.75 0 0 0-.75-.75ZM17 18.25a.75.75 0 0 0-.75.75v2a.75.75 0 0 0 .75.75.75.75 0 0 0 .75-.75v-2a.75.75 0 0 0-.75-.75" style="color:#000;fill:currentColor;stroke-linecap:round;-inkscape-stroke:none"/>
</svg>
