<svg xmlns="http://www.w3.org/2000/svg" width="24" height="24" fill="none" stroke-width="1.5" viewBox="0 0 24 24">
    <path d="M8 2.25C4.281 2.25 1.25 5.281 1.25 9v6c0 3.719 3.031 6.75 6.75 6.75h8c3.719 0 6.75-3.031 6.75-6.75V9c0-3.719-3.031-6.75-6.75-6.75Zm0 1.5h8A5.239 5.239 0 0 1 21.25 9v6A5.239 5.239 0 0 1 16 20.25H8A5.239 5.239 0 0 1 2.75 15V9A5.239 5.239 0 0 1 8 3.75" style="color:#000;fill:currentColor;-inkscape-stroke:none"/>
    <path d="M15.045 8.252a.75.75 0 0 0-.543.187.75.75 0 0 0-.063 1.059s.811.894.811 2.502c0 1.608-.81 2.502-.81 2.502a.75.75 0 0 0 .062 1.059.75.75 0 0 0 1.059-.063S16.75 14.142 16.75 12c0-2.142-1.19-3.498-1.19-3.498a.75.75 0 0 0-.515-.25M11.97 11.25a.75.75 0 0 0-.517.246l-.01.012a.75.75 0 0 0 .055 1.058.75.75 0 0 0 1.059-.054l.01-.012a.75.75 0 0 0-.055-1.059.75.75 0 0 0-.541-.191" style="color:#000;fill:currentColor;stroke-linecap:round;stroke-linejoin:round;-inkscape-stroke:none"/>
    <path d="M17.5 6.441a.75.75 0 0 0-1.059.059.75.75 0 0 0 .059 1.059S18.25 9.097 18.25 12c0 2.903-1.75 4.441-1.75 4.441a.75.75 0 0 0-.059 1.059.75.75 0 0 0 1.059.059s2.25-2.034 2.25-5.559c0-3.525-2.25-5.559-2.25-5.559M8.955 8.252a.75.75 0 0 0-.516.25S7.25 9.858 7.25 12c0 2.142 1.19 3.498 1.19 3.498a.75.75 0 0 0 1.058.063.75.75 0 0 0 .063-1.059S8.75 13.608 8.75 12c0-1.608.81-2.502.81-2.502a.75.75 0 0 0-.062-1.059.75.75 0 0 0-.543-.187" style="color:#000;fill:currentColor;stroke-linecap:round;stroke-linejoin:round;-inkscape-stroke:none"/>
    <path d="M7.043 6.252a.75.75 0 0 0-.543.19S4.25 8.474 4.25 12s2.25 5.559 2.25 5.559a.75.75 0 0 0 1.059-.059.75.75 0 0 0-.059-1.059S5.75 14.903 5.75 12c0-2.903 1.75-4.441 1.75-4.441A.75.75 0 0 0 7.559 6.5a.75.75 0 0 0-.516-.248" style="color:#000;fill:currentColor;stroke-linecap:round;stroke-linejoin:round;-inkscape-stroke:none"/>
</svg>
