<svg xmlns="http://www.w3.org/2000/svg" width="24" height="24" fill="none" stroke-width="1.5" viewBox="0 0 24 24">
    <path d="M12 1.992c-.886 0-1.774.248-2.55.742L3.247 6.68c-1.673 1.064-1.673 3.576 0 4.64l6.201 3.946c1.555.989 3.547.989 5.102 0l6.201-3.946c1.673-1.064 1.673-3.575 0-4.64l-6.201-3.946A4.749 4.749 0 0 0 12 1.992m0 1.498c.606 0 1.211.17 1.744.51l6.201 3.945a1.23 1.23 0 0 1 0 2.11L13.745 14a3.244 3.244 0 0 1-3.49 0l-6.2-3.945a1.23 1.23 0 0 1 0-2.11L10.255 4A3.245 3.245 0 0 1 12 3.49" style="color:#000;fill:currentColor;-inkscape-stroke:none"/>
    <path d="M5.313 11.367 3.248 12.68c-1.673 1.064-1.673 3.576 0 4.64l6.201 3.946c1.555.989 3.547.989 5.102 0l6.201-3.946c1.673-1.064 1.673-3.576 0-4.64l-2.064-1.313-.805 1.266 2.062 1.312a1.23 1.23 0 0 1 0 2.11L13.745 20a3.244 3.244 0 0 1-3.49 0l-6.2-3.945a1.23 1.23 0 0 1 0-2.11l2.062-1.312z" style="color:#000;fill:currentColor;-inkscape-stroke:none"/>
</svg>
