<svg xmlns="http://www.w3.org/2000/svg" width="24" height="24" fill="none" stroke-width="1.5" viewBox="0 0 24 24">
    <path d="M14.01 2.262a1.378 1.378 0 0 0-.84.427 1.363 1.363 0 0 0-.047 1.784.75.75 0 0 0 .004.004c-.065-.077.027.033.094.123s.162.225.275.398c.226.346.517.847.777 1.451.384.891.576 2.025.541 3.217-2.354-1.758-7.191-5.55-7.191-5.55a.75.75 0 0 0-1.107.978l2.136 3.502L4.268 5.77a.75.75 0 0 0-.989 1.103s3.919 4.694 7.106 7.514c-1.573.291-3.804.342-7.024-1.658a1.387 1.387 0 0 0-1.68.16 1.358 1.358 0 0 0-.238 1.681c.2.33 3.844 6.18 11.496 6.18 2.138 0 3.49-.645 4.426-1.1.578-.28.927-.425 1.2-.425.739 0 1.43.903 1.437.914l-.014-.02c.256.398.696.631 1.162.631.054 0 .086-.003.104-.004a.75.75 0 0 0 .006 0c.5-.039.953-.352 1.156-.822.546-1.269.34-2.559-.055-3.576-.336-.866-.78-1.448-1.125-1.899.243-.91.516-2.511-.09-4.576-.668-2.28-2.403-4.955-6.214-7.402a.75.75 0 0 0-.002-.002 1.385 1.385 0 0 0-.92-.207m.85 2.115c2.882 2.083 4.337 4.179 4.847 5.918.563 1.92.226 3.452.033 4.072a.75.75 0 0 0 .135.695c.282.348.78 1.038 1.088 1.829.279.719.354 1.48.113 2.216-.194-.288-.98-1.382-2.512-1.382-.72 0-1.278.297-1.853.576a.75.75 0 0 0-.002 0c-.938.455-1.917.949-3.77.949-6.262 0-9.146-4.043-9.75-4.951 4.166 2.34 7.481 1.9 9.061 1.332a.75.75 0 0 0 .197-1.305C11.2 13.386 9.545 11.62 8.061 10l2.533 1.63a.75.75 0 0 0 1.047-1.02L9.91 7.772c2.077 1.633 4.044 3.212 5.144 3.97a.75.75 0 0 0 1.152-.432c.538-2.107.05-4.053-.555-5.456a10.45 10.45 0 0 0-.793-1.478" style="color:#000;fill:currentColor;stroke-linecap:round;stroke-linejoin:round;-inkscape-stroke:none"/>
</svg>
