<svg xmlns="http://www.w3.org/2000/svg" width="24" height="24" fill="none" stroke-width="1.5" viewBox="0 0 24 24">
    <path d="M15.686 3.969C14.526 4.108 13.282 4.487 12 5c-1.508-.503-2.865-.874-4.094-1.016s-2.282-.046-3.156.391c-.84.42-1.564 1.227-2.031 2.453S2 9.708 2 12c0 4.513 1.273 7.269 3.125 8.75C6.986 22.24 9.482 22.504 12 22c2.518.504 5.014.24 6.875-1.25C20.727 19.269 22 16.513 22 12c0-2.273-.31-3.939-.86-5.174-.549-1.235-1.368-2.032-2.265-2.451-.952-.444-2.03-.545-3.19-.406M7.734 5.475c1.054.121 2.33.462 3.791.949l.522.174.51-.205c2.399-.96 4.454-1.232 5.683-.659.573.267 1.1.74 1.53 1.704s.73 2.428.73 4.562c0 4.235-1.153 6.45-2.562 7.578-1.417 1.134-3.408 1.398-5.643.951L12 20.471l-.295.058c-2.235.447-4.226.183-5.642-.95C4.653 18.45 3.5 16.234 3.5 12c0-2.18.252-3.672.621-4.639s.812-1.4 1.299-1.644c.515-.258 1.26-.364 2.314-.242" style="color:#000;fill:currentColor;-inkscape-stroke:none"/>
    <path d="M9 1.25a.75.75 0 0 0-.75.75.75.75 0 0 0 .75.75c.875 0 1.364.194 1.69.56s.56 1.04.56 2.19a.75.75 0 0 0 .75.75.75.75 0 0 0 .75-.75c0-1.35-.265-2.427-.94-3.186S10.126 1.25 9 1.25" style="color:#000;fill:currentColor;stroke-linecap:round;stroke-linejoin:round;-inkscape-stroke:none"/>
    <path d="M11.25 6v15h1.5V6Z" style="color:#000;fill:currentColor;-inkscape-stroke:none"/>
    <path d="M15 11.25a.75.75 0 0 0-.75.75v2a.75.75 0 0 0 .75.75.75.75 0 0 0 .75-.75v-2a.75.75 0 0 0-.75-.75" style="color:#000;fill:currentColor;stroke-linecap:round;stroke-linejoin:round;-inkscape-stroke:none"/>
</svg>
