<svg xmlns="http://www.w3.org/2000/svg" width="24" height="24" fill="none" stroke-width="1.5" viewBox="0 0 24 24">
    <path d="M6.81 1.273a.75.75 0 0 0-.537.916l2.954 11.32-1.82 7.741H6a.75.75 0 0 0-.75.75.75.75 0 0 0 .75.75h8a.75.75 0 0 0 .75-.75.75.75 0 0 0-.75-.75H8.947l1.108-4.705.722 2.652a.75.75 0 0 0 .92.526.75.75 0 0 0 .526-.92l-1.496-5.485v-.007l-3-11.5a.75.75 0 0 0-.916-.538M17 21.25a.75.75 0 0 0-.75.75.75.75 0 0 0 .75.75h1a.75.75 0 0 0 .75-.75.75.75 0 0 0-.75-.75Z" style="color:#000;fill:currentColor;stroke-linecap:round;stroke-linejoin:round;-inkscape-stroke:none"/>
</svg>
