<svg xmlns="http://www.w3.org/2000/svg" width="24" height="24" fill="none" stroke-width="1.5" viewBox="0 0 24 24">
    <path d="M8 2.25C4.281 2.25 1.25 5.281 1.25 9v6c0 3.719 3.031 6.75 6.75 6.75h8c3.719 0 6.75-3.031 6.75-6.75V9c0-3.719-3.031-6.75-6.75-6.75Zm0 1.5h8A5.24 5.24 0 0 1 21.25 9v6A5.24 5.24 0 0 1 16 20.25H8A5.24 5.24 0 0 1 2.75 15V9A5.24 5.24 0 0 1 8 3.75" style="color:#000;fill:currentColor;-inkscape-stroke:none"/>
    <path d="M13 7.75a.75.75 0 0 0-.75.75v7a.75.75 0 0 0 .75.75.75.75 0 0 0 .75-.75v-2.05h1.736l1.918 2.505a.75.75 0 0 0 1.051.14.75.75 0 0 0 .14-1.05l-1.433-1.873c.16-.052.252.007.414-.088.673-.395 1.174-1.264 1.174-2.484s-.501-2.09-1.174-2.485-1.361-.365-1.719-.365Zm.75 1.5h2.107c.358 0 .739.029.96.158.22.13.433.312.433 1.192s-.213 1.061-.434 1.191c-.22.13-.601.158-.959.158H13.75ZM8 7.75a.75.75 0 0 0-.69.455l-1.927 4.5-1.072 2.5a.75.75 0 0 0 .394.984.75.75 0 0 0 .984-.394l.877-2.045h2.868l.877 2.045a.75.75 0 0 0 .984.394.75.75 0 0 0 .394-.984l-1.068-2.49v-.002l-.002-.002-.002-.006-1.928-4.5A.75.75 0 0 0 8 7.75m0 2.654.791 1.846H7.209Z" style="color:#000;fill:currentColor;stroke-linecap:round;stroke-linejoin:round;-inkscape-stroke:none"/>
</svg>
