<svg xmlns="http://www.w3.org/2000/svg" width="24" height="24" fill="none" stroke-width="1.5" viewBox="0 0 24 24">
    <path d="M12.756 5.277a.75.75 0 0 0-.795.702.75.75 0 0 0 .701.794l.05.004.235.022.233.025.23.033.229.038.226.043.225.048.222.055.221.06.217.065.217.07.213.075.18.068a.75.75 0 0 0 .966-.434.75.75 0 0 0-.433-.968l-.188-.07a.75.75 0 0 0-.018-.009l-.23-.08a.75.75 0 0 0-.018-.005l-.234-.077a.75.75 0 0 0-.018-.006l-.236-.07a.75.75 0 0 0-.017-.004l-.239-.064a.75.75 0 0 0-.017-.006l-.242-.059a.75.75 0 0 0-.018-.004l-.244-.052a.75.75 0 0 0-.018-.004l-.244-.047a.75.75 0 0 0-.02-.004l-.247-.041a.75.75 0 0 0-.018-.002l-.25-.035a.75.75 0 0 0-.018-.002l-.252-.03a.75.75 0 0 0-.02-.001l-.251-.024a.75.75 0 0 0-.02 0zm-3.201.252-.145.035a.75.75 0 0 0-.014.004l-.177.045a.75.75 0 0 0-.014.004l-.176.049a.75.75 0 0 0-.013.004l-.176.053a.75.75 0 0 0-.012.004l-.174.054a.75.75 0 0 0-.013.004l-.174.059a.75.75 0 0 0-.012.004l-.172.062a.75.75 0 0 0-.012.004l-.17.065a.75.75 0 0 0-.013.005l-.168.067a.75.75 0 0 0-.012.006l-.168.07a.75.75 0 0 0-.011.006l-.167.072a.75.75 0 0 0-.011.006l-.164.076a.75.75 0 0 0-.012.006l-.162.078a.75.75 0 0 0-.012.008l-.16.08a.75.75 0 0 0-.012.008l-.158.084a.75.75 0 0 0-.012.006l-.158.088a.75.75 0 0 0-.012.005l-.113.067a.75.75 0 0 0-.271 1.025.75.75 0 0 0 1.025.272l.107-.063.145-.08.147-.078.148-.076.15-.072.15-.07.153-.07.154-.064.157-.062.156-.059.158-.056.16-.055.16-.05.162-.05.163-.045.166-.043.136-.033a.75.75 0 0 0 .557-.902.75.75 0 0 0-.904-.557m8.582 1.893a.75.75 0 0 0-.504.275.75.75 0 0 0 .113 1.055l.137.11.17.144.166.146.162.153.16.154.154.16.153.162.146.166.145.17.138.172.135.178.131.18.094.134a.75.75 0 0 0 1.045.19.75.75 0 0 0 .19-1.043l-.1-.145a.75.75 0 0 0-.01-.013l-.143-.196a.75.75 0 0 0-.01-.013l-.146-.192a.75.75 0 0 0-.012-.014l-.15-.187a.75.75 0 0 0-.012-.014l-.154-.183a.75.75 0 0 0-.012-.014l-.16-.178a.75.75 0 0 0-.012-.013l-.164-.176a.75.75 0 0 0-.012-.014l-.168-.172a.75.75 0 0 0-.011-.011l-.172-.168a.75.75 0 0 0-.014-.012l-.176-.164a.75.75 0 0 0-.013-.012l-.18-.16a.75.75 0 0 0-.012-.012l-.183-.154a.75.75 0 0 0-.014-.012l-.145-.115a.75.75 0 0 0-.55-.162M4.596 8.494a.75.75 0 0 0-.52.242l-.056.06a.75.75 0 0 0-.008.01l-.12.133a.75.75 0 0 0-.007.01l-.115.137a.75.75 0 0 0-.01.01l-.114.136a.75.75 0 0 0-.007.012l-.112.139a.75.75 0 0 0-.007.01l-.11.142a.75.75 0 0 0-.008.01l-.105.144a.75.75 0 0 0-.008.01l-.103.147a.75.75 0 0 0-.008.01l-.102.148a.75.75 0 0 0-.008.012l-.097.148a.75.75 0 0 0-.008.012l-.096.15a.75.75 0 0 0-.008.012l-.091.152a.75.75 0 0 0-.008.012l-.09.154a.75.75 0 0 0-.008.012l-.086.158a.75.75 0 0 0-.008.012l-.084.158a.75.75 0 0 0-.007.012l-.082.16a.75.75 0 0 0-.006.012l-.08.162a.75.75 0 0 0-.006.012l-.024.05a.75.75 0 0 0 .362.998.75.75 0 0 0 .996-.361l.021-.045.074-.148.077-.149.078-.146.082-.145.082-.142.088-.141.088-.14.091-.14.092-.136.098-.135.097-.133.1-.13.104-.13.105-.126.106-.125.109-.123.05-.057a.75.75 0 0 0-.044-1.059.75.75 0 0 0-.54-.197m16.746 3.832a.75.75 0 0 0-.506.932l.062.209.061.22.055.223.049.225.042.226.038.229.033.23.025.233.022.234.015.236.008.239.004.248a.75.75 0 0 0 .76.74.75.75 0 0 0 .74-.76l-.004-.258a.75.75 0 0 0 0-.02l-.01-.255a.75.75 0 0 0 0-.02l-.017-.253a.75.75 0 0 0 0-.02l-.024-.252a.75.75 0 0 0-.002-.02l-.029-.251a.75.75 0 0 0-.002-.018l-.035-.25a.75.75 0 0 0-.002-.018l-.041-.248a.75.75 0 0 0-.004-.02l-.047-.243a.75.75 0 0 0-.004-.02l-.053-.242a.75.75 0 0 0-.003-.018l-.06-.242a.75.75 0 0 0-.005-.017l-.064-.239a.75.75 0 0 0-.004-.017l-.065-.219a.75.75 0 0 0-.933-.504z" style="color:#000;fill:currentColor;stroke-linecap:round;stroke-linejoin:round;stroke-dasharray:3,3;-inkscape-stroke:none"/>
    <path d="M2 17a1 1 0 1 0 0-2 1 1 0 0 0 0 2" style="color:#000;fill:currentColor;stroke-width:1.5;stroke-linecap:round;stroke-linejoin:round;-inkscape-stroke:none"/>
    <path d="M2 14.25c-.958 0-1.75.792-1.75 1.75s.792 1.75 1.75 1.75 1.75-.792 1.75-1.75-.792-1.75-1.75-1.75m0 1.5a.24.24 0 0 1 .25.25.24.24 0 0 1-.25.25.24.24 0 0 1-.25-.25.24.24 0 0 1 .25-.25" style="color:#000;fill:currentColor;stroke-linecap:round;stroke-linejoin:round;-inkscape-stroke:none"/>
    <path d="M2 15.25a.75.75 0 0 0-.75.75.75.75 0 0 0 .75.75h10a.75.75 0 0 0 .75-.75.75.75 0 0 0-.75-.75Z" style="color:#000;fill:currentColor;stroke-linecap:round;stroke-linejoin:round;-inkscape-stroke:none"/>
    <path d="M12 17a1 1 0 1 0 0-2 1 1 0 0 0 0 2" style="color:#000;fill:currentColor;stroke-width:1.5;stroke-linecap:round;stroke-linejoin:round;-inkscape-stroke:none"/>
    <path d="M12 14.25c-.958 0-1.75.792-1.75 1.75s.792 1.75 1.75 1.75 1.75-.792 1.75-1.75-.792-1.75-1.75-1.75m0 1.5a.24.24 0 0 1 .25.25.24.24 0 0 1-.25.25.24.24 0 0 1-.25-.25.24.24 0 0 1 .25-.25" style="color:#000;fill:currentColor;stroke-linecap:round;stroke-linejoin:round;-inkscape-stroke:none"/>
</svg>
