<svg xmlns="http://www.w3.org/2000/svg" width="24" height="24" fill="none" stroke-width="1.5" viewBox="0 0 24 24">
    <path d="m10.71 7.809-1.21.503-7.459 3.391c-.48.218-.791.701-.791 1.229v.136c0 .528.31 1.01.791 1.229l8.82 4.01a2.755 2.755 0 0 0 2.278 0l8.82-4.01c.48-.218.791-.701.791-1.229v-.136c0-.528-.31-1.01-.791-1.229L14.5 8.313l-1.21-.504-.58 1.382 1.19.496L21.188 13l-8.67 3.941a1.25 1.25 0 0 1-1.036 0L2.812 13 10.1 9.688l1.19-.497Z" style="color:#000;fill:currentColor;-inkscape-stroke:none"/>
    <path d="M1.25 13v4.111c0 .53.314 1.016.797 1.233l8.824 3.97c.717.323 1.54.323 2.258 0l8.824-3.97c.483-.217.797-.703.797-1.233V13h-1.5v4.014l-8.736 3.933c-.327.147-.701.147-1.028 0L2.75 17.014V13Z" style="color:#000;fill:currentColor;-inkscape-stroke:none"/>
    <path d="M12 1.25A3.761 3.761 0 0 0 8.25 5 3.761 3.761 0 0 0 12 8.75 3.761 3.761 0 0 0 15.75 5 3.761 3.761 0 0 0 12 1.25m0 1.5c1.252 0 2.25.998 2.25 2.25S13.252 7.25 12 7.25A2.239 2.239 0 0 1 9.75 5c0-1.252.998-2.25 2.25-2.25" style="color:#000;fill:currentColor;stroke-linecap:round;stroke-linejoin:round;-inkscape-stroke:none"/>
    <path d="M10.25 8v5c0 .958.792 1.75 1.75 1.75s1.75-.792 1.75-1.75V8h-1.5v5a.24.24 0 0 1-.25.25.24.24 0 0 1-.25-.25V8Z" style="color:#000;fill:currentColor;-inkscape-stroke:none"/>
    <path d="M16 12.25a.75.75 0 0 0-.75.75.75.75 0 0 0 .75.75h1a.75.75 0 0 0 .75-.75.75.75 0 0 0-.75-.75Z" style="color:#000;fill:currentColor;stroke-linecap:round;stroke-linejoin:round;-inkscape-stroke:none"/>
</svg>
