<svg xmlns="http://www.w3.org/2000/svg" width="24" height="24" fill="none" stroke-width="1.5" viewBox="0 0 24 24">
    <path d="M7 5.25a.75.75 0 0 0-.75.75.75.75 0 0 0 .75.75h10a.75.75 0 0 0 .75-.75.75.75 0 0 0-.75-.75ZM7 8.25a.75.75 0 0 0-.75.75.75.75 0 0 0 .75.75h10a.75.75 0 0 0 .75-.75.75.75 0 0 0-.75-.75ZM9 16.25a.75.75 0 0 0-.75.75.75.75 0 0 0 .75.75h6a.75.75 0 0 0 .75-.75.75.75 0 0 0-.75-.75Z" style="color:#000;fill:currentColor;stroke-linecap:round;stroke-linejoin:round;-inkscape-stroke:none"/>
    <path d="M3.6 1.25A1.36 1.36 0 0 0 2.25 2.6v8.796c-.55.171-1 .602-1 1.204v8.8c0 .737.613 1.35 1.35 1.35h18.8a1.36 1.36 0 0 0 1.35-1.35v-8.8c0-.602-.45-1.033-1-1.204V2.6a1.36 1.36 0 0 0-1.35-1.35Zm.15 1.5h16.5v8.5H3.75Zm-1 10h18.5v8.5H2.75Z" style="color:#000;fill:currentColor;-inkscape-stroke:none"/>
</svg>
