<svg xmlns="http://www.w3.org/2000/svg" width="24" height="24" fill="none" stroke-width="1.5" viewBox="0 0 24 24">
    <path d="M17.803 3.12a.75.75 0 0 0-.75.75.75.75 0 0 0 .75.75h1.017L8.3 15.138H5.784a.75.75 0 0 0-.531.22l-2.828 2.829a.75.75 0 0 0 .53 1.279h2.08v2.08a.75.75 0 0 0 1.279.53l2.828-2.829a.75.75 0 0 0 .22-.531v-2.518l10.52-10.52v1.018a.75.75 0 0 0 .75.75.75.75 0 0 0 .75-.75V3.87a.75.75 0 0 0-.219-.531.75.75 0 0 0-.244-.162.75.75 0 0 0-.287-.057zM6.093 16.638h1.768v1.767l-1.328 1.328v-1.017a.75.75 0 0 0-.75-.75H4.766Z" style="color:#000;fill:currentColor;stroke-linecap:round;stroke-linejoin:round;-inkscape-stroke:none"/>
    <path d="M3.37 3.12a.75.75 0 0 0-.532.218.75.75 0 0 0-.219.531v2.828a.75.75 0 0 0 .75.75.75.75 0 0 0 .75-.75V5.68L14.64 16.2v2.517a.75.75 0 0 0 .22.531l2.829 2.828a.75.75 0 0 0 1.279-.53v-2.08h2.08a.75.75 0 0 0 .53-1.279l-2.829-2.828a.75.75 0 0 0-.531-.22h-2.518L5.18 4.619h1.018a.75.75 0 0 0 .75-.75.75.75 0 0 0-.75-.75zm12.769 13.519h1.767l1.328 1.328h-1.017a.75.75 0 0 0-.75.75v1.017l-1.328-1.328Z" style="color:#000;fill:currentColor;stroke-linecap:round;stroke-linejoin:round;-inkscape-stroke:none"/>
</svg>
