<svg xmlns="http://www.w3.org/2000/svg" width="24" height="24" fill="none" stroke-width="1.5" viewBox="0 0 24 24">
    <path d="M18 14.25A3.761 3.761 0 0 0 14.25 18 3.761 3.761 0 0 0 18 21.75c.758 0 1.427-.284 2.02-.674l1.449 1.453a.75.75 0 0 0 1.06.002.75.75 0 0 0 .002-1.06l-1.453-1.455c.388-.592.672-1.26.672-2.016A3.761 3.761 0 0 0 18 14.25m0 1.5c1.252 0 2.25.998 2.25 2.25 0 .625-.25 1.18-.656 1.588-.408.41-.967.662-1.594.662A2.239 2.239 0 0 1 15.75 18c0-1.252.998-2.25 2.25-2.25M4 1.25a.75.75 0 0 0-.75.75v3a.75.75 0 0 0 .75.75.75.75 0 0 0 .75-.75V2.75H7A.75.75 0 0 0 7.75 2 .75.75 0 0 0 7 1.25ZM4 10.25a.75.75 0 0 0-.75.75v2a.75.75 0 0 0 .75.75.75.75 0 0 0 .75-.75v-2a.75.75 0 0 0-.75-.75M11 1.25a.75.75 0 0 0-.75.75.75.75 0 0 0 .75.75h2a.75.75 0 0 0 .75-.75.75.75 0 0 0-.75-.75ZM11 21.25a.75.75 0 0 0-.75.75.75.75 0 0 0 .75.75h2a.75.75 0 0 0 .75-.75.75.75 0 0 0-.75-.75ZM20 10.25a.75.75 0 0 0-.75.75v2a.75.75 0 0 0 .75.75.75.75 0 0 0 .75-.75v-2a.75.75 0 0 0-.75-.75M17 1.25a.75.75 0 0 0-.75.75.75.75 0 0 0 .75.75h2.25V5a.75.75 0 0 0 .75.75.75.75 0 0 0 .75-.75V2a.75.75 0 0 0-.75-.75ZM4 18.25a.75.75 0 0 0-.75.75v3a.75.75 0 0 0 .75.75h3a.75.75 0 0 0 .75-.75.75.75 0 0 0-.75-.75H4.75V19a.75.75 0 0 0-.75-.75" style="color:#000;fill:currentColor;stroke-linecap:round;stroke-linejoin:round;-inkscape-stroke:none"/>
</svg>
