<svg xmlns="http://www.w3.org/2000/svg" width="24" height="24" fill="none" stroke-width="1.5" viewBox="0 0 24 24">
    <path d="M17.803 3.12a.75.75 0 0 0-.75.75.75.75 0 0 0 .75.75h1.017L8.3 15.138H5.784a.75.75 0 0 0-.531.22l-2.828 2.829a.75.75 0 0 0 .53 1.279h2.08v2.08a.75.75 0 0 0 1.279.53l2.828-2.829a.75.75 0 0 0 .22-.531v-2.518l10.52-10.52v1.018a.75.75 0 0 0 .75.75.75.75 0 0 0 .75-.75V3.87a.75.75 0 0 0-.219-.531.8.8 0 0 0-.244-.162.8.8 0 0 0-.287-.057zM6.093 16.638h1.768v1.767l-1.328 1.328v-1.017a.75.75 0 0 0-.75-.75H4.766Z" style="color:#000;fill:currentColor;stroke-linecap:round;stroke-linejoin:round;-inkscape-stroke:none"/>
</svg>
