<svg xmlns="http://www.w3.org/2000/svg" width="24" height="24" fill="none" stroke-width="1.5" viewBox="0 0 24 24">
    <path d="m14.299 8.64-4.377 4.378v-3.14a.75.75 0 0 0-.75-.75.75.75 0 0 0-.75.75v4.95a.75.75 0 0 0 .219.531.75.75 0 0 0 .53.22h4.95a.75.75 0 0 0 .75-.75.75.75 0 0 0-.75-.75h-3.139L15.36 9.7a.75.75 0 0 0 0-1.06.75.75 0 0 0-1.06 0" style="color:#000;fill:currentColor;stroke-linecap:round;stroke-linejoin:round;-inkscape-stroke:none"/>
    <path d="M3.6 2.25A1.36 1.36 0 0 0 2.25 3.6v16.8c0 .737.613 1.35 1.35 1.35h16.8a1.36 1.36 0 0 0 1.35-1.35V3.6a1.36 1.36 0 0 0-1.35-1.35Zm.15 1.5h16.5v16.5H3.75Z" style="color:#000;fill:currentColor;stroke-linecap:round;stroke-linejoin:round;-inkscape-stroke:none"/>
</svg>
