<svg xmlns="http://www.w3.org/2000/svg" width="24" height="24" fill="none" stroke-width="1.5" viewBox="0 0 24 24">
    <path d="M9.5 8.5a.75.75 0 0 0-.531.219l-2.75 2.75A.75.75 0 0 0 6 12a.75.75 0 0 0 .219.531l2.75 2.75a.75.75 0 0 0 1.062 0 .75.75 0 0 0 0-1.062L8.562 12.75h8.188a.75.75 0 0 0 .75-.75.75.75 0 0 0-.75-.75H8.563l1.468-1.469a.75.75 0 0 0 0-1.062A.75.75 0 0 0 9.5 8.5" style="color:#000;fill:currentColor;stroke-linecap:round;stroke-linejoin:round;-inkscape-stroke:none"/>
    <path d="M6 4.25A4.76 4.76 0 0 0 1.25 9v6A4.76 4.76 0 0 0 6 19.75h12A4.76 4.76 0 0 0 22.75 15V9A4.76 4.76 0 0 0 18 4.25Zm0 1.5h12A3.24 3.24 0 0 1 21.25 9v6A3.24 3.24 0 0 1 18 18.25H6A3.24 3.24 0 0 1 2.75 15V9A3.24 3.24 0 0 1 6 5.75" style="color:#000;fill:currentColor;-inkscape-stroke:none"/>
</svg>
