<svg xmlns="http://www.w3.org/2000/svg" width="24" height="24" fill="none" stroke-width="1.5" viewBox="0 0 24 24">
    <path d="M12.5 2.75a.75.75 0 0 0-.531.219.75.75 0 0 0 0 1.062l7.219 7.219H3a.75.75 0 0 0-.75.75.75.75 0 0 0 .75.75h16.188l-7.22 7.219a.75.75 0 0 0 0 1.062.75.75 0 0 0 1.063 0l8.5-8.5a.75.75 0 0 0 .194-.338.75.75 0 0 0 0-.13.75.75 0 0 0 .025-.063.75.75 0 0 0-.025-.129.75.75 0 0 0 0-.064.75.75 0 0 0-.02-.034.75.75 0 0 0-.174-.304l-8.5-8.5a.75.75 0 0 0-.531-.219" style="color:#000;fill:currentColor;stroke-linecap:round;stroke-linejoin:round;-inkscape-stroke:none"/>
</svg>
