<svg xmlns="http://www.w3.org/2000/svg" width="24" height="24" fill="none" stroke-width="1.5" viewBox="0 0 24 24">
    <path d="m11.469 2.469-5 5a.75.75 0 0 0 0 1.062.75.75 0 0 0 1.062 0L12 4.062l4.469 4.47a.75.75 0 0 0 1.062 0 .75.75 0 0 0 0-1.063l-5-5a.75.75 0 0 0-1.062 0M7 15.25a.75.75 0 0 0-.531.219.75.75 0 0 0 0 1.062l5 5a.75.75 0 0 0 1.062 0l5-5a.75.75 0 0 0 0-1.062.75.75 0 0 0-1.062 0L12 19.938l-4.469-4.47A.75.75 0 0 0 7 15.25" style="color:#000;fill:currentColor;stroke-linecap:round;stroke-linejoin:round;-inkscape-stroke:none"/>
</svg>
