<svg xmlns="http://www.w3.org/2000/svg" width="24" height="24" fill="none" stroke-width="1.5" viewBox="0 0 24 24">
    <path d="M3 19.25a.75.75 0 0 0-.75.75.75.75 0 0 0 .75.75h18a.75.75 0 0 0 .75-.75.75.75 0 0 0-.75-.75ZM6 3.25a.75.75 0 0 0-.531.219l-4 4a.75.75 0 0 0 0 1.062.75.75 0 0 0 1.062 0L5.25 5.812V17a.75.75 0 0 0 .75.75.75.75 0 0 0 .75-.75V5.813L9.469 8.53a.75.75 0 0 0 1.062 0 .75.75 0 0 0 0-1.062l-4-4A.75.75 0 0 0 6 3.25M18 3.25a.75.75 0 0 0-.531.219l-4 4a.75.75 0 0 0 0 1.062.75.75 0 0 0 1.062 0l2.719-2.719V17a.75.75 0 0 0 .75.75.75.75 0 0 0 .75-.75V5.813l2.719 2.718a.75.75 0 0 0 1.062 0 .75.75 0 0 0 0-1.062l-4-4A.75.75 0 0 0 18 3.25" style="color:#000;fill:currentColor;stroke-linecap:round;stroke-linejoin:round;-inkscape-stroke:none"/>
</svg>
