<svg xmlns="http://www.w3.org/2000/svg" width="24" height="24" fill="none" stroke-width="1.5" viewBox="0 0 24 24">
    <path d="M12.5 7.75a.75.75 0 0 0-.531.219.75.75 0 0 0 0 1.062l2.219 2.219H8a.75.75 0 0 0-.75.75.75.75 0 0 0 .75.75h6.188l-2.22 2.219a.75.75 0 0 0 0 1.062.75.75 0 0 0 1.063 0l3.5-3.5a.75.75 0 0 0 .194-.469.75.75 0 0 0 .025-.062.75.75 0 0 0-.025-.129.75.75 0 0 0-.02-.098.75.75 0 0 0-.174-.304l-3.5-3.5a.75.75 0 0 0-.531-.219" style="color:#000;fill:currentColor;stroke-linecap:round;stroke-linejoin:round;-inkscape-stroke:none"/>
    <path d="M12 1.25C6.072 1.25 1.25 6.072 1.25 12S6.072 22.75 12 22.75 22.75 17.928 22.75 12 17.928 1.25 12 1.25m0 1.5A9.239 9.239 0 0 1 21.25 12 9.239 9.239 0 0 1 12 21.25 9.239 9.239 0 0 1 2.75 12 9.239 9.239 0 0 1 12 2.75" style="color:#000;fill:currentColor;stroke-linecap:round;stroke-linejoin:round;-inkscape-stroke:none"/>
</svg>
