<svg xmlns="http://www.w3.org/2000/svg" width="24" height="24" fill="none" stroke-width="1.5" viewBox="0 0 24 24">
    <path d="M14 8.5a.75.75 0 0 0-.531.219.75.75 0 0 0 0 1.062l1.469 1.469H6.75A.75.75 0 0 0 6 12a.75.75 0 0 0 .75.75h8.188l-1.47 1.469a.75.75 0 0 0 0 1.062.75.75 0 0 0 1.063 0l2.75-2.75a.75.75 0 0 0 .194-.469A.75.75 0 0 0 17.5 12a.75.75 0 0 0-.025-.129.75.75 0 0 0 0-.064.75.75 0 0 0-.02-.034.75.75 0 0 0-.174-.304l-2.75-2.75A.75.75 0 0 0 14 8.5" style="color:#000;fill:currentColor;stroke-linecap:round;stroke-linejoin:round;-inkscape-stroke:none"/>
    <path d="M6 4.25A4.761 4.761 0 0 0 1.25 9v6A4.761 4.761 0 0 0 6 19.75h12A4.761 4.761 0 0 0 22.75 15V9A4.761 4.761 0 0 0 18 4.25Zm0 1.5h12A3.239 3.239 0 0 1 21.25 9v6A3.239 3.239 0 0 1 18 18.25H6A3.239 3.239 0 0 1 2.75 15V9A3.239 3.239 0 0 1 6 5.75" style="color:#000;fill:currentColor;-inkscape-stroke:none"/>
</svg>
