<svg xmlns="http://www.w3.org/2000/svg" width="24" height="24" fill="none" stroke-width="1.5" viewBox="0 0 24 24">
    <path d="M7 3.25a.75.75 0 0 0-.531.219.75.75 0 0 0 0 1.062l5 5a.75.75 0 0 0 1.062 0l5-5a.75.75 0 0 0 0-1.062.75.75 0 0 0-1.062 0L12 7.938l-4.469-4.47A.75.75 0 0 0 7 3.25M11.469 14.469l-5 5a.75.75 0 0 0 0 1.062.75.75 0 0 0 1.062 0L12 16.063l4.469 4.468a.75.75 0 0 0 1.062 0 .75.75 0 0 0 0-1.062l-5-5a.75.75 0 0 0-1.062 0" style="color:#000;fill:currentColor;stroke-linecap:round;stroke-linejoin:round;-inkscape-stroke:none"/>
</svg>
