<svg xmlns="http://www.w3.org/2000/svg" width="24" height="24" fill="none" stroke-width="1.5" viewBox="0 0 24 24">
    <path d="M12 2.75A4.761 4.761 0 0 0 7.25 7.5 4.761 4.761 0 0 0 12 12.25a4.761 4.761 0 0 0 4.75-4.75A4.761 4.761 0 0 0 12 2.75m0 1.5a3.239 3.239 0 0 1 3.25 3.25A3.239 3.239 0 0 1 12 10.75 3.239 3.239 0 0 1 8.75 7.5 3.239 3.239 0 0 1 12 4.25M7 11.75a4.761 4.761 0 0 0-4.75 4.75A4.761 4.761 0 0 0 7 21.25a4.761 4.761 0 0 0 4.75-4.75A4.761 4.761 0 0 0 7 11.75m0 1.5a3.239 3.239 0 0 1 3.25 3.25A3.239 3.239 0 0 1 7 19.75a3.239 3.239 0 0 1-3.25-3.25A3.239 3.239 0 0 1 7 13.25M17 11.75a4.761 4.761 0 0 0-4.75 4.75A4.761 4.761 0 0 0 17 21.25a4.761 4.761 0 0 0 4.75-4.75A4.761 4.761 0 0 0 17 11.75m0 1.5a3.239 3.239 0 0 1 3.25 3.25A3.239 3.239 0 0 1 17 19.75a3.239 3.239 0 0 1-3.25-3.25A3.239 3.239 0 0 1 17 13.25" style="color:#000;fill:currentColor;stroke-linecap:round;stroke-linejoin:round;-inkscape-stroke:none"/>
</svg>
