<svg xmlns="http://www.w3.org/2000/svg" width="24" height="24" fill="none" stroke-width="1.5" viewBox="0 0 24 24">
    <path d="M12 1.25a.75.75 0 0 0-.75.75v20a.75.75 0 0 0 .75.75.75.75 0 0 0 .75-.75V2a.75.75 0 0 0-.75-.75" style="color:#000;fill:currentColor;stroke-linecap:round;stroke-linejoin:round;-inkscape-stroke:none"/>
    <path d="M3.246 6.521a.75.75 0 0 0-.46.342.75.75 0 0 0 .255 1.03l17.145 10.3a.75.75 0 0 0 1.029-.257.75.75 0 0 0-.258-1.03L3.814 6.606a.75.75 0 0 0-.568-.085" style="color:#000;fill:currentColor;stroke-linecap:round;stroke-linejoin:round;-inkscape-stroke:none"/>
    <path d="M20.754 6.521a.75.75 0 0 0-.568.084L3.04 16.906a.75.75 0 0 0-.256 1.03.75.75 0 0 0 1.03.257l17.142-10.3a.75.75 0 0 0 .258-1.03.75.75 0 0 0-.461-.342" style="color:#000;fill:currentColor;stroke-linecap:round;stroke-linejoin:round;-inkscape-stroke:none"/>
</svg>
