<svg xmlns="http://www.w3.org/2000/svg" width="24" height="24" fill="none" stroke-width="1.5" viewBox="0 0 24 24">
    <path d="M12 4.25c-4.271 0-7.75 3.479-7.75 7.75s3.479 7.75 7.75 7.75c1.78 0 3.427-.603 4.736-1.615a.75.75 0 0 0 .135-1.053.75.75 0 0 0-1.053-.135A6.21 6.21 0 0 1 12 18.25c-3.46 0-6.25-2.79-6.25-6.25S8.54 5.75 12 5.75s6.25 2.79 6.25 6.25c0 .923-.257 1.482-.582 1.834a1.7 1.7 0 0 1-1.201.541c-.45.02-.91-.125-1.223-.371-.313-.246-.494-.553-.494-1.004V8.5a.75.75 0 0 0-.75-.75.75.75 0 0 0-.75.75V13c0 .91.444 1.693 1.068 2.184.625.49 1.416.727 2.215.691a3.23 3.23 0 0 0 2.237-1.021c.612-.662.98-1.638.98-2.854 0-4.271-3.479-7.75-7.75-7.75" style="color:#000;fill:currentColor;stroke-linecap:round;stroke-linejoin:round;-inkscape-stroke:none"/>
    <path d="M11.5 8.25a3.261 3.261 0 0 0-3.25 3.25v.5a.75.75 0 0 0 .75.75.75.75 0 0 0 .75-.75v-.5c0-.975.775-1.75 1.75-1.75s1.75.775 1.75 1.75v.5a.75.75 0 0 0 .75.75.75.75 0 0 0 .75-.75v-.5a3.261 3.261 0 0 0-3.25-3.25" style="color:#000;fill:currentColor;stroke-linecap:round;stroke-linejoin:round;-inkscape-stroke:none"/>
    <path d="M9 11.25a.75.75 0 0 0-.75.75v.5a3.261 3.261 0 0 0 3.25 3.25 3.261 3.261 0 0 0 3.25-3.25V12a.75.75 0 0 0-.75-.75.75.75 0 0 0-.75.75v.5c0 .975-.775 1.75-1.75 1.75s-1.75-.775-1.75-1.75V12a.75.75 0 0 0-.75-.75" style="color:#000;fill:currentColor;stroke-linecap:round;stroke-linejoin:round;-inkscape-stroke:none"/>
    <path d="M12 1.25C6.072 1.25 1.25 6.072 1.25 12S6.072 22.75 12 22.75 22.75 17.928 22.75 12 17.928 1.25 12 1.25m0 1.5A9.239 9.239 0 0 1 21.25 12 9.239 9.239 0 0 1 12 21.25 9.239 9.239 0 0 1 2.75 12 9.239 9.239 0 0 1 12 2.75" style="color:#000;fill:currentColor;stroke-linecap:round;stroke-linejoin:round;-inkscape-stroke:none"/>
</svg>
