<svg xmlns="http://www.w3.org/2000/svg" width="24" height="24" fill="none" stroke-width="1.5" viewBox="0 0 24 24">
    <path d="M12 2.25c-5.376 0-9.75 4.374-9.75 9.75s4.374 9.75 9.75 9.75c2.24 0 4.312-.758 5.959-2.031a.75.75 0 0 0 .135-1.053.75.75 0 0 0-1.053-.135A8.203 8.203 0 0 1 12 20.25 8.239 8.239 0 0 1 3.75 12 8.239 8.239 0 0 1 12 3.75 8.239 8.239 0 0 1 20.25 12c0 2.477-1.233 3.445-2.373 3.635-.57.095-1.12-.03-1.5-.305-.38-.274-.627-.67-.627-1.33V8a.75.75 0 0 0-.75-.75.75.75 0 0 0-.75.75v6c0 1.09.503 2.007 1.248 2.545.745.538 1.695.725 2.625.57 1.86-.31 3.627-2.092 3.627-5.115 0-5.376-4.374-9.75-9.75-9.75" style="color:#000;fill:currentColor;stroke-linecap:round;stroke-linejoin:round;-inkscape-stroke:none"/>
    <path d="M12 7.25c-1.995 0-3.75 1.383-3.75 3.25V12a.75.75 0 0 0 .75.75.75.75 0 0 0 .75-.75v-1.5c0-.894.93-1.75 2.25-1.75 1.32 0 2.25.856 2.25 1.75V12a.75.75 0 0 0 .75.75.75.75 0 0 0 .75-.75v-1.5c0-1.867-1.755-3.25-3.75-3.25" style="color:#000;fill:currentColor;stroke-linecap:round;stroke-linejoin:round;-inkscape-stroke:none"/>
    <path d="M9 11.25a.75.75 0 0 0-.75.75v1.5c0 1.867 1.755 3.25 3.75 3.25s3.75-1.383 3.75-3.25V12a.75.75 0 0 0-.75-.75.75.75 0 0 0-.75.75v1.5c0 .894-.93 1.75-2.25 1.75-1.32 0-2.25-.856-2.25-1.75V12a.75.75 0 0 0-.75-.75" style="color:#000;fill:currentColor;stroke-linecap:round;stroke-linejoin:round;-inkscape-stroke:none"/>
</svg>
