<svg xmlns="http://www.w3.org/2000/svg" width="24" height="24" fill="none" stroke-width="1.5" viewBox="0 0 24 24">
    <path d="M12 8.25c-2.553 0-4.864.339-6.602.918-.868.29-1.596.635-2.156 1.076S2.25 11.282 2.25 12c0 .514.233.984.559 1.352.326.367.748.662 1.248.923a.75.75 0 0 0 1.011-.318.75.75 0 0 0-.316-1.012c-.39-.203-.668-.416-.822-.59-.154-.173-.18-.276-.18-.355 0-.11.07-.301.422-.578.351-.277.941-.579 1.701-.832 1.52-.507 3.71-.84 6.127-.84 2.418 0 4.607.333 6.127.84.76.253 1.35.555 1.701.832s.422.468.422.578c0 .095-.045.24-.291.467s-.674.49-1.244.724a.75.75 0 0 0-.408.98.75.75 0 0 0 .978.41c.68-.281 1.252-.605 1.694-1.013.44-.408.771-.949.771-1.568 0-.718-.432-1.315-.992-1.756s-1.288-.786-2.156-1.076c-1.738-.58-4.05-.918-6.602-.918" style="color:#000;fill:currentColor;stroke-linecap:round;stroke-linejoin:round;-inkscape-stroke:none"/>
    <path d="M11.97 10.25a.75.75 0 0 0-.517.246l-.01.012a.75.75 0 0 0 .055 1.058.75.75 0 0 0 1.059-.054l.01-.012a.75.75 0 0 0-.055-1.059.75.75 0 0 0-.541-.191" style="color:#000;fill:currentColor;stroke-linecap:round;stroke-linejoin:round;-inkscape-stroke:none"/>
    <path d="M15.42 3.121c-.343.025-.686.13-1.01.28-.647.298-1.285.789-1.937 1.431-1.305 1.285-2.656 3.19-3.815 5.465s-1.907 4.488-2.18 6.299c-.136.905-.158 1.709-.019 2.408s.475 1.357 1.115 1.683c.457.233.98.24 1.455.116s.93-.366 1.389-.692a.75.75 0 0 0 .178-1.045.75.75 0 0 0-1.047-.177c-.358.254-.675.404-.899.463s-.326.035-.396 0c-.098-.05-.237-.2-.324-.64-.087-.438-.086-1.101.033-1.894.239-1.584.934-3.685 2.031-5.84 1.098-2.154 2.39-3.953 3.531-5.078.571-.562 1.108-.951 1.514-1.138s.607-.164.705-.114c.071.037.153.109.238.33.086.222.149.577.15 1.026a.75.75 0 0 0 .755.746.75.75 0 0 0 .746-.754c-.003-.574-.072-1.092-.25-1.557-.179-.464-.494-.89-.957-1.126a1.9 1.9 0 0 0-1.006-.192" style="color:#000;fill:currentColor;stroke-linecap:round;stroke-linejoin:round;-inkscape-stroke:none"/>
    <path d="M8.775 3.143a1.93 1.93 0 0 0-1.203.17c-.64.326-.974.982-1.113 1.681s-.117 1.505.02 2.41c.272 1.811 1.02 4.025 2.18 6.3 1.158 2.274 2.509 4.179 3.814 5.464.652.642 1.29 1.133 1.937 1.432s1.376.414 2.016.087c.569-.29.903-.852 1.062-1.453.16-.6.179-1.283.106-2.048-.146-1.531-.679-3.4-1.543-5.383a.75.75 0 0 0-.987-.389.75.75 0 0 0-.388.986c.815 1.872 1.3 3.63 1.424 4.926.061.648.028 1.18-.063 1.524-.09.343-.206.457-.293.502-.098.05-.301.073-.707-.114s-.94-.576-1.512-1.138c-1.141-1.125-2.433-2.924-3.53-5.079-1.098-2.154-1.793-4.255-2.032-5.84-.12-.792-.12-1.455-.033-1.894s.226-.589.324-.639c.118-.06.42-.07.969.25a.75.75 0 0 0 1.025-.267.75.75 0 0 0-.27-1.027c-.386-.226-.794-.396-1.203-.461" style="color:#000;fill:currentColor;stroke-linecap:round;stroke-linejoin:round;-inkscape-stroke:none"/>
</svg>
