<svg xmlns="http://www.w3.org/2000/svg" width="24" height="24" fill="none" stroke-width="1.5" viewBox="0 0 24 24">
    <path d="M8 7.75a.75.75 0 0 0-.707.498l-1.885 5.281-.615 1.719a.75.75 0 0 0 .455.959.75.75 0 0 0 .959-.455l.436-1.22h2.714l.436 1.22a.75.75 0 0 0 .959.455.75.75 0 0 0 .455-.959l-.615-1.719-.01-.029-.002-.006a.75.75 0 0 0-.002-.002L8.707 8.248A.75.75 0 0 0 8 7.75m0 2.98.822 2.301H7.178ZM13 7.75a.75.75 0 0 0-.75.75v7a.75.75 0 0 0 .75.75.75.75 0 0 0 .75-.75v-2.05h1.736l1.918 2.505a.75.75 0 0 0 1.051.14.75.75 0 0 0 .14-1.05l-1.433-1.873c.16-.052.252.007.414-.088.673-.395 1.174-1.264 1.174-2.484s-.501-2.09-1.174-2.485c-.672-.395-1.361-.365-1.719-.365Zm.75 1.5h2.107c.358 0 .739.029.96.158.22.13.433.312.433 1.192 0 .88-.213 1.061-.434 1.191-.22.13-.601.158-.959.158H13.75Z" style="color:#000;fill:currentColor;stroke-linecap:round;stroke-linejoin:round;-inkscape-stroke:none"/>
    <path d="M2.6 4.25A1.36 1.36 0 0 0 1.25 5.6v12.8c0 .737.613 1.35 1.35 1.35h18.8a1.36 1.36 0 0 0 1.35-1.35V5.6a1.36 1.36 0 0 0-1.35-1.35Zm.15 1.5h18.5v12.5H2.75Z" style="color:#000;fill:currentColor;-inkscape-stroke:none"/>
</svg>
