<svg xmlns="http://www.w3.org/2000/svg" width="24" height="24" fill="none" stroke-width="1.5" viewBox="0 0 24 24">
    <path d="M11.818 8.271a.75.75 0 0 0-.547.91l1.5 6a.75.75 0 0 0 1.458 0l1.5-6a.75.75 0 0 0-.547-.91.75.75 0 0 0-.91.547l-.772 3.086-.771-3.086a.75.75 0 0 0-.91-.547M18 8.25a.75.75 0 0 0-.75.75v6a.75.75 0 0 0 .75.75.75.75 0 0 0 .75-.75V9a.75.75 0 0 0-.75-.75" style="color:#000;fill:currentColor;stroke-linecap:round;stroke-linejoin:round;-inkscape-stroke:none"/>
    <path d="M4.6 2.25A1.36 1.36 0 0 0 3.25 3.6V6a.75.75 0 0 0 .75.75.75.75 0 0 0 .75-.75V3.75h14.5V6a.75.75 0 0 0 .75.75.75.75 0 0 0 .75-.75V3.6a1.36 1.36 0 0 0-1.35-1.35ZM4 17.25a.75.75 0 0 0-.75.75v2.4c0 .737.613 1.35 1.35 1.35h14.8a1.36 1.36 0 0 0 1.35-1.35V18a.75.75 0 0 0-.75-.75.75.75 0 0 0-.75.75v2.25H4.75V18a.75.75 0 0 0-.75-.75" style="color:#000;fill:currentColor;stroke-linecap:round;-inkscape-stroke:none"/>
    <path d="M7.5 8.25a2.26 2.26 0 0 0-2.25 2.25V15a.75.75 0 0 0 .75.75.75.75 0 0 0 .75-.75v-2.25h1.5V15a.75.75 0 0 0 .75.75.75.75 0 0 0 .75-.75v-4.5A2.26 2.26 0 0 0 7.5 8.25m0 1.5c.423 0 .75.327.75.75v.75h-1.5v-.75c0-.423.327-.75.75-.75" style="color:#000;fill:currentColor;stroke-linecap:round;stroke-linejoin:round;-inkscape-stroke:none"/>
</svg>
