<svg xmlns="http://www.w3.org/2000/svg" width="24" height="24" fill="none" stroke-width="1.5" viewBox="0 0 24 24">
    <path d="M12 2.25a.75.75 0 0 0-.75.75v9.463l-8.693 6.385a.75.75 0 0 0-.162 1.047.75.75 0 0 0 1.048.162L12 13.773l8.557 6.284a.75.75 0 0 0 1.048-.162.75.75 0 0 0-.162-1.047l-8.693-6.385V3a.75.75 0 0 0-.75-.75" style="color:#000;fill:currentColor;stroke-linecap:round;stroke-linejoin:round;-inkscape-stroke:none"/>
    <path d="M20.287 15.975a.75.75 0 0 0-.584.886l.41 1.998-2.068.405a.75.75 0 0 0-.594.879.75.75 0 0 0 .88.593l2.812-.549a.75.75 0 0 0 .591-.886l-.562-2.742a.75.75 0 0 0-.885-.584M11.477 2.463l-2.25 2.193a.75.75 0 0 0-.014 1.06.75.75 0 0 0 1.06.014L12 4.047l1.727 1.683a.75.75 0 0 0 1.06-.013.75.75 0 0 0-.014-1.06l-2.25-2.194a.75.75 0 0 0-1.046 0M3.713 15.975a.75.75 0 0 0-.885.584L2.266 19.3a.75.75 0 0 0 .591.887l2.813.548a.75.75 0 0 0 .879-.593.75.75 0 0 0-.594-.88l-2.068-.404.41-1.998a.75.75 0 0 0-.584-.886" style="color:#000;fill:currentColor;stroke-linecap:round;stroke-linejoin:round;-inkscape-stroke:none"/>
</svg>
