<svg xmlns="http://www.w3.org/2000/svg" width="24" height="24" fill="none" stroke-width="1.5" viewBox="0 0 24 24">
    <path d="M12 3.25a.75.75 0 0 0-.75.75.75.75 0 0 0 .75.75A8.24 8.24 0 0 1 20.25 13 8.24 8.24 0 0 1 12 21.25 8.24 8.24 0 0 1 3.75 13a.75.75 0 0 0-.75-.75.75.75 0 0 0-.75.75c0 5.376 4.374 9.75 9.75 9.75s9.75-4.374 9.75-9.75S17.376 3.25 12 3.25" style="color:#000;fill:currentColor;stroke-linecap:round;stroke-linejoin:round;-inkscape-stroke:none"/>
    <path d="M9 8.25a.75.75 0 0 0-.75.75v7a.75.75 0 0 0 .75.75.75.75 0 0 0 .75-.75V9A.75.75 0 0 0 9 8.25M13 8.25c-.958 0-1.75.792-1.75 1.75v1.5c0 .958.792 1.75 1.75 1.75h1a.24.24 0 0 1 .25.25V15a.24.24 0 0 1-.25.25h-2a.75.75 0 0 0-.75.75.75.75 0 0 0 .75.75h2c.958 0 1.75-.792 1.75-1.75v-1.5c0-.958-.792-1.75-1.75-1.75h-1a.24.24 0 0 1-.25-.25V10a.24.24 0 0 1 .25-.25h2a.75.75 0 0 0 .75-.75.75.75 0 0 0-.75-.75ZM6.5 1.25a.75.75 0 0 0-.531.219l-2 2A.75.75 0 0 0 3.75 4a.75.75 0 0 0 .219.531l2 2a.75.75 0 0 0 1.062 0 .75.75 0 0 0 0-1.062l-.718-.719H12a.75.75 0 0 0 .75-.75.75.75 0 0 0-.75-.75H6.313l.718-.719a.75.75 0 0 0 0-1.062.75.75 0 0 0-.531-.219" style="color:#000;fill:currentColor;stroke-linecap:round;stroke-linejoin:round;-inkscape-stroke:none"/>
</svg>
