<svg xmlns="http://www.w3.org/2000/svg" width="24" height="24" fill="none" stroke-width="1.5" viewBox="0 0 24 24">
    <path d="M2.709 7.25c-.82 0-1.467.764-1.332 1.572l1.799 10.8a1.36 1.36 0 0 0 1.332 1.128h14.984a1.36 1.36 0 0 0 1.332-1.129l1.799-10.799a1.366 1.366 0 0 0-1.332-1.572Zm.176 1.5h18.23l-1.75 10.5H4.635Z" style="color:#000;fill:currentColor;-inkscape-stroke:none"/>
    <path d="M9 3.25C7.49 3.25 6.25 4.49 6.25 6v2h1.5V6c0-.7.55-1.25 1.25-1.25h6c.7 0 1.25.55 1.25 1.25v2h1.5V6c0-1.51-1.24-2.75-2.75-2.75Z" style="color:#000;fill:currentColor;-inkscape-stroke:none"/>
</svg>
