<svg xmlns="http://www.w3.org/2000/svg" width="24" height="24" fill="none" stroke-width="1.5" viewBox="0 0 24 24">
    <path d="M4 12.25a.75.75 0 0 0-.75.75v8a.75.75 0 0 0 .75.75.75.75 0 0 0 .75-.75v-8a.75.75 0 0 0-.75-.75M8 12.25a.75.75 0 0 0-.75.75v8a.75.75 0 0 0 .75.75.75.75 0 0 0 .75-.75v-8a.75.75 0 0 0-.75-.75M16 12.25a.75.75 0 0 0-.75.75v8a.75.75 0 0 0 .75.75.75.75 0 0 0 .75-.75v-8a.75.75 0 0 0-.75-.75M12 12.25a.75.75 0 0 0-.75.75v8a.75.75 0 0 0 .75.75.75.75 0 0 0 .75-.75v-8a.75.75 0 0 0-.75-.75M20 12.25a.75.75 0 0 0-.75.75v8a.75.75 0 0 0 .75.75.75.75 0 0 0 .75-.75v-8a.75.75 0 0 0-.75-.75" style="color:#000;fill:currentColor;stroke-linecap:round;stroke-linejoin:round;-inkscape-stroke:none"/>
    <path d="M2 20.25a.75.75 0 0 0-.75.75.75.75 0 0 0 .75.75h20a.75.75 0 0 0 .75-.75.75.75 0 0 0-.75-.75ZM2 12.25a.75.75 0 0 0-.75.75.75.75 0 0 0 .75.75h20a.75.75 0 0 0 .75-.75.75.75 0 0 0-.75-.75ZM6.6 2.25A1.36 1.36 0 0 0 5.25 3.6V10a.75.75 0 0 0 .75.75.75.75 0 0 0 .75-.75V3.75h10.5V10a.75.75 0 0 0 .75.75.75.75 0 0 0 .75-.75V3.6a1.36 1.36 0 0 0-1.35-1.35Z" style="color:#000;fill:currentColor;stroke-linecap:round;stroke-linejoin:round;-inkscape-stroke:none"/>
</svg>
