<svg xmlns="http://www.w3.org/2000/svg" width="24" height="24" fill="none" stroke-width="1.5" viewBox="0 0 24 24">
    <path d="M5 4.25a.75.75 0 0 0-.75.75v14a.75.75 0 0 0 .75.75.75.75 0 0 0 .75-.75V5.75H6A.75.75 0 0 0 6.75 5 .75.75 0 0 0 6 4.25ZM12 4.25a.75.75 0 0 0-.75.75v14a.75.75 0 0 0 .75.75.75.75 0 0 0 .75-.75V5.75H13a.75.75 0 0 0 .75-.75.75.75 0 0 0-.75-.75ZM9 4.25a.75.75 0 0 0-.75.75v14a.75.75 0 0 0 .75.75.75.75 0 0 0 .75-.75V5A.75.75 0 0 0 9 4.25M16 4.25a.75.75 0 0 0-.75.75v14a.75.75 0 0 0 .75.75.75.75 0 0 0 .75-.75V5a.75.75 0 0 0-.75-.75M19 4.25a.75.75 0 0 0-.75.75v14a.75.75 0 0 0 .75.75.75.75 0 0 0 .75-.75V5a.75.75 0 0 0-.75-.75" style="color:#000;fill:currentColor;stroke-linecap:round;stroke-linejoin:round;-inkscape-stroke:none"/>
    <path d="M6 4.25a.75.75 0 0 0-.75.75v13.25H5a.75.75 0 0 0-.75.75.75.75 0 0 0 .75.75h1a.75.75 0 0 0 .75-.75V5A.75.75 0 0 0 6 4.25M13 4.25a.75.75 0 0 0-.75.75v13.25H12a.75.75 0 0 0-.75.75.75.75 0 0 0 .75.75h1a.75.75 0 0 0 .75-.75V5a.75.75 0 0 0-.75-.75" style="color:#000;fill:currentColor;stroke-linecap:round;stroke-linejoin:round;-inkscape-stroke:none"/>
</svg>
