<svg xmlns="http://www.w3.org/2000/svg" width="24" height="24" fill="none" stroke-width="1.5" viewBox="0 0 24 24">
    <path d="M2.6 4.25A1.36 1.36 0 0 0 1.25 5.6v12.8c0 .737.613 1.35 1.35 1.35h18.8a1.36 1.36 0 0 0 1.35-1.35V5.6a1.36 1.36 0 0 0-1.35-1.35H12Zm.15 1.5h8.5v12.5h-8.5zm10 0h8.5v12.5h-8.5z" style="color:#000;fill:currentColor;-inkscape-stroke:none"/>
    <path d="M12 8.25A3.76 3.76 0 0 0 8.25 12 3.76 3.76 0 0 0 12 15.75 3.76 3.76 0 0 0 15.75 12 3.76 3.76 0 0 0 12 8.25m0 1.5c1.252 0 2.25.998 2.25 2.25s-.998 2.25-2.25 2.25A2.24 2.24 0 0 1 9.75 12c0-1.252.998-2.25 2.25-2.25M2 6.25a.75.75 0 0 0-.75.75.75.75 0 0 0 .75.75A4.24 4.24 0 0 1 6.25 12 4.24 4.24 0 0 1 2 16.25a.75.75 0 0 0-.75.75.75.75 0 0 0 .75.75A5.76 5.76 0 0 0 7.75 12 5.76 5.76 0 0 0 2 6.25M22 6.25A5.76 5.76 0 0 0 16.25 12 5.76 5.76 0 0 0 22 17.75a.75.75 0 0 0 .75-.75.75.75 0 0 0-.75-.75A4.24 4.24 0 0 1 17.75 12 4.24 4.24 0 0 1 22 7.75a.75.75 0 0 0 .75-.75.75.75 0 0 0-.75-.75" style="color:#000;fill:currentColor;stroke-linecap:round;stroke-linejoin:round;-inkscape-stroke:none"/>
</svg>
