<svg xmlns="http://www.w3.org/2000/svg" width="24" height="24" fill="none" stroke-width="1.5" viewBox="0 0 24 24">
    <path d="M13.865 1.418a10.72 10.72 0 0 0-8.031 1.775c-4.856 3.4-6.04 10.117-2.64 14.973s10.116 6.04 14.972 2.64 6.04-10.116 2.64-14.972a10.72 10.72 0 0 0-6.94-4.416m-.258 1.469a9.22 9.22 0 0 1 5.97 3.808 9.24 9.24 0 0 1-2.272 12.883 9.24 9.24 0 0 1-12.883-2.273A9.236 9.236 0 0 1 6.693 4.424a9.22 9.22 0 0 1 6.914-1.537" style="color:#000;fill:currentColor;stroke-linecap:round;stroke-linejoin:round;-inkscape-stroke:none"/>
    <path d="M6.395 3.07a.75.75 0 0 0-.561.123.75.75 0 0 0-.184 1.045l11.471 16.383a.75.75 0 0 0 1.045.186.75.75 0 0 0 .184-1.045L6.879 3.379a.75.75 0 0 0-.484-.309" style="color:#000;fill:currentColor;stroke-linecap:round;stroke-linejoin:round;-inkscape-stroke:none"/>
    <path d="M19.416 4.74a.75.75 0 0 0-.47.33c-3.687 5.763-8.193 8.926-15.874 11.096a.75.75 0 0 0-.52.926.75.75 0 0 0 .927.517c7.906-2.233 12.874-5.704 16.73-11.732a.75.75 0 0 0-.227-1.035.75.75 0 0 0-.566-.102" style="color:#000;fill:currentColor;stroke-linecap:round;stroke-linejoin:round;-inkscape-stroke:none"/>
    <path d="M13 1.309a.75.75 0 0 0-.687.806c.433 5.49 3.61 10.002 9.035 12.95a.75.75 0 0 0 1.017-.301.75.75 0 0 0-.3-1.018C16.98 10.983 14.2 6.988 13.806 1.998a.75.75 0 0 0-.807-.69M2.031 8.893a.75.75 0 0 0-.42.39.75.75 0 0 0 .371.994c4.555 2.077 7.36 6.055 8.217 11.778a.75.75 0 0 0 .852.63.75.75 0 0 0 .63-.853c-.914-6.106-4.065-10.635-9.076-12.92a.75.75 0 0 0-.574-.02" style="color:#000;fill:currentColor;stroke-linecap:round;stroke-linejoin:round;-inkscape-stroke:none"/>
</svg>
