<svg xmlns="http://www.w3.org/2000/svg" width="24" height="24" fill="none" stroke-width="1.5" viewBox="0 0 24 24">
    <path d="M3.6 12.25a1.36 1.36 0 0 0-1.35 1.35V16A4.761 4.761 0 0 0 7 20.75h10A4.761 4.761 0 0 0 21.75 16v-3a.75.75 0 0 0-.75-.75Zm.15 1.5h16.5V16A3.239 3.239 0 0 1 17 19.25H7A3.239 3.239 0 0 1 3.75 16Z" style="color:#000;fill:currentColor;stroke-linecap:round;stroke-linejoin:round;-inkscape-stroke:none"/>
    <path d="M15.664 19.33a.75.75 0 0 0-.334 1.006l1 2a.75.75 0 0 0 1.006.334.75.75 0 0 0 .334-1.006l-1-2a.75.75 0 0 0-1.006-.334M8.336 19.33a.75.75 0 0 0-1.006.334l-1 2a.75.75 0 0 0 .334 1.006.75.75 0 0 0 1.006-.334l1-2a.75.75 0 0 0-.334-1.006M12 2.25a.75.75 0 0 0-.75.75.75.75 0 0 0 .75.75h5A3.239 3.239 0 0 1 20.25 7v6a.75.75 0 0 0 .75.75.75.75 0 0 0 .75-.75V7A4.761 4.761 0 0 0 17 2.25Z" style="color:#000;fill:currentColor;stroke-linecap:round;stroke-linejoin:round;-inkscape-stroke:none"/>
    <path d="M12 2.25c-1.814 0-3.062.967-3.738 2.059-.677 1.09-.887 2.285-.967 3.011-.085.768.568 1.43 1.305 1.43h6.8c.737 0 1.39-.662 1.305-1.43-.08-.726-.29-1.92-.967-3.011C15.062 3.217 13.814 2.25 12 2.25m0 1.5c1.323 0 1.982.571 2.465 1.35.435.701.59 1.542.676 2.15H8.859c.085-.608.241-1.449.676-2.15.483-.779 1.142-1.35 2.465-1.35" style="color:#000;fill:currentColor;stroke-linecap:round;stroke-linejoin:round;-inkscape-stroke:none"/>
</svg>
