<svg xmlns="http://www.w3.org/2000/svg" width="24" height="24" fill="none" stroke-width="1.5" viewBox="0 0 24 24">
    <path d="M23 9.25a.75.75 0 0 0-.75.75v4a.75.75 0 0 0 .75.75.75.75 0 0 0 .75-.75v-4a.75.75 0 0 0-.75-.75" style="color:#000;fill:currentColor;stroke-linecap:round;stroke-linejoin:round;-inkscape-stroke:none"/>
    <path d="M3 5.25C1.49 5.25.25 6.49.25 8v8c0 1.51 1.24 2.75 2.75 2.75h15c1.51 0 2.75-1.24 2.75-2.75V8c0-1.51-1.24-2.75-2.75-2.75Zm0 1.5h15c.7 0 1.25.55 1.25 1.25v8c0 .7-.55 1.25-1.25 1.25H3c-.7 0-1.25-.55-1.25-1.25V8c0-.7.55-1.25 1.25-1.25" style="color:#000;fill:currentColor;-inkscape-stroke:none"/>
    <path d="M10.5 8.25a.75.75 0 0 0-.75.75v2a.75.75 0 0 0 .75.75.75.75 0 0 0 .75-.75V9a.75.75 0 0 0-.75-.75M10.47 14.25a.75.75 0 0 0-.517.246l-.01.012a.75.75 0 0 0 .055 1.058.75.75 0 0 0 1.059-.054l.01-.012a.75.75 0 0 0-.055-1.059.75.75 0 0 0-.541-.191" style="color:#000;fill:currentColor;stroke-linecap:round;stroke-linejoin:round;-inkscape-stroke:none"/>
</svg>
