<svg xmlns="http://www.w3.org/2000/svg" width="24" height="24" fill="none" stroke-width="1.5" viewBox="0 0 24 24">
    <path d="M8.244 13.795a.75.75 0 0 0-.424.389l-3.5 7.5a.75.75 0 0 0 .364.996.75.75 0 0 0 .996-.364l3.5-7.5a.75.75 0 0 0-.364-.996.75.75 0 0 0-.572-.025M7.854 1.264a.75.75 0 0 0-.479.32.75.75 0 0 0 .209 1.041S8.25 3.042 8.25 4c0 .203-.165.618-.377.941-.212.324-.418.545-.418.545a.75.75 0 0 0 .031 1.059.75.75 0 0 0 1.059-.031s.294-.31.582-.752S9.75 4.736 9.75 4c0-1.708-1.334-2.625-1.334-2.625a.75.75 0 0 0-.562-.111M11.854 1.264a.75.75 0 0 0-.479.32.75.75 0 0 0 .209 1.041s.666.417.666 1.375c0 .203-.165.618-.377.941a4.4 4.4 0 0 1-.418.545.75.75 0 0 0 .031 1.059.75.75 0 0 0 1.059-.031s.294-.31.582-.752.623-1.026.623-1.762c0-1.708-1.334-2.625-1.334-2.625a.75.75 0 0 0-.562-.111M16.416 1.375a.75.75 0 0 0-1.041.209.75.75 0 0 0 .209 1.041s.666.417.666 1.375c0 .203-.165.618-.377.941a4.4 4.4 0 0 1-.418.545.75.75 0 0 0 .031 1.059.75.75 0 0 0 1.059-.031s.294-.31.582-.752.623-1.026.623-1.762c0-1.708-1.334-2.625-1.334-2.625" style="color:#000;fill:currentColor;stroke-linecap:round;stroke-linejoin:round;-inkscape-stroke:none"/>
    <path d="M7.5 16.75v1.5h9v-1.5z" style="color:#000;fill:currentColor;stroke-linejoin:round;-inkscape-stroke:none"/>
    <path d="M15.756 13.795a.75.75 0 0 0-.572.025.75.75 0 0 0-.364.996l2.1 4.5a.75.75 0 0 0 .998.364.75.75 0 0 0 .361-.996l-2.1-4.5a.75.75 0 0 0-.423-.39" style="color:#000;fill:currentColor;stroke-linecap:round;stroke-linejoin:round;-inkscape-stroke:none"/>
    <path d="M18.5 18.25a2.26 2.26 0 0 0-2.25 2.25 2.26 2.26 0 0 0 2.25 2.25 2.26 2.26 0 0 0 2.25-2.25 2.26 2.26 0 0 0-2.25-2.25m0 1.5c.423 0 .75.327.75.75s-.327.75-.75.75a.74.74 0 0 1-.75-.75c0-.423.327-.75.75-.75" style="color:#000;fill:currentColor;stroke-linecap:round;stroke-linejoin:round;-inkscape-stroke:none"/>
    <path d="M5.6 7.25c-.738 0-1.388.643-1.323 1.414A7.76 7.76 0 0 0 12 15.75a7.76 7.76 0 0 0 7.723-7.086c.065-.77-.585-1.414-1.323-1.414Zm.232 1.5h12.336c-.376 3.094-2.966 5.5-6.168 5.5s-5.792-2.406-6.168-5.5" style="color:#000;fill:currentColor;-inkscape-stroke:none"/>
</svg>
