<svg xmlns="http://www.w3.org/2000/svg" width="24" height="24" fill="none" stroke-width="1.5" viewBox="0 0 24 24">
    <path d="M2.727 8.25c-.833 0-1.484.788-1.327 1.605l.627 3.258.616 4 .537 3.492a1.36 1.36 0 0 0 1.336 1.145h14.968a1.36 1.36 0 0 0 1.336-1.145l.537-3.492.616-4 .627-3.258a1.367 1.367 0 0 0-1.327-1.605Zm.181 1.5h18.184l-.48 2.5H3.388Zm.735 4h16.714l-.384 2.5H4.027Zm.615 4h15.484l-.385 2.5H4.643Z" style="color:#000;fill:currentColor;-inkscape-stroke:none"/>
    <path d="M10 2.25C8.49 2.25 7.25 3.49 7.25 5v4h1.5V5c0-.7.55-1.25 1.25-1.25h4c.7 0 1.25.55 1.25 1.25v4h1.5V5c0-1.51-1.24-2.75-2.75-2.75Z" style="color:#000;fill:currentColor;-inkscape-stroke:none"/>
</svg>
