<svg xmlns="http://www.w3.org/2000/svg" width="24" height="24" fill="none" stroke-width="1.5" viewBox="0 0 24 24">
    <path d="M5 1.25C3.49 1.25 2.25 2.49 2.25 4v16c0 1.51 1.24 2.75 2.75 2.75h9a.75.75 0 0 0 .75-.75.75.75 0 0 0-.75-.75H5c-.7 0-1.25-.55-1.25-1.25V4c0-.7.55-1.25 1.25-1.25h14c.7 0 1.25.55 1.25 1.25v12a.75.75 0 0 0 .75.75.75.75 0 0 0 .75-.75V4c0-1.51-1.24-2.75-2.75-2.75Z" style="color:#000;fill:currentColor;stroke-linecap:round;stroke-linejoin:round;-inkscape-stroke:none"/>
    <path d="M11 5.25a.75.75 0 0 0-.75.75v1.25H3a.75.75 0 0 0-.75.75.75.75 0 0 0 .75.75h8a.75.75 0 0 0 .75-.75V6a.75.75 0 0 0-.75-.75M13 5.25a.75.75 0 0 0-.75.75v2a.75.75 0 0 0 .75.75h8a.75.75 0 0 0 .75-.75.75.75 0 0 0-.75-.75h-7.25V6a.75.75 0 0 0-.75-.75M22 17.25a.75.75 0 0 0-.531.219L18 20.937l-1.469-1.468a.75.75 0 0 0-1.062 0 .75.75 0 0 0 0 1.062l2 2a.75.75 0 0 0 1.062 0l4-4a.75.75 0 0 0 0-1.062.75.75 0 0 0-.531-.219" style="color:#000;fill:currentColor;stroke-linecap:round;stroke-linejoin:round;-inkscape-stroke:none"/>
</svg>
