<svg xmlns="http://www.w3.org/2000/svg" width="24" height="24" fill="none" stroke-width="1.5" viewBox="0 0 24 24">
    <path d="M2 4.25a.75.75 0 0 0-.75.75v13a.75.75 0 0 0 .75.75h6.197c2.87 0 4.553-2.071 4.553-4.14 0-1.32-.749-2.582-1.99-3.366 1.235-.724 1.99-1.887 1.99-3.135 0-1.962-1.711-3.859-4.553-3.859Zm.75 1.5h5.447c2.229 0 3.053 1.213 3.053 2.36s-.824 2.357-3.053 2.357H2.75Zm0 6.217h5.447c2.201 0 3.053 1.32 3.053 2.642s-.852 2.641-3.053 2.641H2.75ZM18 8.25c-2.665 0-4.75 2.404-4.75 5.25a.75.75 0 0 0 .75.75h8a.75.75 0 0 0 .75-.75c0-2.846-2.085-5.25-4.75-5.25m0 1.5c1.531 0 2.804 1.27 3.117 3h-6.234c.313-1.73 1.586-3 3.117-3" style="color:#000;fill:currentColor;stroke-linecap:round;stroke-linejoin:round;-inkscape-stroke:none"/>
    <path d="M14 12.75a.75.75 0 0 0-.75.75c0 2.846 2.085 5.25 4.75 5.25 1.56 0 2.648-.594 3.297-1.205.648-.611.906-1.283.906-1.283a.75.75 0 0 0-.441-.965.75.75 0 0 0-.965.441s-.115.328-.527.717-1.074.795-2.27.795c-1.753 0-3.25-1.625-3.25-3.75a.75.75 0 0 0-.75-.75M15.5 5.25a.75.75 0 0 0-.75.75.75.75 0 0 0 .75.75h5a.75.75 0 0 0 .75-.75.75.75 0 0 0-.75-.75Z" style="color:#000;fill:currentColor;stroke-linecap:round;stroke-linejoin:round;-inkscape-stroke:none"/>
</svg>
