<svg xmlns="http://www.w3.org/2000/svg" width="24" height="24" fill="none" stroke-width="1.5" viewBox="0 0 24 24">
    <path d="M8 2.25A5.761 5.761 0 0 0 2.25 8v8A5.761 5.761 0 0 0 8 21.75h8A5.761 5.761 0 0 0 21.75 16V8A5.761 5.761 0 0 0 16 2.25Zm0 1.5h8A4.239 4.239 0 0 1 20.25 8v8A4.239 4.239 0 0 1 16 20.25H8A4.239 4.239 0 0 1 3.75 16V8A4.239 4.239 0 0 1 8 3.75" style="color:#000;fill:currentColor;stroke-linecap:round;stroke-linejoin:round;-inkscape-stroke:none"/>
    <path d="M6 7.25a.75.75 0 0 0-.75.75v8a.75.75 0 0 0 .75.75h3.098c.84 0 1.564-.38 2.01-.93.445-.55.642-1.234.642-1.908 0-.673-.197-1.356-.643-1.906-.062-.077-.167-.118-.24-.188.056-.052.169-.037.219-.093a2.725 2.725 0 0 0 .664-1.813 2.72 2.72 0 0 0-.664-1.81c-.454-.514-1.166-.852-1.988-.852Zm.75 1.5h2.348c.445 0 .685.14.865.344.18.204.287.505.287.818 0 .313-.107.617-.287.82-.18.204-.42.344-.865.344H6.75Zm0 3.826h2.348c.428 0 .655.142.843.375.19.233.309.591.309.961s-.12.73-.309.963c-.188.233-.415.375-.843.375H6.75ZM15.5 10.25a3.261 3.261 0 0 0-3.25 3.25.75.75 0 0 0 .75.75h5a.75.75 0 0 0 .75-.75 3.261 3.261 0 0 0-3.25-3.25m0 1.5c.68 0 1.151.44 1.441 1H14.06c.29-.56.76-1 1.441-1" style="color:#000;fill:currentColor;stroke-linecap:round;stroke-linejoin:round;-inkscape-stroke:none"/>
    <path d="M13 12.75a.75.75 0 0 0-.75.75 3.261 3.261 0 0 0 3.25 3.25c1.101 0 1.879-.409 2.322-.818a.75.75 0 0 0 .041-1.06.75.75 0 0 0-1.058-.042c-.2.185-.551.42-1.305.42-.975 0-1.75-.775-1.75-1.75a.75.75 0 0 0-.75-.75M14 7.75a.75.75 0 0 0-.75.75.75.75 0 0 0 .75.75h3a.75.75 0 0 0 .75-.75.75.75 0 0 0-.75-.75Z" style="color:#000;fill:currentColor;stroke-linecap:round;stroke-linejoin:round;-inkscape-stroke:none"/>
</svg>
