<svg xmlns="http://www.w3.org/2000/svg" width="24" height="24" fill="none" stroke-width="1.5" viewBox="0 0 24 24">
    <path d="M12 1.25c-1.803 0-3.528.766-4.79 2.111-1.26 1.345-1.96 3.156-1.96 5.04 0 3.632-.727 5.905-1.418 7.257-.346.676-.683 1.124-.924 1.395-.24.27-.344.336-.344.336A.75.75 0 0 0 3 18.75h18a.75.75 0 0 0 .436-1.361s-.103-.065-.344-.336-.578-.719-.924-1.395c-.691-1.352-1.418-3.625-1.418-7.258 0-1.883-.7-3.694-1.96-5.039C15.527 2.016 13.802 1.25 12 1.25m0 1.5c1.38 0 2.706.581 3.695 1.637.99 1.055 1.555 2.502 1.555 4.013 0 3.834.773 6.36 1.582 7.942.215.42.4.615.605.908H4.563c.205-.293.39-.488.606-.908C5.977 14.76 6.75 12.234 6.75 8.4c0-1.51.565-2.958 1.555-4.013C9.295 3.33 10.62 2.75 12 2.75M10.463 20.275a.75.75 0 0 0-.568.077.75.75 0 0 0-.274 1.025A2.745 2.745 0 0 0 12 22.747a2.752 2.752 0 0 0 2.379-1.37.75.75 0 0 0-.274-1.025.75.75 0 0 0-1.023.271c-.11.19-.267.348-.457.457a.75.75 0 0 0-.002 0 1.245 1.245 0 0 1-1.246 0c-.19-.11-.35-.268-.459-.457a.75.75 0 0 0-.455-.348" style="color:#000;fill:currentColor;stroke-linecap:round;stroke-linejoin:round;-inkscape-stroke:none"/>
</svg>
