<svg xmlns="http://www.w3.org/2000/svg" width="24" height="24" fill="none" stroke-width="1.5" viewBox="0 0 24 24">
    <path d="M5 10.25A4.761 4.761 0 0 0 .25 15 4.761 4.761 0 0 0 5 19.75 4.761 4.761 0 0 0 9.75 15 4.761 4.761 0 0 0 5 10.25m0 1.5A3.239 3.239 0 0 1 8.25 15 3.239 3.239 0 0 1 5 18.25 3.239 3.239 0 0 1 1.75 15 3.239 3.239 0 0 1 5 11.75M14 3.75a.75.75 0 0 0-.75.75.75.75 0 0 0 .75.75h1.098l-1 1.5H8.5a.75.75 0 0 0-.75.75.75.75 0 0 0 .75.75h6.05l3.788 7.104a.75.75 0 0 0 1.016.308.75.75 0 0 0 .308-1.016l-4-7.5a.75.75 0 0 0-.017-.01l1.257-1.886H18.5a.75.75 0 0 0 .75-.75.75.75 0 0 0-.75-.75h-2z" style="color:#000;fill:currentColor;stroke-linecap:round;stroke-linejoin:round;-inkscape-stroke:none"/>
    <path d="M8.479 6.75a.75.75 0 0 0-.659.434l-3.5 7.5a.75.75 0 0 0 .364.996.75.75 0 0 0 .996-.364L8.547 9.17l2.793 5.185a.75.75 0 0 0 .66.395h3a.75.75 0 0 0 .75-.75.75.75 0 0 0-.75-.75h-2.553L9.16 7.145a.75.75 0 0 0-.681-.395" style="color:#000;fill:currentColor;stroke-linecap:round;stroke-linejoin:round;-inkscape-stroke:none"/>
    <path d="M5 3.75a.75.75 0 0 0-.75.75.75.75 0 0 0 .75.75c.75 0 1.338.363 1.826.887.489.523.832 1.206.963 1.6a.75.75 0 0 0 .947.474.75.75 0 0 0 .475-.947 6.038 6.038 0 0 0-1.287-2.15C7.246 4.386 6.25 3.75 5 3.75M19 10.25A4.761 4.761 0 0 0 14.25 15 4.761 4.761 0 0 0 19 19.75 4.761 4.761 0 0 0 23.75 15 4.761 4.761 0 0 0 19 10.25m0 1.5A3.239 3.239 0 0 1 22.25 15 3.239 3.239 0 0 1 19 18.25 3.239 3.239 0 0 1 15.75 15 3.239 3.239 0 0 1 19 11.75" style="color:#000;fill:currentColor;stroke-linecap:round;stroke-linejoin:round;-inkscape-stroke:none"/>
</svg>
