<svg xmlns="http://www.w3.org/2000/svg" width="24" height="24" fill="none" stroke-width="1.5" viewBox="0 0 24 24">
    <path d="M4.791 1.148 2.68 3.26c-.297.297-.44.716-.385 1.133l1.7 12.744a4.75 4.75 0 0 0 2.35 3.496l.321.183a10.75 10.75 0 0 0 10.668 0l.32-.183a4.75 4.75 0 0 0 2.352-3.496l1.676-12.574a1.356 1.356 0 0 0-.836-1.432L16.145 1.25h-6.127L9.41 2.588Zm6.191 1.602h4.873l4.325 1.73-1.662 12.46a3.24 3.24 0 0 1-1.608 2.39l-.32.184a9.25 9.25 0 0 1-9.18 0l-.318-.184H7.09a3.24 3.24 0 0 1-1.608-2.39L3.793 4.267l1.416-1.416 5.018 1.56Z" style="color:#000;fill:currentColor;-inkscape-stroke:none"/>
    <path d="m15.303 1.72-2 5 1.394.56 2-5zM9.094 3.303l-.817 3 1.446.394.818-3z" style="color:#000;fill:currentColor;-inkscape-stroke:none"/>
    <path d="M3.54 4.479 2.46 5.52c.86.892 2.248 1.366 3.923 1.713 1.675.348 3.645.516 5.617.516s3.942-.168 5.617-.516c1.675-.347 3.062-.821 3.922-1.713L20.461 4.48c-.426.441-1.61.967-3.148 1.287-1.54.319-3.428.484-5.313.484s-3.774-.165-5.312-.484c-1.54-.32-2.723-.846-3.149-1.287" style="color:#000;fill:currentColor;-inkscape-stroke:none"/>
</svg>
