<svg xmlns="http://www.w3.org/2000/svg" width="24" height="24" fill="none" stroke-width="1.5" viewBox="0 0 24 24">
    <path d="M12 1.25c-5.802 0-8.36 1.353-9.203 1.953-.4.285-.558.77-.502 1.19l1.7 12.744a4.751 4.751 0 0 0 2.35 3.496l.321.183a10.754 10.754 0 0 0 10.668 0l.32-.183a4.75 4.75 0 0 0 2.352-3.496l1.7-12.744a1.264 1.264 0 0 0-.503-1.19C20.36 2.603 17.802 1.25 12 1.25m0 1.5c5.398 0 7.56 1.185 8.193 1.615L18.518 16.94a3.243 3.243 0 0 1-1.608 2.391l-.32.184a9.25 9.25 0 0 1-9.18 0l-.318-.184H7.09a3.243 3.243 0 0 1-1.608-2.39L3.807 4.364C4.439 3.935 6.602 2.75 12 2.75" style="color:#000;fill:currentColor;-inkscape-stroke:none"/>
    <path d="M3.54 4.479 2.46 5.52c.86.892 2.248 1.366 3.923 1.713 1.675.348 3.645.516 5.617.516s3.942-.168 5.617-.516c1.675-.347 3.062-.821 3.922-1.713L20.461 4.48c-.426.441-1.61.967-3.148 1.287-1.54.319-3.428.484-5.313.484-1.885 0-3.774-.165-5.312-.484-1.54-.32-2.723-.846-3.149-1.287M19.664 10.83l-6 3 .336.67-.57-.488-3 3.5 1.14.976 2.62-3.054 4.474 2.236.672-1.34-3.66-1.83 4.66-2.33Z" style="color:#000;fill:currentColor;-inkscape-stroke:none"/>
    <path d="m7.63 14.795-3.235.463.21 1.484 3.17-.453 2.72 2.266 2.974 2.976 1.062-1.062-3.025-3.024-2.82-2.351v.002a1.35 1.35 0 0 0-1.055-.301" style="color:#000;fill:currentColor;-inkscape-stroke:none"/>
    <path d="M10.957 11.498a1.346 1.346 0 0 0-.912.463L7.43 15.01l1.14.977 2.518-2.94 2.432 2.028.96-1.152-2.544-2.121a1.352 1.352 0 0 0-.979-.305" style="color:#000;fill:currentColor;-inkscape-stroke:none"/>
</svg>
