<svg xmlns="http://www.w3.org/2000/svg" width="24" height="24" fill="none" stroke-width="1.5" viewBox="0 0 24 24">
    <path d="M4 15.75a.75.75 0 0 0-.75.75V20c0 1.51 1.24 2.75 2.75 2.75h12c1.51 0 2.75-1.24 2.75-2.75v-3.5a.75.75 0 0 0-.75-.75.75.75 0 0 0-.75.75V20c0 .7-.55 1.25-1.25 1.25H6c-.7 0-1.25-.55-1.25-1.25v-3.5a.75.75 0 0 0-.75-.75M5 10.25c-1.51 0-2.75 1.24-2.75 2.75v1a.75.75 0 0 0 .75.75.75.75 0 0 0 .75-.75v-1c0-.7.55-1.25 1.25-1.25h14c.7 0 1.25.55 1.25 1.25v1a.75.75 0 0 0 .75.75.75.75 0 0 0 .75-.75v-1c0-1.51-1.24-2.75-2.75-2.75z" style="color:#000;fill:currentColor;stroke-linecap:round;stroke-linejoin:round;-inkscape-stroke:none"/>
    <path d="M12 7.25a.75.75 0 0 0-.75.75v3a.75.75 0 0 0 .75.75.75.75 0 0 0 .75-.75V8a.75.75 0 0 0-.75-.75" style="color:#000;fill:currentColor;stroke-linecap:round;stroke-linejoin:round;-inkscape-stroke:none"/>
    <path d="M11.512 1.432s-.553.473-1.102 1.172c-.549.698-1.16 1.64-1.16 2.771 0 .94.203 1.763.68 2.389.477.626 1.247.986 2.07.986.823 0 1.593-.36 2.07-.986.477-.626.68-1.45.68-2.389 0-1.13-.611-2.073-1.16-2.771-.549-.7-1.102-1.172-1.102-1.172a.75.75 0 0 0-.976 0M12 3.09c.162.165.204.177.41.44.451.574.84 1.318.84 1.845 0 .717-.166 1.206-.373 1.479-.208.272-.438.396-.877.396-.44 0-.67-.124-.877-.396-.207-.273-.373-.762-.373-1.479 0-.527.389-1.271.84-1.846.206-.262.248-.274.41-.44M3 13.25a.75.75 0 0 0-.75.75A3.761 3.761 0 0 0 6 17.75 3.761 3.761 0 0 0 9.75 14a.75.75 0 0 0-.75-.75.75.75 0 0 0-.75.75c0 1.252-.998 2.25-2.25 2.25A2.239 2.239 0 0 1 3.75 14a.75.75 0 0 0-.75-.75" style="color:#000;fill:currentColor;stroke-linecap:round;stroke-linejoin:round;-inkscape-stroke:none"/>
    <path d="M9 13.25a.75.75 0 0 0-.75.75A3.761 3.761 0 0 0 12 17.75 3.761 3.761 0 0 0 15.75 14a.75.75 0 0 0-.75-.75.75.75 0 0 0-.75.75c0 1.252-.998 2.25-2.25 2.25A2.239 2.239 0 0 1 9.75 14a.75.75 0 0 0-.75-.75" style="color:#000;fill:currentColor;stroke-linecap:round;stroke-linejoin:round;-inkscape-stroke:none"/>
    <path d="M15 13.25a.75.75 0 0 0-.75.75A3.761 3.761 0 0 0 18 17.75 3.761 3.761 0 0 0 21.75 14a.75.75 0 0 0-.75-.75.75.75 0 0 0-.75.75c0 1.252-.998 2.25-2.25 2.25A2.239 2.239 0 0 1 15.75 14a.75.75 0 0 0-.75-.75" style="color:#000;fill:currentColor;stroke-linecap:round;stroke-linejoin:round;-inkscape-stroke:none"/>
</svg>
