<svg xmlns="http://www.w3.org/2000/svg" width="24" height="24" fill="none" stroke-width="1.5" viewBox="0 0 24 24">
    <path d="M3.68 3.25c-.8 0-1.44.725-1.34 1.518l1.85 14.8c.083.67.664 1.182 1.34 1.182h12.94a1.36 1.36 0 0 0 1.34-1.184l1.85-14.798c.1-.793-.54-1.518-1.34-1.518Zm.17 1.5h16.3l-1.812 14.5H5.662Z" style="color:#000;fill:currentColor;stroke-linecap:round;stroke-linejoin:round;-inkscape-stroke:none"/>
    <path d="M7.926 7c-.796 0-1.435.718-1.342 1.508l.86 7.3c.079.674.66 1.192 1.34 1.192h6.433c.678 0 1.26-.518 1.34-1.191l.859-7.309H20.5a.75.75 0 0 0 .75-.75.75.75 0 0 0-.75-.75h-3.75Zm.168 1.5h7.814l-.824 7H8.918Z" style="color:#000;fill:currentColor;stroke-linecap:round;stroke-linejoin:round;-inkscape-stroke:none"/>
</svg>
