<svg xmlns="http://www.w3.org/2000/svg" width="24" height="24" fill="none" stroke-width="1.5" viewBox="0 0 24 24">
    <path d="M12 1.25c-5.566 0-10.158 4.245-10.697 9.676a.75.75 0 0 0 .672.82.75.75 0 0 0 .82-.672A9.244 9.244 0 0 1 12 2.75c3.8 0 7.054 2.285 8.48 5.55a.75.75 0 0 0 .989.387.75.75 0 0 0 .386-.988A10.76 10.76 0 0 0 12 1.25" style="color:#000;fill:currentColor;stroke-linecap:round;stroke-linejoin:round;-inkscape-stroke:none"/>
    <path d="M22 3.25a.75.75 0 0 0-.75.75v3.25H18a.75.75 0 0 0-.75.75.75.75 0 0 0 .75.75h3.4a1.36 1.36 0 0 0 1.35-1.35V4a.75.75 0 0 0-.75-.75M22.074 12.254a.75.75 0 0 0-.82.672 9.244 9.244 0 0 1-9.205 8.324 9.25 9.25 0 0 1-8.48-5.55.75.75 0 0 0-.987-.387.75.75 0 0 0-.389.988 10.76 10.76 0 0 0 9.856 6.449c5.566 0 10.158-4.245 10.697-9.676a.75.75 0 0 0-.672-.82" style="color:#000;fill:currentColor;stroke-linecap:round;stroke-linejoin:round;-inkscape-stroke:none"/>
    <path d="M2.648 15.25a1.36 1.36 0 0 0-1.35 1.35V20a.75.75 0 0 0 .75.75.75.75 0 0 0 .75-.75v-3.25h3.25a.75.75 0 0 0 .75-.75.75.75 0 0 0-.75-.75z" style="color:#000;fill:currentColor;stroke-linecap:round;stroke-linejoin:round;-inkscape-stroke:none"/>
    <path d="M9.596 6.254A1.363 1.363 0 0 0 8.25 7.605v8.79c0 .736.611 1.347 1.346 1.351 1.48.009 2.864.055 4.039-.31.587-.183 1.142-.493 1.533-1 .391-.508.582-1.175.582-1.936 0-.823-.247-1.54-.709-2.05-.218-.241-.542-.3-.816-.45.274-.15.598-.209.816-.45.462-.51.709-1.227.709-2.05 0-.761-.19-1.428-.582-1.936-.391-.507-.946-.817-1.533-1-1.175-.365-2.56-.319-4.04-.31m.154 1.51c1.412-.007 2.687-.002 3.44.232.391.122.63.28.789.484.157.205.271.495.271 1.02 0 .55-.128.83-.322 1.045s-.51.387-.985.506c-.767.192-1.99.165-3.193.162zm0 5.023c1.203-.003 2.426-.03 3.193.162.474.119.79.291.985.506s.322.496.322 1.045c0 .525-.114.815-.271 1.02-.158.204-.398.362-.79.484-.752.234-2.027.239-3.439.232z" style="color:#000;fill:currentColor;-inkscape-stroke:none"/>
    <path d="M12 4.75a.75.75 0 0 0-.75.75V7a.75.75 0 0 0 .75.75.75.75 0 0 0 .75-.75V5.5a.75.75 0 0 0-.75-.75M12 16.25a.75.75 0 0 0-.75.75v1.5a.75.75 0 0 0 .75.75.75.75 0 0 0 .75-.75V17a.75.75 0 0 0-.75-.75" style="color:#000;fill:currentColor;stroke-linecap:round;stroke-linejoin:round;-inkscape-stroke:none"/>
</svg>
