<svg xmlns="http://www.w3.org/2000/svg" width="24" height="24" fill="none" stroke-width="1.5" viewBox="0 0 24 24">
    <path d="M11.463 1.307A.75.75 0 0 0 11 2v8.477L7.223 7.418a.75.75 0 0 0-1.055.11.75.75 0 0 0 .11 1.054L10.5 12l-4.223 3.418a.75.75 0 0 0-.109 1.055.75.75 0 0 0 1.055.109L11 13.523V22a.75.75 0 0 0 1.281.531l5.5-5.5a.75.75 0 0 0-.058-1.113L12.883 12l4.84-3.918a.75.75 0 0 0 .058-1.113l-5.5-5.5a.75.75 0 0 0-.818-.162M12.5 3.813l3.629 3.628-3.629 2.94Zm0 9.806 3.629 2.94-3.629 3.628Z" style="color:#000;fill:currentColor;stroke-linecap:round;stroke-linejoin:round;-inkscape-stroke:none"/>
</svg>
