<svg xmlns="http://www.w3.org/2000/svg" width="24" height="24" fill="none" stroke-width="1.5" viewBox="0 0 24 24">
    <path d="M11.578 5.305a.75.75 0 0 0-.47.695v4.406L9.485 9.03a.75.75 0 0 0-1.058.086.75.75 0 0 0 .086 1.057L10.664 12l-2.15 1.828a.75.75 0 0 0-.086 1.057.75.75 0 0 0 1.058.086l1.621-1.377V18a.75.75 0 0 0 1.293.518l3.143-3.301a.75.75 0 0 0-.057-1.088L12.982 12l2.504-2.129a.75.75 0 0 0 .057-1.088l-3.143-3.3a.75.75 0 0 0-.822-.178m1.03 2.57 1.302 1.367-1.303 1.108Zm0 5.775 1.302 1.108-1.303 1.367z" style="color:#000;fill:currentColor;stroke-linecap:round;stroke-linejoin:round;-inkscape-stroke:none"/>
    <path d="M8 2.25C4.281 2.25 1.25 5.281 1.25 9v6c0 3.719 3.031 6.75 6.75 6.75h8c3.719 0 6.75-3.031 6.75-6.75V9c0-3.719-3.031-6.75-6.75-6.75Zm0 1.5h8A5.239 5.239 0 0 1 21.25 9v6A5.239 5.239 0 0 1 16 20.25H8A5.239 5.239 0 0 1 2.75 15V9A5.239 5.239 0 0 1 8 3.75" style="color:#000;fill:currentColor;-inkscape-stroke:none"/>
</svg>
