<svg xmlns="http://www.w3.org/2000/svg" width="24" height="24" fill="none" stroke-width="1.5" viewBox="0 0 24 24">
    <path d="M3.6 2.25A1.36 1.36 0 0 0 2.25 3.6v16.8c0 .737.613 1.35 1.35 1.35h16.8a1.36 1.36 0 0 0 1.35-1.35V3.6a1.36 1.36 0 0 0-1.35-1.35Zm.15 1.5h16.5v16.5H3.75Z" style="color:#000;fill:currentColor;-inkscape-stroke:none"/>
    <path d="M9.6 6.25A1.36 1.36 0 0 0 8.25 7.6v9.3c0 .737.613 1.35 1.35 1.35H12s.89.01 1.813-.412a3.328 3.328 0 0 0 1.937-3.088c0-1.469-.824-2.36-1.652-2.852.606-.504 1.152-1.237 1.152-2.398 0-1.5-.86-2.455-1.664-2.857C12.782 6.24 12 6.25 12 6.25Zm.15 1.5H12s.468.01.914.232c.446.223.836.518.836 1.518s-.39 1.295-.836 1.518c-.446.223-.914.232-.914.232H9.75Zm0 5H12s.61.01 1.188.275c.577.265 1.062.623 1.062 1.725s-.485 1.46-1.062 1.725c-.578.264-1.188.275-1.188.275H9.75Z" style="color:#000;fill:currentColor;-inkscape-stroke:none"/>
</svg>
