<svg xmlns="http://www.w3.org/2000/svg" width="24" height="24" fill="none" stroke-width="1.5" viewBox="0 0 24 24">
    <path d="M11.246 7.254a.75.75 0 0 0-.59.371C9.51 9.614 8.25 11.607 8.25 14c0 1.019.547 1.861 1.297 2.264s1.622.486 2.53.486c.794 0 1.494-.108 2.095-.377.6-.268 1.101-.728 1.36-1.326.515-1.196.132-2.662-.884-4.422a.75.75 0 0 0-1.209-.125c-.602.671-.96.74-.984.738s-.118-.039-.26-.392c-.283-.708-.277-2.26-.168-2.639a.75.75 0 0 0-.78-.953m-.574 3.52c.055.21.05.43.13.63.243.605.727 1.256 1.52 1.326.488.044.939-.172 1.387-.496.45 1.042.602 1.852.443 2.22-.101.234-.26.4-.591.548-.332.148-.834.248-1.485.248-.792 0-1.457-.112-1.82-.307-.363-.194-.506-.352-.506-.943 0-1.078.396-2.141.922-3.227" style="color:#000;fill:currentColor;stroke-linecap:round;stroke-linejoin:round;-inkscape-stroke:none"/>
    <path d="M11.553 2.398s-1.305.97-2.61 2.409S6.25 8.169 6.25 10.313c0 1.923.497 3.54 1.504 4.685C8.76 16.143 10.256 16.75 12 16.75s3.24-.607 4.246-1.752 1.504-2.762 1.504-4.685c0-2.144-1.389-4.067-2.693-5.506s-2.61-2.409-2.61-2.409a.75.75 0 0 0-.894 0M12 4.016c.33.258.971.726 1.943 1.798 1.196 1.32 2.307 3.052 2.307 4.499 0 1.666-.424 2.893-1.129 3.695-.704.801-1.71 1.242-3.121 1.242s-2.417-.44-3.121-1.242-1.129-2.029-1.129-3.695c0-1.447 1.111-3.18 2.307-4.499.972-1.072 1.613-1.54 1.943-1.798" style="color:#000;fill:currentColor;stroke-linecap:round;stroke-linejoin:round;-inkscape-stroke:none"/>
    <path d="m19.533 16.205-15.455 4.14a.75.75 0 0 0-.53.919.75.75 0 0 0 .919.53l15.455-4.14a.75.75 0 0 0 .53-.92.75.75 0 0 0-.919-.529" style="color:#000;fill:currentColor;stroke-linecap:round;-inkscape-stroke:none"/>
    <path d="M4.467 16.205a.75.75 0 0 0-.918.53.75.75 0 0 0 .53.92l7.728 2.07a.75.75 0 0 0 .918-.532.75.75 0 0 0-.532-.918zM16.059 19.31a.75.75 0 0 0-.92.532.75.75 0 0 0 .53.918l3.864 1.035a.75.75 0 0 0 .918-.531.75.75 0 0 0-.53-.918z" style="color:#000;fill:currentColor;stroke-linecap:round;-inkscape-stroke:none"/>
</svg>
