<svg xmlns="http://www.w3.org/2000/svg" width="24" height="24" fill="none" stroke-width="1.5" viewBox="0 0 24 24">
    <path d="M7 2.25C5.49 2.25 4.25 3.49 4.25 5v14.5a.75.75 0 0 0 .75.75.75.75 0 0 0 .75-.75V5c0-.7.55-1.25 1.25-1.25h11.25V21a.75.75 0 0 0 .75.75.75.75 0 0 0 .75-.75V3.6a1.36 1.36 0 0 0-1.35-1.35Z" style="color:#000;fill:currentColor;stroke-linecap:round;-inkscape-stroke:none"/>
    <path d="M9 6.25a.75.75 0 0 0-.75.75.75.75 0 0 0 .75.75h6a.75.75 0 0 0 .75-.75.75.75 0 0 0-.75-.75ZM6.5 14.25a.75.75 0 0 0-.75.75.75.75 0 0 0 .75.75H19a.75.75 0 0 0 .75-.75.75.75 0 0 0-.75-.75ZM6.5 17.25a.75.75 0 0 0-.75.75.75.75 0 0 0 .75.75H19a.75.75 0 0 0 .75-.75.75.75 0 0 0-.75-.75ZM6.5 20.25a.75.75 0 0 0-.75.75.75.75 0 0 0 .75.75H19a.75.75 0 0 0 .75-.75.75.75 0 0 0-.75-.75Z" style="color:#000;fill:currentColor;stroke-linecap:round;-inkscape-stroke:none"/>
    <path d="M6.5 14.25c-.668 0-1.277.249-1.676.682-.399.433-.574 1.003-.574 1.568 0 .565.175 1.135.574 1.568.399.433 1.008.682 1.676.682a.75.75 0 0 0 .75-.75.75.75 0 0 0-.75-.75c-.332 0-.473-.087-.574-.197-.101-.11-.176-.29-.176-.553 0-.263.075-.443.176-.553.101-.11.242-.197.574-.197a.75.75 0 0 0 .75-.75.75.75 0 0 0-.75-.75" style="color:#000;fill:currentColor;stroke-linecap:round;stroke-linejoin:round;-inkscape-stroke:none"/>
    <path d="M6.5 17.25c-.668 0-1.277.249-1.676.682-.399.433-.574 1.003-.574 1.568 0 .565.175 1.135.574 1.568.399.433 1.008.682 1.676.682a.75.75 0 0 0 .75-.75.75.75 0 0 0-.75-.75c-.332 0-.473-.087-.574-.197-.101-.11-.176-.29-.176-.553 0-.263.075-.443.176-.553.101-.11.242-.197.574-.197a.75.75 0 0 0 .75-.75.75.75 0 0 0-.75-.75" style="color:#000;fill:currentColor;stroke-linecap:round;stroke-linejoin:round;-inkscape-stroke:none"/>
</svg>
