<svg xmlns="http://www.w3.org/2000/svg" width="24" height="24" fill="none" stroke-width="1.5" viewBox="0 0 24 24">
    <path d="M11 7.25c-1.51 0-2.75 1.24-2.75 2.75v6a.75.75 0 0 0 1.166.625l1.89-1.262a1.245 1.245 0 0 1 1.387 0l1.891 1.262A.75.75 0 0 0 15.75 16v-6c0-1.51-1.24-2.75-2.75-2.75Zm0 1.5h2c.7 0 1.25.55 1.25 1.25v4.598l-.725-.483a2.754 2.754 0 0 0-3.05 0l-.725.483V10c0-.7.55-1.25 1.25-1.25" style="color:#000;fill:currentColor;stroke-linecap:round;stroke-linejoin:round;-inkscape-stroke:none"/>
    <path d="M12 1.25C6.072 1.25 1.25 6.072 1.25 12S6.072 22.75 12 22.75 22.75 17.928 22.75 12 17.928 1.25 12 1.25m0 1.5A9.239 9.239 0 0 1 21.25 12 9.239 9.239 0 0 1 12 21.25 9.239 9.239 0 0 1 2.75 12 9.239 9.239 0 0 1 12 2.75" style="color:#000;fill:currentColor;stroke-linecap:round;stroke-linejoin:round;-inkscape-stroke:none"/>
</svg>
