<svg xmlns="http://www.w3.org/2000/svg" width="24" height="24" fill="none" stroke-width="1.5" viewBox="0 0 24 24">
    <path d="M4 3.25a.75.75 0 0 0-.75.75v16a.75.75 0 0 0 .75.75h16a.75.75 0 0 0 .75-.75.75.75 0 0 0-.75-.75H4.75V4A.75.75 0 0 0 4 3.25M19.508 15.443l-.012.01a.75.75 0 0 0-.055 1.059.75.75 0 0 0 1.059.054l.012-.01a.75.75 0 0 0 .054-1.058.75.75 0 0 0-1.058-.055M20.049 11.252a.75.75 0 0 0-.541.191l-.012.01a.75.75 0 0 0-.055 1.059.75.75 0 0 0 1.059.054l.012-.01a.75.75 0 0 0 .054-1.058.75.75 0 0 0-.517-.246M20.049 7.252a.75.75 0 0 0-.541.191l-.012.01a.75.75 0 0 0-.055 1.059.75.75 0 0 0 1.059.054l.012-.01a.75.75 0 0 0 .054-1.058.75.75 0 0 0-.517-.246M20.049 3.252a.75.75 0 0 0-.541.191l-.012.01a.75.75 0 0 0-.055 1.059.75.75 0 0 0 1.059.054l.012-.01a.75.75 0 0 0 .054-1.058.75.75 0 0 0-.517-.246M8.049 3.252a.75.75 0 0 0-.541.191l-.01.01a.75.75 0 0 0-.057 1.059.75.75 0 0 0 1.059.056l.012-.011a.75.75 0 0 0 .056-1.059.75.75 0 0 0-.52-.246M12.049 3.252a.75.75 0 0 0-.541.191l-.012.01a.75.75 0 0 0-.055 1.059.75.75 0 0 0 1.059.054l.012-.01a.75.75 0 0 0 .054-1.058.75.75 0 0 0-.517-.246M15.508 3.443l-.012.01a.75.75 0 0 0-.055 1.059.75.75 0 0 0 1.059.054l.012-.01a.75.75 0 0 0 .054-1.058.75.75 0 0 0-1.058-.055" style="color:#000;fill:currentColor;stroke-linecap:round;stroke-linejoin:round;-inkscape-stroke:none"/>
</svg>
