<svg xmlns="http://www.w3.org/2000/svg" width="24" height="24" fill="none" stroke-width="1.5" viewBox="0 0 24 24">
    <path d="M20.01 3.25a.75.75 0 0 0-.75.75v15.25H4.01a.75.75 0 0 0-.75.75.75.75 0 0 0 .75.75h16a.75.75 0 0 0 .75-.75V4a.75.75 0 0 0-.75-.75M3.96 15.252a.75.75 0 0 0-.519.246.75.75 0 0 0 .057 1.06l.012.01a.75.75 0 0 0 1.058-.056.75.75 0 0 0-.056-1.059l-.01-.012a.75.75 0 0 0-.541-.189M3.96 11.252a.75.75 0 0 0-.519.246.75.75 0 0 0 .057 1.06l.012.01a.75.75 0 0 0 1.058-.056.75.75 0 0 0-.056-1.059l-.01-.012a.75.75 0 0 0-.541-.189M3.96 7.252a.75.75 0 0 0-.519.246.75.75 0 0 0 .057 1.06l.012.01a.75.75 0 0 0 1.058-.056.75.75 0 0 0-.056-1.059l-.01-.012a.75.75 0 0 0-.541-.189M3.96 3.252a.75.75 0 0 0-.519.246.75.75 0 0 0 .057 1.06l.012.01a.75.75 0 0 0 1.058-.056.75.75 0 0 0-.056-1.059l-.01-.012a.75.75 0 0 0-.541-.189M16.502 3.443a.75.75 0 0 0-1.059.055.75.75 0 0 0 .055 1.059l.012.01a.75.75 0 0 0 1.058-.055.75.75 0 0 0-.054-1.059zM11.96 3.252a.75.75 0 0 0-.517.246.75.75 0 0 0 .055 1.059l.012.01a.75.75 0 0 0 1.058-.055.75.75 0 0 0-.054-1.059l-.012-.01a.75.75 0 0 0-.541-.191M7.96 3.252a.75.75 0 0 0-.519.246.75.75 0 0 0 .057 1.06l.012.01a.75.75 0 0 0 1.058-.056.75.75 0 0 0-.056-1.059l-.01-.012a.75.75 0 0 0-.541-.189" style="color:#000;fill:currentColor;stroke-linecap:round;stroke-linejoin:round;-inkscape-stroke:none"/>
</svg>
