<svg xmlns="http://www.w3.org/2000/svg" width="24" height="24" fill="none" stroke-width="1.5" viewBox="0 0 24 24">
    <path d="M4.01 3.25a.75.75 0 0 0-.75.75.75.75 0 0 0 .75.75h15.25V20a.75.75 0 0 0 .75.75.75.75 0 0 0 .75-.75V4a.75.75 0 0 0-.75-.75zM4.05 7.24a.75.75 0 0 0-.54.192l-.012.011a.75.75 0 0 0-.057 1.059.75.75 0 0 0 1.061.055l.01-.01a.75.75 0 0 0 .056-1.059.75.75 0 0 0-.517-.248M4.05 11.24a.75.75 0 0 0-.54.192l-.012.011a.75.75 0 0 0-.057 1.059.75.75 0 0 0 1.061.055l.01-.01a.75.75 0 0 0 .056-1.059.75.75 0 0 0-.517-.248M4.05 15.24a.75.75 0 0 0-.54.192l-.012.011a.75.75 0 0 0-.057 1.059.75.75 0 0 0 1.061.055l.01-.01a.75.75 0 0 0 .056-1.059.75.75 0 0 0-.517-.248M4.05 19.24a.75.75 0 0 0-.54.192l-.012.011a.75.75 0 0 0-.057 1.059.75.75 0 0 0 1.061.055l.01-.01a.75.75 0 0 0 .056-1.059.75.75 0 0 0-.517-.248M16.05 19.24a.75.75 0 0 0-.54.194l-.012.01a.75.75 0 0 0-.055 1.058.75.75 0 0 0 1.059.055l.012-.01a.75.75 0 0 0 .054-1.059.75.75 0 0 0-.517-.248M12.05 19.24a.75.75 0 0 0-.54.194l-.012.01a.75.75 0 0 0-.055 1.058.75.75 0 0 0 1.059.055l.012-.01a.75.75 0 0 0 .054-1.059.75.75 0 0 0-.517-.248M7.51 19.432l-.012.011a.75.75 0 0 0-.057 1.059.75.75 0 0 0 1.061.055l.01-.01a.75.75 0 0 0 .056-1.059.75.75 0 0 0-1.058-.056" style="color:#000;fill:currentColor;stroke-linecap:round;stroke-linejoin:round;-inkscape-stroke:none"/>
</svg>
