<svg xmlns="http://www.w3.org/2000/svg" width="24" height="24" fill="none" stroke-width="1.5" viewBox="0 0 24 24">
    <path d="M4.502 19.443a.75.75 0 0 0-1.06.055.75.75 0 0 0 .056 1.059l.012.011a.75.75 0 0 0 1.058-.056.75.75 0 0 0-.056-1.059zM3.96 15.252a.75.75 0 0 0-.519.246.75.75 0 0 0 .057 1.059l.012.011a.75.75 0 0 0 1.058-.056.75.75 0 0 0-.056-1.059l-.01-.01a.75.75 0 0 0-.541-.191M4.502 11.443a.75.75 0 0 0-1.06.055.75.75 0 0 0 .056 1.059l.012.011a.75.75 0 0 0 1.058-.056.75.75 0 0 0-.056-1.059zM3.96 7.252a.75.75 0 0 0-.519.246.75.75 0 0 0 .057 1.059l.012.011a.75.75 0 0 0 1.058-.056.75.75 0 0 0-.056-1.059l-.01-.01a.75.75 0 0 0-.541-.191M3.96 3.252a.75.75 0 0 0-.519.246.75.75 0 0 0 .057 1.059l.012.011a.75.75 0 0 0 1.058-.056.75.75 0 0 0-.056-1.059l-.01-.01a.75.75 0 0 0-.541-.191M16.502 3.443a.75.75 0 0 0-1.059.055.75.75 0 0 0 .055 1.059l.012.01a.75.75 0 0 0 1.058-.055.75.75 0 0 0-.054-1.059zM11.96 3.252a.75.75 0 0 0-.517.246.75.75 0 0 0 .055 1.059l.012.01a.75.75 0 0 0 1.058-.055.75.75 0 0 0-.054-1.059l-.012-.01a.75.75 0 0 0-.541-.191M11.96 11.252a.75.75 0 0 0-.517.246.75.75 0 0 0 .055 1.059l.012.01a.75.75 0 0 0 1.058-.055.75.75 0 0 0-.054-1.059l-.012-.01a.75.75 0 0 0-.541-.191M8.502 3.443a.75.75 0 0 0-1.06.055.75.75 0 0 0 .056 1.059l.012.011a.75.75 0 0 0 1.058-.056.75.75 0 0 0-.056-1.059ZM16.502 19.443a.75.75 0 0 0-1.059.055.75.75 0 0 0 .055 1.059l.012.01a.75.75 0 0 0 1.058-.055.75.75 0 0 0-.054-1.059zM11.96 19.252a.75.75 0 0 0-.517.246.75.75 0 0 0 .055 1.059l.012.01a.75.75 0 0 0 1.058-.055.75.75 0 0 0-.054-1.059l-.012-.01a.75.75 0 0 0-.541-.191M8.502 19.443a.75.75 0 0 0-1.06.055.75.75 0 0 0 .056 1.059l.012.011a.75.75 0 0 0 1.058-.056.75.75 0 0 0-.056-1.059zM20.01 3.25a.75.75 0 0 0-.75.75v16a.75.75 0 0 0 .75.75.75.75 0 0 0 .75-.75V4a.75.75 0 0 0-.75-.75" style="color:#000;fill:currentColor;stroke-linecap:round;stroke-linejoin:round;-inkscape-stroke:none"/>
</svg>
