<svg xmlns="http://www.w3.org/2000/svg" width="24" height="24" fill="none" stroke-width="1.5" viewBox="0 0 24 24">
    <path fill="currentColor" d="m2.695 7.185 9 4 .61-1.37-9-4zM12.75 21.5v-11h-1.5v11zm-.445-10.315 9-4-.61-1.37-9 4z"/>
    <path d="m11.451 1.924-8.4 3.732c-.486.216-.801.703-.801 1.235v10.218c0 .532.315 1.019.8 1.235l8.401 3.732v.002c.349.155.75.155 1.098 0v-.002l8.4-3.732c.486-.216.801-.703.801-1.235V6.891c0-.532-.315-1.019-.8-1.235l-8.401-3.732a1.36 1.36 0 0 0-1.098 0M12 3.32l8.25 3.668v10.024L12 20.68l-8.25-3.668V6.988Z" style="color:#000;fill:currentColor;stroke-linecap:round;stroke-linejoin:round;-inkscape-stroke:none"/>
    <path d="M7.805 3.814a.75.75 0 0 0-.99.381.75.75 0 0 0 .38.99l8.555 3.803V12.5a.75.75 0 0 0 .75.75.75.75 0 0 0 .75-.75V8.89c0-.53-.315-1.018-.8-1.234z" style="color:#000;fill:currentColor;stroke-linecap:round;stroke-linejoin:round;-inkscape-stroke:none"/>
</svg>
