<svg xmlns="http://www.w3.org/2000/svg" width="24" height="24" fill="none" stroke-width="1.5" viewBox="0 0 24 24">
    <path d="M13.422 2.25c-2.255 0-3.931.251-5.121 1.182-.995.777-1.4 2.058-1.533 3.607-.403-.099-.751-.247-1.22-.234-.406.011-.833.083-1.234.302-.4.22-.755.614-.921 1.11-.213.635-.177 1.351-.038 2.193.14.842.412 1.79.81 2.76.736 1.8 1.942 3.615 3.573 4.85V21a.75.75 0 0 0 .75.75h9.867a.75.75 0 0 0 .75-.75v-3.172c.684-1.245 1.645-4.007 1.645-8.283 0-2.828-.58-4.73-1.902-5.883S15.677 2.25 13.422 2.25m0 1.5c2.13 0 3.572.286 4.441 1.043.87.757 1.387 2.125 1.387 4.752 0 3.938-.939 6.513-1.406 7.432H8.779c-1.389-.984-2.537-2.688-3.228-4.375a11.7 11.7 0 0 1-.715-2.438c-.118-.71-.083-1.288-.022-1.47.054-.16.107-.208.221-.27s.31-.112.557-.12c.492-.013 1.148.152 1.523.301a.75.75 0 0 0 1.028-.697c0-1.801.353-2.725 1.082-3.295.728-.57 2.066-.863 4.197-.863M9.238 18.477h8.367v1.773H9.238Z" style="color:#000;fill:currentColor;stroke-linecap:round;stroke-linejoin:round;-inkscape-stroke:none"/>
    <path d="M7.39 7.158a.75.75 0 0 0-.529.223.75.75 0 0 0 .002 1.06c.525.523 1.678 1.309 3.27 1.309h4.933a.75.75 0 0 0 .75-.75.75.75 0 0 0-.75-.75h-4.933c-1.04 0-2.005-.668-2.211-.873a.75.75 0 0 0-.531-.219" style="color:#000;fill:currentColor;stroke-linecap:round;stroke-linejoin:round;-inkscape-stroke:none"/>
    <path d="M7.393 7.158a.75.75 0 0 0-.75.75c0 2.017.432 3.31 1.15 4.113.718.805 1.667 1.002 2.34 1.002a.75.75 0 0 0 .75-.75.75.75 0 0 0-.75-.75c-.424 0-.843-.076-1.22-.5-.379-.423-.77-1.313-.77-3.115a.75.75 0 0 0-.75-.75" style="color:#000;fill:currentColor;stroke-linecap:round;stroke-linejoin:round;-inkscape-stroke:none"/>
</svg>
