<svg xmlns="http://www.w3.org/2000/svg" width="24" height="24" fill="none" stroke-width="1.5" viewBox="0 0 24 24">
    <path d="M7 13.25A3.761 3.761 0 0 0 3.25 17 3.761 3.761 0 0 0 7 20.75c.436 0 .859-.075 1.25-.213a.75.75 0 0 0 .457-.957.75.75 0 0 0-.957-.457 2.241 2.241 0 0 1-.75.127A2.239 2.239 0 0 1 4.75 17c0-1.252.998-2.25 2.25-2.25a.75.75 0 0 0 .75-.75.75.75 0 0 0-.75-.75" style="color:#000;fill:currentColor;stroke-linecap:round;stroke-linejoin:round;-inkscape-stroke:none"/>
    <path d="M3.445 8.22a.75.75 0 0 0-.545.18 4.75 4.75 0 0 0 1.038 7.88.75.75 0 0 0 1.001-.35.75.75 0 0 0-.35-1A3.246 3.246 0 0 1 2.75 12c0-.99.437-1.866 1.129-2.463a.75.75 0 0 0 .078-1.058.75.75 0 0 0-.512-.258" style="color:#000;fill:currentColor;stroke-linecap:round;stroke-linejoin:round;-inkscape-stroke:none"/>
    <path d="M5.5 4.25A3.261 3.261 0 0 0 2.25 7.5c0 .664.202 1.289.547 1.805a.75.75 0 0 0 1.04.207.75.75 0 0 0 .206-1.041A1.729 1.729 0 0 1 3.75 7.5c0-.975.775-1.75 1.75-1.75.398 0 .756.13 1.049.35a.75.75 0 0 0 1.05-.149.75.75 0 0 0-.148-1.05A3.248 3.248 0 0 0 5.5 4.25" style="color:#000;fill:currentColor;stroke-linecap:round;stroke-linejoin:round;-inkscape-stroke:none"/>
    <path d="M9.5 1.25A3.261 3.261 0 0 0 6.25 4.5c0 .493.11.964.309 1.385a.75.75 0 0 0 1 .36.75.75 0 0 0 .357-.999A1.738 1.738 0 0 1 7.75 4.5c0-.975.775-1.75 1.75-1.75s1.75.775 1.75 1.75V20a.75.75 0 0 0 .75.75.75.75 0 0 0 .75-.75V4.5A3.261 3.261 0 0 0 9.5 1.25" style="color:#000;fill:currentColor;stroke-linecap:round;stroke-linejoin:round;-inkscape-stroke:none"/>
    <path d="M8 19.25a.75.75 0 0 0-.75.75c0 1.51 1.24 2.75 2.75 2.75s2.75-1.24 2.75-2.75a.75.75 0 0 0-.75-.75.75.75 0 0 0-.75.75c0 .7-.55 1.25-1.25 1.25S8.75 20.7 8.75 20a.75.75 0 0 0-.75-.75M12 6.25a.75.75 0 0 0-.75.75A3.761 3.761 0 0 0 15 10.75a.75.75 0 0 0 .75-.75.75.75 0 0 0-.75-.75A2.239 2.239 0 0 1 12.75 7a.75.75 0 0 0-.75-.75M20.555 8.22a.75.75 0 0 0-.512.259.75.75 0 0 0 .078 1.058A3.233 3.233 0 0 1 21.25 12c0 .574-.148 1.108-.406 1.574a.75.75 0 0 0 .293 1.02.75.75 0 0 0 1.02-.291c.378-.682.593-1.47.593-2.303a4.75 4.75 0 0 0-1.65-3.6.75.75 0 0 0-.545-.18" style="color:#000;fill:currentColor;stroke-linecap:round;stroke-linejoin:round;-inkscape-stroke:none"/>
    <path d="M18.5 4.25c-.728 0-1.408.243-1.951.65a.75.75 0 0 0-.149 1.051.75.75 0 0 0 1.051.149c.293-.22.651-.35 1.049-.35.975 0 1.75.775 1.75 1.75 0 .363-.107.693-.293.97a.75.75 0 0 0 .205 1.042.75.75 0 0 0 1.041-.207c.345-.516.547-1.14.547-1.805a3.261 3.261 0 0 0-3.25-3.25" style="color:#000;fill:currentColor;stroke-linecap:round;stroke-linejoin:round;-inkscape-stroke:none"/>
    <path d="M14.5 1.25a3.261 3.261 0 0 0-3.25 3.25.75.75 0 0 0 .75.75.75.75 0 0 0 .75-.75c0-.975.775-1.75 1.75-1.75s1.75.775 1.75 1.75c0 .27-.06.52-.166.746a.75.75 0 0 0 .357.998.75.75 0 0 0 1-.36c.199-.42.309-.891.309-1.384a3.261 3.261 0 0 0-3.25-3.25M12 19.25a.75.75 0 0 0-.75.75c0 1.51 1.24 2.75 2.75 2.75a.75.75 0 0 0 .75-.75.75.75 0 0 0-.75-.75c-.7 0-1.25-.55-1.25-1.25a.75.75 0 0 0-.75-.75M19.031 15.344a.75.75 0 0 0-1.02.293l-1.667 3A.75.75 0 0 0 17 19.75h2.725l-1.047 1.887a.75.75 0 0 0 .29 1.02.75.75 0 0 0 1.02-.294l1.668-3A.75.75 0 0 0 21 18.25h-2.725l1.047-1.887a.75.75 0 0 0-.29-1.02" style="color:#000;fill:currentColor;stroke-linecap:round;stroke-linejoin:round;-inkscape-stroke:none"/>
</svg>
