<svg xmlns="http://www.w3.org/2000/svg" width="24" height="24" fill="none" stroke-width="1.5" viewBox="0 0 24 24">
    <path d="M7 13.25A3.76 3.76 0 0 0 3.25 17 3.76 3.76 0 0 0 7 20.75c.436 0 .859-.075 1.25-.213a.75.75 0 0 0 .457-.957.75.75 0 0 0-.957-.457 2.2 2.2 0 0 1-.75.127A2.24 2.24 0 0 1 4.75 17c0-1.252.998-2.25 2.25-2.25a.75.75 0 0 0 .75-.75.75.75 0 0 0-.75-.75" style="color:#000;fill:currentColor;stroke-linecap:round;stroke-linejoin:round;-inkscape-stroke:none"/>
    <path d="M3.445 8.22a.75.75 0 0 0-.545.18 4.75 4.75 0 0 0 1.038 7.88.75.75 0 0 0 1.001-.35.75.75 0 0 0-.35-1A3.25 3.25 0 0 1 2.75 12c0-.99.437-1.866 1.129-2.463a.75.75 0 0 0 .078-1.058.75.75 0 0 0-.512-.258" style="color:#000;fill:currentColor;stroke-linecap:round;stroke-linejoin:round;-inkscape-stroke:none"/>
    <path d="M5.5 4.25A3.26 3.26 0 0 0 2.25 7.5c0 .664.202 1.289.547 1.805a.75.75 0 0 0 1.04.207.75.75 0 0 0 .206-1.041A1.73 1.73 0 0 1 3.75 7.5c0-.975.775-1.75 1.75-1.75.398 0 .756.13 1.049.35a.75.75 0 0 0 1.05-.149.75.75 0 0 0-.148-1.05A3.25 3.25 0 0 0 5.5 4.25" style="color:#000;fill:currentColor;stroke-linecap:round;stroke-linejoin:round;-inkscape-stroke:none"/>
    <path d="M9.5 1.25A3.26 3.26 0 0 0 6.25 4.5c0 .493.11.964.309 1.385a.75.75 0 0 0 1 .36.75.75 0 0 0 .357-.999A1.7 1.7 0 0 1 7.75 4.5c0-.975.775-1.75 1.75-1.75s1.75.775 1.75 1.75a.75.75 0 0 0 .75.75.75.75 0 0 0 .75-.75A3.26 3.26 0 0 0 9.5 1.25M8 19.25a.75.75 0 0 0-.75.75c0 1.51 1.24 2.75 2.75 2.75s2.75-1.24 2.75-2.75a.75.75 0 0 0-.75-.75.75.75 0 0 0-.75.75c0 .7-.55 1.25-1.25 1.25S8.75 20.7 8.75 20a.75.75 0 0 0-.75-.75M17 13.25a.75.75 0 0 0-.75.75.75.75 0 0 0 .75.75c1.252 0 2.25.998 2.25 2.25s-.998 2.25-2.25 2.25q-.398-.001-.75-.127a.75.75 0 0 0-.957.457.75.75 0 0 0 .457.957c.391.138.814.213 1.25.213A3.76 3.76 0 0 0 20.75 17 3.76 3.76 0 0 0 17 13.25" style="color:#000;fill:currentColor;stroke-linecap:round;stroke-linejoin:round;-inkscape-stroke:none"/>
    <path d="M20.555 8.22a.75.75 0 0 0-.512.259.75.75 0 0 0 .078 1.058A3.23 3.23 0 0 1 21.25 12a3.25 3.25 0 0 1-1.84 2.93.75.75 0 0 0-.35 1 .75.75 0 0 0 1.003.35A4.754 4.754 0 0 0 21.1 8.4a.75.75 0 0 0-.545-.18" style="color:#000;fill:currentColor;stroke-linecap:round;stroke-linejoin:round;-inkscape-stroke:none"/>
    <path d="M18.5 4.25c-.728 0-1.408.243-1.951.65a.75.75 0 0 0-.149 1.051.75.75 0 0 0 1.051.149c.293-.22.651-.35 1.049-.35.975 0 1.75.775 1.75 1.75 0 .363-.107.693-.293.97a.75.75 0 0 0 .205 1.042.75.75 0 0 0 1.041-.207c.345-.516.547-1.14.547-1.805a3.26 3.26 0 0 0-3.25-3.25" style="color:#000;fill:currentColor;stroke-linecap:round;stroke-linejoin:round;-inkscape-stroke:none"/>
    <path d="M14.5 1.25a3.26 3.26 0 0 0-3.25 3.25.75.75 0 0 0 .75.75.75.75 0 0 0 .75-.75c0-.975.775-1.75 1.75-1.75s1.75.775 1.75 1.75c0 .27-.06.52-.166.746a.75.75 0 0 0 .357.998.75.75 0 0 0 1-.36c.199-.42.309-.891.309-1.384a3.26 3.26 0 0 0-3.25-3.25M12 19.25a.75.75 0 0 0-.75.75c0 1.51 1.24 2.75 2.75 2.75s2.75-1.24 2.75-2.75a.75.75 0 0 0-.75-.75.75.75 0 0 0-.75.75c0 .7-.55 1.25-1.25 1.25s-1.25-.55-1.25-1.25a.75.75 0 0 0-.75-.75M12 7.25a.75.75 0 0 0-.75.75v4a.75.75 0 0 0 .75.75.75.75 0 0 0 .75-.75V8a.75.75 0 0 0-.75-.75M11.97 15.25a.75.75 0 0 0-.517.246l-.01.012a.75.75 0 0 0 .055 1.058.75.75 0 0 0 1.059-.054l.01-.012a.75.75 0 0 0-.055-1.059.75.75 0 0 0-.541-.191" style="color:#000;fill:currentColor;stroke-linecap:round;stroke-linejoin:round;-inkscape-stroke:none"/>
</svg>
