<svg xmlns="http://www.w3.org/2000/svg" width="24" height="24" fill="none" stroke-width="1.5" viewBox="0 0 24 24">
    <path d="M9.5 3.25c-1.721 0-2.875.312-3.625.965-.75.652-.922 1.614-.805 2.396.202 1.345.946 2.327 1.18 2.621V20a.75.75 0 0 0 .75.75h11c1.51 0 2.75-1.24 2.75-2.75V9.229c.237-.298.984-1.285 1.121-2.655.08-.797-.176-1.76-.992-2.386-.816-.628-2.04-.938-3.879-.938Zm0 1.5H17c1.66 0 2.562.315 2.965.625s.46.598.414 1.05c-.09.906-.965 2.106-.965 2.106A.75.75 0 0 0 19.25 9v9c0 .7-.55 1.25-1.25 1.25H7.75V9a.75.75 0 0 0-.164-.469S6.695 7.324 6.555 6.39c-.07-.468-.023-.756.304-1.041.328-.285 1.112-.598 2.641-.598" style="color:#000;fill:currentColor;stroke-linecap:round;stroke-linejoin:round;-inkscape-stroke:none"/>
    <path d="M6.5 3.25c-1.721 0-2.875.312-3.625.965-.75.652-.922 1.614-.805 2.396.202 1.345.946 2.327 1.18 2.621V18c0 1.51 1.24 2.75 2.75 2.75h1a.75.75 0 0 0 .75-.75.75.75 0 0 0-.75-.75H6c-.7 0-1.25-.55-1.25-1.25V9a.75.75 0 0 0-.164-.469S3.695 7.324 3.555 6.39c-.07-.468-.023-.756.304-1.041.328-.285 1.112-.598 2.641-.598H10a.75.75 0 0 0 .75-.75.75.75 0 0 0-.75-.75Z" style="color:#000;fill:currentColor;stroke-linecap:round;stroke-linejoin:round;-inkscape-stroke:none"/>
</svg>
