<svg xmlns="http://www.w3.org/2000/svg" width="24" height="24" fill="none" stroke-width="1.5" viewBox="0 0 24 24">
    <path d="M3 11.25a.75.75 0 0 0-.75.75c0 2.125.519 4.515 1.89 6.436 1.372 1.92 3.652 3.314 6.86 3.314a.75.75 0 0 0 .75-.75.75.75 0 0 0-.75-.75c-2.792 0-4.512-1.106-5.64-2.686S3.75 13.875 3.75 12a.75.75 0 0 0-.75-.75M10 5.25a.75.75 0 0 0-.75.75c0 2.125.519 4.515 1.89 6.436 1.372 1.92 3.652 3.314 6.86 3.314a.75.75 0 0 0 .75-.75.75.75 0 0 0-.75-.75c-2.792 0-4.512-1.106-5.64-2.686S10.75 7.875 10.75 6a.75.75 0 0 0-.75-.75M3 5.75a.75.75 0 0 0-.75.75v2a.75.75 0 0 0 .75.75.75.75 0 0 0 .75-.75v-2A.75.75 0 0 0 3 5.75M10 .25a.75.75 0 0 0-.75.75v2a.75.75 0 0 0 .75.75.75.75 0 0 0 .75-.75V1A.75.75 0 0 0 10 .25" style="color:#000;fill:currentColor;stroke-linecap:round;stroke-linejoin:round;-inkscape-stroke:none"/>
    <path d="M10.057 5.252a.75.75 0 0 0-.545.178l-7 6a.75.75 0 0 0-.082 1.058.75.75 0 0 0 1.058.082l7-6a.75.75 0 0 0 .082-1.058.75.75 0 0 0-.513-.26M18.057 14.252a.75.75 0 0 0-.545.178l-7 6a.75.75 0 0 0-.082 1.058.75.75 0 0 0 1.058.082l7-6a.75.75 0 0 0 .082-1.058.75.75 0 0 0-.513-.26M14.5 20.25a.75.75 0 0 0-.75.75.75.75 0 0 0 .75.75h2a.75.75 0 0 0 .75-.75.75.75 0 0 0-.75-.75ZM21 14.25a.75.75 0 0 0-.75.75.75.75 0 0 0 .75.75h2a.75.75 0 0 0 .75-.75.75.75 0 0 0-.75-.75Z" style="color:#000;fill:currentColor;stroke-linecap:round;stroke-linejoin:round;-inkscape-stroke:none"/>
</svg>
