<svg xmlns="http://www.w3.org/2000/svg" width="24" height="24" fill="none" stroke-width="1.5" viewBox="0 0 24 24">
    <path d="m12 6.014-.486.416-1.346 1.146-2.4.192-.192 2.4L6.014 12l1.562 1.832.192 2.4 2.4.192L12 17.986l1.832-1.562 2.4-.192.192-2.4L17.986 12l-1.562-1.832-.192-2.4-2.4-.192Zm0 1.97 1.229 1.05 1.609.128.129 1.61L16.014 12l-1.047 1.229-.13 1.609-1.608.129L12 16.014l-1.229-1.047-1.609-.13-.129-1.608L7.986 12l1.047-1.229.13-1.609 1.608-.129Z" style="color:#000;fill:currentColor;-inkscape-stroke:none"/>
    <path fill="currentColor" d="M10.47 15.696 12 17V7l-1.53 1.304-2.006.16-.16 2.005L7 12l1.304 1.53.16 2.006z"/>
    <path d="M3.6 2.25A1.36 1.36 0 0 0 2.25 3.6v16.8c0 .737.613 1.35 1.35 1.35h16.8a1.36 1.36 0 0 0 1.35-1.35V3.6a1.36 1.36 0 0 0-1.35-1.35Zm.15 1.5h16.5v16.5H3.75Z" style="color:#000;fill:currentColor;stroke-linecap:round;stroke-linejoin:round;-inkscape-stroke:none"/>
</svg>
