<svg xmlns="http://www.w3.org/2000/svg" width="24" height="24" fill="none" stroke-width="1.5" viewBox="0 0 24 24">
    <path d="M4 2.25C2.49 2.25 1.25 3.49 1.25 5v14c0 1.51 1.24 2.75 2.75 2.75h8a.75.75 0 0 0 .75-.75.75.75 0 0 0-.75-.75H4c-.7 0-1.25-.55-1.25-1.25V5c0-.7.55-1.25 1.25-1.25h16c.7 0 1.25.55 1.25 1.25v7a.75.75 0 0 0 .75.75.75.75 0 0 0 .75-.75V5c0-1.51-1.24-2.75-2.75-2.75Z" style="color:#000;fill:currentColor;stroke-linecap:round;-inkscape-stroke:none"/>
    <path d="M2 6.25a.75.75 0 0 0-.75.75.75.75 0 0 0 .75.75h20a.75.75 0 0 0 .75-.75.75.75 0 0 0-.75-.75ZM4.97 4.25a.75.75 0 0 0-.517.248l-.01.01a.75.75 0 0 0 .055 1.06.75.75 0 0 0 1.059-.056l.011-.012a.75.75 0 0 0-.056-1.059.75.75 0 0 0-.541-.191M7.97 4.25a.75.75 0 0 0-.517.248l-.01.01a.75.75 0 0 0 .055 1.06.75.75 0 0 0 1.059-.056l.011-.012a.75.75 0 0 0-.056-1.059.75.75 0 0 0-.541-.191M10.97 4.25a.75.75 0 0 0-.517.248l-.01.01a.75.75 0 0 0 .055 1.06.75.75 0 0 0 1.059-.056l.011-.012a.75.75 0 0 0-.056-1.059.75.75 0 0 0-.541-.191" style="color:#000;fill:currentColor;stroke-linecap:round;stroke-linejoin:round;-inkscape-stroke:none"/>
    <path d="m18 13.014-.486.416-1.04.884-2 .16-.16 2-1.3 1.526 1.3 1.525.16 2 2 .16L18 22.987l1.525-1.3 2-.16.16-2L22.987 18l-1.3-1.525-.16-2-2-.16zm0 1.97.924.787 1.207.098.098 1.207.785.924-.785.924-.098 1.207-1.207.098-.924.785-.924-.785-1.207-.098-.098-1.207-.785-.924.785-.924.098-1.207 1.207-.098z" style="color:#000;fill:currentColor;-inkscape-stroke:none"/>
    <path fill="currentColor" d="M16.775 20.956 18 22v-8l-1.225 1.044-1.603.128-.128 1.603L14 18l1.044 1.225.128 1.603z"/>
</svg>
