<svg xmlns="http://www.w3.org/2000/svg" width="24" height="24" fill="none" stroke-width="1.5" viewBox="0 0 24 24">
    <path d="M12 2.25c-2.194 0-4.16 1.151-5.541 2.926C5.079 6.95 4.25 9.357 4.25 12s.829 5.05 2.209 6.824S9.806 21.75 12 21.75s4.16-1.151 5.541-2.926c1.38-1.774 2.209-4.181 2.209-6.824s-.829-5.05-2.209-6.824S14.194 2.25 12 2.25m0 1.5c1.672 0 3.204.863 4.357 2.346C17.511 7.578 18.25 9.672 18.25 12s-.74 4.422-1.893 5.904S13.672 20.25 12 20.25s-3.204-.863-4.357-2.346C6.489 16.422 5.75 14.328 5.75 12s.74-4.422 1.893-5.904S10.328 3.75 12 3.75" style="fill:currentColor;stroke-linecap:round;stroke-linejoin:round"/>
    <path d="M18 16.75a.75.75 0 0 0-.531.219.75.75 0 0 0 0 1.062l2 2a.75.75 0 0 0 1.062 0 .75.75 0 0 0 0-1.062l-2-2A.75.75 0 0 0 18 16.75M21.236 7.79a.75.75 0 0 0-.572.04l-2 1a.75.75 0 0 0-.334 1.006.75.75 0 0 0 1.006.334l2-1a.75.75 0 0 0 .334-1.006.75.75 0 0 0-.434-.375M2.764 7.79a.75.75 0 0 0-.434.374.75.75 0 0 0 .334 1.006l2 1a.75.75 0 0 0 1.006-.334.75.75 0 0 0-.334-1.006l-2-1a.75.75 0 0 0-.572-.04" style="fill:currentColor;stroke-linecap:round;stroke-linejoin:round"/>
    <path d="M6.236 7.29a.75.75 0 0 0-.947.474.75.75 0 0 0 .475.947s2.63.798 5.486.95V21a.75.75 0 0 0 .75.75.75.75 0 0 0 .75-.75V9.66c2.855-.15 5.486-.95 5.486-.95a.75.75 0 0 0 .475-.946.75.75 0 0 0-.947-.475s-2.93.961-5.764.961-5.764-.96-5.764-.96M2 13.25a.75.75 0 0 0-.75.75.75.75 0 0 0 .75.75h3a.75.75 0 0 0 .75-.75.75.75 0 0 0-.75-.75ZM19 13.25a.75.75 0 0 0-.75.75.75.75 0 0 0 .75.75h3a.75.75 0 0 0 .75-.75.75.75 0 0 0-.75-.75ZM6 16.75a.75.75 0 0 0-.531.219l-2 2a.75.75 0 0 0 0 1.062.75.75 0 0 0 1.062 0l2-2a.75.75 0 0 0 0-1.062A.75.75 0 0 0 6 16.75" style="fill:currentColor;stroke-linecap:round;stroke-linejoin:round"/>
</svg>
