<svg xmlns="http://www.w3.org/2000/svg" width="24" height="24" fill="none" stroke-width="1.5" viewBox="0 0 24 24">
    <path d="M15.97 15.25a.75.75 0 0 0-.517.246l-.01.012a.75.75 0 0 0 .055 1.058.75.75 0 0 0 1.059-.054l.01-.012a.75.75 0 0 0-.055-1.059.75.75 0 0 0-.541-.191M6.512 15.441a.75.75 0 0 0-1.059.055l-.01.012a.75.75 0 0 0 .055 1.058.75.75 0 0 0 1.059-.054l.01-.012a.75.75 0 0 0-.055-1.059M18 1.25a.75.75 0 0 0-.75.75v6a.75.75 0 0 0 .75.75h1.25V22a.75.75 0 0 0 .75.75.75.75 0 0 0 .75-.75V8.75H22a.75.75 0 0 0 .75-.75V2a.75.75 0 0 0-.75-.75Zm.75 1.5h2.5v4.5h-2.5Z" style="color:#000;fill:currentColor;stroke-linecap:round;stroke-linejoin:round;-inkscape-stroke:none"/>
    <path d="M2.6 11.25a1.36 1.36 0 0 0-1.35 1.35v6.8c0 .737.613 1.35 1.35 1.35H16a.75.75 0 0 0 .75-.75.75.75 0 0 0-.75-.75H2.75v-6.5H16a.75.75 0 0 0 .75-.75.75.75 0 0 0-.75-.75ZM6 1.25A4.76 4.76 0 0 0 1.25 6v2a.75.75 0 0 0 .75.75.75.75 0 0 0 .75-.75V6A3.24 3.24 0 0 1 6 2.75h8a.75.75 0 0 0 .75-.75.75.75 0 0 0-.75-.75Zm0 6a.75.75 0 0 0-.75.75.75.75 0 0 0 .75.75h8a.75.75 0 0 0 .75-.75.75.75 0 0 0-.75-.75Z" style="color:#000;fill:currentColor;stroke-linecap:round;stroke-linejoin:round;-inkscape-stroke:none"/>
    <path d="M3.5 19.25a.75.75 0 0 0-.75.75v1.9c0 .737.613 1.35 1.35 1.35h2.8a1.36 1.36 0 0 0 1.35-1.35V20a.75.75 0 0 0-.75-.75.75.75 0 0 0-.75.75v1.75h-2.5V20a.75.75 0 0 0-.75-.75M14.5 19.25a.75.75 0 0 0-.75.75v1.9c0 .737.613 1.35 1.35 1.35h.9a.75.75 0 0 0 .75-.75.75.75 0 0 0-.75-.75h-.75V20a.75.75 0 0 0-.75-.75" style="color:#000;fill:currentColor;stroke-linecap:round;-inkscape-stroke:none"/>
</svg>
