<svg xmlns="http://www.w3.org/2000/svg" width="24" height="24" fill="none" stroke-width="1.5" viewBox="0 0 24 24">
    <path d="M7.512 15.441a.75.75 0 0 0-1.059.055l-.01.012a.75.75 0 0 0 .055 1.058.75.75 0 0 0 1.059-.054l.01-.012a.75.75 0 0 0-.055-1.059" style="color:#000;fill:currentColor;stroke-linecap:round;stroke-linejoin:round;-inkscape-stroke:none"/>
    <path d="M3 11.25a.75.75 0 0 0-.75.75v7c0 .958.792 1.75 1.75 1.75h9a.75.75 0 0 0 .75-.75.75.75 0 0 0-.75-.75H4a.24.24 0 0 1-.25-.25v-6.25H21a.75.75 0 0 0 .75-.75.75.75 0 0 0-.75-.75ZM19.5 17.441c-2.327 2.086-3.22 5.35-3.22 5.35a.75.75 0 0 0 .511.93.75.75 0 0 0 .93-.512s.906-2.972 2.779-4.65a.75.75 0 0 0 .059-1.059.75.75 0 0 0-1.059-.059" style="color:#000;fill:currentColor;stroke-linecap:round;stroke-linejoin:round;-inkscape-stroke:none"/>
    <path d="m21.979 14.285-2.985.281a3.823 3.823 0 0 0-3.437 4.17 3.854 3.854 0 0 0 4.181 3.448l.135-.012a3.958 3.958 0 0 0 3.559-4.318l-.256-2.58a1.111 1.111 0 0 0-1.197-.989m-.256 1.531.215 2.186a2.43 2.43 0 0 1-2.206 2.676l-.134.013a2.335 2.335 0 0 1-2.55-2.101 2.296 2.296 0 0 1 2.085-2.53zM7 1.25A4.761 4.761 0 0 0 2.25 6v2a.75.75 0 0 0 .75.75.75.75 0 0 0 .75-.75V6A3.239 3.239 0 0 1 7 2.75h10A3.239 3.239 0 0 1 20.25 6v2a.75.75 0 0 0 .75.75.75.75 0 0 0 .75-.75V6A4.761 4.761 0 0 0 17 1.25Z" style="color:#000;fill:currentColor;stroke-linecap:round;stroke-linejoin:round;-inkscape-stroke:none"/>
    <path d="M7 7.25a.75.75 0 0 0-.75.75.75.75 0 0 0 .75.75h10a.75.75 0 0 0 .75-.75.75.75 0 0 0-.75-.75Z" style="color:#000;fill:currentColor;stroke-linecap:round;stroke-linejoin:round;-inkscape-stroke:none"/>
    <path d="M4.5 19.25a.75.75 0 0 0-.75.75v1.9c0 .737.613 1.35 1.35 1.35h2.8a1.36 1.36 0 0 0 1.35-1.35V20a.75.75 0 0 0-.75-.75.75.75 0 0 0-.75.75v1.75h-2.5V20a.75.75 0 0 0-.75-.75" style="color:#000;fill:currentColor;stroke-linecap:round;-inkscape-stroke:none"/>
</svg>
