<svg xmlns="http://www.w3.org/2000/svg" width="24" height="24" fill="none" stroke-width="1.5" viewBox="0 0 24 24">
    <path d="M3.6 2.25A1.36 1.36 0 0 0 2.25 3.6v16.8c0 .737.613 1.35 1.35 1.35h16.8a1.36 1.36 0 0 0 1.35-1.35V3.6a1.36 1.36 0 0 0-1.35-1.35Zm.15 1.5h16.5v16.5H3.75Z" style="color:#000;fill:currentColor;stroke-linecap:round;stroke-linejoin:round;-inkscape-stroke:none"/>
    <path d="M11.8 7.25c-1.399 0-2.55 1.151-2.55 2.55v4.4c0 1.399 1.151 2.55 2.55 2.55h.4c1.399 0 2.55-1.151 2.55-2.55V14a.75.75 0 0 0-.75-.75.75.75 0 0 0-.75.75v.2a1.04 1.04 0 0 1-1.05 1.05h-.4a1.04 1.04 0 0 1-1.05-1.05V9.8c0-.588.462-1.05 1.05-1.05h.4c.588 0 1.05.462 1.05 1.05v.2a.75.75 0 0 0 .75.75.75.75 0 0 0 .75-.75v-.2c0-1.399-1.151-2.55-2.55-2.55Z" style="color:#000;fill:currentColor;stroke-linecap:round;stroke-linejoin:round;-inkscape-stroke:none"/>
</svg>
