<svg xmlns="http://www.w3.org/2000/svg" width="24" height="24" fill="none" stroke-width="1.5" viewBox="0 0 24 24">
    <path d="M15 1.25a.75.75 0 0 0-.75.75v1.25H10.5a.75.75 0 0 0-.75.75.75.75 0 0 0 .75.75h3.75V6a.75.75 0 0 0 .75.75.75.75 0 0 0 .75-.75V2a.75.75 0 0 0-.75-.75m-12 8a.75.75 0 0 0-.75.75v9c0 1.51 1.24 2.75 2.75 2.75h8a.75.75 0 0 0 .75-.75.75.75 0 0 0-.75-.75H5c-.7 0-1.25-.55-1.25-1.25v-8.25h16.5V13a.75.75 0 0 0 .75.75.75.75 0 0 0 .75-.75v-3a.75.75 0 0 0-.75-.75Z" style="color:#000;fill:currentColor;stroke-linecap:round;stroke-linejoin:round;-inkscape-stroke:none"/>
    <path d="M5 3.25C3.49 3.25 2.25 4.49 2.25 6v4a.75.75 0 0 0 .75.75.75.75 0 0 0 .75-.75V6c0-.7.55-1.25 1.25-1.25h2A.75.75 0 0 0 7.75 4 .75.75 0 0 0 7 3.25Z" style="color:#000;fill:currentColor;stroke-linecap:round;stroke-linejoin:round;-inkscape-stroke:none"/>
    <path d="M7 1.25a.75.75 0 0 0-.75.75v4a.75.75 0 0 0 .75.75.75.75 0 0 0 .75-.75V2A.75.75 0 0 0 7 1.25M18.5 3.25a.75.75 0 0 0-.75.75.75.75 0 0 0 .75.75h.5c.7 0 1.25.55 1.25 1.25v4a.75.75 0 0 0 .75.75.75.75 0 0 0 .75-.75V6c0-1.51-1.24-2.75-2.75-2.75ZM17.992 14.25a.75.75 0 0 0-.75.75v2.25h-2.25a.75.75 0 0 0-.75.75.75.75 0 0 0 .75.75h2.25V21a.75.75 0 0 0 .75.75.75.75 0 0 0 .75-.75v-2.25H21a.75.75 0 0 0 .75-.75.75.75 0 0 0-.75-.75h-2.258V15a.75.75 0 0 0-.75-.75" style="color:#000;fill:currentColor;stroke-linecap:round;stroke-linejoin:round;-inkscape-stroke:none"/>
</svg>
