<svg xmlns="http://www.w3.org/2000/svg" width="24" height="24" fill="none" stroke-width="1.5" viewBox="0 0 24 24">
    <path d="M15 1.25a.75.75 0 0 0-.75.75v1.25H10.5a.75.75 0 0 0-.75.75.75.75 0 0 0 .75.75h3.75V6a.75.75 0 0 0 .75.75.75.75 0 0 0 .75-.75V2a.75.75 0 0 0-.75-.75m-12 8a.75.75 0 0 0-.75.75v9c0 1.51 1.24 2.75 2.75 2.75h5a.75.75 0 0 0 .75-.75.75.75 0 0 0-.75-.75H5c-.7 0-1.25-.55-1.25-1.25v-8.25H21a.75.75 0 0 0 .75-.75.75.75 0 0 0-.75-.75Z" style="color:#000;fill:currentColor;stroke-linecap:round;stroke-linejoin:round;-inkscape-stroke:none"/>
    <path d="M5 3.25C3.49 3.25 2.25 4.49 2.25 6v4a.75.75 0 0 0 .75.75.75.75 0 0 0 .75-.75V6c0-.7.55-1.25 1.25-1.25h2A.75.75 0 0 0 7.75 4 .75.75 0 0 0 7 3.25Z" style="color:#000;fill:currentColor;stroke-linecap:round;stroke-linejoin:round;-inkscape-stroke:none"/>
    <path d="M7 1.25a.75.75 0 0 0-.75.75v4a.75.75 0 0 0 .75.75.75.75 0 0 0 .75-.75V2A.75.75 0 0 0 7 1.25M18.5 3.25a.75.75 0 0 0-.75.75.75.75 0 0 0 .75.75h.5c.7 0 1.25.55 1.25 1.25v4a.75.75 0 0 0 .75.75.75.75 0 0 0 .75-.75V6c0-1.51-1.24-2.75-2.75-2.75ZM17.99 13.25c-2.115 0-3.883 1.506-4.51 3.527a.75.75 0 0 0 .495.94.75.75 0 0 0 .94-.494c.454-1.47 1.674-2.473 3.075-2.473 1.311 0 2.46.873 2.979 2.191a.75.75 0 0 0 .972.424.75.75 0 0 0 .424-.972c-.718-1.822-2.397-3.143-4.375-3.143" style="color:#000;fill:currentColor;stroke-linecap:round;stroke-linejoin:round;-inkscape-stroke:none"/>
    <path d="M22 13.799a.75.75 0 0 0-.75.75v1.472h-1.256a.75.75 0 0 0-.75.75.75.75 0 0 0 .75.75H21.4a1.36 1.36 0 0 0 1.35-1.35V14.55a.75.75 0 0 0-.75-.75M22.025 18.283a.75.75 0 0 0-.937.494c-.455 1.47-1.677 2.473-3.078 2.473-1.311 0-2.46-.873-2.979-2.191a.75.75 0 0 0-.972-.424.75.75 0 0 0-.422.972c.718 1.822 2.395 3.143 4.373 3.143 2.115 0 3.883-1.506 4.51-3.527a.75.75 0 0 0-.495-.94" style="color:#000;fill:currentColor;stroke-linecap:round;stroke-linejoin:round;-inkscape-stroke:none"/>
    <path d="M14.6 18.479a1.36 1.36 0 0 0-1.35 1.35v1.622a.75.75 0 0 0 .75.75.75.75 0 0 0 .75-.75V19.98h1.256a.75.75 0 0 0 .75-.75.75.75 0 0 0-.75-.75z" style="color:#000;fill:currentColor;stroke-linecap:round;stroke-linejoin:round;-inkscape-stroke:none"/>
</svg>
