<svg xmlns="http://www.w3.org/2000/svg" width="24" height="24" fill="none" stroke-width="1.5" viewBox="0 0 24 24">
    <path d="M5 13.25a.75.75 0 0 0-.75.75v2a.75.75 0 0 0 .75.75.75.75 0 0 0 .75-.75v-2a.75.75 0 0 0-.75-.75M12 18.25a.75.75 0 0 0-.75.75v2a.75.75 0 0 0 .75.75.75.75 0 0 0 .75-.75v-2a.75.75 0 0 0-.75-.75M19 10.25a.75.75 0 0 0-.75.75v2a.75.75 0 0 0 .75.75.75.75 0 0 0 .75-.75v-2a.75.75 0 0 0-.75-.75M5 5.25a.75.75 0 0 0-.75.75v2a.75.75 0 0 0 .75.75.75.75 0 0 0 .75-.75V6A.75.75 0 0 0 5 5.25M12 10.25a.75.75 0 0 0-.75.75v2a.75.75 0 0 0 .75.75.75.75 0 0 0 .75-.75v-2a.75.75 0 0 0-.75-.75M19 2.25a.75.75 0 0 0-.75.75v2a.75.75 0 0 0 .75.75.75.75 0 0 0 .75-.75V3a.75.75 0 0 0-.75-.75" style="color:#000;fill:currentColor;stroke-linecap:round;stroke-linejoin:round;-inkscape-stroke:none"/>
    <path d="M3.6 7.25A1.36 1.36 0 0 0 2.25 8.6v4.8c0 .737.613 1.35 1.35 1.35h2.8a1.36 1.36 0 0 0 1.35-1.35V8.6A1.36 1.36 0 0 0 6.4 7.25Zm.15 1.5h2.5v4.5h-2.5zM10.6 12.25a1.36 1.36 0 0 0-1.35 1.35v4.8c0 .737.613 1.35 1.35 1.35h2.8a1.36 1.36 0 0 0 1.35-1.35v-4.8a1.36 1.36 0 0 0-1.35-1.35Zm.15 1.5h2.5v4.5h-2.5zM17.6 4.25a1.36 1.36 0 0 0-1.35 1.35v4.8c0 .737.613 1.35 1.35 1.35h2.8a1.36 1.36 0 0 0 1.35-1.35V5.6a1.36 1.36 0 0 0-1.35-1.35Zm.15 1.5h2.5v4.5h-2.5z" style="color:#000;fill:currentColor;stroke-linecap:round;stroke-linejoin:round;-inkscape-stroke:none"/>
</svg>
