<svg xmlns="http://www.w3.org/2000/svg" width="24" height="24" fill="none" stroke-width="1.5" viewBox="0 0 24 24">
    <path d="M5 6.25C3.49 6.25 2.25 7.49 2.25 9v9c0 1.51 1.24 2.75 2.75 2.75h14c1.51 0 2.75-1.24 2.75-2.75V9c0-1.51-1.24-2.75-2.75-2.75Zm0 1.5h14c.7 0 1.25.55 1.25 1.25v9c0 .7-.55 1.25-1.25 1.25H5c-.7 0-1.25-.55-1.25-1.25V9c0-.7.55-1.25 1.25-1.25" style="color:#000;fill:currentColor;-inkscape-stroke:none"/>
    <path d="M7.6 2.25A1.36 1.36 0 0 0 6.25 3.6V7h1.5V3.75h8.5V7h1.5V3.6a1.36 1.36 0 0 0-1.35-1.35Z" style="color:#000;fill:currentColor;-inkscape-stroke:none"/>
    <path d="M9.25 3v4h1.5V3ZM11.25 3v4h1.5V3Z" style="color:#000;fill:currentColor;-inkscape-stroke:none"/>
    <circle cx="16.5" cy="13.5" r="1.25" style="fill:#000;stroke-width:2.27213;stroke-linecap:round;stroke-linejoin:round"/>
</svg>
