<svg xmlns="http://www.w3.org/2000/svg" width="24" height="24" fill="none" stroke-width="1.5" viewBox="0 0 24 24">
    <path d="M2.035 2.781a.75.75 0 0 0-.504.934l.75 2.5 3 10A.75.75 0 0 0 6 16.75h13a.75.75 0 0 0 .719-.535l3-10A.75.75 0 0 0 22 5.25H3.559l-.59-1.965a.75.75 0 0 0-.934-.504M4.008 6.75h16.984l-2.55 8.5H6.558Z" style="color:#000;fill:currentColor;stroke-linecap:round;stroke-linejoin:round;-inkscape-stroke:none"/>
    <path d="M11.992 8.25a.75.75 0 0 0-.75.75v1.25h-1.25a.75.75 0 0 0-.75.75.75.75 0 0 0 .75.75h1.25V13a.75.75 0 0 0 .75.75.75.75 0 0 0 .75-.75v-1.25h1.25a.75.75 0 0 0 .75-.75.75.75 0 0 0-.75-.75h-1.25V9a.75.75 0 0 0-.75-.75M8 18.75a.75.75 0 0 0-.75.75 2.261 2.261 0 0 0 2.25 2.25 2.261 2.261 0 0 0 2.25-2.25.75.75 0 0 0-.75-.75.75.75 0 0 0-.75.75c0 .423-.327.75-.75.75a.739.739 0 0 1-.75-.75.75.75 0 0 0-.75-.75M14 18.75a.75.75 0 0 0-.75.75 2.261 2.261 0 0 0 2.25 2.25 2.261 2.261 0 0 0 2.25-2.25.75.75 0 0 0-.75-.75.75.75 0 0 0-.75.75c0 .423-.327.75-.75.75a.739.739 0 0 1-.75-.75.75.75 0 0 0-.75-.75" style="color:#000;fill:currentColor;stroke-linecap:round;stroke-linejoin:round;-inkscape-stroke:none"/>
</svg>
