<svg xmlns="http://www.w3.org/2000/svg" width="24" height="24" fill="none" stroke-width="1.5" viewBox="0 0 24 24">
    <path d="M19.5 22a1.5 1.5 0 1 0 0-3 1.5 1.5 0 0 0 0 3" style="color:#000;fill:currentColor;stroke-width:1.5;stroke-linecap:round;stroke-linejoin:round;-inkscape-stroke:none"/>
    <path d="M19.5 18.25a2.261 2.261 0 0 0-2.25 2.25 2.261 2.261 0 0 0 2.25 2.25 2.261 2.261 0 0 0 2.25-2.25 2.261 2.261 0 0 0-2.25-2.25m0 1.5c.423 0 .75.327.75.75s-.327.75-.75.75a.739.739 0 0 1-.75-.75c0-.423.327-.75.75-.75" style="color:#000;fill:currentColor;stroke-linecap:round;stroke-linejoin:round;-inkscape-stroke:none"/>
    <path d="M9.5 22a1.5 1.5 0 1 0 0-3 1.5 1.5 0 0 0 0 3" style="color:#000;fill:currentColor;stroke-width:1.5;stroke-linecap:round;stroke-linejoin:round;-inkscape-stroke:none"/>
    <path d="M9.5 18.25a2.261 2.261 0 0 0-2.25 2.25 2.261 2.261 0 0 0 2.25 2.25 2.261 2.261 0 0 0 2.25-2.25 2.261 2.261 0 0 0-2.25-2.25m0 1.5c.423 0 .75.327.75.75s-.327.75-.75.75a.739.739 0 0 1-.75-.75c0-.423.327-.75.75-.75M5 3.25a.75.75 0 0 0-.738.885l2 11A.75.75 0 0 0 7 15.75h13a.75.75 0 0 0 .738-.615l2-11A.75.75 0 0 0 22 3.25H10.75zm.898 1.5h4.15l.65 9.5H7.624Zm5.655 0h4.127l-.864 9.5h-2.615zm5.63 0h3.919l-1.727 9.5H16.32z" style="color:#000;fill:currentColor;stroke-linecap:round;stroke-linejoin:round;-inkscape-stroke:none"/>
    <path d="M2 1.25a.75.75 0 0 0-.75.75.75.75 0 0 0 .75.75c.833 0 1.343.26 1.695.566.353.307.536.704.576.866a.75.75 0 0 0 .91.547.75.75 0 0 0 .548-.91c-.127-.505-.443-1.109-1.05-1.635C4.075 1.657 3.168 1.25 2 1.25M5.23 14.25c-1.001 0-1.849.214-2.486.695-.637.482-.994 1.251-.994 2.055 0 .804.357 1.573.994 2.055.637.481 1.485.695 2.486.695H19.5a.75.75 0 0 0 .75-.75.75.75 0 0 0-.75-.75H5.23c-.782 0-1.3-.177-1.582-.39-.282-.214-.398-.445-.398-.86s.116-.646.398-.86c.283-.213.8-.39 1.582-.39H20a.75.75 0 0 0 .75-.75.75.75 0 0 0-.75-.75H7Z" style="color:#000;fill:currentColor;stroke-linecap:round;stroke-linejoin:round;-inkscape-stroke:none"/>
</svg>
