<svg xmlns="http://www.w3.org/2000/svg" width="24" height="24" fill="none" stroke-width="1.5" viewBox="0 0 24 24">
    <path d="M4 4.25C2.49 4.25 1.25 5.49 1.25 7v10c0 1.51 1.24 2.75 2.75 2.75h16c1.51 0 2.75-1.24 2.75-2.75V7c0-1.51-1.24-2.75-2.75-2.75H10zm0 1.5h16c.7 0 1.25.55 1.25 1.25v10c0 .7-.55 1.25-1.25 1.25H4c-.7 0-1.25-.55-1.25-1.25V7c0-.7.55-1.25 1.25-1.25" style="color:#000;fill:currentColor;stroke-linecap:round;stroke-linejoin:round;-inkscape-stroke:none"/>
    <path d="M12 8.25A3.761 3.761 0 0 0 8.25 12 3.761 3.761 0 0 0 12 15.75 3.761 3.761 0 0 0 15.75 12 3.761 3.761 0 0 0 12 8.25m0 1.5c1.252 0 2.25.998 2.25 2.25s-.998 2.25-2.25 2.25A2.239 2.239 0 0 1 9.75 12c0-1.252.998-2.25 2.25-2.25M18.47 11.25a.75.75 0 0 0-.517.246l-.01.012a.75.75 0 0 0 .055 1.058.75.75 0 0 0 1.059-.054l.01-.012a.75.75 0 0 0-.055-1.059.75.75 0 0 0-.541-.191M5.47 11.25a.75.75 0 0 0-.517.246l-.01.012a.75.75 0 0 0 .055 1.058.75.75 0 0 0 1.059-.054l.01-.012a.75.75 0 0 0-.055-1.059.75.75 0 0 0-.541-.191" style="color:#000;fill:currentColor;stroke-linecap:round;stroke-linejoin:round;-inkscape-stroke:none"/>
</svg>
