<svg xmlns="http://www.w3.org/2000/svg" width="24" height="24" fill="none" stroke-width="1.5" viewBox="0 0 24 24">
    <path d="M11.25 2.25v10.5h10.5V3.6a1.36 1.36 0 0 0-1.35-1.35Zm1.5 1.5h7.5v7.5h-7.5z" style="color:#000;fill:currentColor;-inkscape-stroke:none"/>
    <path d="M11.25 11.25v10.5h9.15a1.36 1.36 0 0 0 1.35-1.35v-9.15Zm1.5 1.5h7.5v7.5h-7.5z" style="color:#000;fill:currentColor;-inkscape-stroke:none"/>
    <path d="M3.6 2.25A1.36 1.36 0 0 0 2.25 3.6v9.15h10.5V2.25Zm.15 1.5h7.5v7.5h-7.5z" style="color:#000;fill:currentColor;-inkscape-stroke:none"/>
    <path d="M2.25 11.25v9.15c0 .737.613 1.35 1.35 1.35h9.15v-10.5zm1.5 1.5h7.5v7.5h-7.5z" style="color:#000;fill:currentColor;-inkscape-stroke:none"/>
</svg>
