<svg xmlns="http://www.w3.org/2000/svg" width="24" height="24" fill="none" stroke-width="1.5" viewBox="0 0 24 24">
    <path d="M1.97 19.25a.75.75 0 0 0-.517.246l-.01.012a.75.75 0 0 0 .055 1.058.75.75 0 0 0 1.059-.054l.01-.012a.75.75 0 0 0-.055-1.059.75.75 0 0 0-.541-.191M4 3.25C2.49 3.25 1.25 4.49 1.25 6v1a.75.75 0 0 0 .75.75.75.75 0 0 0 .75-.75V6c0-.7.55-1.25 1.25-1.25h16c.7 0 1.25.55 1.25 1.25v12c0 .7-.55 1.25-1.25 1.25h-5a.75.75 0 0 0-.75.75.75.75 0 0 0 .75.75h5c1.51 0 2.75-1.24 2.75-2.75V6c0-1.51-1.24-2.75-2.75-2.75ZM2.182 15.271a.75.75 0 0 0-.91.547.75.75 0 0 0 .546.91c1.744.436 3.018 1.71 3.453 3.454a.75.75 0 0 0 .91.547.75.75 0 0 0 .548-.91 6.207 6.207 0 0 0-4.547-4.548" style="color:#000;fill:currentColor;stroke-linecap:round;stroke-linejoin:round;-inkscape-stroke:none"/>
    <path d="M2.094 11.256a.75.75 0 0 0-.838.65.75.75 0 0 0 .65.838c3.626.453 6.897 3.724 7.35 7.35a.75.75 0 0 0 .838.65.75.75 0 0 0 .65-.838c-.547-4.374-4.276-8.103-8.65-8.65" style="color:#000;fill:currentColor;stroke-linecap:round;stroke-linejoin:round;-inkscape-stroke:none"/>
    <path fill="currentColor" fill-rule="evenodd" d="M5.002 7.63a.6.6 0 0 1 .6-.6h12.804a.6.6 0 0 1 .6.6v8.832a.6.6 0 0 1-.6.6H13.44a.617.617 0 0 1-.556-.355c-.422-.892-1.622-3.26-3.07-4.707-1.42-1.419-3.572-2.444-4.435-2.82a.624.624 0 0 1-.378-.569z" clip-rule="evenodd"/>
</svg>
