<svg xmlns="http://www.w3.org/2000/svg" width="24" height="24" fill="none" stroke-width="1.5" viewBox="0 0 24 24">
    <path d="M8 6.504c-.347 0-.695.13-.955.39l-3.4 3.4a1.35 1.35 0 0 0-.395.954V21.4c0 .737.613 1.35 1.35 1.35h6.8a1.36 1.36 0 0 0 1.35-1.35V11.248c0-.358-.142-.7-.395-.953l-3.4-3.4c-.26-.26-.608-.391-.955-.391M8 8.06l3.25 3.25v9.939h-6.5v-9.937z" style="color:#000;fill:currentColor;stroke-linecap:round;stroke-linejoin:round;-inkscape-stroke:none"/>
    <path d="M8 1.25a.75.75 0 0 0-.75.75v1.25H6a.75.75 0 0 0-.75.75.75.75 0 0 0 .75.75h1.25V7a.75.75 0 0 0 .75.75.75.75 0 0 0 .75-.75V4.75H10a.75.75 0 0 0 .75-.75.75.75 0 0 0-.75-.75H8.75V2A.75.75 0 0 0 8 1.25" style="color:#000;fill:currentColor;stroke-linecap:round;stroke-linejoin:round;-inkscape-stroke:none"/>
    <path d="M8 6.25a.75.75 0 0 0-.75.75.75.75 0 0 0 .75.75h8.188l3.062 3.06v10.44H12a.75.75 0 0 0-.75.75.75.75 0 0 0 .75.75h7.4a1.36 1.36 0 0 0 1.35-1.35V10.748c0-.358-.142-.7-.395-.953l-3.148-3.15h-.002a1.35 1.35 0 0 0-.953-.395ZM8 16.25a.75.75 0 0 0-.75.75v5a.75.75 0 0 0 .75.75.75.75 0 0 0 .75-.75v-5a.75.75 0 0 0-.75-.75" style="color:#000;fill:currentColor;stroke-linecap:round;stroke-linejoin:round;-inkscape-stroke:none"/>
    <path d="M7.97 12.25a.75.75 0 0 0-.517.246l-.01.012a.75.75 0 0 0 .055 1.058.75.75 0 0 0 1.059-.054l.01-.012a.75.75 0 0 0-.055-1.059.75.75 0 0 0-.541-.191" style="color:#000;fill:currentColor;stroke-linecap:round;stroke-linejoin:round;-inkscape-stroke:none"/>
</svg>
