<svg xmlns="http://www.w3.org/2000/svg" width="24" height="24" fill="none" stroke-width="1.5" viewBox="0 0 24 24">
    <path d="M18 14.25a.75.75 0 0 0-.75.75v3a.75.75 0 0 0 .75.75.75.75 0 0 0 .75-.75v-3a.75.75 0 0 0-.75-.75M11 1.25a.75.75 0 0 0-.75.75v4A3.76 3.76 0 0 0 14 9.75h1c.875 0 1.46.22 1.8.475s.45.525.45.775a.75.75 0 0 0 .75.75.75.75 0 0 0 .75-.75c0-.75-.39-1.48-1.05-1.975S16.124 8.25 15 8.25h-1A2.24 2.24 0 0 1 11.75 6V2a.75.75 0 0 0-.75-.75M22 1.25a.75.75 0 0 0-.75.75c0 .875-.208 1.371-.46 1.688-.254.316-.586.487-.972.583-.771.193-1.636 0-1.636 0v.006A3 3 0 0 1 18 4.25a.75.75 0 0 0-.182 1.479s.17-.004.184 0L18 5.75s.743-.006 1.55.6c.809.606 1.7 1.817 1.7 4.65a.75.75 0 0 0 .75.75.75.75 0 0 0 .75-.75c0-2.953-.99-4.622-2.086-5.57.457-.188.935-.352 1.297-.805.497-.621.789-1.5.789-2.625a.75.75 0 0 0-.75-.75M22 14.25a.75.75 0 0 0-.75.75v3a.75.75 0 0 0 .75.75.75.75 0 0 0 .75-.75v-3a.75.75 0 0 0-.75-.75" style="color:#000;fill:currentColor;stroke-linecap:round;stroke-linejoin:round;-inkscape-stroke:none"/>
    <path d="M2.6 14.25a1.36 1.36 0 0 0-1.35 1.35v1.8c0 .737.613 1.35 1.35 1.35h17.21l-4.5-4.5zm.15 1.5h11.94l1.498 1.5H2.75Z" style="color:#000;fill:currentColor;-inkscape-stroke:none"/>
    <path d="M3 2.25a.75.75 0 0 0-.531.219.75.75 0 0 0 0 1.062l18 18a.75.75 0 0 0 1.062 0 .75.75 0 0 0 0-1.062l-18-18A.75.75 0 0 0 3 2.25" style="color:#000;fill:currentColor;stroke-linecap:round;stroke-linejoin:round;-inkscape-stroke:none"/>
</svg>
