<svg xmlns="http://www.w3.org/2000/svg" width="24" height="24" fill="none" stroke-width="1.5" viewBox="0 0 24 24">
    <path d="M7 9.25c-1.51 0-2.75 1.24-2.75 2.75S5.49 14.75 7 14.75 9.75 13.51 9.75 12 8.51 9.25 7 9.25m0 1.5c.7 0 1.25.55 1.25 1.25S7.7 13.25 7 13.25 5.75 12.7 5.75 12 6.3 10.75 7 10.75M17 9.25c-1.51 0-2.75 1.24-2.75 2.75s1.24 2.75 2.75 2.75 2.75-1.24 2.75-2.75S18.51 9.25 17 9.25m0 1.5c.7 0 1.25.55 1.25 1.25s-.55 1.25-1.25 1.25-1.25-.55-1.25-1.25.55-1.25 1.25-1.25M12 4.25c-1.51 0-2.75 1.24-2.75 2.75S10.49 9.75 12 9.75 14.75 8.51 14.75 7 13.51 4.25 12 4.25m0 1.5c.7 0 1.25.55 1.25 1.25S12.7 8.25 12 8.25 10.75 7.7 10.75 7 11.3 5.75 12 5.75M12 14.25c-1.51 0-2.75 1.24-2.75 2.75s1.24 2.75 2.75 2.75 2.75-1.24 2.75-2.75-1.24-2.75-2.75-2.75m0 1.5c.7 0 1.25.55 1.25 1.25s-.55 1.25-1.25 1.25-1.25-.55-1.25-1.25.55-1.25 1.25-1.25" style="color:#000;fill:currentColor;stroke-linecap:round;stroke-linejoin:round;-inkscape-stroke:none"/>
    <path d="M12 1.25C6.072 1.25 1.25 6.072 1.25 12v10a.75.75 0 0 0 .75.75.75.75 0 0 0 .75-.75v-4.852C4.592 20.432 7.974 22.75 12 22.75c5.928 0 10.75-4.822 10.75-10.75S17.928 1.25 12 1.25m0 1.5A9.239 9.239 0 0 1 21.25 12 9.239 9.239 0 0 1 12 21.25 9.239 9.239 0 0 1 2.75 12 9.239 9.239 0 0 1 12 2.75" style="color:#000;fill:currentColor;stroke-linecap:round;stroke-linejoin:round;-inkscape-stroke:none"/>
</svg>
