<svg xmlns="http://www.w3.org/2000/svg" width="24" height="24" fill="none" stroke-width="1.5" viewBox="0 0 24 24">
    <path d="M6 3.25C4.49 3.25 3.25 4.49 3.25 6v14c0 1.51 1.24 2.75 2.75 2.75h6a.75.75 0 0 0 .75-.75.75.75 0 0 0-.75-.75H6c-.7 0-1.25-.55-1.25-1.25V6c0-.7.55-1.25 1.25-1.25h2.5A.75.75 0 0 0 9.25 4a.75.75 0 0 0-.75-.75ZM15.5 3.25a.75.75 0 0 0-.75.75.75.75 0 0 0 .75.75H18c.7 0 1.25.55 1.25 1.25v9a.75.75 0 0 0 .75.75.75.75 0 0 0 .75-.75V6c0-1.51-1.24-2.75-2.75-2.75Z" style="color:#000;fill:currentColor;stroke-linecap:round;-inkscape-stroke:none"/>
    <path d="M12 .25c-1.299 0-2.26.528-2.826 1.197-.55.65-.744 1.366-.836 1.871-.596.092-1.088.563-1.088 1.182v1.9c0 .737.613 1.35 1.35 1.35h6.8a1.36 1.36 0 0 0 1.35-1.35V4.5c0-.619-.492-1.09-1.088-1.182-.092-.505-.285-1.221-.836-1.87C14.26.777 13.3.25 12 .25m0 1.5c.927 0 1.368.298 1.682.668.313.37.467.87.527 1.215.09.517.506.902 1.041 1.021V6.25h-6.5V4.654c.535-.12.951-.504 1.041-1.021.06-.346.214-.845.527-1.215.314-.37.754-.668 1.682-.668" style="color:#000;fill:currentColor;stroke-linecap:round;-inkscape-stroke:none"/>
    <path d="M22.5 16.75a.75.75 0 0 0-.531.219L17.5 21.437l-1.469-1.468a.75.75 0 0 0-1.062 0 .75.75 0 0 0 0 1.062l2 2a.75.75 0 0 0 1.062 0l5-5a.75.75 0 0 0 0-1.062.75.75 0 0 0-.531-.219" style="color:#000;fill:currentColor;stroke-linecap:round;stroke-linejoin:round;-inkscape-stroke:none"/>
</svg>
