<svg xmlns="http://www.w3.org/2000/svg" width="24" height="24" fill="none" stroke-width="1.5" viewBox="0 0 24 24">
    <path d="M3.6 2.25A1.36 1.36 0 0 0 2.25 3.6v16.8c0 .737.613 1.35 1.35 1.35h16.8a1.36 1.36 0 0 0 1.35-1.35V3.6a1.36 1.36 0 0 0-1.35-1.35Zm.15 1.5h16.5v16.5H3.75Z" style="color:#000;fill:currentColor;-inkscape-stroke:none"/>
    <path d="M12 7.25c-1.79 0-2.93.61-3.49 1.465-.411.627-.483 1.239-.504 1.748-.46.078-.912.092-1.397.412-.734.485-1.359 1.398-1.359 2.625s.625 2.14 1.36 2.625a3.874 3.874 0 0 0 2.117.625h6.546c.592 0 1.383-.14 2.118-.625.734-.485 1.359-1.398 1.359-2.625s-.625-2.14-1.36-2.625c-.484-.32-.935-.334-1.396-.412-.02-.509-.093-1.12-.504-1.748-.56-.855-1.7-1.465-3.49-1.465m0 1.5c1.484 0 1.978.39 2.236.785.259.395.287.965.287 1.465a.75.75 0 0 0 .75.75c.317 0 .89.11 1.291.375.402.265.686.602.686 1.375s-.284 1.11-.686 1.375c-.401.265-.974.375-1.29.375H8.726c-.317 0-.89-.11-1.291-.375-.402-.265-.686-.602-.686-1.375s.284-1.11.686-1.375c.401-.265.974-.375 1.29-.375a.75.75 0 0 0 .75-.75c0-.5.03-1.07.288-1.465S10.516 8.75 12 8.75" style="color:#000;fill:currentColor;stroke-linejoin:round;-inkscape-stroke:none"/>
</svg>
