<svg xmlns="http://www.w3.org/2000/svg" width="24" height="24" fill="none" stroke-width="1.5" viewBox="0 0 24 24">
    <path d="M12 1.25c-3.167 0-5.006 1.136-5.893 2.613-.734 1.224-.81 2.495-.824 3.49-.885.102-1.892.351-2.846 1.038C1.23 9.26.25 10.79.25 13c0 2.969 1.782 4.64 3.477 5.305a.75.75 0 0 0 .972-.424.75.75 0 0 0-.426-.973C2.98 16.402 1.75 15.408 1.75 13c0-1.792.688-2.76 1.563-3.39.874-.63 2.004-.86 2.687-.86A.75.75 0 0 0 6.75 8c0-1 .029-2.34.643-3.363C8.006 3.614 9.167 2.75 12 2.75s3.994.864 4.607 1.887C17.221 5.66 17.25 7 17.25 8a.75.75 0 0 0 .75.75c.683 0 1.813.23 2.688.86.874.63 1.562 1.598 1.562 3.39 0 2.409-1.23 3.402-2.523 3.908a.75.75 0 0 0-.426.973.75.75 0 0 0 .972.424c1.695-.664 3.477-2.336 3.477-5.305 0-2.208-.98-3.74-2.187-4.61-.954-.686-1.96-.935-2.846-1.036-.015-.996-.09-2.267-.824-3.49C17.006 2.385 15.167 1.25 12 1.25M16.42 18.738a.75.75 0 0 0-.53.219l-1.767 1.768a3.24 3.24 0 0 1-4.598 0l-.353-.354a.75.75 0 0 0-1.06 0 .75.75 0 0 0 0 1.06l.353.354a4.763 4.763 0 0 0 6.719 0l1.767-1.767a.75.75 0 0 0 0-1.061.75.75 0 0 0-.531-.219" style="color:#000;fill:currentColor;stroke-linecap:round;stroke-linejoin:round;-inkscape-stroke:none"/>
    <path d="m16.314 18.744-2.474.354a.75.75 0 0 0-.424 1.273l2.121 2.121a.75.75 0 0 0 1.272-.424l.353-2.474a.75.75 0 0 0-.848-.85M12.178 13.217a4.737 4.737 0 0 0-3.36 1.387L7.051 16.37a.75.75 0 0 0 0 1.06.75.75 0 0 0 1.06 0l1.768-1.767a3.238 3.238 0 0 1 4.596 0l.353.354a.75.75 0 0 0 1.06 0 .75.75 0 0 0 0-1.061l-.353-.353a4.733 4.733 0 0 0-3.357-1.387" style="color:#000;fill:currentColor;stroke-linecap:round;stroke-linejoin:round;-inkscape-stroke:none"/>
    <path d="M7.697 13.715a.75.75 0 0 0-.506.605l-.353 2.475a.75.75 0 0 0 .85.85l2.474-.354a.75.75 0 0 0 .424-1.273l-2.121-2.122a.75.75 0 0 0-.768-.181" style="color:#000;fill:currentColor;stroke-linecap:round;stroke-linejoin:round;-inkscape-stroke:none"/>
</svg>
