<svg xmlns="http://www.w3.org/2000/svg" width="24" height="24" fill="none" stroke-width="1.5" viewBox="0 0 24 24">
    <path d="M6 12.25c-.983 0-2.354.27-3.562 1.14C1.229 14.26.25 15.793.25 18s.98 3.74 2.188 4.61c1.208.87 2.579 1.14 3.562 1.14h12c.983 0 2.354-.27 3.563-1.14 1.208-.87 2.187-2.402 2.187-4.61s-.98-3.74-2.187-4.61c-1.209-.87-2.58-1.14-3.563-1.14a.75.75 0 0 0-.75.75.75.75 0 0 0 .75.75c.683 0 1.813.23 2.688.86.874.63 1.562 1.598 1.562 3.39s-.688 2.76-1.562 3.39c-.875.63-2.005.86-2.688.86H6c-.683 0-1.813-.23-2.687-.86-.875-.63-1.563-1.598-1.563-3.39s.688-2.76 1.563-3.39c.874-.63 2.004-.86 2.687-.86a.75.75 0 0 0 .75-.75.75.75 0 0 0-.75-.75" style="color:#000;fill:currentColor;stroke-linecap:round;stroke-linejoin:round;-inkscape-stroke:none"/>
    <path d="M12 5.25A3.761 3.761 0 0 0 8.25 9 3.761 3.761 0 0 0 12 12.75 3.761 3.761 0 0 0 15.75 9 3.761 3.761 0 0 0 12 5.25m0 1.5c1.252 0 2.25.998 2.25 2.25s-.998 2.25-2.25 2.25A2.239 2.239 0 0 1 9.75 9c0-1.252.998-2.25 2.25-2.25M19 8.25a.75.75 0 0 0-.75.75.75.75 0 0 0 .75.75h1a.75.75 0 0 0 .75-.75.75.75 0 0 0-.75-.75ZM12 .25a.75.75 0 0 0-.75.75v1a.75.75 0 0 0 .75.75.75.75 0 0 0 .75-.75V1A.75.75 0 0 0 12 .25M18.5 2.75a.75.75 0 0 0-.531.219l-1 1a.75.75 0 0 0 0 1.062.75.75 0 0 0 1.062 0l1-1a.75.75 0 0 0 0-1.062.75.75 0 0 0-.531-.219M5.5 2.75a.75.75 0 0 0-.531.219.75.75 0 0 0 0 1.062l1 1a.75.75 0 0 0 1.062 0 .75.75 0 0 0 0-1.062l-1-1A.75.75 0 0 0 5.5 2.75M4 8.25a.75.75 0 0 0-.75.75.75.75 0 0 0 .75.75h1A.75.75 0 0 0 5.75 9 .75.75 0 0 0 5 8.25Z" style="color:#000;fill:currentColor;stroke-linecap:round;stroke-linejoin:round;-inkscape-stroke:none"/>
</svg>
