<svg xmlns="http://www.w3.org/2000/svg" width="24" height="24" fill="none" stroke-width="1.5" viewBox="0 0 24 24">
    <path d="M13.703 5.277a.75.75 0 0 0-.926.52l-3.5 12.5a.75.75 0 0 0 .52.926.75.75 0 0 0 .926-.52l3.5-12.5a.75.75 0 0 0-.52-.926M6.5 7.75a.75.75 0 0 0-.531.219l-3.5 3.5a.75.75 0 0 0 0 1.062l3.5 3.5a.75.75 0 0 0 1.062 0 .75.75 0 0 0 0-1.062L4.063 12 7.03 9.031a.75.75 0 0 0 0-1.062.75.75 0 0 0-.531-.219M17.5 7.75a.75.75 0 0 0-.531.219.75.75 0 0 0 0 1.062L19.937 12l-2.968 2.969a.75.75 0 0 0 0 1.062.75.75 0 0 0 1.062 0l3.5-3.5a.75.75 0 0 0 0-1.062l-3.5-3.5a.75.75 0 0 0-.531-.219" style="color:#000;fill:currentColor;stroke-linecap:round;stroke-linejoin:round;-inkscape-stroke:none"/>
</svg>
