<svg xmlns="http://www.w3.org/2000/svg" width="24" height="24" fill="none" stroke-width="1.5" viewBox="0 0 24 24">
    <path d="M21 8.25a.75.75 0 0 0-.75.75v6a.75.75 0 0 0 .75.75.75.75 0 0 0 .75-.75V9a.75.75 0 0 0-.75-.75M3 8.25a.75.75 0 0 0-.75.75v6a.75.75 0 0 0 .75.75.75.75 0 0 0 .75-.75V9A.75.75 0 0 0 3 8.25M12 14.25a.75.75 0 0 0-.75.75v6a.75.75 0 0 0 .75.75.75.75 0 0 0 .75-.75v-6a.75.75 0 0 0-.75-.75M12 2.25a.75.75 0 0 0-.75.75v6a.75.75 0 0 0 .75.75.75.75 0 0 0 .75-.75V3a.75.75 0 0 0-.75-.75" style="color:#000;fill:currentColor;stroke-linecap:round;stroke-linejoin:round;-inkscape-stroke:none"/>
    <path d="m11.584 2.375-9 6a.75.75 0 0 0 0 1.25l9 6a.75.75 0 0 0 .832 0l9-6a.75.75 0 0 0 0-1.25l-9-6a.75.75 0 0 0-.832 0M12 3.902 19.646 9 12 14.098 4.354 9Z" style="color:#000;fill:currentColor;stroke-linecap:round;stroke-linejoin:round;-inkscape-stroke:none"/>
    <path d="m11.584 8.375-9 6a.75.75 0 0 0 0 1.25l9 6a.75.75 0 0 0 .832 0l9-6a.75.75 0 0 0 0-1.25l-9-6a.75.75 0 0 0-.832 0M12 9.902 19.646 15 12 20.098 4.354 15Z" style="color:#000;fill:currentColor;stroke-linecap:round;stroke-linejoin:round;-inkscape-stroke:none"/>
</svg>
