<svg xmlns="http://www.w3.org/2000/svg" width="24" height="24" fill="none" stroke-width="1.5" viewBox="0 0 24 24">
    <path d="M3.6 10.25a1.36 1.36 0 0 0-1.35 1.35V15c0 3.719 3.031 6.75 6.75 6.75h2c3.719 0 6.75-3.031 6.75-6.75v-3.4a1.36 1.36 0 0 0-1.35-1.35Zm.15 1.5h12.5V15A5.24 5.24 0 0 1 11 20.25H9A5.24 5.24 0 0 1 3.75 15ZM17 2.75a.75.75 0 0 0-.75.75v.643a2.096 2.096 0 0 1-2.107 2.107c-.89 0-1.65.332-2.15.857A2.74 2.74 0 0 0 11.25 9a.75.75 0 0 0 .75.75.75.75 0 0 0 .75-.75c0-.321.114-.633.328-.857.214-.225.525-.393 1.065-.393a3.62 3.62 0 0 0 3.607-3.607V3.5a.75.75 0 0 0-.75-.75M13 2.25a.75.75 0 0 0-.75.75v.5c0 .7-.55 1.25-1.25 1.25A3.76 3.76 0 0 0 7.25 8.5V9a.75.75 0 0 0 .75.75.75.75 0 0 0 .75-.75v-.5c0-1.252.998-2.25 2.25-2.25 1.51 0 2.75-1.24 2.75-2.75V3a.75.75 0 0 0-.75-.75" style="color:#000;fill:currentColor;stroke-linecap:round;stroke-linejoin:round;-inkscape-stroke:none"/>
    <path d="M16 10.25a.75.75 0 0 0-.75.75.75.75 0 0 0 .75.75h2.5c.975 0 1.75.775 1.75 1.75s-.775 1.75-1.75 1.75H17a.75.75 0 0 0-.75.75.75.75 0 0 0 .75.75h1.5a3.26 3.26 0 0 0 3.25-3.25 3.26 3.26 0 0 0-3.25-3.25z" style="color:#000;fill:currentColor;stroke-linecap:round;stroke-linejoin:round;-inkscape-stroke:none"/>
</svg>
