<svg xmlns="http://www.w3.org/2000/svg" width="24" height="24" fill="none" stroke-width="1.5" viewBox="0 0 24 24">
    <path d="M15.5 1.25c-3.995 0-7.25 3.255-7.25 7.25 0 .187.008.373.021.557a.75.75 0 0 0 .805.691.75.75 0 0 0 .692-.805A5.739 5.739 0 0 1 15.5 2.75a5.739 5.739 0 0 1 5.75 5.75 5.739 5.739 0 0 1-6.193 5.732.75.75 0 0 0-.805.692.75.75 0 0 0 .691.805c.184.013.37.021.557.021 3.995 0 7.25-3.255 7.25-7.25s-3.255-7.25-7.25-7.25" style="color:#000;fill:currentColor;stroke-linecap:round;stroke-linejoin:round;-inkscape-stroke:none"/>
    <path d="M8.5 8.25c-3.995 0-7.25 3.255-7.25 7.25s3.255 7.25 7.25 7.25 7.25-3.255 7.25-7.25-3.255-7.25-7.25-7.25m0 1.5a5.739 5.739 0 0 1 5.75 5.75 5.739 5.739 0 0 1-5.75 5.75 5.739 5.739 0 0 1-5.75-5.75A5.739 5.739 0 0 1 8.5 9.75M22 16.25a.75.75 0 0 0-.75.75c0 1.252-.998 2.25-2.25 2.25h-.187l.718-.719a.75.75 0 0 0 0-1.062.75.75 0 0 0-1.062 0l-2 2a.75.75 0 0 0-.219.531.75.75 0 0 0 .219.531l2 2a.75.75 0 0 0 1.062 0 .75.75 0 0 0 0-1.062l-.718-.719H19A3.761 3.761 0 0 0 22.75 17a.75.75 0 0 0-.75-.75M5 1.25a.75.75 0 0 0-.531.219.75.75 0 0 0 0 1.062l.718.719H5A3.761 3.761 0 0 0 1.25 7a.75.75 0 0 0 .75.75.75.75 0 0 0 .75-.75c0-1.252.998-2.25 2.25-2.25h.188l-.72.719a.75.75 0 0 0 0 1.062.75.75 0 0 0 1.063 0l2-2A.75.75 0 0 0 7.75 4a.75.75 0 0 0-.219-.531l-2-2A.75.75 0 0 0 5 1.25" style="color:#000;fill:currentColor;stroke-linecap:round;stroke-linejoin:round;-inkscape-stroke:none"/>
</svg>
