<svg xmlns="http://www.w3.org/2000/svg" width="24" height="24" fill="none" stroke-width="1.5" viewBox="0 0 24 24">
    <path d="M4.59 4.5a.75.75 0 0 0-.52.242A10.721 10.721 0 0 0 1.25 12c0 5.928 4.822 10.75 10.75 10.75 2.722 0 5.217-1.016 7.111-2.687a.75.75 0 0 0 .067-1.06.75.75 0 0 0-1.059-.066A9.207 9.207 0 0 1 12 21.25 9.239 9.239 0 0 1 2.75 12c0-2.411.918-4.598 2.426-6.244a.75.75 0 0 0-.047-1.06.75.75 0 0 0-.54-.196M12 1.25c-1.322 0-2.59.24-3.762.678a.75.75 0 0 0-.441.965.75.75 0 0 0 .965.439A9.229 9.229 0 0 1 12 2.75 9.239 9.239 0 0 1 21.25 12c0 1.203-.228 2.35-.645 3.402a.75.75 0 0 0 .42.973.75.75 0 0 0 .975-.422c.484-1.224.75-2.56.75-3.953 0-5.928-4.822-10.75-10.75-10.75" style="color:#000;fill:currentColor;stroke-linecap:round;stroke-linejoin:round;-inkscape-stroke:none"/>
    <path d="M8.55 14.4a.75.75 0 0 0-.15 1.05c.83 1.106 2.223 1.642 3.573 1.69 1.3.047 2.677-.386 3.37-1.566a.75.75 0 0 0-.265-1.027.75.75 0 0 0-1.027.265c-.32.545-1.095.862-2.024.829-.964-.035-1.969-.478-2.427-1.09a.75.75 0 0 0-1.05-.15" style="color:#000;fill:currentColor;stroke-linecap:round;stroke-linejoin:round;-inkscape-stroke:none"/>
    <path d="M12 15.64a.75.75 0 0 0-.75.75v2.11a.75.75 0 0 0 .75.75.75.75 0 0 0 .75-.75v-2.11a.75.75 0 0 0-.75-.75M9.5 8.75a.75.75 0 0 0-.75.75c0 .771.326 1.443.8 1.873.475.43 1.044.658 1.604.84a.75.75 0 0 0 .946-.483.75.75 0 0 0-.483-.943c-.474-.154-.848-.335-1.058-.525-.21-.19-.309-.352-.309-.762a.75.75 0 0 0-.75-.75M12 4.75a.75.75 0 0 0-.75.75v1.809a.75.75 0 0 0 .73.75c.91.024 1.992.476 2.489.972a.75.75 0 0 0 1.062 0 .75.75 0 0 0 0-1.062c-.707-.707-1.73-1.092-2.781-1.262V5.5a.75.75 0 0 0-.75-.75" style="color:#000;fill:currentColor;stroke-linecap:round;stroke-linejoin:round;-inkscape-stroke:none"/>
    <path d="M3 2.25a.75.75 0 0 0-.531.219.75.75 0 0 0 0 1.062l18 18a.75.75 0 0 0 1.062 0 .75.75 0 0 0 0-1.062l-18-18A.75.75 0 0 0 3 2.25" style="color:#000;fill:currentColor;stroke-linecap:round;stroke-linejoin:round;-inkscape-stroke:none"/>
</svg>
