<svg xmlns="http://www.w3.org/2000/svg" width="24" height="24" fill="none" stroke-width="1.5" viewBox="0 0 24 24">
    <path d="M16 7.25c-1.482 0-2.83.29-3.871.81-1.041.521-1.879 1.344-1.879 2.44 0 1.096.838 1.919 1.879 2.44 1.041.52 2.389.81 3.871.81 1.482 0 2.83-.29 3.871-.81 1.041-.521 1.879-1.344 1.879-2.44 0-1.096-.838-1.919-1.879-2.44-1.041-.52-2.389-.81-3.871-.81m0 1.5c1.28 0 2.43.268 3.2.652.768.385 1.05.813 1.05 1.098 0 .285-.282.713-1.05 1.098-.77.384-1.92.652-3.2.652-1.28 0-2.43-.268-3.2-.652-.768-.385-1.05-.813-1.05-1.098 0-.285.282-.713 1.05-1.098.77-.384 1.92-.652 3.2-.652M11 13.75a.75.75 0 0 0-.75.75c0 1.096.838 1.919 1.879 2.44 1.041.52 2.389.81 3.871.81 1.482 0 2.83-.29 3.871-.81 1.041-.521 1.879-1.344 1.879-2.44a.75.75 0 0 0-.75-.75.75.75 0 0 0-.75.75c0 .285-.282.713-1.05 1.098-.77.384-1.92.652-3.2.652-1.28 0-2.43-.268-3.2-.652-.768-.385-1.05-.813-1.05-1.098a.75.75 0 0 0-.75-.75" style="color:#000;fill:currentColor;stroke-linecap:round;stroke-linejoin:round;-inkscape-stroke:none"/>
    <path d="M3 8.75a.75.75 0 0 0-.75.75c0 1.096.838 1.919 1.879 2.44 1.041.52 2.389.81 3.871.81 1.208 0 2.328-.197 3.264-.549a.75.75 0 0 0 .44-.965.75.75 0 0 0-.968-.437c-.735.276-1.693.451-2.736.451-1.28 0-2.43-.268-3.2-.652-.768-.385-1.05-.813-1.05-1.098A.75.75 0 0 0 3 8.75M3 12.25a.75.75 0 0 0-.75.75c0 1.096.838 1.919 1.879 2.44 1.041.52 2.389.81 3.871.81 1.208 0 2.328-.195 3.264-.547a.75.75 0 0 0 .437-.967.75.75 0 0 0-.965-.437c-.735.276-1.693.451-2.736.451-1.28 0-2.43-.268-3.2-.652-.768-.385-1.05-.813-1.05-1.098a.75.75 0 0 0-.75-.75" style="color:#000;fill:currentColor;stroke-linecap:round;stroke-linejoin:round;-inkscape-stroke:none"/>
    <path d="M3 4.75a.75.75 0 0 0-.75.75v11c0 1.096.838 1.919 1.879 2.44 1.041.52 2.389.81 3.871.81 1.208 0 2.328-.197 3.264-.549a.75.75 0 0 0 .437-.965.75.75 0 0 0-.965-.437c-.735.276-1.693.451-2.736.451-1.28 0-2.43-.268-3.2-.652-.768-.385-1.05-.813-1.05-1.098v-11A.75.75 0 0 0 3 4.75M13 4.75a.75.75 0 0 0-.75.75v3a.75.75 0 0 0 .75.75.75.75 0 0 0 .75-.75v-3a.75.75 0 0 0-.75-.75" style="color:#000;fill:currentColor;stroke-linecap:round;stroke-linejoin:round;-inkscape-stroke:none"/>
    <path d="M11 9.75a.75.75 0 0 0-.75.75v8c0 1.096.838 1.919 1.879 2.44 1.041.52 2.389.81 3.871.81 1.482 0 2.83-.29 3.871-.81 1.041-.521 1.879-1.344 1.879-2.44v-8a.75.75 0 0 0-.75-.75.75.75 0 0 0-.75.75v8c0 .285-.282.713-1.05 1.098-.77.384-1.92.652-3.2.652-1.28 0-2.43-.268-3.2-.652-.768-.385-1.05-.813-1.05-1.098v-8a.75.75 0 0 0-.75-.75M8 2.25c-1.482 0-2.83.29-3.871.81C3.088 3.582 2.25 4.405 2.25 5.5c0 1.096.838 1.919 1.879 2.44 1.041.52 2.389.81 3.871.81 1.482 0 2.83-.29 3.871-.81 1.041-.521 1.879-1.344 1.879-2.44 0-1.096-.838-1.919-1.879-2.44C10.83 2.54 9.482 2.25 8 2.25m0 1.5c1.28 0 2.43.268 3.2.652.768.385 1.05.813 1.05 1.098 0 .285-.282.713-1.05 1.098-.77.384-1.92.652-3.2.652-1.28 0-2.43-.268-3.2-.652-.768-.385-1.05-.813-1.05-1.098 0-.285.282-.713 1.05-1.098.77-.384 1.92-.652 3.2-.652" style="color:#000;fill:currentColor;stroke-linecap:round;stroke-linejoin:round;-inkscape-stroke:none"/>
</svg>
