<svg xmlns="http://www.w3.org/2000/svg" width="24" height="24" fill="none" stroke-width="1.5" viewBox="0 0 24 24">
    <path d="M15 14.25a.75.75 0 0 0-.531.219.75.75 0 0 0-.219.531v4a.75.75 0 0 0 .75.75.75.75 0 0 0 .75-.75v-2.187l3.719 3.718a.75.75 0 0 0 1.062 0 .75.75 0 0 0 0-1.062l-3.718-3.719H19a.75.75 0 0 0 .75-.75.75.75 0 0 0-.75-.75ZM5 14.25a.75.75 0 0 0-.75.75.75.75 0 0 0 .75.75h2.188l-3.72 3.719a.75.75 0 0 0 0 1.062.75.75 0 0 0 1.063 0l3.719-3.718V19a.75.75 0 0 0 .75.75.75.75 0 0 0 .75-.75v-4a.75.75 0 0 0-.025-.129.75.75 0 0 0-.02-.098.75.75 0 0 0-.012-.06.75.75 0 0 0-.162-.244.75.75 0 0 0-.244-.162A.75.75 0 0 0 9 14.25ZM20 3.25a.75.75 0 0 0-.531.219L15.75 7.188V5a.75.75 0 0 0-.75-.75.75.75 0 0 0-.75.75v4a.75.75 0 0 0 .219.531.75.75 0 0 0 .531.219h4a.75.75 0 0 0 .75-.75.75.75 0 0 0-.75-.75h-2.187l3.718-3.719a.75.75 0 0 0 0-1.062A.75.75 0 0 0 20 3.25M4 3.25a.75.75 0 0 0-.531.219.75.75 0 0 0 0 1.062L7.188 8.25H5a.75.75 0 0 0-.75.75.75.75 0 0 0 .75.75h4a.75.75 0 0 0 .531-.219.75.75 0 0 0 .194-.469A.75.75 0 0 0 9.75 9V5A.75.75 0 0 0 9 4.25a.75.75 0 0 0-.75.75v2.188l-3.719-3.72A.75.75 0 0 0 4 3.25" style="color:#000;fill:currentColor;stroke-linecap:round;stroke-linejoin:round;-inkscape-stroke:none"/>
</svg>
