<svg xmlns="http://www.w3.org/2000/svg" width="24" height="24" fill="none" stroke-width="1.5" viewBox="0 0 24 24">
    <path d="M12 1.75c-3.719 0-6.75 3.031-6.75 6.75s3.031 6.75 6.75 6.75 6.75-3.031 6.75-6.75S15.719 1.75 12 1.75m0 1.5a5.24 5.24 0 0 1 5.25 5.25A5.24 5.24 0 0 1 12 13.75 5.24 5.24 0 0 1 6.75 8.5 5.24 5.24 0 0 1 12 3.25" style="color:#000;fill:currentColor;stroke-linecap:round;stroke-linejoin:round;-inkscape-stroke:none"/>
    <path d="M16 8.75c-3.719 0-6.75 3.031-6.75 6.75s3.031 6.75 6.75 6.75 6.75-3.031 6.75-6.75S19.719 8.75 16 8.75m0 1.5a5.24 5.24 0 0 1 5.25 5.25A5.24 5.24 0 0 1 16 20.75a5.24 5.24 0 0 1-5.25-5.25A5.24 5.24 0 0 1 16 10.25" style="color:#000;fill:currentColor;stroke-linecap:round;stroke-linejoin:round;-inkscape-stroke:none"/>
    <path d="M8 8.75c-3.719 0-6.75 3.031-6.75 6.75S4.281 22.25 8 22.25s6.75-3.031 6.75-6.75S11.719 8.75 8 8.75m0 1.5a5.24 5.24 0 0 1 5.25 5.25A5.24 5.24 0 0 1 8 20.75a5.24 5.24 0 0 1-5.25-5.25A5.24 5.24 0 0 1 8 10.25" style="color:#000;fill:currentColor;stroke-linecap:round;stroke-linejoin:round;-inkscape-stroke:none"/>
</svg>
