<svg xmlns="http://www.w3.org/2000/svg" width="24" height="24" fill="none" stroke-width="1.5" viewBox="0 0 24 24">
    <path d="M12 1.25C6.072 1.25 1.25 6.072 1.25 12S6.072 22.75 12 22.75 22.75 17.928 22.75 12 17.928 1.25 12 1.25m0 1.5A9.239 9.239 0 0 1 21.25 12 9.239 9.239 0 0 1 12 21.25 9.239 9.239 0 0 1 2.75 12 9.239 9.239 0 0 1 12 2.75" style="color:#000;fill:currentColor;stroke-linecap:round;stroke-linejoin:round;-inkscape-stroke:none"/>
    <path d="M12 7.25A4.761 4.761 0 0 0 7.25 12 4.761 4.761 0 0 0 12 16.75 4.761 4.761 0 0 0 16.75 12 4.761 4.761 0 0 0 12 7.25m0 1.5A3.239 3.239 0 0 1 15.25 12 3.239 3.239 0 0 1 12 15.25 3.239 3.239 0 0 1 8.75 12 3.239 3.239 0 0 1 12 8.75" style="color:#000;fill:currentColor;stroke-linecap:round;stroke-linejoin:round;-inkscape-stroke:none"/>
    <path d="M12 1.25a.75.75 0 0 0-.75.75v6a.75.75 0 0 0 .75.75.75.75 0 0 0 .75-.75V2a.75.75 0 0 0-.75-.75M12 15.25a.75.75 0 0 0-.75.75v6a.75.75 0 0 0 .75.75.75.75 0 0 0 .75-.75v-6a.75.75 0 0 0-.75-.75M2 11.25a.75.75 0 0 0-.75.75.75.75 0 0 0 .75.75h6a.75.75 0 0 0 .75-.75.75.75 0 0 0-.75-.75ZM16 11.25a.75.75 0 0 0-.75.75.75.75 0 0 0 .75.75h6a.75.75 0 0 0 .75-.75.75.75 0 0 0-.75-.75ZM4.93 4.178a.75.75 0 0 0-.532.22.75.75 0 0 0 0 1.061l4.243 4.242a.75.75 0 0 0 1.06 0 .75.75 0 0 0 0-1.06L5.46 4.398a.75.75 0 0 0-.53-.22M14.828 14.078a.75.75 0 0 0-.53.22.75.75 0 0 0 0 1.061l4.243 4.243a.75.75 0 0 0 1.06 0 .75.75 0 0 0 0-1.061l-4.242-4.242a.75.75 0 0 0-.53-.22M9.172 14.078a.75.75 0 0 0-.531.22l-4.243 4.243a.75.75 0 0 0 0 1.06.75.75 0 0 0 1.061 0l4.242-4.242a.75.75 0 0 0 0-1.06.75.75 0 0 0-.53-.22M18.541 4.398l-4.242 4.243a.75.75 0 0 0 0 1.06.75.75 0 0 0 1.06 0l4.243-4.242a.75.75 0 0 0 0-1.06.75.75 0 0 0-1.061 0" style="color:#000;fill:currentColor;stroke-linecap:round;stroke-linejoin:round;-inkscape-stroke:none"/>
</svg>
