<svg xmlns="http://www.w3.org/2000/svg" width="24" height="24" fill="none" stroke-width="1.5" viewBox="0 0 24 24">
    <path d="M13.172 6.658c-.45 0-.9.17-1.238.508l-5.465 5.465-2.172 2.172a1.8 1.8 0 0 0-.381.572l-1.027 2.496a2.26 2.26 0 0 0 .49 2.447 2.26 2.26 0 0 0 2.447.49l2.496-1.029a1.8 1.8 0 0 0 .57-.38l5.71-5.708 1.927-1.93a1.76 1.76 0 0 0 0-2.474l-2.12-2.121a1.74 1.74 0 0 0-1.237-.508m-.178 1.569a.24.24 0 0 1 .354 0l2.12 2.12a.24.24 0 0 1 0 .354l-1.706 1.71h-4.95ZM7.313 13.91h4.949l-4.43 4.428a.3.3 0 0 1-.08.055l-2.498 1.029c-.337.139-.609.042-.815-.164s-.303-.48-.164-.817l1.028-2.496a.3.3 0 0 1 .054-.082zM13.348 2.924a.75.75 0 0 0 0 1.06l2.12 2.121 2.122 2.122 2.12 2.12a.75.75 0 0 0 1.061 0 .75.75 0 0 0 0-1.06L19.18 7.695l.884-.883a1.76 1.76 0 0 0 0-2.474l-.707-.707a1.76 1.76 0 0 0-2.474 0L16 4.516l-1.592-1.592a.75.75 0 0 0-1.06 0m4.595 1.767a.24.24 0 0 1 .354 0l.707.707a.24.24 0 0 1 0 .354l-.883.885-1.062-1.063z" style="color:#000;fill:currentColor;stroke-linecap:round;stroke-linejoin:round;-inkscape-stroke:none"/>
</svg>
