<svg xmlns="http://www.w3.org/2000/svg" width="24" height="24" fill="none" stroke-width="1.5" viewBox="0 0 24 24">
    <path d="M12 11.25A5.76 5.76 0 0 0 6.25 17v1a.75.75 0 0 0 .75.75.75.75 0 0 0 .75-.75v-1A4.24 4.24 0 0 1 12 12.75 4.24 4.24 0 0 1 16.25 17v1a.75.75 0 0 0 .75.75.75.75 0 0 0 .75-.75v-1A5.76 5.76 0 0 0 12 11.25M4 13.25A3.76 3.76 0 0 0 .25 17v1a.75.75 0 0 0 .75.75.75.75 0 0 0 .75-.75v-1c0-1.252.998-2.25 2.25-2.25a.75.75 0 0 0 .75-.75.75.75 0 0 0-.75-.75M20 13.25a.75.75 0 0 0-.75.75.75.75 0 0 0 .75.75c1.252 0 2.25.998 2.25 2.25v1a.75.75 0 0 0 .75.75.75.75 0 0 0 .75-.75v-1A3.76 3.76 0 0 0 20 13.25" style="color:#000;fill:currentColor;stroke-linecap:round;stroke-linejoin:round;-inkscape-stroke:none"/>
    <path d="M12 5.25A3.76 3.76 0 0 0 8.25 9 3.76 3.76 0 0 0 12 12.75 3.76 3.76 0 0 0 15.75 9 3.76 3.76 0 0 0 12 5.25m0 1.5c1.252 0 2.25.998 2.25 2.25s-.998 2.25-2.25 2.25A2.24 2.24 0 0 1 9.75 9c0-1.252.998-2.25 2.25-2.25M4 9.25c-1.51 0-2.75 1.24-2.75 2.75S2.49 14.75 4 14.75 6.75 13.51 6.75 12 5.51 9.25 4 9.25m0 1.5c.7 0 1.25.55 1.25 1.25S4.7 13.25 4 13.25 2.75 12.7 2.75 12 3.3 10.75 4 10.75M20 9.25c-1.51 0-2.75 1.24-2.75 2.75s1.24 2.75 2.75 2.75 2.75-1.24 2.75-2.75S21.51 9.25 20 9.25m0 1.5c.7 0 1.25.55 1.25 1.25s-.55 1.25-1.25 1.25-1.25-.55-1.25-1.25.55-1.25 1.25-1.25" style="color:#000;fill:currentColor;stroke-linecap:round;stroke-linejoin:round;-inkscape-stroke:none"/>
</svg>
