<svg xmlns="http://www.w3.org/2000/svg" width="24" height="24" fill="none" stroke-width="1.5" viewBox="0 0 24 24">
    <path d="M13.918 11.25c-.637 0-1.195.456-1.322 1.08l-1.184 5.8a1.365 1.365 0 0 0 1.322 1.62h8.532c.838 0 1.49-.798 1.322-1.62l-1.184-5.8a1.36 1.36 0 0 0-1.322-1.08Zm.125 1.5h5.914l1.125 5.5h-8.164z" style="color:#000;fill:currentColor;stroke-linecap:round;-inkscape-stroke:none"/>
    <path d="M8.918 4.25c-.637 0-1.195.456-1.322 1.08l-1.184 5.8a1.365 1.365 0 0 0 1.322 1.62h8.532c.838 0 1.49-.798 1.322-1.62l-1.184-5.8a1.36 1.36 0 0 0-1.322-1.08Zm.125 1.5h5.914l1.125 5.5H7.918Z" style="color:#000;fill:currentColor;stroke-linecap:round;-inkscape-stroke:none"/>
    <path d="M3.918 11.25c-.637 0-1.195.456-1.322 1.08l-1.184 5.8a1.365 1.365 0 0 0 1.322 1.62h8.532c.838 0 1.49-.798 1.322-1.62l-1.184-5.8a1.36 1.36 0 0 0-1.322-1.08Zm.125 1.5h5.914l1.125 5.5H2.918Z" style="color:#000;fill:currentColor;stroke-linecap:round;-inkscape-stroke:none"/>
</svg>
