<svg xmlns="http://www.w3.org/2000/svg" width="24" height="24" fill="none" stroke-width="1.5" viewBox="0 0 24 24">
    <path d="M5.637 7.967c-.347 0-.695.13-.955.39l-2.688 2.688c-.52.52-.52 1.39 0 1.91l2.688 2.688c.52.52 1.387.52 1.908 0l2.687-2.688c.521-.52.521-1.39 0-1.91L6.59 8.357c-.26-.26-.606-.39-.953-.39m0 1.558L8.11 12l-2.474 2.475L3.16 12ZM12 14.332c-.347 0-.695.13-.955.39l-2.686 2.686c-.52.521-.52 1.39 0 1.91l2.686 2.688c.52.52 1.39.521 1.91 0l2.688-2.688c.52-.52.52-1.389 0-1.91l-2.688-2.685c-.26-.26-.608-.391-.955-.391m0 1.557 2.475 2.474L12 20.84l-2.475-2.477ZM12 1.604c-.347 0-.695.13-.955.39L8.359 4.682a1.36 1.36 0 0 0 0 1.908l2.686 2.687c.52.521 1.39.521 1.91 0l2.688-2.687a1.36 1.36 0 0 0 0-1.908l-2.688-2.688c-.26-.26-.608-.39-.955-.39m0 1.556 2.475 2.477L12 8.11 9.525 5.637ZM18.363 7.967c-.347 0-.692.13-.953.39l-2.687 2.688c-.521.52-.521 1.39 0 1.91l2.687 2.688a1.36 1.36 0 0 0 1.908 0l2.688-2.688c.52-.52.52-1.39 0-1.91l-2.688-2.686a1.35 1.35 0 0 0-.955-.392m0 1.558L20.84 12l-2.477 2.475L15.89 12Z" style="color:#000;fill:currentColor;-inkscape-stroke:none"/>
</svg>
