<svg xmlns="http://www.w3.org/2000/svg" width="24" height="24" fill="none" stroke-width="1.5" viewBox="0 0 24 24">
    <path d="M2 20.25a.75.75 0 0 0-.75.75.75.75 0 0 0 .75.75h15a.75.75 0 0 0 .75-.75.75.75 0 0 0-.75-.75ZM21 20.25a.75.75 0 0 0-.75.75.75.75 0 0 0 .75.75h1a.75.75 0 0 0 .75-.75.75.75 0 0 0-.75-.75Z" style="color:#000;fill:currentColor;stroke-linecap:round;stroke-linejoin:round;-inkscape-stroke:none"/>
    <path d="M2.6 2.25A1.36 1.36 0 0 0 1.25 3.6v12.8c0 .737.613 1.35 1.35 1.35h18.8a1.36 1.36 0 0 0 1.35-1.35V3.6a1.36 1.36 0 0 0-1.35-1.35Zm.15 1.5h18.5v12.5H2.75Z" style="color:#000;fill:currentColor;-inkscape-stroke:none"/>
</svg>
