<svg xmlns="http://www.w3.org/2000/svg" width="24" height="24" fill="none" stroke-width="1.5" viewBox="0 0 24 24">
    <path d="M17.209 6.348a.75.75 0 0 0-.623.047L10.22 9.93a.75.75 0 0 0-.291.29l-3.535 6.366a.75.75 0 0 0 1.02 1.02l6.364-3.536a.75.75 0 0 0 .291-.29l3.535-6.366a.75.75 0 0 0-.396-1.066m-2.19 2.632-2.156 3.883L8.98 15.02l2.157-3.883z" style="color:#000;fill:currentColor;stroke-linecap:round;stroke-linejoin:round;-inkscape-stroke:none"/>
    <path d="M12 1.25C6.072 1.25 1.25 6.072 1.25 12S6.072 22.75 12 22.75 22.75 17.928 22.75 12 17.928 1.25 12 1.25m0 1.5A9.239 9.239 0 0 1 21.25 12 9.239 9.239 0 0 1 12 21.25 9.239 9.239 0 0 1 2.75 12 9.239 9.239 0 0 1 12 2.75" style="color:#000;fill:currentColor;stroke-linecap:round;stroke-linejoin:round;-inkscape-stroke:none"/>
</svg>
