<svg xmlns="http://www.w3.org/2000/svg" width="24" height="24" fill="none" stroke-width="1.5" viewBox="0 0 24 24">
    <path d="M3 18.25C1.49 18.25.25 19.49.25 21S1.49 23.75 3 23.75 5.75 22.51 5.75 21 4.51 18.25 3 18.25m0 1.5c.7 0 1.25.55 1.25 1.25S3.7 22.25 3 22.25 1.75 21.7 1.75 21 2.3 19.75 3 19.75M21 18.25c-1.51 0-2.75 1.24-2.75 2.75s1.24 2.75 2.75 2.75 2.75-1.24 2.75-2.75-1.24-2.75-2.75-2.75m0 1.5c.7 0 1.25.55 1.25 1.25s-.55 1.25-1.25 1.25-1.25-.55-1.25-1.25.55-1.25 1.25-1.25M3 .25C1.49.25.25 1.49.25 3S1.49 5.75 3 5.75 5.75 4.51 5.75 3 4.51.25 3 .25m0 1.5c.7 0 1.25.55 1.25 1.25S3.7 4.25 3 4.25 1.75 3.7 1.75 3 2.3 1.75 3 1.75M21 .25c-1.51 0-2.75 1.24-2.75 2.75S19.49 5.75 21 5.75 23.75 4.51 23.75 3 22.51.25 21 .25m0 1.5c.7 0 1.25.55 1.25 1.25S21.7 4.25 21 4.25 19.75 3.7 19.75 3 20.3 1.75 21 1.75M9.572 8.75C7.758 8.75 6.25 10.202 6.25 12c0 1.549 1.115 2.845 2.588 3.17.24.053.488.08.734.08a.75.75 0 0 0 .75-.75.75.75 0 0 0-.752-.75q-.206 0-.408-.045C8.345 13.525 7.75 12.83 7.75 12c0-.964.796-1.75 1.822-1.75h.856c.97 0 1.822.968 1.822 1.75a.75.75 0 0 0 .75.75.75.75 0 0 0 .75-.75c0-1.711-1.466-3.25-3.322-3.25z" style="color:#000;fill:currentColor;stroke-linecap:round;stroke-linejoin:round;-inkscape-stroke:none"/>
    <path d="M14.428 8.75a.75.75 0 0 0-.75.75.75.75 0 0 0 .752.75q.206 0 .408.045c.816.18 1.412.874 1.412 1.705 0 .964-.796 1.75-1.822 1.75h-.856c-.97 0-1.822-.969-1.822-1.75a.75.75 0 0 0-.75-.75.75.75 0 0 0-.75.75c0 1.71 1.466 3.25 3.322 3.25h.856c1.814 0 3.322-1.452 3.322-3.25 0-1.55-1.114-2.845-2.588-3.17a3.4 3.4 0 0 0-.734-.08M21 4.25a.75.75 0 0 0-.75.75v14a.75.75 0 0 0 .75.75.75.75 0 0 0 .75-.75V5a.75.75 0 0 0-.75-.75M3 4.25a.75.75 0 0 0-.75.75v14a.75.75 0 0 0 .75.75.75.75 0 0 0 .75-.75V5A.75.75 0 0 0 3 4.25M5 2.25a.75.75 0 0 0-.75.75.75.75 0 0 0 .75.75h14a.75.75 0 0 0 .75-.75.75.75 0 0 0-.75-.75ZM5 20.25a.75.75 0 0 0-.75.75.75.75 0 0 0 .75.75h14a.75.75 0 0 0 .75-.75.75.75 0 0 0-.75-.75Z" style="color:#000;fill:currentColor;stroke-linecap:round;stroke-linejoin:round;-inkscape-stroke:none"/>
</svg>
