<svg xmlns="http://www.w3.org/2000/svg" width="24" height="24" fill="none" stroke-width="1.5" viewBox="0 0 24 24">
    <path d="M12.002 1.25c-5.566 0-10.156 4.245-10.695 9.676a.75.75 0 0 0 .672.82.75.75 0 0 0 .82-.672 9.24 9.24 0 0 1 9.203-8.324 9.25 9.25 0 0 1 8.355 5.273c.206.432.646.727 1.143.727.683 0 1.252-.57 1.252-1.254V3a.75.75 0 0 0-.75-.75.75.75 0 0 0-.75.75v3.684c-1.858-3.22-5.272-5.434-9.25-5.434" style="color:#000;fill:currentColor;stroke-linecap:round;stroke-linejoin:round;-inkscape-stroke:none"/>
    <path d="M9 7.25c-1.51 0-2.75 1.24-2.75 2.75v5c0 1.51 1.24 2.75 2.75 2.75h6c1.51 0 2.75-1.24 2.75-2.75v-5c0-1.51-1.24-2.75-2.75-2.75Zm0 1.5h6c.7 0 1.25.55 1.25 1.25v5c0 .7-.55 1.25-1.25 1.25H9c-.7 0-1.25-.55-1.25-1.25v-5c0-.7.55-1.25 1.25-1.25" style="color:#000;fill:currentColor;stroke-linecap:round;stroke-linejoin:round;-inkscape-stroke:none"/>
    <path d="M12 7.25a.75.75 0 0 0-.75.75v3a.75.75 0 0 0 .75.75.75.75 0 0 0 .75-.75V8a.75.75 0 0 0-.75-.75M22.076 12.254a.75.75 0 0 0-.82.672 9.244 9.244 0 0 1-9.205 8.324 9.24 9.24 0 0 1-8.354-5.273 1.27 1.27 0 0 0-1.142-.727c-.683 0-1.254.57-1.254 1.254V21a.75.75 0 0 0 .75.75.75.75 0 0 0 .75-.75v-3.684c1.858 3.221 5.272 5.434 9.25 5.434 5.566 0 10.158-4.245 10.697-9.676a.75.75 0 0 0-.672-.82" style="color:#000;fill:currentColor;stroke-linecap:round;stroke-linejoin:round;-inkscape-stroke:none"/>
</svg>
