<svg xmlns="http://www.w3.org/2000/svg" width="24" height="24" fill="none" stroke-width="1.5" viewBox="0 0 24 24">
    <path d="M15.117 1.76a.75.75 0 0 0-.558.133.75.75 0 0 0-.166 1.048c3.796 5.22 3.796 12.897 0 18.118a.75.75 0 0 0 .166 1.048.75.75 0 0 0 1.048-.166c4.204-5.78 4.204-14.103 0-19.882a.75.75 0 0 0-.49-.3" style="color:#000;fill:currentColor;stroke-linecap:round;stroke-linejoin:round;-inkscape-stroke:none"/>
    <path d="M11.07 3.385a.75.75 0 0 0-.185 1.045c3.338 4.769 3.338 10.371 0 15.14a.75.75 0 0 0 .185 1.045.75.75 0 0 0 1.045-.185c3.662-5.231 3.662-11.629 0-16.86a.75.75 0 0 0-1.045-.185" style="color:#000;fill:currentColor;stroke-linecap:round;stroke-linejoin:round;-inkscape-stroke:none"/>
    <path d="M8.625 5.26a.75.75 0 0 0-.56.129.75.75 0 0 0-.176 1.047c2.502 3.519 2.502 7.61 0 11.128a.75.75 0 0 0 .175 1.047.75.75 0 0 0 1.047-.175c2.831-3.981 2.831-8.89 0-12.872a.75.75 0 0 0-.486-.304" style="color:#000;fill:currentColor;stroke-linecap:round;stroke-linejoin:round;-inkscape-stroke:none"/>
    <path d="M5.682 7.271a.75.75 0 0 0-.569.086.75.75 0 0 0-.256 1.03c1.364 2.273 1.364 4.953 0 7.226a.75.75 0 0 0 .256 1.03.75.75 0 0 0 1.03-.256 8.454 8.454 0 0 0 0-8.774.75.75 0 0 0-.461-.342" style="color:#000;fill:currentColor;stroke-linecap:round;stroke-linejoin:round;-inkscape-stroke:none"/>
</svg>
