<svg xmlns="http://www.w3.org/2000/svg" width="24" height="24" fill="none" stroke-width="1.5" viewBox="0 0 24 24">
    <path d="M12 1.25C6.072 1.25 1.25 6.072 1.25 12S6.072 22.75 12 22.75 22.75 17.928 22.75 12 17.928 1.25 12 1.25m0 1.5A9.239 9.239 0 0 1 21.25 12 9.239 9.239 0 0 1 12 21.25 9.239 9.239 0 0 1 2.75 12 9.239 9.239 0 0 1 12 2.75" style="color:#000;fill:currentColor;stroke-linecap:round;stroke-linejoin:round;-inkscape-stroke:none"/>
    <path d="M12.5 8.25A3.761 3.761 0 0 0 8.75 12a3.761 3.761 0 0 0 3.75 3.75c.436 0 .859-.075 1.25-.213a.75.75 0 0 0 .457-.957.75.75 0 0 0-.957-.457 2.241 2.241 0 0 1-.75.127A2.239 2.239 0 0 1 10.25 12c0-1.252.998-2.25 2.25-2.25.265 0 .516.044.75.127a.75.75 0 0 0 .957-.457.75.75 0 0 0-.457-.957 3.75 3.75 0 0 0-1.25-.213" style="color:#000;fill:currentColor;stroke-linecap:round;stroke-linejoin:round;-inkscape-stroke:none"/>
</svg>
