<svg xmlns="http://www.w3.org/2000/svg" width="24" height="24" fill="none" stroke-width="1.5" viewBox="0 0 24 24">
    <path d="M20.04 15.25a.75.75 0 0 0-.542.191.75.75 0 0 0-.055 1.059l.01.012a.75.75 0 0 0 1.059.054.75.75 0 0 0 .054-1.058l-.01-.012a.75.75 0 0 0-.517-.246M19.498 19.441a.75.75 0 0 0-.055 1.059l.01.012a.75.75 0 0 0 1.059.054.75.75 0 0 0 .054-1.058l-.01-.012a.75.75 0 0 0-1.058-.055M16.04 19.25a.75.75 0 0 0-.542.191.75.75 0 0 0-.055 1.059l.01.012a.75.75 0 0 0 1.059.054.75.75 0 0 0 .054-1.058l-.01-.012a.75.75 0 0 0-.517-.246M11.498 19.441a.75.75 0 0 0-.055 1.059l.01.012a.75.75 0 0 0 1.059.054.75.75 0 0 0 .054-1.058l-.01-.012a.75.75 0 0 0-1.058-.055M7.498 19.441a.75.75 0 0 0-.055 1.059l.01.012a.75.75 0 0 0 1.059.054.75.75 0 0 0 .054-1.058l-.01-.012a.75.75 0 0 0-1.058-.055M4.04 19.25a.75.75 0 0 0-.542.191.75.75 0 0 0-.055 1.059l.01.012a.75.75 0 0 0 1.059.054.75.75 0 0 0 .054-1.058l-.01-.012a.75.75 0 0 0-.517-.246M4.04 15.25a.75.75 0 0 0-.542.191.75.75 0 0 0-.055 1.059l.01.012a.75.75 0 0 0 1.059.054.75.75 0 0 0 .054-1.058l-.01-.012a.75.75 0 0 0-.517-.246M4.04 11.25a.75.75 0 0 0-.542.191.75.75 0 0 0-.055 1.059l.01.012a.75.75 0 0 0 1.059.054.75.75 0 0 0 .054-1.058l-.01-.012a.75.75 0 0 0-.517-.246M3.498 7.441A.75.75 0 0 0 3.443 8.5l.01.012a.75.75 0 0 0 1.059.056.75.75 0 0 0 .056-1.06l-.011-.01a.75.75 0 0 0-1.059-.057M3.498 3.441A.75.75 0 0 0 3.443 4.5l.01.012a.75.75 0 0 0 1.059.056.75.75 0 0 0 .056-1.06l-.011-.01a.75.75 0 0 0-1.059-.057M8.04 3.25a.75.75 0 0 0-.542.191.75.75 0 0 0-.055 1.059l.01.012a.75.75 0 0 0 1.059.056.75.75 0 0 0 .056-1.06l-.011-.01a.75.75 0 0 0-.518-.248M12.01 3.25a.75.75 0 0 0-.75.75v8a.75.75 0 0 0 .75.75h8a.75.75 0 0 0 .75-.75V4a.75.75 0 0 0-.75-.75zm.75 1.5h6.5v6.5h-6.5z" style="color:#000;fill:currentColor;stroke-linecap:round;stroke-linejoin:round;-inkscape-stroke:none"/>
</svg>
