<svg xmlns="http://www.w3.org/2000/svg" width="24" height="24" fill="none" stroke-width="1.5" viewBox="0 0 24 24">
    <path d="M4.04 7.252a.75.75 0 0 0-.542.191.75.75 0 0 0-.055 1.059l.01.012a.75.75 0 0 0 1.059.054.75.75 0 0 0 .056-1.058l-.01-.012a.75.75 0 0 0-.519-.246M4.04 3.252a.75.75 0 0 0-.542.191.75.75 0 0 0-.055 1.059l.01.012a.75.75 0 0 0 1.059.054.75.75 0 0 0 .056-1.058l-.01-.012a.75.75 0 0 0-.519-.246M8.04 3.252a.75.75 0 0 0-.542.191.75.75 0 0 0-.055 1.059l.01.012a.75.75 0 0 0 1.059.054.75.75 0 0 0 .056-1.058l-.01-.012a.75.75 0 0 0-.519-.246M11.498 3.443a.75.75 0 0 0-.055 1.059l.01.012a.75.75 0 0 0 1.059.054.75.75 0 0 0 .056-1.058l-.01-.012a.75.75 0 0 0-1.06-.055M15.498 3.443a.75.75 0 0 0-.055 1.059l.01.012a.75.75 0 0 0 1.059.054.75.75 0 0 0 .056-1.058l-.01-.012a.75.75 0 0 0-1.06-.055M20.04 3.252a.75.75 0 0 0-.542.191.75.75 0 0 0-.055 1.059l.01.012a.75.75 0 0 0 1.059.054.75.75 0 0 0 .056-1.058l-.01-.012a.75.75 0 0 0-.519-.246M20.04 7.252a.75.75 0 0 0-.542.191.75.75 0 0 0-.055 1.059l.01.012a.75.75 0 0 0 1.059.054.75.75 0 0 0 .056-1.058l-.01-.012a.75.75 0 0 0-.519-.246M20.04 11.252a.75.75 0 0 0-.542.191.75.75 0 0 0-.055 1.059l.01.012a.75.75 0 0 0 1.059.054.75.75 0 0 0 .056-1.058l-.01-.012a.75.75 0 0 0-.519-.246M20.04 15.252a.75.75 0 0 0-.542.191.75.75 0 0 0-.055 1.059l.01.012a.75.75 0 0 0 1.059.054.75.75 0 0 0 .056-1.058l-.01-.012a.75.75 0 0 0-.519-.246M20.04 19.252a.75.75 0 0 0-.542.191.75.75 0 0 0-.055 1.059l.01.012a.75.75 0 0 0 1.059.054.75.75 0 0 0 .056-1.058l-.01-.012a.75.75 0 0 0-.519-.246M16.04 19.252a.75.75 0 0 0-.542.191.75.75 0 0 0-.055 1.059l.01.012a.75.75 0 0 0 1.059.054.75.75 0 0 0 .056-1.058l-.01-.012a.75.75 0 0 0-.519-.246M4 11.26a.75.75 0 0 0-.75.75v8a.75.75 0 0 0 .75.75h8a.75.75 0 0 0 .75-.75v-8a.75.75 0 0 0-.75-.75zm.75 1.5h6.5v6.5h-6.5z" style="color:#000;fill:currentColor;stroke-linecap:round;stroke-linejoin:round;-inkscape-stroke:none"/>
</svg>
