<svg xmlns="http://www.w3.org/2000/svg" width="24" height="24" fill="none" stroke-width="1.5" viewBox="0 0 24 24">
    <path d="M19 7.25a.75.75 0 0 0-.75.75.75.75 0 0 0 .75.75h1c.7 0 1.25.55 1.25 1.25v.678H19a.75.75 0 0 0-.75.75.75.75 0 0 0 .75.75h2.25V18c0 .7-.55 1.25-1.25 1.25H7c-.7 0-1.25-.55-1.25-1.25v-1.5a.75.75 0 0 0-.75-.75.75.75 0 0 0-.75.75V18c0 1.51 1.24 2.75 2.75 2.75h13c1.51 0 2.75-1.24 2.75-2.75v-8c0-1.51-1.24-2.75-2.75-2.75Z" style="color:#000;fill:currentColor;stroke-linecap:round;stroke-linejoin:round;-inkscape-stroke:none"/>
    <path d="M4 3.75c-1.51 0-2.75 1.24-2.75 2.75v8c0 1.51 1.24 2.75 2.75 2.75h13c1.51 0 2.75-1.24 2.75-2.75v-8c0-1.51-1.24-2.75-2.75-2.75Zm0 1.5h13c.7 0 1.25.55 1.25 1.25v.75H5.5a.75.75 0 0 0-.75.75.75.75 0 0 0 .75.75h12.75v5.75c0 .7-.55 1.25-1.25 1.25H4c-.7 0-1.25-.55-1.25-1.25v-8c0-.7.55-1.25 1.25-1.25" style="color:#000;fill:currentColor;stroke-linecap:round;stroke-linejoin:round;-inkscape-stroke:none"/>
</svg>
