<svg xmlns="http://www.w3.org/2000/svg" width="24" height="24" fill="none" stroke-width="1.5" viewBox="0 0 24 24">
    <path d="M6 8.25a.75.75 0 0 0-.75.75.75.75 0 0 0 .75.75h3A.75.75 0 0 0 9.75 9 .75.75 0 0 0 9 8.25Z" style="color:#000;fill:currentColor;stroke-linecap:round;stroke-linejoin:round;-inkscape-stroke:none"/>
    <path d="M3 2.25a.75.75 0 0 0-.531.219.75.75 0 0 0 0 1.062l18 18a.75.75 0 0 0 1.062 0 .75.75 0 0 0 0-1.062l-18-18A.75.75 0 0 0 3 2.25" style="color:#000;fill:currentColor;stroke-linecap:round;stroke-linejoin:round;-inkscape-stroke:none"/>
    <path d="M4 4.25C2.49 4.25 1.25 5.49 1.25 7v10c0 1.51 1.24 2.75 2.75 2.75h16c1.51 0 2.75-1.24 2.75-2.75V7c0-1.51-1.24-2.75-2.75-2.75H10a.75.75 0 0 0-.75.75.75.75 0 0 0 .75.75h10c.7 0 1.25.55 1.25 1.25v1.25H14a.75.75 0 0 0-.75.75.75.75 0 0 0 .75.75h7.25V17c0 .7-.55 1.25-1.25 1.25H4c-.7 0-1.25-.55-1.25-1.25V7c0-.7.55-1.25 1.25-1.25h1A.75.75 0 0 0 5.75 5 .75.75 0 0 0 5 4.25Z" style="color:#000;fill:currentColor;stroke-linecap:round;stroke-linejoin:round;-inkscape-stroke:none"/>
    <path d="M6 8.25a.75.75 0 0 0-.75.75.75.75 0 0 0 .75.75h3A.75.75 0 0 0 9.75 9 .75.75 0 0 0 9 8.25Z" style="color:#000;fill:currentColor;stroke-linecap:round;stroke-linejoin:round;-inkscape-stroke:none"/>
</svg>
