<svg xmlns="http://www.w3.org/2000/svg" width="24" height="24" fill="none" stroke-width="1.5" viewBox="0 0 24 24">
    <path d="M21 11.25a.75.75 0 0 0-.75.75v4A3.24 3.24 0 0 1 17 19.25h-3a.75.75 0 0 0-.75.75.75.75 0 0 0 .75.75h3A4.76 4.76 0 0 0 21.75 16v-4a.75.75 0 0 0-.75-.75" style="color:#000;fill:currentColor;stroke-linecap:round;stroke-linejoin:round;-inkscape-stroke:none"/>
    <path d="M16.5 16.75a.75.75 0 0 0-.531.219l-2.5 2.5a.75.75 0 0 0 0 1.062l2.5 2.5a.75.75 0 0 0 1.062 0 .75.75 0 0 0 0-1.062L15.063 20l1.968-1.969a.75.75 0 0 0 0-1.062.75.75 0 0 0-.531-.219M7 3.25a.75.75 0 0 0-.75.75.75.75 0 0 0 .75.75h6a.24.24 0 0 1 .25.25v6a.75.75 0 0 0 .75.75.75.75 0 0 0 .75-.75V5c0-.958-.792-1.75-1.75-1.75ZM2 3.25a.75.75 0 0 0-.75.75.75.75 0 0 0 .75.75h2A.75.75 0 0 0 4.75 4 .75.75 0 0 0 4 3.25ZM14 13.25a.75.75 0 0 0-.75.75v2a.75.75 0 0 0 .75.75.75.75 0 0 0 .75-.75v-2a.75.75 0 0 0-.75-.75" style="color:#000;fill:currentColor;stroke-linecap:round;stroke-linejoin:round;-inkscape-stroke:none"/>
    <path d="M4 1.25a.75.75 0 0 0-.75.75v11c0 .958.792 1.75 1.75 1.75h11a.75.75 0 0 0 .75-.75.75.75 0 0 0-.75-.75H5a.24.24 0 0 1-.25-.25V2A.75.75 0 0 0 4 1.25" style="color:#000;fill:currentColor;stroke-linecap:round;stroke-linejoin:round;-inkscape-stroke:none"/>
</svg>
