<svg xmlns="http://www.w3.org/2000/svg" width="24" height="24" fill="none" stroke-width="1.5" viewBox="0 0 24 24">
    <path d="M7 3.25A4.76 4.76 0 0 0 2.25 8v4a.75.75 0 0 0 .75.75.75.75 0 0 0 .75-.75V8A3.24 3.24 0 0 1 7 4.75h3a.75.75 0 0 0 .75-.75.75.75 0 0 0-.75-.75Z" style="color:#000;fill:currentColor;stroke-linecap:round;stroke-linejoin:round;-inkscape-stroke:none"/>
    <path d="M7.5.75a.75.75 0 0 0-.531.219.75.75 0 0 0 0 1.062L8.937 4 6.97 5.969a.75.75 0 0 0 0 1.062.75.75 0 0 0 1.062 0l2.5-2.5a.75.75 0 0 0 0-1.062l-2.5-2.5A.75.75 0 0 0 7.5.75M13 9.25a.75.75 0 0 0-.75.75.75.75 0 0 0 .75.75h6a.24.24 0 0 1 .25.25v6a.75.75 0 0 0 .75.75.75.75 0 0 0 .75-.75v-6c0-.958-.792-1.75-1.75-1.75ZM8 9.25a.75.75 0 0 0-.75.75.75.75 0 0 0 .75.75h2a.75.75 0 0 0 .75-.75.75.75 0 0 0-.75-.75ZM20 19.25a.75.75 0 0 0-.75.75v2a.75.75 0 0 0 .75.75.75.75 0 0 0 .75-.75v-2a.75.75 0 0 0-.75-.75" style="color:#000;fill:currentColor;stroke-linecap:round;stroke-linejoin:round;-inkscape-stroke:none"/>
    <path d="M10 7.25a.75.75 0 0 0-.75.75v11c0 .958.792 1.75 1.75 1.75h11a.75.75 0 0 0 .75-.75.75.75 0 0 0-.75-.75H11a.24.24 0 0 1-.25-.25V8a.75.75 0 0 0-.75-.75" style="color:#000;fill:currentColor;stroke-linecap:round;stroke-linejoin:round;-inkscape-stroke:none"/>
</svg>
