<svg xmlns="http://www.w3.org/2000/svg" width="24" height="24" fill="none" stroke-width="1.5" viewBox="0 0 24 24">
    <path d="M6 2.25a.75.75 0 0 0-.75.75v15a.75.75 0 0 0 .75.75h15a.75.75 0 0 0 .75-.75.75.75 0 0 0-.75-.75H6.75V3A.75.75 0 0 0 6 2.25" style="color:#000;fill:currentColor;stroke-linecap:round;stroke-linejoin:round;-inkscape-stroke:none"/>
    <path d="M3 5.25a.75.75 0 0 0-.75.75.75.75 0 0 0 .75.75h14.25V21a.75.75 0 0 0 .75.75.75.75 0 0 0 .75-.75V6a.75.75 0 0 0-.75-.75Z" style="color:#000;fill:currentColor;stroke-linecap:round;stroke-linejoin:round;-inkscape-stroke:none"/>
</svg>
