<svg xmlns="http://www.w3.org/2000/svg" width="24" height="24" fill="none" stroke-width="1.5" viewBox="0 0 24 24">
    <path d="M12 2.25a.75.75 0 0 0-.75.75.75.75 0 0 0 .75.75h4A3.239 3.239 0 0 1 19.25 7v3a.75.75 0 0 0 .75.75.75.75 0 0 0 .75-.75V7A4.761 4.761 0 0 0 16 2.25Z" style="color:#000;fill:currentColor;stroke-linecap:round;stroke-linejoin:round;-inkscape-stroke:none"/>
    <path d="M17.5 6.75a.75.75 0 0 0-.531.219.75.75 0 0 0 0 1.062l2.5 2.5a.75.75 0 0 0 1.062 0l2.5-2.5a.75.75 0 0 0 0-1.062.75.75 0 0 0-1.062 0L20 8.937 18.031 6.97a.75.75 0 0 0-.531-.219M7 9.25a.75.75 0 0 0-.75.75.75.75 0 0 0 .75.75h6a.24.24 0 0 1 .25.25v6a.75.75 0 0 0 .75.75.75.75 0 0 0 .75-.75v-6c0-.958-.792-1.75-1.75-1.75ZM2 9.25a.75.75 0 0 0-.75.75.75.75 0 0 0 .75.75h2a.75.75 0 0 0 .75-.75.75.75 0 0 0-.75-.75ZM14 19.25a.75.75 0 0 0-.75.75v2a.75.75 0 0 0 .75.75.75.75 0 0 0 .75-.75v-2a.75.75 0 0 0-.75-.75" style="color:#000;fill:currentColor;stroke-linecap:round;stroke-linejoin:round;-inkscape-stroke:none"/>
    <path d="M4 7.25a.75.75 0 0 0-.75.75v11c0 .958.792 1.75 1.75 1.75h11a.75.75 0 0 0 .75-.75.75.75 0 0 0-.75-.75H5a.24.24 0 0 1-.25-.25V8A.75.75 0 0 0 4 7.25" style="color:#000;fill:currentColor;stroke-linecap:round;stroke-linejoin:round;-inkscape-stroke:none"/>
</svg>
