<svg xmlns="http://www.w3.org/2000/svg" width="24" height="24" fill="none" stroke-width="1.5" viewBox="0 0 24 24">
    <path d="M4 13.25a.75.75 0 0 0-.75.75v3A4.76 4.76 0 0 0 8 21.75h4a.75.75 0 0 0 .75-.75.75.75 0 0 0-.75-.75H8A3.24 3.24 0 0 1 4.75 17v-3a.75.75 0 0 0-.75-.75" style="color:#000;fill:currentColor;stroke-linecap:round;stroke-linejoin:round;-inkscape-stroke:none"/>
    <path d="m3.469 13.469-2.5 2.5a.75.75 0 0 0 0 1.062.75.75 0 0 0 1.062 0L4 15.063l1.969 1.968a.75.75 0 0 0 1.062 0 .75.75 0 0 0 0-1.062l-2.5-2.5a.75.75 0 0 0-1.062 0M13 3.25a.75.75 0 0 0-.75.75.75.75 0 0 0 .75.75h6a.24.24 0 0 1 .25.25v6a.75.75 0 0 0 .75.75.75.75 0 0 0 .75-.75V5c0-.958-.792-1.75-1.75-1.75ZM8 3.25a.75.75 0 0 0-.75.75.75.75 0 0 0 .75.75h2a.75.75 0 0 0 .75-.75.75.75 0 0 0-.75-.75ZM20 13.25a.75.75 0 0 0-.75.75v2a.75.75 0 0 0 .75.75.75.75 0 0 0 .75-.75v-2a.75.75 0 0 0-.75-.75" style="color:#000;fill:currentColor;stroke-linecap:round;stroke-linejoin:round;-inkscape-stroke:none"/>
    <path d="M10 1.25a.75.75 0 0 0-.75.75v11c0 .958.792 1.75 1.75 1.75h11a.75.75 0 0 0 .75-.75.75.75 0 0 0-.75-.75H11a.24.24 0 0 1-.25-.25V2a.75.75 0 0 0-.75-.75" style="color:#000;fill:currentColor;stroke-linecap:round;stroke-linejoin:round;-inkscape-stroke:none"/>
</svg>
