<svg xmlns="http://www.w3.org/2000/svg" width="24" height="24" fill="none" stroke-width="1.5" viewBox="0 0 24 24">
    <path d="M4 2.25a.75.75 0 0 0-.746.828l1.777 17.09a.75.75 0 0 0 .528.639l6.22 1.91a.75.75 0 0 0 .442 0l6.22-1.91a.75.75 0 0 0 .528-.639l1.777-17.09A.75.75 0 0 0 20 2.25Zm.832 1.5h14.336l-1.64 15.77L12 21.215 6.473 19.52Z" style="color:#000;fill:currentColor;stroke-linecap:round;stroke-linejoin:round;-inkscape-stroke:none"/>
    <path d="M7 6.25a.75.75 0 0 0-.75.75.75.75 0 0 0 .75.75h8.672l-.867 8.668-2.805.803-2.805-.803-.199-1.992a.75.75 0 0 0-.82-.672.75.75 0 0 0-.672.82l.25 2.5a.75.75 0 0 0 .54.647l3.5 1a.75.75 0 0 0 .411 0l3.5-1a.75.75 0 0 0 .541-.647l1-10a.75.75 0 0 0-.746-.824Z" style="color:#000;fill:currentColor;stroke-linecap:round;stroke-linejoin:round;-inkscape-stroke:none"/>
    <path d="M7.5 10.75a.75.75 0 0 0-.75.75.75.75 0 0 0 .75.75H16a.75.75 0 0 0 .75-.75.75.75 0 0 0-.75-.75Z" style="color:#000;fill:currentColor;stroke-linecap:round;stroke-linejoin:round;-inkscape-stroke:none"/>
</svg>
