<svg xmlns="http://www.w3.org/2000/svg" width="24" height="24" fill="none" stroke-width="1.5" viewBox="0 0 24 24">
    <path d="M11.344 1.506 2.945 6.174c-.427.237-.695.69-.695 1.18v9.292c0 .49.266.943.693 1.18a.75.75 0 0 0 .002 0l8.399 4.668c.407.226.905.226 1.312 0l8.399-4.668a.75.75 0 0 0 .002 0c.427-.237.693-.69.693-1.18V7.354c0-.49-.266-.943-.693-1.18a.75.75 0 0 0-.002 0l-8.399-4.668a1.355 1.355 0 0 0-1.312 0M12 2.859l8.25 4.582v9.118L12 21.14l-8.25-4.582V7.44Z" style="color:#000;fill:currentColor;stroke-linecap:round;stroke-linejoin:round;-inkscape-stroke:none"/>
    <path d="M20.705 6.557a.75.75 0 0 0-.568.066L12 11.141 3.893 6.639a.75.75 0 0 0-1.02.29.75.75 0 0 0 .291 1.02l8.18 4.545c.407.226.905.226 1.312 0l8.207-4.56a.75.75 0 0 0 .293-1.02.75.75 0 0 0-.45-.357" style="color:#000;fill:currentColor;stroke-linecap:round;stroke-linejoin:round;-inkscape-stroke:none"/>
    <path d="M12 11.25a.75.75 0 0 0-.75.75v9a.75.75 0 0 0 .75.75.75.75 0 0 0 .75-.75v-9a.75.75 0 0 0-.75-.75" style="color:#000;fill:currentColor;stroke-linecap:round;stroke-linejoin:round;-inkscape-stroke:none"/>
</svg>
