<svg xmlns="http://www.w3.org/2000/svg" width="24" height="24" fill="none" stroke-width="1.5" viewBox="0 0 24 24">
    <path d="M3.893 6.639a.75.75 0 0 0-1.02.29.75.75 0 0 0 .291 1.02l5.473 3.04a.75.75 0 0 0 1.02-.292.75.75 0 0 0-.294-1.02ZM20 1.25a.75.75 0 0 0-.75.75.75.75 0 0 0 .75.75h2a.75.75 0 0 0 .75-.75.75.75 0 0 0-.75-.75Zm-2.734.436A8.76 8.76 0 0 0 11.25 10v2a.75.75 0 0 0 .75.75.75.75 0 0 0 .75-.75v-2a7.25 7.25 0 0 1 4.984-6.889.75.75 0 0 0 .479-.947.75.75 0 0 0-.947-.478M20 11.25a.75.75 0 0 0-.75.75.75.75 0 0 0 .75.75h2a.75.75 0 0 0 .75-.75.75.75 0 0 0-.75-.75Zm-2.734.436A8.76 8.76 0 0 0 11.25 20v2a.75.75 0 0 0 .75.75.75.75 0 0 0 .75-.75v-2a7.25 7.25 0 0 1 4.984-6.889.75.75 0 0 0 .479-.947.75.75 0 0 0-.947-.478" style="color:#000;fill:currentColor;stroke-linecap:round;stroke-linejoin:round;-inkscape-stroke:none"/>
    <path d="M11.344 1.506 2.945 6.174c-.427.237-.695.69-.695 1.18v9.292c0 .49.266.943.693 1.18h.002l8.692 4.83a.75.75 0 0 0 1.02-.293.75.75 0 0 0-.294-1.02L3.75 16.56V7.44L12 2.86l2.637 1.463a.75.75 0 0 0 1.02-.29.75.75 0 0 0-.294-1.02l-2.707-1.506a1.36 1.36 0 0 0-1.312 0" style="color:#000;fill:currentColor;stroke-linecap:round;stroke-linejoin:round;-inkscape-stroke:none"/>
    <path d="M3.893 6.639a.75.75 0 0 0-1.02.29.75.75 0 0 0 .291 1.02l8.473 4.707a.75.75 0 0 0 1.02-.293.75.75 0 0 0-.294-1.02Z" style="color:#000;fill:currentColor;stroke-linecap:round;stroke-linejoin:round;-inkscape-stroke:none"/>
    <path d="M12 11.25a.75.75 0 0 0-.75.75v9a.75.75 0 0 0 .75.75.75.75 0 0 0 .75-.75v-9a.75.75 0 0 0-.75-.75M15 3.25a.75.75 0 0 0-.75.75v9.5a.75.75 0 0 0 .75.75.75.75 0 0 0 .75-.75V4a.75.75 0 0 0-.75-.75" style="color:#000;fill:currentColor;stroke-linecap:round;stroke-linejoin:round;-inkscape-stroke:none"/>
</svg>
