<svg xmlns="http://www.w3.org/2000/svg" width="24" height="24" fill="none" stroke-width="1.5" viewBox="0 0 24 24">
    <path d="M12 7.25A4.761 4.761 0 0 0 7.25 12 4.761 4.761 0 0 0 12 16.75 4.761 4.761 0 0 0 16.75 12 4.761 4.761 0 0 0 12 7.25m0 1.5A3.239 3.239 0 0 1 15.25 12 3.239 3.239 0 0 1 12 15.25 3.239 3.239 0 0 1 8.75 12 3.239 3.239 0 0 1 12 8.75" style="color:#000;fill:currentColor;stroke-linecap:round;stroke-linejoin:round;-inkscape-stroke:none"/>
    <path d="M11.344 1.506 2.945 6.174c-.427.237-.695.69-.695 1.18v9.292c0 .49.266.943.693 1.18a.75.75 0 0 0 .002 0l8.399 4.668c.407.226.905.226 1.312 0l8.399-4.668a.75.75 0 0 0 .002 0c.427-.237.693-.69.693-1.18V7.354c0-.49-.266-.943-.693-1.18a.75.75 0 0 0-.002 0l-8.399-4.668a1.355 1.355 0 0 0-1.312 0M12 2.859l8.25 4.582v9.118L12 21.14l-8.25-4.582V7.44Z" style="color:#000;fill:currentColor;stroke-linecap:round;stroke-linejoin:round;-inkscape-stroke:none"/>
    <path d="M20.705 6.557a.75.75 0 0 0-.568.066l-4.9 2.72a.75.75 0 0 0-.292 1.022.75.75 0 0 0 1.02.291l4.898-2.722a.75.75 0 0 0 .293-1.02.75.75 0 0 0-.45-.357m-17.383.015a.75.75 0 0 0-.449.358.75.75 0 0 0 .291 1.02l4.871 2.706a.75.75 0 0 0 1.02-.29.75.75 0 0 0-.291-1.022L3.893 6.639a.75.75 0 0 0-.57-.067M12 15.25a.75.75 0 0 0-.75.75v5a.75.75 0 0 0 .75.75.75.75 0 0 0 .75-.75v-5a.75.75 0 0 0-.75-.75" style="color:#000;fill:currentColor;stroke-linecap:round;stroke-linejoin:round;-inkscape-stroke:none"/>
</svg>
