<svg xmlns="http://www.w3.org/2000/svg" width="24" height="24" fill="none" stroke-width="1.5" viewBox="0 0 24 24">
    <path d="M5 12.25a.75.75 0 0 0-.75.75v5.652c0 .484.26.932.68 1.172l6.4 3.656c.414.237.926.237 1.34 0l6.4-3.656c.42-.24.68-.688.68-1.172V13.5a.75.75 0 0 0-.75-.75.75.75 0 0 0-.75.75v5.064L12 22.137l-6.25-3.573V13a.75.75 0 0 0-.75-.75m6.926 9.928h.004l-.004.002zm.144 0h.004v.002z" style="color:#000;fill:currentColor;stroke-linecap:round;stroke-linejoin:round;-inkscape-stroke:none"/>
    <path d="M12 16.25a.75.75 0 0 0-.75.75v5.5a.75.75 0 0 0 .75.75.75.75 0 0 0 .75-.75V17a.75.75 0 0 0-.75-.75M10.809.275a.75.75 0 0 0-.457.348.75.75 0 0 0 .271 1.025l12 7a.75.75 0 0 0 1.025-.271.75.75 0 0 0-.271-1.025l-12-7a.75.75 0 0 0-.568-.077M.809 7.275a.75.75 0 0 0-.457.348.75.75 0 0 0 .271 1.025l12 7a.75.75 0 0 0 1.025-.271.75.75 0 0 0-.271-1.025l-12-7a.75.75 0 0 0-.568-.077" style="color:#000;fill:currentColor;stroke-linecap:round;stroke-linejoin:round;-inkscape-stroke:none"/>
    <path d="M10.818.271a.75.75 0 0 0-.46.342C8.967 2.93 7.544 3.28 5.794 3.78c-1.75.5-3.828 1.151-5.438 3.834a.75.75 0 0 0 .256 1.03.75.75 0 0 0 1.03-.256C3.033 6.07 4.455 5.72 6.205 5.22c1.75-.5 3.828-1.151 5.438-3.834a.75.75 0 0 0-.256-1.03.75.75 0 0 0-.569-.086M22.818 7.271a.75.75 0 0 0-.46.342c-1.39 2.317-2.813 2.666-4.563 3.166-1.75.5-3.828 1.151-5.438 3.834a.75.75 0 0 0 .256 1.03.75.75 0 0 0 1.03-.256c1.39-2.317 2.812-2.666 4.562-3.166 1.75-.5 3.828-1.151 5.438-3.834a.75.75 0 0 0-.256-1.03.75.75 0 0 0-.569-.086" style="color:#000;fill:currentColor;stroke-linecap:round;stroke-linejoin:round;-inkscape-stroke:none"/>
</svg>
