<svg xmlns="http://www.w3.org/2000/svg" width="24" height="24" fill="none" stroke-width="1.5" viewBox="0 0 24 24">
    <path d="m11.13 4.633-6 3.428c-.543.31-.88.892-.88 1.52v5.839c0 .627.337 1.208.88 1.52l6 3.427a1.76 1.76 0 0 0 1.74 0l5.997-3.428c.545-.31.883-.892.883-1.52V9.58c0-.627-.337-1.208-.88-1.52l-6-3.427a1.76 1.76 0 0 0-1.74 0m.747 1.303a.24.24 0 0 1 .246 0l6 3.427a.25.25 0 0 1 .127.217v5.84c0 .09-.046.172-.125.217h-.002l-6 3.427a.24.24 0 0 1-.246 0l-6.002-3.427a.25.25 0 0 1-.125-.217V9.58c0-.09.046-.172.125-.217z" style="color:#000;fill:currentColor;stroke-linecap:round;stroke-linejoin:round;-inkscape-stroke:none"/>
    <path d="M5.285 8.781a.75.75 0 0 0-.445.364.75.75 0 0 0 .305 1.015l6.105 3.287V19.5a.75.75 0 0 0 .75.75.75.75 0 0 0 .75-.75v-6.053l6.105-3.287a.75.75 0 0 0 .305-1.015.75.75 0 0 0-1.015-.305L12 12.148 5.855 8.84a.75.75 0 0 0-.57-.059M2.97 2.25a.75.75 0 0 0-.517.248l-.01.01a.75.75 0 0 0 .055 1.06.75.75 0 0 0 1.059-.056l.011-.012a.75.75 0 0 0-.056-1.059.75.75 0 0 0-.541-.191M2.97 20.25a.75.75 0 0 0-.517.246l-.01.012a.75.75 0 0 0 .055 1.058.75.75 0 0 0 1.059-.054l.01-.01a.75.75 0 0 0-.055-1.06.75.75 0 0 0-.541-.192M20.97 2.25a.75.75 0 0 0-.517.248l-.01.01a.75.75 0 0 0 .055 1.06.75.75 0 0 0 1.059-.056l.011-.012a.75.75 0 0 0-.056-1.059.75.75 0 0 0-.541-.191M21.512 20.441a.75.75 0 0 0-1.059.055l-.01.012a.75.75 0 0 0 .055 1.058.75.75 0 0 0 1.059-.054l.01-.01a.75.75 0 0 0-.055-1.06" style="color:#000;fill:currentColor;stroke-linecap:round;stroke-linejoin:round;-inkscape-stroke:none"/>
</svg>
