<svg xmlns="http://www.w3.org/2000/svg" width="24" height="24" fill="none" stroke-width="1.5" viewBox="0 0 24 24">
    <path d="M11.344 1.506 2.945 6.174c-.427.237-.695.69-.695 1.18v9.292c0 .49.266.943.693 1.18h.002l8.692 4.83a.75.75 0 0 0 1.02-.293.75.75 0 0 0-.294-1.02L3.75 16.56V7.44L12 2.86l8.25 4.582V11a.75.75 0 0 0 .75.75.75.75 0 0 0 .75-.75V7.354c0-.49-.268-.943-.695-1.18l-8.399-4.668a1.36 1.36 0 0 0-1.312 0" style="color:#000;fill:currentColor;stroke-linecap:round;stroke-linejoin:round;-inkscape-stroke:none"/>
    <path d="M20.705 6.557a.75.75 0 0 0-.568.066L12 11.141 3.893 6.639a.75.75 0 0 0-1.02.29.75.75 0 0 0 .291 1.02l8.18 4.545c.407.226.905.226 1.312 0l8.207-4.56a.75.75 0 0 0 .293-1.02.75.75 0 0 0-.45-.357" style="color:#000;fill:currentColor;stroke-linecap:round;stroke-linejoin:round;-inkscape-stroke:none"/>
    <path d="M12 11.25a.75.75 0 0 0-.75.75v5.5a.75.75 0 0 0 .75.75.75.75 0 0 0 .75-.75V12a.75.75 0 0 0-.75-.75M12 1.25a.75.75 0 0 0-.75.75v7a.75.75 0 0 0 .75.75.75.75 0 0 0 .75-.75V2a.75.75 0 0 0-.75-.75M18.656 16.492a.75.75 0 0 0-.529.22.75.75 0 0 0 0 1.061l.707.707a.75.75 0 0 0 1.06 0 .75.75 0 0 0 0-1.06l-.706-.707a.75.75 0 0 0-.532-.22M17.242 17.906a.75.75 0 0 0-.53.221.75.75 0 0 0 0 1.06l.708.708a.75.75 0 0 0 1.06 0 .75.75 0 0 0 0-1.061l-.707-.707a.75.75 0 0 0-.53-.22" style="color:#000;fill:currentColor;stroke-linecap:round;stroke-linejoin:round;-inkscape-stroke:none"/>
    <path d="M20.07 13.084a2.74 2.74 0 0 0-1.943.8l-4.242 4.243a2.76 2.76 0 0 0 0 3.889l.707.707a2.76 2.76 0 0 0 3.888 0l4.243-4.243a2.76 2.76 0 0 0 0-3.888l-.707-.707a2.74 2.74 0 0 0-1.946-.801m0 1.49c.319 0 .638.124.885.371l.707.707a1.24 1.24 0 0 1 0 1.768l-4.242 4.242a1.24 1.24 0 0 1-1.768 0l-.707-.707a1.24 1.24 0 0 1 0-1.767l4.243-4.243c.247-.247.564-.37.882-.37" style="color:#000;fill:currentColor;stroke-linecap:round;stroke-linejoin:round;-inkscape-stroke:none"/>
</svg>
