<svg xmlns="http://www.w3.org/2000/svg" width="24" height="24" fill="none" stroke-width="1.5" viewBox="0 0 24 24">
    <path d="M3 2.25a.75.75 0 0 0-.75.75v3a.75.75 0 0 0 .75.75.75.75 0 0 0 .75-.75V3.75H6A.75.75 0 0 0 6.75 3 .75.75 0 0 0 6 2.25ZM18 2.25a.75.75 0 0 0-.75.75.75.75 0 0 0 .75.75h2.25V6a.75.75 0 0 0 .75.75.75.75 0 0 0 .75-.75V3a.75.75 0 0 0-.75-.75ZM3 17.25a.75.75 0 0 0-.75.75v3a.75.75 0 0 0 .75.75h3a.75.75 0 0 0 .75-.75.75.75 0 0 0-.75-.75H3.75V18a.75.75 0 0 0-.75-.75M21 17.25a.75.75 0 0 0-.75.75v2.25H18a.75.75 0 0 0-.75.75.75.75 0 0 0 .75.75h3a.75.75 0 0 0 .75-.75v-3a.75.75 0 0 0-.75-.75M11.1 6.666l-4 2.4c-.527.316-.85.887-.85 1.5v3.868c0 .613.323 1.184.85 1.5l4 2.4a1.75 1.75 0 0 0 1.8 0l4-2.4c.527-.316.85-.887.85-1.5v-3.868c0-.613-.323-1.184-.85-1.5l-4-2.4a1.75 1.75 0 0 0-1.8 0m.771 1.285a.25.25 0 0 1 .258 0l4 2.4a.25.25 0 0 1 .121.215v3.868c0 .089-.045.169-.121.214l-4 2.4a.25.25 0 0 1-.258 0l-4-2.4a.25.25 0 0 1-.121-.214v-3.868c0-.089.045-.169.121-.214z" style="color:#000;fill:currentColor;stroke-linecap:round;stroke-linejoin:round;-inkscape-stroke:none"/>
    <path d="M16.676 9.771a.75.75 0 0 0-.567.088c-.581.355-3.584 1.996-4.109 2.284l-4.137-2.3a.75.75 0 0 0-1.02.294.75.75 0 0 0 .294 1.02l4.113 2.282V17.5a.75.75 0 0 0 .75.75.75.75 0 0 0 .75-.75v-4.059c.537-.292 3.373-1.832 4.14-2.3a.75.75 0 0 0 .25-1.032.75.75 0 0 0-.464-.338" style="color:#000;fill:currentColor;stroke-linecap:round;stroke-linejoin:round;-inkscape-stroke:none"/>
</svg>
