<svg xmlns="http://www.w3.org/2000/svg" width="24" height="24" fill="none" stroke-width="1.5" viewBox="0 0 24 24">
    <path d="M14.244 5.586a.75.75 0 0 0-.572.035c-.921.45-1.794.974-2.611 1.566a.75.75 0 0 0-.168 1.047.75.75 0 0 0 1.046.168 16.086 16.086 0 0 1 2.39-1.431.75.75 0 0 0 .345-1.004.75.75 0 0 0-.43-.381M6.051 13.29a.75.75 0 0 0-.43.38c-.483.991-.878 2.037-1.18 3.13a.75.75 0 0 0 .524.922.75.75 0 0 0 .922-.524 16.654 16.654 0 0 1 1.084-2.87.75.75 0 0 0-.346-1.003.75.75 0 0 0-.574-.035" style="color:#000;fill:currentColor;stroke-linecap:round;stroke-linejoin:round;-inkscape-stroke:none"/>
    <path d="M4.5 16.25a3.261 3.261 0 0 0-3.25 3.25 3.261 3.261 0 0 0 3.25 3.25 3.261 3.261 0 0 0 3.25-3.25 3.261 3.261 0 0 0-3.25-3.25m0 1.5c.975 0 1.75.775 1.75 1.75s-.775 1.75-1.75 1.75-1.75-.775-1.75-1.75.775-1.75 1.75-1.75M9.5 6.25A3.261 3.261 0 0 0 6.25 9.5a3.261 3.261 0 0 0 3.25 3.25 3.261 3.261 0 0 0 3.25-3.25A3.261 3.261 0 0 0 9.5 6.25m0 1.5c.975 0 1.75.775 1.75 1.75s-.775 1.75-1.75 1.75-1.75-.775-1.75-1.75.775-1.75 1.75-1.75M19.5 1.25a3.261 3.261 0 0 0-3.25 3.25 3.261 3.261 0 0 0 3.25 3.25 3.261 3.261 0 0 0 3.25-3.25 3.261 3.261 0 0 0-3.25-3.25m0 1.5c.975 0 1.75.775 1.75 1.75s-.775 1.75-1.75 1.75-1.75-.775-1.75-1.75.775-1.75 1.75-1.75" style="color:#000;fill:currentColor;stroke-linecap:round;stroke-linejoin:round;-inkscape-stroke:none"/>
</svg>
