<svg xmlns="http://www.w3.org/2000/svg" width="24" height="24" fill="none" stroke-width="1.5" viewBox="0 0 24 24">
    <path d="M17 11.25a.75.75 0 0 0-.75.75.75.75 0 0 0 .75.75h1a.75.75 0 0 0 .75-.75.75.75 0 0 0-.75-.75h-.5zM22 11.25a.75.75 0 0 0-.75.75.75.75 0 0 0 .75.75h1a.75.75 0 0 0 .75-.75.75.75 0 0 0-.75-.75h-.5zM4 1.25A3.761 3.761 0 0 0 .25 5 3.761 3.761 0 0 0 4 8.75c.834 0 1.56-.338 2.186-.803L18.51 18.568a.75.75 0 0 0 1.058-.078.75.75 0 0 0-.078-1.058L7.2 6.84c.318-.552.55-1.16.55-1.84A3.761 3.761 0 0 0 4 1.25m0 1.5c1.252 0 2.25.998 2.25 2.25 0 .58-.215 1.101-.572 1.5A2.236 2.236 0 0 1 4 7.25 2.239 2.239 0 0 1 1.75 5c0-1.252.998-2.25 2.25-2.25" style="color:#000;fill:currentColor;stroke-linecap:round;stroke-linejoin:round;-inkscape-stroke:none"/>
    <path d="M18.51 5.432 6.186 16.052C5.56 15.589 4.834 15.25 4 15.25A3.761 3.761 0 0 0 .25 19 3.761 3.761 0 0 0 4 22.75 3.761 3.761 0 0 0 7.75 19c0-.68-.232-1.288-.55-1.84L19.49 6.568a.75.75 0 0 0 .078-1.058.75.75 0 0 0-1.058-.078M4 16.75c.671 0 1.265.289 1.678.75.357.399.572.92.572 1.5 0 1.252-.998 2.25-2.25 2.25A2.239 2.239 0 0 1 1.75 19c0-1.252.998-2.25 2.25-2.25" style="color:#000;fill:currentColor;stroke-linecap:round;stroke-linejoin:round;-inkscape-stroke:none"/>
</svg>
