<svg xmlns="http://www.w3.org/2000/svg" width="24" height="24" fill="none" stroke-width="1.5" viewBox="0 0 24 24">
    <path d="M9 14.25a.75.75 0 0 0-.75.75v4.25H6a.75.75 0 0 0-.75.75.75.75 0 0 0 .75.75h6a.75.75 0 0 0 .75-.75.75.75 0 0 0-.75-.75H9.75V15a.75.75 0 0 0-.75-.75M19.5 3.75a.75.75 0 0 0-.75.75V9c0 .687-.439 1.24-.969 1.664s-1.06.639-1.06.639a.75.75 0 0 0-.471.697v8a.75.75 0 0 0 .75.75.75.75 0 0 0 .75-.75v-7.584c.265-.126.484-.192.969-.58.72-.576 1.531-1.524 1.531-2.836V4.5a.75.75 0 0 0-.75-.75" style="color:#000;fill:currentColor;stroke-linecap:round;stroke-linejoin:round;-inkscape-stroke:none"/>
    <path d="M17 3.75a.75.75 0 0 0-.75.75v4a.75.75 0 0 0 .75.75.75.75 0 0 0 .75-.75v-4a.75.75 0 0 0-.75-.75M4.5 3.75a.75.75 0 0 0-.727.563s-.282 1.101-.423 2.5c-.141 1.398-.185 3.11.47 4.505.608 1.293 1.816 2.317 2.862 3.084a18 18 0 0 0 1.964 1.26.75.75 0 0 0 .708 0s.919-.492 1.964-1.26c1.046-.767 2.254-1.791 2.862-3.084.655-1.395.611-3.107.47-4.505-.14-1.399-.423-2.5-.423-2.5a.75.75 0 0 0-.727-.563Zm.63 1.5h7.74c.077.339.191.751.288 1.713.13 1.277.086 2.816-.338 3.719-.392.835-1.434 1.81-2.388 2.511-.766.562-1.19.783-1.432.918-.242-.135-.666-.356-1.432-.918-.954-.7-1.996-1.676-2.388-2.511-.424-.903-.467-2.442-.338-3.72.097-.96.211-1.373.289-1.712" style="color:#000;fill:currentColor;stroke-linecap:round;stroke-linejoin:round;-inkscape-stroke:none"/>
</svg>
