<svg xmlns="http://www.w3.org/2000/svg" width="24" height="24" fill="none" stroke-width="1.5" viewBox="0 0 24 24">
    <path d="M14 2.25c-1.51 0-2.75 1.24-2.75 2.75S12.49 7.75 14 7.75 16.75 6.51 16.75 5 15.51 2.25 14 2.25m0 1.5c.7 0 1.25.55 1.25 1.25S14.7 6.25 14 6.25 12.75 5.7 12.75 5 13.3 3.75 14 3.75M18 14.25A3.761 3.761 0 0 0 14.25 18 3.761 3.761 0 0 0 18 21.75 3.761 3.761 0 0 0 21.75 18 3.761 3.761 0 0 0 18 14.25m0 1.5c1.252 0 2.25.998 2.25 2.25s-.998 2.25-2.25 2.25A2.239 2.239 0 0 1 15.75 18c0-1.252.998-2.25 2.25-2.25M6 14.25A3.761 3.761 0 0 0 2.25 18 3.761 3.761 0 0 0 6 21.75 3.761 3.761 0 0 0 9.75 18 3.761 3.761 0 0 0 6 14.25m0 1.5c1.252 0 2.25.998 2.25 2.25S7.252 20.25 6 20.25A2.239 2.239 0 0 1 3.75 18c0-1.252.998-2.25 2.25-2.25" style="color:#000;fill:currentColor;stroke-linecap:round;stroke-linejoin:round;-inkscape-stroke:none"/>
    <path d="M11.598 7.924a.75.75 0 0 0-1.05.088l-3 3.5a.75.75 0 0 0 .286 1.181l4.209 1.725-1.246 3.318a.75.75 0 0 0 .44.967.75.75 0 0 0 .966-.44l1.5-4a.75.75 0 0 0-.418-.956l-3.922-1.608 1.842-2.15 2.434 2.027a.75.75 0 0 0 .478.174h3.5a.75.75 0 0 0 .75-.75.75.75 0 0 0-.75-.75H14.39z" style="color:#000;fill:currentColor;stroke-linecap:round;stroke-linejoin:round;-inkscape-stroke:none"/>
</svg>
