<svg xmlns="http://www.w3.org/2000/svg" width="24" height="24" fill="none" stroke-width="1.5" viewBox="0 0 24 24">
    <path d="M12 1.25c-4.094 0-6.257.756-7.45 1.65-.595.447-.935.932-1.11 1.327-.176.394-.19.773-.19.773s.014.38.19.773c.175.395.515.88 1.11 1.327 1.193.894 3.356 1.65 7.45 1.65s6.257-.756 7.45-1.65c.595-.447.935-.932 1.11-1.327.176-.394.19-.773.19-.773s-.014-.38-.19-.773c-.175-.395-.515-.88-1.11-1.327-1.193-.894-3.356-1.65-7.45-1.65m0 1.5c3.906 0 5.743.744 6.55 1.35.405.303.565.568.64.736.074.168.06.164.06.164s.014-.004-.06.164c-.075.168-.235.433-.64.736-.807.606-2.644 1.35-6.55 1.35-3.906 0-5.743-.744-6.55-1.35-.405-.303-.565-.568-.64-.736C4.737 4.996 4.75 5 4.75 5s-.014.004.06-.164c.075-.168.235-.433.64-.736.807-.606 2.644-1.35 6.55-1.35M12 15.25c-4.094 0-6.257.756-7.45 1.65-.595.447-.935.932-1.11 1.327-.176.394-.19.773-.19.773s.014.38.19.773c.175.395.515.88 1.11 1.327 1.193.894 3.356 1.65 7.45 1.65s6.257-.756 7.45-1.65c.595-.447.935-.932 1.11-1.327.176-.394.19-.773.19-.773s-.014-.38-.19-.773c-.175-.395-.515-.88-1.11-1.327-1.193-.894-3.356-1.65-7.45-1.65m0 1.5c3.906 0 5.743.744 6.55 1.35.405.303.565.568.64.736.074.168.06.164.06.164s.014-.004-.06.164c-.075.168-.235.433-.64.736-.807.606-2.644 1.35-6.55 1.35-3.906 0-5.743-.744-6.55-1.35-.405-.303-.565-.568-.64-.736-.074-.168-.06-.164-.06-.164s-.014.004.06-.164c.075-.168.235-.433.64-.736.807-.606 2.644-1.35 6.55-1.35" style="color:#000;fill:currentColor;-inkscape-stroke:none"/>
    <path d="M20 4.25a.75.75 0 0 0-.75.75v14a.75.75 0 0 0 .75.75.75.75 0 0 0 .75-.75V5a.75.75 0 0 0-.75-.75M4 4.25a.75.75 0 0 0-.75.75v14a.75.75 0 0 0 .75.75.75.75 0 0 0 .75-.75V5A.75.75 0 0 0 4 4.25" style="color:#000;fill:currentColor;stroke-linecap:round;stroke-linejoin:round;-inkscape-stroke:none"/>
</svg>
