<svg xmlns="http://www.w3.org/2000/svg" width="24" height="24" fill="none" stroke-width="1.5" viewBox="0 0 24 24">
    <path d="M12 3.25a.75.75 0 0 0-.75.75v4a.75.75 0 0 0 .75.75.75.75 0 0 0 .75-.75V4a.75.75 0 0 0-.75-.75M4 7.25a.75.75 0 0 0-.531.219.75.75 0 0 0 0 1.062l2.5 2.5a.75.75 0 0 0 1.062 0 .75.75 0 0 0 0-1.062l-2.5-2.5A.75.75 0 0 0 4 7.25M20 7.25a.75.75 0 0 0-.531.219l-2.5 2.5a.75.75 0 0 0 0 1.062.75.75 0 0 0 1.062 0l2.5-2.5a.75.75 0 0 0 0-1.062A.75.75 0 0 0 20 7.25M3 16.25a.75.75 0 0 0-.75.75.75.75 0 0 0 .75.75h3a.75.75 0 0 0 .75-.75.75.75 0 0 0-.75-.75ZM13.123 10.26a.75.75 0 0 0-.863.617l-1 6a.75.75 0 0 0 .617.863.75.75 0 0 0 .863-.617l1-6a.75.75 0 0 0-.617-.863M18 16.25a.75.75 0 0 0-.75.75.75.75 0 0 0 .75.75h3a.75.75 0 0 0 .75-.75.75.75 0 0 0-.75-.75Z" style="color:#000;fill:currentColor;stroke-linecap:round;stroke-linejoin:round;-inkscape-stroke:none"/>
    <path d="M12 3.25C6.072 3.25 1.25 8.072 1.25 14c0 2.417.8 4.655 2.15 6.451a.75.75 0 0 0 .6.301h4.5a.75.75 0 0 0 .75-.75.75.75 0 0 0-.75-.75H4.441C3.4 17.755 2.75 15.965 2.75 14A9.24 9.24 0 0 1 12 4.75 9.24 9.24 0 0 1 21.25 14c0 1.965-.65 3.755-1.691 5.252L15.5 19.25a.75.75 0 0 0-.75.75.75.75 0 0 0 .75.75l4.5.002a.75.75 0 0 0 .6-.3A10.7 10.7 0 0 0 22.75 14c0-5.928-4.822-10.75-10.75-10.75" style="color:#000;fill:currentColor;stroke-linecap:round;stroke-linejoin:round;-inkscape-stroke:none"/>
    <path d="M12 16.25A3.76 3.76 0 0 0 8.25 20 3.76 3.76 0 0 0 12 23.75 3.76 3.76 0 0 0 15.75 20 3.76 3.76 0 0 0 12 16.25m0 1.5c1.252 0 2.25.998 2.25 2.25s-.998 2.25-2.25 2.25A2.24 2.24 0 0 1 9.75 20c0-1.252.998-2.25 2.25-2.25" style="color:#000;fill:currentColor;stroke-linecap:round;stroke-linejoin:round;-inkscape-stroke:none"/>
</svg>
