<svg xmlns="http://www.w3.org/2000/svg" width="24" height="24" fill="none" stroke-width="1.5" viewBox="0 0 24 24">
    <path d="M11.97 6.25a.75.75 0 0 0-.517.248l-.01.01a.75.75 0 0 0 .055 1.06.75.75 0 0 0 1.059-.056l.011-.012a.75.75 0 0 0-.056-1.059.75.75 0 0 0-.541-.191M15.97 8.25a.75.75 0 0 0-.517.248l-.01.01a.75.75 0 0 0 .055 1.06.75.75 0 0 0 1.059-.056l.011-.012a.75.75 0 0 0-.056-1.059.75.75 0 0 0-.541-.191M8.512 8.441a.75.75 0 0 0-1.059.057l-.01.01a.75.75 0 0 0 .055 1.06.75.75 0 0 0 1.059-.056l.011-.012a.75.75 0 0 0-.056-1.059M17.97 12.25a.75.75 0 0 0-.517.246l-.01.012a.75.75 0 0 0 .055 1.058.75.75 0 0 0 1.059-.054l.01-.012a.75.75 0 0 0-.055-1.059.75.75 0 0 0-.541-.191M5.97 12.25a.75.75 0 0 0-.517.246l-.01.012a.75.75 0 0 0 .055 1.058.75.75 0 0 0 1.059-.054l.01-.012a.75.75 0 0 0-.055-1.059.75.75 0 0 0-.541-.191M17.512 16.441a.75.75 0 0 0-1.059.055l-.01.012a.75.75 0 0 0 .055 1.058.75.75 0 0 0 1.059-.054l.01-.012a.75.75 0 0 0-.055-1.059M6.97 16.25a.75.75 0 0 0-.517.246l-.01.012a.75.75 0 0 0 .055 1.058.75.75 0 0 0 1.059-.054l.01-.012a.75.75 0 0 0-.055-1.059.75.75 0 0 0-.541-.191M13.123 10.26a.75.75 0 0 0-.863.617l-1 6a.75.75 0 0 0 .617.863.75.75 0 0 0 .863-.617l1-6a.75.75 0 0 0-.617-.863" style="color:#000;fill:currentColor;stroke-linecap:round;stroke-linejoin:round;-inkscape-stroke:none"/>
    <path d="M12 3.25C6.072 3.25 1.25 8.072 1.25 14c0 2.417.8 4.655 2.15 6.451a.75.75 0 0 0 .6.301h4.5a.75.75 0 0 0 .75-.75.75.75 0 0 0-.75-.75H4.441C3.4 17.755 2.75 15.965 2.75 14A9.239 9.239 0 0 1 12 4.75 9.239 9.239 0 0 1 21.25 14c0 1.965-.65 3.755-1.691 5.252L15.5 19.25a.75.75 0 0 0-.75.75.75.75 0 0 0 .75.75l4.5.002a.75.75 0 0 0 .6-.3A10.713 10.713 0 0 0 22.75 14c0-5.928-4.822-10.75-10.75-10.75" style="color:#000;fill:currentColor;stroke-linecap:round;stroke-linejoin:round;-inkscape-stroke:none"/>
    <path d="M12 16.25A3.761 3.761 0 0 0 8.25 20 3.761 3.761 0 0 0 12 23.75 3.761 3.761 0 0 0 15.75 20 3.761 3.761 0 0 0 12 16.25m0 1.5c1.252 0 2.25.998 2.25 2.25s-.998 2.25-2.25 2.25A2.239 2.239 0 0 1 9.75 20c0-1.252.998-2.25 2.25-2.25" style="color:#000;fill:currentColor;stroke-linecap:round;stroke-linejoin:round;-inkscape-stroke:none"/>
</svg>
