<svg xmlns="http://www.w3.org/2000/svg" width="24" height="24" fill="none" stroke-width="1.5" viewBox="0 0 24 24">
    <path d="M4.25 12v6s.01.354.16.74.445.875.977 1.33c1.062.911 3.006 1.68 6.613 1.68 3.607 0 5.55-.769 6.613-1.68.532-.455.827-.944.977-1.33.15-.386.16-.74.16-.74v-6h-1.5v6s.01.021-.059.197c-.068.177-.21.438-.554.733-.688.589-2.244 1.32-5.637 1.32-3.393 0-4.95-.731-5.637-1.32-.343-.295-.486-.556-.554-.733C5.74 18.021 5.75 18 5.75 18v-6z" style="color:#000;fill:currentColor;-inkscape-stroke:none"/>
    <path d="M4.25 6v6s.01.354.16.74.445.875.977 1.33c1.062.911 3.006 1.68 6.613 1.68 3.607 0 5.55-.769 6.613-1.68.532-.455.827-.944.977-1.33.15-.386.16-.74.16-.74V6h-1.5v6s.01.021-.059.197c-.068.177-.21.438-.554.733-.688.589-2.244 1.32-5.637 1.32-3.393 0-4.95-.731-5.637-1.32-.343-.295-.486-.556-.554-.733C5.74 12.021 5.75 12 5.75 12V6Z" style="color:#000;fill:currentColor;-inkscape-stroke:none"/>
    <path d="M12 2.25c-3.607 0-5.55.769-6.613 1.68-.532.455-.827.944-.977 1.33-.15.386-.16.74-.16.74s.01.354.16.74.445.875.977 1.33C6.449 8.981 8.393 9.75 12 9.75c3.607 0 5.55-.769 6.613-1.68.532-.455.827-.944.977-1.33.15-.386.16-.74.16-.74s-.01-.354-.16-.74-.445-.875-.977-1.33C17.551 3.019 15.607 2.25 12 2.25m0 1.5c3.393 0 4.95.731 5.637 1.32.343.295.486.556.554.733.069.176.059.197.059.197s.01.021-.059.197c-.068.177-.21.438-.554.733-.688.589-2.244 1.32-5.637 1.32-3.393 0-4.95-.731-5.637-1.32-.343-.295-.486-.556-.554-.733C5.74 6.021 5.75 6 5.75 6s-.01-.021.059-.197c.068-.177.21-.438.554-.733.688-.589 2.244-1.32 5.637-1.32" style="color:#000;fill:currentColor;-inkscape-stroke:none"/>
</svg>
