<svg xmlns="http://www.w3.org/2000/svg" width="24" height="24" fill="none" stroke-width="1.5" viewBox="0 0 24 24">
    <path d="M20.5 19.75a.75.75 0 0 0-.531.219.75.75 0 0 0 0 1.062l1.5 1.5a.75.75 0 0 0 1.062 0 .75.75 0 0 0 0-1.062l-1.5-1.5a.75.75 0 0 0-.531-.219" style="color:#000;fill:currentColor;stroke-linecap:round;stroke-linejoin:round;-inkscape-stroke:none"/>
    <path d="M18.5 15.25a3.261 3.261 0 0 0-3.25 3.25 3.261 3.261 0 0 0 3.25 3.25 3.249 3.249 0 0 0 3.25-3.25 3.261 3.261 0 0 0-3.25-3.25m0 1.5c.975 0 1.75.775 1.75 1.75 0 .487-.195.919-.512 1.236-.317.319-.75.514-1.238.514-.975 0-1.75-.775-1.75-1.75s.775-1.75 1.75-1.75M4 5.25a.75.75 0 0 0-.75.75v6s.01.354.16.74.445.875.977 1.33c1.062.911 3.006 1.68 6.613 1.68 3.607 0 5.55-.769 6.613-1.68.532-.455.827-.944.977-1.33.15-.386.16-.74.16-.74V6a.75.75 0 0 0-.75-.75.75.75 0 0 0-.75.75v6s.01.021-.059.197c-.068.177-.21.438-.554.733-.688.589-2.244 1.32-5.637 1.32-3.393 0-4.95-.731-5.637-1.32-.343-.295-.486-.556-.554-.733C4.74 12.021 4.75 12 4.75 12V6A.75.75 0 0 0 4 5.25" style="color:#000;fill:currentColor;stroke-linecap:round;stroke-linejoin:round;-inkscape-stroke:none"/>
    <path d="M11 2.25c-3.607 0-5.55.769-6.613 1.68-.532.455-.827.944-.977 1.33-.15.386-.16.74-.16.74s.01.354.16.74.445.875.977 1.33C5.449 8.981 7.393 9.75 11 9.75c3.607 0 5.55-.769 6.613-1.68.532-.455.827-.944.977-1.33.15-.386.16-.74.16-.74s-.01-.354-.16-.74-.445-.875-.977-1.33C16.551 3.019 14.607 2.25 11 2.25m0 1.5c3.393 0 4.95.731 5.637 1.32.343.295.486.556.554.733.069.176.059.197.059.197s.01.021-.059.197c-.068.177-.21.438-.554.733-.688.589-2.244 1.32-5.637 1.32-3.393 0-4.95-.731-5.637-1.32-.343-.295-.486-.556-.554-.733C4.74 6.021 4.75 6 4.75 6s-.01-.021.059-.197c.068-.177.21-.438.554-.733.688-.589 2.244-1.32 5.637-1.32M4 11.25a.75.75 0 0 0-.75.75v6s.01.354.16.74.445.875.977 1.33c1.062.911 3.006 1.68 6.613 1.68a.75.75 0 0 0 .75-.75.75.75 0 0 0-.75-.75c-3.393 0-4.95-.731-5.637-1.32-.343-.295-.486-.556-.554-.733C4.74 18.021 4.75 18 4.75 18v-6a.75.75 0 0 0-.75-.75" style="color:#000;fill:currentColor;stroke-linecap:round;stroke-linejoin:round;-inkscape-stroke:none"/>
</svg>
