<svg xmlns="http://www.w3.org/2000/svg" width="24" height="24" fill="none" stroke-width="1.5" viewBox="0 0 24 24">
    <path d="M4 5.25a.75.75 0 0 0-.75.75v6s.01.354.16.74.445.875.977 1.33c1.062.911 3.006 1.68 6.613 1.68s5.55-.769 6.613-1.68c.532-.455.827-.944.977-1.33s.16-.74.16-.74V6a.75.75 0 0 0-.75-.75.75.75 0 0 0-.75.75v6s.01.021-.059.197-.21.438-.554.733c-.688.589-2.244 1.32-5.637 1.32s-4.95-.731-5.637-1.32c-.343-.295-.486-.556-.554-.733S4.75 12 4.75 12V6A.75.75 0 0 0 4 5.25" style="color:#000;fill:currentColor;stroke-linecap:round;stroke-linejoin:round;-inkscape-stroke:none"/>
    <path d="M11 2.25c-3.607 0-5.55.769-6.613 1.68-.532.455-.827.944-.977 1.33S3.25 6 3.25 6s.01.354.16.74.445.875.977 1.33C5.449 8.981 7.393 9.75 11 9.75s5.55-.769 6.613-1.68c.532-.455.827-.944.977-1.33s.16-.74.16-.74-.01-.354-.16-.74-.445-.875-.977-1.33C16.551 3.019 14.607 2.25 11 2.25m0 1.5c3.393 0 4.95.731 5.637 1.32.343.295.486.556.554.733S17.25 6 17.25 6s.01.021-.059.197-.21.438-.554.733c-.688.589-2.244 1.32-5.637 1.32s-4.95-.731-5.637-1.32c-.343-.295-.486-.556-.554-.733S4.75 6 4.75 6s-.01-.021.059-.197.21-.438.554-.733C6.051 4.481 7.607 3.75 11 3.75M4 11.25a.75.75 0 0 0-.75.75v6s.01.354.16.74.445.875.977 1.33c1.062.911 3.006 1.68 6.613 1.68a.75.75 0 0 0 .75-.75.75.75 0 0 0-.75-.75c-3.393 0-4.95-.731-5.637-1.32-.343-.295-.486-.556-.554-.733S4.75 18 4.75 18v-6a.75.75 0 0 0-.75-.75M19 15.25a.75.75 0 0 0-.531.219l-3 3a.75.75 0 0 0 0 1.062.75.75 0 0 0 1.062 0l1.719-1.718V22a.75.75 0 0 0 .75.75.75.75 0 0 0 .75-.75v-4.187l1.719 1.718a.75.75 0 0 0 1.062 0 .75.75 0 0 0 0-1.062l-3-3A.75.75 0 0 0 19 15.25" style="color:#000;fill:currentColor;stroke-linecap:round;stroke-linejoin:round;-inkscape-stroke:none"/>
</svg>
