<svg xmlns="http://www.w3.org/2000/svg" width="24" height="24" fill="none" stroke-width="1.5" viewBox="0 0 24 24">
    <path d="M9 2.25A3.76 3.76 0 0 0 5.25 6v7a.75.75 0 0 0 .75.75.75.75 0 0 0 .75-.75V6c0-1.252.998-2.25 2.25-2.25h5a.75.75 0 0 0 .75-.75.75.75 0 0 0-.75-.75Zm13 5.5a.75.75 0 0 0-.75.75V14a.75.75 0 0 0 .75.75.75.75 0 0 0 .75-.75V8.5a.75.75 0 0 0-.75-.75M19.992.25a.75.75 0 0 0-.75.75v2.25h-2.25a.75.75 0 0 0-.75.75.75.75 0 0 0 .75.75h2.25V7a.75.75 0 0 0 .75.75.75.75 0 0 0 .75-.75V4.75h2.25a.75.75 0 0 0 .75-.75.75.75 0 0 0-.75-.75h-2.25V1a.75.75 0 0 0-.75-.75" style="color:#000;fill:currentColor;stroke-linecap:round;stroke-linejoin:round;-inkscape-stroke:none"/>
    <path d="M6 12.25A4.76 4.76 0 0 0 1.25 17 4.76 4.76 0 0 0 6 21.75h6a.75.75 0 0 0 .75-.75.75.75 0 0 0-.75-.75H6A3.24 3.24 0 0 1 2.75 17 3.24 3.24 0 0 1 6 13.75h8.574c-.808.852-1.324 1.988-1.324 3.25A4.76 4.76 0 0 0 18 21.75 4.76 4.76 0 0 0 22.75 17v-3a.75.75 0 0 0-.75-.75.75.75 0 0 0-.75.75v3A3.24 3.24 0 0 1 18 20.25 3.24 3.24 0 0 1 14.75 17 3.24 3.24 0 0 1 18 13.75a.75.75 0 0 0 0-1.5h-1z" style="color:#000;fill:currentColor;stroke-linecap:round;stroke-linejoin:round;-inkscape-stroke:none"/>
</svg>
