<svg xmlns="http://www.w3.org/2000/svg" width="24" height="24" fill="none" stroke-width="1.5" viewBox="0 0 24 24">
    <path d="M8 2.25C4.281 2.25 1.25 5.281 1.25 9v6c0 3.719 3.031 6.75 6.75 6.75h8c3.719 0 6.75-3.031 6.75-6.75V9c0-3.719-3.031-6.75-6.75-6.75Zm0 1.5h8A5.239 5.239 0 0 1 21.25 9v6A5.239 5.239 0 0 1 16 20.25H8A5.239 5.239 0 0 1 2.75 15V9A5.239 5.239 0 0 1 8 3.75" style="color:#000;fill:currentColor;-inkscape-stroke:none"/>
    <path d="M13.5 7.25a.75.75 0 0 0-.75.75v8a.75.75 0 0 0 .75.75h2.857c.358 0 1.036.03 1.706-.346.67-.375 1.187-1.225 1.187-2.404 0-.914-.356-1.55-.809-2 .453-.45.809-1.086.809-2 0-1.179-.518-2.03-1.187-2.404-.67-.375-1.348-.346-1.706-.346Zm.75 1.5h2.107c.358 0 .75.03.973.154.223.125.42.275.42 1.096 0 .821-.197.97-.42 1.096-.223.125-.615.154-.973.154H14.25Zm0 4h2.107c.358 0 .75.03.973.154.223.125.42.275.42 1.096 0 .821-.197.97-.42 1.096-.223.125-.615.154-.973.154H14.25ZM5.5 7.25a.75.75 0 0 0-.75.75v8a.75.75 0 0 0 .75.75h2.857c.358 0 1.036.03 1.706-.346.67-.375 1.187-1.225 1.187-2.404v-4c0-1.179-.518-2.03-1.187-2.404-.67-.375-1.348-.346-1.706-.346Zm.75 1.5h2.107c.358 0 .75.03.973.154.223.125.42.275.42 1.096v4c0 .821-.197.97-.42 1.096-.223.125-.615.154-.973.154H6.25V12Z" style="color:#000;fill:currentColor;stroke-linecap:round;stroke-linejoin:round;-inkscape-stroke:none"/>
</svg>
