<svg xmlns="http://www.w3.org/2000/svg" width="24" height="24" fill="none" stroke-width="1.5" viewBox="0 0 24 24">
    <path d="M4 5.25a.75.75 0 0 0-.75.75v6s.01.354.16.74.445.875.977 1.33c1.062.911 3.006 1.68 6.613 1.68 3.607 0 5.55-.769 6.613-1.68.532-.455.827-.944.977-1.33.15-.386.16-.74.16-.74V6a.75.75 0 0 0-.75-.75.75.75 0 0 0-.75.75v6s.01.021-.059.197c-.068.177-.21.438-.554.733-.688.589-2.244 1.32-5.637 1.32-3.393 0-4.95-.731-5.637-1.32-.343-.295-.486-.556-.554-.733C4.74 12.021 4.75 12 4.75 12V6A.75.75 0 0 0 4 5.25" style="color:#000;fill:currentColor;stroke-linecap:round;stroke-linejoin:round;-inkscape-stroke:none"/>
    <path d="M11 2.25c-3.607 0-5.55.769-6.613 1.68-.532.455-.827.944-.977 1.33-.15.386-.16.74-.16.74s.01.354.16.74.445.875.977 1.33C5.449 8.981 7.393 9.75 11 9.75c3.607 0 5.55-.769 6.613-1.68.532-.455.827-.944.977-1.33.15-.386.16-.74.16-.74s-.01-.354-.16-.74-.445-.875-.977-1.33C16.551 3.019 14.607 2.25 11 2.25m0 1.5c3.393 0 4.95.731 5.637 1.32.343.295.486.556.554.733.069.176.059.197.059.197s.01.021-.059.197c-.068.177-.21.438-.554.733-.688.589-2.244 1.32-5.637 1.32-3.393 0-4.95-.731-5.637-1.32-.343-.295-.486-.556-.554-.733C4.74 6.021 4.75 6 4.75 6s-.01-.021.059-.197c.068-.177.21-.438.554-.733.688-.589 2.244-1.32 5.637-1.32M4 11.25a.75.75 0 0 0-.75.75v6s.01.354.16.74.445.875.977 1.33c1.062.911 3.006 1.68 6.613 1.68a.75.75 0 0 0 .75-.75.75.75 0 0 0-.75-.75c-3.393 0-4.95-.731-5.637-1.32-.343-.295-.486-.556-.554-.733C4.74 18.021 4.75 18 4.75 18v-6a.75.75 0 0 0-.75-.75M19 16.25A2.754 2.754 0 0 0 16.25 19 2.754 2.754 0 0 0 19 21.75c1.51 0 2.75-1.24 2.75-2.75s-1.24-2.75-2.75-2.75m0 1.5c.7 0 1.25.55 1.25 1.25s-.55 1.25-1.25 1.25A1.244 1.244 0 0 1 17.75 19 1.244 1.244 0 0 1 19 17.75" style="color:#000;fill:currentColor;stroke-linecap:round;stroke-linejoin:round;-inkscape-stroke:none"/>
    <path d="m18.98 15.25-.074.002a.75.75 0 0 0-.73.77.75.75 0 0 0 .767.73L19 16.75l.117.004.051.004a.75.75 0 0 0 .805-.692.75.75 0 0 0-.692-.804l-.07-.006a.75.75 0 0 0-.037-.002l-.154-.004a.75.75 0 0 0-.04 0m-1.84.691a.75.75 0 0 0-.544.182l-.104.09a.75.75 0 0 0-.027.023l-.104.1a.75.75 0 0 0-.025.025l-.014.014a.75.75 0 0 0 .026 1.06.75.75 0 0 0 1.06-.025v-.002l.08-.074.09-.078a.75.75 0 0 0 .076-1.059.75.75 0 0 0-.513-.256m3.868.098a.75.75 0 0 0-.524.232.75.75 0 0 0 .026 1.06l.082.077.074.08.004.004a.75.75 0 0 0 1.059.076.75.75 0 0 0 .076-1.058l-.018-.018a.75.75 0 0 0-.023-.027l-.1-.104a.75.75 0 0 0-.025-.025l-.094-.09a.75.75 0 0 0-.537-.207m-4.895 1.879a.75.75 0 0 0-.838.65l-.004.032a.75.75 0 0 0-.003.037l-.012.152a.75.75 0 0 0-.002.037l-.002.117a.75.75 0 0 0 .73.77.75.75 0 0 0 .768-.733l.004-.097.008-.113.002-.012a.75.75 0 0 0-.65-.84m5.825.146a.75.75 0 0 0-.692.805v.014l.004.117-.002.094a.75.75 0 0 0 .73.77.75.75 0 0 0 .768-.733l.004-.111a.75.75 0 0 0 0-.04l-.004-.154a.75.75 0 0 0-.002-.037l-.002-.033a.75.75 0 0 0-.805-.692m-.706 2.13a.75.75 0 0 0-.513.257l-.053.06-.074.08-.03.026a.75.75 0 0 0-.025 1.06.75.75 0 0 0 1.06.026l.042-.039a.75.75 0 0 0 .025-.025l.1-.104a.75.75 0 0 0 .023-.027l.067-.074a.75.75 0 0 0-.077-1.059.75.75 0 0 0-.545-.182m-5.076.04a.75.75 0 0 0-.127 1.055l.067.082a.75.75 0 0 0 .021.027l.096.11a.75.75 0 0 0 .023.027l.035.035a.75.75 0 0 0 1.061.026.75.75 0 0 0 .025-1.06l-.023-.024-.07-.08-.055-.07a.75.75 0 0 0-1.053-.128m2.49.989a.75.75 0 0 0-.84.648.75.75 0 0 0 .651.84l.143.018a.75.75 0 0 0 .037.003l.152.012a.75.75 0 0 0 .037.002h.004a.75.75 0 0 0 .092-.088.75.75 0 0 0 .098.092l.154-.004a.75.75 0 0 0 .037-.002l.144-.012a.75.75 0 0 0 .692-.804.75.75 0 0 0-.805-.692l-.125.01-.137.004a.75.75 0 0 0-.017.018.75.75 0 0 0-.094-.022l-.1-.008z" style="color:#000;fill:currentColor;stroke-linecap:round;stroke-linejoin:round;stroke-dasharray:.3,2;-inkscape-stroke:none"/>
</svg>
