<svg xmlns="http://www.w3.org/2000/svg" width="24" height="24" fill="none" stroke-width="1.5" viewBox="0 0 24 24">
    <path d="M4.25 12v6s.01.354.16.74.445.875.977 1.33c1.062.911 3.006 1.68 6.613 1.68s5.55-.769 6.613-1.68c.532-.455.827-.944.977-1.33s.16-.74.16-.74v-6h-1.5v6s.01.021-.059.197-.21.438-.554.733c-.688.589-2.244 1.32-5.637 1.32s-4.95-.731-5.637-1.32c-.343-.295-.486-.556-.554-.733S5.75 18 5.75 18v-6z" style="color:#000;fill:currentColor;-inkscape-stroke:none"/>
    <path d="M4.25 6v6s.01.354.16.74.445.875.977 1.33c1.062.911 3.006 1.68 6.613 1.68s5.55-.769 6.613-1.68c.532-.455.827-.944.977-1.33s.16-.74.16-.74V6h-1.5v6s.01.021-.059.197-.21.438-.554.733c-.688.589-2.244 1.32-5.637 1.32s-4.95-.731-5.637-1.32c-.343-.295-.486-.556-.554-.733S5.75 12 5.75 12V6Z" style="color:#000;fill:currentColor;-inkscape-stroke:none"/>
    <path d="M12 2.25c-3.607 0-5.55.769-6.613 1.68-.532.455-.827.944-.977 1.33S4.25 6 4.25 6s.01.354.16.74.445.875.977 1.33C6.449 8.981 8.393 9.75 12 9.75s5.55-.769 6.613-1.68c.532-.455.827-.944.977-1.33s.16-.74.16-.74-.01-.354-.16-.74-.445-.875-.977-1.33C17.551 3.019 15.607 2.25 12 2.25m0 1.5c3.393 0 4.95.731 5.637 1.32.343.295.486.556.554.733S18.25 6 18.25 6s.01.021-.059.197-.21.438-.554.733c-.688.589-2.244 1.32-5.637 1.32s-4.95-.731-5.637-1.32c-.343-.295-.486-.556-.554-.733S5.75 6 5.75 6s-.01-.021.059-.197.21-.438.554-.733C7.051 4.481 8.607 3.75 12 3.75" style="color:#000;fill:currentColor;-inkscape-stroke:none"/>
</svg>
