<svg xmlns="http://www.w3.org/2000/svg" width="24" height="24" fill="none" stroke-width="1.5" viewBox="0 0 24 24">
    <path d="M4 5.25a.75.75 0 0 0-.75.75v6s.01.354.16.74.445.875.977 1.33c1.062.911 3.006 1.68 6.613 1.68.61 0 1.174-.022 1.691-.062a.75.75 0 0 0 .688-.807.75.75 0 0 0-.807-.69c-.475.038-.998.059-1.572.059-3.393 0-4.95-.731-5.637-1.32-.343-.295-.486-.556-.554-.733C4.74 12.021 4.75 12 4.75 12V6A.75.75 0 0 0 4 5.25M18 5.25a.75.75 0 0 0-.75.75v6a.75.75 0 0 0 .75.75.75.75 0 0 0 .75-.75V6a.75.75 0 0 0-.75-.75" style="color:#000;fill:currentColor;stroke-linecap:round;stroke-linejoin:round;-inkscape-stroke:none"/>
    <path d="M11 2.25c-3.607 0-5.55.769-6.613 1.68-.532.455-.827.944-.977 1.33-.15.386-.16.74-.16.74s.01.354.16.74.445.875.977 1.33C5.449 8.981 7.393 9.75 11 9.75c3.607 0 5.55-.769 6.613-1.68.532-.455.827-.944.977-1.33.15-.386.16-.74.16-.74s-.01-.354-.16-.74-.445-.875-.977-1.33C16.551 3.019 14.607 2.25 11 2.25m0 1.5c3.393 0 4.95.731 5.637 1.32.343.295.486.556.554.733.069.176.059.197.059.197s.01.021-.059.197c-.068.177-.21.438-.554.733-.688.589-2.244 1.32-5.637 1.32-3.393 0-4.95-.731-5.637-1.32-.343-.295-.486-.556-.554-.733C4.74 6.021 4.75 6 4.75 6s-.01-.021.059-.197c.068-.177.21-.438.554-.733.688-.589 2.244-1.32 5.637-1.32M4 11.25a.75.75 0 0 0-.75.75v6s.01.354.16.74.445.875.977 1.33c1.062.911 3.006 1.68 6.613 1.68a.75.75 0 0 0 .75-.75.75.75 0 0 0-.75-.75c-3.393 0-4.95-.731-5.637-1.32-.343-.295-.486-.556-.554-.733C4.74 18.021 4.75 18 4.75 18v-6a.75.75 0 0 0-.75-.75M18.99 14.25c-2.115 0-3.883 1.506-4.51 3.527a.75.75 0 0 0 .495.94.75.75 0 0 0 .94-.494c.454-1.47 1.674-2.473 3.075-2.473 1.311 0 2.46.873 2.979 2.191a.75.75 0 0 0 .972.424.75.75 0 0 0 .422-.972c-.718-1.822-2.395-3.143-4.373-3.143" style="color:#000;fill:currentColor;stroke-linecap:round;stroke-linejoin:round;-inkscape-stroke:none"/>
    <path d="M23 14.695a.75.75 0 0 0-.75.75v1.471h-1.256a.75.75 0 0 0-.75.75.75.75 0 0 0 .75.75h1.672c.59 0 1.084-.494 1.084-1.084v-1.887a.75.75 0 0 0-.75-.75M23.025 19.283a.75.75 0 0 0-.94.494c-.454 1.47-1.674 2.473-3.075 2.473-1.311 0-2.46-.873-2.979-2.191a.75.75 0 0 0-.972-.424.75.75 0 0 0-.422.972c.718 1.822 2.395 3.143 4.373 3.143 2.115 0 3.883-1.506 4.51-3.527a.75.75 0 0 0-.495-.94" style="color:#000;fill:currentColor;stroke-linecap:round;stroke-linejoin:round;-inkscape-stroke:none"/>
    <path d="M15.334 19.584c-.59 0-1.084.494-1.084 1.084v1.887a.75.75 0 0 0 .75.75.75.75 0 0 0 .75-.75v-1.471h1.256a.75.75 0 0 0 .75-.75.75.75 0 0 0-.75-.75z" style="color:#000;fill:currentColor;stroke-linecap:round;stroke-linejoin:round;-inkscape-stroke:none"/>
</svg>
