<svg xmlns="http://www.w3.org/2000/svg" width="24" height="24" fill="none" stroke-width="1.5" viewBox="0 0 24 24">
    <path d="M8 14.25c-1.51 0-2.75 1.24-2.75 2.75S6.49 19.75 8 19.75s2.75-1.24 2.75-2.75S9.51 14.25 8 14.25m0 1.5c.7 0 1.25.55 1.25 1.25S8.7 18.25 8 18.25 6.75 17.7 6.75 17 7.3 15.75 8 15.75M18 14.25c-1.51 0-2.75 1.24-2.75 2.75s1.24 2.75 2.75 2.75 2.75-1.24 2.75-2.75-1.24-2.75-2.75-2.75m0 1.5c.7 0 1.25.55 1.25 1.25s-.55 1.25-1.25 1.25-1.25-.55-1.25-1.25.55-1.25 1.25-1.25" style="color:#000;fill:currentColor;stroke-linecap:round;stroke-linejoin:round;stroke-miterlimit:1.5;-inkscape-stroke:none"/>
    <path d="M1 5.25A.75.75 0 0 0 .25 6a.75.75 0 0 0 .75.75h13.25v9.5h-4.2a.75.75 0 0 0-.75.75.75.75 0 0 0 .75.75h5.7V6.6a1.36 1.36 0 0 0-1.35-1.35ZM3 10.75a.75.75 0 0 0-.75.75v4.9c0 .737.613 1.35 1.35 1.35h2.05A.75.75 0 0 0 6.4 17a.75.75 0 0 0-.75-.75h-1.9V11.5a.75.75 0 0 0-.75-.75" style="color:#000;fill:currentColor;stroke-linecap:round;-inkscape-stroke:none"/>
    <path d="M2 8.25a.75.75 0 0 0-.75.75.75.75 0 0 0 .75.75h4A.75.75 0 0 0 6.75 9 .75.75 0 0 0 6 8.25Z" style="color:#000;fill:currentColor;stroke-linecap:round;stroke-linejoin:round;-inkscape-stroke:none"/>
    <path d="M15 8.25a.75.75 0 0 0-.75.75.75.75 0 0 0 .75.75h5.512l1.738 3.906v2.594H20.5a.75.75 0 0 0-.75.75.75.75 0 0 0 .75.75h1.9a1.36 1.36 0 0 0 1.35-1.35v-2.773q0-.286-.117-.547l-1.79-4.03a1.35 1.35 0 0 0-1.234-.8ZM15 16.25a.75.75 0 0 0-.75.75.75.75 0 0 0 .75.75h1a.75.75 0 0 0 .75-.75.75.75 0 0 0-.75-.75Z" style="color:#000;fill:currentColor;stroke-linecap:round;-inkscape-stroke:none"/>
</svg>
