<svg xmlns="http://www.w3.org/2000/svg" width="24" height="24" fill="none" stroke-width="1.5" viewBox="0 0 24 24">
    <path d="M2 3.25a.75.75 0 0 0-.75.75.75.75 0 0 0 .75.75h16c.7 0 1.25.55 1.25 1.25v12c0 .7-.55 1.25-1.25 1.25H6c-.7 0-1.25-.55-1.25-1.25v-6a.75.75 0 0 0-.75-.75.75.75 0 0 0-.75.75v6c0 1.51 1.24 2.75 2.75 2.75h12c1.51 0 2.75-1.24 2.75-2.75V6c0-1.51-1.24-2.75-2.75-2.75Z" style="color:#000;fill:currentColor;stroke-linecap:round;stroke-linejoin:round;-inkscape-stroke:none"/>
    <path d="M12 3.25a.75.75 0 0 0-.75.75v5a.75.75 0 0 0 .75.75.75.75 0 0 0 .75-.75V4a.75.75 0 0 0-.75-.75M3 7.25a.75.75 0 0 0-.75.75.75.75 0 0 0 .75.75h5A.75.75 0 0 0 8.75 8 .75.75 0 0 0 8 7.25Z" style="color:#000;fill:currentColor;stroke-linecap:round;stroke-linejoin:round;-inkscape-stroke:none"/>
</svg>
