<svg xmlns="http://www.w3.org/2000/svg" width="24" height="24" fill="none" stroke-width="1.5" viewBox="0 0 24 24">
    <path d="M2 19.25a.75.75 0 0 0-.75.75.75.75 0 0 0 .75.75h20a.75.75 0 0 0 .75-.75.75.75 0 0 0-.75-.75ZM5 3.25a.75.75 0 0 0-.75.75.75.75 0 0 0 .75.75h14a.75.75 0 0 0 .75-.75.75.75 0 0 0-.75-.75ZM3.512 15.441a.75.75 0 0 0-1.059.055l-.01.012a.75.75 0 0 0 .055 1.058.75.75 0 0 0 1.059-.054l.01-.012a.75.75 0 0 0-.055-1.059M21.04 15.25a.75.75 0 0 0-.542.191.75.75 0 0 0-.055 1.059l.01.012a.75.75 0 0 0 1.059.054.75.75 0 0 0 .054-1.058l-.01-.012a.75.75 0 0 0-.517-.246M3.97 11.25a.75.75 0 0 0-.517.246l-.01.012a.75.75 0 0 0 .055 1.058.75.75 0 0 0 1.059-.054l.01-.012a.75.75 0 0 0-.055-1.059.75.75 0 0 0-.541-.191M20.04 11.25a.75.75 0 0 0-.542.191.75.75 0 0 0-.055 1.059l.01.012a.75.75 0 0 0 1.059.054.75.75 0 0 0 .054-1.058l-.01-.012a.75.75 0 0 0-.517-.246M4.97 7.25a.75.75 0 0 0-.517.248l-.01.01a.75.75 0 0 0 .055 1.06.75.75 0 0 0 1.059-.056l.011-.012a.75.75 0 0 0-.056-1.059.75.75 0 0 0-.541-.191M18.498 7.441a.75.75 0 0 0-.057 1.059l.012.012a.75.75 0 0 0 1.059.056.75.75 0 0 0 .054-1.06l-.01-.01a.75.75 0 0 0-1.058-.057M12 6.25a.75.75 0 0 0-.531.219l-1.5 1.5a.75.75 0 0 0 0 1.062.75.75 0 0 0 1.062 0l.219-.219v6.376l-1.719-1.72a.75.75 0 0 0-1.062 0 .75.75 0 0 0 0 1.063l3 3a.75.75 0 0 0 .531.219.75.75 0 0 0 .531-.219l3-3a.75.75 0 0 0 0-1.062.75.75 0 0 0-1.062 0l-1.719 1.719V8.811l.219.22a.75.75 0 0 0 1.062 0 .75.75 0 0 0 0-1.063l-1.5-1.5A.75.75 0 0 0 12 6.25" style="color:#000;fill:currentColor;stroke-linecap:round;stroke-linejoin:round;-inkscape-stroke:none"/>
</svg>
