<svg xmlns="http://www.w3.org/2000/svg" width="24" height="24" fill="none" stroke-width="1.5" viewBox="0 0 24 24">
    <path d="M12.186 5.564 6.8 7.784a1.35 1.35 0 0 0-.768.82l-3.79 11.375c-.332.994.659 2.019 1.663 1.72l11.678-3.47c.422-.126.757-.45.896-.868l1.907-5.716a1.352 1.352 0 0 0-.326-1.381l-4.407-4.405a.75.75 0 0 0 0-.002 1.355 1.355 0 0 0-1.468-.293m.478 1.426 4.27 4.268-1.852 5.553L3.756 20.18l3.68-11.037z" style="color:#000;fill:currentColor;stroke-linecap:round;stroke-linejoin:round;-inkscape-stroke:none"/>
    <path d="M9.66 13.488a.75.75 0 0 0-.531.219L2.766 20.07a.75.75 0 0 0 0 1.063.75.75 0 0 0 1.06 0l6.363-6.365a.75.75 0 0 0 0-1.061.75.75 0 0 0-.529-.219M17.084 1.947a2.74 2.74 0 0 0-1.943.801l-2.828 2.828a.75.75 0 0 0 0 1.06.75.75 0 0 0 1.06 0l2.828-2.827a1.239 1.239 0 0 1 1.768 0l2.12 2.12a1.239 1.239 0 0 1 0 1.768l-2.827 2.828a.75.75 0 0 0 0 1.06.75.75 0 0 0 1.06 0l2.828-2.827a2.761 2.761 0 0 0 0-3.889l-2.12-2.121a2.744 2.744 0 0 0-1.946-.8" style="color:#000;fill:currentColor;stroke-linecap:round;stroke-linejoin:round;-inkscape-stroke:none"/>
    <path d="M10.72 10.932c-.577 0-1.155.218-1.591.654a2.261 2.261 0 0 0 0 3.182 2.263 2.263 0 0 0 3.184 0 2.261 2.261 0 0 0 0-3.182 2.245 2.245 0 0 0-1.592-.654m-.53 1.714c.299-.299.763-.299 1.062 0 .3.3.299.762 0 1.061-.3.3-.763.3-1.063 0a.739.739 0 0 1 0-1.06" style="color:#000;fill:currentColor;stroke-linecap:round;stroke-linejoin:round;-inkscape-stroke:none"/>
</svg>
