<svg xmlns="http://www.w3.org/2000/svg" width="24" height="24" fill="none" stroke-width="1.5" viewBox="0 0 24 24">
    <path d="M12 1.25C6.072 1.25 1.25 6.072 1.25 12S6.072 22.75 12 22.75 22.75 17.928 22.75 12 17.928 1.25 12 1.25m0 1.5A9.239 9.239 0 0 1 21.25 12 9.239 9.239 0 0 1 12 21.25 9.239 9.239 0 0 1 2.75 12 9.239 9.239 0 0 1 12 2.75" style="color:#000;fill:currentColor;stroke-linecap:round;stroke-linejoin:round;-inkscape-stroke:none"/>
    <path d="M12 6.25a.75.75 0 0 0-.65.377l-4 7a.75.75 0 0 0-.1.373v7.168a.75.75 0 0 0 .75.75.75.75 0 0 0 .75-.75v-6.969L12 8.512l3.25 5.687v6.969a.75.75 0 0 0 .75.75.75.75 0 0 0 .75-.75V14a.75.75 0 0 0-.1-.373l-4-7A.75.75 0 0 0 12 6.25" style="color:#000;fill:currentColor;stroke-linecap:round;stroke-linejoin:round;-inkscape-stroke:none"/>
    <path d="M7.955 13.252a.75.75 0 0 0-.516.25.75.75 0 0 0 .063 1.059s.321.286.766.57c.444.284 1.01.619 1.732.619.723 0 1.288-.335 1.732-.62.156-.098.151-.11.268-.198.117.087.112.1.268.199.444.284 1.01.619 1.732.619.723 0 1.288-.335 1.732-.62.445-.283.766-.57.766-.57a.75.75 0 0 0 .063-1.058.75.75 0 0 0-1.059-.063s-.24.214-.578.43c-.338.216-.774.381-.924.381-.15 0-.586-.165-.924-.38a5.104 5.104 0 0 1-.578-.43.75.75 0 0 0-.996 0s-.24.213-.578.43c-.338.215-.774.38-.924.38-.15 0-.586-.165-.924-.38-.337-.217-.578-.43-.578-.43a.75.75 0 0 0-.543-.188" style="color:#000;fill:currentColor;stroke-linecap:round;stroke-linejoin:round;-inkscape-stroke:none"/>
</svg>
