<svg xmlns="http://www.w3.org/2000/svg" width="24" height="24" fill="none" stroke-width="1.5" viewBox="0 0 24 24">
    <path d="M10.895 11.258a.75.75 0 0 0-.495.29.75.75 0 0 0 .149 1.052A4.236 4.236 0 0 1 12.25 16 4.239 4.239 0 0 1 8 20.25 4.239 4.239 0 0 1 3.75 16c0-1.396.668-2.625 1.701-3.4a.75.75 0 0 0 .149-1.051.75.75 0 0 0-1.051-.149A5.747 5.747 0 0 0 2.25 16 5.761 5.761 0 0 0 8 21.75 5.761 5.761 0 0 0 13.75 16a5.748 5.748 0 0 0-2.299-4.6.75.75 0 0 0-.556-.142" style="color:#000;fill:currentColor;stroke-linecap:round;stroke-linejoin:round;-inkscape-stroke:none"/>
    <path d="M5 2.25a.75.75 0 0 0-.75.75v9a.75.75 0 0 0 .75.75.75.75 0 0 0 .75-.75V3.75h4.5V12a.75.75 0 0 0 .75.75.75.75 0 0 0 .75-.75V3a.75.75 0 0 0-.75-.75Z" style="color:#000;fill:currentColor;stroke-linecap:round;stroke-linejoin:round;-inkscape-stroke:none"/>
    <path d="M11 2.25a.75.75 0 0 0-.75.75.75.75 0 0 0 .75.75h2a.75.75 0 0 0 .75-.75.75.75 0 0 0-.75-.75ZM11 5.25a.75.75 0 0 0-.75.75.75.75 0 0 0 .75.75h2a.75.75 0 0 0 .75-.75.75.75 0 0 0-.75-.75ZM11 8.25a.75.75 0 0 0-.75.75.75.75 0 0 0 .75.75h2a.75.75 0 0 0 .75-.75.75.75 0 0 0-.75-.75ZM8 8.25a.75.75 0 0 0-.75.75v4.563c-1.105.357-2 1.219-2 2.437 0 1.51 1.24 2.75 2.75 2.75s2.75-1.24 2.75-2.75c0-1.218-.895-2.08-2-2.437V9A.75.75 0 0 0 8 8.25m0 6.5c.7 0 1.25.55 1.25 1.25S8.7 17.25 8 17.25 6.75 16.7 6.75 16 7.3 14.75 8 14.75" style="color:#000;fill:currentColor;stroke-linecap:round;stroke-linejoin:round;-inkscape-stroke:none"/>
    <path d="M19.53 2.469a.75.75 0 0 0-1.061.002s-.78.778-1.563 1.808c-.783 1.03-1.65 2.264-1.656 3.604a.75.75 0 0 0 0 .01c.015 2.055 1.689 3.744 3.75 3.744a3.762 3.762 0 0 0 3.75-3.75c0-1.343-.87-2.577-1.654-3.608-.785-1.03-1.567-1.81-1.567-1.81M19 4.145c.273.291.452.451.902 1.043.715.938 1.348 2.148 1.348 2.699 0 1.25-1 2.25-2.25 2.25-1.247 0-2.235-.997-2.248-2.25.005-.556.635-1.762 1.348-2.7.449-.59.628-.75.9-1.042" style="color:#000;clip-rule:evenodd;fill:currentColor;fill-rule:evenodd;stroke-linecap:round;stroke-linejoin:round;stroke-miterlimit:1.5;-inkscape-stroke:none"/>
</svg>
