<svg xmlns="http://www.w3.org/2000/svg" width="24" height="24" fill="none" stroke-width="1.5" viewBox="0 0 24 24">
    <path d="M12 1.25C6.072 1.25 1.25 6.072 1.25 12S6.072 22.75 12 22.75 22.75 17.928 22.75 12 17.928 1.25 12 1.25m0 1.5A9.239 9.239 0 0 1 21.25 12 9.239 9.239 0 0 1 12 21.25 9.239 9.239 0 0 1 2.75 12 9.239 9.239 0 0 1 12 2.75" style="color:#000;fill:currentColor;stroke-linecap:round;stroke-linejoin:round;-inkscape-stroke:none"/>
    <path d="M8 8.25a.75.75 0 0 0-.531.219l-3 3A.75.75 0 0 0 4.25 12a.75.75 0 0 0 .219.531l3 3a.75.75 0 0 0 1.06 0 .75.75 0 0 0 0-1.062L6.811 12.75h10.377l-1.72 1.719a.75.75 0 0 0 0 1.062.75.75 0 0 0 1.061 0l3-3a.75.75 0 0 0 .196-.338.75.75 0 0 0 0-.132.75.75 0 0 0 .025-.061.75.75 0 0 0-.025-.129.75.75 0 0 0-.02-.098.75.75 0 0 0-.176-.304l-3-3a.75.75 0 0 0-1.06 0 .75.75 0 0 0 0 1.062l1.719 1.719H6.81l1.718-1.719a.75.75 0 0 0 0-1.062A.75.75 0 0 0 8 8.25" style="color:#000;fill:currentColor;stroke-linecap:round;stroke-linejoin:round;-inkscape-stroke:none"/>
</svg>
