<svg xmlns="http://www.w3.org/2000/svg" width="24" height="24" fill="none" stroke-width="1.5" viewBox="0 0 24 24">
    <path d="M3.6 2.25A1.36 1.36 0 0 0 2.25 3.6v16.8c0 .737.613 1.35 1.35 1.35h16.8a1.36 1.36 0 0 0 1.35-1.35V3.6a1.36 1.36 0 0 0-1.35-1.35Zm.15 1.5h16.5v16.5H3.75Z" style="color:#000;fill:currentColor;stroke-linecap:round;stroke-linejoin:round;-inkscape-stroke:none"/>
    <path d="M12 5.25c-3.719 0-6.75 3.031-6.75 6.75s3.031 6.75 6.75 6.75 6.75-3.031 6.75-6.75S15.719 5.25 12 5.25m0 1.5A5.239 5.239 0 0 1 17.25 12 5.239 5.239 0 0 1 12 17.25 5.239 5.239 0 0 1 6.75 12 5.239 5.239 0 0 1 12 6.75" style="color:#000;fill:currentColor;stroke-linecap:round;stroke-linejoin:round;-inkscape-stroke:none"/>
    <path d="M15.96 6.908a.75.75 0 0 0-1.052.131l-3.5 4.5a.75.75 0 0 0 .131 1.053.75.75 0 0 0 1.053-.131l3.5-4.5a.75.75 0 0 0-.131-1.053" style="color:#000;fill:currentColor;stroke-linecap:round;stroke-linejoin:round;-inkscape-stroke:none"/>
</svg>
