<svg xmlns="http://www.w3.org/2000/svg" width="24" height="24" fill="none" stroke-width="1.5" viewBox="0 0 24 24">
    <path d="M3 11.25a.75.75 0 0 0-.75.75.75.75 0 0 0 .75.75h4A4.239 4.239 0 0 1 11.25 17v4a.75.75 0 0 0 .75.75.75.75 0 0 0 .75-.75v-4A5.761 5.761 0 0 0 7 11.25z" style="color:#000;fill:currentColor;stroke-linecap:round;stroke-linejoin:round;-inkscape-stroke:none"/>
    <path d="M17 11.25A5.761 5.761 0 0 0 11.25 17v4a.75.75 0 0 0 .75.75.75.75 0 0 0 .75-.75v-4A4.239 4.239 0 0 1 17 12.75h4a.75.75 0 0 0 .75-.75.75.75 0 0 0-.75-.75Z" style="color:#000;fill:currentColor;stroke-linecap:round;stroke-linejoin:round;-inkscape-stroke:none"/>
    <path d="M12 1.25a.75.75 0 0 0-.75.75v20a.75.75 0 0 0 .75.75.75.75 0 0 0 .75-.75V2a.75.75 0 0 0-.75-.75M6 7.25a.75.75 0 0 0-.531.219l-4 4a.75.75 0 0 0 0 1.062l4 4a.75.75 0 0 0 1.062 0 .75.75 0 0 0 0-1.062L3.063 12 6.53 8.531a.75.75 0 0 0 0-1.062A.75.75 0 0 0 6 7.25" style="color:#000;fill:currentColor;stroke-linecap:round;stroke-linejoin:round;-inkscape-stroke:none"/>
    <path d="m11.469 1.469-4 4a.75.75 0 0 0 0 1.062.75.75 0 0 0 1.062 0L12 3.063l3.469 3.468a.75.75 0 0 0 1.062 0 .75.75 0 0 0 0-1.062l-4-4a.75.75 0 0 0-1.062 0M18 7.25a.75.75 0 0 0-.531.219.75.75 0 0 0 0 1.062L20.937 12l-3.468 3.469a.75.75 0 0 0 0 1.062.75.75 0 0 0 1.062 0l4-4a.75.75 0 0 0 0-1.062l-4-4A.75.75 0 0 0 18 7.25" style="color:#000;fill:currentColor;stroke-linecap:round;stroke-linejoin:round;-inkscape-stroke:none"/>
</svg>
