<svg xmlns="http://www.w3.org/2000/svg" width="24" height="24" fill="none" stroke-width="1.5" viewBox="0 0 24 24">
    <path d="M3 6.25a.75.75 0 0 0-.75.75.75.75 0 0 0 .75.75h4A4.24 4.24 0 0 1 11.25 12v9a.75.75 0 0 0 .75.75.75.75 0 0 0 .75-.75v-9A5.76 5.76 0 0 0 7 6.25Z" style="color:#000;fill:currentColor;stroke-linecap:round;stroke-linejoin:round;-inkscape-stroke:none"/>
    <path d="M17 6.25A5.76 5.76 0 0 0 11.25 12v9a.75.75 0 0 0 .75.75.75.75 0 0 0 .75-.75v-9A4.24 4.24 0 0 1 17 7.75h4a.75.75 0 0 0 .75-.75.75.75 0 0 0-.75-.75ZM7 2.25a.75.75 0 0 0-.531.219l-4 4a.75.75 0 0 0 0 1.062l4 4a.75.75 0 0 0 1.062 0 .75.75 0 0 0 0-1.062L4.063 7 7.53 3.531a.75.75 0 0 0 0-1.062A.75.75 0 0 0 7 2.25" style="color:#000;fill:currentColor;stroke-linecap:round;stroke-linejoin:round;-inkscape-stroke:none"/>
    <path d="M17 2.25a.75.75 0 0 0-.531.219.75.75 0 0 0 0 1.062L19.937 7l-3.468 3.469a.75.75 0 0 0 0 1.062.75.75 0 0 0 1.062 0l4-4a.75.75 0 0 0 0-1.062l-4-4A.75.75 0 0 0 17 2.25" style="color:#000;fill:currentColor;stroke-linecap:round;stroke-linejoin:round;-inkscape-stroke:none"/>
</svg>
