<svg xmlns="http://www.w3.org/2000/svg" width="24" height="24" fill="none" stroke-width="1.5" viewBox="0 0 24 24">
    <path d="M4 2.25a.75.75 0 0 0-.75.75c0 3.168 2.204 5.589 4.291 7.203a20.856 20.856 0 0 0 4.168 2.488s1.919.814 3.832 2.293c1.913 1.48 3.709 3.56 3.709 6.016a.75.75 0 0 0 .75.75.75.75 0 0 0 .75-.75c0-3.168-2.204-5.589-4.291-7.203-2.087-1.614-4.168-2.488-4.168-2.488s-1.919-.814-3.832-2.293C6.546 7.536 4.75 5.456 4.75 3A.75.75 0 0 0 4 2.25" style="color:#000;fill:currentColor;stroke-linecap:round;stroke-linejoin:round;-inkscape-stroke:none"/>
    <path d="M20 2.25a.75.75 0 0 0-.75.75c0 2.457-1.796 4.536-3.709 6.016a19.443 19.443 0 0 1-3.832 2.293s-2.081.874-4.168 2.488C5.454 15.41 3.25 17.832 3.25 21a.75.75 0 0 0 .75.75.75.75 0 0 0 .75-.75c0-2.457 1.796-4.536 3.709-6.016 1.913-1.48 3.832-2.293 3.832-2.293s2.081-.874 4.168-2.488C18.546 8.59 20.75 6.168 20.75 3a.75.75 0 0 0-.75-.75" style="color:#000;fill:currentColor;stroke-linecap:round;stroke-linejoin:round;-inkscape-stroke:none"/>
    <path d="M8 5.25a.75.75 0 0 0-.75.75.75.75 0 0 0 .75.75h11a.75.75 0 0 0 .75-.75.75.75 0 0 0-.75-.75ZM8 17.25a.75.75 0 0 0-.75.75.75.75 0 0 0 .75.75h11a.75.75 0 0 0 .75-.75.75.75 0 0 0-.75-.75ZM11 8.25a.75.75 0 0 0-.75.75.75.75 0 0 0 .75.75h5.5a.75.75 0 0 0 .75-.75.75.75 0 0 0-.75-.75ZM11 14.25a.75.75 0 0 0-.75.75.75.75 0 0 0 .75.75h5.5a.75.75 0 0 0 .75-.75.75.75 0 0 0-.75-.75Z" style="color:#000;fill:currentColor;stroke-linecap:round;stroke-linejoin:round;-inkscape-stroke:none"/>
</svg>
