<svg xmlns="http://www.w3.org/2000/svg" width="24" height="24" fill="none" stroke-width="1.5" viewBox="0 0 24 24">
    <path d="M4 2.25a.75.75 0 0 0-.75.75c0 3.168 2.204 5.589 4.291 7.203a21 21 0 0 0 4.168 2.488s1.919.814 3.832 2.293S19.25 18.544 19.25 21a.75.75 0 0 0 .75.75.75.75 0 0 0 .75-.75c0-3.168-2.204-5.589-4.291-7.203s-4.168-2.488-4.168-2.488-1.919-.814-3.832-2.293S4.75 5.456 4.75 3A.75.75 0 0 0 4 2.25" style="color:#000;fill:currentColor;stroke-linecap:round;stroke-linejoin:round;-inkscape-stroke:none"/>
    <path d="M20 2.25a.75.75 0 0 0-.75.75c0 2.457-1.796 4.536-3.709 6.016a19.4 19.4 0 0 1-3.832 2.293s-2.081.874-4.168 2.488S3.25 17.832 3.25 21a.75.75 0 0 0 .75.75.75.75 0 0 0 .75-.75c0-2.457 1.796-4.536 3.709-6.016s3.832-2.293 3.832-2.293 2.081-.874 4.168-2.488S20.75 6.168 20.75 3a.75.75 0 0 0-.75-.75" style="color:#000;fill:currentColor;stroke-linecap:round;stroke-linejoin:round;-inkscape-stroke:none"/>
    <path d="M8 5.25a.75.75 0 0 0-.75.75.75.75 0 0 0 .75.75h11a.75.75 0 0 0 .75-.75.75.75 0 0 0-.75-.75ZM8 17.25a.75.75 0 0 0-.75.75.75.75 0 0 0 .75.75h11a.75.75 0 0 0 .75-.75.75.75 0 0 0-.75-.75ZM11 8.25a.75.75 0 0 0-.75.75.75.75 0 0 0 .75.75h5.5a.75.75 0 0 0 .75-.75.75.75 0 0 0-.75-.75ZM11 14.25a.75.75 0 0 0-.75.75.75.75 0 0 0 .75.75h5.5a.75.75 0 0 0 .75-.75.75.75 0 0 0-.75-.75Z" style="color:#000;fill:currentColor;stroke-linecap:round;stroke-linejoin:round;-inkscape-stroke:none"/>
</svg>
