<svg xmlns="http://www.w3.org/2000/svg" width="24" height="24" fill="none" stroke-width="1.5" viewBox="0 0 24 24">
    <path d="M12 1.25C6.072 1.25 1.25 6.072 1.25 12c0 2.417.801 4.655 2.15 6.451a.75.75 0 0 0 1.051.149.75.75 0 0 0 .149-1.051A9.2 9.2 0 0 1 2.75 12 9.24 9.24 0 0 1 12 2.75 9.24 9.24 0 0 1 21.25 12v1a.75.75 0 0 0 .75.75.75.75 0 0 0 .75-.75v-1c0-5.928-4.822-10.75-10.75-10.75" style="color:#000;fill:currentColor;stroke-linecap:round;stroke-linejoin:round;-inkscape-stroke:none"/>
    <path d="M12.547 1.451a.75.75 0 0 0-.145 1.051S15.25 6.25 15.25 12v1a.75.75 0 0 0 .75.75.75.75 0 0 0 .75-.75v-1c0-6.25-3.152-10.404-3.152-10.404a.75.75 0 0 0-1.051-.145M10.898 1.307a.75.75 0 0 0-.496.289S7.25 5.75 7.25 12v1a.75.75 0 0 0 .75.75.75.75 0 0 0 .75-.75v-1c0-5.75 2.848-9.498 2.848-9.498a.75.75 0 0 0-.145-1.05.75.75 0 0 0-.555-.145M2.629 14.75a.75.75 0 0 0-.75.75.75.75 0 0 0 .75.75H4a.75.75 0 0 0 .75-.75.75.75 0 0 0-.75-.75Z" style="color:#000;fill:currentColor;stroke-linecap:round;stroke-linejoin:round;-inkscape-stroke:none"/>
    <path d="M2.629 7.75a.75.75 0 0 0-.75.75.75.75 0 0 0 .75.75H21.37a.75.75 0 0 0 .75-.75.75.75 0 0 0-.75-.75zM7 15.25a.75.75 0 0 0-.75.75v6a.75.75 0 0 0 .75.75h1c1.51 0 2.75-1.24 2.75-2.75v-2c0-1.51-1.24-2.75-2.75-2.75Zm.75 1.5H8c.7 0 1.25.55 1.25 1.25v2c0 .7-.55 1.25-1.25 1.25h-.25ZM16 15.25a.75.75 0 0 0-.75.75v2.824l-1.58-3.16a.75.75 0 0 0-1.42.336v6a.75.75 0 0 0 .75.75.75.75 0 0 0 .75-.75v-2.824l1.58 3.16A.75.75 0 0 0 16.75 22v-6a.75.75 0 0 0-.75-.75M20.5 15.25a2.26 2.26 0 0 0-2.25 2.25 2.26 2.26 0 0 0 2.25 2.25h.5c.423 0 .75.327.75.75s-.327.75-.75.75h-2a.75.75 0 0 0-.75.75.75.75 0 0 0 .75.75h2a2.26 2.26 0 0 0 2.25-2.25A2.26 2.26 0 0 0 21 18.25h-.5a.74.74 0 0 1-.75-.75c0-.423.327-.75.75-.75H22a.75.75 0 0 0 .75-.75.75.75 0 0 0-.75-.75Z" style="color:#000;fill:currentColor;stroke-linecap:round;stroke-linejoin:round;-inkscape-stroke:none"/>
</svg>
