<svg xmlns="http://www.w3.org/2000/svg" width="24" height="24" fill="none" stroke-width="1.5" viewBox="0 0 24 24">
    <path d="M20.5 19.75a.75.75 0 0 0-.531.219.75.75 0 0 0 0 1.062l1.5 1.5a.75.75 0 0 0 1.062 0 .75.75 0 0 0 0-1.062l-1.5-1.5a.75.75 0 0 0-.531-.219" style="color:#000;fill:currentColor;stroke-linecap:round;stroke-linejoin:round;-inkscape-stroke:none"/>
    <path d="M18 14.25A3.761 3.761 0 0 0 14.25 18 3.761 3.761 0 0 0 18 21.75 3.75 3.75 0 0 0 21.75 18 3.761 3.761 0 0 0 18 14.25m0 1.5c1.252 0 2.25.998 2.25 2.25 0 .625-.25 1.18-.656 1.588-.408.41-.967.662-1.594.662A2.239 2.239 0 0 1 15.75 18c0-1.252.998-2.25 2.25-2.25" style="color:#000;fill:currentColor;stroke-linecap:round;stroke-linejoin:round;-inkscape-stroke:none"/>
    <path d="M4.6 1.25A1.36 1.36 0 0 0 3.25 2.6v18.8c0 .737.613 1.35 1.35 1.35H11a.75.75 0 0 0 .75-.75.75.75 0 0 0-.75-.75H4.75V2.75h11.438l3.062 3.06V12a.75.75 0 0 0 .75.75.75.75 0 0 0 .75-.75V5.748c0-.358-.142-.7-.395-.953a.75.75 0 0 0 0-.002l-3.148-3.148h-.002a1.35 1.35 0 0 0-.953-.395Z" style="color:#000;fill:currentColor;stroke-linecap:round;stroke-linejoin:round;-inkscape-stroke:none"/>
    <path d="M16 1.25a.75.75 0 0 0-.75.75v3.4c0 .737.613 1.35 1.35 1.35H20a.75.75 0 0 0 .75-.75.75.75 0 0 0-.75-.75h-3.25V2a.75.75 0 0 0-.75-.75" style="color:#000;fill:currentColor;stroke-linecap:round;stroke-linejoin:round;-inkscape-stroke:none"/>
</svg>
