<svg xmlns="http://www.w3.org/2000/svg" width="24" height="24" fill="none" stroke-width="1.5" viewBox="0 0 24 24">
    <path d="M4.6 1.25A1.36 1.36 0 0 0 3.25 2.6v18.8c0 .737.613 1.35 1.35 1.35h14.8a1.36 1.36 0 0 0 1.35-1.35V5.748c0-.358-.142-.7-.395-.953v-.002l-3.148-3.148h-.002a1.35 1.35 0 0 0-.953-.395Zm.15 1.5h11.438l3.062 3.06v15.44H4.75Z" style="color:#000;fill:currentColor;stroke-linecap:round;stroke-linejoin:round;-inkscape-stroke:none"/>
    <path d="M12 7.25a1.14 1.14 0 0 0-1.004.643l-.869 1.841-1.93.295c-.89.136-1.24 1.287-.623 1.916l1.416 1.442-.336 2.047c-.07.426.117.85.432 1.09.315.239.806.304 1.197.09L12 15.667l1.717.945c.39.215.882.15 1.197-.09s.502-.663.432-1.09l-.336-2.046 1.416-1.442c.617-.629.267-1.78-.623-1.916l-1.93-.295-.87-1.841A1.14 1.14 0 0 0 12 7.25m0 2.027.688 1.457a.75.75 0 0 0 .564.422l1.603.246-1.181 1.205a.75.75 0 0 0-.205.647l.271 1.66-1.379-.76a.75.75 0 0 0-.722 0l-1.38.76.272-1.66a.75.75 0 0 0-.205-.647l-1.181-1.205 1.603-.246a.75.75 0 0 0 .565-.422ZM16 1.25a.75.75 0 0 0-.75.75v3.4c0 .737.613 1.35 1.35 1.35H20a.75.75 0 0 0 .75-.75.75.75 0 0 0-.75-.75h-3.25V2a.75.75 0 0 0-.75-.75" style="color:#000;fill:currentColor;stroke-linecap:round;stroke-linejoin:round;-inkscape-stroke:none"/>
</svg>
