<svg xmlns="http://www.w3.org/2000/svg" width="24" height="24" fill="none" stroke-width="1.5" viewBox="0 0 24 24">
    <path d="M10.588 6.244c-.73.01-1.338.618-1.338 1.354v8.804c0 .736.608 1.344 1.338 1.354 1.246.018 2.847.074 4.248-.674 1.401-.748 2.414-2.375 2.414-5.082s-1.013-4.334-2.414-5.082c-1.402-.748-3.002-.692-4.248-.674m.162 1.504c1.205-.014 2.49.016 3.38.492.927.495 1.62 1.389 1.62 3.76 0 2.371-.693 3.265-1.62 3.76-.89.476-2.175.506-3.38.492z" style="color:#000;fill:currentColor;-inkscape-stroke:none"/>
    <path d="M8 11.25a.75.75 0 0 0-.75.75.75.75 0 0 0 .75.75h4a.75.75 0 0 0 .75-.75.75.75 0 0 0-.75-.75Z" style="color:#000;fill:currentColor;stroke-linecap:round;stroke-linejoin:round;-inkscape-stroke:none"/>
    <path d="M12 1.25C6.072 1.25 1.25 6.072 1.25 12S6.072 22.75 12 22.75 22.75 17.928 22.75 12 17.928 1.25 12 1.25m0 1.5A9.239 9.239 0 0 1 21.25 12 9.239 9.239 0 0 1 12 21.25 9.239 9.239 0 0 1 2.75 12 9.239 9.239 0 0 1 12 2.75" style="color:#000;fill:currentColor;stroke-linecap:round;stroke-linejoin:round;-inkscape-stroke:none"/>
</svg>
