<svg xmlns="http://www.w3.org/2000/svg" width="24" height="24" fill="none" stroke-width="1.5" viewBox="0 0 24 24">
    <path d="M12 1.25c-5.566 0-10.158 4.245-10.697 9.676a.75.75 0 0 0 .672.82.75.75 0 0 0 .82-.672A9.244 9.244 0 0 1 12 2.75c3.8 0 7.054 2.285 8.48 5.55a.75.75 0 0 0 .989.387.75.75 0 0 0 .386-.988A10.757 10.757 0 0 0 12 1.25" style="color:#000;fill:currentColor;stroke-linecap:round;stroke-linejoin:round;-inkscape-stroke:none"/>
    <path d="M22 3.25a.75.75 0 0 0-.75.75v3.25H18a.75.75 0 0 0-.75.75.75.75 0 0 0 .75.75h3.4a1.36 1.36 0 0 0 1.35-1.35V4a.75.75 0 0 0-.75-.75M22.074 12.254a.75.75 0 0 0-.82.672 9.244 9.244 0 0 1-9.205 8.324 9.248 9.248 0 0 1-8.48-5.55.75.75 0 0 0-.987-.387.75.75 0 0 0-.389.988 10.757 10.757 0 0 0 9.856 6.449c5.566 0 10.158-4.245 10.697-9.676a.75.75 0 0 0-.672-.82" style="color:#000;fill:currentColor;stroke-linecap:round;stroke-linejoin:round;-inkscape-stroke:none"/>
    <path d="M2.648 15.25a1.36 1.36 0 0 0-1.35 1.35V20a.75.75 0 0 0 .75.75.75.75 0 0 0 .75-.75v-3.25h3.25a.75.75 0 0 0 .75-.75.75.75 0 0 0-.75-.75z" style="color:#000;fill:currentColor;stroke-linecap:round;stroke-linejoin:round;-inkscape-stroke:none"/>
    <path d="M10.588 6.244c-.73.01-1.338.618-1.338 1.354v8.804c0 .736.608 1.344 1.338 1.354 1.246.018 2.847.074 4.248-.674 1.401-.748 2.414-2.375 2.414-5.082s-1.013-4.334-2.414-5.082c-1.402-.748-3.002-.692-4.248-.674m.162 1.504c1.205-.014 2.49.016 3.38.492.927.495 1.62 1.389 1.62 3.76 0 2.371-.693 3.265-1.62 3.76-.89.476-2.175.506-3.38.492z" style="color:#000;fill:currentColor;-inkscape-stroke:none"/>
    <path d="M8 11.25a.75.75 0 0 0-.75.75.75.75 0 0 0 .75.75h4a.75.75 0 0 0 .75-.75.75.75 0 0 0-.75-.75Z" style="color:#000;fill:currentColor;stroke-linecap:round;stroke-linejoin:round;-inkscape-stroke:none"/>
</svg>
