<svg xmlns="http://www.w3.org/2000/svg" width="24" height="24" fill="none" stroke-width="1.5" viewBox="0 0 24 24">
    <path d="M4 9.25c-1.51 0-2.75 1.24-2.75 2.75S2.49 14.75 4 14.75 6.75 13.51 6.75 12 5.51 9.25 4 9.25m0 1.5c.7 0 1.25.55 1.25 1.25S4.7 13.25 4 13.25 2.75 12.7 2.75 12 3.3 10.75 4 10.75M19 8.25a.75.75 0 0 0-.531.219.75.75 0 0 0 0 1.062l1.718 1.719H9a.75.75 0 0 0-.75.75.75.75 0 0 0 .75.75h11.188l-1.72 1.719a.75.75 0 0 0 0 1.062.75.75 0 0 0 1.063 0l3-3a.75.75 0 0 0 .194-.469.75.75 0 0 0 .025-.062.75.75 0 0 0-.025-.129.75.75 0 0 0 0-.064.75.75 0 0 0-.02-.034.75.75 0 0 0-.174-.304l-3-3A.75.75 0 0 0 19 8.25" style="color:#000;fill:currentColor;stroke-linecap:round;stroke-linejoin:round;-inkscape-stroke:none"/>
</svg>
