<svg xmlns="http://www.w3.org/2000/svg" width="24" height="24" fill="none" stroke-width="1.5" viewBox="0 0 24 24">
    <path d="M5.5 6a.5.5 0 1 0 0-1 .5.5 0 0 0 0 1" style="fill:currentColor;stroke-linecap:round;stroke-linejoin:round"/>
    <path d="M5.5 4.25c-.681 0-1.25.569-1.25 1.25s.569 1.25 1.25 1.25 1.25-.569 1.25-1.25-.569-1.25-1.25-1.25m0 1c.13 0 .25.12.25.25s-.12.25-.25.25-.25-.12-.25-.25.12-.25.25-.25M5.5 12.5a.5.5 0 1 0 0-1 .5.5 0 0 0 0 1" style="fill:currentColor;stroke-linecap:round;stroke-linejoin:round"/>
    <path d="M5.5 10.75c-.682 0-1.25.569-1.25 1.25s.568 1.25 1.25 1.25 1.25-.569 1.25-1.25-.568-1.25-1.25-1.25m0 1c.13 0 .25.12.25.25s-.12.25-.25.25-.25-.12-.25-.25.12-.25.25-.25M5.5 19a.5.5 0 1 0 0-1 .5.5 0 0 0 0 1" style="fill:currentColor;stroke-linecap:round;stroke-linejoin:round"/>
    <path d="M5.5 17.25c-.682 0-1.25.569-1.25 1.25s.568 1.25 1.25 1.25 1.25-.569 1.25-1.25-.568-1.25-1.25-1.25m0 1c.13 0 .25.12.25.25s-.12.25-.25.25-.25-.12-.25-.25.12-.25.25-.25M12 6a.5.5 0 1 0 0-1 .5.5 0 0 0 0 1" style="fill:currentColor;stroke-linecap:round;stroke-linejoin:round"/>
    <path d="M12 4.25c-.681 0-1.25.568-1.25 1.25s.569 1.25 1.25 1.25 1.25-.568 1.25-1.25-.569-1.25-1.25-1.25m0 1c.13 0 .25.12.25.25s-.12.25-.25.25-.25-.12-.25-.25.12-.25.25-.25M12 12.5a.5.5 0 1 0 0-1 .5.5 0 0 0 0 1" style="fill:currentColor;stroke-linecap:round;stroke-linejoin:round"/>
    <path d="M12 10.75c-.682 0-1.25.568-1.25 1.25s.568 1.25 1.25 1.25 1.25-.568 1.25-1.25-.568-1.25-1.25-1.25m0 1c.13 0 .25.12.25.25s-.12.25-.25.25-.25-.12-.25-.25.12-.25.25-.25M12 19a.5.5 0 1 0 0-1 .5.5 0 0 0 0 1" style="fill:currentColor;stroke-linecap:round;stroke-linejoin:round"/>
    <path d="M12 17.25c-.682 0-1.25.568-1.25 1.25s.568 1.25 1.25 1.25 1.25-.568 1.25-1.25-.568-1.25-1.25-1.25m0 1c.13 0 .25.12.25.25s-.12.25-.25.25-.25-.12-.25-.25.12-.25.25-.25M18.5 6a.5.5 0 1 0 0-1 .5.5 0 0 0 0 1" style="fill:currentColor;stroke-linecap:round;stroke-linejoin:round"/>
    <path d="M18.5 4.25c-.681 0-1.25.568-1.25 1.25s.569 1.25 1.25 1.25 1.25-.568 1.25-1.25-.569-1.25-1.25-1.25m0 1c.13 0 .25.12.25.25s-.12.25-.25.25-.25-.12-.25-.25.12-.25.25-.25M18.5 12.5a.5.5 0 1 0 0-1 .5.5 0 0 0 0 1" style="fill:currentColor;stroke-linecap:round;stroke-linejoin:round"/>
    <path d="M18.5 10.75c-.682 0-1.25.568-1.25 1.25s.568 1.25 1.25 1.25 1.25-.568 1.25-1.25-.568-1.25-1.25-1.25m0 1c.13 0 .25.12.25.25s-.12.25-.25.25-.25-.12-.25-.25.12-.25.25-.25M18.5 19a.5.5 0 1 0 0-1 .5.5 0 0 0 0 1" style="fill:currentColor;stroke-linecap:round;stroke-linejoin:round"/>
    <path d="M18.5 17.25c-.682 0-1.25.568-1.25 1.25s.568 1.25 1.25 1.25 1.25-.568 1.25-1.25-.568-1.25-1.25-1.25m0 1c.13 0 .25.12.25.25s-.12.25-.25.25-.25-.12-.25-.25.12-.25.25-.25" style="fill:currentColor;stroke-linecap:round;stroke-linejoin:round"/>
</svg>
