<svg xmlns="http://www.w3.org/2000/svg" width="24" height="24" fill="none" stroke-width="1.5" viewBox="0 0 24 24">
    <path d="M1.5 11.75a.75.75 0 0 0-.531.219.75.75 0 0 0 0 1.062l4.076 4.074c.52.522 1.39.522 1.91 0l2.576-2.574a.75.75 0 0 0 0-1.062.75.75 0 0 0-1.062 0L6 15.939l-3.969-3.97a.75.75 0 0 0-.531-.219M16 6.25a.75.75 0 0 0-.531.219l-4 4a.75.75 0 0 0 0 1.062.75.75 0 0 0 1.062 0l4-4a.75.75 0 0 0 0-1.062A.75.75 0 0 0 16 6.25" style="color:#000;fill:currentColor;stroke-linecap:round;-inkscape-stroke:none"/>
    <path d="M22 6.25a.75.75 0 0 0-.531.219L12 15.939l-4.469-4.47a.75.75 0 0 0-1.062 0 .75.75 0 0 0 0 1.062l4.576 4.574c.52.521 1.39.521 1.91 0l9.576-9.574a.75.75 0 0 0 0-1.062A.75.75 0 0 0 22 6.25" style="color:#000;fill:currentColor;stroke-linecap:round;-inkscape-stroke:none"/>
</svg>
