<svg xmlns="http://www.w3.org/2000/svg" width="24" height="24" fill="none" stroke-width="1.5" viewBox="0 0 24 24">
    <path d="M4 3.25a.75.75 0 0 0-.531.219A.75.75 0 0 0 3.25 4v4a.75.75 0 0 0 .75.75.75.75 0 0 0 .75-.75V5.813l6.719 6.718a.75.75 0 0 0 1.062 0 .75.75 0 0 0 0-1.062L5.812 4.75H8A.75.75 0 0 0 8.75 4 .75.75 0 0 0 8 3.25Z" style="color:#000;fill:currentColor;stroke-linecap:round;stroke-linejoin:round;-inkscape-stroke:none"/>
    <path d="M16 3.25a.75.75 0 0 0-.75.75.75.75 0 0 0 .75.75h2.188l-6.72 6.719a.75.75 0 0 0 0 1.062.75.75 0 0 0 1.063 0l6.719-6.719V8a.75.75 0 0 0 .75.75.75.75 0 0 0 .75-.75V4a.8.8 0 0 0-.057-.287.8.8 0 0 0-.162-.244A.75.75 0 0 0 20 3.25Z" style="color:#000;fill:currentColor;stroke-linecap:round;stroke-linejoin:round;-inkscape-stroke:none"/>
    <path d="M12 11.25a.75.75 0 0 0-.531.219L4.75 18.188V16a.75.75 0 0 0-.75-.75.75.75 0 0 0-.75.75v4a.75.75 0 0 0 .219.531.75.75 0 0 0 .531.219h4a.75.75 0 0 0 .75-.75.75.75 0 0 0-.75-.75H5.813l6.718-6.719a.75.75 0 0 0 0-1.062.75.75 0 0 0-.531-.219" style="color:#000;fill:currentColor;stroke-linecap:round;stroke-linejoin:round;-inkscape-stroke:none"/>
    <path d="M12 11.25a.75.75 0 0 0-.531.219.75.75 0 0 0 0 1.062l6.719 6.719H16a.75.75 0 0 0-.75.75.75.75 0 0 0 .75.75h4a.75.75 0 0 0 .531-.219.75.75 0 0 0 .194-.468L20.75 20v-4a.75.75 0 0 0-.75-.75.75.75 0 0 0-.75.75v2.188l-6.719-6.72A.75.75 0 0 0 12 11.25" style="color:#000;fill:currentColor;stroke-linecap:round;stroke-linejoin:round;-inkscape-stroke:none"/>
</svg>
