<svg xmlns="http://www.w3.org/2000/svg" width="24" height="24" fill="none" stroke-width="1.5" viewBox="0 0 24 24">
    <path d="M19 7.178a.75.75 0 0 0-.75.75V16.5c0 1.09-.332 1.87-.875 2.402-.543.533-1.331.848-2.375.848h-4.621c-.35 0-.683-.147-.92-.406l-3.785-4.127a1.241 1.241 0 0 1-.078-1.594L7.6 10.949A.75.75 0 0 0 7.45 9.9a.75.75 0 0 0-1.05.15l-2.004 2.673a2.757 2.757 0 0 0 .172 3.507l3.786 4.127a2.75 2.75 0 0 0 2.025.893H15c1.356 0 2.568-.435 3.426-1.277.857-.843 1.324-2.063 1.324-3.473V7.928a.75.75 0 0 0-.75-.75" style="color:#000;fill:currentColor;stroke-linecap:round;stroke-linejoin:round;-inkscape-stroke:none"/>
    <path d="M17.5 5.465c-1.131 0-2.25.992-2.25 2.463V8.5a.75.75 0 0 0 .75.75.75.75 0 0 0 .75-.75v-.572c0-.815.381-.963.75-.963s.75.148.75.963a.75.75 0 0 0 .75.75.75.75 0 0 0 .75-.75c0-1.471-1.119-2.463-2.25-2.463" style="color:#000;fill:currentColor;stroke-linecap:round;stroke-linejoin:round;-inkscape-stroke:none"/>
    <path d="M14.5 4.563c-.765 0-1.385.56-1.797 1.31a.75.75 0 0 0-.453.627v2a.75.75 0 0 0 .75.75.75.75 0 0 0 .75-.75V7.027c0-.814.381-.965.75-.965s.75.15.75.965V8.5a.75.75 0 0 0 .75.75.75.75 0 0 0 .75-.75V7.028c0-1.472-1.119-2.465-2.25-2.465" style="color:#000;fill:currentColor;stroke-linecap:round;stroke-linejoin:round;-inkscape-stroke:none"/>
    <path d="M14.5 4.563c-1.131 0-2.25.993-2.25 2.464V8.5a.75.75 0 0 0 .75.75.75.75 0 0 0 .75-.75V7.027c0-.814.381-.965.75-.965s.75.15.75.965V8.5a.75.75 0 0 0 .75.75.75.75 0 0 0 .75-.75V7.028c0-1.472-1.119-2.465-2.25-2.465" style="color:#000;fill:currentColor;stroke-linecap:round;stroke-linejoin:round;-inkscape-stroke:none"/>
    <path d="M11.5 4.035c-1.131 0-2.25.994-2.25 2.465v2a.75.75 0 0 0 .75.75.75.75 0 0 0 .75-.75v-2c0-.815.381-.965.75-.965s.75.15.75.965v2a.75.75 0 0 0 .75.75.75.75 0 0 0 .75-.75v-2c0-1.471-1.119-2.465-2.25-2.465" style="color:#000;fill:currentColor;stroke-linecap:round;stroke-linejoin:round;-inkscape-stroke:none"/>
    <path d="M8.5 4.25A2.261 2.261 0 0 0 6.25 6.5v7a.75.75 0 0 0 .75.75.75.75 0 0 0 .75-.75v-7c0-.423.327-.75.75-.75.493 0 .75.21.75.633V8.5a.75.75 0 0 0 .75.75.75.75 0 0 0 .75-.75V6.383c0-1.234-1.086-2.133-2.25-2.133" style="color:#000;fill:currentColor;stroke-linecap:round;stroke-linejoin:round;-inkscape-stroke:none"/>
</svg>
