<svg xmlns="http://www.w3.org/2000/svg" width="24" height="24" fill="none" stroke-width="1.5" viewBox="0 0 24 24">
    <path d="M12 1.25C6.072 1.25 1.25 6.072 1.25 12S6.072 22.75 12 22.75 22.75 17.928 22.75 12 17.928 1.25 12 1.25m0 1.5A9.239 9.239 0 0 1 21.25 12 9.239 9.239 0 0 1 12 21.25 9.239 9.239 0 0 1 2.75 12 9.239 9.239 0 0 1 12 2.75" style="color:#000;fill:currentColor;stroke-linecap:round;stroke-linejoin:round;-inkscape-stroke:none"/>
    <path d="M8.053 2.027a.75.75 0 0 0-.155 1.051c3.948 5.3 6.887 11.187 8.036 17.893a.75.75 0 0 0 .865.611.75.75 0 0 0 .613-.865c-1.196-6.982-4.258-13.094-8.31-18.535a.75.75 0 0 0-1.05-.155" style="color:#000;fill:currentColor;stroke-linecap:round;stroke-linejoin:round;-inkscape-stroke:none"/>
    <path d="M19.012 4.262a.75.75 0 0 0-.485.306c-1.773 2.528-4.874 3.976-8.07 4.745-3.196.768-6.448.856-8.36.779a.75.75 0 0 0-.78.719.75.75 0 0 0 .72.779c2.022.082 5.376-.002 8.77-.819 3.393-.816 6.863-2.367 8.949-5.34a.75.75 0 0 0-.184-1.044.75.75 0 0 0-.56-.125M16.824 11.484c-5.365.303-10.431 3.208-12.283 7.584a.75.75 0 0 0 .398.985.75.75 0 0 0 .983-.399c2.068-4.887 9.573-7.985 15.832-6.125a.75.75 0 0 0 .933-.506.75.75 0 0 0-.505-.931 15.719 15.719 0 0 0-5.358-.608" style="color:#000;fill:currentColor;stroke-linecap:round;stroke-linejoin:round;-inkscape-stroke:none"/>
</svg>
