<svg xmlns="http://www.w3.org/2000/svg" width="24" height="24" fill="none" stroke-width="1.5" viewBox="0 0 24 24">
    <path d="M9.67 7.25c-.792 0-1.43.713-1.342 1.5l.867 7.799a1.36 1.36 0 0 0 1.342 1.201h2.926a1.36 1.36 0 0 0 1.342-1.201l.867-7.799c.087-.787-.55-1.5-1.342-1.5zm.168 1.5h4.324l-.832 7.5h-2.66z" style="color:#000;fill:currentColor;stroke-linecap:round;-inkscape-stroke:none"/>
    <path d="M4.5 1.25A3.261 3.261 0 0 0 1.25 4.5 3.261 3.261 0 0 0 4.5 7.75 3.261 3.261 0 0 0 7.75 4.5 3.261 3.261 0 0 0 4.5 1.25m0 1.5c.975 0 1.75.775 1.75 1.75S5.475 6.25 4.5 6.25 2.75 5.475 2.75 4.5s.775-1.75 1.75-1.75" style="color:#000;fill:currentColor;stroke-linecap:round;stroke-linejoin:round;stroke-miterlimit:1.5;-inkscape-stroke:none"/>
    <path d="M4.406 3.756a.75.75 0 0 0-.498.283.75.75 0 0 0 .131 1.053l4.5 3.5a.75.75 0 0 0 1.053-.131.75.75 0 0 0-.131-1.053l-4.5-3.5a.75.75 0 0 0-.555-.152M9.031 14.914l-5 4a.75.75 0 0 0-.117 1.055.75.75 0 0 0 1.055.117l5-4a.75.75 0 0 0 .117-1.055.75.75 0 0 0-1.055-.117M19.594 3.756a.75.75 0 0 0-.555.152l-4.5 3.5a.75.75 0 0 0-.13 1.053.75.75 0 0 0 1.052.13l4.5-3.5a.75.75 0 0 0 .13-1.052.75.75 0 0 0-.497-.283M14.418 14.754a.75.75 0 0 0-.504.277.75.75 0 0 0 .117 1.055l1.25 1a.75.75 0 0 0 1.055-.117.75.75 0 0 0-.117-1.055l-1.25-1a.75.75 0 0 0-.551-.16" style="color:#000;fill:currentColor;stroke-linecap:round;stroke-linejoin:round;-inkscape-stroke:none"/>
    <path d="M4.5 16.25a3.261 3.261 0 0 0-3.25 3.25 3.261 3.261 0 0 0 3.25 3.25 3.261 3.261 0 0 0 3.25-3.25 3.261 3.261 0 0 0-3.25-3.25m0 1.5c.975 0 1.75.775 1.75 1.75s-.775 1.75-1.75 1.75-1.75-.775-1.75-1.75.775-1.75 1.75-1.75M19.5 1.25a3.261 3.261 0 0 0-3.25 3.25 3.261 3.261 0 0 0 3.25 3.25 3.261 3.261 0 0 0 3.25-3.25 3.261 3.261 0 0 0-3.25-3.25m0 1.5c.975 0 1.75.775 1.75 1.75s-.775 1.75-1.75 1.75-1.75-.775-1.75-1.75.775-1.75 1.75-1.75" style="color:#000;fill:currentColor;stroke-linecap:round;stroke-linejoin:round;stroke-miterlimit:1.5;-inkscape-stroke:none"/>
    <path d="M22 17.25a.75.75 0 0 0-.531.219L18 20.937l-1.469-1.468a.75.75 0 0 0-1.062 0 .75.75 0 0 0 0 1.062l2 2a.75.75 0 0 0 1.062 0l4-4a.75.75 0 0 0 0-1.062.75.75 0 0 0-.531-.219" style="color:#000;fill:currentColor;stroke-linecap:round;stroke-linejoin:round;-inkscape-stroke:none"/>
</svg>
