<svg xmlns="http://www.w3.org/2000/svg" width="24" height="24" fill="none" stroke-width="1.5" viewBox="0 0 24 24">
    <path d="M9.67 7.25c-.792 0-1.43.713-1.342 1.5l.867 7.799a1.36 1.36 0 0 0 1.342 1.201H11a.75.75 0 0 0 .75-.75.75.75 0 0 0-.75-.75h-.33l-.832-7.5h4.324l-.408 3.668a.75.75 0 0 0 .664.828.75.75 0 0 0 .828-.664l.426-3.832c.087-.787-.55-1.5-1.342-1.5z" style="color:#000;fill:currentColor;stroke-linecap:round;-inkscape-stroke:none"/>
    <path d="M4.5 1.25A3.26 3.26 0 0 0 1.25 4.5 3.26 3.26 0 0 0 4.5 7.75 3.26 3.26 0 0 0 7.75 4.5 3.26 3.26 0 0 0 4.5 1.25m0 1.5c.975 0 1.75.775 1.75 1.75S5.475 6.25 4.5 6.25 2.75 5.475 2.75 4.5s.775-1.75 1.75-1.75" style="color:#000;fill:currentColor;stroke-linecap:round;stroke-linejoin:round;stroke-miterlimit:1.5;-inkscape-stroke:none"/>
    <path d="M4.406 3.756a.75.75 0 0 0-.498.283.75.75 0 0 0 .131 1.053l4.5 3.5a.75.75 0 0 0 1.053-.131.75.75 0 0 0-.131-1.053l-4.5-3.5a.75.75 0 0 0-.555-.152M9.031 14.914l-5 4a.75.75 0 0 0-.117 1.055.75.75 0 0 0 1.055.117l5-4a.75.75 0 0 0 .117-1.055.75.75 0 0 0-1.055-.117M19.594 3.756a.75.75 0 0 0-.555.152l-4.5 3.5a.75.75 0 0 0-.13 1.053.75.75 0 0 0 1.052.13l4.5-3.5a.75.75 0 0 0 .13-1.052.75.75 0 0 0-.497-.283" style="color:#000;fill:currentColor;stroke-linecap:round;stroke-linejoin:round;-inkscape-stroke:none"/>
    <path d="M4.5 16.25a3.26 3.26 0 0 0-3.25 3.25 3.26 3.26 0 0 0 3.25 3.25 3.26 3.26 0 0 0 3.25-3.25 3.26 3.26 0 0 0-3.25-3.25m0 1.5c.975 0 1.75.775 1.75 1.75s-.775 1.75-1.75 1.75-1.75-.775-1.75-1.75.775-1.75 1.75-1.75M19.5 1.25a3.26 3.26 0 0 0-3.25 3.25 3.26 3.26 0 0 0 3.25 3.25 3.26 3.26 0 0 0 3.25-3.25 3.26 3.26 0 0 0-3.25-3.25m0 1.5c.975 0 1.75.775 1.75 1.75s-.775 1.75-1.75 1.75-1.75-.775-1.75-1.75.775-1.75 1.75-1.75" style="color:#000;fill:currentColor;stroke-linecap:round;stroke-linejoin:round;stroke-miterlimit:1.5;-inkscape-stroke:none"/>
    <path d="M17.99 13.25c-2.115 0-3.883 1.506-4.51 3.527a.75.75 0 0 0 .495.94.75.75 0 0 0 .94-.494c.454-1.47 1.674-2.473 3.075-2.473 1.311 0 2.46.873 2.979 2.191a.75.75 0 0 0 .972.424.75.75 0 0 0 .422-.972c-.718-1.822-2.395-3.143-4.373-3.143" style="color:#000;fill:currentColor;stroke-linecap:round;stroke-linejoin:round;-inkscape-stroke:none"/>
    <path d="M22 13.8a.75.75 0 0 0-.75.75v1.471h-1.256a.75.75 0 0 0-.75.75.75.75 0 0 0 .75.75H21.4a1.36 1.36 0 0 0 1.35-1.35v-1.62a.75.75 0 0 0-.75-.75M22.025 18.283a.75.75 0 0 0-.94.494c-.454 1.47-1.674 2.473-3.075 2.473-1.311 0-2.46-.873-2.979-2.191a.75.75 0 0 0-.972-.424.75.75 0 0 0-.422.972c.718 1.822 2.395 3.143 4.373 3.143 2.115 0 3.883-1.506 4.51-3.527a.75.75 0 0 0-.495-.94" style="color:#000;fill:currentColor;stroke-linecap:round;stroke-linejoin:round;-inkscape-stroke:none"/>
    <path d="M14.6 18.479a1.36 1.36 0 0 0-1.35 1.35v1.62a.75.75 0 0 0 .75.75.75.75 0 0 0 .75-.75v-1.47h1.256a.75.75 0 0 0 .75-.75.75.75 0 0 0-.75-.75z" style="color:#000;fill:currentColor;stroke-linecap:round;stroke-linejoin:round;-inkscape-stroke:none"/>
</svg>
