<svg xmlns="http://www.w3.org/2000/svg" width="24" height="24" fill="none" stroke-width="1.5" viewBox="0 0 24 24">
    <path d="m12 .967-.516.488S9.454 3.38 7.42 5.87 3.25 11.34 3.25 14c0 4.824 3.926 8.75 8.75 8.75s8.75-3.926 8.75-8.75c0-2.662-2.135-5.64-4.17-8.13s-4.064-4.415-4.064-4.415Zm0 2.138c.42.406 1.713 1.624 3.42 3.713 1.965 2.405 3.83 5.426 3.83 7.182A7.24 7.24 0 0 1 12 21.25 7.24 7.24 0 0 1 4.75 14c0-1.756 1.865-4.777 3.83-7.182 1.707-2.09 3-3.307 3.42-3.713" style="fill:currentColor"/>
    <path d="M12 9.25a.75.75 0 0 0-.75.75v2.193l-1.873-1.091a.75.75 0 0 0-1.025.271.75.75 0 0 0 .271 1.025l1.889 1.102-1.889 1.102a.75.75 0 0 0-.271 1.025.75.75 0 0 0 1.025.271l1.873-1.091V17a.75.75 0 0 0 .75.75.75.75 0 0 0 .75-.75v-2.193l1.873 1.091a.75.75 0 0 0 1.025-.271.75.75 0 0 0-.271-1.025L13.488 13.5l1.889-1.102a.75.75 0 0 0 .271-1.025.75.75 0 0 0-1.025-.271l-1.873 1.091V10a.75.75 0 0 0-.75-.75" style="fill:currentColor;stroke-linecap:round;stroke-linejoin:round"/>
</svg>
