<svg xmlns="http://www.w3.org/2000/svg" width="24" height="24" fill="none" stroke-width="1.5" viewBox="0 0 24 24">
    <path d="M6 2.25C4.49 2.25 3.25 3.49 3.25 5v14a.75.75 0 0 0 .75.75.75.75 0 0 0 .75-.75V5c0-.7.55-1.25 1.25-1.25h13.25v12.965a.75.75 0 0 0 .75.75.75.75 0 0 0 .75-.75V3.6a1.36 1.36 0 0 0-1.35-1.35Z" style="color:#000;fill:currentColor;stroke-linecap:round;-inkscape-stroke:none"/>
    <path d="M13.041 8.252a.75.75 0 0 0-.541.19c-2.327 2.085-3.22 5.349-3.22 5.349a.75.75 0 0 0 .511.93.75.75 0 0 0 .93-.512s.906-2.972 2.779-4.65a.75.75 0 0 0 .059-1.059.75.75 0 0 0-.518-.248" style="color:#000;fill:currentColor;stroke-linecap:round;stroke-linejoin:round;-inkscape-stroke:none"/>
    <path d="m14.979 5.285-2.985.281a3.822 3.822 0 0 0-3.437 4.17 3.854 3.854 0 0 0 4.181 3.448l.135-.012a3.958 3.958 0 0 0 3.559-4.318l-.256-2.58a1.111 1.111 0 0 0-1.197-.989m-.256 1.531.214 2.186a2.43 2.43 0 0 1-2.205 2.676l-.134.013a2.335 2.335 0 0 1-2.55-2.101 2.296 2.296 0 0 1 2.085-2.53Z" style="color:#000;fill:currentColor;stroke-linecap:round;stroke-linejoin:round;-inkscape-stroke:none"/>
    <path d="M6 16.25a.75.75 0 0 0-.75.75.75.75 0 0 0 .75.75h14a.75.75 0 0 0 .75-.75.75.75 0 0 0-.75-.75ZM6 20.25a.75.75 0 0 0-.75.75.75.75 0 0 0 .75.75h14a.75.75 0 0 0 .75-.75.75.75 0 0 0-.75-.75Z" style="color:#000;fill:currentColor;stroke-linecap:round;-inkscape-stroke:none"/>
    <path d="M6 16.25c-1.51 0-2.75 1.24-2.75 2.75S4.49 21.75 6 21.75a.75.75 0 0 0 .75-.75.75.75 0 0 0-.75-.75c-.7 0-1.25-.55-1.25-1.25S5.3 17.75 6 17.75a.75.75 0 0 0 .75-.75.75.75 0 0 0-.75-.75" style="color:#000;fill:currentColor;stroke-linecap:round;stroke-linejoin:round;-inkscape-stroke:none"/>
</svg>
