<svg xmlns="http://www.w3.org/2000/svg" width="24" height="24" fill="none" stroke-width="1.5" viewBox="0 0 24 24">
    <path d="M3 20.25a.75.75 0 0 0-.75.75.75.75 0 0 0 .75.75h18a.75.75 0 0 0 .75-.75.75.75 0 0 0-.75-.75h-9zM14.52 2.469l-2.829 2.83-5.607 5.605a1.752 1.752 0 0 0-.512 1.239v4.535a.75.75 0 0 0 .75.75h4.535c.464 0 .91-.186 1.239-.514L17.7 11.31l2.83-2.829a.75.75 0 0 0 0-1.06l-4.95-4.951a.75.75 0 0 0-1.061 0m.53 1.592 3.89 3.888-1.768 1.77-3.89-3.89Zm-2.827 2.83 3.886 3.886-5.074 5.077a.252.252 0 0 1-.178.074H7.072v-3.785a.25.25 0 0 1 .073-.178.75.75 0 0 0 .001 0z" style="color:#000;fill:currentColor;stroke-linecap:round;stroke-linejoin:round;-inkscape-stroke:none"/>
</svg>
