<svg xmlns="http://www.w3.org/2000/svg" width="24" height="24" fill="none" stroke-width="1.5" viewBox="0 0 24 24">
    <path d="M12 1.25c-2.638 0-4.787 2.149-6.303 4.71C4.182 8.524 3.25 11.589 3.25 14c0 4.824 3.926 8.75 8.75 8.75s8.75-3.926 8.75-8.75c0-2.412-.932-5.477-2.447-8.04C16.787 3.4 14.638 1.25 12 1.25m0 1.5c1.78 0 3.632 1.641 5.012 3.975 1.38 2.333 2.238 5.269 2.238 7.275A7.239 7.239 0 0 1 12 21.25 7.239 7.239 0 0 1 4.75 14c0-2.006.858-4.942 2.238-7.275C8.368 4.39 10.22 2.75 12 2.75" style="color:#000;fill:currentColor;stroke-linecap:round;stroke-linejoin:round;-inkscape-stroke:none"/>
</svg>
