<svg xmlns="http://www.w3.org/2000/svg" width="24" height="24" fill="none" stroke-width="1.5" viewBox="0 0 24 24">
    <path d="M7.6 3.25A1.36 1.36 0 0 0 6.25 4.6v14.8c0 .737.613 1.35 1.35 1.35h8.8a1.36 1.36 0 0 0 1.35-1.35V4.6a1.36 1.36 0 0 0-1.35-1.35Zm.15 1.5h8.5v14.5h-8.5z" style="color:#000;fill:currentColor;stroke-linecap:round;stroke-linejoin:round;-inkscape-stroke:none"/>
    <path d="M14 19.25a.75.75 0 0 0-.75.75v2.5a.75.75 0 0 0 .75.75.75.75 0 0 0 .75-.75V20a.75.75 0 0 0-.75-.75M10 19.25a.75.75 0 0 0-.75.75v2.5a.75.75 0 0 0 .75.75.75.75 0 0 0 .75-.75V20a.75.75 0 0 0-.75-.75M14 .75a.75.75 0 0 0-.75.75V4a.75.75 0 0 0 .75.75.75.75 0 0 0 .75-.75V1.5A.75.75 0 0 0 14 .75M10 .75a.75.75 0 0 0-.75.75V4a.75.75 0 0 0 .75.75.75.75 0 0 0 .75-.75V1.5A.75.75 0 0 0 10 .75M4.5 11.25a.75.75 0 0 0-.75.75.75.75 0 0 0 .75.75H7a.75.75 0 0 0 .75-.75.75.75 0 0 0-.75-.75ZM17 11.25a.75.75 0 0 0-.75.75.75.75 0 0 0 .75.75h2.5a.75.75 0 0 0 .75-.75.75.75 0 0 0-.75-.75ZM4.5 5.75a.75.75 0 0 0-.75.75.75.75 0 0 0 .75.75H7a.75.75 0 0 0 .75-.75.75.75 0 0 0-.75-.75ZM17 5.75a.75.75 0 0 0-.75.75.75.75 0 0 0 .75.75h2.5a.75.75 0 0 0 .75-.75.75.75 0 0 0-.75-.75ZM4.5 16.75a.75.75 0 0 0-.75.75.75.75 0 0 0 .75.75H7a.75.75 0 0 0 .75-.75.75.75 0 0 0-.75-.75ZM17 16.75a.75.75 0 0 0-.75.75.75.75 0 0 0 .75.75h2.5a.75.75 0 0 0 .75-.75.75.75 0 0 0-.75-.75Z" style="color:#000;fill:currentColor;stroke-linecap:round;stroke-linejoin:round;-inkscape-stroke:none"/>
</svg>
