<svg xmlns="http://www.w3.org/2000/svg" width="24" height="24" fill="none" stroke-width="1.5" viewBox="0 0 24 24">
    <path d="M5 3a1 1 0 1 0 0-2 1 1 0 0 0 0 2" style="color:#000;fill:currentColor;stroke-width:1.5;stroke-linecap:round;stroke-linejoin:round;-inkscape-stroke:none"/>
    <path d="M5 .25c-.958 0-1.75.792-1.75 1.75S4.042 3.75 5 3.75 6.75 2.958 6.75 2 5.958.25 5 .25m0 1.5a.24.24 0 0 1 .25.25.24.24 0 0 1-.25.25.24.24 0 0 1-.25-.25.24.24 0 0 1 .25-.25M5 21.25a.75.75 0 0 0-.75.75.75.75 0 0 0 .75.75h8a.75.75 0 0 0 .75-.75.75.75 0 0 0-.75-.75Z" style="color:#000;fill:currentColor;stroke-linecap:round;stroke-linejoin:round;-inkscape-stroke:none"/>
    <path d="M5 1.25a.75.75 0 0 0-.75.75v20a.75.75 0 0 0 .75.75.75.75 0 0 0 .75-.75V2A.75.75 0 0 0 5 1.25" style="color:#000;fill:currentColor;stroke-linecap:round;stroke-linejoin:round;-inkscape-stroke:none"/>
    <path d="M5 23a1 1 0 1 0 0-2 1 1 0 0 0 0 2" style="color:#000;fill:currentColor;stroke-width:1.5;stroke-linecap:round;stroke-linejoin:round;-inkscape-stroke:none"/>
    <path d="M5 20.25c-.958 0-1.75.792-1.75 1.75s.792 1.75 1.75 1.75 1.75-.792 1.75-1.75-.792-1.75-1.75-1.75m0 1.5a.24.24 0 0 1 .25.25.24.24 0 0 1-.25.25.24.24 0 0 1-.25-.25.24.24 0 0 1 .25-.25" style="color:#000;fill:currentColor;stroke-linecap:round;stroke-linejoin:round;-inkscape-stroke:none"/>
    <path d="M13.43 1.264a.75.75 0 0 0-.785.713.75.75 0 0 0 .712.785h.008l.18.013.178.02.177.025.178.032.174.037.174.04.174.048.17.052.17.057.167.062.166.069.166.072.163.078.162.082.123.067a.75.75 0 0 0 1.017-.297.75.75 0 0 0-.299-1.02l-.13-.072a.75.75 0 0 0-.02-.01l-.18-.092a.75.75 0 0 0-.02-.01l-.183-.085a.75.75 0 0 0-.02-.01l-.185-.08a.75.75 0 0 0-.02-.01l-.187-.076a.75.75 0 0 0-.02-.008l-.189-.07a.75.75 0 0 0-.021-.008l-.19-.064a.75.75 0 0 0-.021-.006l-.194-.059a.75.75 0 0 0-.021-.006l-.195-.054a.75.75 0 0 0-.022-.004l-.197-.047a.75.75 0 0 0-.022-.006l-.197-.041a.75.75 0 0 0-.023-.004l-.2-.035a.75.75 0 0 0-.023-.004l-.201-.03a.75.75 0 0 0-.024-.001l-.2-.024a.75.75 0 0 0-.026-.002l-.203-.015a.75.75 0 0 0-.024-.002zm-2.692.552a.75.75 0 0 0-.574.008l-.158.07a.75.75 0 0 0-.016.006l-.158.075a.75.75 0 0 0-.016.007l-.156.077a.75.75 0 0 0-.015.007l-.155.08a.75.75 0 0 0-.015.01l-.153.084a.75.75 0 0 0-.015.01l-.15.088a.75.75 0 0 0-.016.008l-.149.091a.75.75 0 0 0-.015.01l-.147.096a.75.75 0 0 0-.016.01l-.144.1a.75.75 0 0 0-.014.01l-.144.103a.75.75 0 0 0-.014.01l-.14.107a.75.75 0 0 0-.014.01l-.14.109a.75.75 0 0 0-.013.012l-.138.113a.75.75 0 0 0-.012.01l-.137.117a.75.75 0 0 0-.011.012l-.133.119a.75.75 0 0 0-.012.011l-.133.124a.75.75 0 0 0-.011.011l-.13.127a.75.75 0 0 0-.01 1.06.75.75 0 0 0 1.061.01l.123-.12.122-.114.12-.11.124-.105.125-.103.127-.1.129-.097.128-.092.131-.09.133-.088.135-.082.135-.078.136-.076.137-.073.14-.068.141-.064.149-.067a.75.75 0 0 0 .39-.986.75.75 0 0 0-.412-.399m7.867 2.213a.75.75 0 0 0-.548.166.75.75 0 0 0-.106 1.055l.12.148.124.157.12.162.119.166.113.17.111.172.11.177.105.18.102.184.097.187.096.19.09.193.088.197.04.092a.75.75 0 0 0 .983.4.75.75 0 0 0 .399-.982l-.043-.102a.75.75 0 0 0-.006-.013l-.094-.211a.75.75 0 0 0-.008-.016l-.097-.207a.75.75 0 0 0-.006-.014l-.104-.205a.75.75 0 0 0-.008-.015l-.105-.201a.75.75 0 0 0-.008-.014l-.11-.197a.75.75 0 0 0-.007-.014l-.113-.195a.75.75 0 0 0-.008-.014l-.117-.191a.75.75 0 0 0-.01-.014l-.121-.188a.75.75 0 0 0-.008-.013l-.125-.184a.75.75 0 0 0-.01-.014l-.127-.18a.75.75 0 0 0-.01-.013l-.13-.176a.75.75 0 0 0-.01-.013l-.135-.172a.75.75 0 0 0-.012-.014l-.125-.152a.75.75 0 0 0-.506-.272m2.155 5.448a.75.75 0 0 0-.627.855v.004l.031.232.025.235.022.236.018.236.011.24.008.243.002.242-.004.287-.01.285-.017.283-.024.282.002-.008a.75.75 0 0 0 .664.826.75.75 0 0 0 .827-.664v-.002a.75.75 0 0 0 .002-.018l.025-.298a.75.75 0 0 0 .002-.018l.017-.3a.75.75 0 0 0 0-.018l.012-.305a.75.75 0 0 0 0-.018l.004-.304a.75.75 0 0 0 0-.018l-.002-.258a.75.75 0 0 0-.002-.015l-.008-.256a.75.75 0 0 0 0-.016l-.012-.254a.75.75 0 0 0-.002-.015l-.017-.254a.75.75 0 0 0-.002-.014l-.024-.252a.75.75 0 0 0 0-.015l-.029-.248a.75.75 0 0 0-.002-.016l-.031-.248a.75.75 0 0 0-.002-.016l-.002-.012a.75.75 0 0 0-.855-.626m-.215 5.949a.75.75 0 0 0-.961.445l-.055.147-.093.24-.102.236-.104.233-.11.228-.116.223-.12.217-.124.214-.13.21-.132.202-.137.198-.08.107a.75.75 0 0 0 .162 1.049.75.75 0 0 0 1.047-.16l.086-.115a.75.75 0 0 0 .012-.018l.148-.215a.75.75 0 0 0 .012-.015l.145-.221a.75.75 0 0 0 .01-.016l.138-.226a.75.75 0 0 0 .01-.016l.135-.23a.75.75 0 0 0 .01-.018l.128-.234a.75.75 0 0 0 .01-.018l.123-.24a.75.75 0 0 0 .008-.016l.12-.246a.75.75 0 0 0 .007-.016l.113-.25a.75.75 0 0 0 .008-.017l.107-.254a.75.75 0 0 0 .006-.016l.102-.257a.75.75 0 0 0 .008-.018l.056-.156a.75.75 0 0 0-.447-.961z" style="color:#000;fill:currentColor;stroke-linecap:round;stroke-linejoin:round;stroke-dasharray:3,3;-inkscape-stroke:none"/>
    <path d="M7.127 17.875a.75.75 0 0 0-.56.127.75.75 0 0 0-.18 1.045c.388.55.823 1.054 1.299 1.5a.75.75 0 0 0 1.06-.033.75.75 0 0 0-.033-1.06 8.35 8.35 0 0 1-1.1-1.272.75.75 0 0 0-.486-.307" style="color:#000;fill:currentColor;stroke-linecap:round;stroke-linejoin:round;-inkscape-stroke:none"/>
    <path d="M13 23a1 1 0 1 0 0-2 1 1 0 0 0 0 2" style="color:#000;fill:currentColor;stroke-width:1.5;stroke-linecap:round;stroke-linejoin:round;-inkscape-stroke:none"/>
    <path d="M13 20.25c-.958 0-1.75.792-1.75 1.75s.792 1.75 1.75 1.75 1.75-.792 1.75-1.75-.792-1.75-1.75-1.75m0 1.5a.24.24 0 0 1 .25.25.24.24 0 0 1-.25.25.24.24 0 0 1-.25-.25.24.24 0 0 1 .25-.25" style="color:#000;fill:currentColor;stroke-linecap:round;stroke-linejoin:round;-inkscape-stroke:none"/>
</svg>
