<svg xmlns="http://www.w3.org/2000/svg" width="24" height="24" fill="none" stroke-width="1.5" viewBox="0 0 24 24">
    <path d="M12 1.25C6.072 1.25 1.25 6.072 1.25 12S6.072 22.75 12 22.75 22.75 17.928 22.75 12 17.928 1.25 12 1.25m0 1.5A9.239 9.239 0 0 1 21.25 12 9.239 9.239 0 0 1 12 21.25 9.239 9.239 0 0 1 2.75 12 9.239 9.239 0 0 1 12 2.75m-4 5.5a.75.75 0 0 0-.75.75.75.75 0 0 0 .75.75h2a.75.75 0 0 0 .75-.75.75.75 0 0 0-.75-.75Zm6 0a.75.75 0 0 0-.75.75.75.75 0 0 0 .75.75h2a.75.75 0 0 0 .75-.75.75.75 0 0 0-.75-.75Zm-2 4c-1.008 0-1.789.48-2.209 1.063A2.878 2.878 0 0 0 9.25 15v3a.75.75 0 0 0 .75.75h4a.75.75 0 0 0 .75-.75v-3c0-.483-.121-1.104-.541-1.687-.42-.584-1.2-1.063-2.209-1.063m0 1.5c.592 0 .812.188.992.438.18.25.258.629.258.812v2.25h-2.5V15c0-.183.078-.563.258-.812.18-.25.4-.438.992-.438" style="color:#000;fill:currentColor;stroke-linecap:round;stroke-linejoin:round;-inkscape-stroke:none"/>
</svg>
