<svg xmlns="http://www.w3.org/2000/svg" width="24" height="24" fill="none" stroke-width="1.5" viewBox="0 0 24 24">
    <circle cx="15.5" cy="8.5" r="1.25" style="fill:#000;stroke-width:2.27213;stroke-linecap:round;stroke-linejoin:round"/>
    <path d="M12 1.25C6.072 1.25 1.25 6.072 1.25 12S6.072 22.75 12 22.75c4.806 0 8.887-3.162 10.258-7.525.022-.07.013-.15.033-.221l.002-.004a.75.75 0 0 0 0-.002c.278-.955.457-1.955.457-2.998 0-5.928-4.822-10.75-10.75-10.75m0 1.5A9.239 9.239 0 0 1 21.25 12c0 .785-.16 1.524-.344 2.25H17a.75.75 0 0 0-.75.75.75.75 0 0 0 .75.75h3.34c-1.45 3.21-4.58 5.5-8.34 5.5A9.239 9.239 0 0 1 2.75 12 9.239 9.239 0 0 1 12 2.75" style="color:#000;fill:currentColor;stroke-linecap:round;stroke-linejoin:round;-inkscape-stroke:none"/>
</svg>
