<svg xmlns="http://www.w3.org/2000/svg" width="24" height="24" fill="none" stroke-width="1.5" viewBox="0 0 24 24">
    <circle cx="17.5" cy="8.5" r="1.25" style="fill:#000;stroke-width:2.27213;stroke-linecap:round;stroke-linejoin:round"/>
    <circle cx="10.5" cy="8.5" r="1.25" style="fill:#000;stroke-width:2.27213;stroke-linecap:round;stroke-linejoin:round"/>
    <path d="M12 1.25a.75.75 0 0 0-.75.75.75.75 0 0 0 .75.75A9.239 9.239 0 0 1 21.25 12 9.239 9.239 0 0 1 12 21.25 9.239 9.239 0 0 1 2.75 12a.75.75 0 0 0-.75-.75.75.75 0 0 0-.75.75c0 5.928 4.822 10.75 10.75 10.75S22.75 17.928 22.75 12 17.928 1.25 12 1.25" style="color:#000;fill:currentColor;stroke-linecap:round;stroke-linejoin:round;-inkscape-stroke:none"/>
    <path d="M16 12.75c-3.333 0-5.1 2.3-5.1 2.3a.75.75 0 0 0 .15 1.05.75.75 0 0 0 1.05-.15s1.233-1.7 3.9-1.7 3.9 1.7 3.9 1.7a.75.75 0 0 0 1.05.15.75.75 0 0 0 .15-1.05s-1.767-2.3-5.1-2.3M5 1.184c-.672 0-1.355.23-1.883.714C2.59 2.383 2.25 3.13 2.25 4a.75.75 0 0 0 .75.75.75.75 0 0 0 .75-.75c0-.507.16-.792.383-.996.222-.204.54-.32.867-.32.328 0 .645.116.867.32.222.204.383.489.383.996 0 .73-.238.824-.758 1.3-.52.478-1.242 1.308-1.242 2.7a.75.75 0 0 0 .75.75.75.75 0 0 0 .75-.75c0-.969.277-1.155.758-1.596C6.988 5.964 7.75 5.238 7.75 4c0-.87-.34-1.617-.867-2.102A2.775 2.775 0 0 0 5 1.184M4.97 10.25a.75.75 0 0 0-.517.246l-.01.012a.75.75 0 0 0 .055 1.058.75.75 0 0 0 1.059-.054l.01-.012a.75.75 0 0 0-.055-1.059.75.75 0 0 0-.541-.191" style="color:#000;fill:currentColor;stroke-linecap:round;stroke-linejoin:round;-inkscape-stroke:none"/>
</svg>
