<svg xmlns="http://www.w3.org/2000/svg" width="24" height="24" fill="none" stroke-width="1.5" viewBox="0 0 24 24">
    <path d="M9 20.25a.75.75 0 0 0-.75.75.75.75 0 0 0 .75.75h12a.75.75 0 0 0 .75-.75.75.75 0 0 0-.75-.75ZM8.465 6.715a.75.75 0 0 0-.531.219.75.75 0 0 0 0 1.06l7.425 7.426a.75.75 0 0 0 1.06 0 .75.75 0 0 0 0-1.06L8.995 6.933a.75.75 0 0 0-.53-.22" style="color:#000;fill:currentColor;stroke-linecap:round;stroke-linejoin:round;-inkscape-stroke:none"/>
    <path d="M13.5 2.084c-.705 0-1.411.267-1.945.8l-9.192 9.192a2.761 2.761 0 0 0 0 3.889l5 5a2.68 2.68 0 0 0 3.79 0l9.242-9.242a2.761 2.761 0 0 0 0-3.889l-4.95-4.95a2.743 2.743 0 0 0-1.945-.8m0 1.49c.318 0 .638.124.885.371l4.949 4.95a1.239 1.239 0 0 1 0 1.767l-9.242 9.242a1.18 1.18 0 0 1-1.668 0l-5-5a1.239 1.239 0 0 1 0-1.767l9.191-9.192c.247-.247.567-.37.885-.37" style="color:#000;fill:currentColor;stroke-linecap:round;stroke-linejoin:round;-inkscape-stroke:none"/>
</svg>
