<svg xmlns="http://www.w3.org/2000/svg" width="24" height="24" fill="none" stroke-width="1.5" viewBox="0 0 24 24">
    <path d="M12 1.25c-5.566 0-10.158 4.245-10.697 9.676a.75.75 0 0 0 .672.82.75.75 0 0 0 .82-.672A9.244 9.244 0 0 1 12 2.75c3.8 0 7.054 2.285 8.48 5.55a.75.75 0 0 0 .989.387.75.75 0 0 0 .386-.988A10.757 10.757 0 0 0 12 1.25" style="color:#000;fill:currentColor;stroke-linecap:round;stroke-linejoin:round;-inkscape-stroke:none"/>
    <path d="M22 3.25a.75.75 0 0 0-.75.75v3.25H18a.75.75 0 0 0-.75.75.75.75 0 0 0 .75.75h3.4a1.36 1.36 0 0 0 1.35-1.35V4a.75.75 0 0 0-.75-.75M22.074 12.254a.75.75 0 0 0-.82.672 9.244 9.244 0 0 1-9.205 8.324 9.248 9.248 0 0 1-8.48-5.55.75.75 0 0 0-.987-.387.75.75 0 0 0-.389.988 10.757 10.757 0 0 0 9.856 6.449c5.566 0 10.158-4.245 10.697-9.676a.75.75 0 0 0-.672-.82" style="color:#000;fill:currentColor;stroke-linecap:round;stroke-linejoin:round;-inkscape-stroke:none"/>
    <path d="M2.648 15.25a1.36 1.36 0 0 0-1.35 1.35V20a.75.75 0 0 0 .75.75.75.75 0 0 0 .75-.75v-3.25h3.25a.75.75 0 0 0 .75-.75.75.75 0 0 0-.75-.75zM12 4.25a.75.75 0 0 0-.06.025.75.75 0 0 0-.21.077.75.75 0 0 0-.166.039.75.75 0 0 0-.007.04.75.75 0 0 0-.114.1.75.75 0 0 0-.052.033l-5 7a.75.75 0 0 0-.036.153.75.75 0 0 0-.091.137.75.75 0 0 0 .006.007.75.75 0 0 0 .02.139.75.75 0 0 0 .062.27.75.75 0 0 0 .039.166l5 7a.75.75 0 0 0 1.218 0l5-7a.75.75 0 0 0 .002-.006.75.75 0 0 0 .043-.084.75.75 0 0 0 .04-.096.75.75 0 0 0 .042-.152.75.75 0 0 0 0-.086.75.75 0 0 0 0-.024.75.75 0 0 0 0-.086.75.75 0 0 0 0-.049.75.75 0 0 0-.035-.05.75.75 0 0 0-.066-.174.75.75 0 0 0-.026-.065l-4.972-6.96-.028-.04a.75.75 0 0 0-.023-.015.75.75 0 0 0-.004-.002.75.75 0 0 0-.11-.117.75.75 0 0 0-.036-.04.75.75 0 0 0-.034-.007.75.75 0 0 0-.246-.102.75.75 0 0 0-.066-.013.75.75 0 0 0-.09-.018m-.75 3.088v4.746l-2.967-.594zm1.5 0 2.967 4.152-2.967.594zm-4.04 5.77 3.144.628a.75.75 0 0 0 .076-.015.75.75 0 0 0 .07.029.75.75 0 0 0 .07-.03.75.75 0 0 0 .076.016l3.143-.629L12 17.711Z" style="color:#000;fill:currentColor;stroke-linecap:round;stroke-linejoin:round;-inkscape-stroke:none"/>
</svg>
