<svg xmlns="http://www.w3.org/2000/svg" width="24" height="24" fill="none" stroke-width="1.5" viewBox="0 0 24 24">
    <path d="M12 1.25c-5.566 0-10.158 4.245-10.697 9.676a.75.75 0 0 0 .672.82.75.75 0 0 0 .82-.672A9.244 9.244 0 0 1 12 2.75c3.8 0 7.054 2.285 8.48 5.55a.75.75 0 0 0 .989.387.75.75 0 0 0 .386-.988A10.76 10.76 0 0 0 12 1.25" style="color:#000;fill:currentColor;stroke-linecap:round;stroke-linejoin:round;-inkscape-stroke:none"/>
    <path d="M22 3.25a.75.75 0 0 0-.75.75v3.25H18a.75.75 0 0 0-.75.75.75.75 0 0 0 .75.75h3.4a1.36 1.36 0 0 0 1.35-1.35V4a.75.75 0 0 0-.75-.75M22.074 12.254a.75.75 0 0 0-.82.672 9.244 9.244 0 0 1-9.205 8.324 9.25 9.25 0 0 1-8.48-5.55.75.75 0 0 0-.987-.387.75.75 0 0 0-.389.988 10.76 10.76 0 0 0 9.856 6.449c5.566 0 10.158-4.245 10.697-9.676a.75.75 0 0 0-.672-.82" style="color:#000;fill:currentColor;stroke-linecap:round;stroke-linejoin:round;-inkscape-stroke:none"/>
    <path d="M2.648 15.25a1.36 1.36 0 0 0-1.35 1.35V20a.75.75 0 0 0 .75.75.75.75 0 0 0 .75-.75v-3.25h3.25a.75.75 0 0 0 .75-.75.75.75 0 0 0-.75-.75zM12 4.25l-.06.025a.8.8 0 0 0-.21.077.8.8 0 0 0-.166.039l-.007.04a1 1 0 0 0-.114.1l-.052.033-5 7a.8.8 0 0 0-.036.153.8.8 0 0 0-.091.137l.006.007a1 1 0 0 0 .02.139.8.8 0 0 0 .062.27.8.8 0 0 0 .039.166l5 7a.75.75 0 0 0 1.218 0l5-7 .002-.006a1 1 0 0 0 .043-.084 1 1 0 0 0 .04-.096.8.8 0 0 0 .042-.152 1 1 0 0 0 0-.086v-.024a1 1 0 0 0 0-.086v-.049l-.035-.05a.8.8 0 0 0-.066-.174l-.026-.065-4.972-6.96-.028-.04-.023-.015-.004-.002a.8.8 0 0 0-.11-.117l-.036-.04-.034-.007a.8.8 0 0 0-.246-.102l-.066-.013A1 1 0 0 0 12 4.25m-.75 3.088v4.746l-2.967-.594zm1.5 0 2.967 4.152-2.967.594zm-4.04 5.77 3.144.628a1 1 0 0 0 .076-.015l.07.029.07-.03a1 1 0 0 0 .076.016l3.143-.629L12 17.711Z" style="color:#000;fill:currentColor;stroke-linecap:round;stroke-linejoin:round;-inkscape-stroke:none"/>
</svg>
