<svg xmlns="http://www.w3.org/2000/svg" width="24" height="24" fill="none" stroke-width="1.5" viewBox="0 0 24 24">
    <path d="M10 12.404a.75.75 0 0 0-.75.75V21a.75.75 0 0 0 .75.75.75.75 0 0 0 .75-.75v-7.846a.75.75 0 0 0-.75-.75" style="color:#000;fill:currentColor;stroke-linecap:round;-inkscape-stroke:none"/>
    <path d="M7 5.635c-1.51 0-2.75 1.24-2.75 2.75v2.77c0 1.51 1.24 2.75 2.75 2.75h6c1.51 0 2.75-1.24 2.75-2.75v-2.77c0-1.51-1.24-2.75-2.75-2.75zm0 1.5h6c.7 0 1.25.55 1.25 1.25v2.77c0 .698-.55 1.25-1.25 1.25H7c-.7 0-1.25-.552-1.25-1.25v-2.77c0-.7.55-1.25 1.25-1.25" style="color:#000;fill:currentColor;stroke-linecap:round;-inkscape-stroke:none"/>
    <path d="M13.334 2.25a.75.75 0 0 0-.75.75v3.385a.75.75 0 0 0 .75.75.75.75 0 0 0 .75-.75V3a.75.75 0 0 0-.75-.75M6.666 2.25a.75.75 0 0 0-.75.75v3.385a.75.75 0 0 0 .75.75.75.75 0 0 0 .75-.75V3a.75.75 0 0 0-.75-.75" style="color:#000;fill:currentColor;stroke-linecap:round;-inkscape-stroke:none"/>
    <path d="M17.031 15.344a.75.75 0 0 0-1.02.293l-1.667 3A.75.75 0 0 0 15 19.75h2.725l-1.047 1.887a.75.75 0 0 0 .29 1.02.75.75 0 0 0 1.02-.294l1.668-3A.75.75 0 0 0 19 18.25h-2.725l1.047-1.887a.75.75 0 0 0-.29-1.02" style="color:#000;fill:currentColor;stroke-linecap:round;stroke-linejoin:round;-inkscape-stroke:none"/>
</svg>
