<svg xmlns="http://www.w3.org/2000/svg" width="24" height="24" fill="none" stroke-width="1.5" viewBox="0 0 24 24">
    <path d="m11.344 6.506-8.399 4.668a.75.75 0 0 0-.002 0c-.427.237-.693.69-.693 1.18v4.292c0 .49.266.943.693 1.18a.75.75 0 0 0 .002 0l8.399 4.668c.407.226.905.226 1.312 0l8.399-4.668a.75.75 0 0 0 .002 0c.427-.237.693-.69.693-1.18v-4.292c0-.49-.266-.943-.693-1.18a.75.75 0 0 0-.002 0l-8.399-4.668a1.355 1.355 0 0 0-1.312 0M12 7.859l8.25 4.582v4.118L12 21.14l-8.25-4.582V12.44z" style="color:#000;fill:currentColor;stroke-linecap:round;stroke-linejoin:round;-inkscape-stroke:none"/>
    <path d="M3.322 11.572a.75.75 0 0 0-.449.358.75.75 0 0 0 .291 1.02l8.18 4.544c.407.226.905.226 1.312 0l8.207-4.56a.75.75 0 0 0 .293-1.02.75.75 0 0 0-1.02-.291L12 16.141l-8.107-4.502a.75.75 0 0 0-.57-.067" style="color:#000;fill:currentColor;stroke-linecap:round;stroke-linejoin:round;-inkscape-stroke:none"/>
    <path d="M12 16.25a.75.75 0 0 0-.75.75v4.5a.75.75 0 0 0 .75.75.75.75 0 0 0 .75-.75V17a.75.75 0 0 0-.75-.75M12 1.25a.75.75 0 0 0-.531.219l-2.5 2.5a.75.75 0 0 0 0 1.062.75.75 0 0 0 1.062 0l1.219-1.218V12a.75.75 0 0 0 .75.75.75.75 0 0 0 .75-.75V3.813l1.219 1.218a.75.75 0 0 0 1.062 0 .75.75 0 0 0 0-1.062l-2.5-2.5A.75.75 0 0 0 12 1.25" style="color:#000;fill:currentColor;stroke-linecap:round;stroke-linejoin:round;-inkscape-stroke:none"/>
</svg>
