<svg xmlns="http://www.w3.org/2000/svg" width="24" height="24" fill="none" stroke-width="1.5" viewBox="0 0 24 24">
    <path d="M17.14 11.863a.75.75 0 0 0-.556.135.75.75 0 0 0-.166 1.047l2.477 3.396a.75.75 0 0 0 1.046.164.75.75 0 0 0 .164-1.046l-2.474-3.397a.75.75 0 0 0-.49-.299M12 13.25a.75.75 0 0 0-.75.75v3.5a.75.75 0 0 0 .75.75.75.75 0 0 0 .75-.75V14a.75.75 0 0 0-.75-.75M7.41 12.006a.75.75 0 0 0-1.047.164l-2.468 3.389a.75.75 0 0 0 .164 1.046.75.75 0 0 0 1.046-.164l2.47-3.386a.75.75 0 0 0-.165-1.05" style="color:#000;fill:currentColor;stroke-linecap:round;stroke-linejoin:round;-inkscape-stroke:none"/>
    <path d="M2.691 7.316a.75.75 0 0 0-.375.993C4.232 12.565 8.122 14.75 12 14.75s7.768-2.185 9.684-6.441a.75.75 0 0 0-.375-.993.75.75 0 0 0-.993.375C18.632 11.435 15.322 13.25 12 13.25s-6.632-1.815-8.316-5.559a.75.75 0 0 0-.993-.375" style="color:#000;fill:currentColor;stroke-linecap:round;stroke-linejoin:round;-inkscape-stroke:none"/>
</svg>
