<svg xmlns="http://www.w3.org/2000/svg" width="24" height="24" fill="none" stroke-width="1.5" viewBox="0 0 24 24">
    <path d="M12 6.25c-3.878 0-7.768 2.185-9.684 6.441a.75.75 0 0 0 .375.993.75.75 0 0 0 .993-.375C5.368 9.565 8.678 7.75 12 7.75c3.322 0 6.632 1.815 8.316 5.559a.75.75 0 0 0 .993.375.75.75 0 0 0 .375-.993C19.768 8.435 15.878 6.25 12 6.25" style="color:#000;fill:currentColor;stroke-linecap:round;stroke-linejoin:round;-inkscape-stroke:none"/>
    <path d="M12 10.25A3.761 3.761 0 0 0 8.25 14 3.761 3.761 0 0 0 12 17.75 3.761 3.761 0 0 0 15.75 14 3.761 3.761 0 0 0 12 10.25m0 1.5c1.252 0 2.25.998 2.25 2.25s-.998 2.25-2.25 2.25A2.239 2.239 0 0 1 9.75 14c0-1.252.998-2.25 2.25-2.25" style="color:#000;fill:currentColor;stroke-linecap:round;stroke-linejoin:round;-inkscape-stroke:none"/>
</svg>
