<svg xmlns="http://www.w3.org/2000/svg" width="24" height="24" fill="none" stroke-width="1.5" viewBox="0 0 24 24">
    <path d="M5 2.25C3.49 2.25 2.25 3.49 2.25 5v2a.75.75 0 0 0 .75.75.75.75 0 0 0 .75-.75V5c0-.7.55-1.25 1.25-1.25h2A.75.75 0 0 0 7.75 3 .75.75 0 0 0 7 2.25ZM17 2.25a.75.75 0 0 0-.75.75.75.75 0 0 0 .75.75h2c.7 0 1.25.55 1.25 1.25v2a.75.75 0 0 0 .75.75.75.75 0 0 0 .75-.75V5c0-1.51-1.24-2.75-2.75-2.75ZM16 7.25a.75.75 0 0 0-.75.75v2a.75.75 0 0 0 .75.75.75.75 0 0 0 .75-.75V8a.75.75 0 0 0-.75-.75M8 7.25a.75.75 0 0 0-.75.75v2a.75.75 0 0 0 .75.75.75.75 0 0 0 .75-.75V8A.75.75 0 0 0 8 7.25M9 15.25a.75.75 0 0 0-.531.219.75.75 0 0 0 0 1.062s.356.344.945.639c.59.295 1.461.58 2.586.58s1.996-.285 2.586-.58.945-.639.945-.639a.75.75 0 0 0 0-1.062.75.75 0 0 0-1.062 0s-.144.156-.555.361c-.41.205-1.039.42-1.914.42s-1.504-.215-1.914-.42-.555-.361-.555-.361A.75.75 0 0 0 9 15.25M12 7.25a.75.75 0 0 0-.75.75v4.25H11a.75.75 0 0 0-.75.75.75.75 0 0 0 .75.75h1a.75.75 0 0 0 .75-.75V8a.75.75 0 0 0-.75-.75M3 16.25a.75.75 0 0 0-.75.75v2c0 1.51 1.24 2.75 2.75 2.75h2a.75.75 0 0 0 .75-.75.75.75 0 0 0-.75-.75H5c-.7 0-1.25-.55-1.25-1.25v-2a.75.75 0 0 0-.75-.75M21 16.25a.75.75 0 0 0-.75.75v2c0 .7-.55 1.25-1.25 1.25h-2a.75.75 0 0 0-.75.75.75.75 0 0 0 .75.75h2c1.51 0 2.75-1.24 2.75-2.75v-2a.75.75 0 0 0-.75-.75" style="color:#000;fill:currentColor;stroke-linecap:round;stroke-linejoin:round;-inkscape-stroke:none"/>
</svg>
