<svg xmlns="http://www.w3.org/2000/svg" width="24" height="24" fill="none" stroke-width="1.5" viewBox="0 0 24 24">
    <path d="M12.709 1.564 1.919 7.846c-.413.24-.669.686-.669 1.166v12.3c0 .805.736 1.447 1.533 1.338l10.184-1.388c.2-.027.39-.099.558-.21l6.616-4.347c.379-.25.609-.675.609-1.129V7.78c0-.398-.177-.777-.482-1.033l-6.01-5.049a1.357 1.357 0 0 0-1.549-.133m.666 1.35L19.25 7.85v7.646l-6.52 4.283-9.98 1.362V9.098Z" style="color:#000;fill:currentColor;stroke-linecap:round;stroke-linejoin:round;-inkscape-stroke:none"/>
    <path d="M19.635 6.762a.75.75 0 0 0-.563.12l-6.207 4.3-10.16-2.903a.75.75 0 0 0-.926.516.75.75 0 0 0 .516.926l10.226 2.922c.389.11.807.042 1.14-.188l6.267-4.338a.75.75 0 0 0 .19-1.045.75.75 0 0 0-.483-.31" style="color:#000;fill:currentColor;stroke-linecap:round;stroke-linejoin:round;-inkscape-stroke:none"/>
    <path d="M13 11.25a.75.75 0 0 0-.75.75v8.5a.75.75 0 0 0 .75.75.75.75 0 0 0 .75-.75V12a.75.75 0 0 0-.75-.75M17.012 13.441a.75.75 0 0 0-1.059.055l-.01.012a.75.75 0 0 0 .055 1.058.75.75 0 0 0 1.059-.054l.01-.012a.75.75 0 0 0-.055-1.059M22.512 16.441a.75.75 0 0 0-1.059.055l-.01.012a.75.75 0 0 0 .055 1.058.75.75 0 0 0 1.059-.054l.01-.012a.75.75 0 0 0-.055-1.059" style="color:#000;fill:currentColor;stroke-linecap:round;stroke-linejoin:round;-inkscape-stroke:none"/>
</svg>
