<svg xmlns="http://www.w3.org/2000/svg" width="24" height="24" fill="none" stroke-width="1.5" viewBox="0 0 24 24">
    <path d="m7.664 4.33-6 3A.75.75 0 0 0 1.25 8v12a.75.75 0 0 0 .75.75h12a.75.75 0 0 0 .75-.75V8a.75.75 0 0 0-.414-.67l-6-3a.75.75 0 0 0-.672 0M8 5.838l5.25 2.625V19.25h-1.5V13a.75.75 0 0 0-.75-.75H5a.75.75 0 0 0-.75.75v6.25h-1.5V8.463ZM5.75 13.75h4.5v5.5h-4.5zM18 13.25a.75.75 0 0 0-.75.75v6a.75.75 0 0 0 .75.75.75.75 0 0 0 .75-.75v-6a.75.75 0 0 0-.75-.75" style="color:#000;fill:currentColor;stroke-linecap:round;stroke-linejoin:round;-inkscape-stroke:none"/>
    <path d="M14 16.25a.75.75 0 0 0-.75.75.75.75 0 0 0 .75.75h8a.75.75 0 0 0 .75-.75.75.75 0 0 0-.75-.75h-4zM14 13.25a.75.75 0 0 0-.75.75.75.75 0 0 0 .75.75h8a.75.75 0 0 0 .75-.75.75.75 0 0 0-.75-.75h-4z" style="color:#000;fill:currentColor;stroke-linecap:round;stroke-linejoin:round;-inkscape-stroke:none"/>
</svg>
