<svg xmlns="http://www.w3.org/2000/svg" width="24" height="24" fill="none" stroke-width="1.5" viewBox="0 0 24 24">
    <path d="M11 5.25a.75.75 0 0 0-.531.219l-6 6a.75.75 0 0 0 0 1.062l6 6a.75.75 0 0 0 1.062 0 .75.75 0 0 0 0-1.062L6.062 12l5.47-5.469a.75.75 0 0 0 0-1.062A.75.75 0 0 0 11 5.25M19 5.25a.75.75 0 0 0-.531.219l-6 6a.75.75 0 0 0 0 1.062l6 6a.75.75 0 0 0 1.062 0 .75.75 0 0 0 0-1.062L14.063 12l5.468-5.469a.75.75 0 0 0 0-1.062A.75.75 0 0 0 19 5.25" style="color:#000;fill:currentColor;stroke-linecap:round;stroke-linejoin:round;-inkscape-stroke:none"/>
</svg>
