<svg xmlns="http://www.w3.org/2000/svg" width="24" height="24" fill="none" stroke-width="1.5" viewBox="0 0 24 24">
    <path d="m11.469 12.469-3.5 3.5a.75.75 0 0 0 0 1.062.75.75 0 0 0 1.062 0L12 14.063l2.969 2.968a.75.75 0 0 0 1.062 0 .75.75 0 0 0 0-1.062l-3.5-3.5a.75.75 0 0 0-1.062 0M11.469 6.469l-3.5 3.5a.75.75 0 0 0 0 1.062.75.75 0 0 0 1.062 0L12 8.062l2.969 2.97a.75.75 0 0 0 1.062 0 .75.75 0 0 0 0-1.063l-3.5-3.5a.75.75 0 0 0-1.062 0" style="color:#000;fill:currentColor;stroke-linecap:round;stroke-linejoin:round;-inkscape-stroke:none"/>
    <path d="M3.6 2.25A1.36 1.36 0 0 0 2.25 3.6v16.8c0 .737.613 1.35 1.35 1.35h16.8a1.36 1.36 0 0 0 1.35-1.35V3.6a1.36 1.36 0 0 0-1.35-1.35Zm.15 1.5h16.5v16.5H3.75Z" style="color:#000;fill:currentColor;-inkscape-stroke:none"/>
</svg>
