<svg xmlns="http://www.w3.org/2000/svg" width="24" height="24" fill="none" stroke-width="1.5" viewBox="0 0 24 24">
    <path d="M6 12.25a.75.75 0 0 0-.531.219.75.75 0 0 0 0 1.062l6 6a.75.75 0 0 0 1.062 0l6-6a.75.75 0 0 0 0-1.062.75.75 0 0 0-1.062 0L12 17.938l-5.469-5.47A.75.75 0 0 0 6 12.25M6 4.25a.75.75 0 0 0-.531.219.75.75 0 0 0 0 1.062l6 6a.75.75 0 0 0 1.062 0l6-6a.75.75 0 0 0 0-1.062.75.75 0 0 0-1.062 0L12 9.938l-5.469-5.47A.75.75 0 0 0 6 4.25" style="color:#000;fill:currentColor;stroke-linecap:round;stroke-linejoin:round;-inkscape-stroke:none"/>
</svg>
