<svg xmlns="http://www.w3.org/2000/svg" width="24" height="24" fill="none" stroke-width="1.5" viewBox="0 0 24 24">
    <path d="m11.469 4.469-6 6a.75.75 0 0 0 0 1.062.75.75 0 0 0 1.062 0L12 6.062l5.469 5.47a.75.75 0 0 0 1.062 0 .75.75 0 0 0 0-1.063l-6-6a.75.75 0 0 0-1.062 0M11.469 12.469l-6 6a.75.75 0 0 0 0 1.062.75.75 0 0 0 1.062 0L12 14.063l5.469 5.468a.75.75 0 0 0 1.062 0 .75.75 0 0 0 0-1.062l-6-6a.75.75 0 0 0-1.062 0" style="color:#000;fill:currentColor;stroke-linecap:round;stroke-linejoin:round;-inkscape-stroke:none"/>
</svg>
