<svg xmlns="http://www.w3.org/2000/svg" width="24" height="24" fill="none" stroke-width="1.5" viewBox="0 0 24 24">
    <path d="M13 5.25a.75.75 0 0 0-.531.219.75.75 0 0 0 0 1.062L17.938 12l-5.47 5.469a.75.75 0 0 0 0 1.062.75.75 0 0 0 1.063 0l6-6a.75.75 0 0 0 0-1.062l-6-6A.75.75 0 0 0 13 5.25M5 5.25a.75.75 0 0 0-.531.219.75.75 0 0 0 0 1.062L9.938 12l-5.47 5.469a.75.75 0 0 0 0 1.062.75.75 0 0 0 1.063 0l6-6a.75.75 0 0 0 0-1.062l-6-6A.75.75 0 0 0 5 5.25" style="color:#000;fill:currentColor;stroke-linecap:round;stroke-linejoin:round;-inkscape-stroke:none"/>
</svg>
