<svg xmlns="http://www.w3.org/2000/svg" width="24" height="24" fill="none" stroke-width="1.5" viewBox="0 0 24 24">
    <path d="M6 2.25C4.49 2.25 3.25 3.49 3.25 5v14a.75.75 0 0 0 .75.75.75.75 0 0 0 .75-.75V5c0-.7.55-1.25 1.25-1.25h13.25v12.965a.75.75 0 0 0 .75.75.75.75 0 0 0 .75-.75V3.6a1.36 1.36 0 0 0-1.35-1.35Z" style="color:#000;fill:currentColor;stroke-linecap:round;-inkscape-stroke:none"/>
    <path d="M13.723 5.75c-.649 0-1.21.34-1.725.719-1.184-.856-2.809-.893-3.87.176a3.04 3.04 0 0 0 0 4.27l2.919 2.94a1.345 1.345 0 0 0 1.863.04l.004-.002c1.04-.974 1.994-2.008 2.957-2.979a3.03 3.03 0 0 0-2.148-5.164m-3.446 1.496c.391 0 .782.15 1.084.455l.106.108a.75.75 0 0 0 1.066 0l.106-.108a1.526 1.526 0 0 1 2.168 0 1.53 1.53 0 0 1 0 2.156c-.952.96-1.862 1.934-2.807 2.829L9.193 9.857a1.52 1.52 0 0 1 0-2.156 1.52 1.52 0 0 1 1.084-.455" style="color:#000;fill:currentColor;stroke-linejoin:round;-inkscape-stroke:none"/>
    <path d="M6 16.25a.75.75 0 0 0-.75.75.75.75 0 0 0 .75.75h14a.75.75 0 0 0 .75-.75.75.75 0 0 0-.75-.75ZM6 20.25a.75.75 0 0 0-.75.75.75.75 0 0 0 .75.75h14a.75.75 0 0 0 .75-.75.75.75 0 0 0-.75-.75Z" style="color:#000;fill:currentColor;stroke-linecap:round;-inkscape-stroke:none"/>
    <path d="M6 16.25c-1.51 0-2.75 1.24-2.75 2.75S4.49 21.75 6 21.75a.75.75 0 0 0 .75-.75.75.75 0 0 0-.75-.75c-.7 0-1.25-.55-1.25-1.25S5.3 17.75 6 17.75a.75.75 0 0 0 .75-.75.75.75 0 0 0-.75-.75" style="color:#000;fill:currentColor;stroke-linecap:round;stroke-linejoin:round;-inkscape-stroke:none"/>
</svg>
