<svg xmlns="http://www.w3.org/2000/svg" width="24" height="24" fill="none" stroke-width="1.5" viewBox="0 0 24 24">
    <path d="M9 2.25a3.752 3.752 0 0 0 0 7.5h3a.75.75 0 0 0 .75-.75V3a.75.75 0 0 0-.75-.75Zm0 1.5h2.25v4.5H9a2.25 2.25 0 1 1 0-4.5" style="color:#000;fill:currentColor;stroke-linecap:round;stroke-linejoin:round;-inkscape-stroke:none"/>
    <path d="M12 2.25a.75.75 0 0 0-.75.75v6a.75.75 0 0 0 .75.75h3a3.75 3.75 0 0 0 3.465-2.314A3.75 3.75 0 0 0 15 2.25Zm.75 1.5H15a2.252 2.252 0 0 1 1.592 3.842A2.25 2.25 0 0 1 15 8.25h-2.25z" style="color:#000;fill:currentColor;stroke-linecap:round;stroke-linejoin:round;-inkscape-stroke:none"/>
    <path d="M15 8.25a3.75 3.75 0 0 0-3.465 2.314 3.751 3.751 0 0 0 6.93 2.872A3.75 3.75 0 0 0 15 8.25m0 1.5a2.252 2.252 0 0 1 1.592 3.842A2.25 2.25 0 0 1 15 14.25a2.251 2.251 0 0 1-.861-4.328c.273-.113.565-.172.861-.172" style="color:#000;fill:currentColor;stroke-linecap:round;stroke-linejoin:round;-inkscape-stroke:none"/>
    <path d="M9 14.25a3.752 3.752 0 1 0 2.652 6.402A3.75 3.75 0 0 0 12.75 18v-3a.75.75 0 0 0-.75-.75Zm0 1.5h2.25V18A2.25 2.25 0 1 1 9 15.75" style="color:#000;fill:currentColor;stroke-linecap:round;stroke-linejoin:round;-inkscape-stroke:none"/>
    <path d="M9 8.25a3.752 3.752 0 0 0 0 7.5h3a.75.75 0 0 0 .75-.75V9a.75.75 0 0 0-.75-.75Zm0 1.5h2.25v4.5H9a2.25 2.25 0 1 1 0-4.5" style="color:#000;fill:currentColor;stroke-linecap:round;stroke-linejoin:round;-inkscape-stroke:none"/>
</svg>
