<svg xmlns="http://www.w3.org/2000/svg" width="24" height="24" fill="none" stroke-width="1.5" viewBox="0 0 24 24">
    <path d="m9.176 2.691-7.07 7.07a2.763 2.763 0 0 0 0 3.891l5.656 5.657a2.763 2.763 0 0 0 3.89 0l7.07-7.07a.75.75 0 0 0 0-1.063L10.239 2.69a.75.75 0 0 0-1.062 0m.531 1.592 7.424 7.424-6.54 6.541a1.24 1.24 0 0 1-1.769 0l-5.656-5.656a1.24 1.24 0 0 1 0-1.77z" style="color:#000;fill:currentColor;stroke-linecap:round;stroke-linejoin:round;-inkscape-stroke:none"/>
    <path d="M8.293 1.059a.75.75 0 0 0-.531.218.75.75 0 0 0 0 1.06l1.416 1.415a.75.75 0 0 0 1.06 0 .75.75 0 0 0 0-1.06L8.824 1.276a.75.75 0 0 0-.531-.218" style="color:#000;fill:currentColor;stroke-linecap:round;stroke-linejoin:round;-inkscape-stroke:none"/>
    <path d="M20.53 14.469a.75.75 0 0 0-1.061.002s-.78.778-1.563 1.808-1.65 2.264-1.656 3.604v.01c.015 2.055 1.689 3.744 3.75 3.744a3.76 3.76 0 0 0 3.75-3.75c0-1.343-.87-2.577-1.654-3.608-.785-1.03-1.567-1.81-1.567-1.81M20 16.145c.273.291.452.451.902 1.043.715.938 1.348 2.148 1.348 2.699 0 1.25-1 2.25-2.25 2.25-1.247 0-2.235-.997-2.248-2.25.005-.556.635-1.762 1.348-2.7.449-.59.628-.75.9-1.042" style="color:#000;clip-rule:evenodd;fill:currentColor;fill-rule:evenodd;stroke-linecap:round;stroke-linejoin:round;stroke-miterlimit:1.5;-inkscape-stroke:none"/>
</svg>
