<svg xmlns="http://www.w3.org/2000/svg" width="24" height="24" fill="none" stroke-width="1.5" viewBox="0 0 24 24">
    <path d="M16 1.25C7.863 1.25 1.25 7.863 1.25 16v4a.75.75 0 0 0 .75.75.75.75 0 0 0 .75-.75v-4C2.75 8.673 8.673 2.75 16 2.75h4a.75.75 0 0 0 .75-.75.75.75 0 0 0-.75-.75ZM20.838 16.553a.75.75 0 0 0-.75.75v1.724l-1.557-1.556a.75.75 0 0 0-1.062 0 .75.75 0 0 0 0 1.06l1.56 1.559h-1.726a.75.75 0 0 0-.75.75.75.75 0 0 0 .75.75h3.535a.75.75 0 0 0 .531-.22.75.75 0 0 0 .193-.47l.026-.06v-3.537a.75.75 0 0 0-.75-.75" style="color:#000;fill:currentColor;stroke-linecap:round;stroke-linejoin:round;-inkscape-stroke:none"/>
    <path d="M9 8.25a.75.75 0 0 0-.531.219.75.75 0 0 0 0 1.062l1.416 1.414a.75.75 0 0 0 1.06 0 .75.75 0 0 0 0-1.06L9.531 8.469A.75.75 0 0 0 9 8.25m3.535 3.535a.75.75 0 0 0-.53.22.75.75 0 0 0 0 1.061l1.415 1.414a.75.75 0 0 0 1.06 0 .75.75 0 0 0 0-1.06l-1.414-1.414a.75.75 0 0 0-.53-.22" style="color:#000;fill:currentColor;stroke-linecap:round;stroke-linejoin:round;stroke-dasharray:2,3;-inkscape-stroke:none"/>
</svg>
