<svg xmlns="http://www.w3.org/2000/svg" width="24" height="24" fill="none" stroke-width="1.5" viewBox="0 0 24 24">
    <path d="M4 2.25c-.958 0-1.75.792-1.75 1.75v3a.75.75 0 0 0 .012.027.75.75 0 0 0 .105.256.75.75 0 0 0 .131.26.75.75 0 0 0 .014.027l6.65 5.7a.248.248 0 0 1 .088.189v6.26c0 1.12 1.087 1.97 2.174 1.699l2-.5a1.759 1.759 0 0 0 1.326-1.7v-5.757c0-.074.032-.144.088-.191l6.65-5.7a.75.75 0 0 0 .026-.03.75.75 0 0 0 .03-.042.75.75 0 0 0 .067-.084.75.75 0 0 0 .043-.055.75.75 0 0 0 .09-.336A.75.75 0 0 0 21.75 7V4c0-.958-.792-1.75-1.75-1.75Zm0 1.5h16a.24.24 0 0 1 .25.25v2.25H3.75V4A.24.24 0 0 1 4 3.75m1.03 4h13.94l-5.109 4.38c-.387.333-.611.82-.611 1.33v5.759a.243.243 0 0 1-.19.242l-2 .5c-.175.044-.31-.062-.31-.242v-6.26c0-.51-.224-.996-.611-1.328z" style="color:#000;fill:currentColor;stroke-linecap:round;stroke-linejoin:round;-inkscape-stroke:none"/>
</svg>
