<svg xmlns="http://www.w3.org/2000/svg" width="24" height="24" fill="none" stroke-width="1.5" viewBox="0 0 24 24">
    <path d="M4 2.25c-.958 0-1.75.792-1.75 1.75v1.586c0 .464.184.908.512 1.236l6.414 6.416c.047.047.074.11.074.176v5.805c0 .799.55 1.505 1.326 1.699l2 .5c1.087.27 2.174-.58 2.174-1.7v-6.304c0-.066.025-.129.072-.176l6.414-6.414c.328-.328.514-.774.514-1.238V4c0-.958-.792-1.75-1.75-1.75Zm0 1.5h16a.24.24 0 0 1 .25.25v1.586a.248.248 0 0 1-.074.176l-6.414 6.414a.75.75 0 0 0 0 .002 1.747 1.747 0 0 0-.512 1.236v6.305c0 .18-.135.286-.31.242l-2-.5a.243.243 0 0 1-.19-.242v-5.805c0-.463-.186-.908-.514-1.236v-.002L3.822 5.762a.246.246 0 0 1-.072-.176V4A.24.24 0 0 1 4 3.75" style="color:#000;fill:currentColor;stroke-linecap:round;stroke-linejoin:round;-inkscape-stroke:none"/>
</svg>
