<svg xmlns="http://www.w3.org/2000/svg" width="24" height="24" fill="none" stroke-width="1.5" viewBox="0 0 24 24">
    <path d="M3 5.25a.75.75 0 0 0-.75.75.75.75 0 0 0 .75.75h18a.75.75 0 0 0 .75-.75.75.75 0 0 0-.75-.75ZM7 11.25a.75.75 0 0 0-.75.75.75.75 0 0 0 .75.75h10a.75.75 0 0 0 .75-.75.75.75 0 0 0-.75-.75ZM11 17.25a.75.75 0 0 0-.75.75.75.75 0 0 0 .75.75h2a.75.75 0 0 0 .75-.75.75.75 0 0 0-.75-.75Z" style="color:#000;fill:currentColor;stroke-linecap:round;stroke-linejoin:round;-inkscape-stroke:none"/>
</svg>
