<svg xmlns="http://www.w3.org/2000/svg" width="24" height="24" fill="none" stroke-width="1.5" viewBox="0 0 24 24">
    <path d="M9 2.25C5.281 2.25 2.25 5.281 2.25 9v6c0 3.719 3.031 6.75 6.75 6.75h6c3.719 0 6.75-3.031 6.75-6.75V9c0-3.719-3.031-6.75-6.75-6.75Zm0 1.5h6A5.239 5.239 0 0 1 20.25 9v6A5.239 5.239 0 0 1 15 20.25H9A5.239 5.239 0 0 1 3.75 15V9A5.239 5.239 0 0 1 9 3.75" style="color:#000;fill:currentColor;stroke-linecap:round;stroke-linejoin:round;-inkscape-stroke:none"/>
    <path d="M15 2.25s-.423.007-.94.18a4.74 4.74 0 0 0-1.841 1.164C10.917 4.896 9.75 7.375 9.75 12a.75.75 0 0 0 .75.75h1.795c.062 3.947.485 6.226 1.02 7.43.287.647.608 1.042.923 1.279.158.118.312.195.446.238.134.043.316.053.316.053a.75.75 0 0 0 .75-.75.75.75 0 0 0-.75-.75s.12.01.145.018c.024.007.021.014-.008-.008-.06-.045-.24-.212-.451-.69-.425-.955-.936-3.126-.936-7.57a.75.75 0 0 0-.75-.75h-1.65c.145-3.722 1.055-5.717 1.931-6.594.474-.474.925-.695 1.252-.804.327-.11.467-.102.467-.102a.75.75 0 0 0 .75-.75.75.75 0 0 0-.75-.75" style="color:#000;fill:currentColor;stroke-linecap:round;stroke-linejoin:round;-inkscape-stroke:none"/>
    <path d="M7.605 13.758a.75.75 0 0 0-.554.142.75.75 0 0 0-.15 1.05s1.766 2.3 5.099 2.3 5.1-2.3 5.1-2.3a.75.75 0 0 0-.15-1.05.75.75 0 0 0-1.05.15s-1.233 1.7-3.9 1.7-3.9-1.7-3.9-1.7a.75.75 0 0 0-.495-.292M7 8.25a.75.75 0 0 0-.75.75v2a.75.75 0 0 0 .75.75.75.75 0 0 0 .75-.75V9A.75.75 0 0 0 7 8.25M17 8.25a.75.75 0 0 0-.75.75v2a.75.75 0 0 0 .75.75.75.75 0 0 0 .75-.75V9a.75.75 0 0 0-.75-.75" style="color:#000;fill:currentColor;stroke-linecap:round;stroke-linejoin:round;-inkscape-stroke:none"/>
</svg>
