<svg xmlns="http://www.w3.org/2000/svg" width="24" height="24" fill="none" stroke-width="1.5" viewBox="0 0 24 24">
    <path d="M12 6.25c-1.16 0-2.245.304-3.156.836a.75.75 0 0 0-.27 1.027.75.75 0 0 0 1.026.27A4.762 4.762 0 0 1 12 7.75c1.988 0 3.605 1.164 4.092 2.635a.75.75 0 0 0 .949.476.75.75 0 0 0 .477-.947C16.8 7.746 14.57 6.25 12 6.25M7.566 9.213a.75.75 0 0 0-.976.414 4.61 4.61 0 0 0-.34 1.734V16a.75.75 0 0 0 .75.75.75.75 0 0 0 .75-.75v-4.639a3.1 3.1 0 0 1 .23-1.172.75.75 0 0 0-.414-.976M17 12.064a.75.75 0 0 0-.75.75V16a.75.75 0 0 0 .75.75.75.75 0 0 0 .75-.75v-3.186a.75.75 0 0 0-.75-.75" style="color:#000;fill:currentColor;stroke-linecap:round;stroke-linejoin:round;-inkscape-stroke:none"/>
    <path d="M12 9.25c-1.48 0-2.75 1.143-2.75 2.604v.792a.75.75 0 0 0 .75.75.75.75 0 0 0 .75-.75v-.792c0-.586.52-1.104 1.25-1.104s1.25.518 1.25 1.104V17a.75.75 0 0 0 .75.75.75.75 0 0 0 .75-.75v-5.146c0-1.461-1.27-2.604-2.75-2.604m-2 4.824a.75.75 0 0 0-.75.75V17a.75.75 0 0 0 .75.75.75.75 0 0 0 .75-.75v-2.176a.75.75 0 0 0-.75-.75" style="color:#000;fill:currentColor;stroke-linecap:round;stroke-linejoin:round;-inkscape-stroke:none"/>
    <path d="M12 1.25C6.072 1.25 1.25 6.072 1.25 12S6.072 22.75 12 22.75 22.75 17.928 22.75 12 17.928 1.25 12 1.25m0 1.5A9.239 9.239 0 0 1 21.25 12 9.239 9.239 0 0 1 12 21.25 9.239 9.239 0 0 1 2.75 12 9.239 9.239 0 0 1 12 2.75" style="color:#000;fill:currentColor;stroke-linecap:round;stroke-linejoin:round;-inkscape-stroke:none"/>
</svg>
