<svg xmlns="http://www.w3.org/2000/svg" width="24" height="24" fill="none" stroke-width="1.5" viewBox="0 0 24 24">
    <path d="M4 2.25C2.49 2.25 1.25 3.49 1.25 5v14c0 1.51 1.24 2.75 2.75 2.75h5a.75.75 0 0 0 .75-.75.75.75 0 0 0-.75-.75H4c-.7 0-1.25-.55-1.25-1.25V5c0-.7.55-1.25 1.25-1.25h16c.7 0 1.25.55 1.25 1.25v6a.75.75 0 0 0 .75.75.75.75 0 0 0 .75-.75V5c0-1.51-1.24-2.75-2.75-2.75Z" style="color:#000;fill:currentColor;stroke-linecap:round;-inkscape-stroke:none"/>
    <path d="M17 11.25c-1.16 0-2.245.304-3.156.836a.75.75 0 0 0-.27 1.027.75.75 0 0 0 1.026.27 4.761 4.761 0 0 1 2.4-.633c1.988 0 3.605 1.164 4.092 2.635a.75.75 0 0 0 .949.476.75.75 0 0 0 .477-.947C21.8 12.746 19.57 11.25 17 11.25m-4.434 2.963a.75.75 0 0 0-.976.414 4.612 4.612 0 0 0-.34 1.734V21a.75.75 0 0 0 .75.75.75.75 0 0 0 .75-.75v-4.639a3.1 3.1 0 0 1 .23-1.172.75.75 0 0 0-.414-.976M22 17.064a.75.75 0 0 0-.75.75V21a.75.75 0 0 0 .75.75.75.75 0 0 0 .75-.75v-3.186a.75.75 0 0 0-.75-.75" style="color:#000;fill:currentColor;stroke-linecap:round;stroke-linejoin:round;-inkscape-stroke:none"/>
    <path d="M17 14.25c-1.48 0-2.75 1.143-2.75 2.604v.792a.75.75 0 0 0 .75.75.75.75 0 0 0 .75-.75v-.792c0-.586.52-1.104 1.25-1.104s1.25.518 1.25 1.104V22a.75.75 0 0 0 .75.75.75.75 0 0 0 .75-.75v-5.146c0-1.461-1.27-2.604-2.75-2.604m-2 4.824a.75.75 0 0 0-.75.75V22a.75.75 0 0 0 .75.75.75.75 0 0 0 .75-.75v-2.176a.75.75 0 0 0-.75-.75M2 6.25a.75.75 0 0 0-.75.75.75.75 0 0 0 .75.75h20a.75.75 0 0 0 .75-.75.75.75 0 0 0-.75-.75ZM4.97 4.25a.75.75 0 0 0-.517.248l-.01.01a.75.75 0 0 0 .055 1.06.75.75 0 0 0 1.059-.056l.011-.012a.75.75 0 0 0-.056-1.059.75.75 0 0 0-.541-.191M7.97 4.25a.75.75 0 0 0-.517.248l-.01.01a.75.75 0 0 0 .055 1.06.75.75 0 0 0 1.059-.056l.011-.012a.75.75 0 0 0-.056-1.059.75.75 0 0 0-.541-.191M10.97 4.25a.75.75 0 0 0-.517.248l-.01.01a.75.75 0 0 0 .055 1.06.75.75 0 0 0 1.059-.056l.011-.012a.75.75 0 0 0-.056-1.059.75.75 0 0 0-.541-.191" style="color:#000;fill:currentColor;stroke-linecap:round;stroke-linejoin:round;-inkscape-stroke:none"/>
</svg>
