<svg xmlns="http://www.w3.org/2000/svg" width="24" height="24" fill="none" stroke-width="1.5" viewBox="0 0 24 24">
    <path d="M10.9 8.258a.75.75 0 0 0-.57.406C8.836 11.654 7.25 14.582 7.25 18c0 1.393.603 2.47 1.527 3.043.925.572 2.052.707 3.223.707 1.023 0 1.923-.166 2.672-.553a3.359 3.359 0 0 0 1.627-1.808c.592-1.584.165-3.636-1.13-6.225a.75.75 0 0 0-1.26-.125c-.813 1.044-1.337 1.2-1.427 1.191-.044-.004-.084-.012-.187-.134-.103-.122-.231-.353-.336-.655-.42-1.208-.416-3.516-.23-4.26a.75.75 0 0 0-.829-.923m-.632 4.096c.077.538.104 1.094.273 1.58.145.416.33.803.61 1.132.279.33.692.607 1.18.657.655.067 1.26-.312 1.868-.868.739 1.813.981 3.242.696 4.006-.172.458-.448.766-.91 1.004-.463.239-1.128.385-1.985.385-1.038 0-1.91-.159-2.434-.482-.523-.324-.816-.746-.816-1.768 0-1.926.678-3.774 1.518-5.646" style="color:#000;fill:currentColor;stroke-linecap:round;stroke-linejoin:round;-inkscape-stroke:none"/>
    <path d="M11.594 2.37S9.54 3.69 7.482 5.655C5.424 7.622 3.25 10.237 3.25 13.125c0 2.634.797 4.827 2.33 6.336C7.113 20.97 9.331 21.75 12 21.75s4.887-.78 6.42-2.29c1.533-1.508 2.33-3.701 2.33-6.335 0-2.888-2.174-5.503-4.232-7.469-2.06-1.966-4.112-3.287-4.112-3.287a.75.75 0 0 0-.812 0M12 3.954c.345.229 1.744 1.125 3.482 2.785 1.942 1.854 3.768 4.302 3.768 6.385 0 2.337-.678 4.082-1.883 5.268-1.204 1.185-2.986 1.857-5.367 1.857-2.38 0-4.163-.672-5.367-1.857-1.205-1.186-1.883-2.931-1.883-5.268 0-2.083 1.826-4.53 3.768-6.385C10.256 5.08 11.655 4.184 12 3.955" style="color:#000;fill:currentColor;stroke-linecap:round;stroke-linejoin:round;-inkscape-stroke:none"/>
</svg>
