<svg xmlns="http://www.w3.org/2000/svg" width="24" height="24" fill="none" stroke-width="1.5" viewBox="0 0 24 24">
    <path d="M9.5 4.25a.75.75 0 0 0-.67 1.086 8.262 8.262 0 0 1 .88 3.295c-.283.17-.705.403-1.423.967-.463.364-.935.78-1.318 1.246-.383.465-.719.99-.719 1.656 0 1.167.773 2.21 1.781 3.219.88.88 2.04 1.605 3.219 2.162V20.5a.75.75 0 0 0 1.148.637l3.899-2.436c.29-.039 1.38-.207 2.709-.992 1.517-.897 3.194-2.612 3.732-5.574a.75.75 0 0 0-.068-.47c-1.317-2.635-2.966-3.913-4.316-4.481-1.103-.465-1.7-.367-2.008-.348-.25-.24-2.744-2.586-6.846-2.586m1.064 1.652c3.016.39 4.905 2.13 4.905 2.13a.75.75 0 0 0 .636.21s.642-.107 1.666.324c.98.413 2.25 1.394 3.393 3.536-.508 2.34-1.737 3.615-2.92 4.314-1.232.728-2.318.838-2.318.838a.75.75 0 0 0-.324.11l-2.852 1.78V17.5a.75.75 0 0 0-.47-.697c-1.13-.452-2.32-1.28-3.186-2.147-.867-.867-1.344-1.823-1.344-2.156 0-.083.102-.372.375-.703.273-.332.676-.696 1.088-1.02.811-.637 1.614-1.098 1.637-1.111.015-.007.906-.416 1.65-.416a.75.75 0 0 0 .75-.75.75.75 0 0 0-.75-.75c-.716 0-.903.17-1.338.332-.055-.552-.29-1.239-.598-2.18" style="color:#000;fill:currentColor;stroke-linecap:round;stroke-linejoin:round;-inkscape-stroke:none"/>
    <path d="M2 8.75a.75.75 0 0 0-.71.986l.919 2.764-.92 2.764A.75.75 0 0 0 2 16.25s1.333.008 2.715-.406c.69-.208 1.414-.52 2.006-1.053A3.072 3.072 0 0 0 7.75 12.5c0-.958-.437-1.758-1.03-2.291-.591-.533-1.314-.845-2.005-1.053C3.333 8.742 2 8.75 2 8.75m1.094 1.664c.437.042.608.005 1.191.18.56.167 1.086.417 1.432.728.345.311.533.636.533 1.178 0 .542-.188.867-.533 1.178-.346.31-.873.56-1.432.728-.583.175-.754.138-1.191.18l.617-1.85a.75.75 0 0 0 0-.472zM16.97 11.25a.75.75 0 0 0-.517.246l-.01.012a.75.75 0 0 0 .055 1.058.75.75 0 0 0 1.059-.054l.01-.012a.75.75 0 0 0-.055-1.059.75.75 0 0 0-.541-.191" style="color:#000;fill:currentColor;stroke-linecap:round;stroke-linejoin:round;-inkscape-stroke:none"/>
</svg>
