<svg xmlns="http://www.w3.org/2000/svg" width="24" height="24" fill="none" stroke-width="1.5" viewBox="0 0 24 24">
    <path d="M13.232 2.287a.75.75 0 0 0-.84.272l-2.181 3a.75.75 0 0 0 .166 1.048.75.75 0 0 0 1.047-.166l.826-1.134V10a.75.75 0 0 0 .75.75h4.527l-.95 1.309a.75.75 0 0 0 .163 1.048.75.75 0 0 0 1.05-.166l1.817-2.5A.75.75 0 0 0 19 9.25h-5.25V3a.75.75 0 0 0-.518-.713M9.236 8.176a.75.75 0 0 0-1.049.166l-3.794 5.217A.75.75 0 0 0 5 14.75h5.25V21a.75.75 0 0 0 1.357.441l4-5.5a.75.75 0 0 0-.166-1.048.75.75 0 0 0-1.048.166L11.75 18.69V14a.75.75 0 0 0-.75-.75H6.473L9.4 9.223a.75.75 0 0 0-.164-1.047" style="color:#000;fill:currentColor;stroke-linecap:round;stroke-linejoin:round;-inkscape-stroke:none"/>
    <path d="M4 3.25a.75.75 0 0 0-.531.219.75.75 0 0 0 0 1.062l16 16a.75.75 0 0 0 1.062 0 .75.75 0 0 0 0-1.062l-16-16A.75.75 0 0 0 4 3.25" style="color:#000;fill:currentColor;stroke-linecap:round;stroke-linejoin:round;-inkscape-stroke:none"/>
</svg>
