<svg xmlns="http://www.w3.org/2000/svg" width="24" height="24" fill="none" stroke-width="1.5" viewBox="0 0 24 24">
    <path d="M5.5 14.25v1.5h13v-1.5z" style="color:#000;fill:currentColor;stroke-linejoin:round;-inkscape-stroke:none"/>
    <path d="M8 3.25a.75.75 0 0 0-.75.75.75.75 0 0 0 .75.75h8a.75.75 0 0 0 .75-.75.75.75 0 0 0-.75-.75Z" style="color:#000;fill:currentColor;stroke-linecap:round;stroke-linejoin:round;-inkscape-stroke:none"/>
    <path d="M9 3.75a.75.75 0 0 0-.75.75v5.76c0 .298-.106.587-.3.814l-5.038 5.877a2.75 2.75 0 0 0-.662 1.79V19c0 1.51 1.24 2.75 2.75 2.75h14c1.51 0 2.75-1.24 2.75-2.75v-.26a2.75 2.75 0 0 0-.662-1.789l-5.037-5.877a1.252 1.252 0 0 1-.301-.814V4.5a.75.75 0 0 0-.75-.75.75.75 0 0 0-.75.75v5.76c0 .656.235 1.29.662 1.789l5.037 5.877c.195.227.301.516.301.814V19c0 .7-.55 1.25-1.25 1.25H5c-.7 0-1.25-.55-1.25-1.25v-.26c0-.298.106-.587.3-.814l5.038-5.877a2.75 2.75 0 0 0 .662-1.79V4.5A.75.75 0 0 0 9 3.75" style="color:#000;fill:currentColor;stroke-linecap:round;stroke-linejoin:round;-inkscape-stroke:none"/>
    <path d="M12.512 8.441a.75.75 0 0 0-1.059.057l-.01.01a.75.75 0 0 0 .055 1.06.75.75 0 0 0 1.059-.056l.011-.012a.75.75 0 0 0-.056-1.059M11.512 1.441a.75.75 0 0 0-1.059.057l-.01.01a.75.75 0 0 0 .055 1.06.75.75 0 0 0 1.059-.056l.011-.012a.75.75 0 0 0-.056-1.059" style="color:#000;fill:currentColor;stroke-linecap:round;stroke-linejoin:round;-inkscape-stroke:none"/>
</svg>
