<svg xmlns="http://www.w3.org/2000/svg" width="24" height="24" fill="none" stroke-width="1.5" viewBox="0 0 24 24">
    <path d="M9.662 3.268a.75.75 0 0 0-.842.414l-7.5 16A.75.75 0 0 0 2 20.75h7.5a.75.75 0 0 0 .75-.75V4a.75.75 0 0 0-.588-.732M8.75 7.369V19.25H3.18ZM20.744 17.32a.75.75 0 0 0-.361.998l.437.932h-.695a.75.75 0 0 0-.75.75.75.75 0 0 0 .75.75H22a.75.75 0 0 0 .68-1.068l-.938-2a.75.75 0 0 0-.998-.362M14.5 17.25a.75.75 0 0 0-.75.75v2a.75.75 0 0 0 .75.75h1.875a.75.75 0 0 0 .75-.75.75.75 0 0 0-.75-.75H15.25V18a.75.75 0 0 0-.75-.75M14.5 11.25a.75.75 0 0 0-.75.75v2a.75.75 0 0 0 .75.75.75.75 0 0 0 .75-.75v-2a.75.75 0 0 0-.75-.75M17.932 11.32a.75.75 0 0 0-.362.998l.938 2a.75.75 0 0 0 .998.362.75.75 0 0 0 .361-.998l-.937-2a.75.75 0 0 0-.998-.362M14.338 3.268A.75.75 0 0 0 13.75 4v4a.75.75 0 0 0 .75.75.75.75 0 0 0 .75-.75v-.63l.445.948a.75.75 0 0 0 .998.362.75.75 0 0 0 .362-.998l-1.875-4a.75.75 0 0 0-.842-.414" style="color:#000;fill:currentColor;stroke-linecap:round;stroke-linejoin:round;-inkscape-stroke:none"/>
</svg>
