<svg xmlns="http://www.w3.org/2000/svg" width="24" height="24" fill="none" stroke-width="1.5" viewBox="0 0 24 24">
    <path d="M9.5 11.25a.75.75 0 0 0-.75.75v2a.75.75 0 0 0 .75.75.75.75 0 0 0 .75-.75v-2a.75.75 0 0 0-.75-.75M5.494 11.295a.75.75 0 0 0-.424.387l-.937 2a.75.75 0 0 0 .361.998.75.75 0 0 0 .998-.362l.938-2a.75.75 0 0 0-.362-.998.75.75 0 0 0-.574-.025M9.5 17.25a.75.75 0 0 0-.75.75v1.25H7.625a.75.75 0 0 0-.75.75.75.75 0 0 0 .75.75H9.5a.75.75 0 0 0 .75-.75v-2a.75.75 0 0 0-.75-.75M2.682 17.295a.75.75 0 0 0-.424.387l-.938 2A.75.75 0 0 0 2 20.75h1.875a.75.75 0 0 0 .75-.75.75.75 0 0 0-.75-.75H3.18l.437-.932a.75.75 0 0 0-.361-.998.75.75 0 0 0-.574-.025M9.662 3.268a.75.75 0 0 0-.842.414l-1.875 4a.75.75 0 0 0 .362.998.75.75 0 0 0 .998-.362l.445-.949V8a.75.75 0 0 0 .75.75.75.75 0 0 0 .75-.75V4a.75.75 0 0 0-.588-.732M14.338 3.268A.75.75 0 0 0 13.75 4v16a.75.75 0 0 0 .75.75H22a.75.75 0 0 0 .68-1.068l-7.5-16a.75.75 0 0 0-.842-.414m.912 4.101 5.57 11.881h-5.57Z" style="color:#000;fill:currentColor;stroke-linecap:round;stroke-linejoin:round;-inkscape-stroke:none"/>
</svg>
