<svg xmlns="http://www.w3.org/2000/svg" width="24" height="24" fill="none" stroke-width="1.5" viewBox="0 0 24 24">
    <path d="M5 2.25C3.49 2.25 2.25 3.49 2.25 5v1.5a.75.75 0 0 0 .75.75.75.75 0 0 0 .75-.75V5c0-.7.55-1.25 1.25-1.25h11.172c.332 0 .648.13.883.365l2.83 2.83c.234.235.365.551.365.883V19c0 .7-.55 1.25-1.25 1.25H5c-.7 0-1.25-.55-1.25-1.25v-1.5a.75.75 0 0 0-.75-.75.75.75 0 0 0-.75.75V19c0 1.51 1.24 2.75 2.75 2.75h14c1.51 0 2.75-1.24 2.75-2.75V7.828c0-.729-.29-1.428-.805-1.943l-2.83-2.83a2.75 2.75 0 0 0-1.943-.805Z" style="color:#000;fill:currentColor;stroke-linecap:round;stroke-linejoin:round;-inkscape-stroke:none"/>
    <path d="M8 2.25a.75.75 0 0 0-.75.75v5.4c0 .737.613 1.35 1.35 1.35h6.8a1.36 1.36 0 0 0 1.35-1.35V3a.75.75 0 0 0-.75-.75Zm.75 1.5h6.5v4.5h-6.5zM15 12.25a.75.75 0 0 0-.75.75.75.75 0 0 0 .75.75h2.25V21a.75.75 0 0 0 .75.75.75.75 0 0 0 .75-.75v-7.4a1.36 1.36 0 0 0-1.35-1.35ZM6 16.75a.75.75 0 0 0-.75.75V21a.75.75 0 0 0 .75.75.75.75 0 0 0 .75-.75v-3.5a.75.75 0 0 0-.75-.75M4 8.25a.75.75 0 0 0-.531.219l-3 3A.75.75 0 0 0 .25 12a.75.75 0 0 0 .219.531l3 3a.75.75 0 0 0 1.062 0 .75.75 0 0 0 0-1.062L2.813 12.75H12a.75.75 0 0 0 .75-.75.75.75 0 0 0-.75-.75H2.813L4.53 9.531a.75.75 0 0 0 0-1.062A.75.75 0 0 0 4 8.25" style="color:#000;fill:currentColor;stroke-linecap:round;stroke-linejoin:round;-inkscape-stroke:none"/>
</svg>
