<svg xmlns="http://www.w3.org/2000/svg" width="24" height="24" fill="none" stroke-width="1.5" viewBox="0 0 24 24">
    <path d="M5 2.25C3.49 2.25 2.25 3.49 2.25 5v2.5a.75.75 0 0 0 .75.75.75.75 0 0 0 .75-.75V5c0-.7.55-1.25 1.25-1.25h11.172c.332 0 .648.13.883.365l2.83 2.83c.234.235.365.551.365.883V19c0 .7-.55 1.25-1.25 1.25H5c-.7 0-1.25-.55-1.25-1.25v-2.5a.75.75 0 0 0-.75-.75.75.75 0 0 0-.75.75V19c0 1.51 1.24 2.75 2.75 2.75h14c1.51 0 2.75-1.24 2.75-2.75V7.828c0-.729-.29-1.428-.805-1.943l-2.83-2.83a2.75 2.75 0 0 0-1.943-.805Z" style="color:#000;fill:currentColor;stroke-linecap:round;stroke-linejoin:round;-inkscape-stroke:none"/>
    <path d="M6 16.25a.75.75 0 0 0-.75.75v4a.75.75 0 0 0 .75.75.75.75 0 0 0 .75-.75v-4a.75.75 0 0 0-.75-.75M15 12.25a.75.75 0 0 0-.75.75.75.75 0 0 0 .75.75h2.25V21a.75.75 0 0 0 .75.75.75.75 0 0 0 .75-.75v-7.4a1.36 1.36 0 0 0-1.35-1.35ZM16 2.25a.75.75 0 0 0-.75.75v5.25H13.5a.75.75 0 0 0-.75.75.75.75 0 0 0 .75.75h1.9a1.36 1.36 0 0 0 1.35-1.35V3a.75.75 0 0 0-.75-.75M8 2.25a.75.75 0 0 0-.75.75v3a.75.75 0 0 0 .75.75.75.75 0 0 0 .75-.75V3A.75.75 0 0 0 8 2.25M9 8.25a.75.75 0 0 0-.531.219.75.75 0 0 0 0 1.062l1.719 1.719H1a.75.75 0 0 0-.75.75.75.75 0 0 0 .75.75h9.188l-1.72 1.719a.75.75 0 0 0 0 1.062.75.75 0 0 0 1.063 0l3-3a.75.75 0 0 0 .194-.469L12.75 12a1 1 0 0 0-.025-.129v-.064l-.02-.034a.75.75 0 0 0-.174-.304l-3-3A.75.75 0 0 0 9 8.25" style="color:#000;fill:currentColor;stroke-linecap:round;stroke-linejoin:round;-inkscape-stroke:none"/>
</svg>
