<svg xmlns="http://www.w3.org/2000/svg" width="24" height="24" fill="none" stroke-width="1.5" viewBox="0 0 24 24">
    <path d="M5 2.25C3.49 2.25 2.25 3.49 2.25 5v14c0 1.51 1.24 2.75 2.75 2.75h14c1.51 0 2.75-1.24 2.75-2.75V7.828c0-.729-.29-1.428-.805-1.943l-2.83-2.83a2.75 2.75 0 0 0-1.943-.805Zm0 1.5h11.172c.332 0 .648.13.883.365l2.83 2.83c.234.235.365.551.365.883V19c0 .7-.55 1.25-1.25 1.25H5c-.7 0-1.25-.55-1.25-1.25V5c0-.7.55-1.25 1.25-1.25" style="color:#000;fill:currentColor;-inkscape-stroke:none"/>
    <path d="M8.6 2.25A1.36 1.36 0 0 0 7.25 3.6v4.8c0 .737.613 1.35 1.35 1.35h6.8a1.36 1.36 0 0 0 1.35-1.35V3.6a1.36 1.36 0 0 0-1.35-1.35Zm.15 1.5h6.5v4.5h-6.5zM6.6 12.25a1.36 1.36 0 0 0-1.35 1.35v8.15h13.5V13.6a1.36 1.36 0 0 0-1.35-1.35Zm.15 1.5h10.5v6.5H6.75Z" style="color:#000;fill:currentColor;-inkscape-stroke:none"/>
</svg>
