<svg xmlns="http://www.w3.org/2000/svg" width="24" height="24" fill="none" stroke-width="1.5" viewBox="0 0 24 24">
    <path d="M12 8.25A3.761 3.761 0 0 0 8.25 12 3.761 3.761 0 0 0 12 15.75 3.761 3.761 0 0 0 15.75 12 3.761 3.761 0 0 0 12 8.25m0 1.5c1.252 0 2.25.999 2.25 2.25 0 1.252-.998 2.25-2.25 2.25A2.239 2.239 0 0 1 9.75 12c0-1.251.999-2.25 2.25-2.25" style="color:#000;fill:currentColor;stroke-linecap:round;stroke-linejoin:round;stroke-miterlimit:1.5;-inkscape-stroke:none"/>
    <path d="M11.469.469s-.551.551-1.094 1.365S9.25 3.75 9.25 5c0 2.25 1.08 4.336 1.08 4.336a.75.75 0 0 0 1.006.334.75.75 0 0 0 .334-1.006S10.75 6.75 10.75 5c0-.75.418-1.648.875-2.334.189-.284.22-.281.375-.469.155.188.186.185.375.469.457.686.875 1.584.875 2.334 0 1.75-.92 3.664-.92 3.664a.75.75 0 0 0 .334 1.006.75.75 0 0 0 1.006-.334S14.75 7.25 14.75 5c0-1.25-.582-2.352-1.125-3.166-.543-.814-1.094-1.365-1.094-1.365a.75.75 0 0 0-1.062 0M5 9.25c-1.25 0-2.352.582-3.166 1.125-.814.543-1.365 1.094-1.365 1.094a.75.75 0 0 0 0 1.062s.551.551 1.365 1.094S3.75 14.75 5 14.75c2.25 0 4.336-1.08 4.336-1.08a.75.75 0 0 0 .334-1.006.75.75 0 0 0-1.006-.334s-1.914.92-3.664.92c-.75 0-1.648-.418-2.334-.875-.284-.189-.281-.22-.469-.375.188-.155.185-.186.469-.375.686-.457 1.584-.875 2.334-.875 1.75 0 3.664.92 3.664.92a.75.75 0 0 0 1.006-.334.75.75 0 0 0-.334-1.006S7.25 9.25 5 9.25M11.336 14.33a.75.75 0 0 0-1.006.334S9.25 16.75 9.25 19c0 1.25.582 2.352 1.125 3.166a9.878 9.878 0 0 0 1.094 1.365.75.75 0 0 0 1.062 0s.551-.551 1.094-1.365S14.75 20.25 14.75 19c0-2.25-1.08-4.336-1.08-4.336a.75.75 0 0 0-1.006-.334.75.75 0 0 0-.334 1.006s.92 1.914.92 3.664c0 .75-.418 1.648-.875 2.334-.189.284-.22.281-.375.469-.155-.188-.186-.185-.375-.469-.457-.686-.875-1.584-.875-2.334 0-1.75.92-3.664.92-3.664a.75.75 0 0 0-.334-1.006M19 9.25c-2.25 0-4.336 1.08-4.336 1.08a.75.75 0 0 0-.334 1.006.75.75 0 0 0 1.006.334s1.914-.92 3.664-.92c.75 0 1.648.418 2.334.875.284.189.281.22.469.375-.188.155-.185.186-.469.375-.686.457-1.584.875-2.334.875-1.75 0-3.664-.92-3.664-.92a.75.75 0 0 0-1.006.334.75.75 0 0 0 .334 1.006S16.75 14.75 19 14.75c1.25 0 2.352-.582 3.166-1.125.814-.543 1.365-1.094 1.365-1.094a.75.75 0 0 0 0-1.062s-.551-.551-1.365-1.094S20.25 9.25 19 9.25" style="color:#000;fill:currentColor;stroke-linecap:round;stroke-linejoin:round;stroke-miterlimit:1.5;-inkscape-stroke:none"/>
    <path d="M4.223 3.473a.75.75 0 0 0-.75.75s0 .779.191 1.738c.192.96.558 2.15 1.441 3.033 1.591 1.591 3.829 2.303 3.829 2.303a.75.75 0 0 0 .949-.475.75.75 0 0 0-.475-.947s-2.005-.704-3.242-1.941c-.53-.53-.87-1.46-1.031-2.268-.067-.335-.044-.355-.067-.598.243.023.263 0 .598.067.808.161 1.737.5 2.268 1.031C9.17 7.403 9.875 9.408 9.875 9.408a.75.75 0 0 0 .947.475.75.75 0 0 0 .475-.947s-.712-2.24-2.303-3.83c-.884-.884-2.076-1.25-3.035-1.442-.96-.192-1.736-.191-1.736-.191M8.934 12.703s-2.238.712-3.829 2.303c-.883.884-1.25 2.076-1.44 3.035-.193.96-.192 1.736-.192 1.736a.75.75 0 0 0 .75.75s.777 0 1.736-.191c.96-.192 2.151-.558 3.035-1.441 1.591-1.592 2.303-3.829 2.303-3.829a.75.75 0 0 0-.475-.949.75.75 0 0 0-.947.475s-.704 2.004-1.941 3.242c-.53.53-1.46.87-2.268 1.031-.335.067-.355.044-.598.067.023-.243 0-.263.067-.598.161-.808.5-1.737 1.031-2.268 1.237-1.237 3.242-1.941 3.242-1.941a.75.75 0 0 0 .475-.947.75.75 0 0 0-.95-.475M15.066 12.703a.75.75 0 0 0-.949.475.75.75 0 0 0 .475.947s2.005.704 3.242 1.941c.53.53.87 1.46 1.031 2.268.067.335.044.355.067.598-.243-.023-.263 0-.598-.067-.808-.161-1.737-.5-2.268-1.031-1.237-1.238-1.941-3.242-1.941-3.242a.75.75 0 0 0-.947-.475.75.75 0 0 0-.475.95s.712 2.236 2.303 3.828c.884.883 2.076 1.25 3.035 1.44.96.193 1.736.192 1.736.192a.75.75 0 0 0 .75-.75s0-.777-.191-1.736c-.192-.96-.558-2.151-1.441-3.035-1.591-1.591-3.829-2.303-3.829-2.303M19.777 3.473s-.777 0-1.736.191c-.96.192-2.151.558-3.035 1.441-1.591 1.591-2.303 3.83-2.303 3.83a.75.75 0 0 0 .475.948.75.75 0 0 0 .947-.475s.704-2.005 1.941-3.242c.53-.53 1.46-.87 2.268-1.031.335-.067.355-.044.598-.067-.023.243 0 .263-.067.598-.161.808-.5 1.737-1.031 2.268-1.238 1.237-3.242 1.941-3.242 1.941a.75.75 0 0 0-.475.947.75.75 0 0 0 .95.475s2.236-.712 3.828-2.303c.883-.884 1.25-2.074 1.44-3.033.193-.96.192-1.738.192-1.738a.75.75 0 0 0-.75-.75" style="color:#000;fill:currentColor;stroke-linecap:round;stroke-linejoin:round;stroke-miterlimit:1.5;-inkscape-stroke:none"/>
</svg>
