<svg xmlns="http://www.w3.org/2000/svg" width="24" height="24" fill="none" stroke-width="1.5" viewBox="0 0 24 24">
    <path d="M2.6 3.25A1.36 1.36 0 0 0 1.25 4.6v5.8c0 .737.613 1.35 1.35 1.35h18.8a1.36 1.36 0 0 0 1.35-1.35V7.6a1.36 1.36 0 0 0-1.35-1.35h-8.62L9.655 3.574a1.35 1.35 0 0 0-.879-.324Zm.15 1.5h5.97l3.124 2.676c.244.21.557.324.879.324h8.527v2.5H2.75Z" style="color:#000;fill:currentColor;stroke-linecap:round;stroke-linejoin:round;-inkscape-stroke:none"/>
    <path d="M22 9.25a.75.75 0 0 0-.75.75v4a.75.75 0 0 0 .75.75.75.75 0 0 0 .75-.75v-4a.75.75 0 0 0-.75-.75M2 9.25a.75.75 0 0 0-.75.75v9.4c0 .737.613 1.35 1.35 1.35H13a.75.75 0 0 0 .75-.75.75.75 0 0 0-.75-.75H2.75V10A.75.75 0 0 0 2 9.25M18.75 16A2.754 2.754 0 0 0 16 18.75a2.754 2.754 0 0 0 2.75 2.75c1.51 0 2.75-1.24 2.75-2.75S20.26 16 18.75 16m0 1.5c.7 0 1.25.55 1.25 1.25S19.45 20 18.75 20a1.244 1.244 0 0 1-1.25-1.25 1.244 1.244 0 0 1 1.25-1.25" style="color:#000;fill:currentColor;stroke-linecap:round;stroke-linejoin:round;-inkscape-stroke:none"/>
    <path d="M17.877 14.434a.75.75 0 0 0-.75.752.75.75 0 0 0 .752.748h.299a.75.75 0 0 0 .75-.752.75.75 0 0 0-.752-.748zM17.877 19.934a.75.75 0 0 0-.75.752.75.75 0 0 0 .752.748h.299a.75.75 0 0 0 .75-.752.75.75 0 0 0-.752-.748z" style="color:#000;fill:#000;stroke-linecap:round;stroke-linejoin:round;-inkscape-stroke:none" transform="translate(.723 .816)"/>
    <path d="M17.877 14.434a.75.75 0 0 0-.75.752.75.75 0 0 0 .752.748h.299a.75.75 0 0 0 .75-.752.75.75 0 0 0-.752-.748zM17.877 19.934a.75.75 0 0 0-.75.752.75.75 0 0 0 .752.748h.299a.75.75 0 0 0 .75-.752.75.75 0 0 0-.752-.748z" style="color:#000;fill:#000;stroke-linecap:round;stroke-linejoin:round;-inkscape-stroke:none" transform="rotate(90 17.98 18.703)"/>
    <path d="M17.877 14.434a.75.75 0 0 0-.75.752.75.75 0 0 0 .752.748h.299a.75.75 0 0 0 .75-.752.75.75 0 0 0-.752-.748zM17.877 19.934a.75.75 0 0 0-.75.752.75.75 0 0 0 .752.748h.299a.75.75 0 0 0 .75-.752.75.75 0 0 0-.752-.748z" style="color:#000;fill:#000;stroke-linecap:round;stroke-linejoin:round;-inkscape-stroke:none" transform="rotate(45 17.403 19.214)"/>
    <path d="M17.877 14.434a.75.75 0 0 0-.75.752.75.75 0 0 0 .752.748h.299a.75.75 0 0 0 .75-.752.75.75 0 0 0-.752-.748zM17.877 19.934a.75.75 0 0 0-.75.752.75.75 0 0 0 .752.748h.299a.75.75 0 0 0 .75-.752.75.75 0 0 0-.752-.748z" style="color:#000;fill:#000;stroke-linecap:round;stroke-linejoin:round;-inkscape-stroke:none" transform="rotate(135 18.22 18.491)"/>
</svg>
