<svg xmlns="http://www.w3.org/2000/svg" width="24" height="24" fill="none" stroke-width="1.5" viewBox="0 0 24 24">
    <path d="M18 5.25a.75.75 0 0 0-.75.75.75.75 0 0 0 .75.75h4a.75.75 0 0 0 .75-.75.75.75 0 0 0-.75-.75h-2zM2 10.25a.75.75 0 0 0-.75.75v8.4c0 .737.613 1.35 1.35 1.35h18.8a1.36 1.36 0 0 0 1.35-1.35v-7.8a1.36 1.36 0 0 0-1.35-1.35Zm.75 1.5h18.5v7.5H2.75Z" style="color:#000;fill:currentColor;stroke-linecap:round;stroke-linejoin:round;-inkscape-stroke:none"/>
    <path d="M2.6 3.25A1.36 1.36 0 0 0 1.25 4.6V11a.75.75 0 0 0 .75.75.75.75 0 0 0 .75-.75V4.75h5.97l3.124 2.676c.244.21.557.324.879.324H14a.75.75 0 0 0 .75-.75.75.75 0 0 0-.75-.75h-1.22L9.655 3.574a1.35 1.35 0 0 0-.879-.324Z" style="color:#000;fill:currentColor;stroke-linecap:round;stroke-linejoin:round;-inkscape-stroke:none"/>
</svg>
