<svg xmlns="http://www.w3.org/2000/svg" width="24" height="24" fill="none" stroke-width="1.5" viewBox="0 0 24 24">
    <path d="M12 13.078a.75.75 0 0 0-.75.75V21a.75.75 0 0 0 .75.75.75.75 0 0 0 .75-.75v-7.172a.75.75 0 0 0-.75-.75" style="color:#000;fill:currentColor;stroke-linecap:round;stroke-linejoin:round;-inkscape-stroke:none"/>
    <path d="M5 2.25a.75.75 0 0 0-.75.75v10.828a.75.75 0 0 0 .75.75h14a.75.75 0 0 0 .75-.75V3a.75.75 0 0 0-.75-.75.75.75 0 0 0-.75.75v10.078H5.75V3A.75.75 0 0 0 5 2.25" style="color:#000;fill:currentColor;stroke-linecap:round;stroke-linejoin:round;-inkscape-stroke:none"/>
    <path d="M12.824 2.205c-.69-.075-1.469-.008-2.199.414-1.46.844-1.786 2.562-1.914 3.363a1.28 1.28 0 0 0 .795 1.375c.758.29 2.408.867 3.869.024 1.46-.844 1.786-2.562 1.914-3.363a1.28 1.28 0 0 0-.793-1.375c-.38-.145-.982-.363-1.672-.438m-.127 1.541a5 5 0 0 1 1.047.246c-.14.672-.496 1.73-1.119 2.09-.622.36-1.716.138-2.367-.076.14-.672.495-1.729 1.117-2.088.34-.197.836-.224 1.322-.172" style="color:#000;fill:currentColor;stroke-linecap:round;stroke-linejoin:round;-inkscape-stroke:none"/>
</svg>
