<svg xmlns="http://www.w3.org/2000/svg" width="24" height="24" fill="none" stroke-width="1.5" viewBox="0 0 24 24">
    <path d="M17.719 3.264a23.372 23.372 0 0 0-3.696.105.75.75 0 0 0-.017 0c-.029.003-.048-.001-.076.002-2.507.29-5.352 1.09-7.41 3.149-2.06 2.058-2.86 4.903-3.149 7.41-.003.028.001.047-.002.076a.75.75 0 0 0 0 .017 23.372 23.372 0 0 0-.105 3.696 3.187 3.187 0 0 0 3.017 3.017 23.37 23.37 0 0 0 3.696-.105.75.75 0 0 0 .017 0c.029-.003.048.001.076-.002 2.507-.29 5.352-1.09 7.41-3.149 2.025-2.024 2.818-4.807 3.12-7.283a.75.75 0 0 0 .01-.043c.003-.027.016-.057.019-.084.164-1.424.161-2.75.107-3.789a3.187 3.187 0 0 0-3.017-3.017m-.078 1.498c.898.046 1.55.699 1.597 1.597.027.516-.037 1.231-.052 1.868l-3.413-3.413c.637-.015 1.352-.079 1.868-.052m-3.866.176 5.288 5.287c-.3 2.222-1.02 4.572-2.643 6.195-1.623 1.622-3.973 2.344-6.195 2.642l-5.287-5.287c.298-2.222 1.02-4.572 2.642-6.195 1.623-1.622 3.973-2.344 6.195-2.642M12 8.422a.75.75 0 0 0-.531.219.75.75 0 0 0 0 1.06l.885.885-1.768 1.768-.885-.885a.75.75 0 0 0-1.06 0 .75.75 0 0 0 0 1.062l.882.883-.882.885a.75.75 0 0 0 0 1.06.75.75 0 0 0 1.06 0l.885-.882.883.882a.75.75 0 0 0 1.062 0 .75.75 0 0 0 0-1.06l-.885-.885 1.768-1.768.885.885a.75.75 0 0 0 1.06 0 .75.75 0 0 0 0-1.062l-.882-.883.882-.885a.75.75 0 0 0 0-1.06.75.75 0 0 0-1.06 0l-.885.882-.883-.882A.75.75 0 0 0 12 8.42m-7.186 7.351 3.413 3.413c-.637.015-1.352.079-1.868.052-.898-.046-1.55-.699-1.597-1.597-.027-.516.037-1.231.052-1.868" style="color:#000;fill:currentColor;stroke-linecap:round;stroke-linejoin:round;-inkscape-stroke:none"/>
</svg>
