<svg xmlns="http://www.w3.org/2000/svg" width="24" height="24" fill="none" stroke-width="1.5" viewBox="0 0 24 24">
    <path d="M2 1.25a.75.75 0 0 0-.75.75v2.998a.75.75 0 0 0 .75.75h2.998a.75.75 0 0 0 .75-.75V2a.75.75 0 0 0-.75-.75zm.75 1.5h1.498v1.498H2.75Z" style="color:#000;fill:currentColor;stroke-linecap:round;stroke-linejoin:round;stroke-miterlimit:1.5;-inkscape-stroke:none"/>
    <path d="M4.998 2.752a.75.75 0 0 0-.75.75.75.75 0 0 0 .75.75h14a.75.75 0 0 0 .75-.75.75.75 0 0 0-.75-.75zM3.498 4.248a.75.75 0 0 0-.75.75V19a.75.75 0 0 0 .75.75.75.75 0 0 0 .75-.75V4.998a.75.75 0 0 0-.75-.75M20.496 4.25a.75.75 0 0 0-.75.75v14.002a.75.75 0 0 0 .75.75.75.75 0 0 0 .75-.75V5a.75.75 0 0 0-.75-.75M4.998 19.752a.75.75 0 0 0-.75.75.75.75 0 0 0 .75.75h14a.75.75 0 0 0 .75-.75.75.75 0 0 0-.75-.75z" style="color:#000;fill:currentColor;stroke-linecap:round;stroke-linejoin:round;stroke-miterlimit:1.5;-inkscape-stroke:none"/>
    <path d="M2 18.25a.75.75 0 0 0-.75.75v2.998a.75.75 0 0 0 .75.75h2.998a.75.75 0 0 0 .75-.75V19a.75.75 0 0 0-.75-.75zm.75 1.5h1.498v1.498H2.75ZM18.998 1.252a.75.75 0 0 0-.75.75V5a.75.75 0 0 0 .75.75h2.998a.75.75 0 0 0 .75-.75V2.002a.75.75 0 0 0-.75-.75zm.75 1.5h1.498V4.25h-1.498zM18.998 18.252a.75.75 0 0 0-.75.75V22a.75.75 0 0 0 .75.75h2.998a.75.75 0 0 0 .75-.75v-2.998a.75.75 0 0 0-.75-.75zm.75 1.5h1.498v1.498h-1.498z" style="color:#000;fill:currentColor;stroke-linecap:round;stroke-linejoin:round;stroke-miterlimit:1.5;-inkscape-stroke:none"/>
</svg>
