<svg xmlns="http://www.w3.org/2000/svg" width="24" height="24" fill="none" stroke-width="1.5" viewBox="0 0 24 24">
    <path d="M7 1.25a.75.75 0 0 0-.75.75v1a.75.75 0 0 0 .75.75.75.75 0 0 0 .75-.75V2A.75.75 0 0 0 7 1.25m10 0a.75.75 0 0 0-.75.75v1a.75.75 0 0 0 .75.75.75.75 0 0 0 .75-.75V2a.75.75 0 0 0-.75-.75m-10.4 4A1.36 1.36 0 0 0 5.25 6.6v10.8c0 .737.613 1.35 1.35 1.35h10.8a1.36 1.36 0 0 0 1.35-1.35V6.6a1.36 1.36 0 0 0-1.35-1.35Zm-4.6 1a.75.75 0 0 0-.75.75.75.75 0 0 0 .75.75h1A.75.75 0 0 0 3.75 7 .75.75 0 0 0 3 6.25Zm19 0a.75.75 0 0 0-.75.75.75.75 0 0 0 .75.75h1a.75.75 0 0 0 .75-.75.75.75 0 0 0-.75-.75Zm-14.25.5h10.5v10.5H6.75ZM2 16.25a.75.75 0 0 0-.75.75.75.75 0 0 0 .75.75h1a.75.75 0 0 0 .75-.75.75.75 0 0 0-.75-.75Zm19 0a.75.75 0 0 0-.75.75.75.75 0 0 0 .75.75h1a.75.75 0 0 0 .75-.75.75.75 0 0 0-.75-.75Zm-14 4a.75.75 0 0 0-.75.75v1a.75.75 0 0 0 .75.75.75.75 0 0 0 .75-.75v-1a.75.75 0 0 0-.75-.75m10 0a.75.75 0 0 0-.75.75v1a.75.75 0 0 0 .75.75.75.75 0 0 0 .75-.75v-1a.75.75 0 0 0-.75-.75" style="color:#000;fill:currentColor;stroke-linecap:round;stroke-linejoin:round;-inkscape-stroke:none"/>
</svg>
