<svg xmlns="http://www.w3.org/2000/svg" width="24" height="24" fill="none" stroke-width="1.5" viewBox="0 0 24 24">
    <path d="M2 1.252a.75.75 0 0 0-.75.75V5a.75.75 0 0 0 .75.75h2.998a.75.75 0 0 0 .75-.75V2.002a.75.75 0 0 0-.75-.75zm.75 1.5h1.498V4.25H2.75ZM2 9.752a.75.75 0 0 0-.75.75V13.5a.75.75 0 0 0 .75.75h2.998a.75.75 0 0 0 .75-.75v-2.998a.75.75 0 0 0-.75-.75zm.75 1.5h1.498v1.498H2.75ZM20.498 4.25a.75.75 0 0 0-.75.75v5.504a.75.75 0 0 0 .75.75.75.75 0 0 0 .75-.75V5a.75.75 0 0 0-.75-.75" style="color:#000;fill:currentColor;stroke-linecap:round;stroke-linejoin:round;stroke-miterlimit:1.5;-inkscape-stroke:none"/>
    <path d="M3.5 4.25a.75.75 0 0 0-.75.75v5.504a.75.75 0 0 0 .75.75.75.75 0 0 0 .75-.75V5a.75.75 0 0 0-.75-.75M20.498 12.752a.75.75 0 0 0-.75.75v5.502a.75.75 0 0 0 .75.75.75.75 0 0 0 .75-.75v-5.502a.75.75 0 0 0-.75-.75M3.5 12.752a.75.75 0 0 0-.75.75v5.502a.75.75 0 0 0 .75.75.75.75 0 0 0 .75-.75v-5.502a.75.75 0 0 0-.75-.75M4.998 19.752a.75.75 0 0 0-.75.75.75.75 0 0 0 .75.75H10.5a.75.75 0 0 0 .75-.75.75.75 0 0 0-.75-.75zM4.998 2.895a.61.61 0 0 0-.61.609.61.61 0 0 0 .61.61H10.5a.61.61 0 0 0 .61-.61.61.61 0 0 0-.61-.61Z" style="color:#000;fill:currentColor;stroke-linecap:round;stroke-linejoin:round;stroke-miterlimit:1.5;-inkscape-stroke:none"/>
    <path d="M13.498 19.748a.75.75 0 0 0-.75.75.75.75 0 0 0 .75.75h5.5a.75.75 0 0 0 .75-.75.75.75 0 0 0-.75-.75zM13.498 2.89a.61.61 0 0 0-.61.612.61.61 0 0 0 .61.61h5.5a.61.61 0 0 0 .611-.61.61.61 0 0 0-.611-.611ZM2 18.252a.75.75 0 0 0-.75.75V22a.75.75 0 0 0 .75.75h2.998a.75.75 0 0 0 .75-.75v-2.998a.75.75 0 0 0-.75-.75zm.75 1.5h1.498v1.498H2.75Z" style="color:#000;fill:currentColor;stroke-linecap:round;stroke-linejoin:round;stroke-miterlimit:1.5"/>
    <path d="M18.998 1.252a.75.75 0 0 0-.75.75V5a.75.75 0 0 0 .75.75h3a.75.75 0 0 0 .75-.75V2.002a.75.75 0 0 0-.75-.75zm.75 1.5h1.5V4.25h-1.5zM10.498 1.25a.75.75 0 0 0-.75.75v2.998a.75.75 0 0 0 .75.75h3a.75.75 0 0 0 .75-.75V2a.75.75 0 0 0-.75-.75zm.75 1.5h1.5v1.498h-1.5zM18.998 9.752a.75.75 0 0 0-.75.75v3a.75.75 0 0 0 .75.75h3a.75.75 0 0 0 .75-.75v-3a.75.75 0 0 0-.75-.75zm.75 1.5h1.5v1.5h-1.5zM18.998 18.252a.75.75 0 0 0-.75.75V22a.75.75 0 0 0 .75.75h3a.75.75 0 0 0 .75-.75v-2.998a.75.75 0 0 0-.75-.75zm.75 1.5h1.5v1.498h-1.5zM10.498 18.25a.75.75 0 0 0-.75.75v2.998a.75.75 0 0 0 .75.75h3a.75.75 0 0 0 .75-.75V19a.75.75 0 0 0-.75-.75zm.75 1.5h1.5v1.498h-1.5z" style="color:#000;fill:currentColor;stroke-linecap:round;stroke-linejoin:round;stroke-miterlimit:1.5"/>
</svg>
