<svg xmlns="http://www.w3.org/2000/svg" width="24" height="24" fill="none" stroke-width="1.5" viewBox="0 0 24 24">
    <path d="M6 2.25a.75.75 0 0 0-.75.75v18a.75.75 0 0 0 .75.75.75.75 0 0 0 .75-.75V3A.75.75 0 0 0 6 2.25M18 2.25a.75.75 0 0 0-.75.75v18a.75.75 0 0 0 .75.75.75.75 0 0 0 .75-.75V3a.75.75 0 0 0-.75-.75" style="color:#000;fill:currentColor;stroke-linecap:round;stroke-linejoin:round;-inkscape-stroke:none"/>
    <path d="M3 5.25a.75.75 0 0 0-.75.75.75.75 0 0 0 .75.75h18a.75.75 0 0 0 .75-.75.75.75 0 0 0-.75-.75Z" style="color:#000;fill:currentColor;stroke-linecap:round;stroke-linejoin:round;-inkscape-stroke:none"/>
    <path fill="currentColor" fill-rule="evenodd" d="M9.6 9h4.8a.6.6 0 0 1 .6.6v4.8a.6.6 0 0 1-.6.6H9.6a.6.6 0 0 1-.6-.6V9.6a.6.6 0 0 1 .6-.6" clip-rule="evenodd"/>
    <path d="M3 17.25a.75.75 0 0 0-.75.75.75.75 0 0 0 .75.75h18a.75.75 0 0 0 .75-.75.75.75 0 0 0-.75-.75Z" style="color:#000;fill:currentColor;stroke-linecap:round;stroke-linejoin:round;-inkscape-stroke:none"/>
</svg>
