<svg xmlns="http://www.w3.org/2000/svg" width="24" height="24" fill="none" stroke-width="1.5" viewBox="0 0 24 24">
    <path d="M8 2.25C4.281 2.25 1.25 5.281 1.25 9v6c0 3.719 3.031 6.75 6.75 6.75h8c3.719 0 6.75-3.031 6.75-6.75V9c0-3.719-3.031-6.75-6.75-6.75Zm0 1.5h8A5.24 5.24 0 0 1 21.25 9v6A5.24 5.24 0 0 1 16 20.25H8A5.24 5.24 0 0 1 2.75 15V9A5.24 5.24 0 0 1 8 3.75" style="color:#000;fill:currentColor;-inkscape-stroke:none"/>
    <path d="M6 8.25a.75.75 0 0 0-.75.75v6a.75.75 0 0 0 .75.75.75.75 0 0 0 .75-.75V9.75H11a.75.75 0 0 0 .75-.75.75.75 0 0 0-.75-.75Z" style="color:#000;fill:currentColor;stroke-linecap:round;stroke-linejoin:round;-inkscape-stroke:none"/>
    <path d="M6 11.25a.75.75 0 0 0-.75.75.75.75 0 0 0 .75.75h3.572a.75.75 0 0 0 .75-.75.75.75 0 0 0-.75-.75ZM13.068 8.254a.75.75 0 0 0-.548.17.75.75 0 0 0-.096 1.056l2.1 2.52-2.1 2.52a.75.75 0 0 0 .096 1.056.75.75 0 0 0 1.056-.096l1.924-2.308 1.924 2.308a.75.75 0 0 0 1.056.096.75.75 0 0 0 .096-1.056l-2.1-2.52 2.1-2.52a.75.75 0 0 0-.096-1.056.75.75 0 0 0-1.056.096L15.5 10.828 13.576 8.52a.75.75 0 0 0-.508-.266" style="color:#000;fill:currentColor;stroke-linecap:round;stroke-linejoin:round;-inkscape-stroke:none"/>
</svg>
