<svg xmlns="http://www.w3.org/2000/svg" width="24" height="24" fill="none" stroke-width="1.5" viewBox="0 0 24 24">
    <path d="M3 6.25a.75.75 0 0 0-.75.75v10a.75.75 0 0 0 .75.75.75.75 0 0 0 .75-.75V7.75H10a.75.75 0 0 0 .75-.75.75.75 0 0 0-.75-.75Z" style="color:#000;fill:currentColor;stroke-linecap:round;stroke-linejoin:round;-inkscape-stroke:none"/>
    <path d="M3 11.25a.75.75 0 0 0-.75.75.75.75 0 0 0 .75.75h5a.75.75 0 0 0 .75-.75.75.75 0 0 0-.75-.75ZM13.082 6.254a.75.75 0 0 0-.55.16.75.75 0 0 0-.118 1.055L16.04 12l-3.625 4.531a.75.75 0 0 0 .117 1.055.75.75 0 0 0 1.055-.117L17 13.2l3.414 4.268a.75.75 0 0 0 1.055.117.75.75 0 0 0 .117-1.055L17.96 12l3.625-4.531a.75.75 0 0 0-.117-1.055.75.75 0 0 0-1.055.117L17 10.8 13.586 6.53a.75.75 0 0 0-.504-.277" style="color:#000;fill:currentColor;stroke-linecap:round;stroke-linejoin:round;-inkscape-stroke:none"/>
</svg>
