<svg xmlns="http://www.w3.org/2000/svg" width="24" height="24" fill="none" stroke-width="1.5" viewBox="0 0 24 24">
    <path d="M7 2.254A.747.747 0 0 0 6.252 3v1.254h-.69a3.32 3.32 0 0 0-3.308 3.309v10.876a3.307 3.307 0 0 0 3.309 3.309h12.875a3.31 3.31 0 0 0 3.308-3.309v-6.441c0-4.268-3.476-7.744-7.744-7.744h-1.256V3A.747.747 0 0 0 12 2.254Zm.746 1.492h3.508V5a.747.747 0 0 0 .746.746h2.002a6.24 6.24 0 0 1 6.252 6.252v6.441c0 .48-.191.944-.531 1.284h-.002c-.341.34-.801.533-1.284.533H5.562c-.482 0-.942-.193-1.283-.533h-.002a1.82 1.82 0 0 1-.53-1.284V7.563c0-1.012.802-1.817 1.816-1.817H7A.747.747 0 0 0 7.746 5Z" style="color:#000;clip-rule:evenodd;fill:currentColor;fill-rule:evenodd;stroke-linecap:round;stroke-linejoin:round;stroke-miterlimit:1.5;-inkscape-stroke:none"/>
    <path d="M12.53 8.469a.75.75 0 0 0-1.061.002s-.78.778-1.563 1.808-1.65 2.264-1.656 3.604v.01c.015 2.055 1.689 3.744 3.75 3.744a3.76 3.76 0 0 0 3.75-3.75c0-1.343-.87-2.577-1.654-3.608a20 20 0 0 0-1.567-1.81M12 10.145c.273.291.452.451.902 1.043.715.938 1.348 2.148 1.348 2.699 0 1.25-1 2.25-2.25 2.25-1.247 0-2.235-.997-2.248-2.25.005-.556.635-1.762 1.348-2.7.449-.59.628-.75.9-1.042" style="color:#000;clip-rule:evenodd;fill:currentColor;fill-rule:evenodd;stroke-linecap:round;stroke-linejoin:round;stroke-miterlimit:1.5"/>
</svg>
