<svg xmlns="http://www.w3.org/2000/svg" width="24" height="24" fill="none" stroke-width="1.5" viewBox="0 0 24 24">
    <path d="M7 2.254A.747.747 0 0 0 6.252 3v1.254h-.69a3.32 3.32 0 0 0-3.308 3.309v10.876a3.307 3.307 0 0 0 3.309 3.309h12.875a3.311 3.311 0 0 0 3.308-3.309v-6.441c0-4.268-3.476-7.744-7.744-7.744h-1.256V3A.747.747 0 0 0 12 2.254Zm.746 1.492h3.508V5a.747.747 0 0 0 .746.746h2.002a6.242 6.242 0 0 1 6.252 6.252v6.441c0 .48-.191.944-.531 1.284a.747.747 0 0 0-.002 0c-.341.34-.801.533-1.284.533H5.562c-.482 0-.942-.193-1.283-.533a.747.747 0 0 0-.002 0 1.816 1.816 0 0 1-.53-1.284V7.563c0-1.012.802-1.817 1.816-1.817H7A.747.747 0 0 0 7.746 5Z" style="color:#000;clip-rule:evenodd;fill:currentColor;fill-rule:evenodd;stroke-linecap:round;stroke-linejoin:round;stroke-miterlimit:1.5;-inkscape-stroke:none"/>
    <path d="M15.988 8.123a.751.751 0 0 0-.527.229l-3.463 3.566-3.459-3.563a.751.751 0 0 0-1.062-.015.751.751 0 0 0-.016 1.062l3.49 3.594-3.49 3.596a.751.751 0 0 0 1.078 1.047l3.459-3.565 3.463 3.565a.751.751 0 0 0 1.078-1.047l-3.492-3.598 3.492-3.598a.751.751 0 0 0-.016-1.06.751.751 0 0 0-.535-.213" style="color:#000;fill:currentColor;stroke-linecap:round;stroke-linejoin:round;stroke-miterlimit:1.5"/>
</svg>
