<svg xmlns="http://www.w3.org/2000/svg" width="24" height="24" fill="none" stroke-width="1.5" viewBox="0 0 24 24">
    <path d="M12 4.25A3.76 3.76 0 0 0 8.25 8v13.4c0 .737.613 1.35 1.35 1.35h4.8a1.36 1.36 0 0 0 1.35-1.35V8A3.76 3.76 0 0 0 12 4.25m0 1.5c1.252 0 2.25.998 2.25 2.25v13.25h-4.5V8c0-1.252.998-2.25 2.25-2.25" style="color:#000;fill:currentColor;stroke-linecap:round;-inkscape-stroke:none"/>
    <path d="M9 10.25a.75.75 0 0 0-.75.75.75.75 0 0 0 .75.75h6a.75.75 0 0 0 .75-.75.75.75 0 0 0-.75-.75ZM11 1.25a.75.75 0 0 0-.75.75.75.75 0 0 0 .75.75h.25V5a.75.75 0 0 0 .75.75.75.75 0 0 0 .75-.75V2.75H13a.75.75 0 0 0 .75-.75.75.75 0 0 0-.75-.75h-1z" style="color:#000;fill:currentColor;stroke-linecap:round;-inkscape-stroke:none"/>
</svg>
