<svg xmlns="http://www.w3.org/2000/svg" width="24" height="24" fill="none" stroke-width="1.5" viewBox="0 0 24 24">
    <path d="M4 11.25a.75.75 0 0 0-.75.75v9.4c0 .737.613 1.35 1.35 1.35h14.8a1.36 1.36 0 0 0 1.35-1.35V12a.75.75 0 0 0-.75-.75.75.75 0 0 0-.75.75v9.25H4.75V12a.75.75 0 0 0-.75-.75" style="color:#000;fill:currentColor;stroke-linecap:round;stroke-linejoin:round;-inkscape-stroke:none"/>
    <path d="M2.6 6.25A1.36 1.36 0 0 0 1.25 7.6v3.8c0 .737.613 1.35 1.35 1.35h18.8a1.36 1.36 0 0 0 1.35-1.35V7.6a1.36 1.36 0 0 0-1.35-1.35Zm.15 1.5h18.5v3.5H2.75Z" style="color:#000;fill:currentColor;stroke-linecap:round;stroke-linejoin:round;-inkscape-stroke:none"/>
    <path d="M12 6.25a.75.75 0 0 0-.75.75v15a.75.75 0 0 0 .75.75.75.75 0 0 0 .75-.75V7a.75.75 0 0 0-.75-.75" style="color:#000;fill:currentColor;stroke-linecap:round;stroke-linejoin:round;-inkscape-stroke:none"/>
    <path d="M7.5 1.25c-.862 0-1.69.342-2.299.951A3.252 3.252 0 0 0 7.5 7.75H12a.75.75 0 0 0 .736-.896s-.265-1.348-1.017-2.715C10.967 2.77 9.607 1.25 7.5 1.25m0 1.5c1.393 0 2.283.98 2.906 2.111.379.688.395.949.522 1.389H7.5a1.75 1.75 0 1 1 0-3.5" style="color:#000;fill:currentColor;stroke-linecap:round;stroke-linejoin:round;-inkscape-stroke:none"/>
    <path d="M16.5 1.25c-2.107 0-3.467 1.52-4.219 2.889-.752 1.367-1.017 2.715-1.017 2.715A.75.75 0 0 0 12 7.75h4.5c.862 0 1.69-.342 2.299-.951A3.252 3.252 0 0 0 16.5 1.25m0 1.5a1.75 1.75 0 1 1 0 3.5h-3.428c.127-.44.143-.7.522-1.389.623-1.132 1.513-2.111 2.906-2.111" style="color:#000;fill:currentColor;stroke-linecap:round;stroke-linejoin:round;-inkscape-stroke:none"/>
</svg>
