<svg xmlns="http://www.w3.org/2000/svg" width="24" height="24" fill="none" stroke-width="1.5" viewBox="0 0 24 24">
    <path d="M18 3.25c-1.51 0-2.75 1.24-2.75 2.75S16.49 8.75 18 8.75 20.75 7.51 20.75 6 19.51 3.25 18 3.25m0 1.5c.7 0 1.25.55 1.25 1.25S18.7 7.25 18 7.25 16.75 6.7 16.75 6 17.3 4.75 18 4.75M6 15.25c-1.51 0-2.75 1.24-2.75 2.75S4.49 20.75 6 20.75 8.75 19.51 8.75 18 7.51 15.25 6 15.25m0 1.5c.7 0 1.25.55 1.25 1.25S6.7 19.25 6 19.25 4.75 18.7 4.75 18 5.3 16.75 6 16.75" style="color:#000;fill:currentColor;stroke-linecap:round;stroke-linejoin:round;-inkscape-stroke:none"/>
    <path d="M6 2.25a.75.75 0 0 0-.75.75v13a.75.75 0 0 0 .75.75.75.75 0 0 0 .75-.75V3A.75.75 0 0 0 6 2.25M18 7.25a.75.75 0 0 0-.75.75v1.5c0 2.985-1.23 4.839-2.88 6.045S10.6 17.25 9 17.25H8a.75.75 0 0 0-.75.75.75.75 0 0 0 .75.75h1c1.9 0 4.28-.55 6.256-1.994S18.75 12.915 18.75 9.5V8a.75.75 0 0 0-.75-.75" style="color:#000;fill:currentColor;stroke-linecap:round;stroke-linejoin:round;-inkscape-stroke:none"/>
</svg>
