<svg xmlns="http://www.w3.org/2000/svg" width="24" height="24" fill="none" stroke-width="1.5" viewBox="0 0 24 24">
    <path d="M12 3.25a.75.75 0 0 0-.75.75v3.25H9c-1.51 0-2.75 1.24-2.75 2.75v1a.75.75 0 0 0 .75.75.75.75 0 0 0 .75-.75v-1c0-.7.55-1.25 1.25-1.25h6c.7 0 1.25.55 1.25 1.25v1a.75.75 0 0 0 .75.75.75.75 0 0 0 .75-.75v-1c0-1.51-1.24-2.75-2.75-2.75h-2.25V4a.75.75 0 0 0-.75-.75M12 13.25A3.76 3.76 0 0 0 8.25 17 3.76 3.76 0 0 0 12 20.75 3.76 3.76 0 0 0 15.75 17 3.76 3.76 0 0 0 12 13.25m0 1.5c1.252 0 2.25.998 2.25 2.25s-.998 2.25-2.25 2.25A2.24 2.24 0 0 1 9.75 17c0-1.252.998-2.25 2.25-2.25" style="color:#000;fill:currentColor;stroke-linecap:round;stroke-linejoin:round;-inkscape-stroke:none"/>
    <path d="M3 16.25a.75.75 0 0 0-.75.75.75.75 0 0 0 .75.75h6a.75.75 0 0 0 .75-.75.75.75 0 0 0-.75-.75ZM15 16.25a.75.75 0 0 0-.75.75.75.75 0 0 0 .75.75h6a.75.75 0 0 0 .75-.75.75.75 0 0 0-.75-.75Z" style="color:#000;fill:currentColor;stroke-linecap:round;stroke-linejoin:round;-inkscape-stroke:none"/>
</svg>
