<svg xmlns="http://www.w3.org/2000/svg" width="24" height="24" fill="none" stroke-width="1.5" viewBox="0 0 24 24">
    <path d="M18 16.25c-1.51 0-2.75 1.24-2.75 2.75s1.24 2.75 2.75 2.75 2.75-1.24 2.75-2.75-1.24-2.75-2.75-2.75m0 1.5c.7 0 1.25.55 1.25 1.25s-.55 1.25-1.25 1.25-1.25-.55-1.25-1.25.55-1.25 1.25-1.25M6 2.25C4.49 2.25 3.25 3.49 3.25 5S4.49 7.75 6 7.75 8.75 6.51 8.75 5 7.51 2.25 6 2.25m0 1.5c.7 0 1.25.55 1.25 1.25S6.7 6.25 6 6.25 4.75 5.7 4.75 5 5.3 3.75 6 3.75M6 16.25c-1.51 0-2.75 1.24-2.75 2.75S4.49 21.75 6 21.75 8.75 20.51 8.75 19 7.51 16.25 6 16.25m0 1.5c.7 0 1.25.55 1.25 1.25S6.7 20.25 6 20.25 4.75 19.7 4.75 19 5.3 17.75 6 17.75" style="color:#000;fill:currentColor;stroke-linecap:round;stroke-linejoin:round;-inkscape-stroke:none"/>
    <path d="M6 6.25a.75.75 0 0 0-.75.75v10a.75.75 0 0 0 .75.75.75.75 0 0 0 .75-.75V7A.75.75 0 0 0 6 6.25M13 4.25a.75.75 0 0 0-.75.75.75.75 0 0 0 .75.75h3c.75 0 .92.265 1.08.586s.17.664.17.664v10a.75.75 0 0 0 .75.75.75.75 0 0 0 .75-.75V7s.01-.657-.33-1.336S17.25 4.25 16 4.25Z" style="color:#000;fill:currentColor;stroke-linecap:round;stroke-linejoin:round;-inkscape-stroke:none"/>
    <path d="M15 1.75a.75.75 0 0 0-.53.22l-2.5 2.5a.75.75 0 0 0 0 1.061l2.5 2.5a.75.75 0 0 0 1.061 0 .75.75 0 0 0 0-1.06L13.562 5l1.97-1.969a.75.75 0 0 0 0-1.06A.75.75 0 0 0 15 1.75" style="color:#000;fill:currentColor;stroke-linecap:round;stroke-linejoin:round;-inkscape-stroke:none"/>
</svg>
