<svg xmlns="http://www.w3.org/2000/svg" width="24" height="24" fill="none" stroke-width="1.5" viewBox="0 0 24 24">
    <path d="M18 16.25c-1.51 0-2.75 1.24-2.75 2.75s1.24 2.75 2.75 2.75 2.75-1.24 2.75-2.75-1.24-2.75-2.75-2.75m0 1.5c.7 0 1.25.55 1.25 1.25s-.55 1.25-1.25 1.25-1.25-.55-1.25-1.25.55-1.25 1.25-1.25M6 2.25C4.49 2.25 3.25 3.49 3.25 5S4.49 7.75 6 7.75 8.75 6.51 8.75 5 7.51 2.25 6 2.25m0 1.5c.7 0 1.25.55 1.25 1.25S6.7 6.25 6 6.25 4.75 5.7 4.75 5 5.3 3.75 6 3.75" style="color:#000;fill:currentColor;stroke-linecap:round;stroke-linejoin:round;-inkscape-stroke:none"/>
    <path d="M13 4.25a.75.75 0 0 0-.75.75.75.75 0 0 0 .75.75h3c.75 0 .92.265 1.08.586.16.321.17.664.17.664v10a.75.75 0 0 0 .75.75.75.75 0 0 0 .75-.75V7s.01-.657-.33-1.336S17.25 4.25 16 4.25ZM6 6.25a.75.75 0 0 0-.75.75v10s-.01.657.33 1.336S6.75 19.75 8 19.75h3a.75.75 0 0 0 .75-.75.75.75 0 0 0-.75-.75H8c-.75 0-.92-.265-1.08-.586-.16-.321-.17-.664-.17-.664V7A.75.75 0 0 0 6 6.25" style="color:#000;fill:currentColor;stroke-linecap:round;stroke-linejoin:round;-inkscape-stroke:none"/>
    <path d="M15 1.75a.75.75 0 0 0-.53.22l-2.5 2.5a.75.75 0 0 0 0 1.061l2.5 2.5a.75.75 0 0 0 1.061 0 .75.75 0 0 0 0-1.06L13.562 5l1.97-1.969a.75.75 0 0 0 0-1.06A.75.75 0 0 0 15 1.75M8.5 15.75a.75.75 0 0 0-.531.219.75.75 0 0 0 0 1.062L9.937 19 7.97 20.969a.75.75 0 0 0 0 1.062.75.75 0 0 0 1.062 0l2.5-2.5a.75.75 0 0 0 0-1.062l-2.5-2.5a.75.75 0 0 0-.531-.219" style="color:#000;fill:currentColor;stroke-linecap:round;stroke-linejoin:round;-inkscape-stroke:none"/>
</svg>
