<svg xmlns="http://www.w3.org/2000/svg" width="24" height="24" fill="none" stroke-width="1.5" viewBox="0 0 24 24">
    <path d="M17 2.25c-1.51 0-2.75 1.24-2.75 2.75S15.49 7.75 17 7.75 19.75 6.51 19.75 5 18.51 2.25 17 2.25m0 1.5c.7 0 1.25.55 1.25 1.25S17.7 6.25 17 6.25 15.75 5.7 15.75 5 16.3 3.75 17 3.75M7 2.25C5.49 2.25 4.25 3.49 4.25 5S5.49 7.75 7 7.75 9.75 6.51 9.75 5 8.51 2.25 7 2.25m0 1.5c.7 0 1.25.55 1.25 1.25S7.7 6.25 7 6.25 5.75 5.7 5.75 5 6.3 3.75 7 3.75M7 16.25c-1.51 0-2.75 1.24-2.75 2.75S5.49 21.75 7 21.75 9.75 20.51 9.75 19 8.51 16.25 7 16.25m0 1.5c.7 0 1.25.55 1.25 1.25S7.7 20.25 7 20.25 5.75 19.7 5.75 19 6.3 17.75 7 17.75" style="color:#000;fill:currentColor;stroke-linecap:round;stroke-linejoin:round;-inkscape-stroke:none"/>
    <path d="M7 6.25a.75.75 0 0 0-.75.75v10a.75.75 0 0 0 .75.75.75.75 0 0 0 .75-.75V7A.75.75 0 0 0 7 6.25" style="color:#000;fill:currentColor;stroke-linecap:round;stroke-linejoin:round;-inkscape-stroke:none"/>
    <path d="M17 6.25a.75.75 0 0 0-.75.75v1c0 1.05-.377 1.552-.744 1.873s-.688.398-.688.398l-.054.018-5.946 1.982s-.679.173-1.312.727S6.25 14.55 6.25 16v1a.75.75 0 0 0 .75.75.75.75 0 0 0 .75-.75v-1c0-1.05.377-1.552.744-1.873s.688-.398.688-.398l.054-.018 5.946-1.982s.679-.173 1.312-.727S17.75 9.45 17.75 8V7a.75.75 0 0 0-.75-.75" style="color:#000;fill:currentColor;stroke-linecap:round;stroke-linejoin:round;-inkscape-stroke:none"/>
</svg>
