<svg xmlns="http://www.w3.org/2000/svg" width="24" height="24" fill="none" stroke-width="1.5" viewBox="0 0 24 24">
    <path d="M18 15.25c-1.51 0-2.75 1.24-2.75 2.75s1.24 2.75 2.75 2.75 2.75-1.24 2.75-2.75-1.24-2.75-2.75-2.75m0 1.5c.7 0 1.25.55 1.25 1.25s-.55 1.25-1.25 1.25-1.25-.55-1.25-1.25.55-1.25 1.25-1.25M6 6.25a.75.75 0 0 0-.75.75v14a.75.75 0 0 0 .75.75.75.75 0 0 0 .75-.75V7A.75.75 0 0 0 6 6.25" style="color:#000;fill:currentColor;stroke-linecap:round;stroke-linejoin:round;-inkscape-stroke:none"/>
    <path d="M6 6.25a.75.75 0 0 0-.75.75v2c0 1.929.663 4.302 2.152 6.266 1.49 1.963 3.869 3.484 7.098 3.484H16a.75.75 0 0 0 .75-.75.75.75 0 0 0-.75-.75h-1.5c-2.77 0-4.642-1.229-5.902-2.89C7.338 12.697 6.75 10.57 6.75 9V7A.75.75 0 0 0 6 6.25" style="color:#000;fill:currentColor;stroke-linecap:round;stroke-linejoin:round;-inkscape-stroke:none"/>
    <path d="M6 2.25C4.49 2.25 3.25 3.49 3.25 5S4.49 7.75 6 7.75 8.75 6.51 8.75 5 7.51 2.25 6 2.25m0 1.5c.7 0 1.25.55 1.25 1.25S6.7 6.25 6 6.25 4.75 5.7 4.75 5 5.3 3.75 6 3.75" style="color:#000;fill:currentColor;stroke-linecap:round;stroke-linejoin:round;-inkscape-stroke:none"/>
</svg>
