<svg xmlns="http://www.w3.org/2000/svg" width="24" height="24" fill="none" stroke-width="1.5" viewBox="0 0 24 24">
    <path d="M12 6.25A2.26 2.26 0 0 0 9.75 8.5 2.26 2.26 0 0 0 12 10.75a2.26 2.26 0 0 0 2.25-2.25A2.26 2.26 0 0 0 12 6.25m0 1.5c.423 0 .75.327.75.75s-.327.75-.75.75a.74.74 0 0 1-.75-.75c0-.423.327-.75.75-.75M12 14.25a2.26 2.26 0 0 0-2.25 2.25A2.26 2.26 0 0 0 12 18.75a2.26 2.26 0 0 0 2.25-2.25A2.26 2.26 0 0 0 12 14.25m0 1.5c.423 0 .75.327.75.75s-.327.75-.75.75a.74.74 0 0 1-.75-.75c0-.423.327-.75.75-.75M16.25 10.5A2.26 2.26 0 0 0 14 12.75 2.26 2.26 0 0 0 16.25 15a2.26 2.26 0 0 0 2.25-2.25 2.26 2.26 0 0 0-2.25-2.25m0 1.5c.423 0 .75.327.75.75s-.327.75-.75.75a.74.74 0 0 1-.75-.75c0-.423.327-.75.75-.75" style="color:#000;fill:currentColor;stroke-linecap:round;stroke-linejoin:round;-inkscape-stroke:none"/>
    <path d="M12 9.25a.75.75 0 0 0-.75.75v5a.75.75 0 0 0 .75.75.75.75 0 0 0 .75-.75v-5a.75.75 0 0 0-.75-.75M8.25 4a.75.75 0 0 0-.531.219.75.75 0 0 0 0 1.062l2.25 2.25a.75.75 0 0 0 1.062 0 .75.75 0 0 0 0-1.062l-2.25-2.25A.75.75 0 0 0 8.25 4" style="color:#000;fill:currentColor;stroke-linecap:round;stroke-linejoin:round;-inkscape-stroke:none"/>
    <path d="M13.25 9a.75.75 0 0 0-.531.219.75.75 0 0 0 0 1.062l1.5 1.5a.75.75 0 0 0 1.062 0 .75.75 0 0 0 0-1.062l-1.5-1.5A.75.75 0 0 0 13.25 9" style="color:#000;fill:currentColor;stroke-linecap:round;stroke-linejoin:round;-inkscape-stroke:none"/>
    <path d="M12 .504c-.347 0-.695.13-.955.39L.895 11.045c-.521.522-.521 1.39 0 1.911l10.15 10.15c.52.521 1.39.521 1.91 0l10.15-10.15c.521-.52.521-1.39 0-1.91L12.955.895c-.26-.26-.608-.391-.955-.391m0 1.557L21.94 12 12 21.94 2.06 12Z" style="color:#000;fill:currentColor;stroke-linecap:round;stroke-linejoin:round;-inkscape-stroke:none"/>
</svg>
