<svg xmlns="http://www.w3.org/2000/svg" width="24" height="24" fill="none" stroke-width="1.5" viewBox="0 0 24 24">
    <path d="M5.297 1.252c-.218.006-.42.057-.42.057a.75.75 0 0 0-.477.421c-.532 1.243-.548 2.619-.173 3.909-.921 1.113-1.484 2.483-1.477 3.937v.004c.001 2.86.917 4.786 2.31 5.957 1.087.914 2.396 1.3 3.694 1.55-.076.15-.206.265-.264.423a4.118 4.118 0 0 0-.238 1.699l-.002-.053v2.871a.75.75 0 0 0 .75.75.75.75 0 0 0 .75-.75v-2.87a.75.75 0 0 0-.002-.053 2.617 2.617 0 0 1 .73-2.006.75.75 0 0 0-.445-1.266c-1.51-.187-2.967-.568-4.008-1.443-1.04-.876-1.775-2.255-1.775-4.813a.75.75 0 0 0 0-.004 4.686 4.686 0 0 1 1.293-3.258.75.75 0 0 0 .16-.779c-.331-.888-.296-1.844-.025-2.744.07.01.09.001.181.021.525.117 1.418.442 2.723 1.317a.75.75 0 0 0 .613.101 12.636 12.636 0 0 1 6.61 0 .75.75 0 0 0 .613-.101c1.305-.875 2.198-1.2 2.723-1.316.09-.02.112-.012.181-.022.271.9.306 1.856-.025 2.744a.75.75 0 0 0 .16.78 4.688 4.688 0 0 1 1.293 3.232c0 2.579-.736 3.968-1.775 4.842-1.04.873-2.493 1.244-3.998 1.412a.75.75 0 0 0-.456 1.267 2.62 2.62 0 0 1 .731 2.03.75.75 0 0 0-.002.058v2.871a.75.75 0 0 0 .75.75.75.75 0 0 0 .75-.75v-2.87l-.002.058a4.117 4.117 0 0 0-.23-1.719c-.058-.16-.192-.277-.268-.428 1.297-.238 2.604-.618 3.69-1.53 1.395-1.175 2.31-3.11 2.31-5.991 0-1.444-.562-2.803-1.477-3.908.375-1.29.36-2.666-.173-3.909a.75.75 0 0 0-.477-.421s-.202-.051-.42-.057a3.637 3.637 0 0 0-.887.096c-.678.15-1.702.617-2.933 1.394-2.226-.55-4.54-.55-6.766 0-1.231-.777-2.255-1.244-2.933-1.394a3.637 3.637 0 0 0-.887-.096" style="color:#000;fill:currentColor;stroke-linecap:round;stroke-linejoin:round;-inkscape-stroke:none"/>
    <path d="M2.236 16.314a.75.75 0 0 0-.572.041.75.75 0 0 0-.334 1.006c.81 1.62 1.94 2.772 3.318 3.348 1.378.576 2.955.56 4.582.031a.75.75 0 0 0 .483-.945.75.75 0 0 0-.943-.483c-1.373.446-2.546.43-3.543.012-.998-.417-1.867-1.253-2.557-2.633a.75.75 0 0 0-.434-.377" style="color:#000;fill:currentColor;stroke-linecap:round;stroke-linejoin:round;-inkscape-stroke:none"/>
</svg>
