<svg xmlns="http://www.w3.org/2000/svg" width="24" height="24" fill="none" stroke-width="1.5" viewBox="0 0 24 24">
    <path d="M2 5.25a.75.75 0 0 0-.75.75v8A4.76 4.76 0 0 0 6 18.75 4.76 4.76 0 0 0 10.75 14 4.76 4.76 0 0 0 6 9.25c-1.262 0-2.398.516-3.25 1.324V6A.75.75 0 0 0 2 5.25m4 5.5A3.24 3.24 0 0 1 9.25 14 3.24 3.24 0 0 1 6 17.25 3.24 3.24 0 0 1 2.75 14 3.24 3.24 0 0 1 6 10.75M22 5.25a.75.75 0 0 0-.75.75v4.574C20.398 9.766 19.262 9.25 18 9.25A4.76 4.76 0 0 0 13.25 14 4.76 4.76 0 0 0 18 18.75 4.76 4.76 0 0 0 22.75 14V6a.75.75 0 0 0-.75-.75m-4 5.5A3.24 3.24 0 0 1 21.25 14 3.24 3.24 0 0 1 18 17.25 3.24 3.24 0 0 1 14.75 14 3.24 3.24 0 0 1 18 10.75" style="color:#000;fill:currentColor;stroke-linecap:round;stroke-linejoin:round;-inkscape-stroke:none"/>
    <path d="M10 13.25a.75.75 0 0 0-.75.75.75.75 0 0 0 .75.75h4a.75.75 0 0 0 .75-.75.75.75 0 0 0-.75-.75Z" style="color:#000;fill:currentColor;stroke-linecap:round;stroke-linejoin:round;-inkscape-stroke:none"/>
</svg>
