<svg xmlns="http://www.w3.org/2000/svg" width="24" height="24" fill="none" stroke-width="1.5" viewBox="0 0 24 24">
    <path d="M12 14.25a.75.75 0 0 0-.75.75v6.25H8a.75.75 0 0 0-.75.75.75.75 0 0 0 .75.75h8a.75.75 0 0 0 .75-.75.75.75 0 0 0-.75-.75h-3.25V15a.75.75 0 0 0-.75-.75" style="color:#000;fill:currentColor;stroke-linecap:round;stroke-linejoin:round;-inkscape-stroke:none"/>
    <path d="M6.578 1.25a.75.75 0 0 0-.728.568s-.338 1.352-.506 3.067c-.169 1.715-.21 3.809.552 5.474.706 1.543 2.143 2.81 3.393 3.752 1.25.943 2.35 1.547 2.35 1.547a.75.75 0 0 0 .722 0s1.1-.604 2.35-1.547 2.687-2.209 3.393-3.752c.761-1.665.72-3.76.552-5.474-.168-1.715-.506-3.067-.506-3.067a.75.75 0 0 0-.728-.568Zm.635 1.5h9.574c.085.37.252 1.002.377 2.281.157 1.598.115 3.526-.424 4.705-.5 1.092-1.774 2.302-2.933 3.176-.966.729-1.546 1.043-1.807 1.192-.26-.15-.84-.463-1.807-1.192-1.159-.874-2.434-2.084-2.933-3.176-.54-1.179-.58-3.107-.424-4.705.125-1.279.292-1.91.377-2.281" style="color:#000;fill:currentColor;stroke-linecap:round;stroke-linejoin:round;-inkscape-stroke:none"/>
    <path d="M12.836 1.33a.75.75 0 0 0-1.006.334l-2 4a.75.75 0 0 0 .67 1.086h1.787L10.83 9.664a.75.75 0 0 0 .334 1.006.75.75 0 0 0 1.006-.334l2-4a.75.75 0 0 0-.67-1.086h-1.787l1.457-2.914a.75.75 0 0 0-.334-1.006" style="color:#000;fill:currentColor;stroke-linecap:round;stroke-linejoin:round;-inkscape-stroke:none"/>
</svg>
