<svg xmlns="http://www.w3.org/2000/svg" width="24" height="24" fill="none" stroke-width="1.5" viewBox="0 0 24 24">
    <path d="M7.354 10.264a.75.75 0 0 0-.59.882l1 5a.75.75 0 0 0 .882.59.75.75 0 0 0 .59-.882l-1-5a.75.75 0 0 0-.882-.59" style="color:#000;fill:currentColor;stroke-linecap:round;stroke-linejoin:round;-inkscape-stroke:none"/>
    <path d="M12 1.25c-5.802 0-8.36 1.353-9.203 1.953-.4.285-.558.77-.502 1.19l1.7 12.744a4.751 4.751 0 0 0 2.35 3.496l.321.183a10.754 10.754 0 0 0 10.668 0l.32-.183a4.75 4.75 0 0 0 2.352-3.496l1.7-12.744a1.264 1.264 0 0 0-.503-1.19C20.36 2.603 17.802 1.25 12 1.25m0 1.5c5.398 0 7.56 1.185 8.193 1.615L18.518 16.94a3.243 3.243 0 0 1-1.608 2.391l-.32.184a9.25 9.25 0 0 1-9.18 0l-.318-.184H7.09a3.243 3.243 0 0 1-1.608-2.39L3.807 4.364C4.439 3.935 6.602 2.75 12 2.75" style="color:#000;fill:currentColor;-inkscape-stroke:none"/>
    <path d="M3.54 4.479 2.46 5.52c.86.892 2.248 1.366 3.923 1.713 1.675.348 3.645.516 5.617.516s3.942-.168 5.617-.516c1.675-.347 3.062-.821 3.922-1.713L20.461 4.48c-.426.441-1.61.967-3.148 1.287-1.54.319-3.428.484-5.313.484-1.885 0-3.774-.165-5.312-.484-1.54-.32-2.723-.846-3.149-1.287" style="color:#000;fill:currentColor;-inkscape-stroke:none"/>
</svg>
