<svg xmlns="http://www.w3.org/2000/svg" width="24" height="24" fill="none" stroke-width="1.5" viewBox="0 0 24 24">
    <path d="M12 1.25c-5.802 0-8.36 1.353-9.203 1.953-.4.285-.558.77-.502 1.19l1.7 12.744a4.75 4.75 0 0 0 2.35 3.496l.321.183a10.75 10.75 0 0 0 10.668 0l.32-.183a4.75 4.75 0 0 0 2.352-3.496l1.7-12.744a1.26 1.26 0 0 0-.503-1.19C20.36 2.603 17.802 1.25 12 1.25m0 1.5c5.398 0 7.56 1.185 8.193 1.615L18.518 16.94a3.24 3.24 0 0 1-1.608 2.391l-.32.184a9.25 9.25 0 0 1-9.18 0l-.318-.184H7.09a3.24 3.24 0 0 1-1.608-2.39L3.807 4.364C4.439 3.935 6.602 2.75 12 2.75" style="color:#000;fill:currentColor;-inkscape-stroke:none"/>
    <path d="M3.54 4.479 2.46 5.52c.86.892 2.248 1.366 3.923 1.713 1.675.348 3.645.516 5.617.516s3.942-.168 5.617-.516c1.675-.347 3.062-.821 3.922-1.713L20.461 4.48c-.426.441-1.61.967-3.148 1.287-1.54.319-3.428.484-5.313.484s-3.774-.165-5.312-.484c-1.54-.32-2.723-.846-3.149-1.287M4.57 12.512l-1.14.976c.697.814 1.8 1.285 3.111 1.635s2.848.547 4.43.607c1.923.074 3.907-.056 5.61-.402 1.701-.346 3.142-.85 3.99-1.84l-1.141-.976c-.407.474-1.597 1.03-3.147 1.345s-3.439.445-5.254.375c-1.493-.056-2.939-.248-4.101-.558-1.163-.31-2.023-.772-2.358-1.162" style="color:#000;fill:currentColor;-inkscape-stroke:none"/>
    <path d="M14.25 14.822V20.5h1.5v-5.678zM12 10.25c-1.763 0-3.523.169-5.027.52-1.504.35-2.77.84-3.543 1.742l1.14.976c.37-.432 1.39-.942 2.742-1.258 1.354-.315 3.022-.48 4.688-.48s3.334.165 4.688.48c1.353.316 2.371.826 2.742 1.258l1.14-.976c-.772-.901-2.039-1.392-3.543-1.742s-3.264-.52-5.027-.52" style="color:#000;fill:currentColor;-inkscape-stroke:none"/>
</svg>
