<svg xmlns="http://www.w3.org/2000/svg" width="24" height="24" fill="none" stroke-width="1.5" viewBox="0 0 24 24">
    <path d="M12 1.25C6.072 1.25 1.25 6.072 1.25 12S6.072 22.75 12 22.75 22.75 17.928 22.75 12 17.928 1.25 12 1.25m0 1.5A9.24 9.24 0 0 1 21.25 12 9.24 9.24 0 0 1 12 21.25 9.24 9.24 0 0 1 2.75 12 9.24 9.24 0 0 1 12 2.75" style="color:#000;fill:currentColor;stroke-linecap:round;stroke-linejoin:round;-inkscape-stroke:none"/>
    <path d="M2.756 11.795a.75.75 0 0 0-.961.45.75.75 0 0 0 .45.96l4.84 1.762-.806 2.828a.75.75 0 0 0 .01.441l1 3a.75.75 0 0 0 .947.475.75.75 0 0 0 .475-.947l-.926-2.782.936-3.277a.75.75 0 0 0-.465-.91ZM17.082 11.754a.75.75 0 0 0-.318.035l-3 1a.75.75 0 0 0-.514.711V17a.75.75 0 0 0 .47.697l2.124.848.42 2.101a.75.75 0 0 0 .882.59.75.75 0 0 0 .59-.882l-.5-2.5a.75.75 0 0 0-.457-.551l-2.029-.81V14.04l2.33-.777 4.338.482a.75.75 0 0 0 .828-.664.75.75 0 0 0-.664-.828zM19.236 4.79a.75.75 0 0 0-.947.474l-.353 1.058-3.041.436a.75.75 0 0 0-.645.742v3a.75.75 0 0 0 1.03.697l2.365-.947h1.677l1.842.92a.75.75 0 0 0 1.006-.334.75.75 0 0 0-.334-1.006l-2-1a.75.75 0 0 0-.336-.08h-2a.8.8 0 0 0-.28.053l-1.47.588V8.15l2.855-.409a.75.75 0 0 0 .606-.506l.5-1.5a.75.75 0 0 0-.475-.947M8.164 2.33a.75.75 0 0 0-.334 1.006l.805 1.61-1.586 2.38-2.195.438a.75.75 0 0 0-.323.15l-2.5 2a.75.75 0 0 0-.117 1.055.75.75 0 0 0 1.055.117l2.357-1.887 2.32-.463a.75.75 0 0 0 .479-.32l2-3a.75.75 0 0 0 .045-.752l-1-2a.75.75 0 0 0-1.006-.334" style="color:#000;fill:currentColor;stroke-linecap:round;stroke-linejoin:round;-inkscape-stroke:none"/>
</svg>
