<svg xmlns="http://www.w3.org/2000/svg" width="24" height="24" fill="none" stroke-width="1.5" viewBox="0 0 24 24">
    <path d="M13.13 2.17c-.865-.371-1.88.298-1.88 1.24V18a.75.75 0 0 0 .75.75.75.75 0 0 0 .75-.75v-5.525l8.875-4.227c.5-.238.78-.759.77-1.246a1.37 1.37 0 0 0-.819-1.215L13.133 2.17zm-.38 1.467 7.93 3.398-7.93 3.778Z" style="color:#000;fill:currentColor;stroke-linecap:round;stroke-linejoin:round;-inkscape-stroke:none"/>
    <path d="M12 14.25c-2.034 0-3.882.402-5.285 1.104-1.403.701-2.465 1.774-2.465 3.146s1.062 2.445 2.465 3.146S9.965 22.75 12 22.75c2.034 0 3.882-.402 5.285-1.104 1.403-.701 2.465-1.774 2.465-3.146s-1.062-2.445-2.465-3.146S14.035 14.25 12 14.25m0 1.5c1.832 0 3.485.38 4.615.945S18.25 17.94 18.25 18.5s-.505 1.24-1.635 1.805-2.783.945-4.615.945-3.485-.38-4.615-.945S5.75 19.06 5.75 18.5s.505-1.24 1.635-1.805 2.783-.945 4.615-.945" style="color:#000;fill:currentColor;stroke-linecap:round;stroke-linejoin:round;-inkscape-stroke:none"/>
</svg>
