<svg xmlns="http://www.w3.org/2000/svg" width="24" height="24" fill="none" stroke-width="1.5" viewBox="0 0 24 24">
    <path d="M13.13 2.17c-.865-.371-1.88.298-1.88 1.24V18a.75.75 0 0 0 .75.75.75.75 0 0 0 .75-.75v-5.525l8.875-4.227c.5-.238.78-.759.77-1.246a1.373 1.373 0 0 0-.819-1.215L13.133 2.17a.75.75 0 0 0-.002 0m-.38 1.467 7.93 3.398-7.93 3.778Z" style="color:#000;fill:currentColor;stroke-linecap:round;stroke-linejoin:round;-inkscape-stroke:none"/>
    <path d="M12 14.25c-2.034 0-3.882.402-5.285 1.104-1.403.701-2.465 1.774-2.465 3.146 0 1.372 1.062 2.445 2.465 3.146 1.403.702 3.25 1.104 5.285 1.104 2.034 0 3.882-.402 5.285-1.104 1.403-.701 2.465-1.774 2.465-3.146 0-1.372-1.062-2.445-2.465-3.146-1.403-.702-3.25-1.104-5.285-1.104m0 1.5c1.832 0 3.485.38 4.615.945 1.13.565 1.635 1.244 1.635 1.805 0 .561-.505 1.24-1.635 1.805s-2.783.945-4.615.945c-1.832 0-3.485-.38-4.615-.945C6.255 19.74 5.75 19.06 5.75 18.5c0-.561.505-1.24 1.635-1.805s2.783-.945 4.615-.945" style="color:#000;fill:currentColor;stroke-linecap:round;stroke-linejoin:round;-inkscape-stroke:none"/>
</svg>
