<svg xmlns="http://www.w3.org/2000/svg" width="24" height="24" fill="none" stroke-width="1.5" viewBox="0 0 24 24">
    <path d="m14.857 2.25-5.714.004a.75.75 0 0 0-.264.11.75.75 0 0 0-.08-.026.75.75 0 0 0-.076.092.75.75 0 0 0-.166.175.75.75 0 0 0-.059.016l-7.143 12a.75.75 0 0 0 .018.067.75.75 0 0 0-.086.226.75.75 0 0 0-.037.09.75.75 0 0 0 .076.185.75.75 0 0 0 .03.2l3.576 5.996a.75.75 0 0 0 .058.015.75.75 0 0 0 .219.2.75.75 0 0 0 .021.066.75.75 0 0 0 .178.016.75.75 0 0 0 .166.068h6.43a.75.75 0 0 0 .75-.75.75.75 0 0 0-.75-.75H6.807l2.318-4.496H12.5a.75.75 0 0 0 .75-.75.75.75 0 0 0-.75-.75H9.898l2.104-4.078 1.377 2.668a.75.75 0 0 0 1.01.322.75.75 0 0 0 .322-1.01l-1.867-3.615 2.06-3.996 4.664 7.838a.75.75 0 0 0 1.028.262.75.75 0 0 0 .261-1.028l-5.355-9a.75.75 0 0 0-.027-.02.75.75 0 0 0-.274-.263.75.75 0 0 0-.09-.008.75.75 0 0 0-.21-.033.75.75 0 0 0-.044-.043m-1.23 1.5L12 6.904l-1.627-3.15Zm-4.531.797 2.06 3.992-2.945 5.715H3.318ZM3.32 15.754h4.116l-1.909 3.701z" style="color:#000;fill:currentColor;stroke-linecap:round;stroke-linejoin:round;-inkscape-stroke:none"/>
    <path d="M18.99 14.25c-2.115 0-3.883 1.506-4.51 3.527a.75.75 0 0 0 .495.94.75.75 0 0 0 .94-.494c.454-1.47 1.674-2.473 3.075-2.473 1.311 0 2.46.873 2.979 2.191a.75.75 0 0 0 .972.424.75.75 0 0 0 .422-.972c-.718-1.822-2.395-3.143-4.373-3.143" style="color:#000;fill:currentColor;stroke-linecap:round;stroke-linejoin:round;-inkscape-stroke:none"/>
    <path d="M23 14.8a.75.75 0 0 0-.75.75v1.471h-1.256a.75.75 0 0 0-.75.75.75.75 0 0 0 .75.75H22.4a1.36 1.36 0 0 0 1.35-1.35v-1.62a.75.75 0 0 0-.75-.75M23.025 19.283a.75.75 0 0 0-.94.494c-.454 1.47-1.674 2.473-3.075 2.473-1.311 0-2.46-.873-2.979-2.191a.75.75 0 0 0-.972-.424.75.75 0 0 0-.422.972c.718 1.822 2.395 3.143 4.373 3.143 2.115 0 3.883-1.506 4.51-3.527a.75.75 0 0 0-.495-.94" style="color:#000;fill:currentColor;stroke-linecap:round;stroke-linejoin:round;-inkscape-stroke:none"/>
    <path d="M15.6 19.479a1.36 1.36 0 0 0-1.35 1.35v1.62a.75.75 0 0 0 .75.75.75.75 0 0 0 .75-.75v-1.47h1.256a.75.75 0 0 0 .75-.75.75.75 0 0 0-.75-.75z" style="color:#000;fill:currentColor;stroke-linecap:round;stroke-linejoin:round;-inkscape-stroke:none"/>
</svg>
