<svg xmlns="http://www.w3.org/2000/svg" width="24" height="24" fill="none" stroke-width="1.5" viewBox="0 0 24 24">
    <path d="m14.857 2.25-5.714.004a.8.8 0 0 0-.264.11 1 1 0 0 0-.08-.026 1 1 0 0 0-.076.092.8.8 0 0 0-.166.175l-.059.016-7.143 12 .018.067a.8.8 0 0 0-.086.226 1 1 0 0 0-.037.09.8.8 0 0 0 .076.185.8.8 0 0 0 .03.2l3.576 5.996.058.015a.8.8 0 0 0 .219.2l.021.066a.8.8 0 0 0 .178.016.8.8 0 0 0 .166.068h6.43a.75.75 0 0 0 .75-.75.75.75 0 0 0-.75-.75H6.807l2.318-4.496H12.5a.75.75 0 0 0 .75-.75.75.75 0 0 0-.75-.75H9.898l2.104-4.078 1.377 2.668a.75.75 0 0 0 1.01.322.75.75 0 0 0 .322-1.01l-1.867-3.615 2.064-4.004 5.95 9.852a.75.75 0 0 0 1.03.254.75.75 0 0 0 .255-1.032l-6.643-11-.02-.004a.75.75 0 0 0-.279-.273.8.8 0 0 0-.283-.023 1 1 0 0 0-.06-.061m-1.23 1.5L12 6.904l-1.627-3.15Zm-4.531.797 2.06 3.992-2.945 5.715H3.318ZM3.32 15.754h4.116l-1.909 3.701z" style="color:#000;fill:currentColor;stroke-linecap:round;stroke-linejoin:round;-inkscape-stroke:none"/>
    <path d="M18 15.25a.75.75 0 0 0-.75.75v2a.75.75 0 0 0 .75.75.75.75 0 0 0 .75-.75v-2a.75.75 0 0 0-.75-.75M18.512 21.441a.75.75 0 0 0-1.059.055l-.01.012a.75.75 0 0 0 .055 1.058.75.75 0 0 0 1.059-.054l.01-.012a.75.75 0 0 0-.055-1.059" style="color:#000;fill:currentColor;stroke-linecap:round;stroke-linejoin:round;-inkscape-stroke:none"/>
</svg>
