<svg xmlns="http://www.w3.org/2000/svg" width="24" height="24" fill="none" stroke-width="1.5" viewBox="0 0 24 24">
    <path d="M13 2.25c-1.51 0-2.75 1.24-2.75 2.75v14c0 1.51 1.24 2.75 2.75 2.75s2.75-1.24 2.75-2.75V5c0-1.51-1.24-2.75-2.75-2.75m0 1.5c.7 0 1.25.55 1.25 1.25v14c0 .7-.55 1.25-1.25 1.25s-1.25-.55-1.25-1.25V5c0-.7.55-1.25 1.25-1.25" style="color:#000;fill:currentColor;stroke-linecap:round;stroke-linejoin:round;-inkscape-stroke:none"/>
    <path d="M13.088 2.236a2.74 2.74 0 0 0-1.965.748L6.23 7.627a2.763 2.763 0 0 0-.101 3.889 2.763 2.763 0 0 0 3.889.101l4.892-4.642a2.76 2.76 0 0 0 .102-3.887 2.744 2.744 0 0 0-1.924-.852m-.04 1.49c.32.009.635.14.876.393a1.24 1.24 0 0 1-.047 1.768l-4.893 4.642a1.24 1.24 0 0 1-1.767-.047 1.237 1.237 0 0 1 .047-1.765l4.892-4.645c.254-.24.575-.354.893-.345" style="color:#000;fill:currentColor;stroke-linecap:round;stroke-linejoin:round;-inkscape-stroke:none"/>
</svg>
