<svg xmlns="http://www.w3.org/2000/svg" width="24" height="24" fill="none" stroke-width="1.5" viewBox="0 0 24 24">
    <path d="m14.857 2.25-5.714.004a.75.75 0 0 0-.166.068.75.75 0 0 0-.178.016.75.75 0 0 0-.076.092.75.75 0 0 0-.166.175.75.75 0 0 0-.059.016l-7.143 12a.75.75 0 0 0 .018.067.75.75 0 0 0-.086.226.75.75 0 0 0-.037.09.75.75 0 0 0 .076.185.75.75 0 0 0 .03.2l3.576 5.996a.75.75 0 0 0 .058.015.75.75 0 0 0 .219.2.75.75 0 0 0 .021.066.75.75 0 0 0 .178.016.75.75 0 0 0 .166.068h12.858a.75.75 0 0 0 .09-.037.75.75 0 0 0 .199-.065.75.75 0 0 0 .054.018.75.75 0 0 0 .153-.121.75.75 0 0 0 .043-.033.75.75 0 0 0 .08-.112.75.75 0 0 0 .025-.017l3.569-5.996a.75.75 0 0 0 .017-.063.75.75 0 0 0 .07-.248.75.75 0 0 0 .016-.068.75.75 0 0 0 .002-.004.75.75 0 0 0-.01-.055.75.75 0 0 0-.027-.138.75.75 0 0 0-.05-.14.75.75 0 0 0 0-.003.75.75 0 0 0-.015-.037.75.75 0 0 0-.003-.01L15.502 2.617a.75.75 0 0 0-.027-.02.75.75 0 0 0-.274-.263.75.75 0 0 0-.09-.008.75.75 0 0 0-.21-.033.75.75 0 0 0-.044-.043m-1.23 1.5L12 6.906l-1.627-3.152Zm1.277.795 5.778 9.709h-4.889l-2.95-5.713Zm-5.808.002 2.06 3.994-2.945 5.713H3.318ZM12 10.176l2.105 4.078H9.898Zm-8.68 5.578h4.116l-1.909 3.701zm5.805 0h5.756l2.32 4.496H6.807Zm7.441 0h4.116l-2.203 3.701z" style="color:#000;fill:currentColor;stroke-linecap:round;stroke-linejoin:round;-inkscape-stroke:none"/>
</svg>
