<svg xmlns="http://www.w3.org/2000/svg" width="24" height="24" fill="none" stroke-width="1.5" viewBox="0 0 24 24">
    <path d="M11 1.25c-5.376 0-9.75 4.374-9.75 9.75s4.374 9.75 9.75 9.75c2.73 0 5.157-1.186 6.928-3H19.5c.975 0 1.75.775 1.75 1.75s-.775 1.75-1.75 1.75H17a.75.75 0 0 0-.75.75.75.75 0 0 0 .75.75h2.5a3.261 3.261 0 0 0 3.25-3.25 3.261 3.261 0 0 0-3.25-3.25h-.465c1.005-1.534 1.715-3.283 1.715-5.25 0-5.376-4.374-9.75-9.75-9.75m0 1.5A8.239 8.239 0 0 1 19.25 11c0 2.117-.793 4.04-2.1 5.5A8.222 8.222 0 0 1 11 19.25 8.239 8.239 0 0 1 2.75 11 8.239 8.239 0 0 1 11 2.75" style="color:#000;fill:currentColor;stroke-linecap:round;-inkscape-stroke:none"/>
    <path d="M10.97 10.25a.75.75 0 0 0-.517.246l-.01.012a.75.75 0 0 0 .055 1.058.75.75 0 0 0 1.059-.054l.01-.012a.75.75 0 0 0-.055-1.059.75.75 0 0 0-.541-.191M7.97 10.25a.75.75 0 0 0-.517.246l-.01.012a.75.75 0 0 0 .055 1.058.75.75 0 0 0 1.059-.054l.01-.012a.75.75 0 0 0-.055-1.059.75.75 0 0 0-.541-.191M13.97 10.25a.75.75 0 0 0-.517.246l-.01.012a.75.75 0 0 0 .055 1.058.75.75 0 0 0 1.059-.054l.01-.012a.75.75 0 0 0-.055-1.059.75.75 0 0 0-.541-.191" style="color:#000;fill:currentColor;stroke-linecap:round;stroke-linejoin:round;-inkscape-stroke:none"/>
</svg>
