<svg xmlns="http://www.w3.org/2000/svg" width="24" height="24" fill="none" stroke-width="1.5" viewBox="0 0 24 24">
    <path d="m10.896 3.463-8.658 4.33c-.952.476-.952 1.938 0 2.414l8.658 4.33c.38.19.828.19 1.208 0l8.658-4.33c.952-.476.952-1.938 0-2.414l-8.658-4.33c-.38-.19-.828-.19-1.208 0m.604 1.375L19.822 9 11.5 13.162 3.178 9Z" style="color:#000;fill:currentColor;stroke-linecap:round;stroke-linejoin:round;-inkscape-stroke:none"/>
    <path d="M20.264 7.79a.75.75 0 0 0-.434.374.75.75 0 0 0 .334 1.006l1.586.793V13a.75.75 0 0 0 .75.75.75.75 0 0 0 .75-.75V9.5a.75.75 0 0 0-.414-.67l-2-1a.75.75 0 0 0-.572-.04M4.5 9.75a.75.75 0 0 0-.75.75v5.412c0 1.06.613 2.03 1.57 2.484l5 2.374a2.753 2.753 0 0 0 2.36 0l5-2.374a2.754 2.754 0 0 0 1.57-2.484V10.5a.75.75 0 0 0-.75-.75.75.75 0 0 0-.75.75v5.412c0 .484-.275.921-.713 1.129a.75.75 0 0 0-.002 0l-4.998 2.375c-.339.161-.733.16-1.072 0h-.002l-4.998-2.375a.75.75 0 0 0-.002 0 1.245 1.245 0 0 1-.713-1.129V10.5a.75.75 0 0 0-.75-.75" style="color:#000;fill:currentColor;stroke-linecap:round;stroke-linejoin:round;-inkscape-stroke:none"/>
</svg>
