<svg xmlns="http://www.w3.org/2000/svg" width="24" height="24" fill="none" stroke-width="1.5" viewBox="0 0 24 24">
    <path d="M4 3.25a.75.75 0 0 0-.75.75v16a.75.75 0 0 0 .75.75h16a.75.75 0 0 0 .75-.75.75.75 0 0 0-.75-.75H4.75V4A.75.75 0 0 0 4 3.25" style="color:#000;fill:currentColor;stroke-linecap:round;stroke-linejoin:round;-inkscape-stroke:none"/>
    <path d="M19.5 6.75a.75.75 0 0 0-.531.219L15 10.937 12.531 8.47a.75.75 0 0 0-1.045-.016l-8 7.5a.75.75 0 0 0-.033 1.06.75.75 0 0 0 1.06.034l7.47-7.004 2.486 2.488a.75.75 0 0 0 1.062 0l4.5-4.5a.75.75 0 0 0 0-1.062.75.75 0 0 0-.531-.219" style="color:#000;fill:currentColor;stroke-linecap:round;stroke-linejoin:round;-inkscape-stroke:none"/>
</svg>
