<svg xmlns="http://www.w3.org/2000/svg" width="24" height="24" fill="none" stroke-width="1.5" viewBox="0 0 24 24">
    <path d="M4 3.25a.75.75 0 0 0-.75.75v16a.75.75 0 0 0 .75.75h16a.75.75 0 0 0 .75-.75.75.75 0 0 0-.75-.75H4.75V4A.75.75 0 0 0 4 3.25" style="color:#000;fill:currentColor;stroke-linecap:round;stroke-linejoin:round;-inkscape-stroke:none"/>
    <path d="M4 6.25a.75.75 0 0 0-.531.219.75.75 0 0 0 0 1.062l8 8a.75.75 0 0 0 1.062 0L15 13.062l3.969 3.97a.75.75 0 0 0 1.062 0 .75.75 0 0 0 0-1.063l-4.5-4.5a.75.75 0 0 0-1.062 0L12 13.938l-7.469-7.47A.75.75 0 0 0 4 6.25" style="color:#000;fill:currentColor;stroke-linecap:round;stroke-linejoin:round;-inkscape-stroke:none"/>
</svg>
