<svg xmlns="http://www.w3.org/2000/svg" width="24" height="24" fill="none" stroke-width="1.5" viewBox="0 0 24 24">
    <path d="M13.992 16.25a.75.75 0 0 0-.75.75.75.75 0 0 0 .75.75h6a.75.75 0 0 0 .75-.75.75.75 0 0 0-.75-.75h-3z" style="color:#000;fill:currentColor;stroke-linecap:round;stroke-linejoin:round;-inkscape-stroke:none"/>
    <path d="M4.6 3.25A1.36 1.36 0 0 0 3.25 4.6v4.8c0 .737.613 1.35 1.35 1.35h4.8a1.36 1.36 0 0 0 1.35-1.35V4.6A1.36 1.36 0 0 0 9.4 3.25Zm.15 1.5h4.5v4.5h-4.5zM4.6 13.25a1.36 1.36 0 0 0-1.35 1.35v4.8c0 .737.613 1.35 1.35 1.35h4.8a1.36 1.36 0 0 0 1.35-1.35v-4.8a1.36 1.36 0 0 0-1.35-1.35Zm.15 1.5h4.5v4.5h-4.5zM14.6 3.25a1.36 1.36 0 0 0-1.35 1.35v4.8c0 .737.613 1.35 1.35 1.35h4.8a1.36 1.36 0 0 0 1.35-1.35V4.6a1.36 1.36 0 0 0-1.35-1.35Zm.15 1.5h4.5v4.5h-4.5z" style="color:#000;fill:currentColor;-inkscape-stroke:none"/>
</svg>
