<svg xmlns="http://www.w3.org/2000/svg" width="24" height="24" fill="none" stroke-width="1.5" viewBox="0 0 24 24">
    <path d="M8 11.25C3.729 11.25.25 14.729.25 19v1a.75.75 0 0 0 .75.75.75.75 0 0 0 .75-.75v-1c0-3.46 2.79-6.25 6.25-6.25s6.25 2.79 6.25 6.25v1a.75.75 0 0 0 .75.75.75.75 0 0 0 .75-.75v-1c0-4.271-3.479-7.75-7.75-7.75" style="color:#000;fill:currentColor;stroke-linecap:round;-inkscape-stroke:none"/>
    <path d="M18 8.25A5.76 5.76 0 0 0 12.25 14a.75.75 0 0 0 .75.75.75.75 0 0 0 .75-.75A4.24 4.24 0 0 1 18 9.75 4.24 4.24 0 0 1 22.25 14v.5a.75.75 0 0 0 .75.75.75.75 0 0 0 .75-.75V14A5.76 5.76 0 0 0 18 8.25" style="color:#000;fill:currentColor;stroke-linecap:round;-inkscape-stroke:none"/>
    <path d="M8 3.25A4.76 4.76 0 0 0 3.25 8 4.76 4.76 0 0 0 8 12.75 4.76 4.76 0 0 0 12.75 8 4.76 4.76 0 0 0 8 3.25m0 1.5A3.24 3.24 0 0 1 11.25 8 3.24 3.24 0 0 1 8 11.25 3.24 3.24 0 0 1 4.75 8 3.24 3.24 0 0 1 8 4.75M18 2.25A3.76 3.76 0 0 0 14.25 6 3.76 3.76 0 0 0 18 9.75 3.76 3.76 0 0 0 21.75 6 3.76 3.76 0 0 0 18 2.25m0 1.5c1.252 0 2.25.998 2.25 2.25S19.252 8.25 18 8.25A2.24 2.24 0 0 1 15.75 6c0-1.252.998-2.25 2.25-2.25" style="color:#000;fill:currentColor;stroke-linecap:round;stroke-linejoin:round;-inkscape-stroke:none"/>
</svg>
