<svg xmlns="http://www.w3.org/2000/svg" width="24" height="24" fill="none" stroke-width="1.5" viewBox="0 0 24 24">
    <path d="M4.6 6.25A1.36 1.36 0 0 0 3.25 7.6v8.8c0 .737.613 1.35 1.35 1.35h2.8a1.36 1.36 0 0 0 1.35-1.35V7.6A1.36 1.36 0 0 0 7.4 6.25Zm.15 1.5h2.5v8.5h-2.5zM16.6 6.25a1.36 1.36 0 0 0-1.35 1.35v8.8c0 .737.613 1.35 1.35 1.35h2.8a1.36 1.36 0 0 0 1.35-1.35V7.6a1.36 1.36 0 0 0-1.35-1.35Zm.15 1.5h2.5v8.5h-2.5z" style="color:#000;fill:currentColor;stroke-linecap:round;stroke-linejoin:round;-inkscape-stroke:none"/>
    <path d="M1.6 8.25A1.36 1.36 0 0 0 .25 9.6v4.8c0 .737.613 1.35 1.35 1.35h1.8a1.36 1.36 0 0 0 1.35-1.35V9.6A1.36 1.36 0 0 0 3.4 8.25Zm.15 1.5h1.5v4.5h-1.5zM20.6 8.25a1.36 1.36 0 0 0-1.35 1.35v4.8c0 .737.613 1.35 1.35 1.35h1.8a1.36 1.36 0 0 0 1.35-1.35V9.6a1.36 1.36 0 0 0-1.35-1.35Zm.15 1.5h1.5v4.5h-1.5zM8 11.25a.75.75 0 0 0-.75.75.75.75 0 0 0 .75.75h8a.75.75 0 0 0 .75-.75.75.75 0 0 0-.75-.75Z" style="color:#000;fill:currentColor;stroke-linecap:round;stroke-linejoin:round;-inkscape-stroke:none"/>
</svg>
