<svg xmlns="http://www.w3.org/2000/svg" width="24" height="24" fill="none" stroke-width="1.5" viewBox="0 0 24 24">
    <path d="M10.926 1.303C5.495 1.842 1.25 6.434 1.25 12c0 5.928 4.822 10.75 10.75 10.75 5.193 0 9.539-3.693 10.535-8.602a.75.75 0 0 0-.586-.882.75.75 0 0 0-.885.586A9.246 9.246 0 0 1 12 21.25 9.24 9.24 0 0 1 2.75 12a9.244 9.244 0 0 1 8.324-9.205.75.75 0 0 0 .672-.82.75.75 0 0 0-.82-.672" style="color:#000;fill:currentColor;stroke-linecap:round;stroke-linejoin:round;-inkscape-stroke:none"/>
    <path d="M6.5 8.25c-.681 0-1.25.569-1.25 1.25s.569 1.25 1.25 1.25 1.25-.569 1.25-1.25-.569-1.25-1.25-1.25m0 1c.13 0 .25.12.25.25s-.12.25-.25.25-.25-.12-.25-.25.12-.25.25-.25M20.5 2.25c-.681 0-1.25.568-1.25 1.25s.569 1.25 1.25 1.25 1.25-.568 1.25-1.25-.569-1.25-1.25-1.25m0 1c.13 0 .25.12.25.25s-.12.25-.25.25-.25-.12-.25-.25.12-.25.25-.25M12 16.25c-.958 0-1.75.792-1.75 1.75s.792 1.75 1.75 1.75 1.75-.792 1.75-1.75-.792-1.75-1.75-1.75m0 1.5a.24.24 0 0 1 .25.25.24.24 0 0 1-.25.25.24.24 0 0 1-.25-.25.24.24 0 0 1 .25-.25M6.97 14.25a.75.75 0 0 0-.517.246l-.01.012a.75.75 0 0 0 .055 1.058.75.75 0 0 0 1.059-.054l.01-.012a.75.75 0 0 0-.055-1.059.75.75 0 0 0-.541-.191M16.97 14.25a.75.75 0 0 0-.517.246l-.01.012a.75.75 0 0 0 .055 1.058.75.75 0 0 0 1.059-.054l.01-.012a.75.75 0 0 0-.055-1.059.75.75 0 0 0-.541-.191M10.97 11.25a.75.75 0 0 0-.517.246l-.01.012a.75.75 0 0 0 .055 1.058.75.75 0 0 0 1.059-.054l.01-.012a.75.75 0 0 0-.055-1.059.75.75 0 0 0-.541-.191M20.97 8.25a.75.75 0 0 0-.517.248l-.01.01a.75.75 0 0 0 .055 1.06.75.75 0 0 0 1.059-.056l.011-.012a.75.75 0 0 0-.056-1.059.75.75 0 0 0-.541-.191M17.512 5.441a.75.75 0 0 0-1.059.057l-.01.01a.75.75 0 0 0 .055 1.06.75.75 0 0 0 1.059-.056l.011-.012a.75.75 0 0 0-.056-1.059M11.236 1.29a.75.75 0 0 0-.947.474c-.536 1.607.372 3.234 1.871 3.754-.694 1.666-.782 3.368.11 4.658.959 1.387 2.835 2.076 5.173 2.006.228 1.102.82 1.976 1.63 2.369.984.478 2.059.503 2.91.158a.75.75 0 0 0 .412-.977.75.75 0 0 0-.977-.414c-.349.142-1.124.16-1.69-.115s-.978-.703-.978-1.703a.75.75 0 0 0-.824-.746c-2.318.232-3.75-.454-4.424-1.43s-.704-2.374.228-3.94a.75.75 0 0 0-.644-1.134c-1.113 0-1.733-.94-1.375-2.014a.75.75 0 0 0-.475-.947" style="color:#000;fill:currentColor;stroke-linecap:round;stroke-linejoin:round;-inkscape-stroke:none"/>
</svg>
