<svg xmlns="http://www.w3.org/2000/svg" width="24" height="24" fill="none" stroke-width="1.5" viewBox="0 0 24 24">
    <path d="M10.633 10.305a.75.75 0 0 0-.53.22L1.618 19.01a.75.75 0 0 0 0 1.06l2.123 2.123a.75.75 0 0 0 1.06 0l8.485-8.486a.75.75 0 0 0 0-1.06.75.75 0 0 0-1.06 0L4.27 20.601 3.209 19.54l7.955-7.955a.75.75 0 0 0 0-1.06.75.75 0 0 0-.531-.221" style="color:#000;fill:currentColor;stroke-linecap:round;stroke-linejoin:round;-inkscape-stroke:none"/>
    <path d="M10.342 1.238a.75.75 0 0 0-.946.094l-1.06 1.06a.75.75 0 0 0 0 1.061c1.68 1.68 2.405 3.237 2.726 4.361.284.992.224 1.412.213 1.54l-1.171 1.171a.75.75 0 0 0 0 1.06l2.12 2.122a.75.75 0 0 0 1.061 0l1.238-1.238.354.353-.531.532a.75.75 0 0 0 0 1.06l2.474 2.475a.75.75 0 0 0 1.06 0l4.952-4.95a.75.75 0 0 0 0-1.06l-2.477-2.475a.75.75 0 0 0-1.06 0l-.53.53-.353-.354.53-.53a.75.75 0 0 0-.114-1.154Zm-.32 1.59 7.212 4.809-.414.414a.75.75 0 0 0 0 1.06l1.414 1.414a.75.75 0 0 0 1.06 0l.532-.53 1.414 1.413-3.888 3.89-1.414-1.413.529-.531a.75.75 0 0 0 0-1.061l-1.414-1.414a.75.75 0 0 0-1.06 0l-1.237 1.236-1.06-1.06.882-.883a.75.75 0 0 0 .215-.447s.097-.972-.29-2.323c-.342-1.201-1.18-2.778-2.642-4.414Z" style="color:#000;fill:currentColor;stroke-linecap:round;stroke-linejoin:round;-inkscape-stroke:none"/>
</svg>
