<svg xmlns="http://www.w3.org/2000/svg" width="24" height="24" fill="none" stroke-width="1.5" viewBox="0 0 24 24">
    <path d="M7.797 5.75c-1.356 0-2.65.58-3.55 1.594l-2.808 3.158a.75.75 0 0 0 .063 1.059.75.75 0 0 0 1.059-.063l2.806-3.156a3.25 3.25 0 0 1 2.43-1.092H8a.75.75 0 0 0 .75-.75.75.75 0 0 0-.75-.75ZM12.91 10.344c-.738-.124-1.562.022-2.326.531-2.013 1.341-3.961 2.477-3.961 2.477a.75.75 0 0 0-.271 1.025.75.75 0 0 0 1.025.271s1.98-1.153 4.039-2.525c.972-.647 1.708-.335 2.11.201s.51 1.287-.495 2.09c-1.17.937-1.95 1.465-1.95 1.465l-.03.021-3.801 2.85H2a.75.75 0 0 0-.75.75.75.75 0 0 0 .75.75h5.5a.75.75 0 0 0 .45-.15l3.97-2.979.03-.021c.023-.016.825-.56 2.019-1.514 1.496-1.197 1.604-3.03.756-4.16a2.85 2.85 0 0 0-1.815-1.082" style="color:#000;fill:currentColor;stroke-linecap:round;stroke-linejoin:round;-inkscape-stroke:none"/>
    <path d="M10 4.25C8.49 4.25 7.25 5.49 7.25 7v6.5h1.5V7c0-.7.55-1.25 1.25-1.25h10c.7 0 1.25.55 1.25 1.25v6c0 .7-.55 1.25-1.25 1.25h-6.5v1.5H20c1.51 0 2.75-1.24 2.75-2.75V7c0-1.51-1.24-2.75-2.75-2.75Z" style="color:#000;fill:currentColor;-inkscape-stroke:none"/>
    <path d="M18.014 7.29a.75.75 0 0 0-.475.946c.468 1.405.468 2.123 0 3.528a.75.75 0 0 0 .475.947.75.75 0 0 0 .947-.475c.532-1.595.532-2.877 0-4.472a.75.75 0 0 0-.947-.475M16.264 8.299a.75.75 0 0 0-.575.017.75.75 0 0 0-.373.995c.036.078.104.39.104.689 0 .3-.068.61-.104.69a.75.75 0 0 0 .373.994.75.75 0 0 0 .995-.373c.19-.422.236-.86.236-1.311s-.046-.89-.236-1.31a.75.75 0 0 0-.42-.391" style="color:#000;fill:currentColor;stroke-linecap:round;stroke-linejoin:round;-inkscape-stroke:none"/>
</svg>
