<svg xmlns="http://www.w3.org/2000/svg" width="24" height="24" fill="none" stroke-width="1.5" viewBox="0 0 24 24">
    <path d="M9.97 16.25a.75.75 0 0 0-.517.246l-.01.012a.75.75 0 0 0 .055 1.058.75.75 0 0 0 1.059-.054l.01-.012a.75.75 0 0 0-.055-1.059.75.75 0 0 0-.541-.191M5.97 16.25a.75.75 0 0 0-.517.246l-.01.012a.75.75 0 0 0 .055 1.058.75.75 0 0 0 1.059-.054l.01-.012a.75.75 0 0 0-.055-1.059.75.75 0 0 0-.541-.191" style="color:#000;fill:currentColor;stroke-linecap:round;stroke-linejoin:round;-inkscape-stroke:none"/>
    <path d="M5.447 2.25c-.593 0-1.122.395-1.293.963l-2.873 9.572L2 13h-.75v7.4c0 .737.613 1.35 1.35 1.35h18.8a1.36 1.36 0 0 0 1.35-1.35V13H22l.719-.215-2.873-9.572c-.17-.568-.7-.963-1.293-.963Zm.112 1.5H18.44l2.551 8.5H3.008Zm-2.809 10h18.5v6.5H2.75Z" style="color:#000;fill:currentColor;-inkscape-stroke:none"/>
</svg>
