<svg xmlns="http://www.w3.org/2000/svg" width="24" height="24" fill="none" stroke-width="1.5" viewBox="0 0 24 24">
    <path d="M10.162 2.268a.75.75 0 0 0-.894.57l-4 18a.75.75 0 0 0 .57.894.75.75 0 0 0 .894-.57l4-18a.75.75 0 0 0-.57-.894" style="color:#000;fill:currentColor;stroke-linecap:round;-inkscape-stroke:none"/>
    <path d="M2.5 15.25a.75.75 0 0 0-.75.75.75.75 0 0 0 .75.75h18a.75.75 0 0 0 .75-.75.75.75 0 0 0-.75-.75ZM4 6.25a.75.75 0 0 0-.75.75.75.75 0 0 0 .75.75h18a.75.75 0 0 0 .75-.75.75.75 0 0 0-.75-.75Z" style="color:#000;fill:currentColor;stroke-linecap:round;-inkscape-stroke:none"/>
    <path d="M18.162 2.268a.75.75 0 0 0-.894.57l-4 18a.75.75 0 0 0 .57.894.75.75 0 0 0 .894-.57l4-18a.75.75 0 0 0-.57-.894" style="color:#000;fill:currentColor;stroke-linecap:round;-inkscape-stroke:none"/>
</svg>
