<svg xmlns="http://www.w3.org/2000/svg" width="24" height="24" fill="none" stroke-width="1.5" viewBox="0 0 24 24">
    <path d="M14 7.25c-4.271 0-7.75 3.479-7.75 7.75v1.25H2a.75.75 0 0 0-.75.75.75.75 0 0 0 .75.75h19a.75.75 0 0 0 .75-.75v-2c0-4.271-3.479-7.75-7.75-7.75m0 1.5c3.46 0 6.25 2.79 6.25 6.25v1.25H7.75V15c0-3.46 2.79-6.25 6.25-6.25M13.97 5.25a.75.75 0 0 0-.517.248l-.01.01a.75.75 0 0 0 .055 1.06.75.75 0 0 0 1.059-.056l.011-.012a.75.75 0 0 0-.056-1.059.75.75 0 0 0-.541-.191" style="color:#000;fill:currentColor;stroke-linecap:round;stroke-linejoin:round;-inkscape-stroke:none"/>
</svg>
