<svg xmlns="http://www.w3.org/2000/svg" width="24" height="24" fill="none" stroke-width="1.5" viewBox="0 0 24 24">
    <path d="M12 2.25c-4.824 0-8.75 3.926-8.75 8.75a.75.75 0 0 0 .75.75.75.75 0 0 0 .75-.75A7.239 7.239 0 0 1 12 3.75 7.239 7.239 0 0 1 19.25 11a.75.75 0 0 0 .75.75.75.75 0 0 0 .75-.75c0-4.824-3.926-8.75-8.75-8.75" style="color:#000;fill:currentColor;stroke-linecap:round;stroke-linejoin:round;-inkscape-stroke:none"/>
    <path d="m5.072 10.459-1.738.436a2.758 2.758 0 0 0-2.084 2.668v1.874c0 1.259.864 2.363 2.084 2.668l1.738.436c.835.209 1.678-.448 1.678-1.309v-5.464c0-.86-.843-1.518-1.678-1.309m.178 1.502v5.078l-1.553-.389a1.244 1.244 0 0 1-.947-1.212v-1.876c0-.577.387-1.072.947-1.212zM18.928 10.459c-.835-.209-1.678.448-1.678 1.309v5.464c0 .86.843 1.518 1.678 1.309l1.74-.436a2.756 2.756 0 0 0 2.082-2.668v-1.874a2.756 2.756 0 0 0-2.082-2.668zm-.178 1.502 1.553.389c.56.14.947.635.947 1.213v1.874c0 .578-.387 1.073-.947 1.213l-1.553.39Z" style="color:#000;fill:currentColor;-inkscape-stroke:none"/>
    <path d="M19.25 18v.5c0 .7-.55 1.25-1.25 1.25h-3.5v1.5H18c1.51 0 2.75-1.24 2.75-2.75V18Z" style="color:#000;fill:currentColor;-inkscape-stroke:none"/>
    <path d="M10.5 18.25a2.261 2.261 0 0 0-2.25 2.25 2.261 2.261 0 0 0 2.25 2.25h3a2.261 2.261 0 0 0 2.25-2.25 2.261 2.261 0 0 0-2.25-2.25zm0 1.5h3c.423 0 .75.327.75.75s-.327.75-.75.75h-3a.739.739 0 0 1-.75-.75c0-.423.327-.75.75-.75" style="color:#000;fill:currentColor;-inkscape-stroke:none"/>
</svg>
