<svg xmlns="http://www.w3.org/2000/svg" width="24" height="24" fill="none" stroke-width="1.5" viewBox="0 0 24 24">
    <path d="M12 11.25a.75.75 0 0 0-.75.75v5a.75.75 0 0 0 .75.75.75.75 0 0 0 .75-.75v-5a.75.75 0 0 0-.75-.75M11.97 20.25a.75.75 0 0 0-.517.246l-.01.012a.75.75 0 0 0 .055 1.058.75.75 0 0 0 1.059-.054l.01-.012a.75.75 0 0 0-.055-1.059.75.75 0 0 0-.541-.191" style="color:#000;fill:currentColor;stroke-linecap:round;stroke-linejoin:round;-inkscape-stroke:none"/>
    <path d="M12 3.25c-4.874 0-8.75 4.42-8.75 9.75v.5a.75.75 0 0 0 .75.75.75.75 0 0 0 .75-.75V13c0-4.61 3.288-8.25 7.25-8.25s7.25 3.64 7.25 8.25v.5a.75.75 0 0 0 .75.75.75.75 0 0 0 .75-.75V13c0-5.33-3.876-9.75-8.75-9.75" style="color:#000;fill:currentColor;stroke-linecap:round;stroke-linejoin:round;-inkscape-stroke:none"/>
    <path d="m5.072 12.459-1.254.312-.486.124a2.758 2.758 0 0 0-2.082 2.668v1.876c0 1.258.864 2.361 2.084 2.666l1.738.436c.835.208 1.678-.448 1.678-1.309v-5.464c0-.86-.843-1.517-1.678-1.309m.178 1.502v5.078l-1.553-.389a1.242 1.242 0 0 1-.947-1.21v-1.878c0-.577.387-1.072.947-1.212l.485-.121zM18.928 12.459c-.835-.208-1.678.448-1.678 1.309v5.464c0 .86.843 1.517 1.678 1.309l1.74-.436a2.754 2.754 0 0 0 2.082-2.666v-1.876a2.756 2.756 0 0 0-2.082-2.668l-.486-.124Zm-.178 1.502 1.068.268.485.12c.56.14.947.636.947 1.213v1.877c0 .578-.387 1.071-.947 1.211l-1.553.39Z" style="color:#000;fill:currentColor;stroke-linecap:round;stroke-linejoin:round;-inkscape-stroke:none"/>
</svg>
