<svg xmlns="http://www.w3.org/2000/svg" width="24" height="24" fill="none" stroke-width="1.5" viewBox="0 0 24 24">
    <path d="M16.305 2.25c-1.612 0-3.127.669-4.307 1.771-2.527-2.354-6.456-2.327-8.885.19-2.485 2.576-2.485 6.727 0 9.303l1.825 1.89a.75.75 0 0 0 1.06.02.75.75 0 0 0 .02-1.06l-1.825-1.891c-1.925-1.996-1.925-5.226 0-7.221 1.944-2.015 5.058-2.015 7.002 0l.266.275a.75.75 0 0 0 1.078 0l.266-.275a4.857 4.857 0 0 1 3.5-1.502c1.313 0 2.572.538 3.502 1.502a5.2 5.2 0 0 1 1.443 3.61c0 1.354-.52 2.654-1.443 3.61-.607.629-1.209 1.263-1.807 1.897a.75.75 0 0 0 .031 1.06.75.75 0 0 0 1.06-.03c.598-.633 1.194-1.263 1.794-1.885A6.7 6.7 0 0 0 22.75 8.86c0-1.738-.667-3.409-1.865-4.65a6.366 6.366 0 0 0-4.58-1.961" style="color:#000;fill:currentColor;stroke-linecap:round;stroke-linejoin:round;-inkscape-stroke:none"/>
    <path d="M12 10.25a.75.75 0 0 0-.75.75v10.5a.75.75 0 0 0 .75.75.75.75 0 0 0 .75-.75V11a.75.75 0 0 0-.75-.75" style="color:#000;fill:currentColor;stroke-linecap:round;stroke-linejoin:round;-inkscape-stroke:none"/>
    <path d="M8 16.75a.75.75 0 0 0-.531.219.75.75 0 0 0 0 1.062l4 4a.75.75 0 0 0 1.062 0l4-4a.75.75 0 0 0 0-1.062.75.75 0 0 0-1.062 0L12 20.437 8.531 16.97A.75.75 0 0 0 8 16.75" style="color:#000;fill:currentColor;stroke-linecap:round;stroke-linejoin:round;-inkscape-stroke:none"/>
</svg>
