<svg xmlns="http://www.w3.org/2000/svg" width="24" height="24" fill="none" stroke-width="1.5" viewBox="0 0 24 24">
    <path d="M3.6 2.25A1.36 1.36 0 0 0 2.25 3.6v16.8c0 .737.613 1.35 1.35 1.35h16.8a1.36 1.36 0 0 0 1.35-1.35V3.6a1.36 1.36 0 0 0-1.35-1.35Zm.15 1.5h16.5v16.5H3.75Z" style="color:#000;fill:currentColor;stroke-linecap:round;stroke-linejoin:round;-inkscape-stroke:none"/>
    <path d="M7.932 5.254a.75.75 0 0 0-.508.266s-.726.863-1.084 2.154c-.359 1.29-.324 3.118 1.084 4.806 1.092 1.312 1.057 2.484.79 3.444-.266.96-.79 1.596-.79 1.596a.75.75 0 0 0 .096 1.056.75.75 0 0 0 1.056-.096s.726-.863 1.084-2.154c.359-1.29.324-3.118-1.084-4.806-1.092-1.312-1.057-2.484-.79-3.444.266-.96.79-1.596.79-1.596a.75.75 0 0 0-.096-1.056.75.75 0 0 0-.548-.17M11.932 5.254a.75.75 0 0 0-.508.266s-.726.863-1.084 2.154c-.359 1.29-.324 3.118 1.084 4.806 1.092 1.312 1.057 2.484.79 3.444-.266.96-.79 1.596-.79 1.596a.75.75 0 0 0 .096 1.056.75.75 0 0 0 1.056-.096s.726-.863 1.084-2.154c.359-1.29.324-3.118-1.084-4.806-1.092-1.312-1.057-2.484-.79-3.444.266-.96.79-1.596.79-1.596a.75.75 0 0 0-.096-1.056.75.75 0 0 0-.548-.17M15.932 5.254a.75.75 0 0 0-.508.266s-.726.863-1.084 2.154c-.359 1.29-.324 3.118 1.084 4.806 1.092 1.312 1.057 2.484.79 3.444-.266.96-.79 1.596-.79 1.596a.75.75 0 0 0 .096 1.056.75.75 0 0 0 1.056-.096s.726-.863 1.084-2.154c.359-1.29.324-3.118-1.084-4.806-1.092-1.312-1.057-2.484-.79-3.444.266-.96.79-1.596.79-1.596a.75.75 0 0 0-.096-1.056.75.75 0 0 0-.548-.17" style="color:#000;fill:currentColor;stroke-linecap:round;stroke-linejoin:round;-inkscape-stroke:none"/>
</svg>
