<svg xmlns="http://www.w3.org/2000/svg" width="24" height="24" fill="none" stroke-width="1.5" viewBox="0 0 24 24">
    <path d="M11.75 5.625c-.847 0-1.703.263-2.375.834C8.703 7.029 8.25 7.929 8.25 9a.75.75 0 0 0 .75.75.75.75 0 0 0 .75-.75c0-.679.235-1.092.594-1.396.359-.305.878-.479 1.406-.479.528 0 1.047.174 1.406.479.36.304.594.717.594 1.396 0 1-.356 1.175-1.002 1.756-.645.58-1.498 1.536-1.498 3.244a.75.75 0 0 0 .75.75.75.75 0 0 0 .75-.75c0-1.292.397-1.587 1.002-2.13.604-.545 1.498-1.37 1.498-2.87 0-1.071-.453-1.97-1.125-2.541-.672-.57-1.528-.834-2.375-.834M11.97 17.25a.75.75 0 0 0-.517.246l-.01.012a.75.75 0 0 0 .055 1.058.75.75 0 0 0 1.059-.054l.01-.012a.75.75 0 0 0-.055-1.059.75.75 0 0 0-.541-.191" style="color:#000;fill:currentColor;stroke-linecap:round;stroke-linejoin:round;-inkscape-stroke:none"/>
    <path d="M3.6 2.25A1.36 1.36 0 0 0 2.25 3.6v16.8c0 .737.613 1.35 1.35 1.35h16.8a1.36 1.36 0 0 0 1.35-1.35V3.6a1.36 1.36 0 0 0-1.35-1.35Zm.15 1.5h16.5v16.5H3.75Z" style="color:#000;fill:currentColor;-inkscape-stroke:none"/>
</svg>
