<svg xmlns="http://www.w3.org/2000/svg" width="24" height="24" fill="none" stroke-width="1.5" viewBox="0 0 24 24">
    <path d="m11.414.95-8.08 3.89c-.37.178-.64.516-.73.916L.609 14.5c-.09.4.004.82.26 1.14l5.592 7.012c.256.32.644.508 1.055.508h8.968c.41 0 .8-.187 1.055-.508l5.592-7.011c.256-.321.35-.741.26-1.141l-1.995-8.744c-.09-.4-.36-.738-.73-.916L12.586.95a1.352 1.352 0 0 0-1.172 0M12 2.331l7.95 3.828 1.962 8.602-5.5 6.898H7.588l-5.502-6.9 1.965-8.6Z" style="color:#000;fill:currentColor;stroke-linecap:round;stroke-linejoin:round;-inkscape-stroke:none"/>
</svg>
