<svg xmlns="http://www.w3.org/2000/svg" width="24" height="24" fill="none" stroke-width="1.5" viewBox="0 0 24 24">
    <path d="M11.324.523 2.398 5.678a1.35 1.35 0 0 0-.673 1.168v10.308c0 .481.257.928.673 1.168l8.926 5.155c.417.24.935.24 1.352 0l8.926-5.155a1.35 1.35 0 0 0 .673-1.168V6.846a1.35 1.35 0 0 0-.673-1.168L12.676.523a1.36 1.36 0 0 0-1.352 0M12 1.865l8.775 5.067v10.136L12 22.135l-8.775-5.067V6.932Z" style="color:#000;fill:currentColor;stroke-linecap:round;stroke-linejoin:round;-inkscape-stroke:none"/>
    <path d="M12 6.25a.75.75 0 0 0-.637.352l-5 8A.75.75 0 0 0 7 15.75h10a.75.75 0 0 0 .637-1.148l-5-8A.75.75 0 0 0 12 6.25m0 2.168 3.645 5.832h-7.29Z" style="color:#000;fill:currentColor;stroke-linecap:round;stroke-linejoin:round;-inkscape-stroke:none"/>
    <path d="m2.54 5.752-.08 1.496 9.5.5.08-1.496z" style="color:#000;fill:currentColor;stroke-linejoin:round;-inkscape-stroke:none"/>
    <path d="m3.162 6.148-1.324.704 4.5 8.5 1.324-.704zM20.838 6.148l-4.5 8.5 1.324.704 4.5-8.5z" style="color:#000;fill:currentColor;stroke-linejoin:round;-inkscape-stroke:none"/>
    <path d="M11.25 1v6a.75.75 0 0 0 .79.748l9.5-.5-.08-1.496-8.71.459V1ZM17.363 14.344l-.726 1.312 4.5 2.5.726-1.312zM6.637 14.344l-4.5 2.5.726 1.312 4.5-2.5z" style="color:#000;fill:currentColor;stroke-linejoin:round;-inkscape-stroke:none"/>
    <path d="m7.637 14.602-1.274.796 5 8a.75.75 0 0 0 1.274 0l5-8-1.274-.796L12 21.582Z" style="color:#000;fill:currentColor;stroke-linejoin:round;-inkscape-stroke:none"/>
</svg>
