<svg xmlns="http://www.w3.org/2000/svg" width="24" height="24" fill="none" stroke-width="1.5" viewBox="0 0 24 24">
    <path d="M4.6 1.25A1.36 1.36 0 0 0 3.25 2.6v12.927a4.755 4.755 0 0 0 2.625 4.25l5.521 2.76c.38.19.828.19 1.208 0l5.521-2.76a4.755 4.755 0 0 0 2.625-4.25V2.6a1.36 1.36 0 0 0-1.35-1.35Zm.15 1.5h14.5v12.777a3.249 3.249 0 0 1-1.797 2.909L12 21.162l-5.453-2.726a3.249 3.249 0 0 1-1.797-2.909Z" style="color:#000;fill:currentColor;stroke-linecap:round;stroke-linejoin:round;-inkscape-stroke:none"/>
</svg>
