<svg xmlns="http://www.w3.org/2000/svg" width="24" height="24" fill="none" stroke-width="1.5" viewBox="0 0 24 24">
    <path d="m11.61 3.36-9 5.5a.75.75 0 0 0-.25 1.03.75.75 0 0 0 1.03.25L12 4.88l8.61 5.262a.75.75 0 0 0 1.03-.25.75.75 0 0 0-.25-1.032l-9-5.5a.75.75 0 0 0-.78 0M5 12.25a.75.75 0 0 0-.75.75v6.4c0 .737.613 1.35 1.35 1.35h12.8a1.36 1.36 0 0 0 1.35-1.35V13a.75.75 0 0 0-.75-.75.75.75 0 0 0-.75.75v6.25H5.75V13a.75.75 0 0 0-.75-.75" style="color:#000;fill:currentColor;stroke-linecap:round;stroke-linejoin:round;-inkscape-stroke:none"/>
    <path d="M10.334 8.25a.75.75 0 0 0-.75.75v1.584H8a.75.75 0 0 0-.75.75v3.332a.75.75 0 0 0 .75.75h1.584V17a.75.75 0 0 0 .75.75h3.332a.75.75 0 0 0 .75-.75v-1.584H16a.75.75 0 0 0 .75-.75v-3.332a.75.75 0 0 0-.75-.75h-1.584V9a.75.75 0 0 0-.75-.75zm.75 1.5h1.832v1.584a.75.75 0 0 0 .75.75h1.584v1.832h-1.584a.75.75 0 0 0-.75.75v1.584h-1.832v-1.584a.75.75 0 0 0-.75-.75H8.75v-1.832h1.584a.75.75 0 0 0 .75-.75z" style="color:#000;fill:currentColor;stroke-linecap:round;stroke-linejoin:round;-inkscape-stroke:none"/>
</svg>
