<svg xmlns="http://www.w3.org/2000/svg" width="24" height="24" fill="none" stroke-width="1.5" viewBox="0 0 24 24">
    <path d="M11.756 8.367c-.507.025-1.032.155-1.465.508s-.707.944-.707 1.586c0 .71.454 1.313.941 1.6.488.286 1.001.398 1.46.513.458.116.862.234 1.062.352s.203.091.203.304c0 .259-.064.35-.207.465s-.409.222-.734.25c-.652.058-1.458-.241-1.727-.572a.75.75 0 0 0-1.055-.11.75.75 0 0 0-.109 1.055c.731.9 1.925 1.218 3.023 1.121.55-.048 1.097-.213 1.547-.578.45-.364.762-.966.762-1.63 0-.71-.456-1.312-.943-1.598-.488-.286-1-.398-1.457-.514-.459-.115-.865-.234-1.065-.351-.2-.118-.201-.094-.201-.307 0-.281.056-.342.154-.422s.305-.16.59-.174c.57-.027 1.378.267 1.664.531a.75.75 0 0 0 1.059-.04.75.75 0 0 0-.043-1.061c-.714-.659-1.739-.977-2.752-.928" style="color:#000;fill:currentColor;stroke-linecap:round;stroke-linejoin:round;-inkscape-stroke:none"/>
    <path d="M12 13.951a.75.75 0 0 0-.75.75V16a.75.75 0 0 0 .75.75.75.75 0 0 0 .75-.75v-1.299a.75.75 0 0 0-.75-.75M12 7.25a.75.75 0 0 0-.75.75v1.113a.75.75 0 0 0 .75.75.75.75 0 0 0 .75-.75V8a.75.75 0 0 0-.75-.75" style="color:#000;fill:currentColor;stroke-linecap:round;stroke-linejoin:round;-inkscape-stroke:none"/>
    <path d="M11.396 2.463 1.664 7.33a.75.75 0 0 0-.334 1.006.75.75 0 0 0 1.006.334L12 3.838l9.664 4.832a.75.75 0 0 0 1.006-.334.75.75 0 0 0-.334-1.006l-9.732-4.867a1.35 1.35 0 0 0-1.208 0M4 10.25a.75.75 0 0 0-.75.75v8c0 1.51 1.24 2.75 2.75 2.75h12c1.51 0 2.75-1.24 2.75-2.75v-8a.75.75 0 0 0-.75-.75.75.75 0 0 0-.75.75v8c0 .7-.55 1.25-1.25 1.25H6c-.7 0-1.25-.55-1.25-1.25v-8a.75.75 0 0 0-.75-.75" style="color:#000;fill:currentColor;stroke-linecap:round;stroke-linejoin:round;-inkscape-stroke:none"/>
</svg>
