<svg xmlns="http://www.w3.org/2000/svg" width="24" height="24" fill="none" stroke-width="1.5" viewBox="0 0 24 24">
    <path d="m11.625 3.352-9.5 5.5a.75.75 0 0 0-.273 1.023.75.75 0 0 0 1.023.273L12 4.868l9.125 5.28a.75.75 0 0 0 1.023-.273.75.75 0 0 0-.273-1.023l-9.5-5.5a.75.75 0 0 0-.75 0" style="color:#000;fill:currentColor;stroke-linecap:round;stroke-linejoin:round;-inkscape-stroke:none"/>
    <path d="M12 14.25A5.761 5.761 0 0 0 6.25 20v1h1.5v-1A4.239 4.239 0 0 1 12 15.75 4.239 4.239 0 0 1 16.25 20v1h1.5v-1A5.761 5.761 0 0 0 12 14.25" style="color:#000;fill:currentColor;-inkscape-stroke:none"/>
    <path d="M12 8.25A3.761 3.761 0 0 0 8.25 12 3.761 3.761 0 0 0 12 15.75 3.761 3.761 0 0 0 15.75 12 3.761 3.761 0 0 0 12 8.25m0 1.5c1.252 0 2.25.998 2.25 2.25s-.998 2.25-2.25 2.25A2.239 2.239 0 0 1 9.75 12c0-1.252.998-2.25 2.25-2.25" style="color:#000;fill:currentColor;stroke-linecap:round;stroke-linejoin:round;-inkscape-stroke:none"/>
</svg>
