<svg xmlns="http://www.w3.org/2000/svg" width="24" height="24" fill="none" stroke-width="1.5" viewBox="0 0 24 24">
    <path d="M12 2.928a4.75 4.75 0 0 0-2.463.687l-5 3.03a4.752 4.752 0 0 0-2.287 4.062V17A4.761 4.761 0 0 0 7 21.75h10A4.761 4.761 0 0 0 21.75 17v-6.293c0-1.66-.868-3.202-2.287-4.062l-5-3.03A4.75 4.75 0 0 0 12 2.928m0 1.498c.583 0 1.165.158 1.684.472l5 3.03a3.248 3.248 0 0 1 1.566 2.779V17A3.239 3.239 0 0 1 17 20.25h-1.25V17A3.761 3.761 0 0 0 12 13.25 3.761 3.761 0 0 0 8.25 17v3.25H7A3.239 3.239 0 0 1 3.75 17v-6.293c0-1.138.594-2.19 1.566-2.78l5-3.029A3.246 3.246 0 0 1 12 4.426m0 10.324c1.252 0 2.25.998 2.25 2.25v3.25h-4.5V17c0-1.252.998-2.25 2.25-2.25" style="color:#000;fill:currentColor;stroke-linecap:round;stroke-linejoin:round;-inkscape-stroke:none"/>
</svg>
