<svg xmlns="http://www.w3.org/2000/svg" width="24" height="24" fill="none" stroke-width="1.5" viewBox="0 0 24 24">
    <path d="M12 7.25c-1.008 0-1.789.48-2.209 1.063A2.878 2.878 0 0 0 9.25 10v1.396c-.55.171-1 .602-1 1.204v2.8c0 .737.613 1.35 1.35 1.35h4.8a1.36 1.36 0 0 0 1.35-1.35v-2.8c0-.602-.45-1.033-1-1.204V10c0-.483-.121-1.104-.541-1.687-.42-.584-1.2-1.063-2.209-1.063m0 1.5c.592 0 .812.188.992.438.18.25.258.629.258.812v1.25h-2.5V10c0-.183.078-.563.258-.812.18-.25.4-.438.992-.438m-2.25 4h4.5v2.5h-4.5z" style="color:#000;fill:currentColor;stroke-linecap:round;stroke-linejoin:round;-inkscape-stroke:none"/>
    <path d="M11.396 2.463 1.664 7.33a.75.75 0 0 0-.334 1.006.75.75 0 0 0 1.006.334L12 3.838l9.664 4.832a.75.75 0 0 0 1.006-.334.75.75 0 0 0-.334-1.006l-9.732-4.867a1.35 1.35 0 0 0-1.208 0M4 10.25a.75.75 0 0 0-.75.75v8c0 1.51 1.24 2.75 2.75 2.75h12c1.51 0 2.75-1.24 2.75-2.75v-8a.75.75 0 0 0-.75-.75.75.75 0 0 0-.75.75v8c0 .7-.55 1.25-1.25 1.25H6c-.7 0-1.25-.55-1.25-1.25v-8a.75.75 0 0 0-.75-.75" style="color:#000;fill:currentColor;stroke-linecap:round;stroke-linejoin:round;-inkscape-stroke:none"/>
</svg>
