<svg xmlns="http://www.w3.org/2000/svg" width="24" height="24" fill="none" stroke-width="1.5" viewBox="0 0 24 24">
    <path d="M4.646 2.484a1.35 1.35 0 0 0-1.351.084l-1.211.807a.75.75 0 0 0-.209 1.041.75.75 0 0 0 1.041.209l1.139-.76 9.61 4.805a.75.75 0 0 0 1.005-.334.75.75 0 0 0-.334-1.006ZM12 10.25a.75.75 0 0 0-.75.75v8c0 .7-.55 1.25-1.25 1.25H7.75V15.6a1.36 1.36 0 0 0-1.35-1.35H3.6a1.36 1.36 0 0 0-1.35 1.35v4.8c0 .737.613 1.35 1.35 1.35H10c1.51 0 2.75-1.24 2.75-2.75v-8a.75.75 0 0 0-.75-.75m-8.25 5.5h2.5v4.5h-2.5zM19 13.25c-1.51 0-2.75 1.24-2.75 2.75s1.24 2.75 2.75 2.75 2.75-1.24 2.75-2.75-1.24-2.75-2.75-2.75m0 1.5c.7 0 1.25.55 1.25 1.25s-.55 1.25-1.25 1.25-1.25-.55-1.25-1.25.55-1.25 1.25-1.25" style="color:#000;fill:currentColor;stroke-linecap:round;stroke-linejoin:round;-inkscape-stroke:none"/>
    <path d="M19 6.75a.75.75 0 0 0-.75.75V14a.75.75 0 0 0 .75.75.75.75 0 0 0 .75-.75V7.5a.75.75 0 0 0-.75-.75" style="color:#000;fill:currentColor;stroke-linecap:round;stroke-linejoin:round;-inkscape-stroke:none"/>
    <path d="M19 11.25a.75.75 0 0 0-.75.75.75.75 0 0 0 .75.75h2a.75.75 0 0 0 .75-.75.75.75 0 0 0-.75-.75ZM19 8.25a.75.75 0 0 0-.75.75.75.75 0 0 0 .75.75h2a.75.75 0 0 0 .75-.75.75.75 0 0 0-.75-.75Z" style="color:#000;fill:currentColor;stroke-linecap:round;stroke-linejoin:round;-inkscape-stroke:none"/>
</svg>
