<svg xmlns="http://www.w3.org/2000/svg" width="24" height="24" fill="none" stroke-width="1.5" viewBox="0 0 24 24">
    <path d="M19 3.25a.75.75 0 0 0-.75.75v2.25H13.6a1.36 1.36 0 0 0-1.35 1.35v8.8c0 .737.613 1.35 1.35 1.35h4.65V20a.75.75 0 0 0 .75.75.75.75 0 0 0 .75-.75V4a.75.75 0 0 0-.75-.75m-5.25 4.5h4.5v8.5h-4.5zM9 3.25a.75.75 0 0 0-.75.75v2.25H5.6A1.36 1.36 0 0 0 4.25 7.6v8.8c0 .737.613 1.35 1.35 1.35h2.65V20a.75.75 0 0 0 .75.75.75.75 0 0 0 .75-.75V4A.75.75 0 0 0 9 3.25m-3.25 4.5h2.5v8.5h-2.5z" style="color:#000;fill:currentColor;stroke-linecap:round;stroke-linejoin:round;-inkscape-stroke:none"/>
</svg>
