<svg xmlns="http://www.w3.org/2000/svg" width="24" height="24" fill="none" stroke-width="1.5" viewBox="0 0 24 24">
    <path d="M17.5 7.75a.75.75 0 0 0-.531.219l-3.5 3.5a.75.75 0 0 0-.219.531.75.75 0 0 0 .219.531l3.5 3.5a.75.75 0 0 0 1.062 0 .75.75 0 0 0 0-1.062l-2.218-2.219H22a.75.75 0 0 0 .75-.75.75.75 0 0 0-.75-.75h-6.187l2.218-2.219a.75.75 0 0 0 0-1.062.75.75 0 0 0-.531-.219M6.5 7.75a.75.75 0 0 0-.531.219.75.75 0 0 0 0 1.062l2.218 2.219H2a.75.75 0 0 0-.75.75.75.75 0 0 0 .75.75h6.188l-2.22 2.219a.75.75 0 0 0 0 1.062.75.75 0 0 0 1.063 0l3.5-3.5a.75.75 0 0 0 .194-.469L10.75 12a1 1 0 0 0-.025-.129 1 1 0 0 0-.02-.098.75.75 0 0 0-.174-.304l-3.5-3.5A.75.75 0 0 0 6.5 7.75" style="color:#000;fill:currentColor;stroke-linecap:round;stroke-linejoin:round;-inkscape-stroke:none"/>
    <path d="M10 2.25a.75.75 0 0 0-.75.75v18a.75.75 0 0 0 .75.75.75.75 0 0 0 .75-.75V3a.75.75 0 0 0-.75-.75M14 2.25a.75.75 0 0 0-.75.75v18a.75.75 0 0 0 .75.75.75.75 0 0 0 .75-.75V3a.75.75 0 0 0-.75-.75" style="color:#000;fill:currentColor;stroke-linecap:round;stroke-linejoin:round;-inkscape-stroke:none"/>
</svg>
