<svg xmlns="http://www.w3.org/2000/svg" width="24" height="24" fill="none" stroke-width="1.5" viewBox="0 0 24 24">
    <path d="M5 3.25a.75.75 0 0 0-.75.75v16a.75.75 0 0 0 .75.75.75.75 0 0 0 .75-.75v-2.25h4.65a1.36 1.36 0 0 0 1.35-1.35V7.6a1.36 1.36 0 0 0-1.35-1.35H5.75V4A.75.75 0 0 0 5 3.25m.75 4.5h4.5v8.5h-4.5zM15 3.25a.75.75 0 0 0-.75.75v16a.75.75 0 0 0 .75.75.75.75 0 0 0 .75-.75v-2.25h2.65a1.36 1.36 0 0 0 1.35-1.35V7.6a1.36 1.36 0 0 0-1.35-1.35h-2.65V4a.75.75 0 0 0-.75-.75m.75 4.5h2.5v8.5h-2.5z" style="color:#000;fill:currentColor;stroke-linecap:round;stroke-linejoin:round;-inkscape-stroke:none"/>
</svg>
