<svg xmlns="http://www.w3.org/2000/svg" width="24" height="24" fill="none" stroke-width="1.5" viewBox="0 0 24 24">
    <path d="M7.6 2.25A1.36 1.36 0 0 0 6.25 3.6v3.65H4.6A1.36 1.36 0 0 0 3.25 8.6v11.8c0 .737.613 1.35 1.35 1.35h14.8a1.36 1.36 0 0 0 1.35-1.35V8.6a1.36 1.36 0 0 0-1.35-1.35h-1.65V3.6a1.36 1.36 0 0 0-1.35-1.35Zm.15 1.5h8.5V7.4c0 .737.613 1.35 1.35 1.35h1.65v11.5H4.75V8.75H6.4A1.36 1.36 0 0 0 7.75 7.4Z" style="color:#000;fill:currentColor;-inkscape-stroke:none"/>
    <path d="M11.992 5.25a.75.75 0 0 0-.75.75v1.25h-1.25a.75.75 0 0 0-.75.75.75.75 0 0 0 .75.75h1.25V10a.75.75 0 0 0 .75.75.75.75 0 0 0 .75-.75V8.75h1.25a.75.75 0 0 0 .75-.75.75.75 0 0 0-.75-.75h-1.25V6a.75.75 0 0 0-.75-.75M16.512 16.441a.75.75 0 0 0-1.059.055l-.01.012a.75.75 0 0 0 .055 1.058.75.75 0 0 0 1.059-.054l.01-.012a.75.75 0 0 0-.055-1.059M16.512 12.441a.75.75 0 0 0-1.059.055l-.01.012a.75.75 0 0 0 .055 1.058.75.75 0 0 0 1.059-.054l.01-.012a.75.75 0 0 0-.055-1.059M11.97 12.25a.75.75 0 0 0-.517.246l-.01.012a.75.75 0 0 0 .055 1.058.75.75 0 0 0 1.059-.054l.01-.012a.75.75 0 0 0-.055-1.059.75.75 0 0 0-.541-.191M7.97 12.25a.75.75 0 0 0-.517.246l-.01.012a.75.75 0 0 0 .055 1.058.75.75 0 0 0 1.059-.054l.01-.012a.75.75 0 0 0-.055-1.059.75.75 0 0 0-.541-.191M7.97 16.25a.75.75 0 0 0-.517.246l-.01.012a.75.75 0 0 0 .055 1.058.75.75 0 0 0 1.059-.054l.01-.012a.75.75 0 0 0-.055-1.059.75.75 0 0 0-.541-.191M11.97 16.25a.75.75 0 0 0-.517.246l-.01.012a.75.75 0 0 0 .055 1.058.75.75 0 0 0 1.059-.054l.01-.012a.75.75 0 0 0-.055-1.059.75.75 0 0 0-.541-.191" style="color:#000;fill:currentColor;stroke-linecap:round;stroke-linejoin:round;-inkscape-stroke:none"/>
</svg>
