<svg xmlns="http://www.w3.org/2000/svg" width="24" height="24" fill="none" stroke-width="1.5" viewBox="0 0 24 24">
    <path d="M12 .75C7.194.75 3.25 4.537 3.25 9.5c0 2.598 1.577 4.745 3.076 6.244 1.5 1.5 3.002 2.399 3.002 2.399a.75.75 0 0 0 .387.107h4.57a.75.75 0 0 0 .387-.107s1.503-.9 3.002-2.399c1.5-1.5 3.076-3.646 3.076-6.244 0-4.963-3.944-8.75-8.75-8.75m0 1.5c4.03 0 7.25 3.07 7.25 7.25 0 1.973-1.279 3.826-2.637 5.184-1.29 1.29-2.453 1.99-2.578 2.066h-4.07c-.125-.076-1.288-.776-2.578-2.066C6.029 13.326 4.75 11.474 4.75 9.5c0-4.18 3.22-7.25 7.25-7.25" style="color:#000;fill:currentColor;stroke-linecap:round;stroke-linejoin:round;stroke-miterlimit:1.5;-inkscape-stroke:none"/>
    <path d="M8.33 1.664C6.7 4.924 6.998 8.942 7.64 12.146c.64 3.205 1.67 5.645 1.67 5.645l1.382-.582s-.97-2.31-1.58-5.355c-.609-3.046-.81-6.779.559-9.518ZM15.555 1.664l-1.342.672c1.37 2.74 1.17 6.472.56 9.518-.609 3.045-1.58 5.355-1.58 5.355l1.383.582s1.027-2.44 1.668-5.645c.641-3.204.941-7.221-.69-10.482" style="color:#000;fill:currentColor;stroke-linejoin:round;-inkscape-stroke:none"/>
    <path d="M10.6 19.25a1.36 1.36 0 0 0-1.35 1.35v1.8c0 .737.613 1.35 1.35 1.35h2.8a1.36 1.36 0 0 0 1.35-1.35v-1.8a1.36 1.36 0 0 0-1.35-1.35Zm.15 1.5h2.5v1.5h-2.5z" style="color:#000;fill:currentColor;stroke-linecap:round;-inkscape-stroke:none"/>
</svg>
