<svg xmlns="http://www.w3.org/2000/svg" width="24" height="24" fill="none" stroke-width="1.5" viewBox="0 0 24 24">
    <path d="M11 18.25a.75.75 0 0 0-.75.75v2a.75.75 0 0 0 .75.75.75.75 0 0 0 .75-.75v-2a.75.75 0 0 0-.75-.75M11 11.25a.75.75 0 0 0-.75.75v4a.75.75 0 0 0 .75.75.75.75 0 0 0 .75-.75v-4a.75.75 0 0 0-.75-.75M16 11.25a.75.75 0 0 0-.75.75v3.25H14a.75.75 0 0 0-.75.75.75.75 0 0 0 .75.75h2a.75.75 0 0 0 .75-.75v-4a.75.75 0 0 0-.75-.75" style="color:#000;fill:currentColor;stroke-linecap:round;stroke-linejoin:round;-inkscape-stroke:none"/>
    <path d="M8 11.25a.75.75 0 0 0-.75.75.75.75 0 0 0 .75.75h13a.75.75 0 0 0 .75-.75.75.75 0 0 0-.75-.75ZM3 11.25a.75.75 0 0 0-.75.75.75.75 0 0 0 .75.75h2a.75.75 0 0 0 .75-.75.75.75 0 0 0-.75-.75ZM11.838 2.268l-9 2a.75.75 0 0 0-.57.894.75.75 0 0 0 .894.57L12 3.768l8.838 1.964a.75.75 0 0 0 .894-.57.75.75 0 0 0-.57-.894l-9-2a.75.75 0 0 0-.324 0" style="color:#000;fill:currentColor;stroke-linecap:round;stroke-linejoin:round;-inkscape-stroke:none"/>
    <path d="M3.6 7.25A1.36 1.36 0 0 0 2.25 8.6v11.8c0 .737.613 1.35 1.35 1.35h16.8a1.36 1.36 0 0 0 1.35-1.35V8.6a1.36 1.36 0 0 0-1.35-1.35Zm.15 1.5h16.5v11.5H3.75Z" style="color:#000;fill:currentColor;stroke-linecap:round;stroke-linejoin:round;-inkscape-stroke:none"/>
</svg>
