<svg xmlns="http://www.w3.org/2000/svg" width="24" height="24" fill="none" stroke-width="1.5" viewBox="0 0 24 24">
    <path d="M9.25 18v2c0 1.51 1.24 2.75 2.75 2.75s2.75-1.24 2.75-2.75v-2h-1.5v2c0 .7-.55 1.25-1.25 1.25s-1.25-.55-1.25-1.25v-2zM5 11.25v1.5h14v-1.5z" style="color:#000;fill:currentColor;-inkscape-stroke:none"/>
    <path d="M12 1.25C7.729 1.25 4.25 4.729 4.25 9v7A2.76 2.76 0 0 0 7 18.75h10c1.51 0 2.75-1.24 2.75-2.75V9c0-4.271-3.479-7.75-7.75-7.75m0 1.5c3.46 0 6.25 2.79 6.25 6.25v7c0 .7-.55 1.25-1.25 1.25H7c-.7 0-1.25-.55-1.25-1.25V9c0-3.46 2.79-6.25 6.25-6.25" style="color:#000;fill:currentColor;-inkscape-stroke:none"/>
</svg>
