<svg xmlns="http://www.w3.org/2000/svg" width="24" height="24" fill="none" stroke-width="1.5" viewBox="0 0 24 24">
    <path d="M16.965 3.459a.75.75 0 0 0-1.06.021L2.437 17.463a1.37 1.37 0 0 0-.27 1.465c.194.456.678.822 1.242.822H22a.75.75 0 0 0 .75-.75.75.75 0 0 0-.75-.75H3.764l13.22-13.73a.75.75 0 0 0-.02-1.061" style="color:#000;fill:currentColor;stroke-linecap:round;stroke-linejoin:round;-inkscape-stroke:none"/>
    <path d="M17.146 7.264a.75.75 0 0 0-.562.111.75.75 0 0 0-.209 1.041c1.968 2.952 2.388 4.23 2.883 7.69a.75.75 0 0 0 .847.636.75.75 0 0 0 .637-.847c-.505-3.54-1.085-5.263-3.117-8.311a.75.75 0 0 0-.479-.32" style="color:#000;fill:currentColor;stroke-linecap:round;stroke-linejoin:round;-inkscape-stroke:none"/>
</svg>
