<svg xmlns="http://www.w3.org/2000/svg" width="24" height="24" fill="none" stroke-width="1.5" viewBox="0 0 24 24">
    <path d="M6 6.25A5.761 5.761 0 0 0 .25 12 5.761 5.761 0 0 0 6 17.75a5.748 5.748 0 0 0 4.6-2.299.75.75 0 0 0 .025-.035l.332-.5a.75.75 0 0 0-.207-1.041.75.75 0 0 0-1.041.209l-.309.465A4.236 4.236 0 0 1 6 16.25 4.239 4.239 0 0 1 1.75 12 4.239 4.239 0 0 1 6 7.75c1.396 0 2.624.668 3.4 1.701a.75.75 0 0 0 1.051.149.75.75 0 0 0 .149-1.051A5.748 5.748 0 0 0 6 6.25m7.854 2.014a.75.75 0 0 0-.479.32l-.25.375A.75.75 0 0 0 13.334 10a.75.75 0 0 0 1.041-.209l.25-.375a.75.75 0 0 0-.209-1.041.75.75 0 0 0-.562-.111" style="color:#000;fill:currentColor;stroke-linecap:round;stroke-linejoin:round;-inkscape-stroke:none"/>
    <path d="M18 6.25a5.747 5.747 0 0 0-4.6 2.299.75.75 0 0 0 .149 1.05.75.75 0 0 0 1.05-.148A4.236 4.236 0 0 1 18 7.75 4.239 4.239 0 0 1 22.25 12 4.239 4.239 0 0 1 18 16.25a4.236 4.236 0 0 1-3.4-1.701l-3.975-5.965a.75.75 0 0 0-1.041-.209.75.75 0 0 0-.209 1.041l4 6a.75.75 0 0 0 .025.035A5.748 5.748 0 0 0 18 17.75 5.761 5.761 0 0 0 23.75 12 5.761 5.761 0 0 0 18 6.25" style="color:#000;fill:currentColor;stroke-linecap:round;stroke-linejoin:round;-inkscape-stroke:none"/>
</svg>
