<svg xmlns="http://www.w3.org/2000/svg" width="24" height="24" fill="none" stroke-width="1.5" viewBox="0 0 24 24">
    <path d="M8 4.25A5.761 5.761 0 0 0 2.25 10 5.761 5.761 0 0 0 8 15.75h4a.75.75 0 0 0 .75-.75.75.75 0 0 0-.75-.75H8A4.239 4.239 0 0 1 3.75 10 4.239 4.239 0 0 1 8 5.75h8A4.239 4.239 0 0 1 20.25 10v2a.75.75 0 0 0 .75.75.75.75 0 0 0 .75-.75v-2A5.761 5.761 0 0 0 16 4.25Z" style="color:#000;fill:currentColor;stroke-linecap:round;stroke-linejoin:round;-inkscape-stroke:none"/>
    <path d="M18 13.25A3.761 3.761 0 0 0 14.25 17 3.761 3.761 0 0 0 18 20.75c.758 0 1.427-.284 2.02-.674l1.449 1.453a.75.75 0 0 0 1.06.002.75.75 0 0 0 .002-1.06l-1.453-1.455c.388-.592.672-1.26.672-2.016A3.761 3.761 0 0 0 18 13.25m0 1.5c1.252 0 2.25.998 2.25 2.25 0 .625-.25 1.18-.656 1.588-.408.41-.967.662-1.594.662A2.239 2.239 0 0 1 15.75 17c0-1.252.998-2.25 2.25-2.25" style="color:#000;fill:currentColor;stroke-linecap:round;stroke-linejoin:round;-inkscape-stroke:none"/>
</svg>
