<svg xmlns="http://www.w3.org/2000/svg" width="24" height="24" fill="none" stroke-width="1.5" viewBox="0 0 24 24">
    <path d="M14 4.25c-4.271 0-7.75 3.479-7.75 7.75s3.479 7.75 7.75 7.75 7.75-3.479 7.75-7.75S18.271 4.25 14 4.25m0 1.5c3.46 0 6.25 2.79 6.25 6.25s-2.79 6.25-6.25 6.25S7.75 15.46 7.75 12 10.54 5.75 14 5.75" style="color:#000;fill:currentColor;stroke-linecap:round;stroke-linejoin:round;stroke-miterlimit:1.5;-inkscape-stroke:none"/>
    <path d="M3 4.25a.75.75 0 0 0-.75.75v14a.75.75 0 0 0 .75.75.75.75 0 0 0 .75-.75V5A.75.75 0 0 0 3 4.25" style="color:#000;fill:currentColor;stroke-linecap:round;stroke-linejoin:round;-inkscape-stroke:none"/>
</svg>
