<svg xmlns="http://www.w3.org/2000/svg" width="24" height="24" fill="none" stroke-width="1.5" viewBox="0 0 24 24">
    <path d="M12 7.25A4.76 4.76 0 0 0 7.25 12 4.76 4.76 0 0 0 12 16.75 4.76 4.76 0 0 0 16.75 12 4.76 4.76 0 0 0 12 7.25m0 1.5A3.24 3.24 0 0 1 15.25 12 3.24 3.24 0 0 1 12 15.25 3.24 3.24 0 0 1 8.75 12 3.24 3.24 0 0 1 12 8.75" style="color:#000;fill:currentColor;stroke-linecap:round;stroke-linejoin:round;-inkscape-stroke:none"/>
    <path d="M8 2.25A5.76 5.76 0 0 0 2.25 8v8A5.76 5.76 0 0 0 8 21.75h8A5.76 5.76 0 0 0 21.75 16V8A5.76 5.76 0 0 0 16 2.25Zm0 1.5h8A4.24 4.24 0 0 1 20.25 8v8A4.24 4.24 0 0 1 16 20.25H8A4.24 4.24 0 0 1 3.75 16V8A4.24 4.24 0 0 1 8 3.75" style="color:#000;fill:currentColor;-inkscape-stroke:none"/>
    <path d="M18.012 5.941a.75.75 0 0 0-1.059.057l-.01.01a.75.75 0 0 0 .055 1.06.75.75 0 0 0 1.059-.056L18.068 7a.75.75 0 0 0-.056-1.059" style="color:#000;fill:currentColor;stroke-linecap:round;stroke-linejoin:round;-inkscape-stroke:none"/>
</svg>
