<svg xmlns="http://www.w3.org/2000/svg" width="24" height="24" fill="none" stroke-width="1.5" viewBox="0 0 24 24">
    <path d="M21 12.75a.75.75 0 0 0-.75.75v3a.75.75 0 0 0 .75.75.75.75 0 0 0 .75-.75v-3a.75.75 0 0 0-.75-.75m-7.5 7.5a.75.75 0 0 0-.75.75.75.75 0 0 0 .75.75h3a.75.75 0 0 0 .75-.75.75.75 0 0 0-.75-.75ZM9.6 8.25A1.36 1.36 0 0 0 8.25 9.6v6.9a.75.75 0 0 0 .75.75.75.75 0 0 0 .75-.75V9.75h6.75a.75.75 0 0 0 .75-.75.75.75 0 0 0-.75-.75ZM9 18.75a.75.75 0 0 0-.75.75v.9c0 .737.613 1.35 1.35 1.35h.9a.75.75 0 0 0 .75-.75.75.75 0 0 0-.75-.75h-.75v-.75a.75.75 0 0 0-.75-.75M21 18.75a.75.75 0 0 0-.75.75v.75h-.75a.75.75 0 0 0-.75.75.75.75 0 0 0 .75.75h.9a1.36 1.36 0 0 0 1.35-1.35v-.9a.75.75 0 0 0-.75-.75M19.5 8.25a.75.75 0 0 0-.75.75.75.75 0 0 0 .75.75h.75v.75a.75.75 0 0 0 .75.75.75.75 0 0 0 .75-.75v-.9a1.36 1.36 0 0 0-1.35-1.35ZM7.5 2.25a.75.75 0 0 0-.75.75.75.75 0 0 0 .75.75h3a.75.75 0 0 0 .75-.75.75.75 0 0 0-.75-.75ZM3 6.75a.75.75 0 0 0-.75.75v3a.75.75 0 0 0 .75.75.75.75 0 0 0 .75-.75v-3A.75.75 0 0 0 3 6.75" style="color:#000;fill:currentColor;stroke-linecap:round;stroke-linejoin:round;-inkscape-stroke:none"/>
    <path d="M15 6.75a.75.75 0 0 0-.75.75v6.75H7.5a.75.75 0 0 0-.75.75.75.75 0 0 0 .75.75h6.9a1.36 1.36 0 0 0 1.35-1.35V7.5a.75.75 0 0 0-.75-.75M3 12.75a.75.75 0 0 0-.75.75v.9c0 .737.613 1.35 1.35 1.35h.9a.75.75 0 0 0 .75-.75.75.75 0 0 0-.75-.75h-.75v-.75a.75.75 0 0 0-.75-.75M3.6 2.25A1.36 1.36 0 0 0 2.25 3.6v.9a.75.75 0 0 0 .75.75.75.75 0 0 0 .75-.75v-.75h.75A.75.75 0 0 0 5.25 3a.75.75 0 0 0-.75-.75ZM13.5 2.25a.75.75 0 0 0-.75.75.75.75 0 0 0 .75.75h.75v.75a.75.75 0 0 0 .75.75.75.75 0 0 0 .75-.75v-.9a1.36 1.36 0 0 0-1.35-1.35Z" style="color:#000;fill:currentColor;stroke-linecap:round;stroke-linejoin:round;-inkscape-stroke:none"/>
</svg>
