<svg xmlns="http://www.w3.org/2000/svg" width="24" height="24" fill="none" stroke-width="1.5" viewBox="0 0 24 24">
    <path d="M12 5.25c-3.719 0-6.75 3.031-6.75 6.75s3.031 6.75 6.75 6.75 6.75-3.031 6.75-6.75S15.719 5.25 12 5.25m0 1.5A5.239 5.239 0 0 1 17.25 12 5.239 5.239 0 0 1 12 17.25 5.239 5.239 0 0 1 6.75 12 5.239 5.239 0 0 1 12 6.75" style="color:#000;fill:currentColor;stroke-linecap:round;stroke-linejoin:round;-inkscape-stroke:none"/>
    <path d="M8.625 6.152a.75.75 0 0 0-.275 1.026L11.133 12 8.35 16.822a.75.75 0 0 0 .275 1.026.75.75 0 0 0 1.025-.276l2.784-4.822H18a.75.75 0 0 0 .75-.75.75.75 0 0 0-.75-.75h-5.566L9.65 6.428a.75.75 0 0 0-1.025-.276" style="color:#000;fill:currentColor;stroke-linecap:round;stroke-linejoin:round;-inkscape-stroke:none"/>
    <path d="M13.094 4.328a.75.75 0 0 0-.846.639.75.75 0 0 0 .639.846l.066.01.154.025.153.029.152.033.15.037.149.04.043.013a.75.75 0 0 0 .932-.506.75.75 0 0 0-.504-.931l-.051-.016a.75.75 0 0 0-.02-.006l-.166-.045a.75.75 0 0 0-.017-.004l-.17-.04a.75.75 0 0 0-.018-.005l-.17-.037a.75.75 0 0 0-.017-.004l-.172-.033a.75.75 0 0 0-.02-.004l-.172-.03a.75.75 0 0 0-.02-.001zm-3.287.236-.102.032a.75.75 0 0 0-.018.006l-.164.052a.75.75 0 0 0-.017.006l-.162.057a.75.75 0 0 0-.018.008l-.16.06a.75.75 0 0 0-.016.006l-.158.064a.75.75 0 0 0-.017.008l-.157.069a.75.75 0 0 0-.015.007l-.035.016a.75.75 0 0 0-.362.996.75.75 0 0 0 .996.363l.026-.011.14-.063.141-.056.143-.055.144-.05.145-.048.093-.027a.75.75 0 0 0 .506-.934.75.75 0 0 0-.933-.506m6.71 1.395a.75.75 0 0 0-.51.264.75.75 0 0 0 .089 1.054v.002l.107.094.11.104.107.103.103.107.104.11.1.113a.75.75 0 0 0 1.058.063.75.75 0 0 0 .063-1.059l-.106-.12a.75.75 0 0 0-.012-.01l-.115-.124a.75.75 0 0 0-.011-.014l-.118-.12a.75.75 0 0 0-.011-.012l-.121-.118a.75.75 0 0 0-.014-.011l-.123-.115a.75.75 0 0 0-.012-.012l-.127-.112a.75.75 0 0 0-.014-.011v-.002a.75.75 0 0 0-.546-.174m-9.874.715a.75.75 0 0 0-.512.263l-.106.125a.75.75 0 0 0-.011.014l-.106.131a.75.75 0 0 0-.01.016l-.103.132a.75.75 0 0 0-.01.014l-.1.137a.75.75 0 0 0-.01.014l-.095.138a.75.75 0 0 0-.012.016l-.088.137a.75.75 0 0 0 .213 1.039.75.75 0 0 0 1.04-.215l.083-.13.086-.122.09-.121.09-.12.096-.117.1-.119a.75.75 0 0 0-.089-1.056.75.75 0 0 0-.546-.176m11.859 2.63a.75.75 0 0 0-.504.934l.016.051.039.148.037.15.033.153.03.153.025.154.008.057a.75.75 0 0 0 .847.638.75.75 0 0 0 .639-.846l-.01-.066a.75.75 0 0 0-.002-.02l-.03-.171a.75.75 0 0 0-.003-.02l-.033-.172a.75.75 0 0 0-.004-.017l-.037-.17a.75.75 0 0 0-.004-.018l-.041-.17a.75.75 0 0 0-.004-.017l-.045-.166a.75.75 0 0 0-.006-.02l-.018-.058a.75.75 0 0 0-.933-.506m-13.328.966a.75.75 0 0 0-.848.638l-.014.096a.75.75 0 0 0-.001.02l-.02.175a.75.75 0 0 0-.002.02l-.016.176a.75.75 0 0 0-.002.02l-.011.177a.75.75 0 0 0 0 .02l-.008.179a.75.75 0 0 0 0 .02l-.002.18a.75.75 0 0 0 0 .019v.01a.75.75 0 0 0 .76.74.75.75 0 0 0 .74-.76l.002-.162.006-.16.01-.16.015-.159.018-.156.012-.086a.75.75 0 0 0-.64-.847m13.758 2.982a.75.75 0 0 0-.932.504l-.031.103-.047.145-.05.144-.056.143-.056.14-.063.141-.008.018a.75.75 0 0 0 .364.996.75.75 0 0 0 .996-.363l.012-.026a.75.75 0 0 0 .007-.015l.069-.157a.75.75 0 0 0 .008-.017l.064-.158a.75.75 0 0 0 .006-.016l.06-.16a.75.75 0 0 0 .008-.018l.057-.162a.75.75 0 0 0 .006-.017l.052-.165a.75.75 0 0 0 .006-.017l.034-.111a.75.75 0 0 0-.506-.932m-13.04.96a.75.75 0 0 0-.574.026.75.75 0 0 0-.361.996l.053.118a.75.75 0 0 0 .01.017l.074.152a.75.75 0 0 0 .008.016l.08.15a.75.75 0 0 0 .007.016l.084.147a.75.75 0 0 0 .008.015l.086.147a.75.75 0 0 0 .01.015l.09.143a.75.75 0 0 0 .01.016l.013.02a.75.75 0 0 0 1.04.214.75.75 0 0 0 .212-1.04l-.008-.013-.08-.127-.076-.129-.074-.132-.07-.133-.069-.137-.05-.11a.75.75 0 0 0-.422-.386m10.196 2.517-.113.093-.118.096-.119.09-.12.09-.124.086-.121.078a.75.75 0 0 0-.213 1.039.75.75 0 0 0 1.037.215l.13-.084a.75.75 0 0 0 .015-.012l.138-.096a.75.75 0 0 0 .014-.01l.137-.1a.75.75 0 0 0 .014-.009l.132-.104a.75.75 0 0 0 .016-.01l.13-.105a.75.75 0 0 0 .015-.011l.126-.11a.75.75 0 0 0 .014-.012l.004-.003a.75.75 0 0 0 .064-1.06.75.75 0 0 0-1.058-.062m-8.014.433a.75.75 0 0 0-.476.322.75.75 0 0 0 .215 1.037l.001.002a.75.75 0 0 0 .016.01l.143.09a.75.75 0 0 0 .015.01l.147.086a.75.75 0 0 0 .015.008l.147.084a.75.75 0 0 0 .015.007l.15.08a.75.75 0 0 0 .017.008l.152.075a.75.75 0 0 0 .017.01l.137.062a.75.75 0 0 0 .996-.362.75.75 0 0 0-.361-.998l-.129-.058-.137-.069-.133-.07-.132-.074-.13-.076-.122-.076a.75.75 0 0 0-.563-.108m4.819 1.024-.096.013-.156.018-.159.015-.16.01-.16.006-.172.002a.75.75 0 0 0-.74.76.75.75 0 0 0 .76.74l.18-.002a.75.75 0 0 0 .019 0l.18-.008a.75.75 0 0 0 .02 0l.177-.012a.75.75 0 0 0 .02-.002l.175-.015a.75.75 0 0 0 .02-.002l.176-.02a.75.75 0 0 0 .02-.002l.103-.015a.75.75 0 0 0 .64-.848.75.75 0 0 0-.847-.639z" style="color:#000;fill:currentColor;stroke-linecap:round;stroke-linejoin:round;stroke-dasharray:1,3;-inkscape-stroke:none"/>
    <path d="M12 1.25C6.072 1.25 1.25 6.072 1.25 12S6.072 22.75 12 22.75 22.75 17.928 22.75 12 17.928 1.25 12 1.25m0 1.5A9.239 9.239 0 0 1 21.25 12 9.239 9.239 0 0 1 12 21.25 9.239 9.239 0 0 1 2.75 12 9.239 9.239 0 0 1 12 2.75" style="color:#000;fill:currentColor;stroke-linecap:round;stroke-linejoin:round;-inkscape-stroke:none"/>
    <path d="M12 8.25A3.761 3.761 0 0 0 8.25 12 3.761 3.761 0 0 0 12 15.75 3.761 3.761 0 0 0 15.75 12 3.761 3.761 0 0 0 12 8.25m0 1.5c1.252 0 2.25.998 2.25 2.25s-.998 2.25-2.25 2.25A2.239 2.239 0 0 1 9.75 12c0-1.252.998-2.25 2.25-2.25" style="color:#000;fill:currentColor;stroke-linecap:round;stroke-linejoin:round;-inkscape-stroke:none"/>
</svg>
