<svg xmlns="http://www.w3.org/2000/svg" width="24" height="24" fill="none" stroke-width="1.5" viewBox="0 0 24 24">
    <path d="M12 5.25c-3.719 0-6.75 3.031-6.75 6.75s3.031 6.75 6.75 6.75 6.75-3.031 6.75-6.75S15.719 5.25 12 5.25m0 1.5A5.24 5.24 0 0 1 17.25 12 5.24 5.24 0 0 1 12 17.25 5.24 5.24 0 0 1 6.75 12 5.24 5.24 0 0 1 12 6.75" style="color:#000;fill:currentColor;stroke-linecap:round;stroke-linejoin:round;-inkscape-stroke:none"/>
    <path d="M8.625 6.152a.75.75 0 0 0-.275 1.026L11.133 12 8.35 16.822a.75.75 0 0 0 .275 1.026.75.75 0 0 0 1.025-.276l2.784-4.822H18a.75.75 0 0 0 .75-.75.75.75 0 0 0-.75-.75h-5.566L9.65 6.428a.75.75 0 0 0-1.025-.276" style="color:#000;fill:currentColor;stroke-linecap:round;stroke-linejoin:round;-inkscape-stroke:none"/>
    <path d="M13.094 4.328a.75.75 0 0 0-.846.639.75.75 0 0 0 .639.846l.066.01.154.025.153.029.152.033.15.037.149.04.043.013a.75.75 0 0 0 .932-.506.75.75 0 0 0-.504-.931l-.051-.016-.02-.006-.166-.045-.017-.004-.17-.04-.018-.005-.17-.037-.017-.004-.172-.033-.02-.004-.172-.03-.02-.001zm-3.287.236-.102.032-.018.006-.164.052-.017.006-.162.057-.018.008-.16.06-.016.006-.158.064-.017.008-.157.069-.015.007-.035.016a.75.75 0 0 0-.362.996.75.75 0 0 0 .996.363l.026-.011.14-.063.141-.056.143-.055.144-.05.145-.048.093-.027a.75.75 0 0 0 .506-.934.75.75 0 0 0-.933-.506m6.71 1.395a.75.75 0 0 0-.51.264.75.75 0 0 0 .089 1.054v.002l.107.094.11.104.107.103.103.107.104.11.1.113a.75.75 0 0 0 1.058.063.75.75 0 0 0 .063-1.059l-.106-.12-.012-.01-.115-.124-.011-.014-.118-.12-.011-.012-.121-.118-.014-.011-.123-.115-.012-.012-.127-.112-.014-.011v-.002a.75.75 0 0 0-.546-.174m-9.874.715a.75.75 0 0 0-.512.263l-.106.125-.011.014-.106.131-.01.016-.103.132-.01.014-.1.137-.01.014-.095.138-.012.016-.088.137a.75.75 0 0 0 .213 1.039.75.75 0 0 0 1.04-.215l.083-.13.086-.122.09-.121.09-.12.096-.117.1-.119a.75.75 0 0 0-.089-1.056.75.75 0 0 0-.546-.176m11.859 2.63a.75.75 0 0 0-.504.934l.016.051.039.148.037.15.033.153.03.153.025.154.008.057a.75.75 0 0 0 .847.638.75.75 0 0 0 .639-.846l-.01-.066-.002-.02-.03-.171-.003-.02-.033-.172-.004-.017-.037-.17-.004-.018-.041-.17-.004-.017-.045-.166-.006-.02-.018-.058a.75.75 0 0 0-.933-.506m-13.328.966a.75.75 0 0 0-.848.638l-.014.096-.001.02-.02.175-.002.02-.016.176-.002.02-.011.177v.02l-.008.179v.02l-.002.18v.029a.75.75 0 0 0 .76.74.75.75 0 0 0 .74-.76l.002-.162.006-.16.01-.16.015-.159.018-.156.012-.086a.75.75 0 0 0-.64-.847m13.758 2.982a.75.75 0 0 0-.932.504l-.031.103-.047.145-.05.144-.056.143-.056.14-.063.141-.008.018a.75.75 0 0 0 .364.996.75.75 0 0 0 .996-.363l.012-.026.007-.015.069-.157.008-.017.064-.158.006-.016.06-.16.008-.018.057-.162.006-.017.052-.165.006-.017.034-.111a.75.75 0 0 0-.506-.932m-13.04.96a.75.75 0 0 0-.574.026.75.75 0 0 0-.361.996l.053.118.01.017.074.152.008.016.08.15.007.016.084.147.008.015.086.147.01.015.09.143.01.016.013.02a.75.75 0 0 0 1.04.214.75.75 0 0 0 .212-1.04l-.008-.013-.08-.127-.076-.129-.074-.132-.07-.133-.069-.137-.05-.11a.75.75 0 0 0-.422-.386m10.196 2.517-.113.093-.118.096-.119.09-.12.09-.124.086-.121.078a.75.75 0 0 0-.213 1.039.75.75 0 0 0 1.037.215l.13-.084.015-.012.138-.096.014-.01.137-.1.014-.009.132-.104.016-.01.13-.105.015-.011.126-.11.014-.012.004-.003a.75.75 0 0 0 .064-1.06.75.75 0 0 0-1.058-.062m-8.014.433a.75.75 0 0 0-.476.322.75.75 0 0 0 .215 1.037l.001.002.016.01.143.09.015.01.147.086.015.008.147.084.015.007.15.08.017.008.152.075.017.01.137.062a.75.75 0 0 0 .996-.362.75.75 0 0 0-.361-.998l-.129-.058-.137-.069-.133-.07-.132-.074-.13-.076-.122-.076a.75.75 0 0 0-.563-.108m4.819 1.024-.096.013-.156.018-.159.015-.16.01-.16.006-.172.002a.75.75 0 0 0-.74.76.75.75 0 0 0 .76.74l.18-.002h.019l.18-.008h.02l.177-.012.02-.002.175-.015.02-.002.176-.02.02-.002.103-.015a.75.75 0 0 0 .64-.848.75.75 0 0 0-.847-.639z" style="color:#000;fill:currentColor;stroke-linecap:round;stroke-linejoin:round;stroke-dasharray:1,3;-inkscape-stroke:none"/>
    <path d="M12 1.25C6.072 1.25 1.25 6.072 1.25 12S6.072 22.75 12 22.75 22.75 17.928 22.75 12 17.928 1.25 12 1.25m0 1.5A9.24 9.24 0 0 1 21.25 12 9.24 9.24 0 0 1 12 21.25 9.24 9.24 0 0 1 2.75 12 9.24 9.24 0 0 1 12 2.75" style="color:#000;fill:currentColor;stroke-linecap:round;stroke-linejoin:round;-inkscape-stroke:none"/>
    <path d="M12 8.25A3.76 3.76 0 0 0 8.25 12 3.76 3.76 0 0 0 12 15.75 3.76 3.76 0 0 0 15.75 12 3.76 3.76 0 0 0 12 8.25m0 1.5c1.252 0 2.25.998 2.25 2.25s-.998 2.25-2.25 2.25A2.24 2.24 0 0 1 9.75 12c0-1.252.998-2.25 2.25-2.25" style="color:#000;fill:currentColor;stroke-linecap:round;stroke-linejoin:round;-inkscape-stroke:none"/>
</svg>
