<svg xmlns="http://www.w3.org/2000/svg" width="24" height="24" fill="none" stroke-width="1.5" viewBox="0 0 24 24">
    <path d="M8 2.25C4.281 2.25 1.25 5.281 1.25 9v6c0 3.719 3.031 6.75 6.75 6.75h8c3.719 0 6.75-3.031 6.75-6.75V9c0-3.719-3.031-6.75-6.75-6.75Zm0 1.5h8A5.239 5.239 0 0 1 21.25 9v6A5.239 5.239 0 0 1 16 20.25H8A5.239 5.239 0 0 1 2.75 15V9A5.239 5.239 0 0 1 8 3.75" style="color:#000;fill:currentColor;-inkscape-stroke:none"/>
    <path d="M12 8.25a.75.75 0 0 0-.75.75v6a.75.75 0 0 0 .75.75.75.75 0 0 0 .75-.75V9a.75.75 0 0 0-.75-.75M9 8.25a.75.75 0 0 0-.75.75v6a.75.75 0 0 0 .75.75.75.75 0 0 0 .75-.75V9A.75.75 0 0 0 9 8.25" style="color:#000;fill:currentColor;stroke-linecap:round;stroke-linejoin:round;-inkscape-stroke:none"/>
    <path d="M12 8.25a.75.75 0 0 0-.75.75.75.75 0 0 0 .75.75h2.5c.423 0 .75.327.75.75s-.327.75-.75.75H12a.75.75 0 0 0-.75.75.75.75 0 0 0 .75.75h2.5a2.261 2.261 0 0 0 2.25-2.25 2.261 2.261 0 0 0-2.25-2.25z" style="color:#000;fill:currentColor;stroke-linecap:round;stroke-linejoin:round;-inkscape-stroke:none"/>
</svg>
