<svg xmlns="http://www.w3.org/2000/svg" width="24" height="24" fill="none" stroke-width="1.5" viewBox="0 0 24 24">
    <path d="M12 1.25c-5.383 0-9.75 4.455-9.75 9.916 0 .074 0 .147.002.22.03 1.39 1.26 2.364 2.568 2.364h14.36c1.308 0 2.538-.975 2.568-2.363.002-.074.002-.148.002-.221 0-5.46-4.367-9.916-9.75-9.916m0 1.5c4.558 0 8.25 3.751 8.25 8.416 0 .063 0 .127-.002.19-.011.518-.468.894-1.068.894H4.82c-.6 0-1.057-.376-1.068-.895a8.877 8.877 0 0 1-.002-.189C3.75 6.501 7.442 2.75 12 2.75" style="color:#000;fill:currentColor;stroke-linecap:round;stroke-linejoin:round;-inkscape-stroke:none"/>
    <path d="M6.045 12.252a.75.75 0 0 0-.543.187.75.75 0 0 0-.063 1.059l1 1.125a.935.935 0 0 1 0 1.254 2.452 2.452 0 0 0 0 3.246.935.935 0 0 1 0 1.254l-1 1.125a.75.75 0 0 0 .063 1.059.75.75 0 0 0 1.059-.063l1-1.125a2.452 2.452 0 0 0 0-3.246.935.935 0 0 1 0-1.254 2.452 2.452 0 0 0 0-3.246l-1-1.125a.75.75 0 0 0-.516-.25M11.045 12.252a.75.75 0 0 0-.543.187.75.75 0 0 0-.063 1.059l1 1.125a.935.935 0 0 1 0 1.254 2.452 2.452 0 0 0 0 3.246.935.935 0 0 1 0 1.254l-1 1.125a.75.75 0 0 0 .063 1.059.75.75 0 0 0 1.059-.063l1-1.125a2.452 2.452 0 0 0 0-3.246.935.935 0 0 1 0-1.254 2.452 2.452 0 0 0 0-3.246l-1-1.125a.75.75 0 0 0-.516-.25M16.045 12.252a.75.75 0 0 0-.543.187.75.75 0 0 0-.063 1.059l1 1.125a.935.935 0 0 1 0 1.254 2.452 2.452 0 0 0 0 3.246.935.935 0 0 1 0 1.254l-1 1.125a.75.75 0 0 0 .063 1.059.75.75 0 0 0 1.059-.063l1-1.125a2.452 2.452 0 0 0 0-3.246.935.935 0 0 1 0-1.254 2.452 2.452 0 0 0 0-3.246l-1-1.125a.75.75 0 0 0-.516-.25" style="color:#000;fill:currentColor;stroke-linecap:round;stroke-linejoin:round;-inkscape-stroke:none"/>
</svg>
