<svg xmlns="http://www.w3.org/2000/svg" width="24" height="24" fill="none" stroke-width="1.5" viewBox="0 0 24 24">
    <path d="M6 5.25a.75.75 0 0 0-.75.75.75.75 0 0 0 .75.75h8a.75.75 0 0 0 .75-.75.75.75 0 0 0-.75-.75ZM6 9.25a.75.75 0 0 0-.75.75.75.75 0 0 0 .75.75h12a.75.75 0 0 0 .75-.75.75.75 0 0 0-.75-.75ZM13 13.25a.75.75 0 0 0-.75.75.75.75 0 0 0 .75.75h5a.75.75 0 0 0 .75-.75.75.75 0 0 0-.75-.75ZM13 17.25a.75.75 0 0 0-.75.75.75.75 0 0 0 .75.75h5a.75.75 0 0 0 .75-.75.75.75 0 0 0-.75-.75Z" style="color:#000;fill:currentColor;stroke-linecap:round;stroke-linejoin:round;-inkscape-stroke:none"/>
    <path d="M2.6 1.25A1.36 1.36 0 0 0 1.25 2.6v18.8c0 .737.613 1.35 1.35 1.35h18.8a1.36 1.36 0 0 0 1.35-1.35V5.748c0-.358-.142-.7-.395-.953a.75.75 0 0 0 0-.002l-3.148-3.148h-.002a1.35 1.35 0 0 0-.953-.395Zm.15 1.5h15.438l3.062 3.06v15.44H2.75Z" style="color:#000;fill:currentColor;stroke-linecap:round;stroke-linejoin:round;-inkscape-stroke:none"/>
    <path d="M6 13.25a.75.75 0 0 0-.75.75v4a.75.75 0 0 0 .75.75h3a.75.75 0 0 0 .75-.75v-4a.75.75 0 0 0-.75-.75Zm.75 1.5h1.5v2.5h-1.5zM18 1.25a.75.75 0 0 0-.75.75v3.4c0 .737.613 1.35 1.35 1.35H22a.75.75 0 0 0 .75-.75.75.75 0 0 0-.75-.75h-3.25V2a.75.75 0 0 0-.75-.75" style="color:#000;fill:currentColor;stroke-linecap:round;stroke-linejoin:round;-inkscape-stroke:none"/>
</svg>
