<svg xmlns="http://www.w3.org/2000/svg" width="24" height="24" fill="none" stroke-width="1.5" viewBox="0 0 24 24">
    <path d="M4.6 2.25A1.36 1.36 0 0 0 3.25 3.6V6a.75.75 0 0 0 .75.75.75.75 0 0 0 .75-.75V3.75h14.5V6a.75.75 0 0 0 .75.75.75.75 0 0 0 .75-.75V3.6a1.36 1.36 0 0 0-1.35-1.35ZM4 17.25a.75.75 0 0 0-.75.75v2.4c0 .737.613 1.35 1.35 1.35h14.8a1.36 1.36 0 0 0 1.35-1.35V18a.75.75 0 0 0-.75-.75.75.75 0 0 0-.75.75v2.25H4.75V18a.75.75 0 0 0-.75-.75" style="color:#000;fill:currentColor;stroke-linecap:round;-inkscape-stroke:none"/>
    <path d="M10 8.25a.75.75 0 0 0-.75.75v6a.75.75 0 0 0 .75.75.75.75 0 0 0 .75-.75v-2.25H13a.75.75 0 0 0 .75-.75V9a.75.75 0 0 0-.75-.75Zm.75 1.5h1.5v1.5h-1.5zM16 8.25a.75.75 0 0 0-.75.75v6a.75.75 0 0 0 .75.75h3a.75.75 0 0 0 .75-.75v-2.4a.75.75 0 0 0-.75-.75.75.75 0 0 0-.75.75v1.65h-1.5v-4.5H19a.75.75 0 0 0 .75-.75.75.75 0 0 0-.75-.75ZM7 8.25a.75.75 0 0 0-.75.75v4.2c0 .621-.23.744-.559.892S5 14.25 5 14.25a.75.75 0 0 0-.75.75.75.75 0 0 0 .75.75s.638.01 1.309-.291a2.48 2.48 0 0 0 1.441-2.26V9A.75.75 0 0 0 7 8.25" style="color:#000;fill:currentColor;stroke-linecap:round;stroke-linejoin:round;-inkscape-stroke:none"/>
</svg>
