<svg xmlns="http://www.w3.org/2000/svg" width="24" height="24" fill="none" stroke-width="1.5" viewBox="0 0 24 24">
    <path d="M9 5.25a.75.75 0 0 0-.75.75v12a.75.75 0 0 0 .75.75.75.75 0 0 0 .75-.75V6A.75.75 0 0 0 9 5.25M15 5.25a.75.75 0 0 0-.75.75v12a.75.75 0 0 0 .75.75.75.75 0 0 0 .75-.75V6a.75.75 0 0 0-.75-.75" style="color:#000;fill:currentColor;stroke-linecap:round;stroke-linejoin:round;-inkscape-stroke:none"/>
    <path d="M6 2.25A3.76 3.76 0 0 0 2.25 6 3.76 3.76 0 0 0 6 9.75h12A3.76 3.76 0 0 0 21.75 6 3.76 3.76 0 0 0 18 2.25 3.76 3.76 0 0 0 14.25 6a.75.75 0 0 0 .75.75.75.75 0 0 0 .75-.75c0-1.252.998-2.25 2.25-2.25s2.25.998 2.25 2.25-.998 2.25-2.25 2.25H6A2.24 2.24 0 0 1 3.75 6c0-1.252.998-2.25 2.25-2.25S8.25 4.748 8.25 6a.75.75 0 0 0 .75.75.75.75 0 0 0 .75-.75A3.76 3.76 0 0 0 6 2.25M6 14.25A3.76 3.76 0 0 0 2.25 18 3.76 3.76 0 0 0 6 21.75 3.76 3.76 0 0 0 9.75 18a.75.75 0 0 0-.75-.75.75.75 0 0 0-.75.75c0 1.252-.998 2.25-2.25 2.25A2.24 2.24 0 0 1 3.75 18c0-1.252.998-2.25 2.25-2.25h12c1.252 0 2.25.998 2.25 2.25s-.998 2.25-2.25 2.25A2.24 2.24 0 0 1 15.75 18a.75.75 0 0 0-.75-.75.75.75 0 0 0-.75.75A3.76 3.76 0 0 0 18 21.75 3.76 3.76 0 0 0 21.75 18 3.76 3.76 0 0 0 18 14.25z" style="color:#000;fill:currentColor;stroke-linecap:round;stroke-linejoin:round;-inkscape-stroke:none"/>
</svg>
