<svg xmlns="http://www.w3.org/2000/svg" width="24" height="24" fill="none" stroke-width="1.5" viewBox="0 0 24 24">
    <path d="M15.871 15.129a.75.75 0 0 0-.531.219.75.75 0 0 0 0 1.06L16.93 18l-1.59 1.592a.75.75 0 0 0 0 1.06.75.75 0 0 0 1.06 0l1.592-1.59 1.592 1.59a.75.75 0 0 0 1.06 0 .75.75 0 0 0 0-1.06L19.055 18l1.59-1.592a.75.75 0 0 0 0-1.06.75.75 0 0 0-1.06 0l-1.592 1.59-1.592-1.59a.75.75 0 0 0-.529-.22M15.24 2.77a4.73 4.73 0 0 0-3.357 1.386c-1.661 1.661-1.747 4.227-.424 6.08L3.396 18.3a.75.75 0 0 0 0 1.06l2.122 2.121a.75.75 0 0 0 1.06 0 .75.75 0 0 0 0-1.06l-1.59-1.592 7.532-7.531c1.853 1.323 4.419 1.237 6.08-.424a4.76 4.76 0 0 0 0-6.717 4.74 4.74 0 0 0-3.36-1.386m0 1.49c.83 0 1.661.32 2.3.957a3.24 3.24 0 0 1 0 4.595 3.24 3.24 0 0 1-4.597 0 3.24 3.24 0 0 1 0-4.595 3.24 3.24 0 0 1 2.297-.957" style="color:#000;fill:currentColor;stroke-linecap:round;stroke-linejoin:round;-inkscape-stroke:none"/>
    <path d="M6.225 15.469a.75.75 0 0 0 0 1.062l2.12 2.121a.75.75 0 0 0 1.061 0 .75.75 0 0 0 0-1.06l-2.12-2.123a.75.75 0 0 0-1.061 0" style="color:#000;fill:currentColor;stroke-linecap:round;stroke-linejoin:round;-inkscape-stroke:none"/>
</svg>
