<svg xmlns="http://www.w3.org/2000/svg" width="24" height="24" fill="none" stroke-width="1.5" viewBox="0 0 24 24">
    <path d="M12 1.23c-.747 0-1.494.297-2.035.893L2.668 10.15a2.759 2.759 0 0 0 0 3.7l7.297 8.027a2.764 2.764 0 0 0 4.07 0l7.297-8.027a2.759 2.759 0 0 0 0-3.7l-7.297-8.027A2.739 2.739 0 0 0 12 1.23m0 1.487c.336 0 .674.139.926.416l7.297 8.027a1.238 1.238 0 0 1 0 1.68l-7.297 8.027a1.239 1.239 0 0 1-1.852 0L3.777 12.84a1.238 1.238 0 0 1 0-1.68l7.297-8.027c.252-.277.59-.416.926-.416" style="color:#000;fill:currentColor;stroke-linecap:round;stroke-linejoin:round;-inkscape-stroke:none"/>
</svg>
