<svg xmlns="http://www.w3.org/2000/svg" width="24" height="24" fill="none" stroke-width="1.5" viewBox="0 0 24 24">
    <path d="M9 3.268c-.756 0-1.512.305-2.055.916l-5.324 5.99a2.757 2.757 0 0 0 0 3.652l5.324 5.99a2.762 2.762 0 0 0 4.11 0l5.324-5.99a2.757 2.757 0 0 0 0-3.652l-5.324-5.99A2.737 2.737 0 0 0 9 3.268m0 1.486c.34 0 .68.141.934.426l5.324 5.99a1.24 1.24 0 0 1 0 1.66l-5.324 5.99a1.235 1.235 0 0 1-1.868 0l-5.324-5.99a1.24 1.24 0 0 1 0-1.66l5.324-5.99c.253-.285.593-.426.934-.426" style="color:#000;fill:currentColor;stroke-linecap:round;stroke-linejoin:round;-inkscape-stroke:none"/>
    <path d="M15 3.268c-.756 0-1.512.305-2.055.916L11.44 5.877a.75.75 0 0 0 .063 1.059.75.75 0 0 0 1.059-.063l1.505-1.693a1.235 1.235 0 0 1 1.868 0l5.324 5.99a1.24 1.24 0 0 1 0 1.66l-5.324 5.99a1.235 1.235 0 0 1-1.868 0l-1.505-1.693a.75.75 0 0 0-1.059-.063.75.75 0 0 0-.063 1.059l1.506 1.693a2.763 2.763 0 0 0 4.11 0l5.324-5.99a2.757 2.757 0 0 0 0-3.652l-5.324-5.99A2.737 2.737 0 0 0 15 3.268" style="color:#000;fill:currentColor;stroke-linecap:round;stroke-linejoin:round;-inkscape-stroke:none"/>
</svg>
