<svg xmlns="http://www.w3.org/2000/svg" width="24" height="24" fill="none" stroke-width="1.5" viewBox="0 0 24 24">
    <path d="M12 1.25C6.072 1.25 1.25 6.072 1.25 12S6.072 22.75 12 22.75 22.75 17.928 22.75 12 17.928 1.25 12 1.25m0 1.5A9.239 9.239 0 0 1 21.25 12 9.239 9.239 0 0 1 12 21.25 9.239 9.239 0 0 1 2.75 12 9.239 9.239 0 0 1 12 2.75" style="color:#000;fill:currentColor;stroke-linecap:round;stroke-linejoin:round;-inkscape-stroke:none"/>
    <path d="M12.547 1.451a.75.75 0 0 0-.145 1.051S15.25 6.25 15.25 12c0 5.75-2.848 9.496-2.848 9.496a.75.75 0 0 0 .145 1.053.75.75 0 0 0 1.05-.145S16.75 18.25 16.75 12 13.598 1.596 13.598 1.596a.75.75 0 0 0-1.051-.145M10.898 1.307a.75.75 0 0 0-.496.289S7.25 5.75 7.25 12s3.152 10.404 3.152 10.404a.75.75 0 0 0 1.051.145.75.75 0 0 0 .145-1.053S8.75 17.75 8.75 12s2.848-9.498 2.848-9.498a.75.75 0 0 0-.145-1.05.75.75 0 0 0-.555-.145" style="color:#000;fill:currentColor;stroke-linecap:round;stroke-linejoin:round;-inkscape-stroke:none"/>
    <path d="M2.629 14.75a.75.75 0 0 0-.75.75.75.75 0 0 0 .75.75H21.37a.75.75 0 0 0 .75-.75.75.75 0 0 0-.75-.75zM2.629 7.75a.75.75 0 0 0-.75.75.75.75 0 0 0 .75.75H21.37a.75.75 0 0 0 .75-.75.75.75 0 0 0-.75-.75z" style="color:#000;fill:currentColor;stroke-linecap:round;stroke-linejoin:round;-inkscape-stroke:none"/>
</svg>
