<svg xmlns="http://www.w3.org/2000/svg" width="24" height="24" fill="none" stroke-width="1.5" viewBox="0 0 24 24">
    <path d="M20.8 7.361a.75.75 0 0 0-.75.75v5.362H3.655c-.6 0-1.135.404-1.299.982L.998 19.252c-.491 1.736.842 3.498 2.647 3.498h16.71c1.805 0 3.138-1.762 2.647-3.498l-1.451-5.13v-6.01a.75.75 0 0 0-.75-.75M3.769 14.973h16.464l1.327 4.687a1.233 1.233 0 0 1-1.204 1.59H3.645a1.233 1.233 0 0 1-1.204-1.59z" style="color:#000;fill:currentColor;stroke-linecap:round;stroke-linejoin:round;-inkscape-stroke:none"/>
    <path d="M5.2 1.25C3.69 1.25 2.45 2.49 2.45 4v10.223a.75.75 0 0 0 .75.75.75.75 0 0 0 .75-.75V4c0-.7.55-1.25 1.25-1.25H12a.75.75 0 0 0 .75-.75.75.75 0 0 0-.75-.75ZM11 18.25a.75.75 0 0 0-.75.75.75.75 0 0 0 .75.75h2a.75.75 0 0 0 .75-.75.75.75 0 0 0-.75-.75ZM17.656 4.078a.75.75 0 0 0-.529.22l-2.828 2.829a.75.75 0 0 0 0 1.06.75.75 0 0 0 1.06 0l2.829-2.828a.75.75 0 0 0 0-1.06.75.75 0 0 0-.532-.22" style="color:#000;fill:currentColor;stroke-linecap:round;stroke-linejoin:round;-inkscape-stroke:none"/>
    <path d="M17.656 1.25a.75.75 0 0 0-.529.219 2.763 2.763 0 0 0 0 3.89 2.761 2.761 0 0 0 3.889 0 .75.75 0 0 0 0-1.06.75.75 0 0 0-1.06 0 1.239 1.239 0 0 1-1.768 0 1.239 1.239 0 0 1 0-1.768.75.75 0 0 0 0-1.062.75.75 0 0 0-.532-.219M13.414 6.326c-.705 0-1.411.267-1.945.801a.75.75 0 0 0 0 1.06.75.75 0 0 0 1.062 0 1.239 1.239 0 0 1 1.768 0 1.239 1.239 0 0 1 0 1.768.75.75 0 0 0 0 1.06.75.75 0 0 0 1.06 0 2.761 2.761 0 0 0 0-3.888 2.744 2.744 0 0 0-1.945-.8" style="color:#000;fill:currentColor;stroke-linecap:round;stroke-linejoin:round;-inkscape-stroke:none"/>
</svg>
