<svg xmlns="http://www.w3.org/2000/svg" width="24" height="24" fill="none" stroke-width="1.5" viewBox="0 0 24 24">
    <path d="M9.6 7.25A1.36 1.36 0 0 0 8.25 8.6V19a.75.75 0 0 0 .75.75h6a.75.75 0 0 0 .75-.75V8.6a1.36 1.36 0 0 0-1.35-1.35Zm.15 1.5h4.5v9.5h-4.5V12.5ZM9 4.25a.75.75 0 0 0-.75.75.75.75 0 0 0 .75.75h6a.75.75 0 0 0 .75-.75.75.75 0 0 0-.75-.75Z" style="color:#000;fill:currentColor;stroke-linecap:round;stroke-linejoin:round;-inkscape-stroke:none"/>
    <path d="M15.6 13.75a1.36 1.36 0 0 0-1.35 1.35V19a.75.75 0 0 0 .75.75h5.4a1.36 1.36 0 0 0 1.35-1.35v-3.3a1.36 1.36 0 0 0-1.35-1.35Zm.15 1.5h4.5v3h-4.5zM3.6 11.75a1.36 1.36 0 0 0-1.35 1.35v5.3c0 .737.613 1.35 1.35 1.35H9a.75.75 0 0 0 .75-.75v-5.9a1.36 1.36 0 0 0-1.35-1.35Zm.15 1.5h4.5v5h-4.5z" style="color:#000;fill:currentColor;stroke-linecap:round;stroke-linejoin:round;-inkscape-stroke:none"/>
</svg>
