<svg xmlns="http://www.w3.org/2000/svg" width="24" height="24" fill="none" stroke-width="1.5" viewBox="0 0 24 24">
    <path d="M11.494 11.936a.75.75 0 0 0-1.058.07c-3.66 4.183-4.182 8.912-4.182 8.912a.75.75 0 0 0 .664.828.75.75 0 0 0 .828-.664s.479-4.271 3.818-8.088a.75.75 0 0 0-.07-1.058" style="color:#000;fill:currentColor;stroke-linecap:round;stroke-linejoin:round;-inkscape-stroke:none"/>
    <path d="m18.402 2.955-6.57.633c-4.216.406-7.32 4.172-6.914 8.389.407 4.224 4.237 7.312 8.453 6.906 4.29-.413 7.513-4.24 7.1-8.537l-.594-6.176a1.363 1.363 0 0 0-1.475-1.215m-.006 1.508.582 6.025c.335 3.474-2.269 6.567-5.751 6.903-3.41.328-6.487-2.158-6.815-5.559a6.174 6.174 0 0 1 5.565-6.75Z" style="color:#000;fill:currentColor;stroke-linecap:round;stroke-linejoin:round;-inkscape-stroke:none"/>
</svg>
