<svg xmlns="http://www.w3.org/2000/svg" width="24" height="24" fill="none" stroke-width="1.5" viewBox="0 0 24 24">
    <path d="M11.19 1.25c-2.889-.03-5.17.899-6.688 2.498C2.983 5.348 2.25 7.565 2.25 10c0 2.478.986 4.213 1.928 5.592.94 1.374 1.765 2.41 1.89 3.617V22a.75.75 0 0 0 .75.75.75.75 0 0 0 .75-.75v-2.857l-.004-.075c-.177-1.766-1.256-3.016-2.148-4.322S3.75 12.093 3.75 10c0-2.136.631-3.947 1.84-5.219C6.798 3.51 8.608 2.723 11.174 2.75c1.823.019 3.572.556 4.83 1.564 1.257 1.01 2.064 2.46 2.064 4.543a.75.75 0 0 0 .118.403l2.027 3.187c-.05.725-.32 1-.652 1.174-.364.19-.743.201-.743.201a.75.75 0 0 0-.746.82s.11 1.304-.306 2.55c-.208.622-.536 1.204-1.04 1.626-.503.422-1.19.717-2.27.717a.75.75 0 0 0-.75.75V22a.75.75 0 0 0 .75.75.75.75 0 0 0 .75-.75v-1.082c.999-.13 1.866-.432 2.483-.95.775-.649 1.231-1.496 1.5-2.302a7.3 7.3 0 0 0 .383-2.539c.264-.048.34.006.686-.176.727-.38 1.492-1.284 1.492-2.666a.75.75 0 0 0-.117-.402l-2.137-3.358c-.098-2.312-1.055-4.177-2.555-5.38-1.578-1.267-3.647-1.873-5.752-1.895" style="color:#000;fill:currentColor;stroke-linecap:round;stroke-linejoin:round;-inkscape-stroke:none"/>
    <path d="M10.75 7A2.754 2.754 0 0 0 8 9.75a2.754 2.754 0 0 0 2.75 2.75c1.51 0 2.75-1.24 2.75-2.75S12.26 7 10.75 7m0 1.5c.7 0 1.25.55 1.25 1.25S11.45 11 10.75 11A1.244 1.244 0 0 1 9.5 9.75a1.244 1.244 0 0 1 1.25-1.25" style="color:#000;fill:currentColor;stroke-linecap:round;stroke-linejoin:round;-inkscape-stroke:none"/>
    <path d="M17.877 14.434a.75.75 0 0 0-.75.752.75.75 0 0 0 .752.748h.299a.75.75 0 0 0 .75-.752.75.75 0 0 0-.752-.748zM17.877 19.934a.75.75 0 0 0-.75.752.75.75 0 0 0 .752.748h.299a.75.75 0 0 0 .75-.752.75.75 0 0 0-.752-.748z" style="color:#000;fill:#000;stroke-linecap:round;stroke-linejoin:round;-inkscape-stroke:none" transform="translate(-7.277 -8.184)"/>
    <path d="M17.877 14.434a.75.75 0 0 0-.75.752.75.75 0 0 0 .752.748h.299a.75.75 0 0 0 .75-.752.75.75 0 0 0-.752-.748zM17.877 19.934a.75.75 0 0 0-.75.752.75.75 0 0 0 .752.748h.299a.75.75 0 0 0 .75-.752.75.75 0 0 0-.752-.748z" style="color:#000;fill:#000;stroke-linecap:round;stroke-linejoin:round;-inkscape-stroke:none" transform="rotate(90 18.48 10.203)"/>
    <path d="M17.877 14.434a.75.75 0 0 0-.75.752.75.75 0 0 0 .752.748h.299a.75.75 0 0 0 .75-.752.75.75 0 0 0-.752-.748zM17.877 19.934a.75.75 0 0 0-.75.752.75.75 0 0 0 .752.748h.299a.75.75 0 0 0 .75-.752.75.75 0 0 0-.752-.748z" style="color:#000;fill:#000;stroke-linecap:round;stroke-linejoin:round;-inkscape-stroke:none" transform="rotate(45 24.267 5.057)"/>
    <path d="M17.877 14.434a.75.75 0 0 0-.75.752.75.75 0 0 0 .752.748h.299a.75.75 0 0 0 .75-.752.75.75 0 0 0-.752-.748zM17.877 19.934a.75.75 0 0 0-.75.752.75.75 0 0 0 .752.748h.299a.75.75 0 0 0 .75-.752.75.75 0 0 0-.752-.748z" style="color:#000;fill:#000;stroke-linecap:round;stroke-linejoin:round;-inkscape-stroke:none" transform="rotate(135 16.084 12.335)"/>
</svg>
