<svg xmlns="http://www.w3.org/2000/svg" width="24" height="24" fill="none" stroke-width="1.5" viewBox="0 0 24 24">
    <path d="M11.19 1.25c-2.889-.03-5.17.899-6.688 2.498C2.983 5.348 2.25 7.565 2.25 10c0 2.478.986 4.213 1.928 5.592.94 1.374 1.765 2.41 1.89 3.617V22a.75.75 0 0 0 .75.75.75.75 0 0 0 .75-.75v-2.857l-.004-.075c-.177-1.766-1.256-3.016-2.148-4.322S3.75 12.093 3.75 10c0-2.136.631-3.947 1.84-5.219C6.798 3.51 8.608 2.723 11.174 2.75c1.823.019 3.572.556 4.83 1.564 1.257 1.01 2.064 2.46 2.064 4.543a.75.75 0 0 0 .118.403l2.027 3.187c-.05.725-.32 1-.652 1.174-.364.19-.743.201-.743.201a.75.75 0 0 0-.746.82s.11 1.304-.306 2.55c-.208.622-.536 1.204-1.04 1.626-.503.422-1.19.717-2.27.717a.75.75 0 0 0-.75.75V22a.75.75 0 0 0 .75.75.75.75 0 0 0 .75-.75v-1.082c.999-.13 1.866-.432 2.483-.95.775-.649 1.231-1.496 1.5-2.302a7.3 7.3 0 0 0 .383-2.539c.264-.048.34.006.686-.176.727-.38 1.492-1.284 1.492-2.666a.75.75 0 0 0-.117-.402l-2.137-3.358c-.098-2.312-1.055-4.177-2.555-5.38-1.578-1.267-3.647-1.873-5.752-1.895" style="color:#000;fill:currentColor;stroke-linecap:round;stroke-linejoin:round;-inkscape-stroke:none"/>
    <path d="M11 7.25A2.754 2.754 0 0 0 8.25 10 2.754 2.754 0 0 0 11 12.75c1.51 0 2.75-1.24 2.75-2.75S12.51 7.25 11 7.25m0 1.5c.7 0 1.25.55 1.25 1.25s-.55 1.25-1.25 1.25A1.244 1.244 0 0 1 9.75 10 1.245 1.245 0 0 1 11 8.75" style="color:#000;fill:currentColor;stroke-linecap:round;stroke-linejoin:round;-inkscape-stroke:none"/>
    <path d="m10.98 6.25-.074.002a.75.75 0 0 0-.73.77.75.75 0 0 0 .767.73L11 7.75l.117.004.051.004a.75.75 0 0 0 .805-.692.75.75 0 0 0-.692-.804l-.07-.006-.037-.002-.154-.004zm-2.384.873-.104.09-.027.023-.104.1-.025.025-.014.014a.75.75 0 0 0 .026 1.06.75.75 0 0 0 1.06-.025v-.002l.08-.074.09-.078a.75.75 0 0 0 .076-1.057.75.75 0 0 0-1.058-.076m4.949.123a.75.75 0 0 0-1.06.025.75.75 0 0 0 .025 1.06l.082.077.074.08.004.004a.75.75 0 0 0 1.059.076.75.75 0 0 0 .076-1.058l-.018-.018-.023-.027-.1-.104-.025-.025zM8.113 8.92a.75.75 0 0 0-.838.648l-.004.032-.003.037-.012.152-.002.037-.002.117a.75.75 0 0 0 .73.77.75.75 0 0 0 .768-.733l.004-.097.008-.113.002-.012a.75.75 0 0 0-.65-.838m5.825.144a.75.75 0 0 0-.692.805v.014l.004.117-.002.094a.75.75 0 0 0 .73.77.75.75 0 0 0 .768-.733l.004-.111v-.04l-.004-.154-.002-.037-.002-.033a.75.75 0 0 0-.805-.692m-.706 2.13a.75.75 0 0 0-.513.257l-.053.06-.074.08-.03.026a.75.75 0 0 0-.025 1.06.75.75 0 0 0 1.06.026l.042-.039.025-.025.1-.104.023-.027.067-.074a.75.75 0 0 0-.077-1.059.75.75 0 0 0-.545-.182m-5.076.04a.75.75 0 0 0-.127 1.055l.067.082.023.027.094.11.023.027.035.035a.75.75 0 0 0 1.061.026.75.75 0 0 0 .025-1.06l-.023-.024-.07-.08-.055-.07a.75.75 0 0 0-1.053-.128m2.49.989a.75.75 0 0 0-.84.648.75.75 0 0 0 .651.84l.143.018.037.003.152.012.037.002h.004l.053-.049a1 1 0 0 0 .137.053l.154-.004.037-.002.144-.012a.75.75 0 0 0 .692-.804.75.75 0 0 0-.805-.692l-.125.01-.137.004-.021.023a1 1 0 0 0-.09-.027l-.1-.008z" style="color:#000;fill:currentColor;stroke-linecap:round;stroke-linejoin:round;stroke-dasharray:.3,2;-inkscape-stroke:none"/>
</svg>
