<svg xmlns="http://www.w3.org/2000/svg" width="24" height="24" fill="none" stroke-width="1.5" viewBox="0 0 24 24">
    <path d="M12 1.25C6.072 1.25 1.25 6.072 1.25 12S6.072 22.75 12 22.75 22.75 17.928 22.75 12 17.928 1.25 12 1.25m0 1.5A9.24 9.24 0 0 1 21.25 12 9.24 9.24 0 0 1 12 21.25 9.24 9.24 0 0 1 2.75 12 9.24 9.24 0 0 1 12 2.75" style="color:#000;fill:currentColor;stroke-linecap:round;stroke-linejoin:round;-inkscape-stroke:none"/>
    <path d="M16.436 7.89a.75.75 0 0 0-.17 1.048q.152.21.283.437a.75.75 0 0 0 1.023.273.75.75 0 0 0 .274-1.023 7 7 0 0 0-.364-.562.75.75 0 0 0-1.046-.172M17.998 12.773a.75.75 0 0 0-.914.54 5.26 5.26 0 0 1-3.771 3.771.75.75 0 0 0-.54.914.75.75 0 0 0 .915.54 6.76 6.76 0 0 0 4.85-4.85.75.75 0 0 0-.54-.915" style="color:#000;fill:currentColor;stroke-linecap:round;stroke-linejoin:round;-inkscape-stroke:none"/>
</svg>
