<svg xmlns="http://www.w3.org/2000/svg" width="24" height="24" fill="none" stroke-width="1.5" viewBox="0 0 24 24">
    <path d="M5.992 2.25a.75.75 0 0 0-.75.75v2.25h-2.25a.75.75 0 0 0-.75.75.75.75 0 0 0 .75.75h2.25V9a.75.75 0 0 0 .75.75.75.75 0 0 0 .75-.75V6.75h2.25a.75.75 0 0 0 .75-.75.75.75 0 0 0-.75-.75h-2.25V3a.75.75 0 0 0-.75-.75" style="color:#000;fill:currentColor;stroke-linecap:round;stroke-linejoin:round;-inkscape-stroke:none"/>
    <path d="M13.611 1.37a.75.75 0 0 0-.853.63.75.75 0 0 0 .63.854A9.245 9.245 0 0 1 21.25 12 9.239 9.239 0 0 1 12 21.25a9.245 9.245 0 0 1-9.146-7.861.75.75 0 0 0-.854-.631.75.75 0 0 0-.63.853C2.146 18.784 6.62 22.75 12 22.75c5.928 0 10.75-4.822 10.75-10.75 0-5.38-3.966-9.853-9.139-10.63" style="color:#000;fill:currentColor;stroke-linecap:round;stroke-linejoin:round;-inkscape-stroke:none"/>
    <path d="M16.436 7.89a.75.75 0 0 0-.17 1.048c.101.14.196.286.283.437a.75.75 0 0 0 1.023.273.75.75 0 0 0 .274-1.023 6.783 6.783 0 0 0-.364-.562.75.75 0 0 0-1.046-.172M17.998 12.773a.75.75 0 0 0-.914.54 5.262 5.262 0 0 1-3.771 3.771.75.75 0 0 0-.54.914.75.75 0 0 0 .915.54 6.757 6.757 0 0 0 4.85-4.85.75.75 0 0 0-.54-.915" style="color:#000;fill:currentColor;stroke-linecap:round;stroke-linejoin:round;-inkscape-stroke:none"/>
</svg>
