<svg xmlns="http://www.w3.org/2000/svg" width="24" height="24" fill="none" stroke-width="1.5" viewBox="0 0 24 24">
    <path d="M12 1.25C6.072 1.25 1.25 6.072 1.25 12S6.072 22.75 12 22.75 22.75 17.928 22.75 12 17.928 1.25 12 1.25m0 1.5A9.239 9.239 0 0 1 21.25 12 9.239 9.239 0 0 1 12 21.25 9.239 9.239 0 0 1 2.75 12 9.239 9.239 0 0 1 12 2.75" style="color:#000;fill:currentColor;stroke-linecap:round;stroke-linejoin:round;-inkscape-stroke:none"/>
    <path d="M12 7.25A4.761 4.761 0 0 0 7.25 12 4.761 4.761 0 0 0 12 16.75 4.761 4.761 0 0 0 16.75 12 4.761 4.761 0 0 0 12 7.25m0 1.5A3.239 3.239 0 0 1 15.25 12 3.239 3.239 0 0 1 12 15.25 3.239 3.239 0 0 1 8.75 12 3.239 3.239 0 0 1 12 8.75" style="color:#000;fill:currentColor;stroke-linecap:round;stroke-linejoin:round;-inkscape-stroke:none"/>
    <path d="M8.713 14.352 4.479 18.46a.75.75 0 0 0-.018 1.06.75.75 0 0 0 1.06.018l4.237-4.11a.75.75 0 0 0 .015-1.06.75.75 0 0 0-1.06-.017M15.287 14.352a.75.75 0 0 0-1.06.017.75.75 0 0 0 .015 1.06l4.237 4.11a.75.75 0 0 0 1.06-.018.75.75 0 0 0-.018-1.06zM18.479 4.46l-4.237 4.11a.75.75 0 0 0-.015 1.06.75.75 0 0 0 1.06.018l4.234-4.109a.75.75 0 0 0 .018-1.06.75.75 0 0 0-1.06-.018M4.988 4.25a.75.75 0 0 0-.527.229.75.75 0 0 0 .018 1.06l4.234 4.11a.75.75 0 0 0 1.06-.018.75.75 0 0 0-.015-1.06L5.52 4.46a.75.75 0 0 0-.533-.211" style="color:#000;fill:currentColor;stroke-linecap:round;stroke-linejoin:round;-inkscape-stroke:none"/>
</svg>
