<svg xmlns="http://www.w3.org/2000/svg" width="24" height="24" fill="none" stroke-width="1.5" viewBox="0 0 24 24">
    <path d="M11 5.25a.75.75 0 0 0-.75.75.75.75 0 0 0 .75.75h10a.75.75 0 0 0 .75-.75.75.75 0 0 0-.75-.75ZM11 11.25a.75.75 0 0 0-.75.75.75.75 0 0 0 .75.75h10a.75.75 0 0 0 .75-.75.75.75 0 0 0-.75-.75ZM11 17.25a.75.75 0 0 0-.75.75.75.75 0 0 0 .75.75h10a.75.75 0 0 0 .75-.75.75.75 0 0 0-.75-.75ZM5 4.25a.75.75 0 0 0-.531.219l-2 2a.75.75 0 0 0 0 1.062.75.75 0 0 0 1.062 0l.719-.718V16.86l-.664-.83a.75.75 0 0 0-1.055-.117.75.75 0 0 0-.117 1.055l2 2.5a.75.75 0 0 0 .037.021.75.75 0 0 0 .059.059.75.75 0 0 0 .021.037.75.75 0 0 0 .203.059.75.75 0 0 0 .227.09.75.75 0 0 0 .039.015.75.75 0 0 0 .04-.016.75.75 0 0 0 .226-.09.75.75 0 0 0 .203-.058.75.75 0 0 0 .031-.041.75.75 0 0 0 .049-.055.75.75 0 0 0 .037-.021l2-2.5a.75.75 0 0 0-.117-1.055.75.75 0 0 0-1.055.117l-.664.83V6.813l.719.718a.75.75 0 0 0 1.062 0 .75.75 0 0 0 0-1.062l-2-2A.75.75 0 0 0 5 4.25" style="color:#000;fill:currentColor;stroke-linecap:round;stroke-linejoin:round;-inkscape-stroke:none"/>
</svg>
