<svg xmlns="http://www.w3.org/2000/svg" width="24" height="24" fill="none" stroke-width="1.5" viewBox="0 0 24 24">
    <path d="M6.98 6.252c-3.16.084-5.73 2.622-5.73 5.746 0 2.738 1.97 5.028 4.588 5.606.42.092.857.142 1.305.142a.75.75 0 0 0 .75-.75.75.75 0 0 0-.75-.75q-.509-.002-.98-.107C4.2 15.706 2.75 14.017 2.75 11.998c0-2.304 1.882-4.183 4.27-4.246a.75.75 0 0 0 .73-.77.75.75 0 0 0-.77-.73M10.754 6.791a.75.75 0 0 0-.43.38.75.75 0 0 0 .35 1.003 4.8 4.8 0 0 1 2 1.844.75.75 0 0 0 1.027.261.75.75 0 0 0 .262-1.027 6.25 6.25 0 0 0-2.637-2.428.75.75 0 0 0-.572-.033" style="color:#000;fill:currentColor;stroke-linecap:round;stroke-linejoin:round;-inkscape-stroke:none"/>
    <path d="M16.857 6.25a.75.75 0 0 0-.75.75.75.75 0 0 0 .75.75q.509 0 .98.105c1.963.433 3.413 2.124 3.413 4.143 0 2.343-1.946 4.248-4.393 4.248h-1.714c-2.383 0-4.393-2.221-4.393-4.248 0 0 .002-.178.049-.414s.159-.48.232-.553a.75.75 0 0 0 0-1.062.75.75 0 0 0-1.062 0c-.427.426-.565.933-.643 1.32-.077.387-.076.709-.076.709 0 2.957 2.623 5.748 5.893 5.748h1.714c3.235 0 5.893-2.57 5.893-5.748 0-2.738-1.97-5.03-4.588-5.607a6 6 0 0 0-1.305-.141" style="color:#000;fill:currentColor;stroke-linecap:round;stroke-linejoin:round;-inkscape-stroke:none"/>
    <path d="M3 2.25a.75.75 0 0 0-.531.219.75.75 0 0 0 0 1.062l18 18a.75.75 0 0 0 1.062 0 .75.75 0 0 0 0-1.062l-18-18A.75.75 0 0 0 3 2.25" style="color:#000;fill:currentColor;stroke-linecap:round;stroke-linejoin:round;-inkscape-stroke:none"/>
</svg>
