<svg xmlns="http://www.w3.org/2000/svg" width="24" height="24" fill="none" stroke-width="1.5" viewBox="0 0 24 24">
    <path d="M12 3.25c-4.798 0-8.25 3.807-8.25 7.75v7c0 .783-.65 1.25-1.25 1.25a.75.75 0 0 0-.75.75.75.75 0 0 0 .75.75c1.4 0 2.75-1.133 2.75-2.75v-7c0-3.057 2.748-6.25 6.75-6.25a.75.75 0 0 0 .75-.75.75.75 0 0 0-.75-.75" style="color:#000;fill:currentColor;stroke-linecap:round;-inkscape-stroke:none"/>
    <path d="M12 3.25a.75.75 0 0 0-.75.75.75.75 0 0 0 .75.75c4.002 0 6.75 3.193 6.75 6.25v7c0 1.617 1.35 2.75 2.75 2.75a.75.75 0 0 0 .75-.75.75.75 0 0 0-.75-.75c-.6 0-1.25-.467-1.25-1.25v-7c0-3.943-3.452-7.75-8.25-7.75" style="color:#000;fill:currentColor;stroke-linecap:round;-inkscape-stroke:none"/>
    <path d="M12 13.25c-1.482 0-2.83.29-3.871.81-1.041.521-1.879 1.344-1.879 2.44s.838 1.919 1.879 2.44 2.389.81 3.871.81 2.83-.29 3.871-.81c1.041-.521 1.879-1.344 1.879-2.44s-.838-1.919-1.879-2.44-2.389-.81-3.871-.81m0 1.5c1.28 0 2.43.268 3.2.652.768.385 1.05.813 1.05 1.098s-.282.713-1.05 1.098c-.77.384-1.92.652-3.2.652s-2.43-.268-3.2-.652c-.768-.385-1.05-.813-1.05-1.098s.282-.713 1.05-1.098c.77-.384 1.92-.652 3.2-.652" style="color:#000;fill:currentColor;stroke-linecap:round;stroke-linejoin:round;-inkscape-stroke:none"/>
    <path d="M9.5 8.25c-.974 0-1.822.56-2.379 1.34s-.871 1.799-.871 2.91c0 1.126.323 2.157.895 2.941a.75.75 0 0 0 1.046.164.75.75 0 0 0 .166-1.046c-.354-.487-.607-1.226-.607-2.059 0-.822.244-1.553.592-2.04.347-.486.751-.71 1.158-.71s.81.224 1.158.71c.348.487.592 1.218.592 2.04 0 .387-.053.755-.146 1.086a.75.75 0 0 0 .517.926.75.75 0 0 0 .926-.518 5.5 5.5 0 0 0 .203-1.494c0-1.111-.314-2.13-.871-2.91S10.474 8.25 9.5 8.25" style="color:#000;fill:currentColor;stroke-linecap:round;stroke-linejoin:round;-inkscape-stroke:none"/>
    <path d="M14.5 8.25c-.974 0-1.822.56-2.379 1.34s-.871 1.799-.871 2.91c0 .524.07 1.027.203 1.494a.75.75 0 0 0 .926.518.75.75 0 0 0 .517-.926 4 4 0 0 1-.146-1.086c0-.822.244-1.553.592-2.04.347-.486.751-.71 1.158-.71s.81.224 1.158.71c.348.487.592 1.218.592 2.04 0 .833-.253 1.572-.607 2.059a.75.75 0 0 0 .166 1.046.75.75 0 0 0 1.046-.164c.572-.784.895-1.815.895-2.941 0-1.111-.314-2.13-.871-2.91S15.474 8.25 14.5 8.25M9.5 11.25a.75.75 0 0 0-.75.75v2a.75.75 0 0 0 .75.75.75.75 0 0 0 .75-.75v-2a.75.75 0 0 0-.75-.75" style="color:#000;fill:currentColor;stroke-linecap:round;stroke-linejoin:round;-inkscape-stroke:none"/>
    <path d="M14.5 11.25a.75.75 0 0 0-.75.75v2a.75.75 0 0 0 .75.75.75.75 0 0 0 .75-.75v-2a.75.75 0 0 0-.75-.75" style="color:#000;fill:currentColor;stroke-linecap:round;stroke-linejoin:round;-inkscape-stroke:none"/>
</svg>
