<svg xmlns="http://www.w3.org/2000/svg" width="24" height="24" fill="none" stroke-width="1.5" viewBox="0 0 24 24">
    <path d="M9 5.25a.75.75 0 0 0-.75.75.75.75 0 0 0 .75.75h11a.75.75 0 0 0 .75-.75.75.75 0 0 0-.75-.75ZM4.97 5.25a.75.75 0 0 0-.517.248l-.01.01a.75.75 0 0 0 .055 1.06.75.75 0 0 0 1.059-.056l.011-.012a.75.75 0 0 0-.056-1.059.75.75 0 0 0-.541-.191M4.97 11.25a.75.75 0 0 0-.517.246l-.01.012a.75.75 0 0 0 .055 1.058.75.75 0 0 0 1.059-.054l.01-.012a.75.75 0 0 0-.055-1.059.75.75 0 0 0-.541-.191M6.6 15.85a.75.75 0 0 0-.53.22l-1.468 1.47-.272-.27a.75.75 0 0 0-1.06 0 .75.75 0 0 0 0 1.06l.8.8a.75.75 0 0 0 1.06 0l2-2a.75.75 0 0 0 0-1.06.75.75 0 0 0-.53-.22M9 11.25a.75.75 0 0 0-.75.75.75.75 0 0 0 .75.75h11a.75.75 0 0 0 .75-.75.75.75 0 0 0-.75-.75ZM9 17.25a.75.75 0 0 0-.75.75.75.75 0 0 0 .75.75h11a.75.75 0 0 0 .75-.75.75.75 0 0 0-.75-.75Z" style="color:#000;fill:currentColor;stroke-linecap:round;stroke-linejoin:round;-inkscape-stroke:none"/>
</svg>
