<svg xmlns="http://www.w3.org/2000/svg" width="24" height="24" fill="none" stroke-width="1.5" viewBox="0 0 24 24">
    <path d="M12 1.25c-5.566 0-10.158 4.245-10.697 9.676a.75.75 0 0 0 .672.82.75.75 0 0 0 .82-.672A9.244 9.244 0 0 1 12 2.75c3.8 0 7.054 2.285 8.48 5.55a.75.75 0 0 0 .989.387.75.75 0 0 0 .386-.988A10.757 10.757 0 0 0 12 1.25" style="color:#000;fill:currentColor;stroke-linecap:round;stroke-linejoin:round;-inkscape-stroke:none"/>
    <path d="M22 3.25a.75.75 0 0 0-.75.75v3.25H18a.75.75 0 0 0-.75.75.75.75 0 0 0 .75.75h3.4a1.36 1.36 0 0 0 1.35-1.35V4a.75.75 0 0 0-.75-.75M22.074 12.254a.75.75 0 0 0-.82.672 9.244 9.244 0 0 1-9.205 8.324 9.248 9.248 0 0 1-8.48-5.55.75.75 0 0 0-.987-.387.75.75 0 0 0-.389.988 10.757 10.757 0 0 0 9.856 6.449c5.566 0 10.158-4.245 10.697-9.676a.75.75 0 0 0-.672-.82" style="color:#000;fill:currentColor;stroke-linecap:round;stroke-linejoin:round;-inkscape-stroke:none"/>
    <path d="M2.648 15.25a1.36 1.36 0 0 0-1.35 1.35V20a.75.75 0 0 0 .75.75.75.75 0 0 0 .75-.75v-3.25h3.25a.75.75 0 0 0 .75-.75.75.75 0 0 0-.75-.75z" style="color:#000;fill:currentColor;stroke-linecap:round;stroke-linejoin:round;-inkscape-stroke:none"/>
    <path d="M10.5 6.25a.75.75 0 0 0-.75.75v9.4c0 .737.613 1.35 1.35 1.35h4.4a.75.75 0 0 0 .75-.75.75.75 0 0 0-.75-.75h-4.25V7a.75.75 0 0 0-.75-.75" style="color:#000;fill:currentColor;stroke-linecap:round;-inkscape-stroke:none"/>
    <path d="M13.27 10.3a.75.75 0 0 0-.575.014l-4.5 2a.75.75 0 0 0-.38.99.75.75 0 0 0 .99.382l4.5-2a.75.75 0 0 0 .38-.99.75.75 0 0 0-.415-.395" style="color:#000;fill:currentColor;stroke-linecap:round;stroke-linejoin:round;-inkscape-stroke:none"/>
</svg>
