<svg xmlns="http://www.w3.org/2000/svg" width="24" height="24" fill="none" stroke-width="1.5" viewBox="0 0 24 24">
    <path d="M10.5 6.25a.75.75 0 0 0-.75.75v9.4c0 .737.613 1.35 1.35 1.35h4.4a.75.75 0 0 0 .75-.75.75.75 0 0 0-.75-.75h-4.25V7a.75.75 0 0 0-.75-.75" style="color:#000;fill:currentColor;stroke-linecap:round;-inkscape-stroke:none"/>
    <path d="M13.27 10.3a.75.75 0 0 0-.575.014l-4.5 2a.75.75 0 0 0-.38.99.75.75 0 0 0 .99.382l4.5-2a.75.75 0 0 0 .38-.99.75.75 0 0 0-.415-.395" style="color:#000;fill:currentColor;stroke-linecap:round;stroke-linejoin:round;-inkscape-stroke:none"/>
    <path d="M12 1.25C6.072 1.25 1.25 6.072 1.25 12S6.072 22.75 12 22.75 22.75 17.928 22.75 12 17.928 1.25 12 1.25m0 1.5A9.239 9.239 0 0 1 21.25 12 9.239 9.239 0 0 1 12 21.25 9.239 9.239 0 0 1 2.75 12 9.239 9.239 0 0 1 12 2.75" style="color:#000;fill:currentColor;stroke-linecap:round;stroke-linejoin:round;-inkscape-stroke:none"/>
</svg>
