<svg xmlns="http://www.w3.org/2000/svg" width="24" height="24" fill="none" stroke-width="1.5" viewBox="0 0 24 24">
    <path d="M6.6 11.25a1.36 1.36 0 0 0-1.35 1.35v6.8c0 .737.613 1.35 1.35 1.35h10.8a1.36 1.36 0 0 0 1.35-1.35v-.9a.75.75 0 0 0-.75-.75.75.75 0 0 0-.75.75v.75H6.75v-6.5h4.75a.75.75 0 0 0 .75-.75.75.75 0 0 0-.75-.75ZM12 3.25c-.844 0-1.577.167-2.19.457a.75.75 0 0 0-.357.998.75.75 0 0 0 1 .357c.399-.188.897-.312 1.547-.312 1.392 0 2.112.52 2.592 1.188.48.666.658 1.545.658 2.062v4a.75.75 0 0 0 .75.75.75.75 0 0 0 .75-.75V8a5.11 5.11 0 0 0-.941-2.937c-.72-1-2-1.813-3.809-1.813" style="color:#000;fill:currentColor;stroke-linecap:round;stroke-linejoin:round;-inkscape-stroke:none"/>
    <path d="M16 11.25a.75.75 0 0 0-.75.75.75.75 0 0 0 .75.75h1.25V13a.75.75 0 0 0 .75.75.75.75 0 0 0 .75-.75v-.4a1.36 1.36 0 0 0-1.35-1.35ZM8 7.25a.75.75 0 0 0-.75.75v4a.75.75 0 0 0 .75.75.75.75 0 0 0 .75-.75V8A.75.75 0 0 0 8 7.25" style="color:#000;fill:currentColor;stroke-linecap:round;stroke-linejoin:round;-inkscape-stroke:none"/>
    <path d="M3 2.25a.75.75 0 0 0-.531.219.75.75 0 0 0 0 1.062l18 18a.75.75 0 0 0 1.062 0 .75.75 0 0 0 0-1.062l-18-18A.75.75 0 0 0 3 2.25" style="color:#000;fill:currentColor;stroke-linecap:round;stroke-linejoin:round;-inkscape-stroke:none"/>
</svg>
