<svg xmlns="http://www.w3.org/2000/svg" width="24" height="24" fill="none" stroke-width="1.5" viewBox="0 0 24 24">
    <path d="M12 3.25c-1.808 0-3.089.812-3.809 1.813A5.11 5.11 0 0 0 7.25 8v3.25H6.6a1.36 1.36 0 0 0-1.35 1.35v6.8c0 .737.613 1.35 1.35 1.35h10.8a1.36 1.36 0 0 0 1.35-1.35v-6.8a1.36 1.36 0 0 0-1.35-1.35h-.65V8a5.11 5.11 0 0 0-.941-2.937c-.72-1-2-1.813-3.809-1.813m0 1.5c1.392 0 2.112.52 2.592 1.188.48.666.658 1.545.658 2.062v3.25h-6.5V8c0-.517.178-1.396.658-2.062.48-.667 1.2-1.188 2.592-1.188m-5.25 8h10.5v6.5H6.75Z" style="color:#000;fill:currentColor;stroke-linecap:round;stroke-linejoin:round;-inkscape-stroke:none"/>
</svg>
