<svg xmlns="http://www.w3.org/2000/svg" width="24" height="24" fill="none" stroke-width="1.5" viewBox="0 0 24 24">
    <path d="M15 7.25A4.761 4.761 0 0 0 10.25 12 4.747 4.747 0 0 0 15 16.75 4.761 4.761 0 0 0 19.75 12 4.747 4.747 0 0 0 15 7.25m0 1.5c.637 0 1.192.229 1.691.543l-4.435 4.346c-.293-.487-.506-1.026-.506-1.639A3.239 3.239 0 0 1 15 8.75m2.744 1.611c.293.487.506 1.026.506 1.639A3.239 3.239 0 0 1 15 15.25c-.637 0-1.192-.229-1.691-.543z" style="color:#000;fill:currentColor;stroke-linecap:round;stroke-linejoin:round;-inkscape-stroke:none"/>
    <path d="M7 2.25C5.49 2.25 4.25 3.49 4.25 5v14c0 1.51 1.24 2.75 2.75 2.75h10c1.51 0 2.75-1.24 2.75-2.75v-1a.75.75 0 0 0-.75-.75.75.75 0 0 0-.75.75v1c0 .7-.55 1.25-1.25 1.25H7c-.7 0-1.25-.55-1.25-1.25V5c0-.7.55-1.25 1.25-1.25h10c.7 0 1.25.55 1.25 1.25v1a.75.75 0 0 0 .75.75.75.75 0 0 0 .75-.75V5c0-1.51-1.24-2.75-2.75-2.75Z" style="color:#000;fill:currentColor;stroke-linecap:round;stroke-linejoin:round;-inkscape-stroke:none"/>
</svg>
