<svg xmlns="http://www.w3.org/2000/svg" width="24" height="24" fill="none" stroke-width="1.5" viewBox="0 0 24 24">
    <path d="M13.25 11.5a.75.75 0 0 0-.531.219.75.75 0 0 0 0 1.062l2.969 2.969-2.97 2.969a.75.75 0 0 0 0 1.062.75.75 0 0 0 1.063 0l3.5-3.5a.75.75 0 0 0 0-1.062l-3.5-3.5a.75.75 0 0 0-.531-.219" style="color:#000;fill:currentColor;stroke-linecap:round;stroke-linejoin:round;-inkscape-stroke:none"/>
    <path d="M6.75 4a.75.75 0 0 0-.75.75v7a4.76 4.76 0 0 0 4.75 4.75h6a.75.75 0 0 0 .75-.75.75.75 0 0 0-.75-.75h-6a3.24 3.24 0 0 1-3.25-3.25v-7A.75.75 0 0 0 6.75 4" style="color:#000;fill:currentColor;stroke-linecap:round;stroke-linejoin:round;-inkscape-stroke:none"/>
</svg>
