<svg xmlns="http://www.w3.org/2000/svg" width="24" height="24" fill="none" stroke-width="1.5" viewBox="0 0 24 24">
    <path d="M10.25 11.5a.75.75 0 0 0-.531.219l-3.5 3.5a.75.75 0 0 0 0 1.062l3.5 3.5a.75.75 0 0 0 1.062 0 .75.75 0 0 0 0-1.062L7.812 15.75l2.97-2.969a.75.75 0 0 0 0-1.062.75.75 0 0 0-.532-.219" style="color:#000;fill:currentColor;stroke-linecap:round;stroke-linejoin:round;-inkscape-stroke:none"/>
    <path d="M16.75 4a.75.75 0 0 0-.75.75v7A3.239 3.239 0 0 1 12.75 15h-6a.75.75 0 0 0-.75.75.75.75 0 0 0 .75.75h6a4.761 4.761 0 0 0 4.75-4.75v-7a.75.75 0 0 0-.75-.75" style="color:#000;fill:currentColor;stroke-linecap:round;stroke-linejoin:round;-inkscape-stroke:none"/>
</svg>
