<svg xmlns="http://www.w3.org/2000/svg" width="24" height="24" fill="none" stroke-width="1.5" viewBox="0 0 24 24">
    <path d="m14.969 6.469-3.5 3.5a.75.75 0 0 0 0 1.062.75.75 0 0 0 1.062 0L15.5 8.062l2.969 2.97a.75.75 0 0 0 1.062 0 .75.75 0 0 0 0-1.063l-3.5-3.5a.75.75 0 0 0-1.062 0" style="color:#000;fill:currentColor;stroke-linecap:round;stroke-linejoin:round;-inkscape-stroke:none"/>
    <path d="M15.5 6.25a.75.75 0 0 0-.75.75v6a3.239 3.239 0 0 1-3.25 3.25h-7a.75.75 0 0 0-.75.75.75.75 0 0 0 .75.75h7A4.761 4.761 0 0 0 16.25 13V7a.75.75 0 0 0-.75-.75" style="color:#000;fill:currentColor;stroke-linecap:round;stroke-linejoin:round;-inkscape-stroke:none"/>
</svg>
