<svg xmlns="http://www.w3.org/2000/svg" width="24" height="24" fill="none" stroke-width="1.5" viewBox="0 0 24 24">
    <path d="m7.469 6.469-3.5 3.5a.75.75 0 0 0 0 1.062.75.75 0 0 0 1.062 0L8 8.062l2.969 2.97a.75.75 0 0 0 1.062 0 .75.75 0 0 0 0-1.063l-3.5-3.5a.75.75 0 0 0-1.062 0" style="color:#000;fill:currentColor;stroke-linecap:round;stroke-linejoin:round;-inkscape-stroke:none"/>
    <path d="M8 6.25a.75.75 0 0 0-.75.75v6A4.76 4.76 0 0 0 12 17.75h7a.75.75 0 0 0 .75-.75.75.75 0 0 0-.75-.75h-7A3.24 3.24 0 0 1 8.75 13V7A.75.75 0 0 0 8 6.25" style="color:#000;fill:currentColor;stroke-linecap:round;stroke-linejoin:round;-inkscape-stroke:none"/>
</svg>
