<svg xmlns="http://www.w3.org/2000/svg" width="24" height="24" fill="none" stroke-width="1.5" viewBox="0 0 24 24">
    <path d="M10.25 4a.75.75 0 0 0-.531.219l-3.5 3.5a.75.75 0 0 0 0 1.062l3.5 3.5a.75.75 0 0 0 1.062 0 .75.75 0 0 0 0-1.062L7.812 8.25l2.97-2.969a.75.75 0 0 0 0-1.062A.75.75 0 0 0 10.25 4" style="color:#000;fill:currentColor;stroke-linecap:round;stroke-linejoin:round;-inkscape-stroke:none"/>
    <path d="M6.75 7.5a.75.75 0 0 0-.75.75.75.75 0 0 0 .75.75h6A3.24 3.24 0 0 1 16 12.25v7a.75.75 0 0 0 .75.75.75.75 0 0 0 .75-.75v-7a4.76 4.76 0 0 0-4.75-4.75Z" style="color:#000;fill:currentColor;stroke-linecap:round;stroke-linejoin:round;-inkscape-stroke:none"/>
</svg>
