<svg xmlns="http://www.w3.org/2000/svg" width="24" height="24" fill="none" stroke-width="1.5" viewBox="0 0 24 24">
    <path d="M12 12.75a.75.75 0 0 0-.531.219.75.75 0 0 0 0 1.062l3.5 3.5a.75.75 0 0 0 1.062 0l3.5-3.5a.75.75 0 0 0 0-1.062.75.75 0 0 0-1.062 0L15.5 15.938l-2.969-2.97A.75.75 0 0 0 12 12.75" style="color:#000;fill:currentColor;stroke-linecap:round;stroke-linejoin:round;-inkscape-stroke:none"/>
    <path d="M4.5 6.25a.75.75 0 0 0-.75.75.75.75 0 0 0 .75.75h7A3.239 3.239 0 0 1 14.75 11v6a.75.75 0 0 0 .75.75.75.75 0 0 0 .75-.75v-6a4.761 4.761 0 0 0-4.75-4.75z" style="color:#000;fill:currentColor;stroke-linecap:round;stroke-linejoin:round;-inkscape-stroke:none"/>
</svg>
