<svg xmlns="http://www.w3.org/2000/svg" width="24" height="24" fill="none" stroke-width="1.5" viewBox="0 0 24 24">
    <path d="M13.25 4a.75.75 0 0 0-.531.219.75.75 0 0 0 0 1.062l2.969 2.969-2.97 2.969a.75.75 0 0 0 0 1.062.75.75 0 0 0 1.063 0l3.5-3.5a.75.75 0 0 0 0-1.062l-3.5-3.5A.75.75 0 0 0 13.25 4" style="color:#000;fill:currentColor;stroke-linecap:round;stroke-linejoin:round;-inkscape-stroke:none"/>
    <path d="M10.75 7.5A4.761 4.761 0 0 0 6 12.25v7a.75.75 0 0 0 .75.75.75.75 0 0 0 .75-.75v-7A3.239 3.239 0 0 1 10.75 9h6a.75.75 0 0 0 .75-.75.75.75 0 0 0-.75-.75Z" style="color:#000;fill:currentColor;stroke-linecap:round;stroke-linejoin:round;-inkscape-stroke:none"/>
</svg>
