<svg xmlns="http://www.w3.org/2000/svg" width="24" height="24" fill="none" stroke-width="1.5" viewBox="0 0 24 24">
    <path d="M7.94 2.328a10.247 10.247 0 0 0-5.69 9.178c0 5.648 4.596 10.244 10.244 10.244 4.016 0 7.501-2.316 9.178-5.69A.75.75 0 0 0 21 14.978c-4.13 0-7.083-1.013-9.023-2.954C10.036 10.083 9.023 7.13 9.023 3a.75.75 0 0 0-1.084-.672m-.233 1.957c.217 3.703 1.167 6.757 3.209 8.799s5.096 2.992 8.799 3.209c-1.565 2.356-4.174 3.957-7.22 3.957a8.733 8.733 0 0 1-8.745-8.744c0-3.047 1.601-5.656 3.957-7.22" style="color:#000;fill:currentColor;stroke-linecap:round;stroke-linejoin:round;-inkscape-stroke:none"/>
    <path d="M19.6 2.25a1.36 1.36 0 0 0-1.35 1.35v3.963c-.257-.103-.459-.313-.75-.313a2.261 2.261 0 0 0-2.25 2.25 2.261 2.261 0 0 0 2.25 2.25c1.027 0 1.762-.77 2.027-1.717a.75.75 0 0 0 .223-.533V3.75H21a.75.75 0 0 0 .75-.75.75.75 0 0 0-.75-.75Zm-2.1 6.5c.423 0 .75.327.75.75s-.327.75-.75.75a.739.739 0 0 1-.75-.75c0-.423.327-.75.75-.75" style="color:#000;fill:currentColor;stroke-linecap:round;-inkscape-stroke:none"/>
</svg>
