<svg xmlns="http://www.w3.org/2000/svg" width="24" height="24" fill="none" stroke-width="1.5" viewBox="0 0 24 24">
    <path d="M8 17a.5.5 0 1 1 0-1 .5.5 0 0 1 0 1" style="color:#000;fill:currentColor;stroke-width:1.5;stroke-linecap:round;stroke-linejoin:round;-inkscape-stroke:none"/>
    <path d="M8 15.25c-.682 0-1.25.569-1.25 1.25s.568 1.25 1.25 1.25 1.25-.569 1.25-1.25-.568-1.25-1.25-1.25m0 1c.13 0 .25.12.25.25s-.12.25-.25.25-.25-.12-.25-.25.12-.25.25-.25" style="color:#000;fill:currentColor;stroke-linecap:round;stroke-linejoin:round;-inkscape-stroke:none"/>
    <path d="M12 17a.5.5 0 1 1 0-1 .5.5 0 0 1 0 1" style="color:#000;fill:currentColor;stroke-width:1.5;stroke-linecap:round;stroke-linejoin:round;-inkscape-stroke:none"/>
    <path d="M12 15.25c-.682 0-1.25.568-1.25 1.25s.568 1.25 1.25 1.25 1.25-.568 1.25-1.25-.568-1.25-1.25-1.25m0 1c.13 0 .25.12.25.25s-.12.25-.25.25-.25-.12-.25-.25.12-.25.25-.25" style="color:#000;fill:currentColor;stroke-linecap:round;stroke-linejoin:round;-inkscape-stroke:none"/>
    <path d="M16 17a.5.5 0 1 1 0-1 .5.5 0 0 1 0 1" style="color:#000;fill:currentColor;stroke-width:1.5;stroke-linecap:round;stroke-linejoin:round;-inkscape-stroke:none"/>
    <path d="M16 15.25c-.682 0-1.25.568-1.25 1.25s.568 1.25 1.25 1.25 1.25-.568 1.25-1.25-.568-1.25-1.25-1.25m0 1c.13 0 .25.12.25.25s-.12.25-.25.25-.25-.12-.25-.25.12-.25.25-.25" style="color:#000;fill:currentColor;stroke-linecap:round;stroke-linejoin:round;-inkscape-stroke:none"/>
    <path d="M3 2.25c-.958 0-1.75.792-1.75 1.75v16c0 .958.792 1.75 1.75 1.75h18c.958 0 1.75-.792 1.75-1.75V4c0-.958-.792-1.75-1.75-1.75Zm0 1.5h18a.24.24 0 0 1 .25.25v16a.24.24 0 0 1-.25.25H3a.24.24 0 0 1-.25-.25V4A.24.24 0 0 1 3 3.75" style="color:#000;fill:currentColor;stroke-linecap:round;stroke-linejoin:round;-inkscape-stroke:none"/>
    <path d="m3.664 15.83-2 1a.75.75 0 0 0-.334 1.006.75.75 0 0 0 1.006.334l2-1a.75.75 0 0 0 .334-1.006.75.75 0 0 0-1.006-.334M19.764 15.79a.75.75 0 0 0-.434.374.75.75 0 0 0 .334 1.006l2 1a.75.75 0 0 0 1.006-.334.75.75 0 0 0-.334-1.006l-2-1a.75.75 0 0 0-.572-.04" style="color:#000;fill:currentColor;stroke-linecap:round;stroke-linejoin:round;-inkscape-stroke:none"/>
</svg>
