<svg xmlns="http://www.w3.org/2000/svg" width="24" height="24" fill="none" stroke-width="1.5" viewBox="0 0 24 24">
    <path d="M5 8.25a.75.75 0 0 0-.75.75v6.74c0 3.91 3.522 7.01 7.75 7.01s7.75-3.1 7.75-7.01V9a.75.75 0 0 0-.75-.75.75.75 0 0 0-.75.75v6.74c0 3.004-2.746 5.51-6.25 5.51s-6.25-2.506-6.25-5.51V9A.75.75 0 0 0 5 8.25" style="color:#000;fill:currentColor;stroke-linecap:round;stroke-linejoin:round;-inkscape-stroke:none"/>
    <path d="M5 8.25a.75.75 0 0 0-.75.75.75.75 0 0 0 .75.75h3A.75.75 0 0 0 8.75 9 .75.75 0 0 0 8 8.25ZM16 8.25a.75.75 0 0 0-.75.75.75.75 0 0 0 .75.75h3a.75.75 0 0 0 .75-.75.75.75 0 0 0-.75-.75ZM9.926 10.75a.75.75 0 0 0-.75.75v3.56c0 1.505 1.3 2.69 2.824 2.69 1.525 0 2.824-1.185 2.824-2.69V11.5a.75.75 0 0 0-.75-.75.75.75 0 0 0-.75.75v3.56c0 .638-.558 1.19-1.324 1.19s-1.324-.552-1.324-1.19V11.5a.75.75 0 0 0-.75-.75" style="color:#000;fill:currentColor;stroke-linecap:round;stroke-linejoin:round;-inkscape-stroke:none"/>
    <path d="M5 12.25v1.5h5v-1.5zM14 12.25v1.5h5v-1.5z" style="color:#000;fill:currentColor;stroke-linejoin:round;-inkscape-stroke:none"/>
    <path d="M11.46 1.28a.75.75 0 0 0-.448.357l-1.668 3A.75.75 0 0 0 10 5.75h2.725l-1.047 1.887a.75.75 0 0 0 .29 1.02.75.75 0 0 0 1.02-.294l1.668-3A.75.75 0 0 0 14 4.25h-2.725l1.047-1.887a.75.75 0 0 0-.29-1.02.75.75 0 0 0-.571-.064" style="color:#000;fill:currentColor;stroke-linecap:round;stroke-linejoin:round;-inkscape-stroke:none"/>
</svg>
