<svg xmlns="http://www.w3.org/2000/svg" width="24" height="24" fill="none" stroke-width="1.5" viewBox="0 0 24 24">
    <path d="M6.87 11.262a.75.75 0 0 0-.485.308.75.75 0 0 0 .185 1.045l5 3.5a.75.75 0 0 0 .86 0l5-3.5a.75.75 0 0 0 .185-1.045.75.75 0 0 0-1.045-.185L12 14.584l-4.57-3.2a.75.75 0 0 0-.56-.122" style="color:#000;fill:currentColor;stroke-linecap:round;stroke-linejoin:round;-inkscape-stroke:none"/>
    <path d="M12 1.582c-.49 0-.98.132-1.414.393l-8 4.798a2.76 2.76 0 0 0-1.336 2.36V20c0 1.51 1.24 2.75 2.75 2.75h16c1.51 0 2.75-1.24 2.75-2.75V9.133c0-.965-.509-1.863-1.336-2.36l-8-4.798A2.75 2.75 0 0 0 12 1.582m-.643 1.678a1.25 1.25 0 0 1 1.286 0l8 4.8c.377.227.607.633.607 1.073V20c0 .7-.55 1.25-1.25 1.25H4c-.7 0-1.25-.55-1.25-1.25V9.133c0-.44.23-.846.607-1.072z" style="color:#000;fill:currentColor;-inkscape-stroke:none"/>
</svg>
