<svg xmlns="http://www.w3.org/2000/svg" width="24" height="24" fill="none" stroke-width="1.5" viewBox="0 0 24 24">
    <path d="M9 2.25a1 1 0 0 0-.115.047 1 1 0 0 0-.121-.008l-5.59 1.863a1.35 1.35 0 0 0-.924 1.28v14.736c0 .9.924 1.566 1.777 1.281L9 19.79l4.973 1.66c.853.285 1.777-.382 1.777-1.281V5.432c0-.579-.375-1.097-.924-1.28L9.287 2.307l-.05-.018-.028.002A.8.8 0 0 0 9 2.25m-.75 1.79v14.42l-4.5 1.499V5.539Zm1.5 0 4.5 1.501v14.418l-4.5-1.498z" style="color:#000;fill:currentColor;stroke-linecap:round;stroke-linejoin:round;-inkscape-stroke:none"/>
    <path d="m19.973 2.55-5.21 1.74a.75.75 0 0 0-.474.946.75.75 0 0 0 .947.475l5.014-1.67V15a.75.75 0 0 0 .75.75.75.75 0 0 0 .75-.75V3.832c0-.9-.924-1.566-1.777-1.281M17.121 17.371a.75.75 0 0 0-.53.22.75.75 0 0 0 0 1.061l1.593 1.59-1.592 1.592a.75.75 0 0 0 0 1.06.75.75 0 0 0 1.06 0l1.59-1.59 1.592 1.59a.75.75 0 0 0 1.06 0 .75.75 0 0 0 0-1.06l-1.59-1.592 1.59-1.59a.75.75 0 0 0 0-1.06.75.75 0 0 0-1.06 0l-1.592 1.592-1.59-1.592a.75.75 0 0 0-.53-.22" style="color:#000;fill:currentColor;stroke-linecap:round;stroke-linejoin:round;-inkscape-stroke:none"/>
</svg>
