<svg xmlns="http://www.w3.org/2000/svg" width="24" height="24" fill="none" stroke-width="1.5" viewBox="0 0 24 24">
    <path d="M12 12.422c-.298 0-.596.104-.83.312l-7.303 6.493c-.436.388-.514 1.037-.29 1.488.222.45.785.785 1.359.674L12 20.014l7.064 1.375c.574.111 1.137-.223 1.36-.674.223-.451.145-1.1-.291-1.488l-7.303-6.493a1.247 1.247 0 0 0-.83-.312m0 1.582 6.455 5.738-6.217-1.209a1.24 1.24 0 0 0-.476 0l-6.217 1.21zM8.5 1.75c-1.792 0-2.868 1.164-3.314 2.205C4.739 4.996 4.75 6 4.75 6v5a.75.75 0 0 0 .75.75.75.75 0 0 0 .75-.75V6s.01-.746.314-1.455c.304-.709.728-1.295 1.936-1.295 1.5 0 2.045.64 2.393 1.336.348.696.357 1.414.357 1.414v4.5a.75.75 0 0 0 .75.75.75.75 0 0 0 .75-.75V6s.01-1.032-.518-2.086C11.705 2.86 10.5 1.75 8.5 1.75" style="color:#000;fill:currentColor;stroke-linecap:round;stroke-linejoin:round;-inkscape-stroke:none"/>
    <path d="M2 6.75a.75.75 0 0 0-.531.219.75.75 0 0 0 0 1.062l3.5 3.5a.75.75 0 0 0 1.062 0l3.5-3.5a.75.75 0 0 0 0-1.062.75.75 0 0 0-1.062 0L5.5 9.937 2.531 6.97A.75.75 0 0 0 2 6.75" style="color:#000;fill:currentColor;stroke-linecap:round;stroke-linejoin:round;-inkscape-stroke:none"/>
</svg>
