<svg xmlns="http://www.w3.org/2000/svg" width="24" height="24" fill="none" stroke-width="1.5" viewBox="0 0 24 24">
    <path d="M12 12.422c-.298 0-.596.104-.83.312l-7.303 6.493c-.436.388-.514 1.037-.29 1.488.222.45.785.785 1.359.674L12 20.014l7.064 1.375c.574.111 1.137-.223 1.36-.674s.145-1.1-.291-1.488l-7.303-6.493a1.25 1.25 0 0 0-.83-.312m0 1.582 6.455 5.738-6.217-1.209a1.2 1.2 0 0 0-.476 0l-6.217 1.21zM16 5.75s-1.157-.01-2.336.58-2.414 1.92-2.414 4.17a.75.75 0 0 0 .75.75.75.75 0 0 0 .75-.75c0-1.75.765-2.42 1.586-2.83A4.3 4.3 0 0 1 16 7.25h3a.75.75 0 0 0 .75-.75.75.75 0 0 0-.75-.75Z" style="color:#000;fill:currentColor;stroke-linecap:round;stroke-linejoin:round;-inkscape-stroke:none"/>
    <path d="M15.377 3.26a.75.75 0 0 0-.486.304.75.75 0 0 0 .173 1.045L17.711 6.5l-2.647 1.89a.75.75 0 0 0-.173 1.046.75.75 0 0 0 1.045.173l3.5-2.5a.75.75 0 0 0 0-1.218l-3.5-2.5a.75.75 0 0 0-.559-.131" style="color:#000;fill:currentColor;stroke-linecap:round;stroke-linejoin:round;-inkscape-stroke:none"/>
</svg>
