<svg xmlns="http://www.w3.org/2000/svg" width="24" height="24" fill="none" stroke-width="1.5" viewBox="0 0 24 24">
    <path d="M12 12.422c-.298 0-.596.104-.83.312l-7.303 6.493c-.436.388-.514 1.037-.29 1.488.222.45.785.785 1.359.674L12 20.014l7.064 1.375c.574.111 1.137-.223 1.36-.674s.145-1.1-.291-1.488l-7.303-6.493a1.25 1.25 0 0 0-.83-.312m0 1.582 6.455 5.738-6.217-1.209a1.2 1.2 0 0 0-.476 0l-6.217 1.21zM12 3.25a1 1 0 0 0-.082.033.8.8 0 0 0-.188.059 1 1 0 0 0-.128.021l-4 2.5a.75.75 0 0 0-.239 1.035.75.75 0 0 0 1.035.239l2.852-1.782V10.5a.75.75 0 0 0 .75.75.75.75 0 0 0 .75-.75V5.355l2.852 1.782a.75.75 0 0 0 1.035-.239.75.75 0 0 0-.239-1.035l-4-2.5-.035-.006a.8.8 0 0 0-.168-.068l-.064-.014A1 1 0 0 0 12 3.25" style="color:#000;fill:currentColor;stroke-linecap:round;stroke-linejoin:round;-inkscape-stroke:none"/>
</svg>
