<svg xmlns="http://www.w3.org/2000/svg" width="24" height="24" fill="none" stroke-width="1.5" viewBox="0 0 24 24">
    <path d="M12 12.422c-.298 0-.596.104-.83.312l-7.303 6.493c-.436.388-.514 1.037-.29 1.488.222.45.785.785 1.359.674L12 20.014l7.064 1.375c.574.111 1.137-.223 1.36-.674.223-.451.145-1.1-.291-1.488l-7.303-6.493a1.247 1.247 0 0 0-.83-.312m0 1.582 6.455 5.738-6.217-1.209a1.24 1.24 0 0 0-.476 0l-6.217 1.21zM5 5.75a.75.75 0 0 0-.75.75.75.75 0 0 0 .75.75h3s.843.01 1.664.42 1.586 1.08 1.586 2.83a.75.75 0 0 0 .75.75.75.75 0 0 0 .75-.75c0-2.25-1.235-3.58-2.414-4.17C9.157 5.74 8 5.75 8 5.75Z" style="color:#000;fill:currentColor;stroke-linecap:round;stroke-linejoin:round;-inkscape-stroke:none"/>
    <path d="M8.623 3.26a.75.75 0 0 0-.559.13l-3.5 2.5a.75.75 0 0 0 0 1.22l3.5 2.5a.75.75 0 0 0 1.045-.174.75.75 0 0 0-.173-1.045L6.289 6.5l2.647-1.89a.75.75 0 0 0 .173-1.046.75.75 0 0 0-.486-.304" style="color:#000;fill:currentColor;stroke-linecap:round;stroke-linejoin:round;-inkscape-stroke:none"/>
</svg>
