<svg xmlns="http://www.w3.org/2000/svg" width="24" height="24" fill="none" stroke-width="1.5" viewBox="0 0 24 24">
    <path d="M4 4.25C2.49 4.25 1.25 5.49 1.25 7v10c0 1.51 1.24 2.75 2.75 2.75h16c1.51 0 2.75-1.24 2.75-2.75V7c0-1.51-1.24-2.75-2.75-2.75Zm0 1.5h16c.7 0 1.25.55 1.25 1.25v1.25H6a.75.75 0 0 0-.75.75.75.75 0 0 0 .75.75h15.25V17c0 .7-.55 1.25-1.25 1.25H4c-.7 0-1.25-.55-1.25-1.25V7c0-.7.55-1.25 1.25-1.25" style="color:#000;fill:currentColor;stroke-linecap:round;stroke-linejoin:round;-inkscape-stroke:none"/>
    <path d="M17.5 12.25c-.572 0-1.103.217-1.5.572a.75.75 0 0 0-.059 1.06.75.75 0 0 0 1.059.06.74.74 0 0 1 .5-.192c.423 0 .75.327.75.75s-.327.75-.75.75a.74.74 0 0 1-.5-.191.75.75 0 0 0-1.059.058.75.75 0 0 0 .059 1.06c.397.356.928.573 1.5.573a2.26 2.26 0 0 0 2.25-2.25 2.26 2.26 0 0 0-2.25-2.25" style="color:#000;fill:currentColor;stroke-linecap:round;stroke-linejoin:round;-inkscape-stroke:none"/>
    <path d="M15.5 12.25a2.26 2.26 0 0 0-2.25 2.25 2.26 2.26 0 0 0 2.25 2.25c.572 0 1.103-.217 1.5-.572a.75.75 0 0 0 .059-1.06.75.75 0 0 0-1.059-.06.74.74 0 0 1-.5.192.74.74 0 0 1-.75-.75c0-.423.327-.75.75-.75.196 0 .366.072.5.191a.75.75 0 0 0 1.059-.058.75.75 0 0 0-.059-1.06 2.25 2.25 0 0 0-1.5-.573" style="color:#000;fill:currentColor;stroke-linecap:round;stroke-linejoin:round;-inkscape-stroke:none"/>
</svg>
