<svg xmlns="http://www.w3.org/2000/svg" width="24" height="24" fill="none" stroke-width="1.5" viewBox="0 0 24 24">
    <path d="M3.6 2.25A1.36 1.36 0 0 0 2.25 3.6v16.8c0 .737.613 1.35 1.35 1.35h16.8a1.36 1.36 0 0 0 1.35-1.35V3.6a1.36 1.36 0 0 0-1.35-1.35Zm.15 1.5h16.5v16.5H3.75Z" style="color:#000;fill:currentColor;stroke-linecap:round;stroke-linejoin:round;-inkscape-stroke:none"/>
    <path d="m9.705 12.31-7 3a.75.75 0 0 0-.394.985.75.75 0 0 0 .984.394L9.99 13.82l10.7 4.864a.75.75 0 0 0 .994-.373.75.75 0 0 0-.373-.995l-11-5a.75.75 0 0 0-.606-.005M16 5.25c-1.51 0-2.75 1.24-2.75 2.75s1.24 2.75 2.75 2.75S18.75 9.51 18.75 8 17.51 5.25 16 5.25m0 1.5c.7 0 1.25.55 1.25 1.25S16.7 9.25 16 9.25 14.75 8.7 14.75 8 15.3 6.75 16 6.75" style="color:#000;fill:currentColor;stroke-linecap:round;stroke-linejoin:round;-inkscape-stroke:none"/>
</svg>
