<svg xmlns="http://www.w3.org/2000/svg" width="24" height="24" fill="none" stroke-width="1.5" viewBox="0 0 24 24">
    <path d="M13.6 11.25a1.36 1.36 0 0 0-1.35 1.35v7.8c0 .737.613 1.35 1.35 1.35h7.8a1.36 1.36 0 0 0 1.35-1.35v-7.8a1.36 1.36 0 0 0-1.35-1.35Zm.15 1.5h7.5v7.5h-7.5z" style="color:#000;fill:currentColor;stroke-linecap:round;stroke-linejoin:round;-inkscape-stroke:none"/>
    <path d="M19.47 13.75a.75.75 0 0 0-.517.246l-.01.012a.75.75 0 0 0 .055 1.058.75.75 0 0 0 1.059-.054l.01-.012a.75.75 0 0 0-.055-1.059.75.75 0 0 0-.541-.191M16.256 16.291l-3.5 1.2a.75.75 0 0 0-.465.952.75.75 0 0 0 .953.467l3.248-1.115 5.252 1.91a.75.75 0 0 0 .961-.45.75.75 0 0 0-.45-.96l-5.5-2a.75.75 0 0 0-.5-.004" style="color:#000;fill:currentColor;stroke-linecap:round;stroke-linejoin:round;-inkscape-stroke:none"/>
    <path d="M2.6 2.25A1.36 1.36 0 0 0 1.25 3.6v14.8c0 .737.613 1.35 1.35 1.35H10a.75.75 0 0 0 .75-.75.75.75 0 0 0-.75-.75H2.75v-7.5H10a.75.75 0 0 0 .75-.75.75.75 0 0 0-.75-.75H2.75v-5.5h5.97l3.124 2.676c.244.21.557.324.879.324h8.527V9a.75.75 0 0 0 .75.75.75.75 0 0 0 .75-.75V6.6a1.36 1.36 0 0 0-1.35-1.35h-8.62L9.655 2.574a1.35 1.35 0 0 0-.879-.324Z" style="color:#000;fill:currentColor;stroke-linecap:round;stroke-linejoin:round;-inkscape-stroke:none"/>
</svg>
