<svg xmlns="http://www.w3.org/2000/svg" width="24" height="24" fill="none" stroke-width="1.5" viewBox="0 0 24 24">
    <path d="M7.6 6.25A1.36 1.36 0 0 0 6.25 7.6v12.8c0 .737.613 1.35 1.35 1.35h12.8a1.36 1.36 0 0 0 1.35-1.35V7.6a1.36 1.36 0 0 0-1.35-1.35Zm.15 1.5h12.5v12.5H7.75Z" style="color:#000;fill:currentColor;stroke-linecap:round;stroke-linejoin:round;-inkscape-stroke:none"/>
    <path d="M4.6 3.25A1.36 1.36 0 0 0 3.25 4.6V18a.75.75 0 0 0 .75.75.75.75 0 0 0 .75-.75V4.75H18a.75.75 0 0 0 .75-.75.75.75 0 0 0-.75-.75Z" style="color:#000;fill:currentColor;stroke-linecap:round;stroke-linejoin:round;-inkscape-stroke:none"/>
    <path d="M13.295 10.902c-.868-.52-2.045.147-2.045 1.159v3.878c0 1.012 1.177 1.68 2.045 1.159l3.234-1.94c.846-.507.846-1.809 0-2.316zm-.545 1.422L15.541 14l-2.791 1.676Z" style="color:#000;fill:currentColor;stroke-linecap:round;stroke-linejoin:round;-inkscape-stroke:none"/>
</svg>
