<svg xmlns="http://www.w3.org/2000/svg" width="24" height="24" fill="none" stroke-width="1.5" viewBox="0 0 24 24">
    <path d="M7.6 6.25A1.36 1.36 0 0 0 6.25 7.6v12.8c0 .737.613 1.35 1.35 1.35h12.8a1.36 1.36 0 0 0 1.35-1.35V7.6a1.36 1.36 0 0 0-1.35-1.35Zm.15 1.5h12.5v12.5H7.75Z" style="color:#000;fill:currentColor;stroke-linecap:round;stroke-linejoin:round;-inkscape-stroke:none"/>
    <path d="M4.6 3.25A1.36 1.36 0 0 0 3.25 4.6V18a.75.75 0 0 0 .75.75.75.75 0 0 0 .75-.75V4.75H18a.75.75 0 0 0 .75-.75.75.75 0 0 0-.75-.75Z" style="color:#000;fill:currentColor;stroke-linecap:round;stroke-linejoin:round;-inkscape-stroke:none"/>
    <path d="m12.209 14.287-5.445 1.8a.75.75 0 0 0-.477.948.75.75 0 0 0 .95.477l5.2-1.719 8.315 2.914a.75.75 0 0 0 .955-.459.75.75 0 0 0-.459-.955l-8.555-3a.75.75 0 0 0-.484-.006M16.5 9.25a2.261 2.261 0 0 0-2.25 2.25 2.261 2.261 0 0 0 2.25 2.25 2.261 2.261 0 0 0 2.25-2.25 2.261 2.261 0 0 0-2.25-2.25m0 1.5c.423 0 .75.327.75.75s-.327.75-.75.75a.739.739 0 0 1-.75-.75c0-.423.327-.75.75-.75" style="color:#000;fill:currentColor;stroke-linecap:round;stroke-linejoin:round;-inkscape-stroke:none"/>
</svg>
