<svg xmlns="http://www.w3.org/2000/svg" width="24" height="24" fill="none" stroke-width="1.5" viewBox="0 0 24 24">
    <path d="M3.6 2.25A1.36 1.36 0 0 0 2.25 3.6v16.8c0 .737.613 1.35 1.35 1.35H13a.75.75 0 0 0 .75-.75.75.75 0 0 0-.75-.75H3.75V3.75h16.5V13a.75.75 0 0 0 .75.75.75.75 0 0 0 .75-.75V3.6a1.36 1.36 0 0 0-1.35-1.35Z" style="color:#000;fill:currentColor;stroke-linecap:round;stroke-linejoin:round;-inkscape-stroke:none"/>
    <path d="M19 15.25a.75.75 0 0 0-.75.75v2.25H16a.75.75 0 0 0-.75.75.75.75 0 0 0 .75.75h2.25V22a.75.75 0 0 0 .75.75.75.75 0 0 0 .75-.75v-2.25H22a.75.75 0 0 0 .75-.75.75.75 0 0 0-.75-.75h-2.25V16a.75.75 0 0 0-.75-.75M10.27 7.861c-.87-.496-2.02.171-2.02 1.172v5.934c0 1 1.15 1.668 2.02 1.172l5.19-2.967c.876-.5.876-1.844 0-2.344zm-.52 1.432L14.488 12 9.75 14.707Z" style="color:#000;fill:currentColor;stroke-linecap:round;stroke-linejoin:round;-inkscape-stroke:none"/>
</svg>
