<svg xmlns="http://www.w3.org/2000/svg" width="24" height="24" fill="none" stroke-width="1.5" viewBox="0 0 24 24">
    <path d="M7 7.25A4.761 4.761 0 0 0 2.25 12 4.761 4.761 0 0 0 7 16.75 4.761 4.761 0 0 0 11.75 12 4.761 4.761 0 0 0 7 7.25m0 1.5A3.239 3.239 0 0 1 10.25 12 3.239 3.239 0 0 1 7 15.25 3.239 3.239 0 0 1 3.75 12 3.239 3.239 0 0 1 7 8.75M15 7.25c-.958 0-1.656.726-2.086 1.586-.43.86-.664 1.958-.664 3.164 0 1.206.234 2.304.664 3.164.43.86 1.128 1.586 2.086 1.586s1.656-.726 2.086-1.586c.43-.86.664-1.958.664-3.164 0-1.206-.234-2.304-.664-3.164-.43-.86-1.128-1.586-2.086-1.586m0 1.5c.147 0 .45.17.744.758.294.587.506 1.489.506 2.492s-.212 1.905-.506 2.492c-.294.588-.597.758-.744.758-.147 0-.45-.17-.744-.758-.294-.587-.506-1.489-.506-2.492s.212-1.905.506-2.492c.294-.588.597-.758.744-.758M20 7.25c-.543 0-.855.378-1.035.684-.18.305-.3.65-.4 1.056-.203.811-.315 1.855-.315 3.01 0 1.155.112 2.199.314 3.01.102.405.22.751.4 1.056.181.306.493.684 1.036.684s.855-.378 1.035-.684c.18-.305.3-.65.4-1.056.203-.811.315-1.855.315-3.01 0-1.155-.112-2.199-.314-3.01-.102-.405-.22-.751-.4-1.056-.181-.306-.493-.684-1.036-.684m0 2.295c.14.632.25 1.477.25 2.455s-.11 1.823-.25 2.455c-.14-.632-.25-1.477-.25-2.455s.11-1.823.25-2.455" style="color:#000;fill:currentColor;stroke-linecap:round;stroke-linejoin:round;-inkscape-stroke:none"/>
</svg>
