<svg xmlns="http://www.w3.org/2000/svg" width="24" height="24" fill="none" stroke-width="1.5" viewBox="0 0 24 24">
    <path d="M19.73 1.861 13.8 5.25H7A4.76 4.76 0 0 0 2.25 10 4.76 4.76 0 0 0 7 14.75h6.8l5.93 3.389c.87.496 2.02-.171 2.02-1.172V3.033c0-1-1.15-1.668-2.02-1.172m.52 1.432v13.414l-5.5-3.143V6.436ZM7 6.75h6.25v6.5H7A3.24 3.24 0 0 1 3.75 10 3.24 3.24 0 0 1 7 6.75" style="color:#000;fill:currentColor;-inkscape-stroke:none"/>
    <path d="m6.135 13.25.88 6.156a2.74 2.74 0 0 0 2.702 2.344c1.647 0 2.936-1.484 2.703-3.115l-.77-5.385Zm1.73 1.5h2.485l.586 4.096a1.217 1.217 0 0 1-1.22 1.404c-.617 0-1.129-.445-1.216-1.057Z" style="color:#000;fill:currentColor;-inkscape-stroke:none"/>
</svg>
