<svg xmlns="http://www.w3.org/2000/svg" width="24" height="24" fill="none" stroke-width="1.5" viewBox="0 0 24 24">
    <path d="M2.5 2.75a.75.75 0 0 0-.531.22.75.75 0 0 0 0 1.061l3.22 3.219H3a.75.75 0 0 0-.75.75.75.75 0 0 0 .75.75h4a.75.75 0 0 0 .531-.22.75.75 0 0 0 .162-.243A.75.75 0 0 0 7.75 8V4A.75.75 0 0 0 7 3.25a.75.75 0 0 0-.75.75v2.188L3.031 2.97A.75.75 0 0 0 2.5 2.75M11.5 11.75a.75.75 0 0 0-.531.219.75.75 0 0 0 0 1.062l3.5 3.5a.75.75 0 0 0 1.062 0 .75.75 0 0 0 0-1.062l-3.5-3.5a.75.75 0 0 0-.531-.219" style="color:#000;fill:currentColor;stroke-linecap:round;stroke-linejoin:round;-inkscape-stroke:none"/>
    <path d="M14.5 8.25c-4.538 0-8.25 3.62-8.25 8.084 0 1.25.29 2.437.809 3.494.29.593.901.922 1.515.922h11.852c.614 0 1.225-.329 1.515-.922a7.924 7.924 0 0 0 .809-3.494c0-4.465-3.712-8.084-8.25-8.084m0 1.5c3.746 0 6.75 2.948 6.75 6.584a6.41 6.41 0 0 1-.656 2.834c-.02.042-.076.082-.168.082H8.574c-.093 0-.147-.04-.168-.082a6.41 6.41 0 0 1-.656-2.834c0-3.636 3.004-6.584 6.75-6.584" style="color:#000;fill:currentColor;-inkscape-stroke:none"/>
</svg>
