<svg xmlns="http://www.w3.org/2000/svg" width="24" height="24" fill="none" stroke-width="1.5" viewBox="0 0 24 24">
    <path d="M13.97 15.25a.75.75 0 0 0-.517.246l-.01.012a.75.75 0 0 0 .055 1.058.75.75 0 0 0 1.059-.054l.01-.012a.75.75 0 0 0-.055-1.059.75.75 0 0 0-.541-.191M9.97 15.25a.75.75 0 0 0-.517.246l-.01.012a.75.75 0 0 0 .055 1.058.75.75 0 0 0 1.059-.054l.01-.012a.75.75 0 0 0-.055-1.059.75.75 0 0 0-.541-.191" style="color:#000;fill:currentColor;stroke-linecap:round;stroke-linejoin:round;-inkscape-stroke:none"/>
    <path d="M12 1.25C6.072 1.25 1.25 6.072 1.25 12v3A5.76 5.76 0 0 0 7 20.75h10A5.76 5.76 0 0 0 22.75 15v-3c0-5.928-4.822-10.75-10.75-10.75m0 1.5A9.24 9.24 0 0 1 21.25 12v3A4.24 4.24 0 0 1 17 19.25H7A4.24 4.24 0 0 1 2.75 15v-3A9.24 9.24 0 0 1 12 2.75" style="color:#000;fill:currentColor;stroke-linecap:round;stroke-linejoin:round;-inkscape-stroke:none"/>
    <path d="M11 6.25A5.76 5.76 0 0 0 5.25 12v3A5.76 5.76 0 0 0 11 20.75h2A5.76 5.76 0 0 0 18.75 15v-3A5.76 5.76 0 0 0 13 6.25Zm0 1.5h2A4.24 4.24 0 0 1 17.25 12v3A4.24 4.24 0 0 1 13 19.25h-2A4.24 4.24 0 0 1 6.75 15v-3A4.24 4.24 0 0 1 11 7.75" style="color:#000;fill:currentColor;stroke-linecap:round;stroke-linejoin:round;-inkscape-stroke:none"/>
    <path d="M10.418 19.254a.75.75 0 0 0-.504.277l-2 2.5a.75.75 0 0 0 .117 1.055.75.75 0 0 0 1.055-.117l2-2.5a.75.75 0 0 0-.117-1.055.75.75 0 0 0-.551-.16M13.582 19.254a.75.75 0 0 0-.55.16.75.75 0 0 0-.118 1.055l2 2.5a.75.75 0 0 0 1.055.117.75.75 0 0 0 .117-1.055l-2-2.5a.75.75 0 0 0-.504-.277M16.582 19.254a.75.75 0 0 0-.55.16.75.75 0 0 0-.118 1.055l2 2.5a.75.75 0 0 0 1.055.117.75.75 0 0 0 .117-1.055l-2-2.5a.75.75 0 0 0-.504-.277M7.418 19.254a.75.75 0 0 0-.504.277l-2 2.5a.75.75 0 0 0 .117 1.055.75.75 0 0 0 1.055-.117l2-2.5a.75.75 0 0 0-.117-1.055.75.75 0 0 0-.551-.16" style="color:#000;fill:currentColor;stroke-linecap:round;-inkscape-stroke:none"/>
    <path d="M11.785 9.25a2.546 2.546 0 0 0-2.535 2.535c0 .524.441.965.965.965h3.57a.977.977 0 0 0 .965-.965 2.546 2.546 0 0 0-2.535-2.535Zm0 1.5h.43c.37 0 .633.217.816.5H10.97c.183-.283.447-.5.816-.5" style="color:#000;fill:currentColor;stroke-linecap:round;stroke-linejoin:round;-inkscape-stroke:none"/>
</svg>
