<svg xmlns="http://www.w3.org/2000/svg" width="24" height="24" fill="none" stroke-width="1.5" viewBox="0 0 24 24">
    <path d="M12 1.25A3.76 3.76 0 0 0 8.25 5v6A3.76 3.76 0 0 0 12 14.75 3.76 3.76 0 0 0 15.75 11V5A3.76 3.76 0 0 0 12 1.25m0 1.5c1.26 0 2.25.99 2.25 2.25v6c0 1.26-.99 2.25-2.25 2.25S9.75 12.26 9.75 11V5c0-1.26.99-2.25 2.25-2.25" style="color:#000;fill:currentColor;-inkscape-stroke:none"/>
    <path d="M5 9.25a.75.75 0 0 0-.75.75v1c0 4.271 3.479 7.75 7.75 7.75s7.75-3.479 7.75-7.75v-1a.75.75 0 0 0-.75-.75.75.75 0 0 0-.75.75v1c0 3.46-2.79 6.25-6.25 6.25S5.75 14.46 5.75 11v-1A.75.75 0 0 0 5 9.25" style="color:#000;fill:currentColor;stroke-linecap:round;stroke-linejoin:round;-inkscape-stroke:none"/>
    <path d="M12 17.25a.75.75 0 0 0-.75.75v3.25H9a.75.75 0 0 0-.75.75.75.75 0 0 0 .75.75h6a.75.75 0 0 0 .75-.75.75.75 0 0 0-.75-.75h-2.25V18a.75.75 0 0 0-.75-.75" style="color:#000;fill:currentColor;stroke-linecap:round;stroke-linejoin:round;-inkscape-stroke:none"/>
</svg>
