<svg xmlns="http://www.w3.org/2000/svg" width="24" height="24" fill="none" stroke-width="1.5" viewBox="0 0 24 24">
    <path d="M3 2.25a.75.75 0 0 0-.531.219.75.75 0 0 0 0 1.062l18 18a.75.75 0 0 0 1.062 0 .75.75 0 0 0 0-1.062l-18-18A.75.75 0 0 0 3 2.25" style="color:#000;fill:currentColor;stroke-linecap:round;stroke-linejoin:round;-inkscape-stroke:none"/>
    <path d="M12 1.25A3.761 3.761 0 0 0 8.25 5v.5a.75.75 0 0 0 .75.75.75.75 0 0 0 .75-.75V5c0-1.252.998-2.25 2.25-2.25s2.25.998 2.25 2.25v5.5a.75.75 0 0 0 .75.75.75.75 0 0 0 .75-.75V5A3.761 3.761 0 0 0 12 1.25m-3 7a.75.75 0 0 0-.75.75A5.761 5.761 0 0 0 14 14.75a.75.75 0 0 0 .75-.75.75.75 0 0 0-.75-.75A4.239 4.239 0 0 1 9.75 9 .75.75 0 0 0 9 8.25" style="color:#000;fill:currentColor;stroke-linecap:round;stroke-linejoin:round;-inkscape-stroke:none"/>
    <path d="M5 9.25a.75.75 0 0 0-.75.75v1c0 4.271 3.479 7.75 7.75 7.75s7.75-3.479 7.75-7.75v-1a.75.75 0 0 0-.75-.75.75.75 0 0 0-.75.75v1c0 3.46-2.79 6.25-6.25 6.25S5.75 14.46 5.75 11v-1A.75.75 0 0 0 5 9.25" style="color:#000;fill:currentColor;stroke-linecap:round;stroke-linejoin:round;-inkscape-stroke:none"/>
    <path d="M12 17.25a.75.75 0 0 0-.75.75v3.25H9a.75.75 0 0 0-.75.75.75.75 0 0 0 .75.75h6a.75.75 0 0 0 .75-.75.75.75 0 0 0-.75-.75h-2.25V18a.75.75 0 0 0-.75-.75" style="color:#000;fill:currentColor;stroke-linecap:round;stroke-linejoin:round;-inkscape-stroke:none"/>
</svg>
