<svg xmlns="http://www.w3.org/2000/svg" width="24" height="24" fill="none" stroke-width="1.5" viewBox="0 0 24 24">
    <path d="M21 13.25a.75.75 0 0 0-.75.75v4a.75.75 0 0 0 .75.75.75.75 0 0 0 .75-.75v-4a.75.75 0 0 0-.75-.75M21.512 21.441a.75.75 0 0 0-1.059.055l-.01.012a.75.75 0 0 0 .055 1.058.75.75 0 0 0 1.059-.054l.01-.012a.75.75 0 0 0-.055-1.059" style="color:#000;fill:currentColor;stroke-linecap:round;stroke-linejoin:round;-inkscape-stroke:none"/>
    <path d="M10 1.25A3.758 3.758 0 0 0 6.25 5v6A3.758 3.758 0 0 0 10 14.75 3.758 3.758 0 0 0 13.75 11V5A3.758 3.758 0 0 0 10 1.25m0 1.5c1.26 0 2.25.99 2.25 2.25v6c0 1.26-.99 2.25-2.25 2.25S7.75 12.26 7.75 11V5c0-1.26.99-2.25 2.25-2.25" style="color:#000;fill:currentColor;-inkscape-stroke:none"/>
    <path d="M3 9.25a.75.75 0 0 0-.75.75v1c0 4.271 3.479 7.75 7.75 7.75s7.75-3.479 7.75-7.75v-1a.75.75 0 0 0-.75-.75.75.75 0 0 0-.75.75v1c0 3.46-2.79 6.25-6.25 6.25S3.75 14.46 3.75 11v-1A.75.75 0 0 0 3 9.25" style="color:#000;fill:currentColor;stroke-linecap:round;stroke-linejoin:round;-inkscape-stroke:none"/>
    <path d="M10 17.25a.75.75 0 0 0-.75.75v3.25H7a.75.75 0 0 0-.75.75.75.75 0 0 0 .75.75h6a.75.75 0 0 0 .75-.75.75.75 0 0 0-.75-.75h-2.25V18a.75.75 0 0 0-.75-.75" style="color:#000;fill:currentColor;stroke-linecap:round;stroke-linejoin:round;-inkscape-stroke:none"/>
</svg>
