<svg xmlns="http://www.w3.org/2000/svg" width="24" height="24" fill="none" stroke-width="1.5" viewBox="0 0 24 24">
    <path d="M7 18.25a.75.75 0 0 0-.75.75v2.25H5a.75.75 0 0 0-.75.75.75.75 0 0 0 .75.75h14a.75.75 0 0 0 .75-.75.75.75 0 0 0-.75-.75H7.75V19a.75.75 0 0 0-.75-.75M10 15.25a.75.75 0 0 0-.75.75.75.75 0 0 0 .75.75h9a.75.75 0 0 0 .75-.75.75.75 0 0 0-.75-.75ZM12 1.25a.75.75 0 0 0-.75.75.75.75 0 0 0 .75.75h4a.75.75 0 0 0 .75-.75.75.75 0 0 0-.75-.75ZM12 6.25c-1.583 0-2.988.25-4.06 1.016C6.866 8.032 6.25 9.333 6.25 11v2a.75.75 0 0 0 .75.75.75.75 0 0 0 .75-.75v-2c0-1.333.383-2.032 1.06-2.516.678-.483 1.773-.734 3.19-.734a.75.75 0 0 0 .75-.75.75.75 0 0 0-.75-.75" style="color:#000;fill:currentColor;stroke-linecap:round;stroke-linejoin:round;-inkscape-stroke:none"/>
    <path d="M12.6 3.25a1.36 1.36 0 0 0-1.35 1.35v6.8c0 .737.613 1.35 1.35 1.35h2.8a1.36 1.36 0 0 0 1.35-1.35V4.6a1.36 1.36 0 0 0-1.35-1.35Zm.15 1.5h2.5v6.5h-2.5zM7 12.25A3.76 3.76 0 0 0 3.25 16 3.76 3.76 0 0 0 7 19.75 3.76 3.76 0 0 0 10.75 16 3.76 3.76 0 0 0 7 12.25m0 1.5c1.252 0 2.25.998 2.25 2.25S8.252 18.25 7 18.25A2.24 2.24 0 0 1 4.75 16c0-1.252.998-2.25 2.25-2.25" style="color:#000;fill:currentColor;stroke-linecap:round;stroke-linejoin:round;-inkscape-stroke:none"/>
</svg>
