<svg xmlns="http://www.w3.org/2000/svg" width="24" height="24" fill="none" stroke-width="1.5" viewBox="0 0 24 24">
    <path d="M6 1.25C4.49 1.25 3.25 2.49 3.25 4v16c0 1.51 1.24 2.75 2.75 2.75h12c1.51 0 2.75-1.24 2.75-2.75V4c0-1.51-1.24-2.75-2.75-2.75Zm0 1.5h12c.7 0 1.25.55 1.25 1.25v16c0 .7-.55 1.25-1.25 1.25H6c-.7 0-1.25-.55-1.25-1.25V4c0-.7.55-1.25 1.25-1.25" style="color:#000;fill:currentColor;stroke-linecap:round;stroke-linejoin:round;-inkscape-stroke:none"/>
    <path d="M20.068 4.254a.75.75 0 0 0-.548.17l-6 5a.75.75 0 0 0-.096 1.056.75.75 0 0 0 1.056.096l6-5a.75.75 0 0 0 .096-1.056.75.75 0 0 0-.508-.266M20.082 8.254a.75.75 0 0 0-.55.16l-7.5 6a.75.75 0 0 0-.118 1.055.75.75 0 0 0 1.055.117l7.5-6a.75.75 0 0 0 .117-1.055.75.75 0 0 0-.504-.277" style="color:#000;fill:currentColor;stroke-linecap:round;stroke-linejoin:round;-inkscape-stroke:none"/>
</svg>
