<svg xmlns="http://www.w3.org/2000/svg" width="24" height="24" fill="none" stroke-width="1.5" viewBox="0 0 24 24">
    <path d="M7.97 16.25a.75.75 0 0 0-.517.246l-.01.012a.75.75 0 0 0 .055 1.058.75.75 0 0 0 1.059-.054l.01-.012a.75.75 0 0 0-.055-1.059.75.75 0 0 0-.541-.191" style="color:#000;fill:currentColor;stroke-linecap:round;stroke-linejoin:round;-inkscape-stroke:none"/>
    <path d="M3.6 4.25A1.36 1.36 0 0 0 2.25 5.6v14.8c0 .737.613 1.35 1.35 1.35h8.8a1.36 1.36 0 0 0 1.35-1.35V16a.75.75 0 0 0-.75-.75.75.75 0 0 0-.75.75v4.25h-8.5V5.75H8A.75.75 0 0 0 8.75 5 .75.75 0 0 0 8 4.25ZM16 2.25a.75.75 0 0 0-.75.75v10a.75.75 0 0 0 .75.75.75.75 0 0 0 .75-.75V3a.75.75 0 0 0-.75-.75M13 4.25a.75.75 0 0 0-.75.75v6a.75.75 0 0 0 .75.75.75.75 0 0 0 .75-.75V5a.75.75 0 0 0-.75-.75M22 6.25a.75.75 0 0 0-.75.75v2a.75.75 0 0 0 .75.75.75.75 0 0 0 .75-.75V7a.75.75 0 0 0-.75-.75" style="color:#000;fill:currentColor;stroke-linecap:round;stroke-linejoin:round;-inkscape-stroke:none"/>
    <path d="M10 6.25a.75.75 0 0 0-.75.75v2a.75.75 0 0 0 .75.75.75.75 0 0 0 .75-.75V7a.75.75 0 0 0-.75-.75M19 3.25a.75.75 0 0 0-.75.75v8a.75.75 0 0 0 .75.75.75.75 0 0 0 .75-.75V4a.75.75 0 0 0-.75-.75" style="color:#000;fill:currentColor;stroke-linecap:round;stroke-linejoin:round;-inkscape-stroke:none"/>
</svg>
