<svg xmlns="http://www.w3.org/2000/svg" width="24" height="24" fill="none" stroke-width="1.5" viewBox="0 0 24 24">
    <path d="M7 20.25a.75.75 0 0 0-.75.75.75.75 0 0 0 .75.75h10a.75.75 0 0 0 .75-.75.75.75 0 0 0-.75-.75ZM13.5 6.25a.75.75 0 0 0-.75.75v6a.75.75 0 0 0 .75.75.75.75 0 0 0 .75-.75v-1.719l.506-.576 1.6 2.68a.75.75 0 0 0 1.029.26.75.75 0 0 0 .26-1.03l-1.85-3.097 1.77-2.024a.75.75 0 0 0-.07-1.058.75.75 0 0 0-1.06.07l-2.128 2.433-.057.065V7a.75.75 0 0 0-.75-.75M9.916 6.375a.75.75 0 0 0-1.041.209l-3 4.5A.75.75 0 0 0 6.5 12.25h2.75V13a.75.75 0 0 0 .75.75.75.75 0 0 0 .75-.75v-1.5a.75.75 0 0 0-.75-.75H7.902l2.223-3.334a.75.75 0 0 0-.209-1.041" style="color:#000;fill:currentColor;stroke-linecap:round;stroke-linejoin:round;-inkscape-stroke:none"/>
    <path d="M2.6 2.25A1.36 1.36 0 0 0 1.25 3.6v12.8c0 .737.613 1.35 1.35 1.35h18.8a1.36 1.36 0 0 0 1.35-1.35V3.6a1.36 1.36 0 0 0-1.35-1.35Zm.15 1.5h18.5v12.5H2.75Z" style="color:#000;fill:currentColor;-inkscape-stroke:none"/>
</svg>
