<svg xmlns="http://www.w3.org/2000/svg" width="24" height="24" fill="none" stroke-width="1.5" viewBox="0 0 24 24">
    <path d="M12 1.25C6.072 1.25 1.25 6.072 1.25 12S6.072 22.75 12 22.75 22.75 17.928 22.75 12 17.928 1.25 12 1.25m0 1.5A9.24 9.24 0 0 1 21.25 12 9.24 9.24 0 0 1 12 21.25 9.24 9.24 0 0 1 2.75 12 9.24 9.24 0 0 1 12 2.75" style="color:#000;fill:currentColor;-inkscape-stroke:none"/>
    <path d="m7.79 2.334-.315 1.467A2.245 2.245 0 0 1 9.25 6c0 1.252-.998 2.25-2.25 2.25a2.244 2.244 0 0 1-2.238-2.01l-1.49.158A3.76 3.76 0 0 0 7 9.75 3.76 3.76 0 0 0 10.75 6a3.76 3.76 0 0 0-2.96-3.666M19.5 11.25a4.26 4.26 0 0 0-4.25 4.25 4.26 4.26 0 0 0 3.645 4.207l.21-1.484A2.744 2.744 0 0 1 16.75 15.5a2.74 2.74 0 0 1 2.75-2.75c.774 0 1.465.316 1.965.826l1.07-1.05A4.25 4.25 0 0 0 19.5 11.25" style="color:#000;fill:currentColor;-inkscape-stroke:none"/>
    <path d="M15.012 7.941a.75.75 0 0 0-1.059.057l-.01.01a.75.75 0 0 0 .055 1.06.75.75 0 0 0 1.059-.056L15.068 9a.75.75 0 0 0-.056-1.059M10 12.25c-1.51 0-2.75 1.24-2.75 2.75s1.24 2.75 2.75 2.75 2.75-1.24 2.75-2.75-1.24-2.75-2.75-2.75m0 1.5c.7 0 1.25.55 1.25 1.25s-.55 1.25-1.25 1.25S8.75 15.7 8.75 15s.55-1.25 1.25-1.25" style="color:#000;fill:currentColor;stroke-linecap:round;stroke-linejoin:round;-inkscape-stroke:none"/>
</svg>
