<svg xmlns="http://www.w3.org/2000/svg" width="24" height="24" fill="none" stroke-width="1.5" viewBox="0 0 24 24">
    <path d="M20 12.5a.5.5 0 1 0 0-1 .5.5 0 0 0 0 1" style="color:#000;fill:currentColor;stroke-width:1.5;stroke-linecap:round;stroke-linejoin:round;-inkscape-stroke:none"/>
    <path d="M20 10.75c-.682 0-1.25.568-1.25 1.25s.568 1.25 1.25 1.25 1.25-.568 1.25-1.25-.568-1.25-1.25-1.25m0 1c.13 0 .25.12.25.25s-.12.25-.25.25-.25-.12-.25-.25.12-.25.25-.25" style="color:#000;fill:currentColor;stroke-linecap:round;stroke-linejoin:round;-inkscape-stroke:none"/>
    <path d="M12 12.5a.5.5 0 1 0 0-1 .5.5 0 0 0 0 1" style="color:#000;fill:currentColor;stroke-width:1.5;stroke-linecap:round;stroke-linejoin:round;-inkscape-stroke:none"/>
    <path d="M12 10.75c-.682 0-1.25.568-1.25 1.25s.568 1.25 1.25 1.25 1.25-.568 1.25-1.25-.568-1.25-1.25-1.25m0 1c.13 0 .25.12.25.25s-.12.25-.25.25-.25-.12-.25-.25.12-.25.25-.25" style="color:#000;fill:currentColor;stroke-linecap:round;stroke-linejoin:round;-inkscape-stroke:none"/>
    <path d="M4 12.5a.5.5 0 1 0 0-1 .5.5 0 0 0 0 1" style="color:#000;fill:currentColor;stroke-width:1.5;stroke-linecap:round;stroke-linejoin:round;-inkscape-stroke:none"/>
    <path d="M4 10.75c-.682 0-1.25.569-1.25 1.25s.568 1.25 1.25 1.25 1.25-.569 1.25-1.25-.568-1.25-1.25-1.25m0 1c.13 0 .25.12.25.25s-.12.25-.25.25-.25-.12-.25-.25.12-.25.25-.25" style="color:#000;fill:currentColor;stroke-linecap:round;stroke-linejoin:round;-inkscape-stroke:none"/>
</svg>
