<svg xmlns="http://www.w3.org/2000/svg" width="24" height="24" fill="none" stroke-width="1.5" viewBox="0 0 24 24">
    <path d="M5 10.25A4.76 4.76 0 0 0 .25 15 4.76 4.76 0 0 0 5 19.75 4.76 4.76 0 0 0 9.75 15 4.76 4.76 0 0 0 5 10.25m0 1.5A3.24 3.24 0 0 1 8.25 15 3.24 3.24 0 0 1 5 18.25 3.24 3.24 0 0 1 1.75 15 3.24 3.24 0 0 1 5 11.75M17 4.25a.75.75 0 0 0-.531.219l-1 1a.75.75 0 0 0-.18.767l3 9a.75.75 0 0 0 .947.475.75.75 0 0 0 .475-.947l-2.854-8.56.674-.673a.75.75 0 0 0 0-1.062A.75.75 0 0 0 17 4.25" style="color:#000;fill:currentColor;stroke-linecap:round;stroke-linejoin:round;-inkscape-stroke:none"/>
    <path d="M11.5 7.75a.75.75 0 0 0-.416.125l-4.5 3a.75.75 0 0 0-.209 1.041.75.75 0 0 0 1.041.209l4.31-2.875H16a.75.75 0 0 0 .75-.75.75.75 0 0 0-.75-.75Z" style="color:#000;fill:currentColor;stroke-linecap:round;stroke-linejoin:round;-inkscape-stroke:none"/>
    <path d="M16.406 7.756a.75.75 0 0 0-.498.283l-3.5 4.5a.8.8 0 0 0-.105.182l-.81 2.029H5.5a.75.75 0 0 0-.75.75.75.75 0 0 0 .75.75H12a.75.75 0 0 0 .697-.47l.96-2.403 3.435-4.416a.75.75 0 0 0-.131-1.053.75.75 0 0 0-.555-.152M5 8.113c-1.403 0-2.805.43-3.95 1.287a.75.75 0 0 0-.15 1.05.75.75 0 0 0 1.05.15c1.711-1.284 4.389-1.284 6.1 0a.75.75 0 0 0 1.05-.15.75.75 0 0 0-.15-1.05C7.804 8.542 6.402 8.113 5 8.113" style="color:#000;fill:currentColor;stroke-linecap:round;stroke-linejoin:round;-inkscape-stroke:none"/>
    <path d="M19 10.25A4.76 4.76 0 0 0 14.25 15 4.76 4.76 0 0 0 19 19.75 4.76 4.76 0 0 0 23.75 15 4.76 4.76 0 0 0 19 10.25m0 1.5A3.24 3.24 0 0 1 22.25 15 3.24 3.24 0 0 1 19 18.25 3.24 3.24 0 0 1 15.75 15 3.24 3.24 0 0 1 19 11.75" style="color:#000;fill:currentColor;stroke-linecap:round;stroke-linejoin:round;-inkscape-stroke:none"/>
</svg>
