<svg xmlns="http://www.w3.org/2000/svg" width="24" height="24" fill="none" stroke-width="1.5" viewBox="0 0 24 24">
    <path d="M12 1.25c-4.824 0-8.75 3.926-8.75 8.75v4c0 4.824 3.926 8.75 8.75 8.75s8.75-3.926 8.75-8.75V9c0-4.271-3.479-7.75-7.75-7.75Zm0 1.5h1c3.46 0 6.25 2.79 6.25 6.25v5A7.24 7.24 0 0 1 12 21.25 7.24 7.24 0 0 1 4.75 14v-4A7.24 7.24 0 0 1 12 2.75" style="color:#000;fill:currentColor;stroke-linecap:round;-inkscape-stroke:none"/>
    <path d="M12 1.25a.75.75 0 0 0-.75.75v6.4c0 .737.613 1.35 1.35 1.35H20a.75.75 0 0 0 .75-.75.75.75 0 0 0-.75-.75h-7.25V2a.75.75 0 0 0-.75-.75" style="color:#000;fill:currentColor;stroke-linecap:round;-inkscape-stroke:none"/>
</svg>
