<svg xmlns="http://www.w3.org/2000/svg" width="24" height="24" fill="none" stroke-width="1.5" viewBox="0 0 24 24">
    <path d="M11 1.25C6.729 1.25 3.25 4.729 3.25 9v5c0 4.824 3.926 8.75 8.75 8.75s8.75-3.926 8.75-8.75v-4c0-4.824-3.926-8.75-8.75-8.75Zm0 1.5h1A7.24 7.24 0 0 1 19.25 10v4A7.24 7.24 0 0 1 12 21.25 7.24 7.24 0 0 1 4.75 14V9c0-3.46 2.79-6.25 6.25-6.25" style="color:#000;fill:currentColor;stroke-linecap:round;-inkscape-stroke:none"/>
    <path d="M12 1.25a.75.75 0 0 0-.75.75v6.25H4a.75.75 0 0 0-.75.75.75.75 0 0 0 .75.75h7.4a1.36 1.36 0 0 0 1.35-1.35V2a.75.75 0 0 0-.75-.75" style="color:#000;fill:currentColor;stroke-linecap:round;-inkscape-stroke:none"/>
</svg>
