<svg xmlns="http://www.w3.org/2000/svg" width="24" height="24" fill="none" stroke-width="1.5" viewBox="0 0 24 24">
    <path d="M7 17.25a.75.75 0 0 0-.75.75.75.75 0 0 0 .75.75h7a.75.75 0 0 0 .75-.75.75.75 0 0 0-.75-.75h-3.5zM7 13.25a.75.75 0 0 0-.75.75.75.75 0 0 0 .75.75h1a.75.75 0 0 0 .75-.75.75.75 0 0 0-.75-.75h-.5ZM7 9.25a.75.75 0 0 0-.75.75.75.75 0 0 0 .75.75h3a.75.75 0 0 0 .75-.75.75.75 0 0 0-.75-.75H8.5ZM7 1.25a.75.75 0 0 0-.75.75.75.75 0 0 0 .75.75h9.19l4.06 4.06V19a.75.75 0 0 0 .75.75.75.75 0 0 0 .75-.75V6.5a.75.75 0 0 0-.219-.531l-4.5-4.5a.75.75 0 0 0-.531-.219Z" style="color:#000;fill:currentColor;stroke-linecap:round;stroke-linejoin:round;-inkscape-stroke:none"/>
    <path d="M4.5 4.25A2.261 2.261 0 0 0 2.25 6.5v14a2.261 2.261 0 0 0 2.25 2.25h12a2.261 2.261 0 0 0 2.25-2.25V8.748c0-.358-.142-.7-.395-.953a.75.75 0 0 0 0-.002l-3.148-3.148h-.002a1.35 1.35 0 0 0-.953-.395Zm0 1.5h9.688l3.062 3.06V20.5c0 .423-.327.75-.75.75h-12a.739.739 0 0 1-.75-.75v-14c0-.423.327-.75.75-.75" style="color:#000;fill:currentColor;stroke-linecap:round;stroke-linejoin:round;-inkscape-stroke:none"/>
    <path d="M14 4.25a.75.75 0 0 0-.75.75v3.4c0 .737.613 1.35 1.35 1.35H18a.75.75 0 0 0 .75-.75.75.75 0 0 0-.75-.75h-3.25V5a.75.75 0 0 0-.75-.75" style="color:#000;fill:currentColor;stroke-linecap:round;stroke-linejoin:round;-inkscape-stroke:none"/>
</svg>
