<svg xmlns="http://www.w3.org/2000/svg" width="24" height="24" fill="none" stroke-width="1.5" viewBox="0 0 24 24">
    <path d="M4.992 15.25a.75.75 0 0 0-.75.75v2.25h-2.25a.75.75 0 0 0-.75.75.75.75 0 0 0 .75.75h2.25V22a.75.75 0 0 0 .75.75.75.75 0 0 0 .75-.75v-2.25h2.25a.75.75 0 0 0 .75-.75.75.75 0 0 0-.75-.75h-2.25V16a.75.75 0 0 0-.75-.75M7 1.25a.75.75 0 0 0-.75.75.75.75 0 0 0 .75.75h9.19l4.06 4.06V19a.75.75 0 0 0 .75.75.75.75 0 0 0 .75-.75V6.5a.75.75 0 0 0-.219-.531l-4.5-4.5a.75.75 0 0 0-.531-.219Z" style="color:#000;fill:currentColor;stroke-linecap:round;stroke-linejoin:round;-inkscape-stroke:none"/>
    <path d="M4.5 4.25A2.26 2.26 0 0 0 2.25 6.5V13a.75.75 0 0 0 .75.75.75.75 0 0 0 .75-.75V6.5c0-.423.327-.75.75-.75h9.688l3.062 3.06V20.5c0 .423-.327.75-.75.75H11a.75.75 0 0 0-.75.75.75.75 0 0 0 .75.75h5.5a2.26 2.26 0 0 0 2.25-2.25V8.748c0-.358-.142-.7-.395-.953v-.002l-3.148-3.148h-.002a1.35 1.35 0 0 0-.953-.395Z" style="color:#000;fill:currentColor;stroke-linecap:round;stroke-linejoin:round;-inkscape-stroke:none"/>
    <path d="M14 4.25a.75.75 0 0 0-.75.75v3.4c0 .737.613 1.35 1.35 1.35H18a.75.75 0 0 0 .75-.75.75.75 0 0 0-.75-.75h-3.25V5a.75.75 0 0 0-.75-.75" style="color:#000;fill:currentColor;stroke-linecap:round;stroke-linejoin:round;-inkscape-stroke:none"/>
</svg>
