<svg xmlns="http://www.w3.org/2000/svg" width="24" height="24" fill="none" stroke-width="1.5" viewBox="0 0 24 24">
    <path d="M19 6.25a.75.75 0 0 0-.75.75v2.25H16a.75.75 0 0 0-.75.75.75.75 0 0 0 .75.75h2.25V13a.75.75 0 0 0 .75.75.75.75 0 0 0 .75-.75v-2.25H22a.75.75 0 0 0 .75-.75.75.75 0 0 0-.75-.75h-2.25V7a.75.75 0 0 0-.75-.75M11.854 2.264l-5 1A.75.75 0 0 0 6.25 4v11.25H4c-1.51 0-2.75 1.24-2.75 2.75v1c0 1.51 1.24 2.75 2.75 2.75h1c1.51 0 2.75-1.24 2.75-2.75V8.615l4.396-.879A.75.75 0 0 0 12.75 7V3a.75.75 0 0 0-.896-.736m-.604 1.652v2.469l-3.5.699V4.615zM4 16.75h2.25V19c0 .7-.55 1.25-1.25 1.25H4c-.7 0-1.25-.55-1.25-1.25v-1c0-.7.55-1.25 1.25-1.25" style="color:#000;fill:currentColor;stroke-linecap:round;stroke-linejoin:round;-inkscape-stroke:none"/>
</svg>
