<svg xmlns="http://www.w3.org/2000/svg" width="24" height="24" fill="none" stroke-width="1.5" viewBox="0 0 24 24">
    <path d="m19.865 2.262-11 2A.75.75 0 0 0 8.25 5v11a.75.75 0 0 0 .75.75.75.75 0 0 0 .75-.75V5.625l9.5-1.727V14a.75.75 0 0 0 .75.75.75.75 0 0 0 .75-.75V3a.75.75 0 0 0-.885-.738" style="color:#000;fill:currentColor;stroke-linecap:round;stroke-linejoin:round;-inkscape-stroke:none"/>
    <path d="M17 13.25c-1.51 0-2.75 1.24-2.75 2.75v1c0 1.51 1.24 2.75 2.75 2.75h1c1.51 0 2.75-1.24 2.75-2.75v-3a.75.75 0 0 0-.75-.75Zm0 1.5h2.25V17c0 .7-.55 1.25-1.25 1.25h-1c-.7 0-1.25-.55-1.25-1.25v-1c0-.7.55-1.25 1.25-1.25M6 15.25c-1.51 0-2.75 1.24-2.75 2.75v1c0 1.51 1.24 2.75 2.75 2.75h1c1.51 0 2.75-1.24 2.75-2.75v-3a.75.75 0 0 0-.75-.75Zm0 1.5h2.25V19c0 .7-.55 1.25-1.25 1.25H6c-.7 0-1.25-.55-1.25-1.25v-1c0-.7.55-1.25 1.25-1.25" style="color:#000;fill:currentColor;stroke-linecap:round;stroke-linejoin:round;-inkscape-stroke:none"/>
</svg>
