<svg xmlns="http://www.w3.org/2000/svg" width="24" height="24" fill="none" stroke-width="1.5" viewBox="0 0 24 24">
    <path d="M12 1.25C6.072 1.25 1.25 6.072 1.25 12S6.072 22.75 12 22.75 22.75 17.928 22.75 12 17.928 1.25 12 1.25m0 1.5A9.24 9.24 0 0 1 21.25 12 9.24 9.24 0 0 1 12 21.25 9.24 9.24 0 0 1 2.75 12 9.24 9.24 0 0 1 12 2.75" style="color:#000;fill:currentColor;-inkscape-stroke:none"/>
    <path d="M12 4.836c-.627 0-1.253.307-1.578.922l-4.96 9.367c-.377.714-.199 1.548.274 2.055.473.506 1.291.74 2.03.412L12 15.71l4.232 1.88a1.81 1.81 0 0 0 2.032-.411c.473-.507.65-1.341.271-2.055h.002l-4.959-9.367c-.325-.615-.951-.922-1.578-.922m-.254 1.625c.127-.24.379-.24.506 0l4.959 9.365c.082.156.04.237-.045.328s-.163.138-.324.067L12 14.068l-4.844 2.153c-.16.071-.239.025-.324-.067-.085-.091-.125-.172-.043-.328z" style="color:#000;clip-rule:evenodd;fill:currentColor;fill-rule:evenodd;-inkscape-stroke:none"/>
</svg>
