<svg xmlns="http://www.w3.org/2000/svg" width="24" height="24" fill="none" stroke-width="1.5" viewBox="0 0 24 24">
    <path d="M12 1.25C6.072 1.25 1.25 6.072 1.25 12S6.072 22.75 12 22.75 22.75 17.928 22.75 12 17.928 1.25 12 1.25m0 1.5A9.239 9.239 0 0 1 21.25 12 9.239 9.239 0 0 1 12 21.25 9.239 9.239 0 0 1 2.75 12 9.239 9.239 0 0 1 12 2.75" style="color:#000;fill:currentColor;-inkscape-stroke:none"/>
    <path d="M15.955 5.791 5.723 8.553c-.78.21-1.269.91-1.317 1.601-.048.692.34 1.45 1.084 1.766l4.262 1.814 1.512 4.38a1.806 1.806 0 0 0 1.687 1.202c.693 0 1.423-.437 1.688-1.2l3.468-10.014V8.1c.456-1.315-.809-2.671-2.152-2.309m.39 1.45c.263-.072.434.111.344.368l-3.466 10.014c-.058.166-.147.193-.272.193-.125 0-.212-.026-.27-.193l-1.728-5.01-4.877-2.072c-.162-.069-.182-.158-.174-.283.009-.125.041-.21.211-.256z" style="color:#000;clip-rule:evenodd;fill:currentColor;fill-rule:evenodd;-inkscape-stroke:none"/>
</svg>
