<svg xmlns="http://www.w3.org/2000/svg" width="24" height="24" fill="none" stroke-width="1.5" viewBox="0 0 24 24">
    <path d="M7.5 9.59a2.75 2.75 0 0 0-1.426.396l-3.5 2.121A2.75 2.75 0 0 0 1.25 14.46V19c0 1.51 1.24 2.75 2.75 2.75h7c1.51 0 2.75-1.24 2.75-2.75v-4.541c0-.96-.503-1.854-1.324-2.352l-3.5-2.12A2.75 2.75 0 0 0 7.5 9.59m-.648 1.68c.399-.243.897-.243 1.296 0l3.5 2.12c.375.228.602.63.602 1.069V19c0 .7-.55 1.25-1.25 1.25H4c-.7 0-1.25-.55-1.25-1.25v-4.541c0-.438.227-.841.602-1.068z" style="color:#000;fill:currentColor;stroke-linecap:round;stroke-linejoin:round;-inkscape-stroke:none"/>
    <path d="M12 1.59c-.494 0-.988.131-1.426.396l-3.5 2.121A2.75 2.75 0 0 0 5.75 6.46V10a.75.75 0 0 0 .75.75.75.75 0 0 0 .75-.75V6.459c0-.438.227-.841.602-1.068l3.5-2.121c.399-.243.897-.243 1.296 0l3.5 2.12c.375.228.602.63.602 1.069V10a.75.75 0 0 0 .75.75.75.75 0 0 0 .75-.75V6.459c0-.96-.503-1.854-1.324-2.352l-3.5-2.12A2.75 2.75 0 0 0 12 1.59" style="color:#000;fill:currentColor;stroke-linecap:round;stroke-linejoin:round;-inkscape-stroke:none"/>
    <path d="M16.5 9.586a2.75 2.75 0 0 0-1.42.39l-.633.381a.75.75 0 0 0-.258 1.03.75.75 0 0 0 1.03.256l.633-.38c.398-.239.893-.238 1.29.003l3.506 2.125c.375.227.602.63.602 1.068V19c0 .7-.55 1.25-1.25 1.25h-4a.75.75 0 0 0-.75.75.75.75 0 0 0 .75.75h4c1.51 0 2.75-1.24 2.75-2.75v-4.541c0-.96-.503-1.854-1.324-2.352L17.92 9.984a2.75 2.75 0 0 0-1.42-.398M6.6 16.25a1.36 1.36 0 0 0-1.35 1.35V21a.75.75 0 0 0 .75.75.75.75 0 0 0 .75-.75v-3.25h1.5V21a.75.75 0 0 0 .75.75.75.75 0 0 0 .75-.75v-3.4a1.36 1.36 0 0 0-1.35-1.35Z" style="color:#000;fill:currentColor;stroke-linecap:round;stroke-linejoin:round;-inkscape-stroke:none"/>
    <path d="M16 16.25a.75.75 0 0 0-.75.75.75.75 0 0 0 .75.75h1.25V21a.75.75 0 0 0 .75.75.75.75 0 0 0 .75-.75v-3.4a1.36 1.36 0 0 0-1.35-1.35Z" style="color:#000;fill:currentColor;stroke-linecap:round;stroke-linejoin:round;-inkscape-stroke:none"/>
</svg>
