<svg xmlns="http://www.w3.org/2000/svg" width="24" height="24" fill="none" stroke-width="1.5" viewBox="0 0 24 24">
    <path d="M2.6 20.25c-.735 0-1.35.615-1.35 1.35v3.8c0 .735.615 1.35 1.35 1.35h5.8c.735 0 1.35-.615 1.35-1.35v-3.8c0-.735-.615-1.35-1.35-1.35Zm.15 1.5h5.5v3.5h-5.5z" style="color:#000;fill:currentColor;-inkscape-stroke:none" transform="rotate(-90 2 21)"/>
    <path d="M17.6 14.75c-.735 0-1.35.615-1.35 1.35v3.8c0 .735.615 1.35 1.35 1.35h5.8c.735 0 1.35-.615 1.35-1.35v-3.8c0-.735-.615-1.35-1.35-1.35Zm.15 1.5h5.5v3.5h-5.5z" style="color:#000;fill:currentColor;-inkscape-stroke:none" transform="rotate(-90 17 15.5)"/>
    <path d="M2.6 9.25c-.735 0-1.35.615-1.35 1.35v3.8c0 .735.615 1.35 1.35 1.35h5.8c.735 0 1.35-.615 1.35-1.35v-3.8c0-.735-.615-1.35-1.35-1.35Zm.15 1.5h5.5v3.5h-5.5z" style="color:#000;fill:currentColor;-inkscape-stroke:none" transform="rotate(-90 2 10)"/>
    <path d="M7 5.75v1.5h3.5c.7 0 1.25.55 1.25 1.25v7c0 .7-.55 1.25-1.25 1.25H7v1.5h3.5c1.51 0 2.75-1.24 2.75-2.75v-7c0-1.51-1.24-2.75-2.75-2.75z" style="color:#000;fill:currentColor;-inkscape-stroke:none"/>
    <path d="M12.5 11.25v1.5H17v-1.5z" style="color:#000;fill:currentColor;-inkscape-stroke:none"/>
</svg>
