<svg xmlns="http://www.w3.org/2000/svg" width="24" height="24" fill="none" stroke-width="1.5" viewBox="0 0 24 24">
    <path d="M3.6 22.75c-.735 0-1.35-.615-1.35-1.35v-3.8c0-.735.615-1.35 1.35-1.35h5.8c.735 0 1.35.615 1.35 1.35v3.8c0 .735-.615 1.35-1.35 1.35zm.15-1.5h5.5v-3.5h-5.5ZM9.1 7.75c-.735 0-1.35-.615-1.35-1.35V2.6c0-.735.615-1.35 1.35-1.35h5.8c.735 0 1.35.615 1.35 1.35v3.8c0 .735-.615 1.35-1.35 1.35zm.15-1.5h5.5v-3.5h-5.5zm5.35 16.5c-.735 0-1.35-.615-1.35-1.35v-3.8c0-.735.615-1.35 1.35-1.35h5.8c.735 0 1.35.615 1.35 1.35v3.8c0 .735-.615 1.35-1.35 1.35zm.15-1.5h5.5v-3.5h-5.5z" style="color:#000;fill:currentColor;-inkscape-stroke:none"/>
    <path d="M5.75 17v-3.5c0-1.51 1.24-2.75 2.75-2.75h7c1.51 0 2.75 1.24 2.75 2.75V17h-1.5v-3.5c0-.7-.55-1.25-1.25-1.25h-7c-.7 0-1.25.55-1.25 1.25V17Z" style="color:#000;fill:currentColor;-inkscape-stroke:none"/>
    <path d="M11.25 11.5V7h1.5v4.5z" style="color:#000;fill:currentColor;-inkscape-stroke:none"/>
</svg>
