<svg xmlns="http://www.w3.org/2000/svg" width="24" height="24" fill="none" stroke-width="1.5" viewBox="0 0 24 24">
    <path d="M22.75 20.4c0 .735-.615 1.35-1.35 1.35h-3.8c-.735 0-1.35-.615-1.35-1.35v-5.8c0-.735.615-1.35 1.35-1.35h3.8c.735 0 1.35.615 1.35 1.35zm-1.5-.15v-5.5h-3.5v5.5zM7.75 14.9c0 .735-.615 1.35-1.35 1.35H2.6c-.735 0-1.35-.615-1.35-1.35V9.1c0-.735.615-1.35 1.35-1.35h3.8c.735 0 1.35.615 1.35 1.35zm-1.5-.15v-5.5h-3.5v5.5zM22.75 9.4c0 .735-.615 1.35-1.35 1.35h-3.8c-.735 0-1.35-.615-1.35-1.35V3.6c0-.735.615-1.35 1.35-1.35h3.8c.735 0 1.35.615 1.35 1.35zm-1.5-.15v-5.5h-3.5v5.5z" style="color:#000;fill:currentColor;-inkscape-stroke:none"/>
    <path d="M17 5.75v1.5h-3.5c-.7 0-1.25.55-1.25 1.25v7c0 .7.55 1.25 1.25 1.25H17v1.5h-3.5c-1.51 0-2.75-1.24-2.75-2.75v-7c0-1.51 1.24-2.75 2.75-2.75z" style="color:#000;fill:currentColor;-inkscape-stroke:none"/>
    <path d="M11.5 11.25v1.5H7v-1.5z" style="color:#000;fill:currentColor;-inkscape-stroke:none"/>
</svg>
