<svg xmlns="http://www.w3.org/2000/svg" width="24" height="24" fill="none" stroke-width="1.5" viewBox="0 0 24 24">
    <path d="M15 11.25a.75.75 0 0 0-.75.75v3a.75.75 0 0 0 .75.75.75.75 0 0 0 .75-.75v-3a.75.75 0 0 0-.75-.75M10 2.25a.75.75 0 0 0-.75.75v1.143a3.62 3.62 0 0 0 3.607 3.607c.54 0 .851.168 1.065.393.214.224.328.536.328.857a.75.75 0 0 0 .75.75.75.75 0 0 0 .75-.75c0-.679-.242-1.367-.742-1.893-.5-.525-1.261-.857-2.15-.857a2.096 2.096 0 0 1-2.108-2.107V3a.75.75 0 0 0-.75-.75M18 3.25a.75.75 0 0 0-.75.75v5a.75.75 0 0 0 .75.75.75.75 0 0 0 .75-.75V4a.75.75 0 0 0-.75-.75M18 11.25a.75.75 0 0 0-.75.75v3a.75.75 0 0 0 .75.75.75.75 0 0 0 .75-.75v-3a.75.75 0 0 0-.75-.75" style="color:#000;fill:currentColor;stroke-linecap:round;stroke-linejoin:round;-inkscape-stroke:none"/>
    <path d="M6.6 11.25a1.36 1.36 0 0 0-1.35 1.35v1.8c0 .737.613 1.35 1.35 1.35H15v-1.5H6.75v-1.5H12v-1.5z" style="color:#000;fill:currentColor;-inkscape-stroke:none"/>
    <path d="M5 4.25a.75.75 0 0 0-.531.219.75.75 0 0 0 0 1.062l14 14a.75.75 0 0 0 1.062 0 .75.75 0 0 0 0-1.062l-14-14A.75.75 0 0 0 5 4.25" style="color:#000;fill:currentColor;stroke-linecap:round;stroke-linejoin:round;-inkscape-stroke:none"/>
    <path d="M12 1.25C6.072 1.25 1.25 6.072 1.25 12S6.072 22.75 12 22.75 22.75 17.928 22.75 12 17.928 1.25 12 1.25m0 1.5A9.24 9.24 0 0 1 21.25 12 9.24 9.24 0 0 1 12 21.25 9.24 9.24 0 0 1 2.75 12 9.24 9.24 0 0 1 12 2.75" style="color:#000;fill:currentColor;stroke-linecap:round;stroke-linejoin:round;-inkscape-stroke:none"/>
    <path d="M12 1.25C6.072 1.25 1.25 6.072 1.25 12S6.072 22.75 12 22.75 22.75 17.928 22.75 12 17.928 1.25 12 1.25m0 1.5A9.24 9.24 0 0 1 21.25 12 9.24 9.24 0 0 1 12 21.25 9.24 9.24 0 0 1 2.75 12 9.24 9.24 0 0 1 12 2.75" style="color:#000;fill:currentColor;stroke-linecap:round;stroke-linejoin:round;-inkscape-stroke:none"/>
</svg>
