<svg xmlns="http://www.w3.org/2000/svg" width="24" height="24" fill="none" stroke-width="1.5" viewBox="0 0 24 24">
    <path d="M12 2.25a.75.75 0 0 0-.75.75v5.402c-3.35.392-6 3.145-6 6.598 0 3.719 3.031 6.75 6.75 6.75s6.75-3.031 6.75-6.75c0-3.453-2.65-6.206-6-6.598V3a.75.75 0 0 0-.75-.75m0 7.5A5.239 5.239 0 0 1 17.25 15 5.239 5.239 0 0 1 12 20.25 5.239 5.239 0 0 1 6.75 15 5.239 5.239 0 0 1 12 9.75" style="color:#000;fill:currentColor;stroke-linecap:round;stroke-linejoin:round;-inkscape-stroke:none"/>
    <path d="M9.336 3.33a.75.75 0 0 0-1.006.334.75.75 0 0 0 .334 1.006l6 3a.75.75 0 0 0 1.006-.334.75.75 0 0 0-.334-1.006Z" style="color:#000;fill:currentColor;stroke-linecap:round;stroke-linejoin:round;-inkscape-stroke:none"/>
    <path d="m14.664 3.33-6 3a.75.75 0 0 0-.334 1.006.75.75 0 0 0 1.006.334l6-3a.75.75 0 0 0 .334-1.006.75.75 0 0 0-1.006-.334" style="color:#000;fill:currentColor;stroke-linecap:round;stroke-linejoin:round;-inkscape-stroke:none"/>
</svg>
