<svg xmlns="http://www.w3.org/2000/svg" width="24" height="24" fill="none" stroke-width="1.5" viewBox="0 0 24 24">
    <path d="M8 13.25a.75.75 0 0 0-.75.75.75.75 0 0 0 .75.75h8a.75.75 0 0 0 .75-.75.75.75 0 0 0-.75-.75ZM8 9.25a.75.75 0 0 0-.75.75.75.75 0 0 0 .75.75h2a.75.75 0 0 0 .75-.75.75.75 0 0 0-.75-.75ZM8 17.25a.75.75 0 0 0-.75.75.75.75 0 0 0 .75.75h4a.75.75 0 0 0 .75-.75.75.75 0 0 0-.75-.75Z" style="color:#000;fill:currentColor;stroke-linecap:round;stroke-linejoin:round;-inkscape-stroke:none"/>
    <path d="M10 .25a.75.75 0 0 0-.75.75v1.25H6C4.49 2.25 3.25 3.49 3.25 5v15c0 1.51 1.24 2.75 2.75 2.75h12c1.51 0 2.75-1.24 2.75-2.75V5c0-1.51-1.24-2.75-2.75-2.75h-3.5a.75.75 0 0 0-.75.75.75.75 0 0 0 .75.75H18c.7 0 1.25.55 1.25 1.25v15c0 .7-.55 1.25-1.25 1.25H6c-.7 0-1.25-.55-1.25-1.25V5c0-.7.55-1.25 1.25-1.25h3.25V5a.75.75 0 0 0 .75.75.75.75 0 0 0 .75-.75V1A.75.75 0 0 0 10 .25" style="color:#000;fill:currentColor;stroke-linecap:round;stroke-linejoin:round;-inkscape-stroke:none"/>
</svg>
