<svg xmlns="http://www.w3.org/2000/svg" width="24" height="24" fill="none" stroke-width="1.5" viewBox="0 0 24 24">
    <path d="M3.6 2.25A1.36 1.36 0 0 0 2.25 3.6v16.8c0 .737.613 1.35 1.35 1.35h16.8a1.36 1.36 0 0 0 1.35-1.35V3.6a1.36 1.36 0 0 0-1.35-1.35Zm.15 1.5h16.5v16.5H3.75Z" style="color:#000;fill:currentColor;-inkscape-stroke:none"/>
    <path d="M12 10.75c-.78 0-1.552.127-2.193.57-.642.443-1.057 1.243-1.057 2.18 0 1.14.353 2.039 1.004 2.578.65.54 1.465.672 2.246.672.78 0 1.595-.133 2.246-.672.65-.54 1.004-1.438 1.004-2.578 0-.937-.415-1.737-1.057-2.18-.64-.443-1.412-.57-2.193-.57m0 1.5c.6 0 1.078.123 1.342.305.263.182.408.382.408.945 0 .86-.207 1.211-.46 1.422-.255.21-.69.328-1.29.328-.6 0-1.035-.117-1.29-.328-.253-.21-.46-.562-.46-1.422 0-.563.145-.763.408-.945.264-.182.742-.305 1.342-.305" style="color:#000;fill:currentColor;stroke-linecap:round;stroke-linejoin:round;-inkscape-stroke:none"/>
    <path d="M14 7.25c-1.18 0-2.106.127-2.861.406-.755.28-1.338.739-1.707 1.313C8.693 10.117 8.75 11.5 8.75 13a.75.75 0 0 0 .75.75.75.75 0 0 0 .75-.75c0-1.5.057-2.617.443-3.219.194-.3.455-.53.965-.719.51-.189 1.273-.312 2.342-.312a.75.75 0 0 0 .75-.75.75.75 0 0 0-.75-.75" style="color:#000;fill:currentColor;stroke-linecap:round;stroke-linejoin:round;-inkscape-stroke:none"/>
</svg>
