<svg xmlns="http://www.w3.org/2000/svg" width="24" height="24" fill="none" stroke-width="1.5" viewBox="0 0 24 24">
    <path d="M3 4.25a.75.75 0 0 0-.75.75.75.75 0 0 0 .75.75h12a.75.75 0 0 0 .75-.75.75.75 0 0 0-.75-.75ZM20.787 2.307a.75.75 0 0 0-.818.162l-1.5 1.5a.75.75 0 0 0 0 1.062.75.75 0 0 0 1.062 0l.219-.218V7a.75.75 0 0 0 .75.75.75.75 0 0 0 .75-.75V3a.75.75 0 0 0-.463-.693M20 9.25c-.722 0-1.3.418-1.53.826-.229.409-.22.813-.22.813v.222a.75.75 0 0 0 .75.75.75.75 0 0 0 .75-.75v-.222s.009-.04.03-.076c.02-.037-.058-.063.22-.063.167 0 .164.022.174.035l-1.805 2.809A.75.75 0 0 0 19 14.75h2a.75.75 0 0 0 .75-.75.75.75 0 0 0-.75-.75h-.627l1.162-1.807c.137-.212.255-.53.174-.892-.05-.22-.16-.54-.445-.822-.286-.284-.747-.479-1.264-.479M19.5 18.25a.75.75 0 0 0-.75.75.75.75 0 0 0 .75.75h.5a.24.24 0 0 1 .25.25.24.24 0 0 1-.25.25h-1a.75.75 0 0 0-.75.75.75.75 0 0 0 .75.75h1c.958 0 1.75-.792 1.75-1.75s-.792-1.75-1.75-1.75z" style="color:#000;fill:currentColor;stroke-linecap:round;stroke-linejoin:round;-inkscape-stroke:none"/>
    <path d="M19 16.25a.75.75 0 0 0-.75.75.75.75 0 0 0 .75.75h.5l-.6.8a.75.75 0 0 0 .15 1.05.75.75 0 0 0 1.05-.15l1.5-2a.75.75 0 0 0-.6-1.2ZM3 11.25a.75.75 0 0 0-.75.75.75.75 0 0 0 .75.75h12a.75.75 0 0 0 .75-.75.75.75 0 0 0-.75-.75ZM3 18.25a.75.75 0 0 0-.75.75.75.75 0 0 0 .75.75h12a.75.75 0 0 0 .75-.75.75.75 0 0 0-.75-.75Z" style="color:#000;fill:currentColor;stroke-linecap:round;stroke-linejoin:round;-inkscape-stroke:none"/>
</svg>
