<svg xmlns="http://www.w3.org/2000/svg" width="24" height="24" fill="none" stroke-width="1.5" viewBox="0 0 24 24">
    <path d="M3.6 2.25A1.36 1.36 0 0 0 2.25 3.6v16.8c0 .737.613 1.35 1.35 1.35h16.8a1.36 1.36 0 0 0 1.35-1.35V3.6a1.36 1.36 0 0 0-1.35-1.35Zm.15 1.5h16.5v16.5H3.75Z" style="color:#000;fill:currentColor;-inkscape-stroke:none"/>
    <path d="M12 11.25c-.78 0-1.552.127-2.193.57-.642.443-1.057 1.243-1.057 2.18s.415 1.737 1.057 2.18c.64.443 1.412.57 2.193.57.78 0 1.552-.127 2.193-.57.642-.443 1.057-1.243 1.057-2.18s-.415-1.737-1.057-2.18c-.64-.443-1.412-.57-2.193-.57m0 1.5c.6 0 1.078.123 1.342.305.263.182.408.382.408.945s-.145.763-.408.945c-.264.182-.742.305-1.342.305-.6 0-1.078-.123-1.342-.305-.263-.182-.408-.382-.408-.945s.145-.763.408-.945c.264-.182.742-.305 1.342-.305" style="color:#000;fill:currentColor;stroke-linecap:round;stroke-linejoin:round;-inkscape-stroke:none"/>
    <path d="M12 7.25c-.78 0-1.552.127-2.193.57C9.165 8.263 8.75 9.063 8.75 10s.415 1.737 1.057 2.18c.64.443 1.412.57 2.193.57.78 0 1.552-.127 2.193-.57.642-.443 1.057-1.243 1.057-2.18s-.415-1.737-1.057-2.18c-.64-.443-1.412-.57-2.193-.57m0 1.5c.6 0 1.078.123 1.342.305.263.182.408.382.408.945s-.145.763-.408.945c-.264.182-.742.305-1.342.305-.6 0-1.078-.123-1.342-.305-.263-.182-.408-.382-.408-.945s.145-.763.408-.945c.264-.182.742-.305 1.342-.305" style="color:#000;fill:currentColor;stroke-linecap:round;stroke-linejoin:round;-inkscape-stroke:none"/>
</svg>
