<svg xmlns="http://www.w3.org/2000/svg" width="24" height="24" fill="none" stroke-width="1.5" viewBox="0 0 24 24">
    <path d="M3.6 2.25A1.36 1.36 0 0 0 2.25 3.6v16.8c0 .737.613 1.35 1.35 1.35h16.8a1.36 1.36 0 0 0 1.35-1.35V3.6a1.36 1.36 0 0 0-1.35-1.35Zm.15 1.5h16.5v16.5H3.75Z" style="color:#000;fill:currentColor;-inkscape-stroke:none"/>
    <path d="M13.287 7.307a.75.75 0 0 0-.818.162l-3 3a.75.75 0 0 0 0 1.062.75.75 0 0 0 1.062 0l1.719-1.719V16a.75.75 0 0 0 .75.75.75.75 0 0 0 .75-.75V8a.75.75 0 0 0-.463-.693" style="color:#000;fill:currentColor;stroke-linecap:round;stroke-linejoin:round;-inkscape-stroke:none"/>
</svg>
