<svg xmlns="http://www.w3.org/2000/svg" width="24" height="24" fill="none" stroke-width="1.5" viewBox="0 0 24 24">
    <path d="M3.6 2.25A1.36 1.36 0 0 0 2.25 3.6v16.8c0 .737.613 1.35 1.35 1.35h16.8a1.36 1.36 0 0 0 1.35-1.35V3.6a1.36 1.36 0 0 0-1.35-1.35Zm.15 1.5h16.5v16.5H3.75Z" style="color:#000;fill:currentColor;-inkscape-stroke:none"/>
    <path d="M9.5 7.25a.75.75 0 0 0-.75.75.75.75 0 0 0 .75.75h3.443c-.395.46-.536.536-1.068 1.334C10.832 11.648 9.75 13.75 9.75 16a.75.75 0 0 0 .75.75.75.75 0 0 0 .75-.75c0-1.75.918-3.648 1.875-5.084.957-1.436 1.906-2.385 1.906-2.385A.75.75 0 0 0 14.5 7.25Z" style="color:#000;fill:currentColor;stroke-linecap:round;stroke-linejoin:round;-inkscape-stroke:none"/>
</svg>
