<svg xmlns="http://www.w3.org/2000/svg" width="24" height="24" fill="none" stroke-width="1.5" viewBox="0 0 24 24">
    <path d="M3.6 2.25A1.36 1.36 0 0 0 2.25 3.6v16.8c0 .737.613 1.35 1.35 1.35h16.8a1.36 1.36 0 0 0 1.35-1.35V3.6a1.36 1.36 0 0 0-1.35-1.35Zm.15 1.5h16.5v16.5H3.75Z" style="color:#000;fill:currentColor;-inkscape-stroke:none"/>
    <path d="M13.752 7.293a.75.75 0 0 0-.832.232l-4.5 5.5A.75.75 0 0 0 9 14.25h3.75V16a.75.75 0 0 0 .75.75.75.75 0 0 0 .75-.75v-1.75H15a.75.75 0 0 0 .75-.75.75.75 0 0 0-.75-.75h-.75V8a.75.75 0 0 0-.498-.707M12.75 10.1v2.65h-2.168z" style="color:#000;fill:currentColor;stroke-linecap:round;stroke-linejoin:round;-inkscape-stroke:none"/>
</svg>
