<svg xmlns="http://www.w3.org/2000/svg" width="24" height="24" fill="none" stroke-width="1.5" viewBox="0 0 24 24">
    <path d="M11.482.402 4.164 3.434c-.33.136-.594.4-.73.73L.402 11.482c-.137.331-.137.705 0 1.036l3.032 7.318c.137.33.4.594.73.73l7.318 3.032c.331.137.705.137 1.036 0l7.318-3.032c.33-.137.593-.4.73-.73l3.032-7.318c.137-.331.137-.705 0-1.036l-3.032-7.318a1.35 1.35 0 0 0-.73-.73L12.518.402a1.36 1.36 0 0 0-1.036 0M12 1.811l7.203 2.986L22.19 12l-2.986 7.203L12 22.19l-7.203-2.986L1.81 12l2.986-7.203Z" style="color:#000;fill:currentColor;stroke-linecap:round;stroke-linejoin:round;-inkscape-stroke:none"/>
</svg>
