<svg xmlns="http://www.w3.org/2000/svg" width="24" height="24" fill="none" stroke-width="1.5" viewBox="0 0 24 24">
    <path d="M7 2.25C3.281 2.25.25 5.281.25 9v6c0 3.719 3.031 6.75 6.75 6.75h10c3.719 0 6.75-3.031 6.75-6.75V9c0-3.719-3.031-6.75-6.75-6.75Zm0 1.5h10A5.239 5.239 0 0 1 22.25 9v6A5.239 5.239 0 0 1 17 20.25H7A5.239 5.239 0 0 1 1.75 15V9A5.239 5.239 0 0 1 7 3.75" style="color:#000;fill:currentColor;-inkscape-stroke:none"/>
    <path d="M7 8.25A3.761 3.761 0 0 0 3.25 12 3.761 3.761 0 0 0 7 15.75 3.761 3.761 0 0 0 10.75 12 3.761 3.761 0 0 0 7 8.25m0 1.5c1.252 0 2.25.998 2.25 2.25S8.252 14.25 7 14.25A2.239 2.239 0 0 1 4.75 12c0-1.252.998-2.25 2.25-2.25" style="color:#000;fill:currentColor;-inkscape-stroke:none"/>
    <path d="M12 8.25a.75.75 0 0 0-.75.75v6a.75.75 0 0 0 .75.75.75.75 0 0 0 .75-.75V9.75H15a.75.75 0 0 0 .75-.75.75.75 0 0 0-.75-.75ZM17 8.25a.75.75 0 0 0-.75.75v6a.75.75 0 0 0 .75.75.75.75 0 0 0 .75-.75V9.75H20a.75.75 0 0 0 .75-.75.75.75 0 0 0-.75-.75Z" style="color:#000;fill:currentColor;stroke-linecap:round;stroke-linejoin:round;-inkscape-stroke:none"/>
    <path d="M12 11.25a.75.75 0 0 0-.75.75.75.75 0 0 0 .75.75h2.572a.75.75 0 0 0 .75-.75.75.75 0 0 0-.75-.75zM17 11.25a.75.75 0 0 0-.75.75.75.75 0 0 0 .75.75h2.572a.75.75 0 0 0 .75-.75.75.75 0 0 0-.75-.75z" style="color:#000;fill:currentColor;stroke-linecap:round;stroke-linejoin:round;-inkscape-stroke:none"/>
</svg>
