<svg xmlns="http://www.w3.org/2000/svg" width="24" height="24" fill="none" stroke-width="1.5" viewBox="0 0 24 24">
    <path d="M18 9.25c-1.51 0-2.75 1.24-2.75 2.75s1.24 2.75 2.75 2.75 2.75-1.24 2.75-2.75S19.51 9.25 18 9.25m0 1.5c.7 0 1.25.55 1.25 1.25s-.55 1.25-1.25 1.25-1.25-.55-1.25-1.25.55-1.25 1.25-1.25M18 2.25c-1.51 0-2.75 1.24-2.75 2.75S16.49 7.75 18 7.75 20.75 6.51 20.75 5 19.51 2.25 18 2.25m0 1.5c.7 0 1.25.55 1.25 1.25S18.7 6.25 18 6.25 16.75 5.7 16.75 5 17.3 3.75 18 3.75M3 4.25a.75.75 0 0 0-.75.75.75.75 0 0 0 .75.75h10a.75.75 0 0 0 .75-.75.75.75 0 0 0-.75-.75ZM3 11.25a.75.75 0 0 0-.75.75.75.75 0 0 0 .75.75h10a.75.75 0 0 0 .75-.75.75.75 0 0 0-.75-.75ZM3 18.25a.75.75 0 0 0-.75.75.75.75 0 0 0 .75.75h10a.75.75 0 0 0 .75-.75.75.75 0 0 0-.75-.75ZM16 16.25a.75.75 0 0 0-.531.219.75.75 0 0 0 0 1.062l1.592 1.59-1.592 1.592a.75.75 0 0 0 0 1.06.75.75 0 0 0 1.062 0l1.59-1.59 1.592 1.59a.75.75 0 0 0 1.06 0 .75.75 0 0 0 0-1.06l-1.59-1.592 1.59-1.59a.75.75 0 0 0 0-1.062.75.75 0 0 0-1.06 0L18.12 18.06l-1.59-1.592A.75.75 0 0 0 16 16.25" style="color:#000;fill:currentColor;stroke-linecap:round;stroke-linejoin:round;-inkscape-stroke:none"/>
</svg>
