<svg xmlns="http://www.w3.org/2000/svg" width="24" height="24" fill="none" stroke-width="1.5" viewBox="0 0 24 24">
    <path d="M19.5 8.678a.75.75 0 0 0-.75.75V18c0 1.6-1.267 3.25-3.25 3.25h-4.621c-.35 0-.683-.147-.92-.406l-3.785-4.127a1.241 1.241 0 0 1-.078-1.594L8.1 12.449a.75.75 0 0 0-.15-1.049.75.75 0 0 0-1.05.15l-2.004 2.673a2.757 2.757 0 0 0 .172 3.507l3.786 4.127a2.75 2.75 0 0 0 2.025.893H15.5c2.817 0 4.75-2.35 4.75-4.75V9.428a.75.75 0 0 0-.75-.75" style="color:#000;fill:currentColor;stroke-linecap:round;stroke-linejoin:round;-inkscape-stroke:none"/>
    <path d="M18 6.965c-1.131 0-2.25.992-2.25 2.463V10a.75.75 0 0 0 .75.75.75.75 0 0 0 .75-.75v-.572c0-.815.381-.963.75-.963s.75.148.75.963a.75.75 0 0 0 .75.75.75.75 0 0 0 .75-.75c0-1.471-1.119-2.463-2.25-2.463" style="color:#000;fill:currentColor;stroke-linecap:round;stroke-linejoin:round;-inkscape-stroke:none"/>
    <path d="M15 5.822c-1.131 0-2.25.992-2.25 2.463V10a.75.75 0 0 0 .75.75.75.75 0 0 0 .75-.75V8.285c0-.815.381-.963.75-.963s.75.148.75.963V10a.75.75 0 0 0 .75.75.75.75 0 0 0 .75-.75V8.285c0-1.47-1.119-2.463-2.25-2.463" style="color:#000;fill:currentColor;stroke-linecap:round;stroke-linejoin:round;-inkscape-stroke:none"/>
    <path d="M12 5.035c-1.131 0-2.25.994-2.25 2.465V10a.75.75 0 0 0 .75.75.75.75 0 0 0 .75-.75V7.5c0-.815.381-.965.75-.965s.75.15.75.965V10a.75.75 0 0 0 .75.75.75.75 0 0 0 .75-.75V7.5c0-1.471-1.119-2.465-2.25-2.465" style="color:#000;fill:currentColor;stroke-linecap:round;stroke-linejoin:round;-inkscape-stroke:none"/>
    <path d="M9 1.25A2.261 2.261 0 0 0 6.75 3.5V15a.75.75 0 0 0 .75.75.75.75 0 0 0 .75-.75V3.5c0-.423.327-.75.75-.75.424 0 .75.325.75.748V10a.75.75 0 0 0 .75.75.75.75 0 0 0 .75-.75V3.498A2.26 2.26 0 0 0 9 1.25" style="color:#000;fill:currentColor;stroke-linecap:round;stroke-linejoin:round;-inkscape-stroke:none"/>
</svg>
