<svg xmlns="http://www.w3.org/2000/svg" width="24" height="24" fill="none" stroke-width="1.5" viewBox="0 0 24 24">
    <path d="M12 1.25C6.072 1.25 1.25 6.072 1.25 12S6.072 22.75 12 22.75 22.75 17.928 22.75 12 17.928 1.25 12 1.25m0 1.5A9.239 9.239 0 0 1 21.25 12 9.239 9.239 0 0 1 12 21.25 9.239 9.239 0 0 1 2.75 12 9.239 9.239 0 0 1 12 2.75" style="color:#000;fill:currentColor;stroke-linecap:round;stroke-linejoin:round;-inkscape-stroke:none"/>
    <path d="M12 13a1 1 0 1 0 0-2 1 1 0 0 0 0 2" style="color:#000;fill:currentColor;stroke-width:1.5;stroke-linecap:round;stroke-linejoin:round;-inkscape-stroke:none"/>
    <path d="M12 10.25c-.958 0-1.75.792-1.75 1.75s.792 1.75 1.75 1.75 1.75-.792 1.75-1.75-.792-1.75-1.75-1.75m0 1.5a.24.24 0 0 1 .25.25.24.24 0 0 1-.25.25.24.24 0 0 1-.25-.25.24.24 0 0 1 .25-.25M17.5 16.75a.75.75 0 0 0-.531.219.75.75 0 0 0 0 1.062l1.5 1.5a.75.75 0 0 0 1.062 0 .75.75 0 0 0 0-1.062l-1.5-1.5a.75.75 0 0 0-.531-.219M14.5 13.75a.75.75 0 0 0-.531.219.75.75 0 0 0 0 1.062l1 1a.75.75 0 0 0 1.062 0 .75.75 0 0 0 0-1.062l-1-1a.75.75 0 0 0-.531-.219" style="color:#000;fill:currentColor;stroke-linecap:round;stroke-linejoin:round;-inkscape-stroke:none"/>
</svg>
