<svg xmlns="http://www.w3.org/2000/svg" width="24" height="24" fill="none" stroke-width="1.5" viewBox="0 0 24 24">
    <path d="M15 2.25a.75.75 0 0 0-.75.75.75.75 0 0 0 .75.75h4.188l-7.72 7.719a.75.75 0 0 0 0 1.062.75.75 0 0 0 1.063 0l7.719-7.719V9a.75.75 0 0 0 .75.75.75.75 0 0 0 .75-.75V3a.75.75 0 0 0-.057-.287.75.75 0 0 0-.162-.244A.75.75 0 0 0 21 2.25Z" style="color:#000;fill:currentColor;stroke-linecap:round;stroke-linejoin:round;-inkscape-stroke:none"/>
    <path d="M5 2.25C3.49 2.25 2.25 3.49 2.25 5v14c0 1.51 1.24 2.75 2.75 2.75h14c1.51 0 2.75-1.24 2.75-2.75v-6a.75.75 0 0 0-.75-.75.75.75 0 0 0-.75.75v6c0 .7-.55 1.25-1.25 1.25H5c-.7 0-1.25-.55-1.25-1.25V5c0-.7.55-1.25 1.25-1.25h6a.75.75 0 0 0 .75-.75.75.75 0 0 0-.75-.75Z" style="color:#000;fill:currentColor;stroke-linecap:round;-inkscape-stroke:none"/>
</svg>
