<svg xmlns="http://www.w3.org/2000/svg" width="24" height="24" fill="none" stroke-width="1.5" viewBox="0 0 24 24">
    <path d="M3.6 2.25A1.36 1.36 0 0 0 2.25 3.6V16a.75.75 0 0 0 .75.75.75.75 0 0 0 .75-.75V3.75h16.5v16.5H8a.75.75 0 0 0-.75.75.75.75 0 0 0 .75.75h12.4a1.36 1.36 0 0 0 1.35-1.35V3.6a1.36 1.36 0 0 0-1.35-1.35Z" style="color:#000;fill:currentColor;stroke-linecap:round;stroke-linejoin:round;-inkscape-stroke:none"/>
    <path d="M8 11.25a.75.75 0 0 0-.75.75.75.75 0 0 0 .75.75h2.188l-7.22 7.219a.75.75 0 0 0 0 1.062.75.75 0 0 0 1.063 0l7.219-7.218V16a.75.75 0 0 0 .75.75.75.75 0 0 0 .75-.75v-4a.75.75 0 0 0-.025-.129.75.75 0 0 0-.02-.098.75.75 0 0 0-.012-.06.75.75 0 0 0-.162-.244.75.75 0 0 0-.244-.162.75.75 0 0 0-.287-.057Z" style="color:#000;fill:currentColor;stroke-linecap:round;stroke-linejoin:round;-inkscape-stroke:none"/>
</svg>
