<svg xmlns="http://www.w3.org/2000/svg" width="24" height="24" fill="none" stroke-width="1.5" viewBox="0 0 24 24">
    <path d="m17.86 1.803-7.755 7.756-.023.021-7.777 7.78a.75.75 0 0 0 0 1.06c4.582 4.582 12.035 4.582 16.617 0 4.582-4.582 4.582-12.035 0-16.617a.75.75 0 0 0-1.063 0m.423 1.699c3.461 4.031 3.397 10.037-.424 13.857-3.82 3.821-9.826 3.886-13.857.424l5.777-5.78-.27 6.208a.75.75 0 0 0 .718.781.75.75 0 0 0 .78-.717l.28-6.43 4.098 4.1a.75.75 0 0 0 1.06 0 .75.75 0 0 0 0-1.06l-4.021-4.024h5.967a.75.75 0 0 0 .75-.75.75.75 0 0 0-.75-.75h-5.97z" style="color:#000;fill:currentColor;stroke-linecap:round;stroke-linejoin:round;-inkscape-stroke:none"/>
</svg>
