<svg xmlns="http://www.w3.org/2000/svg" width="24" height="24" fill="none" stroke-width="1.5" viewBox="0 0 24 24">
    <path d="M5.08 1.803C.498 6.385.498 13.838 5.08 18.42c4.582 4.582 12.035 4.582 16.617 0a.75.75 0 0 0 0-1.06L13.92 9.58l-.024-.021-7.753-7.756a.75.75 0 0 0-1.063 0m.639 1.699 5.861 5.86H5.611a.75.75 0 0 0-.75.75.75.75 0 0 0 .75.75h5.967l-4.021 4.023a.75.75 0 0 0 0 1.06.75.75 0 0 0 1.06 0l4.098-4.1.28 6.43a.75.75 0 0 0 .78.717.75.75 0 0 0 .717-.781l-.27-6.207L20 17.784c-4.031 3.461-10.036 3.396-13.857-.425-3.821-3.82-3.885-9.826-.424-13.857" style="color:#000;fill:currentColor;stroke-linecap:round;stroke-linejoin:round;-inkscape-stroke:none"/>
</svg>
