<svg xmlns="http://www.w3.org/2000/svg" width="24" height="24" fill="none" stroke-width="1.5" viewBox="0 0 24 24">
    <path d="M11.973 11.25a.75.75 0 0 0-.522.24c-2.308 2.483-3.18 6.334-3.18 6.334a.75.75 0 0 0 .553.905.75.75 0 0 0 .905-.553s.928-3.632 2.82-5.666a.75.75 0 0 0-.04-1.059.75.75 0 0 0-.536-.201" style="color:#000;fill:currentColor;stroke-linecap:round;stroke-linejoin:round;-inkscape-stroke:none"/>
    <path d="m15.557 6.037-4.147.399a5.264 5.264 0 0 0-4.724 5.732c.278 2.888 2.896 4.998 5.775 4.72 2.927-.281 5.128-2.894 4.846-5.83l-.375-3.888a1.27 1.27 0 0 0-1.375-1.133m-.094 1.516.351 3.65c.204 2.111-1.378 3.99-3.498 4.193-2.072.2-3.94-1.309-4.138-3.373a3.74 3.74 0 0 1 3.377-4.095Z" style="color:#000;fill:currentColor;stroke-linecap:round;stroke-linejoin:round;-inkscape-stroke:none"/>
    <path d="M3.6 2.25A1.36 1.36 0 0 0 2.25 3.6v16.8c0 .737.613 1.35 1.35 1.35h16.8a1.36 1.36 0 0 0 1.35-1.35V3.6a1.36 1.36 0 0 0-1.35-1.35Zm.15 1.5h16.5v16.5H3.75Z" style="color:#000;fill:currentColor;stroke-linecap:round;stroke-linejoin:round;-inkscape-stroke:none"/>
</svg>
