<svg xmlns="http://www.w3.org/2000/svg" width="24" height="24" fill="none" stroke-width="1.5" viewBox="0 0 24 24">
    <path d="M11.973 11.25a.75.75 0 0 0-.522.24c-2.308 2.483-3.18 6.334-3.18 6.334a.75.75 0 0 0 .553.905.75.75 0 0 0 .905-.553s.928-3.632 2.82-5.666a.75.75 0 0 0-.04-1.059.75.75 0 0 0-.536-.201" style="color:#000;fill:currentColor;stroke-linecap:round;stroke-linejoin:round;-inkscape-stroke:none"/>
    <path d="m15.557 6.037-4.147.399a5.264 5.264 0 0 0-4.724 5.732c.278 2.888 2.896 4.998 5.775 4.72 2.927-.281 5.128-2.894 4.846-5.83l-.375-3.888a1.271 1.271 0 0 0-1.375-1.133m-.094 1.516.351 3.65c.204 2.111-1.378 3.99-3.498 4.193-2.072.2-3.94-1.309-4.138-3.373a3.742 3.742 0 0 1 3.377-4.095Z" style="color:#000;fill:currentColor;stroke-linecap:round;stroke-linejoin:round;-inkscape-stroke:none"/>
    <path d="M12 1.25C6.072 1.25 1.25 6.072 1.25 12S6.072 22.75 12 22.75 22.75 17.928 22.75 12 17.928 1.25 12 1.25m0 1.5A9.239 9.239 0 0 1 21.25 12 9.239 9.239 0 0 1 12 21.25 9.239 9.239 0 0 1 2.75 12 9.239 9.239 0 0 1 12 2.75" style="color:#000;fill:currentColor;stroke-linecap:round;stroke-linejoin:round;-inkscape-stroke:none"/>
</svg>
