<svg xmlns="http://www.w3.org/2000/svg" width="24" height="24" fill="none" stroke-width="1.5" viewBox="0 0 24 24">
    <path d="M4 12.25c-1.51 0-2.75 1.24-2.75 2.75v4c0 1.51 1.24 2.75 2.75 2.75h4c1.51 0 2.75-1.24 2.75-2.75v-4c0-1.51-1.24-2.75-2.75-2.75Zm0 1.5h4c.7 0 1.25.55 1.25 1.25v4c0 .7-.55 1.25-1.25 1.25H4c-.7 0-1.25-.55-1.25-1.25v-4c0-.7.55-1.25 1.25-1.25M10 2.25C8.49 2.25 7.25 3.49 7.25 5v4c0 1.51 1.24 2.75 2.75 2.75h4c1.51 0 2.75-1.24 2.75-2.75V5c0-1.51-1.24-2.75-2.75-2.75Zm0 1.5h4c.7 0 1.25.55 1.25 1.25v4c0 .7-.55 1.25-1.25 1.25h-4c-.7 0-1.25-.55-1.25-1.25V5c0-.7.55-1.25 1.25-1.25M16 12.25c-1.51 0-2.75 1.24-2.75 2.75v4c0 1.51 1.24 2.75 2.75 2.75h4c1.51 0 2.75-1.24 2.75-2.75v-4c0-1.51-1.24-2.75-2.75-2.75zm0 1.5h4c.7 0 1.25.55 1.25 1.25v4c0 .7-.55 1.25-1.25 1.25h-4c-.7 0-1.25-.55-1.25-1.25v-4c0-.7.55-1.25 1.25-1.25" style="color:#000;fill:currentColor;stroke-linecap:round;stroke-linejoin:round;-inkscape-stroke:none"/>
    <path d="M6 12.25a.75.75 0 0 0-.75.75v3a.75.75 0 0 0 .75.75.75.75 0 0 0 .75-.75v-3a.75.75 0 0 0-.75-.75M12 2.25a.75.75 0 0 0-.75.75v3a.75.75 0 0 0 .75.75.75.75 0 0 0 .75-.75V3a.75.75 0 0 0-.75-.75M18 12.25a.75.75 0 0 0-.75.75v3a.75.75 0 0 0 .75.75.75.75 0 0 0 .75-.75v-3a.75.75 0 0 0-.75-.75" style="color:#000;fill:currentColor;stroke-linecap:round;stroke-linejoin:round;-inkscape-stroke:none"/>
</svg>
