<svg xmlns="http://www.w3.org/2000/svg" width="24" height="24" fill="none" stroke-width="1.5" viewBox="0 0 24 24">
    <path d="M16.502 11.443a.75.75 0 0 0-1.059.055.75.75 0 0 0 .055 1.059l.012.01a.75.75 0 0 0 1.058-.055.75.75 0 0 0-.054-1.059zM19.502 11.443a.75.75 0 0 0-1.059.055.75.75 0 0 0 .055 1.059l.012.01a.75.75 0 0 0 1.058-.055.75.75 0 0 0-.054-1.059zM22.502 11.443a.75.75 0 0 0-1.059.055.75.75 0 0 0 .055 1.059l.012.01a.75.75 0 0 0 1.058-.055.75.75 0 0 0-.054-1.059z" style="color:#000;fill:currentColor;stroke-linecap:round;stroke-linejoin:round;-inkscape-stroke:none"/>
    <path d="M12 1.25C6.072 1.25 1.25 6.072 1.25 12S6.072 22.75 12 22.75c3.511 0 6.639-1.69 8.6-4.299a.75.75 0 0 0-.15-1.05L13.247 12l7.201-5.4a.75.75 0 0 0 .15-1.051A10.742 10.742 0 0 0 12 1.25m0 1.5c2.752 0 5.117 1.301 6.81 3.203L11.55 11.4a.75.75 0 0 0 0 1.2l7.26 5.447c-1.693 1.902-4.058 3.203-6.81 3.203A9.239 9.239 0 0 1 2.75 12 9.239 9.239 0 0 1 12 2.75" style="color:#000;fill:currentColor;stroke-linecap:round;stroke-linejoin:round;-inkscape-stroke:none"/>
</svg>
