<svg xmlns="http://www.w3.org/2000/svg" width="24" height="24" fill="none" stroke-width="1.5" viewBox="0 0 24 24">
    <path d="M9 11.25a.75.75 0 0 0-.75.75.75.75 0 0 0 .75.75h6a.75.75 0 0 0 .75-.75.75.75 0 0 0-.75-.75Z" style="color:#000;fill:currentColor;stroke-linecap:round;stroke-linejoin:round;-inkscape-stroke:none"/>
    <path d="M4.6 1.25A1.36 1.36 0 0 0 3.25 2.6v18.8c0 .737.613 1.35 1.35 1.35h14.8a1.36 1.36 0 0 0 1.35-1.35V5.748c0-.358-.142-.7-.395-.953v-.002l-3.148-3.148h-.002a1.35 1.35 0 0 0-.953-.395Zm.15 1.5h11.438l3.062 3.06v15.44H4.75Z" style="color:#000;fill:currentColor;stroke-linecap:round;stroke-linejoin:round;-inkscape-stroke:none"/>
    <path d="M16 1.25a.75.75 0 0 0-.75.75v3.4c0 .737.613 1.35 1.35 1.35H20a.75.75 0 0 0 .75-.75.75.75 0 0 0-.75-.75h-3.25V2a.75.75 0 0 0-.75-.75" style="color:#000;fill:currentColor;stroke-linecap:round;stroke-linejoin:round;-inkscape-stroke:none"/>
</svg>
