<svg xmlns="http://www.w3.org/2000/svg" width="24" height="24" fill="none" stroke-width="1.5" viewBox="0 0 24 24">
    <path d="M4.6 1.25A1.36 1.36 0 0 0 3.25 2.6v18.8c0 .737.613 1.35 1.35 1.35H11a.75.75 0 0 0 .75-.75.75.75 0 0 0-.75-.75H4.75V2.75h11.438l3.062 3.06V12a.75.75 0 0 0 .75.75.75.75 0 0 0 .75-.75V5.748c0-.358-.142-.7-.395-.953a.75.75 0 0 0 0-.002l-3.148-3.148h-.002a1.35 1.35 0 0 0-.953-.395Z" style="color:#000;fill:currentColor;stroke-linecap:round;stroke-linejoin:round;-inkscape-stroke:none"/>
    <path d="M8 5.25a.75.75 0 0 0-.75.75.75.75 0 0 0 .75.75h4a.75.75 0 0 0 .75-.75.75.75 0 0 0-.75-.75Zm0 4a.75.75 0 0 0-.75.75.75.75 0 0 0 .75.75h8a.75.75 0 0 0 .75-.75.75.75 0 0 0-.75-.75Zm0 4a.75.75 0 0 0-.75.75.75.75 0 0 0 .75.75h3a.75.75 0 0 0 .75-.75.75.75 0 0 0-.75-.75ZM19.746 14.865c-.48 0-.96.18-1.322.543l-1 1-2.99 2.992c-.263.263-.436.6-.493.967l-.242 1.557a.75.75 0 0 0 .856.857l1.556-.242c.367-.057.705-.23.967-.492l2.992-2.992 1-1a1.883 1.883 0 0 0 0-2.647 1.868 1.868 0 0 0-1.324-.543m-.262 1.606a.36.36 0 0 1 .526 0 .359.359 0 0 1 0 .523l-.47.47-.524-.525zM17.955 18l.524.525-2.461 2.461a.245.245 0 0 1-.137.07l-.541.085.084-.541a.251.251 0 0 1 .07-.14zM16 1.25a.75.75 0 0 0-.75.75v3.4c0 .737.613 1.35 1.35 1.35H20a.75.75 0 0 0 .75-.75.75.75 0 0 0-.75-.75h-3.25V2a.75.75 0 0 0-.75-.75" style="color:#000;fill:currentColor;stroke-linecap:round;stroke-linejoin:round;-inkscape-stroke:none"/>
</svg>
