<svg xmlns="http://www.w3.org/2000/svg" width="24" height="24" fill="none" stroke-width="1.5" viewBox="0 0 24 24">
    <path d="m11.826 2.25-.023.002a9.799 9.799 0 0 0-9.184 9.441v.004a9.75 9.75 0 0 0 11.494 9.893h.002c.35-.06.682-.192.977-.387h.002c.292-.193.54-.444.73-.738l.002-.004a2.917 2.917 0 0 0 .416-2.22l.004.013a6.551 6.551 0 0 1-.127-1.252v-.004a6.25 6.25 0 0 1 3.698-5.683l.002-.002h.003a2.656 2.656 0 0 0 1.395-1.521l.043-.122v-.15l-.041.244a2.75 2.75 0 0 0-.123-2.09l-.002-.004-.002-.004a9.75 9.75 0 0 0-8.733-5.416Zm.063 1.5h.47a8.253 8.253 0 0 1 7.385 4.578c.143.297.164.636.057.947l-.014.04c-.052.133-.121.259-.219.365h-.002c-.103.113-.229.203-.369.267l.006-.002a7.75 7.75 0 0 0-4.584 7.053v.004a8.07 8.07 0 0 0 .154 1.545l.002.006.002.006a1.408 1.408 0 0 1-.203 1.078l-.004.004-.002.006a1.04 1.04 0 0 1-.703.464h-.008l-.005.002a7.983 7.983 0 0 1-1.48.137h-.003a8.247 8.247 0 0 1-5.926-2.506 8.257 8.257 0 0 1-2.324-6 8.3 8.3 0 0 1 7.77-7.994" style="color:#000;fill:currentColor;-inkscape-stroke:none"/>
    <path d="M8.512 15.441a.75.75 0 0 0-1.059.055l-.01.012a.75.75 0 0 0 .055 1.058.75.75 0 0 0 1.059-.054l.01-.012a.75.75 0 0 0-.055-1.059M5.97 11.25a.75.75 0 0 0-.517.246l-.01.012a.75.75 0 0 0 .055 1.058.75.75 0 0 0 1.059-.054l.01-.012a.75.75 0 0 0-.055-1.059.75.75 0 0 0-.541-.191M7.97 7.25a.75.75 0 0 0-.517.248l-.01.01a.75.75 0 0 0 .055 1.06.75.75 0 0 0 1.059-.056l.011-.012a.75.75 0 0 0-.056-1.059.75.75 0 0 0-.541-.191M11.97 5.25a.75.75 0 0 0-.517.248l-.01.01a.75.75 0 0 0 .055 1.06.75.75 0 0 0 1.059-.056l.011-.012a.75.75 0 0 0-.056-1.059.75.75 0 0 0-.541-.191M15.97 7.25a.75.75 0 0 0-.517.248l-.01.01a.75.75 0 0 0 .055 1.06.75.75 0 0 0 1.059-.056l.011-.012a.75.75 0 0 0-.056-1.059.75.75 0 0 0-.541-.191" style="color:#000;fill:currentColor;stroke-linecap:round;stroke-linejoin:round;-inkscape-stroke:none"/>
</svg>
