<svg xmlns="http://www.w3.org/2000/svg" width="24" height="24" fill="none" stroke-width="1.5" viewBox="0 0 24 24">
    <path d="M4.05 5.572c-.862-.29-1.8.375-1.8 1.29v10.277c0 .914.938 1.578 1.8 1.289 1.615-.542 5.413-1.678 7.95-1.678s6.335 1.136 7.95 1.678c.862.29 1.8-.375 1.8-1.29V6.862c0-.914-.938-1.578-1.8-1.289-1.615.542-5.413 1.678-7.95 1.678S5.665 6.114 4.05 5.572m-.3 1.475C5.479 7.623 9.11 8.75 12 8.75c2.89 0 6.521-1.127 8.25-1.703v9.906c-1.729-.576-5.36-1.703-8.25-1.703-2.89 0-6.521 1.127-8.25 1.703z" style="color:#000;fill:currentColor;stroke-linecap:round;stroke-linejoin:round;-inkscape-stroke:none"/>
</svg>
