<svg xmlns="http://www.w3.org/2000/svg" width="24" height="24" fill="none" stroke-width="1.5" viewBox="0 0 24 24">
    <path d="M5.635 2.25c-.765 0-1.39.662-1.348 1.426l.932 16.799c.04.708.64 1.275 1.35 1.275h2.898a1.36 1.36 0 0 0 1.34-1.191v-.002L12 10.414l1.193 10.145a1.36 1.36 0 0 0 1.34 1.191h2.899c.709 0 1.31-.567 1.35-1.275l.93-16.8a1.363 1.363 0 0 0-1.347-1.425Zm.158 1.5h12.414l-.916 16.5h-2.625L13.34 8.977c-.084-.71-.744-1.192-1.34-1.192-.596 0-1.256.483-1.34 1.192L9.334 20.25H6.709z" style="color:#000;fill:currentColor;-inkscape-stroke:none"/>
    <path d="M7.75 3v2.5c0 .7-.55 1.25-1.25 1.25H5v1.5h1.5c1.51 0 2.75-1.24 2.75-2.75V3ZM14.75 3v2.5c0 1.51 1.24 2.75 2.75 2.75h1v-1.5h-1c-.7 0-1.25-.55-1.25-1.25V3Z" style="color:#000;fill:currentColor;-inkscape-stroke:none"/>
</svg>
