<svg xmlns="http://www.w3.org/2000/svg" width="24" height="24" fill="none" stroke-width="1.5" viewBox="0 0 24 24">
    <path d="M5 5.25C3.49 5.25 2.25 6.49 2.25 8v6c0 1.51 1.24 2.75 2.75 2.75h7a.75.75 0 0 0 .75-.75.75.75 0 0 0-.75-.75H5c-.7 0-1.25-.55-1.25-1.25V8c0-.7.55-1.25 1.25-1.25h14c.7 0 1.25.55 1.25 1.25v5a.75.75 0 0 0 .75.75.75.75 0 0 0 .75-.75V8c0-1.51-1.24-2.75-2.75-2.75ZM20.5 15.75a.75.75 0 0 0-.531.219L16.5 19.438l-1.469-1.47a.75.75 0 0 0-1.062 0 .75.75 0 0 0 0 1.063l2 2a.75.75 0 0 0 1.062 0l4-4a.75.75 0 0 0 0-1.062.75.75 0 0 0-.531-.219" style="color:#000;fill:currentColor;stroke-linecap:round;stroke-linejoin:round;-inkscape-stroke:none"/>
    <path d="M11.97 10.25a.75.75 0 0 0-.517.246l-.01.012a.75.75 0 0 0 .055 1.058.75.75 0 0 0 1.059-.054l.01-.012a.75.75 0 0 0-.055-1.059.75.75 0 0 0-.541-.191M16.512 10.441a.75.75 0 0 0-1.059.055l-.01.012a.75.75 0 0 0 .055 1.058.75.75 0 0 0 1.059-.054l.01-.012a.75.75 0 0 0-.055-1.059M7.97 10.25a.75.75 0 0 0-.517.246l-.01.012a.75.75 0 0 0 .055 1.058.75.75 0 0 0 1.059-.054l.01-.012a.75.75 0 0 0-.055-1.059.75.75 0 0 0-.541-.191" style="color:#000;fill:currentColor;stroke-linecap:round;stroke-linejoin:round;-inkscape-stroke:none"/>
</svg>
