<svg xmlns="http://www.w3.org/2000/svg" width="24" height="24" fill="none" stroke-width="1.5" viewBox="0 0 24 24">
    <path d="M18 2.25a.75.75 0 0 0-.531.219l-3.5 3.5a.75.75 0 0 0 0 1.062.75.75 0 0 0 1.062 0l2.219-2.218V16.5a.75.75 0 0 0 .75.75.75.75 0 0 0 .75-.75V4.813l2.219 2.218a.75.75 0 0 0 1.062 0 .75.75 0 0 0 0-1.062l-3.5-3.5A.75.75 0 0 0 18 2.25" style="color:#000;fill:currentColor;stroke-linecap:round;stroke-linejoin:round;-inkscape-stroke:none"/>
    <path d="M11 6.75a.75.75 0 0 0-.75.75v9a4.261 4.261 0 0 0 4.25 4.25 4.261 4.261 0 0 0 4.25-4.25.75.75 0 0 0-.75-.75.75.75 0 0 0-.75.75 2.739 2.739 0 0 1-2.75 2.75 2.739 2.739 0 0 1-2.75-2.75v-9a.75.75 0 0 0-.75-.75" style="color:#000;fill:currentColor;stroke-linecap:round;stroke-linejoin:round;-inkscape-stroke:none"/>
    <path d="M7.5 3.25A4.261 4.261 0 0 0 3.25 7.5v12a.75.75 0 0 0 .75.75.75.75 0 0 0 .75-.75v-12A2.739 2.739 0 0 1 7.5 4.75a2.739 2.739 0 0 1 2.75 2.75.75.75 0 0 0 .75.75.75.75 0 0 0 .75-.75A4.261 4.261 0 0 0 7.5 3.25" style="color:#000;fill:currentColor;stroke-linecap:round;stroke-linejoin:round;-inkscape-stroke:none"/>
</svg>
