<svg xmlns="http://www.w3.org/2000/svg" width="24" height="24" fill="none" stroke-width="1.5" viewBox="0 0 24 24">
    <path d="M6 2.25a.75.75 0 0 0-.734.598l-3 14.5A.75.75 0 0 0 3 18.25h4.5a.75.75 0 0 0 .732-.59l1.073-4.91H13c1.687 0 3.048-.66 3.936-1.658.887-.999 1.314-2.3 1.314-3.592 0-1.292-.427-2.593-1.314-3.592C16.048 2.91 14.687 2.25 13 2.25Zm.611 1.5H13c1.312 0 2.202.465 2.814 1.154.613.69.936 1.638.936 2.596 0 .958-.323 1.907-.936 2.596-.612.689-1.502 1.154-2.814 1.154H8.7a.75.75 0 0 0-.733.59l-1.07 4.91H3.921Z" style="color:#000;fill:currentColor;stroke-linecap:round;stroke-linejoin:round;-inkscape-stroke:none"/>
    <path d="M9.8 5.75a.75.75 0 0 0-.734.598l-3 14.5a.75.75 0 0 0 .735.902h4.5a.75.75 0 0 0 .732-.59l1.07-4.91h3.698c1.687 0 3.048-.66 3.935-1.658.888-.999 1.315-2.3 1.315-3.592 0-1.292-.427-2.593-1.315-3.592-.887-.998-2.248-1.658-3.935-1.658Zm.61 1.5h6.39c1.313 0 2.203.465 2.815 1.154.613.69.936 1.638.936 2.596 0 .958-.323 1.907-.936 2.596-.612.689-1.502 1.154-2.814 1.154H12.5a.75.75 0 0 0-.732.59l-1.073 4.91H7.723Z" style="color:#000;fill:currentColor;stroke-linecap:round;stroke-linejoin:round;-inkscape-stroke:none"/>
</svg>
