<svg xmlns="http://www.w3.org/2000/svg" width="24" height="24" fill="none" stroke-width="1.5" viewBox="0 0 24 24">
    <path d="M7 21.25a.75.75 0 0 0-.75.75.75.75 0 0 0 .75.75h10a.75.75 0 0 0 .75-.75.75.75 0 0 0-.75-.75Z" style="color:#000;fill:currentColor;stroke-linecap:round;stroke-linejoin:round;-inkscape-stroke:none"/>
    <path d="M4 1.25C2.49 1.25 1.25 2.49 1.25 4v13c0 1.51 1.24 2.75 2.75 2.75h16c1.51 0 2.75-1.24 2.75-2.75V4c0-1.51-1.24-2.75-2.75-2.75Zm0 1.5h16c.7 0 1.25.55 1.25 1.25v13c0 .7-.55 1.25-1.25 1.25H4c-.7 0-1.25-.55-1.25-1.25V4c0-.7.55-1.25 1.25-1.25" style="color:#000;fill:currentColor;-inkscape-stroke:none"/>
    <path d="m11.332 5.395-3.059.763a1.346 1.346 0 0 0-1.017 1.334c.092 3.41 1.158 5.495 2.26 6.697 1.101 1.203 2.295 1.536 2.295 1.536a.75.75 0 0 0 .378 0s1.194-.333 2.295-1.536c1.102-1.202 2.168-3.288 2.26-6.697a1.346 1.346 0 0 0-1.017-1.334l-3.059-.763h-.002a2.74 2.74 0 0 0-1.332 0zm.365 1.455c.2-.05.407-.05.606 0l2.92.728c-.111 3.017-1.01 4.686-1.846 5.6-.749.817-1.232.921-1.377.965-.145-.044-.628-.148-1.377-.965-.837-.914-1.735-2.583-1.846-5.6Z" style="color:#000;fill:currentColor;stroke-linecap:round;stroke-linejoin:round;-inkscape-stroke:none"/>
</svg>
