<svg xmlns="http://www.w3.org/2000/svg" width="24" height="24" fill="none" stroke-width="1.5" viewBox="0 0 24 24">
    <path d="M7 21.25a.75.75 0 0 0-.75.75.75.75 0 0 0 .75.75h10a.75.75 0 0 0 .75-.75.75.75 0 0 0-.75-.75Z" style="color:#000;fill:currentColor;stroke-linecap:round;stroke-linejoin:round;-inkscape-stroke:none"/>
    <path d="M4 1.25C2.49 1.25 1.25 2.49 1.25 4v13c0 1.51 1.24 2.75 2.75 2.75h16c1.51 0 2.75-1.24 2.75-2.75V4c0-1.51-1.24-2.75-2.75-2.75Zm0 1.5h16c.7 0 1.25.55 1.25 1.25v13c0 .7-.55 1.25-1.25 1.25H4c-.7 0-1.25-.55-1.25-1.25V4c0-.7.55-1.25 1.25-1.25" style="color:#000;fill:currentColor;-inkscape-stroke:none"/>
    <path d="M12 5.75a4.76 4.76 0 0 0-4.75 4.75A4.747 4.747 0 0 0 12 15.25a4.76 4.76 0 0 0 4.75-4.75A4.747 4.747 0 0 0 12 5.75m0 1.5c.637 0 1.192.229 1.691.543l-4.435 4.346c-.293-.487-.506-1.026-.506-1.639A3.24 3.24 0 0 1 12 7.25m2.744 1.611c.293.487.506 1.026.506 1.639A3.24 3.24 0 0 1 12 13.75c-.637 0-1.192-.229-1.691-.543z" style="color:#000;fill:currentColor;stroke-linecap:round;stroke-linejoin:round;-inkscape-stroke:none"/>
</svg>
