<svg xmlns="http://www.w3.org/2000/svg" width="24" height="24" fill="none" stroke-width="1.5" viewBox="0 0 24 24">
    <path d="M12.537 1.25a2.373 2.373 0 0 0-2.361 2.361v4.834a.75.75 0 0 0 .75.75.75.75 0 0 0 .75-.75V3.611a.85.85 0 0 1 .861-.861.85.85 0 0 1 .861.861v5.86a.75.75 0 0 0 .75.75.75.75 0 0 0 .75-.75V3.61a2.373 2.373 0 0 0-2.36-2.361" style="color:#000;fill:currentColor;stroke-linecap:round;-inkscape-stroke:none"/>
    <path d="M17.645 2.889a2.345 2.345 0 0 0-2.89 1.617l-1.33 4.764a.75.75 0 0 0 .522.923.75.75 0 0 0 .924-.52l1.33-4.765a.82.82 0 0 1 1.031-.578c.457.13.707.589.57 1.043l-2.175 7.252a.75.75 0 0 0 .504.934.75.75 0 0 0 .933-.502l2.176-7.252a2.347 2.347 0 0 0-1.595-2.916M6.98 7.707a2.35 2.35 0 0 0-1.808.057 2.373 2.373 0 0 0-1.174 3.119l1.055 2.342a2.374 2.374 0 0 0 3.133 1.177 2.373 2.373 0 0 0 1.173-3.119L8.303 8.941A2.35 2.35 0 0 0 6.98 7.707m-.525 1.395a.86.86 0 0 1 .48.457L7.99 11.9a.85.85 0 0 1-.428 1.137.85.85 0 0 1-1.142-.43l-1.055-2.341a.85.85 0 0 1 .428-1.137.86.86 0 0 1 .662-.027" style="color:#000;fill:currentColor;stroke-linecap:round;-inkscape-stroke:none"/>
    <path d="M9.955 6.61a2.33 2.33 0 0 0-1.789.056 2.347 2.347 0 0 0-1.125 3.156l.135.274a.75.75 0 0 0 1.006.341.75.75 0 0 0 .34-1.003l-.135-.276a.82.82 0 0 1 .402-1.127.82.82 0 0 1 1.106.416l1.074 2.381c.168.373.183.795.045 1.18a.75.75 0 0 0 .45.959.75.75 0 0 0 .96-.451c.27-.75.24-1.578-.088-2.305l-1.074-2.38a2.33 2.33 0 0 0-1.307-1.222" style="color:#000;fill:currentColor;stroke-linecap:round;-inkscape-stroke:none"/>
    <path d="M4.467 9.162a.75.75 0 0 0-.737.764l.147 8.191a5.01 5.01 0 0 0 4.998 4.998h4.983c1.577 0 2.756-.44 3.535-1.418.778-.978 1.202-2.311 1.86-4.215.737-2.126-.02-3.689-.993-4.459-.974-.77-2.092-.921-2.092-.921l-.022-.004-4.81-.448a2.3 2.3 0 0 0-2.486 2.038 2.295 2.295 0 0 0 1.629 2.433l2.892.85-.185.37a.75.75 0 0 0 .335 1.007.75.75 0 0 0 1.006-.336l.493-.985a.94.94 0 0 0-.567-1.3l-3.55-1.045a.78.78 0 0 1-.561-.838.775.775 0 0 1 .855-.7l4.746.442c.005 0 .785.139 1.385.613.602.476 1.09 1.11.508 2.793-.66 1.906-1.114 3.137-1.617 3.77-.504.633-1.009.853-2.362.853H8.875a3.486 3.486 0 0 1-3.498-3.498v-.008L5.23 9.9a.75.75 0 0 0-.763-.737" style="color:#000;fill:currentColor;stroke-linecap:round;-inkscape-stroke:none"/>
</svg>
