<svg xmlns="http://www.w3.org/2000/svg" width="24" height="24" fill="none" stroke-width="1.5" viewBox="0 0 24 24">
    <path d="M8.871 2.25a6.759 6.759 0 0 0-6.709 6.004l-.21 1.896a16.748 16.748 0 0 0 0 3.7l.21 1.896a6.759 6.759 0 0 0 6.71 6.004h6.257a6.759 6.759 0 0 0 6.709-6.004l.21-1.896c.137-1.23.137-2.47 0-3.7l-.21-1.896a6.759 6.759 0 0 0-6.71-6.004Zm0 1.5h6.258a5.242 5.242 0 0 1 5.219 4.67l.21 1.896a15.24 15.24 0 0 1 0 3.368l-.21 1.896a5.241 5.241 0 0 1-5.22 4.67H8.872a5.242 5.242 0 0 1-5.219-4.67l-.21-1.896a15.241 15.241 0 0 1 0-3.368l.21-1.896a5.242 5.242 0 0 1 5.22-4.67" style="color:#000;fill:currentColor;stroke-linecap:round;stroke-linejoin:round;-inkscape-stroke:none"/>
    <path d="M9 6.25a.75.75 0 0 0-.75.75v10a.75.75 0 0 0 .75.75.75.75 0 0 0 .75-.75v-3.25H13A3.761 3.761 0 0 0 16.75 10 3.761 3.761 0 0 0 13 6.25zm.75 1.5H13c1.252 0 2.25.998 2.25 2.25s-.998 2.25-2.25 2.25H9.75Z" style="color:#000;fill:currentColor;stroke-linecap:round;stroke-linejoin:round;-inkscape-stroke:none"/>
</svg>
