<svg xmlns="http://www.w3.org/2000/svg" width="24" height="24" fill="none" stroke-width="1.5" viewBox="0 0 24 24">
    <path d="M4 2.25C2.49 2.25 1.25 3.49 1.25 5v14c0 1.51 1.24 2.75 2.75 2.75h16c1.51 0 2.75-1.24 2.75-2.75v-2a.75.75 0 0 0-.75-.75.75.75 0 0 0-.75.75v2c0 .7-.55 1.25-1.25 1.25H4c-.7 0-1.25-.55-1.25-1.25V5c0-.7.55-1.25 1.25-1.25h16c.7 0 1.25.55 1.25 1.25v2a.75.75 0 0 0 .75.75.75.75 0 0 0 .75-.75V5c0-1.51-1.24-2.75-2.75-2.75Z" style="color:#000;fill:currentColor;stroke-linecap:round;stroke-linejoin:round;-inkscape-stroke:none"/>
    <path d="M2 11.25v1.5h4v-1.5z" style="color:#000;fill:currentColor;-inkscape-stroke:none"/>
    <path d="M5.25 3v18h1.5V3Z" style="color:#000;fill:currentColor;-inkscape-stroke:none"/>
    <path d="M11 11.25a.75.75 0 0 0-.75.75.75.75 0 0 0 .75.75h8.25A.75.75 0 0 0 20 12a.75.75 0 0 0-.75-.75Z" style="color:#000;fill:currentColor;stroke-linecap:round;stroke-linejoin:round;-inkscape-stroke:none"/>
    <path d="M18.898 11.277a.75.75 0 0 0-.921.524l-.674 2.449h-1.078a.75.75 0 0 0-.75.75.75.75 0 0 0 .75.75h1.65a.75.75 0 0 0 .723-.55l.826-3a.75.75 0 0 0-.526-.923" style="color:#000;fill:currentColor;stroke-linecap:round;stroke-linejoin:round;-inkscape-stroke:none"/>
    <path d="M14.574 8.25a.75.75 0 0 0-.75.75.75.75 0 0 0 .75.75h1.403l.92 2.508a.75.75 0 0 0 .96.447.75.75 0 0 0 .448-.963l-1.1-3a.75.75 0 0 0-.705-.492ZM20.625 9.887c-1.161 0-2.125.951-2.125 2.113s.964 2.113 2.125 2.113S22.75 13.162 22.75 12s-.964-2.113-2.125-2.113m0 1.5c.357 0 .625.269.625.613a.608.608 0 0 1-.625.613A.608.608 0 0 1 20 12c0-.344.268-.613.625-.613" style="color:#000;fill:currentColor;stroke-linecap:round;stroke-linejoin:round;-inkscape-stroke:none"/>
</svg>
