<svg xmlns="http://www.w3.org/2000/svg" width="24" height="24" fill="none" stroke-width="1.5" viewBox="0 0 24 24">
    <path d="M16.97 14.75a.75.75 0 0 0-.517.246l-.01.012a.75.75 0 0 0 .055 1.058.75.75 0 0 0 1.059-.054l.01-.012a.75.75 0 0 0-.055-1.059.75.75 0 0 0-.541-.191M17 8.986c-2.084 0-4.169.845-5.576 2.534a.75.75 0 0 0 .096 1.056.75.75 0 0 0 1.056-.096c2.185-2.622 6.663-2.622 8.848 0a.75.75 0 0 0 1.056.096.75.75 0 0 0 .096-1.056C21.17 9.83 19.084 8.986 17 8.986" style="color:#000;fill:currentColor;stroke-linecap:round;stroke-linejoin:round;-inkscape-stroke:none"/>
    <path d="M17 11.762a4.47 4.47 0 0 0-3.6 1.789.75.75 0 0 0 .15 1.049.75.75 0 0 0 1.05-.15 2.983 2.983 0 0 1 4.8 0 .75.75 0 0 0 1.05.15.75.75 0 0 0 .15-1.05 4.47 4.47 0 0 0-3.6-1.788" style="color:#000;fill:currentColor;stroke-linecap:round;stroke-linejoin:round;-inkscape-stroke:none"/>
    <path d="M4 2.25C2.49 2.25 1.25 3.49 1.25 5v14c0 1.51 1.24 2.75 2.75 2.75h16c1.51 0 2.75-1.24 2.75-2.75v-2a.75.75 0 0 0-.75-.75.75.75 0 0 0-.75.75v2c0 .7-.55 1.25-1.25 1.25H4c-.7 0-1.25-.55-1.25-1.25V5c0-.7.55-1.25 1.25-1.25h16c.7 0 1.25.55 1.25 1.25v2a.75.75 0 0 0 .75.75.75.75 0 0 0 .75-.75V5c0-1.51-1.24-2.75-2.75-2.75Z" style="color:#000;fill:currentColor;stroke-linecap:round;stroke-linejoin:round;-inkscape-stroke:none"/>
    <path d="M2 11.25v1.5h4v-1.5z" style="color:#000;fill:currentColor;-inkscape-stroke:none"/>
    <path d="M5.25 3v18h1.5V3Z" style="color:#000;fill:currentColor;-inkscape-stroke:none"/>
</svg>
