<svg xmlns="http://www.w3.org/2000/svg" width="24" height="24" fill="none" stroke-width="1.5" viewBox="0 0 24 24">
    <path d="M20 4.133c-.736 0-1.474.278-2.031.836l-4 4a.75.75 0 0 0 0 1.062.75.75 0 0 0 1.062 0l4-4a1.358 1.358 0 0 1 1.938 0 1.358 1.358 0 0 1 0 1.938L9.166 19.773a.254.254 0 0 1-.117.067l-2.518.629.698-2.787a.75.75 0 0 0-.547-.91.75.75 0 0 0-.91.546l-1 4a.75.75 0 0 0 .91.91l3.732-.933a1.75 1.75 0 0 0 .813-.461L22.03 9.031a2.885 2.885 0 0 0 0-4.062A2.864 2.864 0 0 0 20 4.133" style="color:#000;fill:currentColor;stroke-linecap:round;stroke-linejoin:round;-inkscape-stroke:none"/>
    <path d="M17.5 5.75a.75.75 0 0 0-.531.219.75.75 0 0 0 0 1.062l3 3a.75.75 0 0 0 1.062 0 .75.75 0 0 0 0-1.062l-3-3a.75.75 0 0 0-.531-.219M8.027 2.314A.75.75 0 0 0 7.584 3v4.555l-2.143-1.56a.75.75 0 0 0-1.046.163.75.75 0 0 0 .164 1.049L7.019 9l-2.46 1.793a.75.75 0 0 0-.164 1.049.75.75 0 0 0 1.046.164l2.143-1.56V15a.75.75 0 0 0 1.252.557l3.666-3.3a.75.75 0 0 0-.06-1.163L9.567 9l2.873-2.094a.75.75 0 0 0 .061-1.164L8.836 2.443a.75.75 0 0 0-.809-.129m1.057 2.37 1.727 1.554-1.727 1.258Zm0 5.82 1.727 1.258-1.727 1.554z" style="color:#000;fill:currentColor;stroke-linecap:round;stroke-linejoin:round;-inkscape-stroke:none"/>
</svg>
