<svg xmlns="http://www.w3.org/2000/svg" width="24" height="24" fill="none" stroke-width="1.5" viewBox="0 0 24 24">
    <circle cx="15.5" cy="9.5" r="1.25" style="fill:#000;stroke-width:2.27213;stroke-linecap:round;stroke-linejoin:round"/>
    <circle cx="8.5" cy="9.5" r="1.25" style="fill:#000;stroke-width:2.27213;stroke-linecap:round;stroke-linejoin:round"/>
    <path d="M8 2.25A5.761 5.761 0 0 0 2.25 8v8A5.761 5.761 0 0 0 8 21.75h8A5.761 5.761 0 0 0 21.75 16V8A5.761 5.761 0 0 0 16 2.25Zm0 1.5h8A4.239 4.239 0 0 1 20.25 8v8A4.239 4.239 0 0 1 16 20.25H8A4.239 4.239 0 0 1 3.75 16V8A4.239 4.239 0 0 1 8 3.75" style="color:#000;fill:currentColor;-inkscape-stroke:none"/>
    <path d="M7.605 13.758a.75.75 0 0 0-.554.142.75.75 0 0 0-.15 1.05s1.766 2.3 5.099 2.3 5.1-2.3 5.1-2.3a.75.75 0 0 0-.15-1.05.75.75 0 0 0-1.05.15s-1.233 1.7-3.9 1.7-3.9-1.7-3.9-1.7a.75.75 0 0 0-.495-.292" style="color:#000;fill:currentColor;stroke-linecap:round;stroke-linejoin:round;-inkscape-stroke:none"/>
</svg>
