<svg xmlns="http://www.w3.org/2000/svg" width="24" height="24" fill="none" stroke-width="1.5" viewBox="0 0 24 24">
    <path d="M4.143 2.25a.75.75 0 0 0-.739.621l-3.142 18A.75.75 0 0 0 1 21.75h22a.75.75 0 0 0 .738-.879l-3.142-18a.75.75 0 0 0-.739-.621Zm.63 1.5h14.454l2.88 16.5H1.893Z" style="color:#000;fill:currentColor;stroke-linecap:round;stroke-linejoin:round;-inkscape-stroke:none"/>
    <path d="M2 15.75a.75.75 0 0 0-.75.75.75.75 0 0 0 .75.75h20a.75.75 0 0 0 .75-.75.75.75 0 0 0-.75-.75ZM3 11.25a.75.75 0 0 0-.75.75.75.75 0 0 0 .75.75h18a.75.75 0 0 0 .75-.75.75.75 0 0 0-.75-.75ZM4 6.75a.75.75 0 0 0-.75.75.75.75 0 0 0 .75.75h16a.75.75 0 0 0 .75-.75.75.75 0 0 0-.75-.75Z" style="color:#000;fill:currentColor;stroke-linecap:round;stroke-linejoin:round;-inkscape-stroke:none"/>
    <path d="M12 2.25a.75.75 0 0 0-.75.75v18a.75.75 0 0 0 .75.75.75.75 0 0 0 .75-.75V3a.75.75 0 0 0-.75-.75M8.066 2.752a.75.75 0 0 0-.814.682l-1.5 17a.75.75 0 0 0 .682.814.75.75 0 0 0 .814-.682l1.5-17a.75.75 0 0 0-.682-.814M15.934 2.752a.75.75 0 0 0-.682.814l1.5 17a.75.75 0 0 0 .814.682.75.75 0 0 0 .682-.814l-1.5-17a.75.75 0 0 0-.814-.682" style="color:#000;fill:currentColor;stroke-linecap:round;stroke-linejoin:round;-inkscape-stroke:none"/>
</svg>
