<svg xmlns="http://www.w3.org/2000/svg" width="24" height="24" fill="none" stroke-width="1.5" viewBox="0 0 24 24">
    <path d="M4.064 1.25c-1.54 0-2.825 1.347-2.59 2.908.296 1.959.979 4.997 2.592 7.95a.75.75 0 0 0 1.018.296.75.75 0 0 0 .299-1.017C3.893 8.66 3.236 5.779 2.957 3.934c-.101-.67.393-1.184 1.107-1.184h3.23l1.2 3.188-.451 2.425a.75.75 0 0 0 .6.873.75.75 0 0 0 .875-.6l.49-2.628a.75.75 0 0 0-.035-.403L8.516 1.736a.75.75 0 0 0-.702-.486Zm6.832 11.502a.75.75 0 0 0-.515.25.75.75 0 0 0 .062 1.059c.9.8 1.968 1.48 3.221 2.109a.75.75 0 0 0 .479.066l3.908-.757 3.199 1.218v3.069c0 .759-.576 1.27-1.287 1.115-2.763-.601-7.657-2.083-11.242-5.262a.75.75 0 0 0-1.059.065.75.75 0 0 0 .065 1.058c3.914 3.47 9.021 4.974 11.918 5.604 1.618.352 3.105-.955 3.105-2.58v-3.584a.75.75 0 0 0-.482-.702l-3.883-1.478a.75.75 0 0 0-.41-.037l-3.827.742c-1.068-.553-1.985-1.124-2.709-1.768a.75.75 0 0 0-.543-.187" style="color:#000;fill:currentColor;stroke-linecap:round;stroke-linejoin:round;-inkscape-stroke:none"/>
    <path d="M21 2.25a.75.75 0 0 0-.531.219l-18 18a.75.75 0 0 0 0 1.062.75.75 0 0 0 1.062 0l18-18a.75.75 0 0 0 0-1.062A.75.75 0 0 0 21 2.25" style="color:#000;fill:currentColor;stroke-linecap:round;stroke-linejoin:round;-inkscape-stroke:none"/>
</svg>
