<svg xmlns="http://www.w3.org/2000/svg" width="24" height="24" fill="none" stroke-width="1.5" viewBox="0 0 24 24">
    <path d="M4.615 4.508C2.857 4.332 1.37 5.883 1.62 7.633l.598 4.191c.017.117.017.235 0 .352l-.598 4.191c-.25 1.75 1.238 3.301 2.996 3.125l7.26-.726c.083-.009.167-.009.25 0l7.26.726c1.758.176 3.246-1.375 2.996-3.125l-.598-4.191a1.236 1.236 0 0 1 0-.352l.598-4.191c.25-1.75-1.238-3.301-2.996-3.125l-7.26.726a1.264 1.264 0 0 1-.25 0zM4.465 6l7.262.727c.182.018.364.018.546 0L19.535 6a1.233 1.233 0 0 1 1.361 1.42L20.3 11.61c-.037.258-.037.52 0 .778l.597 4.191a1.233 1.233 0 0 1-1.36 1.42l-7.263-.727a2.755 2.755 0 0 0-.546 0L4.465 18a1.233 1.233 0 0 1-1.361-1.42L3.7 12.39c.037-.258.037-.52 0-.778L3.104 7.42A1.233 1.233 0 0 1 4.464 6" style="color:#000;fill:currentColor;stroke-linecap:round;stroke-linejoin:round;-inkscape-stroke:none"/>
    <path d="M21.105 5.258a.75.75 0 0 0-.554.142l-4 3a.75.75 0 0 0-.15 1.05.75.75 0 0 0 1.048.15l4-3a.75.75 0 0 0 .15-1.05.75.75 0 0 0-.494-.292M7.105 14.258a.75.75 0 0 0-.554.142l-4 3a.75.75 0 0 0-.15 1.05.75.75 0 0 0 1.048.15l4-3a.75.75 0 0 0 .15-1.05.75.75 0 0 0-.494-.292" style="color:#000;fill:currentColor;stroke-linecap:round;stroke-linejoin:round;-inkscape-stroke:none"/>
</svg>
