<svg xmlns="http://www.w3.org/2000/svg" width="24" height="24" fill="none" stroke-width="1.5" viewBox="0 0 24 24">
    <path d="M9.5 13.75a.75.75 0 0 0-.531.219l-6.5 6.5a.75.75 0 0 0 0 1.062.75.75 0 0 0 1.062 0l6.5-6.5a.75.75 0 0 0 0-1.062.75.75 0 0 0-.531-.219" style="color:#000;fill:currentColor;stroke-linecap:round;stroke-linejoin:round;-inkscape-stroke:none"/>
    <path d="M15.127 1.922a.75.75 0 0 0-.543.264l-3.672 4.33A.75.75 0 0 0 11 7.572a.75.75 0 0 0 1.057-.088l3.146-3.707L19.9 8.475l-3.685 3.129a.75.75 0 0 0-.088 1.056.75.75 0 0 0 1.057.086l4.308-3.652a.75.75 0 0 0 .045-1.104l-5.85-5.85a.75.75 0 0 0-.56-.218M6.773 7.043a.75.75 0 0 0-.607.215L4.471 8.955a.75.75 0 0 0 0 1.06l9.191 9.194a.75.75 0 0 0 1.06 0l1.698-1.697a.75.75 0 0 0 .215-.61l-.102-.98a.75.75 0 0 0-.822-.668.75.75 0 0 0-.67.824l.066.625-.914.914-8.132-8.133.914-.914.625.065a.75.75 0 0 0 .822-.668.75.75 0 0 0-.668-.822Z" style="color:#000;fill:currentColor;stroke-linecap:round;stroke-linejoin:round;-inkscape-stroke:none"/>
    <path d="M3 2.25a.75.75 0 0 0-.531.219.75.75 0 0 0 0 1.062l18 18a.75.75 0 0 0 1.062 0 .75.75 0 0 0 0-1.062l-18-18A.75.75 0 0 0 3 2.25" style="color:#000;fill:currentColor;stroke-linecap:round;stroke-linejoin:round;-inkscape-stroke:none"/>
</svg>
