<svg xmlns="http://www.w3.org/2000/svg" width="24" height="24" fill="none" stroke-width="1.5" viewBox="0 0 24 24">
    <path d="M9.5 13.75a.75.75 0 0 0-.531.219l-6.5 6.5a.75.75 0 0 0 0 1.062.75.75 0 0 0 1.062 0l6.5-6.5a.75.75 0 0 0 0-1.062.75.75 0 0 0-.531-.219" style="color:#000;fill:currentColor;stroke-linecap:round;stroke-linejoin:round;-inkscape-stroke:none"/>
    <path d="M15.127 1.922a.75.75 0 0 0-.543.264l-4.416 5.209-3.395-.352a.75.75 0 0 0-.607.215L4.471 8.955a.75.75 0 0 0 0 1.06l9.191 9.194a.75.75 0 0 0 1.06 0l1.698-1.697a.75.75 0 0 0 .215-.608l-.352-3.394 5.21-4.416a.75.75 0 0 0 .044-1.104l-5.85-5.85a.75.75 0 0 0-.56-.218m.076 1.855L19.9 8.475l-4.888 4.148a.75.75 0 0 0-.26.648l.355 3.432-.914.914-8.132-8.133.914-.914 3.431.356a.75.75 0 0 0 .649-.26z" style="color:#000;fill:currentColor;stroke-linecap:round;stroke-linejoin:round;-inkscape-stroke:none"/>
</svg>
