<svg xmlns="http://www.w3.org/2000/svg" width="24" height="24" fill="none" stroke-width="1.5" viewBox="0 0 24 24">
    <path d="m11.49 1.451-5 4.643a.75.75 0 0 0 .422 1.295s3.04.361 5.088.361c2.049 0 5.088-.361 5.088-.361a.75.75 0 0 0 .422-1.295l-5-4.643a.75.75 0 0 0-1.02 0m.51 1.57 3.227 2.999c-1.047.104-2.001.23-3.227.23s-2.18-.126-3.227-.23Z" style="color:#000;fill:currentColor;stroke-linecap:round;stroke-linejoin:round;-inkscape-stroke:none"/>
    <path d="M8.455 6.252a.75.75 0 0 0-.516.25l-3.5 3.94a.75.75 0 0 0 .28 1.193S7.504 12.75 12 12.75c4.496 0 7.281-1.115 7.281-1.115a.75.75 0 0 0 .28-1.194l-3.5-3.939a.75.75 0 0 0-1.059-.063.75.75 0 0 0-.063 1.059l2.711 3.05c-.997.297-2.685.702-5.65.702-2.965 0-4.653-.405-5.65-.701l2.71-3.051a.75.75 0 0 0-.062-1.059.75.75 0 0 0-.543-.187" style="color:#000;fill:currentColor;stroke-linecap:round;stroke-linejoin:round;-inkscape-stroke:none"/>
    <path d="M6.447 10.752a.75.75 0 0 0-.513.256l-3.5 4.023a.75.75 0 0 0 .058 1.045s.802.72 2.354 1.377C6.397 18.11 8.752 18.75 12 18.75c3.248 0 5.603-.64 7.154-1.297 1.552-.657 2.354-1.377 2.354-1.377a.75.75 0 0 0 .058-1.045l-3.5-4.023a.75.75 0 0 0-1.058-.074.75.75 0 0 0-.074 1.058l2.912 3.348c-.266.197-.364.344-1.276.73-1.373.582-3.518 1.18-6.57 1.18-3.052 0-5.197-.598-6.57-1.18-.912-.386-1.01-.533-1.276-.73l2.912-3.348a.75.75 0 0 0-.074-1.058.75.75 0 0 0-.545-.182" style="color:#000;fill:currentColor;stroke-linecap:round;stroke-linejoin:round;-inkscape-stroke:none"/>
    <path d="M12 18.25a.75.75 0 0 0-.75.75v3a.75.75 0 0 0 .75.75.75.75 0 0 0 .75-.75v-3a.75.75 0 0 0-.75-.75" style="color:#000;fill:currentColor;stroke-linecap:round;stroke-linejoin:round;-inkscape-stroke:none"/>
</svg>
