<svg xmlns="http://www.w3.org/2000/svg" width="24" height="24" fill="none" stroke-width="1.5" viewBox="0 0 24 24">
    <path d="M12.5 5.75c-1.807 0-3.826.96-5.105 2.602-1.28 1.64-1.665 4.097-.02 6.564a.75.75 0 0 0 1.041.209.75.75 0 0 0 .209-1.041c-1.355-2.033-1.008-3.577-.047-4.81C9.54 8.04 11.27 7.25 12.5 7.25c1.383 0 2.563.374 3.389 1.115.825.742 1.361 1.872 1.361 3.635 0 2.708-1.74 4.25-3.25 4.25-.75 0-1.182-.29-1.518-.96-.335-.671-.474-1.774-.242-3.167a.75.75 0 0 0-.617-.863.75.75 0 0 0-.863.617c-.268 1.607-.157 3.004.383 4.084S12.75 17.75 14 17.75c2.49 0 4.75-2.383 4.75-5.75 0-2.083-.694-3.703-1.86-4.75-1.165-1.047-2.735-1.5-4.39-1.5" style="color:#000;fill:currentColor;stroke-linecap:round;stroke-linejoin:round;-inkscape-stroke:none"/>
    <path d="M12.19 9.273a.75.75 0 0 0-.917.538l-3 11.5a.75.75 0 0 0 .538.916.75.75 0 0 0 .916-.538l3-11.5a.75.75 0 0 0-.538-.916" style="color:#000;fill:currentColor;stroke-linecap:round;stroke-linejoin:round;-inkscape-stroke:none"/>
    <path d="M12 1.25C6.072 1.25 1.25 6.072 1.25 12S6.072 22.75 12 22.75 22.75 17.928 22.75 12 17.928 1.25 12 1.25m0 1.5A9.24 9.24 0 0 1 21.25 12 9.24 9.24 0 0 1 12 21.25 9.24 9.24 0 0 1 2.75 12 9.24 9.24 0 0 1 12 2.75" style="color:#000;fill:currentColor;stroke-linecap:round;stroke-linejoin:round;-inkscape-stroke:none"/>
</svg>
