<svg xmlns="http://www.w3.org/2000/svg" width="24" height="24" fill="none" stroke-width="1.5" viewBox="0 0 24 24">
    <path d="M10 7.25c-3.719 0-6.75 3.031-6.75 6.75s3.031 6.75 6.75 6.75 6.75-3.031 6.75-6.75S13.719 7.25 10 7.25m0 1.5A5.24 5.24 0 0 1 15.25 14 5.24 5.24 0 0 1 10 19.25 5.24 5.24 0 0 1 4.75 14 5.24 5.24 0 0 1 10 8.75" style="color:#000;fill:currentColor;stroke-linecap:round;stroke-linejoin:round;-inkscape-stroke:none"/>
    <path d="M15 2.25a6.74 6.74 0 0 0-4.756 1.959.75.75 0 0 0-.004 1.06.75.75 0 0 0 1.06.004A5.23 5.23 0 0 1 15 3.75 5.24 5.24 0 0 1 20.25 9a5.22 5.22 0 0 1-1.336 3.5.75.75 0 0 0 .059 1.059.75.75 0 0 0 1.058-.059A6.74 6.74 0 0 0 21.75 9c0-3.719-3.031-6.75-6.75-6.75M9.5 13.75a.75.75 0 0 0-.531.219l-6.5 6.5a.75.75 0 0 0 0 1.062.75.75 0 0 0 1.062 0l6.5-6.5a.75.75 0 0 0 0-1.062.75.75 0 0 0-.531-.219" style="color:#000;fill:currentColor;stroke-linecap:round;stroke-linejoin:round;-inkscape-stroke:none"/>
    <path d="M21 2.25a.75.75 0 0 0-.531.219l-1.5 1.5a.75.75 0 0 0 0 1.062.75.75 0 0 0 1.062 0l1.5-1.5a.75.75 0 0 0 0-1.062A.75.75 0 0 0 21 2.25M10.75 4a.75.75 0 0 0-.531.219l-.25.25-4.5 4.5a.75.75 0 0 0 0 1.062.75.75 0 0 0 1.062 0l4.5-4.5.25-.25a.75.75 0 0 0 0-1.062A.75.75 0 0 0 10.75 4M19.219 12.531a.75.75 0 0 0-.532.219l-4.718 4.719a.75.75 0 0 0 0 1.062.75.75 0 0 0 1.062 0l4.719-4.718a.75.75 0 0 0 0-1.063.75.75 0 0 0-.531-.219" style="color:#000;fill:currentColor;stroke-linecap:round;stroke-linejoin:round;-inkscape-stroke:none"/>
</svg>
