<svg xmlns="http://www.w3.org/2000/svg" width="24" height="24" fill="none" stroke-width="1.5" viewBox="0 0 24 24">
    <path d="M14.512 8.441a.75.75 0 0 0-1.059.057l-.01.01a.75.75 0 0 0 .055 1.06.75.75 0 0 0 1.059-.056l.011-.012a.75.75 0 0 0-.056-1.059M7.97 7.25a.75.75 0 0 0-.517.248l-.01.01a.75.75 0 0 0 .055 1.06.75.75 0 0 0 1.059-.056l.011-.012a.75.75 0 0 0-.056-1.059.75.75 0 0 0-.541-.191M7.97 13.25a.75.75 0 0 0-.517.246l-.01.012a.75.75 0 0 0 .055 1.058.75.75 0 0 0 1.059-.054l.01-.012a.75.75 0 0 0-.055-1.059.75.75 0 0 0-.541-.191" style="color:#000;fill:currentColor;stroke-linecap:round;stroke-linejoin:round;-inkscape-stroke:none"/>
    <path d="M3.201 1.572c-.959-.282-1.924.63-1.695 1.604L5.27 19.172l1.46-.344L3.025 3.082 18.79 7.719l.422-1.438Z" style="color:#000;fill:currentColor;-inkscape-stroke:none"/>
    <path d="M21.107 5.574c-1.33-.332-2.7.49-3.033 1.82-.327 1.309-1.777 3.774-4.03 6.026-2.227 2.228-4.989 4.04-7.607 4.644a2.51 2.51 0 0 0-1.873 2.999 2.51 2.51 0 0 0 2.998 1.873c3.878-.895 7.372-3.335 10.018-5.98 2.62-2.621 4.68-5.684 5.346-8.349a2.513 2.513 0 0 0-1.819-3.033m-.365 1.455a.99.99 0 0 1 .729 1.213c-.55 2.2-2.474 5.175-4.951 7.653-2.503 2.502-5.813 4.776-9.295 5.58a.99.99 0 0 1-1.2-.75.99.99 0 0 1 .75-1.2c3.023-.697 5.956-2.67 8.33-5.045 2.4-2.4 3.968-4.896 4.424-6.722a.99.99 0 0 1 1.213-.729" style="color:#000;fill:currentColor;stroke-linecap:round;-inkscape-stroke:none"/>
</svg>
