<svg xmlns="http://www.w3.org/2000/svg" width="24" height="24" fill="none" stroke-width="1.5" viewBox="0 0 24 24">
    <path d="M12 3.25c-4.824 0-8.75 3.926-8.75 8.75s3.926 8.75 8.75 8.75 8.75-3.926 8.75-8.75S16.824 3.25 12 3.25m0 1.5A7.24 7.24 0 0 1 19.25 12 7.24 7.24 0 0 1 12 19.25 7.24 7.24 0 0 1 4.75 12 7.24 7.24 0 0 1 12 4.75" style="color:#000;fill:currentColor;-inkscape-stroke:none"/>
    <path d="M3.557 5.258c-.866.055-1.696.308-2.075 1.068-.353.709-.11 1.475.303 2.15.412.676 1.048 1.364 1.87 2.086 1.642 1.446 4.039 3.012 6.85 4.415 2.813 1.402 5.506 2.372 7.65 2.814 1.071.22 2.003.315 2.79.238.788-.077 1.547-.344 1.9-1.052.38-.762.08-1.577-.4-2.303-.479-.726-1.21-1.475-2.152-2.26l-.961 1.152c.871.726 1.515 1.409 1.861 1.934s.322.78.309.807c-.012.024-.16.175-.703.228s-1.363-.01-2.342-.213c-1.958-.403-4.565-1.333-7.281-2.687s-5.029-2.878-6.53-4.2c-.75-.66-1.296-1.274-1.58-1.74s-.252-.676-.24-.7c.013-.027.2-.2.824-.24.625-.039 1.555.062 2.655.32l.341-1.462c-1.19-.278-2.224-.41-3.09-.355" style="color:#000;fill:currentColor;-inkscape-stroke:none"/>
</svg>
