<svg xmlns="http://www.w3.org/2000/svg" width="24" height="24" fill="none" stroke-width="1.5" viewBox="0 0 24 24">
    <path d="M12 3.25c-4.824 0-8.75 3.926-8.75 8.75s3.926 8.75 8.75 8.75 8.75-3.926 8.75-8.75S16.824 3.25 12 3.25m0 1.5A7.239 7.239 0 0 1 19.25 12 7.239 7.239 0 0 1 12 19.25 7.239 7.239 0 0 1 4.75 12 7.239 7.239 0 0 1 12 4.75" style="color:#000;fill:currentColor;-inkscape-stroke:none"/>
    <path d="M20.43 5.258c-.869-.054-1.908.08-3.102.36l.342 1.46c1.104-.259 2.038-.361 2.666-.322.628.04.817.212.83.238.012.025.044.236-.24.701-.284.466-.83 1.08-1.58 1.74-1.501 1.322-3.814 2.846-6.53 4.2s-5.323 2.284-7.28 2.687c-.98.202-1.8.266-2.343.213-.542-.053-.69-.204-.703-.228-.013-.027-.04-.28.305-.803.344-.523.987-1.204 1.853-1.928l-.962-1.152c-.938.783-1.666 1.53-2.143 2.254-.477.724-.775 1.539-.397 2.299.354.708 1.114.975 1.9 1.052.788.077 1.72-.017 2.792-.238 2.143-.442 4.836-1.412 7.648-2.814 2.813-1.403 5.21-2.969 6.852-4.415.821-.722 1.457-1.41 1.869-2.085.412-.676.656-1.442.303-2.15h-.002c-.38-.762-1.21-1.015-2.078-1.07" style="color:#000;fill:currentColor;-inkscape-stroke:none"/>
    <path d="M9.47 9.75a.75.75 0 0 0-.517.246l-.01.012a.75.75 0 0 0 .055 1.058.75.75 0 0 0 1.059-.054l.01-.012a.75.75 0 0 0-.055-1.059.75.75 0 0 0-.541-.191" style="color:#000;fill:currentColor;stroke-linecap:round;stroke-linejoin:round;-inkscape-stroke:none"/>
</svg>
