<svg xmlns="http://www.w3.org/2000/svg" width="24" height="24" fill="none" stroke-width="1.5" viewBox="0 0 24 24">
    <path d="M18.156 14.334a.75.75 0 0 0-.406.666v5a.75.75 0 0 0 1.186.61l3.5-2.5a.75.75 0 0 0 0-1.22l-3.5-2.5a.75.75 0 0 0-.78-.056m1.094 2.123 1.46 1.043-1.46 1.043ZM2 4.25a.75.75 0 0 0-.75.75.75.75 0 0 0 .75.75h18a.75.75 0 0 0 .75-.75.75.75 0 0 0-.75-.75ZM2 10.25a.75.75 0 0 0-.75.75.75.75 0 0 0 .75.75h18a.75.75 0 0 0 .75-.75.75.75 0 0 0-.75-.75ZM2 16.25a.75.75 0 0 0-.75.75.75.75 0 0 0 .75.75h12a.75.75 0 0 0 .75-.75.75.75 0 0 0-.75-.75Z" style="color:#000;fill:currentColor;stroke-linecap:round;stroke-linejoin:round;-inkscape-stroke:none"/>
</svg>
