<svg xmlns="http://www.w3.org/2000/svg" width="24" height="24" fill="none" stroke-width="1.5" viewBox="0 0 24 24">
    <path d="M20 15.25a.75.75 0 0 0-.75.75v1.25H18a.75.75 0 0 0-.75.75.75.75 0 0 0 .75.75h1.25V20a.75.75 0 0 0 .75.75.75.75 0 0 0 .75-.75v-1.25H22a.75.75 0 0 0 .75-.75.75.75 0 0 0-.75-.75h-1.25V16a.75.75 0 0 0-.75-.75M2 10.25a.75.75 0 0 0-.75.75.75.75 0 0 0 .75.75h18a.75.75 0 0 0 .75-.75.75.75 0 0 0-.75-.75ZM2 16.25a.75.75 0 0 0-.75.75.75.75 0 0 0 .75.75h12a.75.75 0 0 0 .75-.75.75.75 0 0 0-.75-.75ZM2 4.25a.75.75 0 0 0-.75.75.75.75 0 0 0 .75.75h18a.75.75 0 0 0 .75-.75.75.75 0 0 0-.75-.75Z" style="color:#000;fill:currentColor;stroke-linecap:round;stroke-linejoin:round;-inkscape-stroke:none"/>
</svg>
