<svg xmlns="http://www.w3.org/2000/svg" width="24" height="24" fill="none" stroke-width="1.5" viewBox="0 0 24 24">
    <path d="M2 10.25a.75.75 0 0 0-.75.75.75.75 0 0 0 .75.75h14a.75.75 0 0 0 .75-.75.75.75 0 0 0-.75-.75ZM2 16.25a.75.75 0 0 0-.75.75.75.75 0 0 0 .75.75h11a.75.75 0 0 0 .75-.75.75.75 0 0 0-.75-.75ZM2 4.25a.75.75 0 0 0-.75.75.75.75 0 0 0 .75.75h18a.75.75 0 0 0 .75-.75.75.75 0 0 0-.75-.75Z" style="color:#000;fill:currentColor;stroke-linecap:round;stroke-linejoin:round;-inkscape-stroke:none"/>
    <path d="M20.6 9.25a1.36 1.36 0 0 0-1.35 1.35v5.963c-.257-.103-.459-.313-.75-.313a2.261 2.261 0 0 0-2.25 2.25 2.261 2.261 0 0 0 2.25 2.25c1.027 0 1.762-.77 2.027-1.717a.75.75 0 0 0 .223-.533v-7.75H22a.75.75 0 0 0 .75-.75.75.75 0 0 0-.75-.75Zm-2.1 8.5c.423 0 .75.327.75.75s-.327.75-.75.75a.739.739 0 0 1-.75-.75c0-.423.327-.75.75-.75" style="color:#000;fill:currentColor;stroke-linecap:round;-inkscape-stroke:none"/>
</svg>
