<svg xmlns="http://www.w3.org/2000/svg" width="24" height="24" fill="none" stroke-width="1.5" viewBox="0 0 24 24">
    <path d="M12 .25C6.072.25 1.25 5.072 1.25 11a10.74 10.74 0 0 0 4.299 8.6.75.75 0 0 0 1.05-.149.75.75 0 0 0-.148-1.05A9.228 9.228 0 0 1 2.75 11 9.239 9.239 0 0 1 12 1.75 9.239 9.239 0 0 1 21.25 11a9.228 9.228 0 0 1-3.701 7.4.75.75 0 0 0-.149 1.051.75.75 0 0 0 1.051.149A10.74 10.74 0 0 0 22.75 11C22.75 5.072 17.928.25 12 .25" style="color:#000;fill:currentColor;stroke-linecap:round;stroke-linejoin:round;-inkscape-stroke:none"/>
    <path d="M12 .25C6.072.25 1.25 5.072 1.25 11a10.74 10.74 0 0 0 4.299 8.6.75.75 0 0 0 1.05-.149.75.75 0 0 0-.148-1.05A9.228 9.228 0 0 1 2.75 11 9.239 9.239 0 0 1 12 1.75 9.239 9.239 0 0 1 21.25 11a9.228 9.228 0 0 1-3.701 7.4.75.75 0 0 0-.149 1.051.75.75 0 0 0 1.051.149A10.74 10.74 0 0 0 22.75 11C22.75 5.072 17.928.25 12 .25" style="color:#000;fill:currentColor;stroke-linecap:round;stroke-linejoin:round;-inkscape-stroke:none"/>
    <path d="M12 4.25c-3.719 0-6.75 3.031-6.75 6.75 0 1.725.65 3.307 1.719 4.5a.75.75 0 0 0 1.058.059.75.75 0 0 0 .059-1.059A5.22 5.22 0 0 1 6.75 11 5.239 5.239 0 0 1 12 5.75 5.239 5.239 0 0 1 17.25 11a5.22 5.22 0 0 1-1.336 3.5.75.75 0 0 0 .059 1.059.75.75 0 0 0 1.058-.059A6.735 6.735 0 0 0 18.75 11c0-3.719-3.031-6.75-6.75-6.75" style="color:#000;fill:currentColor;stroke-linecap:round;stroke-linejoin:round;-inkscape-stroke:none"/>
    <path d="M12 8.25c-1.51 0-2.75 1.24-2.75 2.75s1.24 2.75 2.75 2.75 2.75-1.24 2.75-2.75S13.51 8.25 12 8.25m0 1.5c.7 0 1.25.55 1.25 1.25s-.55 1.25-1.25 1.25-1.25-.55-1.25-1.25.55-1.25 1.25-1.25M12 14.654c-.532 0-1.064.154-1.525.461l-.815.543a2.754 2.754 0 0 0-1.187 2.74l.51 3.053a2.757 2.757 0 0 0 2.71 2.299h.614c1.339 0 2.49-.978 2.71-2.299l.51-3.053a2.754 2.754 0 0 0-1.187-2.74l-.815-.543a2.747 2.747 0 0 0-1.525-.46m-.693 1.71a1.245 1.245 0 0 1 1.386 0l.815.542c.41.274.62.76.539 1.246l-.508 3.053a1.242 1.242 0 0 1-1.232 1.045h-.614a1.242 1.242 0 0 1-1.232-1.045l-.508-3.053a1.246 1.246 0 0 1 .54-1.246z" style="color:#000;fill:currentColor;stroke-linecap:round;stroke-linejoin:round;-inkscape-stroke:none"/>
</svg>
