<svg xmlns="http://www.w3.org/2000/svg" width="24" height="24" fill="none" stroke-width="1.5" viewBox="0 0 24 24">
    <path d="M12 1.25C6.072 1.25 1.25 6.072 1.25 12S6.072 22.75 12 22.75 22.75 17.928 22.75 12 17.928 1.25 12 1.25m0 1.5A9.24 9.24 0 0 1 21.25 12 9.24 9.24 0 0 1 12 21.25 9.24 9.24 0 0 1 2.75 12 9.24 9.24 0 0 1 12 2.75" style="color:#000;fill:currentColor;stroke-linecap:round;stroke-linejoin:round;-inkscape-stroke:none"/>
    <path d="M12 1.25c-.806 0-1.53.416-2.102 1.021-.572.606-1.037 1.414-1.423 2.38C7.702 6.581 7.25 9.157 7.25 12s.452 5.418 1.225 7.35c.386.966.851 1.773 1.423 2.379.573.605 1.296 1.021 2.102 1.021s1.53-.416 2.102-1.021c.572-.606 1.037-1.413 1.423-2.38.773-1.931 1.225-4.507 1.225-7.349s-.452-5.418-1.225-7.35c-.386-.965-.851-1.773-1.423-2.379C13.529 1.666 12.806 1.25 12 1.25m0 1.5c.299 0 .627.144 1.012.55.385.408.783 1.063 1.12 1.907C14.809 6.895 15.25 9.32 15.25 12s-.442 5.105-1.117 6.793c-.338.844-.736 1.5-1.121 1.906-.385.407-.713.551-1.012.551s-.627-.144-1.012-.55c-.385-.408-.783-1.063-1.12-1.907C9.191 17.105 8.75 14.68 8.75 12s.442-5.105 1.117-6.793c.338-.844.736-1.5 1.121-1.906.385-.407.713-.551 1.012-.551" style="color:#000;fill:currentColor;stroke-linecap:round;stroke-linejoin:round;-inkscape-stroke:none"/>
    <path d="M10.123 2.26a.75.75 0 0 0-.559.13C5.848 5.047 4.25 9.149 4.25 12.5c0 1.636.254 3.581.926 5.313.671 1.73 1.8 3.302 3.588 3.898a.75.75 0 0 0 .947-.475.75.75 0 0 0-.475-.947c-1.211-.404-2.083-1.528-2.662-3.02-.578-1.49-.824-3.294-.824-4.769 0-2.87 1.402-6.546 4.686-8.89a.75.75 0 0 0 .173-1.046.75.75 0 0 0-.486-.304M15.236 2.29a.75.75 0 0 0-.947.474.75.75 0 0 0 .475.947c1.211.404 2.083 1.528 2.662 3.02.578 1.49.824 3.294.824 4.769 0 2.87-1.402 6.546-4.686 8.89a.75.75 0 0 0-.173 1.046.75.75 0 0 0 1.045.173c3.716-2.655 5.314-6.757 5.314-10.109 0-1.636-.254-3.581-.926-5.312-.671-1.732-1.8-3.303-3.588-3.899" style="color:#000;fill:currentColor;stroke-linecap:round;stroke-linejoin:round;-inkscape-stroke:none"/>
</svg>
