<svg xmlns="http://www.w3.org/2000/svg" width="24" height="24" fill="none" stroke-width="1.5" viewBox="0 0 24 24">
    <path d="M12 4.25c-4.271 0-7.75 3.479-7.75 7.75s3.479 7.75 7.75 7.75 7.75-3.479 7.75-7.75S16.271 4.25 12 4.25m0 1.5c3.46 0 6.25 2.79 6.25 6.25s-2.79 6.25-6.25 6.25S5.75 15.46 5.75 12 8.54 5.75 12 5.75" style="color:#000;fill:currentColor;stroke-linecap:round;stroke-linejoin:round;-inkscape-stroke:none"/>
    <path d="M12 18.25a.75.75 0 0 0-.75.75v2a.75.75 0 0 0 .75.75.75.75 0 0 0 .75-.75v-2a.75.75 0 0 0-.75-.75M3 11.25a.75.75 0 0 0-.75.75.75.75 0 0 0 .75.75h2a.75.75 0 0 0 .75-.75.75.75 0 0 0-.75-.75ZM12 2.25a.75.75 0 0 0-.75.75v2a.75.75 0 0 0 .75.75.75.75 0 0 0 .75-.75V3a.75.75 0 0 0-.75-.75M19 11.25a.75.75 0 0 0-.75.75.75.75 0 0 0 .75.75h2a.75.75 0 0 0 .75-.75.75.75 0 0 0-.75-.75Z" style="color:#000;fill:currentColor;stroke-linecap:round;stroke-linejoin:round;-inkscape-stroke:none"/>
</svg>
