<svg xmlns="http://www.w3.org/2000/svg" width="24" height="24" fill="none" stroke-width="1.5" viewBox="0 0 24 24">
    <path d="M7.785 1.357a2.763 2.763 0 0 0-3.187 2.23l-2.43 13.788a2.761 2.761 0 0 0 2.23 3.186l11.817 2.084a2.763 2.763 0 0 0 3.187-2.23l2.43-13.788a2.761 2.761 0 0 0-2.23-3.186Zm-.262 1.477 11.819 2.084a1.238 1.238 0 0 1 1.013 1.447l-2.431 13.787a1.24 1.24 0 0 1-1.447 1.016L4.658 19.084a1.24 1.24 0 0 1-1.013-1.45L6.076 3.849a1.238 1.238 0 0 1 1.447-1.014" style="color:#000;fill:currentColor;-inkscape-stroke:none"/>
    <path d="M9.059 5.643a.75.75 0 0 0-.87.609.75.75 0 0 0 .61.87l7.879 1.388a.75.75 0 0 0 .869-.61.75.75 0 0 0-.61-.867ZM8.365 9.582a.75.75 0 0 0-.869.61.75.75 0 0 0 .608.869l7.878 1.388a.75.75 0 0 0 .87-.61.75.75 0 0 0-.61-.866zM7.67 13.521a.75.75 0 0 0-.87.61.75.75 0 0 0 .61.869l4.924.867a.75.75 0 0 0 .87-.607.75.75 0 0 0-.61-.87z" style="color:#000;fill:currentColor;stroke-linecap:round;-inkscape-stroke:none"/>
</svg>
