<svg xmlns="http://www.w3.org/2000/svg" width="24" height="24" fill="none" stroke-width="1.5" viewBox="0 0 24 24">
    <path d="M10.38 12.906a.75.75 0 0 0-.405.406c-1.077 2.585-2.719 5.093-4.633 6.012a.75.75 0 0 0 .324 1.426h10.557s1.915.05 3.297-1.275a.75.75 0 0 0 .021-1.06.75.75 0 0 0-1.06-.022c-.841.807-2.258.857-2.258.857H7.95c1.479-1.426 2.592-3.401 3.408-5.361a.75.75 0 0 0-.404-.98.75.75 0 0 0-.574-.003" style="color:#000;fill:currentColor;stroke-linecap:round;stroke-linejoin:round;-inkscape-stroke:none"/>
    <path d="M4 12.85a.75.75 0 0 0-.75.75.75.75 0 0 0 .75.75h11.111a.75.75 0 0 0 .75-.75.75.75 0 0 0-.75-.75z" style="color:#000;fill:currentColor;stroke-linecap:round;stroke-linejoin:round;-inkscape-stroke:none"/>
    <path d="M12.334 3.25c-3.15 0-5.75 2.478-5.75 5.55 0 3.074 2.6 5.55 5.75 5.55a.75.75 0 0 0 .75-.75.75.75 0 0 0-.75-.75c-2.372 0-4.25-1.82-4.25-4.05 0-2.228 1.878-4.05 4.25-4.05s4.25 1.822 4.25 4.05a.75.75 0 0 0 .75.75.75.75 0 0 0 .75-.75c0-3.072-2.6-5.55-5.75-5.55" style="color:#000;fill:currentColor;stroke-linecap:round;stroke-linejoin:round;-inkscape-stroke:none"/>
</svg>
