<svg xmlns="http://www.w3.org/2000/svg" width="24" height="24" fill="none" stroke-width="1.5" viewBox="0 0 24 24">
    <path d="M7 6.25A4.76 4.76 0 0 0 2.25 11v6.4c0 .737.613 1.35 1.35 1.35h2.828v-1.5H3.75V11A3.24 3.24 0 0 1 7 7.75h10A3.24 3.24 0 0 1 20.25 11v6.25h-2.678v1.5H20.4a1.36 1.36 0 0 0 1.35-1.35V11A4.76 4.76 0 0 0 17 6.25Z" style="color:#000;fill:currentColor;-inkscape-stroke:none"/>
    <path d="M8.6 2.25A1.36 1.36 0 0 0 7.25 3.6V7h1.5V3.75h6.5V7h1.5V3.6a1.36 1.36 0 0 0-1.35-1.35ZM7.52 13.25c-.667 0-1.242.499-1.336 1.158l-.498 3.487-.33 2.314c-.115.8.527 1.541 1.335 1.541H17.31c.808 0 1.45-.741 1.336-1.541l-.33-2.314-.499-3.487a1.36 1.36 0 0 0-1.336-1.158Zm.13 1.5h8.7l.478 3.355.307 2.145H6.865l.307-2.145Z" style="color:#000;fill:currentColor;-inkscape-stroke:none"/>
    <path d="M16.97 9.25a.75.75 0 0 0-.517.248l-.01.01a.75.75 0 0 0 .055 1.06.75.75 0 0 0 1.059-.056l.011-.012a.75.75 0 0 0-.056-1.059.75.75 0 0 0-.541-.191" style="color:#000;fill:currentColor;stroke-linecap:round;stroke-linejoin:round;-inkscape-stroke:none"/>
</svg>
