<svg xmlns="http://www.w3.org/2000/svg" width="24" height="24" fill="none" stroke-width="1.5" viewBox="0 0 24 24">
    <path d="M12 .504c-.347 0-.695.13-.955.39L.895 11.045c-.521.522-.521 1.39 0 1.911l10.15 10.15c.52.521 1.39.521 1.91 0l10.15-10.15c.521-.52.521-1.39 0-1.91L12.955.895c-.26-.26-.608-.391-.955-.391m0 1.557L21.94 12 12 21.94 2.06 12Z" style="color:#000;fill:currentColor;stroke-linecap:round;stroke-linejoin:round;-inkscape-stroke:none"/>
    <path d="M12 6.25a.75.75 0 0 0-.75.75v7.137l-2.709-2.823a.75.75 0 0 0-1.06-.021.75.75 0 0 0-.022 1.06l4 4.167a.75.75 0 0 0 .006.002.75.75 0 0 0 .004.01.75.75 0 0 0 .277.113.75.75 0 0 0 .246.101.75.75 0 0 0 .008.004.75.75 0 0 0 .287-.12.75.75 0 0 0 .233-.089.75.75 0 0 0 .003-.006.75.75 0 0 0 .008-.004l4-4a.75.75 0 0 0 0-1.062.75.75 0 0 0-1.062 0l-2.719 2.719V7a.75.75 0 0 0-.75-.75" style="color:#000;fill:currentColor;stroke-linecap:round;stroke-linejoin:round;-inkscape-stroke:none"/>
</svg>
