<svg xmlns="http://www.w3.org/2000/svg" width="24" height="24" fill="none" stroke-width="1.5" viewBox="0 0 24 24">
    <path d="M4.6 1.25A1.36 1.36 0 0 0 3.25 2.6v18.8c0 .737.613 1.35 1.35 1.35H13a.75.75 0 0 0 .75-.75.75.75 0 0 0-.75-.75H4.75V2.75h11.438l3.062 3.06V12a.75.75 0 0 0 .75.75.75.75 0 0 0 .75-.75V5.748c0-.358-.142-.7-.395-.953v-.002l-3.148-3.148h-.002a1.35 1.35 0 0 0-.953-.395Z" style="color:#000;fill:currentColor;stroke-linecap:round;stroke-linejoin:round;-inkscape-stroke:none"/>
    <path d="M8 5.25a.75.75 0 0 0-.75.75.75.75 0 0 0 .75.75h4a.75.75 0 0 0 .75-.75.75.75 0 0 0-.75-.75Zm0 4a.75.75 0 0 0-.75.75.75.75 0 0 0 .75.75h8a.75.75 0 0 0 .75-.75.75.75 0 0 0-.75-.75Zm0 4a.75.75 0 0 0-.75.75.75.75 0 0 0 .75.75h3a.75.75 0 0 0 .75-.75.75.75 0 0 0-.75-.75ZM16 1.25a.75.75 0 0 0-.75.75v3.4c0 .737.613 1.35 1.35 1.35H20a.75.75 0 0 0 .75-.75.75.75 0 0 0-.75-.75h-3.25V2a.75.75 0 0 0-.75-.75M18.822 14.398l-2.554.649a1.34 1.34 0 0 0-1.01 1.334c.09 3.022 1.028 4.884 2.004 5.96.975 1.078 2.045 1.384 2.045 1.384a.75.75 0 0 0 .386 0s1.07-.306 2.045-1.383c.976-1.077 1.914-2.94 2.004-5.961a1.34 1.34 0 0 0-1.01-1.334l-2.554-.649a2.76 2.76 0 0 0-1.356 0m.37 1.454c.201-.052.415-.052.617 0l2.412.613c-.108 2.631-.88 4.08-1.594 4.869-.621.686-.987.759-1.127.803-.14-.044-.506-.117-1.127-.803-.714-.788-1.486-2.238-1.594-4.87z" style="color:#000;fill:currentColor;stroke-linecap:round;stroke-linejoin:round;-inkscape-stroke:none"/>
</svg>
