<svg xmlns="http://www.w3.org/2000/svg" width="24" height="24" fill="none" stroke-width="1.5" viewBox="0 0 24 24">
    <path d="M12 12.25c-2.575 0-4.91.455-6.668 1.236-.879.391-1.618.862-2.168 1.44-.55.577-.914 1.294-.914 2.074s.365 1.497.914 2.074c.55.578 1.289 1.049 2.168 1.44C7.09 21.295 9.425 21.75 12 21.75s4.91-.455 6.668-1.236c.879-.391 1.618-.862 2.168-1.44.55-.577.914-1.294.914-2.074s-.365-1.497-.914-2.074c-.55-.578-1.289-1.049-2.168-1.44-1.758-.781-4.093-1.236-6.668-1.236m0 1.5c2.395 0 4.56.441 6.059 1.107.75.334 1.33.724 1.691 1.104s.5.715.5 1.039-.139.66-.5 1.04c-.361.379-.942.77-1.691 1.103-1.5.666-3.664 1.107-6.059 1.107s-4.56-.441-6.059-1.107c-.75-.334-1.33-.724-1.691-1.104s-.5-.715-.5-1.039.139-.66.5-1.04c.361-.379.942-.77 1.691-1.103 1.5-.666 3.664-1.107 6.059-1.107M12 1.25A3.76 3.76 0 0 0 8.25 5v1a.75.75 0 0 0 .75.75h6a.75.75 0 0 0 .75-.75V5A3.76 3.76 0 0 0 12 1.25m0 1.5c1.252 0 2.25.998 2.25 2.25v.25h-4.5V5c0-1.252.998-2.25 2.25-2.25" style="color:#000;fill:currentColor;stroke-linecap:round;stroke-linejoin:round;-inkscape-stroke:none"/>
    <path d="M7.303 7.777a.75.75 0 0 0-.453.35l-4 7a.75.75 0 0 0 .277 1.023.75.75 0 0 0 1.023-.277l4-7a.75.75 0 0 0-.277-1.023.75.75 0 0 0-.57-.073M16.697 7.777a.75.75 0 0 0-.57.073.75.75 0 0 0-.277 1.023l4 7a.75.75 0 0 0 1.023.277.75.75 0 0 0 .277-1.023l-4-7a.75.75 0 0 0-.453-.35" style="color:#000;fill:currentColor;stroke-linecap:round;stroke-linejoin:round;-inkscape-stroke:none"/>
</svg>
