<svg xmlns="http://www.w3.org/2000/svg" width="24" height="24" fill="none" stroke-width="1.5" viewBox="0 0 24 24">
    <path d="M4 13.25a.75.75 0 0 0-.75.75v4.4c0 .737.613 1.35 1.35 1.35H10a.75.75 0 0 0 .75-.75.75.75 0 0 0-.75-.75H4.75V14a.75.75 0 0 0-.75-.75M19 13.25a.75.75 0 0 0-.75.75v4.25H14a.75.75 0 0 0-.75.75.75.75 0 0 0 .75.75h4.4a1.36 1.36 0 0 0 1.35-1.35V14a.75.75 0 0 0-.75-.75M14 4.25a.75.75 0 0 0-.75.75.75.75 0 0 0 .75.75h4.25V10a.75.75 0 0 0 .75.75.75.75 0 0 0 .75-.75V5.6a1.36 1.36 0 0 0-1.35-1.35ZM4.6 4.25A1.36 1.36 0 0 0 3.25 5.6V10a.75.75 0 0 0 .75.75.75.75 0 0 0 .75-.75V5.75H10a.75.75 0 0 0 .75-.75.75.75 0 0 0-.75-.75Z" style="color:#000;fill:currentColor;stroke-linecap:round;stroke-linejoin:round;-inkscape-stroke:none"/>
    <path d="M10 18.25a.75.75 0 0 0-.75.75v1c0 1.51 1.24 2.75 2.75 2.75s2.75-1.24 2.75-2.75v-1a.75.75 0 0 0-.75-.75.75.75 0 0 0-.75.75v1c0 .7-.55 1.25-1.25 1.25s-1.25-.55-1.25-1.25v-1a.75.75 0 0 0-.75-.75M4 9.25a.75.75 0 0 0-.75.75.75.75 0 0 0 .75.75h1c.7 0 1.25.55 1.25 1.25S5.7 13.25 5 13.25H4a.75.75 0 0 0-.75.75.75.75 0 0 0 .75.75h1c1.51 0 2.75-1.24 2.75-2.75S6.51 9.25 5 9.25ZM19 9.25a.75.75 0 0 0-.75.75.75.75 0 0 0 .75.75h1c.7 0 1.25.55 1.25 1.25s-.55 1.25-1.25 1.25h-1a.75.75 0 0 0-.75.75.75.75 0 0 0 .75.75h1c1.51 0 2.75-1.24 2.75-2.75S21.51 9.25 20 9.25zM12 1.25c-1.51 0-2.75 1.24-2.75 2.75v1a.75.75 0 0 0 .75.75.75.75 0 0 0 .75-.75V4c0-.7.55-1.25 1.25-1.25s1.25.55 1.25 1.25v1a.75.75 0 0 0 .75.75.75.75 0 0 0 .75-.75V4c0-1.51-1.24-2.75-2.75-2.75" style="color:#000;fill:currentColor;stroke-linecap:round;stroke-linejoin:round;-inkscape-stroke:none"/>
</svg>
