<svg xmlns="http://www.w3.org/2000/svg" width="24" height="24" fill="none" stroke-width="1.5" viewBox="0 0 24 24">
    <path d="M5 2.25C3.49 2.25 2.25 3.49 2.25 5v15.29c0 .597.412 1.1.902 1.273.49.171 1.128.037 1.502-.43l2.33-2.914c.238-.297.597-.469.977-.469H19c1.51 0 2.75-1.24 2.75-2.75V5c0-1.51-1.24-2.75-2.75-2.75Zm0 1.5h14c.7 0 1.25.55 1.25 1.25v10c0 .7-.55 1.25-1.25 1.25H7.96a2.75 2.75 0 0 0-2.146 1.031l-2.064 2.58V5c0-.7.55-1.25 1.25-1.25" style="color:#000;fill:currentColor;-inkscape-stroke:none"/>
    <path d="M8.5 6.25c-.958 0-1.75.792-1.75 1.75v1c0 .958.792 1.75 1.75 1.75h.912c-.065.112-.043.176-.137.3-.327.437-.806.919-1.306 1.419a.75.75 0 0 0 0 1.062.75.75 0 0 0 1.062 0c.5-.5 1.02-1.018 1.444-1.582.26-.347.335-.788.476-1.199h.299V8c0-.958-.792-1.75-1.75-1.75Zm0 1.5h1a.24.24 0 0 1 .25.25v1.25H8.5A.24.24 0 0 1 8.25 9V8a.24.24 0 0 1 .25-.25M14.5 6.25c-.958 0-1.75.792-1.75 1.75v1c0 .958.792 1.75 1.75 1.75h.912c-.065.112-.043.176-.137.3-.327.437-.806.919-1.306 1.419a.75.75 0 0 0 0 1.062.75.75 0 0 0 1.062 0c.5-.5 1.02-1.018 1.444-1.582.26-.347.335-.788.476-1.199h.299V8c0-.958-.792-1.75-1.75-1.75zm0 1.5h1a.24.24 0 0 1 .25.25v1.25H14.5a.24.24 0 0 1-.25-.25V8a.24.24 0 0 1 .25-.25" style="color:#000;fill:currentColor;stroke-linecap:round;-inkscape-stroke:none"/>
</svg>
