<svg xmlns="http://www.w3.org/2000/svg" width="24" height="24" fill="none" stroke-width="1.5" viewBox="0 0 24 24">
    <path d="M10.28 15.303a.75.75 0 0 0-.91.29l-3 4.663a.75.75 0 0 0 .255 1.055A10.7 10.7 0 0 0 12 22.75a10.7 10.7 0 0 0 5.375-1.44.75.75 0 0 0 .256-1.054l-3-4.662a.75.75 0 0 0-.91-.291s-.921.347-1.721.347-1.72-.347-1.72-.347m.081 1.521c.382.132.776.326 1.639.326s1.257-.194 1.639-.326l2.248 3.496c-1.19.557-2.484.93-3.887.93s-2.698-.373-3.887-.93zM16.785 2.62a.75.75 0 0 0-.455.376l-2.537 4.928a.75.75 0 0 0 .203.933s.762.624 1.162 1.317.56 1.664.56 1.664a.75.75 0 0 0 .706.642l5.537.268a.75.75 0 0 0 .787-.748 10.7 10.7 0 0 0-1.441-5.375 10.7 10.7 0 0 0-3.936-3.936.75.75 0 0 0-.586-.07m.473 1.853c1.077.751 2.046 1.686 2.748 2.902s1.029 2.523 1.14 3.832l-4.152-.201c-.076-.397-.106-.835-.537-1.582s-.797-.992-1.102-1.256ZM7.21 2.62a.75.75 0 0 0-.587.07 10.7 10.7 0 0 0-3.934 3.935A10.7 10.7 0 0 0 1.248 12a.75.75 0 0 0 .787.748l5.537-.268a.75.75 0 0 0 .705-.64s.16-.971.56-1.664 1.161-1.319 1.161-1.319a.75.75 0 0 0 .203-.933L7.666 2.996a.75.75 0 0 0-.455-.377m-.472 1.853 1.903 3.695c-.305.264-.67.51-1.102 1.258-.431.747-.46 1.183-.537 1.58l-4.152.201c.111-1.309.436-2.616 1.138-3.832s1.673-2.151 2.75-2.902M12 9.25c-1.51 0-2.75 1.24-2.75 2.75s1.24 2.75 2.75 2.75 2.75-1.24 2.75-2.75S13.51 9.25 12 9.25m0 1.5c.7 0 1.25.55 1.25 1.25s-.55 1.25-1.25 1.25-1.25-.55-1.25-1.25.55-1.25 1.25-1.25" style="color:#000;fill:currentColor;stroke-linecap:round;stroke-linejoin:round;-inkscape-stroke:none"/>
</svg>
