<svg xmlns="http://www.w3.org/2000/svg" width="24" height="24" fill="none" stroke-width="1.5" viewBox="0 0 24 24">
    <path d="M4.6 2.25A1.36 1.36 0 0 0 3.25 3.6V6a.75.75 0 0 0 .75.75.75.75 0 0 0 .75-.75V3.75h14.5V6a.75.75 0 0 0 .75.75.75.75 0 0 0 .75-.75V3.6a1.36 1.36 0 0 0-1.35-1.35ZM4 17.25a.75.75 0 0 0-.75.75v2.4c0 .737.613 1.35 1.35 1.35h14.8a1.36 1.36 0 0 0 1.35-1.35V18a.75.75 0 0 0-.75-.75.75.75 0 0 0-.75.75v2.25H4.75V18a.75.75 0 0 0-.75-.75" style="color:#000;fill:currentColor;stroke-linecap:round;-inkscape-stroke:none"/>
    <path d="M16.5 8.25a.75.75 0 0 0-.75.75v6a.75.75 0 0 0 1.42.336l.83-1.66.83 1.66A.75.75 0 0 0 20.25 15V9a.75.75 0 0 0-.75-.75.75.75 0 0 0-.75.75v2.824l-.08-.16a.75.75 0 0 0-1.34 0l-.08.16V9a.75.75 0 0 0-.75-.75M12 8.25a2.26 2.26 0 0 0-2.25 2.25V15a.75.75 0 0 0 .75.75.75.75 0 0 0 .75-.75v-2.25h1.5V15a.75.75 0 0 0 .75.75.75.75 0 0 0 .75-.75v-4.5A2.26 2.26 0 0 0 12 8.25m0 1.5c.423 0 .75.327.75.75v.75h-1.5v-.75c0-.423.327-.75.75-.75M4.5 8.25a.75.75 0 0 0-.75.75v6a.75.75 0 0 0 .75.75.75.75 0 0 0 .75-.75V9.75h1.5v.75c0 .423-.327.75-.75.75a.75.75 0 0 0-.75.75.75.75 0 0 0 .75.75 2.26 2.26 0 0 0 2.25-2.25v-.9A1.36 1.36 0 0 0 6.9 8.25Z" style="color:#000;fill:currentColor;stroke-linecap:round;stroke-linejoin:round;-inkscape-stroke:none"/>
    <path d="M4.5 11.25a.75.75 0 0 0-.75.75.75.75 0 0 0 .75.75H6c.423 0 .75.327.75.75V15a.75.75 0 0 0 .75.75.75.75 0 0 0 .75-.75v-1.5A2.26 2.26 0 0 0 6 11.25Z" style="color:#000;fill:currentColor;stroke-linecap:round;stroke-linejoin:round;-inkscape-stroke:none"/>
</svg>
