<svg xmlns="http://www.w3.org/2000/svg" width="24" height="24" fill="none" stroke-width="1.5" viewBox="0 0 24 24">
    <path d="M16.824 7.25a.75.75 0 0 0-.525.23L12.48 11.46l-.01.008a.75.75 0 0 0-.003.004l-.008.01a.75.75 0 0 0 0 .011.75.75 0 0 0-.209.508.75.75 0 0 0 .209.508.75.75 0 0 0 0 .012l.008.01a.75.75 0 0 0 .004.003l.01.008 3.818 3.979a.75.75 0 0 0 1.06.021.75.75 0 0 0 .022-1.06L14.76 12.75H21a.75.75 0 0 0 .75-.75.75.75 0 0 0-.75-.75h-6.24l2.62-2.73a.75.75 0 0 0-.02-1.061.75.75 0 0 0-.536-.209M8.87 6.25c-3.106 0-5.62 2.594-5.62 5.75s2.514 5.75 5.62 5.75c.881 0 1.722-.21 2.466-.582a.75.75 0 0 0 .334-1.006.75.75 0 0 0-1.006-.336 3.99 3.99 0 0 1-1.795.424c-2.273 0-4.119-1.883-4.119-4.25s1.846-4.25 4.12-4.25a3.99 3.99 0 0 1 1.794.424.75.75 0 0 0 1.006-.336.75.75 0 0 0-.334-1.006 5.506 5.506 0 0 0-2.467-.582" style="color:#000;fill:currentColor;stroke-linecap:round;stroke-linejoin:round;-inkscape-stroke:none"/>
    <path d="M3 10.25a.75.75 0 0 0-.75.75.75.75 0 0 0 .75.75h6a.75.75 0 0 0 .75-.75.75.75 0 0 0-.75-.75ZM3 12.25a.75.75 0 0 0-.75.75.75.75 0 0 0 .75.75h6a.75.75 0 0 0 .75-.75.75.75 0 0 0-.75-.75Z" style="color:#000;fill:currentColor;stroke-linecap:round;stroke-linejoin:round;-inkscape-stroke:none"/>
</svg>
