<svg xmlns="http://www.w3.org/2000/svg" width="24" height="24" fill="none" stroke-width="1.5" viewBox="0 0 24 24">
    <path d="M16.824 7.25a.75.75 0 0 0-.525.23L12.48 11.46l-.01.008-.003.004-.008.01v.011a.75.75 0 0 0-.209.508.75.75 0 0 0 .209.508v.012l.008.01.004.003.01.008 3.818 3.979a.75.75 0 0 0 1.06.021.75.75 0 0 0 .022-1.06L14.76 12.75H21a.75.75 0 0 0 .75-.75.75.75 0 0 0-.75-.75h-6.24l2.62-2.73a.75.75 0 0 0-.02-1.061.75.75 0 0 0-.536-.209M3 12.25a.75.75 0 0 0-.75.75.75.75 0 0 0 .75.75h8a.75.75 0 0 0 .75-.75.75.75 0 0 0-.75-.75Z" style="color:#000;fill:currentColor;stroke-linecap:round;stroke-linejoin:round;-inkscape-stroke:none"/>
    <path d="M3.117 6.26a.75.75 0 0 0-.558.133.75.75 0 0 0-.166 1.048l3.857 5.305V18a.75.75 0 0 0 .75.75.75.75 0 0 0 .75-.75v-5.254l3.857-5.305a.75.75 0 0 0-.166-1.048.75.75 0 0 0-1.048.166L7 11.223 3.607 6.559a.75.75 0 0 0-.49-.3" style="color:#000;fill:currentColor;stroke-linecap:round;stroke-linejoin:round;-inkscape-stroke:none"/>
    <path d="M3 14.25a.75.75 0 0 0-.75.75.75.75 0 0 0 .75.75h8a.75.75 0 0 0 .75-.75.75.75 0 0 0-.75-.75Z" style="color:#000;fill:currentColor;stroke-linecap:round;stroke-linejoin:round;-inkscape-stroke:none"/>
</svg>
