<svg xmlns="http://www.w3.org/2000/svg" width="24" height="24" fill="none" stroke-width="1.5" viewBox="0 0 24 24">
    <path d="M16.824 7.25a.75.75 0 0 0-.525.23L12.48 11.46l-.01.008-.003.004-.008.01v.011a.75.75 0 0 0-.209.508.75.75 0 0 0 .209.508v.012l.008.01.004.003.01.008 3.818 3.979a.75.75 0 0 0 1.06.021.75.75 0 0 0 .022-1.06L14.76 12.75H21a.75.75 0 0 0 .75-.75.75.75 0 0 0-.75-.75h-6.24l2.62-2.73a.75.75 0 0 0-.02-1.061.75.75 0 0 0-.536-.209M7.28 12.303a.75.75 0 0 0-.977.418c-.635 1.586-1.619 3.099-2.639 3.61A.75.75 0 0 0 4 17.75h6.334s1.265.045 2.197-.887a.75.75 0 0 0 0-1.06.75.75 0 0 0-1.062 0c-.402.401-1.135.447-1.135.447H5.898a11 11 0 0 0 1.8-2.97.75.75 0 0 0-.419-.977" style="color:#000;fill:currentColor;stroke-linecap:round;stroke-linejoin:round;-inkscape-stroke:none"/>
    <path d="M3 12.25a.75.75 0 0 0-.75.75.75.75 0 0 0 .75.75h6.666a.75.75 0 0 0 .75-.75.75.75 0 0 0-.75-.75Z" style="color:#000;fill:currentColor;stroke-linecap:round;stroke-linejoin:round;-inkscape-stroke:none"/>
    <path d="M8 6.25A3.76 3.76 0 0 0 4.25 10 3.76 3.76 0 0 0 8 13.75a.75.75 0 0 0 .75-.75.75.75 0 0 0-.75-.75A2.24 2.24 0 0 1 5.75 10c0-1.252.998-2.25 2.25-2.25s2.25.998 2.25 2.25a.75.75 0 0 0 .75.75.75.75 0 0 0 .75-.75A3.76 3.76 0 0 0 8 6.25" style="color:#000;fill:currentColor;stroke-linecap:round;stroke-linejoin:round;-inkscape-stroke:none"/>
</svg>
