<svg xmlns="http://www.w3.org/2000/svg" width="24" height="24" fill="none" stroke-width="1.5" viewBox="0 0 24 24">
    <path d="M9.8 9.875s-.872-.008-1.755.465c-.884.473-1.795 1.552-1.795 3.285 0 1.895.874 3.06 1.764 3.596.889.536 1.787.529 1.787.529h.799a.75.75 0 0 0 .75-.75.75.75 0 0 0-.75-.75h-.8s-.502-.007-1.013-.314c-.51-.308-1.037-.83-1.037-2.311 0-1.267.487-1.688 1.004-1.965a2.558 2.558 0 0 1 1.047-.285H17a.75.75 0 0 0 .75-.75.75.75 0 0 0-.75-.75Z" style="color:#000;fill:currentColor;stroke-linecap:round;stroke-linejoin:round;-inkscape-stroke:none"/>
    <path d="M13.514 6.25a.75.75 0 0 0-.535.21.75.75 0 0 0-.018 1.061l2.978 3.084-2.96 2.856a.75.75 0 0 0-.018 1.06.75.75 0 0 0 1.06.018l3.5-3.375a.75.75 0 0 0 .018-1.06l-3.5-3.625a.75.75 0 0 0-.525-.229" style="color:#000;fill:currentColor;stroke-linecap:round;stroke-linejoin:round;-inkscape-stroke:none"/>
    <path d="M12 1.25C6.072 1.25 1.25 6.072 1.25 12S6.072 22.75 12 22.75 22.75 17.928 22.75 12 17.928 1.25 12 1.25m0 1.5A9.239 9.239 0 0 1 21.25 12 9.239 9.239 0 0 1 12 21.25 9.239 9.239 0 0 1 2.75 12 9.239 9.239 0 0 1 12 2.75" style="color:#000;fill:currentColor;stroke-linecap:round;stroke-linejoin:round;-inkscape-stroke:none"/>
</svg>
