<svg xmlns="http://www.w3.org/2000/svg" width="24" height="24" fill="none" stroke-width="1.5" viewBox="0 0 24 24">
    <path d="M12 1.25C6.072 1.25 1.25 6.072 1.25 12S6.072 22.75 12 22.75c5.38 0 9.853-3.966 10.63-9.139a.75.75 0 0 0-.63-.853.75.75 0 0 0-.854.63A9.245 9.245 0 0 1 12 21.25 9.239 9.239 0 0 1 2.75 12 9.239 9.239 0 0 1 12 2.75c3.8 0 7.054 2.285 8.48 5.55a.75.75 0 0 0 .989.387.75.75 0 0 0 .386-.988A10.757 10.757 0 0 0 12 1.25" style="color:#000;fill:currentColor;stroke-linecap:round;stroke-linejoin:round;-inkscape-stroke:none"/>
    <path d="M22 2.25a.75.75 0 0 0-.75.75v4.25H17a.75.75 0 0 0-.75.75.75.75 0 0 0 .75.75h4.4a1.36 1.36 0 0 0 1.35-1.35V3a.75.75 0 0 0-.75-.75" style="color:#000;fill:currentColor;stroke-linecap:round;stroke-linejoin:round;-inkscape-stroke:none"/>
</svg>
