<svg xmlns="http://www.w3.org/2000/svg" width="24" height="24" fill="none" stroke-width="1.5" viewBox="0 0 24 24">
    <path d="M12 1.25C6.072 1.25 1.25 6.072 1.25 12S6.072 22.75 12 22.75 22.75 17.928 22.75 12 17.928 1.25 12 1.25m0 1.5A9.239 9.239 0 0 1 21.25 12 9.239 9.239 0 0 1 12 21.25 9.239 9.239 0 0 1 2.75 12 9.239 9.239 0 0 1 12 2.75" style="color:#000;fill:currentColor;-inkscape-stroke:none"/>
    <path d="M11.988 6.25c-2.936 0-5.435 1.996-5.734 4.666a.75.75 0 0 0 .662.83.75.75 0 0 0 .83-.662c.204-1.822 1.98-3.334 4.242-3.334 1.789 0 3.288.96 3.922 2.248a.75.75 0 0 0 1.004.342.75.75 0 0 0 .342-1.004c-.912-1.852-2.945-3.086-5.268-3.086" style="color:#000;fill:currentColor;stroke-linecap:round;stroke-linejoin:round;-inkscape-stroke:none"/>
    <path d="M17 6.75a.75.75 0 0 0-.75.75v1.473h-1.756a.75.75 0 0 0-.75.75.75.75 0 0 0 .75.75H16.4a1.36 1.36 0 0 0 1.35-1.35V7.5a.75.75 0 0 0-.75-.75M17.066 11.254a.75.75 0 0 0-.812.68c-.221 2.465-2.065 4.316-4.242 4.316-1.722 0-3.222-1.147-3.897-2.857a.75.75 0 0 0-.972-.424.75.75 0 0 0-.424.972c.872 2.214 2.904 3.809 5.293 3.809 3.02 0 5.452-2.535 5.734-5.684a.75.75 0 0 0-.68-.812" style="color:#000;fill:currentColor;stroke-linecap:round;stroke-linejoin:round;-inkscape-stroke:none"/>
    <path d="M7.6 12.873a1.36 1.36 0 0 0-1.35 1.35V16.4a.75.75 0 0 0 .75.75.75.75 0 0 0 .75-.75v-2.027h1.756a.75.75 0 0 0 .75-.75.75.75 0 0 0-.75-.75z" style="color:#000;fill:currentColor;stroke-linecap:round;stroke-linejoin:round;-inkscape-stroke:none"/>
</svg>
