<svg xmlns="http://www.w3.org/2000/svg" width="24" height="24" fill="none" stroke-width="1.5" viewBox="0 0 24 24">
    <path d="M4 2.25C2.49 2.25 1.25 3.49 1.25 5v14c0 1.51 1.24 2.75 2.75 2.75h7a.75.75 0 0 0 .75-.75.75.75 0 0 0-.75-.75H4c-.7 0-1.25-.55-1.25-1.25V5c0-.7.55-1.25 1.25-1.25h16c.7 0 1.25.55 1.25 1.25v7a.75.75 0 0 0 .75.75.75.75 0 0 0 .75-.75V5c0-1.51-1.24-2.75-2.75-2.75Z" style="color:#000;fill:currentColor;stroke-linecap:round;-inkscape-stroke:none"/>
    <path d="M2 6.25a.75.75 0 0 0-.75.75.75.75 0 0 0 .75.75h20a.75.75 0 0 0 .75-.75.75.75 0 0 0-.75-.75ZM4.97 4.25a.75.75 0 0 0-.517.248l-.01.01a.75.75 0 0 0 .055 1.06.75.75 0 0 0 1.059-.056l.011-.012a.75.75 0 0 0-.056-1.059.75.75 0 0 0-.541-.191M7.97 4.25a.75.75 0 0 0-.517.248l-.01.01a.75.75 0 0 0 .055 1.06.75.75 0 0 0 1.059-.056l.011-.012a.75.75 0 0 0-.056-1.059.75.75 0 0 0-.541-.191M10.97 4.25a.75.75 0 0 0-.517.248l-.01.01a.75.75 0 0 0 .055 1.06.75.75 0 0 0 1.059-.056l.011-.012a.75.75 0 0 0-.056-1.059.75.75 0 0 0-.541-.191M17.99 13.25c-2.115 0-3.883 1.506-4.51 3.527a.75.75 0 0 0 .495.94.75.75 0 0 0 .94-.494c.454-1.47 1.674-2.473 3.075-2.473 1.311 0 2.46.873 2.979 2.191a.75.75 0 0 0 .972.424.75.75 0 0 0 .422-.972c-.718-1.822-2.395-3.143-4.373-3.143" style="color:#000;fill:currentColor;stroke-linecap:round;stroke-linejoin:round;-inkscape-stroke:none"/>
    <path d="M22 13.8a.75.75 0 0 0-.75.75v1.471h-1.254a.75.75 0 0 0-.75.75.75.75 0 0 0 .75.75H21.4a1.36 1.36 0 0 0 1.35-1.35v-1.62a.75.75 0 0 0-.75-.75M22.025 18.283a.75.75 0 0 0-.94.494c-.454 1.47-1.674 2.473-3.075 2.473-1.311 0-2.46-.873-2.979-2.191a.75.75 0 0 0-.972-.424.75.75 0 0 0-.422.972c.718 1.822 2.395 3.143 4.373 3.143 2.115 0 3.883-1.506 4.51-3.527a.75.75 0 0 0-.495-.94" style="color:#000;fill:currentColor;stroke-linecap:round;stroke-linejoin:round;-inkscape-stroke:none"/>
    <path d="M14.6 18.479a1.36 1.36 0 0 0-1.35 1.35v1.62a.75.75 0 0 0 .75.75.75.75 0 0 0 .75-.75v-1.47h1.256a.75.75 0 0 0 .75-.75.75.75 0 0 0-.75-.75z" style="color:#000;fill:currentColor;stroke-linecap:round;stroke-linejoin:round;-inkscape-stroke:none"/>
</svg>
