<svg xmlns="http://www.w3.org/2000/svg" width="24" height="24" fill="none" stroke-width="1.5" viewBox="0 0 24 24">
    <path d="M7 6.965c-1.131 0-2.25.992-2.25 2.463v8.5c0 .106.013.223.043.336a7.62 7.62 0 0 0 1.383 2.75c.746.925 1.872 1.736 3.324 1.736h4.621c.77 0 1.505-.325 2.025-.893l3.786-4.127a2.757 2.757 0 0 0 .172-3.507L18.1 11.55a.75.75 0 0 0-1.05-.15.75.75 0 0 0-.15 1.048l2.004 2.674a1.241 1.241 0 0 1-.078 1.594l-3.785 4.127c-.237.259-.57.406-.92.406H9.5c-.906 0-1.59-.477-2.156-1.178-.562-.696-.938-1.596-1.094-2.177V9.428c0-.815.381-.963.75-.963s.75.148.75.963V10a.75.75 0 0 0 .75.75.75.75 0 0 0 .75-.75v-.572c0-1.471-1.119-2.463-2.25-2.463" style="color:#000;fill:currentColor;stroke-linecap:round;stroke-linejoin:round;-inkscape-stroke:none"/>
    <path d="M10 5.822c-1.131 0-2.25.992-2.25 2.463V10a.75.75 0 0 0 .75.75.75.75 0 0 0 .75-.75V8.285c0-.815.381-.963.75-.963s.75.148.75.963V10a.75.75 0 0 0 .75.75.75.75 0 0 0 .75-.75V8.285c0-1.47-1.119-2.463-2.25-2.463" style="color:#000;fill:currentColor;stroke-linecap:round;stroke-linejoin:round;-inkscape-stroke:none"/>
    <path d="M13 5.035c-1.131 0-2.25.994-2.25 2.465V10a.75.75 0 0 0 .75.75.75.75 0 0 0 .75-.75V7.5c0-.815.381-.965.75-.965s.75.15.75.965V10a.75.75 0 0 0 .75.75.75.75 0 0 0 .75-.75V7.5c0-1.471-1.119-2.465-2.25-2.465" style="color:#000;fill:currentColor;stroke-linecap:round;stroke-linejoin:round;-inkscape-stroke:none"/>
    <path d="M16 1.25a2.26 2.26 0 0 0-2.25 2.248V10a.75.75 0 0 0 .75.75.75.75 0 0 0 .75-.75V3.498c0-.423.326-.748.75-.748.423 0 .75.327.75.75V15a.75.75 0 0 0 .75.75.75.75 0 0 0 .75-.75V3.5A2.261 2.261 0 0 0 16 1.25" style="color:#000;fill:currentColor;stroke-linecap:round;stroke-linejoin:round;-inkscape-stroke:none"/>
    <path d="M12.25 3.25c-1.096 0-2 .904-2 2v.25c0 .958.792 1.75 1.75 1.75v-1.5a.24.24 0 0 1-.25-.25v-.25c0-.285.215-.5.5-.5h7.375c.317 0 .46.075.516.125.056.05.109.112.109.375s-.053.325-.11.375c-.055.05-.198.125-.515.125h-2.062v1.5h2.062c.558 0 1.103-.136 1.516-.504.412-.368.609-.93.609-1.496 0-.565-.197-1.128-.61-1.496-.412-.368-.957-.504-1.515-.504H14.438z" style="color:#000;fill:currentColor;-inkscape-stroke:none"/>
</svg>
