<svg xmlns="http://www.w3.org/2000/svg" width="24" height="24" fill="none" stroke-width="1.5" viewBox="0 0 24 24">
    <path d="M3 11.25a.75.75 0 0 0-.75.75c0 2.208.98 3.74 2.188 4.61 1.208.87 2.579 1.14 3.562 1.14h9a.75.75 0 0 0 .75-.75.75.75 0 0 0-.75-.75H8c-.683 0-1.813-.23-2.687-.86-.875-.63-1.563-1.598-1.563-3.39a.75.75 0 0 0-.75-.75M8 6.25a.75.75 0 0 0-.75.75.75.75 0 0 0 .75.75h8c.683 0 1.813.23 2.688.86.874.63 1.562 1.598 1.562 3.39 0 1.339-.395 2.209-.947 2.836a.75.75 0 0 0 .066 1.059.75.75 0 0 0 1.059-.069c.787-.895 1.322-2.176 1.322-3.826 0-2.208-.98-3.74-2.187-4.61-1.209-.87-2.58-1.14-3.563-1.14Z" style="color:#000;fill:currentColor;stroke-linecap:round;stroke-linejoin:round;-inkscape-stroke:none"/>
    <path d="M14.5 13.75a.75.75 0 0 0-.531.219.75.75 0 0 0 0 1.062L15.938 17l-1.97 1.969a.75.75 0 0 0 0 1.062.75.75 0 0 0 1.063 0l2.5-2.5a.75.75 0 0 0 0-1.062l-2.5-2.5a.75.75 0 0 0-.531-.219M3.664 2.33l-2 1a.75.75 0 0 0-.334 1.006.75.75 0 0 0 1.006.334l.914-.457V8a.75.75 0 0 0 .75.75.75.75 0 0 0 .75-.75V3a.75.75 0 0 0-1.086-.67" style="color:#000;fill:currentColor;stroke-linecap:round;stroke-linejoin:round;-inkscape-stroke:none"/>
</svg>
