<svg xmlns="http://www.w3.org/2000/svg" width="24" height="24" fill="none" stroke-width="1.5" viewBox="0 0 24 24">
    <path d="M6.818 7.271a.75.75 0 0 0-.46.342.75.75 0 0 0 .255 1.03l5 3a.75.75 0 0 0 .774 0l5-3a.75.75 0 0 0 .256-1.03.75.75 0 0 0-1.03-.256L12 10.125 7.387 7.357a.75.75 0 0 0-.569-.086" style="color:#000;fill:currentColor;stroke-linecap:round;stroke-linejoin:round;-inkscape-stroke:none"/>
    <path d="M4 3.25C2.49 3.25 1.25 4.49 1.25 6v12c0 1.51 1.24 2.75 2.75 2.75h6a.75.75 0 0 0 .75-.75.75.75 0 0 0-.75-.75H4c-.7 0-1.25-.55-1.25-1.25V6c0-.7.55-1.25 1.25-1.25h16c.7 0 1.25.55 1.25 1.25v6.857a.75.75 0 0 0 .75.75.75.75 0 0 0 .75-.75V6c0-1.51-1.24-2.75-2.75-2.75Z" style="color:#000;fill:currentColor;stroke-linecap:round;-inkscape-stroke:none"/>
    <path d="M16.154 13.25a.75.75 0 0 0-.531.217l-3.15 3.111a.75.75 0 0 0-.006.006.75.75 0 0 0-.098.24.75.75 0 0 0-.021.051.75.75 0 0 0-.096.234.75.75 0 0 0 0 .002.75.75 0 0 0-.002 0 .75.75 0 0 0 0 .002.75.75 0 0 0 .092.221.75.75 0 0 0 .027.063.75.75 0 0 0 .027.07.75.75 0 0 0 .07.172.75.75 0 0 0 .003 0 .75.75 0 0 0 .002.002.75.75 0 0 0 0 .002.75.75 0 0 0 .002.002l3.15 3.111a.75.75 0 0 0 1.06-.006.75.75 0 0 0-.005-1.06l-1.852-1.828h4.475c1.46 0 1.949.839 1.949 1.693 0 .854-.489 1.695-1.95 1.695a.75.75 0 0 0-.75.75.75.75 0 0 0 .75.75c2.14 0 3.45-1.605 3.45-3.195 0-1.59-1.31-3.193-3.45-3.193h-4.474l1.852-1.829a.75.75 0 0 0 .006-1.06.75.75 0 0 0-.53-.223" style="color:#000;fill:currentColor;stroke-linecap:round;stroke-linejoin:round;-inkscape-stroke:none"/>
</svg>
