<svg xmlns="http://www.w3.org/2000/svg" width="24" height="24" fill="none" stroke-width="1.5" viewBox="0 0 24 24">
    <path d="M3.6 2.25A1.36 1.36 0 0 0 2.25 3.6v3.8c0 .737.613 1.35 1.35 1.35h5.8a1.36 1.36 0 0 0 1.35-1.35V3.6A1.36 1.36 0 0 0 9.4 2.25Zm.15 1.5h5.5v3.5h-5.5zM14.6 15.25a1.36 1.36 0 0 0-1.35 1.35v3.8c0 .737.613 1.35 1.35 1.35h5.8a1.36 1.36 0 0 0 1.35-1.35v-3.8a1.36 1.36 0 0 0-1.35-1.35Zm.15 1.5h5.5v3.5h-5.5zM14.6 2.25a1.36 1.36 0 0 0-1.35 1.35v8.8c0 .737.613 1.35 1.35 1.35h5.8a1.36 1.36 0 0 0 1.35-1.35V3.6a1.36 1.36 0 0 0-1.35-1.35Zm.15 1.5h5.5v8.5h-5.5zM3.6 10.25a1.36 1.36 0 0 0-1.35 1.35v8.8c0 .737.613 1.35 1.35 1.35h5.8a1.36 1.36 0 0 0 1.35-1.35v-8.8a1.36 1.36 0 0 0-1.35-1.35Zm.15 1.5h5.5v8.5h-5.5z" style="color:#000;fill:currentColor;-inkscape-stroke:none"/>
</svg>
