<svg xmlns="http://www.w3.org/2000/svg" width="24" height="24" fill="none" stroke-width="1.5" viewBox="0 0 24 24">
    <path d="M11.943 1.3C7.754 1.299 3.765 3.76 2.027 7.853c-2.102 4.953-.2 10.618 4.258 13.355a.75.75 0 0 0 1.031-.248.75.75 0 0 0-.246-1.031 9.245 9.245 0 0 1-3.664-11.49c2-4.711 7.418-6.9 12.13-4.9 4.71 1.999 6.9 7.417 4.9 12.128a9.194 9.194 0 0 1-3.665 4.262.75.75 0 0 0-.246 1.033.75.75 0 0 0 1.034.246 10.71 10.71 0 0 0 4.257-4.955c2.317-5.457-.236-11.78-5.693-14.096a10.698 10.698 0 0 0-4.18-.855" style="color:#000;fill:currentColor;stroke-linecap:round;stroke-linejoin:round;-inkscape-stroke:none"/>
    <path d="M17 15.25a.75.75 0 0 0-.75.75v4.4c0 .737.613 1.35 1.35 1.35H22a.75.75 0 0 0 .75-.75.75.75 0 0 0-.75-.75h-4.25V16a.75.75 0 0 0-.75-.75M11.97 21.25a.75.75 0 0 0-.517.246l-.01.012a.75.75 0 0 0 .055 1.058.75.75 0 0 0 1.059-.054l.01-.012a.75.75 0 0 0-.055-1.059.75.75 0 0 0-.541-.191" style="color:#000;fill:currentColor;stroke-linecap:round;stroke-linejoin:round;-inkscape-stroke:none"/>
</svg>
