<svg xmlns="http://www.w3.org/2000/svg" width="24" height="24" fill="none" stroke-width="1.5" viewBox="0 0 24 24">
    <path d="M21.994 5.01c-.43-.218-.967-.223-1.394.092V5.1l-7.89 5.814c-.714.527-.714 1.645 0 2.172l7.89 5.812c.854.63 2.15-.025 2.15-1.085V6.188c0-.53-.325-.96-.756-1.178m-.744 1.474v11.032L13.764 12ZM10.994 5.01c-.43-.218-.967-.223-1.394.092V5.1l-7.89 5.814c-.714.527-.714 1.645 0 2.172l7.89 5.812c.854.63 2.15-.025 2.15-1.085V6.188c0-.53-.325-.96-.756-1.178m-.744 1.474v11.032L2.764 12Z" style="color:#000;fill:currentColor;stroke-linecap:round;stroke-linejoin:round;-inkscape-stroke:none"/>
</svg>
