<svg xmlns="http://www.w3.org/2000/svg" width="24" height="24" fill="none" stroke-width="1.5" viewBox="0 0 24 24">
    <path d="M14 8.25a.75.75 0 0 0-.531.219.75.75 0 0 0 0 1.062l.719.719H10c-.75 0-1.413.35-1.906.844C7.6 11.587 7.25 12.25 7.25 13v1a.75.75 0 0 0 .75.75.75.75 0 0 0 .75-.75v-1c0-.25.15-.587.406-.844.257-.257.594-.406.844-.406h4.188l-.72.719a.75.75 0 0 0 0 1.062.75.75 0 0 0 1.063 0l2-2a.75.75 0 0 0 .194-.469.75.75 0 0 0 .025-.062.75.75 0 0 0-.025-.129.75.75 0 0 0 0-.064.75.75 0 0 0-.02-.034.75.75 0 0 0-.174-.304l-2-2A.75.75 0 0 0 14 8.25" style="color:#000;fill:currentColor;stroke-linecap:round;stroke-linejoin:round;-inkscape-stroke:none"/>
    <path d="M12 .504c-.347 0-.695.13-.955.39L.895 11.045c-.521.522-.521 1.39 0 1.911l10.15 10.15c.52.521 1.39.521 1.91 0l10.15-10.15c.521-.52.521-1.39 0-1.91L12.955.895c-.26-.26-.608-.391-.955-.391m0 1.557L21.94 12 12 21.94 2.06 12Z" style="color:#000;fill:currentColor;stroke-linejoin:round;-inkscape-stroke:none"/>
</svg>
