<svg xmlns="http://www.w3.org/2000/svg" width="24" height="24" fill="none" stroke-width="1.5" viewBox="0 0 24 24">
    <path d="M8 2.25a.75.75 0 0 0-.75.75v4.402c-3.35.392-6 3.145-6 6.598 0 3.719 3.031 6.75 6.75 6.75s6.75-3.031 6.75-6.75c0-3.453-2.65-6.206-6-6.598V3A.75.75 0 0 0 8 2.25m0 6.5A5.24 5.24 0 0 1 13.25 14 5.24 5.24 0 0 1 8 19.25 5.24 5.24 0 0 1 2.75 14 5.24 5.24 0 0 1 8 8.75" style="color:#000;fill:currentColor;stroke-linecap:round;stroke-linejoin:round;-inkscape-stroke:none"/>
    <path d="M16 2.25a.75.75 0 0 0-.75.75v4.402c-3.35.392-6 3.145-6 6.598 0 3.719 3.031 6.75 6.75 6.75s6.75-3.031 6.75-6.75c0-3.453-2.65-6.206-6-6.598V3a.75.75 0 0 0-.75-.75m0 6.5A5.24 5.24 0 0 1 21.25 14 5.24 5.24 0 0 1 16 19.25 5.24 5.24 0 0 1 10.75 14 5.24 5.24 0 0 1 16 8.75" style="color:#000;fill:currentColor;stroke-linecap:round;stroke-linejoin:round;-inkscape-stroke:none"/>
</svg>
