<svg xmlns="http://www.w3.org/2000/svg" width="24" height="24" fill="none" stroke-width="1.5" viewBox="0 0 24 24">
    <path d="M12 .635c-.4 0-.8.169-1.064.508l-2.59 3.316a6.75 6.75 0 0 0-1.123 6.168l2.06 6.598a.75.75 0 0 0 .717.525h4a.75.75 0 0 0 .717-.525l2.06-6.598a6.75 6.75 0 0 0-1.123-6.168l-2.59-3.316A1.34 1.34 0 0 0 12 .635m0 1.584 2.47 3.164a5.25 5.25 0 0 1 .876 4.797l-1.897 6.07h-2.898l-1.897-6.07a5.25 5.25 0 0 1 .875-4.797ZM10 19.25a.75.75 0 0 0-.75.75c0 2.5 2.414 3.67 2.414 3.67a.75.75 0 0 0 .672 0S14.75 22.5 14.75 20a.75.75 0 0 0-.75-.75.75.75 0 0 0-.75.75c0 1.182-.833 1.803-1.25 2.074-.417-.271-1.25-.892-1.25-2.074a.75.75 0 0 0-.75-.75" style="color:#000;fill:currentColor;stroke-linecap:round;stroke-linejoin:round;-inkscape-stroke:none"/>
    <path d="M8.623 11.76a.75.75 0 0 0-.559.13c-1.958 1.4-2.447 3.348-2.376 4.833.07 1.484.642 2.613.642 2.613a.75.75 0 0 0 1.086.289l3-2a.75.75 0 0 0 .209-1.041.75.75 0 0 0-1.041-.209l-2.123 1.416c-.125-.364-.243-.493-.274-1.139-.054-1.14.207-2.442 1.749-3.543a.75.75 0 0 0 .173-1.045.75.75 0 0 0-.486-.304M15.809 11.76a.75.75 0 0 0-.489.304.75.75 0 0 0 .176 1.045c1.541 1.101 1.802 2.403 1.748 3.543-.03.645-.148.773-.273 1.137l-2.123-1.414a.75.75 0 0 0-1.041.209.75.75 0 0 0 .209 1.041l3 2a.75.75 0 0 0 1.086-.29s.57-1.128.64-2.612-.416-3.433-2.375-4.832a.75.75 0 0 0-.558-.131M12 6.25c-1.51 0-2.75 1.24-2.75 2.75s1.24 2.75 2.75 2.75 2.75-1.24 2.75-2.75S13.51 6.25 12 6.25m0 1.5c.7 0 1.25.55 1.25 1.25s-.55 1.25-1.25 1.25S10.75 9.7 10.75 9 11.3 7.75 12 7.75" style="color:#000;fill:currentColor;stroke-linecap:round;stroke-linejoin:round;-inkscape-stroke:none"/>
</svg>
