<svg xmlns="http://www.w3.org/2000/svg" width="24" height="24" fill="none" stroke-width="1.5" viewBox="0 0 24 24">
    <path d="M7 15.25a.75.75 0 0 0-.75.75.75.75 0 0 0 .75.75h10a.75.75 0 0 0 .75-.75.75.75 0 0 0-.75-.75ZM9 10.25a.75.75 0 0 0-.75.75.75.75 0 0 0 .75.75h6a.75.75 0 0 0 .75-.75.75.75 0 0 0-.75-.75ZM10 3.25a.75.75 0 0 0-.75.75v2a.75.75 0 0 0 .75.75.75.75 0 0 0 .75-.75V4a.75.75 0 0 0-.75-.75M14 3.25a.75.75 0 0 0-.75.75v2a.75.75 0 0 0 .75.75.75.75 0 0 0 .75-.75V4a.75.75 0 0 0-.75-.75" style="color:#000;fill:currentColor;stroke-linecap:round;-inkscape-stroke:none"/>
    <path d="M6.6 3.25A1.36 1.36 0 0 0 5.25 4.6v3.8c0 .737.613 1.35 1.35 1.35h10.8a1.36 1.36 0 0 0 1.35-1.35V4.6a1.36 1.36 0 0 0-1.35-1.35Zm.15 1.5h10.5v3.5H6.75Z" style="color:#000;fill:currentColor;stroke-linecap:round;-inkscape-stroke:none"/>
    <path d="M10.1 8.25c-.737 0-1.35.613-1.35 1.35V11c0 .873-.62 2.641-1.432 4.33-.811 1.689-1.783 3.359-2.382 4.35-.531.877.135 2.07 1.164 2.07h11.8c1.03 0 1.695-1.193 1.164-2.07-.6-.991-1.571-2.661-2.382-4.35-.812-1.689-1.432-3.457-1.432-4.33V9.6c0-.737-.613-1.35-1.35-1.35Zm.15 1.5h3.5V11c0 1.454.734 3.217 1.58 4.979.808 1.68 1.722 3.243 2.34 4.271H6.33c.618-1.028 1.532-2.59 2.34-4.271.846-1.762 1.58-3.525 1.58-4.979Z" style="color:#000;fill:currentColor;stroke-linecap:round;-inkscape-stroke:none"/>
</svg>
