<svg xmlns="http://www.w3.org/2000/svg" width="24" height="24" fill="none" stroke-width="1.5" viewBox="0 0 24 24">
    <path d="M5 14.25v1.5h14v-1.5z" style="color:#000;fill:currentColor;stroke-linejoin:round;-inkscape-stroke:none"/>
    <path d="M8 3.25a.75.75 0 0 0-.75.75.75.75 0 0 0 .75.75h8a.75.75 0 0 0 .75-.75.75.75 0 0 0-.75-.75Z" style="color:#000;fill:currentColor;stroke-linecap:round;stroke-linejoin:round;-inkscape-stroke:none"/>
    <path d="M9 3.75a.75.75 0 0 0-.75.75v4.254c0 .472-.285.938-.746 1.248-2.384 1.603-4.254 4.313-4.254 7.459 0 .882.123 1.737.354 2.545.316 1.107 1.378 1.744 2.447 1.744h11.898c1.069 0 2.131-.637 2.447-1.744.231-.808.354-1.663.354-2.545 0-3.146-1.87-5.856-4.254-7.459-.46-.31-.746-.776-.746-1.248V4.5a.75.75 0 0 0-.75-.75.75.75 0 0 0-.75.75v4.254c0 1.055.604 1.95 1.41 2.492 2.033 1.367 3.59 3.672 3.59 6.215 0 .742-.104 1.458-.297 2.133-.113.394-.51.656-1.004.656H6.051c-.493 0-.891-.262-1.004-.656a7.8 7.8 0 0 1-.297-2.133c0-2.543 1.557-4.848 3.59-6.215.806-.542 1.41-1.437 1.41-2.492V4.5A.75.75 0 0 0 9 3.75" style="color:#000;fill:currentColor;stroke-linecap:round;stroke-linejoin:round;-inkscape-stroke:none"/>
    <path d="M12.97 6.25a.75.75 0 0 0-.517.248l-.01.01a.75.75 0 0 0 .055 1.06.75.75 0 0 0 1.059-.056l.011-.012a.75.75 0 0 0-.056-1.059.75.75 0 0 0-.541-.191M11.512 1.441a.75.75 0 0 0-1.059.057l-.01.01a.75.75 0 0 0 .055 1.06.75.75 0 0 0 1.059-.056l.011-.012a.75.75 0 0 0-.056-1.059" style="color:#000;fill:currentColor;stroke-linecap:round;stroke-linejoin:round;-inkscape-stroke:none"/>
</svg>
