<svg xmlns="http://www.w3.org/2000/svg" width="24" height="24" fill="none" stroke-width="1.5" viewBox="0 0 24 24">
    <path d="M12 1.25c-4.824 0-8.75 3.926-8.75 8.75v4c0 4.824 3.926 8.75 8.75 8.75s8.75-3.926 8.75-8.75v-4c0-4.824-3.926-8.75-8.75-8.75m0 1.5A7.24 7.24 0 0 1 19.25 10v4A7.24 7.24 0 0 1 12 21.25 7.24 7.24 0 0 1 4.75 14v-4A7.24 7.24 0 0 1 12 2.75" style="color:#000;fill:currentColor;stroke-linecap:round;stroke-linejoin:round;-inkscape-stroke:none"/>
    <path d="M17.594 3.756a.75.75 0 0 0-.555.152l-4.5 3.5a.75.75 0 0 0-.13 1.053.75.75 0 0 0 1.052.13l4.5-3.5a.75.75 0 0 0 .13-1.052.75.75 0 0 0-.497-.283M19.082 6.254a.75.75 0 0 0-.55.16l-7.5 6a.75.75 0 0 0-.118 1.055.75.75 0 0 0 1.055.117l7.5-6a.75.75 0 0 0 .117-1.055.75.75 0 0 0-.504-.277" style="color:#000;fill:currentColor;stroke-linecap:round;stroke-linejoin:round;-inkscape-stroke:none"/>
</svg>
