<svg xmlns="http://www.w3.org/2000/svg" width="24" height="24" fill="none" stroke-width="1.5" viewBox="0 0 24 24">
    <path d="M7 11.25a.75.75 0 0 0-.75.75.75.75 0 0 0 .75.75c1.333 0 2.37.433 3.094 1.156.723.724 1.156 1.76 1.156 3.094a.75.75 0 0 0 .75.75.75.75 0 0 0 .75-.75c0-1.667-.567-3.13-1.594-4.156C10.13 11.817 8.666 11.25 7 11.25M7 6.25a.75.75 0 0 0-.75.75.75.75 0 0 0 .75.75c2.833 0 5.12.933 6.719 2.531C15.317 11.88 16.25 14.167 16.25 17a.75.75 0 0 0 .75.75.75.75 0 0 0 .75-.75c0-3.167-1.067-5.88-2.969-7.781C12.88 7.317 10.167 6.25 7 6.25M6.97 16.25a.75.75 0 0 0-.517.246l-.01.012a.75.75 0 0 0 .055 1.058.75.75 0 0 0 1.059-.054l.01-.012a.75.75 0 0 0-.055-1.059.75.75 0 0 0-.541-.191" style="color:#000;fill:currentColor;stroke-linecap:round;stroke-linejoin:round;-inkscape-stroke:none"/>
    <path d="M8 2.25A5.761 5.761 0 0 0 2.25 8v8A5.761 5.761 0 0 0 8 21.75h8A5.761 5.761 0 0 0 21.75 16V8A5.761 5.761 0 0 0 16 2.25Zm0 1.5h8A4.239 4.239 0 0 1 20.25 8v8A4.239 4.239 0 0 1 16 20.25H8A4.239 4.239 0 0 1 3.75 16V8A4.239 4.239 0 0 1 8 3.75" style="color:#000;fill:currentColor;stroke-linecap:round;stroke-linejoin:round;-inkscape-stroke:none"/>
</svg>
