<svg xmlns="http://www.w3.org/2000/svg" width="24" height="24" fill="none" stroke-width="1.5" viewBox="0 0 24 24">
    <path d="M8.6 1.25A1.36 1.36 0 0 0 7.25 2.6v18.8c0 .737.613 1.35 1.35 1.35h6.8a1.36 1.36 0 0 0 1.35-1.35V2.6a1.36 1.36 0 0 0-1.35-1.35Zm.15 1.5h6.5v18.5h-6.5z" style="color:#000;fill:currentColor;stroke-linecap:round;stroke-linejoin:round;-inkscape-stroke:none"/>
    <path d="M13 16.25a.75.75 0 0 0-.75.75.75.75 0 0 0 .75.75h3a.75.75 0 0 0 .75-.75.75.75 0 0 0-.75-.75ZM13 6.25a.75.75 0 0 0-.75.75.75.75 0 0 0 .75.75h3a.75.75 0 0 0 .75-.75.75.75 0 0 0-.75-.75ZM21 9.25a.75.75 0 0 0-.531.219.75.75 0 0 0 0 1.062l.718.719H13a.75.75 0 0 0-.75.75.75.75 0 0 0 .75.75h8.188l-.72.719a.75.75 0 0 0 0 1.062.75.75 0 0 0 1.063 0l2-2a.75.75 0 0 0 .194-.469.75.75 0 0 0 .025-.062.75.75 0 0 0-.025-.129.75.75 0 0 0 0-.064.75.75 0 0 0-.02-.034.75.75 0 0 0-.174-.304l-2-2A.75.75 0 0 0 21 9.25M3 9.25a.75.75 0 0 0-.531.219l-2 2A.75.75 0 0 0 .25 12a.75.75 0 0 0 .219.531l2 2a.75.75 0 0 0 1.062 0 .75.75 0 0 0 0-1.062l-.719-.719H8a.75.75 0 0 0 .75-.75.75.75 0 0 0-.75-.75H2.813l.718-.719a.75.75 0 0 0 0-1.062A.75.75 0 0 0 3 9.25" style="color:#000;fill:currentColor;stroke-linecap:round;stroke-linejoin:round;-inkscape-stroke:none"/>
</svg>
