<svg xmlns="http://www.w3.org/2000/svg" width="24" height="24" fill="none" stroke-width="1.5" viewBox="0 0 24 24">
    <path d="M15 2.25c-1.51 0-2.75 1.24-2.75 2.75S13.49 7.75 15 7.75 17.75 6.51 17.75 5 16.51 2.25 15 2.25m0 1.5c.7 0 1.25.55 1.25 1.25S15.7 6.25 15 6.25 13.75 5.7 13.75 5 14.3 3.75 15 3.75M13.082 7.682a.75.75 0 0 0-1.055.117L8.72 11.934a.75.75 0 0 0 .056.998l3.768 3.77-1.854 4.073a.75.75 0 0 0 .374.995.75.75 0 0 0 .992-.374l2.068-4.548a.75.75 0 0 0-.152-.84l-3.66-3.662 2.888-3.61a.75.75 0 0 0-.117-1.054" style="color:#000;fill:currentColor;stroke-linecap:round;stroke-linejoin:round;-inkscape-stroke:none"/>
    <path d="M10.24 5.596a.75.75 0 0 0-.967.066L5.887 8.971a.75.75 0 0 0-.014 1.06.75.75 0 0 0 1.06.014L9.868 7.18l2.237 1.642 2.84 3.246a.75.75 0 0 0 .564.258h3.722a.75.75 0 0 0 .75-.75.75.75 0 0 0-.75-.75h-3.382l-2.67-3.053a.75.75 0 0 0-.121-.11ZM9.04 14.975a.75.75 0 0 0-.565.11l-1.051.702H4.342a.75.75 0 0 0-.75.75.75.75 0 0 0 .75.75H7.65a.75.75 0 0 0 .416-.125l1.24-.828a.75.75 0 0 0 .21-1.04.75.75 0 0 0-.477-.32" style="color:#000;fill:currentColor;stroke-linecap:round;stroke-linejoin:round;-inkscape-stroke:none"/>
</svg>
