<svg xmlns="http://www.w3.org/2000/svg" width="24" height="24" fill="none" stroke-width="1.5" viewBox="0 0 24 24">
    <path d="M17.209 6.348a.75.75 0 0 0-.623.047L10.22 9.93a.75.75 0 0 0-.067.084.75.75 0 0 0-.1.04.75.75 0 0 0-.06.15.75.75 0 0 0-.064.017l-3.535 6.365a.75.75 0 0 0 1.02 1.02l6.364-3.536a.75.75 0 0 0 .13-.11.75.75 0 0 0 .036-.015.75.75 0 0 0 .026-.037.75.75 0 0 0 .078-.117.75.75 0 0 0 .002-.006.75.75 0 0 0 .002 0 .75.75 0 0 0 .017-.006l3.535-6.365a.75.75 0 0 0-.396-1.066m-2.19 2.632-1.777 3.202-1.424-1.424zm-4.261 2.84 1.422 1.422-3.2 1.778z" style="color:#000;fill:currentColor;stroke-linecap:round;stroke-linejoin:round;-inkscape-stroke:none"/>
    <path d="M12 1.25C6.072 1.25 1.25 6.072 1.25 12S6.072 22.75 12 22.75 22.75 17.928 22.75 12 17.928 1.25 12 1.25m0 1.5A9.239 9.239 0 0 1 21.25 12 9.239 9.239 0 0 1 12 21.25 9.239 9.239 0 0 1 2.75 12 9.239 9.239 0 0 1 12 2.75" style="color:#000;fill:currentColor;stroke-linecap:round;stroke-linejoin:round;-inkscape-stroke:none"/>
    <path d="M18 11.25a.75.75 0 0 0-.75.75.75.75 0 0 0 .75.75h1a.75.75 0 0 0 .75-.75.75.75 0 0 0-.75-.75ZM5 11.25a.75.75 0 0 0-.75.75.75.75 0 0 0 .75.75h1a.75.75 0 0 0 .75-.75.75.75 0 0 0-.75-.75ZM12 4.25a.75.75 0 0 0-.75.75v1a.75.75 0 0 0 .75.75.75.75 0 0 0 .75-.75V5a.75.75 0 0 0-.75-.75M12 17.25a.75.75 0 0 0-.75.75v1a.75.75 0 0 0 .75.75.75.75 0 0 0 .75-.75v-1a.75.75 0 0 0-.75-.75M7.05 6.3a.75.75 0 0 0-.53.22.75.75 0 0 0 0 1.06l.707.707a.75.75 0 0 0 1.06 0 .75.75 0 0 0 0-1.06L7.58 6.52a.75.75 0 0 0-.53-.22M16.242 15.492a.75.75 0 0 0-.53.22.75.75 0 0 0 0 1.061l.708.707a.75.75 0 0 0 1.06 0 .75.75 0 0 0 0-1.06l-.707-.707a.75.75 0 0 0-.53-.22" style="color:#000;fill:currentColor;stroke-linecap:round;stroke-linejoin:round;-inkscape-stroke:none"/>
</svg>
