<svg xmlns="http://www.w3.org/2000/svg" width="24" height="24" fill="none" stroke-width="1.5" viewBox="0 0 24 24">
    <path d="M5 2.25C3.49 2.25 2.25 3.49 2.25 5v14c0 1.51 1.24 2.75 2.75 2.75h14c1.51 0 2.75-1.24 2.75-2.75V5c0-1.51-1.24-2.75-2.75-2.75Zm0 1.5h14c.7 0 1.25.55 1.25 1.25v14c0 .7-.55 1.25-1.25 1.25H5c-.7 0-1.25-.55-1.25-1.25V5c0-.7.55-1.25 1.25-1.25" style="color:#000;fill:currentColor;-inkscape-stroke:none"/>
    <path d="M10 8.25A3.761 3.761 0 0 0 6.25 12 3.761 3.761 0 0 0 10 15.75 3.761 3.761 0 0 0 13.75 12 3.761 3.761 0 0 0 10 8.25m0 1.5c1.252 0 2.25.998 2.25 2.25s-.998 2.25-2.25 2.25A2.239 2.239 0 0 1 7.75 12c0-1.252.998-2.25 2.25-2.25M18 9.25a.75.75 0 0 0-.75.75v4a.75.75 0 0 0 .75.75.75.75 0 0 0 .75-.75v-4a.75.75 0 0 0-.75-.75" style="color:#000;fill:currentColor;stroke-linecap:round;stroke-linejoin:round;-inkscape-stroke:none"/>
    <path d="M13.5 7.75a.75.75 0 0 0-.531.219l-1 1a.75.75 0 0 0 0 1.062.75.75 0 0 0 1.062 0l1-1a.75.75 0 0 0 0-1.062.75.75 0 0 0-.531-.219M6.5 7.75a.75.75 0 0 0-.531.219.75.75 0 0 0 0 1.062l1 1a.75.75 0 0 0 1.062 0 .75.75 0 0 0 0-1.062l-1-1A.75.75 0 0 0 6.5 7.75M7.5 13.75a.75.75 0 0 0-.531.219l-1 1a.75.75 0 0 0 0 1.062.75.75 0 0 0 1.062 0l1-1a.75.75 0 0 0 0-1.062.75.75 0 0 0-.531-.219M12.5 13.75a.75.75 0 0 0-.531.219.75.75 0 0 0 0 1.062l1 1a.75.75 0 0 0 1.062 0 .75.75 0 0 0 0-1.062l-1-1a.75.75 0 0 0-.531-.219M2 7.25a.75.75 0 0 0-.75.75.75.75 0 0 0 .75.75h1A.75.75 0 0 0 3.75 8 .75.75 0 0 0 3 7.25ZM2 5.25a.75.75 0 0 0-.75.75.75.75 0 0 0 .75.75h1A.75.75 0 0 0 3.75 6 .75.75 0 0 0 3 5.25ZM2 15.25a.75.75 0 0 0-.75.75.75.75 0 0 0 .75.75h1a.75.75 0 0 0 .75-.75.75.75 0 0 0-.75-.75ZM2 17.25a.75.75 0 0 0-.75.75.75.75 0 0 0 .75.75h1a.75.75 0 0 0 .75-.75.75.75 0 0 0-.75-.75Z" style="color:#000;fill:currentColor;stroke-linecap:round;stroke-linejoin:round;-inkscape-stroke:none"/>
</svg>
