<svg xmlns="http://www.w3.org/2000/svg" width="24" height="24" fill="none" stroke-width="1.5" viewBox="0 0 24 24">
    <path d="M5 2.25C3.49 2.25 2.25 3.49 2.25 5v14c0 1.51 1.24 2.75 2.75 2.75h7c1.51 0 2.75-1.24 2.75-2.75V5c0-1.51-1.24-2.75-2.75-2.75Zm0 1.5h7c.7 0 1.25.55 1.25 1.25v14c0 .7-.55 1.25-1.25 1.25H5c-.7 0-1.25-.55-1.25-1.25V5c0-.7.55-1.25 1.25-1.25" style="color:#000;fill:currentColor;-inkscape-stroke:none"/>
    <path d="M12 2.25a.75.75 0 0 0-.75.75.75.75 0 0 0 .75.75h7c.7 0 1.25.55 1.25 1.25v.5a.75.75 0 0 0 .75.75.75.75 0 0 0 .75-.75V5c0-1.51-1.24-2.75-2.75-2.75Zm9 15.5a.75.75 0 0 0-.75.75v.5c0 .7-.55 1.25-1.25 1.25h-7a.75.75 0 0 0-.75.75.75.75 0 0 0 .75.75h7c1.51 0 2.75-1.24 2.75-2.75v-.5a.75.75 0 0 0-.75-.75M8.5 8.25c-.82 0-1.393.614-1.732 1.293-.34.68-.518 1.527-.518 2.457s.178 1.778.518 2.457c.34.68.912 1.293 1.732 1.293s1.393-.614 1.732-1.293c.34-.68.518-1.527.518-2.457s-.178-1.778-.518-2.457C9.892 8.863 9.32 8.25 8.5 8.25m0 1.5c.009 0 .187.058.39.465.204.406.36 1.058.36 1.785s-.156 1.379-.36 1.785c-.203.407-.381.465-.39.465s-.187-.058-.39-.465c-.204-.406-.36-1.058-.36-1.785s.156-1.379.36-1.785c.203-.407.381-.465.39-.465" style="color:#000;fill:currentColor;stroke-linecap:round;stroke-linejoin:round;-inkscape-stroke:none"/>
    <path d="M10.5 7.75a.75.75 0 0 0-.531.219l-1 1a.75.75 0 0 0 0 1.062.75.75 0 0 0 1.062 0l1-1a.75.75 0 0 0 0-1.062.75.75 0 0 0-.531-.219M6.5 7.75a.75.75 0 0 0-.531.219.75.75 0 0 0 0 1.062l1 1a.75.75 0 0 0 1.062 0 .75.75 0 0 0 0-1.062l-1-1A.75.75 0 0 0 6.5 7.75M7.5 13.75a.75.75 0 0 0-.531.219l-1 1a.75.75 0 0 0 0 1.062.75.75 0 0 0 1.062 0l1-1a.75.75 0 0 0 0-1.062.75.75 0 0 0-.531-.219M9.5 13.75a.75.75 0 0 0-.531.219.75.75 0 0 0 0 1.062l1 1a.75.75 0 0 0 1.062 0 .75.75 0 0 0 0-1.062l-1-1a.75.75 0 0 0-.531-.219M2 7.25a.75.75 0 0 0-.75.75.75.75 0 0 0 .75.75h1A.75.75 0 0 0 3.75 8 .75.75 0 0 0 3 7.25ZM2 5.25a.75.75 0 0 0-.75.75.75.75 0 0 0 .75.75h1A.75.75 0 0 0 3.75 6 .75.75 0 0 0 3 5.25ZM2 15.25a.75.75 0 0 0-.75.75.75.75 0 0 0 .75.75h1a.75.75 0 0 0 .75-.75.75.75 0 0 0-.75-.75ZM2 17.25a.75.75 0 0 0-.75.75.75.75 0 0 0 .75.75h1a.75.75 0 0 0 .75-.75.75.75 0 0 0-.75-.75ZM18.5 7.75a.75.75 0 0 0-.531.219l-3.5 3.5a.75.75 0 0 0-.219.531.75.75 0 0 0 .219.531l3.5 3.5a.75.75 0 0 0 1.062 0 .75.75 0 0 0 0-1.062l-2.218-2.219H22a.75.75 0 0 0 .75-.75.75.75 0 0 0-.75-.75h-5.187l2.218-2.219a.75.75 0 0 0 0-1.062.75.75 0 0 0-.531-.219" style="color:#000;fill:currentColor;stroke-linecap:round;stroke-linejoin:round;-inkscape-stroke:none"/>
</svg>
