<svg xmlns="http://www.w3.org/2000/svg" width="24" height="24" fill="none" stroke-width="1.5" viewBox="0 0 24 24">
    <path d="M5 2.25C3.49 2.25 2.25 3.49 2.25 5v14c0 1.51 1.24 2.75 2.75 2.75h8c1.51 0 2.75-1.24 2.75-2.75V5c0-1.51-1.24-2.75-2.75-2.75Zm0 1.5h8c.7 0 1.25.55 1.25 1.25v14c0 .7-.55 1.25-1.25 1.25H5c-.7 0-1.25-.55-1.25-1.25V5c0-.7.55-1.25 1.25-1.25" style="color:#000;fill:currentColor;-inkscape-stroke:none"/>
    <path d="M13 2.25v1.5h6c.7 0 1.25.55 1.25 1.25v14c0 .7-.55 1.25-1.25 1.25h-6v1.5h6c1.51 0 2.75-1.24 2.75-2.75V5c0-1.51-1.24-2.75-2.75-2.75Z" style="color:#000;fill:currentColor;-inkscape-stroke:none"/>
    <path d="M7.5 8.25c-.82 0-1.393.614-1.732 1.293-.34.68-.518 1.527-.518 2.457 0 .93.178 1.778.518 2.457.34.68.912 1.293 1.732 1.293s1.393-.614 1.732-1.293c.34-.68.518-1.527.518-2.457 0-.93-.178-1.778-.518-2.457-.34-.68-.912-1.293-1.732-1.293m0 1.5c.009 0 .187.058.39.465.204.406.36 1.058.36 1.785 0 .727-.156 1.379-.36 1.785-.203.407-.381.465-.39.465-.009 0-.187-.058-.39-.465-.204-.406-.36-1.058-.36-1.785 0-.727.156-1.379.36-1.785.203-.407.381-.465.39-.465M13 9.25a.75.75 0 0 0-.75.75v4a.75.75 0 0 0 .75.75.75.75 0 0 0 .75-.75v-4a.75.75 0 0 0-.75-.75" style="color:#000;fill:currentColor;stroke-linecap:round;stroke-linejoin:round;-inkscape-stroke:none"/>
    <path d="M9.5 7.75a.75.75 0 0 0-.531.219l-1 1a.75.75 0 0 0 0 1.062.75.75 0 0 0 1.062 0l1-1a.75.75 0 0 0 0-1.062.75.75 0 0 0-.531-.219M5.5 7.75a.75.75 0 0 0-.531.219.75.75 0 0 0 0 1.062l1 1a.75.75 0 0 0 1.062 0 .75.75 0 0 0 0-1.062l-1-1A.75.75 0 0 0 5.5 7.75M6.5 13.75a.75.75 0 0 0-.531.219l-1 1a.75.75 0 0 0 0 1.062.75.75 0 0 0 1.062 0l1-1a.75.75 0 0 0 0-1.062.75.75 0 0 0-.531-.219M8.5 13.75a.75.75 0 0 0-.531.219.75.75 0 0 0 0 1.062l1 1a.75.75 0 0 0 1.062 0 .75.75 0 0 0 0-1.062l-1-1a.75.75 0 0 0-.531-.219M2 7.25a.75.75 0 0 0-.75.75.75.75 0 0 0 .75.75h1A.75.75 0 0 0 3.75 8 .75.75 0 0 0 3 7.25ZM2 5.25a.75.75 0 0 0-.75.75.75.75 0 0 0 .75.75h1A.75.75 0 0 0 3.75 6 .75.75 0 0 0 3 5.25ZM2 15.25a.75.75 0 0 0-.75.75.75.75 0 0 0 .75.75h1a.75.75 0 0 0 .75-.75.75.75 0 0 0-.75-.75ZM2 17.25a.75.75 0 0 0-.75.75.75.75 0 0 0 .75.75h1a.75.75 0 0 0 .75-.75.75.75 0 0 0-.75-.75Z" style="color:#000;fill:currentColor;stroke-linecap:round;stroke-linejoin:round;-inkscape-stroke:none"/>
</svg>
