<svg xmlns="http://www.w3.org/2000/svg" width="24" height="24" fill="none" stroke-width="1.5" viewBox="0 0 24 24">
    <path d="M18 2.25c-2.472 0-3.843 1.233-4.375 2.45a4.64 4.64 0 0 0-.371 2.29.75.75 0 0 0-.004.01.75.75 0 0 0 .004.01v.035a.75.75 0 0 0-.002.008l.004.04.21 2.96.587 8.215a3.76 3.76 0 0 0 3.74 3.482h.414a3.76 3.76 0 0 0 3.74-3.482l.586-8.215.211-2.96.004-.04a.75.75 0 0 0-.002-.02V7.01A.75.75 0 0 0 22.75 7a.75.75 0 0 0-.004-.018 4.622 4.622 0 0 0-.371-2.283C21.843 3.483 20.472 2.25 18 2.25m0 1.5c2.028 0 2.657.767 3 1.55.203.464.142.637.15.95h-6.3c.008-.313-.053-.486.15-.95.343-.783.972-1.55 3-1.55m-3.195 4h6.39l-.107 1.5h-6.176zm.215 3h5.96l-.529 7.41a2.24 2.24 0 0 1-2.244 2.09h-.414a2.24 2.24 0 0 1-2.244-2.09zM6 2.25c-2.472 0-3.843 1.233-4.375 2.45a4.64 4.64 0 0 0-.371 2.29.75.75 0 0 0-.004.01.75.75 0 0 0 .004.01l.002.039a.75.75 0 0 0-.004.004l.004.04.21 2.96.587 8.215a3.76 3.76 0 0 0 3.74 3.482h.414a3.76 3.76 0 0 0 3.74-3.482l.586-8.215.211-2.96.004-.04a.75.75 0 0 0-.002-.02V7.01A.75.75 0 0 0 10.75 7a.75.75 0 0 0-.004-.018 4.622 4.622 0 0 0-.371-2.283C9.843 3.483 8.472 2.25 6 2.25m0 1.5c2.028 0 2.657.767 3 1.55.203.464.142.637.15.95h-6.3c.008-.313-.053-.486.15-.95.343-.783.972-1.55 3-1.55m-3.195 4h6.39l-.107 1.5H2.912Zm.215 3h5.96l-.529 7.41a2.24 2.24 0 0 1-2.244 2.09h-.414a2.24 2.24 0 0 1-2.244-2.09z" style="color:#000;fill:currentColor;stroke-linecap:round;stroke-linejoin:round;-inkscape-stroke:none"/>
</svg>
