<svg xmlns="http://www.w3.org/2000/svg" width="24" height="24" fill="none" stroke-width="1.5" viewBox="0 0 24 24">
    <path d="M3 12.25a.75.75 0 0 0-.75.75v7.4c0 .737.613 1.35 1.35 1.35H11a.75.75 0 0 0 .75-.75v-7.4a1.36 1.36 0 0 0-1.35-1.35Zm.75 1.5h6.5v6.5h-6.5z" style="color:#000;fill:currentColor;stroke-linecap:round;stroke-linejoin:round;-inkscape-stroke:none"/>
    <path d="M11 20.25a.75.75 0 0 0-.75.75.75.75 0 0 0 .75.75h3a.75.75 0 0 0 .75-.75.75.75 0 0 0-.75-.75ZM3 9.25a.75.75 0 0 0-.75.75v3a.75.75 0 0 0 .75.75.75.75 0 0 0 .75-.75v-3A.75.75 0 0 0 3 9.25M3.6 2.25A1.36 1.36 0 0 0 2.25 3.6V6a.75.75 0 0 0 .75.75.75.75 0 0 0 .75-.75V3.75H6A.75.75 0 0 0 6.75 3 .75.75 0 0 0 6 2.25ZM10 2.25a.75.75 0 0 0-.75.75.75.75 0 0 0 .75.75h4a.75.75 0 0 0 .75-.75.75.75 0 0 0-.75-.75ZM21 9.25a.75.75 0 0 0-.75.75v4a.75.75 0 0 0 .75.75.75.75 0 0 0 .75-.75v-4a.75.75 0 0 0-.75-.75M18 2.25a.75.75 0 0 0-.75.75.75.75 0 0 0 .75.75h2.25V6a.75.75 0 0 0 .75.75.75.75 0 0 0 .75-.75V3.6a1.36 1.36 0 0 0-1.35-1.35ZM21 17.25a.75.75 0 0 0-.75.75v2.25H18a.75.75 0 0 0-.75.75.75.75 0 0 0 .75.75h2.4a1.36 1.36 0 0 0 1.35-1.35V18a.75.75 0 0 0-.75-.75M11 9.25a.75.75 0 0 0-.75.75.75.75 0 0 0 .75.75h2.25V13a.75.75 0 0 0 .75.75.75.75 0 0 0 .75-.75v-3a.75.75 0 0 0-.75-.75Z" style="color:#000;fill:currentColor;stroke-linecap:round;stroke-linejoin:round;-inkscape-stroke:none"/>
</svg>
