<svg xmlns="http://www.w3.org/2000/svg" width="24" height="24" fill="none" stroke-width="1.5" viewBox="0 0 24 24">
    <path d="M9 12.25a.75.75 0 0 0-.75.75.75.75 0 0 0 .75.75h1.25V15a.75.75 0 0 0 .75.75.75.75 0 0 0 .75-.75v-1.4a1.36 1.36 0 0 0-1.35-1.35ZM3 12.25a.75.75 0 0 0-.75.75.75.75 0 0 0 .75.75h3a.75.75 0 0 0 .75-.75.75.75 0 0 0-.75-.75ZM11 17.25a.75.75 0 0 0-.75.75v3a.75.75 0 0 0 .75.75.75.75 0 0 0 .75-.75v-3a.75.75 0 0 0-.75-.75" style="color:#000;fill:currentColor;stroke-linecap:round;stroke-linejoin:round;-inkscape-stroke:none"/>
    <path d="M3.6 2.25c-.737 0-1.35.613-1.35 1.35v16.8c0 .737.613 1.35 1.35 1.35h16.8c.737 0 1.35-.613 1.35-1.35V3.6c0-.737-.613-1.35-1.35-1.35Zm.15 1.5h16.5v16.5H3.75Z" style="color:#000;fill:currentColor;stroke-linecap:round;stroke-linejoin:round;stroke-miterlimit:1.5;-inkscape-stroke:none"/>
    <path d="M13 7.25a.75.75 0 0 0-.75.75v3a.75.75 0 0 0 .75.75h3a.75.75 0 0 0 .75-.75.75.75 0 0 0-.75-.75h-2.25V8a.75.75 0 0 0-.75-.75" style="color:#000;fill:currentColor;stroke-linecap:round;stroke-linejoin:round;-inkscape-stroke:none"/>
</svg>
