<svg xmlns="http://www.w3.org/2000/svg" width="24" height="24" fill="none" stroke-width="1.5" viewBox="0 0 24 24">
    <path d="M5 1.25A3.761 3.761 0 0 0 1.25 5 3.761 3.761 0 0 0 5 8.75c.834 0 1.56-.338 2.186-.803L19.51 18.568a.75.75 0 0 0 1.058-.078.75.75 0 0 0-.078-1.058L8.2 6.84c.318-.552.55-1.16.55-1.84A3.761 3.761 0 0 0 5 1.25m0 1.5c1.252 0 2.25.998 2.25 2.25 0 .58-.215 1.101-.572 1.5A2.236 2.236 0 0 1 5 7.25 2.239 2.239 0 0 1 2.75 5c0-1.252.998-2.25 2.25-2.25" style="color:#000;fill:currentColor;stroke-linecap:round;stroke-linejoin:round;-inkscape-stroke:none"/>
    <path d="M19.51 5.432 7.186 16.052C6.56 15.589 5.834 15.25 5 15.25A3.761 3.761 0 0 0 1.25 19 3.761 3.761 0 0 0 5 22.75 3.761 3.761 0 0 0 8.75 19c0-.68-.232-1.288-.55-1.84L20.49 6.568a.75.75 0 0 0 .078-1.058.75.75 0 0 0-1.058-.078M5 16.75c.671 0 1.265.289 1.678.75.357.399.572.92.572 1.5 0 1.252-.998 2.25-2.25 2.25A2.239 2.239 0 0 1 2.75 19c0-1.252.998-2.25 2.25-2.25" style="color:#000;fill:currentColor;stroke-linecap:round;stroke-linejoin:round;-inkscape-stroke:none"/>
</svg>
