<svg xmlns="http://www.w3.org/2000/svg" width="24" height="24" fill="none" stroke-width="1.5" viewBox="0 0 24 24">
    <path d="M8 2.25A3.76 3.76 0 0 0 4.25 6 3.76 3.76 0 0 0 8 9.75c.84 0 1.572-.342 2.2-.812l9.325 7.642a.75.75 0 0 0 1.055-.105.75.75 0 0 0-.105-1.055l-9.268-7.594c.314-.549.543-1.152.543-1.826A3.76 3.76 0 0 0 8 2.25m0 1.5c1.252 0 2.25.998 2.25 2.25 0 .58-.215 1.101-.572 1.5A2.24 2.24 0 0 1 8 8.25 2.24 2.24 0 0 1 5.75 6c0-1.252.998-2.25 2.25-2.25" style="color:#000;fill:currentColor;stroke-linecap:round;stroke-linejoin:round;-inkscape-stroke:none"/>
    <path d="M19.525 7.42 10.2 15.063c-.627-.47-1.359-.813-2.199-.813A3.76 3.76 0 0 0 4.25 18 3.76 3.76 0 0 0 8 21.75 3.76 3.76 0 0 0 11.75 18c0-.674-.23-1.277-.543-1.826l9.268-7.594a.75.75 0 0 0 .105-1.055.75.75 0 0 0-1.055-.105M8 15.75c.671 0 1.265.289 1.678.75.357.399.572.92.572 1.5 0 1.252-.998 2.25-2.25 2.25A2.24 2.24 0 0 1 5.75 18c0-1.252.998-2.25 2.25-2.25" style="color:#000;fill:currentColor;stroke-linecap:round;stroke-linejoin:round;-inkscape-stroke:none"/>
</svg>
