<svg xmlns="http://www.w3.org/2000/svg" width="24" height="24" fill="none" stroke-width="1.5" viewBox="0 0 24 24">
    <path d="M17 16.25a.75.75 0 0 0-.531.219.75.75 0 0 0 0 1.062l4 4a.75.75 0 0 0 1.062 0 .75.75 0 0 0 0-1.062l-4-4A.75.75 0 0 0 17 16.25" style="color:#000;fill:currentColor;stroke-linecap:round;stroke-linejoin:round;-inkscape-stroke:none"/>
    <path d="M11 2.25c-4.824 0-8.75 3.926-8.75 8.75s3.926 8.75 8.75 8.75a8.73 8.73 0 0 0 6.195-2.57A8.73 8.73 0 0 0 19.75 11c0-4.824-3.926-8.75-8.75-8.75m0 1.5A7.24 7.24 0 0 1 18.25 11a7.22 7.22 0 0 1-2.117 5.12A7.22 7.22 0 0 1 11 18.25 7.24 7.24 0 0 1 3.75 11 7.24 7.24 0 0 1 11 3.75" style="color:#000;fill:currentColor;stroke-linecap:round;stroke-linejoin:round;-inkscape-stroke:none"/>
</svg>
