<svg xmlns="http://www.w3.org/2000/svg" width="24" height="24" fill="none" stroke-width="1.5" viewBox="0 0 24 24">
    <path d="M4 2.25C2.49 2.25 1.25 3.49 1.25 5v14c0 1.51 1.24 2.75 2.75 2.75h9a.75.75 0 0 0 .75-.75.75.75 0 0 0-.75-.75H4c-.7 0-1.25-.55-1.25-1.25V5c0-.7.55-1.25 1.25-1.25h16c.7 0 1.25.55 1.25 1.25v7a.75.75 0 0 0 .75.75.75.75 0 0 0 .75-.75V5c0-1.51-1.24-2.75-2.75-2.75Z" style="color:#000;fill:currentColor;stroke-linecap:round;-inkscape-stroke:none"/>
    <path d="M2 6.25a.75.75 0 0 0-.75.75.75.75 0 0 0 .75.75h20a.75.75 0 0 0 .75-.75.75.75 0 0 0-.75-.75ZM4.97 4.25a.75.75 0 0 0-.517.248l-.01.01a.75.75 0 0 0 .055 1.06.75.75 0 0 0 1.059-.056l.011-.012a.75.75 0 0 0-.056-1.059.75.75 0 0 0-.541-.191M7.97 4.25a.75.75 0 0 0-.517.248l-.01.01a.75.75 0 0 0 .055 1.06.75.75 0 0 0 1.059-.056l.011-.012a.75.75 0 0 0-.056-1.059.75.75 0 0 0-.541-.191M10.97 4.25a.75.75 0 0 0-.517.248l-.01.01a.75.75 0 0 0 .055 1.06.75.75 0 0 0 1.059-.056l.011-.012a.75.75 0 0 0-.056-1.059.75.75 0 0 0-.541-.191M17.822 13.398l-2.554.649a1.34 1.34 0 0 0-1.01 1.334c.09 3.022 1.028 4.884 2.004 5.96.975 1.078 2.045 1.384 2.045 1.384a.75.75 0 0 0 .386 0s1.07-.306 2.045-1.383c.976-1.077 1.914-2.94 2.004-5.961a1.34 1.34 0 0 0-1.01-1.334l-2.554-.649a2.76 2.76 0 0 0-1.356 0m.37 1.454c.201-.052.415-.052.617 0l2.412.613c-.108 2.631-.88 4.08-1.594 4.869-.621.686-.987.759-1.127.803-.14-.044-.506-.117-1.127-.803-.714-.788-1.486-2.238-1.594-4.87z" style="color:#000;fill:currentColor;stroke-linecap:round;stroke-linejoin:round;-inkscape-stroke:none"/>
</svg>
