<svg xmlns="http://www.w3.org/2000/svg" width="24" height="24" fill="none" stroke-width="1.5" viewBox="0 0 24 24">
    <path d="M12 13a1 1 0 1 0 0-2 1 1 0 0 0 0 2" style="color:#000;fill:currentColor;stroke-width:1.5;stroke-linecap:round;stroke-linejoin:round;-inkscape-stroke:none"/>
    <path d="M12 10.25c-.958 0-1.75.792-1.75 1.75s.792 1.75 1.75 1.75 1.75-.792 1.75-1.75-.792-1.75-1.75-1.75m0 1.5a.24.24 0 0 1 .25.25.24.24 0 0 1-.25.25.24.24 0 0 1-.25-.25.24.24 0 0 1 .25-.25" style="color:#000;fill:currentColor;stroke-linecap:round;stroke-linejoin:round;-inkscape-stroke:none"/>
    <path d="M11.344 1.506 2.945 6.174c-.427.237-.695.69-.695 1.18v9.292c0 .49.266.943.693 1.18a.75.75 0 0 0 .002 0l8.399 4.668c.407.226.905.226 1.312 0l8.399-4.668a.75.75 0 0 0 .002 0c.427-.237.693-.69.693-1.18V7.354c0-.49-.266-.943-.693-1.18a.75.75 0 0 0-.002 0l-8.399-4.668a1.355 1.355 0 0 0-1.312 0M12 2.859l8.25 4.582v9.118L12 21.14l-8.25-4.582V7.44Z" style="color:#000;fill:currentColor;stroke-linecap:round;stroke-linejoin:round;-inkscape-stroke:none"/>
</svg>
