<svg xmlns="http://www.w3.org/2000/svg" width="24" height="24" fill="none" stroke-width="1.5" viewBox="0 0 24 24">
    <path d="M12 9.75a1.25 1.202 0 0 0-1.25 1.202v10.096A1.25 1.202 0 0 0 12 22.25a1.25 1.202 0 0 0 1.25-1.202V10.952A1.25 1.202 0 0 0 12 9.75" style="fill:#000;stroke-width:2.22801;stroke-linecap:round;stroke-linejoin:round"/>
    <path d="M11.344 1.506 2.945 6.174c-.427.237-.695.69-.695 1.18v9.292c0 .49.266.943.693 1.18h.002l8.399 4.668c.407.226.905.226 1.312 0l8.399-4.668h.002c.427-.237.693-.69.693-1.18V7.354c0-.49-.266-.943-.693-1.18h-.002l-8.399-4.668a1.36 1.36 0 0 0-1.312 0M12 2.859l8.25 4.582v9.118L12 21.14l-8.25-4.582V7.44Z" style="color:#000;fill:currentColor;stroke-linecap:round;stroke-linejoin:round;-inkscape-stroke:none"/>
</svg>
