<svg xmlns="http://www.w3.org/2000/svg" width="24" height="24" fill="none" stroke-width="1.5" viewBox="0 0 24 24">
    <path d="M17.176 7.25a.75.75 0 0 0-.535.209.75.75 0 0 0-.022 1.06l2.621 2.731H13a.75.75 0 0 0-.75.75.75.75 0 0 0 .75.75h6.24l-2.62 2.73a.75.75 0 0 0 .02 1.061.75.75 0 0 0 1.061-.021l3.819-3.979.01-.008.001-.002.002-.002.008-.01a1 1 0 0 0 .074-.115 1 1 0 0 0 .077-.117 1 1 0 0 0 .03-.145 1 1 0 0 0 .026-.138L21.75 12l-.002-.008a1 1 0 0 0-.023-.119l-.002-.016-.004-.013a1 1 0 0 0-.024-.125l-.006-.012a1 1 0 0 0-.066-.1l-.022-.033a1 1 0 0 0-.06-.094l-.006-.005-.004-.006-.004-.002-.008-.008-3.818-3.979a.75.75 0 0 0-.525-.23M8.87 6.25c-3.106 0-5.62 2.594-5.62 5.75s2.514 5.75 5.62 5.75c.881 0 1.722-.21 2.466-.582a.75.75 0 0 0 .334-1.006.75.75 0 0 0-1.006-.336 4 4 0 0 1-1.795.424c-2.273 0-4.119-1.883-4.119-4.25s1.846-4.25 4.12-4.25a4 4 0 0 1 1.794.424.75.75 0 0 0 1.006-.336.75.75 0 0 0-.334-1.006 5.5 5.5 0 0 0-2.467-.582" style="color:#000;fill:currentColor;stroke-linecap:round;stroke-linejoin:round;-inkscape-stroke:none"/>
    <path d="M3 10.25a.75.75 0 0 0-.75.75.75.75 0 0 0 .75.75h6a.75.75 0 0 0 .75-.75.75.75 0 0 0-.75-.75ZM3 12.25a.75.75 0 0 0-.75.75.75.75 0 0 0 .75.75h6a.75.75 0 0 0 .75-.75.75.75 0 0 0-.75-.75Z" style="color:#000;fill:currentColor;stroke-linecap:round;stroke-linejoin:round;-inkscape-stroke:none"/>
</svg>
