<svg xmlns="http://www.w3.org/2000/svg" width="24" height="24" fill="none" stroke-width="1.5" viewBox="0 0 24 24">
    <path d="M3.291 3.309a.75.75 0 0 0-.977.996L5.742 12l-3.428 7.695a.75.75 0 0 0 .977.996l19-8a.75.75 0 0 0 0-1.382zm1.166 2.119L20.067 12l-15.61 6.572 2.791-6.267a.75.75 0 0 0 0-.61z" style="color:#000;fill:currentColor;stroke-linecap:round;stroke-linejoin:round;-inkscape-stroke:none"/>
    <path d="M6.5 11.25a.75.75 0 0 0-.75.75.75.75 0 0 0 .75.75H22a.75.75 0 0 0 .75-.75.75.75 0 0 0-.75-.75Z" style="color:#000;fill:currentColor;stroke-linecap:round;stroke-linejoin:round;-inkscape-stroke:none"/>
</svg>
