<svg xmlns="http://www.w3.org/2000/svg" width="24" height="24" fill="none" stroke-width="1.5" viewBox="0 0 24 24">
    <path d="M17.176 7.25a.75.75 0 0 0-.535.209.75.75 0 0 0-.022 1.06l2.621 2.731H13a.75.75 0 0 0-.75.75.75.75 0 0 0 .75.75h6.24l-2.62 2.73a.75.75 0 0 0 .02 1.061.75.75 0 0 0 1.061-.021l3.819-3.979.01-.008.001-.002a.75.75 0 0 0 .002-.002l.008-.01a.75.75 0 0 0 .074-.115.75.75 0 0 0 .077-.117.75.75 0 0 0 .03-.145.75.75 0 0 0 .026-.138.75.75 0 0 0 .002-.004.75.75 0 0 0-.002-.008.75.75 0 0 0-.023-.119.75.75 0 0 0-.002-.016.75.75 0 0 0-.004-.013.75.75 0 0 0-.024-.125.75.75 0 0 0-.006-.012.75.75 0 0 0-.066-.1.75.75 0 0 0-.022-.033.75.75 0 0 0-.06-.094l-.006-.005-.004-.006a.75.75 0 0 0-.004-.002l-.008-.008-3.818-3.979a.75.75 0 0 0-.525-.23M3 12.25a.75.75 0 0 0-.75.75.75.75 0 0 0 .75.75h8a.75.75 0 0 0 .75-.75.75.75 0 0 0-.75-.75Z" style="color:#000;fill:currentColor;stroke-linecap:round;stroke-linejoin:round;-inkscape-stroke:none"/>
    <path d="M3.117 6.26a.75.75 0 0 0-.558.133.75.75 0 0 0-.166 1.048l3.857 5.305V18a.75.75 0 0 0 .75.75.75.75 0 0 0 .75-.75v-5.254l3.857-5.305a.75.75 0 0 0-.166-1.048.75.75 0 0 0-1.048.166L7 11.223 3.607 6.559a.75.75 0 0 0-.49-.3" style="color:#000;fill:currentColor;stroke-linecap:round;stroke-linejoin:round;-inkscape-stroke:none"/>
    <path d="M3 14.25a.75.75 0 0 0-.75.75.75.75 0 0 0 .75.75h8a.75.75 0 0 0 .75-.75.75.75 0 0 0-.75-.75Z" style="color:#000;fill:currentColor;stroke-linecap:round;stroke-linejoin:round;-inkscape-stroke:none"/>
</svg>
