<svg xmlns="http://www.w3.org/2000/svg" width="24" height="24" fill="none" stroke-width="1.5" viewBox="0 0 24 24">
    <path d="M17.176 7.25a.75.75 0 0 0-.535.209.75.75 0 0 0-.022 1.06l2.621 2.731H13a.75.75 0 0 0-.75.75.75.75 0 0 0 .75.75h6.24l-2.62 2.73a.75.75 0 0 0 .02 1.061.75.75 0 0 0 1.061-.021l3.819-3.979.01-.008.001-.002a.75.75 0 0 0 .002-.002l.008-.01a.75.75 0 0 0 .074-.115.75.75 0 0 0 .077-.117.75.75 0 0 0 .03-.145.75.75 0 0 0 .026-.138.75.75 0 0 0 .002-.004.75.75 0 0 0-.002-.008.75.75 0 0 0-.023-.119.75.75 0 0 0-.002-.016.75.75 0 0 0-.004-.013.75.75 0 0 0-.024-.125.75.75 0 0 0-.006-.012.75.75 0 0 0-.066-.1.75.75 0 0 0-.022-.033.75.75 0 0 0-.06-.094l-.006-.005-.004-.006a.75.75 0 0 0-.004-.002l-.008-.008-3.818-3.979a.75.75 0 0 0-.525-.23M7.28 12.303a.75.75 0 0 0-.977.418c-.635 1.586-1.619 3.099-2.639 3.61A.75.75 0 0 0 4 17.75h6.334s1.265.045 2.197-.887a.75.75 0 0 0 0-1.06.75.75 0 0 0-1.062 0c-.402.401-1.135.447-1.135.447H5.898a10.96 10.96 0 0 0 1.8-2.97.75.75 0 0 0-.419-.977" style="color:#000;fill:currentColor;stroke-linecap:round;stroke-linejoin:round;-inkscape-stroke:none"/>
    <path d="M3 12.25a.75.75 0 0 0-.75.75.75.75 0 0 0 .75.75h6.666a.75.75 0 0 0 .75-.75.75.75 0 0 0-.75-.75Z" style="color:#000;fill:currentColor;stroke-linecap:round;stroke-linejoin:round;-inkscape-stroke:none"/>
    <path d="M8 6.25A3.761 3.761 0 0 0 4.25 10 3.761 3.761 0 0 0 8 13.75a.75.75 0 0 0 .75-.75.75.75 0 0 0-.75-.75A2.239 2.239 0 0 1 5.75 10c0-1.252.998-2.25 2.25-2.25s2.25.998 2.25 2.25a.75.75 0 0 0 .75.75.75.75 0 0 0 .75-.75A3.761 3.761 0 0 0 8 6.25" style="color:#000;fill:currentColor;stroke-linecap:round;stroke-linejoin:round;-inkscape-stroke:none"/>
</svg>
