<svg xmlns="http://www.w3.org/2000/svg" width="24" height="24" fill="none" stroke-width="1.5" viewBox="0 0 24 24">
    <path d="M21.994 2.82 1.842 7.164a.75.75 0 0 0-.229 1.377l7.221 4.338 1.607 8.267a.75.75 0 0 0 1.371.258l10.975-17.45a.75.75 0 0 0-.793-1.134m-1.426 1.842L11.553 19l-1.31-6.734a.75.75 0 0 0-.35-.5L4.01 8.232Z" style="color:#000;fill:currentColor;stroke-linecap:round;stroke-linejoin:round;-inkscape-stroke:none"/>
    <path d="M22.283 2.814a.75.75 0 0 0-.56.125L9.025 11.83a.75.75 0 0 0-.183 1.043.75.75 0 0 0 1.045.186l12.695-8.891a.75.75 0 0 0 .186-1.045.75.75 0 0 0-.485-.309" style="color:#000;fill:currentColor;stroke-linecap:round;stroke-linejoin:round;-inkscape-stroke:none"/>
</svg>
