<svg xmlns="http://www.w3.org/2000/svg" width="24" height="24" fill="none" stroke-width="1.5" viewBox="0 0 24 24">
    <path d="M5.97 17.25a.75.75 0 0 0-.517.246l-.01.012a.75.75 0 0 0 .055 1.058.75.75 0 0 0 1.059-.054l.01-.012a.75.75 0 0 0-.055-1.059.75.75 0 0 0-.541-.191M5.97 5.25a.75.75 0 0 0-.517.248l-.01.01a.75.75 0 0 0 .055 1.06.75.75 0 0 0 1.059-.056l.011-.012a.75.75 0 0 0-.056-1.059.75.75 0 0 0-.541-.191" style="color:#000;fill:currentColor;stroke-linecap:round;stroke-linejoin:round;-inkscape-stroke:none"/>
    <path d="M2.6 1.25A1.36 1.36 0 0 0 1.25 2.6v6.8c0 .737.613 1.35 1.35 1.35h18.8a1.36 1.36 0 0 0 1.35-1.35V2.6a1.36 1.36 0 0 0-1.35-1.35Zm.15 1.5h18.5v6.5H2.75ZM2.6 13.25a1.36 1.36 0 0 0-1.35 1.35v6.8c0 .737.613 1.35 1.35 1.35h18.8a1.36 1.36 0 0 0 1.35-1.35v-6.8a1.36 1.36 0 0 0-1.35-1.35Zm.15 1.5h18.5v6.5H2.75Z" style="color:#000;fill:currentColor;-inkscape-stroke:none"/>
</svg>
