<svg xmlns="http://www.w3.org/2000/svg" width="24" height="24" fill="none" stroke-width="1.5" viewBox="0 0 24 24">
    <path d="M12 1.447c-.317 0-.633.11-.885.328l-1.9 1.65-2.508-.218a1.36 1.36 0 0 0-1.434 1.041l-.566 2.453-2.158 1.297a1.358 1.358 0 0 0-.547 1.684L2.984 12l-.982 2.318c-.26.615-.025 1.34.547 1.684l2.158 1.297.566 2.453a1.36 1.36 0 0 0 1.434 1.041l2.508-.219 1.9 1.65a1.357 1.357 0 0 0 1.77 0l1.9-1.65 2.508.219a1.36 1.36 0 0 0 1.434-1.041l.566-2.453 2.158-1.297a1.36 1.36 0 0 0 .547-1.684v-.002L21.016 12l.982-2.316v-.002a1.36 1.36 0 0 0-.547-1.684l-2.158-1.297-.566-2.453a1.36 1.36 0 0 0-1.434-1.041l-2.508.219-1.9-1.65A1.346 1.346 0 0 0 12 1.446m0 1.545 1.85 1.61c.276.24.637.356 1.002.324l2.441-.211.553 2.387c.082.355.305.663.619.851l2.101 1.264-.957 2.256a1.354 1.354 0 0 0 0 1.054l.957 2.256-2.101 1.264a1.349 1.349 0 0 0-.62.851l-.552 2.387-2.44-.21h-.001a1.353 1.353 0 0 0-1.002.323L12 21.008l-1.85-1.61a1.352 1.352 0 0 0-1.004-.324l-2.439.211-.553-2.387a1.347 1.347 0 0 0-.619-.851l-2.101-1.264.957-2.256a1.354 1.354 0 0 0 0-1.054l-.957-2.256 2.101-1.264c.313-.188.537-.495.62-.851l.552-2.387 2.44.21c.364.033.727-.084 1.003-.323Z" style="color:#000;fill:currentColor;-inkscape-stroke:none"/>
    <path d="M16 9.25a.75.75 0 0 0-.531.219L11 13.938l-1.469-1.47a.75.75 0 0 0-1.062 0 .75.75 0 0 0 0 1.063l2 2a.75.75 0 0 0 1.062 0l5-5a.75.75 0 0 0 0-1.062A.75.75 0 0 0 16 9.25" style="color:#000;fill:currentColor;stroke-linecap:round;stroke-linejoin:round;-inkscape-stroke:none"/>
</svg>
