<svg xmlns="http://www.w3.org/2000/svg" width="24" height="24" fill="none" stroke-width="1.5" viewBox="0 0 24 24">
    <path d="M18 15.25A3.76 3.76 0 0 0 14.25 19 3.76 3.76 0 0 0 18 22.75 3.76 3.76 0 0 0 21.75 19 3.76 3.76 0 0 0 18 15.25m0 1.5c1.252 0 2.25.998 2.25 2.25s-.998 2.25-2.25 2.25A2.24 2.24 0 0 1 15.75 19c0-1.252.998-2.25 2.25-2.25M18 1.25A3.76 3.76 0 0 0 14.25 5 3.76 3.76 0 0 0 18 8.75 3.76 3.76 0 0 0 21.75 5 3.76 3.76 0 0 0 18 1.25m0 1.5c1.252 0 2.25.998 2.25 2.25S19.252 7.25 18 7.25A2.24 2.24 0 0 1 15.75 5c0-1.252.998-2.25 2.25-2.25M6 8.25A3.76 3.76 0 0 0 2.25 12 3.76 3.76 0 0 0 6 15.75 3.76 3.76 0 0 0 9.75 12 3.76 3.76 0 0 0 6 8.25m0 1.5c1.252 0 2.25.998 2.25 2.25S7.252 14.25 6 14.25A2.24 2.24 0 0 1 3.75 12c0-1.252.998-2.25 2.25-2.25" style="color:#000;fill:currentColor;stroke-linecap:round;stroke-linejoin:round;-inkscape-stroke:none"/>
    <path d="m15.127 5.85-7 4 .746 1.3 7-4zM8.873 12.85l-.746 1.3 7 4 .746-1.3z" style="color:#000;fill:currentColor;-inkscape-stroke:none"/>
</svg>
