<svg xmlns="http://www.w3.org/2000/svg" width="24" height="24" fill="none" stroke-width="1.5" viewBox="0 0 24 24">
    <path d="M4 12.25a.75.75 0 0 0-.75.75v6c0 1.51 1.24 2.75 2.75 2.75h12c1.51 0 2.75-1.24 2.75-2.75v-6a.75.75 0 0 0-.75-.75.75.75 0 0 0-.75.75v6c0 .7-.55 1.25-1.25 1.25H6c-.7 0-1.25-.55-1.25-1.25v-6a.75.75 0 0 0-.75-.75" style="color:#000;fill:currentColor;stroke-linecap:round;stroke-linejoin:round;-inkscape-stroke:none"/>
    <path d="M12 2.25a.75.75 0 0 0-.531.219l-3.5 3.5a.75.75 0 0 0 0 1.062.75.75 0 0 0 1.062 0l2.219-2.218V15a.75.75 0 0 0 .75.75.75.75 0 0 0 .75-.75V4.813l2.219 2.218a.75.75 0 0 0 1.062 0 .75.75 0 0 0 0-1.062l-3.5-3.5A.75.75 0 0 0 12 2.25" style="color:#000;fill:currentColor;stroke-linecap:round;stroke-linejoin:round;-inkscape-stroke:none"/>
</svg>
