<svg xmlns="http://www.w3.org/2000/svg" width="24" height="24" fill="none" stroke-width="1.5" viewBox="0 0 24 24">
    <path d="M11.404 1.365 3.742 3.066A1.76 1.76 0 0 0 2.39 5.021c.103.723.258 1.817.44 3.084l1 7c.171 1.204.323 2.26.429 3A4.014 4.014 0 0 0 5.596 20.5c1.104.967 3.038 1.75 6.404 1.75s5.3-.783 6.404-1.75a4.014 4.014 0 0 0 1.338-2.395l.43-3 1-7 .44-3.084a1.76 1.76 0 0 0-1.354-1.955l-7.662-1.7a2.743 2.743 0 0 0-1.192 0m.325 1.463c.178-.04.364-.04.542 0l7.663 1.703a.24.24 0 0 1 .193.28l-.35 2.439H4.223l-.35-2.44a.24.24 0 0 1 .193-.279ZM4.438 8.75h15.125l-.786 5.5H5.223zm.998 7h13.128l-.306 2.145c-.036.247-.089.817-.842 1.476-.753.66-2.282 1.379-5.416 1.379-3.134 0-4.663-.72-5.416-1.379-.753-.66-.806-1.229-.842-1.476z" style="color:#000;fill:currentColor;stroke-linecap:round;stroke-linejoin:round;-inkscape-stroke:none"/>
</svg>
