<svg xmlns="http://www.w3.org/2000/svg" width="24" height="24" fill="none" stroke-width="1.5" viewBox="0 0 24 24">
    <path d="M13.5 12.25a.75.75 0 0 0-.531.219.75.75 0 0 0 0 1.062l1.5 1.5a.75.75 0 0 0 1.062 0 .75.75 0 0 0 0-1.062l-1.5-1.5a.75.75 0 0 0-.531-.219" style="color:#000;fill:currentColor;stroke-linecap:round;stroke-linejoin:round;-inkscape-stroke:none"/>
    <path d="M11.5 7.75A3.261 3.261 0 0 0 8.25 11a3.261 3.261 0 0 0 3.25 3.25A3.249 3.249 0 0 0 14.75 11a3.261 3.261 0 0 0-3.25-3.25m0 1.5c.975 0 1.75.775 1.75 1.75 0 .487-.195.919-.512 1.236-.317.319-.75.514-1.238.514-.975 0-1.75-.775-1.75-1.75s.775-1.75 1.75-1.75" style="color:#000;fill:currentColor;stroke-linecap:round;stroke-linejoin:round;-inkscape-stroke:none"/>
    <path d="M11.404 1.365 3.742 3.066A1.76 1.76 0 0 0 2.39 5.02l1.869 13.085A4.014 4.014 0 0 0 5.596 20.5c1.104.967 3.038 1.75 6.404 1.75s5.3-.783 6.404-1.75a4.014 4.014 0 0 0 1.338-2.395l1.87-13.085a1.76 1.76 0 0 0-1.354-1.954l-7.662-1.7a2.743 2.743 0 0 0-1.192 0m.325 1.463c.178-.04.364-.04.542 0l7.663 1.703c.138.031.212.14.193.276l-1.87 13.088c-.035.247-.088.817-.841 1.476-.753.66-2.282 1.379-5.416 1.379-3.134 0-4.663-.72-5.416-1.379-.753-.66-.806-1.229-.842-1.476L3.873 4.807c-.02-.137.055-.245.193-.276Z" style="color:#000;fill:currentColor;stroke-linecap:round;stroke-linejoin:round;-inkscape-stroke:none"/>
</svg>
