<svg xmlns="http://www.w3.org/2000/svg" width="24" height="24" fill="none" stroke-width="1.5" viewBox="0 0 24 24">
    <path d="M16.5 8.75a.75.75 0 0 0-.531.219L11.5 13.438l-2.469-2.47a.75.75 0 0 0-1.062 0 .75.75 0 0 0 0 1.063l3 3a.75.75 0 0 0 1.062 0l5-5a.75.75 0 0 0 0-1.062.75.75 0 0 0-.531-.219" style="color:#000;fill:currentColor;stroke-linecap:round;stroke-linejoin:round;-inkscape-stroke:none"/>
    <path d="M11.404 1.365 3.742 3.066A1.76 1.76 0 0 0 2.39 5.02l1.869 13.085A4 4 0 0 0 5.596 20.5c1.104.967 3.038 1.75 6.404 1.75s5.3-.783 6.404-1.75a4 4 0 0 0 1.338-2.395l1.87-13.085a1.76 1.76 0 0 0-1.354-1.954l-7.662-1.7a2.74 2.74 0 0 0-1.192 0m.325 1.463c.178-.04.364-.04.542 0l7.663 1.703c.138.031.212.14.193.276l-1.87 13.088c-.035.247-.088.817-.841 1.476-.753.66-2.282 1.379-5.416 1.379s-4.663-.72-5.416-1.379c-.753-.66-.806-1.229-.842-1.476L3.873 4.807c-.02-.137.055-.245.193-.276Z" style="color:#000;fill:currentColor;stroke-linecap:round;stroke-linejoin:round;-inkscape-stroke:none"/>
</svg>
