<svg xmlns="http://www.w3.org/2000/svg" width="24" height="24" fill="none" stroke-width="1.5" viewBox="0 0 24 24">
    <path d="M11.75 5.625c-.847 0-1.703.263-2.375.834C8.703 7.029 8.25 7.929 8.25 9a.75.75 0 0 0 .75.75.75.75 0 0 0 .75-.75c0-.679.235-1.092.594-1.396.359-.305.878-.479 1.406-.479s1.047.174 1.406.479c.36.304.594.717.594 1.396 0 1-.356 1.175-1.002 1.756-.645.58-1.498 1.536-1.498 3.244a.75.75 0 0 0 .75.75.75.75 0 0 0 .75-.75c0-1.292.397-1.587 1.002-2.13.604-.545 1.498-1.37 1.498-2.87 0-1.071-.453-1.97-1.125-2.541-.672-.57-1.528-.834-2.375-.834M11.97 17.25a.75.75 0 0 0-.517.246l-.01.012a.75.75 0 0 0 .055 1.058.75.75 0 0 0 1.059-.054l.01-.012a.75.75 0 0 0-.055-1.059.75.75 0 0 0-.541-.191" style="color:#000;fill:currentColor;stroke-linecap:round;stroke-linejoin:round;-inkscape-stroke:none"/>
    <path d="M11.404 1.365 3.742 3.066A1.76 1.76 0 0 0 2.39 5.02l1.869 13.085A4 4 0 0 0 5.596 20.5c1.104.967 3.038 1.75 6.404 1.75s5.3-.783 6.404-1.75a4 4 0 0 0 1.338-2.395l1.87-13.085a1.76 1.76 0 0 0-1.354-1.954l-7.662-1.7a2.74 2.74 0 0 0-1.192 0m.325 1.463c.178-.04.364-.04.542 0l7.663 1.703c.138.031.212.14.193.276l-1.87 13.088c-.035.247-.088.817-.841 1.476-.753.66-2.282 1.379-5.416 1.379s-4.663-.72-5.416-1.379c-.753-.66-.806-1.229-.842-1.476L3.873 4.807c-.02-.137.055-.245.193-.276Z" style="color:#000;fill:currentColor;stroke-linecap:round;stroke-linejoin:round;-inkscape-stroke:none"/>
</svg>
