<svg xmlns="http://www.w3.org/2000/svg" width="24" height="24" fill="none" stroke-width="1.5" viewBox="0 0 24 24">
    <path d="M6 3.25a.75.75 0 0 0-.75.75.75.75 0 0 0 .75.75h2.436c.042.35-.006.536.27 1.086C9.17 6.765 10.25 7.75 12 7.75s2.83-.985 3.295-1.914c.275-.55.227-.735.27-1.086H18a.75.75 0 0 0 .75-.75.75.75 0 0 0-.75-.75h-3a.75.75 0 0 0-.75.75s-.01.593-.295 1.164S13.25 6.25 12 6.25s-1.67-.515-1.955-1.086S9.75 4 9.75 4A.75.75 0 0 0 9 3.25Zm0 7a.75.75 0 0 0-.75.75v8.4c0 .737.613 1.35 1.35 1.35h10.8a1.36 1.36 0 0 0 1.35-1.35V11a.75.75 0 0 0-.75-.75.75.75 0 0 0-.75.75v8.25H6.75V11a.75.75 0 0 0-.75-.75" style="color:#000;fill:currentColor;stroke-linecap:round;stroke-linejoin:round;-inkscape-stroke:none"/>
    <path d="M18.28 3.303a.75.75 0 0 0-.977.418.75.75 0 0 0 .418.976l4.304 1.721-1.533 3.832H18a.75.75 0 0 0-.75.75.75.75 0 0 0 .75.75h2.594c.55 0 1.05-.337 1.254-.848V10.9l1.625-4.064a1.363 1.363 0 0 0-.752-1.756ZM5.72 3.303 1.28 5.08a1.363 1.363 0 0 0-.753 1.756L2.152 10.9c.205.51.704.85 1.254.85H6a.75.75 0 0 0 .75-.75.75.75 0 0 0-.75-.75H3.508L1.975 6.418l4.304-1.72a.75.75 0 0 0 .416-.977.75.75 0 0 0-.974-.418" style="color:#000;fill:currentColor;stroke-linecap:round;stroke-linejoin:round;-inkscape-stroke:none"/>
</svg>
