<svg xmlns="http://www.w3.org/2000/svg" width="24" height="24" fill="none" stroke-width="1.5" viewBox="0 0 24 24">
    <path d="m15.664 2.25.61 6.092.189.19S17.66 9.75 19.494 9.75c1.316 0 2.221-.627 2.635-.994.346-.307.457-.763.392-1.15l-.705-4.227a1.36 1.36 0 0 0-1.332-1.129Zm1.658 1.5h3.037l.653 3.93c-.268.221-.743.57-1.518.57-.97 0-1.573-.47-1.787-.65z" style="color:#000;fill:currentColor;-inkscape-stroke:none"/>
    <path d="M11.244 2.25v6.06l.219.221S12.66 9.75 14.494 9.75s3.03-1.219 3.03-1.219l.251-.252-.603-6.029h-.678zm1.5 1.5h3.07l.39 3.904c-.273.216-.82.596-1.71.596a2.68 2.68 0 0 1-1.75-.623z" style="color:#000;fill:currentColor;-inkscape-stroke:none"/>
    <path d="m6.814 2.25-.603 6.03.252.251S7.66 9.75 9.494 9.75s3.03-1.219 3.03-1.219l.22-.22V2.25h-.75zm1.358 1.5h3.072v3.875c-.243.2-.817.625-1.75.625-.89 0-1.442-.38-1.713-.596Z" style="color:#000;fill:currentColor;-inkscape-stroke:none"/>
    <path d="M3.502 2.25A1.36 1.36 0 0 0 2.17 3.379l-.705 4.226c-.065.387.047.842.392 1.149.414.367 1.32.996 2.637.996 1.833 0 3.03-1.219 3.03-1.219l.189-.19.61-6.091h-.829zm.127 1.5h3.035L6.28 7.6c-.214.18-.814.65-1.785.65-.776 0-1.252-.35-1.52-.572Z" style="color:#000;fill:currentColor;-inkscape-stroke:none"/>
    <path d="M2.25 9v10c0 1.51 1.24 2.75 2.75 2.75h14c1.51 0 2.75-1.24 2.75-2.75V9h-1.5v10c0 .7-.55 1.25-1.25 1.25H5c-.7 0-1.25-.55-1.25-1.25V9Z" style="color:#000;fill:currentColor;-inkscape-stroke:none"/>
    <path d="M10.834 12.25c-1.51 0-2.75 1.24-2.75 2.75v6h1.5v-6c0-.7.55-1.25 1.25-1.25h2c.7 0 1.25.55 1.25 1.25v6h1.5v-6c0-1.51-1.24-2.75-2.75-2.75z" style="color:#000;fill:currentColor;stroke-miterlimit:16;-inkscape-stroke:none"/>
</svg>
