<svg xmlns="http://www.w3.org/2000/svg" width="24" height="24" fill="none" stroke-width="1.5" viewBox="0 0 24 24">
    <path d="M6 4.25a.75.75 0 0 0-.75.75v2a.75.75 0 0 0 .75.75.75.75 0 0 0 .75-.75V5A.75.75 0 0 0 6 4.25M10 4.25a.75.75 0 0 0-.75.75v6a.75.75 0 0 0 .75.75.75.75 0 0 0 .75-.75V5a.75.75 0 0 0-.75-.75M18 4.25a.75.75 0 0 0-.75.75v1a.75.75 0 0 0 .75.75.75.75 0 0 0 .75-.75V5a.75.75 0 0 0-.75-.75M6 9.25a.75.75 0 0 0-.75.75v6a.75.75 0 0 0 .75.75.75.75 0 0 0 .75-.75v-6A.75.75 0 0 0 6 9.25M6 17.75a.75.75 0 0 0-.75.75v.5a.75.75 0 0 0 .75.75.75.75 0 0 0 .75-.75v-.5a.75.75 0 0 0-.75-.75M10 17.75a.75.75 0 0 0-.75.75v.5a.75.75 0 0 0 .75.75.75.75 0 0 0 .75-.75v-.5a.75.75 0 0 0-.75-.75M10 13.25a.75.75 0 0 0-.75.75v2a.75.75 0 0 0 .75.75.75.75 0 0 0 .75-.75v-2a.75.75 0 0 0-.75-.75M14 12.25a.75.75 0 0 0-.75.75v2a.75.75 0 0 0 .75.75.75.75 0 0 0 .75-.75v-2a.75.75 0 0 0-.75-.75M14 4.25a.75.75 0 0 0-.75.75v5a.75.75 0 0 0 .75.75.75.75 0 0 0 .75-.75V5a.75.75 0 0 0-.75-.75M18 8.25a.75.75 0 0 0-.75.75v4a.75.75 0 0 0 .75.75.75.75 0 0 0 .75-.75V9a.75.75 0 0 0-.75-.75M16.121 16.371a.75.75 0 0 0-.53.22.75.75 0 0 0 0 1.061l1.593 1.59-1.592 1.592a.75.75 0 0 0 0 1.06.75.75 0 0 0 1.06 0l1.59-1.59 1.592 1.59a.75.75 0 0 0 1.06 0 .75.75 0 0 0 0-1.06l-1.59-1.592 1.59-1.59a.75.75 0 0 0 0-1.06.75.75 0 0 0-1.06 0l-1.592 1.592-1.59-1.592a.75.75 0 0 0-.53-.22" style="color:#000;fill:currentColor;stroke-linecap:round;stroke-linejoin:round;-inkscape-stroke:none"/>
</svg>
