<svg xmlns="http://www.w3.org/2000/svg" width="24" height="24" fill="none" stroke-width="1.5" viewBox="0 0 24 24">
    <path d="M6.717 7.25a2.76 2.76 0 0 0-2.719 2.332l-1.385 9c-.254 1.652 1.048 3.168 2.719 3.168H12a.75.75 0 0 0 .75-.75.75.75 0 0 0-.75-.75H5.332c-.78 0-1.355-.668-1.236-1.44l1.384-9a1.24 1.24 0 0 1 1.237-1.06h10.568c.622 0 1.14.445 1.235 1.06l.738 4.803a.75.75 0 0 0 .855.63.75.75 0 0 0 .63-.856l-.741-4.805a2.76 2.76 0 0 0-2.717-2.332Z" style="color:#000;fill:currentColor;stroke-linecap:round;stroke-linejoin:round;-inkscape-stroke:none"/>
    <path d="M17.5 16.25a.75.75 0 0 0-.75.75v2a.75.75 0 0 0 .75.75.75.75 0 0 0 .75-.75v-2a.75.75 0 0 0-.75-.75M18.012 21.441a.75.75 0 0 0-1.059.055l-.01.012a.75.75 0 0 0 .055 1.058.75.75 0 0 0 1.059-.054l.01-.012a.75.75 0 0 0-.055-1.059M12 2.25c-1.51 0-2.75 1.24-2.75 2.75a.75.75 0 0 0 .75.75.75.75 0 0 0 .75-.75c0-.7.55-1.25 1.25-1.25s1.25.55 1.25 1.25a.75.75 0 0 0 .75.75.75.75 0 0 0 .75-.75c0-1.51-1.24-2.75-2.75-2.75" style="color:#000;fill:currentColor;stroke-linecap:round;stroke-linejoin:round;-inkscape-stroke:none"/>
</svg>
