<svg xmlns="http://www.w3.org/2000/svg" width="24" height="24" fill="none" stroke-width="1.5" viewBox="0 0 24 24">
    <path d="M2.25 10v9c0 1.51 1.24 2.75 2.75 2.75h14c1.51 0 2.75-1.24 2.75-2.75v-9h-1.5v9c0 .7-.55 1.25-1.25 1.25H5c-.7 0-1.25-.55-1.25-1.25v-9z" style="color:#000;fill:currentColor;-inkscape-stroke:none"/>
    <path d="M10.834 12.25c-1.51 0-2.75 1.24-2.75 2.75v6h1.5v-6c0-.7.55-1.25 1.25-1.25h2c.7 0 1.25.55 1.25 1.25v6h1.5v-6c0-1.51-1.24-2.75-2.75-2.75z" style="color:#000;fill:currentColor;stroke-miterlimit:16;-inkscape-stroke:none"/>
    <path d="m14.686 2.25.543 6.516c.034.418.266.81.64 1.033.41.244 1.172.69 1.91.918 1.26.388 2.772.232 3.658.123.798-.098 1.318-.928 1.102-1.682l-1.693-5.93a1.357 1.357 0 0 0-1.3-.978Zm1.63 1.5h3.118l1.6 5.596c-.83.086-2.099.157-2.813-.063-.43-.132-1.12-.508-1.506-.734z" style="color:#000;fill:currentColor;-inkscape-stroke:none"/>
    <path d="m7.81 2.25-.527 6.326c-.041.497.2.996.645 1.258.423.25 1.147.666 1.851.883 1.585.487 2.857.487 4.442 0 .704-.217 1.428-.633 1.851-.883.444-.262.686-.76.645-1.258l-.528-6.326Zm1.38 1.5h5.62l.403 4.84c-.396.228-1.03.57-1.434.693-1.401.432-2.157.432-3.558 0-.404-.124-1.038-.465-1.434-.693Z" style="color:#000;fill:currentColor;-inkscape-stroke:none"/>
    <path d="M4.453 2.25c-.6 0-1.134.402-1.299.979l-1.693 5.93c-.216.753.304 1.583 1.102 1.68.886.11 2.397.266 3.658-.122.738-.227 1.5-.674 1.91-.918.374-.223.606-.615.64-1.033l.543-6.516Zm.113 1.5h3.118l-.399 4.799c-.386.226-1.077.602-1.506.734-.714.22-1.984.15-2.812.063z" style="color:#000;fill:currentColor;-inkscape-stroke:none"/>
</svg>
