<svg xmlns="http://www.w3.org/2000/svg" width="24" height="24" fill="none" stroke-width="1.5" viewBox="0 0 24 24">
    <path d="M3.658 4.25c-.782 0-1.417.693-1.345 1.473l.583 6.345.592 6.455a1.36 1.36 0 0 0 1.346 1.227h4.15c.59 0 1.119-.39 1.291-.955L12 13.16l1.725 5.635c.172.564.7.955 1.29.955h4.151a1.36 1.36 0 0 0 1.346-1.227l1.175-12.8a1.364 1.364 0 0 0-1.345-1.473Zm.164 1.5h16.356l-1.149 12.5h-3.904l-1.834-5.996A1.38 1.38 0 0 0 12 11.299a1.38 1.38 0 0 0-1.291.955L8.875 18.25H4.971l-.58-6.318Z" style="color:#000;fill:currentColor;-inkscape-stroke:none"/>
    <path d="M6.75 5v2.5c0 .7-.55 1.25-1.25 1.25H4v1.5h1.5c1.51 0 2.75-1.24 2.75-2.75V5ZM15.75 5v2.5c0 1.51 1.24 2.75 2.75 2.75h2v-1.5h-2c-.7 0-1.25-.55-1.25-1.25V5Z" style="color:#000;fill:currentColor;-inkscape-stroke:none"/>
</svg>
