<svg xmlns="http://www.w3.org/2000/svg" width="24" height="24" fill="none" stroke-width="1.5" viewBox="0 0 24 24">
    <path d="M3.6 2.25A1.36 1.36 0 0 0 2.25 3.6v16.8c0 .737.613 1.35 1.35 1.35h16.8a1.36 1.36 0 0 0 1.35-1.35V3.6a1.36 1.36 0 0 0-1.35-1.35Zm.15 1.5h16.5v16.5H3.75Z" style="color:#000;fill:currentColor;stroke-linecap:round;stroke-linejoin:round;-inkscape-stroke:none"/>
    <path d="M10.076 7.275a.75.75 0 0 0-.75.75.75.75 0 0 0 .75.75h3.137l-2.254 2.256c-1.414 1.414-1.482 3.052-1.11 4.17.373 1.118 1.11 1.84 1.11 1.84a.75.75 0 0 0 1.06 0 .75.75 0 0 0 0-1.06s-.5-.516-.746-1.254c-.246-.739-.314-1.575.747-2.635l2.255-2.258v3.14a.75.75 0 0 0 .75.75.75.75 0 0 0 .75-.75V8.026a.75.75 0 0 0-.056-.287.75.75 0 0 0-.164-.244.75.75 0 0 0-.242-.162.75.75 0 0 0-.288-.057Z" style="color:#000;fill:currentColor;stroke-linecap:round;stroke-linejoin:round;-inkscape-stroke:none"/>
</svg>
