<svg xmlns="http://www.w3.org/2000/svg" width="24" height="24" fill="none" stroke-width="1.5" viewBox="0 0 24 24">
    <path d="M22 6.25c-1.5 0-3.715-.012-5.87.729-2.154.74-4.26 2.308-5.335 5.265-.938 2.58-2.363 3.75-3.943 4.371S3.5 17.25 2 17.25a.75.75 0 0 0-.75.75.75.75 0 0 0 .75.75c1.5 0 3.479.014 5.398-.74 1.92-.754 3.745-2.334 4.807-5.254.925-2.543 2.569-3.725 4.414-4.36C18.465 7.762 20.5 7.75 22 7.75a.75.75 0 0 0 .75-.75.75.75 0 0 0-.75-.75" style="color:#000;fill:currentColor;stroke-linecap:round;stroke-linejoin:round;-inkscape-stroke:none"/>
    <path d="M19.469 4.469a.75.75 0 0 0 0 1.062L20.937 7 19.47 8.469a.75.75 0 0 0 0 1.062.75.75 0 0 0 1.062 0l2-2a.75.75 0 0 0 0-1.062l-2-2a.75.75 0 0 0-1.062 0M2 6.25a.75.75 0 0 0-.75.75.75.75 0 0 0 .75.75c1.5 0 3.271.014 4.852.635 1.58.62 3.005 1.79 3.943 4.37 1.075 2.958 3.181 4.526 5.336 5.266 2.154.741 4.369.729 5.869.729a.75.75 0 0 0 .75-.75.75.75 0 0 0-.75-.75c-1.5 0-3.535-.012-5.38-.646-1.846-.635-3.49-1.817-4.415-4.36-1.062-2.92-2.887-4.5-4.807-5.254S3.5 6.25 2 6.25" style="color:#000;fill:currentColor;stroke-linecap:round;stroke-linejoin:round;-inkscape-stroke:none"/>
    <path d="M20 15.25a.75.75 0 0 0-.531.219.75.75 0 0 0 0 1.062L20.937 18l-1.468 1.469a.75.75 0 0 0 0 1.062.75.75 0 0 0 1.062 0l2-2a.75.75 0 0 0 0-1.062l-2-2A.75.75 0 0 0 20 15.25" style="color:#000;fill:currentColor;stroke-linecap:round;stroke-linejoin:round;-inkscape-stroke:none"/>
</svg>
