<svg xmlns="http://www.w3.org/2000/svg" width="24" height="24" fill="none" stroke-width="1.5" viewBox="0 0 24 24">
    <path d="M5 2.25C3.49 2.25 2.25 3.49 2.25 5v14c0 1.51 1.24 2.75 2.75 2.75h14c1.51 0 2.75-1.24 2.75-2.75V5c0-1.51-1.24-2.75-2.75-2.75Zm0 1.5h14c.7 0 1.25.55 1.25 1.25v14c0 .7-.55 1.25-1.25 1.25H5c-.7 0-1.25-.55-1.25-1.25V5c0-.7.55-1.25 1.25-1.25" style="color:#000;fill:currentColor;stroke-linecap:round;stroke-linejoin:round;-inkscape-stroke:none"/>
    <path d="M7.2 9.252a.75.75 0 0 0-.514.254l-1.75 2a.75.75 0 0 0 0 .988l1.75 2a.75.75 0 0 0 1.058.07.75.75 0 0 0 .07-1.058L6.496 12l1.318-1.506a.75.75 0 0 0-.07-1.058.75.75 0 0 0-.545-.184M9.5 2.25a.75.75 0 0 0-.75.75v18a.75.75 0 0 0 .75.75.75.75 0 0 0 .75-.75V3a.75.75 0 0 0-.75-.75" style="color:#000;fill:currentColor;stroke-linecap:round;stroke-linejoin:round;-inkscape-stroke:none"/>
</svg>
