<svg xmlns="http://www.w3.org/2000/svg" width="24" height="24" fill="none" stroke-width="1.5" viewBox="0 0 24 24">
    <path d="M4 3.25a.75.75 0 0 0-.75.75.75.75 0 0 0 .75.75h15.25V7a.75.75 0 0 0 .75.75.75.75 0 0 0 .75-.75V4a.75.75 0 0 0-.75-.75h-8zM20 16.25a.75.75 0 0 0-.75.75v2.25H4a.75.75 0 0 0-.75.75.75.75 0 0 0 .75.75h16a.75.75 0 0 0 .75-.75v-3a.75.75 0 0 0-.75-.75" style="color:#000;fill:currentColor;stroke-linecap:round;stroke-linejoin:round;-inkscape-stroke:none"/>
    <path d="M4 3.25a.75.75 0 0 0-.531.219.75.75 0 0 0 0 1.062L10.938 12l-7.47 7.469a.75.75 0 0 0 0 1.062.75.75 0 0 0 1.063 0l8-8a.75.75 0 0 0 0-1.062l-8-8A.75.75 0 0 0 4 3.25" style="color:#000;fill:currentColor;stroke-linecap:round;stroke-linejoin:round;-inkscape-stroke:none"/>
</svg>
