<svg xmlns="http://www.w3.org/2000/svg" width="24" height="24" fill="none" stroke-width="1.5" viewBox="0 0 24 24">
    <path d="M4.72 18.303a.75.75 0 0 0-.41.402.75.75 0 0 0 .395.984l2.332 1a.8.8 0 0 0 .297.061h9.332a.8.8 0 0 0 .297-.06l2.332-1a.75.75 0 0 0 .394-.985.75.75 0 0 0-.984-.394l-2.191.939H7.486l-2.191-.94a.75.75 0 0 0-.574-.007M7.97 21.25a.75.75 0 0 0-.517.246l-.01.012a.75.75 0 0 0 .055 1.058.75.75 0 0 0 1.059-.054l.01-.012a.75.75 0 0 0-.055-1.059.75.75 0 0 0-.541-.191M16.512 21.441a.75.75 0 0 0-1.059.055l-.01.012a.75.75 0 0 0 .055 1.058.75.75 0 0 0 1.059-.054l.01-.012a.75.75 0 0 0-.055-1.059M11.498 5.236c-.588 0-1.213.116-1.834.426l-3 1.5a.75.75 0 0 0-.334 1.006.75.75 0 0 0 1.006.336l3-1.5c.85-.425 1.752-.23 2.467.039L9.52 9.43a.75.75 0 0 0-.033 1.187l3.762 3.072v3.645a.75.75 0 0 0 .75.75.75.75 0 0 0 .75-.75v-4a.75.75 0 0 0-.275-.582L11.19 10.07l3.52-2.562a.75.75 0 0 0-.014-1.225s-1.434-1.047-3.199-1.047" style="color:#000;fill:currentColor;stroke-linecap:round;stroke-linejoin:round;-inkscape-stroke:none"/>
    <path d="M9.695 12.61a.75.75 0 0 0-.562.11l-1.051.702H5a.75.75 0 0 0-.75.75.75.75 0 0 0 .75.75h3.309a.75.75 0 0 0 .416-.127l1.24-.826a.75.75 0 0 0 .207-1.041.75.75 0 0 0-.477-.319M15.166 8.459a.75.75 0 0 0-.75.75.75.75 0 0 0 .75.75h2.72a.75.75 0 0 0 .75-.75.75.75 0 0 0-.75-.75zM17 1.25c-1.51 0-2.75 1.24-2.75 2.75S15.49 6.75 17 6.75 19.75 5.51 19.75 4 18.51 1.25 17 1.25m0 1.5c.7 0 1.25.55 1.25 1.25S17.7 5.25 17 5.25 15.75 4.7 15.75 4 16.3 2.75 17 2.75" style="color:#000;fill:currentColor;stroke-linecap:round;stroke-linejoin:round;-inkscape-stroke:none"/>
</svg>
