<svg xmlns="http://www.w3.org/2000/svg" width="24" height="24" fill="none" stroke-width="1.5" viewBox="0 0 24 24">
    <path d="M6.5 12.25a2.26 2.26 0 0 0-2.25 2.25 2.26 2.26 0 0 0 2.25 2.25 2.26 2.26 0 0 0 2.25-2.25 2.26 2.26 0 0 0-2.25-2.25m0 1.5c.423 0 .75.327.75.75s-.327.75-.75.75a.74.74 0 0 1-.75-.75c0-.423.327-.75.75-.75M2.215 8.281a.75.75 0 0 0-.934.504.75.75 0 0 0 .504.934l3.332 1a.8.8 0 0 0 .217.031h13.332a.8.8 0 0 0 .217-.031l3.332-1a.75.75 0 0 0 .504-.934.75.75 0 0 0-.934-.504l-3.228.969H5.443ZM17.5 12.25a2.26 2.26 0 0 0-2.25 2.25 2.26 2.26 0 0 0 2.25 2.25 2.26 2.26 0 0 0 2.25-2.25 2.26 2.26 0 0 0-2.25-2.25m0 1.5c.423 0 .75.327.75.75s-.327.75-.75.75a.74.74 0 0 1-.75-.75c0-.423.327-.75.75-.75" style="color:#000;fill:currentColor;stroke-linecap:round;stroke-linejoin:round;-inkscape-stroke:none"/>
</svg>
