<svg xmlns="http://www.w3.org/2000/svg" width="24" height="24" fill="none" stroke-width="1.5" viewBox="0 0 24 24">
    <path d="M6 6.25a.75.75 0 0 0-.75.75v10a.75.75 0 0 0 .75.75.75.75 0 0 0 .75-.75V7A.75.75 0 0 0 6 6.25M17.975 4.553c-.441-.214-.987-.21-1.41.125a.75.75 0 0 0-.003 0L8.631 10.94c-.669.53-.669 1.588 0 2.118l7.932 6.263a.75.75 0 0 0 .002 0c.846.668 2.185.018 2.185-1.06V5.738c0-.539-.335-.972-.775-1.185m-.725 1.494v11.906L9.709 12Z" style="color:#000;fill:currentColor;stroke-linecap:round;stroke-linejoin:round;-inkscape-stroke:none"/>
</svg>
