<svg xmlns="http://www.w3.org/2000/svg" width="24" height="24" fill="none" stroke-width="1.5" viewBox="0 0 24 24">
    <path d="M7.447 2.25c-.593 0-1.122.395-1.293.963l-2.64 8.799c-.254.846.409 1.738 1.293 1.738h14.386c.884 0 1.547-.892 1.293-1.738l-2.64-8.8c-.17-.567-.7-.962-1.293-.962Zm.11 1.5h8.886l2.55 8.5H5.007ZM12 14.25a.75.75 0 0 0-.75.75v2a.75.75 0 0 0 .75.75.75.75 0 0 0 .75-.75v-2a.75.75 0 0 0-.75-.75" style="color:#000;fill:currentColor;stroke-linecap:round;stroke-linejoin:round;-inkscape-stroke:none"/>
    <path d="M12 16.25c-1.702 0-2.909.694-3.62 1.559-.71.864-.961 1.84-1.064 2.476-.125.779.547 1.465 1.284 1.465h6.8c.737 0 1.409-.687 1.284-1.465-.103-.637-.355-1.612-1.065-2.476-.71-.865-1.917-1.559-3.619-1.559m0 1.5c1.324 0 2 .45 2.459 1.01.388.472.526 1.03.627 1.49H8.914c.101-.46.239-1.018.627-1.49.46-.56 1.135-1.01 2.459-1.01" style="color:#000;fill:currentColor;stroke-linecap:round;stroke-linejoin:round;-inkscape-stroke:none"/>
</svg>
