<svg xmlns="http://www.w3.org/2000/svg" width="24" height="24" fill="none" stroke-width="1.5" viewBox="0 0 24 24">
    <path d="M7.447 2.25c-.593 0-1.122.395-1.293.963l-2.64 8.799c-.254.846.409 1.738 1.293 1.738h14.386c.884 0 1.547-.892 1.293-1.738l-2.64-8.8c-.17-.567-.7-.962-1.293-.962Zm.11 1.5h8.886l2.55 8.5H5.007Z" style="color:#000;fill:currentColor;stroke-linecap:round;stroke-linejoin:round;-inkscape-stroke:none"/>
    <path d="M8 12.25a.75.75 0 0 0-.75.75v2a.75.75 0 0 0 .75.75.75.75 0 0 0 .75-.75v-2a.75.75 0 0 0-.75-.75M12 14.25a.75.75 0 0 0-.75.75v5.25H8a.75.75 0 0 0-.75.75.75.75 0 0 0 .75.75h8a.75.75 0 0 0 .75-.75.75.75 0 0 0-.75-.75h-3.25V15a.75.75 0 0 0-.75-.75" style="color:#000;fill:currentColor;stroke-linecap:round;stroke-linejoin:round;-inkscape-stroke:none"/>
</svg>
