<svg xmlns="http://www.w3.org/2000/svg" width="24" height="24" fill="none" stroke-width="1.5" viewBox="0 0 24 24">
    <path d="M11.97 15.25a.75.75 0 0 0-.517.246l-.01.012a.75.75 0 0 0 .055 1.058.75.75 0 0 0 1.059-.054l.01-.012a.75.75 0 0 0-.055-1.059.75.75 0 0 0-.541-.191" style="color:#000;fill:currentColor;stroke-linecap:round;stroke-linejoin:round;-inkscape-stroke:none"/>
    <path d="M7.6 3.25A1.36 1.36 0 0 0 6.25 4.6v14.8c0 .737.613 1.35 1.35 1.35h8.8a1.36 1.36 0 0 0 1.35-1.35V4.6a1.36 1.36 0 0 0-1.35-1.35Zm.15 1.5h8.5v14.5h-8.5z" style="color:#000;fill:currentColor;-inkscape-stroke:none"/>
</svg>
