<svg xmlns="http://www.w3.org/2000/svg" width="24" height="24" fill="none" stroke-width="1.5" viewBox="0 0 24 24">
    <path d="M18 18.25a.75.75 0 0 0-.75.75v3a.75.75 0 0 0 .75.75.75.75 0 0 0 .75-.75v-3a.75.75 0 0 0-.75-.75M13.5 5.25a3.26 3.26 0 0 0-3.25 3.25V11A3.76 3.76 0 0 0 14 14.75h1c.875 0 1.46.22 1.8.475s.45.525.45.775a.75.75 0 0 0 .75.75.75.75 0 0 0 .75-.75c0-.75-.39-1.48-1.05-1.975s-1.575-.775-2.7-.775h-1A2.24 2.24 0 0 1 11.75 11V8.5c0-.975.775-1.75 1.75-1.75h.5a.75.75 0 0 0 .75-.75.75.75 0 0 0-.75-.75ZM18 1.25a.75.75 0 0 0-.75.75.75.75 0 0 0 .75.75c.583 0 1.452.216 2.105.719.654.502 1.145 1.24 1.145 2.531 0 1.333-.37 1.903-.95 2.338-.579.434-1.482.683-2.482.933a.75.75 0 0 0 0 1.458c.943.235 1.757.554 2.362 1.26.604.705 1.07 1.872 1.07 4.011a.75.75 0 0 0 .75.75.75.75 0 0 0 .75-.75c0-2.361-.534-3.944-1.43-4.988-.387-.452-.844-.748-1.306-1.006.4-.162.823-.198 1.185-.469.92-.69 1.551-1.87 1.551-3.537 0-1.708-.759-2.971-1.73-3.719A5.03 5.03 0 0 0 18 1.25M22 18.25a.75.75 0 0 0-.75.75v3a.75.75 0 0 0 .75.75.75.75 0 0 0 .75-.75v-3a.75.75 0 0 0-.75-.75" style="color:#000;fill:currentColor;stroke-linecap:round;stroke-linejoin:round;-inkscape-stroke:none"/>
    <path d="M2.6 18.25c-.735 0-1.35.615-1.35 1.35v1.8c0 .735.615 1.35 1.35 1.35h10.8c.735 0 1.35-.615 1.35-1.35v-1.8c0-.735-.615-1.35-1.35-1.35Zm.15 1.5h10.5v1.5H2.75Z" style="color:#000;fill:currentColor;-inkscape-stroke:none"/>
</svg>
