<svg xmlns="http://www.w3.org/2000/svg" width="24" height="24" fill="none" stroke-width="1.5" viewBox="0 0 24 24">
    <path d="M11 6.25A4.76 4.76 0 0 0 6.25 11v9.4c0 .737.613 1.35 1.35 1.35h8.8a1.36 1.36 0 0 0 1.35-1.35V11A4.76 4.76 0 0 0 13 6.25Zm0 1.5h2A3.24 3.24 0 0 1 16.25 11v9.25h-8.5V11A3.24 3.24 0 0 1 11 7.75" style="color:#000;fill:currentColor;stroke-linecap:round;-inkscape-stroke:none"/>
    <path d="M7 12.25a.75.75 0 0 0-.75.75.75.75 0 0 0 .75.75h10a.75.75 0 0 0 .75-.75.75.75 0 0 0-.75-.75ZM9 2.25a.75.75 0 0 0-.75.75.75.75 0 0 0 .75.75h2.25V7a.75.75 0 0 0 .75.75.75.75 0 0 0 .75-.75V3.75H13a.75.75 0 0 0 .75-.75.75.75 0 0 0-.75-.75h-1z" style="color:#000;fill:currentColor;stroke-linecap:round;-inkscape-stroke:none"/>
</svg>
