<svg xmlns="http://www.w3.org/2000/svg" width="24" height="24" fill="none" stroke-width="1.5" viewBox="0 0 24 24">
    <path d="M12 1.25C6.072 1.25 1.25 6.072 1.25 12c0 .267.133.49.152.752a.75.75 0 0 0 .121.781.75.75 0 0 0 .041.016c.183 1.203.483 2.33 1.03 3.369a.75.75 0 0 0-.002.002.75.75 0 0 0 .5.734c1.544 2.42 3.945 4.093 6.851 4.68a.75.75 0 0 0 .928.205.75.75 0 0 0 .016-.014c.384.042.718.225 1.113.225.399 0 .737-.184 1.125-.227a.75.75 0 0 0 .004.016.75.75 0 0 0 .928-.205c2.892-.584 5.282-2.242 6.828-4.643a.75.75 0 0 0 .523-.771.75.75 0 0 0-.002-.002c.547-1.038.847-2.166 1.03-3.37a.75.75 0 0 0 .04-.015.75.75 0 0 0 .14-.863c.014-.234.134-.433.134-.67 0-2.553-1.021-4.804-2.514-6.65a.75.75 0 0 0-.425-.633 10.637 10.637 0 0 0-4.043-2.705.75.75 0 0 0-.532-.108C14.2 1.57 13.147 1.25 12 1.25m0 1.5c.515 0 .958.213 1.45.293L12 4.078l-1.45-1.035c.492-.08.935-.293 1.45-.293m-3.457.697 2.707 1.938v2.232l-3.137 2.28-1.97-.924-.811-3.336a9.165 9.165 0 0 1 3.211-2.19m6.914 0a9.165 9.165 0 0 1 3.211 2.19l-.81 3.336-1.971.923-3.137-2.279V5.385ZM4.199 7.322l.473 1.95-1.725 1.75a8.992 8.992 0 0 1 1.252-3.7m15.602 0a8.992 8.992 0 0 1 1.252 3.7l-1.725-1.75ZM12 8.928l2.924 2.123-1.117 3.435h-3.614l-1.117-3.435Zm-6.338 1.476 1.92.9 1.234 3.801-1.166 1.602-3.697-.396c-.524-.975-.83-2.036-.976-3.182Zm12.676 0 2.685 2.725c-.145 1.146-.452 2.207-.976 3.182l-3.697.396-1.166-1.602 1.234-3.8zm-8.307 5.582h3.938l1.138 1.563-1.978 3.472c-.387.05-.728.229-1.129.229-.4 0-.742-.18-1.129-.229L8.893 17.55Zm-4.984 1.951 2.49.268 1.381 2.424c-1.538-.548-2.833-1.475-3.871-2.692m13.906 0c-1.038 1.217-2.333 2.144-3.871 2.692l1.38-2.424z" style="color:#000;fill:currentColor;stroke-linecap:round;stroke-linejoin:round;-inkscape-stroke:none"/>
</svg>
