<svg xmlns="http://www.w3.org/2000/svg" width="24" height="24" fill="none" stroke-width="1.5" viewBox="0 0 24 24">
    <path d="M2 13.25a.75.75 0 0 0-.75.75.75.75 0 0 0 .75.75h8a.75.75 0 0 0 .75-.75.75.75 0 0 0-.75-.75ZM2 9.25a.75.75 0 0 0-.75.75.75.75 0 0 0 .75.75h6a.75.75 0 0 0 .75-.75.75.75 0 0 0-.75-.75ZM2 5.25a.75.75 0 0 0-.75.75.75.75 0 0 0 .75.75h4A.75.75 0 0 0 6.75 6 .75.75 0 0 0 6 5.25ZM2 17.25a.75.75 0 0 0-.75.75.75.75 0 0 0 .75.75h10a.75.75 0 0 0 .75-.75.75.75 0 0 0-.75-.75ZM19 3.25a.75.75 0 0 0-.531.219l-3 3a.75.75 0 0 0 0 1.062.75.75 0 0 0 1.062 0l1.719-1.718v12.375l-1.719-1.72a.75.75 0 0 0-1.062 0 .75.75 0 0 0 0 1.063l3 3a.75.75 0 0 0 .531.219.75.75 0 0 0 .531-.219l3-3a.75.75 0 0 0 0-1.062.75.75 0 0 0-1.062 0l-1.719 1.718V5.813l1.719 1.72a.75.75 0 0 0 1.062 0 .75.75 0 0 0 0-1.063l-3-3A.75.75 0 0 0 19 3.25" style="color:#000;fill:currentColor;stroke-linecap:round;stroke-linejoin:round;-inkscape-stroke:none"/>
</svg>
