<svg xmlns="http://www.w3.org/2000/svg" width="24" height="24" fill="none" stroke-width="1.5" viewBox="0 0 24 24">
    <path d="M19.5 6.75a.75.75 0 0 0-.531.219.75.75 0 0 0 0 1.062S20.25 9.3 20.25 11.5s-1.281 3.469-1.281 3.469a.75.75 0 0 0 0 1.062.75.75 0 0 0 1.062 0S21.75 14.3 21.75 11.5s-1.719-4.531-1.719-4.531a.75.75 0 0 0-.531-.219" style="color:#000;fill:currentColor;stroke-linecap:round;stroke-linejoin:round;-inkscape-stroke:none"/>
    <path d="M13.938 3.121c-.308.004-.619.09-.9.275l-6 3.956a.246.246 0 0 1-.138.04H4c-1.51 0-2.75 1.24-2.75 2.75v3.715c0 1.51 1.24 2.75 2.75 2.75h2.9c.05 0 .096.014.137.041l6 3.956c1.13.744 2.713-.11 2.713-1.461V4.857c0-1.014-.89-1.747-1.812-1.736m-.075 1.527c.201-.132.387-.031.387.21v14.285c0 .24-.186.34-.387.209l-6-3.956a1.75 1.75 0 0 0-.963-.289H4c-.7 0-1.25-.55-1.25-1.25v-3.714c0-.7.55-1.25 1.25-1.25h2.9c.343 0 .677-.101.963-.29z" style="color:#000;fill:currentColor;-inkscape-stroke:none"/>
</svg>
