<svg xmlns="http://www.w3.org/2000/svg" width="24" height="24" fill="none" stroke-width="1.5" viewBox="0 0 24 24">
    <path d="M15.438 3.121c-.308.004-.619.09-.9.275l-6 3.956a.25.25 0 0 1-.138.04H5.5c-1.51 0-2.75 1.24-2.75 2.75v3.715c0 1.51 1.24 2.75 2.75 2.75h2.9q.075 0 .137.041l6 3.956c1.13.744 2.713-.11 2.713-1.461V4.857c0-1.014-.89-1.747-1.812-1.736m-.075 1.527c.201-.132.387-.031.387.21v14.285c0 .24-.186.34-.387.209l-6-3.956a1.75 1.75 0 0 0-.963-.289H5.5c-.7 0-1.25-.55-1.25-1.25v-3.714c0-.7.55-1.25 1.25-1.25h2.9c.343 0 .677-.101.963-.29z" style="color:#000;fill:currentColor;-inkscape-stroke:none"/>
    <path d="M20.5 8.25a.75.75 0 0 0-.75.75v6a.75.75 0 0 0 .75.75.75.75 0 0 0 .75-.75V9a.75.75 0 0 0-.75-.75" style="color:#000;fill:currentColor;stroke-linecap:round;-inkscape-stroke:none"/>
</svg>
