<svg xmlns="http://www.w3.org/2000/svg" width="24" height="24" fill="none" stroke-width="1.5" viewBox="0 0 24 24">
    <path d="M11.469 1.469C8.986 3.95 6.735 5.95 5.059 7.885 3.382 9.819 2.25 11.75 2.25 14c0 1.394.436 2.541 1.195 3.328.76.787 1.806 1.184 2.903 1.223 1.96.069 4.051-1.089 5.652-3.045 1.6 1.956 3.693 3.114 5.652 3.045 1.097-.039 2.143-.436 2.903-1.223.759-.787 1.195-1.934 1.195-3.328 0-2.25-1.132-4.18-2.809-6.115-1.676-1.935-3.927-3.934-6.41-6.416a.75.75 0 0 0-1.062 0M12 3.063c2.262 2.23 4.367 4.139 5.809 5.802C19.382 10.681 20.25 12.25 20.25 14c0 1.092-.314 1.81-.773 2.287-.46.476-1.101.738-1.88.766-1.556.055-3.6-.912-4.972-2.969a.75.75 0 0 0-1.25 0c-1.372 2.057-3.416 3.024-4.973 2.969-.778-.028-1.419-.29-1.879-.766-.46-.476-.773-1.195-.773-2.287 0-1.75.868-3.32 2.441-5.135C7.633 7.202 9.738 5.292 12 3.063" style="color:#000;fill:currentColor;stroke-linecap:round;stroke-linejoin:round;-inkscape-stroke:none"/>
    <path d="M12 14.453c-.473 0-.947.228-1.191.686v.002l-3 5.625c-.464.87.205 1.984 1.191 1.984h6c.985 0 1.653-1.115 1.191-1.984l-3-5.627c-.244-.458-.718-.686-1.191-.686m0 1.64 2.75 5.157h-5.5z" style="color:#000;fill:currentColor;stroke-linecap:round;-inkscape-stroke:none"/>
</svg>
