<svg xmlns="http://www.w3.org/2000/svg" width="24" height="24" fill="none" stroke-width="1.5" viewBox="0 0 24 24">
    <path d="M12 1.25C6.072 1.25 1.25 6.072 1.25 12S6.072 22.75 12 22.75 22.75 17.928 22.75 12 17.928 1.25 12 1.25m0 1.5A9.24 9.24 0 0 1 21.25 12 9.24 9.24 0 0 1 12 21.25 9.24 9.24 0 0 1 2.75 12 9.24 9.24 0 0 1 12 2.75" style="color:#000;fill:currentColor;stroke-linecap:round;stroke-linejoin:round;-inkscape-stroke:none"/>
    <path d="M12 1.25c-1.995 0-3.714 1.339-4.887 3.293S5.25 9.117 5.25 12s.69 5.503 1.863 7.457S10.005 22.75 12 22.75a.75.75 0 0 0 .75-.75.75.75 0 0 0-.75-.75c-1.32 0-2.6-.9-3.6-2.564C7.401 17.02 6.75 14.64 6.75 12s.651-5.02 1.65-6.686C9.4 3.65 10.68 2.75 12 2.75a.75.75 0 0 0 .75-.75.75.75 0 0 0-.75-.75" style="color:#000;fill:currentColor;stroke-linecap:round;stroke-linejoin:round;-inkscape-stroke:none"/>
</svg>
