<svg xmlns="http://www.w3.org/2000/svg" width="24" height="24" fill="none" stroke-width="1.5" viewBox="0 0 24 24">
    <path d="M11.5 2.25c-2.63 0-4.7.297-6.2.877-.749.29-1.363.651-1.818 1.129-.454.477-.732 1.099-.732 1.748s.28 1.27.734 1.746c.455.477 1.067.84 1.817 1.129 1.499.578 3.57.871 6.199.871 3.607 0 5.767-.775 7.041-1.623.637-.424 1.048-.865 1.3-1.215.254-.35.37-.67.37-.67a.75.75 0 0 0 0-.474s-.116-.322-.37-.672c-.252-.351-.663-.792-1.3-1.217-1.274-.85-3.434-1.629-7.041-1.629m0 1.5c3.393 0 5.233.724 6.209 1.375.488.326.765.635.918.848.018.024.004.01.018.03-.014.02-.001.007-.018.03-.153.212-.43.52-.918.844-.976.65-2.816 1.373-6.209 1.373-2.513 0-4.443-.303-5.658-.771-.608-.235-1.03-.51-1.272-.764s-.32-.458-.32-.711c0-.253.078-.458.32-.713.243-.255.664-.53 1.272-.766 1.215-.47 3.145-.775 5.658-.775" style="color:#000;fill:currentColor;stroke-linecap:round;stroke-linejoin:round;-inkscape-stroke:none"/>
    <path d="M11.5 8.25c-2.63 0-4.7.297-6.2.877-.749.29-1.363.651-1.818 1.129-.454.477-.732 1.099-.732 1.748s.28 1.27.734 1.746c.455.477 1.067.84 1.817 1.129 1.499.578 3.57.871 6.199.871 3.607 0 5.767-.775 7.041-1.623.637-.424 1.048-.865 1.3-1.215.254-.35.37-.67.37-.67a.75.75 0 0 0 0-.474s-.116-.322-.37-.672c-.252-.351-.663-.792-1.3-1.217-1.274-.85-3.434-1.629-7.041-1.629m0 1.5c3.393 0 5.233.724 6.209 1.375.488.326.765.635.918.848.018.024.004.01.018.03-.014.02-.001.007-.018.03-.153.212-.43.52-.918.844-.976.65-2.816 1.373-6.209 1.373-2.513 0-4.443-.303-5.658-.771-.608-.235-1.03-.51-1.272-.764s-.32-.458-.32-.711c0-.253.078-.458.32-.713.243-.255.664-.53 1.272-.766 1.215-.47 3.145-.775 5.658-.775" style="color:#000;fill:currentColor;stroke-linecap:round;stroke-linejoin:round;-inkscape-stroke:none"/>
    <path d="M11.5 14.25c-2.63 0-4.7.297-6.2.877-.749.29-1.363.651-1.818 1.129-.454.477-.732 1.099-.732 1.748s.28 1.27.734 1.746c.455.477 1.067.84 1.817 1.129 1.499.578 3.57.871 6.199.871 3.607 0 5.767-.775 7.041-1.623.637-.424 1.048-.865 1.3-1.215.254-.35.37-.67.37-.67a.75.75 0 0 0 0-.474s-.116-.322-.37-.672c-.252-.351-.663-.792-1.3-1.217-1.274-.85-3.434-1.629-7.041-1.629m0 1.5c3.393 0 5.233.724 6.209 1.375.488.326.765.635.918.848.018.024.004.01.018.03-.014.02-.001.007-.018.03-.153.212-.43.52-.918.844-.976.65-2.816 1.373-6.209 1.373-2.513 0-4.443-.303-5.658-.771-.608-.235-1.03-.51-1.272-.764s-.32-.458-.32-.711c0-.253.078-.458.32-.713.243-.255.664-.53 1.272-.766 1.215-.47 3.145-.775 5.658-.775M20.023 5.463a.75.75 0 0 0-1.06.014.75.75 0 0 0 .014 1.06s.149.136.353.541c.204.406.42 1.033.42 1.922s-.216 1.516-.42 1.922c-.204.405-.353.54-.353.54a.75.75 0 0 0-.014 1.061.75.75 0 0 0 1.06.014s.351-.353.647-.941c.296-.589.58-1.46.58-2.596 0-1.136-.284-2.007-.58-2.596a4.011 4.011 0 0 0-.647-.941" style="color:#000;fill:currentColor;stroke-linecap:round;stroke-linejoin:round;-inkscape-stroke:none"/>
    <path d="M20.5 3.25a.75.75 0 0 0-.75.75c0 .98-.658 1.371-.658 1.371a.75.75 0 0 0-.22 1.037.75.75 0 0 0 1.036.22S21.25 5.72 21.25 4a.75.75 0 0 0-.75-.75M20.023 11.463a.75.75 0 0 0-1.06.014.75.75 0 0 0 .014 1.06s.149.136.353.541c.204.406.42 1.033.42 1.922s-.216 1.516-.42 1.922c-.204.405-.353.54-.353.54a.75.75 0 0 0-.014 1.061.75.75 0 0 0 1.06.014s.351-.353.647-.941c.296-.589.58-1.46.58-2.596 0-1.136-.284-2.007-.58-2.596a4.011 4.011 0 0 0-.647-.941" style="color:#000;fill:currentColor;stroke-linecap:round;stroke-linejoin:round;-inkscape-stroke:none"/>
    <path d="M19.908 17.371a.75.75 0 0 0-1.037.22.75.75 0 0 0 .22 1.038s.659.391.659 1.371a.75.75 0 0 0 .75.75.75.75 0 0 0 .75-.75c0-1.72-1.342-2.629-1.342-2.629" style="color:#000;fill:currentColor;stroke-linecap:round;stroke-linejoin:round;-inkscape-stroke:none"/>
</svg>
