<svg xmlns="http://www.w3.org/2000/svg" width="24" height="24" fill="none" stroke-width="1.5" viewBox="0 0 24 24">
    <path d="M4 15.25a.75.75 0 0 0-.75.75v4a.75.75 0 0 0 .75.75h16a.75.75 0 0 0 .75-.75v-4a.75.75 0 0 0-.75-.75Zm.75 1.5h14.5v2.5H4.75ZM2 11.25a.75.75 0 0 0-.75.75.75.75 0 0 0 .75.75h20a.75.75 0 0 0 .75-.75.75.75 0 0 0-.75-.75ZM4 3.25a.75.75 0 0 0-.75.75v3a.75.75 0 0 0 .75.75.75.75 0 0 0 .75-.75V4.75H7A.75.75 0 0 0 7.75 4 .75.75 0 0 0 7 3.25ZM11 3.25a.75.75 0 0 0-.75.75.75.75 0 0 0 .75.75h2a.75.75 0 0 0 .75-.75.75.75 0 0 0-.75-.75ZM17 3.25a.75.75 0 0 0-.75.75.75.75 0 0 0 .75.75h2.25V7a.75.75 0 0 0 .75.75.75.75 0 0 0 .75-.75V4a.75.75 0 0 0-.75-.75Z" style="color:#000;fill:currentColor;stroke-linecap:round;stroke-linejoin:round;-inkscape-stroke:none"/>
</svg>
