<svg xmlns="http://www.w3.org/2000/svg" width="24" height="24" fill="none" stroke-width="1.5" viewBox="0 0 24 24">
    <path d="M18.123 6.76a.75.75 0 0 0-.863.617.75.75 0 0 0 .617.863l.918.153c.717.12 1.173.794 1.016 1.503l-.53 2.377a1.343 1.343 0 0 0-.031.293V17.5c0 1.6-1.267 3.25-3.25 3.25H9.42c-.365 0-.712-.158-.95-.436l-4.548-5.306a.826.826 0 0 1-.018-1.063.818.818 0 0 1 1.278-.027l2.254 2.576A.75.75 0 0 0 8.75 16v-3.5a.75.75 0 0 0-.75-.75.75.75 0 0 0-.75.75v1.504l-.94-1.074c-.946-1.082-2.68-1.045-3.578.078a2.34 2.34 0 0 0 .051 2.974l4.549 5.307c.522.61 1.286.961 2.088.961H16c2.817 0 4.75-2.35 4.75-4.75v-4.92l.525-2.357a2.762 2.762 0 0 0-2.232-3.309Z" style="color:#000;fill:currentColor;stroke-linecap:round;stroke-linejoin:round;-inkscape-stroke:none"/>
    <path d="m8.877 4.26-.791.133a2.762 2.762 0 0 0-2.191 3.466l1.384 4.846a.75.75 0 0 0 .926.516.75.75 0 0 0 .516-.926L7.336 7.447a1.236 1.236 0 0 1 .996-1.576l.791-.13a.75.75 0 0 0 .617-.864.75.75 0 0 0-.863-.617" style="color:#000;fill:currentColor;stroke-linecap:round;stroke-linejoin:round;-inkscape-stroke:none"/>
    <path d="M10.016 1.986a2.28 2.28 0 0 0-1.819 2.81l2.078 7.895a.75.75 0 0 0 .916.534.75.75 0 0 0 .534-.916L9.648 4.416a.752.752 0 0 1 .614-.95.755.755 0 0 1 .865.56l2.148 8.165a.75.75 0 0 0 .916.534.75.75 0 0 0 .534-.916l-2.149-8.164a2.273 2.273 0 0 0-2.56-1.659" style="color:#000;fill:currentColor;stroke-linecap:round;stroke-linejoin:round;-inkscape-stroke:none"/>
    <path d="M17.107 3.508a2.296 2.296 0 0 0-2.62 1.834l-1.223 6.52a.75.75 0 0 0 .597.874.75.75 0 0 0 .875-.597l1.223-6.522a.776.776 0 0 1 .902-.63c.437.072.72.469.647.906l-.246 1.472-.998 4.989a.75.75 0 0 0 .59.882.75.75 0 0 0 .882-.59l1-5a.75.75 0 0 0 .004-.023l.246-1.484a.75.75 0 0 0 .002 0 2.299 2.299 0 0 0-1.88-2.631" style="color:#000;fill:currentColor;stroke-linecap:round;stroke-linejoin:round;-inkscape-stroke:none"/>
</svg>
