<svg xmlns="http://www.w3.org/2000/svg" width="24" height="24" fill="none" stroke-width="1.5" viewBox="0 0 24 24">
    <path d="M9.787 13.998c-1.772.002-2.95.27-2.95.27a.75.75 0 0 0-.57.894.75.75 0 0 0 .895.57s4.288-.933 8.533.954a.75.75 0 0 0 .99-.381.75.75 0 0 0-.38-.99c-2.377-1.057-4.745-1.32-6.518-1.317M10.105 10.867c-2.226.003-3.787.404-3.787.404a.75.75 0 0 0-.547.91.75.75 0 0 0 .91.548s5.754-1.393 10.432 1.414a.75.75 0 0 0 1.03-.256.75.75 0 0 0-.256-1.03c-2.661-1.596-5.555-1.993-7.782-1.99M11.818 7.943c-2.343-.196-4.414.062-5.941.317a.75.75 0 0 0-.617.863.75.75 0 0 0 .863.617c2.947-.49 7.711-.965 12.49 1.903a.75.75 0 0 0 1.03-.256.75.75 0 0 0-.256-1.03c-2.61-1.566-5.226-2.217-7.569-2.414" style="color:#000;fill:currentColor;stroke-linecap:round;stroke-linejoin:round;-inkscape-stroke:none"/>
    <path d="M12 1.25C6.072 1.25 1.25 6.072 1.25 12S6.072 22.75 12 22.75 22.75 17.928 22.75 12 17.928 1.25 12 1.25m0 1.5A9.239 9.239 0 0 1 21.25 12 9.239 9.239 0 0 1 12 21.25 9.239 9.239 0 0 1 2.75 12 9.239 9.239 0 0 1 12 2.75" style="color:#000;fill:currentColor;stroke-linecap:round;stroke-linejoin:round;-inkscape-stroke:none"/>
</svg>
