<svg xmlns="http://www.w3.org/2000/svg" width="24" height="24" fill="none" stroke-width="1.5" viewBox="0 0 24 24">
    <path d="M5 14.25a.75.75 0 0 0-.75.75v6a.75.75 0 0 0 .75.75h14a.75.75 0 0 0 .75-.75v-6a.75.75 0 0 0-.75-.75.75.75 0 0 0-.75.75v5.25H5.75V15a.75.75 0 0 0-.75-.75" style="color:#000;fill:currentColor;stroke-linecap:round;stroke-linejoin:round;-inkscape-stroke:none"/>
    <path d="M8 16.25a.75.75 0 0 0-.75.75.75.75 0 0 0 .75.75h8a.75.75 0 0 0 .75-.75.75.75 0 0 0-.75-.75ZM8.244 12.266a.75.75 0 0 0-.89.578.75.75 0 0 0 .578.89l7.824 1.662a.75.75 0 0 0 .89-.578.75.75 0 0 0-.578-.888zM9.78 8.32a.75.75 0 0 0-.997.364.75.75 0 0 0 .362.996l7.251 3.38a.75.75 0 0 0 .997-.363.75.75 0 0 0-.364-.996zM11.979 4.752a.75.75 0 0 0-.508.266.75.75 0 0 0 .092 1.056l6.128 5.143a.75.75 0 0 0 1.057-.092.75.75 0 0 0-.094-1.057l-6.127-5.142a.75.75 0 0 0-.548-.174M15.2 1.756a.75.75 0 0 0-.554.152.75.75 0 0 0-.128 1.053l4.925 6.305a.75.75 0 0 0 1.053.129.75.75 0 0 0 .129-1.053l-4.926-6.303a.75.75 0 0 0-.5-.283" style="color:#000;fill:currentColor;stroke-linecap:round;stroke-linejoin:round;-inkscape-stroke:none"/>
</svg>
