<svg xmlns="http://www.w3.org/2000/svg" width="24" height="24" fill="none" stroke-width="1.5" viewBox="0 0 24 24">
    <path d="M12 1.78c-.596 0-1.192.296-1.486.89l-.496.998a.75.75 0 0 0 .337 1.006.75.75 0 0 0 1.006-.338l.496-.998c.078-.157.208-.156.286 0a.75.75 0 0 0 1.005.338.75.75 0 0 0 .338-1.006c-.294-.594-.89-.89-1.486-.89M11.652 18.014l-1.572.822a.75.75 0 0 0-.316 1.012.75.75 0 0 0 1.011.316l1.573-.822a.75.75 0 0 0 .316-1.012.75.75 0 0 0-1.012-.316M5.799 18.629a.75.75 0 0 0-.867.613l-.184 1.072c-.225 1.307 1.231 2.358 2.404 1.745L8 21.615a.75.75 0 0 0 .316-1.011.75.75 0 0 0-1.011-.317l-.848.442c-.16.083-.262.01-.232-.16l.185-1.073a.75.75 0 0 0-.611-.867M5.771 13.27a.75.75 0 0 0-.527.226.75.75 0 0 0 .018 1.06l.41.4-.158.917a.75.75 0 0 0 .611.865.75.75 0 0 0 .867-.611l.225-1.309A.75.75 0 0 0 7 14.152l-.695-.672a.75.75 0 0 0-.534-.21M3.781 8.176l-1.111.162c-1.31.19-1.867 1.9-.916 2.822l1.424 1.38a.75.75 0 0 0 1.06-.019.75.75 0 0 0-.017-1.06l-1.424-1.377c-.128-.124-.091-.235.09-.262l1.111-.162a.75.75 0 0 0 .633-.85.75.75 0 0 0-.85-.634M9.725 5.945a.75.75 0 0 0-1.006.34l-.63 1.266-1.196.174a.75.75 0 0 0-.635.85.75.75 0 0 0 .85.634l1.587-.23a.75.75 0 0 0 .565-.409l.803-1.619a.75.75 0 0 0-.338-1.006" style="color:#000;fill:currentColor;stroke-linecap:round;stroke-linejoin:round;-inkscape-stroke:none"/>
    <path d="M12 1.75a.75.75 0 0 0-.75.75v16.178a.75.75 0 0 0 .402.664l5.196 2.717c1.173.613 2.63-.438 2.404-1.745l-.924-5.359 3.918-3.795c.951-.921.394-2.632-.916-2.822l-5.42-.787-2.424-4.881A1.67 1.67 0 0 0 12 1.75m.75 2.81 1.99 4.01a.75.75 0 0 0 .565.409l5.808.843c.181.027.218.138.09.262L17 14.152a.75.75 0 0 0-.217.666l.992 5.75c.03.17-.072.244-.232.16l-4.793-2.503Z" style="color:#000;fill:currentColor;stroke-linecap:round;stroke-linejoin:round;-inkscape-stroke:none"/>
</svg>
