<svg xmlns="http://www.w3.org/2000/svg" width="24" height="24" fill="none" stroke-width="1.5" viewBox="0 0 24 24">
    <path d="M8 7.25a.75.75 0 0 0-.75.75v8a.75.75 0 0 0 .75.75.75.75 0 0 0 .75-.75V8A.75.75 0 0 0 8 7.25M12 10.25a.75.75 0 0 0-.75.75v5a.75.75 0 0 0 .75.75.75.75 0 0 0 .75-.75v-5a.75.75 0 0 0-.75-.75M16 12.25a.75.75 0 0 0-.75.75v3a.75.75 0 0 0 .75.75.75.75 0 0 0 .75-.75v-3a.75.75 0 0 0-.75-.75" style="color:#000;fill:currentColor;stroke-linecap:round;stroke-linejoin:round;-inkscape-stroke:none"/>
    <path d="M3.6 2.25A1.36 1.36 0 0 0 2.25 3.6v16.8c0 .737.613 1.35 1.35 1.35h16.8a1.36 1.36 0 0 0 1.35-1.35V3.6a1.36 1.36 0 0 0-1.35-1.35Zm.15 1.5h16.5v16.5H3.75Z" style="color:#000;fill:currentColor;-inkscape-stroke:none"/>
</svg>
