<svg xmlns="http://www.w3.org/2000/svg" width="24" height="24" fill="none" stroke-width="1.5" viewBox="0 0 24 24">
    <path d="M4 9.25a.75.75 0 0 0-.531.219.75.75 0 0 0 0 1.062l8 8a.75.75 0 0 0 1.062 0L15 16.063l4.469 4.468a.75.75 0 0 0 1.062 0 .75.75 0 0 0 0-1.062l-5-5a.75.75 0 0 0-1.062 0L12 16.938l-7.469-7.47A.75.75 0 0 0 4 9.25M16 3.25a.75.75 0 0 0-.75.75v6.188l-1.719-1.72a.75.75 0 0 0-1.062 0 .75.75 0 0 0 0 1.063l3 3a.75.75 0 0 0 1.062 0l3-3a.75.75 0 0 0 0-1.062.75.75 0 0 0-1.062 0l-1.719 1.719V4a.75.75 0 0 0-.75-.75" style="color:#000;fill:currentColor;stroke-linecap:round;stroke-linejoin:round;-inkscape-stroke:none"/>
</svg>
