<svg xmlns="http://www.w3.org/2000/svg" width="24" height="24" fill="none" stroke-width="1.5" viewBox="0 0 24 24">
    <path d="M19.828 5.27c-4.303 1.012-7.692 2.292-10.156 4.623-2.464 2.33-3.907 5.67-4.418 10.529a.75.75 0 0 0 .668.824.75.75 0 0 0 .824-.668c.489-4.642 1.796-7.551 3.957-9.596s5.272-3.264 9.469-4.252a.75.75 0 0 0 .558-.902.75.75 0 0 0-.902-.558" style="color:#000;fill:currentColor;stroke-linecap:round;stroke-linejoin:round;-inkscape-stroke:none"/>
    <path d="M16.225 3.129a.75.75 0 0 0-.996.363.75.75 0 0 0 .363.996l3.806 1.776-1.775 3.806a.75.75 0 0 0 .363.996.75.75 0 0 0 .996-.36l2.092-4.487a.75.75 0 0 0-.363-.998ZM5 2.25C3.49 2.25 2.25 3.49 2.25 5S3.49 7.75 5 7.75 7.75 6.51 7.75 5 6.51 2.25 5 2.25m0 1.5c.7 0 1.25.55 1.25 1.25S5.7 6.25 5 6.25 3.75 5.7 3.75 5 4.3 3.75 5 3.75M16 15.25a.75.75 0 0 0-.531.219.75.75 0 0 0 0 1.062l1.592 1.59-1.592 1.592a.75.75 0 0 0 0 1.06.75.75 0 0 0 1.062 0l1.59-1.59 1.592 1.59a.75.75 0 0 0 1.06 0 .75.75 0 0 0 0-1.06l-1.59-1.592 1.59-1.59a.75.75 0 0 0 0-1.062.75.75 0 0 0-1.06 0L18.12 17.06l-1.59-1.592A.75.75 0 0 0 16 15.25" style="color:#000;fill:currentColor;stroke-linecap:round;stroke-linejoin:round;-inkscape-stroke:none"/>
</svg>
