<svg xmlns="http://www.w3.org/2000/svg" width="24" height="24" fill="none" stroke-width="1.5" viewBox="0 0 24 24">
    <path d="M3 11.25a.75.75 0 0 0-.75.75.75.75 0 0 0 .75.75h18a.75.75 0 0 0 .75-.75.75.75 0 0 0-.75-.75Z" style="color:#000;fill:currentColor;stroke-linecap:round;stroke-linejoin:round;-inkscape-stroke:none"/>
    <path d="M10.068 2.25A4.83 4.83 0 0 0 5.25 7.068c0 2.071 1.33 3.916 3.295 4.57l3.219 1.073a.75.75 0 0 0 .947-.475.75.75 0 0 0-.475-.947L9.02 10.215a3.312 3.312 0 0 1-2.27-3.147 3.307 3.307 0 0 1 3.318-3.318h6.217a.75.75 0 0 0 .75-.75.75.75 0 0 0-.75-.75zm7.088 12.09a.75.75 0 0 0-.304 1.015 3.31 3.31 0 0 1 .398 1.577 3.307 3.307 0 0 1-3.318 3.318H6a.75.75 0 0 0-.75.75.75.75 0 0 0 .75.75h7.932a4.83 4.83 0 0 0 4.818-4.818c0-.818-.207-1.6-.578-2.287a.75.75 0 0 0-1.016-.305" style="color:#000;fill:currentColor;stroke-linecap:round;stroke-linejoin:round;-inkscape-stroke:none"/>
</svg>
