<svg xmlns="http://www.w3.org/2000/svg" width="24" height="24" fill="none" stroke-width="1.5" viewBox="0 0 24 24">
    <path d="M11.5 2.25c-5.1 0-9.25 4.15-9.25 9.25a9.2 9.2 0 0 0 1.402 4.898.75.75 0 0 0 1.034.239.75.75 0 0 0 .238-1.035A7.7 7.7 0 0 1 3.75 11.5c0-4.29 3.46-7.75 7.75-7.75a.75.75 0 0 0 .75-.75.75.75 0 0 0-.75-.75M20 8.75a.75.75 0 0 0-.75.75v2a7.7 7.7 0 0 1-1.174 4.102.75.75 0 0 0 .238 1.035.75.75 0 0 0 1.034-.239A9.2 9.2 0 0 0 20.75 11.5v-1.25h1.75a.75.75 0 0 0 .75-.75.75.75 0 0 0-.75-.75ZM8 16.25c-1.51 0-2.75 1.24-2.75 2.75S6.49 21.75 8 21.75s2.75-1.24 2.75-2.75S9.51 16.25 8 16.25m0 1.5c.7 0 1.25.55 1.25 1.25S8.7 20.25 8 20.25 6.75 19.7 6.75 19 7.3 17.75 8 17.75M15 16.25c-1.51 0-2.75 1.24-2.75 2.75s1.24 2.75 2.75 2.75 2.75-1.24 2.75-2.75-1.24-2.75-2.75-2.75m0 1.5c.7 0 1.25.55 1.25 1.25s-.55 1.25-1.25 1.25-1.25-.55-1.25-1.25.55-1.25 1.25-1.25" style="color:#000;fill:currentColor;stroke-linecap:round;stroke-linejoin:round;-inkscape-stroke:none"/>
    <path d="M11.5 2.25a.75.75 0 0 0-.75.75v9a.75.75 0 0 0 .75.75.75.75 0 0 0 .75-.75V3a.75.75 0 0 0-.75-.75" style="color:#000;fill:currentColor;stroke-linecap:round;stroke-linejoin:round;-inkscape-stroke:none"/>
    <path d="M3.5 11.25a.75.75 0 0 0-.75.75.75.75 0 0 0 .75.75h16a.75.75 0 0 0 .75-.75.75.75 0 0 0-.75-.75Z" style="color:#000;fill:currentColor;stroke-linecap:round;stroke-linejoin:round;-inkscape-stroke:none"/>
</svg>
