<svg xmlns="http://www.w3.org/2000/svg" width="24" height="24" fill="none" stroke-width="1.5" viewBox="0 0 24 24">
    <path d="m7.99 1.25-.154.002a.75.75 0 0 0-.02 0l-.154.006a.75.75 0 0 0-.017.002l-.155.01a.75.75 0 0 0-.017.001l-.153.014a.75.75 0 0 0-.02.002l-.15.016a.75.75 0 0 0-.017.004l-.15.02a.75.75 0 0 0-.02.003l-.149.024a.75.75 0 0 0-.017.003l-.147.028a.75.75 0 0 0-.02.004l-.144.033a.75.75 0 0 0-.02.004l-.144.035a.75.75 0 0 0-.017.004l-.143.039a.75.75 0 0 0-.017.006l-.143.04a.75.75 0 0 0-.018.007l-.14.045a.75.75 0 0 0-.018.005l-.039.014a.75.75 0 0 0-.457.957.75.75 0 0 0 .955.457l.031-.01.122-.039.125-.037.125-.035.126-.03.127-.029.13-.023.128-.021.131-.02.133-.014.133-.011.133-.01.134-.004.147-.002a.75.75 0 0 0 .74-.76.75.75 0 0 0-.76-.74m2.01 0a.75.75 0 0 0-.75.75.75.75 0 0 0 .75.75h2a.75.75 0 0 0 .75-.75.75.75 0 0 0-.75-.75Zm4 0a.75.75 0 0 0-.75.75.75.75 0 0 0 .75.75h2l.137.002.134.004.133.01.133.011.133.014.13.02.13.021.129.023.127.03.127.03.125.034.029.008a.75.75 0 0 0 .931-.504.75.75 0 0 0-.503-.932l-.04-.011a.75.75 0 0 0-.017-.006l-.143-.04a.75.75 0 0 0-.017-.003l-.145-.035a.75.75 0 0 0-.02-.004l-.144-.033a.75.75 0 0 0-.02-.004l-.146-.028a.75.75 0 0 0-.017-.004l-.149-.023a.75.75 0 0 0-.02-.004l-.15-.02a.75.75 0 0 0-.017-.003l-.15-.016a.75.75 0 0 0-.02-.002l-.153-.014a.75.75 0 0 0-.017-.001l-.155-.01a.75.75 0 0 0-.017-.002l-.154-.006a.75.75 0 0 0-.02 0l-.154-.002a.75.75 0 0 0-.004.002A.75.75 0 0 0 16 1.25Zm5.34 1.12a.75.75 0 0 0-.483.31.75.75 0 0 0 .188 1.043l.096.07.1.076.099.08.096.08.093.084.094.086.09.088.088.09.086.094.084.093.08.096.08.1.076.1.07.093a.75.75 0 0 0 1.047.164.75.75 0 0 0 .164-1.047l-.074-.101a.75.75 0 0 0-.012-.016l-.088-.113a.75.75 0 0 0-.01-.014l-.091-.113a.75.75 0 0 0-.01-.014l-.094-.11a.75.75 0 0 0-.011-.013l-.096-.107a.75.75 0 0 0-.012-.014l-.097-.105a.75.75 0 0 0-.014-.014l-.1-.102a.75.75 0 0 0-.013-.013l-.102-.1a.75.75 0 0 0-.014-.014l-.105-.097a.75.75 0 0 0-.014-.012l-.107-.096a.75.75 0 0 0-.014-.011l-.11-.094a.75.75 0 0 0-.013-.01l-.113-.092a.75.75 0 0 0-.014-.01l-.113-.087a.75.75 0 0 0-.016-.012l-.117-.084a.75.75 0 0 0-.014-.012.75.75 0 0 0-.56-.12M4.37 2.54a.75.75 0 0 0-.55.161l-.108.086a.75.75 0 0 0-.014.01l-.11.094a.75.75 0 0 0-.013.011l-.107.096a.75.75 0 0 0-.014.012l-.105.097a.75.75 0 0 0-.014.014l-.102.1a.75.75 0 0 0-.013.013l-.1.102a.75.75 0 0 0-.014.014l-.097.105a.75.75 0 0 0-.012.014l-.096.107a.75.75 0 0 0-.011.014l-.094.11a.75.75 0 0 0-.01.013l-.092.113a.75.75 0 0 0-.01.014l-.087.113a.75.75 0 0 0-.012.016l-.084.117a.75.75 0 0 0-.012.014l-.082.119a.75.75 0 0 0-.01.013l-.074.114a.75.75 0 0 0 .215 1.037.75.75 0 0 0 1.037-.213l.07-.106.073-.103.074-.102.076-.1.08-.099.08-.096.084-.093.086-.094.088-.09.09-.088.094-.086.093-.084.096-.08.1-.082a.75.75 0 0 0 .113-1.053.75.75 0 0 0-.502-.275m17.17 3.042a.75.75 0 0 0-.504.934l.014.046.035.125.03.127.029.127.023.13.021.128.02.131.014.133.011.133.01.142c.009.158.005.338.006.541a.75.75 0 0 0 .752.748.75.75 0 0 0 .748-.752c0-.185.003-.393-.01-.625a.75.75 0 0 0 0-.005l-.01-.155a.75.75 0 0 0-.002-.017l-.013-.153a.75.75 0 0 0-.002-.02l-.016-.15a.75.75 0 0 0-.004-.017l-.02-.15a.75.75 0 0 0-.003-.02l-.024-.149a.75.75 0 0 0-.004-.017l-.027-.147a.75.75 0 0 0-.004-.02l-.033-.144a.75.75 0 0 0-.004-.02l-.035-.144a.75.75 0 0 0-.004-.017l-.039-.143a.75.75 0 0 0-.006-.017l-.016-.057a.75.75 0 0 0-.933-.506m-19.195.277a.75.75 0 0 0-.907.551l-.013.057a.75.75 0 0 0-.004.02l-.033.144a.75.75 0 0 0-.004.02l-.028.146a.75.75 0 0 0-.003.017l-.024.149a.75.75 0 0 0-.004.02l-.02.15a.75.75 0 0 0-.003.017l-.016.15a.75.75 0 0 0-.002.02l-.014.153a.75.75 0 0 0-.001.017l-.01.155a.75.75 0 0 0-.002.017l-.006.154a.75.75 0 0 0 0 .02l-.002.154a.75.75 0 0 0 0 .01v.574a.75.75 0 0 0 .75.75.75.75 0 0 0 .75-.75v-.57l.002-.14.004-.135.01-.133.011-.133.014-.133.02-.13.021-.13.023-.129.03-.127.011-.048a.75.75 0 0 0-.55-.907M22 9.527a.75.75 0 0 0-.75.75v2a.75.75 0 0 0 .75.75.75.75 0 0 0 .75-.75v-2a.75.75 0 0 0-.75-.75M2 9.824a.75.75 0 0 0-.75.75v2a.75.75 0 0 0 .75.75.75.75 0 0 0 .75-.75v-2a.75.75 0 0 0-.75-.75m20.094 3.71a.75.75 0 0 0-.838.65c-.101.807.016 1.498-.012 2.056a.75.75 0 0 0 .711.785.75.75 0 0 0 .787-.71c.04-.774-.063-1.422.002-1.944a.75.75 0 0 0-.65-.838M2 13.823a.75.75 0 0 0-.75.75V16a.75.75 0 0 0 0 .01l.002.154a.75.75 0 0 0 0 .02l.006.154a.75.75 0 0 0 .002.018l.01.154a.75.75 0 0 0 .001.017l.01.112a.75.75 0 0 0 .813.681.75.75 0 0 0 .68-.812l-.008-.104-.01-.133-.004-.134-.002-.14v-1.423a.75.75 0 0 0-.75-.75m19.857 3.705a.75.75 0 0 0-.976.41l-.043.104-.05.117-.056.115-.056.116-.059.111-.062.111-.065.11-.066.107-.07.106-.073.103-.074.102-.076.1-.08.099-.084.1a.75.75 0 0 0 .088 1.056.75.75 0 0 0 1.056-.088l.092-.107a.75.75 0 0 0 .01-.014l.092-.113a.75.75 0 0 0 .01-.014l.087-.113a.75.75 0 0 0 .012-.016l.084-.117a.75.75 0 0 0 .012-.014l.082-.119a.75.75 0 0 0 .01-.013l.08-.122a.75.75 0 0 0 .01-.015l.076-.123a.75.75 0 0 0 .01-.016l.072-.125a.75.75 0 0 0 .01-.015l.07-.125a.75.75 0 0 0 .01-.018l.066-.127a.75.75 0 0 0 .01-.018l.064-.128a.75.75 0 0 0 .008-.018l.06-.13a.75.75 0 0 0 .009-.018l.058-.133a.75.75 0 0 0 .008-.018l.045-.111a.75.75 0 0 0-.41-.979M2.8 17.791a.75.75 0 0 0-.574.025.75.75 0 0 0-.362.997l.05.105a.75.75 0 0 0 .007.018l.064.128a.75.75 0 0 0 .01.018l.067.127a.75.75 0 0 0 .01.018l.07.125a.75.75 0 0 0 .01.015l.072.125a.75.75 0 0 0 .01.016l.076.123a.75.75 0 0 0 .01.016l.08.12a.75.75 0 0 0 .01.014l.081.12a.75.75 0 0 0 .012.013l.084.117a.75.75 0 0 0 .012.016l.088.113a.75.75 0 0 0 .01.014l.091.113a.75.75 0 0 0 .01.014l.094.11a.75.75 0 0 0 .011.013l.096.107a.75.75 0 0 0 .012.014l.097.105a.75.75 0 0 0 .014.014l.004.004a.75.75 0 0 0 1.059.012.75.75 0 0 0 .015-1.057l-.002-.004-.084-.09-.084-.093-.08-.096-.08-.1-.076-.1-.074-.1-.072-.104-.07-.106-.067-.107-.065-.11-.062-.111-.059-.111-.056-.116-.045-.095a.75.75 0 0 0-.424-.389m15.826 2.758-.012.006-.111.062-.111.059-.116.056-.115.055-.117.05-.117.05-.121.045-.121.043-.122.039-.125.037-.125.035-.126.03-.127.029-.059.01a.75.75 0 0 0-.596.876.75.75 0 0 0 .88.596l.066-.012a.75.75 0 0 0 .02-.004l.144-.033a.75.75 0 0 0 .02-.004l.144-.035a.75.75 0 0 0 .017-.004l.143-.039a.75.75 0 0 0 .017-.006l.143-.04a.75.75 0 0 0 .018-.007l.14-.045a.75.75 0 0 0 .018-.006l.139-.048a.75.75 0 0 0 .017-.008l.137-.05a.75.75 0 0 0 .017-.009l.135-.054a.75.75 0 0 0 .018-.008l.133-.059a.75.75 0 0 0 .017-.008l.131-.06a.75.75 0 0 0 .018-.008l.128-.064a.75.75 0 0 0 .018-.01l.127-.067a.75.75 0 0 0 .018-.01l.125-.07a.75.75 0 0 0 .015-.01l.02-.01a.75.75 0 0 0 .263-1.026.75.75 0 0 0-1.025-.264m-13.592.07a.75.75 0 0 0-.441.367A.75.75 0 0 0 4.904 22l.014.006a.75.75 0 0 0 .018.01l.128.064a.75.75 0 0 0 .018.008l.13.06a.75.75 0 0 0 .018.008l.133.059a.75.75 0 0 0 .018.008l.135.054a.75.75 0 0 0 .017.008l.137.051a.75.75 0 0 0 .017.008l.14.049a.75.75 0 0 0 .017.005l.14.045a.75.75 0 0 0 .018.006l.143.041a.75.75 0 0 0 .017.006l.143.04a.75.75 0 0 0 .017.003l.145.035a.75.75 0 0 0 .02.004l.144.033a.75.75 0 0 0 .02.004l.146.028a.75.75 0 0 0 .017.004l.149.023a.75.75 0 0 0 .02.004l.064.008a.75.75 0 0 0 .846-.639.75.75 0 0 0-.637-.846l-.057-.008-.129-.021-.129-.023-.127-.03-.127-.03-.125-.034-.125-.037-.12-.04-.122-.042-.12-.045-.118-.05-.117-.05-.115-.055-.116-.056-.005-.002a.75.75 0 0 0-.57-.055m4.115.631a.75.75 0 0 0-.75.75.75.75 0 0 0 .75.75h2a.75.75 0 0 0 .75-.75.75.75 0 0 0-.75-.75zm4 0a.75.75 0 0 0-.75.75.75.75 0 0 0 .75.75h2a.75.75 0 0 0 .75-.75.75.75 0 0 0-.75-.75z" style="color:#000;fill:currentColor;stroke-linecap:round;stroke-linejoin:round;stroke-miterlimit:1.5;stroke-dasharray:2,2;-inkscape-stroke:none"/>
    <path d="M8 4.25A3.762 3.762 0 0 0 4.25 8v8A3.762 3.762 0 0 0 8 19.75h8A3.762 3.762 0 0 0 19.75 16V8A3.762 3.762 0 0 0 16 4.25Zm0 1.5h8c1.252 0 2.25.998 2.25 2.25v8c0 1.252-.998 2.25-2.25 2.25H8A2.238 2.238 0 0 1 5.75 16V8c0-1.252.998-2.25 2.25-2.25" style="color:#000;fill:currentColor;stroke-linecap:round;stroke-linejoin:round;stroke-miterlimit:1.5;-inkscape-stroke:none"/>
</svg>
