<svg xmlns="http://www.w3.org/2000/svg" width="24" height="24" fill="none" stroke-width="1.5" viewBox="0 0 24 24">
    <path d="M4.6 1.25A1.36 1.36 0 0 0 3.25 2.6v18.8c0 .737.613 1.35 1.35 1.35H14a.75.75 0 0 0 .75-.75.75.75 0 0 0-.75-.75H4.75V2.75h11.438l3.062 3.06V13a.75.75 0 0 0 .75.75.75.75 0 0 0 .75-.75V5.748c0-.358-.142-.7-.395-.953a.75.75 0 0 0 0-.002l-3.148-3.148h-.002a1.35 1.35 0 0 0-.953-.395Z" style="color:#000;fill:currentColor;stroke-linecap:round;stroke-linejoin:round;-inkscape-stroke:none"/>
    <path d="M16 1.25a.75.75 0 0 0-.75.75v3.4c0 .737.613 1.35 1.35 1.35H20a.75.75 0 0 0 .75-.75.75.75 0 0 0-.75-.75h-3.25V2a.75.75 0 0 0-.75-.75M19 15.25a.75.75 0 0 0-.531.219.75.75 0 0 0 0 1.062l1.718 1.719H16a.75.75 0 0 0-.75.75.75.75 0 0 0 .75.75h4.188l-1.72 1.719a.75.75 0 0 0 0 1.062.75.75 0 0 0 1.063 0l3-3a.75.75 0 0 0 .194-.468.75.75 0 0 0 .025-.063.75.75 0 0 0-.025-.129.75.75 0 0 0 0-.064.75.75 0 0 0-.02-.034.75.75 0 0 0-.174-.304l-3-3A.75.75 0 0 0 19 15.25" style="color:#000;fill:currentColor;stroke-linecap:round;stroke-linejoin:round;-inkscape-stroke:none"/>
</svg>
