<svg xmlns="http://www.w3.org/2000/svg" width="24" height="24" fill="none" stroke-width="1.5" viewBox="0 0 24 24">
    <path d="M12 5.25c-3.719 0-6.75 3.031-6.75 6.75s3.031 6.75 6.75 6.75 6.75-3.031 6.75-6.75S15.719 5.25 12 5.25m0 1.5A5.24 5.24 0 0 1 17.25 12 5.24 5.24 0 0 1 12 17.25 5.24 5.24 0 0 1 6.75 12 5.24 5.24 0 0 1 12 6.75M22 11.25a.75.75 0 0 0-.75.75.75.75 0 0 0 .75.75h1a.75.75 0 0 0 .75-.75.75.75 0 0 0-.75-.75ZM12 .25a.75.75 0 0 0-.75.75v1a.75.75 0 0 0 .75.75.75.75 0 0 0 .75-.75V1A.75.75 0 0 0 12 .25M12 21.25a.75.75 0 0 0-.75.75v1a.75.75 0 0 0 .75.75.75.75 0 0 0 .75-.75v-1a.75.75 0 0 0-.75-.75M19 18.25a.75.75 0 0 0-.531.219.75.75 0 0 0 0 1.062l1 1a.75.75 0 0 0 1.062 0 .75.75 0 0 0 0-1.062l-1-1A.75.75 0 0 0 19 18.25M20 3.25a.75.75 0 0 0-.531.219l-1 1a.75.75 0 0 0 0 1.062.75.75 0 0 0 1.062 0l1-1a.75.75 0 0 0 0-1.062A.75.75 0 0 0 20 3.25M5 18.25a.75.75 0 0 0-.531.219l-1 1a.75.75 0 0 0 0 1.062.75.75 0 0 0 1.062 0l1-1a.75.75 0 0 0 0-1.062A.75.75 0 0 0 5 18.25M4 3.25a.75.75 0 0 0-.531.219.75.75 0 0 0 0 1.062l1 1a.75.75 0 0 0 1.062 0 .75.75 0 0 0 0-1.062l-1-1A.75.75 0 0 0 4 3.25M1 11.25a.75.75 0 0 0-.75.75.75.75 0 0 0 .75.75h1a.75.75 0 0 0 .75-.75.75.75 0 0 0-.75-.75Z" style="color:#000;fill:currentColor;stroke-linecap:round;stroke-linejoin:round;-inkscape-stroke:none"/>
</svg>
