<svg xmlns="http://www.w3.org/2000/svg" width="24" height="24" fill="none" stroke-width="1.5" viewBox="0 0 24 24">
    <path d="M6 8.25a2.261 2.261 0 0 0-2.25 2.25A2.261 2.261 0 0 0 6 12.75h.5c.423 0 .75.327.75.75s-.327.75-.75.75h-2a.75.75 0 0 0-.75.75.75.75 0 0 0 .75.75h2a2.261 2.261 0 0 0 2.25-2.25 2.261 2.261 0 0 0-2.25-2.25H6a.739.739 0 0 1-.75-.75c0-.423.327-.75.75-.75h1.5A.75.75 0 0 0 8.25 9a.75.75 0 0 0-.75-.75ZM10.318 8.271a.75.75 0 0 0-.547.91l1.5 6a.75.75 0 0 0 1.458 0l1.5-6a.75.75 0 0 0-.547-.91.75.75 0 0 0-.91.547L12 11.904l-.771-3.086a.75.75 0 0 0-.91-.547M16.5 8.25a.75.75 0 0 0-.75.75v6a.75.75 0 0 0 .75.75h3a.75.75 0 0 0 .75-.75v-2.4a.75.75 0 0 0-.75-.75.75.75 0 0 0-.75.75v1.65h-1.5v-4.5h2.25a.75.75 0 0 0 .75-.75.75.75 0 0 0-.75-.75Z" style="color:#000;fill:currentColor;stroke-linecap:round;stroke-linejoin:round;-inkscape-stroke:none"/>
    <path d="M4.6 2.25A1.36 1.36 0 0 0 3.25 3.6V6a.75.75 0 0 0 .75.75.75.75 0 0 0 .75-.75V3.75h14.5V6a.75.75 0 0 0 .75.75.75.75 0 0 0 .75-.75V3.6a1.36 1.36 0 0 0-1.35-1.35ZM4 17.25a.75.75 0 0 0-.75.75v2.4c0 .737.613 1.35 1.35 1.35h14.8a1.36 1.36 0 0 0 1.35-1.35V18a.75.75 0 0 0-.75-.75.75.75 0 0 0-.75.75v2.25H4.75V18a.75.75 0 0 0-.75-.75" style="color:#000;fill:currentColor;stroke-linecap:round;-inkscape-stroke:none"/>
</svg>
