<svg xmlns="http://www.w3.org/2000/svg" width="24" height="24" fill="none" stroke-width="1.5" viewBox="0 0 24 24">
    <path d="M8.5 15.75a.75.75 0 0 0-.531.219l-5.5 5.5a.75.75 0 0 0 0 1.062.75.75 0 0 0 1.062 0l5.5-5.5a.75.75 0 0 0 0-1.062.75.75 0 0 0-.531-.219M20 4.25a.75.75 0 0 0-.531.219l-2.5 2.5a.75.75 0 0 0 0 1.062.75.75 0 0 0 1.062 0l2.5-2.5a.75.75 0 0 0 0-1.062A.75.75 0 0 0 20 4.25" style="color:#000;fill:currentColor;stroke-linecap:round;stroke-linejoin:round;-inkscape-stroke:none"/>
    <path d="M8.5 8.25a.75.75 0 0 0-.648.373l-5.832 10a.75.75 0 0 0 .27 1.025.75.75 0 0 0 1.024-.271L8.5 10.488l5.693 9.762H7a.75.75 0 0 0-.75.75.75.75 0 0 0 .75.75h8.5a.75.75 0 0 0 .648-1.127l-7-12A.75.75 0 0 0 8.5 8.25M14.691 2.275a.75.75 0 0 0-.568.077.75.75 0 0 0-.271 1.025l7 12a.75.75 0 0 0 1.025.271.75.75 0 0 0 .271-1.025l-7-12a.75.75 0 0 0-.457-.348" style="color:#000;fill:currentColor;stroke-linecap:round;stroke-linejoin:round;-inkscape-stroke:none"/>
    <path d="M14.5 2.25a.75.75 0 0 0-.531.219l-6 6a.75.75 0 0 0 0 1.062.75.75 0 0 0 1.062 0l6-6a.75.75 0 0 0 0-1.062.75.75 0 0 0-.531-.219M21.5 14.25a.75.75 0 0 0-.531.219l-6 6a.75.75 0 0 0 0 1.062.75.75 0 0 0 1.062 0l6-6a.75.75 0 0 0 0-1.062.75.75 0 0 0-.531-.219" style="color:#000;fill:currentColor;stroke-linecap:round;stroke-linejoin:round;-inkscape-stroke:none"/>
</svg>
