<svg xmlns="http://www.w3.org/2000/svg" width="24" height="24" fill="none" stroke-width="1.5" viewBox="0 0 24 24">
    <path d="M7.346 11.25a.75.75 0 0 0-.639.354s-.421.676-1.125 1.357C4.878 13.64 3.939 14.25 3 14.25a.75.75 0 0 0-.75.75.75.75 0 0 0 .75.75c1.543 0 2.777-.891 3.625-1.71.45-.435.485-.558.719-.872.234.314.27.436.72.871.848.82 2.082 1.711 3.625 1.711 1.544 0 2.89-.865 3.885-1.666.64-.515.789-.73 1.067-1.033.267.3.416.504.994 1.012.904.794 2.031 1.687 3.365 1.687a.75.75 0 0 0 .75-.75.75.75 0 0 0-.75-.75c-.528 0-1.572-.607-2.375-1.312-.803-.706-1.393-1.417-1.393-1.417a.75.75 0 0 0-1.154 0s-.578.696-1.445 1.395c-.868.699-2.004 1.334-2.944 1.334-.939 0-1.878-.609-2.582-1.29a7.993 7.993 0 0 1-1.125-1.356.75.75 0 0 0-.636-.354M7.346 16.25a.75.75 0 0 0-.639.354s-.421.676-1.125 1.357C4.878 18.64 3.939 19.25 3 19.25a.75.75 0 0 0-.75.75.75.75 0 0 0 .75.75c1.543 0 2.777-.891 3.625-1.71.45-.435.485-.558.719-.872.234.314.27.436.72.871.848.82 2.082 1.711 3.625 1.711 1.544 0 2.89-.865 3.885-1.666.64-.515.789-.73 1.067-1.033.267.3.416.504.994 1.012.904.794 2.031 1.687 3.365 1.687a.75.75 0 0 0 .75-.75.75.75 0 0 0-.75-.75c-.528 0-1.572-.607-2.375-1.312-.803-.706-1.393-1.417-1.393-1.417a.75.75 0 0 0-1.154 0s-.578.696-1.445 1.395c-.868.699-2.004 1.334-2.944 1.334-.939 0-1.878-.609-2.582-1.29-.704-.68-1.125-1.356-1.125-1.356a.75.75 0 0 0-.636-.354M9.031 3.734a2.005 2.005 0 0 0-1.44.385 2.023 2.023 0 0 0-.364 2.865l.66.827-3.285 2.052a.75.75 0 0 0-.239 1.035.75.75 0 0 0 1.035.239l4-2.5a.75.75 0 0 0 .188-1.106L8.398 6.047a.5.5 0 0 1 .094-.729.5.5 0 0 1 .7.082l4.232 5.08a.75.75 0 0 0 1.056.096.75.75 0 0 0 .096-1.056L10.344 4.44a2.008 2.008 0 0 0-1.313-.707M16.5 2.25a3.261 3.261 0 0 0-3.25 3.25 3.261 3.261 0 0 0 3.25 3.25 3.261 3.261 0 0 0 3.25-3.25 3.261 3.261 0 0 0-3.25-3.25m0 1.5c.975 0 1.75.775 1.75 1.75s-.775 1.75-1.75 1.75-1.75-.775-1.75-1.75.775-1.75 1.75-1.75" style="color:#000;fill:currentColor;stroke-linecap:round;stroke-linejoin:round;-inkscape-stroke:none"/>
</svg>
