<svg xmlns="http://www.w3.org/2000/svg" width="24" height="24" fill="none" stroke-width="1.5" viewBox="0 0 24 24">
    <path d="M6.5 4.25A4.261 4.261 0 0 0 2.25 8.5c0 2.073 1.53 3.73 3.5 4.098v4.642L4.52 16.06a.75.75 0 0 0-1.061.021.75.75 0 0 0 .021 1.06l2.479 2.38.008.01a.75.75 0 0 0 .004.003l.01.008a.75.75 0 0 0 .232.09.75.75 0 0 0 .017.008.75.75 0 0 0 .016.006.75.75 0 0 0 .246.101.75.75 0 0 0 .008.004.75.75 0 0 0 .008-.004.75.75 0 0 0 .246-.101.75.75 0 0 0 .016-.006.75.75 0 0 0 .017-.008.75.75 0 0 0 .233-.09l.01-.008.001-.002a.75.75 0 0 0 .002-.002l.008-.01L9.52 17.14a.75.75 0 0 0 .021-1.06.75.75 0 0 0-1.06-.022L7.25 17.24v-4.642c1.97-.368 3.5-2.025 3.5-4.098A4.261 4.261 0 0 0 6.5 4.25m0 1.5A2.739 2.739 0 0 1 9.25 8.5a2.739 2.739 0 0 1-2.75 2.75A2.739 2.739 0 0 1 3.75 8.5 2.739 2.739 0 0 1 6.5 5.75M17.5 4.25a4.261 4.261 0 0 0-4.25 4.25c0 2.073 1.53 3.73 3.5 4.098v4.642l-1.23-1.181a.75.75 0 0 0-1.061.021.75.75 0 0 0 .021 1.06l2.479 2.38.008.01a.75.75 0 0 0 .004.003l.01.008a.75.75 0 0 0 .232.09.75.75 0 0 0 .017.008.75.75 0 0 0 .016.006.75.75 0 0 0 .246.101.75.75 0 0 0 .008.004.75.75 0 0 0 .008-.004.75.75 0 0 0 .246-.101.75.75 0 0 0 .016-.006.75.75 0 0 0 .017-.008.75.75 0 0 0 .233-.09l.01-.008.001-.002a.75.75 0 0 0 .002-.002l.008-.01 2.479-2.378a.75.75 0 0 0 .021-1.061.75.75 0 0 0-1.06-.022L18.25 17.24v-4.642c1.97-.368 3.5-2.025 3.5-4.098a4.261 4.261 0 0 0-4.25-4.25m0 1.5a2.739 2.739 0 0 1 2.75 2.75 2.739 2.739 0 0 1-2.75 2.75 2.739 2.739 0 0 1-2.75-2.75 2.739 2.739 0 0 1 2.75-2.75" style="color:#000;fill:currentColor;stroke-linecap:round;stroke-linejoin:round;-inkscape-stroke:none"/>
</svg>
