<svg xmlns="http://www.w3.org/2000/svg" width="24" height="24" fill="none" stroke-width="1.5" viewBox="0 0 24 24">
    <path d="M15.5 13.25c-2.073 0-3.73 1.53-4.098 3.5H6.76l1.181-1.23a.75.75 0 0 0-.021-1.061.75.75 0 0 0-1.06.021L4.48 16.96l-.01.008a.75.75 0 0 0-.003.004l-.008.01a.75.75 0 0 0-.09.232.75.75 0 0 0-.008.017.75.75 0 0 0-.006.016.75.75 0 0 0-.101.246.75.75 0 0 0-.004.008.75.75 0 0 0 .004.008.75.75 0 0 0 .101.246.75.75 0 0 0 .006.016.75.75 0 0 0 .008.017.75.75 0 0 0 .09.233l.008.01a.75.75 0 0 0 .004.003l.01.008 2.378 2.479a.75.75 0 0 0 1.06.021.75.75 0 0 0 .022-1.06L6.76 18.25h4.642c.368 1.97 2.025 3.5 4.098 3.5a4.261 4.261 0 0 0 4.25-4.25 4.261 4.261 0 0 0-4.25-4.25m0 1.5a2.739 2.739 0 0 1 2.75 2.75 2.739 2.739 0 0 1-2.75 2.75 2.739 2.739 0 0 1-2.75-2.75 2.739 2.739 0 0 1 2.75-2.75M15.5 2.25c-2.073 0-3.73 1.53-4.098 3.5H6.76L7.94 4.52a.75.75 0 0 0-.021-1.061.75.75 0 0 0-1.06.021L4.48 5.96l-.01.008a.75.75 0 0 0-.003.004l-.008.01a.75.75 0 0 0-.09.232.75.75 0 0 0-.008.017.75.75 0 0 0-.006.016.75.75 0 0 0-.101.246.75.75 0 0 0-.004.008.75.75 0 0 0 .004.008.75.75 0 0 0 .101.246.75.75 0 0 0 .006.016.75.75 0 0 0 .008.017.75.75 0 0 0 .09.233l.008.01a.75.75 0 0 0 .004.003l.01.008L6.858 9.52a.75.75 0 0 0 1.06.021.75.75 0 0 0 .022-1.06L6.76 7.25h4.642c.368 1.97 2.025 3.5 4.098 3.5a4.261 4.261 0 0 0 4.25-4.25 4.261 4.261 0 0 0-4.25-4.25m0 1.5a2.739 2.739 0 0 1 2.75 2.75 2.739 2.739 0 0 1-2.75 2.75 2.739 2.739 0 0 1-2.75-2.75 2.739 2.739 0 0 1 2.75-2.75" style="color:#000;fill:currentColor;stroke-linecap:round;stroke-linejoin:round;-inkscape-stroke:none"/>
</svg>
