<svg xmlns="http://www.w3.org/2000/svg" width="24" height="24" fill="none" stroke-width="1.5" viewBox="0 0 24 24">
    <path d="M6.484 4.25a.75.75 0 0 0-.238.105.75.75 0 0 0-.016.006.75.75 0 0 0-.017.008.75.75 0 0 0-.233.09l-.01.008a.75.75 0 0 0-.003.004l-.008.01L3.48 6.858a.75.75 0 0 0-.021 1.06.75.75 0 0 0 1.06.022L5.75 6.76v4.642c-1.97.368-3.5 2.025-3.5 4.098a4.261 4.261 0 0 0 4.25 4.25 4.261 4.261 0 0 0 4.25-4.25c0-2.073-1.53-3.73-3.5-4.098V6.76L8.48 7.94a.75.75 0 0 0 1.061-.021.75.75 0 0 0-.021-1.06L7.04 4.48a.75.75 0 0 0-.002-.001l-.008-.01a.75.75 0 0 0-.006-.004l-.005-.006a.75.75 0 0 0-.008-.002.75.75 0 0 0-.483-.201.75.75 0 0 0-.02-.004.75.75 0 0 0-.009-.002.75.75 0 0 0-.008.004.75.75 0 0 0-.008-.004m.016 8.5a2.739 2.739 0 0 1 2.75 2.75 2.739 2.739 0 0 1-2.75 2.75 2.739 2.739 0 0 1-2.75-2.75 2.739 2.739 0 0 1 2.75-2.75M17.484 4.25a.75.75 0 0 0-.238.105.75.75 0 0 0-.016.006.75.75 0 0 0-.017.008.75.75 0 0 0-.233.09l-.01.008a.75.75 0 0 0-.003.004l-.008.01-2.479 2.378a.75.75 0 0 0-.021 1.06.75.75 0 0 0 1.06.022L16.75 6.76v4.642c-1.97.368-3.5 2.025-3.5 4.098a4.261 4.261 0 0 0 4.25 4.25 4.261 4.261 0 0 0 4.25-4.25c0-2.073-1.53-3.73-3.5-4.098V6.76l1.23 1.181a.75.75 0 0 0 1.061-.021.75.75 0 0 0-.021-1.06L18.04 4.48a.75.75 0 0 0-.002-.001l-.008-.01a.75.75 0 0 0-.006-.004l-.006-.006a.75.75 0 0 0-.007-.002.75.75 0 0 0-.483-.201.75.75 0 0 0-.02-.004.75.75 0 0 0-.009-.002.75.75 0 0 0-.008.004.75.75 0 0 0-.008-.004m.016 8.5a2.739 2.739 0 0 1 2.75 2.75 2.739 2.739 0 0 1-2.75 2.75 2.739 2.739 0 0 1-2.75-2.75 2.739 2.739 0 0 1 2.75-2.75" style="color:#000;fill:currentColor;stroke-linecap:round;stroke-linejoin:round;-inkscape-stroke:none"/>
</svg>
