<svg xmlns="http://www.w3.org/2000/svg" width="24" height="24" fill="none" stroke-width="1.5" viewBox="0 0 24 24">
    <path d="M15.5 13.25c-2.073 0-3.73 1.53-4.098 3.5H6.76l1.181-1.23a.75.75 0 0 0-.021-1.061.75.75 0 0 0-1.06.021L4.48 16.96l-.01.008-.003.004-.008.01a.8.8 0 0 0-.09.232l-.008.017-.006.016a.8.8 0 0 0-.101.246l-.004.008.004.008a.8.8 0 0 0 .101.246l.006.016.008.017a.8.8 0 0 0 .09.233l.008.01.004.003.01.008 2.378 2.479a.75.75 0 0 0 1.06.021.75.75 0 0 0 .022-1.06L6.76 18.25h4.642c.368 1.97 2.025 3.5 4.098 3.5a4.26 4.26 0 0 0 4.25-4.25 4.26 4.26 0 0 0-4.25-4.25m0 1.5a2.74 2.74 0 0 1 2.75 2.75 2.74 2.74 0 0 1-2.75 2.75 2.74 2.74 0 0 1-2.75-2.75 2.74 2.74 0 0 1 2.75-2.75M15.5 2.25c-2.073 0-3.73 1.53-4.098 3.5H6.76L7.94 4.52a.75.75 0 0 0-.021-1.061.75.75 0 0 0-1.06.021L4.48 5.96l-.01.008-.003.004-.008.01a.8.8 0 0 0-.09.232l-.008.017-.006.016a.8.8 0 0 0-.101.246L4.25 6.5l.004.008a.8.8 0 0 0 .101.246l.006.016.008.017a.8.8 0 0 0 .09.233l.008.01.004.003.01.008L6.858 9.52a.75.75 0 0 0 1.06.021.75.75 0 0 0 .022-1.06L6.76 7.25h4.642c.368 1.97 2.025 3.5 4.098 3.5a4.26 4.26 0 0 0 4.25-4.25 4.26 4.26 0 0 0-4.25-4.25m0 1.5a2.74 2.74 0 0 1 2.75 2.75 2.74 2.74 0 0 1-2.75 2.75 2.74 2.74 0 0 1-2.75-2.75 2.74 2.74 0 0 1 2.75-2.75" style="color:#000;fill:currentColor;stroke-linecap:round;stroke-linejoin:round;-inkscape-stroke:none"/>
</svg>
