<svg xmlns="http://www.w3.org/2000/svg" width="24" height="24" fill="none" stroke-width="1.5" viewBox="0 0 24 24">
    <path d="M8.5 13.25a4.261 4.261 0 0 0-4.25 4.25 4.261 4.261 0 0 0 4.25 4.25c2.073 0 3.73-1.53 4.098-3.5h4.642l-1.181 1.23a.75.75 0 0 0 .021 1.061.75.75 0 0 0 1.06-.021l2.38-2.479.01-.008.001-.002a.75.75 0 0 0 .002-.002l.008-.01a.75.75 0 0 0 .074-.115.75.75 0 0 0 .077-.117.75.75 0 0 0 .03-.145.75.75 0 0 0 .026-.138.75.75 0 0 0 .002-.004.75.75 0 0 0-.002-.008.75.75 0 0 0-.023-.119.75.75 0 0 0-.002-.016.75.75 0 0 0-.004-.013.75.75 0 0 0-.024-.125.75.75 0 0 0-.006-.012.75.75 0 0 0-.066-.1.75.75 0 0 0-.021-.033.75.75 0 0 0-.061-.094l-.006-.006-.004-.005a.75.75 0 0 0-.004-.002l-.007-.008-2.38-2.479a.75.75 0 0 0-1.06-.021.75.75 0 0 0-.021 1.06l1.181 1.231h-4.642c-.368-1.97-2.025-3.5-4.098-3.5m0 1.5a2.739 2.739 0 0 1 2.75 2.75 2.739 2.739 0 0 1-2.75 2.75 2.739 2.739 0 0 1-2.75-2.75 2.739 2.739 0 0 1 2.75-2.75M8.5 2.25A4.261 4.261 0 0 0 4.25 6.5a4.261 4.261 0 0 0 4.25 4.25c2.073 0 3.73-1.53 4.098-3.5h4.642L16.06 8.48a.75.75 0 0 0 .021 1.061.75.75 0 0 0 1.06-.021l2.38-2.479.01-.008.001-.002a.75.75 0 0 0 .002-.002l.008-.01a.75.75 0 0 0 .074-.115.75.75 0 0 0 .077-.117.75.75 0 0 0 .03-.144.75.75 0 0 0 .026-.14.75.75 0 0 0 .002-.003.75.75 0 0 0-.002-.008.75.75 0 0 0-.023-.119.75.75 0 0 0-.002-.016.75.75 0 0 0-.004-.013.75.75 0 0 0-.024-.125.75.75 0 0 0-.006-.012.75.75 0 0 0-.066-.1.75.75 0 0 0-.022-.033.75.75 0 0 0-.06-.094l-.006-.005-.004-.006a.75.75 0 0 0-.004-.002l-.008-.008L17.14 3.48a.75.75 0 0 0-1.06-.021.75.75 0 0 0-.022 1.06L17.24 5.75h-4.642c-.368-1.97-2.025-3.5-4.098-3.5m0 1.5a2.739 2.739 0 0 1 2.75 2.75A2.739 2.739 0 0 1 8.5 9.25 2.739 2.739 0 0 1 5.75 6.5 2.739 2.739 0 0 1 8.5 3.75" style="color:#000;fill:currentColor;stroke-linecap:round;stroke-linejoin:round;-inkscape-stroke:none"/>
</svg>
