<svg xmlns="http://www.w3.org/2000/svg" width="24" height="24" fill="none" stroke-width="1.5" viewBox="0 0 24 24">
    <path d="M7 13a1 1 0 1 0 0-2 1 1 0 0 0 0 2" style="color:#000;fill:currentColor;stroke-width:1.5;stroke-linecap:round;stroke-linejoin:round;-inkscape-stroke:none"/>
    <path d="M7 10.25c-.958 0-1.75.792-1.75 1.75s.792 1.75 1.75 1.75 1.75-.792 1.75-1.75-.792-1.75-1.75-1.75m0 1.5a.24.24 0 0 1 .25.25.24.24 0 0 1-.25.25.24.24 0 0 1-.25-.25.24.24 0 0 1 .25-.25" style="color:#000;fill:currentColor;stroke-linecap:round;stroke-linejoin:round;-inkscape-stroke:none"/>
    <path d="M7 6.25A5.76 5.76 0 0 0 1.25 12 5.76 5.76 0 0 0 7 17.75h10A5.76 5.76 0 0 0 22.75 12 5.76 5.76 0 0 0 17 6.25zm0 1.5h10A4.24 4.24 0 0 1 21.25 12 4.24 4.24 0 0 1 17 16.25H7A4.24 4.24 0 0 1 2.75 12 4.24 4.24 0 0 1 7 7.75" style="color:#000;fill:currentColor;-inkscape-stroke:none"/>
</svg>
