<svg xmlns="http://www.w3.org/2000/svg" width="24" height="24" fill="none" stroke-width="1.5" viewBox="0 0 24 24">
    <path d="M12 1.25a.75.75 0 0 0-.75.75v4a.75.75 0 0 0 .75.75.75.75 0 0 0 .75-.75V2a.75.75 0 0 0-.75-.75M12 17.25a.75.75 0 0 0-.75.75v4a.75.75 0 0 0 .75.75.75.75 0 0 0 .75-.75v-4a.75.75 0 0 0-.75-.75M18 11.25a.75.75 0 0 0-.75.75.75.75 0 0 0 .75.75h4a.75.75 0 0 0 .75-.75.75.75 0 0 0-.75-.75ZM2 11.25a.75.75 0 0 0-.75.75.75.75 0 0 0 .75.75h4a.75.75 0 0 0 .75-.75.75.75 0 0 0-.75-.75ZM4.93 4.18a.75.75 0 0 0-.532.218.75.75 0 0 0 0 1.061l2.829 2.828a.75.75 0 0 0 1.06 0 .75.75 0 0 0 0-1.06L5.46 4.398a.75.75 0 0 0-.53-.218M16.242 15.492a.75.75 0 0 0-.53.22.75.75 0 0 0 0 1.061l2.829 2.829a.75.75 0 0 0 1.06 0 .75.75 0 0 0 0-1.061l-2.828-2.828a.75.75 0 0 0-.53-.22M19.07 4.18a.75.75 0 0 0-.529.218l-2.828 2.829a.75.75 0 0 0 0 1.06.75.75 0 0 0 1.06 0l2.829-2.828a.75.75 0 0 0 0-1.06.75.75 0 0 0-.532-.22M7.758 15.492a.75.75 0 0 0-.531.22l-2.829 2.829a.75.75 0 0 0 0 1.06.75.75 0 0 0 1.061 0l2.828-2.828a.75.75 0 0 0 0-1.06.75.75 0 0 0-.53-.22" style="color:#000;fill:currentColor;stroke-linecap:round;stroke-linejoin:round;-inkscape-stroke:none"/>
</svg>
