<svg xmlns="http://www.w3.org/2000/svg" width="24" height="24" fill="none" stroke-width="1.5" viewBox="0 0 24 24">
    <path d="M21.123 4.26a.75.75 0 0 0-.002.002.75.75 0 0 0-.195.045.75.75 0 0 0-.201-.004l-19 7.5a.75.75 0 0 0 .17 1.44l6.355.907V19a.75.75 0 0 0 1.283.527l2.807-2.832 5.736 3.924a.75.75 0 0 0 1.164-.496l2.5-15a.75.75 0 0 0 0-.008.75.75 0 0 0-.01-.097.75.75 0 0 0-.017-.176.75.75 0 0 0-.016-.113.75.75 0 0 0 0-.004.75.75 0 0 0-.01-.01.75.75 0 0 0-.043-.06.75.75 0 0 0-.033-.089.75.75 0 0 0-.056-.035.75.75 0 0 0-.207-.168.75.75 0 0 0-.112-.052.75.75 0 0 0-.1-.045.75.75 0 0 0-.011-.006.75.75 0 0 0-.002 0zm-1.16 2.392-2.01 12.065-7.64-5.229Zm-4.461 1.325-6.691 4.738-3.903-.557ZM9.75 14.922l1.334.912-1.334 1.344Z" style="color:#000;fill:currentColor;stroke-linecap:round;stroke-linejoin:round;-inkscape-stroke:none"/>
</svg>
