<svg xmlns="http://www.w3.org/2000/svg" width="24" height="24" fill="none" stroke-width="1.5" viewBox="0 0 24 24">
    <path d="m17.754 7.291-13 4.5a.75.75 0 0 0 .01 1.42l4.326 1.441 4.379 4.38a.75.75 0 0 0 1.232-.264l4-10.5a.75.75 0 0 0 .006-.059.75.75 0 0 0 .031-.123.75.75 0 0 0-.004-.14.75.75 0 0 0 0-.008.75.75 0 0 0-.002-.073.75.75 0 0 0-.017-.072.75.75 0 0 0-.006-.04.75.75 0 0 0-.025-.026.75.75 0 0 0-.07-.159.75.75 0 0 0-.014-.002.75.75 0 0 0-.229-.193.75.75 0 0 0-.068-.049.75.75 0 0 0-.035-.025.75.75 0 0 0-.258.008.75.75 0 0 0-.256-.016m-1.33 2.74-2.713 7.117-3.05-3.05zm-3.184.41L9.377 13.17l-2.047-.684z" style="color:#000;fill:currentColor;stroke-linecap:round;stroke-linejoin:round;-inkscape-stroke:none"/>
    <path d="M12 1.25C6.072 1.25 1.25 6.072 1.25 12S6.072 22.75 12 22.75 22.75 17.928 22.75 12 17.928 1.25 12 1.25m0 1.5A9.239 9.239 0 0 1 21.25 12 9.239 9.239 0 0 1 12 21.25 9.239 9.239 0 0 1 2.75 12 9.239 9.239 0 0 1 12 2.75" style="color:#000;fill:currentColor;stroke-linecap:round;stroke-linejoin:round;-inkscape-stroke:none"/>
</svg>
