<svg xmlns="http://www.w3.org/2000/svg" width="24" height="24" fill="none" stroke-width="1.5" viewBox="0 0 24 24">
    <path d="M11.895 11.258a.75.75 0 0 0-.495.29.75.75 0 0 0 .149 1.052A4.24 4.24 0 0 1 13.25 16 4.24 4.24 0 0 1 9 20.25 4.24 4.24 0 0 1 4.75 16c0-1.396.668-2.625 1.701-3.4a.75.75 0 0 0 .149-1.051.75.75 0 0 0-1.051-.149A5.75 5.75 0 0 0 3.25 16 5.76 5.76 0 0 0 9 21.75 5.76 5.76 0 0 0 14.75 16a5.75 5.75 0 0 0-2.299-4.6.75.75 0 0 0-.556-.142" style="color:#000;fill:currentColor;stroke-linecap:round;stroke-linejoin:round;-inkscape-stroke:none"/>
    <path d="M6 2.25a.75.75 0 0 0-.75.75v9a.75.75 0 0 0 .75.75.75.75 0 0 0 .75-.75V3.75h4.5V12a.75.75 0 0 0 .75.75.75.75 0 0 0 .75-.75V3a.75.75 0 0 0-.75-.75Z" style="color:#000;fill:currentColor;stroke-linecap:round;stroke-linejoin:round;-inkscape-stroke:none"/>
    <path d="M12 2.25a.75.75 0 0 0-.75.75.75.75 0 0 0 .75.75h2a.75.75 0 0 0 .75-.75.75.75 0 0 0-.75-.75ZM12 5.25a.75.75 0 0 0-.75.75.75.75 0 0 0 .75.75h2a.75.75 0 0 0 .75-.75.75.75 0 0 0-.75-.75ZM12 8.25a.75.75 0 0 0-.75.75.75.75 0 0 0 .75.75h2a.75.75 0 0 0 .75-.75.75.75 0 0 0-.75-.75ZM19 2.25c-1.51 0-2.75 1.24-2.75 2.75S17.49 7.75 19 7.75 21.75 6.51 21.75 5 20.51 2.25 19 2.25m0 1.5c.7 0 1.25.55 1.25 1.25S19.7 6.25 19 6.25 17.75 5.7 17.75 5 18.3 3.75 19 3.75M9 10.25a.75.75 0 0 0-.75.75v2.563c-1.105.357-2 1.219-2 2.437 0 1.51 1.24 2.75 2.75 2.75s2.75-1.24 2.75-2.75c0-1.218-.895-2.08-2-2.437V11a.75.75 0 0 0-.75-.75m0 4.5c.7 0 1.25.55 1.25 1.25S9.7 17.25 9 17.25 7.75 16.7 7.75 16 8.3 14.75 9 14.75" style="color:#000;fill:currentColor;stroke-linecap:round;stroke-linejoin:round;-inkscape-stroke:none"/>
</svg>
