<svg xmlns="http://www.w3.org/2000/svg" width="24" height="24" fill="none" stroke-width="1.5" viewBox="0 0 24 24">
    <path d="M10.895 11.258a.75.75 0 0 0-.495.29.75.75 0 0 0 .149 1.052A4.24 4.24 0 0 1 12.25 16 4.24 4.24 0 0 1 8 20.25 4.24 4.24 0 0 1 3.75 16c0-1.396.668-2.625 1.701-3.4a.75.75 0 0 0 .149-1.051.75.75 0 0 0-1.051-.149A5.75 5.75 0 0 0 2.25 16 5.76 5.76 0 0 0 8 21.75 5.76 5.76 0 0 0 13.75 16a5.75 5.75 0 0 0-2.299-4.6.75.75 0 0 0-.556-.142" style="color:#000;fill:currentColor;stroke-linecap:round;stroke-linejoin:round;-inkscape-stroke:none"/>
    <path d="M5 2.25a.75.75 0 0 0-.75.75v9a.75.75 0 0 0 .75.75.75.75 0 0 0 .75-.75V3.75h4.5V12a.75.75 0 0 0 .75.75.75.75 0 0 0 .75-.75V3a.75.75 0 0 0-.75-.75Z" style="color:#000;fill:currentColor;stroke-linecap:round;stroke-linejoin:round;-inkscape-stroke:none"/>
    <path d="M11 2.25a.75.75 0 0 0-.75.75.75.75 0 0 0 .75.75h2a.75.75 0 0 0 .75-.75.75.75 0 0 0-.75-.75ZM11 5.25a.75.75 0 0 0-.75.75.75.75 0 0 0 .75.75h2a.75.75 0 0 0 .75-.75.75.75 0 0 0-.75-.75ZM11 8.25a.75.75 0 0 0-.75.75.75.75 0 0 0 .75.75h2a.75.75 0 0 0 .75-.75.75.75 0 0 0-.75-.75ZM8 5.25a.75.75 0 0 0-.75.75v7.563c-1.105.357-2 1.219-2 2.437 0 1.51 1.24 2.75 2.75 2.75s2.75-1.24 2.75-2.75c0-1.218-.895-2.08-2-2.437V6A.75.75 0 0 0 8 5.25m0 9.5c.7 0 1.25.55 1.25 1.25S8.7 17.25 8 17.25 6.75 16.7 6.75 16 7.3 14.75 8 14.75M19 5.25a.75.75 0 0 0-.75.75v10.188l-1.219-1.22a.75.75 0 0 0-1.062 0 .75.75 0 0 0 0 1.063l2.5 2.5a.75.75 0 0 0 1.062 0l2.5-2.5a.75.75 0 0 0 0-1.062.75.75 0 0 0-1.062 0l-1.219 1.219V6a.75.75 0 0 0-.75-.75" style="color:#000;fill:currentColor;stroke-linecap:round;stroke-linejoin:round;-inkscape-stroke:none"/>
</svg>
