<svg xmlns="http://www.w3.org/2000/svg" width="24" height="24" fill="none" stroke-width="1.5" viewBox="0 0 24 24">
    <path d="M10.668 1.332a10.7 10.7 0 0 0-4.043 1.357c-5.134 2.965-6.9 9.552-3.936 14.686s9.552 6.9 14.686 3.936 6.9-9.552 3.936-14.686c-2.223-3.85-6.486-5.806-10.643-5.293m.191 1.484a9.24 9.24 0 0 1 9.15 4.559 9.237 9.237 0 0 1-3.384 12.635 9.24 9.24 0 0 1-12.637-3.385A9.24 9.24 0 0 1 7.375 3.988a9.2 9.2 0 0 1 3.484-1.172" style="color:#000;fill:currentColor;stroke-linecap:round;stroke-linejoin:round;-inkscape-stroke:none"/>
    <path d="M13.928 1.436a.75.75 0 0 0-.756.744c-.047 5.506 2.726 10.278 7.873 13.687a.75.75 0 0 0 1.04-.21.75.75 0 0 0-.21-1.04C17.05 11.422 14.629 7.2 14.672 2.193a.75.75 0 0 0-.744-.757M2.34 8.035a.75.75 0 0 0-.453.354.75.75 0 0 0 .283 1.021c4.356 2.466 6.803 6.673 7.158 12.45a.75.75 0 0 0 .795.703.75.75 0 0 0 .703-.795c-.379-6.163-3.124-10.95-7.916-13.663a.75.75 0 0 0-.57-.07" style="color:#000;fill:currentColor;stroke-linecap:round;stroke-linejoin:round;-inkscape-stroke:none"/>
</svg>
