<svg xmlns="http://www.w3.org/2000/svg" width="24" height="24" fill="none" stroke-width="1.5" viewBox="0 0 24 24">
    <path d="M12 1.25C6.072 1.25 1.25 6.072 1.25 12S6.072 22.75 12 22.75 22.75 17.928 22.75 12 17.928 1.25 12 1.25m0 1.5A9.24 9.24 0 0 1 21.25 12 9.24 9.24 0 0 1 12 21.25 9.24 9.24 0 0 1 2.75 12 9.24 9.24 0 0 1 12 2.75" style="color:#000;fill:currentColor;stroke-linecap:round;stroke-linejoin:round;-inkscape-stroke:none"/>
    <path d="M18.951 3.816a.75.75 0 0 0-1.025.266c-2.794 4.745-2.779 10.265-.026 15.791a.75.75 0 0 0 1.006.336.75.75 0 0 0 .336-1.006c-2.58-5.18-2.563-10.046-.023-14.36a.75.75 0 0 0-.268-1.027M5.617 3.736a.75.75 0 0 0-.57.08.75.75 0 0 0-.266 1.028c2.54 4.313 2.557 9.18-.023 14.36a.75.75 0 0 0 .336 1.005.75.75 0 0 0 1.006-.336c2.753-5.526 2.768-11.046-.026-15.791a.75.75 0 0 0-.457-.346" style="color:#000;fill:currentColor;stroke-linecap:round;stroke-linejoin:round;-inkscape-stroke:none"/>
</svg>
