<svg xmlns="http://www.w3.org/2000/svg" width="24" height="24" fill="none" stroke-width="1.5" viewBox="0 0 24 24">
    <path d="M8 7.25a.75.75 0 0 0-.75.75.75.75 0 0 0 .75.75h3.25V16a.75.75 0 0 0 .75.75.75.75 0 0 0 .75-.75V8.75H16a.75.75 0 0 0 .75-.75.75.75 0 0 0-.75-.75h-4z" style="color:#000;fill:currentColor;stroke-linecap:round;stroke-linejoin:round;-inkscape-stroke:none"/>
    <path d="M5 2.25C3.49 2.25 2.25 3.49 2.25 5v5.5h1.5V5c0-.7.55-1.25 1.25-1.25h14c.7 0 1.25.55 1.25 1.25v5.5h1.5V5c0-1.51-1.24-2.75-2.75-2.75ZM2.25 13.5V19c0 1.51 1.24 2.75 2.75 2.75h14c1.51 0 2.75-1.24 2.75-2.75v-5.5h-1.5V19c0 .7-.55 1.25-1.25 1.25H5c-.7 0-1.25-.55-1.25-1.25v-5.5z" style="color:#000;fill:currentColor;stroke-linejoin:round;-inkscape-stroke:none"/>
    <path d="M19.5 9.75a.75.75 0 0 0-.75.75v3a.75.75 0 0 0 .75.75h3a.75.75 0 0 0 .75-.75v-3a.75.75 0 0 0-.75-.75Zm.75 1.5h1.5v1.5h-1.5zM1.5 9.75a.75.75 0 0 0-.75.75v3a.75.75 0 0 0 .75.75h3a.75.75 0 0 0 .75-.75v-3a.75.75 0 0 0-.75-.75Zm.75 1.5h1.5v1.5h-1.5z" style="color:#000;fill:currentColor;stroke-linejoin:round;-inkscape-stroke:none"/>
</svg>
