<svg xmlns="http://www.w3.org/2000/svg" width="24" height="24" fill="none" stroke-width="1.5" viewBox="0 0 24 24">
    <path d="M18 10.25a.75.75 0 0 0-.531.219l-2 2a.75.75 0 0 0 0 1.062.75.75 0 0 0 1.062 0l.719-.719v6.05l-.664-.83a.75.75 0 0 0-1.055-.118.75.75 0 0 0-.117 1.055l2 2.5.037.021a1 1 0 0 0 .059.059l.021.037a.8.8 0 0 0 .203.059.8.8 0 0 0 .227.09l.039.015.04-.016a.8.8 0 0 0 .226-.09.8.8 0 0 0 .203-.058l.031-.041.049-.055.037-.021 2-2.5a.75.75 0 0 0-.117-1.055.75.75 0 0 0-1.055.117l-.664.83v-6.049l.719.72a.75.75 0 0 0 1.062 0 .75.75 0 0 0 0-1.063l-2-2A.75.75 0 0 0 18 10.25M9 4.25a.75.75 0 0 0-.75.75v11.25H7a.75.75 0 0 0-.75.75.75.75 0 0 0 .75.75h4a.75.75 0 0 0 .75-.75.75.75 0 0 0-.75-.75H9.75V5A.75.75 0 0 0 9 4.25" style="color:#000;fill:currentColor;stroke-linecap:round;stroke-linejoin:round;-inkscape-stroke:none"/>
    <path d="M3 4.25a.75.75 0 0 0-.75.75v2a.75.75 0 0 0 .75.75.75.75 0 0 0 .75-.75V5.75h10.5V7a.75.75 0 0 0 .75.75.75.75 0 0 0 .75-.75V5a.75.75 0 0 0-.75-.75Z" style="color:#000;fill:currentColor;stroke-linecap:round;stroke-linejoin:round;-inkscape-stroke:none"/>
</svg>
