<svg xmlns="http://www.w3.org/2000/svg" width="24" height="24" fill="none" stroke-width="1.5" viewBox="0 0 24 24">
    <path d="M4.1 2.75A1.36 1.36 0 0 0 2.75 4.1v9.8c0 .737.613 1.35 1.35 1.35h2.767c.44 0 .846.23 1.072.607l2.711 4.518c.842 1.402 2.88 1.539 3.9.262.489-.61.647-1.424.423-2.172l-.965-3.215h4.373c1.794 0 3.126-1.742 2.654-3.473l-1.91-7a2.756 2.756 0 0 0-2.652-2.027Zm.15 1.5h12.223c.567 0 1.055.375 1.205.922l1.91 7a1.233 1.233 0 0 1-1.207 1.578h-4.574c-.884 0-1.547.892-1.293 1.738l1.021 3.408a.88.88 0 0 1-.156.803.862.862 0 0 1-1.443-.097l-2.71-4.516a2.76 2.76 0 0 0-2.359-1.336H4.25Z" style="color:#000;fill:currentColor;stroke-linecap:round;-inkscape-stroke:none"/>
    <path d="M7 2.75a.75.75 0 0 0-.75.75v11a.75.75 0 0 0 .75.75.75.75 0 0 0 .75-.75v-11A.75.75 0 0 0 7 2.75" style="color:#000;fill:currentColor;stroke-linecap:round;stroke-linejoin:round;-inkscape-stroke:none"/>
</svg>
