<svg xmlns="http://www.w3.org/2000/svg" width="24" height="24" fill="none" stroke-width="1.5" viewBox="0 0 24 24">
    <path d="M12.533 1.99a2.36 2.36 0 0 0-1.883 1.135L7.94 7.643a1.25 1.25 0 0 1-1.073.607H4.1A1.36 1.36 0 0 0 2.75 9.6v9.8c0 .737.613 1.35 1.35 1.35h12.373a2.756 2.756 0 0 0 2.652-2.027l1.91-7c.472-1.731-.86-3.473-2.654-3.473h-4.373l.965-3.215a2.38 2.38 0 0 0-.422-2.172 2.36 2.36 0 0 0-2.018-.873m.098 1.467a.88.88 0 0 1 .748.344c.181.226.24.525.156.803l-1.021 3.408c-.254.846.409 1.738 1.293 1.738h4.574c.843 0 1.429.765 1.207 1.578l-1.91 7c-.15.547-.638.922-1.205.922H4.25v-9.5h2.617c.965 0 1.863-.509 2.36-1.336l2.709-4.516a.88.88 0 0 1 .695-.441" style="color:#000;fill:currentColor;stroke-linecap:round;-inkscape-stroke:none"/>
    <path d="M7 8.25a.75.75 0 0 0-.75.75v11a.75.75 0 0 0 .75.75.75.75 0 0 0 .75-.75V9A.75.75 0 0 0 7 8.25" style="color:#000;fill:currentColor;stroke-linecap:round;stroke-linejoin:round;-inkscape-stroke:none"/>
</svg>
