<svg xmlns="http://www.w3.org/2000/svg" width="24" height="24" fill="none" stroke-width="1.5" viewBox="0 0 24 24">
    <path d="M4.6 2.25A1.36 1.36 0 0 0 3.25 3.6V6a.75.75 0 0 0 .75.75.75.75 0 0 0 .75-.75V3.75h14.5V6a.75.75 0 0 0 .75.75.75.75 0 0 0 .75-.75V3.6a1.36 1.36 0 0 0-1.35-1.35ZM4 17.25a.75.75 0 0 0-.75.75v2.4c0 .737.613 1.35 1.35 1.35h14.8a1.36 1.36 0 0 0 1.35-1.35V18a.75.75 0 0 0-.75-.75.75.75 0 0 0-.75.75v2.25H4.75V18a.75.75 0 0 0-.75-.75" style="color:#000;fill:currentColor;stroke-linecap:round;-inkscape-stroke:none"/>
    <path d="M12 8.25a.75.75 0 0 0-.75.75v6a.75.75 0 0 0 .75.75.75.75 0 0 0 .75-.75V9.75H15a.75.75 0 0 0 .75-.75.75.75 0 0 0-.75-.75ZM17.5 8.25a.75.75 0 0 0-.75.75v6a.75.75 0 0 0 .75.75.75.75 0 0 0 .75-.75V9.75h2.25a.75.75 0 0 0 .75-.75.75.75 0 0 0-.75-.75ZM3.5 8.25a.75.75 0 0 0-.75.75.75.75 0 0 0 .75.75h.75V15a.75.75 0 0 0 .75.75.75.75 0 0 0 .75-.75V9.75h.75A.75.75 0 0 0 7.25 9a.75.75 0 0 0-.75-.75H5Z" style="color:#000;fill:currentColor;stroke-linecap:round;stroke-linejoin:round;-inkscape-stroke:none"/>
    <path d="M12 11.25a.75.75 0 0 0-.75.75.75.75 0 0 0 .75.75h2.5a.75.75 0 0 0 .75-.75.75.75 0 0 0-.75-.75ZM17.5 11.25a.75.75 0 0 0-.75.75.75.75 0 0 0 .75.75H20a.75.75 0 0 0 .75-.75.75.75 0 0 0-.75-.75ZM9 8.25a.75.75 0 0 0-.75.75v6a.75.75 0 0 0 .75.75.75.75 0 0 0 .75-.75V9A.75.75 0 0 0 9 8.25" style="color:#000;fill:currentColor;stroke-linecap:round;stroke-linejoin:round;-inkscape-stroke:none"/>
</svg>
