<svg xmlns="http://www.w3.org/2000/svg" width="24" height="24" fill="none" stroke-width="1.5" viewBox="0 0 24 24">
    <path d="M9 1.25a.75.75 0 0 0-.75.75.75.75 0 0 0 .75.75h6a.75.75 0 0 0 .75-.75.75.75 0 0 0-.75-.75ZM5.014 6.25a.75.75 0 0 0-.535.21.75.75 0 0 0-.018 1.061l14 14.5a.75.75 0 0 0 1.06.018.75.75 0 0 0 .018-1.06l-14-14.5a.75.75 0 0 0-.525-.229" style="color:#000;fill:currentColor;stroke-linecap:round;stroke-linejoin:round;-inkscape-stroke:none"/>
    <path d="M12 9.25a.75.75 0 0 0-.75.75v4a.75.75 0 0 0 .75.75.75.75 0 0 0 .75-.75v-4a.75.75 0 0 0-.75-.75" style="color:#000;fill:currentColor;stroke-linecap:round;stroke-linejoin:round;-inkscape-stroke:none"/>
    <path d="M12 5.25c-1.071 0-2.1.193-3.05.547a.75.75 0 0 0-.442.965.75.75 0 0 0 .963.441A7.234 7.234 0 0 1 12 6.75 7.239 7.239 0 0 1 19.25 14c0 .964-.188 1.88-.527 2.719a.75.75 0 0 0 .414.976.75.75 0 0 0 .976-.414A8.732 8.732 0 0 0 20.75 14c0-4.824-3.926-8.75-8.75-8.75m-5.83 2.5a.75.75 0 0 0-.524.234A8.73 8.73 0 0 0 3.25 14c0 4.824 3.926 8.75 8.75 8.75a8.724 8.724 0 0 0 5.732-2.139.75.75 0 0 0 .077-1.058.75.75 0 0 0-1.059-.074A7.211 7.211 0 0 1 12 21.25 7.239 7.239 0 0 1 4.75 14c0-1.935.753-3.684 1.984-4.984a.75.75 0 0 0-.027-1.06.75.75 0 0 0-.537-.206" style="color:#000;fill:currentColor;stroke-linecap:round;stroke-linejoin:round;-inkscape-stroke:none"/>
</svg>
