<svg xmlns="http://www.w3.org/2000/svg" width="24" height="24" fill="none" stroke-width="1.5" viewBox="0 0 24 24">
    <path d="M10.05 9.857a.75.75 0 0 0-.53.22l-7.07 7.07a2.763 2.763 0 0 0 0 3.89 2.76 2.76 0 0 0 3.888 0l7.07-7.072a.75.75 0 0 0 0-1.06.75.75 0 0 0-1.06 0l-7.07 7.072a1.24 1.24 0 0 1-1.768 0 1.24 1.24 0 0 1 0-1.768l7.07-7.072a.75.75 0 0 0 0-1.06.75.75 0 0 0-.53-.22" style="color:#000;fill:currentColor;stroke-linecap:round;stroke-linejoin:round;-inkscape-stroke:none"/>
    <path d="M17.193 13.049a.75.75 0 0 0-.53.22.75.75 0 0 0 0 1.061l3.878 3.879a1.24 1.24 0 0 1 0 1.768 1.24 1.24 0 0 1-1.768 0l-6.209-6.21a.75.75 0 0 0-1.06 0 .75.75 0 0 0 0 1.061l6.209 6.21a2.76 2.76 0 0 0 3.889 0 2.763 2.763 0 0 0 0-3.892l-3.88-3.876a.75.75 0 0 0-.529-.221M4.291 1.018a.75.75 0 0 0-.918.113L1.959 2.545a.75.75 0 0 0-.111.916l2.12 3.535a.75.75 0 0 0 .88.326l1.683-.56 2.502 2.502a.75.75 0 0 0 1.06 0 .75.75 0 0 0 0-1.06L7.59 5.698l.56-1.68a.75.75 0 0 0-.324-.88ZM4.02 2.605l2.517 1.51-.396 1.196-1.196.398-1.511-2.518Z" style="color:#000;fill:currentColor;stroke-linecap:round;stroke-linejoin:round;-inkscape-stroke:none"/>
    <path d="M16.39 1.555a7 7 0 0 0-2.038.011c-1.378.2-2.758.78-3.772 1.793-2.01 2.01-2.166 5.13-1.228 7.522a.75.75 0 0 0 .972.424.75.75 0 0 0 .424-.973c-.75-1.915-.577-4.443.893-5.912.726-.726 1.821-1.209 2.925-1.37.664-.096 1.161.13 1.729.253l-2.037 2.035a.75.75 0 0 0-.217.463l-.283 3.111a.75.75 0 0 0 .814.815l3.112-.282a.75.75 0 0 0 .462-.216l2.036-2.036c.122.568.348 1.063.252 1.725-.16 1.104-.642 2.2-1.368 2.926-1.469 1.469-4 1.643-5.914.892a.75.75 0 0 0-.972.426.75.75 0 0 0 .425.97c2.392.938 5.512.782 7.522-1.228 1.013-1.013 1.59-2.391 1.791-3.77.2-1.377.037-2.773-.617-3.863a.75.75 0 0 0-1.174-.144l-2.85 2.848-1.943.175.176-1.943 2.85-2.848a.75.75 0 0 0-.145-1.173 5 5 0 0 0-1.824-.631" style="color:#000;fill:currentColor;stroke-linecap:round;stroke-linejoin:round;-inkscape-stroke:none"/>
</svg>
