<svg xmlns="http://www.w3.org/2000/svg" width="24" height="24" fill="none" stroke-width="1.5" viewBox="0 0 24 24">
    <path d="M3 2.25a.75.75 0 0 0-.75.75.75.75 0 0 0 .75.75h4.25v4.5H3a.75.75 0 0 0-.75.75.75.75 0 0 0 .75.75h5A.75.75 0 0 0 8.75 9V3A.75.75 0 0 0 8 2.25Z" style="color:#000;fill:currentColor;stroke-linecap:round;stroke-linejoin:round;-inkscape-stroke:none"/>
    <path d="M8 5.25a.75.75 0 0 0-.75.75.75.75 0 0 0 .75.75h6.25v10.5H8a.75.75 0 0 0-.75.75.75.75 0 0 0 .75.75h7a.75.75 0 0 0 .75-.75V6a.75.75 0 0 0-.75-.75Z" style="color:#000;fill:currentColor;stroke-linecap:round;stroke-linejoin:round;-inkscape-stroke:none"/>
    <path d="M15 11.25a.75.75 0 0 0-.75.75.75.75 0 0 0 .75.75h7a.75.75 0 0 0 .75-.75.75.75 0 0 0-.75-.75ZM3 14.25a.75.75 0 0 0-.75.75.75.75 0 0 0 .75.75h4.25v4.5H3a.75.75 0 0 0-.75.75.75.75 0 0 0 .75.75h5a.75.75 0 0 0 .75-.75v-6a.75.75 0 0 0-.75-.75Z" style="color:#000;fill:currentColor;stroke-linecap:round;stroke-linejoin:round;-inkscape-stroke:none"/>
</svg>
