<svg xmlns="http://www.w3.org/2000/svg" width="24" height="24" fill="none" stroke-width="1.5" viewBox="0 0 24 24">
    <path d="M9.5 7.75a.75.75 0 0 0-.75.75v7a.75.75 0 0 0 .75.75.75.75 0 0 0 .75-.75v-2.05h1.736l1.918 2.505a.75.75 0 0 0 1.051.14.75.75 0 0 0 .14-1.05l-1.433-1.873c.16-.052.252.007.414-.088.673-.395 1.174-1.264 1.174-2.484s-.501-2.09-1.174-2.485c-.672-.395-1.361-.365-1.719-.365Zm.75 1.5h2.107c.358 0 .739.029.96.158.22.13.433.312.433 1.192 0 .88-.213 1.061-.434 1.191-.22.13-.601.158-.959.158H10.25Z" style="color:#000;fill:currentColor;stroke-linecap:round;stroke-linejoin:round;-inkscape-stroke:none"/>
    <path d="M12 1.25C6.072 1.25 1.25 6.072 1.25 12S6.072 22.75 12 22.75 22.75 17.928 22.75 12 17.928 1.25 12 1.25m0 1.5A9.239 9.239 0 0 1 21.25 12 9.239 9.239 0 0 1 12 21.25 9.239 9.239 0 0 1 2.75 12 9.239 9.239 0 0 1 12 2.75" style="color:#000;fill:currentColor;stroke-linecap:round;stroke-linejoin:round;-inkscape-stroke:none"/>
</svg>
