<svg xmlns="http://www.w3.org/2000/svg" width="24" height="24" fill="none" stroke-width="1.5" viewBox="0 0 24 24">
    <path d="M9.61 6.25a3.371 3.371 0 0 0-3.36 3.36c0 .62.52 1.14 1.14 1.14h9.22c.62 0 1.14-.52 1.14-1.14a3.371 3.371 0 0 0-3.36-3.36Zm0 1.5h4.78c.895 0 1.527.666 1.712 1.5H7.898c.185-.834.817-1.5 1.711-1.5" style="color:#000;fill:currentColor;stroke-linecap:round;stroke-linejoin:round;-inkscape-stroke:none"/>
    <path d="M9 2.25C5.281 2.25 2.25 5.281 2.25 9v4c0 3.719 3.031 6.75 6.75 6.75h6c3.719 0 6.75-3.031 6.75-6.75V9c0-3.719-3.031-6.75-6.75-6.75Zm0 1.5h6A5.239 5.239 0 0 1 20.25 9v4A5.239 5.239 0 0 1 15 18.25H9A5.239 5.239 0 0 1 3.75 13V9A5.239 5.239 0 0 1 9 3.75" style="color:#000;fill:currentColor;stroke-linecap:round;stroke-linejoin:round;-inkscape-stroke:none"/>
    <path d="M16.512 14.441a.75.75 0 0 0-1.059.055l-.01.012a.75.75 0 0 0 .055 1.058.75.75 0 0 0 1.059-.054l.01-.012a.75.75 0 0 0-.055-1.059M7.97 14.25a.75.75 0 0 0-.517.246l-.01.012a.75.75 0 0 0 .055 1.058.75.75 0 0 0 1.059-.054l.01-.012a.75.75 0 0 0-.055-1.059.75.75 0 0 0-.541-.191" style="color:#000;fill:currentColor;stroke-linecap:round;stroke-linejoin:round;-inkscape-stroke:none"/>
    <path d="M10.418 18.254a.75.75 0 0 0-.504.277l-2 2.5a.75.75 0 0 0 .117 1.055.75.75 0 0 0 1.055-.117l2-2.5a.75.75 0 0 0-.117-1.055.75.75 0 0 0-.551-.16M13.582 18.254a.75.75 0 0 0-.55.16.75.75 0 0 0-.118 1.055l2 2.5a.75.75 0 0 0 1.055.117.75.75 0 0 0 .117-1.055l-2-2.5a.75.75 0 0 0-.504-.277M16.582 18.254a.75.75 0 0 0-.55.16.75.75 0 0 0-.118 1.055l2 2.5a.75.75 0 0 0 1.055.117.75.75 0 0 0 .117-1.055l-2-2.5a.75.75 0 0 0-.504-.277M7.418 18.254a.75.75 0 0 0-.504.277l-2 2.5a.75.75 0 0 0 .117 1.055.75.75 0 0 0 1.055-.117l2-2.5a.75.75 0 0 0-.117-1.055.75.75 0 0 0-.551-.16" style="color:#000;fill:currentColor;stroke-linecap:round;-inkscape-stroke:none"/>
</svg>
