<svg xmlns="http://www.w3.org/2000/svg" width="24" height="24" fill="none" stroke-width="1.5" viewBox="0 0 24 24">
    <path d="M14.97 15.25a.75.75 0 0 0-.517.246l-.01.012a.75.75 0 0 0 .055 1.058.75.75 0 0 0 1.059-.054l.01-.012a.75.75 0 0 0-.055-1.059.75.75 0 0 0-.541-.191M8.97 15.25a.75.75 0 0 0-.517.246l-.01.012a.75.75 0 0 0 .055 1.058.75.75 0 0 0 1.059-.054l.01-.012a.75.75 0 0 0-.055-1.059.75.75 0 0 0-.541-.191" style="color:#000;fill:currentColor;stroke-linecap:round;stroke-linejoin:round;-inkscape-stroke:none"/>
    <path d="M7 1.25a.75.75 0 0 0-.75.75.75.75 0 0 0 .75.75h6.04l-.626 2.5H9A5.761 5.761 0 0 0 3.25 11v7c0 1.51 1.24 2.75 2.75 2.75h12c1.51 0 2.75-1.24 2.75-2.75v-7A5.761 5.761 0 0 0 15 5.25h-1.04l.626-2.5H17a.75.75 0 0 0 .75-.75.75.75 0 0 0-.75-.75h-3zm2 5.5h6A4.239 4.239 0 0 1 19.25 11v7c0 .7-.55 1.25-1.25 1.25H6c-.7 0-1.25-.55-1.25-1.25v-7A4.239 4.239 0 0 1 9 6.75" style="color:#000;fill:currentColor;stroke-linecap:round;stroke-linejoin:round;-inkscape-stroke:none"/>
    <path d="M10.418 19.254a.75.75 0 0 0-.504.277l-2 2.5a.75.75 0 0 0 .117 1.055.75.75 0 0 0 1.055-.117l2-2.5a.75.75 0 0 0-.117-1.055.75.75 0 0 0-.551-.16M13.582 19.254a.75.75 0 0 0-.55.16.75.75 0 0 0-.118 1.055l2 2.5a.75.75 0 0 0 1.055.117.75.75 0 0 0 .117-1.055l-2-2.5a.75.75 0 0 0-.504-.277M16.582 19.254a.75.75 0 0 0-.55.16.75.75 0 0 0-.118 1.055l2 2.5a.75.75 0 0 0 1.055.117.75.75 0 0 0 .117-1.055l-2-2.5a.75.75 0 0 0-.504-.277M7.418 19.254a.75.75 0 0 0-.504.277l-2 2.5a.75.75 0 0 0 .117 1.055.75.75 0 0 0 1.055-.117l2-2.5a.75.75 0 0 0-.117-1.055.75.75 0 0 0-.551-.16" style="color:#000;fill:currentColor;stroke-linecap:round;-inkscape-stroke:none"/>
    <path d="M9.61 8.25a3.371 3.371 0 0 0-3.36 3.36c0 .62.52 1.14 1.14 1.14h9.22c.62 0 1.14-.52 1.14-1.14a3.371 3.371 0 0 0-3.36-3.36Zm0 1.5h4.78c.895 0 1.527.666 1.712 1.5H7.898c.185-.834.817-1.5 1.711-1.5" style="color:#000;fill:currentColor;stroke-linecap:round;stroke-linejoin:round;-inkscape-stroke:none"/>
</svg>
