<svg xmlns="http://www.w3.org/2000/svg" width="24" height="24" fill="none" stroke-width="1.5" viewBox="0 0 24 24">
    <path d="M17 2.25A3.761 3.761 0 0 0 13.25 6v12A3.761 3.761 0 0 0 17 21.75h2A3.761 3.761 0 0 0 22.75 18V6A3.761 3.761 0 0 0 19 2.25Zm0 1.5h2c1.252 0 2.25.998 2.25 2.25v12c0 1.252-.998 2.25-2.25 2.25h-2A2.239 2.239 0 0 1 14.75 18V6c0-1.252.998-2.25 2.25-2.25" style="color:#000;fill:currentColor;-inkscape-stroke:none"/>
    <path d="M6 2.25A4.761 4.761 0 0 0 1.25 7v10A4.761 4.761 0 0 0 6 21.75h2a.75.75 0 0 0 .75-.75.75.75 0 0 0-.75-.75H6A3.239 3.239 0 0 1 2.75 17V7A3.239 3.239 0 0 1 6 3.75h2A.75.75 0 0 0 8.75 3 .75.75 0 0 0 8 2.25Z" style="color:#000;fill:currentColor;stroke-linecap:round;stroke-linejoin:round;-inkscape-stroke:none"/>
    <path d="M9 8.25a.75.75 0 0 0-.531.219l-3 3A.75.75 0 0 0 5.25 12a.75.75 0 0 0 .219.531l3 3a.75.75 0 0 0 1.062 0 .75.75 0 0 0 0-1.062L7.812 12.75H14a.75.75 0 0 0 .75-.75.75.75 0 0 0-.75-.75H7.813L9.53 9.531a.75.75 0 0 0 0-1.062A.75.75 0 0 0 9 8.25" style="color:#000;fill:currentColor;stroke-linecap:round;stroke-linejoin:round;-inkscape-stroke:none"/>
</svg>
