<svg xmlns="http://www.w3.org/2000/svg" width="24" height="24" fill="none" stroke-width="1.5" viewBox="0 0 24 24">
    <path d="M13 1.25c-1.51 0-2.75 1.24-2.75 2.75S11.49 6.75 13 6.75 15.75 5.51 15.75 4 14.51 1.25 13 1.25m0 1.5c.7 0 1.25.55 1.25 1.25S13.7 5.25 13 5.25 11.75 4.7 11.75 4 12.3 2.75 13 2.75M11.082 6.682a.75.75 0 0 0-1.055.117L6.72 10.934a.75.75 0 0 0 .056.998l3.768 3.77-1.854 4.073a.75.75 0 0 0 .374.995.75.75 0 0 0 .992-.374l2.068-4.548a.75.75 0 0 0-.152-.84l-3.66-3.662 2.888-3.61a.75.75 0 0 0-.117-1.054" style="color:#000;fill:currentColor;stroke-linecap:round;stroke-linejoin:round;-inkscape-stroke:none"/>
    <path d="M8.24 4.596a.75.75 0 0 0-.967.066L3.887 7.971a.75.75 0 0 0-.014 1.06.75.75 0 0 0 1.06.014L7.868 6.18l2.237 1.642 2.84 3.246a.75.75 0 0 0 .564.258h1.722a.75.75 0 0 0 .75-.75.75.75 0 0 0-.75-.75h-1.382l-2.67-3.053a.75.75 0 0 0-.121-.11ZM7.04 13.975a.75.75 0 0 0-.565.11l-1.051.702H2.342a.75.75 0 0 0-.75.75.75.75 0 0 0 .75.75H5.65a.75.75 0 0 0 .416-.125l1.24-.828a.75.75 0 0 0 .21-1.04.75.75 0 0 0-.477-.32" style="color:#000;fill:currentColor;stroke-linecap:round;stroke-linejoin:round;-inkscape-stroke:none"/>
    <path d="M18.65 7.25a.75.75 0 0 0-.75.75v10.879L3.246 20.793a.75.75 0 0 0-.646.842.75.75 0 0 0 .84.646l15.308-2a.75.75 0 0 0 .652-.744V8a.75.75 0 0 0-.75-.75" style="color:#000;fill:currentColor;stroke-linecap:round;stroke-linejoin:round;-inkscape-stroke:none"/>
    <path d="m20.393 5.441-2.24 2a.75.75 0 0 0-.007.004l-1.65 1.5a.75.75 0 0 0-.05 1.059.75.75 0 0 0 1.058.05l1.648-1.497 2.239-1.998a.75.75 0 0 0 .06-1.059.75.75 0 0 0-1.058-.059M18.639 18.787a.75.75 0 0 0-.526.229.75.75 0 0 0 .016 1.06l2.24 2.172a.75.75 0 0 0 1.06-.016.75.75 0 0 0-.015-1.06l-2.24-2.174a.75.75 0 0 0-.535-.21" style="color:#000;fill:currentColor;stroke-linecap:round;stroke-linejoin:round;-inkscape-stroke:none"/>
</svg>
