<svg xmlns="http://www.w3.org/2000/svg" width="24" height="24" fill="none" stroke-width="1.5" viewBox="0 0 24 24">
    <path d="M12 9.25a.75.75 0 0 0-.75.75v12a.75.75 0 0 0 .75.75.75.75 0 0 0 .75-.75v-7.537l3.586-1.793a.75.75 0 0 0 .334-1.006.75.75 0 0 0-1.006-.334l-2.914 1.457V10a.75.75 0 0 0-.75-.75M12 1.25A5.761 5.761 0 0 0 6.25 7a.75.75 0 0 0 .75.75.75.75 0 0 0 .75-.75A4.239 4.239 0 0 1 12 2.75 4.239 4.239 0 0 1 16.25 7a.75.75 0 0 0 .75.75.75.75 0 0 0 .75-.75A5.761 5.761 0 0 0 12 1.25" style="color:#000;fill:currentColor;stroke-linecap:round;stroke-linejoin:round;-inkscape-stroke:none"/>
    <path d="M7.5 6.25c-3.443 0-6.25 2.807-6.25 6.25s2.807 6.25 6.25 6.25H12a.75.75 0 0 0 .75-.75.75.75 0 0 0-.75-.75H7.5a4.739 4.739 0 0 1-4.75-4.75A4.739 4.739 0 0 1 7.5 7.75H9A.75.75 0 0 0 9.75 7 .75.75 0 0 0 9 6.25Z" style="color:#000;fill:currentColor;stroke-linecap:round;stroke-linejoin:round;-inkscape-stroke:none"/>
    <path d="M17.066 6.275a.75.75 0 0 0-.812.68.75.75 0 0 0 .68.815 4.741 4.741 0 0 1 4.316 4.73 4.739 4.739 0 0 1-4.75 4.75H12a.75.75 0 0 0-.75.75.75.75 0 0 0 .75.75h4.5c3.443 0 6.25-2.807 6.25-6.25a6.26 6.26 0 0 0-5.684-6.225" style="color:#000;fill:currentColor;stroke-linecap:round;stroke-linejoin:round;-inkscape-stroke:none"/>
</svg>
