<svg xmlns="http://www.w3.org/2000/svg" width="24" height="24" fill="none" stroke-width="1.5" viewBox="0 0 24 24">
    <path d="M10.727 7.803a.75.75 0 0 0-.465.562l-1 5.5a.75.75 0 0 0 .25.705l3.275 2.807.467 4.205a.75.75 0 0 0 .828.664.75.75 0 0 0 .664-.828l-.5-4.5a.75.75 0 0 0-.258-.488l-3.174-2.72.707-3.882 3.03 2.272a.75.75 0 0 0 .785.07l3-1.5a.75.75 0 0 0 .334-1.006.75.75 0 0 0-1.006-.334l-2.584 1.291-3.63-2.72a.75.75 0 0 0-.723-.098" style="color:#000;fill:currentColor;stroke-linecap:round;stroke-linejoin:round;-inkscape-stroke:none"/>
    <path d="M18 7.75a.75.75 0 0 0-.75.75v13a.75.75 0 0 0 .75.75.75.75 0 0 0 .75-.75v-13a.75.75 0 0 0-.75-.75M9.73 16.3a.75.75 0 0 0-.416.395l-2 4.5a.75.75 0 0 0 .381.99.75.75 0 0 0 .99-.38l2-4.5a.75.75 0 0 0-.38-.99.75.75 0 0 0-.575-.014M8.084 7.875c-.926.617-1.579 1.574-2.045 2.373s-.736 1.473-.736 1.473a.75.75 0 0 0 .361.949l2 1a.75.75 0 0 0 1.006-.334.75.75 0 0 0-.334-1.006l-1.332-.666c.109-.233.12-.299.332-.662.409-.7 1.006-1.494 1.58-1.877a.75.75 0 0 0 .209-1.041.75.75 0 0 0-1.041-.209M12 1.75c-1.51 0-2.75 1.24-2.75 2.75S10.49 7.25 12 7.25s2.75-1.24 2.75-2.75S13.51 1.75 12 1.75m0 1.5c.7 0 1.25.55 1.25 1.25S12.7 5.75 12 5.75s-1.25-.55-1.25-1.25.55-1.25 1.25-1.25" style="color:#000;fill:currentColor;stroke-linecap:round;stroke-linejoin:round;-inkscape-stroke:none"/>
</svg>
