<svg xmlns="http://www.w3.org/2000/svg" width="24" height="24" fill="none" stroke-width="1.5" viewBox="0 0 24 24">
    <path d="M5 2.25C3.49 2.25 2.25 3.49 2.25 5v14c0 1.51 1.24 2.75 2.75 2.75h14c1.51 0 2.75-1.24 2.75-2.75V5c0-1.51-1.24-2.75-2.75-2.75Zm0 1.5h14c.7 0 1.25.55 1.25 1.25v14c0 .7-.55 1.25-1.25 1.25H5c-.7 0-1.25-.55-1.25-1.25V5c0-.7.55-1.25 1.25-1.25" style="color:#000;fill:currentColor;stroke-linecap:round;stroke-linejoin:round;-inkscape-stroke:none"/>
    <path d="M6.6 5.25A1.36 1.36 0 0 0 5.25 6.6v10.8c0 .737.613 1.35 1.35 1.35h3.8a1.36 1.36 0 0 0 1.35-1.35V6.6a1.36 1.36 0 0 0-1.35-1.35Zm.15 1.5h3.5v10.5h-3.5zM13.6 5.25a1.36 1.36 0 0 0-1.35 1.35v6.8c0 .737.613 1.35 1.35 1.35h3.8a1.36 1.36 0 0 0 1.35-1.35V6.6a1.36 1.36 0 0 0-1.35-1.35Zm.15 1.5h3.5v6.5h-3.5z" style="color:#000;fill:currentColor;stroke-linecap:round;stroke-linejoin:round;-inkscape-stroke:none"/>
</svg>
