<svg xmlns="http://www.w3.org/2000/svg" width="24" height="24" fill="none" stroke-width="1.5" viewBox="0 0 24 24">
    <path d="M7.955 2.42c-.407.227-.705.647-.705 1.156V21a.75.75 0 0 0 .75.75.75.75 0 0 0 .75-.75v-4.598l9.389-6.26c.794-.529.774-1.769-.037-2.27L9.31 2.43c-.434-.268-.95-.237-1.356-.01m.795 1.426 8.363 5.177-8.363 5.575Z" style="color:#000;fill:currentColor;stroke-linecap:round;stroke-linejoin:round;-inkscape-stroke:none"/>
    <path d="m14.074 5.906-6.5 4.477a.75.75 0 0 0-.191 1.043.75.75 0 0 0 1.043.191l6.5-4.474a.75.75 0 0 0 .191-1.045.75.75 0 0 0-1.043-.192" style="color:#000;fill:currentColor;stroke-linecap:round;stroke-linejoin:round;-inkscape-stroke:none"/>
</svg>
