<svg xmlns="http://www.w3.org/2000/svg" width="24" height="24" fill="none" stroke-width="1.5" viewBox="0 0 24 24">
    <path d="M7 11.25c-1.51 0-2.75 1.24-2.75 2.75S5.49 16.75 7 16.75 9.75 15.51 9.75 14 8.51 11.25 7 11.25m0 1.5c.7 0 1.25.55 1.25 1.25S7.7 15.25 7 15.25 5.75 14.7 5.75 14 6.3 12.75 7 12.75M17 11.25c-1.51 0-2.75 1.24-2.75 2.75s1.24 2.75 2.75 2.75 2.75-1.24 2.75-2.75-1.24-2.75-2.75-2.75m0 1.5c.7 0 1.25.55 1.25 1.25s-.55 1.25-1.25 1.25-1.25-.55-1.25-1.25.55-1.25 1.25-1.25" style="color:#000;fill:currentColor;stroke-linecap:round;stroke-linejoin:round;stroke-miterlimit:1.5;-inkscape-stroke:none"/>
    <path d="M2.6 2.25A1.36 1.36 0 0 0 1.25 3.6v9.8c0 .737.613 1.35 1.35 1.35h2.05A.75.75 0 0 0 5.4 14a.75.75 0 0 0-.75-.75h-1.9v-9.5h10.5V14a.75.75 0 0 0 .75.75.75.75 0 0 0 .75-.75V3.6a1.36 1.36 0 0 0-1.35-1.35Z" style="color:#000;fill:currentColor;stroke-linecap:round;-inkscape-stroke:none"/>
    <path d="M9.05 13.25a.75.75 0 0 0-.75.75.75.75 0 0 0 .75.75H14a.75.75 0 0 0 .75-.75.75.75 0 0 0-.75-.75ZM14 5.25a.75.75 0 0 0-.75.75.75.75 0 0 0 .75.75h5.512l1.738 3.906v2.594H19.5a.75.75 0 0 0-.75.75.75.75 0 0 0 .75.75h1.9a1.36 1.36 0 0 0 1.35-1.35v-2.773c0-.189-.04-.374-.117-.547l-1.79-4.03a1.354 1.354 0 0 0-1.234-.8Z" style="color:#000;fill:currentColor;stroke-linecap:round;-inkscape-stroke:none"/>
    <path d="M14 13.25a.75.75 0 0 0-.75.75.75.75 0 0 0 .75.75h1a.75.75 0 0 0 .75-.75.75.75 0 0 0-.75-.75Z" style="color:#000;fill:currentColor;stroke-linecap:round;-inkscape-stroke:none"/>
    <path d="M4.75 17.5a.75.75 0 0 0-.531.219l-1.75 1.75A.75.75 0 0 0 2.25 20a.75.75 0 0 0 .219.531l1.75 1.75a.75.75 0 0 0 1.062 0 .75.75 0 0 0 0-1.062l-.468-.469h14.125l-.47.469a.75.75 0 0 0 0 1.062.75.75 0 0 0 1.063 0l1.75-1.75a.75.75 0 0 0 .194-.338.75.75 0 0 0 0-.13A.75.75 0 0 0 21.5 20a.75.75 0 0 0-.025-.129.75.75 0 0 0-.02-.098.75.75 0 0 0-.174-.304l-1.75-1.75a.75.75 0 0 0-1.062 0 .75.75 0 0 0 0 1.062l.468.469H4.813l.47-.469a.75.75 0 0 0 0-1.062.75.75 0 0 0-.532-.219" style="color:#000;fill:currentColor;stroke-linecap:round;stroke-linejoin:round;-inkscape-stroke:none"/>
</svg>
