<svg xmlns="http://www.w3.org/2000/svg" width="24" height="24" fill="none" stroke-width="1.5" viewBox="0 0 24 24">
    <path d="M7 12.25c-1.51 0-2.75 1.24-2.75 2.75S5.49 17.75 7 17.75 9.75 16.51 9.75 15 8.51 12.25 7 12.25m0 1.5c.7 0 1.25.55 1.25 1.25S7.7 16.25 7 16.25 5.75 15.7 5.75 15 6.3 13.75 7 13.75" style="color:#000;fill:currentColor;stroke-linecap:round;stroke-linejoin:round;stroke-miterlimit:1.5;-inkscape-stroke:none"/>
    <path d="M2.6 3.25A1.36 1.36 0 0 0 1.25 4.6v9.8c0 .737.613 1.35 1.35 1.35h2.05A.75.75 0 0 0 5.4 15a.75.75 0 0 0-.75-.75h-1.9v-9.5h10.5V15a.75.75 0 0 0 .75.75.75.75 0 0 0 .75-.75V4.6a1.36 1.36 0 0 0-1.35-1.35Z" style="color:#000;fill:currentColor;stroke-linecap:round;-inkscape-stroke:none"/>
    <path d="M9.049 14.25a.75.75 0 0 0-.75.75.75.75 0 0 0 .75.75H14a.75.75 0 0 0 .75-.75.75.75 0 0 0-.75-.75ZM14 6.25a.75.75 0 0 0-.75.75.75.75 0 0 0 .75.75h5.512l1.238 2.781V12a.75.75 0 0 0 .75.75.75.75 0 0 0 .75-.75v-1.498q0-.285-.117-.547l-1.29-2.904a1.35 1.35 0 0 0-1.234-.801Z" style="color:#000;fill:currentColor;stroke-linecap:round;-inkscape-stroke:none"/>
    <path d="M19.5 17.441c-2.327 2.086-3.22 5.35-3.22 5.35a.75.75 0 0 0 .511.93.75.75 0 0 0 .93-.512s.906-2.972 2.779-4.65a.75.75 0 0 0 .059-1.059.75.75 0 0 0-1.059-.059" style="color:#000;fill:currentColor;stroke-linecap:round;stroke-linejoin:round;-inkscape-stroke:none"/>
    <path d="m21.979 14.285-2.985.281a3.823 3.823 0 0 0-3.437 4.17 3.854 3.854 0 0 0 4.181 3.448l.135-.012a3.96 3.96 0 0 0 3.559-4.318l-.256-2.58a1.11 1.11 0 0 0-1.197-.989m-.256 1.531.215 2.186a2.43 2.43 0 0 1-2.206 2.676l-.134.013a2.335 2.335 0 0 1-2.55-2.101 2.296 2.296 0 0 1 2.085-2.53z" style="color:#000;fill:currentColor;stroke-linecap:round;stroke-linejoin:round;-inkscape-stroke:none"/>
</svg>
