<svg xmlns="http://www.w3.org/2000/svg" width="24" height="24" fill="none" stroke-width="1.5" viewBox="0 0 24 24">
    <path d="M3.236 13.29a.75.75 0 0 0-.947.474.75.75 0 0 0 .475.947l18 6a.75.75 0 0 0 .947-.475.75.75 0 0 0-.475-.947z" style="color:#000;fill:currentColor;stroke-linecap:round;stroke-linejoin:round;-inkscape-stroke:none"/>
    <path d="M16 9.25a.75.75 0 0 0-.75.75v1a.75.75 0 0 0 .75.75.75.75 0 0 0 .75-.75v-1a.75.75 0 0 0-.75-.75M12 8.25a.75.75 0 0 0-.75.75v1a.75.75 0 0 0 .75.75.75.75 0 0 0 .75-.75V9a.75.75 0 0 0-.75-.75M8 7.25a.75.75 0 0 0-.75.75v1a.75.75 0 0 0 .75.75.75.75 0 0 0 .75-.75V8A.75.75 0 0 0 8 7.25" style="color:#000;fill:currentColor;stroke-linecap:round;-inkscape-stroke:none"/>
    <path d="M12 2.25A9.75 9.75 0 0 0 2.25 12v9a.75.75 0 0 0 .75.75h18a.75.75 0 0 0 .75-.75v-9A9.75 9.75 0 0 0 12 2.25m0 1.5A8.25 8.25 0 0 1 20.25 12v8.25H3.75V12A8.25 8.25 0 0 1 12 3.75" style="color:#000;fill:currentColor;stroke-linecap:round;stroke-linejoin:round;-inkscape-stroke:none"/>
</svg>
