<svg xmlns="http://www.w3.org/2000/svg" width="24" height="24" fill="none" stroke-width="1.5" viewBox="0 0 24 24">
    <path d="M4 6.25C2.49 6.25 1.25 7.49 1.25 9v11c0 1.51 1.24 2.75 2.75 2.75h16c1.51 0 2.75-1.24 2.75-2.75V9c0-1.51-1.24-2.75-2.75-2.75Zm0 1.5h16c.7 0 1.25.55 1.25 1.25v11c0 .7-.55 1.25-1.25 1.25H4c-.7 0-1.25-.55-1.25-1.25V9c0-.7.55-1.25 1.25-1.25" style="color:#000;fill:currentColor;-inkscape-stroke:none"/>
    <path d="M13.656 12.078a.75.75 0 0 0-.529.22l-2.828 2.829a.75.75 0 0 0 0 1.06.75.75 0 0 0 1.06 0l2.829-2.828a.75.75 0 0 0 0-1.06.75.75 0 0 0-.532-.22" style="color:#000;fill:currentColor;stroke-linecap:round;stroke-linejoin:round;-inkscape-stroke:none"/>
    <path d="M13.656 9.25a.75.75 0 0 0-.529.219 2.763 2.763 0 0 0 0 3.89 2.76 2.76 0 0 0 3.889 0 .75.75 0 0 0 0-1.06.75.75 0 0 0-1.06 0 1.24 1.24 0 0 1-1.768 0 1.24 1.24 0 0 1 0-1.768.75.75 0 0 0 0-1.062.75.75 0 0 0-.532-.219M9.414 14.326c-.705 0-1.411.267-1.945.801a.75.75 0 0 0 0 1.06.75.75 0 0 0 1.062 0 1.24 1.24 0 0 1 1.768 0 1.24 1.24 0 0 1 0 1.768.75.75 0 0 0 0 1.06.75.75 0 0 0 1.06 0 2.76 2.76 0 0 0 0-3.888 2.74 2.74 0 0 0-1.945-.8M8.5 1.75a.75.75 0 0 0-.531.219.75.75 0 0 0 0 1.062l3.5 3.5a.75.75 0 0 0 1.062 0l3.5-3.5a.75.75 0 0 0 0-1.062.75.75 0 0 0-1.062 0L12 4.937 9.031 1.97A.75.75 0 0 0 8.5 1.75" style="color:#000;fill:currentColor;stroke-linecap:round;stroke-linejoin:round;-inkscape-stroke:none"/>
</svg>
