<svg xmlns="http://www.w3.org/2000/svg" width="24" height="24" fill="none" stroke-width="1.5" viewBox="0 0 24 24">
    <path d="M23.217 2.293a.75.75 0 0 0-.598.072s-1.77.979-2.746 1.346c-.63-.562-1.298-1.098-2.123-1.305a5.231 5.231 0 0 0-6.5 5.145v.17c-1.38-.067-2.743-.36-3.982-.985a9.914 9.914 0 0 1-3.655-3.158.75.75 0 0 0-1.299.127s-1.073 2.39-.939 5.34c.12 2.637 1.437 5.736 5.064 7.877-1.676.872-3.507 1.413-5.41 1.338a.75.75 0 0 0-.392 1.406c4.706 2.615 9.978 2.632 14.09.443 4.11-2.188 7.023-6.61 7.023-12.6a.75.75 0 0 0 0-.001c0-.222-.036-.44-.064-.66.517-.617.984-1.35 1.33-2.047a22.42 22.42 0 0 0 .681-1.514.75.75 0 0 0-.48-.994m-5.832 1.568a3.735 3.735 0 0 1 1.91 1.172.75.75 0 0 0 .781.225c.52-.157.719-.34 1.272-.617-.326.586-.68 1.235-.955 1.505a.75.75 0 0 0-.21.674c.044.228.066.46.067.692 0 5.51-2.588 9.337-6.227 11.273-2.928 1.559-6.554 1.8-10.1.621 1.594-.325 3.137-.851 4.499-1.775a.75.75 0 0 0-.117-1.307c-4.272-1.898-5.314-4.797-5.43-7.347a10.54 10.54 0 0 1 .436-3.514c.944 1.048 2.015 1.975 3.283 2.613A11.41 11.41 0 0 0 12.02 9.29a.75.75 0 0 0 .73-.748v-1a.75.75 0 0 0 0-.012 3.727 3.727 0 0 1 4.635-3.668" style="color:#000;fill:currentColor;stroke-linecap:round;stroke-linejoin:round;-inkscape-stroke:none"/>
</svg>
