<svg xmlns="http://www.w3.org/2000/svg" width="24" height="24" fill="none" stroke-width="1.5" viewBox="0 0 24 24">
    <path d="M2 15.25a.75.75 0 0 0-.75.75v3a.75.75 0 0 0 .75.75.75.75 0 0 0 .75-.75v-3a.75.75 0 0 0-.75-.75M14 4.25c-1.51 0-2.75 1.24-2.75 2.75v6a.75.75 0 0 0 .75.75.75.75 0 0 0 .75-.75V7c0-.7.55-1.25 1.25-1.25h4c.7 0 1.25.55 1.25 1.25v2a.75.75 0 0 0 .75.75.75.75 0 0 0 .75-.75V7c0-1.51-1.24-2.75-2.75-2.75Z" style="color:#000;fill:currentColor;stroke-linecap:round;stroke-linejoin:round;-inkscape-stroke:none"/>
    <path d="M6 4.25C4.49 4.25 3.25 5.49 3.25 7v2a.75.75 0 0 0 .75.75.75.75 0 0 0 .75-.75V7c0-.7.55-1.25 1.25-1.25h4c.7 0 1.25.55 1.25 1.25v6a.75.75 0 0 0 .75.75.75.75 0 0 0 .75-.75V7c0-1.51-1.24-2.75-2.75-2.75Z" style="color:#000;fill:currentColor;stroke-linecap:round;stroke-linejoin:round;-inkscape-stroke:none"/>
    <path d="M4 8.25c-1.51 0-2.75 1.24-2.75 2.75v6a.75.75 0 0 0 .75.75h20a.75.75 0 0 0 .75-.75v-6c0-1.51-1.24-2.75-2.75-2.75S17.25 9.49 17.25 11v1.25H6.75V11c0-1.51-1.24-2.75-2.75-2.75m0 1.5c.7 0 1.25.55 1.25 1.25v2a.75.75 0 0 0 .75.75h12a.75.75 0 0 0 .75-.75v-2c0-.7.55-1.25 1.25-1.25s1.25.55 1.25 1.25v5.25H2.75V11c0-.7.55-1.25 1.25-1.25" style="color:#000;fill:currentColor;stroke-linecap:round;stroke-linejoin:round;-inkscape-stroke:none"/>
    <path d="M22 15.25a.75.75 0 0 0-.75.75v3a.75.75 0 0 0 .75.75.75.75 0 0 0 .75-.75v-3a.75.75 0 0 0-.75-.75" style="color:#000;fill:currentColor;stroke-linecap:round;stroke-linejoin:round;-inkscape-stroke:none"/>
</svg>
