<svg xmlns="http://www.w3.org/2000/svg" width="24" height="24" fill="none" stroke-width="1.5" viewBox="0 0 24 24">
    <path d="M11 2.25A5.76 5.76 0 0 0 5.25 8v13a.75.75 0 0 0 .75.75.75.75 0 0 0 .75-.75V8A4.24 4.24 0 0 1 11 3.75 4.24 4.24 0 0 1 15.25 8v6a.75.75 0 0 0 .75.75.75.75 0 0 0 .75-.75V8A5.76 5.76 0 0 0 11 2.25" style="color:#000;fill:currentColor;stroke-linecap:round;stroke-linejoin:round;-inkscape-stroke:none"/>
    <path d="M12 10.25a.75.75 0 0 0-.531.219.75.75 0 0 0 0 1.062l4 4a.75.75 0 0 0 1.062 0l4-4a.75.75 0 0 0 0-1.062.75.75 0 0 0-1.062 0L16 13.938l-3.469-3.47A.75.75 0 0 0 12 10.25" style="color:#000;fill:currentColor;stroke-linecap:round;stroke-linejoin:round;-inkscape-stroke:none"/>
</svg>
