<svg xmlns="http://www.w3.org/2000/svg" width="24" height="24" fill="none" stroke-width="1.5" viewBox="0 0 24 24">
    <path d="M13 2.25A5.761 5.761 0 0 0 7.25 8v6a.75.75 0 0 0 .75.75.75.75 0 0 0 .75-.75V8A4.239 4.239 0 0 1 13 3.75 4.239 4.239 0 0 1 17.25 8v13a.75.75 0 0 0 .75.75.75.75 0 0 0 .75-.75V8A5.761 5.761 0 0 0 13 2.25" style="color:#000;fill:currentColor;stroke-linecap:round;stroke-linejoin:round;-inkscape-stroke:none"/>
    <path d="M4 10.25a.75.75 0 0 0-.531.219.75.75 0 0 0 0 1.062l4 4a.75.75 0 0 0 1.062 0l4-4a.75.75 0 0 0 0-1.062.75.75 0 0 0-1.062 0L8 13.938l-3.469-3.47A.75.75 0 0 0 4 10.25" style="color:#000;fill:currentColor;stroke-linecap:round;stroke-linejoin:round;-inkscape-stroke:none"/>
</svg>
