<svg xmlns="http://www.w3.org/2000/svg" width="24" height="24" fill="none" stroke-width="1.5" viewBox="0 0 24 24">
    <path d="M3.6 2.25A1.36 1.36 0 0 0 2.25 3.6v16.8c0 .737.613 1.35 1.35 1.35h16.8a1.36 1.36 0 0 0 1.35-1.35V3.6a1.36 1.36 0 0 0-1.35-1.35Zm.15 1.5h16.5v16.5H3.75Z" style="color:#000;fill:currentColor;-inkscape-stroke:none"/>
    <path d="M8 5.25a.75.75 0 0 0-.75.75v4A4.761 4.761 0 0 0 12 14.75 4.761 4.761 0 0 0 16.75 10V6a.75.75 0 0 0-.75-.75.75.75 0 0 0-.75.75v4A3.239 3.239 0 0 1 12 13.25 3.239 3.239 0 0 1 8.75 10V6A.75.75 0 0 0 8 5.25M6 17.25a.75.75 0 0 0-.75.75.75.75 0 0 0 .75.75h12a.75.75 0 0 0 .75-.75.75.75 0 0 0-.75-.75Z" style="color:#000;fill:currentColor;stroke-linecap:round;stroke-linejoin:round;-inkscape-stroke:none"/>
</svg>
