<svg xmlns="http://www.w3.org/2000/svg" width="24" height="24" fill="none" stroke-width="1.5" viewBox="0 0 24 24">
    <path d="M7 9.875a.75.75 0 0 0-.75.75.75.75 0 0 0 .75.75h7.2s.53.008 1.046.285c.517.277 1.004.698 1.004 1.965 0 1.48-.526 2.003-1.037 2.31-.51.308-1.014.315-1.014.315H13.4a.75.75 0 0 0-.75.75.75.75 0 0 0 .75.75h.8s.897.007 1.786-.53c.89-.535 1.764-1.7 1.764-3.595 0-1.733-.911-2.812-1.795-3.285-.883-.473-1.756-.465-1.756-.465Z" style="color:#000;fill:currentColor;stroke-linecap:round;stroke-linejoin:round;-inkscape-stroke:none"/>
    <path d="M10.486 6.25a.75.75 0 0 0-.525.229l-3.5 3.625a.75.75 0 0 0 .018 1.06l3.5 3.375a.75.75 0 0 0 1.06-.018.75.75 0 0 0-.018-1.06l-2.96-2.856 2.978-3.084a.75.75 0 0 0-.018-1.06.75.75 0 0 0-.535-.211" style="color:#000;fill:currentColor;stroke-linecap:round;stroke-linejoin:round;-inkscape-stroke:none"/>
    <path d="M12 1.25C6.072 1.25 1.25 6.072 1.25 12S6.072 22.75 12 22.75 22.75 17.928 22.75 12 17.928 1.25 12 1.25m0 1.5A9.239 9.239 0 0 1 21.25 12 9.239 9.239 0 0 1 12 21.25 9.239 9.239 0 0 1 2.75 12 9.239 9.239 0 0 1 12 2.75" style="color:#000;fill:currentColor;stroke-linecap:round;stroke-linejoin:round;-inkscape-stroke:none"/>
</svg>
