<svg xmlns="http://www.w3.org/2000/svg" width="24" height="24" fill="none" stroke-width="1.5" viewBox="0 0 24 24">
    <path d="M4.5 7.25a.75.75 0 0 0-.75.75.75.75 0 0 0 .75.75H15s1.104.011 2.18.518c1.075.506 2.07 1.35 2.07 3.437 0 2.411-1.034 3.406-2.102 3.97-1.067.566-2.148.575-2.148.575H6.285a.75.75 0 0 0-.75.75.75.75 0 0 0 .75.75H15s1.419.01 2.852-.748c1.432-.759 2.898-2.414 2.898-5.297 0-2.618-1.505-4.125-2.93-4.795-1.424-.67-2.82-.66-2.82-.66Z" style="color:#000;fill:currentColor;stroke-linecap:round;stroke-linejoin:round;-inkscape-stroke:none"/>
    <path d="M7.5 3.75a.75.75 0 0 0-.531.219l-3.5 3.5a.75.75 0 0 0 0 1.062l3.5 3.5a.75.75 0 0 0 1.062 0 .75.75 0 0 0 0-1.062L5.062 8l2.97-2.969a.75.75 0 0 0 0-1.062.75.75 0 0 0-.532-.219" style="color:#000;fill:currentColor;stroke-linecap:round;stroke-linejoin:round;-inkscape-stroke:none"/>
</svg>
