<svg xmlns="http://www.w3.org/2000/svg" width="24" height="24" fill="none" stroke-width="1.5" viewBox="0 0 24 24">
    <path d="M15 8.25a.75.75 0 0 0-.75.75.75.75 0 0 0 .75.75h5.25v10.5H9.75V15a.75.75 0 0 0-.75-.75.75.75 0 0 0-.75.75v5.4c0 .737.613 1.35 1.35 1.35h10.8a1.36 1.36 0 0 0 1.35-1.35V9.6a1.36 1.36 0 0 0-1.35-1.35Z" style="color:#000;fill:currentColor;stroke-linecap:round;stroke-linejoin:round;-inkscape-stroke:none"/>
    <path d="M3.6 2.25A1.36 1.36 0 0 0 2.25 3.6v10.8c0 .737.613 1.35 1.35 1.35H9a.75.75 0 0 0 .75-.75.75.75 0 0 0-.75-.75H3.75V3.75h10.5V9a.75.75 0 0 0 .75.75.75.75 0 0 0 .75-.75V3.6a1.36 1.36 0 0 0-1.35-1.35Z" style="color:#000;fill:currentColor;stroke-linecap:round;stroke-linejoin:round;-inkscape-stroke:none"/>
</svg>
