<svg xmlns="http://www.w3.org/2000/svg" width="24" height="24" fill="none" stroke-width="1.5" viewBox="0 0 24 24">
    <path d="M9 7.25c-4.271 0-7.75 3.479-7.75 7.75S4.729 22.75 9 22.75s7.75-3.479 7.75-7.75S13.271 7.25 9 7.25m0 1.5c3.46 0 6.25 2.79 6.25 6.25S12.46 21.25 9 21.25 2.75 18.46 2.75 15 5.54 8.75 9 8.75" style="color:#000;fill:currentColor;stroke-linecap:round;stroke-linejoin:round;-inkscape-stroke:none"/>
    <path d="M15 1.25c-4.271 0-7.75 3.479-7.75 7.75s3.479 7.75 7.75 7.75 7.75-3.479 7.75-7.75S19.271 1.25 15 1.25m0 1.5c3.46 0 6.25 2.79 6.25 6.25s-2.79 6.25-6.25 6.25S8.75 12.46 8.75 9 11.54 2.75 15 2.75" style="color:#000;fill:currentColor;stroke-linecap:round;stroke-linejoin:round;-inkscape-stroke:none"/>
</svg>
