<svg xmlns="http://www.w3.org/2000/svg" width="24" height="24" fill="none" stroke-width="1.5" viewBox="0 0 24 24">
    <path d="M8 4.25C3.729 4.25.25 7.729.25 12S3.729 19.75 8 19.75s7.75-3.479 7.75-7.75S12.271 4.25 8 4.25m0 1.5c3.46 0 6.25 2.79 6.25 6.25S11.46 18.25 8 18.25 1.75 15.46 1.75 12 4.54 5.75 8 5.75" style="color:#000;fill:currentColor;stroke-linecap:round;stroke-linejoin:round;-inkscape-stroke:none"/>
    <path d="M16 4.25c-4.271 0-7.75 3.479-7.75 7.75s3.479 7.75 7.75 7.75 7.75-3.479 7.75-7.75S20.271 4.25 16 4.25m0 1.5c3.46 0 6.25 2.79 6.25 6.25s-2.79 6.25-6.25 6.25S9.75 15.46 9.75 12 12.54 5.75 16 5.75" style="color:#000;fill:currentColor;stroke-linecap:round;stroke-linejoin:round;-inkscape-stroke:none"/>
</svg>
