<svg xmlns="http://www.w3.org/2000/svg" width="24" height="24" fill="none" stroke-width="1.5" viewBox="0 0 24 24">
    <path d="m18.377 3.26-6 1a.75.75 0 0 0-.617.863.75.75 0 0 0 .863.617l4.465-.744-4.03 7.254H5.67l2.89-3.252a.75.75 0 0 0-.062-1.059.75.75 0 0 0-1.059.063l-3.97 4.467-.03.033a.75.75 0 0 0-.078.227.75.75 0 0 0-.004.007.75.75 0 0 0-.097.24.75.75 0 0 0-.01.024.75.75 0 0 0 .01.023.75.75 0 0 0 .097.24.75.75 0 0 0 .004.008.75.75 0 0 0 .078.227l.03.033 3.97 4.467a.75.75 0 0 0 1.06.063A.75.75 0 0 0 8.56 17L5.67 13.75h7.445l3.834 5.367-4.387-.365a.75.75 0 0 0-.81.686.75.75 0 0 0 .685.81l6 .5a.75.75 0 0 0 .036-.031.75.75 0 0 0 .154-.035.75.75 0 0 0 .271-.063.75.75 0 0 0 .038-.01.75.75 0 0 0 .261-.379.75.75 0 0 0 .026-.033l1.5-5.5a.75.75 0 0 0-.526-.92.75.75 0 0 0-.92.526l-1.084 3.978-3.808-5.33 3.877-6.978 1.015 3.724a.75.75 0 0 0 .92.526.75.75 0 0 0 .526-.92l-1.5-5.5a.75.75 0 0 0-.002-.002.75.75 0 0 0-.342-.446.75.75 0 0 0-.01-.005.75.75 0 0 0-.006-.006.75.75 0 0 0-.012.004.75.75 0 0 0-.43-.055.75.75 0 0 0-.044-.033z" style="color:#000;fill:currentColor;stroke-linecap:round;stroke-linejoin:round;-inkscape-stroke:none"/>
</svg>
