<svg xmlns="http://www.w3.org/2000/svg" width="24" height="24" fill="none" stroke-width="1.5" color="#000" viewBox="0 0 24 24">
    <path d="M2.6 3.25A1.36 1.36 0 0 0 1.25 4.6v5.8c0 .737.613 1.35 1.35 1.35h18.8a1.36 1.36 0 0 0 1.35-1.35V7.6a1.36 1.36 0 0 0-1.35-1.35h-8.62L9.655 3.574a1.35 1.35 0 0 0-.879-.324Zm.15 1.5h5.97l3.124 2.676c.244.21.557.324.879.324h8.527v2.5H2.75Z" style="color:#000;fill:#000;stroke-linecap:round;stroke-linejoin:round;-inkscape-stroke:none"/>
    <path d="M22 9.25a.75.75 0 0 0-.75.75v4a.75.75 0 0 0 .75.75.75.75 0 0 0 .75-.75v-4a.75.75 0 0 0-.75-.75M2 9.25a.75.75 0 0 0-.75.75v9.4c0 .737.613 1.35 1.35 1.35H13a.75.75 0 0 0 .75-.75.75.75 0 0 0-.75-.75H2.75V10A.75.75 0 0 0 2 9.25M18.72 18.36a3.48 3.48 0 0 0-3.47 3.47v.389a.75.75 0 0 0 .75.75.75.75 0 0 0 .75-.75v-.389a1.96 1.96 0 0 1 1.97-1.97 1.96 1.96 0 0 1 1.971 1.97v.389a.75.75 0 0 0 .75.75.75.75 0 0 0 .75-.75v-.389a3.48 3.48 0 0 0-3.47-3.47" style="color:#000;fill:#000;stroke-linecap:round;stroke-linejoin:round;-inkscape-stroke:none"/>
    <path d="M18.72 15.25a2.316 2.316 0 0 0-2.304 2.305 2.316 2.316 0 0 0 2.305 2.304 2.316 2.316 0 0 0 2.304-2.304 2.316 2.316 0 0 0-2.304-2.305m0 1.5c.454 0 .805.351.805.805a.794.794 0 0 1-.804.804.794.794 0 0 1-.805-.804c0-.454.351-.805.805-.805" style="color:#000;fill:#000;stroke-linecap:round;stroke-linejoin:round;-inkscape-stroke:none"/>
</svg>
