<svg xmlns="http://www.w3.org/2000/svg" width="24" height="24" fill="none" stroke-width="1.5" viewBox="0 0 24 24">
    <path d="M12 3.25A4.76 4.76 0 0 0 7.25 8 4.76 4.76 0 0 0 12 12.75 4.76 4.76 0 0 0 16.75 8 4.76 4.76 0 0 0 12 3.25m0 1.5A3.24 3.24 0 0 1 15.25 8 3.24 3.24 0 0 1 12 11.25 3.24 3.24 0 0 1 8.75 8 3.24 3.24 0 0 1 12 4.75" style="color:#000;fill:currentColor;stroke-linecap:round;stroke-linejoin:round;-inkscape-stroke:none"/>
    <path d="M12 11.25c-4.271 0-7.75 3.479-7.75 7.75v1a.75.75 0 0 0 .75.75.75.75 0 0 0 .75-.75v-1c0-3.46 2.79-6.25 6.25-6.25.961 0 1.866.216 2.678.602a.75.75 0 0 0 1-.356.75.75 0 0 0-.356-1A7.7 7.7 0 0 0 12 11.25M18.75 16A2.754 2.754 0 0 0 16 18.75a2.754 2.754 0 0 0 2.75 2.75c1.51 0 2.75-1.24 2.75-2.75S20.26 16 18.75 16m0 1.5c.7 0 1.25.55 1.25 1.25S19.45 20 18.75 20a1.244 1.244 0 0 1-1.25-1.25 1.244 1.244 0 0 1 1.25-1.25" style="color:#000;fill:currentColor;stroke-linecap:round;stroke-linejoin:round;-inkscape-stroke:none"/>
    <path d="M17.877 14.434a.75.75 0 0 0-.75.752.75.75 0 0 0 .752.748h.299a.75.75 0 0 0 .75-.752.75.75 0 0 0-.752-.748zM17.877 19.934a.75.75 0 0 0-.75.752.75.75 0 0 0 .752.748h.299a.75.75 0 0 0 .75-.752.75.75 0 0 0-.752-.748z" style="color:#000;fill:#000;stroke-linecap:round;stroke-linejoin:round;-inkscape-stroke:none" transform="translate(.723 .816)"/>
    <path d="M17.877 14.434a.75.75 0 0 0-.75.752.75.75 0 0 0 .752.748h.299a.75.75 0 0 0 .75-.752.75.75 0 0 0-.752-.748zM17.877 19.934a.75.75 0 0 0-.75.752.75.75 0 0 0 .752.748h.299a.75.75 0 0 0 .75-.752.75.75 0 0 0-.752-.748z" style="color:#000;fill:#000;stroke-linecap:round;stroke-linejoin:round;-inkscape-stroke:none" transform="rotate(90 17.98 18.703)"/>
    <path d="M17.877 14.434a.75.75 0 0 0-.75.752.75.75 0 0 0 .752.748h.299a.75.75 0 0 0 .75-.752.75.75 0 0 0-.752-.748zM17.877 19.934a.75.75 0 0 0-.75.752.75.75 0 0 0 .752.748h.299a.75.75 0 0 0 .75-.752.75.75 0 0 0-.752-.748z" style="color:#000;fill:#000;stroke-linecap:round;stroke-linejoin:round;-inkscape-stroke:none" transform="rotate(45 17.403 19.214)"/>
    <path d="M17.877 14.434a.75.75 0 0 0-.75.752.75.75 0 0 0 .752.748h.299a.75.75 0 0 0 .75-.752.75.75 0 0 0-.752-.748zM17.877 19.934a.75.75 0 0 0-.75.752.75.75 0 0 0 .752.748h.299a.75.75 0 0 0 .75-.752.75.75 0 0 0-.752-.748z" style="color:#000;fill:#000;stroke-linecap:round;stroke-linejoin:round;-inkscape-stroke:none" transform="rotate(135 18.22 18.491)"/>
</svg>
