<svg xmlns="http://www.w3.org/2000/svg" width="24" height="24" fill="none" stroke-width="1.5" viewBox="0 0 24 24">
    <path d="M12 3.25A4.76 4.76 0 0 0 7.25 8 4.76 4.76 0 0 0 12 12.75 4.76 4.76 0 0 0 16.75 8 4.76 4.76 0 0 0 12 3.25m0 1.5A3.24 3.24 0 0 1 15.25 8 3.24 3.24 0 0 1 12 11.25 3.24 3.24 0 0 1 8.75 8 3.24 3.24 0 0 1 12 4.75" style="color:#000;fill:currentColor;stroke-linecap:round;stroke-linejoin:round;-inkscape-stroke:none"/>
    <path d="M12 11.25c-4.271 0-7.75 3.479-7.75 7.75v1a.75.75 0 0 0 .75.75.75.75 0 0 0 .75-.75v-1c0-3.46 2.79-6.25 6.25-6.25.961 0 1.866.216 2.678.602a.75.75 0 0 0 1-.356.75.75 0 0 0-.356-1A7.7 7.7 0 0 0 12 11.25M18.027 15.184a2.754 2.754 0 0 0-2.75 2.75 2.754 2.754 0 0 0 2.75 2.75c1.51 0 2.75-1.24 2.75-2.75s-1.24-2.75-2.75-2.75m0 1.5c.7 0 1.25.55 1.25 1.25 0 .699-.55 1.25-1.25 1.25a1.244 1.244 0 0 1-1.25-1.25 1.244 1.244 0 0 1 1.25-1.25" style="color:#000;fill:currentColor;stroke-linecap:round;stroke-linejoin:round;-inkscape-stroke:none"/>
    <path d="m18.008 14.184-.074.002a.75.75 0 0 0-.73.77.75.75 0 0 0 .767.73l.056-.002.118.004.05.003A.75.75 0 0 0 19 15a.75.75 0 0 0-.691-.805l-.07-.006-.038-.002-.154-.003zm-1.84.691a.75.75 0 0 0-.545.182l-.103.09-.028.023-.103.1-.026.025-.013.014a.75.75 0 0 0 .025 1.06.75.75 0 0 0 1.06-.025v-.002l.08-.074.09-.079a.75.75 0 0 0 .077-1.058.75.75 0 0 0-.514-.256m3.867.098a.75.75 0 0 0-.523.232.75.75 0 0 0 .025 1.059l.082.078.074.08.004.004a.75.75 0 0 0 1.059.076.75.75 0 0 0 .076-1.059l-.018-.017-.023-.028-.1-.103-.025-.025-.094-.09a.75.75 0 0 0-.537-.207m-4.894 1.879a.75.75 0 0 0-.838.65l-.004.031-.004.037-.012.153-.002.037-.002.117a.75.75 0 0 0 .73.77.75.75 0 0 0 .768-.733l.004-.098.008-.113.002-.012a.75.75 0 0 0-.65-.84m5.824.146a.75.75 0 0 0-.692.805v.013l.004.118-.002.093a.75.75 0 0 0 .73.77.75.75 0 0 0 .768-.733l.004-.11v-.04l-.004-.154-.002-.037-.002-.034a.75.75 0 0 0-.804-.69m-.705 2.129a.75.75 0 0 0-.514.258l-.053.06-.074.08-.03.026a.75.75 0 0 0-.025 1.06.75.75 0 0 0 1.061.026l.041-.04.025-.025.1-.103.023-.028.067-.074a.75.75 0 0 0-.076-1.058.75.75 0 0 0-.545-.182m-5.076.041a.75.75 0 0 0-.127 1.055l.066.082.022.027.095.11.024.027.035.035a.75.75 0 0 0 1.06.025.75.75 0 0 0 .026-1.06l-.024-.024-.07-.08-.055-.07a.75.75 0 0 0-1.052-.127m2.49.988a.75.75 0 0 0-.84.649.75.75 0 0 0 .65.84l.143.017.037.004.152.012.038.002h.003a1 1 0 0 0 .092-.088 1 1 0 0 0 .098.092l.154-.004.037-.002.145-.012a.75.75 0 0 0 .691-.805.75.75 0 0 0-.804-.691l-.125.01-.137.004-.018.017a1 1 0 0 0-.094-.021l-.1-.008z" style="color:#000;fill:currentColor;stroke-linecap:round;stroke-linejoin:round;stroke-dasharray:.3,2;-inkscape-stroke:none"/>
</svg>
