<svg xmlns="http://www.w3.org/2000/svg" width="24" height="24" fill="none" stroke-width="1.5" viewBox="0 0 24 24">
    <path d="M6 19.25a.75.75 0 0 0-.75.75.75.75 0 0 0 .75.75h12a.75.75 0 0 0 .75-.75.75.75 0 0 0-.75-.75ZM12 3.25a.75.75 0 0 0-.531.219l-3.5 3.5a.75.75 0 0 0 0 1.062.75.75 0 0 0 1.062 0l2.219-2.219V16a.75.75 0 0 0 .75.75.75.75 0 0 0 .75-.75V5.813l2.219 2.218a.75.75 0 0 0 1.062 0 .75.75 0 0 0 0-1.062l-3.5-3.5A.75.75 0 0 0 12 3.25" style="color:#000;fill:currentColor;stroke-linecap:round;stroke-linejoin:round;-inkscape-stroke:none"/>
</svg>
