<svg xmlns="http://www.w3.org/2000/svg" width="24" height="24" fill="none" stroke-width="1.5" viewBox="0 0 24 24">
    <path d="M22.236 11.79a.75.75 0 0 0-.947.474l-.662 1.986H14.5a.75.75 0 0 0-.72.955l1 3.5a.75.75 0 0 0 .72.545H20a.75.75 0 0 0 .71-.514l1.169-3.5.832-2.5a.75.75 0 0 0-.475-.947m-6.742 3.96h4.633l-.668 2h-3.393zM17.012 19.941a.75.75 0 0 0-1.059.055l-.01.012a.75.75 0 0 0 .055 1.058.75.75 0 0 0 1.059-.054l.01-.012a.75.75 0 0 0-.055-1.059M20.012 19.941a.75.75 0 0 0-1.059.055l-.01.012a.75.75 0 0 0 .055 1.058.75.75 0 0 0 1.059-.054l.01-.012a.75.75 0 0 0-.055-1.059M9 2.25A4.761 4.761 0 0 0 4.25 7 4.761 4.761 0 0 0 9 11.75 4.761 4.761 0 0 0 13.75 7 4.761 4.761 0 0 0 9 2.25m0 1.5A3.239 3.239 0 0 1 12.25 7 3.239 3.239 0 0 1 9 10.25 3.239 3.239 0 0 1 5.75 7 3.239 3.239 0 0 1 9 3.75" style="color:#000;fill:currentColor;stroke-linecap:round;stroke-linejoin:round;-inkscape-stroke:none"/>
    <path d="M9 10.25c-4.271 0-7.75 3.479-7.75 7.75a.75.75 0 0 0 .75.75.75.75 0 0 0 .75-.75c0-3.46 2.79-6.25 6.25-6.25 1.464 0 2.803.5 3.867 1.34a.75.75 0 0 0 1.053-.125.75.75 0 0 0-.125-1.055A7.727 7.727 0 0 0 9 10.25" style="color:#000;fill:currentColor;stroke-linecap:round;stroke-linejoin:round;-inkscape-stroke:none"/>
</svg>
