<svg xmlns="http://www.w3.org/2000/svg" width="24" height="24" fill="none" stroke-width="1.5" viewBox="0 0 24 24">
    <path d="M9 2.25A4.761 4.761 0 0 0 4.25 7 4.761 4.761 0 0 0 9 11.75 4.761 4.761 0 0 0 13.75 7 4.761 4.761 0 0 0 9 2.25m0 1.5A3.239 3.239 0 0 1 12.25 7 3.239 3.239 0 0 1 9 10.25 3.239 3.239 0 0 1 5.75 7 3.239 3.239 0 0 1 9 3.75" style="color:#000;fill:currentColor;stroke-linecap:round;stroke-linejoin:round;-inkscape-stroke:none"/>
    <path d="M9 10.25c-4.271 0-7.75 3.479-7.75 7.75a.75.75 0 0 0 .75.75.75.75 0 0 0 .75-.75c0-3.46 2.79-6.25 6.25-6.25 1.464 0 2.803.5 3.867 1.34a.75.75 0 0 0 1.053-.125.75.75 0 0 0-.125-1.055A7.727 7.727 0 0 0 9 10.25M16.615 14.25a2.76 2.76 0 0 0-2.72 2.348l-.297 2c-.244 1.647 1.055 3.152 2.72 3.152h3.364c1.665 0 2.964-1.505 2.72-3.152l-.297-2a2.76 2.76 0 0 0-2.72-2.348Zm0 1.5h2.77c.625 0 1.146.448 1.238 1.066l.295 2a1.236 1.236 0 0 1-1.236 1.434h-3.364c-.777 0-1.35-.665-1.236-1.434l.295-2a1.243 1.243 0 0 1 1.238-1.066M17 12.25a.75.75 0 0 0-.75.75.75.75 0 0 0 .75.75h2a.75.75 0 0 0 .75-.75.75.75 0 0 0-.75-.75Z" style="color:#000;fill:currentColor;stroke-linecap:round;stroke-linejoin:round;-inkscape-stroke:none"/>
</svg>
