<svg xmlns="http://www.w3.org/2000/svg" width="24" height="24" fill="none" stroke-width="1.5" viewBox="0 0 24 24">
    <path d="M12 3.25A4.761 4.761 0 0 0 7.25 8 4.761 4.761 0 0 0 12 12.75 4.761 4.761 0 0 0 16.75 8 4.761 4.761 0 0 0 12 3.25m0 1.5A3.239 3.239 0 0 1 15.25 8 3.239 3.239 0 0 1 12 11.25 3.239 3.239 0 0 1 8.75 8 3.239 3.239 0 0 1 12 4.75" style="color:#000;fill:currentColor;stroke-linecap:round;stroke-linejoin:round;-inkscape-stroke:none"/>
    <path d="M19.723 14.25c-.649 0-1.21.34-1.725.719-1.184-.856-2.809-.893-3.87.176a3.042 3.042 0 0 0 0 4.27l2.919 2.94a1.345 1.345 0 0 0 1.863.04.75.75 0 0 0 .004-.002c1.04-.974 1.994-2.008 2.957-2.979a3.03 3.03 0 0 0-2.148-5.164m-3.446 1.496c.391 0 .782.15 1.084.455l.106.108a.75.75 0 0 0 1.066 0l.106-.108a1.526 1.526 0 0 1 2.611 1.078c0 .404-.159.792-.443 1.078-.952.96-1.862 1.934-2.807 2.829l-2.807-2.829a1.52 1.52 0 0 1 0-2.156 1.52 1.52 0 0 1 1.084-.455" style="color:#000;fill:currentColor;stroke-linejoin:round;-inkscape-stroke:none"/>
    <path d="M12 11.25c-4.271 0-7.75 3.479-7.75 7.75v1a.75.75 0 0 0 .75.75.75.75 0 0 0 .75-.75v-1c0-3.46 2.79-6.25 6.25-6.25.961 0 1.866.216 2.678.602a.75.75 0 0 0 1-.356.75.75 0 0 0-.356-1A7.731 7.731 0 0 0 12 11.25" style="color:#000;fill:currentColor;stroke-linecap:round;stroke-linejoin:round;-inkscape-stroke:none"/>
</svg>
