<svg xmlns="http://www.w3.org/2000/svg" width="24" height="24" fill="none" stroke-width="1.5" viewBox="0 0 24 24">
    <path d="M12 3.25A4.76 4.76 0 0 0 7.25 8 4.76 4.76 0 0 0 12 12.75 4.76 4.76 0 0 0 16.75 8 4.76 4.76 0 0 0 12 3.25m0 1.5A3.24 3.24 0 0 1 15.25 8 3.24 3.24 0 0 1 12 11.25 3.24 3.24 0 0 1 8.75 8 3.24 3.24 0 0 1 12 4.75" style="color:#000;fill:currentColor;stroke-linecap:round;stroke-linejoin:round;-inkscape-stroke:none"/>
    <path d="M12 11.25c-4.271 0-7.75 3.479-7.75 7.75v1a.75.75 0 0 0 .75.75.75.75 0 0 0 .75-.75v-1c0-3.46 2.79-6.25 6.25-6.25.961 0 1.866.216 2.678.602a.75.75 0 0 0 1-.356.75.75 0 0 0-.356-1A7.7 7.7 0 0 0 12 11.25" style="color:#000;fill:currentColor;stroke-linecap:round;stroke-linejoin:round;-inkscape-stroke:none"/>
    <path d="M17 15.25a.75.75 0 0 0-.576.27l-1.115 1.337-2.965-1.523a.75.75 0 0 0-1.084.789l1 6a.75.75 0 0 0 .74.627h8a.75.75 0 0 0 .74-.627l1-6a.75.75 0 0 0-1.084-.789l-2.965 1.523-1.115-1.337a.75.75 0 0 0-.576-.27m0 1.922.924 1.107a.75.75 0 0 0 .92.188l2.17-1.117-.65 3.9h-6.73l-.648-3.9 2.17 1.117a.75.75 0 0 0 .92-.188z" style="color:#000;fill:currentColor;stroke-linecap:round;stroke-linejoin:round;-inkscape-stroke:none"/>
</svg>
