<svg xmlns="http://www.w3.org/2000/svg" width="24" height="24" fill="none" stroke-width="1.5" viewBox="0 0 24 24">
    <path d="M20 6.25a.75.75 0 0 0-.75.75v2.25H17a.75.75 0 0 0-.75.75.75.75 0 0 0 .75.75h2.25V13a.75.75 0 0 0 .75.75.75.75 0 0 0 .75-.75v-2.25H23a.75.75 0 0 0 .75-.75.75.75 0 0 0-.75-.75h-2.25V7a.75.75 0 0 0-.75-.75M8 11.25C3.729 11.25.25 14.729.25 19v1a.75.75 0 0 0 .75.75.75.75 0 0 0 .75-.75v-1c0-3.46 2.79-6.25 6.25-6.25s6.25 2.79 6.25 6.25v1a.75.75 0 0 0 .75.75.75.75 0 0 0 .75-.75v-1c0-4.271-3.479-7.75-7.75-7.75" style="color:#000;fill:currentColor;stroke-linecap:round;stroke-linejoin:round;-inkscape-stroke:none"/>
    <path d="M8 3.25A4.76 4.76 0 0 0 3.25 8 4.76 4.76 0 0 0 8 12.75 4.76 4.76 0 0 0 12.75 8 4.76 4.76 0 0 0 8 3.25m0 1.5A3.24 3.24 0 0 1 11.25 8 3.24 3.24 0 0 1 8 11.25 3.24 3.24 0 0 1 4.75 8 3.24 3.24 0 0 1 8 4.75" style="color:#000;fill:currentColor;stroke-linecap:round;stroke-linejoin:round;-inkscape-stroke:none"/>
</svg>
