<svg xmlns="http://www.w3.org/2000/svg" width="24" height="24" fill="none" stroke-width="1.5" viewBox="0 0 24 24">
    <path d="M12 3.25A4.76 4.76 0 0 0 7.25 8 4.76 4.76 0 0 0 12 12.75 4.76 4.76 0 0 0 16.75 8 4.76 4.76 0 0 0 12 3.25m0 1.5A3.24 3.24 0 0 1 15.25 8 3.24 3.24 0 0 1 12 11.25 3.24 3.24 0 0 1 8.75 8 3.24 3.24 0 0 1 12 4.75" style="color:#000;fill:currentColor;stroke-linecap:round;stroke-linejoin:round;-inkscape-stroke:none"/>
    <path d="M12 11.25c-4.271 0-7.75 3.479-7.75 7.75v1a.75.75 0 0 0 .75.75.75.75 0 0 0 .75-.75v-1c0-3.46 2.79-6.25 6.25-6.25.961 0 1.866.216 2.678.602a.75.75 0 0 0 1-.356.75.75 0 0 0-.356-1A7.7 7.7 0 0 0 12 11.25M18 13.25a1.14 1.14 0 0 0-1.004.643l-.869 1.841-1.93.295c-.89.136-1.24 1.287-.623 1.916l1.416 1.442-.336 2.047c-.07.426.117.85.432 1.09.315.239.806.304 1.197.09L18 21.667l1.717.945c.39.215.882.15 1.197-.09s.502-.663.432-1.09l-.336-2.046 1.416-1.442c.617-.629.267-1.78-.623-1.916l-1.93-.295-.87-1.841A1.14 1.14 0 0 0 18 13.25m0 2.027.688 1.457a.75.75 0 0 0 .564.422l1.603.246-1.181 1.205a.75.75 0 0 0-.205.647l.271 1.66-1.379-.76a.75.75 0 0 0-.722 0l-1.38.76.272-1.66a.75.75 0 0 0-.205-.647l-1.181-1.205 1.603-.246a.75.75 0 0 0 .564-.422Z" style="color:#000;fill:currentColor;stroke-linecap:round;stroke-linejoin:round;-inkscape-stroke:none"/>
</svg>
