<svg xmlns="http://www.w3.org/2000/svg" width="24" height="24" fill="none" stroke-width="1.5" viewBox="0 0 24 24">
    <path d="M6.387 9.357a.75.75 0 0 0-1.03.256.75.75 0 0 0 .256 1.03c.935.56 2.243 2.492 3.158 4.263.916 1.771 1.53 3.364 1.53 3.364a.75.75 0 0 0 1.4-.004s.428-1.13 1.07-2.49c.643-1.362 1.526-2.958 2.278-3.766a.75.75 0 0 0-.04-1.059.75.75 0 0 0-1.058.04c-.998 1.073-1.865 2.725-2.535 4.144-.261.553-.255.589-.436 1.013-.28-.658-.35-.91-.876-1.93-.96-1.853-2.152-3.921-3.717-4.86" style="color:#000;fill:currentColor;stroke-linecap:round;stroke-linejoin:round;-inkscape-stroke:none"/>
    <path d="m17.504 6.621-3.285.316a4.327 4.327 0 0 0-3.883 4.71c.228 2.372 2.38 4.106 4.744 3.878 2.402-.23 4.21-2.377 3.979-4.787l-.297-3.08a1.164 1.164 0 0 0-1.258-1.037m-.201 1.525.263 2.737c.153 1.586-1.036 2.997-2.63 3.15-1.557.15-2.957-.983-3.106-2.531a2.804 2.804 0 0 1 2.533-3.072z" style="color:#000;fill:currentColor;stroke-linecap:round;stroke-linejoin:round;-inkscape-stroke:none"/>
    <path d="M12 1.25C6.072 1.25 1.25 6.072 1.25 12S6.072 22.75 12 22.75 22.75 17.928 22.75 12 17.928 1.25 12 1.25m0 1.5A9.239 9.239 0 0 1 21.25 12 9.239 9.239 0 0 1 12 21.25 9.239 9.239 0 0 1 2.75 12 9.239 9.239 0 0 1 12 2.75" style="color:#000;fill:currentColor;stroke-linecap:round;stroke-linejoin:round;-inkscape-stroke:none"/>
</svg>
