<svg xmlns="http://www.w3.org/2000/svg" width="24" height="24" fill="none" stroke-width="1.5" viewBox="0 0 24 24">
    <path d="M2.81 8.275a.75.75 0 0 0-.458.346.75.75 0 0 0 .27 1.027c1.45.849 3.268 3.527 4.57 5.977a51 51 0 0 1 2.17 4.65.75.75 0 0 0 1.396-.004s.607-1.561 1.52-3.443c.912-1.882 2.155-4.085 3.265-5.248a.75.75 0 0 0-.025-1.06.75.75 0 0 0-1.061.025c-1.36 1.425-2.589 3.689-3.53 5.629-.532 1.099-.613 1.358-.888 2.014-.359-.848-.608-1.543-1.523-3.266-1.346-2.534-3.059-5.356-5.137-6.57a.75.75 0 0 0-.568-.077" style="color:#000;fill:currentColor;stroke-linecap:round;stroke-linejoin:round;-inkscape-stroke:none"/>
    <path d="m19.791 4.309-4.717.455c-3.22.31-5.591 3.188-5.281 6.408.31 3.228 3.236 5.587 6.455 5.277 3.273-.315 5.736-3.237 5.42-6.52l-.426-4.423a1.34 1.34 0 0 0-1.451-1.197m-.025 1.51.41 4.253c.236 2.458-1.604 4.646-4.07 4.883-2.413.232-4.59-1.524-4.82-3.928a4.36 4.36 0 0 1 3.933-4.771z" style="color:#000;fill:currentColor;stroke-linecap:round;stroke-linejoin:round;-inkscape-stroke:none"/>
</svg>
