<svg xmlns="http://www.w3.org/2000/svg" width="24" height="24" fill="none" stroke-width="1.5" viewBox="0 0 24 24">
    <path d="M7 9.25a.75.75 0 0 0-.75.75.75.75 0 0 0 .75.75h8a.75.75 0 0 0 .75-.75.75.75 0 0 0-.75-.75ZM6 13.25a.75.75 0 0 0-.75.75.75.75 0 0 0 .75.75h1a.75.75 0 0 0 .75-.75.75.75 0 0 0-.75-.75ZM15 13.25a.75.75 0 0 0-.75.75.75.75 0 0 0 .75.75h1a.75.75 0 0 0 .75-.75.75.75 0 0 0-.75-.75Z" style="color:#000;fill:currentColor;stroke-linecap:round;stroke-linejoin:round;-inkscape-stroke:none"/>
    <path d="M1.25 17.25v3.15c0 .737.613 1.35 1.35 1.35h2.8a1.36 1.36 0 0 0 1.35-1.35v-1.65H13a.75.75 0 0 0 .75-.75.75.75 0 0 0-.75-.75H6Zm1.5 1.5h2.5v1.5h-2.5z" style="color:#000;fill:currentColor;stroke-linecap:round;-inkscape-stroke:none"/>
    <path d="M6.318 3.25a2.753 2.753 0 0 0-2.527 1.666l-2.318 5.412c-.147.342-.223.71-.223 1.082V18a.75.75 0 0 0 .75.75.75.75 0 0 0 .75-.75v-6.59c0-.17.035-.337.102-.492l2.318-5.41a1.245 1.245 0 0 1 1.148-.758h9.364c.502 0 .95.296 1.148.758l2.318 5.41c.067.155.102.323.102.492v1.09a.75.75 0 0 0 .75.75.75.75 0 0 0 .75-.75v-1.09c0-.372-.076-.74-.223-1.082L18.21 4.916a2.753 2.753 0 0 0-2.527-1.666Z" style="color:#000;fill:currentColor;stroke-linecap:round;-inkscape-stroke:none"/>
    <path d="M19.5 17.441c-2.327 2.086-3.22 5.35-3.22 5.35a.75.75 0 0 0 .511.93.75.75 0 0 0 .93-.512s.906-2.972 2.779-4.65a.75.75 0 0 0 .059-1.059.75.75 0 0 0-1.059-.059" style="color:#000;fill:currentColor;stroke-linecap:round;stroke-linejoin:round;-inkscape-stroke:none"/>
    <path d="m21.979 14.285-2.985.281a3.823 3.823 0 0 0-3.437 4.17 3.854 3.854 0 0 0 4.181 3.448l.135-.012a3.958 3.958 0 0 0 3.559-4.318l-.256-2.58a1.111 1.111 0 0 0-1.197-.989m-.256 1.531.215 2.186a2.43 2.43 0 0 1-2.206 2.676l-.134.013a2.335 2.335 0 0 1-2.55-2.101 2.296 2.296 0 0 1 2.085-2.53z" style="color:#000;fill:currentColor;stroke-linecap:round;stroke-linejoin:round;-inkscape-stroke:none"/>
</svg>
