<svg xmlns="http://www.w3.org/2000/svg" width="24" height="24" fill="none" stroke-width="1.5" viewBox="0 0 24 24">
    <path d="M12 1.25a.75.75 0 0 0-.75.75v6.188l-2.219-2.22a.75.75 0 0 0-1.062 0 .75.75 0 0 0 0 1.063l3.5 3.5a.75.75 0 0 0 1.062 0l3.5-3.5a.75.75 0 0 0 0-1.062.75.75 0 0 0-1.062 0L12.75 8.187V2a.75.75 0 0 0-.75-.75M12 13.25a.75.75 0 0 0-.531.219l-3.5 3.5a.75.75 0 0 0 0 1.062.75.75 0 0 0 1.062 0l2.219-2.218V22a.75.75 0 0 0 .75.75.75.75 0 0 0 .75-.75v-6.187l2.219 2.218a.75.75 0 0 0 1.062 0 .75.75 0 0 0 0-1.062l-3.5-3.5A.75.75 0 0 0 12 13.25" style="color:#000;fill:currentColor;stroke-linecap:round;stroke-linejoin:round;-inkscape-stroke:none"/>
    <path d="M3 13.25a.75.75 0 0 0-.75.75.75.75 0 0 0 .75.75h18a.75.75 0 0 0 .75-.75.75.75 0 0 0-.75-.75ZM3 9.25a.75.75 0 0 0-.75.75.75.75 0 0 0 .75.75h18a.75.75 0 0 0 .75-.75.75.75 0 0 0-.75-.75Z" style="color:#000;fill:currentColor;stroke-linecap:round;stroke-linejoin:round;-inkscape-stroke:none"/>
</svg>
