<svg xmlns="http://www.w3.org/2000/svg" width="24" height="24" fill="none" stroke-width="1.5" viewBox="0 0 24 24">
    <path d="M3 20.25a.75.75 0 0 0-.75.75.75.75 0 0 0 .75.75h18a.75.75 0 0 0 .75-.75.75.75 0 0 0-.75-.75ZM5 11.25a.75.75 0 0 0-.75.75.75.75 0 0 0 .75.75h4a.75.75 0 0 0 .75-.75.75.75 0 0 0-.75-.75ZM15 11.25a.75.75 0 0 0-.75.75.75.75 0 0 0 .75.75h4a.75.75 0 0 0 .75-.75.75.75 0 0 0-.75-.75Z" style="color:#000;fill:currentColor;stroke-linecap:round;stroke-linejoin:round;-inkscape-stroke:none"/>
    <path d="M5 2.25a.75.75 0 0 0-.75.75v13c0 1.51 1.24 2.75 2.75 2.75S9.75 17.51 9.75 16V3A.75.75 0 0 0 9 2.25Zm.75 1.5h2.5V16c0 .7-.55 1.25-1.25 1.25S5.75 16.7 5.75 16ZM15 2.25a.75.75 0 0 0-.75.75v13c0 1.51 1.24 2.75 2.75 2.75s2.75-1.24 2.75-2.75V3a.75.75 0 0 0-.75-.75Zm.75 1.5h2.5V16c0 .7-.55 1.25-1.25 1.25s-1.25-.55-1.25-1.25z" style="color:#000;fill:currentColor;stroke-linecap:round;stroke-linejoin:round;-inkscape-stroke:none"/>
</svg>
