<svg xmlns="http://www.w3.org/2000/svg" width="24" height="24" fill="none" stroke-width="1.5" viewBox="0 0 24 24">
    <path d="M3.6 6.25A1.36 1.36 0 0 0 2.25 7.6v8.8c0 .737.613 1.35 1.35 1.35h10.8a1.36 1.36 0 0 0 1.35-1.35v-2.798l3.785 3.154c.839.699 2.215.055 2.215-1.037V8.28c0-1.092-1.376-1.736-2.215-1.037l-3.785 3.154V7.6a1.36 1.36 0 0 0-1.35-1.35Zm.15 1.5h10.5v8.5H3.75Zm16.5.852v6.796L16.172 12Z" style="color:#000;fill:currentColor;stroke-linecap:round;stroke-linejoin:round;-inkscape-stroke:none"/>
</svg>
