<svg xmlns="http://www.w3.org/2000/svg" width="24" height="24" fill="none" stroke-width="1.5" viewBox="0 0 24 24">
    <path d="M4 18.25a.75.75 0 0 0-.75.75.75.75 0 0 0 .75.75h2a.75.75 0 0 0 .75-.75.75.75 0 0 0-.75-.75ZM18 18.25a.75.75 0 0 0-.75.75.75.75 0 0 0 .75.75h2a.75.75 0 0 0 .75-.75.75.75 0 0 0-.75-.75Z" style="color:#000;fill:currentColor;stroke-linecap:round;stroke-linejoin:round;-inkscape-stroke:none"/>
    <path d="M2.6 6.25A1.36 1.36 0 0 0 1.25 7.6v8.8c0 .737.613 1.35 1.35 1.35h18.8a1.36 1.36 0 0 0 1.35-1.35V7.6a1.36 1.36 0 0 0-1.35-1.35Zm.15 1.5h18.5v8.5H2.75Z" style="color:#000;fill:currentColor;-inkscape-stroke:none"/>
    <path d="M4.97 9.25a.75.75 0 0 0-.517.248l-.01.01a.75.75 0 0 0 .055 1.06.75.75 0 0 0 1.059-.056l.011-.012a.75.75 0 0 0-.056-1.059.75.75 0 0 0-.541-.191M8.512 9.441a.75.75 0 0 0-1.059.057l-.01.01a.75.75 0 0 0 .055 1.06.75.75 0 0 0 1.059-.056l.011-.012a.75.75 0 0 0-.056-1.059M11.512 9.441a.75.75 0 0 0-1.059.057l-.01.01a.75.75 0 0 0 .055 1.06.75.75 0 0 0 1.059-.056l.011-.012a.75.75 0 0 0-.056-1.059M4.97 13.25a.75.75 0 0 0-.517.246l-.01.012a.75.75 0 0 0 .055 1.058.75.75 0 0 0 1.059-.054l.01-.012a.75.75 0 0 0-.055-1.059.75.75 0 0 0-.541-.191M7.97 13.25a.75.75 0 0 0-.517.246l-.01.012a.75.75 0 0 0 .055 1.058.75.75 0 0 0 1.059-.054l.01-.012a.75.75 0 0 0-.055-1.059.75.75 0 0 0-.541-.191M10.97 13.25a.75.75 0 0 0-.517.246l-.01.012a.75.75 0 0 0 .055 1.058.75.75 0 0 0 1.059-.054l.01-.012a.75.75 0 0 0-.055-1.059.75.75 0 0 0-.541-.191M17 9.25c-1.51 0-2.75 1.24-2.75 2.75s1.24 2.75 2.75 2.75 2.75-1.24 2.75-2.75S18.51 9.25 17 9.25m0 1.5c.7 0 1.25.55 1.25 1.25s-.55 1.25-1.25 1.25-1.25-.55-1.25-1.25.55-1.25 1.25-1.25" style="color:#000;fill:currentColor;stroke-linecap:round;stroke-linejoin:round;-inkscape-stroke:none"/>
</svg>
