<svg xmlns="http://www.w3.org/2000/svg" width="24" height="24" fill="none" stroke-width="1.5" viewBox="0 0 24 24">
    <path d="M12 1.25C6.072 1.25 1.25 6.072 1.25 12S6.072 22.75 12 22.75c.735 0 1.454-.074 2.148-.215a.75.75 0 0 0 .586-.885.75.75 0 0 0-.882-.586A9.307 9.307 0 0 1 12 21.25 9.239 9.239 0 0 1 2.75 12 9.239 9.239 0 0 1 12 2.75a9.239 9.239 0 0 1 9.225 9.95.75.75 0 0 0 .691.802.75.75 0 0 0 .805-.691c.02-.268.029-.538.029-.811 0-5.928-4.822-10.75-10.75-10.75" style="color:#000;fill:currentColor;stroke-linecap:round;stroke-linejoin:round;-inkscape-stroke:none"/>
    <path d="M12 5.25a.75.75 0 0 0-.75.75v12a.75.75 0 0 0 .75.75.75.75 0 0 0 .75-.75V6a.75.75 0 0 0-.75-.75M9 8.25a.75.75 0 0 0-.75.75v6a.75.75 0 0 0 .75.75.75.75 0 0 0 .75-.75V9A.75.75 0 0 0 9 8.25M18 10.25a.75.75 0 0 0-.75.75v2a.75.75 0 0 0 .75.75.75.75 0 0 0 .75-.75v-2a.75.75 0 0 0-.75-.75M6 10.25a.75.75 0 0 0-.75.75v2a.75.75 0 0 0 .75.75.75.75 0 0 0 .75-.75v-2a.75.75 0 0 0-.75-.75M15 6.25a.75.75 0 0 0-.75.75v10a.75.75 0 0 0 .75.75.75.75 0 0 0 .75-.75V7a.75.75 0 0 0-.75-.75M19.5 14.25c-.885 0-1.587.451-1.951.982a2.662 2.662 0 0 0-.465 1.518v1.217c-.462.216-.834.596-.834 1.133v2.3c0 .737.613 1.35 1.35 1.35h3.8a1.36 1.36 0 0 0 1.35-1.35v-2.3c0-.537-.372-.917-.834-1.133V16.75c0-.435-.1-.986-.465-1.518-.364-.53-1.066-.982-1.951-.982m0 1.5c.448 0 .58.132.715.33.136.198.201.521.201.67v1h-1.832v-1c0-.149.065-.472.201-.67.136-.198.267-.33.715-.33m-1.75 3.5h3.5v2h-3.5z" style="color:#000;fill:currentColor;stroke-linecap:round;stroke-linejoin:round;-inkscape-stroke:none"/>
</svg>
