<svg xmlns="http://www.w3.org/2000/svg" width="24" height="24" fill="none" stroke-width="1.5" viewBox="0 0 24 24">
    <path d="M1.5 3.25a.75.75 0 0 0-.633 1.152l10.5 16.5a.75.75 0 0 0 1.266 0l10.5-16.5A.75.75 0 0 0 22.5 3.25h-4a.75.75 0 0 0-.629.342L12 12.625 6.129 3.592A.75.75 0 0 0 5.5 3.25Zm1.365 1.5h2.229l6.277 9.658a.75.75 0 0 0 1.258 0l6.277-9.658h2.229L12 19.104Z" style="color:#000;fill:currentColor;stroke-linecap:round;stroke-linejoin:round;-inkscape-stroke:none"/>
    <path d="M5.5 3.25a.75.75 0 0 0-.75.75.75.75 0 0 0 .75.75h3.613l2.278 3.186a.75.75 0 0 0 1.218 0l2.278-3.186H18.5a.75.75 0 0 0 .75-.75.75.75 0 0 0-.75-.75h-4a.75.75 0 0 0-.61.314L12 6.211l-1.89-2.647a.75.75 0 0 0-.61-.314Z" style="color:#000;fill:currentColor;stroke-linecap:round;stroke-linejoin:round;-inkscape-stroke:none"/>
</svg>
