<svg xmlns="http://www.w3.org/2000/svg" width="24" height="24" fill="none" stroke-width="1.5" viewBox="0 0 24 24">
    <path d="M6.846 1.725a1.35 1.35 0 0 0-1.168.673L.523 11.324c-.24.417-.24.935 0 1.352l5.155 8.926c.24.416.687.673 1.168.673h10.308a1.35 1.35 0 0 0 1.168-.673l5.155-8.926c.24-.417.24-.935 0-1.352l-5.155-8.926a1.35 1.35 0 0 0-1.168-.673Zm.086 1.5h10.136L22.135 12l-5.067 8.775H6.932L1.865 12Z" style="color:#000;fill:currentColor;stroke-linecap:round;stroke-linejoin:round;-inkscape-stroke:none"/>
    <path d="M12 7.25a.75.75 0 0 0-.75.75v4a.75.75 0 0 0 .75.75.75.75 0 0 0 .75-.75V8a.75.75 0 0 0-.75-.75M11.97 15.25a.75.75 0 0 0-.517.246l-.01.012a.75.75 0 0 0 .055 1.058.75.75 0 0 0 1.059-.054l.01-.012a.75.75 0 0 0-.055-1.059.75.75 0 0 0-.541-.191" style="color:#000;fill:currentColor;stroke-linecap:round;stroke-linejoin:round;-inkscape-stroke:none"/>
</svg>
