<svg xmlns="http://www.w3.org/2000/svg" width="24" height="24" fill="none" stroke-width="1.5" viewBox="0 0 24 24">
    <path d="M5 1.25C3.49 1.25 2.25 2.49 2.25 4v16c0 1.51 1.24 2.75 2.75 2.75h14c1.51 0 2.75-1.24 2.75-2.75V4c0-1.51-1.24-2.75-2.75-2.75Zm0 1.5h14c.7 0 1.25.55 1.25 1.25v16c0 .7-.55 1.25-1.25 1.25H5c-.7 0-1.25-.55-1.25-1.25V4c0-.7.55-1.25 1.25-1.25" style="color:#000;fill:currentColor;stroke-linecap:round;stroke-linejoin:round;-inkscape-stroke:none"/>
    <path d="M18.512 4.441a.75.75 0 0 0-1.059.057l-.01.01a.75.75 0 0 0 .055 1.06.75.75 0 0 0 1.059-.056l.011-.012a.75.75 0 0 0-.056-1.059M12 6.25c-3.719 0-6.75 3.031-6.75 6.75s3.031 6.75 6.75 6.75 6.75-3.031 6.75-6.75S15.719 6.25 12 6.25m0 1.5A5.24 5.24 0 0 1 17.25 13 5.24 5.24 0 0 1 12 18.25 5.24 5.24 0 0 1 6.75 13 5.24 5.24 0 0 1 12 7.75" style="color:#000;fill:currentColor;stroke-linecap:round;stroke-linejoin:round;-inkscape-stroke:none"/>
    <path d="M9 12.25a.75.75 0 0 0-.75.75A3.76 3.76 0 0 0 12 16.75a.75.75 0 0 0 .75-.75.75.75 0 0 0-.75-.75A2.24 2.24 0 0 1 9.75 13a.75.75 0 0 0-.75-.75" style="color:#000;fill:currentColor;stroke-linecap:round;stroke-linejoin:round;-inkscape-stroke:none"/>
</svg>
