<svg xmlns="http://www.w3.org/2000/svg" width="24" height="24" fill="none" stroke-width="1.5" viewBox="0 0 24 24">
    <path d="M1.883 4.26a.75.75 0 0 0-.623.857l1.953 12.315A2.759 2.759 0 0 0 5.93 19.75h12.14a2.759 2.759 0 0 0 2.717-2.318L22.74 5.117a.75.75 0 0 0-.623-.857.75.75 0 0 0-.857.623l-1.955 12.312a1.242 1.242 0 0 1-1.235 1.055H5.93c-.62 0-1.137-.442-1.235-1.055L2.74 4.883a.75.75 0 0 0-.857-.623" style="color:#000;fill:currentColor;stroke-linecap:round;stroke-linejoin:round;-inkscape-stroke:none"/>
    <path d="M7.527 7.25a.75.75 0 0 0-.603.27s-.59.706-1.412 1.41S3.625 10.25 3 10.25a.75.75 0 0 0-.75.75.75.75 0 0 0 .75.75c1.375 0 2.56-.884 3.488-1.68.578-.495.713-.687.989-.99.252.311.348.489.888.977.897.809 2.14 1.693 3.635 1.693 1.495 0 2.738-.884 3.635-1.693.54-.488.636-.666.888-.977.276.303.41.495.989.99.928.796 2.113 1.68 3.488 1.68a.75.75 0 0 0 .75-.75.75.75 0 0 0-.75-.75c-.625 0-1.69-.616-2.512-1.32-.821-.704-1.412-1.41-1.412-1.41a.75.75 0 0 0-1.185.043s-.496.69-1.262 1.38c-.766.691-1.772 1.307-2.629 1.307s-1.863-.616-2.629-1.307a9.792 9.792 0 0 1-1.262-1.38.75.75 0 0 0-.582-.313" style="color:#000;fill:currentColor;stroke-linecap:round;stroke-linejoin:round;-inkscape-stroke:none"/>
</svg>
