<svg xmlns="http://www.w3.org/2000/svg" width="24" height="24" fill="none" stroke-width="1.5" viewBox="0 0 24 24">
    <path d="M5 4.25C3.49 4.25 2.25 5.49 2.25 7v10c0 1.51 1.24 2.75 2.75 2.75h14c1.51 0 2.75-1.24 2.75-2.75V7c0-1.51-1.24-2.75-2.75-2.75Zm0 1.5h14c.7 0 1.25.55 1.25 1.25v10c0 .7-.55 1.25-1.25 1.25H5c-.7 0-1.25-.55-1.25-1.25V7c0-.7.55-1.25 1.25-1.25" style="color:#000;fill:currentColor;-inkscape-stroke:none"/>
    <path d="M11.46 8.28a.75.75 0 0 0-.448.357l-1.668 3A.75.75 0 0 0 10 12.75h2.725l-1.047 1.887a.75.75 0 0 0 .29 1.02.75.75 0 0 0 1.02-.294l1.668-3A.75.75 0 0 0 14 11.25h-2.725l1.047-1.887a.75.75 0 0 0-.29-1.02.75.75 0 0 0-.571-.064M6 7.25a.75.75 0 0 0-.75.75.75.75 0 0 0 .75.75h1A.75.75 0 0 0 7.75 8 .75.75 0 0 0 7 7.25Z" style="color:#000;fill:currentColor;stroke-linecap:round;stroke-linejoin:round;-inkscape-stroke:none"/>
</svg>
