<svg xmlns="http://www.w3.org/2000/svg" width="24" height="24" fill="none" stroke-width="1.5" viewBox="0 0 24 24">
    <path d="M4.6 2.25A1.36 1.36 0 0 0 3.25 3.6V6a.75.75 0 0 0 .75.75.75.75 0 0 0 .75-.75V3.75h14.5V6a.75.75 0 0 0 .75.75.75.75 0 0 0 .75-.75V3.6a1.36 1.36 0 0 0-1.35-1.35ZM4 17.25a.75.75 0 0 0-.75.75v2.4c0 .737.613 1.35 1.35 1.35h14.8a1.36 1.36 0 0 0 1.35-1.35V18a.75.75 0 0 0-.75-.75.75.75 0 0 0-.75.75v2.25H4.75V18a.75.75 0 0 0-.75-.75" style="color:#000;fill:currentColor;stroke-linecap:round;-inkscape-stroke:none"/>
    <path d="M13.5 8.25a.75.75 0 0 0-.75.75v6a.75.75 0 0 0 .75.75.75.75 0 0 0 .75-.75V9.75h1.5v.75c0 .423-.327.75-.75.75a.75.75 0 0 0-.75.75.75.75 0 0 0 .75.75 2.26 2.26 0 0 0 2.25-2.25v-.9a1.36 1.36 0 0 0-1.35-1.35Z" style="color:#000;fill:currentColor;stroke-linecap:round;stroke-linejoin:round;-inkscape-stroke:none"/>
    <path d="M13.5 11.25a.75.75 0 0 0-.75.75.75.75 0 0 0 .75.75H15c.423 0 .75.327.75.75v.75H13.5a.75.75 0 0 0-.75.75.75.75 0 0 0 .75.75h2.4a1.36 1.36 0 0 0 1.35-1.35v-.9A2.26 2.26 0 0 0 15 11.25zM19.5 8.25a.75.75 0 0 0-.75.75v6a.75.75 0 0 0 .75.75.75.75 0 0 0 .75-.75v-2.25h2.25a.75.75 0 0 0 .75-.75V9a.75.75 0 0 0-.75-.75Zm.75 1.5h1.5v1.5h-1.5zM1.5 8.25A.75.75 0 0 0 .75 9v6a.75.75 0 0 0 1.42.336l.83-1.66.83 1.66A.75.75 0 0 0 5.25 15V9a.75.75 0 0 0-.75-.75.75.75 0 0 0-.75.75v2.824l-.08-.16a.75.75 0 0 0-1.34 0l-.08.16V9a.75.75 0 0 0-.75-.75M7.5 8.25a.75.75 0 0 0-.75.75v6a.75.75 0 0 0 .75.75h3a.75.75 0 0 0 .75-.75.75.75 0 0 0-.75-.75H8.25v-4.5h2.25a.75.75 0 0 0 .75-.75.75.75 0 0 0-.75-.75Z" style="color:#000;fill:currentColor;stroke-linecap:round;stroke-linejoin:round;-inkscape-stroke:none"/>
    <path d="M7.5 11.25a.75.75 0 0 0-.75.75.75.75 0 0 0 .75.75h2a.75.75 0 0 0 .75-.75.75.75 0 0 0-.75-.75Z" style="color:#000;fill:currentColor;stroke-linecap:round;stroke-linejoin:round;-inkscape-stroke:none"/>
</svg>
