<svg xmlns="http://www.w3.org/2000/svg" width="24" height="24" fill="none" stroke-width="1.5" viewBox="0 0 24 24">
    <path d="M3.6 4.25A1.36 1.36 0 0 0 2.25 5.6v14.8c0 .737.613 1.35 1.35 1.35h16.8a1.36 1.36 0 0 0 1.35-1.35V5.6a1.36 1.36 0 0 0-1.35-1.35h-3.9a.75.75 0 0 0-.75.75.75.75 0 0 0 .75.75h3.75v14.5H3.75V5.75H7.5A.75.75 0 0 0 8.25 5a.75.75 0 0 0-.75-.75Z" style="color:#000;fill:currentColor;stroke-linecap:round;stroke-linejoin:round;-inkscape-stroke:none"/>
    <path d="M9.693 1.25c-1.339 0-2.49.978-2.71 2.299l-.206 1.228a1.36 1.36 0 0 0 0 .446l.205 1.228A2.757 2.757 0 0 0 9.693 8.75h4.614c1.339 0 2.49-.978 2.71-2.299l.206-1.228a.75.75 0 0 0 0-.002 1.35 1.35 0 0 0 0-.442.75.75 0 0 0 0-.002l-.205-1.228a2.757 2.757 0 0 0-2.711-2.299Zm0 1.5h4.614c.616 0 1.13.437 1.232 1.045L15.74 5l-.2 1.205a1.242 1.242 0 0 1-1.233 1.045H9.693a1.242 1.242 0 0 1-1.232-1.045L8.26 5l.2-1.205A1.242 1.242 0 0 1 9.694 2.75" style="color:#000;fill:currentColor;stroke-linecap:round;stroke-linejoin:round;-inkscape-stroke:none"/>
    <path d="M10.72 4.803a.75.75 0 0 0-.417.976l1 2.5a.75.75 0 0 0 .976.418.75.75 0 0 0 .418-.976l-1-2.5a.75.75 0 0 0-.976-.418M7 16.25a.75.75 0 0 0-.75.75.75.75 0 0 0 .75.75h10a.75.75 0 0 0 .75-.75.75.75 0 0 0-.75-.75Z" style="color:#000;fill:currentColor;stroke-linecap:round;stroke-linejoin:round;-inkscape-stroke:none"/>
</svg>
