<svg xmlns="http://www.w3.org/2000/svg" width="24" height="24" fill="none" stroke-width="1.5" viewBox="0 0 24 24">
    <path d="M12 1.25C6.072 1.25 1.25 6.072 1.25 12c0 1.41.33 2.738.826 3.975l-.818 5.414a.75.75 0 0 0 .865.851l4.8-.804C8.44 22.253 10.16 22.75 12 22.75c5.928 0 10.75-4.822 10.75-10.75S17.928 1.25 12 1.25m0 1.5A9.24 9.24 0 0 1 21.25 12 9.24 9.24 0 0 1 12 21.25a9.2 9.2 0 0 1-4.625-1.236.75.75 0 0 0-.498-.092l-3.98.666.677-4.477a.75.75 0 0 0-.054-.412A9.2 9.2 0 0 1 2.75 12 9.24 9.24 0 0 1 12 2.75" style="fill:currentColor;stroke-linecap:round;stroke-linejoin:round"/>
    <path d="M7.943 6.25c-.985 0-1.825.892-1.673 1.902.224 1.499.862 4.215 2.876 6.244 2.1 2.115 4.988 2.965 6.583 3.315 1.045.23 2.021-.635 2.021-1.672v-1.824a.75.75 0 0 0-.48-.7l-1.961-.753a.75.75 0 0 0-.413-.035l-2.08.406a.75.75 0 0 0-.591.879.75.75 0 0 0 .879.592l1.869-.364 1.277.49v1.31c0 .175-.068.235-.2.206-1.45-.318-4.095-1.149-5.84-2.906-1.644-1.657-2.258-4.077-2.458-5.41-.019-.125.038-.18.191-.18h1.373l.48 1.287-.35 1.897a.75.75 0 0 0 .6.873.75.75 0 0 0 .874-.6l.389-2.102a.75.75 0 0 0-.034-.398l-.736-1.969a.75.75 0 0 0-.701-.488Z" style="fill:currentColor;stroke-linecap:round;stroke-linejoin:round"/>
</svg>
