<svg xmlns="http://www.w3.org/2000/svg" width="24" height="24" fill="none" stroke-width="1.5" viewBox="0 0 24 24">
    <path d="M8 2.25C4.281 2.25 1.25 5.281 1.25 9v6c0 3.719 3.031 6.75 6.75 6.75h8c3.719 0 6.75-3.031 6.75-6.75V9c0-3.719-3.031-6.75-6.75-6.75Zm0 1.5h8A5.239 5.239 0 0 1 21.25 9v6A5.239 5.239 0 0 1 16 20.25H8A5.239 5.239 0 0 1 2.75 15V9A5.239 5.239 0 0 1 8 3.75" style="color:#000;fill:currentColor;-inkscape-stroke:none"/>
    <path d="M11.97 14a.75.75 0 0 0-.517.246l-.01.012a.75.75 0 0 0 .055 1.058.75.75 0 0 0 1.059-.054l.01-.012a.75.75 0 0 0-.055-1.059.75.75 0 0 0-.541-.191M12 8.236c-2.084 0-4.169.845-5.576 2.534a.75.75 0 0 0 .096 1.056.75.75 0 0 0 1.056-.096c2.185-2.622 6.663-2.622 8.848 0a.75.75 0 0 0 1.056.096.75.75 0 0 0 .096-1.056C16.17 9.08 14.084 8.236 12 8.236" style="color:#000;fill:currentColor;stroke-linecap:round;stroke-linejoin:round;-inkscape-stroke:none"/>
    <path d="M12 11.012A4.472 4.472 0 0 0 8.4 12.8a.75.75 0 0 0 .15 1.049.75.75 0 0 0 1.05-.15 2.983 2.983 0 0 1 4.8 0 .75.75 0 0 0 1.05.15.75.75 0 0 0 .15-1.05 4.472 4.472 0 0 0-3.6-1.788" style="color:#000;fill:currentColor;stroke-linecap:round;stroke-linejoin:round;-inkscape-stroke:none"/>
</svg>
