<svg xmlns="http://www.w3.org/2000/svg" width="24" height="24" fill="none" stroke-width="1.5" viewBox="0 0 24 24">
    <path d="M11.97 18.75a.75.75 0 0 0-.517.246l-.01.012a.75.75 0 0 0 .055 1.058.75.75 0 0 0 1.059-.054l.01-.012a.75.75 0 0 0-.055-1.059.75.75 0 0 0-.541-.191M3 2.25a.75.75 0 0 0-.531.219.75.75 0 0 0 0 1.062l18 18a.75.75 0 0 0 1.062 0 .75.75 0 0 0 0-1.062l-18-18A.75.75 0 0 0 3 2.25" style="color:#000;fill:currentColor;stroke-linecap:round;stroke-linejoin:round;-inkscape-stroke:none"/>
    <path d="M13.174 3.916a17.076 17.076 0 0 0-3.266.088.75.75 0 0 0-.652.836.75.75 0 0 0 .836.652c3.956-.488 8.039.543 11.459 3.108a.75.75 0 0 0 1.049-.15.75.75 0 0 0-.15-1.05c-2.794-2.095-6.012-3.259-9.276-3.484m-7.701 1.25A17.805 17.805 0 0 0 1.55 7.4a.75.75 0 0 0-.15 1.05.75.75 0 0 0 1.048.15 16.308 16.308 0 0 1 3.594-2.045.75.75 0 0 0 .408-.979.75.75 0 0 0-.978-.41M9.367 9.266c-1.73.353-3.387 1.062-4.816 2.134a.75.75 0 0 0-.15 1.05.75.75 0 0 0 1.048.15c1.238-.928 2.69-1.553 4.219-1.866a.75.75 0 0 0 .586-.884.75.75 0 0 0-.887-.584m5.516.052a.75.75 0 0 0-.897.569.75.75 0 0 0 .567.896c1.447.327 2.82.934 3.998 1.817a.75.75 0 0 0 1.049-.15.75.75 0 0 0-.15-1.05 11.999 11.999 0 0 0-4.567-2.082M12 13.715c-1.333 0-2.666.383-3.896 1.148a.75.75 0 0 0-.24 1.033.75.75 0 0 0 1.032.24c2.04-1.268 4.169-1.268 6.208 0a.75.75 0 0 0 1.033-.24.75.75 0 0 0-.24-1.033c-1.231-.766-2.564-1.148-3.897-1.148" style="color:#000;fill:currentColor;stroke-linecap:round;stroke-linejoin:round;-inkscape-stroke:none"/>
</svg>
