<svg xmlns="http://www.w3.org/2000/svg" width="24" height="24" fill="none" stroke-width="1.5" viewBox="0 0 24 24">
    <path d="M4 2.25C2.49 2.25 1.25 3.49 1.25 5v14c0 1.51 1.24 2.75 2.75 2.75h9a.75.75 0 0 0 .75-.75.75.75 0 0 0-.75-.75H4c-.7 0-1.25-.55-1.25-1.25V5c0-.7.55-1.25 1.25-1.25h16c.7 0 1.25.55 1.25 1.25v10a.75.75 0 0 0 .75.75.75.75 0 0 0 .75-.75V5c0-1.51-1.24-2.75-2.75-2.75Z" style="color:#000;fill:currentColor;stroke-linecap:round;-inkscape-stroke:none"/>
    <path d="M2 6.25a.75.75 0 0 0-.75.75.75.75 0 0 0 .75.75h20a.75.75 0 0 0 .75-.75.75.75 0 0 0-.75-.75ZM4.97 4.25a.75.75 0 0 0-.517.248l-.01.01a.75.75 0 0 0 .055 1.06.75.75 0 0 0 1.059-.056l.011-.012a.75.75 0 0 0-.056-1.059.75.75 0 0 0-.541-.191M7.97 4.25a.75.75 0 0 0-.517.248l-.01.01a.75.75 0 0 0 .055 1.06.75.75 0 0 0 1.059-.056l.011-.012a.75.75 0 0 0-.056-1.059.75.75 0 0 0-.541-.191M10.97 4.25a.75.75 0 0 0-.517.248l-.01.01a.75.75 0 0 0 .055 1.06.75.75 0 0 0 1.059-.056l.011-.012a.75.75 0 0 0-.056-1.059.75.75 0 0 0-.541-.191M22 17.25a.75.75 0 0 0-.531.219L18 20.937l-1.469-1.468a.75.75 0 0 0-1.062 0 .75.75 0 0 0 0 1.062l2 2a.75.75 0 0 0 1.062 0l4-4a.75.75 0 0 0 0-1.062.75.75 0 0 0-.531-.219" style="color:#000;fill:currentColor;stroke-linecap:round;stroke-linejoin:round;-inkscape-stroke:none"/>
</svg>
