<svg xmlns="http://www.w3.org/2000/svg" width="24" height="24" fill="none" stroke-width="1.5" viewBox="0 0 24 24">
    <path d="M4 2.25C2.49 2.25 1.25 3.49 1.25 5v14c0 1.51 1.24 2.75 2.75 2.75h8a.75.75 0 0 0 .75-.75.75.75 0 0 0-.75-.75H4c-.7 0-1.25-.55-1.25-1.25V5c0-.7.55-1.25 1.25-1.25h16c.7 0 1.25.55 1.25 1.25v8a.75.75 0 0 0 .75.75.75.75 0 0 0 .75-.75V5c0-1.51-1.24-2.75-2.75-2.75Z" style="color:#000;fill:currentColor;stroke-linecap:round;-inkscape-stroke:none"/>
    <path d="M2 6.25a.75.75 0 0 0-.75.75.75.75 0 0 0 .75.75h20a.75.75 0 0 0 .75-.75.75.75 0 0 0-.75-.75ZM4.97 4.25a.75.75 0 0 0-.517.248l-.01.01a.75.75 0 0 0 .055 1.06.75.75 0 0 0 1.059-.056l.011-.012a.75.75 0 0 0-.056-1.059.75.75 0 0 0-.541-.191M7.97 4.25a.75.75 0 0 0-.517.248l-.01.01a.75.75 0 0 0 .055 1.06.75.75 0 0 0 1.059-.056l.011-.012a.75.75 0 0 0-.056-1.059.75.75 0 0 0-.541-.191M10.97 4.25a.75.75 0 0 0-.517.248l-.01.01a.75.75 0 0 0 .055 1.06.75.75 0 0 0 1.059-.056l.011-.012a.75.75 0 0 0-.056-1.059.75.75 0 0 0-.541-.191M18.5 14.25a4.26 4.26 0 0 0-4.25 4.25 4.247 4.247 0 0 0 4.25 4.25 4.26 4.26 0 0 0 4.25-4.25c0-1.05-.42-1.988-1.055-2.73a.8.8 0 0 0-.16-.245A4.25 4.25 0 0 0 18.5 14.25m0 1.5c.478 0 .826.297 1.215.51l-3.486 3.414c-.198-.378-.479-.714-.479-1.174a2.74 2.74 0 0 1 2.75-2.75m2.271 1.576c.198.378.479.714.479 1.174a2.74 2.74 0 0 1-2.75 2.75c-.478 0-.826-.297-1.215-.51z" style="color:#000;fill:currentColor;stroke-linecap:round;stroke-linejoin:round;-inkscape-stroke:none"/>
</svg>
