<svg xmlns="http://www.w3.org/2000/svg" width="24" height="24" fill="none" stroke-width="1.5" viewBox="0 0 24 24">
    <path d="M4 6.25a.75.75 0 0 0-.75.75.75.75 0 0 0 .75.75h16a.75.75 0 0 0 .75-.75.75.75 0 0 0-.75-.75ZM4 16.25a.75.75 0 0 0-.75.75.75.75 0 0 0 .75.75h5a.75.75 0 0 0 .75-.75.75.75 0 0 0-.75-.75ZM4 11.25a.75.75 0 0 0-.75.75.75.75 0 0 0 .75.75h13.5c.975 0 1.75.775 1.75 1.75s-.775 1.75-1.75 1.75h-5a.75.75 0 0 0-.75.75.75.75 0 0 0 .75.75h5a3.261 3.261 0 0 0 3.25-3.25 3.261 3.261 0 0 0-3.25-3.25z" style="color:#000;fill:currentColor;stroke-linecap:round;stroke-linejoin:round;-inkscape-stroke:none"/>
    <path d="M15.37 14.848a.75.75 0 0 0-.757.01l-2.5 1.5a.75.75 0 0 0 0 1.285l2.5 1.5a.75.75 0 0 0 1.137-.643v-3a.75.75 0 0 0-.38-.652m-1.12 1.976v.352L13.957 17Z" style="color:#000;fill:currentColor;stroke-linecap:round;stroke-linejoin:round;-inkscape-stroke:none"/>
</svg>
