<svg xmlns="http://www.w3.org/2000/svg" width="24" height="24" fill="none" stroke-width="1.5" viewBox="0 0 24 24">
    <path d="M8 15.723a.75.75 0 0 0-.75.75V20c0 1.51 1.24 2.75 2.75 2.75h4c1.51 0 2.75-1.24 2.75-2.75v-3.527a.75.75 0 0 0-.75-.75.75.75 0 0 0-.75.75V20c0 .7-.55 1.25-1.25 1.25h-4c-.7 0-1.25-.55-1.25-1.25v-3.527a.75.75 0 0 0-.75-.75M10 1.25C8.49 1.25 7.25 2.49 7.25 4v3.527a.75.75 0 0 0 .75.75.75.75 0 0 0 .75-.75V4c0-.7.55-1.25 1.25-1.25h4c.7 0 1.25.55 1.25 1.25v3.527a.75.75 0 0 0 .75.75.75.75 0 0 0 .75-.75V4c0-1.51-1.24-2.75-2.75-2.75Z" style="color:#000;fill:currentColor;stroke-linecap:round;stroke-linejoin:round;-inkscape-stroke:none"/>
    <path d="M12 5.25c-3.719 0-6.75 3.031-6.75 6.75s3.031 6.75 6.75 6.75 6.75-3.031 6.75-6.75S15.719 5.25 12 5.25m0 1.5A5.239 5.239 0 0 1 17.25 12 5.239 5.239 0 0 1 12 17.25 5.239 5.239 0 0 1 6.75 12 5.239 5.239 0 0 1 12 6.75" style="color:#000;fill:currentColor;stroke-linecap:round;stroke-linejoin:round;-inkscape-stroke:none"/>
    <path d="M12 9.25a.75.75 0 0 0-.75.75v2a.75.75 0 0 0 .75.75h2a.75.75 0 0 0 .75-.75.75.75 0 0 0-.75-.75h-1.25V10a.75.75 0 0 0-.75-.75" style="color:#000;fill:currentColor;stroke-linecap:round;stroke-linejoin:round;-inkscape-stroke:none"/>
</svg>
