<svg xmlns="http://www.w3.org/2000/svg" width="24" height="24" fill="none" stroke-width="1.5" viewBox="0 0 24 24">
    <path d="M3.531 16.275a.75.75 0 0 0-.568.077.75.75 0 0 0-.274 1.023 10.75 10.75 0 0 0 18.622 0 .75.75 0 0 0-.274-1.023.75.75 0 0 0-1.023.273A9.241 9.241 0 0 1 12 21.25a9.241 9.241 0 0 1-8.014-4.625.75.75 0 0 0-.455-.35M12 1.25a10.75 10.75 0 0 0-9.31 5.375.75.75 0 0 0 .273 1.023.75.75 0 0 0 1.023-.273A9.241 9.241 0 0 1 12 2.75c3.43 0 6.414 1.86 8.014 4.625a.75.75 0 0 0 1.023.273.75.75 0 0 0 .274-1.023A10.75 10.75 0 0 0 12 1.25" style="color:#000;fill:currentColor;stroke-linecap:round;stroke-linejoin:round;-inkscape-stroke:none"/>
    <path d="M15.502 16.28a.75.75 0 0 0-.928.513c-.85 2.97-2.172 4.703-2.172 4.703a.75.75 0 0 0 .145 1.053.75.75 0 0 0 1.05-.145s1.496-1.974 2.419-5.197a.75.75 0 0 0-.514-.928M13.102 1.307a.75.75 0 0 0-.555.144.75.75 0 0 0-.145 1.051s1.321 1.734 2.172 4.705a.75.75 0 0 0 .928.514.75.75 0 0 0 .514-.928c-.923-3.223-2.418-5.197-2.418-5.197a.75.75 0 0 0-.496-.29M8.498 16.28a.75.75 0 0 0-.514.927c.923 3.223 2.418 5.197 2.418 5.197a.75.75 0 0 0 1.051.145.75.75 0 0 0 .145-1.053s-1.321-1.732-2.172-4.703a.75.75 0 0 0-.928-.514M11.453 1.451a.75.75 0 0 0-1.05.145S8.906 3.57 7.983 6.793a.75.75 0 0 0 .514.928.75.75 0 0 0 .928-.514c.85-2.97 2.172-4.705 2.172-4.705a.75.75 0 0 0-.145-1.05M12 9.25a.75.75 0 0 0-.719.535L10.5 12.39l-.781-2.604a.75.75 0 0 0-.934-.504.75.75 0 0 0-.504.934l1.5 5a.75.75 0 0 0 1.438 0L12 12.61l.781 2.604a.75.75 0 0 0 1.438 0l1.5-5a.75.75 0 0 0-.504-.934.75.75 0 0 0-.934.504L13.5 12.39l-.781-2.604A.75.75 0 0 0 12 9.25M4 9.25a.75.75 0 0 0-.719.535L2.5 12.39l-.781-2.604a.75.75 0 0 0-.934-.504.75.75 0 0 0-.504.934l1.5 5a.75.75 0 0 0 1.438 0L4 12.61l.781 2.604a.75.75 0 0 0 1.438 0l1.5-5a.75.75 0 0 0-.504-.934.75.75 0 0 0-.934.504L5.5 12.39l-.781-2.604A.75.75 0 0 0 4 9.25M20 9.25a.75.75 0 0 0-.719.535L18.5 12.39l-.781-2.604a.75.75 0 0 0-.934-.504.75.75 0 0 0-.504.934l1.5 5a.75.75 0 0 0 1.438 0L20 12.61l.781 2.604a.75.75 0 0 0 1.438 0l1.5-5a.75.75 0 0 0-.504-.934.75.75 0 0 0-.934.504L21.5 12.39l-.781-2.604A.75.75 0 0 0 20 9.25" style="color:#000;fill:currentColor;stroke-linecap:round;stroke-linejoin:round;-inkscape-stroke:none"/>
</svg>
