<svg xmlns="http://www.w3.org/2000/svg" width="24" height="24" fill="none" stroke-width="1.5" viewBox="0 0 24 24">
    <path d="M4.227 2.25c-1.075 0-1.724 1.332-1.065 2.18L16.23 21.229a1.35 1.35 0 0 0 1.064.521h2.48c1.075 0 1.724-1.332 1.065-2.18L7.77 2.771a1.35 1.35 0 0 0-1.064-.521Zm.306 1.5h2.1l12.834 16.5h-2.1z" style="color:#000;fill:currentColor;-inkscape-stroke:none"/>
    <path d="M19.955 2.252a.75.75 0 0 0-.516.25l-16 18a.75.75 0 0 0 .063 1.059.75.75 0 0 0 1.059-.063l16-18a.75.75 0 0 0-.063-1.059.75.75 0 0 0-.543-.187" style="color:#000;fill:currentColor;stroke-linecap:round;-inkscape-stroke:none"/>
</svg>
