<svg xmlns="http://www.w3.org/2000/svg" width="24" height="24" fill="none" stroke-width="1.5" viewBox="0 0 24 24">
    <path d="M12 1.25C6.072 1.25 1.25 6.072 1.25 12S6.072 22.75 12 22.75 22.75 17.928 22.75 12 17.928 1.25 12 1.25m0 1.5A9.239 9.239 0 0 1 21.25 12 9.239 9.239 0 0 1 12 21.25 9.239 9.239 0 0 1 2.75 12 9.239 9.239 0 0 1 12 2.75" style="color:#000;fill:currentColor;stroke-linecap:round;stroke-linejoin:round;-inkscape-stroke:none"/>
    <path d="M9.182 7.271a.75.75 0 0 0-.569.086.75.75 0 0 0-.256 1.03l3 5a.75.75 0 0 0 1.03.256.75.75 0 0 0 .256-1.03l-3-5a.75.75 0 0 0-.461-.342" style="color:#000;fill:currentColor;stroke-linecap:round;stroke-linejoin:round;-inkscape-stroke:none"/>
    <path d="M14.818 7.271a.75.75 0 0 0-.46.342l-3 5a.75.75 0 0 0-.108.387v3a.75.75 0 0 0 .75.75.75.75 0 0 0 .75-.75v-2.793l2.893-4.82a.75.75 0 0 0-.256-1.03.75.75 0 0 0-.569-.086" style="color:#000;fill:currentColor;stroke-linecap:round;stroke-linejoin:round;-inkscape-stroke:none"/>
</svg>
