<svg xmlns="http://www.w3.org/2000/svg" width="24" height="24" fill="none" stroke-width="1.5" viewBox="0 0 24 24">
    <path d="M12 1.25C6.072 1.25 1.25 6.072 1.25 12S6.072 22.75 12 22.75 22.75 17.928 22.75 12 17.928 1.25 12 1.25m0 1.5A9.24 9.24 0 0 1 21.25 12 9.24 9.24 0 0 1 12 21.25 9.24 9.24 0 0 1 2.75 12 9.24 9.24 0 0 1 12 2.75" style="color:#000;fill:currentColor;stroke-linecap:round;stroke-linejoin:round;-inkscape-stroke:none"/>
    <path d="M8.55 7.4a.75.75 0 0 0-.15 1.05l6 8a.75.75 0 0 0 1.05.15.75.75 0 0 0 .15-1.05l-6-8a.75.75 0 0 0-1.05-.15" style="color:#000;fill:currentColor;stroke-linecap:round;stroke-linejoin:round;-inkscape-stroke:none"/>
    <path d="M15.45 7.4a.75.75 0 0 0-1.05.15l-6 8a.75.75 0 0 0 .15 1.05.75.75 0 0 0 1.05-.15l6-8a.75.75 0 0 0-.15-1.05" style="color:#000;fill:currentColor;stroke-linecap:round;stroke-linejoin:round;-inkscape-stroke:none"/>
</svg>
