<svg xmlns="http://www.w3.org/2000/svg" width="24" height="24" fill="none" stroke-width="1.5" viewBox="0 0 24 24">
    <path d="M6.758 6.008a.75.75 0 0 0-.53.219.75.75 0 0 0 0 1.06L10.94 12l-4.71 4.713a.75.75 0 0 0 0 1.06.75.75 0 0 0 1.06 0L12 13.063l4.713 4.71a.75.75 0 0 0 1.06 0 .75.75 0 0 0 0-1.06L13.063 12l4.71-4.713a.75.75 0 0 0 0-1.06.75.75 0 0 0-1.06 0L12 10.937l-4.71-4.71a.75.75 0 0 0-.532-.22" style="color:#000;fill:currentColor;stroke-linecap:round;stroke-linejoin:round;-inkscape-stroke:none"/>
</svg>
