<svg xmlns="http://www.w3.org/2000/svg" width="24" height="24" fill="none" stroke-width="1.5" viewBox="0 0 24 24">
    <path d="M10.055 1.5 6.598 2.537c-.871.261-1.237 1.359-.7 2.092l4.997 6.814a.75.75 0 0 0 1.353-.484l-.457-8.24c-.047-.855-.917-1.465-1.736-1.219m.248 1.492.308 5.528-3.379-4.606zM16.996 7.72a1.338 1.338 0 0 0-1.101.587l-2.52 3.777a.75.75 0 0 0 .76 1.154l4.568-.832c.945-.171 1.416-1.33.858-2.111L18.115 8.27a1.337 1.337 0 0 0-1.119-.55m.025 1.6 1.182 1.655-2.598.47zM14.635 15.262a.75.75 0 0 0-.805 1.074l2.065 4.13c.434.87 1.703.986 2.287.208l1.836-2.447c.583-.778.118-1.965-.838-2.14zm1.207 1.744 2.83.515-1.545 2.06zM11.787 15.807a.75.75 0 0 0-.818.162l-3.34 3.342c-.674.674-.412 1.884.48 2.218l2.317.87c.86.322 1.824-.346 1.824-1.264V16.5a.75.75 0 0 0-.463-.693m-1.037 2.505v2.606l-1.896-.711ZM5.703 11.264c-.87-.435-1.953.234-1.953 1.207v2.642c0 .93.989 1.6 1.852 1.254l4.177-1.67a.75.75 0 0 0 .057-1.367zm-.453 1.449 2.42 1.21-2.42.97Z" style="color:#000;fill:currentColor;stroke-linecap:round;stroke-linejoin:round;-inkscape-stroke:none"/>
</svg>
