<svg xmlns="http://www.w3.org/2000/svg" width="24" height="24" fill="none" stroke-width="1.5" viewBox="0 0 24 24">
    <path d="M14.256 14.324a.75.75 0 0 0-.365.996l.857 1.844a.75.75 0 0 0 .525.418s.898.195 1.768.6c.435.202.85.458 1.12.718.267.26.374.476.374.715 0 .191-.04.256-.096.324a.741.741 0 0 1-.29.192c-.268.108-.577.119-.577.119h-4.377l-2.082-1.156a.75.75 0 0 0-1.02.293.75.75 0 0 0 .294 1.02l2.25 1.25a.75.75 0 0 0 .363.093h4.572s.547.011 1.137-.227c.295-.119.622-.308.887-.628.265-.321.44-.779.44-1.28 0-.734-.376-1.35-.83-1.79-.456-.442-1.003-.757-1.532-1.003-.86-.4-1.412-.507-1.697-.574l-.725-1.56a.75.75 0 0 0-.996-.364" style="color:#000;fill:currentColor;stroke-linecap:round;stroke-linejoin:round;-inkscape-stroke:none"/>
    <path d="M9.744 14.324a.75.75 0 0 0-.996.364l-.725 1.56c-.285.067-.837.175-1.697.574-.529.246-1.076.56-1.531 1.002-.455.442-.83 1.057-.83 1.791 0 .501.174.959.44 1.28.264.32.591.51.886.628.59.238 1.137.227 1.137.227H8.5a.75.75 0 0 0 .365-.094l2.25-1.25a.75.75 0 0 0 .037-.023l2.75-1.75a.75.75 0 0 0 .23-1.035.75.75 0 0 0-1.034-.23l-2.73 1.737-2.061 1.145h-1.88s-.308-.011-.575-.12a.741.741 0 0 1-.291-.19c-.057-.069-.096-.134-.096-.325 0-.24.107-.454.375-.715.268-.26.684-.516 1.119-.718.87-.405 1.768-.6 1.768-.6a.75.75 0 0 0 .525-.418l.857-1.844a.75.75 0 0 0-.365-.996" style="color:#000;fill:currentColor;stroke-linecap:round;stroke-linejoin:round;-inkscape-stroke:none"/>
    <path d="M12 8.258c.027 0-.447-.033-.967.035s-1.186.24-1.877.645c-1.297.76-2.57 2.459-3.283 5.44-1.214.391-3.031.815-3.031.815a.75.75 0 0 0-.574.891.75.75 0 0 0 .89.576s2.138-.454 3.524-.951a.75.75 0 0 0 .482-.559c.614-3.084 1.776-4.347 2.752-4.92a3.447 3.447 0 0 1 1.31-.45c.364-.048.532-.022.774-.022s.41-.026.773.021c.364.048.823.165 1.311.451.976.573 2.138 1.836 2.752 4.92a.75.75 0 0 0 .482.559c1.386.497 3.524.951 3.524.951a.75.75 0 0 0 .89-.576.75.75 0 0 0-.574-.89s-1.817-.425-3.031-.815c-.713-2.982-1.986-4.68-3.283-5.441a4.974 4.974 0 0 0-1.877-.645c-.52-.068-.994-.035-.967-.035M12 2.25c-1.51 0-2.75 1.24-2.75 2.75S10.49 7.75 12 7.75 14.75 6.51 14.75 5 13.51 2.25 12 2.25m0 1.5c.7 0 1.25.55 1.25 1.25S12.7 6.25 12 6.25 10.75 5.7 10.75 5 11.3 3.75 12 3.75" style="color:#000;fill:currentColor;stroke-linecap:round;stroke-linejoin:round;-inkscape-stroke:none"/>
</svg>
