<?xml version="1.0" encoding="UTF-8" standalone="no"?>
<svg
   width="24"
   height="24"
   viewBox="0 0 24 24"
   stroke-width="1.5"
   fill="none"
   version="1.1"
   id="svg8"
   sodipodi:docname="adobe-lightroom.svg"
   inkscape:version="1.2.1 (9c6d41e410, 2022-07-14)"
   xmlns:inkscape="http://www.inkscape.org/namespaces/inkscape"
   xmlns:sodipodi="http://sodipodi.sourceforge.net/DTD/sodipodi-0.dtd"
   xmlns="http://www.w3.org/2000/svg"
   xmlns:svg="http://www.w3.org/2000/svg">
  <defs
     id="defs12" />
  <sodipodi:namedview
     id="namedview10"
     pagecolor="#ffffff"
     bordercolor="#666666"
     borderopacity="1.0"
     inkscape:showpageshadow="2"
     inkscape:pageopacity="0.0"
     inkscape:pagecheckerboard="0"
     inkscape:deskcolor="#d1d1d1"
     showgrid="false"
     inkscape:zoom="34.541667"
     inkscape:cx="10.364294"
     inkscape:cy="12.014475"
     inkscape:window-width="1920"
     inkscape:window-height="1009"
     inkscape:window-x="1912"
     inkscape:window-y="-8"
     inkscape:window-maximized="1"
     inkscape:current-layer="svg8" />
  <path
     style="color:#000000;fill:currentColor;stroke-linecap:round;stroke-linejoin:round;-inkscape-stroke:none"
     d="M 7,2.25 C 4.3855329,2.25 2.25,4.3855329 2.25,7 v 10 c 0,2.614434 2.1355239,4.75 4.75,4.75 h 10 c 2.614443,0 4.75,-2.135557 4.75,-4.75 V 7 C 21.75,4.3855239 19.614434,2.25 17,2.25 Z m 0,1.5 h 10 c 1.803761,0 3.25,1.4462005 3.25,3.25 v 10 c 0,1.803752 -1.446248,3.25 -3.25,3.25 H 7 C 5.1962005,20.25 3.75,18.803761 3.75,17 V 7 C 3.75,5.1961915 5.1961915,3.75 7,3.75 Z"
     id="path2" />
  <path
     style="color:#000000;fill:currentColor;stroke-linecap:round;stroke-linejoin:round;-inkscape-stroke:none"
     d="M 7,7.25 A 0.75,0.75 0 0 0 6.25,8 v 8 A 0.750075,0.750075 0 0 0 7,16.75 h 4 A 0.75,0.75 0 0 0 11.75,16 0.75,0.75 0 0 0 11,15.25 H 7.75 V 8 A 0.75,0.75 0 0 0 7,7.25 Z"
     id="path4" />
  <path
     style="color:#000000;fill:currentColor;stroke-linecap:round;stroke-linejoin:round;-inkscape-stroke:none"
     d="M 14,9.75 A 0.75,0.75 0 0 0 13.25,10.5 V 13 16 A 0.75,0.75 0 0 0 14,16.75 0.75,0.75 0 0 0 14.75,16 v -3 c 0,0 0.0061,-0.427435 0.267578,-0.863281 C 15.279086,11.700872 15.708335,11.25 17,11.25 A 0.75,0.75 0 0 0 17.75,10.5 0.75,0.75 0 0 0 17,9.75 c -0.98036,0 -1.694602,0.287618 -2.265625,0.666016 A 0.75,0.75 0 0 0 14,9.75 Z"
     id="path6" />
</svg>
