<?xml version="1.0" encoding="UTF-8" standalone="no"?>
<svg
   width="24"
   height="24"
   viewBox="0 0 24 24"
   stroke-width="1.5"
   fill="none"
   version="1.1"
   id="svg8"
   sodipodi:docname="adobe-after-effects.svg"
   inkscape:version="1.2.1 (9c6d41e410, 2022-07-14)"
   xmlns:inkscape="http://www.inkscape.org/namespaces/inkscape"
   xmlns:sodipodi="http://sodipodi.sourceforge.net/DTD/sodipodi-0.dtd"
   xmlns="http://www.w3.org/2000/svg"
   xmlns:svg="http://www.w3.org/2000/svg">
  <defs
     id="defs12" />
  <sodipodi:namedview
     id="namedview10"
     pagecolor="#ffffff"
     bordercolor="#666666"
     borderopacity="1.0"
     inkscape:showpageshadow="2"
     inkscape:pageopacity="0.0"
     inkscape:pagecheckerboard="0"
     inkscape:deskcolor="#d1d1d1"
     showgrid="false"
     inkscape:zoom="34.541667"
     inkscape:cx="10.364294"
     inkscape:cy="12.014475"
     inkscape:window-width="1920"
     inkscape:window-height="1009"
     inkscape:window-x="1912"
     inkscape:window-y="-8"
     inkscape:window-maximized="1"
     inkscape:current-layer="svg8" />
  <path
     style="color:#000000;fill:currentColor;stroke-linecap:round;stroke-linejoin:round;-inkscape-stroke:none"
     d="M 7,2.25 C 4.3855329,2.25 2.25,4.3855329 2.25,7 v 10 c 0,2.614434 2.1355239,4.75 4.75,4.75 h 10 c 2.614443,0 4.75,-2.135557 4.75,-4.75 V 7 C 21.75,4.3855239 19.614434,2.25 17,2.25 Z m 0,1.5 h 10 c 1.803761,0 3.25,1.4462005 3.25,3.25 v 10 c 0,1.803752 -1.446248,3.25 -3.25,3.25 H 7 C 5.1962005,20.25 3.75,18.803761 3.75,17 V 7 C 3.75,5.1961915 5.1961915,3.75 7,3.75 Z"
     id="path2" />
  <path
     style="color:#000000;fill:currentColor;stroke-linecap:round;stroke-linejoin:round;-inkscape-stroke:none"
     d="m 16,9.25 c -1.509904,0 -2.75,1.240096 -2.75,2.75 v 1 1 c 0,1.509904 1.240096,2.75 2.75,2.75 h 1.5 A 0.75,0.75 0 0 0 18.25,16 0.75,0.75 0 0 0 17.5,15.25 H 16 c -0.699294,0 -1.25,-0.550706 -1.25,-1.25 V 13.75 H 18 A 0.750075,0.750075 0 0 0 18.75,13 V 12 C 18.75,10.490096 17.509904,9.25 16,9.25 Z m 0,1.5 c 0.699294,0 1.25,0.550706 1.25,1.25 v 0.25 h -2.5 V 12 c 0,-0.699294 0.550706,-1.25 1.25,-1.25 z"
     id="path4" />
  <path
     style="color:#000000;fill:currentColor;stroke-linecap:round;stroke-linejoin:round;-inkscape-stroke:none"
     d="M 9,7.25 A 0.750075,0.750075 0 0 0 8.296875,7.7363281 l -1.875,4.9999999 -1.125,3 A 0.75,0.75 0 0 0 5.7363281,16.703125 0.75,0.75 0 0 0 6.703125,16.263672 L 7.6464844,13.75 h 2.7070316 l 0.943359,2.513672 a 0.75,0.75 0 0 0 0.966797,0.439453 0.75,0.75 0 0 0 0.439453,-0.966797 l -1.125,-3 -0.0098,-0.02344 L 9.703125,7.7363281 A 0.750075,0.750075 0 0 0 9,7.25 Z M 9,10.138672 9.7910156,12.25 H 8.2089844 Z"
     id="path6" />
</svg>
