<?xml version="1.0" encoding="UTF-8" standalone="no"?>
<svg
   width="24"
   height="24"
   viewBox="0 0 24 24"
   stroke-width="1.5"
   fill="none"
   version="1.1"
   id="svg8"
   sodipodi:docname="adobe-indesign.svg"
   inkscape:version="1.2.1 (9c6d41e410, 2022-07-14)"
   xmlns:inkscape="http://www.inkscape.org/namespaces/inkscape"
   xmlns:sodipodi="http://sodipodi.sourceforge.net/DTD/sodipodi-0.dtd"
   xmlns="http://www.w3.org/2000/svg"
   xmlns:svg="http://www.w3.org/2000/svg">
  <defs
     id="defs12" />
  <sodipodi:namedview
     id="namedview10"
     pagecolor="#ffffff"
     bordercolor="#666666"
     borderopacity="1.0"
     inkscape:showpageshadow="2"
     inkscape:pageopacity="0.0"
     inkscape:pagecheckerboard="0"
     inkscape:deskcolor="#d1d1d1"
     showgrid="false"
     inkscape:zoom="34.541667"
     inkscape:cx="10.364294"
     inkscape:cy="12.014475"
     inkscape:window-width="1920"
     inkscape:window-height="1009"
     inkscape:window-x="1912"
     inkscape:window-y="-8"
     inkscape:window-maximized="1"
     inkscape:current-layer="svg8" />
  <path
     style="color:#000000;fill:currentColor;stroke-linecap:round;stroke-linejoin:round;-inkscape-stroke:none"
     d="M 7,2.25 C 4.3855329,2.25 2.25,4.3855329 2.25,7 v 10 c 0,2.614434 2.1355239,4.75 4.75,4.75 h 10 c 2.614443,0 4.75,-2.135557 4.75,-4.75 V 7 C 21.75,4.3855239 19.614434,2.25 17,2.25 Z m 0,1.5 h 10 c 1.803761,0 3.25,1.4462005 3.25,3.25 v 10 c 0,1.803752 -1.446248,3.25 -3.25,3.25 H 7 C 5.1962005,20.25 3.75,18.803761 3.75,17 V 7 C 3.75,5.1961915 5.1961915,3.75 7,3.75 Z"
     id="path2" />
  <path
     style="color:#000000;fill:currentColor;stroke-linecap:round;stroke-linejoin:round;-inkscape-stroke:none"
     d="M 8.5,7.25 A 0.75,0.75 0 0 0 7.75,8 v 8 A 0.75,0.75 0 0 0 8.5,16.75 0.75,0.75 0 0 0 9.25,16 V 8 A 0.75,0.75 0 0 0 8.5,7.25 Z"
     id="path4" />
  <path
     style="color:#000000;fill:currentColor;stroke-linecap:round;stroke-linejoin:round;-inkscape-stroke:none"
     d="M 15.5,8.25 A 0.75,0.75 0 0 0 14.75,9 v 2.25 H 13.5 c -1.509904,0 -2.75,1.240096 -2.75,2.75 0,1.509904 1.240096,2.75 2.75,2.75 h 1.400391 C 15.63704,16.75 16.25,16.13704 16.25,15.400391 V 12 9 A 0.75,0.75 0 0 0 15.5,8.25 Z m -2,4.5 h 1.25 v 2.5 H 13.5 c -0.699294,0 -1.25,-0.550706 -1.25,-1.25 0,-0.699294 0.550706,-1.25 1.25,-1.25 z"
     id="path6" />
</svg>
