<?xml version="1.0" encoding="UTF-8" standalone="no"?>
<svg
   width="24"
   height="24"
   viewBox="0 0 24 24"
   stroke-width="1.5"
   fill="none"
   version="1.1"
   id="svg10"
   sodipodi:docname="adobe-illustrator.svg"
   inkscape:version="1.2.1 (9c6d41e410, 2022-07-14)"
   xmlns:inkscape="http://www.inkscape.org/namespaces/inkscape"
   xmlns:sodipodi="http://sodipodi.sourceforge.net/DTD/sodipodi-0.dtd"
   xmlns="http://www.w3.org/2000/svg"
   xmlns:svg="http://www.w3.org/2000/svg">
  <defs
     id="defs14" />
  <sodipodi:namedview
     id="namedview12"
     pagecolor="#ffffff"
     bordercolor="#666666"
     borderopacity="1.0"
     inkscape:showpageshadow="2"
     inkscape:pageopacity="0.0"
     inkscape:pagecheckerboard="0"
     inkscape:deskcolor="#d1d1d1"
     showgrid="false"
     inkscape:zoom="34.541667"
     inkscape:cx="10.364294"
     inkscape:cy="12.014475"
     inkscape:window-width="1920"
     inkscape:window-height="1009"
     inkscape:window-x="1912"
     inkscape:window-y="-8"
     inkscape:window-maximized="1"
     inkscape:current-layer="svg10" />
  <path
     style="color:#000000;fill:currentColor;stroke-linecap:round;stroke-linejoin:round;-inkscape-stroke:none"
     d="M 7,2.25 C 4.3855329,2.25 2.25,4.3855329 2.25,7 v 10 c 0,2.614434 2.1355239,4.75 4.75,4.75 h 10 c 2.614443,0 4.75,-2.135557 4.75,-4.75 V 7 C 21.75,4.3855239 19.614434,2.25 17,2.25 Z m 0,1.5 h 10 c 1.803761,0 3.25,1.4462005 3.25,3.25 v 10 c 0,1.803752 -1.446248,3.25 -3.25,3.25 H 7 C 5.1962005,20.25 3.75,18.803761 3.75,17 V 7 C 3.75,5.1961915 5.1961915,3.75 7,3.75 Z"
     id="path2" />
  <path
     style="color:#000000;fill:currentColor;stroke-linecap:round;stroke-linejoin:round;-inkscape-stroke:none"
     d="M 16,11.25 A 0.75,0.75 0 0 0 15.25,12 v 4 A 0.75,0.75 0 0 0 16,16.75 0.75,0.75 0 0 0 16.75,16 V 12 A 0.75,0.75 0 0 0 16,11.25 Z"
     id="path4" />
  <path
     style="color:#000000;fill:currentColor;stroke-linecap:round;stroke-linejoin:round;-inkscape-stroke:none"
     d="M 16,8.25 A 0.75,0.75 0 0 0 15.25,9 v 0.00977 a 0.75,0.75 0 0 0 0.75,0.75 0.75,0.75 0 0 0 0.75,-0.75 V 9 A 0.75,0.75 0 0 0 16,8.25 Z"
     id="path6" />
  <path
     style="color:#000000;fill:currentColor;stroke-linecap:round;stroke-linejoin:round;-inkscape-stroke:none"
     d="M 10,7.25 A 0.750075,0.750075 0 0 0 9.296875,7.7363281 l -1.875,4.9999999 -1.125,3 A 0.75,0.75 0 0 0 6.7363281,16.703125 0.75,0.75 0 0 0 7.703125,16.263672 L 8.6464844,13.75 h 2.7070316 l 0.943359,2.513672 a 0.75,0.75 0 0 0 0.966797,0.439453 0.75,0.75 0 0 0 0.439453,-0.966797 l -1.125,-3 -0.0098,-0.02344 -1.865234,-4.9765629 A 0.750075,0.750075 0 0 0 10,7.25 Z M 10,10.138672 10.791016,12.25 H 9.2089844 Z"
     id="path8" />
</svg>
