<?xml version="1.0" encoding="UTF-8" standalone="no"?>
<svg
   width="24"
   height="24"
   viewBox="0 0 24 24"
   stroke-width="1.5"
   fill="none"
   version="1.1"
   id="svg10"
   sodipodi:docname="agile.svg"
   inkscape:version="1.2.1 (9c6d41e410, 2022-07-14)"
   xmlns:inkscape="http://www.inkscape.org/namespaces/inkscape"
   xmlns:sodipodi="http://sodipodi.sourceforge.net/DTD/sodipodi-0.dtd"
   xmlns="http://www.w3.org/2000/svg"
   xmlns:svg="http://www.w3.org/2000/svg">
  <defs
     id="defs14" />
  <sodipodi:namedview
     id="namedview12"
     pagecolor="#ffffff"
     bordercolor="#666666"
     borderopacity="1.0"
     inkscape:showpageshadow="2"
     inkscape:pageopacity="0.0"
     inkscape:pagecheckerboard="0"
     inkscape:deskcolor="#d1d1d1"
     showgrid="false"
     inkscape:zoom="34.541667"
     inkscape:cx="10.364294"
     inkscape:cy="12.014475"
     inkscape:window-width="1920"
     inkscape:window-height="1009"
     inkscape:window-x="1912"
     inkscape:window-y="-8"
     inkscape:window-maximized="1"
     inkscape:current-layer="svg10" />
  <path
     style="color:#000000;fill:currentColor;stroke-linecap:round;stroke-linejoin:round;-inkscape-stroke:none"
     d="m 19.5,15.75 a 0.75,0.75 0 0 0 -0.53125,0.21875 0.75,0.75 0 0 0 0,1.0625 L 20.1875,18.25 H 17.5 A 0.75,0.75 0 0 0 16.75,19 0.75,0.75 0 0 0 17.5,19.75 h 2.6875 l -1.21875,1.21875 a 0.75,0.75 0 0 0 0,1.0625 0.75,0.75 0 0 0 1.0625,0 l 2.5,-2.5 A 0.75,0.75 0 0 0 22.724609,19.0625 0.75,0.75 0 0 0 22.75,19 0.75,0.75 0 0 0 22.724609,18.871094 0.75,0.75 0 0 0 22.705078,18.773437 0.75,0.75 0 0 0 22.53125,18.46875 l -2.5,-2.5 A 0.75,0.75 0 0 0 19.5,15.75 Z"
     id="path2" />
  <path
     style="color:#000000;fill:currentColor;stroke-linecap:round;stroke-linejoin:round;-inkscape-stroke:none"
     d="m 12,1.25 a 0.75,0.75 0 0 0 -0.53125,0.21875 l -2.5,2.5 a 0.750075,0.750075 0 0 0 0,1.0625 l 2.5,2.5 a 0.75,0.75 0 0 0 1.0625,0 0.75,0.75 0 0 0 0,-1.0625 L 10.5625,4.5 12.53125,2.53125 a 0.75,0.75 0 0 0 0,-1.0625 A 0.75,0.75 0 0 0 12,1.25 Z"
     id="path4" />
  <path
     style="color:#000000;fill:currentColor;stroke-linecap:round;stroke-linejoin:round;-inkscape-stroke:none"
     d="M 10.5,3.75 A 0.75,0.75 0 0 0 9.75,4.5 0.75,0.75 0 0 0 10.5,5.25 c 3.736763,0 6.75,3.0131977 6.75,6.75 0,3.736758 -3.013242,6.75 -6.75,6.75 H 2 A 0.75,0.75 0 0 0 1.25,19.5 0.75,0.75 0 0 0 2,20.25 h 8.5 c 4.547433,0 8.25,-3.702567 8.25,-8.25 0,-4.5474694 -3.702572,-8.25 -8.25,-8.25 z"
     id="path6" />
  <path
     style="color:#000000;fill:currentColor;stroke-linecap:round;stroke-linejoin:round;-inkscape-stroke:none"
     d="M 6.9492187,4.7753906 A 0.75,0.75 0 0 0 6.3808594,4.8496094 C 3.9111489,6.2752949 2.25,8.949655 2.25,12 c 0,1.85362 0.6150708,3.572805 1.6503906,4.951172 a 0.75,0.75 0 0 0 1.0488281,0.148437 0.75,0.75 0 0 0 0.1503907,-1.050781 C 4.2518711,14.920197 3.75,13.523177 3.75,12 3.75,9.4934305 5.1106343,7.3166025 7.1308594,6.1503906 A 0.75,0.75 0 0 0 7.40625,5.125 0.75,0.75 0 0 0 6.9492187,4.7753906 Z"
     id="path8" />
</svg>
