<?xml version="1.0" encoding="UTF-8" standalone="no"?>
<svg
   width="24"
   height="24"
   stroke-width="1.5"
   viewBox="0 0 24 24"
   fill="none"
   version="1.1"
   id="svg16"
   sodipodi:docname="air-conditioner.svg"
   inkscape:version="1.2.1 (9c6d41e410, 2022-07-14)"
   xmlns:inkscape="http://www.inkscape.org/namespaces/inkscape"
   xmlns:sodipodi="http://sodipodi.sourceforge.net/DTD/sodipodi-0.dtd"
   xmlns="http://www.w3.org/2000/svg"
   xmlns:svg="http://www.w3.org/2000/svg">
  <defs
     id="defs20" />
  <sodipodi:namedview
     id="namedview18"
     pagecolor="#ffffff"
     bordercolor="#666666"
     borderopacity="1.0"
     inkscape:showpageshadow="2"
     inkscape:pageopacity="0.0"
     inkscape:pagecheckerboard="0"
     inkscape:deskcolor="#d1d1d1"
     showgrid="false"
     inkscape:zoom="34.541667"
     inkscape:cx="10.364294"
     inkscape:cy="12.014475"
     inkscape:window-width="1920"
     inkscape:window-height="1009"
     inkscape:window-x="1912"
     inkscape:window-y="-8"
     inkscape:window-maximized="1"
     inkscape:current-layer="svg16" />
  <path
     style="color:#000000;fill:currentColor;stroke-linecap:round;stroke-linejoin:round;-inkscape-stroke:none"
     d="M 2.5996094,2.25 C 1.8629077,2.25 1.25,2.8629077 1.25,3.5996094 V 11 A 0.750075,0.750075 0 0 0 2,11.75 H 22 A 0.750075,0.750075 0 0 0 22.75,11 V 3.5996094 C 22.75,2.862953 22.137086,2.25 21.400391,2.25 Z M 2.75,3.75 h 18.5 v 6.5 H 2.75 Z"
     id="path2" />
  <path
     style="color:#000000;fill:currentColor;stroke-linecap:round;stroke-linejoin:round;-inkscape-stroke:none"
     d="M 18,6.25 A 0.75,0.75 0 0 0 17.25,7 0.75,0.75 0 0 0 18,7.75 h 1 A 0.75,0.75 0 0 0 19.75,7 0.75,0.75 0 0 0 19,6.25 Z"
     id="path4" />
  <path
     style="color:#000000;fill:currentColor;stroke-linecap:round;stroke-linejoin:round;-inkscape-stroke:none"
     d="M 1.78125,10.283203 A 0.75,0.75 0 0 0 1.2832031,11.21875 l 0.7890625,2.583984 C 2.4246944,14.956195 3.4970516,15.75 4.703125,15.75 H 6 A 0.75,0.75 0 0 0 6.75,15 0.75,0.75 0 0 0 6,14.25 H 4.703125 c -0.5528249,0 -1.0337618,-0.356028 -1.1953125,-0.884766 L 2.7167969,10.78125 A 0.75,0.75 0 0 0 1.78125,10.283203 Z"
     id="path6" />
  <path
     style="color:#000000;fill:currentColor;stroke-linecap:round;stroke-linejoin:round;-inkscape-stroke:none"
     d="m 22.21875,10.283203 a 0.75,0.75 0 0 0 -0.935547,0.498047 l -0.791016,2.583984 C 20.330619,13.89401 19.849768,14.25 19.296875,14.25 H 18 A 0.75,0.75 0 0 0 17.25,15 0.75,0.75 0 0 0 18,15.75 h 1.296875 c 1.206105,0 2.278428,-0.793843 2.630859,-1.947266 L 22.716797,11.21875 A 0.75,0.75 0 0 0 22.21875,10.283203 Z"
     id="path8" />
  <path
     style="color:#000000;fill:currentColor;stroke-linecap:round;stroke-linejoin:round;-inkscape-stroke:none"
     d="M 9.5,13.75 A 0.75,0.75 0 0 0 8.75,14.5 c 0,0 -0.00705,1.682495 -0.4160156,3.318359 -0.204483,0.817932 -0.5139692,1.610423 -0.9101563,2.138672 C 7.027641,20.485281 6.6249994,20.75 6,20.75 A 0.75,0.75 0 0 0 5.25,21.5 0.75,0.75 0 0 0 6,22.25 c 1.1249989,0 2.03486,-0.610282 2.6230469,-1.394531 C 9.2112338,20.07122 9.5579991,19.113707 9.7910156,18.181641 10.257049,16.317508 10.25,14.5 10.25,14.5 A 0.75,0.75 0 0 0 9.5,13.75 Z"
     id="path10" />
  <path
     style="color:#000000;fill:currentColor;stroke-linecap:round;stroke-linejoin:round;-inkscape-stroke:none"
     d="m 14.5,13.75 a 0.75,0.75 0 0 0 -0.75,0.75 c 0,0 -0.007,1.817508 0.458984,3.681641 0.233017,0.932066 0.579782,1.889579 1.167969,2.673828 C 15.96514,21.639718 16.875001,22.25 18,22.25 A 0.75,0.75 0 0 0 18.75,21.5 0.75,0.75 0 0 0 18,20.75 c -0.624999,0 -1.027641,-0.264719 -1.423828,-0.792969 -0.396187,-0.528249 -0.705673,-1.32074 -0.910156,-2.138672 C 15.25705,16.182495 15.25,14.5 15.25,14.5 A 0.75,0.75 0 0 0 14.5,13.75 Z"
     id="path12" />
  <path
     style="color:#000000;fill:currentColor;stroke-linecap:round;stroke-linejoin:round;-inkscape-stroke:none"
     d="m 12,13.75 a 0.75,0.75 0 0 0 -0.75,0.75 v 7 A 0.75,0.75 0 0 0 12,22.25 0.75,0.75 0 0 0 12.75,21.5 v -7 A 0.75,0.75 0 0 0 12,13.75 Z"
     id="path14" />
</svg>
