<?xml version="1.0" encoding="UTF-8" standalone="no"?>
<svg
   width="24"
   height="24"
   stroke-width="1.5"
   viewBox="0 0 24 24"
   fill="none"
   version="1.1"
   id="svg6"
   sodipodi:docname="airplane-off.svg"
   inkscape:version="1.2.1 (9c6d41e410, 2022-07-14)"
   xmlns:inkscape="http://www.inkscape.org/namespaces/inkscape"
   xmlns:sodipodi="http://sodipodi.sourceforge.net/DTD/sodipodi-0.dtd"
   xmlns="http://www.w3.org/2000/svg"
   xmlns:svg="http://www.w3.org/2000/svg">
  <defs
     id="defs10" />
  <sodipodi:namedview
     id="namedview8"
     pagecolor="#ffffff"
     bordercolor="#666666"
     borderopacity="1.0"
     inkscape:showpageshadow="2"
     inkscape:pageopacity="0.0"
     inkscape:pagecheckerboard="0"
     inkscape:deskcolor="#d1d1d1"
     showgrid="false"
     inkscape:zoom="34.541667"
     inkscape:cx="10.364294"
     inkscape:cy="12.014475"
     inkscape:window-width="1920"
     inkscape:window-height="1009"
     inkscape:window-x="1912"
     inkscape:window-y="-8"
     inkscape:window-maximized="1"
     inkscape:current-layer="svg6" />
  <path
     style="color:#000000;fill:currentColor;stroke-linecap:round;stroke-linejoin:round;-inkscape-stroke:none"
     d="m 12,2.25 c -1.23374,0 -2.25,1.0162262 -2.25,2.25 v 3 A 0.75,0.75 0 0 0 10.5,8.25 0.75,0.75 0 0 0 11.25,7.5 v -3 c 0,-0.4230845 0.326942,-0.75 0.75,-0.75 0.423058,0 0.75,0.3269155 0.75,0.75 v 4.6679688 c 0,0.4645168 0.240981,0.8983822 0.634766,1.1445312 L 20.75,14.916016 v 0.623047 l -1.818359,-0.455079 a 0.75,0.75 0 0 0 -0.910157,0.546875 0.75,0.75 0 0 0 0.546875,0.908203 l 2.003907,0.501954 C 21.406787,17.249701 22.25,16.592596 22.25,15.732422 v -0.900391 c 0,-0.464536 -0.24111,-0.898328 -0.634766,-1.144531 L 14.25,9.0839844 V 4.5 C 14.25,3.2662262 13.23374,2.25 12,2.25 Z m -2.515625,7 -7.0996094,4.4375 C 1.9910334,13.933709 1.75,14.367567 1.75,14.832031 v 0.900391 c 0,0.860212 0.8432011,1.517288 1.6777344,1.308594 L 9.75,15.460938 v 2.699218 l -2.109375,1.845703 c -0.4769755,0.417436 -0.5623686,1.111788 -0.3261719,1.601563 0.2361967,0.489774 0.8334067,0.855534 1.4570313,0.742187 L 12,21.763672 l 3.228516,0.585937 c 0.623628,0.113359 1.220843,-0.252426 1.457031,-0.742187 0.236188,-0.489761 0.150803,-1.184119 -0.326172,-1.601563 L 14.25,18.160156 v -2.699218 l 0.271484,0.06836 a 0.75,0.75 0 0 0 0.908204,-0.546875 0.75,0.75 0 0 0 -0.544922,-0.910156 L 14.427734,13.958984 C 13.593213,13.750299 12.75,14.407404 12.75,15.267578 v 2.960938 c 0,0.38887 0.16823,0.759562 0.460938,1.015625 l 1.75,1.53125 -2.71875,-0.494141 c -0.159858,-0.02908 -0.324518,-0.02908 -0.484375,0 l -2.7187505,0.494141 1.7500005,-1.53125 C 11.08177,18.988078 11.25,18.617386 11.25,18.228516 v -2.960938 c 0,-0.860174 -0.843219,-1.517267 -1.6777344,-1.308594 L 3.25,15.539063 v -0.623047 l 7.029297,-4.392578 A 0.75,0.75 0 0 0 10.517578,9.4902344 0.75,0.75 0 0 0 9.484375,9.25 Z"
     id="path2" />
  <path
     style="color:#000000;fill:currentColor;stroke-linecap:round;stroke-linejoin:round;-inkscape-stroke:none"
     d="m 3,2.25 a 0.75,0.75 0 0 0 -0.53125,0.21875 0.75,0.75 0 0 0 0,1.0625 l 18,18 a 0.75,0.75 0 0 0 1.0625,0 0.75,0.75 0 0 0 0,-1.0625 l -18,-18 A 0.75,0.75 0 0 0 3,2.25 Z"
     id="path4" />
</svg>
