<?xml version="1.0" encoding="UTF-8" standalone="no"?>
<svg
   width="24"
   height="24"
   stroke-width="1.5"
   viewBox="0 0 24 24"
   fill="none"
   version="1.1"
   id="svg6"
   sodipodi:docname="airplay.svg"
   inkscape:version="1.2.1 (9c6d41e410, 2022-07-14)"
   xmlns:inkscape="http://www.inkscape.org/namespaces/inkscape"
   xmlns:sodipodi="http://sodipodi.sourceforge.net/DTD/sodipodi-0.dtd"
   xmlns="http://www.w3.org/2000/svg"
   xmlns:svg="http://www.w3.org/2000/svg">
  <defs
     id="defs10" />
  <sodipodi:namedview
     id="namedview8"
     pagecolor="#ffffff"
     bordercolor="#666666"
     borderopacity="1.0"
     inkscape:showpageshadow="2"
     inkscape:pageopacity="0.0"
     inkscape:pagecheckerboard="0"
     inkscape:deskcolor="#d1d1d1"
     showgrid="false"
     inkscape:zoom="34.541667"
     inkscape:cx="10.364294"
     inkscape:cy="12.014475"
     inkscape:window-width="1920"
     inkscape:window-height="1009"
     inkscape:window-x="1912"
     inkscape:window-y="-8"
     inkscape:window-maximized="1"
     inkscape:current-layer="svg6" />
  <path
     style="color:#000000;fill:currentColor;stroke-linecap:round;stroke-linejoin:round;-inkscape-stroke:none"
     d="M 3,3.25 A 0.750075,0.750075 0 0 0 2.25,4 V 17 A 0.750075,0.750075 0 0 0 3,17.75 H 6 A 0.75,0.75 0 0 0 6.75,17 0.75,0.75 0 0 0 6,16.25 H 3.75 V 4.75 h 16.5 v 11.5 H 18 A 0.75,0.75 0 0 0 17.25,17 0.75,0.75 0 0 0 18,17.75 h 3 A 0.750075,0.750075 0 0 0 21.75,17 V 4 A 0.750075,0.750075 0 0 0 21,3.25 Z"
     id="path2" />
  <path
     style="color:#000000;fill:currentColor;-inkscape-stroke:none"
     d="m 12,13.748047 c -0.431694,0 -0.863225,0.194306 -1.123047,0.583984 l -2.8789061,4.31836 C 7.423079,19.512777 8.0846151,20.75 9.1210938,20.75 h 5.7578122 c 1.036482,0 1.697966,-1.237231 1.123047,-2.099609 l -2.878906,-4.31836 C 12.863225,13.942353 12.431694,13.748047 12,13.748047 Z M 12,15.351563 14.599609,19.25 H 9.4003906 Z"
     id="path4" />
</svg>
