<?xml version="1.0" encoding="UTF-8" standalone="no"?>
<svg
   width="24"
   height="24"
   stroke-width="1.5"
   viewBox="0 0 24 24"
   fill="none"
   version="1.1"
   id="svg12"
   sodipodi:docname="airplane-helix.svg"
   inkscape:version="1.2.1 (9c6d41e410, 2022-07-14)"
   xmlns:inkscape="http://www.inkscape.org/namespaces/inkscape"
   xmlns:sodipodi="http://sodipodi.sourceforge.net/DTD/sodipodi-0.dtd"
   xmlns="http://www.w3.org/2000/svg"
   xmlns:svg="http://www.w3.org/2000/svg">
  <defs
     id="defs16" />
  <sodipodi:namedview
     id="namedview14"
     pagecolor="#ffffff"
     bordercolor="#666666"
     borderopacity="1.0"
     inkscape:showpageshadow="2"
     inkscape:pageopacity="0.0"
     inkscape:pagecheckerboard="0"
     inkscape:deskcolor="#d1d1d1"
     showgrid="false"
     inkscape:zoom="34.541667"
     inkscape:cx="10.364294"
     inkscape:cy="12.014475"
     inkscape:window-width="1920"
     inkscape:window-height="1009"
     inkscape:window-x="1912"
     inkscape:window-y="-8"
     inkscape:window-maximized="1"
     inkscape:current-layer="svg12" />
  <path
     style="color:#000000;fill:currentColor;stroke-linecap:round;stroke-linejoin:round;stroke-miterlimit:1.5;-inkscape-stroke:none"
     d="m 12,8.25 c -2.0621546,0 -3.75,1.6878514 -3.75,3.75 0,2.062224 1.6878725,3.75 3.75,3.75 2.062203,0 3.75,-1.687797 3.75,-3.75 0,-2.0621275 -1.68777,-3.75 -3.75,-3.75 z m 0,1.5 c 1.251567,0 2.25,0.998531 2.25,2.25 0,1.251594 -0.998406,2.25 -2.25,2.25 -1.251469,0 -2.25,-0.998427 -2.25,-2.25 0,-1.251448 0.998558,-2.25 2.25,-2.25 z"
     id="path2" />
  <path
     style="color:#000000;clip-rule:evenodd;fill:currentColor;fill-rule:evenodd;stroke-linecap:round;stroke-linejoin:round;stroke-miterlimit:1.5;-inkscape-stroke:none"
     d="M 12,0.25 C 11.365063,0.24969027 10.794744,0.41829213 10.363281,0.75195312 9.931819,1.0856141 9.6707093,1.5494411 9.5175781,2.0214844 9.2113157,2.9655709 9.2504967,4.0100248 9.25,5 a 0.750075,0.750075 0 0 0 0,0.00391 c 0.00745,1.2564731 0.5893075,2.3604978 1.130859,3.1718751 0.541552,0.8113772 1.089844,1.3554687 1.089844,1.3554687 a 0.750075,0.750075 0 0 0 1.060547,-0.00195 c 0,0 0.551116,-0.5537658 1.09375,-1.3691406 0.542634,-0.8153749 1.126882,-1.916961 1.125,-3.1621094 -0.0015,-1.0176898 0.0097,-2.06623 -0.310547,-3 C 14.279345,1.5311619 14.016178,1.0789343 13.59375,0.75 13.171322,0.42106567 12.61373,0.25031506 12,0.25 Z m 0,1.5 c 0.360269,1.849e-4 0.539101,0.076732 0.673828,0.1816406 0.134728,0.104909 0.249687,0.2727451 0.345703,0.5527344 0.192033,0.5599785 0.228977,1.5112699 0.230469,2.5175781 0.0011,0.7398496 -0.414932,1.6377983 -0.873047,2.3261719 C 12.185857,7.6152709 12.154357,7.6150404 11.998047,7.8046875 11.844849,7.6195491 11.815559,7.6234009 11.628906,7.34375 11.173459,6.6613787 10.754554,5.7646186 10.75,4.9960937 10.750543,3.9947656 10.764605,3.0414258 10.945313,2.484375 11.035806,2.205419 11.145682,2.0423386 11.28125,1.9375 11.416818,1.8326614 11.609938,1.7498097 12,1.75 Z"
     id="path4" />
  <path
     style="color:#000000;clip-rule:evenodd;fill:currentColor;fill-rule:evenodd;stroke-linecap:round;stroke-linejoin:round;stroke-miterlimit:1.5;-inkscape-stroke:none"
     d="m 18.996094,9.25 c -1.256473,0.00745 -2.360498,0.5893075 -3.171875,1.130859 -0.811377,0.541552 -1.355469,1.089844 -1.355469,1.089844 a 0.750075,0.750075 0 0 0 0.002,1.060547 c 0,0 0.553766,0.551116 1.369141,1.09375 0.815375,0.542634 1.916961,1.126882 3.162109,1.125 1.01769,-0.0015 2.06623,0.0097 3,-0.310547 C 22.468838,14.279345 22.921066,14.016178 23.25,13.59375 23.578934,13.171322 23.749685,12.61373 23.75,12 23.75031,11.365063 23.581708,10.794744 23.248047,10.363281 22.914386,9.931819 22.450559,9.6707093 21.978516,9.5175781 21.034429,9.2113157 19.989975,9.2504967 19,9.25 a 0.750075,0.750075 0 0 0 -0.0039,0 z m 0.0078,1.5 c 1.001328,5.43e-4 1.954668,0.0146 2.511719,0.195313 0.278956,0.09049 0.442036,0.200369 0.546875,0.335937 0.104839,0.135568 0.18769,0.328688 0.1875,0.71875 -1.85e-4,0.360269 -0.07673,0.539101 -0.181641,0.673828 -0.104909,0.134728 -0.272745,0.249687 -0.552734,0.345703 -0.559979,0.192033 -1.51127,0.228977 -2.517578,0.230469 -0.73985,0.0011 -1.637798,-0.414932 -2.326172,-0.873047 -0.287146,-0.191096 -0.286915,-0.222596 -0.476563,-0.378906 0.185139,-0.153198 0.181287,-0.182488 0.460938,-0.369141 0.682371,-0.455447 1.579131,-0.874352 2.347656,-0.878906 z"
     id="path6" />
  <path
     style="color:#000000;clip-rule:evenodd;fill:currentColor;fill-rule:evenodd;stroke-linecap:round;stroke-linejoin:round;stroke-miterlimit:1.5;-inkscape-stroke:none"
     d="m 4.9980469,9.25 c -1.0176898,0.00151 -2.06623,-0.00967 -3,0.3105469 C 1.5311619,9.7206552 1.0789343,9.9838218 0.75,10.40625 0.42106567,10.828678 0.25031506,11.38627 0.25,12 0.24969027,12.634937 0.41829213,13.205256 0.75195312,13.636719 1.0856141,14.068181 1.5494411,14.329291 2.0214844,14.482422 2.9655709,14.788684 4.0100248,14.749503 5,14.75 a 0.750075,0.750075 0 0 0 0.00391,0 C 6.2603793,14.742554 7.364404,14.160692 8.1757813,13.619141 8.9871585,13.077589 9.53125,12.529297 9.53125,12.529297 a 0.750075,0.750075 0 0 0 -0.00195,-1.060547 c 0,0 -0.5537658,-0.551116 -1.3691406,-1.09375 C 7.3447814,9.8323657 6.2431953,9.2481182 4.9980469,9.25 Z m 0.00391,1.5 c 0.7398496,-0.0011 1.6377983,0.414932 2.3261719,0.873047 0.2871459,0.191096 0.2869154,0.222596 0.4765625,0.378906 C 7.6195491,12.155151 7.6234009,12.184441 7.34375,12.371094 6.6613787,12.826541 5.7646186,13.245446 4.9960937,13.25 3.9947656,13.249457 3.0414258,13.235395 2.484375,13.054688 2.205419,12.964194 2.0423386,12.854318 1.9375,12.71875 1.8326614,12.583182 1.7498097,12.390062 1.75,12 1.7501849,11.639731 1.8267316,11.460899 1.9316406,11.326172 2.0365496,11.191444 2.2043857,11.076485 2.484375,10.980469 3.0443535,10.788436 3.9956449,10.751492 5.0019531,10.75 Z"
     id="path8" />
  <path
     style="color:#000000;clip-rule:evenodd;fill:currentColor;fill-rule:evenodd;stroke-linecap:round;stroke-linejoin:round;stroke-miterlimit:1.5;-inkscape-stroke:none"
     d="m 12.529297,14.46875 a 0.750075,0.750075 0 0 0 -1.060547,0.002 c 0,0 -0.551116,0.553766 -1.09375,1.369141 -0.5426343,0.815375 -1.1268818,1.916961 -1.125,3.162109 0.00151,1.01769 -0.00967,2.06623 0.3105469,3 0.1601083,0.466885 0.4232749,0.919113 0.8457031,1.248047 0.422428,0.328934 0.98002,0.499685 1.59375,0.5 0.634937,3.1e-4 1.205256,-0.168292 1.636719,-0.501953 0.431462,-0.333661 0.692572,-0.797488 0.845703,-1.269531 C 14.788684,21.034429 14.749503,19.989975 14.75,19 a 0.750075,0.750075 0 0 0 0,-0.002 0.750075,0.750075 0 0 0 0,-0.002 c -0.0074,-1.256473 -0.589308,-2.360498 -1.130859,-3.171875 -0.541552,-0.811377 -1.089844,-1.355469 -1.089844,-1.355469 z m -0.527344,1.726562 c 0.153198,0.185139 0.182488,0.181287 0.369141,0.460938 0.455447,0.682371 0.874352,1.579131 0.878906,2.347656 -5.43e-4,1.001328 -0.0146,1.954668 -0.195312,2.511719 -0.09049,0.278956 -0.20037,0.442036 -0.335938,0.546875 C 12.583182,22.167339 12.390062,22.25019 12,22.25 11.639731,22.249815 11.460899,22.173268 11.326172,22.068359 11.191444,21.96345 11.076485,21.795614 10.980469,21.515625 10.788436,20.955646 10.751492,20.004355 10.75,18.998047 c -0.0011,-0.73985 0.414932,-1.637798 0.873047,-2.326172 0.191096,-0.287146 0.222596,-0.286915 0.378906,-0.476563 z"
     id="path10" />
</svg>
