<?xml version="1.0" encoding="UTF-8" standalone="no"?>
<svg
   width="24"
   height="24"
   stroke-width="1.5"
   viewBox="0 0 24 24"
   fill="none"
   version="1.1"
   id="svg12"
   sodipodi:docname="airplane-helix-45deg.svg"
   inkscape:version="1.2.1 (9c6d41e410, 2022-07-14)"
   xmlns:inkscape="http://www.inkscape.org/namespaces/inkscape"
   xmlns:sodipodi="http://sodipodi.sourceforge.net/DTD/sodipodi-0.dtd"
   xmlns="http://www.w3.org/2000/svg"
   xmlns:svg="http://www.w3.org/2000/svg">
  <defs
     id="defs16" />
  <sodipodi:namedview
     id="namedview14"
     pagecolor="#ffffff"
     bordercolor="#666666"
     borderopacity="1.0"
     inkscape:showpageshadow="2"
     inkscape:pageopacity="0.0"
     inkscape:pagecheckerboard="0"
     inkscape:deskcolor="#d1d1d1"
     showgrid="false"
     inkscape:zoom="34.541667"
     inkscape:cx="10.364294"
     inkscape:cy="12.014475"
     inkscape:window-width="1920"
     inkscape:window-height="1009"
     inkscape:window-x="1912"
     inkscape:window-y="-8"
     inkscape:window-maximized="1"
     inkscape:current-layer="svg12" />
  <path
     style="color:#000000;fill:currentColor;stroke-linecap:round;stroke-linejoin:round;stroke-miterlimit:1.5;-inkscape-stroke:none"
     d="m 12,8.2539063 c -0.961281,3e-7 -1.923253,0.3646591 -2.6523437,1.09375 -1.4581483,1.4582107 -1.4581556,3.8464947 0,5.3046877 1.4581777,1.458215 3.8445297,1.458204 5.3027347,0 1.458077,-1.458202 1.458069,-3.846469 0,-5.3046877 C 13.921287,8.6185709 12.961281,8.2539059 12,8.2539063 Z m 0,1.4921875 c 0.57426,3e-7 1.147349,0.2196258 1.589844,0.6621092 0.884928,0.885019 0.88492,2.298598 0,3.183594 -0.884994,0.884993 -2.296681,0.884982 -3.181641,0 -0.884982,-0.885005 -0.8849893,-2.298567 0,-3.183594 C 10.850681,9.9657251 11.42574,9.7460934 12,9.7460938 Z"
     id="path2" />
  <path
     style="color:#000000;clip-rule:evenodd;fill:currentColor;fill-rule:evenodd;stroke-linecap:round;stroke-linejoin:round;stroke-miterlimit:1.5;-inkscape-stroke:none"
     d="M 5.171875,2.9160156 C 4.6405819,2.9821251 4.125602,3.2576579 3.6914063,3.6914063 3.2422205,4.1401553 2.9578271,4.6621017 2.8886719,5.203125 c -0.069155,0.5410233 0.075277,1.0540288 0.3007812,1.4960937 0.4510085,0.8841299 1.2163521,1.594553 1.9160156,2.2949219 a 0.750075,0.750075 0 0 0 0.00391,0.00391 c 0.8937265,0.8831969 2.0843508,1.2525631 3.0410156,1.4433591 0.9566648,0.190797 1.7304688,0.1875 1.7304688,0.1875 A 0.750075,0.750075 0 0 0 10.628906,9.8769531 c 0,0 -0.0025,-0.7819291 -0.195312,-1.7421875 C 10.240738,7.1745073 9.8759269,5.9845891 8.9941406,5.1054687 8.2734598,4.3869148 7.539047,3.6369725 6.6523437,3.203125 6.2089921,2.9862013 5.7031681,2.8499062 5.171875,2.9160156 Z M 5.3574219,4.4042969 C 5.5268715,4.3832121 5.7263111,4.4206928 5.9921875,4.5507812 6.5239403,4.8109581 7.2229291,5.4574541 7.9355469,6.1679687 8.4594892,6.690327 8.800074,7.6189976 8.9628906,8.4296875 9.0308107,8.7678724 9.0076782,8.7905215 9.03125,9.0351563 8.7919452,9.0125758 8.7732682,9.0364999 8.4433594,8.9707031 7.639632,8.8104083 6.7128931,8.4728305 6.1660156,7.9335937 l -0.00195,-0.00195 C 5.4560448,7.2228686 4.7916255,6.539489 4.5253906,6.0175781 4.3921277,5.7563375 4.355224,5.5625719 4.3769531,5.3925781 4.3986822,5.2225843 4.4760046,5.0276334 4.7519531,4.7519531 5.0068317,4.4973372 5.1879723,4.4253817 5.3574219,4.4042969 Z"
     id="path4" />
  <path
     style="color:#000000;clip-rule:evenodd;fill:currentColor;fill-rule:evenodd;stroke-linecap:round;stroke-linejoin:round;stroke-miterlimit:1.5;-inkscape-stroke:none"
     d="m 18.796875,2.8886719 c -0.541019,-0.069156 -1.054033,0.075277 -1.496094,0.3007812 -0.884121,0.4510081 -1.59454,1.2163545 -2.294922,1.9160156 a 0.750075,0.750075 0 0 0 -0.0039,0.00391 c -0.883192,0.8937277 -1.252567,2.0843509 -1.443359,3.0410156 -0.190793,0.9566648 -0.1875,1.7304688 -0.1875,1.7304688 a 0.750075,0.750075 0 0 0 0.751953,0.7480466 c 0,0 0.781941,-0.0025 1.742187,-0.195312 0.960247,-0.192856 2.150172,-0.5576747 3.029297,-1.4394534 0.71857,-0.7206813 1.468493,-1.4550872 1.902344,-2.3417969 C 21.0138,6.2089889 21.150106,5.7031729 21.083984,5.171875 21.017863,4.6405771 20.74236,4.1255981 20.308594,3.6914063 19.85986,3.2422173 19.337894,2.9578283 18.796875,2.8886719 Z m -0.189453,1.4882812 c 0.16998,0.021728 0.364959,0.099055 0.640625,0.375 0.254633,0.2548825 0.326568,0.4360239 0.347656,0.6054688 0.02109,0.1694448 -0.0164,0.3688924 -0.146484,0.6347656 -0.260174,0.5317464 -0.906659,1.2307421 -1.617188,1.9433594 -0.522373,0.5239499 -1.451042,0.8645274 -2.261718,1.0273437 -0.33818,0.06792 -0.36084,0.044788 -0.605469,0.068359 0.02258,-0.2393049 -0.0013,-0.2579818 0.06445,-0.5878906 0.160291,-0.8037275 0.497877,-1.7304675 1.037109,-2.2773438 l 0.002,-0.00195 c 0.70879,-0.7080201 1.392156,-1.3724367 1.914063,-1.6386719 0.261239,-0.1332631 0.45502,-0.1701654 0.625,-0.1484375 z"
     id="path6" />
  <path
     style="color:#000000;clip-rule:evenodd;fill:currentColor;fill-rule:evenodd;stroke-linecap:round;stroke-linejoin:round;stroke-miterlimit:1.5;-inkscape-stroke:none"
     d="m 9.8769531,13.371094 c 0,0 -0.7819313,0.0025 -1.7421875,0.195312 -0.9602562,0.192857 -2.1501759,0.557685 -3.0292969,1.439453 -0.7185545,0.720682 -1.468497,1.455085 -1.9023437,2.341797 -0.2169234,0.443357 -0.3532178,0.949172 -0.2871094,1.480469 0.066108,0.531297 0.3416453,1.04626 0.7753907,1.480469 0.4487523,0.449167 0.970701,0.733589 1.5117187,0.802734 0.5410177,0.06914 1.0540318,-0.07528 1.4960937,-0.300781 0.8841239,-0.450999 1.5945545,-1.216378 2.2949219,-1.916016 a 0.750075,0.750075 0 0 0 0.00391,-0.0039 c 0.8831957,-0.893738 1.2525631,-2.084339 1.4433591,-3.041016 0.190796,-0.956676 0.1875,-1.730468 0.1875,-1.730468 A 0.750075,0.750075 0 0 0 9.8769531,13.371094 Z M 9.0351563,14.96875 c -0.022581,0.239309 0.00134,0.257976 -0.064453,0.587891 -0.160461,0.804571 -0.4988497,1.732636 -1.0390625,2.279296 -0.7087734,0.707995 -1.3921456,1.372438 -1.9140625,1.638672 -0.2612436,0.133263 -0.4550006,0.170165 -0.625,0.148438 -0.1699994,-0.02173 -0.364948,-0.09907 -0.640625,-0.375 -0.2546189,-0.254891 -0.3265704,-0.436007 -0.3476562,-0.605469 -0.021086,-0.169462 0.016396,-0.368885 0.1464843,-0.634766 0.2601776,-0.53176 0.9066735,-1.230742 1.6171875,-1.943359 0.5223577,-0.52393 1.4510268,-0.864525 2.2617188,-1.027344 0.3381858,-0.06792 0.3608333,-0.04479 0.6054688,-0.06836 z"
     id="path8" />
  <path
     style="color:#000000;clip-rule:evenodd;fill:currentColor;fill-rule:evenodd;stroke-linecap:round;stroke-linejoin:round;stroke-miterlimit:1.5;-inkscape-stroke:none"
     d="m 14.119141,13.371094 a 0.750075,0.750075 0 0 0 -0.748047,0.751953 c 0,0 0.0025,0.781943 0.195312,1.742187 0.192857,0.960244 0.557693,2.150171 1.439453,3.029297 0.720682,0.71857 1.455078,1.468494 2.341797,1.902344 0.44336,0.216925 0.949167,0.35323 1.480469,0.287109 0.531302,-0.06612 1.046264,-0.341627 1.480469,-0.77539 0.44917,-0.448737 0.733588,-0.970705 0.802734,-1.511719 0.06915,-0.541014 -0.07528,-1.054036 -0.300781,-1.496094 -0.450999,-0.884115 -1.216381,-1.594542 -1.916016,-2.294922 a 0.750075,0.750075 0 0 0 -0.0039,-0.0039 c -0.893739,-0.883191 -2.084339,-1.252567 -3.041016,-1.443359 -0.956676,-0.190792 -1.730468,-0.1875 -1.730468,-0.1875 z m 0.849609,1.59375 c 0.239309,0.02258 0.257976,-0.0013 0.587891,0.06445 0.804572,0.160457 1.732637,0.498855 2.279296,1.039062 0.707997,0.708791 1.372438,1.39215 1.638672,1.914063 0.133263,0.261242 0.170163,0.455014 0.148438,0.625 -0.02173,0.169985 -0.09907,0.364963 -0.375,0.640625 -0.254895,0.254636 -0.436012,0.326567 -0.605469,0.347656 -0.169457,0.02109 -0.368888,-0.0164 -0.634766,-0.146484 -0.531754,-0.260175 -1.230742,-0.906659 -1.943359,-1.617188 -0.523938,-0.522372 -0.864526,-1.451039 -1.027344,-2.261718 -0.06792,-0.338181 -0.04479,-0.360839 -0.06836,-0.605469 z"
     id="path10" />
</svg>
