<?xml version="1.0" encoding="UTF-8" standalone="no"?>
<svg
   width="24"
   height="24"
   stroke-width="1.5"
   viewBox="0 0 24 24"
   fill="none"
   version="1.1"
   id="svg4"
   sodipodi:docname="airplane.svg"
   inkscape:version="1.2.1 (9c6d41e410, 2022-07-14)"
   xmlns:inkscape="http://www.inkscape.org/namespaces/inkscape"
   xmlns:sodipodi="http://sodipodi.sourceforge.net/DTD/sodipodi-0.dtd"
   xmlns="http://www.w3.org/2000/svg"
   xmlns:svg="http://www.w3.org/2000/svg">
  <defs
     id="defs8" />
  <sodipodi:namedview
     id="namedview6"
     pagecolor="#ffffff"
     bordercolor="#666666"
     borderopacity="1.0"
     inkscape:showpageshadow="2"
     inkscape:pageopacity="0.0"
     inkscape:pagecheckerboard="0"
     inkscape:deskcolor="#d1d1d1"
     showgrid="false"
     inkscape:zoom="34.541667"
     inkscape:cx="10.364294"
     inkscape:cy="12.014475"
     inkscape:window-width="1920"
     inkscape:window-height="1009"
     inkscape:window-x="1912"
     inkscape:window-y="-8"
     inkscape:window-maximized="1"
     inkscape:current-layer="svg4" />
  <path
     style="color:#000000;fill:currentColor;stroke-linecap:round;stroke-linejoin:round;-inkscape-stroke:none"
     d="M 12,2.25 C 10.76626,2.25 9.75,3.2662262 9.75,4.5 V 9.0839844 L 2.3847656,13.6875 C 1.9910334,13.933709 1.75,14.367567 1.75,14.832031 v 0.900391 c 0,0.860212 0.8432011,1.517288 1.6777344,1.308594 L 9.75,15.460938 v 2.699218 l -2.109375,1.845703 c -0.4769988,0.417456 -0.5623617,1.111775 -0.3261719,1.601563 0.2361898,0.489787 0.8333716,0.855644 1.4570313,0.742187 L 12,21.763672 l 3.228516,0.585937 c 0.623663,0.113469 1.22085,-0.252413 1.457031,-0.742187 0.236181,-0.489775 0.150826,-1.184098 -0.326172,-1.601563 L 14.25,18.160156 v -2.699218 l 6.322266,1.580078 C 21.406787,17.249701 22.25,16.592596 22.25,15.732422 v -0.900391 c 0,-0.464536 -0.24111,-0.898328 -0.634766,-1.144531 L 14.25,9.0839844 V 4.5 C 14.25,3.2662262 13.23374,2.25 12,2.25 Z m 0,1.5 c 0.423058,0 0.75,0.3269155 0.75,0.75 v 4.6679688 c 0,0.4645168 0.240981,0.8983822 0.634766,1.1445312 L 20.75,14.916016 v 0.623047 L 14.427734,13.958984 C 13.593213,13.750299 12.75,14.407404 12.75,15.267578 v 2.960938 c 0,0.38887 0.16823,0.759562 0.460938,1.015625 l 1.75,1.53125 -2.71875,-0.494141 c -0.159858,-0.02908 -0.324518,-0.02908 -0.484375,0 l -2.7187505,0.494141 1.7500005,-1.53125 C 11.08177,18.988078 11.25,18.617386 11.25,18.228516 v -2.960938 c 0,-0.860174 -0.843219,-1.517267 -1.6777344,-1.308594 L 3.25,15.539063 V 14.916016 L 10.615234,10.3125 C 11.009019,10.066351 11.25,9.6324856 11.25,9.1679688 V 4.5 c 0,-0.4230845 0.326942,-0.75 0.75,-0.75 z"
     id="path2" />
</svg>
