<?xml version="1.0" encoding="UTF-8" standalone="no"?>
<svg
   width="24"
   height="24"
   stroke-width="1.5"
   viewBox="0 0 24 24"
   fill="none"
   version="1.1"
   id="svg10"
   sodipodi:docname="alarm.svg"
   inkscape:version="1.2.1 (9c6d41e410, 2022-07-14)"
   xmlns:inkscape="http://www.inkscape.org/namespaces/inkscape"
   xmlns:sodipodi="http://sodipodi.sourceforge.net/DTD/sodipodi-0.dtd"
   xmlns="http://www.w3.org/2000/svg"
   xmlns:svg="http://www.w3.org/2000/svg">
  <defs
     id="defs14" />
  <sodipodi:namedview
     id="namedview12"
     pagecolor="#ffffff"
     bordercolor="#666666"
     borderopacity="1.0"
     inkscape:showpageshadow="2"
     inkscape:pageopacity="0.0"
     inkscape:pagecheckerboard="0"
     inkscape:deskcolor="#d1d1d1"
     showgrid="false"
     inkscape:zoom="34.541667"
     inkscape:cx="10.364294"
     inkscape:cy="12.014475"
     inkscape:window-width="1920"
     inkscape:window-height="1009"
     inkscape:window-x="1912"
     inkscape:window-y="-8"
     inkscape:window-maximized="1"
     inkscape:current-layer="svg10" />
  <path
     style="color:#000000;fill:currentColor;stroke-linecap:round;stroke-linejoin:round;-inkscape-stroke:none"
     d="M 12,7.25 A 0.75,0.75 0 0 0 11.25,8 v 5 A 0.750075,0.750075 0 0 0 12,13.75 h 5 A 0.75,0.75 0 0 0 17.75,13 0.75,0.75 0 0 0 17,12.25 H 12.75 V 8 A 0.75,0.75 0 0 0 12,7.25 Z"
     id="path2" />
  <path
     style="color:#000000;fill:currentColor;stroke-linecap:round;stroke-linejoin:round;-inkscape-stroke:none"
     d="M 7.1054687,1.2578125 A 0.75,0.75 0 0 0 6.5507812,1.4003906 l -2,1.5 A 0.75,0.75 0 0 0 4.4003906,3.9492188 0.75,0.75 0 0 0 5.4492187,4.0996094 l 2,-1.5 A 0.75,0.75 0 0 0 7.5996094,1.5507812 0.75,0.75 0 0 0 7.1054687,1.2578125 Z"
     id="path4" />
  <path
     style="color:#000000;fill:currentColor;stroke-linecap:round;stroke-linejoin:round;-inkscape-stroke:none"
     d="m 16.894531,1.2578125 a 0.75,0.75 0 0 0 -0.49414,0.2929687 0.75,0.75 0 0 0 0.15039,1.0488282 l 2,1.5 a 0.75,0.75 0 0 0 1.048828,-0.1503906 0.75,0.75 0 0 0 -0.15039,-1.0488282 l -2,-1.5 A 0.75,0.75 0 0 0 16.894531,1.2578125 Z"
     id="path6" />
  <path
     style="color:#000000;fill:currentColor;stroke-linecap:round;stroke-linejoin:round;-inkscape-stroke:none"
     d="m 12,3.25 c -5.3758852,0 -9.75,4.3741148 -9.75,9.75 0,5.375922 4.3741188,9.75 9.75,9.75 5.375918,0 9.75,-4.374082 9.75,-9.75 0,-5.3758812 -4.374078,-9.75 -9.75,-9.75 z m 0,1.5 c 4.565268,0 8.25,3.6847711 8.25,8.25 0,4.565272 -3.684728,8.25 -8.25,8.25 C 7.4347711,21.25 3.75,17.565268 3.75,13 3.75,8.4347752 7.4347752,4.75 12,4.75 Z"
     id="path8" />
</svg>
