<?xml version="1.0" encoding="UTF-8" standalone="no"?>
<svg
   width="24"
   height="24"
   viewBox="0 0 24 24"
   stroke-width="1.5"
   fill="none"
   version="1.1"
   id="svg6"
   sodipodi:docname="album.svg"
   inkscape:version="1.2.1 (9c6d41e410, 2022-07-14)"
   xmlns:inkscape="http://www.inkscape.org/namespaces/inkscape"
   xmlns:sodipodi="http://sodipodi.sourceforge.net/DTD/sodipodi-0.dtd"
   xmlns="http://www.w3.org/2000/svg"
   xmlns:svg="http://www.w3.org/2000/svg">
  <defs
     id="defs10" />
  <sodipodi:namedview
     id="namedview8"
     pagecolor="#ffffff"
     bordercolor="#666666"
     borderopacity="1.0"
     inkscape:showpageshadow="2"
     inkscape:pageopacity="0.0"
     inkscape:pagecheckerboard="0"
     inkscape:deskcolor="#d1d1d1"
     showgrid="false"
     inkscape:zoom="34.541667"
     inkscape:cx="10.364294"
     inkscape:cy="12.014475"
     inkscape:window-width="1920"
     inkscape:window-height="1009"
     inkscape:window-x="1912"
     inkscape:window-y="-8"
     inkscape:window-maximized="1"
     inkscape:current-layer="svg6" />
  <path
     style="color:#000000;fill:currentColor;-inkscape-stroke:none"
     d="M 3.5996094,2.25 C 2.8629077,2.25 2.25,2.8629077 2.25,3.5996094 V 20.400391 C 2.25,21.137086 2.862953,21.75 3.5996094,21.75 H 20.400391 C 21.13704,21.75 21.75,21.13704 21.75,20.400391 V 3.5996094 C 21.75,2.862953 21.137086,2.25 20.400391,2.25 Z M 3.75,3.75 h 16.5 v 16.5 H 3.75 Z"
     id="path2" />
  <path
     style="color:#000000;fill:currentColor;stroke-linecap:round;-inkscape-stroke:none"
     d="M 12.599609,6.25 C 11.862914,6.25 11.25,6.862953 11.25,7.5996094 V 13.5625 C 10.993439,13.459685 10.791335,13.25 10.5,13.25 c -1.2337738,0 -2.25,1.01626 -2.25,2.25 0,1.23374 1.0162262,2.25 2.25,2.25 1.02657,0 1.762085,-0.769758 2.027344,-1.716797 A 0.75,0.75 0 0 0 12.75,15.5 V 7.75 H 15 A 0.75,0.75 0 0 0 15.75,7 0.75,0.75 0 0 0 15,6.25 Z M 10.5,14.75 c 0.42304,0 0.75,0.32696 0.75,0.75 0,0.42304 -0.32696,0.75 -0.75,0.75 -0.423085,0 -0.75,-0.326942 -0.75,-0.75 0,-0.423058 0.326915,-0.75 0.75,-0.75 z"
     id="path4" />
</svg>
