<?xml version="1.0" encoding="UTF-8" standalone="no"?>
<svg
   width="24"
   height="24"
   stroke-width="1.5"
   viewBox="0 0 24 24"
   fill="none"
   version="1.1"
   id="svg18"
   sodipodi:docname="align-right-box.svg"
   inkscape:version="1.2.1 (9c6d41e410, 2022-07-14)"
   xmlns:inkscape="http://www.inkscape.org/namespaces/inkscape"
   xmlns:sodipodi="http://sodipodi.sourceforge.net/DTD/sodipodi-0.dtd"
   xmlns="http://www.w3.org/2000/svg"
   xmlns:svg="http://www.w3.org/2000/svg">
  <defs
     id="defs22" />
  <sodipodi:namedview
     id="namedview20"
     pagecolor="#ffffff"
     bordercolor="#666666"
     borderopacity="1.0"
     inkscape:showpageshadow="2"
     inkscape:pageopacity="0.0"
     inkscape:pagecheckerboard="0"
     inkscape:deskcolor="#d1d1d1"
     showgrid="false"
     inkscape:zoom="34.541667"
     inkscape:cx="10.364294"
     inkscape:cy="12.014475"
     inkscape:window-width="1920"
     inkscape:window-height="1009"
     inkscape:window-x="1912"
     inkscape:window-y="-8"
     inkscape:window-maximized="1"
     inkscape:current-layer="svg18" />
  <path
     style="color:#000000;fill:currentColor;stroke-linecap:round;stroke-linejoin:round;-inkscape-stroke:none"
     d="M 8.0566406,19.246094 A 0.75,0.75 0 0 0 7.515625,19.4375 l -0.011719,0.0098 a 0.75,0.75 0 0 0 -0.056641,1.058593 0.75,0.75 0 0 0 1.0605469,0.05664 l 0.00977,-0.0098 a 0.75,0.75 0 0 0 0.056641,-1.058593 0.75,0.75 0 0 0 -0.5175782,-0.248047 z"
     id="path2" />
  <path
     style="color:#000000;fill:currentColor;stroke-linecap:round;stroke-linejoin:round;-inkscape-stroke:none"
     d="m 3.515625,19.4375 -0.011719,0.0098 a 0.75,0.75 0 0 0 -0.056641,1.058593 0.75,0.75 0 0 0 1.0605469,0.05664 l 0.00977,-0.0098 A 0.75,0.75 0 0 0 4.5742187,19.494141 0.75,0.75 0 0 0 3.515625,19.4375 Z"
     id="path4" />
  <path
     style="color:#000000;fill:currentColor;stroke-linecap:round;stroke-linejoin:round;-inkscape-stroke:none"
     d="M 4.0566406,15.246094 A 0.75,0.75 0 0 0 3.515625,15.4375 l -0.011719,0.0098 a 0.75,0.75 0 0 0 -0.056641,1.058593 0.75,0.75 0 0 0 1.0605469,0.05664 l 0.00977,-0.0098 a 0.75,0.75 0 0 0 0.056641,-1.058593 0.75,0.75 0 0 0 -0.5175781,-0.248047 z"
     id="path6" />
  <path
     style="color:#000000;fill:currentColor;stroke-linecap:round;stroke-linejoin:round;-inkscape-stroke:none"
     d="M 4.0566406,11.246094 A 0.75,0.75 0 0 0 3.515625,11.4375 l -0.011719,0.0098 a 0.75,0.75 0 0 0 -0.056641,1.058593 0.75,0.75 0 0 0 1.0605469,0.05664 l 0.00977,-0.0098 a 0.75,0.75 0 0 0 0.056641,-1.058593 0.75,0.75 0 0 0 -0.5175781,-0.248047 z"
     id="path8" />
  <path
     style="color:#000000;fill:currentColor;stroke-linecap:round;stroke-linejoin:round;-inkscape-stroke:none"
     d="M 4.0566406,7.2460937 A 0.75,0.75 0 0 0 3.515625,7.4375 l -0.011719,0.00977 A 0.75,0.75 0 0 0 3.4472656,8.5058594 0.75,0.75 0 0 0 4.5078125,8.5625 l 0.00977,-0.00977 A 0.75,0.75 0 0 0 4.5742187,7.4941406 0.75,0.75 0 0 0 4.0566406,7.2460937 Z"
     id="path10" />
  <path
     style="color:#000000;fill:currentColor;stroke-linecap:round;stroke-linejoin:round;-inkscape-stroke:none"
     d="M 4.0566406,3.2460938 A 0.75,0.75 0 0 0 3.515625,3.4375 l -0.011719,0.00977 A 0.75,0.75 0 0 0 3.4472656,4.5058594 0.75,0.75 0 0 0 4.5078125,4.5625 l 0.00977,-0.00977 A 0.75,0.75 0 0 0 4.5742187,3.4941406 0.75,0.75 0 0 0 4.0566406,3.2460938 Z"
     id="path12" />
  <path
     style="color:#000000;fill:currentColor;stroke-linecap:round;stroke-linejoin:round;-inkscape-stroke:none"
     d="M 8.0566406,3.2460938 A 0.75,0.75 0 0 0 7.515625,3.4375 l -0.011719,0.00977 A 0.75,0.75 0 0 0 7.4472656,4.5058594 0.75,0.75 0 0 0 8.5078125,4.5625 l 0.00977,-0.00977 A 0.75,0.75 0 0 0 8.5742188,3.4941406 0.75,0.75 0 0 0 8.0566406,3.2460938 Z"
     id="path14" />
  <path
     style="color:#000000;fill:currentColor;stroke-linecap:round;stroke-linejoin:round;-inkscape-stroke:none"
     d="m 12.005859,3.2558594 a 0.750075,0.750075 0 0 0 -0.75,0.75 V 20.005859 a 0.750075,0.750075 0 0 0 0.75,0.75 h 8 a 0.750075,0.750075 0 0 0 0.75,-0.75 V 4.0058594 a 0.750075,0.750075 0 0 0 -0.75,-0.75 z m 0.75,1.5 h 6.5 V 19.255859 h -6.5 z"
     id="path16" />
</svg>
