<?xml version="1.0" encoding="UTF-8" standalone="no"?>
<svg
   width="24"
   height="24"
   stroke-width="1.5"
   viewBox="0 0 24 24"
   fill="none"
   version="1.1"
   id="svg18"
   sodipodi:docname="align-left-box.svg"
   inkscape:version="1.2.1 (9c6d41e410, 2022-07-14)"
   xmlns:inkscape="http://www.inkscape.org/namespaces/inkscape"
   xmlns:sodipodi="http://sodipodi.sourceforge.net/DTD/sodipodi-0.dtd"
   xmlns="http://www.w3.org/2000/svg"
   xmlns:svg="http://www.w3.org/2000/svg">
  <defs
     id="defs22" />
  <sodipodi:namedview
     id="namedview20"
     pagecolor="#ffffff"
     bordercolor="#666666"
     borderopacity="1.0"
     inkscape:showpageshadow="2"
     inkscape:pageopacity="0.0"
     inkscape:pagecheckerboard="0"
     inkscape:deskcolor="#d1d1d1"
     showgrid="false"
     inkscape:zoom="34.541667"
     inkscape:cx="10.364294"
     inkscape:cy="12.014475"
     inkscape:window-width="1920"
     inkscape:window-height="1009"
     inkscape:window-x="1912"
     inkscape:window-y="-8"
     inkscape:window-maximized="1"
     inkscape:current-layer="svg18" />
  <path
     style="color:#000000;fill:currentColor;stroke-linecap:round;stroke-linejoin:round;-inkscape-stroke:none"
     d="m 15.501953,3.4375 -0.01172,0.00977 a 0.75,0.75 0 0 0 -0.05469,1.0605469 0.75,0.75 0 0 0 1.058594,0.054687 l 0.01172,-0.00977 A 0.75,0.75 0 0 0 16.560547,3.4921875 0.75,0.75 0 0 0 15.501953,3.4375 Z"
     id="path2" />
  <path
     style="color:#000000;fill:currentColor;stroke-linecap:round;stroke-linejoin:round;-inkscape-stroke:none"
     d="M 20.042969,3.2460938 A 0.75,0.75 0 0 0 19.501953,3.4375 l -0.01172,0.00977 a 0.75,0.75 0 0 0 -0.05469,1.0605469 0.75,0.75 0 0 0 1.058594,0.054687 l 0.01172,-0.00977 a 0.75,0.75 0 0 0 0.05469,-1.0605469 0.75,0.75 0 0 0 -0.517578,-0.2460937 z"
     id="path4" />
  <path
     style="color:#000000;fill:currentColor;stroke-linecap:round;stroke-linejoin:round;-inkscape-stroke:none"
     d="m 19.501953,7.4375 -0.01172,0.00977 a 0.75,0.75 0 0 0 -0.05469,1.0605469 0.75,0.75 0 0 0 1.058594,0.054687 l 0.01172,-0.00977 A 0.75,0.75 0 0 0 20.560547,7.4921875 0.75,0.75 0 0 0 19.501953,7.4375 Z"
     id="path6" />
  <path
     style="color:#000000;fill:currentColor;stroke-linecap:round;stroke-linejoin:round;-inkscape-stroke:none"
     d="m 19.501953,11.4375 -0.01172,0.0098 a 0.75,0.75 0 0 0 -0.05469,1.060547 0.75,0.75 0 0 0 1.058594,0.05469 l 0.01172,-0.0098 a 0.75,0.75 0 0 0 0.05469,-1.060546 0.75,0.75 0 0 0 -1.058594,-0.05469 z"
     id="path8" />
  <path
     style="color:#000000;fill:currentColor;stroke-linecap:round;stroke-linejoin:round;-inkscape-stroke:none"
     d="M 20.042969,15.246094 A 0.75,0.75 0 0 0 19.501953,15.4375 l -0.01172,0.0098 a 0.75,0.75 0 0 0 -0.05469,1.060546 0.75,0.75 0 0 0 1.058594,0.05469 l 0.01172,-0.0098 a 0.75,0.75 0 0 0 0.05469,-1.060546 0.75,0.75 0 0 0 -0.517578,-0.246094 z"
     id="path10" />
  <path
     style="color:#000000;fill:currentColor;stroke-linecap:round;stroke-linejoin:round;-inkscape-stroke:none"
     d="M 20.042969,19.246094 A 0.75,0.75 0 0 0 19.501953,19.4375 l -0.01172,0.0098 a 0.75,0.75 0 0 0 -0.05469,1.060546 0.75,0.75 0 0 0 1.058594,0.05469 l 0.01172,-0.0098 a 0.75,0.75 0 0 0 0.05469,-1.060547 0.75,0.75 0 0 0 -0.517578,-0.246093 z"
     id="path12" />
  <path
     style="color:#000000;fill:currentColor;stroke-linecap:round;stroke-linejoin:round;-inkscape-stroke:none"
     d="M 16.042969,19.246094 A 0.75,0.75 0 0 0 15.501953,19.4375 l -0.01172,0.0098 a 0.75,0.75 0 0 0 -0.05469,1.060546 0.75,0.75 0 0 0 1.058594,0.05469 l 0.01172,-0.0098 a 0.75,0.75 0 0 0 0.05469,-1.060547 0.75,0.75 0 0 0 -0.517578,-0.246093 z"
     id="path14" />
  <path
     style="color:#000000;fill:currentColor;stroke-linecap:round;stroke-linejoin:round;-inkscape-stroke:none"
     d="m 4.0058594,3.2441406 a 0.750075,0.750075 0 0 0 -0.75,0.75 V 19.994141 a 0.750075,0.750075 0 0 0 0.75,0.75 h 7.9999996 a 0.750075,0.750075 0 0 0 0.75,-0.75 V 3.9941406 a 0.750075,0.750075 0 0 0 -0.75,-0.75 z m 0.75,1.5 H 11.255859 V 19.244141 H 4.7558594 Z"
     id="path16" />
</svg>
