<?xml version="1.0" encoding="UTF-8" standalone="no"?>
<svg
   width="24"
   height="24"
   viewBox="0 0 24 24"
   stroke-width="1.5"
   fill="none"
   version="1.1"
   id="svg8"
   sodipodi:docname="align-vertical-spacing.svg"
   inkscape:version="1.2.1 (9c6d41e410, 2022-07-14)"
   xmlns:inkscape="http://www.inkscape.org/namespaces/inkscape"
   xmlns:sodipodi="http://sodipodi.sourceforge.net/DTD/sodipodi-0.dtd"
   xmlns="http://www.w3.org/2000/svg"
   xmlns:svg="http://www.w3.org/2000/svg">
  <defs
     id="defs12" />
  <sodipodi:namedview
     id="namedview10"
     pagecolor="#ffffff"
     bordercolor="#666666"
     borderopacity="1.0"
     inkscape:showpageshadow="2"
     inkscape:pageopacity="0.0"
     inkscape:pagecheckerboard="0"
     inkscape:deskcolor="#d1d1d1"
     showgrid="false"
     inkscape:zoom="34.541667"
     inkscape:cx="10.364294"
     inkscape:cy="12.014475"
     inkscape:window-width="1920"
     inkscape:window-height="1009"
     inkscape:window-x="1912"
     inkscape:window-y="-8"
     inkscape:window-maximized="1"
     inkscape:current-layer="svg8" />
  <path
     style="color:#000000;fill:currentColor;stroke-linecap:round;stroke-linejoin:round;-inkscape-stroke:none"
     d="M 2,2.25 A 0.75,0.75 0 0 0 1.25,3 0.75,0.75 0 0 0 2,3.75 H 22 A 0.75,0.75 0 0 0 22.75,3 0.75,0.75 0 0 0 22,2.25 Z"
     id="path2" />
  <path
     style="color:#000000;fill:currentColor;stroke-linecap:round;stroke-linejoin:round;-inkscape-stroke:none"
     d="M 2,20.25 A 0.75,0.75 0 0 0 1.25,21 0.75,0.75 0 0 0 2,21.75 H 22 A 0.75,0.75 0 0 0 22.75,21 0.75,0.75 0 0 0 22,20.25 Z"
     id="path4" />
  <path
     style="color:#000000;fill:currentColor;-inkscape-stroke:none"
     d="M 10,6.25 C 8.4901018,6.25 7.25,7.4901018 7.25,9 v 6 c 0,1.509917 1.2401154,2.75 2.75,2.75 h 4 c 1.509904,0 2.75,-1.240096 2.75,-2.75 V 9 C 16.75,7.4901154 15.509917,6.25 14,6.25 Z m 0,1.5 h 4 c 0.699281,0 1.25,0.5507468 1.25,1.25 v 6 c 0,0.699294 -0.550706,1.25 -1.25,1.25 H 10 C 9.3007468,16.25 8.75,15.699281 8.75,15 V 9 C 8.75,8.3007604 9.3007604,7.75 10,7.75 Z"
     id="path6" />
</svg>
