<?xml version="1.0" encoding="UTF-8" standalone="no"?>
<svg
   width="24"
   height="24"
   viewBox="0 0 24 24"
   stroke-width="1.5"
   fill="none"
   version="1.1"
   id="svg16"
   sodipodi:docname="angle-tool.svg"
   inkscape:version="1.2.1 (9c6d41e410, 2022-07-14)"
   xmlns:inkscape="http://www.inkscape.org/namespaces/inkscape"
   xmlns:sodipodi="http://sodipodi.sourceforge.net/DTD/sodipodi-0.dtd"
   xmlns="http://www.w3.org/2000/svg"
   xmlns:svg="http://www.w3.org/2000/svg">
  <defs
     id="defs20" />
  <sodipodi:namedview
     id="namedview18"
     pagecolor="#ffffff"
     bordercolor="#666666"
     borderopacity="1.0"
     inkscape:showpageshadow="2"
     inkscape:pageopacity="0.0"
     inkscape:pagecheckerboard="0"
     inkscape:deskcolor="#d1d1d1"
     showgrid="false"
     inkscape:zoom="34.541667"
     inkscape:cx="10.364294"
     inkscape:cy="12.014475"
     inkscape:window-width="1920"
     inkscape:window-height="1009"
     inkscape:window-x="1912"
     inkscape:window-y="-8"
     inkscape:window-maximized="1"
     inkscape:current-layer="svg16" />
  <path
     style="color:#000000;fill:currentColor;stroke-linecap:round;stroke-linejoin:round;-inkscape-stroke:none"
     d="M 3,2.25 A 0.750075,0.750075 0 0 0 2.25,3 V 21 A 0.750075,0.750075 0 0 0 3,21.75 H 21 A 0.750075,0.750075 0 0 0 21.75,21 V 15 A 0.750075,0.750075 0 0 0 21,14.25 H 9.75 V 3 A 0.750075,0.750075 0 0 0 9,2.25 Z m 0.75,1.5 h 4.5 V 15 A 0.750075,0.750075 0 0 0 9,15.75 h 11.25 v 4.5 H 3.75 Z"
     id="path2" />
  <path
     style="color:#000000;fill:currentColor;stroke-linecap:round;-inkscape-stroke:none"
     d="M 13,18.25 A 0.75,0.75 0 0 0 12.25,19 v 2 A 0.75,0.75 0 0 0 13,21.75 0.75,0.75 0 0 0 13.75,21 V 19 A 0.75,0.75 0 0 0 13,18.25 Z"
     id="path4" />
  <path
     style="color:#000000;fill:currentColor;stroke-linecap:round;-inkscape-stroke:none"
     d="M 9,18.25 A 0.75,0.75 0 0 0 8.25,19 v 2 A 0.75,0.75 0 0 0 9,21.75 0.75,0.75 0 0 0 9.75,21 V 19 A 0.75,0.75 0 0 0 9,18.25 Z"
     id="path6" />
  <path
     style="color:#000000;fill:currentColor;stroke-linecap:round;-inkscape-stroke:none"
     d="M 3,6.25 A 0.75,0.75 0 0 0 2.25,7 0.75,0.75 0 0 0 3,7.75 H 5 A 0.75,0.75 0 0 0 5.75,7 0.75,0.75 0 0 0 5,6.25 Z"
     id="path8" />
  <path
     style="color:#000000;fill:currentColor;stroke-linecap:round;-inkscape-stroke:none"
     d="M 3,10.25 A 0.75,0.75 0 0 0 2.25,11 0.75,0.75 0 0 0 3,11.75 H 5 A 0.75,0.75 0 0 0 5.75,11 0.75,0.75 0 0 0 5,10.25 Z"
     id="path10" />
  <path
     style="color:#000000;fill:currentColor;stroke-linecap:round;-inkscape-stroke:none"
     d="M 3,14.25 A 0.75,0.75 0 0 0 2.25,15 0.75,0.75 0 0 0 3,15.75 H 5 A 0.75,0.75 0 0 0 5.75,15 0.75,0.75 0 0 0 5,14.25 Z"
     id="path12" />
  <path
     style="color:#000000;fill:currentColor;stroke-linecap:round;-inkscape-stroke:none"
     d="M 17,18.25 A 0.75,0.75 0 0 0 16.25,19 v 2 A 0.75,0.75 0 0 0 17,21.75 0.75,0.75 0 0 0 17.75,21 V 19 A 0.75,0.75 0 0 0 17,18.25 Z"
     id="path14" />
</svg>
