<?xml version="1.0" encoding="UTF-8" standalone="no"?>
<svg
   width="24"
   height="24"
   stroke-width="1.5"
   viewBox="0 0 24 24"
   fill="none"
   version="1.1"
   id="svg10"
   sodipodi:docname="antenna.svg"
   inkscape:version="1.2.1 (9c6d41e410, 2022-07-14)"
   xmlns:inkscape="http://www.inkscape.org/namespaces/inkscape"
   xmlns:sodipodi="http://sodipodi.sourceforge.net/DTD/sodipodi-0.dtd"
   xmlns="http://www.w3.org/2000/svg"
   xmlns:svg="http://www.w3.org/2000/svg">
  <defs
     id="defs14" />
  <sodipodi:namedview
     id="namedview12"
     pagecolor="#ffffff"
     bordercolor="#666666"
     borderopacity="1.0"
     inkscape:showpageshadow="2"
     inkscape:pageopacity="0.0"
     inkscape:pagecheckerboard="0"
     inkscape:deskcolor="#d1d1d1"
     showgrid="false"
     inkscape:zoom="34.541667"
     inkscape:cx="10.364294"
     inkscape:cy="12.014475"
     inkscape:window-width="1920"
     inkscape:window-height="1009"
     inkscape:window-x="1912"
     inkscape:window-y="-8"
     inkscape:window-maximized="1"
     inkscape:current-layer="svg10" />
  <g
     id="path2">
    <path
       style="color:#000000;fill:currentColor;stroke-width:1.5;stroke-linecap:round;stroke-linejoin:round;-inkscape-stroke:none"
       d="m 12,5 c 0.5523,0 1,-0.44772 1,-1 0,-0.55228 -0.4477,-1 -1,-1 -0.5523,0 -1,0.44772 -1,1 0,0.55228 0.4477,1 1,1 z"
       id="path203" />
    <path
       style="color:#000000;fill:currentColor;stroke-linecap:round;stroke-linejoin:round;-inkscape-stroke:none"
       d="m 12,2.25 c -0.957622,0 -1.75,0.7924012 -1.75,1.75 0,0.9575988 0.792378,1.75 1.75,1.75 0.957622,0 1.75,-0.7924012 1.75,-1.75 0,-0.9575988 -0.792378,-1.75 -1.75,-1.75 z m 0,1.5 c 0.146977,0 0.25,0.1030399 0.25,0.25 0,0.1469601 -0.103023,0.25 -0.25,0.25 -0.146977,0 -0.25,-0.1030399 -0.25,-0.25 0,-0.1469601 0.103023,-0.25 0.25,-0.25 z"
       id="path205" />
  </g>
  <path
     style="color:#000000;fill:currentColor;stroke-linecap:round;stroke-linejoin:round;-inkscape-stroke:none"
     d="M 15.853516,0.26367188 A 0.75,0.75 0 0 0 15.375,0.58398437 0.75,0.75 0 0 0 15.583984,1.625 c 0,0 1.166016,0.7500016 1.166016,2.375 0,1.6249984 -1.166016,2.375 -1.166016,2.375 A 0.75,0.75 0 0 0 15.375,7.4160156 0.75,0.75 0 0 0 16.416016,7.625 c 0,0 1.833984,-1.2500024 1.833984,-3.625 0,-2.3749976 -1.833984,-3.625 -1.833984,-3.625 a 0.75,0.75 0 0 0 -0.5625,-0.11132812 z"
     id="path4" />
  <path
     style="color:#000000;fill:currentColor;stroke-linecap:round;stroke-linejoin:round;-inkscape-stroke:none"
     d="M 7.5839844,0.375 C 7.5839844,0.375 5.75,1.6250024 5.75,4 c 0,2.3749976 1.8339844,3.625 1.8339844,3.625 A 0.75,0.75 0 0 0 8.625,7.4160156 0.75,0.75 0 0 0 8.4160156,6.375 C 8.4160156,6.375 7.25,5.6249984 7.25,4 7.25,2.3750016 8.4160156,1.625 8.4160156,1.625 A 0.75,0.75 0 0 0 8.625,0.58398437 0.75,0.75 0 0 0 7.5839844,0.375 Z"
     id="path6" />
  <path
     style="color:#000000;fill:currentColor;stroke-linecap:round;stroke-linejoin:round;-inkscape-stroke:none"
     d="m 12,4.25 a 0.750075,0.750075 0 0 0 -0.722656,0.5488281 l -2.5000002,8.9999999 -1.3886719,5 -1.1113282,4 a 0.75,0.75 0 0 0 0.5214844,0.923828 0.75,0.75 0 0 0 0.9238281,-0.521484 L 8.6816406,19.75 h 6.6367184 l 0.958985,3.451172 a 0.75,0.75 0 0 0 0.923828,0.521484 0.75,0.75 0 0 0 0.521484,-0.923828 l -1.111328,-4 -1.388672,-5 -2.5,-8.9999999 A 0.750075,0.750075 0 0 0 12,4.25 Z M 12,7.8027344 13.513672,13.25 H 10.486328 Z M 10.070313,14.75 h 3.859375 l 0.972656,3.5 H 9.0976563 Z"
     id="path8" />
</svg>
