<?xml version="1.0" encoding="UTF-8" standalone="no"?>
<svg
   width="24"
   height="24"
   stroke-width="1.5"
   viewBox="0 0 24 24"
   fill="none"
   version="1.1"
   id="svg12"
   sodipodi:docname="antenna-signal.svg"
   inkscape:version="1.2.1 (9c6d41e410, 2022-07-14)"
   xmlns:inkscape="http://www.inkscape.org/namespaces/inkscape"
   xmlns:sodipodi="http://sodipodi.sourceforge.net/DTD/sodipodi-0.dtd"
   xmlns="http://www.w3.org/2000/svg"
   xmlns:svg="http://www.w3.org/2000/svg">
  <defs
     id="defs16" />
  <sodipodi:namedview
     id="namedview14"
     pagecolor="#ffffff"
     bordercolor="#666666"
     borderopacity="1.0"
     inkscape:showpageshadow="2"
     inkscape:pageopacity="0.0"
     inkscape:pagecheckerboard="0"
     inkscape:deskcolor="#d1d1d1"
     showgrid="false"
     inkscape:zoom="34.541667"
     inkscape:cx="10.364294"
     inkscape:cy="12.014475"
     inkscape:window-width="1920"
     inkscape:window-height="1009"
     inkscape:window-x="1912"
     inkscape:window-y="-8"
     inkscape:window-maximized="1"
     inkscape:current-layer="svg12" />
  <path
     style="color:#000000;fill:currentColor;stroke-linecap:round;stroke-linejoin:round;-inkscape-stroke:none"
     d="m 17.5,7.25 a 0.75,0.75 0 0 0 -0.53125,0.21875 0.75,0.75 0 0 0 0,1.0625 c 0,0 1.28125,1.2687522 1.28125,3.46875 0,2.199998 -1.28125,3.46875 -1.28125,3.46875 a 0.75,0.75 0 0 0 0,1.0625 0.75,0.75 0 0 0 1.0625,0 c 0,0 1.71875,-1.731253 1.71875,-4.53125 0,-2.7999972 -1.71875,-4.53125 -1.71875,-4.53125 A 0.75,0.75 0 0 0 17.5,7.25 Z"
     id="path2" />
  <path
     style="color:#000000;fill:currentColor;stroke-linecap:round;stroke-linejoin:round;-inkscape-stroke:none"
     d="m 20.5,4.25 a 0.75,0.75 0 0 0 -0.53125,0.21875 0.75,0.75 0 0 0 0,1.0625 c 0,0 2.28125,2.246532 2.28125,6.46875 0,4.222218 -2.28125,6.46875 -2.28125,6.46875 a 0.75,0.75 0 0 0 0,1.0625 0.75,0.75 0 0 0 1.0625,0 c 0,0 2.71875,-2.753477 2.71875,-7.53125 0,-4.777773 -2.71875,-7.53125 -2.71875,-7.53125 A 0.75,0.75 0 0 0 20.5,4.25 Z"
     id="path4" />
  <path
     style="color:#000000;fill:currentColor;stroke-linecap:round;stroke-linejoin:round;-inkscape-stroke:none"
     d="M 6.5,7.25 A 0.75,0.75 0 0 0 5.96875,7.46875 c 0,0 -1.71875,1.7312528 -1.71875,4.53125 0,2.799997 1.71875,4.53125 1.71875,4.53125 a 0.75,0.75 0 0 0 1.0625,0 0.75,0.75 0 0 0 0,-1.0625 C 7.03125,15.46875 5.75,14.199998 5.75,12 5.75,9.8000022 7.03125,8.53125 7.03125,8.53125 a 0.75,0.75 0 0 0 0,-1.0625 A 0.75,0.75 0 0 0 6.5,7.25 Z"
     id="path6" />
  <path
     style="color:#000000;fill:currentColor;stroke-linecap:round;stroke-linejoin:round;-inkscape-stroke:none"
     d="M 3.5,4.25 A 0.75,0.75 0 0 0 2.96875,4.46875 c 0,0 -2.71875,2.753477 -2.71875,7.53125 0,4.777773 2.71875,7.53125 2.71875,7.53125 a 0.75,0.75 0 0 0 1.0625,0 0.75,0.75 0 0 0 0,-1.0625 C 4.03125,18.46875 1.75,16.222218 1.75,12 1.75,7.777782 4.03125,5.53125 4.03125,5.53125 a 0.75,0.75 0 0 0 0,-1.0625 A 0.75,0.75 0 0 0 3.5,4.25 Z"
     id="path8" />
  <g
     id="path10">
    <path
       style="color:#000000;fill:currentColor;stroke-width:1.5;stroke-linecap:round;stroke-linejoin:round;-inkscape-stroke:none"
       d="m 12,13 c 0.5523,0 1,-0.4477 1,-1 0,-0.5523 -0.4477,-1 -1,-1 -0.5523,0 -1,0.4477 -1,1 0,0.5523 0.4477,1 1,1 z"
       id="path247" />
    <path
       style="color:#000000;fill:currentColor;stroke-linecap:round;stroke-linejoin:round;-inkscape-stroke:none"
       d="m 12,10.25 c -0.957604,0 -1.75,0.792396 -1.75,1.75 0,0.957604 0.792396,1.75 1.75,1.75 0.957604,0 1.75,-0.792396 1.75,-1.75 0,-0.957604 -0.792396,-1.75 -1.75,-1.75 z m 0,1.5 c 0.146995,0 0.25,0.103005 0.25,0.25 0,0.146995 -0.103005,0.25 -0.25,0.25 -0.146995,0 -0.25,-0.103005 -0.25,-0.25 0,-0.146995 0.103005,-0.25 0.25,-0.25 z"
       id="path249" />
  </g>
</svg>
