<?xml version="1.0" encoding="UTF-8" standalone="no"?>
<svg
   width="24"
   height="24"
   stroke-width="1.5"
   viewBox="0 0 24 24"
   fill="none"
   version="1.1"
   id="svg14"
   sodipodi:docname="antenna-signal-tag.svg"
   inkscape:version="1.2.1 (9c6d41e410, 2022-07-14)"
   xmlns:inkscape="http://www.inkscape.org/namespaces/inkscape"
   xmlns:sodipodi="http://sodipodi.sourceforge.net/DTD/sodipodi-0.dtd"
   xmlns="http://www.w3.org/2000/svg"
   xmlns:svg="http://www.w3.org/2000/svg">
  <defs
     id="defs18" />
  <sodipodi:namedview
     id="namedview16"
     pagecolor="#ffffff"
     bordercolor="#666666"
     borderopacity="1.0"
     inkscape:showpageshadow="2"
     inkscape:pageopacity="0.0"
     inkscape:pagecheckerboard="0"
     inkscape:deskcolor="#d1d1d1"
     showgrid="false"
     inkscape:zoom="34.541667"
     inkscape:cx="10.364294"
     inkscape:cy="12.014475"
     inkscape:window-width="1920"
     inkscape:window-height="1009"
     inkscape:window-x="1912"
     inkscape:window-y="-8"
     inkscape:window-maximized="1"
     inkscape:current-layer="svg14" />
  <path
     style="color:#000000;fill:currentColor;-inkscape-stroke:none"
     d="M 8,2.25 C 4.280964,2.25 1.25,5.280964 1.25,9 v 6 c 0,3.719027 3.0309625,6.75 6.75,6.75 h 8 c 3.719029,0 6.75,-3.030971 6.75,-6.75 V 9 C 22.75,5.2809625 19.719027,2.25 16,2.25 Z m 0,1.5 h 8 c 2.908366,0 5.25,2.3416241 5.25,5.25 v 6 c 0,2.908365 -2.341635,5.25 -5.25,5.25 H 8 C 5.0916241,20.25 2.75,17.908366 2.75,15 V 9 C 2.75,6.0916226 5.0916226,3.75 8,3.75 Z"
     id="path2" />
  <path
     style="color:#000000;fill:currentColor;stroke-linecap:round;stroke-linejoin:round;-inkscape-stroke:none"
     d="m 15.044922,8.2519531 a 0.75,0.75 0 0 0 -0.542969,0.1875 0.75,0.75 0 0 0 -0.0625,1.0585938 c 0,0 0.810547,0.8936211 0.810547,2.5019531 0,1.608332 -0.810547,2.501953 -0.810547,2.501953 a 0.75,0.75 0 0 0 0.0625,1.058594 0.75,0.75 0 0 0 1.058594,-0.0625 c 0,0 1.189453,-1.356382 1.189453,-3.498047 0,-2.1416645 -1.189453,-3.4980469 -1.189453,-3.4980469 a 0.75,0.75 0 0 0 -0.515625,-0.25 z"
     id="path4" />
  <path
     style="color:#000000;fill:currentColor;stroke-linecap:round;stroke-linejoin:round;-inkscape-stroke:none"
     d="m 11.970703,11.25 a 0.75,0.75 0 0 0 -0.517578,0.246094 l -0.0098,0.01172 a 0.75,0.75 0 0 0 0.05469,1.058593 0.75,0.75 0 0 0 1.058594,-0.05469 L 12.566406,12.5 A 0.75,0.75 0 0 0 12.511719,11.441406 0.75,0.75 0 0 0 11.970703,11.25 Z"
     id="path6" />
  <path
     style="color:#000000;fill:currentColor;stroke-linecap:round;stroke-linejoin:round;-inkscape-stroke:none"
     d="M 17.5,6.4414062 A 0.75,0.75 0 0 0 16.441406,6.5 0.75,0.75 0 0 0 16.5,7.5585937 c 0,0 1.75,1.5382299 1.75,4.4414063 0,2.903187 -1.75,4.441406 -1.75,4.441406 A 0.75,0.75 0 0 0 16.441406,17.5 0.75,0.75 0 0 0 17.5,17.558594 c 0,0 2.25,-2.033188 2.25,-5.558594 0,-3.5253972 -2.25,-5.5585938 -2.25,-5.5585938 z"
     id="path8" />
  <path
     style="color:#000000;fill:currentColor;stroke-linecap:round;stroke-linejoin:round;-inkscape-stroke:none"
     d="m 8.9550781,8.2519531 a 0.75,0.75 0 0 0 -0.515625,0.25 C 8.4394531,8.5019531 7.25,9.8583355 7.25,12 c 0,2.141665 1.1894531,3.498047 1.1894531,3.498047 a 0.75,0.75 0 0 0 1.0585938,0.0625 0.75,0.75 0 0 0 0.0625,-1.058594 C 9.5605469,14.501953 8.75,13.608332 8.75,12 8.75,10.391668 9.5605469,9.4980469 9.5605469,9.4980469 a 0.75,0.75 0 0 0 -0.0625,-1.0585938 0.75,0.75 0 0 0 -0.5429688,-0.1875 z"
     id="path10" />
  <path
     style="color:#000000;fill:currentColor;stroke-linecap:round;stroke-linejoin:round;-inkscape-stroke:none"
     d="M 7.0429687,6.2519531 A 0.75,0.75 0 0 0 6.5,6.4414062 c 0,0 -2.25,2.0331966 -2.25,5.5585938 0,3.525406 2.25,5.558594 2.25,5.558594 A 0.75,0.75 0 0 0 7.5585937,17.5 0.75,0.75 0 0 0 7.5,16.441406 C 7.5,16.441406 5.75,14.903187 5.75,12 5.75,9.0968236 7.5,7.5585937 7.5,7.5585937 A 0.75,0.75 0 0 0 7.5585937,6.5 0.75,0.75 0 0 0 7.0429687,6.2519531 Z"
     id="path12" />
</svg>
