<?xml version="1.0" encoding="UTF-8" standalone="no"?>
<svg
   width="24"
   height="24"
   viewBox="0 0 24 24"
   stroke-width="1.5"
   fill="none"
   version="1.1"
   id="svg12"
   sodipodi:docname="app-store.svg"
   inkscape:version="1.2.1 (9c6d41e410, 2022-07-14)"
   xmlns:inkscape="http://www.inkscape.org/namespaces/inkscape"
   xmlns:sodipodi="http://sodipodi.sourceforge.net/DTD/sodipodi-0.dtd"
   xmlns="http://www.w3.org/2000/svg"
   xmlns:svg="http://www.w3.org/2000/svg">
  <defs
     id="defs16" />
  <sodipodi:namedview
     id="namedview14"
     pagecolor="#ffffff"
     bordercolor="#666666"
     borderopacity="1.0"
     inkscape:showpageshadow="2"
     inkscape:pageopacity="0.0"
     inkscape:pagecheckerboard="0"
     inkscape:deskcolor="#d1d1d1"
     showgrid="false"
     inkscape:zoom="34.541667"
     inkscape:cx="10.364294"
     inkscape:cy="12.014475"
     inkscape:window-width="1920"
     inkscape:window-height="1009"
     inkscape:window-x="1912"
     inkscape:window-y="-8"
     inkscape:window-maximized="1"
     inkscape:current-layer="svg12" />
  <path
     style="color:#000000;fill:currentColor;stroke-linecap:round;stroke-linejoin:round;-inkscape-stroke:none"
     d="M 12,1.25 C 6.0718263,1.25 1.25,6.0718263 1.25,12 1.25,17.928127 6.0718217,22.75 12,22.75 17.928132,22.75 22.75,17.928132 22.75,12 22.75,6.0718217 17.928127,1.25 12,1.25 Z m 0,1.5 c 5.117462,0 9.25,4.1324893 9.25,9.25 0,5.117457 -4.132543,9.25 -9.25,9.25 C 6.8824893,21.25 2.75,17.117462 2.75,12 2.75,6.8824848 6.8824848,2.75 12,2.75 Z"
     id="path2" />
  <path
     style="color:#000000;fill:currentColor;stroke-linecap:round;stroke-linejoin:round;-inkscape-stroke:none"
     d="M 10.097656,4.8671875 A 0.75,0.75 0 0 0 9.8671875,5.9023437 L 16.867187,16.902344 a 0.75,0.75 0 0 0 1.035157,0.230468 0.75,0.75 0 0 0 0.230468,-1.035156 L 11.132813,5.0976562 A 0.75,0.75 0 0 0 10.097656,4.8671875 Z"
     id="path4" />
  <path
     style="color:#000000;fill:currentColor;stroke-linecap:round;stroke-linejoin:round;-inkscape-stroke:none"
     d="M 13.902344,4.8671875 A 0.75,0.75 0 0 0 12.867188,5.0976562 L 5.8671875,16.097656 a 0.75,0.75 0 0 0 0.2304687,1.035156 0.75,0.75 0 0 0 1.0351563,-0.230468 L 14.132813,5.9023437 A 0.75,0.75 0 0 0 13.902344,4.8671875 Z"
     id="path6" />
  <path
     style="color:#000000;fill:currentColor;stroke-linecap:round;stroke-linejoin:round;-inkscape-stroke:none"
     d="M 6.5,13.25 A 0.75,0.75 0 0 0 5.75,14 0.75,0.75 0 0 0 6.5,14.75 h 7 A 0.75,0.75 0 0 0 14.25,14 0.75,0.75 0 0 0 13.5,13.25 Z"
     id="path8" />
  <path
     style="color:#000000;fill:currentColor;stroke-linecap:round;stroke-linejoin:round;-inkscape-stroke:none"
     d="M 16,13.25 A 0.75,0.75 0 0 0 15.25,14 0.75,0.75 0 0 0 16,14.75 h 1.5 A 0.75,0.75 0 0 0 18.25,14 0.75,0.75 0 0 0 17.5,13.25 Z"
     id="path10" />
</svg>
