<?xml version="1.0" encoding="UTF-8" standalone="no"?>
<svg
   width="24"
   height="24"
   stroke-width="1.5"
   viewBox="0 0 24 24"
   fill="none"
   version="1.1"
   id="svg6"
   sodipodi:docname="app-notification.svg"
   inkscape:version="1.2.1 (9c6d41e410, 2022-07-14)"
   xmlns:inkscape="http://www.inkscape.org/namespaces/inkscape"
   xmlns:sodipodi="http://sodipodi.sourceforge.net/DTD/sodipodi-0.dtd"
   xmlns="http://www.w3.org/2000/svg"
   xmlns:svg="http://www.w3.org/2000/svg">
  <defs
     id="defs10" />
  <sodipodi:namedview
     id="namedview8"
     pagecolor="#ffffff"
     bordercolor="#666666"
     borderopacity="1.0"
     inkscape:showpageshadow="2"
     inkscape:pageopacity="0.0"
     inkscape:pagecheckerboard="0"
     inkscape:deskcolor="#d1d1d1"
     showgrid="false"
     inkscape:zoom="34.541667"
     inkscape:cx="10.364294"
     inkscape:cy="12.014475"
     inkscape:window-width="1920"
     inkscape:window-height="1009"
     inkscape:window-x="1912"
     inkscape:window-y="-8"
     inkscape:window-maximized="1"
     inkscape:current-layer="svg6" />
  <path
     style="color:#000000;fill:currentColor;stroke-linecap:round;stroke-linejoin:round;-inkscape-stroke:none"
     d="m 19,1.25 c -2.062218,0 -3.75,1.6878347 -3.75,3.75 0,2.0621653 1.687782,3.75 3.75,3.75 2.062218,0 3.75,-1.6878347 3.75,-3.75 0,-2.0621653 -1.687782,-3.75 -3.75,-3.75 z m 0,1.5 c 1.251579,0 2.25,0.9984686 2.25,2.25 0,1.2515314 -0.998421,2.25 -2.25,2.25 -1.251579,0 -2.25,-0.9984686 -2.25,-2.25 0,-1.2515314 0.998421,-2.25 2.25,-2.25 z"
     id="path2" />
  <path
     style="color:#000000;fill:currentColor;stroke-linecap:round;stroke-linejoin:round;-inkscape-stroke:none"
     d="M 9,2.25 C 5.280964,2.25 2.25,5.280964 2.25,9 v 6 c 0,3.719027 3.0309625,6.75 6.75,6.75 h 6 c 3.719029,0 6.75,-3.030971 6.75,-6.75 V 12 A 0.75,0.75 0 0 0 21,11.25 0.75,0.75 0 0 0 20.25,12 v 3 c 0,2.908365 -2.341635,5.25 -5.25,5.25 H 9 C 6.0916241,20.25 3.75,17.908366 3.75,15 V 9 C 3.75,6.0916226 6.0916226,3.75 9,3.75 h 3 A 0.75,0.75 0 0 0 12.75,3 0.75,0.75 0 0 0 12,2.25 Z"
     id="path4" />
</svg>
