<?xml version="1.0" encoding="UTF-8" standalone="no"?>
<svg
   width="24"
   height="24"
   stroke-width="1.5"
   viewBox="0 0 24 24"
   fill="none"
   version="1.1"
   id="svg4"
   sodipodi:docname="apple-swift.svg"
   inkscape:version="1.2.1 (9c6d41e410, 2022-07-14)"
   xmlns:inkscape="http://www.inkscape.org/namespaces/inkscape"
   xmlns:sodipodi="http://sodipodi.sourceforge.net/DTD/sodipodi-0.dtd"
   xmlns="http://www.w3.org/2000/svg"
   xmlns:svg="http://www.w3.org/2000/svg">
  <defs
     id="defs8" />
  <sodipodi:namedview
     id="namedview6"
     pagecolor="#ffffff"
     bordercolor="#666666"
     borderopacity="1.0"
     inkscape:showpageshadow="2"
     inkscape:pageopacity="0.0"
     inkscape:pagecheckerboard="0"
     inkscape:deskcolor="#d1d1d1"
     showgrid="false"
     inkscape:zoom="34.541667"
     inkscape:cx="10.364294"
     inkscape:cy="12.014475"
     inkscape:window-width="1920"
     inkscape:window-height="1009"
     inkscape:window-x="1912"
     inkscape:window-y="-8"
     inkscape:window-maximized="1"
     inkscape:current-layer="svg4" />
  <path
     style="color:#000000;fill:currentColor;stroke-linecap:round;stroke-linejoin:round;-inkscape-stroke:none"
     d="m 14.009766,2.2617188 c -0.312953,0.039014 -0.613233,0.1841732 -0.839844,0.4277343 -0.457099,0.4895037 -0.475854,1.2703201 -0.04687,1.7832031 a 0.750075,0.750075 0 0 0 0.0039,0.00391 c -0.06482,-0.076104 0.02679,0.032965 0.09375,0.1230469 0.06696,0.090082 0.162658,0.2253524 0.275391,0.3984375 0.225465,0.3461701 0.516827,0.8466271 0.777344,1.4511718 0.384051,0.8912166 0.575632,2.0251173 0.541015,3.2167969 C 12.459968,7.9081849 7.6230469,4.1152344 7.6230469,4.1152344 A 0.750075,0.750075 0 0 0 6.515625,5.09375 L 8.6523438,8.5957031 4.2675781,5.7695312 A 0.750075,0.750075 0 0 0 3.2792969,6.8730469 c 0,0 3.9183848,4.6935851 7.1054691,7.5136721 C 8.8117171,14.678431 6.5807498,14.728927 3.3613281,12.728516 2.8325246,12.397468 2.1410515,12.460026 1.6816406,12.888672 1.2222093,13.31624 1.1155682,14.028552 1.4433594,14.570313 1.6429892,14.900726 5.2870372,20.75 12.939453,20.75 c 2.137243,0 3.489032,-0.644674 4.425781,-1.099609 0.577273,-0.27982 0.926776,-0.425782 1.199219,-0.425782 0.739538,0 1.43,0.903163 1.4375,0.914063 l -0.01367,-0.01953 c 0.256145,0.397581 0.695715,0.630859 1.16211,0.630859 0.05324,0 0.08601,-0.0027 0.103515,-0.0039 a 0.750075,0.750075 0 0 0 0.0059,0 c 0.50058,-0.03898 0.953536,-0.351898 1.15625,-0.822266 0.546148,-1.26841 0.340392,-2.558628 -0.05469,-3.576172 -0.336016,-0.865423 -0.779799,-1.447813 -1.125,-1.898437 0.243031,-0.909852 0.515611,-2.511181 -0.08984,-4.5761721 C 20.477843,7.592547 18.742865,4.9175538 14.931641,2.4707031 a 0.750075,0.750075 0 0 0 -0.002,-0.00195 C 14.649074,2.2892008 14.323296,2.2226321 14.009766,2.2617188 Z m 0.849609,2.1152343 c 2.88305,2.0825538 4.337803,4.1790399 4.847656,5.9179689 0.562858,1.919708 0.225923,3.451821 0.0332,4.072266 A 0.750075,0.750075 0 0 0 19.875,15.0625 c 0.282457,0.34723 0.780846,1.03732 1.087891,1.828125 0.279142,0.718941 0.353855,1.479603 0.113281,2.216797 -0.194654,-0.288736 -0.9798,-1.382813 -2.511719,-1.382813 -0.720156,0 -1.278389,0.297393 -1.853516,0.576172 a 0.750075,0.750075 0 0 0 -0.002,0 C 15.770736,18.756445 14.791806,19.25 12.939453,19.25 6.6769158,19.25 3.7934968,15.206607 3.1894531,14.298828 7.3547565,16.638805 10.670104,16.198075 12.25,15.630859 a 0.750075,0.750075 0 0 0 0.197266,-1.304687 C 11.200348,13.385417 9.5453881,11.619651 8.0605469,10 l 2.5332031,1.630859 a 0.750075,0.750075 0 0 0 1.046875,-1.021484 L 9.9101563,7.7734375 C 11.988322,9.4063977 13.95462,10.985013 15.054688,11.742188 a 0.750075,0.750075 0 0 0 1.152343,-0.431641 C 16.745494,9.2038455 16.25686,7.258289 15.652344,5.8554687 15.385644,5.2365747 15.104603,4.7672516 14.859375,4.3769531 Z"
     id="path2" />
</svg>
