<?xml version="1.0" encoding="UTF-8" standalone="no"?>
<svg
   width="24"
   height="24"
   stroke-width="1.5"
   viewBox="0 0 24 24"
   fill="none"
   version="1.1"
   id="svg4"
   sodipodi:docname="apple-imac-2021.svg"
   inkscape:version="1.2.1 (9c6d41e410, 2022-07-14)"
   xmlns:inkscape="http://www.inkscape.org/namespaces/inkscape"
   xmlns:sodipodi="http://sodipodi.sourceforge.net/DTD/sodipodi-0.dtd"
   xmlns="http://www.w3.org/2000/svg"
   xmlns:svg="http://www.w3.org/2000/svg">
  <defs
     id="defs8" />
  <sodipodi:namedview
     id="namedview6"
     pagecolor="#ffffff"
     bordercolor="#666666"
     borderopacity="1.0"
     inkscape:showpageshadow="2"
     inkscape:pageopacity="0.0"
     inkscape:pagecheckerboard="0"
     inkscape:deskcolor="#d1d1d1"
     showgrid="false"
     inkscape:zoom="34.541667"
     inkscape:cx="10.364294"
     inkscape:cy="12.014475"
     inkscape:window-width="1920"
     inkscape:window-height="1009"
     inkscape:window-x="1912"
     inkscape:window-y="-8"
     inkscape:window-maximized="1"
     inkscape:current-layer="svg4" />
  <path
     style="color:#000000;fill:currentColor;stroke-linecap:round;stroke-linejoin:round;-inkscape-stroke:none"
     d="M 2.5996094,1.25 C 1.8629077,1.25 1.25,1.8629077 1.25,2.5996094 V 15.5 17.400391 C 1.25,18.137086 1.862953,18.75 2.5996094,18.75 H 9.75 v 2.5 H 9 A 0.75,0.75 0 0 0 8.25,22 0.75,0.75 0 0 0 9,22.75 h 1.5 3 1.5 A 0.75,0.75 0 0 0 15.75,22 0.75,0.75 0 0 0 15,21.25 h -0.75 v -2.5 h 7.150391 C 22.13704,18.75 22.75,18.13704 22.75,17.400391 V 15.5 2.5996094 C 22.75,1.862953 22.137086,1.25 21.400391,1.25 Z M 2.75,2.75 h 18.5 v 12 H 2.75 Z m 0,13.5 h 18.5 v 1 h -7.75 -3 -7.75 z m 8.5,2.5 h 1.5 v 2.5 h -1.5 z"
     id="path2" />
</svg>
