<?xml version="1.0" encoding="UTF-8" standalone="no"?>
<svg
   width="24"
   height="24"
   stroke-width="1.5"
   viewBox="0 0 24 24"
   fill="none"
   version="1.1"
   id="svg6"
   sodipodi:docname="apple-imac-2021-side.svg"
   inkscape:version="1.2.1 (9c6d41e410, 2022-07-14)"
   xmlns:inkscape="http://www.inkscape.org/namespaces/inkscape"
   xmlns:sodipodi="http://sodipodi.sourceforge.net/DTD/sodipodi-0.dtd"
   xmlns="http://www.w3.org/2000/svg"
   xmlns:svg="http://www.w3.org/2000/svg">
  <defs
     id="defs10" />
  <sodipodi:namedview
     id="namedview8"
     pagecolor="#ffffff"
     bordercolor="#666666"
     borderopacity="1.0"
     inkscape:showpageshadow="2"
     inkscape:pageopacity="0.0"
     inkscape:pagecheckerboard="0"
     inkscape:deskcolor="#d1d1d1"
     showgrid="false"
     inkscape:zoom="34.541667"
     inkscape:cx="10.364294"
     inkscape:cy="12.014475"
     inkscape:window-width="1920"
     inkscape:window-height="1009"
     inkscape:window-x="1912"
     inkscape:window-y="-8"
     inkscape:window-maximized="1"
     inkscape:current-layer="svg6" />
  <path
     style="color:#000000;fill:currentColor;stroke-linecap:round;stroke-linejoin:round;-inkscape-stroke:none"
     d="M 6.8105469,1.2734375 A 0.75,0.75 0 0 0 6.2734375,2.1894531 L 9.2265625,13.509766 7.40625,21.25 H 6 A 0.75,0.75 0 0 0 5.25,22 0.75,0.75 0 0 0 6,22.75 h 2 6 A 0.75,0.75 0 0 0 14.75,22 0.75,0.75 0 0 0 14,21.25 H 8.9472656 l 1.1074224,-4.705078 0.722656,2.652344 a 0.75,0.75 0 0 0 0.919922,0.52539 0.75,0.75 0 0 0 0.52539,-0.919922 l -1.496093,-5.484375 a 0.75,0.75 0 0 0 0,-0.0078 L 7.7265625,1.8105469 A 0.75,0.75 0 0 0 6.8105469,1.2734375 Z"
     id="path2" />
  <path
     style="color:#000000;fill:currentColor;stroke-linecap:round;stroke-linejoin:round;-inkscape-stroke:none"
     d="M 17,21.25 A 0.75,0.75 0 0 0 16.25,22 0.75,0.75 0 0 0 17,22.75 h 1 A 0.75,0.75 0 0 0 18.75,22 0.75,0.75 0 0 0 18,21.25 Z"
     id="path4" />
</svg>
