<?xml version="1.0" encoding="UTF-8" standalone="no"?>
<svg
   width="24"
   height="24"
   stroke-width="1.5"
   viewBox="0 0 24 24"
   fill="none"
   version="1.1"
   id="svg10"
   sodipodi:docname="apple-half.svg"
   inkscape:version="1.2.1 (9c6d41e410, 2022-07-14)"
   xmlns:inkscape="http://www.inkscape.org/namespaces/inkscape"
   xmlns:sodipodi="http://sodipodi.sourceforge.net/DTD/sodipodi-0.dtd"
   xmlns="http://www.w3.org/2000/svg"
   xmlns:svg="http://www.w3.org/2000/svg">
  <defs
     id="defs14" />
  <sodipodi:namedview
     id="namedview12"
     pagecolor="#ffffff"
     bordercolor="#666666"
     borderopacity="1.0"
     inkscape:showpageshadow="2"
     inkscape:pageopacity="0.0"
     inkscape:pagecheckerboard="0"
     inkscape:deskcolor="#d1d1d1"
     showgrid="false"
     inkscape:zoom="34.541667"
     inkscape:cx="10.364294"
     inkscape:cy="12.014475"
     inkscape:window-width="1920"
     inkscape:window-height="1009"
     inkscape:window-x="1912"
     inkscape:window-y="-8"
     inkscape:window-maximized="1"
     inkscape:current-layer="svg10" />
  <path
     style="color:#000000;fill:currentColor;-inkscape-stroke:none"
     d="M 15.685547,3.96875 C 14.525375,4.1078807 13.282134,4.4871307 12,5 10.491528,4.4971694 9.1349264,4.1261474 7.90625,3.984375 6.6758826,3.8424042 5.623631,3.9381845 4.75,4.375 3.9092772,4.7953582 3.1859377,5.6024227 2.71875,6.828125 2.2515623,8.0538273 2,9.7070908 2,12 c 0,4.512669 1.273303,7.268665 3.125,8.75 1.8613744,1.489168 4.3569365,1.753585 6.875,1.25 2.518036,0.503586 5.013582,0.239157 6.875,-1.25 C 20.726699,19.268663 22,16.512667 22,12 22,9.7272556 21.69028,8.0614012 21.140625,6.8261719 20.59097,5.5909425 19.772002,4.7935989 18.875,4.375 17.922809,3.9306382 16.845718,3.8296193 15.685547,3.96875 Z M 7.734375,5.4746094 c 1.0537413,0.1215873 2.33049,0.4623703 3.791016,0.9492187 l 0.521484,0.1738281 0.509766,-0.2050781 C 14.955767,5.4328986 17.010819,5.16064 18.240234,5.734375 18.812531,6.0014454 19.340412,6.4731491 19.769531,7.4375 20.19865,8.4018509 20.5,9.8660088 20.5,12 c 0,4.235324 -1.153403,6.450864 -2.5625,7.578125 -1.416779,1.133441 -3.407419,1.398185 -5.642578,0.951172 L 12,20.470703 11.705078,20.529297 C 9.4698864,20.976311 7.4792223,20.711555 6.0625,19.578125 4.6534003,18.450863 3.5,16.235322 3.5,12 3.5,9.8197537 3.7524497,8.3284937 4.1210937,7.3613281 4.4897378,6.3941626 4.933156,5.960178 5.4199219,5.7167969 5.9350095,5.4592531 6.6796046,5.3529005 7.734375,5.4746094 Z"
     id="path2" />
  <path
     style="color:#000000;fill:currentColor;stroke-linecap:round;stroke-linejoin:round;-inkscape-stroke:none"
     d="M 9,1.25 A 0.75,0.75 0 0 0 8.25,2 0.75,0.75 0 0 0 9,2.75 c 0.8749991,0 1.363563,0.19392 1.689453,0.5605469 C 11.015344,3.6771737 11.25,4.3500011 11.25,5.5 A 0.75,0.75 0 0 0 12,6.25 0.75,0.75 0 0 0 12.75,5.5 C 12.75,4.1500013 12.484655,3.0728252 11.810547,2.3144531 11.136438,1.5560811 10.124999,1.25 9,1.25 Z"
     id="path4" />
  <path
     style="color:#000000;fill:currentColor;-inkscape-stroke:none"
     d="m 11.25,6 v 15 h 1.5 V 6 Z"
     id="path6" />
  <path
     style="color:#000000;fill:currentColor;stroke-linecap:round;stroke-linejoin:round;-inkscape-stroke:none"
     d="M 15,11.25 A 0.75,0.75 0 0 0 14.25,12 v 2 A 0.75,0.75 0 0 0 15,14.75 0.75,0.75 0 0 0 15.75,14 V 12 A 0.75,0.75 0 0 0 15,11.25 Z"
     id="path8" />
</svg>
