<?xml version="1.0" encoding="UTF-8" standalone="no"?>
<svg
   width="24"
   height="24"
   stroke-width="1.5"
   viewBox="0 0 24 24"
   fill="none"
   version="1.1"
   id="svg6"
   sodipodi:docname="apple-mac.svg"
   inkscape:version="1.2.1 (9c6d41e410, 2022-07-14)"
   xmlns:inkscape="http://www.inkscape.org/namespaces/inkscape"
   xmlns:sodipodi="http://sodipodi.sourceforge.net/DTD/sodipodi-0.dtd"
   xmlns="http://www.w3.org/2000/svg"
   xmlns:svg="http://www.w3.org/2000/svg">
  <defs
     id="defs10" />
  <sodipodi:namedview
     id="namedview8"
     pagecolor="#ffffff"
     bordercolor="#666666"
     borderopacity="1.0"
     inkscape:showpageshadow="2"
     inkscape:pageopacity="0.0"
     inkscape:pagecheckerboard="0"
     inkscape:deskcolor="#d1d1d1"
     showgrid="false"
     inkscape:zoom="34.541667"
     inkscape:cx="10.364294"
     inkscape:cy="12.014475"
     inkscape:window-width="1920"
     inkscape:window-height="1009"
     inkscape:window-x="1912"
     inkscape:window-y="-8"
     inkscape:window-maximized="1"
     inkscape:current-layer="svg6" />
  <path
     style="color:#000000;fill:currentColor;-inkscape-stroke:none"
     d="m 16,1.25 c -1.679959,4.62e-5 -2.886959,0.8271206 -3.582031,1.8183594 -0.695073,0.9912387 -0.959403,2.1140163 -1.078125,2.9023437 -0.07182,0.4766438 0.149633,0.9729024 0.529297,1.2246094 0.379663,0.251707 0.91098,0.2640454 1.324218,0.023437 0.677531,-0.3944389 1.621434,-1.0216694 2.390625,-1.8984375 0.769192,-0.8767681 1.384653,-2.0729348 1.15625,-3.4433594 L 16.634766,1.25 Z m -0.830078,1.6894531 c -0.113001,0.4853926 -0.328218,0.9521536 -0.712891,1.390625 -0.395098,0.4503551 -0.876052,0.7364288 -1.339843,1.0566406 0.137098,-0.502484 0.218309,-1.0135342 0.529296,-1.4570312 0.345339,-0.4924851 0.859956,-0.8069335 1.523438,-0.9902344 z"
     id="path2" />
  <path
     style="color:#000000;fill:currentColor;-inkscape-stroke:none"
     d="m 9,5.75 c -2.4999975,0 -5.75,2.3750044 -5.75,6.75 0,2.649997 0.7879834,5.030059 1.9355469,6.785156 C 6.3331104,21.040253 7.8500016,22.25 9.5,22.25 c 0.866666,0 1.441407,-0.244922 1.816406,-0.419922 0.375,-0.175 0.550261,-0.279297 1.183594,-0.279297 0.633333,0 0.808619,0.104297 1.183594,0.279297 0.374974,0.175 0.94974,0.419922 1.816406,0.419922 1.149325,0 2.238245,-0.611833 3.175781,-1.548828 0.937536,-0.936995 1.74334,-2.227684 2.298828,-3.753906 l 0.25586,-0.703125 -0.705078,-0.257813 c -1.37221,-0.500191 -2.250354,-1.678237 -2.435547,-3.03125 -0.185194,-1.353012 0.305813,-2.875208 1.871093,-4.0976561 L 20.587891,8.3691406 20.0625,7.7714844 C 18.891166,6.4385747 17.356602,5.75 16,5.75 c -1.007884,0 -1.886596,0.2213763 -2.552734,0.4648437 -0.585432,0.2139614 -1.309111,0.2139574 -1.894532,0 C 10.886558,5.9714026 10.007943,5.75 9,5.75 Z m 0,1.5 c 0.7855756,0 1.495287,0.1770016 2.037109,0.375 0.938178,0.3428821 1.987614,0.3428781 2.925782,0 C 14.504551,7.4270278 15.214486,7.25 16,7.25 c 0.686371,0 1.638261,0.4321517 2.466797,1.1542969 -1.383038,1.4263621 -2.084367,3.1386701 -1.863281,4.7539061 0.217337,1.587851 1.262761,2.896478 2.691406,3.720703 C 18.824485,17.97828 18.262133,18.9941 17.615234,19.640625 16.864497,20.390929 16.092073,20.75 15.5,20.75 c -0.633333,0 -0.808619,-0.104297 -1.183594,-0.279297 -0.374974,-0.175 -0.94974,-0.419922 -1.816406,-0.419922 -0.866666,0 -1.441407,0.244922 -1.816406,0.419922 C 10.308594,20.645703 10.133333,20.75 9.5,20.75 8.6500009,20.75 7.4168875,19.959743 6.4394531,18.464844 5.4620188,16.969944 4.75,14.849998 4.75,12.5 4.75,8.8750036 7.5000015,7.25 9,7.25 Z"
     id="path4" />
</svg>
