<?xml version="1.0" encoding="UTF-8" standalone="no"?>
<svg
   width="24"
   height="24"
   viewBox="0 0 24 24"
   stroke-width="1.5"
   fill="none"
   version="1.1"
   id="svg10"
   sodipodi:docname="arc-3d-center-point.svg"
   inkscape:version="1.2.1 (9c6d41e410, 2022-07-14)"
   xmlns:inkscape="http://www.inkscape.org/namespaces/inkscape"
   xmlns:sodipodi="http://sodipodi.sourceforge.net/DTD/sodipodi-0.dtd"
   xmlns="http://www.w3.org/2000/svg"
   xmlns:svg="http://www.w3.org/2000/svg">
  <defs
     id="defs14" />
  <sodipodi:namedview
     id="namedview12"
     pagecolor="#ffffff"
     bordercolor="#666666"
     borderopacity="1.0"
     inkscape:showpageshadow="2"
     inkscape:pageopacity="0.0"
     inkscape:pagecheckerboard="0"
     inkscape:deskcolor="#d1d1d1"
     showgrid="false"
     inkscape:zoom="34.541667"
     inkscape:cx="10.364294"
     inkscape:cy="12.014475"
     inkscape:window-width="1920"
     inkscape:window-height="1009"
     inkscape:window-x="1912"
     inkscape:window-y="-8"
     inkscape:window-maximized="1"
     inkscape:current-layer="svg10" />
  <path
     style="color:#000000;fill:currentColor;stroke-linecap:round;stroke-linejoin:round;stroke-dasharray:3, 3;-inkscape-stroke:none"
     d="m 12.755859,5.2773437 a 0.75,0.75 0 0 0 -0.794921,0.7011719 0.75,0.75 0 0 0 0.701171,0.7949219 l 0.05078,0.00391 0.234375,0.021484 0.232422,0.025391 0.230468,0.033203 0.228516,0.037109 0.226562,0.042969 0.22461,0.048828 0.222656,0.054687 0.220703,0.060547 0.216797,0.064453 0.216797,0.070312 0.212891,0.074219 0.179687,0.068359 a 0.75,0.75 0 0 0 0.966797,-0.4335937 0.75,0.75 0 0 0 -0.433594,-0.96875 L 15.705078,5.90625 A 0.750075,0.750075 0 0 0 15.6875,5.8984375 L 15.457031,5.8183594 A 0.750075,0.750075 0 0 0 15.439453,5.8125 l -0.234375,-0.076172 a 0.750075,0.750075 0 0 0 -0.01758,-0.00586 l -0.236328,-0.070312 a 0.750075,0.750075 0 0 0 -0.01758,-0.00391 l -0.238281,-0.064453 a 0.750075,0.750075 0 0 0 -0.01758,-0.00586 l -0.242187,-0.058594 a 0.750075,0.750075 0 0 0 -0.01758,-0.00391 l -0.244141,-0.052734 a 0.750075,0.750075 0 0 0 -0.01758,-0.00391 l -0.244141,-0.046875 a 0.750075,0.750075 0 0 0 -0.01953,-0.00391 L 13.644531,5.375 a 0.750075,0.750075 0 0 0 -0.01758,-0.00195 l -0.25,-0.035156 a 0.750075,0.750075 0 0 0 -0.01758,-0.00195 l -0.251953,-0.029297 a 0.750075,0.750075 0 0 0 -0.01953,-0.00195 L 12.835938,5.28125 a 0.750075,0.750075 0 0 0 -0.01953,0 z M 9.5546875,5.5292969 9.4101563,5.5644531 a 0.750075,0.750075 0 0 0 -0.013672,0.00391 L 9.21875,5.6132812 a 0.750075,0.750075 0 0 0 -0.013672,0.00391 l -0.1757812,0.048828 a 0.750075,0.750075 0 0 0 -0.013672,0.00391 l -0.1757812,0.052734 a 0.750075,0.750075 0 0 0 -0.011719,0.00391 L 8.6542969,5.78125 a 0.750075,0.750075 0 0 0 -0.013672,0.00391 L 8.4667969,5.84375 a 0.750075,0.750075 0 0 0 -0.011719,0.00391 l -0.171875,0.0625 a 0.750075,0.750075 0 0 0 -0.011719,0.00391 l -0.1699219,0.064453 a 0.750075,0.750075 0 0 0 -0.013672,0.00586 l -0.1679687,0.066406 a 0.750075,0.750075 0 0 0 -0.011719,0.00586 l -0.1679687,0.070312 a 0.750075,0.750075 0 0 0 -0.011719,0.00586 L 7.5625,6.2050781 a 0.750075,0.750075 0 0 0 -0.011719,0.00586 L 7.3867187,6.2871094 A 0.750075,0.750075 0 0 0 7.375,6.2929687 l -0.1621094,0.078125 a 0.750075,0.750075 0 0 0 -0.011719,0.00781 l -0.1601563,0.080078 a 0.750075,0.750075 0 0 0 -0.011719,0.00781 l -0.1582032,0.083984 a 0.750075,0.750075 0 0 0 -0.011719,0.00586 l -0.1582031,0.087891 a 0.750075,0.750075 0 0 0 -0.011719,0.00586 L 6.5761719,6.7167969 A 0.75,0.75 0 0 0 6.3046875,7.7421875 0.75,0.75 0 0 0 7.3300781,8.0136719 L 7.4375,7.9511719 7.5820312,7.8710937 7.7285156,7.7929687 7.8769531,7.7167969 8.0273438,7.6445312 8.1777344,7.5742187 8.3300781,7.5058594 8.484375,7.4414062 8.640625,7.3789062 8.796875,7.3203125 8.9550781,7.2636719 9.1152344,7.2089844 9.2753906,7.1582031 9.4375,7.109375 9.5996094,7.0644531 9.765625,7.0214844 9.9023438,6.9882812 A 0.75,0.75 0 0 0 10.458984,6.0859375 0.75,0.75 0 0 0 9.5546875,5.5292969 Z M 18.136719,7.421875 a 0.75,0.75 0 0 0 -0.503907,0.2753906 0.75,0.75 0 0 0 0.113282,1.0546875 l 0.136718,0.109375 0.169922,0.1445313 0.166016,0.1464844 0.162109,0.1523437 0.160157,0.1542969 0.154296,0.1601562 0.152344,0.1621094 0.146485,0.1660156 0.144531,0.1699224 0.138672,0.171875 0.134765,0.177734 0.13086,0.179687 0.09375,0.134766 a 0.75,0.75 0 0 0 1.044922,0.189453 0.75,0.75 0 0 0 0.189453,-1.0429686 l -0.09961,-0.1445313 a 0.750075,0.750075 0 0 0 -0.0098,-0.013672 L 20.619141,9.5742188 a 0.750075,0.750075 0 0 0 -0.0098,-0.013672 L 20.462891,9.3691406 a 0.750075,0.750075 0 0 0 -0.01172,-0.013672 l -0.150391,-0.1875 a 0.750075,0.750075 0 0 0 -0.01172,-0.013672 L 20.134766,8.9707031 a 0.750075,0.750075 0 0 0 -0.01172,-0.013672 L 19.962891,8.7792969 A 0.750075,0.750075 0 0 0 19.951172,8.765625 L 19.787109,8.5898438 a 0.750075,0.750075 0 0 0 -0.01172,-0.013672 l -0.167969,-0.171875 a 0.750075,0.750075 0 0 0 -0.01172,-0.011719 L 19.423828,8.2246094 a 0.750075,0.750075 0 0 0 -0.01367,-0.011719 L 19.234375,8.0488281 a 0.750075,0.750075 0 0 0 -0.01367,-0.011719 L 19.041016,7.8769531 a 0.750075,0.750075 0 0 0 -0.01172,-0.011719 L 18.845703,7.7109375 a 0.750075,0.750075 0 0 0 -0.01367,-0.011719 L 18.6875,7.5839844 A 0.75,0.75 0 0 0 18.136719,7.421875 Z M 4.5957031,8.4941406 A 0.75,0.75 0 0 0 4.0761719,8.7363281 l -0.056641,0.060547 a 0.750075,0.750075 0 0 0 -0.00781,0.00977 L 3.8925781,8.9394531 a 0.750075,0.750075 0 0 0 -0.00781,0.00977 L 3.7695313,9.0859375 a 0.750075,0.750075 0 0 0 -0.00977,0.00977 L 3.6464844,9.2324219 a 0.750075,0.750075 0 0 0 -0.00781,0.011719 L 3.5273438,9.3828125 a 0.750075,0.750075 0 0 0 -0.00781,0.00977 l -0.109375,0.1425782 a 0.750075,0.750075 0 0 0 -0.00781,0.00977 L 3.296875,9.6894531 a 0.750075,0.750075 0 0 0 -0.00781,0.00977 L 3.1855469,9.8457031 a 0.750075,0.750075 0 0 0 -0.00781,0.00977 L 3.0761719,10.003906 a 0.750075,0.750075 0 0 0 -0.00781,0.01172 l -0.097656,0.148438 a 0.750075,0.750075 0 0 0 -0.00781,0.01172 l -0.095703,0.150391 a 0.750075,0.750075 0 0 0 -0.00781,0.01172 l -0.091797,0.152343 a 0.750075,0.750075 0 0 0 -0.00781,0.01172 l -0.089844,0.154297 a 0.750075,0.750075 0 0 0 -0.00781,0.01172 l -0.085937,0.158203 a 0.750075,0.750075 0 0 0 -0.00781,0.01172 l -0.083984,0.158203 a 0.750075,0.750075 0 0 0 -0.00781,0.01172 l -0.082031,0.160156 a 0.750075,0.750075 0 0 0 -0.00586,0.01172 l -0.080078,0.162109 a 0.750075,0.750075 0 0 0 -0.00586,0.01172 l -0.023437,0.05078 a 0.75,0.75 0 0 0 0.3613281,0.998047 0.75,0.75 0 0 0 0.9960938,-0.361328 l 0.021484,-0.04492 0.074219,-0.148438 0.076172,-0.148437 0.078125,-0.146485 0.082031,-0.144531 0.082031,-0.142578 0.087891,-0.140625 0.087891,-0.140625 0.091797,-0.138672 0.091797,-0.136719 0.097656,-0.134765 0.097656,-0.132813 0.099609,-0.130859 L 4.8085937,10.181641 4.9140625,10.054688 5.0195312,9.9296875 5.1289062,9.8066406 5.1796875,9.75 A 0.75,0.75 0 0 0 5.1347656,8.6914063 0.75,0.75 0 0 0 4.5957031,8.4941406 Z M 21.341797,12.326172 a 0.75,0.75 0 0 0 -0.50586,0.931641 l 0.0625,0.208984 0.06055,0.220703 0.05469,0.222656 0.04883,0.22461 0.04297,0.226562 0.03711,0.228516 0.0332,0.230469 0.02539,0.232421 0.02148,0.234375 0.01563,0.236329 0.0078,0.238281 0.0039,0.248047 A 0.75,0.75 0 0 0 22.009766,16.75 0.75,0.75 0 0 0 22.75,15.990234 l -0.0039,-0.257812 a 0.750075,0.750075 0 0 0 0,-0.01953 l -0.0098,-0.25586 a 0.750075,0.750075 0 0 0 0,-0.01953 l -0.01758,-0.253906 a 0.750075,0.750075 0 0 0 0,-0.01953 l -0.02344,-0.251954 a 0.750075,0.750075 0 0 0 -0.002,-0.01953 l -0.0293,-0.251953 a 0.750075,0.750075 0 0 0 -0.002,-0.01758 l -0.03516,-0.25 a 0.750075,0.750075 0 0 0 -0.002,-0.01758 l -0.04102,-0.248047 a 0.750075,0.750075 0 0 0 -0.0039,-0.01953 l -0.04687,-0.244141 a 0.750075,0.750075 0 0 0 -0.0039,-0.01953 l -0.05273,-0.242188 a 0.750075,0.750075 0 0 0 -0.0039,-0.01758 l -0.05859,-0.242187 a 0.750075,0.750075 0 0 0 -0.0059,-0.01758 l -0.06445,-0.238282 a 0.750075,0.750075 0 0 0 -0.0039,-0.01758 l -0.06445,-0.21875 a 0.75,0.75 0 0 0 -0.933594,-0.503906 z"
     id="path2" />
  <g
     id="path4">
    <path
       style="color:#000000;fill:currentColor;stroke-width:1.5;stroke-linecap:round;stroke-linejoin:round;-inkscape-stroke:none"
       d="m 2,17 c 0.55228,0 1,-0.4477 1,-1 0,-0.5523 -0.44772,-1 -1,-1 -0.55228,0 -1,0.4477 -1,1 0,0.5523 0.44772,1 1,1 z"
       id="path201" />
    <path
       style="color:#000000;fill:currentColor;stroke-linecap:round;stroke-linejoin:round;-inkscape-stroke:none"
       d="m 2,14.25 c -0.9575988,0 -1.75,0.792378 -1.75,1.75 0,0.957622 0.7924012,1.75 1.75,1.75 0.9575988,0 1.75,-0.792378 1.75,-1.75 0,-0.957622 -0.7924012,-1.75 -1.75,-1.75 z m 0,1.5 c 0.1469601,0 0.25,0.103023 0.25,0.25 0,0.146977 -0.1030399,0.25 -0.25,0.25 -0.1469601,0 -0.25,-0.103023 -0.25,-0.25 0,-0.146977 0.1030399,-0.25 0.25,-0.25 z"
       id="path203" />
  </g>
  <path
     style="color:#000000;fill:currentColor;stroke-linecap:round;stroke-linejoin:round;-inkscape-stroke:none"
     d="M 2,15.25 A 0.75,0.75 0 0 0 1.25,16 0.75,0.75 0 0 0 2,16.75 H 12 A 0.75,0.75 0 0 0 12.75,16 0.75,0.75 0 0 0 12,15.25 Z"
     id="path6" />
  <g
     id="path8">
    <path
       style="color:#000000;fill:currentColor;stroke-width:1.5;stroke-linecap:round;stroke-linejoin:round;-inkscape-stroke:none"
       d="m 12,17 c 0.5523,0 1,-0.4477 1,-1 0,-0.5523 -0.4477,-1 -1,-1 -0.5523,0 -1,0.4477 -1,1 0,0.5523 0.4477,1 1,1 z"
       id="path191" />
    <path
       style="color:#000000;fill:currentColor;stroke-linecap:round;stroke-linejoin:round;-inkscape-stroke:none"
       d="m 12,14.25 c -0.957604,0 -1.75,0.792396 -1.75,1.75 0,0.957604 0.792396,1.75 1.75,1.75 0.957604,0 1.75,-0.792396 1.75,-1.75 0,-0.957604 -0.792396,-1.75 -1.75,-1.75 z m 0,1.5 c 0.146995,0 0.25,0.103005 0.25,0.25 0,0.146995 -0.103005,0.25 -0.25,0.25 -0.146995,0 -0.25,-0.103005 -0.25,-0.25 0,-0.146995 0.103005,-0.25 0.25,-0.25 z"
       id="path193" />
  </g>
</svg>
