<?xml version="1.0" encoding="UTF-8" standalone="no"?>
<svg
   width="24"
   height="24"
   viewBox="0 0 24 24"
   stroke-width="1.5"
   fill="none"
   version="1.1"
   id="svg6"
   sodipodi:docname="archery.svg"
   inkscape:version="1.2.1 (9c6d41e410, 2022-07-14)"
   xmlns:inkscape="http://www.inkscape.org/namespaces/inkscape"
   xmlns:sodipodi="http://sodipodi.sourceforge.net/DTD/sodipodi-0.dtd"
   xmlns="http://www.w3.org/2000/svg"
   xmlns:svg="http://www.w3.org/2000/svg">
  <defs
     id="defs10" />
  <sodipodi:namedview
     id="namedview8"
     pagecolor="#ffffff"
     bordercolor="#666666"
     borderopacity="1.0"
     inkscape:showpageshadow="2"
     inkscape:pageopacity="0.0"
     inkscape:pagecheckerboard="0"
     inkscape:deskcolor="#d1d1d1"
     showgrid="false"
     inkscape:zoom="34.541667"
     inkscape:cx="10.364294"
     inkscape:cy="12.014475"
     inkscape:window-width="1920"
     inkscape:window-height="1009"
     inkscape:window-x="1912"
     inkscape:window-y="-8"
     inkscape:window-maximized="1"
     inkscape:current-layer="svg6" />
  <path
     style="color:#000000;fill:currentColor;stroke-linecap:round;stroke-linejoin:round;-inkscape-stroke:none"
     d="M 2,9.25 A 0.750075,0.750075 0 0 0 1.46875,10.53125 L 2.9375,12 1.46875,13.46875 A 0.750075,0.750075 0 0 0 2,14.75 H 6 A 0.750075,0.750075 0 0 0 6.53125,14.53125 L 8.3125,12.75 h 6.875 l -0.71875,0.71875 a 0.75,0.75 0 0 0 0,1.0625 0.75,0.75 0 0 0 1.0625,0 l 2,-2 a 0.75,0.75 0 0 0 0.193359,-0.337891 0.75,0.75 0 0 0 0,-0.130859 A 0.75,0.75 0 0 0 17.75,12 0.75,0.75 0 0 0 17.724609,11.871094 0.75,0.75 0 0 0 17.705078,11.773438 0.75,0.75 0 0 0 17.53125,11.46875 l -2,-2 a 0.75,0.75 0 0 0 -1.0625,0 0.75,0.75 0 0 0 0,1.0625 L 15.1875,11.25 H 8.3125 L 6.53125,9.46875 A 0.750075,0.750075 0 0 0 6,9.25 Z m 1.8125,1.5 H 5.6894531 L 6.9375,12 5.6894531,13.25 H 3.8125 l 0.71875,-0.71875 a 0.750075,0.750075 0 0 0 0,-1.0625 z"
     id="path2" />
  <path
     style="color:#000000;fill:currentColor;stroke-linecap:round;stroke-linejoin:round;-inkscape-stroke:none"
     d="m 16,0.75 c -1.806298,0 -3.244401,1.4681322 -4.212891,3.5019531 C 10.81862,6.285774 10.25,9.0039998 10.25,12 c 0,2.996005 0.56862,5.714227 1.537109,7.748047 C 12.755599,21.781867 14.193702,23.25 16,23.25 c 1.806298,0 3.244401,-1.468133 4.212891,-3.501953 C 21.18138,17.714227 21.75,14.996005 21.75,12 21.75,9.0039998 21.18138,6.285774 20.212891,4.2519531 19.244401,2.2181322 17.806298,0.75 16,0.75 Z m 0,1.5 c 0.955099,0 2.016263,0.8820097 2.857422,2.6484375 C 19.698581,6.6648653 20.25,9.197016 20.25,12 c 0,2.802989 -0.551419,5.335136 -1.392578,7.101562 C 18.016263,20.867989 16.9551,21.75 16,21.75 15.0449,21.75 13.983737,20.867989 13.142578,19.101562 12.301419,17.335136 11.75,14.802989 11.75,12 11.75,9.197016 12.301419,6.6648653 13.142578,4.8984375 13.983737,3.1320097 15.044901,2.25 16,2.25 Z"
     id="path4" />
</svg>
