<?xml version="1.0" encoding="UTF-8" standalone="no"?>
<svg
   width="24"
   height="24"
   viewBox="0 0 24 24"
   stroke-width="1.5"
   fill="none"
   version="1.1"
   id="svg6"
   sodipodi:docname="archery-match.svg"
   inkscape:version="1.2.1 (9c6d41e410, 2022-07-14)"
   xmlns:inkscape="http://www.inkscape.org/namespaces/inkscape"
   xmlns:sodipodi="http://sodipodi.sourceforge.net/DTD/sodipodi-0.dtd"
   xmlns="http://www.w3.org/2000/svg"
   xmlns:svg="http://www.w3.org/2000/svg">
  <defs
     id="defs10" />
  <sodipodi:namedview
     id="namedview8"
     pagecolor="#ffffff"
     bordercolor="#666666"
     borderopacity="1.0"
     inkscape:showpageshadow="2"
     inkscape:pageopacity="0.0"
     inkscape:pagecheckerboard="0"
     inkscape:deskcolor="#d1d1d1"
     showgrid="false"
     inkscape:zoom="34.541667"
     inkscape:cx="10.364294"
     inkscape:cy="12.014475"
     inkscape:window-width="1920"
     inkscape:window-height="1009"
     inkscape:window-x="1912"
     inkscape:window-y="-8"
     inkscape:window-maximized="1"
     inkscape:current-layer="svg6" />
  <path
     style="color:#000000;fill:currentColor;stroke-linecap:round;stroke-linejoin:round;-inkscape-stroke:none"
     d="m 17.802734,3.1191406 a 0.75,0.75 0 0 0 -0.75,0.75 0.75,0.75 0 0 0 0.75,0.75 h 1.017578 L 8.3007813,15.138672 H 5.7832031 a 0.750075,0.750075 0 0 0 -0.53125,0.220703 L 2.4238281,18.1875 a 0.750075,0.750075 0 0 0 0.5292969,1.279297 h 2.0800781 v 2.080078 A 0.750075,0.750075 0 0 0 6.3125,22.076172 l 2.828125,-2.828125 a 0.750075,0.750075 0 0 0 0.2207031,-0.53125 V 16.199219 L 19.880859,5.6796875 v 1.0175781 a 0.75,0.75 0 0 0 0.75,0.75 0.75,0.75 0 0 0 0.75,-0.75 v -2.828125 a 0.75,0.75 0 0 0 -0.21875,-0.53125 0.75,0.75 0 0 0 -0.24414,-0.1621093 0.75,0.75 0 0 0 -0.28711,-0.056641 z M 6.09375,16.638672 h 1.7675781 v 1.767578 l -1.328125,1.328125 v -1.017578 a 0.750075,0.750075 0 0 0 -0.75,-0.75 H 4.765625 Z"
     id="path2" />
  <path
     style="color:#000000;fill:currentColor;stroke-linecap:round;stroke-linejoin:round;-inkscape-stroke:none"
     d="m 3.3691406,3.1191406 a 0.75,0.75 0 0 0 -0.53125,0.21875 0.75,0.75 0 0 0 -0.21875,0.53125 v 2.828125 a 0.75,0.75 0 0 0 0.75,0.75 0.75,0.75 0 0 0 0.75,-0.75 V 5.6796875 L 14.638672,16.199219 v 2.517578 a 0.750075,0.750075 0 0 0 0.220703,0.53125 l 2.828125,2.828125 a 0.750075,0.750075 0 0 0 1.279297,-0.529297 v -2.080078 h 2.080078 A 0.750075,0.750075 0 0 0 21.576172,18.1875 l -2.828125,-2.828125 a 0.750075,0.750075 0 0 0 -0.53125,-0.220703 H 15.699219 L 5.1796875,4.6191406 h 1.0175781 a 0.75,0.75 0 0 0 0.75,-0.75 0.75,0.75 0 0 0 -0.75,-0.75 z M 16.138672,16.638672 h 1.767578 l 1.328125,1.328125 h -1.017578 a 0.750075,0.750075 0 0 0 -0.75,0.75 v 1.017578 L 16.138672,18.40625 Z"
     id="path4" />
</svg>
