<?xml version="1.0" encoding="UTF-8" standalone="no"?>
<svg
   width="24"
   height="24"
   stroke-width="1.5"
   viewBox="0 0 24 24"
   fill="none"
   version="1.1"
   id="svg10"
   sodipodi:docname="archive.svg"
   inkscape:version="1.2.1 (9c6d41e410, 2022-07-14)"
   xmlns:inkscape="http://www.inkscape.org/namespaces/inkscape"
   xmlns:sodipodi="http://sodipodi.sourceforge.net/DTD/sodipodi-0.dtd"
   xmlns="http://www.w3.org/2000/svg"
   xmlns:svg="http://www.w3.org/2000/svg">
  <defs
     id="defs14" />
  <sodipodi:namedview
     id="namedview12"
     pagecolor="#ffffff"
     bordercolor="#666666"
     borderopacity="1.0"
     inkscape:showpageshadow="2"
     inkscape:pageopacity="0.0"
     inkscape:pagecheckerboard="0"
     inkscape:deskcolor="#d1d1d1"
     showgrid="false"
     inkscape:zoom="34.541667"
     inkscape:cx="10.364294"
     inkscape:cy="12.014475"
     inkscape:window-width="1920"
     inkscape:window-height="1009"
     inkscape:window-x="1912"
     inkscape:window-y="-8"
     inkscape:window-maximized="1"
     inkscape:current-layer="svg10" />
  <path
     style="color:#000000;fill:currentColor;stroke-linecap:round;stroke-linejoin:round;-inkscape-stroke:none"
     d="M 7,5.25 A 0.75,0.75 0 0 0 6.25,6 0.75,0.75 0 0 0 7,6.75 H 17 A 0.75,0.75 0 0 0 17.75,6 0.75,0.75 0 0 0 17,5.25 Z"
     id="path2" />
  <path
     style="color:#000000;fill:currentColor;stroke-linecap:round;stroke-linejoin:round;-inkscape-stroke:none"
     d="M 7,8.25 A 0.75,0.75 0 0 0 6.25,9 0.75,0.75 0 0 0 7,9.75 H 17 A 0.75,0.75 0 0 0 17.75,9 0.75,0.75 0 0 0 17,8.25 Z"
     id="path4" />
  <path
     style="color:#000000;fill:currentColor;stroke-linecap:round;stroke-linejoin:round;-inkscape-stroke:none"
     d="M 9,16.25 A 0.75,0.75 0 0 0 8.25,17 0.75,0.75 0 0 0 9,17.75 h 6 A 0.75,0.75 0 0 0 15.75,17 0.75,0.75 0 0 0 15,16.25 Z"
     id="path6" />
  <path
     style="color:#000000;fill:currentColor;-inkscape-stroke:none"
     d="M 3.5996094,1.25 C 2.8629077,1.25 2.25,1.8629077 2.25,2.5996094 v 8.7968746 c -0.5507641,0.170495 -1,0.601824 -1,1.203125 v 8.800782 C 1.25,22.137086 1.862953,22.75 2.5996094,22.75 H 21.400391 C 22.13704,22.75 22.75,22.13704 22.75,21.400391 v -8.800782 c 0,-0.601264 -0.449238,-1.03262 -1,-1.203125 V 2.5996094 C 21.75,1.862953 21.137086,1.25 20.400391,1.25 Z M 3.75,2.75 h 16.5 v 8.5 H 3.75 Z m -1,10 H 3 21 21.25 v 8.5 H 2.75 Z"
     id="path8" />
</svg>
