<?xml version="1.0" encoding="UTF-8" standalone="no"?>
<svg
   width="24"
   height="24"
   stroke-width="1.5"
   viewBox="0 0 24 24"
   fill="none"
   version="1.1"
   id="svg18"
   sodipodi:docname="area-search.svg"
   inkscape:version="1.2.1 (9c6d41e410, 2022-07-14)"
   xmlns:inkscape="http://www.inkscape.org/namespaces/inkscape"
   xmlns:sodipodi="http://sodipodi.sourceforge.net/DTD/sodipodi-0.dtd"
   xmlns="http://www.w3.org/2000/svg"
   xmlns:svg="http://www.w3.org/2000/svg">
  <defs
     id="defs22" />
  <sodipodi:namedview
     id="namedview20"
     pagecolor="#ffffff"
     bordercolor="#666666"
     borderopacity="1.0"
     inkscape:showpageshadow="2"
     inkscape:pageopacity="0.0"
     inkscape:pagecheckerboard="0"
     inkscape:deskcolor="#d1d1d1"
     showgrid="false"
     inkscape:zoom="34.541667"
     inkscape:cx="10.364294"
     inkscape:cy="12.014475"
     inkscape:window-width="1920"
     inkscape:window-height="1009"
     inkscape:window-x="1912"
     inkscape:window-y="-8"
     inkscape:window-maximized="1"
     inkscape:current-layer="svg18" />
  <path
     style="color:#000000;fill:currentColor;stroke-linecap:round;stroke-linejoin:round;-inkscape-stroke:none"
     d="m 18,14.25 c -2.062203,0 -3.75,1.687797 -3.75,3.75 0,2.062203 1.687797,3.75 3.75,3.75 0.758277,0 1.427108,-0.283945 2.019531,-0.673828 l 1.449219,1.453125 a 0.75,0.75 0 0 0 1.060547,0.002 0.75,0.75 0 0 0 0.002,-1.060547 L 21.078125,20.015625 C 21.466467,19.423951 21.75,18.756551 21.75,18 21.75,15.937797 20.062203,14.25 18,14.25 Z m 0,1.5 c 1.251594,0 2.25,0.998406 2.25,2.25 0,0.624702 -0.249414,1.180002 -0.65625,1.587891 C 19.185546,19.997147 18.626863,20.25 18,20.25 c -1.251594,0 -2.25,-0.998406 -2.25,-2.25 0,-1.251594 0.998406,-2.25 2.25,-2.25 z"
     id="path2" />
  <path
     style="color:#000000;fill:currentColor;stroke-linecap:round;stroke-linejoin:round;-inkscape-stroke:none"
     d="M 4,1.25 A 0.750075,0.750075 0 0 0 3.25,2 V 5 A 0.75,0.75 0 0 0 4,5.75 0.75,0.75 0 0 0 4.75,5 V 2.75 H 7 A 0.75,0.75 0 0 0 7.75,2 0.75,0.75 0 0 0 7,1.25 Z"
     id="path4" />
  <path
     style="color:#000000;fill:currentColor;stroke-linecap:round;stroke-linejoin:round;-inkscape-stroke:none"
     d="M 4,10.25 A 0.75,0.75 0 0 0 3.25,11 v 2 A 0.75,0.75 0 0 0 4,13.75 0.75,0.75 0 0 0 4.75,13 V 11 A 0.75,0.75 0 0 0 4,10.25 Z"
     id="path6" />
  <path
     style="color:#000000;fill:currentColor;stroke-linecap:round;stroke-linejoin:round;-inkscape-stroke:none"
     d="M 11,1.25 A 0.75,0.75 0 0 0 10.25,2 0.75,0.75 0 0 0 11,2.75 h 2 A 0.75,0.75 0 0 0 13.75,2 0.75,0.75 0 0 0 13,1.25 Z"
     id="path8" />
  <path
     style="color:#000000;fill:currentColor;stroke-linecap:round;stroke-linejoin:round;-inkscape-stroke:none"
     d="M 11,21.25 A 0.75,0.75 0 0 0 10.25,22 0.75,0.75 0 0 0 11,22.75 h 2 A 0.75,0.75 0 0 0 13.75,22 0.75,0.75 0 0 0 13,21.25 Z"
     id="path10" />
  <path
     style="color:#000000;fill:currentColor;stroke-linecap:round;stroke-linejoin:round;-inkscape-stroke:none"
     d="M 20,10.25 A 0.75,0.75 0 0 0 19.25,11 v 2 A 0.75,0.75 0 0 0 20,13.75 0.75,0.75 0 0 0 20.75,13 V 11 A 0.75,0.75 0 0 0 20,10.25 Z"
     id="path12" />
  <path
     style="color:#000000;fill:currentColor;stroke-linecap:round;stroke-linejoin:round;-inkscape-stroke:none"
     d="M 17,1.25 A 0.75,0.75 0 0 0 16.25,2 0.75,0.75 0 0 0 17,2.75 h 2.25 V 5 A 0.75,0.75 0 0 0 20,5.75 0.75,0.75 0 0 0 20.75,5 V 2 A 0.750075,0.750075 0 0 0 20,1.25 Z"
     id="path14" />
  <path
     style="color:#000000;fill:currentColor;stroke-linecap:round;stroke-linejoin:round;-inkscape-stroke:none"
     d="M 4,18.25 A 0.75,0.75 0 0 0 3.25,19 v 3 A 0.750075,0.750075 0 0 0 4,22.75 H 7 A 0.75,0.75 0 0 0 7.75,22 0.75,0.75 0 0 0 7,21.25 H 4.75 V 19 A 0.75,0.75 0 0 0 4,18.25 Z"
     id="path16" />
</svg>
