<?xml version="1.0" encoding="UTF-8" standalone="no"?>
<svg
   width="24"
   height="24"
   viewBox="0 0 24 24"
   stroke-width="1.5"
   fill="none"
   version="1.1"
   id="svg4"
   sodipodi:docname="arrow-right.svg"
   inkscape:version="1.2.1 (9c6d41e410, 2022-07-14)"
   xmlns:inkscape="http://www.inkscape.org/namespaces/inkscape"
   xmlns:sodipodi="http://sodipodi.sourceforge.net/DTD/sodipodi-0.dtd"
   xmlns="http://www.w3.org/2000/svg"
   xmlns:svg="http://www.w3.org/2000/svg">
  <defs
     id="defs8" />
  <sodipodi:namedview
     id="namedview6"
     pagecolor="#ffffff"
     bordercolor="#666666"
     borderopacity="1.0"
     inkscape:showpageshadow="2"
     inkscape:pageopacity="0.0"
     inkscape:pagecheckerboard="0"
     inkscape:deskcolor="#d1d1d1"
     showgrid="false"
     inkscape:zoom="34.541667"
     inkscape:cx="10.364294"
     inkscape:cy="12.014475"
     inkscape:window-width="1920"
     inkscape:window-height="1009"
     inkscape:window-x="1912"
     inkscape:window-y="-8"
     inkscape:window-maximized="1"
     inkscape:current-layer="svg4" />
  <path
     style="color:#000000;fill:currentColor;stroke-linecap:round;stroke-linejoin:round;-inkscape-stroke:none"
     d="m 12.5,2.75 a 0.75,0.75 0 0 0 -0.53125,0.21875 0.75,0.75 0 0 0 0,1.0625 L 19.1875,11.25 H 3 A 0.75,0.75 0 0 0 2.25,12 0.75,0.75 0 0 0 3,12.75 h 16.1875 l -7.21875,7.21875 a 0.75,0.75 0 0 0 0,1.0625 0.75,0.75 0 0 0 1.0625,0 l 8.5,-8.5 a 0.75,0.75 0 0 0 0.193359,-0.337891 0.75,0.75 0 0 0 0,-0.130859 A 0.75,0.75 0 0 0 21.75,12 a 0.75,0.75 0 0 0 -0.02539,-0.128906 0.75,0.75 0 0 0 0,-0.06445 0.75,0.75 0 0 0 -0.01953,-0.0332 0.75,0.75 0 0 0 -0.173828,-0.304688 l -8.5,-8.5 A 0.75,0.75 0 0 0 12.5,2.75 Z"
     id="path2" />
</svg>
