<?xml version="1.0" encoding="UTF-8" standalone="no"?>
<svg
   width="24"
   height="24"
   stroke-width="1.5"
   viewBox="0 0 24 24"
   fill="none"
   version="1.1"
   id="svg8"
   sodipodi:docname="arrow-enlarge-tag.svg"
   inkscape:version="1.2.1 (9c6d41e410, 2022-07-14)"
   xmlns:inkscape="http://www.inkscape.org/namespaces/inkscape"
   xmlns:sodipodi="http://sodipodi.sourceforge.net/DTD/sodipodi-0.dtd"
   xmlns="http://www.w3.org/2000/svg"
   xmlns:svg="http://www.w3.org/2000/svg">
  <defs
     id="defs12" />
  <sodipodi:namedview
     id="namedview10"
     pagecolor="#ffffff"
     bordercolor="#666666"
     borderopacity="1.0"
     inkscape:showpageshadow="2"
     inkscape:pageopacity="0.0"
     inkscape:pagecheckerboard="0"
     inkscape:deskcolor="#d1d1d1"
     showgrid="false"
     inkscape:zoom="34.541667"
     inkscape:cx="10.364294"
     inkscape:cy="12.014475"
     inkscape:window-width="1920"
     inkscape:window-height="1009"
     inkscape:window-x="1912"
     inkscape:window-y="-8"
     inkscape:window-maximized="1"
     inkscape:current-layer="svg8" />
  <path
     style="color:#000000;fill:currentColor;stroke-linecap:round;stroke-linejoin:round;-inkscape-stroke:none"
     d="M 8.5,8.75 A 0.75,0.75 0 0 0 7.96875,8.96875 l -2.5,2.5 a 0.750075,0.750075 0 0 0 0,1.0625 l 2.5,2.5 a 0.75,0.75 0 0 0 1.0625,0 0.75,0.75 0 0 0 0,-1.0625 L 7.0625,12 9.03125,10.03125 a 0.75,0.75 0 0 0 0,-1.0625 A 0.75,0.75 0 0 0 8.5,8.75 Z"
     id="path2" />
  <path
     style="color:#000000;fill:currentColor;stroke-linecap:round;stroke-linejoin:round;-inkscape-stroke:none"
     d="m 15.5,8.75 a 0.75,0.75 0 0 0 -0.53125,0.21875 0.75,0.75 0 0 0 0,1.0625 L 16.9375,12 14.96875,13.96875 a 0.75,0.75 0 0 0 0,1.0625 0.75,0.75 0 0 0 1.0625,0 l 2.5,-2.5 a 0.750075,0.750075 0 0 0 0,-1.0625 l -2.5,-2.5 A 0.75,0.75 0 0 0 15.5,8.75 Z"
     id="path4" />
  <path
     style="color:#000000;fill:currentColor;-inkscape-stroke:none"
     d="M 6,4.25 C 3.3855329,4.25 1.25,6.3855329 1.25,9 v 6 c 0,2.614434 2.1355239,4.75 4.75,4.75 h 12 c 2.614443,0 4.75,-2.135557 4.75,-4.75 V 9 C 22.75,6.3855239 20.614434,4.25 18,4.25 Z m 0,1.5 h 12 c 1.803761,0 3.25,1.4462005 3.25,3.25 v 6 c 0,1.803752 -1.446248,3.25 -3.25,3.25 H 6 C 4.1962005,18.25 2.75,16.803761 2.75,15 V 9 C 2.75,7.1961915 4.1961915,5.75 6,5.75 Z"
     id="path6" />
</svg>
