<?xml version="1.0" encoding="UTF-8" standalone="no"?>
<svg
   width="24"
   height="24"
   stroke-width="1.5"
   viewBox="0 0 24 24"
   fill="none"
   version="1.1"
   id="svg8"
   sodipodi:docname="asana.svg"
   inkscape:version="1.2.1 (9c6d41e410, 2022-07-14)"
   xmlns:inkscape="http://www.inkscape.org/namespaces/inkscape"
   xmlns:sodipodi="http://sodipodi.sourceforge.net/DTD/sodipodi-0.dtd"
   xmlns="http://www.w3.org/2000/svg"
   xmlns:svg="http://www.w3.org/2000/svg">
  <defs
     id="defs12" />
  <sodipodi:namedview
     id="namedview10"
     pagecolor="#ffffff"
     bordercolor="#666666"
     borderopacity="1.0"
     inkscape:showpageshadow="2"
     inkscape:pageopacity="0.0"
     inkscape:pagecheckerboard="0"
     inkscape:deskcolor="#d1d1d1"
     showgrid="false"
     inkscape:zoom="34.541667"
     inkscape:cx="10.364294"
     inkscape:cy="12.014475"
     inkscape:window-width="1920"
     inkscape:window-height="1009"
     inkscape:window-x="1912"
     inkscape:window-y="-8"
     inkscape:window-maximized="1"
     inkscape:current-layer="svg8" />
  <path
     style="color:#000000;fill:currentColor;stroke-linecap:round;stroke-linejoin:round;-inkscape-stroke:none"
     d="m 12,2.75 c -2.6144671,0 -4.75,2.1355329 -4.75,4.75 0,2.614467 2.1355329,4.75 4.75,4.75 2.614434,0 4.75,-2.135524 4.75,-4.75 0,-2.6144761 -2.135566,-4.75 -4.75,-4.75 z m 0,1.5 c 1.803761,0 3.25,1.4462005 3.25,3.25 0,1.8037995 -1.446239,3.25 -3.25,3.25 -1.803809,0 -3.25,-1.4461915 -3.25,-3.25 0,-1.8038085 1.446191,-3.25 3.25,-3.25 z"
     id="path2" />
  <path
     style="color:#000000;fill:currentColor;stroke-linecap:round;stroke-linejoin:round;-inkscape-stroke:none"
     d="m 7,11.75 c -2.6144761,0 -4.75,2.135566 -4.75,4.75 0,2.614434 2.1355239,4.75 4.75,4.75 2.6144761,0 4.75,-2.135566 4.75,-4.75 0,-2.614434 -2.1355239,-4.75 -4.75,-4.75 z m 0,1.5 c 1.8037995,0 3.25,1.446239 3.25,3.25 0,1.803761 -1.4462005,3.25 -3.25,3.25 -1.8037995,0 -3.25,-1.446239 -3.25,-3.25 0,-1.803761 1.4462005,-3.25 3.25,-3.25 z"
     id="path4" />
  <path
     style="color:#000000;fill:currentColor;stroke-linecap:round;stroke-linejoin:round;-inkscape-stroke:none"
     d="m 17,11.75 c -2.614443,0 -4.75,2.135557 -4.75,4.75 0,2.614443 2.135557,4.75 4.75,4.75 2.614443,0 4.75,-2.135557 4.75,-4.75 0,-2.614443 -2.135557,-4.75 -4.75,-4.75 z m 0,1.5 c 1.803752,0 3.25,1.446248 3.25,3.25 0,1.803752 -1.446248,3.25 -3.25,3.25 -1.803752,0 -3.25,-1.446248 -3.25,-3.25 0,-1.803752 1.446248,-3.25 3.25,-3.25 z"
     id="path6" />
</svg>
