<?xml version="1.0" encoding="UTF-8" standalone="no"?>
<svg
   width="24"
   height="24"
   viewBox="0 0 24 24"
   stroke-width="1.5"
   fill="none"
   version="1.1"
   id="svg10"
   sodipodi:docname="at-sign-circle.svg"
   inkscape:version="1.2.1 (9c6d41e410, 2022-07-14)"
   xmlns:inkscape="http://www.inkscape.org/namespaces/inkscape"
   xmlns:sodipodi="http://sodipodi.sourceforge.net/DTD/sodipodi-0.dtd"
   xmlns="http://www.w3.org/2000/svg"
   xmlns:svg="http://www.w3.org/2000/svg">
  <defs
     id="defs14" />
  <sodipodi:namedview
     id="namedview12"
     pagecolor="#ffffff"
     bordercolor="#666666"
     borderopacity="1.0"
     inkscape:showpageshadow="2"
     inkscape:pageopacity="0.0"
     inkscape:pagecheckerboard="0"
     inkscape:deskcolor="#d1d1d1"
     showgrid="false"
     inkscape:zoom="34.541667"
     inkscape:cx="10.364294"
     inkscape:cy="12.014475"
     inkscape:window-width="1920"
     inkscape:window-height="1009"
     inkscape:window-x="1912"
     inkscape:window-y="-8"
     inkscape:window-maximized="1"
     inkscape:current-layer="svg10" />
  <path
     style="color:#000000;fill:currentColor;stroke-linecap:round;stroke-linejoin:round;-inkscape-stroke:none"
     d="m 12,4.25 c -4.2713166,0 -7.75,3.4786834 -7.75,7.75 0,4.271326 3.4786847,7.75 7.75,7.75 1.7799,0 3.42714,-0.603076 4.736328,-1.615234 a 0.75,0.75 0 0 0 0.134766,-1.052735 0.75,0.75 0 0 0 -1.052735,-0.134765 C 14.761549,17.764306 13.442097,18.25 12,18.25 8.539343,18.25 5.75,15.460667 5.75,12 5.75,8.5393443 8.5393443,5.75 12,5.75 c 3.460667,0 6.25,2.789343 6.25,6.25 0,0.923346 -0.256606,1.482044 -0.582031,1.833984 -0.325425,0.351941 -0.750655,0.520995 -1.201172,0.541016 -0.450517,0.02002 -0.909482,-0.125194 -1.222656,-0.371094 C 14.930966,13.758006 14.75,13.450956 14.75,13 V 8.5 A 0.75,0.75 0 0 0 14,7.75 0.75,0.75 0 0 0 13.25,8.5 V 13 c 0,0.910143 0.444034,1.693382 1.068359,2.183594 0.624325,0.490211 1.415362,0.726935 2.214844,0.691406 0.799482,-0.03553 1.624254,-0.359538 2.236328,-1.021484 C 19.381606,14.19157 19.75,13.215552 19.75,12 19.75,7.7286847 16.271326,4.25 12,4.25 Z"
     id="path2" />
  <path
     style="color:#000000;fill:currentColor;stroke-linecap:round;stroke-linejoin:round;-inkscape-stroke:none"
     d="M 11.5,8.25 C 9.7139639,8.25 8.25,9.7139639 8.25,11.5 V 12 A 0.75,0.75 0 0 0 9,12.75 0.75,0.75 0 0 0 9.75,12 v -0.5 c 0,-0.975361 0.774639,-1.75 1.75,-1.75 0.975361,0 1.75,0.774639 1.75,1.75 V 12 A 0.75,0.75 0 0 0 14,12.75 0.75,0.75 0 0 0 14.75,12 v -0.5 c 0,-1.7860361 -1.463964,-3.25 -3.25,-3.25 z"
     id="path4" />
  <path
     style="color:#000000;fill:currentColor;stroke-linecap:round;stroke-linejoin:round;-inkscape-stroke:none"
     d="M 9,11.25 A 0.75,0.75 0 0 0 8.25,12 v 0.5 c 0,1.786036 1.4639639,3.25 3.25,3.25 1.786036,0 3.25,-1.463964 3.25,-3.25 V 12 A 0.75,0.75 0 0 0 14,11.25 0.75,0.75 0 0 0 13.25,12 v 0.5 c 0,0.975361 -0.774639,1.75 -1.75,1.75 -0.975361,0 -1.75,-0.774639 -1.75,-1.75 V 12 A 0.75,0.75 0 0 0 9,11.25 Z"
     id="path6" />
  <path
     style="color:#000000;fill:currentColor;stroke-linecap:round;stroke-linejoin:round;-inkscape-stroke:none"
     d="M 12,1.25 C 6.0718263,1.25 1.25,6.0718263 1.25,12 1.25,17.928127 6.0718217,22.75 12,22.75 17.928132,22.75 22.75,17.928132 22.75,12 22.75,6.0718217 17.928127,1.25 12,1.25 Z m 0,1.5 c 5.117462,0 9.25,4.1324893 9.25,9.25 0,5.117457 -4.132543,9.25 -9.25,9.25 C 6.8824893,21.25 2.75,17.117462 2.75,12 2.75,6.8824848 6.8824848,2.75 12,2.75 Z"
     id="path8" />
</svg>
