<?xml version="1.0" encoding="UTF-8" standalone="no"?>
<svg
   width="24"
   height="24"
   viewBox="0 0 24 24"
   stroke-width="1.5"
   fill="none"
   version="1.1"
   id="svg8"
   sodipodi:docname="at-sign.svg"
   inkscape:version="1.2.1 (9c6d41e410, 2022-07-14)"
   xmlns:inkscape="http://www.inkscape.org/namespaces/inkscape"
   xmlns:sodipodi="http://sodipodi.sourceforge.net/DTD/sodipodi-0.dtd"
   xmlns="http://www.w3.org/2000/svg"
   xmlns:svg="http://www.w3.org/2000/svg">
  <defs
     id="defs12" />
  <sodipodi:namedview
     id="namedview10"
     pagecolor="#ffffff"
     bordercolor="#666666"
     borderopacity="1.0"
     inkscape:showpageshadow="2"
     inkscape:pageopacity="0.0"
     inkscape:pagecheckerboard="0"
     inkscape:deskcolor="#d1d1d1"
     showgrid="false"
     inkscape:zoom="34.541667"
     inkscape:cx="10.364294"
     inkscape:cy="12.014475"
     inkscape:window-width="1920"
     inkscape:window-height="1009"
     inkscape:window-x="1912"
     inkscape:window-y="-8"
     inkscape:window-maximized="1"
     inkscape:current-layer="svg8" />
  <path
     style="color:#000000;fill:currentColor;stroke-linecap:round;stroke-linejoin:round;-inkscape-stroke:none"
     d="m 12,2.25 c -5.3758852,0 -9.75,4.3741148 -9.75,9.75 0,5.375922 4.3741188,9.75 9.75,9.75 2.24011,0 4.311874,-0.757878 5.958984,-2.03125 A 0.75,0.75 0 0 0 18.09375,18.666016 0.75,0.75 0 0 0 17.041016,18.53125 C 15.646329,19.609475 13.902286,20.25 12,20.25 7.4347711,20.25 3.75,16.565268 3.75,12 3.75,7.4347752 7.4347752,3.75 12,3.75 c 4.565268,0 8.25,3.6847711 8.25,8.25 0,2.47727 -1.232949,3.444749 -2.373047,3.634766 -0.570049,0.09501 -1.120026,-0.03026 -1.5,-0.304688 C 15.99698,15.055653 15.75,14.660714 15.75,14 V 8 A 0.75,0.75 0 0 0 15,7.25 0.75,0.75 0 0 0 14.25,8 v 6 c 0,1.089285 0.503021,2.006848 1.248047,2.544922 0.745025,0.538074 1.695051,0.725304 2.625,0.570312 C 19.982946,16.805251 21.75,15.022724 21.75,12 21.75,6.6241188 17.375922,2.25 12,2.25 Z"
     id="path2" />
  <path
     style="color:#000000;fill:currentColor;stroke-linecap:round;stroke-linejoin:round;-inkscape-stroke:none"
     d="m 12,7.25 c -1.994664,0 -3.75,1.3829117 -3.75,3.25 V 12 A 0.75,0.75 0 0 0 9,12.75 0.75,0.75 0 0 0 9.75,12 v -1.5 c 0,-0.8943289 0.930868,-1.75 2.25,-1.75 1.319132,0 2.25,0.8556711 2.25,1.75 V 12 A 0.75,0.75 0 0 0 15,12.75 0.75,0.75 0 0 0 15.75,12 V 10.5 C 15.75,8.6329117 13.994664,7.25 12,7.25 Z"
     id="path4" />
  <path
     style="color:#000000;fill:currentColor;stroke-linecap:round;stroke-linejoin:round;-inkscape-stroke:none"
     d="M 9,11.25 A 0.75,0.75 0 0 0 8.25,12 v 1.5 c 0,1.867082 1.755333,3.25 3.75,3.25 1.994667,0 3.75,-1.382918 3.75,-3.25 V 12 A 0.75,0.75 0 0 0 15,11.25 0.75,0.75 0 0 0 14.25,12 v 1.5 c 0,0.894315 -0.930871,1.75 -2.25,1.75 -1.319129,0 -2.25,-0.855685 -2.25,-1.75 V 12 A 0.75,0.75 0 0 0 9,11.25 Z"
     id="path6" />
</svg>
