<?xml version="1.0" encoding="UTF-8" standalone="no"?>
<svg
   width="24"
   stroke-width="1.5"
   height="24"
   viewBox="0 0 24 24"
   fill="none"
   version="1.1"
   id="svg10"
   sodipodi:docname="atom.svg"
   inkscape:version="1.2.1 (9c6d41e410, 2022-07-14)"
   xmlns:inkscape="http://www.inkscape.org/namespaces/inkscape"
   xmlns:sodipodi="http://sodipodi.sourceforge.net/DTD/sodipodi-0.dtd"
   xmlns="http://www.w3.org/2000/svg"
   xmlns:svg="http://www.w3.org/2000/svg">
  <defs
     id="defs14" />
  <sodipodi:namedview
     id="namedview12"
     pagecolor="#ffffff"
     bordercolor="#666666"
     borderopacity="1.0"
     inkscape:showpageshadow="2"
     inkscape:pageopacity="0.0"
     inkscape:pagecheckerboard="0"
     inkscape:deskcolor="#d1d1d1"
     showgrid="false"
     inkscape:zoom="34.541667"
     inkscape:cx="10.364294"
     inkscape:cy="12.014475"
     inkscape:window-width="1920"
     inkscape:window-height="1009"
     inkscape:window-x="1912"
     inkscape:window-y="-8"
     inkscape:window-maximized="1"
     inkscape:current-layer="svg10" />
  <path
     style="color:#000000;fill:currentColor;stroke-linecap:round;stroke-linejoin:round;-inkscape-stroke:none"
     d="M 12,8.25 C 9.4471698,8.25 7.1356901,8.5888908 5.3984375,9.1679688 4.5298112,9.4575077 3.8019413,9.8030026 3.2421875,10.244141 2.6824337,10.685279 2.25,11.281786 2.25,12 c 0,0.513607 0.2326141,0.984351 0.5585938,1.351563 0.3259796,0.367211 0.748117,0.662328 1.2480468,0.923828 A 0.75,0.75 0 0 0 5.0683594,13.957031 0.75,0.75 0 0 0 4.7519531,12.945313 C 4.3627138,12.741712 4.0835849,12.528832 3.9296875,12.355469 3.7757901,12.182106 3.75,12.078792 3.75,12 c 0,-0.110236 0.07078,-0.301429 0.421875,-0.578125 C 4.5229703,11.145179 5.1129948,10.843192 5.8730469,10.589844 7.393151,10.083148 9.5822752,9.75 12,9.75 c 2.417745,0 4.606855,0.333148 6.126953,0.839844 0.760049,0.253348 1.35008,0.555336 1.701172,0.832031 C 20.179217,11.69857 20.25,11.889761 20.25,12 c 0,0.09502 -0.04496,0.239293 -0.291016,0.466797 -0.246057,0.227503 -0.673634,0.489574 -1.24414,0.724609 a 0.75,0.75 0 0 0 -0.408203,0.980469 0.75,0.75 0 0 0 0.978515,0.408203 c 0.680292,-0.280264 1.252117,-0.603748 1.69336,-1.011719 C 21.419758,13.160388 21.75,12.619377 21.75,12 21.75,11.281789 21.317563,10.685279 20.757812,10.244141 20.198062,9.8030019 19.470187,9.4575079 18.601562,9.1679688 16.864314,8.5888904 14.55285,8.25 12,8.25 Z"
     id="path2" />
  <path
     style="color:#000000;fill:currentColor;stroke-linecap:round;stroke-linejoin:round;-inkscape-stroke:none"
     d="m 11.970703,10.25 a 0.75,0.75 0 0 0 -0.517578,0.246094 l -0.0098,0.01172 a 0.75,0.75 0 0 0 0.05469,1.058593 0.75,0.75 0 0 0 1.058594,-0.05469 L 12.566406,11.5 A 0.75,0.75 0 0 0 12.511719,10.441406 0.75,0.75 0 0 0 11.970703,10.25 Z"
     id="path4" />
  <path
     style="color:#000000;fill:currentColor;stroke-linecap:round;stroke-linejoin:round;-inkscape-stroke:none"
     d="m 15.419922,3.1210938 c -0.343149,0.025256 -0.686175,0.1300617 -1.009766,0.2792968 -0.647181,0.2984703 -1.285165,0.7891402 -1.9375,1.4316406 -1.30467,1.285001 -2.655504,3.1902622 -3.8144529,5.4648438 -1.1589639,2.274591 -1.9069582,4.488011 -2.1796875,6.298828 -0.1363646,0.905409 -0.1584616,1.709184 -0.019531,2.408203 0.1389304,0.699019 0.4753003,1.35753 1.1152343,1.683594 0.4572533,0.232948 0.9802693,0.238675 1.4550782,0.115234 0.4748088,-0.12344 0.9290938,-0.365265 1.3886721,-0.691406 a 0.75,0.75 0 0 0 0.177734,-1.044922 0.75,0.75 0 0 0 -1.0468749,-0.177734 c -0.3577211,0.253858 -0.6744395,0.404656 -0.8984375,0.46289 -0.2239979,0.05823 -0.3263081,0.03575 -0.3964843,0 -0.0982,-0.05004 -0.2370757,-0.200217 -0.3242188,-0.638671 -0.087143,-0.438455 -0.086117,-1.102292 0.033203,-1.894532 C 8.2015309,15.23388 8.8965168,13.13272 9.9941406,10.978516 11.091749,8.8243216 12.383798,7.0247723 13.525391,5.9003906 14.096187,5.3381998 14.633125,4.9489311 15.039063,4.7617187 15.445,4.5745064 15.645926,4.5983953 15.744141,4.6484375 c 0.07108,0.036218 0.153035,0.1084724 0.238281,0.3300781 0.08525,0.2216058 0.148327,0.5761618 0.15039,1.0253906 A 0.75,0.75 0 0 0 16.886719,6.75 0.75,0.75 0 0 0 17.632812,5.9960937 c -0.0026,-0.5737501 -0.07145,-1.0924745 -0.25,-1.5566406 C 17.204259,3.9752871 16.889002,3.548532 16.425781,3.3125 16.105814,3.1494713 15.763071,3.0958379 15.419922,3.1210938 Z"
     id="path6" />
  <path
     style="color:#000000;fill:currentColor;stroke-linecap:round;stroke-linejoin:round;-inkscape-stroke:none"
     d="M 8.7753906,3.1425781 C 8.3665461,3.0771498 7.9567571,3.1165958 7.5722656,3.3125 6.9323361,3.6385616 6.5979165,4.2951268 6.4589844,4.9941406 6.3200523,5.6931544 6.3421522,6.4988959 6.4785156,7.4042969 6.7512425,9.2150988 7.4992399,11.42853 8.6582031,13.703125 c 1.1589761,2.274585 2.5098029,4.179836 3.8144529,5.464844 0.652325,0.642504 1.290326,1.133166 1.9375,1.43164 0.647175,0.298475 1.375693,0.413947 2.015625,0.08789 0.568812,-0.289824 0.903319,-0.852128 1.0625,-1.453125 0.159182,-0.600997 0.17825,-1.28331 0.105469,-2.048828 -0.145562,-1.531037 -0.678661,-3.398614 -1.542969,-5.382813 a 0.75,0.75 0 0 0 -0.986328,-0.388671 0.75,0.75 0 0 0 -0.388672,0.986328 c 0.81539,1.871897 1.300566,3.629295 1.423828,4.925781 0.06163,0.648243 0.02853,1.179758 -0.0625,1.523437 -0.09103,0.34368 -0.20568,0.457478 -0.292968,0.501953 -0.09822,0.05004 -0.301103,0.07393 -0.707032,-0.113281 -0.405928,-0.187212 -0.94093,-0.576477 -1.511718,-1.138672 C 12.383813,16.97522 11.091782,15.175695 9.9941406,13.021484 8.8965161,10.867274 8.2015282,8.7661028 7.9628906,7.1816406 7.8435718,6.3894095 7.8425442,5.7255566 7.9296875,5.2871094 8.0168308,4.8486621 8.1557016,4.6984755 8.2539063,4.6484375 c 0.1180162,-0.060131 0.4204653,-0.070364 0.96875,0.25 A 0.75,0.75 0 0 0 10.248047,4.6308594 0.75,0.75 0 0 0 9.9785156,3.6035156 C 9.5922986,3.377848 9.1842351,3.2080064 8.7753906,3.1425781 Z"
     id="path8" />
</svg>
