<?xml version="1.0" encoding="UTF-8" standalone="no"?>
<svg
   width="24"
   height="24"
   stroke-width="1.5"
   viewBox="0 0 24 24"
   fill="none"
   version="1.1"
   id="svg4"
   sodipodi:docname="attachment.svg"
   inkscape:version="1.2.1 (9c6d41e410, 2022-07-14)"
   xmlns:inkscape="http://www.inkscape.org/namespaces/inkscape"
   xmlns:sodipodi="http://sodipodi.sourceforge.net/DTD/sodipodi-0.dtd"
   xmlns="http://www.w3.org/2000/svg"
   xmlns:svg="http://www.w3.org/2000/svg">
  <defs
     id="defs8" />
  <sodipodi:namedview
     id="namedview6"
     pagecolor="#ffffff"
     bordercolor="#666666"
     borderopacity="1.0"
     inkscape:showpageshadow="2"
     inkscape:pageopacity="0.0"
     inkscape:pagecheckerboard="0"
     inkscape:deskcolor="#d1d1d1"
     showgrid="false"
     inkscape:zoom="34.541667"
     inkscape:cx="10.364294"
     inkscape:cy="12.014475"
     inkscape:window-width="1920"
     inkscape:window-height="1009"
     inkscape:window-x="1912"
     inkscape:window-y="-8"
     inkscape:window-maximized="1"
     inkscape:current-layer="svg4" />
  <path
     style="color:#000000;fill:currentColor;stroke-linecap:round;stroke-linejoin:round;-inkscape-stroke:none"
     d="m 15.777344,1.25 c -1.260033,0 -2.468331,0.5015817 -3.359375,1.3925781 L 3.2285156,11.832031 C 1.9622438,13.098359 1.25,14.816602 1.25,16.607422 c 0,1.790819 0.7122006,3.509132 1.9785156,4.77539 1.2662878,1.266356 2.9845766,1.978516 4.7753907,1.978516 1.7908052,0 3.5091347,-0.712148 4.7753907,-1.978516 l 9.189453,-9.189453 a 0.75,0.75 0 0 0 0,-1.060546 0.75,0.75 0 0 0 -1.060547,0 l -9.189453,9.189453 c -0.985342,0.985429 -2.3212922,1.539062 -3.7148437,1.539062 -1.3935629,0 -2.7294539,-0.55362 -3.7148438,-1.539062 C 3.3036798,19.336927 2.75,18.000999 2.75,16.607422 c 0,-1.393577 0.5536366,-2.729374 1.5390625,-3.714844 L 13.478516,3.703125 C 14.08867,3.0930029 14.914578,2.75 15.777344,2.75 c 0.862884,0 1.690749,0.3430442 2.300781,0.953125 0.610155,0.6101304 0.953125,1.4360224 0.953125,2.2988281 0,0.8628177 -0.342974,1.6906631 -0.953125,2.3007813 L 8.8789063,17.492187 C 8.644096,17.72701 8.3262622,17.857422 7.9941406,17.857422 7.6620053,17.857422 7.34419,17.727015 7.109375,17.492187 6.8744807,17.257281 6.7421875,16.939616 6.7421875,16.607422 c 0,-0.332056 0.1323403,-0.649906 0.3671875,-0.884766 l 8.488281,-8.4804685 a 0.75,0.75 0 0 0 0.002,-1.0605469 0.75,0.75 0 0 0 -1.060546,0 L 6.0488281,14.662109 c -0.515712,0.51574 -0.8066406,1.21597 -0.8066406,1.945313 0,0.729405 0.2909757,1.42962 0.8066406,1.945312 0.5157443,0.515772 1.2159889,0.804688 1.9453125,0.804688 0.7286922,0 1.4277366,-0.28974 1.9433594,-0.804688 L 19.138672,9.3632813 C 20.02972,8.4722809 20.53125,7.2620534 20.53125,6.0019531 20.53125,4.741861 20.029716,3.5335862 19.138672,2.6425781 18.247705,1.7515404 17.037458,1.25 15.777344,1.25 Z"
     id="path2" />
</svg>
