<?xml version="1.0" encoding="UTF-8" standalone="no"?>
<svg
   width="24"
   height="24"
   viewBox="0 0 24 24"
   stroke-width="1.5"
   fill="none"
   version="1.1"
   id="svg6"
   sodipodi:docname="auto-flash.svg"
   inkscape:version="1.2.1 (9c6d41e410, 2022-07-14)"
   xmlns:inkscape="http://www.inkscape.org/namespaces/inkscape"
   xmlns:sodipodi="http://sodipodi.sourceforge.net/DTD/sodipodi-0.dtd"
   xmlns="http://www.w3.org/2000/svg"
   xmlns:svg="http://www.w3.org/2000/svg">
  <defs
     id="defs10" />
  <sodipodi:namedview
     id="namedview8"
     pagecolor="#ffffff"
     bordercolor="#666666"
     borderopacity="1.0"
     inkscape:showpageshadow="2"
     inkscape:pageopacity="0.0"
     inkscape:pagecheckerboard="0"
     inkscape:deskcolor="#d1d1d1"
     showgrid="false"
     inkscape:zoom="34.541667"
     inkscape:cx="10.364294"
     inkscape:cy="12.014475"
     inkscape:window-width="1920"
     inkscape:window-height="1009"
     inkscape:window-x="1912"
     inkscape:window-y="-8"
     inkscape:window-maximized="1"
     inkscape:current-layer="svg6" />
  <path
     style="color:#000000;fill:currentColor;stroke-linecap:round;stroke-linejoin:round;-inkscape-stroke:none"
     d="m 19,2.25 a 0.750075,0.750075 0 0 0 -0.681641,0.4355469 l -2.30664,5 -0.69336,1.5 a 0.75,0.75 0 0 0 0.367188,0.9960941 0.75,0.75 0 0 0 0.996094,-0.3671879 L 17.171875,8.75 h 3.65625 l 0.490234,1.0644531 a 0.75,0.75 0 0 0 0.996094,0.3671879 0.75,0.75 0 0 0 0.367188,-0.9960941 L 22,7.7128906 l -0.01172,-0.027344 -2.30664,-5 A 0.750075,0.750075 0 0 0 19,2.25 Z M 19,4.7910156 20.134766,7.25 h -2.269532 z"
     id="path2" />
  <path
     style="color:#000000;fill:currentColor;stroke-linecap:round;stroke-linejoin:round;-inkscape-stroke:none"
     d="M 10.232422,2.2871094 A 0.750075,0.750075 0 0 0 9.3925781,2.5585938 l -8,11.0000002 A 0.750075,0.750075 0 0 0 2,14.75 H 7.25 V 21 a 0.750075,0.750075 0 0 0 1.3574219,0.441406 l 6.0000001,-8.25 a 0.75,0.75 0 0 0 -0.166016,-1.048828 0.75,0.75 0 0 0 -1.048828,0.166016 L 8.75,18.691406 V 14 A 0.750075,0.750075 0 0 0 8,13.25 H 3.4746094 L 9.25,5.3085937 V 10 A 0.750075,0.750075 0 0 0 10,10.75 h 3 A 0.75,0.75 0 0 0 13.75,10 0.75,0.75 0 0 0 13,9.25 H 10.75 V 3 A 0.750075,0.750075 0 0 0 10.232422,2.2871094 Z"
     id="path4" />
</svg>
