<?xml version="1.0" encoding="UTF-8" standalone="no"?>
<svg
   width="24"
   height="24"
   viewBox="0 0 24 24"
   stroke-width="1.5"
   fill="none"
   version="1.1"
   id="svg12"
   sodipodi:docname="avi-format.svg"
   inkscape:version="1.2.1 (9c6d41e410, 2022-07-14)"
   xmlns:inkscape="http://www.inkscape.org/namespaces/inkscape"
   xmlns:sodipodi="http://sodipodi.sourceforge.net/DTD/sodipodi-0.dtd"
   xmlns="http://www.w3.org/2000/svg"
   xmlns:svg="http://www.w3.org/2000/svg">
  <defs
     id="defs16" />
  <sodipodi:namedview
     id="namedview14"
     pagecolor="#ffffff"
     bordercolor="#666666"
     borderopacity="1.0"
     inkscape:showpageshadow="2"
     inkscape:pageopacity="0.0"
     inkscape:pagecheckerboard="0"
     inkscape:deskcolor="#d1d1d1"
     showgrid="false"
     inkscape:zoom="34.541667"
     inkscape:cx="10.364294"
     inkscape:cy="12.014475"
     inkscape:window-width="1920"
     inkscape:window-height="1009"
     inkscape:window-x="1912"
     inkscape:window-y="-8"
     inkscape:window-maximized="1"
     inkscape:current-layer="svg12" />
  <path
     style="color:#000000;fill:currentColor;stroke-linecap:round;stroke-linejoin:round;-inkscape-stroke:none"
     d="m 11.818359,8.2714844 a 0.75,0.75 0 0 0 -0.546875,0.9101562 l 1.5,6.0000004 a 0.750075,0.750075 0 0 0 1.457032,0 l 1.5,-6.0000004 A 0.75,0.75 0 0 0 15.181641,8.2714844 0.75,0.75 0 0 0 14.271484,8.8183594 L 13.5,11.904297 12.728516,8.8183594 a 0.75,0.75 0 0 0 -0.910157,-0.546875 z"
     id="path2" />
  <path
     style="color:#000000;fill:currentColor;stroke-linecap:round;stroke-linejoin:round;-inkscape-stroke:none"
     d="M 18,8.25 A 0.75,0.75 0 0 0 17.25,9 v 6 A 0.75,0.75 0 0 0 18,15.75 0.75,0.75 0 0 0 18.75,15 V 9 A 0.75,0.75 0 0 0 18,8.25 Z"
     id="path4" />
  <path
     style="color:#000000;fill:currentColor;stroke-linecap:round;-inkscape-stroke:none"
     d="M 4.5996094,2.25 C 3.8629077,2.25 3.25,2.8629077 3.25,3.5996094 V 6 A 0.75,0.75 0 0 0 4,6.75 0.75,0.75 0 0 0 4.75,6 V 3.75 h 14.5 V 6 A 0.75,0.75 0 0 0 20,6.75 0.75,0.75 0 0 0 20.75,6 V 3.5996094 C 20.75,2.862953 20.137086,2.25 19.400391,2.25 Z"
     id="path6" />
  <path
     style="color:#000000;fill:currentColor;stroke-linecap:round;-inkscape-stroke:none"
     d="M 4,17.25 A 0.75,0.75 0 0 0 3.25,18 v 2.400391 C 3.25,21.137086 3.862953,21.75 4.5996094,21.75 H 19.400391 C 20.13704,21.75 20.75,21.13704 20.75,20.400391 V 18 A 0.75,0.75 0 0 0 20,17.25 0.75,0.75 0 0 0 19.25,18 v 2.25 H 4.75 V 18 A 0.75,0.75 0 0 0 4,17.25 Z"
     id="path8" />
  <path
     style="color:#000000;fill:currentColor;stroke-linecap:round;stroke-linejoin:round;-inkscape-stroke:none"
     d="M 7.5,8.25 C 6.2662443,8.25 5.25,9.2662443 5.25,10.5 V 12 15 A 0.75,0.75 0 0 0 6,15.75 0.75,0.75 0 0 0 6.75,15 v -2.25 h 1.5 V 15 A 0.75,0.75 0 0 0 9,15.75 0.75,0.75 0 0 0 9.75,15 V 12 10.5 C 9.75,9.2662443 8.7337557,8.25 7.5,8.25 Z m 0,1.5 c 0.4231026,0 0.75,0.326897 0.75,0.75 v 0.75 H 6.75 V 10.5 c 0,-0.423103 0.3268974,-0.75 0.75,-0.75 z"
     id="path10" />
</svg>
