<?xml version="1.0" encoding="UTF-8" standalone="no"?>
<svg
   width="24"
   height="24"
   stroke-width="1.5"
   viewBox="0 0 24 24"
   fill="none"
   version="1.1"
   id="svg10"
   sodipodi:docname="axes.svg"
   inkscape:version="1.2.1 (9c6d41e410, 2022-07-14)"
   xmlns:inkscape="http://www.inkscape.org/namespaces/inkscape"
   xmlns:sodipodi="http://sodipodi.sourceforge.net/DTD/sodipodi-0.dtd"
   xmlns="http://www.w3.org/2000/svg"
   xmlns:svg="http://www.w3.org/2000/svg">
  <defs
     id="defs14" />
  <sodipodi:namedview
     id="namedview12"
     pagecolor="#ffffff"
     bordercolor="#666666"
     borderopacity="1.0"
     inkscape:showpageshadow="2"
     inkscape:pageopacity="0.0"
     inkscape:pagecheckerboard="0"
     inkscape:deskcolor="#d1d1d1"
     showgrid="false"
     inkscape:zoom="34.541667"
     inkscape:cx="10.364294"
     inkscape:cy="12.014475"
     inkscape:window-width="1920"
     inkscape:window-height="1009"
     inkscape:window-x="1912"
     inkscape:window-y="-8"
     inkscape:window-maximized="1"
     inkscape:current-layer="svg10" />
  <path
     style="color:#000000;fill:currentColor;stroke-linecap:round;stroke-linejoin:round;-inkscape-stroke:none"
     d="M 12,2.25 A 0.75,0.75 0 0 0 11.25,3 v 9.462891 l -8.6933594,6.384765 a 0.75,0.75 0 0 0 -0.1621093,1.046875 0.75,0.75 0 0 0 1.0488281,0.16211 L 12,13.773438 l 8.556641,6.283203 a 0.75,0.75 0 0 0 1.048828,-0.16211 0.75,0.75 0 0 0 -0.16211,-1.046875 L 12.75,12.462891 V 3 A 0.75,0.75 0 0 0 12,2.25 Z"
     id="path2" />
  <path
     style="color:#000000;fill:currentColor;stroke-linecap:round;stroke-linejoin:round;-inkscape-stroke:none"
     d="m 20.287109,15.974609 a 0.75,0.75 0 0 0 -0.583984,0.886719 l 0.410156,1.998047 -2.068359,0.404297 a 0.75,0.75 0 0 0 -0.59375,0.878906 0.75,0.75 0 0 0 0.878906,0.59375 l 2.8125,-0.548828 a 0.750075,0.750075 0 0 0 0.591797,-0.886719 l -0.5625,-2.742187 a 0.75,0.75 0 0 0 -0.884766,-0.583985 z"
     id="path4" />
  <path
     style="color:#000000;fill:currentColor;stroke-linecap:round;stroke-linejoin:round;-inkscape-stroke:none"
     d="M 11.476563,2.4628906 9.2265625,4.65625 a 0.75,0.75 0 0 0 -0.013672,1.0605469 0.75,0.75 0 0 0 1.0605474,0.013672 L 12,4.046875 13.726563,5.7304687 A 0.75,0.75 0 0 0 14.787109,5.7167969 0.75,0.75 0 0 0 14.773438,4.65625 l -2.25,-2.1933594 a 0.750075,0.750075 0 0 0 -1.046875,0 z"
     id="path6" />
  <path
     style="color:#000000;fill:currentColor;stroke-linecap:round;stroke-linejoin:round;-inkscape-stroke:none"
     d="M 3.7128906,15.974609 A 0.75,0.75 0 0 0 2.828125,16.558594 l -0.5625,2.742187 A 0.750075,0.750075 0 0 0 2.8574219,20.1875 l 2.8125,0.548828 a 0.75,0.75 0 0 0 0.8789062,-0.59375 0.75,0.75 0 0 0 -0.59375,-0.878906 L 3.8867188,18.859375 4.296875,16.861328 A 0.75,0.75 0 0 0 3.7128906,15.974609 Z"
     id="path8" />
</svg>
