<?xml version="1.0" encoding="UTF-8" standalone="no"?>
<svg
   width="24"
   height="24"
   stroke-width="1.5"
   viewBox="0 0 24 24"
   fill="none"
   version="1.1"
   id="svg6"
   sodipodi:docname="bag.svg"
   inkscape:version="1.2.1 (9c6d41e410, 2022-07-14)"
   xmlns:inkscape="http://www.inkscape.org/namespaces/inkscape"
   xmlns:sodipodi="http://sodipodi.sourceforge.net/DTD/sodipodi-0.dtd"
   xmlns="http://www.w3.org/2000/svg"
   xmlns:svg="http://www.w3.org/2000/svg">
  <defs
     id="defs10" />
  <sodipodi:namedview
     id="namedview8"
     pagecolor="#ffffff"
     bordercolor="#666666"
     borderopacity="1.0"
     inkscape:showpageshadow="2"
     inkscape:pageopacity="0.0"
     inkscape:pagecheckerboard="0"
     inkscape:deskcolor="#d1d1d1"
     showgrid="false"
     inkscape:zoom="34.541667"
     inkscape:cx="10.364294"
     inkscape:cy="12.014475"
     inkscape:window-width="1920"
     inkscape:window-height="1009"
     inkscape:window-x="1912"
     inkscape:window-y="-8"
     inkscape:window-maximized="1"
     inkscape:current-layer="svg6" />
  <path
     style="color:#000000;fill:currentColor;-inkscape-stroke:none"
     d="M 2.7089844,7.25 C 1.8892576,7.25 1.2421996,8.0137003 1.3769531,8.8222656 L 3.1757813,19.621094 C 3.2833992,20.26698 3.8531108,20.75 4.5078125,20.75 H 19.492187 c 0.654705,0 1.224262,-0.483182 1.332032,-1.128906 L 22.623047,8.8222656 C 22.75768,8.0137569 22.110736,7.25 21.291016,7.25 Z m 0.1757812,1.5 H 21.115234 l -1.75,10.5 H 4.6347656 Z"
     id="path2" />
  <path
     style="color:#000000;fill:currentColor;-inkscape-stroke:none"
     d="M 9,3.25 C 7.4901018,3.25 6.25,4.4901018 6.25,6 v 2 h 1.5 V 6 C 7.75,5.3007604 8.3007604,4.75 9,4.75 h 6 c 0.699281,0 1.25,0.5507468 1.25,1.25 v 2 h 1.5 V 6 C 17.75,4.4901154 16.509917,3.25 15,3.25 Z"
     id="path4" />
</svg>
