<?xml version="1.0" encoding="UTF-8" standalone="no"?>
<svg
   width="24"
   height="24"
   viewBox="0 0 24 24"
   stroke-width="1.5"
   fill="none"
   version="1.1"
   id="svg18"
   sodipodi:docname="balcony.svg"
   inkscape:version="1.2.1 (9c6d41e410, 2022-07-14)"
   xmlns:inkscape="http://www.inkscape.org/namespaces/inkscape"
   xmlns:sodipodi="http://sodipodi.sourceforge.net/DTD/sodipodi-0.dtd"
   xmlns="http://www.w3.org/2000/svg"
   xmlns:svg="http://www.w3.org/2000/svg">
  <defs
     id="defs22" />
  <sodipodi:namedview
     id="namedview20"
     pagecolor="#ffffff"
     bordercolor="#666666"
     borderopacity="1.0"
     inkscape:showpageshadow="2"
     inkscape:pageopacity="0.0"
     inkscape:pagecheckerboard="0"
     inkscape:deskcolor="#d1d1d1"
     showgrid="false"
     inkscape:zoom="34.541667"
     inkscape:cx="10.364294"
     inkscape:cy="12.014475"
     inkscape:window-width="1920"
     inkscape:window-height="1009"
     inkscape:window-x="1912"
     inkscape:window-y="-8"
     inkscape:window-maximized="1"
     inkscape:current-layer="svg18" />
  <path
     style="color:#000000;fill:currentColor;stroke-linecap:round;stroke-linejoin:round;-inkscape-stroke:none"
     d="M 4,12.25 A 0.75,0.75 0 0 0 3.25,13 v 8 A 0.75,0.75 0 0 0 4,21.75 0.75,0.75 0 0 0 4.75,21 V 13 A 0.75,0.75 0 0 0 4,12.25 Z"
     id="path2" />
  <path
     style="color:#000000;fill:currentColor;stroke-linecap:round;stroke-linejoin:round;-inkscape-stroke:none"
     d="M 8,12.25 A 0.75,0.75 0 0 0 7.25,13 v 8 A 0.75,0.75 0 0 0 8,21.75 0.75,0.75 0 0 0 8.75,21 V 13 A 0.75,0.75 0 0 0 8,12.25 Z"
     id="path4" />
  <path
     style="color:#000000;fill:currentColor;stroke-linecap:round;stroke-linejoin:round;-inkscape-stroke:none"
     d="M 16,12.25 A 0.75,0.75 0 0 0 15.25,13 v 8 A 0.75,0.75 0 0 0 16,21.75 0.75,0.75 0 0 0 16.75,21 V 13 A 0.75,0.75 0 0 0 16,12.25 Z"
     id="path6" />
  <path
     style="color:#000000;fill:currentColor;stroke-linecap:round;stroke-linejoin:round;-inkscape-stroke:none"
     d="M 12,12.25 A 0.75,0.75 0 0 0 11.25,13 v 8 A 0.75,0.75 0 0 0 12,21.75 0.75,0.75 0 0 0 12.75,21 V 13 A 0.75,0.75 0 0 0 12,12.25 Z"
     id="path8" />
  <path
     style="color:#000000;fill:currentColor;stroke-linecap:round;stroke-linejoin:round;-inkscape-stroke:none"
     d="M 20,12.25 A 0.75,0.75 0 0 0 19.25,13 v 8 A 0.75,0.75 0 0 0 20,21.75 0.75,0.75 0 0 0 20.75,21 V 13 A 0.75,0.75 0 0 0 20,12.25 Z"
     id="path10" />
  <path
     style="color:#000000;fill:currentColor;stroke-linecap:round;stroke-linejoin:round;-inkscape-stroke:none"
     d="M 2,20.25 A 0.75,0.75 0 0 0 1.25,21 0.75,0.75 0 0 0 2,21.75 H 22 A 0.75,0.75 0 0 0 22.75,21 0.75,0.75 0 0 0 22,20.25 Z"
     id="path12" />
  <path
     style="color:#000000;fill:currentColor;stroke-linecap:round;stroke-linejoin:round;-inkscape-stroke:none"
     d="M 2,12.25 A 0.75,0.75 0 0 0 1.25,13 0.75,0.75 0 0 0 2,13.75 H 22 A 0.75,0.75 0 0 0 22.75,13 0.75,0.75 0 0 0 22,12.25 Z"
     id="path14" />
  <path
     style="color:#000000;fill:currentColor;stroke-linecap:round;stroke-linejoin:round;-inkscape-stroke:none"
     d="M 6.5996094,2.25 C 5.8629077,2.25 5.25,2.8629077 5.25,3.5996094 V 10 A 0.75,0.75 0 0 0 6,10.75 0.75,0.75 0 0 0 6.75,10 V 3.75 h 10.5 V 10 A 0.75,0.75 0 0 0 18,10.75 0.75,0.75 0 0 0 18.75,10 V 3.5996094 C 18.75,2.862953 18.137086,2.25 17.400391,2.25 Z"
     id="path16" />
</svg>
