<?xml version="1.0" encoding="UTF-8" standalone="no"?>
<svg
   width="24"
   height="24"
   stroke-width="1.5"
   viewBox="0 0 24 24"
   fill="none"
   version="1.1"
   id="svg16"
   sodipodi:docname="bank.svg"
   inkscape:version="1.2.1 (9c6d41e410, 2022-07-14)"
   xmlns:inkscape="http://www.inkscape.org/namespaces/inkscape"
   xmlns:sodipodi="http://sodipodi.sourceforge.net/DTD/sodipodi-0.dtd"
   xmlns="http://www.w3.org/2000/svg"
   xmlns:svg="http://www.w3.org/2000/svg">
  <defs
     id="defs20" />
  <sodipodi:namedview
     id="namedview18"
     pagecolor="#ffffff"
     bordercolor="#666666"
     borderopacity="1.0"
     inkscape:showpageshadow="2"
     inkscape:pageopacity="0.0"
     inkscape:pagecheckerboard="0"
     inkscape:deskcolor="#d1d1d1"
     showgrid="false"
     inkscape:zoom="34.541667"
     inkscape:cx="10.364294"
     inkscape:cy="12.014475"
     inkscape:window-width="1920"
     inkscape:window-height="1009"
     inkscape:window-x="1912"
     inkscape:window-y="-8"
     inkscape:window-maximized="1"
     inkscape:current-layer="svg16" />
  <path
     style="color:#000000;fill:currentColor;stroke-linecap:round;stroke-linejoin:round;-inkscape-stroke:none"
     d="m 11.609375,3.359375 -9,5.5 a 0.75,0.75 0 0 0 -0.25,1.03125 0.75,0.75 0 0 0 1.03125,0.25 L 12,4.8789062 20.609375,10.140625 a 0.75,0.75 0 0 0 1.03125,-0.25 0.75,0.75 0 0 0 -0.25,-1.03125 l -9,-5.5 a 0.750075,0.750075 0 0 0 -0.78125,0 z"
     id="path2" />
  <path
     style="color:#000000;fill:currentColor;stroke-linecap:round;stroke-linejoin:round;-inkscape-stroke:none"
     d="M 5,19.25 A 0.75,0.75 0 0 0 4.25,20 0.75,0.75 0 0 0 5,20.75 H 19 A 0.75,0.75 0 0 0 19.75,20 0.75,0.75 0 0 0 19,19.25 Z"
     id="path4" />
  <path
     style="color:#000000;fill:currentColor;stroke-linecap:round;stroke-linejoin:round;-inkscape-stroke:none"
     d="M 10,8.25 A 0.75,0.75 0 0 0 9.25,9 0.75,0.75 0 0 0 10,9.75 h 4 A 0.75,0.75 0 0 0 14.75,9 0.75,0.75 0 0 0 14,8.25 Z"
     id="path6" />
  <path
     style="color:#000000;fill:currentColor;stroke-linecap:round;stroke-linejoin:round;-inkscape-stroke:none"
     d="M 6,11.25 A 0.75,0.75 0 0 0 5.25,12 v 5 A 0.75,0.75 0 0 0 6,17.75 0.75,0.75 0 0 0 6.75,17 V 12 A 0.75,0.75 0 0 0 6,11.25 Z"
     id="path8" />
  <path
     style="color:#000000;fill:currentColor;stroke-linecap:round;stroke-linejoin:round;-inkscape-stroke:none"
     d="M 10,11.25 A 0.75,0.75 0 0 0 9.25,12 v 5 A 0.75,0.75 0 0 0 10,17.75 0.75,0.75 0 0 0 10.75,17 V 12 A 0.75,0.75 0 0 0 10,11.25 Z"
     id="path10" />
  <path
     style="color:#000000;fill:currentColor;stroke-linecap:round;stroke-linejoin:round;-inkscape-stroke:none"
     d="M 14,11.25 A 0.75,0.75 0 0 0 13.25,12 v 5 A 0.75,0.75 0 0 0 14,17.75 0.75,0.75 0 0 0 14.75,17 V 12 A 0.75,0.75 0 0 0 14,11.25 Z"
     id="path12" />
  <path
     style="color:#000000;fill:currentColor;stroke-linecap:round;stroke-linejoin:round;-inkscape-stroke:none"
     d="M 18,11.25 A 0.75,0.75 0 0 0 17.25,12 v 5 A 0.75,0.75 0 0 0 18,17.75 0.75,0.75 0 0 0 18.75,17 V 12 A 0.75,0.75 0 0 0 18,11.25 Z"
     id="path14" />
</svg>
