<?xml version="1.0" encoding="UTF-8" standalone="no"?>
<svg
   width="24"
   height="24"
   stroke-width="1.5"
   viewBox="0 0 24 24"
   fill="none"
   version="1.1"
   id="svg16"
   sodipodi:docname="barcode.svg"
   inkscape:version="1.2.1 (9c6d41e410, 2022-07-14)"
   xmlns:inkscape="http://www.inkscape.org/namespaces/inkscape"
   xmlns:sodipodi="http://sodipodi.sourceforge.net/DTD/sodipodi-0.dtd"
   xmlns="http://www.w3.org/2000/svg"
   xmlns:svg="http://www.w3.org/2000/svg">
  <defs
     id="defs20" />
  <sodipodi:namedview
     id="namedview18"
     pagecolor="#ffffff"
     bordercolor="#666666"
     borderopacity="1.0"
     inkscape:showpageshadow="2"
     inkscape:pageopacity="0.0"
     inkscape:pagecheckerboard="0"
     inkscape:deskcolor="#d1d1d1"
     showgrid="false"
     inkscape:zoom="34.541667"
     inkscape:cx="10.364294"
     inkscape:cy="12.014475"
     inkscape:window-width="1920"
     inkscape:window-height="1009"
     inkscape:window-x="1912"
     inkscape:window-y="-8"
     inkscape:window-maximized="1"
     inkscape:current-layer="svg16" />
  <path
     style="color:#000000;fill:currentColor;stroke-linecap:round;stroke-linejoin:round;-inkscape-stroke:none"
     d="M 5,4.25 A 0.750075,0.750075 0 0 0 4.25,5 V 19 A 0.75,0.75 0 0 0 5,19.75 0.75,0.75 0 0 0 5.75,19 V 5.75 H 6 A 0.75,0.75 0 0 0 6.75,5 0.75,0.75 0 0 0 6,4.25 Z"
     id="path2" />
  <path
     style="color:#000000;fill:currentColor;stroke-linecap:round;stroke-linejoin:round;-inkscape-stroke:none"
     d="M 12,4.25 A 0.750075,0.750075 0 0 0 11.25,5 V 19 A 0.75,0.75 0 0 0 12,19.75 0.75,0.75 0 0 0 12.75,19 V 5.75 H 13 A 0.75,0.75 0 0 0 13.75,5 0.75,0.75 0 0 0 13,4.25 Z"
     id="path4" />
  <path
     style="color:#000000;fill:currentColor;stroke-linecap:round;stroke-linejoin:round;-inkscape-stroke:none"
     d="M 9,4.25 A 0.75,0.75 0 0 0 8.25,5 V 19 A 0.75,0.75 0 0 0 9,19.75 0.75,0.75 0 0 0 9.75,19 V 5 A 0.75,0.75 0 0 0 9,4.25 Z"
     id="path6" />
  <path
     style="color:#000000;fill:currentColor;stroke-linecap:round;stroke-linejoin:round;-inkscape-stroke:none"
     d="M 16,4.25 A 0.75,0.75 0 0 0 15.25,5 V 19 A 0.75,0.75 0 0 0 16,19.75 0.75,0.75 0 0 0 16.75,19 V 5 A 0.75,0.75 0 0 0 16,4.25 Z"
     id="path8" />
  <path
     style="color:#000000;fill:currentColor;stroke-linecap:round;stroke-linejoin:round;-inkscape-stroke:none"
     d="M 19,4.25 A 0.75,0.75 0 0 0 18.25,5 V 19 A 0.75,0.75 0 0 0 19,19.75 0.75,0.75 0 0 0 19.75,19 V 5 A 0.75,0.75 0 0 0 19,4.25 Z"
     id="path10" />
  <path
     style="color:#000000;fill:currentColor;stroke-linecap:round;stroke-linejoin:round;-inkscape-stroke:none"
     d="M 6,4.25 A 0.75,0.75 0 0 0 5.25,5 V 18.25 H 5 A 0.75,0.75 0 0 0 4.25,19 0.75,0.75 0 0 0 5,19.75 H 6 A 0.750075,0.750075 0 0 0 6.75,19 V 5 A 0.75,0.75 0 0 0 6,4.25 Z"
     id="path12" />
  <path
     style="color:#000000;fill:currentColor;stroke-linecap:round;stroke-linejoin:round;-inkscape-stroke:none"
     d="M 13,4.25 A 0.75,0.75 0 0 0 12.25,5 V 18.25 H 12 A 0.75,0.75 0 0 0 11.25,19 0.75,0.75 0 0 0 12,19.75 h 1 A 0.750075,0.750075 0 0 0 13.75,19 V 5 A 0.75,0.75 0 0 0 13,4.25 Z"
     id="path14" />
</svg>
