<?xml version="1.0" encoding="UTF-8" standalone="no"?>
<svg
   width="24"
   height="24"
   stroke-width="1.5"
   viewBox="0 0 24 24"
   fill="none"
   version="1.1"
   id="svg19"
   sodipodi:docname="basketball.svg"
   inkscape:version="1.2.1 (9c6d41e410, 2022-07-14)"
   xmlns:inkscape="http://www.inkscape.org/namespaces/inkscape"
   xmlns:sodipodi="http://sodipodi.sourceforge.net/DTD/sodipodi-0.dtd"
   xmlns="http://www.w3.org/2000/svg"
   xmlns:svg="http://www.w3.org/2000/svg">
  <sodipodi:namedview
     id="namedview21"
     pagecolor="#ffffff"
     bordercolor="#666666"
     borderopacity="1.0"
     inkscape:showpageshadow="2"
     inkscape:pageopacity="0.0"
     inkscape:pagecheckerboard="0"
     inkscape:deskcolor="#d1d1d1"
     showgrid="false"
     inkscape:zoom="34.541667"
     inkscape:cx="10.364294"
     inkscape:cy="12.014475"
     inkscape:window-width="1920"
     inkscape:window-height="1009"
     inkscape:window-x="1912"
     inkscape:window-y="-8"
     inkscape:window-maximized="1"
     inkscape:current-layer="svg19" />
  <path
     style="color:#000000;fill:currentColor;stroke-linecap:round;stroke-linejoin:round;-inkscape-stroke:none"
     d="M 13.865234,1.4179687 C 11.15432,0.9399622 8.2620213,1.4932269 5.8339844,3.1933594 0.9779103,6.5936148 -0.20690971,13.30999 3.1933594,18.166016 6.5936099,23.022136 13.309897,24.206922 18.166016,20.806641 23.02203,17.406357 24.206921,10.690102 20.806641,5.8339844 19.106547,3.4059426 16.576148,1.8959753 13.865234,1.4179687 Z m -0.257812,1.4687501 c 2.329768,0.4107998 4.501147,1.71259 5.96875,3.8085937 2.935313,4.1920735 1.920492,9.9475025 -2.271485,12.8828125 C 13.112615,22.513437 7.3571582,21.496758 4.421875,17.304687 1.4865924,13.112723 2.5013425,7.3591063 6.6933594,4.4238281 8.7893679,2.9561848 11.277653,2.4759189 13.607422,2.8867188 Z"
     id="path2" />
  <path
     style="color:#000000;fill:currentColor;stroke-linecap:round;stroke-linejoin:round;-inkscape-stroke:none"
     d="M 6.3945312,3.0703125 A 0.75,0.75 0 0 0 5.8339844,3.1933594 0.75,0.75 0 0 0 5.6503906,4.2382812 L 17.121094,20.621094 a 0.75,0.75 0 0 0 1.044922,0.185547 0.75,0.75 0 0 0 0.183593,-1.044922 L 6.8789062,3.3789063 A 0.75,0.75 0 0 0 6.3945312,3.0703125 Z"
     id="path4" />
  <path
     style="color:#000000;fill:currentColor;stroke-linecap:round;stroke-linejoin:round;-inkscape-stroke:none"
     d="M 19.416016,4.7402344 A 0.75,0.75 0 0 0 18.945312,5.0703125 C 15.259345,10.833493 10.752836,13.996283 3.0722656,16.166016 a 0.75,0.75 0 0 0 -0.5195312,0.925781 0.75,0.75 0 0 0 0.9257812,0.517578 C 11.38539,15.375712 16.353359,11.905401 20.208984,5.8769531 A 0.75,0.75 0 0 0 19.982422,4.8417969 0.75,0.75 0 0 0 19.416016,4.7402344 Z"
     id="path6" />
  <path
     style="color:#000000;fill:currentColor;stroke-linecap:round;stroke-linejoin:round;-inkscape-stroke:none"
     d="m 13,1.3085937 a 0.75,0.75 0 0 0 -0.6875,0.8066407 c 0.433216,5.4896613 3.610237,10.0015846 9.035156,12.9492186 a 0.75,0.75 0 0 0 1.017578,-0.300781 0.75,0.75 0 0 0 -0.300781,-1.017578 C 16.979782,10.983334 14.200424,6.988015 13.806641,1.9980469 A 0.75,0.75 0 0 0 13,1.3085937 Z"
     id="path8" />
  <path
     style="color:#000000;fill:currentColor;stroke-linecap:round;stroke-linejoin:round;-inkscape-stroke:none"
     d="m 2.03125,8.8925781 a 0.75,0.75 0 0 0 -0.4199219,0.390625 0.75,0.75 0 0 0 0.3710938,0.9941409 c 4.5543492,2.076811 7.359675,6.054328 8.2167971,11.777343 a 0.75,0.75 0 0 0 0.851562,0.63086 0.75,0.75 0 0 0 0.63086,-0.853516 C 10.767164,15.726059 7.6158499,11.196874 2.6054688,8.9121094 A 0.75,0.75 0 0 0 2.03125,8.8925781 Z"
     id="path10" />
  <defs
     id="defs17">
    <clipPath
       clipPathUnits="userSpaceOnUse"
       id="clipPath205">
      <g
         id="g209">
        <rect
           width="24"
           height="24"
           stroke-width="1.5"
           fill="#ffffff"
           id="rect207"
           x="0"
           y="0" />
      </g>
    </clipPath>
    <clipPath
       clipPathUnits="userSpaceOnUse"
       id="clipPath211">
      <g
         id="g215">
        <rect
           width="24"
           height="24"
           stroke-width="1.5"
           fill="#ffffff"
           id="rect213"
           x="0"
           y="0" />
      </g>
    </clipPath>
    <clipPath
       clipPathUnits="userSpaceOnUse"
       id="clipPath217">
      <g
         id="g221">
        <rect
           width="24"
           height="24"
           stroke-width="1.5"
           fill="#ffffff"
           id="rect219"
           x="0"
           y="0" />
      </g>
    </clipPath>
    <clipPath
       clipPathUnits="userSpaceOnUse"
       id="clipPath223">
      <g
         id="g227">
        <rect
           width="24"
           height="24"
           stroke-width="1.5"
           fill="#ffffff"
           id="rect225"
           x="0"
           y="0" />
      </g>
    </clipPath>
    <clipPath
       clipPathUnits="userSpaceOnUse"
       id="clipPath229">
      <g
         id="g233">
        <rect
           width="24"
           height="24"
           stroke-width="1.5"
           fill="#ffffff"
           id="rect231"
           x="0"
           y="0" />
      </g>
    </clipPath>
  </defs>
</svg>
