<?xml version="1.0" encoding="UTF-8" standalone="no"?>
<svg
   width="24"
   height="24"
   stroke-width="1.5"
   viewBox="0 0 24 24"
   fill="none"
   version="1.1"
   id="svg10"
   sodipodi:docname="basketball-field.svg"
   inkscape:version="1.2.1 (9c6d41e410, 2022-07-14)"
   xmlns:inkscape="http://www.inkscape.org/namespaces/inkscape"
   xmlns:sodipodi="http://sodipodi.sourceforge.net/DTD/sodipodi-0.dtd"
   xmlns="http://www.w3.org/2000/svg"
   xmlns:svg="http://www.w3.org/2000/svg">
  <defs
     id="defs14" />
  <sodipodi:namedview
     id="namedview12"
     pagecolor="#ffffff"
     bordercolor="#666666"
     borderopacity="1.0"
     inkscape:showpageshadow="2"
     inkscape:pageopacity="0.0"
     inkscape:pagecheckerboard="0"
     inkscape:deskcolor="#d1d1d1"
     showgrid="false"
     inkscape:zoom="34.541667"
     inkscape:cx="10.364294"
     inkscape:cy="12.014475"
     inkscape:window-width="1920"
     inkscape:window-height="1009"
     inkscape:window-x="1912"
     inkscape:window-y="-8"
     inkscape:window-maximized="1"
     inkscape:current-layer="svg10" />
  <path
     style="color:#000000;fill:currentColor;-inkscape-stroke:none"
     d="M 2.5996094,4.25 C 1.8629077,4.25 1.25,4.8629077 1.25,5.5996094 V 18.400391 C 1.25,19.137086 1.862953,19.75 2.5996094,19.75 H 12 21.400391 C 22.13704,19.75 22.75,19.13704 22.75,18.400391 V 5.5996094 C 22.75,4.862953 22.137086,4.25 21.400391,4.25 H 12 Z M 2.75,5.75 h 8.5 v 12.5 h -8.5 z m 10,0 h 8.5 v 12.5 h -8.5 z"
     id="path2" />
  <path
     style="color:#000000;fill:currentColor;stroke-linecap:round;stroke-linejoin:round;-inkscape-stroke:none"
     d="m 12,8.25 c -2.062203,0 -3.75,1.687797 -3.75,3.75 0,2.062203 1.687797,3.75 3.75,3.75 2.062203,0 3.75,-1.687797 3.75,-3.75 0,-2.062203 -1.687797,-3.75 -3.75,-3.75 z m 0,1.5 c 1.251594,0 2.25,0.998406 2.25,2.25 0,1.251594 -0.998406,2.25 -2.25,2.25 -1.251594,0 -2.25,-0.998406 -2.25,-2.25 0,-1.251594 0.998406,-2.25 2.25,-2.25 z"
     id="path4" />
  <path
     style="color:#000000;fill:currentColor;stroke-linecap:round;stroke-linejoin:round;-inkscape-stroke:none"
     d="M 2,6.25 A 0.75,0.75 0 0 0 1.25,7 0.75,0.75 0 0 0 2,7.75 c 2.3560863,0 4.25,1.8939137 4.25,4.25 0,2.356063 -1.8939173,4.25 -4.25,4.25 A 0.75,0.75 0 0 0 1.25,17 0.75,0.75 0 0 0 2,17.75 C 5.1667518,17.75 7.75,15.166731 7.75,12 7.75,8.8332519 5.1667481,6.25 2,6.25 Z"
     id="path6" />
  <path
     style="color:#000000;fill:currentColor;stroke-linecap:round;stroke-linejoin:round;-inkscape-stroke:none"
     d="m 22,6.25 c -3.166731,0 -5.75,2.5832482 -5.75,5.75 0,3.166735 2.583265,5.75 5.75,5.75 A 0.75,0.75 0 0 0 22.75,17 0.75,0.75 0 0 0 22,16.25 c -2.35606,0 -4.25,-1.89394 -4.25,-4.25 0,-2.3560827 1.893937,-4.25 4.25,-4.25 A 0.75,0.75 0 0 0 22.75,7 0.75,0.75 0 0 0 22,6.25 Z"
     id="path8" />
</svg>
