<?xml version="1.0" encoding="UTF-8" standalone="no"?>
<svg
   width="24"
   height="24"
   viewBox="0 0 24 24"
   stroke-width="1.5"
   fill="none"
   version="1.1"
   id="svg12"
   sodipodi:docname="bathroom.svg"
   inkscape:version="1.2.1 (9c6d41e410, 2022-07-14)"
   xmlns:inkscape="http://www.inkscape.org/namespaces/inkscape"
   xmlns:sodipodi="http://sodipodi.sourceforge.net/DTD/sodipodi-0.dtd"
   xmlns="http://www.w3.org/2000/svg"
   xmlns:svg="http://www.w3.org/2000/svg">
  <defs
     id="defs16" />
  <sodipodi:namedview
     id="namedview14"
     pagecolor="#ffffff"
     bordercolor="#666666"
     borderopacity="1.0"
     inkscape:showpageshadow="2"
     inkscape:pageopacity="0.0"
     inkscape:pagecheckerboard="0"
     inkscape:deskcolor="#d1d1d1"
     showgrid="false"
     inkscape:zoom="34.541667"
     inkscape:cx="10.364294"
     inkscape:cy="12.014475"
     inkscape:window-width="1920"
     inkscape:window-height="1009"
     inkscape:window-x="1912"
     inkscape:window-y="-8"
     inkscape:window-maximized="1"
     inkscape:current-layer="svg12" />
  <path
     style="color:#000000;fill:currentColor;stroke-linecap:round;stroke-linejoin:round;-inkscape-stroke:none"
     d="M 3.5996094,12.25 C 2.862953,12.25 2.25,12.862914 2.25,13.599609 V 16 c 0,2.614434 2.1355239,4.75 4.75,4.75 h 10 c 2.614443,0 4.75,-2.135557 4.75,-4.75 V 13 A 0.750075,0.750075 0 0 0 21,12.25 Z M 3.75,13.75 h 16.5 V 16 c 0,1.803752 -1.446248,3.25 -3.25,3.25 H 7 C 5.1962005,19.25 3.75,17.803761 3.75,16 Z"
     id="path2" />
  <path
     style="color:#000000;fill:currentColor;stroke-linecap:round;stroke-linejoin:round;-inkscape-stroke:none"
     d="m 15.664063,19.330078 a 0.75,0.75 0 0 0 -0.333985,1.005859 l 1,2 a 0.75,0.75 0 0 0 1.005859,0.333985 0.75,0.75 0 0 0 0.333985,-1.00586 l -1,-2 a 0.75,0.75 0 0 0 -1.005859,-0.333984 z"
     id="path4" />
  <path
     style="color:#000000;fill:currentColor;stroke-linecap:round;stroke-linejoin:round;-inkscape-stroke:none"
     d="m 8.3359375,19.330078 a 0.75,0.75 0 0 0 -1.0058594,0.333984 l -1,2 a 0.75,0.75 0 0 0 0.3339844,1.00586 0.75,0.75 0 0 0 1.0058594,-0.333985 l 1,-2 A 0.75,0.75 0 0 0 8.3359375,19.330078 Z"
     id="path6" />
  <path
     style="color:#000000;fill:currentColor;stroke-linecap:round;stroke-linejoin:round;-inkscape-stroke:none"
     d="M 12,2.25 A 0.75,0.75 0 0 0 11.25,3 0.75,0.75 0 0 0 12,3.75 h 5 c 1.803761,0 3.25,1.4462005 3.25,3.25 v 6 A 0.75,0.75 0 0 0 21,13.75 0.75,0.75 0 0 0 21.75,13 V 7 C 21.75,4.3855239 19.614434,2.25 17,2.25 Z"
     id="path8" />
  <path
     style="color:#000000;fill:currentColor;stroke-linecap:round;stroke-linejoin:round;-inkscape-stroke:none"
     d="M 12,2.25 C 10.186462,2.25 8.9383656,3.2173508 8.2617188,4.3085937 7.5850719,5.3998367 7.3748383,6.5942463 7.2949219,7.3203125 7.2103753,8.0883664 7.8634079,8.75 8.5996094,8.75 h 6.8007816 c 0.736212,0 1.38933,-0.6616264 1.304687,-1.4296875 C 16.625186,6.5942204 16.414931,5.3998394 15.738281,4.3085937 15.061631,3.2173481 13.813546,2.25 12,2.25 Z m 0,1.5 c 1.323351,0 1.98232,0.5714344 2.464844,1.3496094 0.435072,0.7016484 0.59088,1.5422375 0.675781,2.1503906 H 8.859375 C 8.9442959,6.6418279 9.1000838,5.8012602 9.5351563,5.0996094 10.017681,4.3214317 10.676661,3.75 12,3.75 Z"
     id="path10" />
</svg>
