<?xml version="1.0" encoding="UTF-8" standalone="no"?>
<svg
   width="24"
   height="24"
   stroke-width="1.5"
   viewBox="0 0 24 24"
   fill="none"
   version="1.1"
   id="svg8"
   sodipodi:docname="battery-indicator.svg"
   inkscape:version="1.2.1 (9c6d41e410, 2022-07-14)"
   xmlns:inkscape="http://www.inkscape.org/namespaces/inkscape"
   xmlns:sodipodi="http://sodipodi.sourceforge.net/DTD/sodipodi-0.dtd"
   xmlns="http://www.w3.org/2000/svg"
   xmlns:svg="http://www.w3.org/2000/svg">
  <defs
     id="defs12" />
  <sodipodi:namedview
     id="namedview10"
     pagecolor="#ffffff"
     bordercolor="#666666"
     borderopacity="1.0"
     inkscape:showpageshadow="2"
     inkscape:pageopacity="0.0"
     inkscape:pagecheckerboard="0"
     inkscape:deskcolor="#d1d1d1"
     showgrid="false"
     inkscape:zoom="34.541667"
     inkscape:cx="10.364294"
     inkscape:cy="12.014475"
     inkscape:window-width="1920"
     inkscape:window-height="1009"
     inkscape:window-x="1912"
     inkscape:window-y="-8"
     inkscape:window-maximized="1"
     inkscape:current-layer="svg8" />
  <path
     style="color:#000000;fill:currentColor;stroke-linecap:round;stroke-linejoin:round;-inkscape-stroke:none"
     d="M 14,12.25 A 0.75,0.75 0 0 0 13.25,13 0.75,0.75 0 0 0 14,13.75 h 2 2 A 0.75,0.75 0 0 0 18.75,13 0.75,0.75 0 0 0 18,12.25 h -2 z"
     id="path2" />
  <path
     style="color:#000000;fill:currentColor;stroke-linecap:round;stroke-linejoin:round;-inkscape-stroke:none"
     d="M 8,10.25 A 0.75,0.75 0 0 0 7.25,11 v 1.25 H 6 A 0.75,0.75 0 0 0 5.25,13 0.75,0.75 0 0 0 6,13.75 H 7.25 V 15 A 0.75,0.75 0 0 0 8,15.75 0.75,0.75 0 0 0 8.75,15 V 13.75 H 10 A 0.75,0.75 0 0 0 10.75,13 0.75,0.75 0 0 0 10,12.25 H 8.75 V 11 A 0.75,0.75 0 0 0 8,10.25 Z"
     id="path4" />
  <path
     style="color:#000000;fill:currentColor;stroke-linecap:round;stroke-linejoin:round;-inkscape-stroke:none"
     d="M 6,4.25 A 0.750075,0.750075 0 0 0 5.25,5 V 6.25 H 2.5996094 C 1.8629077,6.25 1.25,6.8629077 1.25,7.5996094 V 18.400391 C 1.25,19.137086 1.862953,19.75 2.5996094,19.75 H 21.400391 C 22.13704,19.75 22.75,19.13704 22.75,18.400391 V 7.5996094 C 22.75,6.862953 22.137086,6.25 21.400391,6.25 H 18.75 V 5 A 0.750075,0.750075 0 0 0 18,4.25 H 16 A 0.750075,0.750075 0 0 0 15.25,5 V 6.25 H 8.75 V 5 A 0.750075,0.750075 0 0 0 8,4.25 Z m 0.75,1.5 h 0.5 v 0.5 h -0.5 z m 10,0 h 0.5 v 0.5 h -0.5 z m -14,2 H 6 h 2 8 2 3.25 v 10.5 H 2.75 Z"
     id="path6" />
</svg>
