<?xml version="1.0" encoding="UTF-8" standalone="no"?>
<svg
   width="24"
   height="24"
   stroke-width="1.5"
   viewBox="0 0 24 24"
   fill="none"
   version="1.1"
   id="svg8"
   sodipodi:docname="battery-charging.svg"
   inkscape:version="1.2.1 (9c6d41e410, 2022-07-14)"
   xmlns:inkscape="http://www.inkscape.org/namespaces/inkscape"
   xmlns:sodipodi="http://sodipodi.sourceforge.net/DTD/sodipodi-0.dtd"
   xmlns="http://www.w3.org/2000/svg"
   xmlns:svg="http://www.w3.org/2000/svg">
  <defs
     id="defs12" />
  <sodipodi:namedview
     id="namedview10"
     pagecolor="#ffffff"
     bordercolor="#666666"
     borderopacity="1.0"
     inkscape:showpageshadow="2"
     inkscape:pageopacity="0.0"
     inkscape:pagecheckerboard="0"
     inkscape:deskcolor="#d1d1d1"
     showgrid="false"
     inkscape:zoom="34.541667"
     inkscape:cx="10.364294"
     inkscape:cy="12.014475"
     inkscape:window-width="1920"
     inkscape:window-height="1009"
     inkscape:window-x="1912"
     inkscape:window-y="-8"
     inkscape:window-maximized="1"
     inkscape:current-layer="svg8" />
  <path
     style="color:#000000;fill:currentColor;stroke-linecap:round;stroke-linejoin:round;-inkscape-stroke:none"
     d="M 23,9.25 A 0.75,0.75 0 0 0 22.25,10 v 4 A 0.75,0.75 0 0 0 23,14.75 0.75,0.75 0 0 0 23.75,14 V 10 A 0.75,0.75 0 0 0 23,9.25 Z"
     id="path2" />
  <path
     style="color:#000000;fill:currentColor;-inkscape-stroke:none"
     d="M 3,5.25 C 1.4901018,5.25 0.25,6.4901018 0.25,8 v 8 c 0,1.509917 1.2401154,2.75 2.75,2.75 h 15 c 1.509904,0 2.75,-1.240096 2.75,-2.75 V 8 C 20.75,6.4901154 19.509917,5.25 18,5.25 Z m 0,1.5 h 15 c 0.699281,0 1.25,0.5507468 1.25,1.25 v 8 c 0,0.699294 -0.550706,1.25 -1.25,1.25 H 3 C 2.3007468,17.25 1.75,16.699281 1.75,16 V 8 C 1.75,7.3007604 2.3007604,6.75 3,6.75 Z"
     id="path4" />
  <path
     style="color:#000000;fill:currentColor;stroke-linecap:round;stroke-linejoin:round;-inkscape-stroke:none"
     d="M 9.9609375,8.2792969 A 0.75,0.75 0 0 0 9.5117188,8.6367188 L 7.84375,11.636719 A 0.750075,0.750075 0 0 0 8.5,12.75 h 2.724609 l -1.046875,1.886719 a 0.75,0.75 0 0 0 0.291016,1.019531 0.75,0.75 0 0 0 1.019531,-0.292969 l 1.667969,-3 A 0.750075,0.750075 0 0 0 12.5,11.25 H 9.7753906 L 10.822266,9.3632813 A 0.75,0.75 0 0 0 10.53125,8.34375 0.75,0.75 0 0 0 9.9609375,8.2792969 Z"
     id="path6" />
</svg>
