<?xml version="1.0" encoding="UTF-8" standalone="no"?>
<svg
   width="24"
   height="24"
   stroke-width="1.5"
   viewBox="0 0 24 24"
   fill="none"
   version="1.1"
   id="svg18"
   sodipodi:docname="bbq.svg"
   inkscape:version="1.2.1 (9c6d41e410, 2022-07-14)"
   xmlns:inkscape="http://www.inkscape.org/namespaces/inkscape"
   xmlns:sodipodi="http://sodipodi.sourceforge.net/DTD/sodipodi-0.dtd"
   xmlns="http://www.w3.org/2000/svg"
   xmlns:svg="http://www.w3.org/2000/svg">
  <defs
     id="defs22" />
  <sodipodi:namedview
     id="namedview20"
     pagecolor="#ffffff"
     bordercolor="#666666"
     borderopacity="1.0"
     inkscape:showpageshadow="2"
     inkscape:pageopacity="0.0"
     inkscape:pagecheckerboard="0"
     inkscape:deskcolor="#d1d1d1"
     showgrid="false"
     inkscape:zoom="34.541667"
     inkscape:cx="10.364294"
     inkscape:cy="12.014475"
     inkscape:window-width="1920"
     inkscape:window-height="1009"
     inkscape:window-x="1912"
     inkscape:window-y="-8"
     inkscape:window-maximized="1"
     inkscape:current-layer="svg18" />
  <path
     style="color:#000000;fill:currentColor;stroke-linecap:round;stroke-linejoin:round;-inkscape-stroke:none"
     d="m 8.2441406,13.794922 a 0.75,0.75 0 0 0 -0.4238281,0.388672 l -3.5,7.5 a 0.75,0.75 0 0 0 0.3632812,0.996093 0.75,0.75 0 0 0 0.9960938,-0.363281 l 3.5,-7.5 A 0.75,0.75 0 0 0 8.8164063,13.820313 0.75,0.75 0 0 0 8.2441406,13.794922 Z"
     id="path2" />
  <path
     style="color:#000000;fill:currentColor;stroke-linecap:round;stroke-linejoin:round;-inkscape-stroke:none"
     d="M 7.8535156,1.2636719 A 0.75,0.75 0 0 0 7.375,1.5839844 0.75,0.75 0 0 0 7.5839844,2.625 C 7.5839844,2.625 8.25,3.0416719 8.25,4 8.25,4.203024 8.0846509,4.6175146 7.8730469,4.9414062 7.6614429,5.2652979 7.4550781,5.4863281 7.4550781,5.4863281 a 0.75,0.75 0 0 0 0.03125,1.0585938 0.75,0.75 0 0 0 1.0585938,-0.03125 c 0,0 0.2936357,-0.3105205 0.5820312,-0.7519532 C 9.4153486,5.3202861 9.75,4.735675 9.75,4 9.75,2.2916708 8.4160156,1.375 8.4160156,1.375 a 0.75,0.75 0 0 0 -0.5625,-0.1113281 z"
     id="path4" />
  <path
     style="color:#000000;fill:currentColor;stroke-linecap:round;stroke-linejoin:round;-inkscape-stroke:none"
     d="M 11.853516,1.2636719 A 0.75,0.75 0 0 0 11.375,1.5839844 0.75,0.75 0 0 0 11.583984,2.625 c 0,0 0.666016,0.4166719 0.666016,1.375 0,0.203024 -0.165349,0.6175146 -0.376953,0.9414062 -0.211604,0.3238917 -0.417969,0.5449219 -0.417969,0.5449219 a 0.75,0.75 0 0 0 0.03125,1.0585938 0.75,0.75 0 0 0 1.058594,-0.03125 c 0,0 0.293636,-0.3105205 0.582031,-0.7519532 C 13.415349,5.3202861 13.75,4.735675 13.75,4 13.75,2.2916708 12.416016,1.375 12.416016,1.375 a 0.75,0.75 0 0 0 -0.5625,-0.1113281 z"
     id="path6" />
  <path
     style="color:#000000;fill:currentColor;stroke-linecap:round;stroke-linejoin:round;-inkscape-stroke:none"
     d="M 16.416016,1.375 A 0.75,0.75 0 0 0 15.375,1.5839844 0.75,0.75 0 0 0 15.583984,2.625 c 0,0 0.666016,0.4166719 0.666016,1.375 0,0.203024 -0.165349,0.6175146 -0.376953,0.9414062 -0.211604,0.3238917 -0.417969,0.5449219 -0.417969,0.5449219 a 0.75,0.75 0 0 0 0.03125,1.0585938 0.75,0.75 0 0 0 1.058594,-0.03125 c 0,0 0.293636,-0.3105205 0.582031,-0.7519532 C 17.415349,5.3202861 17.75,4.735675 17.75,4 17.75,2.2916708 16.416016,1.375 16.416016,1.375 Z"
     id="path8" />
  <path
     style="color:#000000;fill:currentColor;stroke-linejoin:round;-inkscape-stroke:none"
     d="m 7.5,16.75 v 1.5 h 9 v -1.5 z"
     id="path10" />
  <path
     style="color:#000000;fill:currentColor;stroke-linecap:round;stroke-linejoin:round;-inkscape-stroke:none"
     d="m 15.755859,13.794922 a 0.75,0.75 0 0 0 -0.572265,0.02539 0.75,0.75 0 0 0 -0.363281,0.996093 l 2.099609,4.5 a 0.75,0.75 0 0 0 0.998047,0.363281 0.75,0.75 0 0 0 0.361328,-0.996093 l -2.09961,-4.5 a 0.75,0.75 0 0 0 -0.423828,-0.388672 z"
     id="path12" />
  <path
     style="color:#000000;fill:currentColor;stroke-linecap:round;stroke-linejoin:round;-inkscape-stroke:none"
     d="m 18.5,18.25 c -1.233758,0 -2.25,1.016242 -2.25,2.25 0,1.233758 1.016242,2.25 2.25,2.25 1.233758,0 2.25,-1.016242 2.25,-2.25 0,-1.233758 -1.016242,-2.25 -2.25,-2.25 z m 0,1.5 c 0.42304,0 0.75,0.32696 0.75,0.75 0,0.42304 -0.32696,0.75 -0.75,0.75 -0.42304,0 -0.75,-0.32696 -0.75,-0.75 0,-0.42304 0.32696,-0.75 0.75,-0.75 z"
     id="path14" />
  <path
     style="color:#000000;fill:currentColor;-inkscape-stroke:none"
     d="M 5.5996094,7.25 C 4.8615044,7.25 4.2119469,7.8931688 4.2773437,8.6640625 4.6139637,12.631159 7.9518879,15.75 12,15.75 c 4.048139,0 7.386058,-3.118835 7.722656,-7.0859375 C 19.788028,7.8931927 19.138489,7.25 18.400391,7.25 Z m 0.2324218,1.5 H 18.167969 C 17.792367,11.844434 15.202134,14.25 12,14.25 8.7978988,14.25 6.2076495,11.844439 5.8320312,8.75 Z"
     id="path16" />
</svg>
