<?xml version="1.0" encoding="UTF-8" standalone="no"?>
<svg
   width="24"
   height="24"
   stroke-width="1.5"
   viewBox="0 0 24 24"
   fill="none"
   version="1.1"
   id="svg6"
   sodipodi:docname="beach-bag.svg"
   inkscape:version="1.2.1 (9c6d41e410, 2022-07-14)"
   xmlns:inkscape="http://www.inkscape.org/namespaces/inkscape"
   xmlns:sodipodi="http://sodipodi.sourceforge.net/DTD/sodipodi-0.dtd"
   xmlns="http://www.w3.org/2000/svg"
   xmlns:svg="http://www.w3.org/2000/svg">
  <defs
     id="defs10" />
  <sodipodi:namedview
     id="namedview8"
     pagecolor="#ffffff"
     bordercolor="#666666"
     borderopacity="1.0"
     inkscape:showpageshadow="2"
     inkscape:pageopacity="0.0"
     inkscape:pagecheckerboard="0"
     inkscape:deskcolor="#d1d1d1"
     showgrid="false"
     inkscape:zoom="34.541667"
     inkscape:cx="10.364294"
     inkscape:cy="12.014475"
     inkscape:window-width="1920"
     inkscape:window-height="1009"
     inkscape:window-x="1912"
     inkscape:window-y="-8"
     inkscape:window-maximized="1"
     inkscape:current-layer="svg6" />
  <path
     style="color:#000000;fill:currentColor;-inkscape-stroke:none"
     d="m 2.7265625,8.25 c -0.8323019,0 -1.4833472,0.7881391 -1.3261719,1.6054688 l 0.6269532,3.2578122 0.6152343,4 0.5371094,3.492188 C 3.280186,21.25872 3.8546244,21.75 4.515625,21.75 h 14.96875 c 0.660987,0 1.235315,-0.491487 1.335937,-1.144531 l 0.53711,-3.492188 0.615234,-4 0.626953,-3.2578122 C 22.756889,9.0380546 22.105744,8.25 21.273437,8.25 Z m 0.1816406,1.5 H 21.091797 l -0.480469,2.5 H 3.3886719 Z m 0.734375,4 H 20.357422 l -0.384766,2.5 H 4.0273437 Z m 0.6152344,4 H 19.742187 l -0.384765,2.5 H 4.6425781 Z"
     id="path2" />
  <path
     style="color:#000000;fill:currentColor;-inkscape-stroke:none"
     d="M 10,2.25 C 8.4901018,2.25 7.25,3.4901018 7.25,5 v 4 h 1.5 V 5 C 8.75,4.3007604 9.3007604,3.75 10,3.75 h 4 c 0.699281,0 1.25,0.5507468 1.25,1.25 v 4 h 1.5 V 5 C 16.75,3.4901154 15.509917,2.25 14,2.25 Z"
     id="path4" />
</svg>
