<?xml version="1.0" encoding="UTF-8" standalone="no"?>
<svg
   width="24"
   height="24"
   viewBox="0 0 24 24"
   stroke-width="1.5"
   fill="none"
   version="1.1"
   id="svg10"
   sodipodi:docname="bed-ready.svg"
   inkscape:version="1.2.1 (9c6d41e410, 2022-07-14)"
   xmlns:inkscape="http://www.inkscape.org/namespaces/inkscape"
   xmlns:sodipodi="http://sodipodi.sourceforge.net/DTD/sodipodi-0.dtd"
   xmlns="http://www.w3.org/2000/svg"
   xmlns:svg="http://www.w3.org/2000/svg">
  <defs
     id="defs14" />
  <sodipodi:namedview
     id="namedview12"
     pagecolor="#ffffff"
     bordercolor="#666666"
     borderopacity="1.0"
     inkscape:showpageshadow="2"
     inkscape:pageopacity="0.0"
     inkscape:pagecheckerboard="0"
     inkscape:deskcolor="#d1d1d1"
     showgrid="false"
     inkscape:zoom="34.541667"
     inkscape:cx="10.364294"
     inkscape:cy="12.014475"
     inkscape:window-width="1920"
     inkscape:window-height="1009"
     inkscape:window-x="1912"
     inkscape:window-y="-8"
     inkscape:window-maximized="1"
     inkscape:current-layer="svg10" />
  <path
     style="color:#000000;fill:currentColor;stroke-linecap:round;stroke-linejoin:round;-inkscape-stroke:none"
     d="M 5,1.25 C 3.4901018,1.25 2.25,2.4901018 2.25,4 v 16 c 0,1.509917 1.2401154,2.75 2.75,2.75 h 9 A 0.75,0.75 0 0 0 14.75,22 0.75,0.75 0 0 0 14,21.25 H 5 C 4.3007468,21.25 3.75,20.699281 3.75,20 V 4 C 3.75,3.3007604 4.3007604,2.75 5,2.75 h 14 c 0.699281,0 1.25,0.5507468 1.25,1.25 V 16 A 0.75,0.75 0 0 0 21,16.75 0.75,0.75 0 0 0 21.75,16 V 4 C 21.75,2.4901154 20.509917,1.25 19,1.25 Z"
     id="path2" />
  <path
     style="color:#000000;fill:currentColor;stroke-linecap:round;stroke-linejoin:round;-inkscape-stroke:none"
     d="M 11,5.25 A 0.75,0.75 0 0 0 10.25,6 V 7.25 H 3 A 0.75,0.75 0 0 0 2.25,8 0.75,0.75 0 0 0 3,8.75 h 8 A 0.750075,0.750075 0 0 0 11.75,8 V 6 A 0.75,0.75 0 0 0 11,5.25 Z"
     id="path4" />
  <path
     style="color:#000000;fill:currentColor;stroke-linecap:round;stroke-linejoin:round;-inkscape-stroke:none"
     d="M 13,5.25 A 0.75,0.75 0 0 0 12.25,6 V 8 A 0.750075,0.750075 0 0 0 13,8.75 h 8 A 0.75,0.75 0 0 0 21.75,8 0.75,0.75 0 0 0 21,7.25 H 13.75 V 6 A 0.75,0.75 0 0 0 13,5.25 Z"
     id="path6" />
  <path
     style="color:#000000;fill:currentColor;stroke-linecap:round;stroke-linejoin:round;-inkscape-stroke:none"
     d="m 22,17.25 a 0.75,0.75 0 0 0 -0.53125,0.21875 L 18,20.9375 16.53125,19.46875 a 0.75,0.75 0 0 0 -1.0625,0 0.75,0.75 0 0 0 0,1.0625 l 2,2 a 0.750075,0.750075 0 0 0 1.0625,0 l 4,-4 a 0.75,0.75 0 0 0 0,-1.0625 A 0.75,0.75 0 0 0 22,17.25 Z"
     id="path8" />
</svg>
