<?xml version="1.0" encoding="UTF-8" standalone="no"?>
<svg
   width="24"
   height="24"
   viewBox="0 0 24 24"
   stroke-width="1.5"
   fill="none"
   version="1.1"
   id="svg12"
   sodipodi:docname="behance-tag.svg"
   inkscape:version="1.2.1 (9c6d41e410, 2022-07-14)"
   xmlns:inkscape="http://www.inkscape.org/namespaces/inkscape"
   xmlns:sodipodi="http://sodipodi.sourceforge.net/DTD/sodipodi-0.dtd"
   xmlns="http://www.w3.org/2000/svg"
   xmlns:svg="http://www.w3.org/2000/svg">
  <defs
     id="defs16" />
  <sodipodi:namedview
     id="namedview14"
     pagecolor="#ffffff"
     bordercolor="#666666"
     borderopacity="1.0"
     inkscape:showpageshadow="2"
     inkscape:pageopacity="0.0"
     inkscape:pagecheckerboard="0"
     inkscape:deskcolor="#d1d1d1"
     showgrid="false"
     inkscape:zoom="34.541667"
     inkscape:cx="10.364294"
     inkscape:cy="12.014475"
     inkscape:window-width="1920"
     inkscape:window-height="1009"
     inkscape:window-x="1912"
     inkscape:window-y="-8"
     inkscape:window-maximized="1"
     inkscape:current-layer="svg12" />
  <path
     style="color:#000000;fill:currentColor;stroke-linecap:round;stroke-linejoin:round;-inkscape-stroke:none"
     d="M 8,2.25 C 4.8332519,2.25 2.25,4.8332519 2.25,8 v 8 c 0,3.166731 2.5832482,5.75 5.75,5.75 h 8 c 3.166735,0 5.75,-2.583265 5.75,-5.75 V 8 C 21.75,4.8332482 19.166731,2.25 16,2.25 Z m 0,1.5 h 8 c 2.356063,0 4.25,1.8939173 4.25,4.25 v 8 c 0,2.35606 -1.89394,4.25 -4.25,4.25 H 8 C 5.6439173,20.25 3.75,18.356063 3.75,16 V 8 C 3.75,5.6439137 5.6439137,3.75 8,3.75 Z"
     id="path2" />
  <path
     style="color:#000000;fill:currentColor;stroke-linecap:round;stroke-linejoin:round;-inkscape-stroke:none"
     d="M 6,7.25 A 0.750075,0.750075 0 0 0 5.25,8 V 11.826172 16 A 0.750075,0.750075 0 0 0 6,16.75 h 3.0976563 c 0.8395982,0 1.5646117,-0.38002 2.0097657,-0.929687 C 11.552576,15.270645 11.75,14.585695 11.75,13.912109 c 0,-0.673585 -0.197424,-1.356583 -0.642578,-1.90625 -0.06234,-0.07697 -0.167405,-0.117743 -0.240234,-0.1875 0.05598,-0.05204 0.168819,-0.03723 0.21875,-0.09375 C 11.539723,11.210975 11.75,10.556024 11.75,9.9121094 11.75,9.2681952 11.539723,8.6151973 11.085938,8.1015625 10.632152,7.5879277 9.920106,7.25 9.0976563,7.25 Z m 0.75,1.5 h 2.3476563 c 0.4451539,0 0.6852181,0.1399917 0.8652343,0.34375 C 10.142907,9.2975083 10.25,9.5994995 10.25,9.9121094 c 0,0.3126096 -0.107093,0.6165546 -0.2871094,0.8203126 -0.1800162,0.203758 -0.4200804,0.34375 -0.8652343,0.34375 H 6.75 Z m 0,3.826172 h 2.3476563 c 0.4280055,0 0.6551022,0.142062 0.84375,0.375 C 10.130054,13.18411 10.25,13.542221 10.25,13.912109 c 0,0.369889 -0.119946,0.729953 -0.3085937,0.962891 -0.1886478,0.232938 -0.4157445,0.375 -0.84375,0.375 H 6.75 Z"
     id="path4" />
  <path
     style="color:#000000;fill:currentColor;stroke-linecap:round;stroke-linejoin:round;-inkscape-stroke:none"
     d="m 15.5,10.25 c -1.786036,0 -3.25,1.463964 -3.25,3.25 A 0.750075,0.750075 0 0 0 13,14.25 h 5 a 0.750075,0.750075 0 0 0 0.75,-0.75 c 0,-1.786036 -1.463964,-3.25 -3.25,-3.25 z m 0,1.5 c 0.680404,0 1.151188,0.440898 1.441406,1 h -2.882812 c 0.290218,-0.559102 0.761002,-1 1.441406,-1 z"
     id="path6" />
  <path
     style="color:#000000;fill:currentColor;stroke-linecap:round;stroke-linejoin:round;-inkscape-stroke:none"
     d="m 13,12.75 a 0.75,0.75 0 0 0 -0.75,0.75 c 0,1.786036 1.463964,3.25 3.25,3.25 1.101381,0 1.878676,-0.408786 2.322266,-0.818359 a 0.75,0.75 0 0 0 0.04102,-1.060547 0.75,0.75 0 0 0 -1.058594,-0.04102 C 16.604078,15.015304 16.253817,15.25 15.5,15.25 c -0.975361,0 -1.75,-0.774639 -1.75,-1.75 A 0.75,0.75 0 0 0 13,12.75 Z"
     id="path8" />
  <path
     style="color:#000000;fill:currentColor;stroke-linecap:round;stroke-linejoin:round;-inkscape-stroke:none"
     d="M 14,7.75 A 0.75,0.75 0 0 0 13.25,8.5 0.75,0.75 0 0 0 14,9.25 h 3 A 0.75,0.75 0 0 0 17.75,8.5 0.75,0.75 0 0 0 17,7.75 Z"
     id="path10" />
</svg>
