<?xml version="1.0" encoding="UTF-8" standalone="no"?>
<svg
   width="24"
   height="24"
   viewBox="0 0 24 24"
   stroke-width="1.5"
   fill="none"
   version="1.1"
   id="svg10"
   sodipodi:docname="behance.svg"
   inkscape:version="1.2.1 (9c6d41e410, 2022-07-14)"
   xmlns:inkscape="http://www.inkscape.org/namespaces/inkscape"
   xmlns:sodipodi="http://sodipodi.sourceforge.net/DTD/sodipodi-0.dtd"
   xmlns="http://www.w3.org/2000/svg"
   xmlns:svg="http://www.w3.org/2000/svg">
  <defs
     id="defs14" />
  <sodipodi:namedview
     id="namedview12"
     pagecolor="#ffffff"
     bordercolor="#666666"
     borderopacity="1.0"
     inkscape:showpageshadow="2"
     inkscape:pageopacity="0.0"
     inkscape:pagecheckerboard="0"
     inkscape:deskcolor="#d1d1d1"
     showgrid="false"
     inkscape:zoom="34.541667"
     inkscape:cx="10.364294"
     inkscape:cy="12.014475"
     inkscape:window-width="1920"
     inkscape:window-height="1009"
     inkscape:window-x="1912"
     inkscape:window-y="-8"
     inkscape:window-maximized="1"
     inkscape:current-layer="svg10" />
  <path
     style="color:#000000;fill:currentColor;stroke-linecap:round;stroke-linejoin:round;-inkscape-stroke:none"
     d="M 2,4.25 A 0.750075,0.750075 0 0 0 1.25,5 V 11.216797 18 A 0.750075,0.750075 0 0 0 2,18.75 H 8.1972656 C 11.066893,18.75 12.75,16.678804 12.75,14.609375 12.75,13.289098 12.000991,12.02774 10.759766,11.244141 11.994624,10.520297 12.75,9.3572379 12.75,8.109375 12.75,6.1472674 11.039025,4.2500056 8.1972656,4.25 Z m 0.75,1.5 H 8.1972656 C 10.425921,5.7500044 11.25,6.9627882 11.25,8.109375 c 0,1.1465868 -0.824079,2.357422 -3.0527344,2.357422 H 2.75 Z m 0,6.216797 H 8.1972656 C 10.398053,11.966797 11.25,13.287508 11.25,14.609375 11.25,15.931242 10.398053,17.25 8.1972656,17.25 H 2.75 Z"
     id="path2" />
  <path
     style="color:#000000;fill:currentColor;stroke-linecap:round;stroke-linejoin:round;-inkscape-stroke:none"
     d="m 18,8.25 c -2.665098,0 -4.75,2.404404 -4.75,5.25 A 0.750075,0.750075 0 0 0 14,14.25 h 8 A 0.750075,0.750075 0 0 0 22.75,13.5 C 22.75,10.654404 20.665098,8.25 18,8.25 Z m 0,1.5 c 1.531342,0 2.803734,1.270017 3.117187,3 h -6.234374 c 0.313453,-1.729983 1.585845,-3 3.117187,-3 z"
     id="path4" />
  <path
     style="color:#000000;fill:currentColor;stroke-linecap:round;stroke-linejoin:round;-inkscape-stroke:none"
     d="m 14,12.75 a 0.75,0.75 0 0 0 -0.75,0.75 c 0,2.845596 2.084902,5.25 4.75,5.25 1.559073,0 2.648387,-0.593989 3.296875,-1.205078 0.648488,-0.611089 0.90625,-1.283203 0.90625,-1.283203 a 0.75,0.75 0 0 0 -0.441406,-0.964844 0.75,0.75 0 0 0 -0.964844,0.441406 c 0,0 -0.114633,0.327887 -0.527344,0.716797 C 19.85682,16.843988 19.196124,17.25 18,17.25 c -1.753098,0 -3.25,-1.625001 -3.25,-3.75 A 0.75,0.75 0 0 0 14,12.75 Z"
     id="path6" />
  <path
     style="color:#000000;fill:currentColor;stroke-linecap:round;stroke-linejoin:round;-inkscape-stroke:none"
     d="M 15.5,5.25 A 0.75,0.75 0 0 0 14.75,6 0.75,0.75 0 0 0 15.5,6.75 h 5 A 0.75,0.75 0 0 0 21.25,6 0.75,0.75 0 0 0 20.5,5.25 Z"
     id="path8" />
</svg>
