<?xml version="1.0" encoding="UTF-8" standalone="no"?>
<svg
   width="24"
   height="24"
   stroke-width="1.5"
   viewBox="0 0 24 24"
   fill="none"
   version="1.1"
   id="svg8"
   sodipodi:docname="bell-notification.svg"
   inkscape:version="1.2.1 (9c6d41e410, 2022-07-14)"
   xmlns:inkscape="http://www.inkscape.org/namespaces/inkscape"
   xmlns:sodipodi="http://sodipodi.sourceforge.net/DTD/sodipodi-0.dtd"
   xmlns="http://www.w3.org/2000/svg"
   xmlns:svg="http://www.w3.org/2000/svg">
  <defs
     id="defs12" />
  <sodipodi:namedview
     id="namedview10"
     pagecolor="#ffffff"
     bordercolor="#666666"
     borderopacity="1.0"
     inkscape:showpageshadow="2"
     inkscape:pageopacity="0.0"
     inkscape:pagecheckerboard="0"
     inkscape:deskcolor="#d1d1d1"
     showgrid="false"
     inkscape:zoom="34.541667"
     inkscape:cx="10.364294"
     inkscape:cy="12.014475"
     inkscape:window-width="1920"
     inkscape:window-height="1009"
     inkscape:window-x="1912"
     inkscape:window-y="-8"
     inkscape:window-maximized="1"
     inkscape:current-layer="svg8" />
  <path
     style="color:#000000;fill:currentColor;stroke-linecap:round;stroke-linejoin:round;-inkscape-stroke:none"
     d="M 12,1.25 C 10.196837,1.25 8.471721,2.0164865 7.2109375,3.3613281 5.9501535,4.7061592 5.25,6.5167931 5.25,8.4003906 c 0,3.6329004 -0.7266931,5.9059884 -1.4179687,7.2578124 -0.3456379,0.675912 -0.6830695,1.123457 -0.9238282,1.394531 -0.2407586,0.271075 -0.34375,0.335938 -0.34375,0.335938 A 0.750075,0.750075 0 0 0 3,18.75 h 18 a 0.750075,0.750075 0 0 0 0.435547,-1.361328 c 0,0 -0.419592,-0.276185 -1.00586,-1.257813 -0.586267,-0.981627 -1.270263,-2.619558 -1.550781,-5.210937 a 0.75,0.75 0 0 0 -0.826172,-0.666016 0.75,0.75 0 0 0 -0.664062,0.826172 c 0.301382,2.784116 1.050497,4.645817 1.751953,5.820313 0.143349,0.240018 0.152235,0.162023 0.291016,0.349609 H 4.5625 C 4.767223,16.95669 4.9528716,16.76243 5.1679687,16.341797 5.9766916,14.760299 6.75,12.234183 6.75,8.4003906 6.75,6.8892116 7.3150338,5.4423453 8.3046875,4.3867187 9.2943418,3.3310828 10.620566,2.75 12,2.75 c 0.292384,0 0.582422,0.026784 0.867188,0.078125 A 0.75,0.75 0 0 0 13.738281,2.2226563 0.75,0.75 0 0 0 13.132813,1.3515625 C 12.760978,1.2845236 12.382215,1.25 12,1.25 Z"
     id="path2" />
  <path
     style="color:#000000;fill:currentColor;stroke-linecap:round;stroke-linejoin:round;-inkscape-stroke:none"
     d="m 19,1.25 c -2.062218,0 -3.75,1.6878347 -3.75,3.75 0,2.0621653 1.687782,3.75 3.75,3.75 2.062218,0 3.75,-1.6878347 3.75,-3.75 0,-2.0621653 -1.687782,-3.75 -3.75,-3.75 z m 0,1.5 c 1.251579,0 2.25,0.9984686 2.25,2.25 0,1.2515314 -0.998421,2.25 -2.25,2.25 -1.251579,0 -2.25,-0.9984686 -2.25,-2.25 0,-1.2515314 0.998421,-2.25 2.25,-2.25 z"
     id="path4" />
  <path
     style="color:#000000;fill:currentColor;stroke-linecap:round;stroke-linejoin:round;-inkscape-stroke:none"
     d="m 10.462891,20.275391 a 0.75,0.75 0 0 0 -0.5683597,0.07617 0.75,0.75 0 0 0 -0.2734375,1.025391 c 0.2417379,0.416785 0.5883382,0.761562 1.0058592,1.001953 0.417376,0.240445 0.891226,0.367188 1.373047,0.367188 0.481821,0 0.955671,-0.126743 1.373047,-0.367188 0.417724,-0.240428 0.764183,-0.585275 1.005859,-1.001953 a 0.75,0.75 0 0 0 -0.273437,-1.025391 0.75,0.75 0 0 0 -1.023438,0.271485 c -0.109923,0.189521 -0.267356,0.34786 -0.457031,0.457031 a 0.750075,0.750075 0 0 0 -0.002,0 C 12.433224,21.189433 12.218979,21.246094 12,21.246094 c -0.218979,0 -0.433224,-0.05666 -0.623047,-0.166016 -0.189678,-0.109209 -0.349123,-0.267617 -0.458984,-0.457031 a 0.75,0.75 0 0 0 -0.455078,-0.347656 z"
     id="path6" />
</svg>
