<?xml version="1.0" encoding="UTF-8" standalone="no"?>
<svg
   width="24"
   height="24"
   stroke-width="1.5"
   viewBox="0 0 24 24"
   fill="none"
   version="1.1"
   id="svg12"
   sodipodi:docname="bicycle.svg"
   inkscape:version="1.2.1 (9c6d41e410, 2022-07-14)"
   xmlns:inkscape="http://www.inkscape.org/namespaces/inkscape"
   xmlns:sodipodi="http://sodipodi.sourceforge.net/DTD/sodipodi-0.dtd"
   xmlns="http://www.w3.org/2000/svg"
   xmlns:svg="http://www.w3.org/2000/svg">
  <defs
     id="defs16" />
  <sodipodi:namedview
     id="namedview14"
     pagecolor="#ffffff"
     bordercolor="#666666"
     borderopacity="1.0"
     inkscape:showpageshadow="2"
     inkscape:pageopacity="0.0"
     inkscape:pagecheckerboard="0"
     inkscape:deskcolor="#d1d1d1"
     showgrid="false"
     inkscape:zoom="34.541667"
     inkscape:cx="10.364294"
     inkscape:cy="12.014475"
     inkscape:window-width="1920"
     inkscape:window-height="1009"
     inkscape:window-x="1912"
     inkscape:window-y="-8"
     inkscape:window-maximized="1"
     inkscape:current-layer="svg12" />
  <path
     style="color:#000000;fill:currentColor;stroke-linecap:round;stroke-linejoin:round;-inkscape-stroke:none"
     d="m 5,10.25 c -2.6144761,0 -4.75,2.135566 -4.75,4.75 0,2.614434 2.1355239,4.75 4.75,4.75 2.6144761,0 4.75,-2.135566 4.75,-4.75 0,-2.614434 -2.1355239,-4.75 -4.75,-4.75 z m 0,1.5 c 1.8037995,0 3.25,1.446239 3.25,3.25 0,1.803761 -1.4462005,3.25 -3.25,3.25 -1.8037995,0 -3.25,-1.446239 -3.25,-3.25 0,-1.803761 1.4462005,-3.25 3.25,-3.25 z"
     id="path2" />
  <path
     style="color:#000000;fill:currentColor;stroke-linecap:round;stroke-linejoin:round;-inkscape-stroke:none"
     d="M 14,3.75 A 0.75,0.75 0 0 0 13.25,4.5 0.75,0.75 0 0 0 14,5.25 h 1.097656 l -1,1.5 H 8.5 A 0.75,0.75 0 0 0 7.75,7.5 0.75,0.75 0 0 0 8.5,8.25 h 6 0.05078 l 3.78711,7.103516 a 0.75,0.75 0 0 0 1.015625,0.308593 0.75,0.75 0 0 0 0.308593,-1.015625 l -4,-7.4999996 a 0.750075,0.750075 0 0 0 -0.01758,-0.00977 L 16.902344,5.25 H 18.5 A 0.75,0.75 0 0 0 19.25,4.5 0.75,0.75 0 0 0 18.5,3.75 h -2 z"
     id="path4" />
  <path
     style="color:#000000;fill:currentColor;stroke-linecap:round;stroke-linejoin:round;-inkscape-stroke:none"
     d="M 8.4785156,6.75 A 0.750075,0.750075 0 0 0 7.8203125,7.1835937 l -3.5,7.5000003 a 0.75,0.75 0 0 0 0.3632812,0.996094 0.75,0.75 0 0 0 0.9960938,-0.363282 L 8.546875,9.1699219 11.339844,14.355469 A 0.750075,0.750075 0 0 0 12,14.75 h 3 A 0.75,0.75 0 0 0 15.75,14 0.75,0.75 0 0 0 15,13.25 H 12.447266 L 9.1601563,7.1445312 A 0.750075,0.750075 0 0 0 8.4785156,6.75 Z"
     id="path6" />
  <path
     style="color:#000000;fill:currentColor;stroke-linecap:round;stroke-linejoin:round;-inkscape-stroke:none"
     d="M 5,3.75 A 0.75,0.75 0 0 0 4.25,4.5 0.75,0.75 0 0 0 5,5.25 c 0.7499992,0 1.3376502,0.363303 1.8261719,0.8867187 0.4885217,0.5234158 0.8318018,1.2063391 0.9628906,1.5996094 A 0.75,0.75 0 0 0 8.7363281,8.2109375 0.75,0.75 0 0 0 9.2109375,7.2636719 C 9.0086966,6.6569432 8.6019728,5.8398643 7.9238281,5.1132812 7.2456835,4.3866982 6.2499988,3.75 5,3.75 Z"
     id="path8" />
  <path
     style="color:#000000;fill:currentColor;stroke-linecap:round;stroke-linejoin:round;-inkscape-stroke:none"
     d="m 19,10.25 c -2.614443,0 -4.75,2.135557 -4.75,4.75 0,2.614443 2.135557,4.75 4.75,4.75 2.614443,0 4.75,-2.135557 4.75,-4.75 0,-2.614443 -2.135557,-4.75 -4.75,-4.75 z m 0,1.5 c 1.803752,0 3.25,1.446248 3.25,3.25 0,1.803752 -1.446248,3.25 -3.25,3.25 -1.803752,0 -3.25,-1.446248 -3.25,-3.25 0,-1.803752 1.446248,-3.25 3.25,-3.25 z"
     id="path10" />
</svg>
