<?xml version="1.0" encoding="UTF-8" standalone="no"?>
<svg
   width="24"
   height="24"
   stroke-width="1.5"
   viewBox="0 0 24 24"
   fill="none"
   version="1.1"
   id="svg8"
   sodipodi:docname="bin-plus-in.svg"
   inkscape:version="1.2.1 (9c6d41e410, 2022-07-14)"
   xmlns:inkscape="http://www.inkscape.org/namespaces/inkscape"
   xmlns:sodipodi="http://sodipodi.sourceforge.net/DTD/sodipodi-0.dtd"
   xmlns="http://www.w3.org/2000/svg"
   xmlns:svg="http://www.w3.org/2000/svg">
  <defs
     id="defs12" />
  <sodipodi:namedview
     id="namedview10"
     pagecolor="#ffffff"
     bordercolor="#666666"
     borderopacity="1.0"
     inkscape:showpageshadow="2"
     inkscape:pageopacity="0.0"
     inkscape:pagecheckerboard="0"
     inkscape:deskcolor="#d1d1d1"
     showgrid="false"
     inkscape:zoom="34.541667"
     inkscape:cx="10.364294"
     inkscape:cy="12.014475"
     inkscape:window-width="1920"
     inkscape:window-height="1009"
     inkscape:window-x="1912"
     inkscape:window-y="-8"
     inkscape:window-maximized="1"
     inkscape:current-layer="svg8" />
  <path
     style="color:#000000;fill:currentColor;stroke-linecap:round;stroke-linejoin:round;-inkscape-stroke:none"
     d="m 11.992188,10.25 a 0.75,0.75 0 0 0 -0.75,0.75 v 2.25 H 8.9921875 a 0.75,0.75 0 0 0 -0.75,0.75 0.75,0.75 0 0 0 0.75,0.75 H 11.242188 V 17 a 0.75,0.75 0 0 0 0.75,0.75 0.75,0.75 0 0 0 0.75,-0.75 v -2.25 h 2.25 a 0.75,0.75 0 0 0 0.75,-0.75 0.75,0.75 0 0 0 -0.75,-0.75 h -2.25 V 11 a 0.75,0.75 0 0 0 -0.75,-0.75 z"
     id="path2" />
  <path
     style="color:#000000;fill:currentColor;-inkscape-stroke:none"
     d="M 12,1.25 C 6.1981685,1.25 3.6403479,2.6025716 2.796875,3.203125 2.3973628,3.4875836 2.2389148,3.972548 2.2949219,4.3925781 L 3.9941406,17.136719 c 0.1956982,1.467825 1.0658886,2.76146 2.3515625,3.496093 l 0.3203125,0.183594 c 3.30387,1.887993 7.3640894,1.887993 10.6679684,0 l 0.320313,-0.183594 c 1.285633,-0.73463 2.155941,-2.028219 2.351562,-3.496093 L 21.705078,4.3925781 C 21.761082,3.9725743 21.602603,3.4876155 21.203125,3.203125 20.359636,2.6025741 17.801831,1.25 12,1.25 Z m 0,1.5 c 5.398271,0 7.560873,1.1854435 8.193359,1.6152344 L 18.517578,16.939453 c -0.133978,1.005323 -0.726857,1.887457 -1.607422,2.390625 l -0.320312,0.183594 c -2.844715,1.625604 -6.334984,1.625603 -9.1796878,0 L 7.0917969,19.330078 h -0.00195 C 6.2092599,18.826913 5.6164634,17.944825 5.4824219,16.939453 L 3.8066406,4.3652344 C 4.4390876,3.935463 6.6017303,2.75 12,2.75 Z"
     id="path4" />
  <path
     style="color:#000000;fill:currentColor;-inkscape-stroke:none"
     d="M 3.5390625,4.4785156 2.4609375,5.5214844 C 3.3205695,6.4129519 4.7075209,6.8869117 6.3828125,7.234375 8.0581041,7.5818383 10.028219,7.7500026 12,7.75 c 1.971781,-2.6e-6 3.9419,-0.1681606 5.617187,-0.515625 1.675288,-0.3474644 3.062249,-0.8214322 3.921875,-1.7128906 L 20.460937,4.4785156 C 20.034865,4.9203659 18.851493,5.4464289 17.3125,5.765625 15.773507,6.0848211 13.885362,6.2499976 12,6.25 10.114638,6.2500024 8.2264955,6.0848198 6.6875,5.765625 5.1485045,5.4464302 3.9651442,4.9203768 3.5390625,4.4785156 Z"
     id="path6" />
</svg>
