<?xml version="1.0" encoding="UTF-8" standalone="no"?>
<svg
   width="24"
   height="24"
   viewBox="0 0 24 24"
   stroke-width="1.5"
   fill="none"
   version="1.1"
   id="svg10"
   sodipodi:docname="binocular.svg"
   inkscape:version="1.2.1 (9c6d41e410, 2022-07-14)"
   xmlns:inkscape="http://www.inkscape.org/namespaces/inkscape"
   xmlns:sodipodi="http://sodipodi.sourceforge.net/DTD/sodipodi-0.dtd"
   xmlns="http://www.w3.org/2000/svg"
   xmlns:svg="http://www.w3.org/2000/svg">
  <defs
     id="defs14" />
  <sodipodi:namedview
     id="namedview12"
     pagecolor="#ffffff"
     bordercolor="#666666"
     borderopacity="1.0"
     inkscape:showpageshadow="2"
     inkscape:pageopacity="0.0"
     inkscape:pagecheckerboard="0"
     inkscape:deskcolor="#d1d1d1"
     showgrid="false"
     inkscape:zoom="34.541667"
     inkscape:cx="10.364294"
     inkscape:cy="12.014475"
     inkscape:window-width="1920"
     inkscape:window-height="1009"
     inkscape:window-x="1912"
     inkscape:window-y="-8"
     inkscape:window-maximized="1"
     inkscape:current-layer="svg10" />
  <path
     style="color:#000000;fill:currentColor;stroke-linecap:round;stroke-linejoin:round;-inkscape-stroke:none"
     d="M 8.5,4.25 C 7.2500013,4.25 6.4195205,4.9851777 6.0800781,5.6640625 5.8914862,6.0412464 5.930915,6.1516317 5.8964844,6.40625 4.998425,6.5918441 4.2821291,7.0417966 3.9003906,7.5507812 3.4293911,8.1787806 3.2714844,8.8183594 3.2714844,8.8183594 L 1.78125,13.785156 A 0.75,0.75 0 0 0 2.2851563,14.71875 0.75,0.75 0 0 0 3.21875,14.214844 l 1.5,-5.0000002 a 0.750075,0.750075 0 0 0 0.00977,-0.033203 c 0,0 0.092094,-0.3604222 0.3710938,-0.7324218 C 5.3786091,8.0772191 5.7500007,7.75 6.5,7.75 A 0.750075,0.750075 0 0 0 7.25,7 c 0,0 0.00936,-0.3429483 0.1699219,-0.6640625 C 7.580479,6.0148233 7.7500008,5.75 8.5,5.75 9.2499993,5.75 9.419521,6.0148233 9.5800781,6.3359375 9.7406352,6.6570517 9.75,7 9.75,7 a 0.750075,0.750075 0 0 0 0.75,0.75 h 3 A 0.750075,0.750075 0 0 0 14.25,7 c 0,0 0.0094,-0.3429483 0.169922,-0.6640625 C 14.580479,6.0148233 14.750001,5.75 15.5,5.75 c 0.749999,0 0.919521,0.2648233 1.080078,0.5859375 C 16.740635,6.6570517 16.75,7 16.75,7 a 0.750075,0.750075 0 0 0 0.75,0.75 c 0.749999,0 1.121391,0.3272191 1.400391,0.6992188 0.278999,0.3719996 0.371093,0.7324218 0.371093,0.7324218 a 0.750075,0.750075 0 0 0 0.0098,0.033203 l 1.5,5.0000002 a 0.75,0.75 0 0 0 0.933594,0.503906 0.75,0.75 0 0 0 0.503906,-0.933594 L 20.728516,8.8183594 c 0,0 -0.157907,-0.6395788 -0.628907,-1.2675782 C 19.717871,7.0417966 19.001575,6.5918441 18.103516,6.40625 18.069085,6.1516317 18.108514,6.0412464 17.919922,5.6640625 17.580479,4.9851777 16.749999,4.25 15.5,4.25 14.250001,4.25 13.419521,4.9851777 13.080078,5.6640625 12.931214,5.9617906 12.980255,6.0143632 12.935547,6.25 H 11.064453 C 11.019745,6.0143632 11.068786,5.9617906 10.919922,5.6640625 10.580479,4.9851777 9.7499987,4.25 8.5,4.25 Z"
     id="path2" />
  <path
     style="color:#000000;fill:currentColor;stroke-linecap:round;stroke-linejoin:round;-inkscape-stroke:none"
     d="m 6,11.25 c -2.6144761,0 -4.75,2.135566 -4.75,4.75 0,2.614434 2.1355239,4.75 4.75,4.75 2.6144761,0 4.75,-2.135566 4.75,-4.75 0,-2.614434 -2.1355239,-4.75 -4.75,-4.75 z m 0,1.5 c 1.8037995,0 3.25,1.446239 3.25,3.25 0,1.803761 -1.4462005,3.25 -3.25,3.25 -1.8037995,0 -3.25,-1.446239 -3.25,-3.25 0,-1.803761 1.4462005,-3.25 3.25,-3.25 z"
     id="path4" />
  <path
     style="color:#000000;fill:currentColor;stroke-linecap:round;stroke-linejoin:round;-inkscape-stroke:none"
     d="m 18,11.25 c -2.614443,0 -4.75,2.135557 -4.75,4.75 0,2.614443 2.135557,4.75 4.75,4.75 2.614443,0 4.75,-2.135557 4.75,-4.75 0,-2.614443 -2.135557,-4.75 -4.75,-4.75 z m 0,1.5 c 1.803752,0 3.25,1.446248 3.25,3.25 0,1.803752 -1.446248,3.25 -3.25,3.25 -1.803752,0 -3.25,-1.446248 -3.25,-3.25 0,-1.803752 1.446248,-3.25 3.25,-3.25 z"
     id="path6" />
  <path
     style="color:#000000;fill:currentColor;stroke-linecap:round;stroke-linejoin:round;-inkscape-stroke:none"
     d="m 12,11.25 c -1.509904,0 -2.75,1.240096 -2.75,2.75 0,1.509904 1.240096,2.75 2.75,2.75 1.509904,0 2.75,-1.240096 2.75,-2.75 0,-1.509904 -1.240096,-2.75 -2.75,-2.75 z m 0,1.5 c 0.699294,0 1.25,0.550706 1.25,1.25 0,0.699294 -0.550706,1.25 -1.25,1.25 -0.699294,0 -1.25,-0.550706 -1.25,-1.25 0,-0.699294 0.550706,-1.25 1.25,-1.25 z"
     id="path8" />
</svg>
