<?xml version="1.0" encoding="UTF-8" standalone="no"?>
<svg
   width="24"
   height="24"
   viewBox="0 0 24 24"
   stroke-width="1.5"
   fill="none"
   version="1.1"
   id="svg16"
   sodipodi:docname="birthday-cake.svg"
   inkscape:version="1.2.1 (9c6d41e410, 2022-07-14)"
   xmlns:inkscape="http://www.inkscape.org/namespaces/inkscape"
   xmlns:sodipodi="http://sodipodi.sourceforge.net/DTD/sodipodi-0.dtd"
   xmlns="http://www.w3.org/2000/svg"
   xmlns:svg="http://www.w3.org/2000/svg">
  <defs
     id="defs20" />
  <sodipodi:namedview
     id="namedview18"
     pagecolor="#ffffff"
     bordercolor="#666666"
     borderopacity="1.0"
     inkscape:showpageshadow="2"
     inkscape:pageopacity="0.0"
     inkscape:pagecheckerboard="0"
     inkscape:deskcolor="#d1d1d1"
     showgrid="false"
     inkscape:zoom="34.541667"
     inkscape:cx="10.364294"
     inkscape:cy="12.014475"
     inkscape:window-width="1920"
     inkscape:window-height="1009"
     inkscape:window-x="1912"
     inkscape:window-y="-8"
     inkscape:window-maximized="1"
     inkscape:current-layer="svg16" />
  <path
     style="color:#000000;fill:currentColor;stroke-linecap:round;stroke-linejoin:round;-inkscape-stroke:none"
     d="M 4,15.75 A 0.75,0.75 0 0 0 3.25,16.5 V 20 c 0,1.509917 1.2401154,2.75 2.75,2.75 h 12 c 1.509904,0 2.75,-1.240096 2.75,-2.75 V 16.5 A 0.75,0.75 0 0 0 20,15.75 0.75,0.75 0 0 0 19.25,16.5 V 20 c 0,0.699294 -0.550706,1.25 -1.25,1.25 H 6 C 5.3007468,21.25 4.75,20.699281 4.75,20 V 16.5 A 0.75,0.75 0 0 0 4,15.75 Z"
     id="path2" />
  <path
     style="color:#000000;fill:currentColor;stroke-linecap:round;stroke-linejoin:round;-inkscape-stroke:none"
     d="m 5,10.25 c -1.5098846,0 -2.75,1.240083 -2.75,2.75 v 1 A 0.75,0.75 0 0 0 3,14.75 0.75,0.75 0 0 0 3.75,14 v -1 c 0,-0.699281 0.5507468,-1.25 1.25,-1.25 h 14 c 0.699294,0 1.25,0.550706 1.25,1.25 v 1 A 0.75,0.75 0 0 0 21,14.75 0.75,0.75 0 0 0 21.75,14 v -1 c 0,-1.509904 -1.240096,-2.75 -2.75,-2.75 z"
     id="path4" />
  <path
     style="color:#000000;fill:currentColor;stroke-linecap:round;stroke-linejoin:round;-inkscape-stroke:none"
     d="M 12,7.25 A 0.75,0.75 0 0 0 11.25,8 v 3 A 0.75,0.75 0 0 0 12,11.75 0.75,0.75 0 0 0 12.75,11 V 8 A 0.75,0.75 0 0 0 12,7.25 Z"
     id="path6" />
  <path
     style="color:#000000;fill:currentColor;stroke-linecap:round;stroke-linejoin:round;-inkscape-stroke:none"
     d="m 11.511719,1.4316406 c 0,0 -0.552762,0.4730944 -1.101563,1.171875 C 9.8613559,3.3022962 9.25,4.2447987 9.25,5.375 9.25,6.3147196 9.4527711,7.1377104 9.9296875,7.7636719 10.406604,8.3896334 11.177073,8.75 12,8.75 12.822927,8.75 13.593396,8.3896334 14.070313,7.7636719 14.547229,7.1377104 14.75,6.3147196 14.75,5.375 14.75,4.2447987 14.138644,3.3022962 13.589844,2.6035156 13.041043,1.904735 12.488281,1.4316406 12.488281,1.4316406 a 0.750075,0.750075 0 0 0 -0.976562,0 z M 12,3.0898438 c 0.162329,0.1649588 0.203983,0.176935 0.410156,0.4394531 C 12.861355,4.1038025 13.25,4.848353 13.25,5.375 13.25,6.0921288 13.084436,6.5811905 12.876953,6.8535156 12.66947,7.1258407 12.439472,7.25 12,7.25 11.560528,7.25 11.33053,7.1258407 11.123047,6.8535156 10.915564,6.5811905 10.75,6.0921288 10.75,5.375 10.75,4.848353 11.138645,4.1038025 11.589844,3.5292969 11.796017,3.2667788 11.837671,3.2548026 12,3.0898438 Z"
     id="path8" />
  <path
     style="color:#000000;fill:currentColor;stroke-linecap:round;stroke-linejoin:round;-inkscape-stroke:none"
     d="M 3,13.25 A 0.75,0.75 0 0 0 2.25,14 c 0,2.062218 1.6878347,3.75 3.75,3.75 2.0621653,0 3.75,-1.687782 3.75,-3.75 A 0.75,0.75 0 0 0 9,13.25 0.75,0.75 0 0 0 8.25,14 C 8.25,15.251579 7.2515314,16.25 6,16.25 4.7484686,16.25 3.75,15.251579 3.75,14 A 0.75,0.75 0 0 0 3,13.25 Z"
     id="path10" />
  <path
     style="color:#000000;fill:currentColor;stroke-linecap:round;stroke-linejoin:round;-inkscape-stroke:none"
     d="M 9,13.25 A 0.75,0.75 0 0 0 8.25,14 c 0,2.062203 1.687797,3.75 3.75,3.75 2.062203,0 3.75,-1.687797 3.75,-3.75 A 0.75,0.75 0 0 0 15,13.25 0.75,0.75 0 0 0 14.25,14 c 0,1.251594 -0.998406,2.25 -2.25,2.25 -1.251594,0 -2.25,-0.998406 -2.25,-2.25 A 0.75,0.75 0 0 0 9,13.25 Z"
     id="path12" />
  <path
     style="color:#000000;fill:currentColor;stroke-linecap:round;stroke-linejoin:round;-inkscape-stroke:none"
     d="M 15,13.25 A 0.75,0.75 0 0 0 14.25,14 c 0,2.062203 1.687797,3.75 3.75,3.75 2.062203,0 3.75,-1.687797 3.75,-3.75 A 0.75,0.75 0 0 0 21,13.25 0.75,0.75 0 0 0 20.25,14 c 0,1.251594 -0.998406,2.25 -2.25,2.25 -1.251594,0 -2.25,-0.998406 -2.25,-2.25 A 0.75,0.75 0 0 0 15,13.25 Z"
     id="path14" />
</svg>
