<?xml version="1.0" encoding="UTF-8" standalone="no"?>
<svg
   width="24"
   height="24"
   viewBox="0 0 24 24"
   stroke-width="1.5"
   fill="none"
   version="1.1"
   id="svg12"
   sodipodi:docname="bishop.svg"
   inkscape:version="1.2.1 (9c6d41e410, 2022-07-14)"
   xmlns:inkscape="http://www.inkscape.org/namespaces/inkscape"
   xmlns:sodipodi="http://sodipodi.sourceforge.net/DTD/sodipodi-0.dtd"
   xmlns="http://www.w3.org/2000/svg"
   xmlns:svg="http://www.w3.org/2000/svg">
  <defs
     id="defs16" />
  <sodipodi:namedview
     id="namedview14"
     pagecolor="#ffffff"
     bordercolor="#666666"
     borderopacity="1.0"
     inkscape:showpageshadow="2"
     inkscape:pageopacity="0.0"
     inkscape:pagecheckerboard="0"
     inkscape:deskcolor="#d1d1d1"
     showgrid="false"
     inkscape:zoom="34.541667"
     inkscape:cx="10.364294"
     inkscape:cy="12.014475"
     inkscape:window-width="1920"
     inkscape:window-height="1009"
     inkscape:window-x="1912"
     inkscape:window-y="-8"
     inkscape:window-maximized="1"
     inkscape:current-layer="svg12" />
  <path
     style="color:#000000;fill:currentColor;stroke-linecap:round;-inkscape-stroke:none"
     d="M 7,16.25 A 0.75,0.75 0 0 0 6.25,17 0.75,0.75 0 0 0 7,17.75 H 17 A 0.75,0.75 0 0 0 17.75,17 0.75,0.75 0 0 0 17,16.25 Z"
     id="path2" />
  <path
     style="color:#000000;fill:currentColor;stroke-linecap:round;-inkscape-stroke:none"
     d="M 9,11.25 A 0.75,0.75 0 0 0 8.25,12 0.75,0.75 0 0 0 9,12.75 h 6 A 0.75,0.75 0 0 0 15.75,12 0.75,0.75 0 0 0 15,11.25 Z"
     id="path4" />
  <path
     style="color:#000000;fill:currentColor;stroke-linecap:round;-inkscape-stroke:none"
     d="M 12,1.25 A 0.75,0.75 0 0 0 11.25,2 V 3 A 0.75,0.75 0 0 0 12,3.75 0.75,0.75 0 0 0 12.75,3 V 2 A 0.75,0.75 0 0 0 12,1.25 Z"
     id="path6" />
  <path
     style="color:#000000;fill:currentColor;stroke-linecap:round;-inkscape-stroke:none"
     d="m 12,2.625 c -0.399167,0 -0.79753,0.1702816 -1.048828,0.5117188 C 10.474577,3.7841926 9.7228487,4.8729118 9.1289063,6.0839844 8.5349638,7.2950569 8.0445124,8.627035 8.3242188,9.9101563 8.5626667,11.004036 9.208516,11.770384 9.9238281,12.197266 10.63914,12.624147 11.396937,12.75 12,12.75 c 0.603063,0 1.360861,-0.125854 2.076172,-0.552734 0.715311,-0.426881 1.36115,-1.193234 1.599609,-2.2871097 C 15.955509,8.6270277 15.465043,7.2950578 14.871094,6.0839844 14.277144,4.8729109 13.52542,3.7841885 13.048828,3.1367188 12.79753,2.7952816 12.399167,2.625 12,2.625 Z m 0,1.65625 c 0.444293,0.6176302 1.044036,1.4853824 1.523438,2.4628906 0.529199,1.0790468 0.827371,2.2041037 0.6875,2.8457032 C 14.055197,10.304266 13.718928,10.66216 13.306641,10.908203 12.894353,11.154247 12.377936,11.25 12,11.25 c -0.377936,0 -0.894354,-0.09575 -1.306641,-0.341797 C 10.281073,10.66216 9.9447942,10.304263 9.7890625,9.5898438 9.6491992,8.9482369 9.9473686,7.8231883 10.476563,6.7441406 10.955959,5.7666315 11.555711,4.8988772 12,4.28125 Z"
     id="path8" />
  <path
     style="color:#000000;fill:currentColor;stroke-linecap:round;-inkscape-stroke:none"
     d="m 10.849609,11.25 c -0.738762,0 -1.2804444,0.566922 -1.3945309,1.216797 C 9.2747759,13.493166 8.5155799,15.118669 7.6289062,16.65625 6.7422326,18.193831 5.7375156,19.676329 5.0878906,20.597656 4.4748334,21.467181 5.1324135,22.75 6.1992187,22.75 H 17.800781 c 1.06681,0 1.724378,-1.282798 1.111328,-2.152344 C 18.262471,19.676331 17.25777,18.193839 16.371094,16.65625 15.484417,15.118661 14.725194,13.493202 14.544922,12.466797 14.430806,11.816953 13.889153,11.25 13.150391,11.25 Z m 0.07227,1.5 h 2.15625 c 0.254134,1.416544 1.075598,3.063401 1.994141,4.65625 0.874755,1.516916 1.812903,2.893765 2.478515,3.84375 H 6.4492187 C 7.1148152,20.300016 8.0529861,18.923151 8.9277344,17.40625 9.8462698,15.813418 10.667702,14.166481 10.921875,12.75 Z"
     id="path10" />
</svg>
