<?xml version="1.0" encoding="UTF-8" standalone="no"?>
<svg
   width="24"
   height="24"
   viewBox="0 0 24 24"
   stroke-width="1.5"
   fill="none"
   version="1.1"
   id="svg16"
   sodipodi:docname="bitcoin-rotate-out.svg"
   inkscape:version="1.2.1 (9c6d41e410, 2022-07-14)"
   xmlns:inkscape="http://www.inkscape.org/namespaces/inkscape"
   xmlns:sodipodi="http://sodipodi.sourceforge.net/DTD/sodipodi-0.dtd"
   xmlns="http://www.w3.org/2000/svg"
   xmlns:svg="http://www.w3.org/2000/svg">
  <defs
     id="defs20" />
  <sodipodi:namedview
     id="namedview18"
     pagecolor="#ffffff"
     bordercolor="#666666"
     borderopacity="1.0"
     inkscape:showpageshadow="2"
     inkscape:pageopacity="0.0"
     inkscape:pagecheckerboard="0"
     inkscape:deskcolor="#d1d1d1"
     showgrid="false"
     inkscape:zoom="34.541667"
     inkscape:cx="10.364294"
     inkscape:cy="12.014475"
     inkscape:window-width="1920"
     inkscape:window-height="1009"
     inkscape:window-x="1912"
     inkscape:window-y="-8"
     inkscape:window-maximized="1"
     inkscape:current-layer="svg16" />
  <path
     style="color:#000000;fill:currentColor;stroke-linecap:round;stroke-linejoin:round;-inkscape-stroke:none"
     d="M 12,1.25 C 6.434132,1.25 1.841933,5.494977 1.3027344,10.925781 a 0.75,0.75 0 0 0 0.671875,0.820313 0.75,0.75 0 0 0 0.8203125,-0.671875 C 3.2591623,6.3983931 7.1952584,2.75 12,2.75 c 3.799749,0 7.053674,2.2853793 8.480469,5.5507813 A 0.75,0.75 0 0 0 21.46875,8.6875 0.75,0.75 0 0 0 21.855469,7.6992187 C 20.195867,3.9010078 16.401643,1.25 12,1.25 Z"
     id="path2" />
  <path
     style="color:#000000;fill:currentColor;stroke-linecap:round;stroke-linejoin:round;-inkscape-stroke:none"
     d="M 22,3.25 A 0.75,0.75 0 0 0 21.25,4 V 7.25 H 18 A 0.75,0.75 0 0 0 17.25,8 0.75,0.75 0 0 0 18,8.75 h 3.400391 C 22.137086,8.75 22.75,8.137047 22.75,7.4003906 V 4 A 0.75,0.75 0 0 0 22,3.25 Z"
     id="path4" />
  <path
     style="color:#000000;fill:currentColor;stroke-linecap:round;stroke-linejoin:round;-inkscape-stroke:none"
     d="m 22.074219,12.253906 a 0.75,0.75 0 0 0 -0.820313,0.671875 C 20.789685,17.601579 16.853557,21.25 12.048828,21.25 8.2491235,21.25 4.9950717,18.964592 3.5683594,15.699219 A 0.75,0.75 0 0 0 2.5820313,15.3125 0.75,0.75 0 0 0 2.1933594,16.300781 C 3.852884,20.099001 7.647221,22.75 12.048828,22.75 c 5.565861,0 10.158088,-4.244989 10.697266,-9.675781 a 0.75,0.75 0 0 0 -0.671875,-0.820313 z"
     id="path6" />
  <path
     style="color:#000000;fill:currentColor;stroke-linecap:round;stroke-linejoin:round;-inkscape-stroke:none"
     d="m 2.6484375,15.25 c -0.7366564,0 -1.3496094,0.612914 -1.3496094,1.349609 V 20 a 0.75,0.75 0 0 0 0.75,0.75 0.75,0.75 0 0 0 0.75,-0.75 v -3.25 h 3.25 a 0.75,0.75 0 0 0 0.75,-0.75 0.75,0.75 0 0 0 -0.75,-0.75 z"
     id="path8" />
  <path
     style="color:#000000;fill:currentColor;-inkscape-stroke:none"
     d="M 9.5957031,6.2539062 C 8.8611107,6.2582068 8.25,6.8687565 8.25,7.6054687 V 11.25 12 12.75 c 2.35e-5,1.042917 0,2.577075 0,3.644531 0,0.736695 0.6110847,1.34735 1.3457031,1.351563 1.4793899,0.0087 2.8646749,0.05491 4.0390629,-0.310547 0.587193,-0.182728 1.141957,-0.492706 1.533203,-1 C 15.559215,15.928253 15.75,15.261283 15.75,14.5 15.75,13.677419 15.50322,12.960522 15.041016,12.449219 14.823487,12.208582 14.498843,12.150291 14.224609,12 14.498843,11.849709 14.823487,11.791418 15.041016,11.550781 15.50322,11.039478 15.75,10.322581 15.75,9.5 c 0,-0.7612847 -0.190787,-1.4282525 -0.582031,-1.9355469 -0.391245,-0.5072943 -0.946015,-0.8172708 -1.533203,-1 C 12.460388,6.1989948 11.075054,6.245248 9.5957031,6.2539062 Z M 9.75,7.7636719 c 1.411967,-0.00669 2.687422,-0.00161 3.439453,0.2324218 0.392029,0.1219968 0.631278,0.2797886 0.789063,0.4843751 C 14.1363,8.6850552 14.25,8.975281 14.25,9.5 c 0,0.549218 -0.12822,0.830264 -0.322266,1.044922 -0.194045,0.214658 -0.510494,0.387052 -0.984375,0.505859 -0.767513,0.192424 -1.990378,0.164873 -3.193359,0.16211 z m 0,5.0234371 c 1.202981,-0.0028 2.425846,-0.03031 3.193359,0.16211 0.473881,0.118807 0.79033,0.291201 0.984375,0.505859 C 14.12178,13.669736 14.25,13.950782 14.25,14.5 c 0,0.524716 -0.113699,0.814945 -0.271484,1.019531 -0.157786,0.204586 -0.39703,0.362379 -0.789063,0.484375 -0.752039,0.234027 -2.027458,0.239131 -3.439453,0.232422 3.7e-6,-1.063048 2.09e-5,-2.448754 0,-3.449219 z"
     id="path10" />
  <path
     style="color:#000000;fill:currentColor;stroke-linecap:round;stroke-linejoin:round;-inkscape-stroke:none"
     d="M 12,4.75 A 0.75,0.75 0 0 0 11.25,5.5 V 7 A 0.75,0.75 0 0 0 12,7.75 0.75,0.75 0 0 0 12.75,7 V 5.5 A 0.75,0.75 0 0 0 12,4.75 Z"
     id="path12" />
  <path
     style="color:#000000;fill:currentColor;stroke-linecap:round;stroke-linejoin:round;-inkscape-stroke:none"
     d="M 12,16.25 A 0.75,0.75 0 0 0 11.25,17 v 1.5 A 0.75,0.75 0 0 0 12,19.25 0.75,0.75 0 0 0 12.75,18.5 V 17 A 0.75,0.75 0 0 0 12,16.25 Z"
     id="path14" />
</svg>
