<?xml version="1.0" encoding="UTF-8" standalone="no"?>
<svg
   width="24"
   height="24"
   viewBox="0 0 24 24"
   stroke-width="1.5"
   fill="none"
   version="1.1"
   id="svg10"
   sodipodi:docname="bitcoin-circle.svg"
   inkscape:version="1.2.1 (9c6d41e410, 2022-07-14)"
   xmlns:inkscape="http://www.inkscape.org/namespaces/inkscape"
   xmlns:sodipodi="http://sodipodi.sourceforge.net/DTD/sodipodi-0.dtd"
   xmlns="http://www.w3.org/2000/svg"
   xmlns:svg="http://www.w3.org/2000/svg">
  <defs
     id="defs14" />
  <sodipodi:namedview
     id="namedview12"
     pagecolor="#ffffff"
     bordercolor="#666666"
     borderopacity="1.0"
     inkscape:showpageshadow="2"
     inkscape:pageopacity="0.0"
     inkscape:pagecheckerboard="0"
     inkscape:deskcolor="#d1d1d1"
     showgrid="false"
     inkscape:zoom="34.541667"
     inkscape:cx="10.364294"
     inkscape:cy="12.014475"
     inkscape:window-width="1920"
     inkscape:window-height="1009"
     inkscape:window-x="1912"
     inkscape:window-y="-8"
     inkscape:window-maximized="1"
     inkscape:current-layer="svg10" />
  <path
     style="color:#000000;fill:currentColor;-inkscape-stroke:none"
     d="M 9.5957031,6.2539062 C 8.8611107,6.2582068 8.25,6.8687565 8.25,7.6054687 V 11.25 12 12.75 c 2.35e-5,1.042917 0,2.577075 0,3.644531 0,0.736695 0.6110847,1.34735 1.3457031,1.351563 1.4793899,0.0087 2.8646749,0.05491 4.0390629,-0.310547 0.587193,-0.182728 1.141957,-0.492706 1.533203,-1 C 15.559215,15.928253 15.75,15.261283 15.75,14.5 15.75,13.677419 15.50322,12.960522 15.041016,12.449219 14.823487,12.208582 14.498843,12.150291 14.224609,12 14.498843,11.849709 14.823487,11.791418 15.041016,11.550781 15.50322,11.039478 15.75,10.322581 15.75,9.5 c 0,-0.7612847 -0.190787,-1.4282525 -0.582031,-1.9355469 -0.391245,-0.5072943 -0.946015,-0.8172708 -1.533203,-1 C 12.460388,6.1989948 11.075054,6.245248 9.5957031,6.2539062 Z M 9.75,7.7636719 c 1.411967,-0.00669 2.687422,-0.00161 3.439453,0.2324218 0.392029,0.1219968 0.631278,0.2797886 0.789063,0.4843751 C 14.1363,8.6850552 14.25,8.975281 14.25,9.5 c 0,0.549218 -0.12822,0.830264 -0.322266,1.044922 -0.194045,0.214658 -0.510494,0.387052 -0.984375,0.505859 -0.767513,0.192424 -1.990378,0.164873 -3.193359,0.16211 z m 0,5.0234371 c 1.202981,-0.0028 2.425846,-0.03031 3.193359,0.16211 0.473881,0.118807 0.79033,0.291201 0.984375,0.505859 C 14.12178,13.669736 14.25,13.950782 14.25,14.5 c 0,0.524716 -0.113699,0.814945 -0.271484,1.019531 -0.157786,0.204586 -0.39703,0.362379 -0.789063,0.484375 -0.752039,0.234027 -2.027458,0.239131 -3.439453,0.232422 3.7e-6,-1.063048 2.09e-5,-2.448754 0,-3.449219 z"
     id="path2" />
  <path
     style="color:#000000;fill:currentColor;stroke-linecap:round;stroke-linejoin:round;-inkscape-stroke:none"
     d="M 12,4.75 A 0.75,0.75 0 0 0 11.25,5.5 V 7 A 0.75,0.75 0 0 0 12,7.75 0.75,0.75 0 0 0 12.75,7 V 5.5 A 0.75,0.75 0 0 0 12,4.75 Z"
     id="path4" />
  <path
     style="color:#000000;fill:currentColor;stroke-linecap:round;stroke-linejoin:round;-inkscape-stroke:none"
     d="M 12,16.25 A 0.75,0.75 0 0 0 11.25,17 v 1.5 A 0.75,0.75 0 0 0 12,19.25 0.75,0.75 0 0 0 12.75,18.5 V 17 A 0.75,0.75 0 0 0 12,16.25 Z"
     id="path6" />
  <path
     style="color:#000000;fill:currentColor;stroke-linecap:round;stroke-linejoin:round;-inkscape-stroke:none"
     d="M 12,1.25 C 6.0718263,1.25 1.25,6.0718263 1.25,12 1.25,17.928127 6.0718217,22.75 12,22.75 17.928132,22.75 22.75,17.928132 22.75,12 22.75,6.0718217 17.928127,1.25 12,1.25 Z m 0,1.5 c 5.117462,0 9.25,4.1324893 9.25,9.25 0,5.117457 -4.132543,9.25 -9.25,9.25 C 6.8824893,21.25 2.75,17.117462 2.75,12 2.75,6.8824848 6.8824848,2.75 12,2.75 Z"
     id="path8" />
</svg>
