<?xml version="1.0" encoding="UTF-8" standalone="no"?>
<svg
   width="24"
   height="24"
   stroke-width="1.5"
   viewBox="0 0 24 24"
   fill="none"
   version="1.1"
   id="svg6"
   sodipodi:docname="bluetooth-tag.svg"
   inkscape:version="1.2.1 (9c6d41e410, 2022-07-14)"
   xmlns:inkscape="http://www.inkscape.org/namespaces/inkscape"
   xmlns:sodipodi="http://sodipodi.sourceforge.net/DTD/sodipodi-0.dtd"
   xmlns="http://www.w3.org/2000/svg"
   xmlns:svg="http://www.w3.org/2000/svg">
  <defs
     id="defs10" />
  <sodipodi:namedview
     id="namedview8"
     pagecolor="#ffffff"
     bordercolor="#666666"
     borderopacity="1.0"
     inkscape:showpageshadow="2"
     inkscape:pageopacity="0.0"
     inkscape:pagecheckerboard="0"
     inkscape:deskcolor="#d1d1d1"
     showgrid="false"
     inkscape:zoom="34.541667"
     inkscape:cx="10.364294"
     inkscape:cy="12.014475"
     inkscape:window-width="1920"
     inkscape:window-height="1009"
     inkscape:window-x="1912"
     inkscape:window-y="-8"
     inkscape:window-maximized="1"
     inkscape:current-layer="svg6" />
  <path
     style="color:#000000;fill:currentColor;stroke-linecap:round;stroke-linejoin:round;-inkscape-stroke:none"
     d="M 11.578125,5.3046875 A 0.750075,0.750075 0 0 0 11.107422,6 v 4.40625 L 9.4863281,9.0292969 a 0.75,0.75 0 0 0 -1.0585937,0.085937 0.75,0.75 0 0 0 0.085937,1.0566406 L 10.664063,12 8.5136719,13.828125 a 0.75,0.75 0 0 0 -0.085937,1.056641 0.75,0.75 0 0 0 1.0585937,0.08594 L 11.107422,13.59375 V 18 a 0.750075,0.750075 0 0 0 1.292969,0.517578 l 3.142578,-3.300781 a 0.750075,0.750075 0 0 0 -0.05664,-1.087891 L 12.982422,12 15.486328,9.8710938 a 0.750075,0.750075 0 0 0 0.05664,-1.0878907 L 12.400391,5.4824219 A 0.750075,0.750075 0 0 0 11.578125,5.3046875 Z M 12.607422,7.875 13.910156,9.2421875 12.607422,10.349609 Z m 0,5.775391 1.302734,1.107422 -1.302734,1.367187 z"
     id="path2" />
  <path
     style="color:#000000;fill:currentColor;-inkscape-stroke:none"
     d="M 8,2.25 C 4.280964,2.25 1.25,5.280964 1.25,9 v 6 c 0,3.719027 3.0309625,6.75 6.75,6.75 h 8 c 3.719029,0 6.75,-3.030971 6.75,-6.75 V 9 C 22.75,5.2809625 19.719027,2.25 16,2.25 Z m 0,1.5 h 8 c 2.908366,0 5.25,2.3416241 5.25,5.25 v 6 c 0,2.908365 -2.341635,5.25 -5.25,5.25 H 8 C 5.0916241,20.25 2.75,17.908366 2.75,15 V 9 C 2.75,6.0916226 5.0916226,3.75 8,3.75 Z"
     id="path4" />
</svg>
