<?xml version="1.0" encoding="UTF-8" standalone="no"?>
<svg
   width="24"
   height="24"
   stroke-width="1.5"
   viewBox="0 0 24 24"
   fill="none"
   version="1.1"
   id="svg4"
   sodipodi:docname="bluetooth.svg"
   inkscape:version="1.2.1 (9c6d41e410, 2022-07-14)"
   xmlns:inkscape="http://www.inkscape.org/namespaces/inkscape"
   xmlns:sodipodi="http://sodipodi.sourceforge.net/DTD/sodipodi-0.dtd"
   xmlns="http://www.w3.org/2000/svg"
   xmlns:svg="http://www.w3.org/2000/svg">
  <defs
     id="defs8" />
  <sodipodi:namedview
     id="namedview6"
     pagecolor="#ffffff"
     bordercolor="#666666"
     borderopacity="1.0"
     inkscape:showpageshadow="2"
     inkscape:pageopacity="0.0"
     inkscape:pagecheckerboard="0"
     inkscape:deskcolor="#d1d1d1"
     showgrid="false"
     inkscape:zoom="34.541667"
     inkscape:cx="10.364294"
     inkscape:cy="12.014475"
     inkscape:window-width="1920"
     inkscape:window-height="1009"
     inkscape:window-x="1912"
     inkscape:window-y="-8"
     inkscape:window-maximized="1"
     inkscape:current-layer="svg4" />
  <path
     style="color:#000000;fill:currentColor;stroke-linecap:round;stroke-linejoin:round;-inkscape-stroke:none"
     d="M 11.462891,1.3066406 A 0.750075,0.750075 0 0 0 11,2 v 8.476563 L 7.2226562,7.4179687 a 0.75,0.75 0 0 0 -1.0546875,0.109375 0.75,0.75 0 0 0 0.109375,1.0546876 L 10.5,12 6.2773437,15.417969 a 0.75,0.75 0 0 0 -0.109375,1.054687 0.75,0.75 0 0 0 1.0546875,0.109375 L 11,13.523438 V 22 a 0.750075,0.750075 0 0 0 1.28125,0.53125 l 5.5,-5.5 a 0.750075,0.750075 0 0 0 -0.05859,-1.113281 L 12.882813,12 17.722656,8.0820313 A 0.750075,0.750075 0 0 0 17.78125,6.96875 l -5.5,-5.5 A 0.750075,0.750075 0 0 0 11.462891,1.3066406 Z M 12.5,3.8125 16.128906,7.4414062 12.5,10.380859 Z m 0,9.806641 3.628906,2.939453 L 12.5,20.1875 Z"
     id="path2" />
</svg>
