<?xml version="1.0" encoding="UTF-8" standalone="no"?>
<svg
   width="24"
   stroke-width="1.5"
   height="24"
   viewBox="0 0 24 24"
   fill="none"
   version="1.1"
   id="svg12"
   sodipodi:docname="bonfire.svg"
   inkscape:version="1.2.1 (9c6d41e410, 2022-07-14)"
   xmlns:inkscape="http://www.inkscape.org/namespaces/inkscape"
   xmlns:sodipodi="http://sodipodi.sourceforge.net/DTD/sodipodi-0.dtd"
   xmlns="http://www.w3.org/2000/svg"
   xmlns:svg="http://www.w3.org/2000/svg">
  <defs
     id="defs16" />
  <sodipodi:namedview
     id="namedview14"
     pagecolor="#ffffff"
     bordercolor="#666666"
     borderopacity="1.0"
     inkscape:showpageshadow="2"
     inkscape:pageopacity="0.0"
     inkscape:pagecheckerboard="0"
     inkscape:deskcolor="#d1d1d1"
     showgrid="false"
     inkscape:zoom="34.541667"
     inkscape:cx="10.364294"
     inkscape:cy="12.014475"
     inkscape:window-width="1920"
     inkscape:window-height="1009"
     inkscape:window-x="1912"
     inkscape:window-y="-8"
     inkscape:window-maximized="1"
     inkscape:current-layer="svg12" />
  <path
     style="color:#000000;fill:currentColor;stroke-linecap:round;stroke-linejoin:round;-inkscape-stroke:none"
     d="M 11.246094,7.2539062 A 0.750075,0.750075 0 0 0 10.65625,7.625 C 9.5093096,9.6136266 8.25,11.606666 8.25,14 c 0,1.018798 0.5465802,1.86095 1.296875,2.263672 0.750295,0.402722 1.622536,0.486328 2.529297,0.486328 0.794656,0 1.495221,-0.108433 2.095703,-0.376953 0.600482,-0.26852 1.101271,-0.728061 1.359375,-1.326172 0.516209,-1.196222 0.132252,-2.661827 -0.882812,-4.421875 A 0.750075,0.750075 0 0 0 13.439453,10.5 c -0.602355,0.671447 -0.960511,0.740411 -0.984375,0.738281 -0.02386,-0.0021 -0.117878,-0.03891 -0.259765,-0.392578 C 11.911537,10.13837 11.918085,8.5859076 12.027344,8.2070313 a 0.750075,0.750075 0 0 0 -0.78125,-0.9531251 z m -0.574219,3.5195318 c 0.05505,0.210364 0.05039,0.430296 0.130859,0.630859 0.242587,0.604666 0.72639,1.255384 1.519532,1.326172 0.487501,0.04351 0.938352,-0.172493 1.386718,-0.496094 0.449709,1.041183 0.601705,1.851814 0.44336,2.21875 -0.101508,0.235226 -0.26049,0.400676 -0.591797,0.548828 C 13.22924,15.150105 12.726665,15.25 12.076172,15.25 11.284234,15.25 10.618788,15.138162 10.255859,14.943359 9.8929303,14.748557 9.75,14.591101 9.75,14 c 0,-1.077562 0.395983,-2.141227 0.921875,-3.226562 z"
     id="path2" />
  <path
     style="color:#000000;fill:currentColor;stroke-linecap:round;stroke-linejoin:round;-inkscape-stroke:none"
     d="m 11.552734,2.3984375 c 0,0 -1.305029,0.9688376 -2.6093746,2.4082031 C 7.6390133,6.2460061 6.25,8.1693732 6.25,10.3125 c 0,1.92337 0.4974216,3.540678 1.5039062,4.685547 C 8.7603909,16.142916 10.255882,16.75 12,16.75 c 1.744113,0 3.239608,-0.607085 4.246094,-1.751953 C 17.252579,13.853179 17.75,12.235871 17.75,10.3125 17.75,8.1693732 16.360987,6.2460061 15.056641,4.8066406 13.752295,3.3672751 12.447266,2.3984375 12.447266,2.3984375 a 0.750075,0.750075 0 0 0 -0.894532,0 z M 12,4.015625 c 0.329885,0.2582849 0.971417,0.7262746 1.943359,1.7988281 C 15.139011,7.1338724 16.25,8.8657804 16.25,10.3125 c 0,1.666526 -0.424369,2.893908 -1.128906,3.695313 C 14.416556,14.809217 13.411784,15.25 12,15.25 10.588211,15.25 9.5834423,14.809217 8.8789063,14.007813 8.1743702,13.206408 7.75,11.979026 7.75,10.3125 7.75,8.8657804 8.8609892,7.1338724 10.056641,5.8144531 11.028583,4.7418996 11.670115,4.2739099 12,4.015625 Z"
     id="path4" />
  <path
     style="color:#000000;fill:currentColor;stroke-linecap:round;-inkscape-stroke:none"
     d="M 19.533203,16.205078 4.078125,20.345703 a 0.75,0.75 0 0 0 -0.5292969,0.917969 0.75,0.75 0 0 0 0.9179688,0.53125 L 19.921875,17.654297 a 0.75,0.75 0 0 0 0.529297,-0.919922 0.75,0.75 0 0 0 -0.917969,-0.529297 z"
     id="path6" />
  <path
     style="color:#000000;fill:currentColor;stroke-linecap:round;-inkscape-stroke:none"
     d="m 4.4667969,16.205078 a 0.75,0.75 0 0 0 -0.9179688,0.529297 0.75,0.75 0 0 0 0.5292969,0.919922 l 7.728516,2.070312 a 0.75,0.75 0 0 0 0.917968,-0.53125 0.75,0.75 0 0 0 -0.53125,-0.917968 z"
     id="path8" />
  <path
     style="color:#000000;fill:currentColor;stroke-linecap:round;-inkscape-stroke:none"
     d="m 16.058594,19.310547 a 0.75,0.75 0 0 0 -0.919922,0.53125 0.75,0.75 0 0 0 0.53125,0.917969 l 3.863281,1.035156 a 0.75,0.75 0 0 0 0.917969,-0.53125 0.75,0.75 0 0 0 -0.529297,-0.917969 z"
     id="path10" />
</svg>
