<?xml version="1.0" encoding="UTF-8" standalone="no"?>
<svg
   width="24"
   stroke-width="1.5"
   height="24"
   viewBox="0 0 24 24"
   fill="none"
   version="1.1"
   id="svg16"
   sodipodi:docname="book-stack.svg"
   inkscape:version="1.2.1 (9c6d41e410, 2022-07-14)"
   xmlns:inkscape="http://www.inkscape.org/namespaces/inkscape"
   xmlns:sodipodi="http://sodipodi.sourceforge.net/DTD/sodipodi-0.dtd"
   xmlns="http://www.w3.org/2000/svg"
   xmlns:svg="http://www.w3.org/2000/svg">
  <defs
     id="defs20" />
  <sodipodi:namedview
     id="namedview18"
     pagecolor="#ffffff"
     bordercolor="#666666"
     borderopacity="1.0"
     inkscape:showpageshadow="2"
     inkscape:pageopacity="0.0"
     inkscape:pagecheckerboard="0"
     inkscape:deskcolor="#d1d1d1"
     showgrid="false"
     inkscape:zoom="34.541667"
     inkscape:cx="10.364294"
     inkscape:cy="12.014475"
     inkscape:window-width="1920"
     inkscape:window-height="1009"
     inkscape:window-x="1912"
     inkscape:window-y="-8"
     inkscape:window-maximized="1"
     inkscape:current-layer="svg16" />
  <path
     style="color:#000000;fill:currentColor;stroke-linecap:round;-inkscape-stroke:none"
     d="M 7,2.25 C 5.4901018,2.25 4.25,3.4901018 4.25,5 V 19.5 A 0.75,0.75 0 0 0 5,20.25 0.75,0.75 0 0 0 5.75,19.5 V 5 C 5.75,4.3007604 6.3007604,3.75 7,3.75 H 18.25 V 21 A 0.75,0.75 0 0 0 19,21.75 0.75,0.75 0 0 0 19.75,21 V 3.5996094 C 19.75,2.862953 19.137086,2.25 18.400391,2.25 Z"
     id="path2" />
  <path
     style="color:#000000;fill:currentColor;stroke-linecap:round;-inkscape-stroke:none"
     d="M 9,6.25 A 0.75,0.75 0 0 0 8.25,7 0.75,0.75 0 0 0 9,7.75 h 6 A 0.75,0.75 0 0 0 15.75,7 0.75,0.75 0 0 0 15,6.25 Z"
     id="path4" />
  <path
     style="color:#000000;fill:currentColor;stroke-linecap:round;-inkscape-stroke:none"
     d="M 6.5,14.25 A 0.75,0.75 0 0 0 5.75,15 0.75,0.75 0 0 0 6.5,15.75 H 19 A 0.75,0.75 0 0 0 19.75,15 0.75,0.75 0 0 0 19,14.25 Z"
     id="path6" />
  <path
     style="color:#000000;fill:currentColor;stroke-linecap:round;-inkscape-stroke:none"
     d="M 6.5,17.25 A 0.75,0.75 0 0 0 5.75,18 0.75,0.75 0 0 0 6.5,18.75 H 19 A 0.75,0.75 0 0 0 19.75,18 0.75,0.75 0 0 0 19,17.25 Z"
     id="path8" />
  <path
     style="color:#000000;fill:currentColor;stroke-linecap:round;-inkscape-stroke:none"
     d="M 6.5,20.25 A 0.75,0.75 0 0 0 5.75,21 0.75,0.75 0 0 0 6.5,21.75 H 19 A 0.75,0.75 0 0 0 19.75,21 0.75,0.75 0 0 0 19,20.25 Z"
     id="path10" />
  <path
     style="color:#000000;fill:currentColor;stroke-linecap:round;stroke-linejoin:round;-inkscape-stroke:none"
     d="m 6.5,14.25 c -0.6678993,0 -1.2769988,0.248643 -1.6757813,0.681641 C 4.4254363,15.364639 4.25,15.934907 4.25,16.5 c 0,0.565093 0.1754363,1.135361 0.5742187,1.568359 C 5.2230012,18.501357 5.8321007,18.75 6.5,18.75 A 0.75,0.75 0 0 0 7.25,18 0.75,0.75 0 0 0 6.5,17.25 C 6.1679003,17.25 6.0269983,17.162636 5.9257812,17.052734 5.8245642,16.942833 5.75,16.763306 5.75,16.5 5.75,16.236694 5.8245642,16.057167 5.9257812,15.947266 6.0269983,15.837364 6.1679003,15.75 6.5,15.75 A 0.75,0.75 0 0 0 7.25,15 0.75,0.75 0 0 0 6.5,14.25 Z"
     id="path12" />
  <path
     style="color:#000000;fill:currentColor;stroke-linecap:round;stroke-linejoin:round;-inkscape-stroke:none"
     d="m 6.5,17.25 c -0.6678993,0 -1.2769988,0.248643 -1.6757813,0.681641 C 4.4254363,18.364639 4.25,18.934907 4.25,19.5 c 0,0.565093 0.1754363,1.135361 0.5742187,1.568359 C 5.2230012,21.501357 5.8321007,21.75 6.5,21.75 A 0.75,0.75 0 0 0 7.25,21 0.75,0.75 0 0 0 6.5,20.25 C 6.1679003,20.25 6.0269983,20.162636 5.9257812,20.052734 5.8245642,19.942833 5.75,19.763306 5.75,19.5 5.75,19.236694 5.8245642,19.057167 5.9257812,18.947266 6.0269983,18.837364 6.1679003,18.75 6.5,18.75 A 0.75,0.75 0 0 0 7.25,18 0.75,0.75 0 0 0 6.5,17.25 Z"
     id="path14" />
</svg>
