<?xml version="1.0" encoding="UTF-8" standalone="no"?>
<svg
   width="24"
   stroke-width="1.5"
   height="24"
   viewBox="0 0 24 24"
   fill="none"
   version="1.1"
   id="svg12"
   sodipodi:docname="book-lock.svg"
   inkscape:version="1.2.1 (9c6d41e410, 2022-07-14)"
   xmlns:inkscape="http://www.inkscape.org/namespaces/inkscape"
   xmlns:sodipodi="http://sodipodi.sourceforge.net/DTD/sodipodi-0.dtd"
   xmlns="http://www.w3.org/2000/svg"
   xmlns:svg="http://www.w3.org/2000/svg">
  <defs
     id="defs16" />
  <sodipodi:namedview
     id="namedview14"
     pagecolor="#ffffff"
     bordercolor="#666666"
     borderopacity="1.0"
     inkscape:showpageshadow="2"
     inkscape:pageopacity="0.0"
     inkscape:pagecheckerboard="0"
     inkscape:deskcolor="#d1d1d1"
     showgrid="false"
     inkscape:zoom="34.541667"
     inkscape:cx="10.364294"
     inkscape:cy="12.014475"
     inkscape:window-width="1920"
     inkscape:window-height="1009"
     inkscape:window-x="1912"
     inkscape:window-y="-8"
     inkscape:window-maximized="1"
     inkscape:current-layer="svg12" />
  <path
     style="color:#000000;fill:currentColor;stroke-linecap:round;-inkscape-stroke:none"
     d="M 6,2.25 C 4.4901018,2.25 3.25,3.4901018 3.25,5 V 19 A 0.75,0.75 0 0 0 4,19.75 0.75,0.75 0 0 0 4.75,19 V 5 C 4.75,4.3007604 5.3007604,3.75 6,3.75 h 13.25 v 12.964844 a 0.75,0.75 0 0 0 0.75,0.75 0.75,0.75 0 0 0 0.75,-0.75 V 3.5996094 C 20.75,2.862953 20.137086,2.25 19.400391,2.25 Z"
     id="path2" />
  <path
     style="color:#000000;fill:currentColor;stroke-linecap:round;stroke-linejoin:round;-inkscape-stroke:none"
     d="M 12,5.25 C 10.991668,5.25 10.211078,5.7290805 9.7910156,6.3125 9.3709531,6.8959195 9.25,7.5166662 9.25,8 v 1.3964844 c -0.5507641,0.1704945 -1,0.6018235 -1,1.2031246 v 2.800782 C 8.25,14.137086 8.862953,14.75 9.5996094,14.75 H 14.400391 C 15.13704,14.75 15.75,14.13704 15.75,13.400391 v -2.800782 c 0,-0.6012642 -0.449238,-1.0326203 -1,-1.2031246 V 8 C 14.75,7.5166662 14.629047,6.8959195 14.208984,6.3125 13.788922,5.7290805 13.008332,5.25 12,5.25 Z m 0,1.5 c 0.591667,0 0.812251,0.1875879 0.992188,0.4375 C 13.172124,7.4374121 13.25,7.8166644 13.25,8 v 1.25 h -2.5 V 8 c 0,-0.1833356 0.07788,-0.5625879 0.257813,-0.8125 C 11.187749,6.9375879 11.408333,6.75 12,6.75 Z m -2.25,4 h 0.25 4 0.25 v 2.5 h -4.5 z"
     id="path4" />
  <path
     style="color:#000000;fill:currentColor;stroke-linecap:round;-inkscape-stroke:none"
     d="M 6,16.25 A 0.75,0.75 0 0 0 5.25,17 0.75,0.75 0 0 0 6,17.75 H 20 A 0.75,0.75 0 0 0 20.75,17 0.75,0.75 0 0 0 20,16.25 Z"
     id="path6" />
  <path
     style="color:#000000;fill:currentColor;stroke-linecap:round;-inkscape-stroke:none"
     d="M 6,20.25 A 0.75,0.75 0 0 0 5.25,21 0.75,0.75 0 0 0 6,21.75 H 20 A 0.75,0.75 0 0 0 20.75,21 0.75,0.75 0 0 0 20,20.25 Z"
     id="path8" />
  <path
     style="color:#000000;fill:currentColor;stroke-linecap:round;stroke-linejoin:round;-inkscape-stroke:none"
     d="m 6,16.25 c -1.5098846,0 -2.75,1.240083 -2.75,2.75 0,1.509917 1.2401154,2.75 2.75,2.75 A 0.75,0.75 0 0 0 6.75,21 0.75,0.75 0 0 0 6,20.25 C 5.3007468,20.25 4.75,19.699281 4.75,19 4.75,18.300719 5.3007468,17.75 6,17.75 A 0.75,0.75 0 0 0 6.75,17 0.75,0.75 0 0 0 6,16.25 Z"
     id="path10" />
</svg>
