<?xml version="1.0" encoding="UTF-8" standalone="no"?>
<svg
   width="24"
   height="24"
   stroke-width="1.5"
   viewBox="0 0 24 24"
   fill="none"
   version="1.1"
   id="svg4"
   sodipodi:docname="bookmark.svg"
   inkscape:version="1.2.1 (9c6d41e410, 2022-07-14)"
   xmlns:inkscape="http://www.inkscape.org/namespaces/inkscape"
   xmlns:sodipodi="http://sodipodi.sourceforge.net/DTD/sodipodi-0.dtd"
   xmlns="http://www.w3.org/2000/svg"
   xmlns:svg="http://www.w3.org/2000/svg">
  <defs
     id="defs8" />
  <sodipodi:namedview
     id="namedview6"
     pagecolor="#ffffff"
     bordercolor="#666666"
     borderopacity="1.0"
     inkscape:showpageshadow="2"
     inkscape:pageopacity="0.0"
     inkscape:pagecheckerboard="0"
     inkscape:deskcolor="#d1d1d1"
     showgrid="false"
     inkscape:zoom="34.541667"
     inkscape:cx="10.364294"
     inkscape:cy="12.014475"
     inkscape:window-width="1920"
     inkscape:window-height="1009"
     inkscape:window-x="1912"
     inkscape:window-y="-8"
     inkscape:window-maximized="1"
     inkscape:current-layer="svg4" />
  <path
     style="color:#000000;fill:currentColor;stroke-linecap:round;stroke-linejoin:round;-inkscape-stroke:none"
     d="M 7,2.25 C 5.4901018,2.25 4.25,3.4901018 4.25,5 v 16 a 0.750075,0.750075 0 0 0 1.15625,0.630859 l 5.917969,-3.804687 c 0.41329,-0.26574 0.938272,-0.26574 1.351562,0 l 5.917969,3.804687 A 0.750075,0.750075 0 0 0 19.75,21 V 5 C 19.75,3.4901154 18.509917,2.25 17,2.25 Z m 0,1.5 h 10 c 0.699281,0 1.25,0.5507468 1.25,1.25 v 14.626953 l -4.763672,-3.0625 c -0.904309,-0.581459 -2.068347,-0.581459 -2.972656,0 L 5.75,19.626953 V 5 C 5.75,4.3007604 6.3007604,3.75 7,3.75 Z"
     id="path2" />
</svg>
