<?xml version="1.0" encoding="UTF-8" standalone="no"?>
<svg
   width="24"
   height="24"
   stroke-width="1.5"
   viewBox="0 0 24 24"
   fill="none"
   version="1.1"
   id="svg18"
   sodipodi:docname="border-br.svg"
   inkscape:version="1.2.1 (9c6d41e410, 2022-07-14)"
   xmlns:inkscape="http://www.inkscape.org/namespaces/inkscape"
   xmlns:sodipodi="http://sodipodi.sourceforge.net/DTD/sodipodi-0.dtd"
   xmlns="http://www.w3.org/2000/svg"
   xmlns:svg="http://www.w3.org/2000/svg">
  <defs
     id="defs22" />
  <sodipodi:namedview
     id="namedview20"
     pagecolor="#ffffff"
     bordercolor="#666666"
     borderopacity="1.0"
     inkscape:showpageshadow="2"
     inkscape:pageopacity="0.0"
     inkscape:pagecheckerboard="0"
     inkscape:deskcolor="#d1d1d1"
     showgrid="false"
     inkscape:zoom="34.541667"
     inkscape:cx="10.364294"
     inkscape:cy="12.014475"
     inkscape:window-width="1920"
     inkscape:window-height="1009"
     inkscape:window-x="1912"
     inkscape:window-y="-8"
     inkscape:window-maximized="1"
     inkscape:current-layer="svg18" />
  <path
     style="color:#000000;fill:currentColor;stroke-linecap:round;stroke-linejoin:round;-inkscape-stroke:none"
     d="m 20.009766,3.25 a 0.75,0.75 0 0 0 -0.75,0.75 V 19.25 H 4.0097656 a 0.75,0.75 0 0 0 -0.75,0.75 0.75,0.75 0 0 0 0.75,0.75 H 20.009766 a 0.750075,0.750075 0 0 0 0.75,-0.75 V 4 a 0.75,0.75 0 0 0 -0.75,-0.75 z"
     id="path2" />
  <path
     style="color:#000000;fill:currentColor;stroke-linecap:round;stroke-linejoin:round;-inkscape-stroke:none"
     d="m 3.9609375,15.251953 a 0.75,0.75 0 0 0 -0.5195312,0.246094 0.75,0.75 0 0 0 0.056641,1.060547 l 0.011719,0.0098 a 0.75,0.75 0 0 0 1.0585938,-0.05664 0.75,0.75 0 0 0 -0.056641,-1.058594 l -0.00977,-0.01172 A 0.75,0.75 0 0 0 3.9609375,15.251953 Z"
     id="path4" />
  <path
     style="color:#000000;fill:currentColor;stroke-linecap:round;stroke-linejoin:round;-inkscape-stroke:none"
     d="m 3.9609375,11.251953 a 0.75,0.75 0 0 0 -0.5195312,0.246094 0.75,0.75 0 0 0 0.056641,1.060547 l 0.011719,0.0098 a 0.75,0.75 0 0 0 1.0585938,-0.05664 0.75,0.75 0 0 0 -0.056641,-1.058594 l -0.00977,-0.01172 A 0.75,0.75 0 0 0 3.9609375,11.251953 Z"
     id="path6" />
  <path
     style="color:#000000;fill:currentColor;stroke-linecap:round;stroke-linejoin:round;-inkscape-stroke:none"
     d="m 3.9609375,7.2519531 a 0.75,0.75 0 0 0 -0.5195312,0.2460938 0.75,0.75 0 0 0 0.056641,1.0605469 l 0.011719,0.00977 A 0.75,0.75 0 0 0 4.5683594,8.5117188 0.75,0.75 0 0 0 4.5117187,7.453125 l -0.00977,-0.011719 A 0.75,0.75 0 0 0 3.9609375,7.2519531 Z"
     id="path8" />
  <path
     style="color:#000000;fill:currentColor;stroke-linecap:round;stroke-linejoin:round;-inkscape-stroke:none"
     d="m 3.9609375,3.2519531 a 0.75,0.75 0 0 0 -0.5195312,0.2460938 0.75,0.75 0 0 0 0.056641,1.0605468 l 0.011719,0.00977 A 0.75,0.75 0 0 0 4.5683594,4.5117187 0.75,0.75 0 0 0 4.5117187,3.453125 l -0.00977,-0.011719 A 0.75,0.75 0 0 0 3.9609375,3.2519531 Z"
     id="path10" />
  <path
     style="color:#000000;fill:currentColor;stroke-linecap:round;stroke-linejoin:round;-inkscape-stroke:none"
     d="m 16.501953,3.4433594 a 0.75,0.75 0 0 0 -1.058594,0.054687 0.75,0.75 0 0 0 0.05469,1.0585937 l 0.01172,0.00977 a 0.75,0.75 0 0 0 1.058593,-0.054687 0.75,0.75 0 0 0 -0.05469,-1.0585937 z"
     id="path12" />
  <path
     style="color:#000000;fill:currentColor;stroke-linecap:round;stroke-linejoin:round;-inkscape-stroke:none"
     d="m 11.960938,3.2519531 a 0.75,0.75 0 0 0 -0.517579,0.2460938 0.75,0.75 0 0 0 0.05469,1.0585937 l 0.01172,0.00977 a 0.75,0.75 0 0 0 1.058593,-0.054687 0.75,0.75 0 0 0 -0.05469,-1.0585937 l -0.01172,-0.00977 A 0.75,0.75 0 0 0 11.960938,3.2519531 Z"
     id="path14" />
  <path
     style="color:#000000;fill:currentColor;stroke-linecap:round;stroke-linejoin:round;-inkscape-stroke:none"
     d="m 7.9609375,3.2519531 a 0.75,0.75 0 0 0 -0.5195313,0.2460938 0.75,0.75 0 0 0 0.056641,1.0605468 l 0.011719,0.00977 A 0.75,0.75 0 0 0 8.5683594,4.5117187 0.75,0.75 0 0 0 8.5117188,3.453125 l -0.00977,-0.011719 A 0.75,0.75 0 0 0 7.9609375,3.2519531 Z"
     id="path16" />
</svg>
