<?xml version="1.0" encoding="UTF-8" standalone="no"?>
<svg
   width="24"
   height="24"
   stroke-width="1.5"
   viewBox="0 0 24 24"
   fill="none"
   version="1.1"
   id="svg28"
   sodipodi:docname="border-left.svg"
   inkscape:version="1.2.1 (9c6d41e410, 2022-07-14)"
   xmlns:inkscape="http://www.inkscape.org/namespaces/inkscape"
   xmlns:sodipodi="http://sodipodi.sourceforge.net/DTD/sodipodi-0.dtd"
   xmlns="http://www.w3.org/2000/svg"
   xmlns:svg="http://www.w3.org/2000/svg">
  <defs
     id="defs32" />
  <sodipodi:namedview
     id="namedview30"
     pagecolor="#ffffff"
     bordercolor="#666666"
     borderopacity="1.0"
     inkscape:showpageshadow="2"
     inkscape:pageopacity="0.0"
     inkscape:pagecheckerboard="0"
     inkscape:deskcolor="#d1d1d1"
     showgrid="false"
     inkscape:zoom="34.541667"
     inkscape:cx="10.364294"
     inkscape:cy="12.014475"
     inkscape:window-width="1920"
     inkscape:window-height="1009"
     inkscape:window-x="1912"
     inkscape:window-y="-8"
     inkscape:window-maximized="1"
     inkscape:current-layer="svg28" />
  <path
     style="color:#000000;fill:currentColor;stroke-linecap:round;stroke-linejoin:round;-inkscape-stroke:none"
     d="m 19.507812,19.443359 -0.01172,0.0098 a 0.75,0.75 0 0 0 -0.05469,1.058594 0.75,0.75 0 0 0 1.058594,0.05469 l 0.01172,-0.0098 a 0.75,0.75 0 0 0 0.05469,-1.058594 0.75,0.75 0 0 0 -1.058594,-0.05469 z"
     id="path2" />
  <path
     style="color:#000000;fill:currentColor;stroke-linecap:round;stroke-linejoin:round;-inkscape-stroke:none"
     d="m 19.507812,15.443359 -0.01172,0.0098 a 0.75,0.75 0 0 0 -0.05469,1.058594 0.75,0.75 0 0 0 1.058594,0.05469 l 0.01172,-0.0098 a 0.75,0.75 0 0 0 0.05469,-1.058594 0.75,0.75 0 0 0 -1.058594,-0.05469 z"
     id="path4" />
  <path
     style="color:#000000;fill:currentColor;stroke-linecap:round;stroke-linejoin:round;-inkscape-stroke:none"
     d="m 20.048828,11.251953 a 0.75,0.75 0 0 0 -0.541016,0.191406 l -0.01172,0.0098 a 0.75,0.75 0 0 0 -0.05469,1.058594 0.75,0.75 0 0 0 1.058594,0.05469 l 0.01172,-0.0098 a 0.75,0.75 0 0 0 0.05469,-1.058594 0.75,0.75 0 0 0 -0.517578,-0.246094 z"
     id="path6" />
  <path
     style="color:#000000;fill:currentColor;stroke-linecap:round;stroke-linejoin:round;-inkscape-stroke:none"
     d="m 20.048828,7.2519531 a 0.75,0.75 0 0 0 -0.541016,0.1914063 l -0.01172,0.00977 A 0.75,0.75 0 0 0 19.441406,8.5117188 0.75,0.75 0 0 0 20.5,8.5664063 l 0.01172,-0.00977 a 0.75,0.75 0 0 0 0.05469,-1.0585937 0.75,0.75 0 0 0 -0.517578,-0.2460938 z"
     id="path8" />
  <path
     style="color:#000000;fill:currentColor;stroke-linecap:round;stroke-linejoin:round;-inkscape-stroke:none"
     d="m 20.048828,3.2519531 a 0.75,0.75 0 0 0 -0.541016,0.1914063 l -0.01172,0.00977 A 0.75,0.75 0 0 0 19.441406,4.5117187 0.75,0.75 0 0 0 20.5,4.5664062 l 0.01172,-0.00977 a 0.75,0.75 0 0 0 0.05469,-1.0585937 0.75,0.75 0 0 0 -0.517578,-0.2460938 z"
     id="path10" />
  <path
     style="color:#000000;fill:currentColor;stroke-linecap:round;stroke-linejoin:round;-inkscape-stroke:none"
     d="M 8.0488281,3.2519531 A 0.75,0.75 0 0 0 7.5078125,3.4433594 l -0.00977,0.00977 A 0.75,0.75 0 0 0 7.4414062,4.5117187 0.75,0.75 0 0 0 8.5,4.5683594 l 0.011719,-0.011719 A 0.75,0.75 0 0 0 8.5683594,3.4980469 0.75,0.75 0 0 0 8.0488281,3.2519531 Z"
     id="path12" />
  <path
     style="color:#000000;fill:currentColor;stroke-linecap:round;stroke-linejoin:round;-inkscape-stroke:none"
     d="m 12.048828,3.2519531 a 0.75,0.75 0 0 0 -0.541015,0.1914063 l -0.01172,0.00977 A 0.75,0.75 0 0 0 11.441406,4.5117187 0.75,0.75 0 0 0 12.5,4.5664062 l 0.01172,-0.00977 a 0.75,0.75 0 0 0 0.05469,-1.0585937 0.75,0.75 0 0 0 -0.517578,-0.2460938 z"
     id="path14" />
  <path
     style="color:#000000;fill:currentColor;stroke-linecap:round;stroke-linejoin:round;-inkscape-stroke:none"
     d="m 12.048828,11.251953 a 0.75,0.75 0 0 0 -0.541015,0.191406 l -0.01172,0.0098 a 0.75,0.75 0 0 0 -0.05469,1.058594 0.75,0.75 0 0 0 1.058594,0.05469 l 0.01172,-0.0098 a 0.75,0.75 0 0 0 0.05469,-1.058594 0.75,0.75 0 0 0 -0.517578,-0.246094 z"
     id="path16" />
  <path
     style="color:#000000;fill:currentColor;stroke-linecap:round;stroke-linejoin:round;-inkscape-stroke:none"
     d="m 15.507813,3.4433594 -0.01172,0.00977 A 0.75,0.75 0 0 0 15.441406,4.5117187 0.75,0.75 0 0 0 16.5,4.5664062 l 0.01172,-0.00977 a 0.75,0.75 0 0 0 0.05469,-1.0585937 0.75,0.75 0 0 0 -1.058593,-0.054687 z"
     id="path18" />
  <path
     style="color:#000000;fill:currentColor;stroke-linecap:round;stroke-linejoin:round;-inkscape-stroke:none"
     d="m 8.0488281,19.251953 a 0.75,0.75 0 0 0 -0.5410156,0.191406 l -0.00977,0.0098 A 0.75,0.75 0 0 0 7.4414062,20.511719 0.75,0.75 0 0 0 8.5,20.568359 l 0.011719,-0.01172 a 0.75,0.75 0 0 0 0.056641,-1.058594 0.75,0.75 0 0 0 -0.5195313,-0.246094 z"
     id="path20" />
  <path
     style="color:#000000;fill:currentColor;stroke-linecap:round;stroke-linejoin:round;-inkscape-stroke:none"
     d="m 12.048828,19.251953 a 0.75,0.75 0 0 0 -0.541015,0.191406 l -0.01172,0.0098 a 0.75,0.75 0 0 0 -0.05469,1.058594 0.75,0.75 0 0 0 1.058594,0.05469 l 0.01172,-0.0098 a 0.75,0.75 0 0 0 0.05469,-1.058594 0.75,0.75 0 0 0 -0.517578,-0.246094 z"
     id="path22" />
  <path
     style="color:#000000;fill:currentColor;stroke-linecap:round;stroke-linejoin:round;-inkscape-stroke:none"
     d="m 16.048828,19.251953 a 0.75,0.75 0 0 0 -0.541015,0.191406 l -0.01172,0.0098 a 0.75,0.75 0 0 0 -0.05469,1.058594 0.75,0.75 0 0 0 1.058594,0.05469 l 0.01172,-0.0098 a 0.75,0.75 0 0 0 0.05469,-1.058594 0.75,0.75 0 0 0 -0.517578,-0.246094 z"
     id="path24" />
  <path
     style="color:#000000;fill:currentColor;stroke-linecap:round;stroke-linejoin:round;-inkscape-stroke:none"
     d="M 4,3.25 A 0.75,0.75 0 0 0 3.25,4 V 20 A 0.75,0.75 0 0 0 4,20.75 0.75,0.75 0 0 0 4.75,20 V 4 A 0.75,0.75 0 0 0 4,3.25 Z"
     id="path26" />
</svg>
