<?xml version="1.0" encoding="UTF-8" standalone="no"?>
<svg
   width="24"
   height="24"
   stroke-width="1.5"
   viewBox="0 0 24 24"
   fill="none"
   version="1.1"
   id="svg18"
   sodipodi:docname="border-tr.svg"
   inkscape:version="1.2.1 (9c6d41e410, 2022-07-14)"
   xmlns:inkscape="http://www.inkscape.org/namespaces/inkscape"
   xmlns:sodipodi="http://sodipodi.sourceforge.net/DTD/sodipodi-0.dtd"
   xmlns="http://www.w3.org/2000/svg"
   xmlns:svg="http://www.w3.org/2000/svg">
  <defs
     id="defs22" />
  <sodipodi:namedview
     id="namedview20"
     pagecolor="#ffffff"
     bordercolor="#666666"
     borderopacity="1.0"
     inkscape:showpageshadow="2"
     inkscape:pageopacity="0.0"
     inkscape:pagecheckerboard="0"
     inkscape:deskcolor="#d1d1d1"
     showgrid="false"
     inkscape:zoom="34.541667"
     inkscape:cx="10.364294"
     inkscape:cy="12.014475"
     inkscape:window-width="1920"
     inkscape:window-height="1009"
     inkscape:window-x="1912"
     inkscape:window-y="-8"
     inkscape:window-maximized="1"
     inkscape:current-layer="svg18" />
  <path
     style="color:#000000;fill:currentColor;stroke-linecap:round;stroke-linejoin:round;-inkscape-stroke:none"
     d="m 4.0097656,3.25 a 0.75,0.75 0 0 0 -0.75,0.75 0.75,0.75 0 0 0 0.75,0.75 H 19.259766 V 20 a 0.75,0.75 0 0 0 0.75,0.75 0.75,0.75 0 0 0 0.75,-0.75 V 4 a 0.750075,0.750075 0 0 0 -0.75,-0.75 z"
     id="path2" />
  <path
     style="color:#000000;fill:currentColor;stroke-linecap:round;stroke-linejoin:round;-inkscape-stroke:none"
     d="M 4.0507812,7.2402344 A 0.75,0.75 0 0 0 3.5097656,7.4316406 l -0.011719,0.011719 a 0.75,0.75 0 0 0 -0.056641,1.0585937 0.75,0.75 0 0 0 1.0605468,0.054687 l 0.00977,-0.00977 A 0.75,0.75 0 0 0 4.5683594,7.4882812 0.75,0.75 0 0 0 4.0507812,7.2402344 Z"
     id="path4" />
  <path
     style="color:#000000;fill:currentColor;stroke-linecap:round;stroke-linejoin:round;-inkscape-stroke:none"
     d="m 4.0507812,11.240234 a 0.75,0.75 0 0 0 -0.5410156,0.191407 l -0.011719,0.01172 a 0.75,0.75 0 0 0 -0.056641,1.058594 0.75,0.75 0 0 0 1.0605468,0.05469 l 0.00977,-0.0098 a 0.75,0.75 0 0 0 0.056641,-1.058594 0.75,0.75 0 0 0 -0.5175782,-0.248047 z"
     id="path6" />
  <path
     style="color:#000000;fill:currentColor;stroke-linecap:round;stroke-linejoin:round;-inkscape-stroke:none"
     d="m 4.0507812,15.240234 a 0.75,0.75 0 0 0 -0.5410156,0.191407 l -0.011719,0.01172 a 0.75,0.75 0 0 0 -0.056641,1.058594 0.75,0.75 0 0 0 1.0605468,0.05469 l 0.00977,-0.0098 a 0.75,0.75 0 0 0 0.056641,-1.058594 0.75,0.75 0 0 0 -0.5175782,-0.248047 z"
     id="path8" />
  <path
     style="color:#000000;fill:currentColor;stroke-linecap:round;stroke-linejoin:round;-inkscape-stroke:none"
     d="m 4.0507812,19.240234 a 0.75,0.75 0 0 0 -0.5410156,0.191407 l -0.011719,0.01172 a 0.75,0.75 0 0 0 -0.056641,1.058594 0.75,0.75 0 0 0 1.0605468,0.05469 l 0.00977,-0.0098 a 0.75,0.75 0 0 0 0.056641,-1.058594 0.75,0.75 0 0 0 -0.5175782,-0.248047 z"
     id="path10" />
  <path
     style="color:#000000;fill:currentColor;stroke-linecap:round;stroke-linejoin:round;-inkscape-stroke:none"
     d="m 16.050781,19.240234 a 0.75,0.75 0 0 0 -0.541015,0.19336 l -0.01172,0.0098 a 0.75,0.75 0 0 0 -0.05469,1.058594 0.75,0.75 0 0 0 1.058594,0.05469 l 0.01172,-0.0098 a 0.75,0.75 0 0 0 0.05469,-1.058594 0.75,0.75 0 0 0 -0.517578,-0.248047 z"
     id="path12" />
  <path
     style="color:#000000;fill:currentColor;stroke-linecap:round;stroke-linejoin:round;-inkscape-stroke:none"
     d="m 12.050781,19.240234 a 0.75,0.75 0 0 0 -0.541015,0.19336 l -0.01172,0.0098 a 0.75,0.75 0 0 0 -0.05469,1.058594 0.75,0.75 0 0 0 1.058594,0.05469 l 0.01172,-0.0098 a 0.75,0.75 0 0 0 0.05469,-1.058594 0.75,0.75 0 0 0 -0.517578,-0.248047 z"
     id="path14" />
  <path
     style="color:#000000;fill:currentColor;stroke-linecap:round;stroke-linejoin:round;-inkscape-stroke:none"
     d="m 7.5097656,19.431641 -0.011719,0.01172 a 0.75,0.75 0 0 0 -0.056641,1.058594 0.75,0.75 0 0 0 1.0605469,0.05469 l 0.00977,-0.0098 a 0.75,0.75 0 0 0 0.056641,-1.058594 0.75,0.75 0 0 0 -1.0585938,-0.05664 z"
     id="path16" />
</svg>
