<?xml version="1.0" encoding="UTF-8" standalone="no"?>
<svg
   width="24"
   height="24"
   stroke-width="1.5"
   viewBox="0 0 24 24"
   fill="none"
   version="1.1"
   id="svg10"
   sodipodi:docname="bowling-ball.svg"
   inkscape:version="1.2.1 (9c6d41e410, 2022-07-14)"
   xmlns:inkscape="http://www.inkscape.org/namespaces/inkscape"
   xmlns:sodipodi="http://sodipodi.sourceforge.net/DTD/sodipodi-0.dtd"
   xmlns="http://www.w3.org/2000/svg"
   xmlns:svg="http://www.w3.org/2000/svg">
  <defs
     id="defs14" />
  <sodipodi:namedview
     id="namedview12"
     pagecolor="#ffffff"
     bordercolor="#666666"
     borderopacity="1.0"
     inkscape:showpageshadow="2"
     inkscape:pageopacity="0.0"
     inkscape:pagecheckerboard="0"
     inkscape:deskcolor="#d1d1d1"
     showgrid="false"
     inkscape:zoom="34.541667"
     inkscape:cx="10.364294"
     inkscape:cy="12.014475"
     inkscape:window-width="1920"
     inkscape:window-height="1009"
     inkscape:window-x="1912"
     inkscape:window-y="-8"
     inkscape:window-maximized="1"
     inkscape:current-layer="svg10" />
  <path
     style="color:#000000;fill:currentColor;stroke-linecap:round;stroke-linejoin:round;-inkscape-stroke:none"
     d="M 12,1.25 C 6.0718263,1.25 1.25,6.0718263 1.25,12 1.25,17.928127 6.0718217,22.75 12,22.75 17.928132,22.75 22.75,17.928132 22.75,12 22.75,6.0718217 17.928127,1.25 12,1.25 Z m 0,1.5 c 5.117462,0 9.25,4.1324893 9.25,9.25 0,5.117457 -4.132543,9.25 -9.25,9.25 C 6.8824893,21.25 2.75,17.117462 2.75,12 2.75,6.8824848 6.8824848,2.75 12,2.75 Z"
     id="path2" />
  <g
     id="path4">
    <path
       style="color:#000000;fill:currentColor;stroke-width:1.5;stroke-linecap:round;stroke-linejoin:round;-inkscape-stroke:none"
       d="M 11.5,8 C 11.7761,8 12,7.77614 12,7.5 12,7.22386 11.7761,7 11.5,7 11.2239,7 11,7.22386 11,7.5 11,7.77614 11.2239,8 11.5,8 Z"
       id="path203" />
    <path
       style="color:#000000;fill:currentColor;stroke-linecap:round;stroke-linejoin:round;-inkscape-stroke:none"
       d="m 11.5,6.25 c -0.681496,0 -1.25,0.5684504 -1.25,1.25 0,0.6815496 0.568504,1.25 1.25,1.25 0.681496,0 1.25,-0.5684504 1.25,-1.25 0,-0.6815496 -0.568504,-1.25 -1.25,-1.25 z m 0,1 c 0.129296,0 0.25,0.1207298 0.25,0.25 0,0.1292702 -0.120704,0.25 -0.25,0.25 -0.129296,0 -0.25,-0.1207298 -0.25,-0.25 0,-0.1292702 0.120704,-0.25 0.25,-0.25 z"
       id="path205" />
  </g>
  <g
     id="path6">
    <path
       style="color:#000000;fill:currentColor;stroke-width:1.5;stroke-linecap:round;stroke-linejoin:round;-inkscape-stroke:none"
       d="M 7.5,11 C 7.77614,11 8,10.7761 8,10.5 8,10.2239 7.77614,10 7.5,10 7.22386,10 7,10.2239 7,10.5 7,10.7761 7.22386,11 7.5,11 Z"
       id="path197" />
    <path
       style="color:#000000;fill:currentColor;stroke-linecap:round;stroke-linejoin:round;-inkscape-stroke:none"
       d="m 7.5,9.25 c -0.6815496,0 -1.25,0.5685041 -1.25,1.25 0,0.681496 0.5684504,1.25 1.25,1.25 0.6815496,0 1.25,-0.568504 1.25,-1.25 C 8.75,9.8185041 8.1815496,9.25 7.5,9.25 Z m 0,1 c 0.1292702,0 0.25,0.120704 0.25,0.25 0,0.129296 -0.1207298,0.25 -0.25,0.25 -0.1292702,0 -0.25,-0.120704 -0.25,-0.25 0,-0.129296 0.1207298,-0.25 0.25,-0.25 z"
       id="path199" />
  </g>
  <g
     id="path8">
    <path
       style="color:#000000;fill:currentColor;stroke-width:1.5;stroke-linecap:round;stroke-linejoin:round;-inkscape-stroke:none"
       d="M 11.5,13 C 11.7761,13 12,12.7761 12,12.5 12,12.2239 11.7761,12 11.5,12 11.2239,12 11,12.2239 11,12.5 c 0,0.2761 0.2239,0.5 0.5,0.5 z"
       id="path191" />
    <path
       style="color:#000000;fill:currentColor;stroke-linecap:round;stroke-linejoin:round;-inkscape-stroke:none"
       d="m 11.5,11.25 c -0.681568,0 -1.25,0.568432 -1.25,1.25 0,0.681568 0.568432,1.25 1.25,1.25 0.681568,0 1.25,-0.568432 1.25,-1.25 0,-0.681568 -0.568432,-1.25 -1.25,-1.25 z m 0,1 c 0.129369,0 0.25,0.120631 0.25,0.25 0,0.129369 -0.120631,0.25 -0.25,0.25 -0.129369,0 -0.25,-0.120631 -0.25,-0.25 0,-0.129369 0.120631,-0.25 0.25,-0.25 z"
       id="path193" />
  </g>
</svg>
