<?xml version="1.0" encoding="UTF-8" standalone="no"?>
<svg
   width="24"
   height="24"
   viewBox="0 0 24 24"
   stroke-width="1.5"
   fill="none"
   version="1.1"
   id="svg10"
   sodipodi:docname="box-3d-point.svg"
   inkscape:version="1.2.1 (9c6d41e410, 2022-07-14)"
   xmlns:inkscape="http://www.inkscape.org/namespaces/inkscape"
   xmlns:sodipodi="http://sodipodi.sourceforge.net/DTD/sodipodi-0.dtd"
   xmlns="http://www.w3.org/2000/svg"
   xmlns:svg="http://www.w3.org/2000/svg">
  <defs
     id="defs14" />
  <sodipodi:namedview
     id="namedview12"
     pagecolor="#ffffff"
     bordercolor="#666666"
     borderopacity="1.0"
     inkscape:showpageshadow="2"
     inkscape:pageopacity="0.0"
     inkscape:pagecheckerboard="0"
     inkscape:deskcolor="#d1d1d1"
     showgrid="false"
     inkscape:zoom="34.541667"
     inkscape:cx="10.364294"
     inkscape:cy="12.014475"
     inkscape:window-width="1920"
     inkscape:window-height="1009"
     inkscape:window-x="1912"
     inkscape:window-y="-8"
     inkscape:window-maximized="1"
     inkscape:current-layer="svg10" />
  <g
     id="path2">
    <path
       style="color:#000000;fill:currentColor;stroke-width:1.5;stroke-linecap:round;stroke-linejoin:round;-inkscape-stroke:none"
       d="m 3,18 c 0.55228,0 1,-0.4477 1,-1 0,-0.5523 -0.44772,-1 -1,-1 -0.55228,0 -1,0.4477 -1,1 0,0.5523 0.44772,1 1,1 z"
       id="path203" />
    <path
       style="color:#000000;fill:currentColor;stroke-linecap:round;stroke-linejoin:round;-inkscape-stroke:none"
       d="m 3,15.25 c -0.9575988,0 -1.75,0.792378 -1.75,1.75 0,0.957622 0.7924012,1.75 1.75,1.75 0.9575988,0 1.75,-0.792378 1.75,-1.75 0,-0.957622 -0.7924012,-1.75 -1.75,-1.75 z m 0,1.5 c 0.1469601,0 0.25,0.103023 0.25,0.25 0,0.146977 -0.1030399,0.25 -0.25,0.25 -0.1469601,0 -0.25,-0.103023 -0.25,-0.25 0,-0.146977 0.1030399,-0.25 0.25,-0.25 z"
       id="path205" />
  </g>
  <path
     style="color:#000000;fill:currentColor;stroke-linecap:round;stroke-linejoin:round;-inkscape-stroke:none"
     d="M 11.34375,1.5058594 2.9453125,6.1738281 C 2.5178738,6.4112891 2.25,6.8645285 2.25,7.3535156 v 9.2929684 c 0,0.488988 0.2662695,0.942229 0.6933594,1.179688 a 0.750075,0.750075 0 0 0 0.00195,0 l 8.3984375,4.667969 c 0.406915,0.226138 0.905585,0.226138 1.3125,0 l 8.398437,-4.667969 a 0.750075,0.750075 0 0 0 0.002,0 C 21.483807,17.588708 21.75,17.13538 21.75,16.646484 V 7.3535156 c 0,-0.4891248 -0.266078,-0.9422144 -0.693359,-1.1796875 a 0.750075,0.750075 0 0 0 -0.002,0 L 12.65625,1.5058594 c -0.406896,-0.2260606 -0.905604,-0.2260606 -1.3125,0 z M 12,2.859375 20.25,7.4414062 V 16.558594 L 12,21.140625 3.75,16.558594 V 7.4414062 Z"
     id="path4" />
  <path
     style="color:#000000;fill:currentColor;stroke-linecap:round;stroke-linejoin:round;-inkscape-stroke:none"
     d="m 20.705078,6.5566406 a 0.75,0.75 0 0 0 -0.568359,0.066406 L 12,11.140625 3.8925781,6.6386719 A 0.75,0.75 0 0 0 2.8730469,6.9296875 0.75,0.75 0 0 0 3.1640625,7.9492187 L 11.34375,12.494141 c 0.40685,0.225878 0.90565,0.225878 1.3125,0 L 20.863281,7.9335937 A 0.75,0.75 0 0 0 21.15625,6.9140625 0.75,0.75 0 0 0 20.705078,6.5566406 Z"
     id="path6" />
  <path
     style="color:#000000;fill:currentColor;stroke-linecap:round;stroke-linejoin:round;-inkscape-stroke:none"
     d="M 12,11.25 A 0.75,0.75 0 0 0 11.25,12 v 9 A 0.75,0.75 0 0 0 12,21.75 0.75,0.75 0 0 0 12.75,21 V 12 A 0.75,0.75 0 0 0 12,11.25 Z"
     id="path8" />
</svg>
