<?xml version="1.0" encoding="UTF-8" standalone="no"?>
<svg
   width="24"
   height="24"
   stroke-width="1.5"
   viewBox="0 0 24 24"
   fill="none"
   version="1.1"
   id="svg8"
   sodipodi:docname="box-iso.svg"
   inkscape:version="1.2.1 (9c6d41e410, 2022-07-14)"
   xmlns:inkscape="http://www.inkscape.org/namespaces/inkscape"
   xmlns:sodipodi="http://sodipodi.sourceforge.net/DTD/sodipodi-0.dtd"
   xmlns="http://www.w3.org/2000/svg"
   xmlns:svg="http://www.w3.org/2000/svg">
  <defs
     id="defs12" />
  <sodipodi:namedview
     id="namedview10"
     pagecolor="#ffffff"
     bordercolor="#666666"
     borderopacity="1.0"
     inkscape:showpageshadow="2"
     inkscape:pageopacity="0.0"
     inkscape:pagecheckerboard="0"
     inkscape:deskcolor="#d1d1d1"
     showgrid="false"
     inkscape:zoom="34.541667"
     inkscape:cx="10.364294"
     inkscape:cy="12.014475"
     inkscape:window-width="1920"
     inkscape:window-height="1009"
     inkscape:window-x="1912"
     inkscape:window-y="-8"
     inkscape:window-maximized="1"
     inkscape:current-layer="svg8" />
  <path
     d="M2.6954 7.18536L11.6954 11.1854L12.3046 9.81464L3.3046 5.81464L2.6954 7.18536ZM12.75 21.5V10.5H11.25V21.5H12.75ZM12.3046 11.1854L21.3046 7.18536L20.6954 5.81464L11.6954 9.81464L12.3046 11.1854Z"
     fill="currentColor"
     id="path2" />
  <path
     style="color:#000000;fill:currentColor;stroke-linecap:round;stroke-linejoin:round;-inkscape-stroke:none"
     d="M 11.451172,1.9238281 3.0507813,5.65625 C 2.5650253,5.8721365 2.25,6.359053 2.25,6.890625 v 10.21875 c 0,0.531574 0.3149725,1.018465 0.8007813,1.234375 l 8.4003907,3.732422 a 0.750075,0.750075 0 0 0 0,0.002 c 0.348481,0.154706 0.749175,0.154706 1.097656,0 a 0.750075,0.750075 0 0 0 0,-0.002 L 20.949219,18.34375 C 21.435076,18.127838 21.75,17.640865 21.75,17.109375 V 6.890625 C 21.75,6.3591374 21.435023,5.8721383 20.949219,5.65625 L 12.548828,1.9238281 c -0.348552,-0.1548498 -0.749104,-0.1548498 -1.097656,0 z M 12,3.3203125 20.25,6.9882812 V 17.011719 L 12,20.679687 3.75,17.011719 V 6.9882812 Z"
     id="path4" />
  <path
     style="color:#000000;fill:currentColor;stroke-linecap:round;stroke-linejoin:round;-inkscape-stroke:none"
     d="M 7.8046875,3.8144531 A 0.75,0.75 0 0 0 6.8144531,4.1953125 0.75,0.75 0 0 0 7.1953125,5.1855469 L 15.75,8.9882813 V 12.5 a 0.75,0.75 0 0 0 0.75,0.75 0.75,0.75 0 0 0 0.75,-0.75 V 8.890625 c 0,-0.5314876 -0.314977,-1.0184867 -0.800781,-1.234375 z"
     id="path6" />
</svg>
