<?xml version="1.0" encoding="UTF-8" standalone="no"?>
<svg
   width="24"
   height="24"
   stroke-width="1.5"
   viewBox="0 0 24 24"
   fill="none"
   version="1.1"
   id="svg8"
   sodipodi:docname="boxing-glove.svg"
   inkscape:version="1.2.1 (9c6d41e410, 2022-07-14)"
   xmlns:inkscape="http://www.inkscape.org/namespaces/inkscape"
   xmlns:sodipodi="http://sodipodi.sourceforge.net/DTD/sodipodi-0.dtd"
   xmlns="http://www.w3.org/2000/svg"
   xmlns:svg="http://www.w3.org/2000/svg">
  <defs
     id="defs12" />
  <sodipodi:namedview
     id="namedview10"
     pagecolor="#ffffff"
     bordercolor="#666666"
     borderopacity="1.0"
     inkscape:showpageshadow="2"
     inkscape:pageopacity="0.0"
     inkscape:pagecheckerboard="0"
     inkscape:deskcolor="#d1d1d1"
     showgrid="false"
     inkscape:zoom="34.541667"
     inkscape:cx="10.364294"
     inkscape:cy="12.014475"
     inkscape:window-width="1920"
     inkscape:window-height="1009"
     inkscape:window-x="1912"
     inkscape:window-y="-8"
     inkscape:window-maximized="1"
     inkscape:current-layer="svg8" />
  <path
     style="color:#000000;fill:currentColor;stroke-linecap:round;stroke-linejoin:round;-inkscape-stroke:none"
     d="M 13.421875,2.25 C 11.167109,2.25 9.4908762,2.5011508 8.3007813,3.4316406 7.3062262,4.2092453 6.9019013,5.4898977 6.7675781,7.0390625 6.3650011,6.9401471 6.0167195,6.7916633 5.5488281,6.8046875 5.1416619,6.8160213 4.7151442,6.8881655 4.3144531,7.1074219 3.9137621,7.3266783 3.5586761,7.7209498 3.3925781,8.2167969 3.179808,8.8519746 3.2159954,9.5681675 3.3554688,10.410156 c 0.1394733,0.841989 0.4118404,1.790688 0.8085937,2.759766 0.7367088,1.799426 1.9427842,3.615559 3.5742187,4.849609 V 21 a 0.750075,0.750075 0 0 0 0.7500001,0.75 h 9.8671877 a 0.750075,0.750075 0 0 0 0.75,-0.75 V 17.828125 C 19.789448,16.583028 20.75,13.82131 20.75,9.5449219 20.75,6.7171604 20.170712,4.8141027 18.847656,3.6621094 17.524601,2.510116 15.676617,2.25 13.421875,2.25 Z m 0,1.5 c 2.130354,0 3.571889,0.285874 4.441406,1.0429687 C 18.732799,5.5500635 19.25,6.9181488 19.25,9.5449219 c 0,3.9378511 -0.938773,6.5132591 -1.40625,7.4316401 H 8.7792969 C 7.3899674,15.993341 6.2418442,14.289498 5.5507812,12.601563 5.193839,11.729724 4.9534067,10.873214 4.8359375,10.164063 4.7184683,9.4549107 4.7531535,8.8763558 4.8144531,8.6933594 4.8676149,8.5346571 4.9208206,8.4863921 5.0351562,8.4238281 5.1494919,8.3612642 5.34576,8.3115362 5.5917969,8.3046875 6.0838707,8.2909902 6.7398576,8.4560527 7.1152344,8.6054688 A 0.750075,0.750075 0 0 0 8.1425781,7.9082031 c 0,-1.8014178 0.3536306,-2.7254132 1.0820313,-3.2949219 C 9.95301,4.0437726 11.291496,3.75 13.421875,3.75 Z M 9.2382813,18.476562 H 17.605469 V 20.25 H 9.2382813 Z"
     id="path2" />
  <path
     style="color:#000000;fill:currentColor;stroke-linecap:round;stroke-linejoin:round;-inkscape-stroke:none"
     d="m 7.390625,7.1582031 a 0.75,0.75 0 0 0 -0.5292969,0.2226563 0.75,0.75 0 0 0 0.00195,1.0605469 C 7.388187,8.9637265 8.540879,9.75 10.132813,9.75 h 4.933593 a 0.75,0.75 0 0 0 0.75,-0.75 0.75,0.75 0 0 0 -0.75,-0.75 H 10.132813 C 9.0937287,8.25 8.1278285,7.5818922 7.921875,7.3769531 a 0.75,0.75 0 0 0 -0.53125,-0.21875 z"
     id="path4" />
  <path
     style="color:#000000;fill:currentColor;stroke-linecap:round;stroke-linejoin:round;-inkscape-stroke:none"
     d="m 7.3925781,7.1582031 a 0.75,0.75 0 0 0 -0.75,0.75 c 0,2.0167732 0.432161,3.3092429 1.1503906,4.1132809 0.7182297,0.804039 1.6673409,1.001954 2.3398443,1.001954 a 0.75,0.75 0 0 0 0.75,-0.75 0.75,0.75 0 0 0 -0.75,-0.75 c -0.4237465,0 -0.8426568,-0.07679 -1.2207036,-0.5 C 8.5340626,10.600225 8.1425781,9.7096361 8.1425781,7.9082031 a 0.75,0.75 0 0 0 -0.75,-0.75 z"
     id="path6" />
</svg>
