<?xml version="1.0" encoding="UTF-8" standalone="no"?>
<svg
   width="24"
   height="24"
   viewBox="0 0 24 24"
   stroke-width="1.5"
   fill="none"
   version="1.1"
   id="svg24"
   sodipodi:docname="brain.svg"
   inkscape:version="1.2.1 (9c6d41e410, 2022-07-14)"
   xmlns:inkscape="http://www.inkscape.org/namespaces/inkscape"
   xmlns:sodipodi="http://sodipodi.sourceforge.net/DTD/sodipodi-0.dtd"
   xmlns="http://www.w3.org/2000/svg"
   xmlns:svg="http://www.w3.org/2000/svg">
  <defs
     id="defs28" />
  <sodipodi:namedview
     id="namedview26"
     pagecolor="#ffffff"
     bordercolor="#666666"
     borderopacity="1.0"
     inkscape:showpageshadow="2"
     inkscape:pageopacity="0.0"
     inkscape:pagecheckerboard="0"
     inkscape:deskcolor="#d1d1d1"
     showgrid="false"
     inkscape:zoom="34.541667"
     inkscape:cx="10.364294"
     inkscape:cy="12.014475"
     inkscape:window-width="1920"
     inkscape:window-height="1009"
     inkscape:window-x="1912"
     inkscape:window-y="-8"
     inkscape:window-maximized="1"
     inkscape:current-layer="svg24" />
  <path
     style="color:#000000;fill:currentColor;stroke-linecap:round;stroke-linejoin:round;-inkscape-stroke:none"
     d="m 7,13.25 c -2.0621653,0 -3.75,1.687782 -3.75,3.75 0,2.062218 1.6878347,3.75 3.75,3.75 0.4364826,0 0.85855,-0.0746 1.25,-0.212891 A 0.75,0.75 0 0 0 8.7070313,19.580078 0.75,0.75 0 0 0 7.75,19.123047 C 7.5158906,19.205754 7.2647967,19.25 7,19.25 5.7484686,19.25 4.75,18.251579 4.75,17 4.75,15.748421 5.7484686,14.75 7,14.75 A 0.75,0.75 0 0 0 7.75,14 0.75,0.75 0 0 0 7,13.25 Z"
     id="path2" />
  <path
     style="color:#000000;fill:currentColor;stroke-linecap:round;stroke-linejoin:round;-inkscape-stroke:none"
     d="M 3.4453125,8.2207031 A 0.75,0.75 0 0 0 2.9003906,8.4003906 C 1.8907112,9.2706861 1.25,10.565998 1.25,12 c 0,1.878195 1.0956037,3.511167 2.6875,4.279297 a 0.75,0.75 0 0 0 1.0019531,-0.349609 0.75,0.75 0 0 0 -0.3496094,-1 C 3.5025027,14.405018 2.75,13.295801 2.75,12 2.75,11.010604 3.1865674,10.133872 3.8789063,9.5371094 A 0.75,0.75 0 0 0 3.9570313,8.4785156 0.75,0.75 0 0 0 3.4453125,8.2207031 Z"
     id="path4" />
  <path
     style="color:#000000;fill:currentColor;stroke-linecap:round;stroke-linejoin:round;-inkscape-stroke:none"
     d="m 5.5,4.25 c -1.7860395,0 -3.25,1.4639605 -3.25,3.25 0,0.6644188 0.2016972,1.2886556 0.546875,1.8046875 A 0.75,0.75 0 0 0 3.8378906,9.5117188 0.75,0.75 0 0 0 4.0429687,8.4707031 C 3.8568871,8.1925159 3.75,7.8628402 3.75,7.5 3.75,6.5246223 4.5246223,5.75 5.5,5.75 c 0.3976612,0 0.7558468,0.1294825 1.0488281,0.3496094 A 0.75,0.75 0 0 0 7.5996094,5.9511719 0.75,0.75 0 0 0 7.4511719,4.9003906 C 6.908414,4.4925981 6.2281577,4.25 5.5,4.25 Z"
     id="path6" />
  <path
     style="color:#000000;fill:currentColor;stroke-linecap:round;stroke-linejoin:round;-inkscape-stroke:none"
     d="m 9.5,1.25 c -1.7860395,0 -3.25,1.4639605 -3.25,3.25 0,0.4928842 0.1101934,0.9641751 0.3085937,1.3847656 a 0.75,0.75 0 0 0 1,0.359375 0.75,0.75 0 0 0 0.3574219,-0.9980469 C 7.8095163,5.0203249 7.75,4.769175 7.75,4.5 7.75,3.5246223 8.5246223,2.75 9.5,2.75 c 0.975365,0 1.75,0.7746259 1.75,1.75 V 20 A 0.75,0.75 0 0 0 12,20.75 0.75,0.75 0 0 0 12.75,20 V 4.5 C 12.75,2.7139568 11.286032,1.25 9.5,1.25 Z"
     id="path8" />
  <path
     style="color:#000000;fill:currentColor;stroke-linecap:round;stroke-linejoin:round;-inkscape-stroke:none"
     d="M 8,19.25 A 0.75,0.75 0 0 0 7.25,20 c 0,1.509917 1.2401154,2.75 2.75,2.75 1.509904,0 2.75,-1.240096 2.75,-2.75 A 0.75,0.75 0 0 0 12,19.25 0.75,0.75 0 0 0 11.25,20 c 0,0.699294 -0.550706,1.25 -1.25,1.25 C 9.3007468,21.25 8.75,20.699281 8.75,20 A 0.75,0.75 0 0 0 8,19.25 Z"
     id="path10" />
  <path
     style="color:#000000;fill:currentColor;stroke-linecap:round;stroke-linejoin:round;-inkscape-stroke:none"
     d="M 12,6.25 A 0.75,0.75 0 0 0 11.25,7 c 0,2.0621653 1.687782,3.75 3.75,3.75 A 0.75,0.75 0 0 0 15.75,10 0.75,0.75 0 0 0 15,9.25 C 13.748421,9.25 12.75,8.2515314 12.75,7 A 0.75,0.75 0 0 0 12,6.25 Z"
     id="path12" />
  <path
     style="color:#000000;fill:currentColor;stroke-linecap:round;stroke-linejoin:round;-inkscape-stroke:none"
     d="M 17,13.25 A 0.75,0.75 0 0 0 16.25,14 0.75,0.75 0 0 0 17,14.75 c 1.251594,0 2.25,0.998406 2.25,2.25 0,1.251594 -0.998406,2.25 -2.25,2.25 -0.264747,0 -0.515867,-0.04424 -0.75,-0.126953 A 0.75,0.75 0 0 0 15.292969,19.580078 0.75,0.75 0 0 0 15.75,20.537109 C 16.141466,20.675399 16.563548,20.75 17,20.75 c 2.062203,0 3.75,-1.687797 3.75,-3.75 0,-2.062203 -1.687797,-3.75 -3.75,-3.75 z"
     id="path14" />
  <path
     style="color:#000000;fill:currentColor;stroke-linecap:round;stroke-linejoin:round;-inkscape-stroke:none"
     d="m 20.554687,8.2207031 a 0.75,0.75 0 0 0 -0.511718,0.2578125 0.75,0.75 0 0 0 0.07813,1.0585938 C 20.81344,10.133886 21.25,11.010633 21.25,12 c 0,1.295789 -0.752517,2.405018 -1.839844,2.929688 a 0.75,0.75 0 0 0 -0.349609,1 0.75,0.75 0 0 0 1.001953,0.349609 C 21.654371,15.511168 22.75,13.878208 22.75,12 22.75,10.565969 22.109262,9.2706728 21.099609,8.4003906 A 0.75,0.75 0 0 0 20.554687,8.2207031 Z"
     id="path16" />
  <path
     style="color:#000000;fill:currentColor;stroke-linecap:round;stroke-linejoin:round;-inkscape-stroke:none"
     d="m 18.5,4.25 c -0.728151,0 -1.408427,0.2425398 -1.951172,0.6503906 a 0.75,0.75 0 0 0 -0.148437,1.0507813 0.75,0.75 0 0 0 1.050781,0.1484375 C 17.744027,5.8795408 18.102352,5.75 18.5,5.75 c 0.975365,0 1.75,0.7746259 1.75,1.75 0,0.3628402 -0.106899,0.6925022 -0.292969,0.9707031 a 0.75,0.75 0 0 0 0.205078,1.0410157 0.75,0.75 0 0 0 1.041016,-0.2070313 C 21.548255,8.7886692 21.75,8.1644188 21.75,7.5 21.75,5.7139568 20.286032,4.25 18.5,4.25 Z"
     id="path18" />
  <path
     style="color:#000000;fill:currentColor;stroke-linecap:round;stroke-linejoin:round;-inkscape-stroke:none"
     d="m 14.5,1.25 c -1.786032,0 -3.25,1.4639568 -3.25,3.25 A 0.75,0.75 0 0 0 12,5.25 0.75,0.75 0 0 0 12.75,4.5 c 0,-0.9753741 0.774635,-1.75 1.75,-1.75 0.975365,0 1.75,0.7746259 1.75,1.75 0,0.2692275 -0.05953,0.5204172 -0.166016,0.7460937 a 0.75,0.75 0 0 0 0.357422,0.9980469 0.75,0.75 0 0 0 1,-0.359375 C 17.639915,5.4640828 17.75,4.9928317 17.75,4.5 17.75,2.7139568 16.286032,1.25 14.5,1.25 Z"
     id="path20" />
  <path
     style="color:#000000;fill:currentColor;stroke-linecap:round;stroke-linejoin:round;-inkscape-stroke:none"
     d="M 12,19.25 A 0.75,0.75 0 0 0 11.25,20 c 0,1.509904 1.240096,2.75 2.75,2.75 1.509904,0 2.75,-1.240096 2.75,-2.75 A 0.75,0.75 0 0 0 16,19.25 0.75,0.75 0 0 0 15.25,20 c 0,0.699294 -0.550706,1.25 -1.25,1.25 -0.699294,0 -1.25,-0.550706 -1.25,-1.25 A 0.75,0.75 0 0 0 12,19.25 Z"
     id="path22" />
</svg>
