<?xml version="1.0" encoding="UTF-8" standalone="no"?>
<svg
   width="24"
   height="24"
   viewBox="0 0 24 24"
   stroke-width="1.5"
   fill="none"
   version="1.1"
   id="svg6"
   sodipodi:docname="bread-slice.svg"
   inkscape:version="1.2.1 (9c6d41e410, 2022-07-14)"
   xmlns:inkscape="http://www.inkscape.org/namespaces/inkscape"
   xmlns:sodipodi="http://sodipodi.sourceforge.net/DTD/sodipodi-0.dtd"
   xmlns="http://www.w3.org/2000/svg"
   xmlns:svg="http://www.w3.org/2000/svg">
  <defs
     id="defs10" />
  <sodipodi:namedview
     id="namedview8"
     pagecolor="#ffffff"
     bordercolor="#666666"
     borderopacity="1.0"
     inkscape:showpageshadow="2"
     inkscape:pageopacity="0.0"
     inkscape:pagecheckerboard="0"
     inkscape:deskcolor="#d1d1d1"
     showgrid="false"
     inkscape:zoom="34.541667"
     inkscape:cx="10.364294"
     inkscape:cy="12.014475"
     inkscape:window-width="1920"
     inkscape:window-height="1009"
     inkscape:window-x="1912"
     inkscape:window-y="-8"
     inkscape:window-maximized="1"
     inkscape:current-layer="svg6" />
  <path
     style="color:#000000;fill:currentColor;stroke-linecap:round;stroke-linejoin:round;-inkscape-stroke:none"
     d="M 9.5,3.25 C 7.7788361,3.25 6.6252571,3.5624491 5.875,4.2148437 5.1247429,4.8672384 4.9529837,5.8291621 5.0703125,6.6113281 5.2720235,7.9560236 6.0159362,8.9376447 6.25,9.2324219 V 20 A 0.750075,0.750075 0 0 0 7,20.75 h 11 c 1.509904,0 2.75,-1.240096 2.75,-2.75 V 9.2285156 C 20.987335,8.9305732 21.734123,7.9437858 21.871094,6.5742187 21.950843,5.7768102 21.694546,4.8149101 20.878906,4.1875 20.063267,3.5600899 18.839308,3.25 17,3.25 Z m 0,1.5 H 17 c 1.660739,0 2.561725,0.3149111 2.964844,0.625 0.403118,0.3100889 0.459326,0.5981911 0.414062,1.0507812 C 20.288379,7.3309616 19.414063,8.53125 19.414062,8.53125 A 0.750075,0.750075 0 0 0 19.25,9 v 9 c 0,0.699294 -0.550706,1.25 -1.25,1.25 H 7.75 V 9 A 0.750075,0.750075 0 0 0 7.5859375,8.53125 c 0,0 -0.8908955,-1.2069126 -1.03125,-2.1425781 C 6.4845102,5.9208391 6.5315035,5.6327606 6.859375,5.3476562 7.1872465,5.0625519 7.9711421,4.75 9.5,4.75 Z"
     id="path2" />
  <path
     style="color:#000000;fill:currentColor;stroke-linecap:round;stroke-linejoin:round;-inkscape-stroke:none"
     d="M 6.5,3.25 C 4.7788361,3.25 3.6252571,3.5624491 2.875,4.2148437 2.1247429,4.8672384 1.9529837,5.8291621 2.0703125,6.6113281 2.2720235,7.9560236 3.0159362,8.9376447 3.25,9.2324219 V 18 c 0,1.509917 1.2401154,2.75 2.75,2.75 H 7 A 0.75,0.75 0 0 0 7.75,20 0.75,0.75 0 0 0 7,19.25 H 6 C 5.3007468,19.25 4.75,18.699281 4.75,18 V 9 A 0.750075,0.750075 0 0 0 4.5859375,8.53125 c 0,0 -0.8908955,-1.2069126 -1.03125,-2.1425781 C 3.4845103,5.9208391 3.5315035,5.6327606 3.859375,5.3476562 4.1872465,5.0625519 4.9711421,4.75 6.5,4.75 H 10 A 0.75,0.75 0 0 0 10.75,4 0.75,0.75 0 0 0 10,3.25 Z"
     id="path4" />
</svg>
