<?xml version="1.0" encoding="UTF-8" standalone="no"?>
<svg
   width="24"
   height="24"
   viewBox="0 0 24 24"
   stroke-width="1.5"
   fill="none"
   version="1.1"
   id="svg18"
   sodipodi:docname="bridge-surface.svg"
   inkscape:version="1.2.1 (9c6d41e410, 2022-07-14)"
   xmlns:inkscape="http://www.inkscape.org/namespaces/inkscape"
   xmlns:sodipodi="http://sodipodi.sourceforge.net/DTD/sodipodi-0.dtd"
   xmlns="http://www.w3.org/2000/svg"
   xmlns:svg="http://www.w3.org/2000/svg">
  <defs
     id="defs22" />
  <sodipodi:namedview
     id="namedview20"
     pagecolor="#ffffff"
     bordercolor="#666666"
     borderopacity="1.0"
     inkscape:showpageshadow="2"
     inkscape:pageopacity="0.0"
     inkscape:pagecheckerboard="0"
     inkscape:deskcolor="#d1d1d1"
     showgrid="false"
     inkscape:zoom="34.541667"
     inkscape:cx="10.364294"
     inkscape:cy="12.014475"
     inkscape:window-width="1920"
     inkscape:window-height="1009"
     inkscape:window-x="1912"
     inkscape:window-y="-8"
     inkscape:window-maximized="1"
     inkscape:current-layer="svg18" />
  <path
     style="color:#000000;fill:currentColor;stroke-linecap:round;stroke-linejoin:round;-inkscape-stroke:none"
     d="M 3,11.25 A 0.75,0.75 0 0 0 2.25,12 c 0,2.124998 0.5188805,4.515105 1.890625,6.435547 C 5.5123695,20.355989 7.7916699,21.75 11,21.75 A 0.75,0.75 0 0 0 11.75,21 0.75,0.75 0 0 0 11,20.25 C 8.2083361,20.25 6.487628,19.144007 5.359375,17.564453 4.231122,15.984899 3.75,13.874998 3.75,12 A 0.75,0.75 0 0 0 3,11.25 Z"
     id="path2" />
  <path
     style="color:#000000;fill:currentColor;stroke-linecap:round;stroke-linejoin:round;-inkscape-stroke:none"
     d="M 10,5.25 A 0.75,0.75 0 0 0 9.25,6 c 0,2.1249979 0.5188805,4.515105 1.890625,6.435547 C 12.512369,14.355989 14.79167,15.75 18,15.75 A 0.75,0.75 0 0 0 18.75,15 0.75,0.75 0 0 0 18,14.25 c -2.791664,0 -4.512372,-1.105993 -5.640625,-2.685547 C 11.231122,9.9848989 10.75,7.8749981 10.75,6 A 0.75,0.75 0 0 0 10,5.25 Z"
     id="path4" />
  <path
     style="color:#000000;fill:currentColor;stroke-linecap:round;stroke-linejoin:round;-inkscape-stroke:none"
     d="M 3,5.75 A 0.75,0.75 0 0 0 2.25,6.5 v 2 A 0.75,0.75 0 0 0 3,9.25 0.75,0.75 0 0 0 3.75,8.5 v -2 A 0.75,0.75 0 0 0 3,5.75 Z"
     id="path6" />
  <path
     style="color:#000000;fill:currentColor;stroke-linecap:round;stroke-linejoin:round;-inkscape-stroke:none"
     d="M 10,0.25 A 0.75,0.75 0 0 0 9.25,1 V 3 A 0.75,0.75 0 0 0 10,3.75 0.75,0.75 0 0 0 10.75,3 V 1 A 0.75,0.75 0 0 0 10,0.25 Z"
     id="path8" />
  <path
     style="color:#000000;fill:currentColor;stroke-linecap:round;stroke-linejoin:round;-inkscape-stroke:none"
     d="M 10.056641,5.2519531 A 0.75,0.75 0 0 0 9.5117188,5.4296875 l -7,6.0000005 a 0.75,0.75 0 0 0 -0.082031,1.058593 0.75,0.75 0 0 0 1.0585938,0.08203 L 10.488281,6.5703125 a 0.75,0.75 0 0 0 0.08203,-1.0585938 0.75,0.75 0 0 0 -0.513672,-0.2597656 z"
     id="path10" />
  <path
     style="color:#000000;fill:currentColor;stroke-linecap:round;stroke-linejoin:round;-inkscape-stroke:none"
     d="m 18.056641,14.251953 a 0.75,0.75 0 0 0 -0.544922,0.177735 l -7,5.999999 a 0.75,0.75 0 0 0 -0.08203,1.058594 0.75,0.75 0 0 0 1.058593,0.08203 l 7,-5.999999 a 0.75,0.75 0 0 0 0.08203,-1.058594 0.75,0.75 0 0 0 -0.513671,-0.259766 z"
     id="path12" />
  <path
     style="color:#000000;fill:currentColor;stroke-linecap:round;stroke-linejoin:round;-inkscape-stroke:none"
     d="M 14.5,20.25 A 0.75,0.75 0 0 0 13.75,21 0.75,0.75 0 0 0 14.5,21.75 h 2 A 0.75,0.75 0 0 0 17.25,21 0.75,0.75 0 0 0 16.5,20.25 Z"
     id="path14" />
  <path
     style="color:#000000;fill:currentColor;stroke-linecap:round;stroke-linejoin:round;-inkscape-stroke:none"
     d="M 21,14.25 A 0.75,0.75 0 0 0 20.25,15 0.75,0.75 0 0 0 21,15.75 h 2 A 0.75,0.75 0 0 0 23.75,15 0.75,0.75 0 0 0 23,14.25 Z"
     id="path16" />
</svg>
