<?xml version="1.0" encoding="UTF-8" standalone="no"?>
<svg
   width="24"
   height="24"
   viewBox="0 0 24 24"
   stroke-width="1.5"
   fill="none"
   version="1.1"
   id="svg27"
   sodipodi:docname="bright-star.svg"
   inkscape:version="1.2.1 (9c6d41e410, 2022-07-14)"
   xmlns:inkscape="http://www.inkscape.org/namespaces/inkscape"
   xmlns:sodipodi="http://sodipodi.sourceforge.net/DTD/sodipodi-0.dtd"
   xmlns="http://www.w3.org/2000/svg"
   xmlns:svg="http://www.w3.org/2000/svg">
  <sodipodi:namedview
     id="namedview29"
     pagecolor="#ffffff"
     bordercolor="#666666"
     borderopacity="1.0"
     inkscape:showpageshadow="2"
     inkscape:pageopacity="0.0"
     inkscape:pagecheckerboard="0"
     inkscape:deskcolor="#d1d1d1"
     showgrid="false"
     inkscape:zoom="34.541667"
     inkscape:cx="10.364294"
     inkscape:cy="12.014475"
     inkscape:window-width="1920"
     inkscape:window-height="1009"
     inkscape:window-x="1912"
     inkscape:window-y="-8"
     inkscape:window-maximized="1"
     inkscape:current-layer="svg27" />
  <path
     style="color:#000000;fill:currentColor;stroke-linecap:round;stroke-linejoin:round;-inkscape-stroke:none"
     d="m 12,5.25 c -0.467118,0 -0.949047,0.2839351 -1.167969,0.7480469 L 9.4433594,8.9414063 6.3535156,9.4140625 C 5.314458,9.5729952 4.9055792,10.915015 5.6308594,11.654297 l 2.2539062,2.298828 -0.5332031,3.257812 c -0.082605,0.504149 0.1363792,0.995963 0.5039062,1.275391 0.3675271,0.279428 0.9310974,0.355449 1.3886719,0.103516 L 12,17.074219 l 2.755859,1.515625 c 0.457572,0.251944 1.021153,0.175911 1.388672,-0.103516 0.367519,-0.279427 0.586489,-0.771249 0.503906,-1.275391 l -0.533203,-3.257812 2.253907,-2.298828 c 0.725196,-0.73931 0.316403,-2.0813086 -0.722657,-2.2402345 L 14.554688,8.9414063 13.167969,5.9980469 C 12.949047,5.5339351 12.467118,5.25 12,5.25 Z m 0,1.7910156 1.369141,2.9023438 a 0.750075,0.750075 0 0 0 0.564453,0.4199216 l 3.130859,0.478516 -2.287109,2.333984 a 0.750075,0.750075 0 0 0 -0.205078,0.646485 l 0.533203,3.248046 -2.744141,-1.509765 a 0.750075,0.750075 0 0 0 -0.722656,0 L 8.8945313,17.070312 9.4277344,13.822266 A 0.750075,0.750075 0 0 0 9.2226563,13.175781 L 6.9355469,10.841797 10.066406,10.363281 a 0.750075,0.750075 0 0 0 0.564453,-0.4199216 z"
     id="path2" />
  <path
     style="color:#000000;fill:currentColor;stroke-linecap:round;stroke-linejoin:round;-inkscape-stroke:none"
     d="M 22,11.25 A 0.75,0.75 0 0 0 21.25,12 0.75,0.75 0 0 0 22,12.75 h 1 A 0.75,0.75 0 0 0 23.75,12 0.75,0.75 0 0 0 23,11.25 Z"
     id="path4" />
  <path
     style="color:#000000;fill:currentColor;stroke-linecap:round;stroke-linejoin:round;-inkscape-stroke:none"
     d="M 12,0.25 A 0.75,0.75 0 0 0 11.25,1 V 2 A 0.75,0.75 0 0 0 12,2.75 0.75,0.75 0 0 0 12.75,2 V 1 A 0.75,0.75 0 0 0 12,0.25 Z"
     id="path6" />
  <path
     style="color:#000000;fill:currentColor;stroke-linecap:round;stroke-linejoin:round;-inkscape-stroke:none"
     d="M 12,21.25 A 0.75,0.75 0 0 0 11.25,22 v 1 A 0.75,0.75 0 0 0 12,23.75 0.75,0.75 0 0 0 12.75,23 V 22 A 0.75,0.75 0 0 0 12,21.25 Z"
     id="path8" />
  <path
     style="color:#000000;fill:currentColor;stroke-linecap:round;stroke-linejoin:round;-inkscape-stroke:none"
     d="m 19,18.25 a 0.75,0.75 0 0 0 -0.53125,0.21875 0.75,0.75 0 0 0 0,1.0625 l 1,1 a 0.75,0.75 0 0 0 1.0625,0 0.75,0.75 0 0 0 0,-1.0625 l -1,-1 A 0.75,0.75 0 0 0 19,18.25 Z"
     id="path10" />
  <path
     style="color:#000000;fill:currentColor;stroke-linecap:round;stroke-linejoin:round;-inkscape-stroke:none"
     d="m 20,3.25 a 0.75,0.75 0 0 0 -0.53125,0.21875 l -1,1 a 0.75,0.75 0 0 0 0,1.0625 0.75,0.75 0 0 0 1.0625,0 l 1,-1 a 0.75,0.75 0 0 0 0,-1.0625 A 0.75,0.75 0 0 0 20,3.25 Z"
     id="path12" />
  <path
     style="color:#000000;fill:currentColor;stroke-linecap:round;stroke-linejoin:round;-inkscape-stroke:none"
     d="m 5,18.25 a 0.75,0.75 0 0 0 -0.53125,0.21875 l -1,1 a 0.75,0.75 0 0 0 0,1.0625 0.75,0.75 0 0 0 1.0625,0 l 1,-1 a 0.75,0.75 0 0 0 0,-1.0625 A 0.75,0.75 0 0 0 5,18.25 Z"
     id="path14" />
  <path
     style="color:#000000;fill:currentColor;stroke-linecap:round;stroke-linejoin:round;-inkscape-stroke:none"
     d="m 4,3.25 a 0.75,0.75 0 0 0 -0.53125,0.21875 0.75,0.75 0 0 0 0,1.0625 l 1,1 a 0.75,0.75 0 0 0 1.0625,0 0.75,0.75 0 0 0 0,-1.0625 l -1,-1 A 0.75,0.75 0 0 0 4,3.25 Z"
     id="path16" />
  <path
     style="color:#000000;fill:currentColor;stroke-linecap:round;stroke-linejoin:round;-inkscape-stroke:none"
     d="M 1,11.25 A 0.75,0.75 0 0 0 0.25,12 0.75,0.75 0 0 0 1,12.75 H 2 A 0.75,0.75 0 0 0 2.75,12 0.75,0.75 0 0 0 2,11.25 Z"
     id="path18" />
  <defs
     id="defs25">
    <clipPath
       clipPathUnits="userSpaceOnUse"
       id="clipPath271">
      <g
         id="g275">
        <rect
           width="24"
           height="24"
           fill="#ffffff"
           id="rect273"
           x="0"
           y="0" />
      </g>
    </clipPath>
    <clipPath
       clipPathUnits="userSpaceOnUse"
       id="clipPath277">
      <g
         id="g281">
        <rect
           width="24"
           height="24"
           fill="#ffffff"
           id="rect279"
           x="0"
           y="0" />
      </g>
    </clipPath>
    <clipPath
       clipPathUnits="userSpaceOnUse"
       id="clipPath283">
      <g
         id="g287">
        <rect
           width="24"
           height="24"
           fill="#ffffff"
           id="rect285"
           x="0"
           y="0" />
      </g>
    </clipPath>
    <clipPath
       clipPathUnits="userSpaceOnUse"
       id="clipPath289">
      <g
         id="g293">
        <rect
           width="24"
           height="24"
           fill="#ffffff"
           id="rect291"
           x="0"
           y="0" />
      </g>
    </clipPath>
    <clipPath
       clipPathUnits="userSpaceOnUse"
       id="clipPath295">
      <g
         id="g299">
        <rect
           width="24"
           height="24"
           fill="#ffffff"
           id="rect297"
           x="0"
           y="0" />
      </g>
    </clipPath>
    <clipPath
       clipPathUnits="userSpaceOnUse"
       id="clipPath301">
      <g
         id="g305">
        <rect
           width="24"
           height="24"
           fill="#ffffff"
           id="rect303"
           x="0"
           y="0" />
      </g>
    </clipPath>
    <clipPath
       clipPathUnits="userSpaceOnUse"
       id="clipPath307">
      <g
         id="g311">
        <rect
           width="24"
           height="24"
           fill="#ffffff"
           id="rect309"
           x="0"
           y="0" />
      </g>
    </clipPath>
    <clipPath
       clipPathUnits="userSpaceOnUse"
       id="clipPath313">
      <g
         id="g317">
        <rect
           width="24"
           height="24"
           fill="#ffffff"
           id="rect315"
           x="0"
           y="0" />
      </g>
    </clipPath>
    <clipPath
       clipPathUnits="userSpaceOnUse"
       id="clipPath319">
      <g
         id="g323">
        <rect
           width="24"
           height="24"
           fill="#ffffff"
           id="rect321"
           x="0"
           y="0" />
      </g>
    </clipPath>
  </defs>
</svg>
