<?xml version="1.0" encoding="UTF-8" standalone="no"?>
<svg
   width="24"
   height="24"
   viewBox="0 0 24 24"
   stroke-width="1.5"
   fill="none"
   version="1.1"
   id="svg8"
   sodipodi:docname="brightness.svg"
   inkscape:version="1.2.1 (9c6d41e410, 2022-07-14)"
   xmlns:inkscape="http://www.inkscape.org/namespaces/inkscape"
   xmlns:sodipodi="http://sodipodi.sourceforge.net/DTD/sodipodi-0.dtd"
   xmlns="http://www.w3.org/2000/svg"
   xmlns:svg="http://www.w3.org/2000/svg">
  <defs
     id="defs12" />
  <sodipodi:namedview
     id="namedview10"
     pagecolor="#ffffff"
     bordercolor="#666666"
     borderopacity="1.0"
     inkscape:showpageshadow="2"
     inkscape:pageopacity="0.0"
     inkscape:pagecheckerboard="0"
     inkscape:deskcolor="#d1d1d1"
     showgrid="false"
     inkscape:zoom="34.541667"
     inkscape:cx="10.364294"
     inkscape:cy="12.014475"
     inkscape:window-width="1920"
     inkscape:window-height="1009"
     inkscape:window-x="1912"
     inkscape:window-y="-8"
     inkscape:window-maximized="1"
     inkscape:current-layer="svg8" />
  <path
     style="color:#000000;fill:currentColor;-inkscape-stroke:none"
     d="M 12,6.0136719 11.513672,6.4296875 10.167969,7.5761719 7.7675781,7.7675781 7.5761719,10.167969 6.0136719,12 l 1.5625,1.832031 0.1914062,2.400391 2.4003909,0.191406 1.832031,1.5625 1.832031,-1.5625 2.400391,-0.191406 0.191406,-2.400391 L 17.986328,12 16.423828,10.167969 16.232422,7.7675781 13.832031,7.5761719 Z m 0,1.9707031 1.228516,1.0488281 1.609375,0.1289063 0.128906,1.6093746 L 16.013672,12 14.966797,13.228516 14.837891,14.837891 13.228516,14.966797 12,16.013672 10.771484,14.966797 9.1621094,14.837891 9.0332031,13.228516 7.9863281,12 9.0332031,10.771484 9.1621094,9.1621094 10.771484,9.0332031 Z"
     id="path2" />
  <path
     d="M10.4693 15.6955L12 17V7L10.4693 8.30448L8.46447 8.46447L8.30448 10.4693L7 12L8.30448 13.5307L8.46447 15.5355L10.4693 15.6955Z"
     fill="currentColor"
     id="path4" />
  <path
     style="color:#000000;fill:currentColor;stroke-linecap:round;stroke-linejoin:round;-inkscape-stroke:none"
     d="M 3.5996094,2.25 C 2.8629077,2.25 2.25,2.8629077 2.25,3.5996094 V 20.400391 C 2.25,21.137086 2.862953,21.75 3.5996094,21.75 H 20.400391 C 21.13704,21.75 21.75,21.13704 21.75,20.400391 V 3.5996094 C 21.75,2.862953 21.137086,2.25 20.400391,2.25 Z M 3.75,3.75 h 16.5 v 16.5 H 3.75 Z"
     id="path6" />
</svg>
