<?xml version="1.0" encoding="UTF-8" standalone="no"?>
<svg
   width="24"
   height="24"
   stroke-width="1.5"
   viewBox="0 0 24 24"
   fill="none"
   version="1.1"
   id="svg6"
   sodipodi:docname="bubble-download.svg"
   inkscape:version="1.2.1 (9c6d41e410, 2022-07-14)"
   xmlns:inkscape="http://www.inkscape.org/namespaces/inkscape"
   xmlns:sodipodi="http://sodipodi.sourceforge.net/DTD/sodipodi-0.dtd"
   xmlns="http://www.w3.org/2000/svg"
   xmlns:svg="http://www.w3.org/2000/svg">
  <defs
     id="defs10" />
  <sodipodi:namedview
     id="namedview8"
     pagecolor="#ffffff"
     bordercolor="#666666"
     borderopacity="1.0"
     inkscape:showpageshadow="2"
     inkscape:pageopacity="0.0"
     inkscape:pagecheckerboard="0"
     inkscape:deskcolor="#d1d1d1"
     showgrid="false"
     inkscape:zoom="34.541667"
     inkscape:cx="10.364294"
     inkscape:cy="12.014475"
     inkscape:window-width="1920"
     inkscape:window-height="1009"
     inkscape:window-x="1912"
     inkscape:window-y="-8"
     inkscape:window-maximized="1"
     inkscape:current-layer="svg6" />
  <path
     style="color:#000000;fill:currentColor;stroke-linecap:round;stroke-linejoin:round;-inkscape-stroke:none"
     d="M 19,1.25 A 0.75,0.75 0 0 0 18.25,2 V 6.1875 L 16.53125,4.46875 a 0.75,0.75 0 0 0 -1.0625,0 0.75,0.75 0 0 0 0,1.0625 l 3,3 a 0.75,0.75 0 0 0 1.0625,0 l 3,-3 a 0.75,0.75 0 0 0 0,-1.0625 0.75,0.75 0 0 0 -1.0625,0 L 19.75,6.1875 V 2 A 0.75,0.75 0 0 0 19,1.25 Z"
     id="path2" />
  <path
     style="color:#000000;fill:currentColor;stroke-linecap:round;stroke-linejoin:round;-inkscape-stroke:none"
     d="M 12,1.25 C 6.0718263,1.25 1.25,6.0718263 1.25,12 c 0,1.83725 0.4956753,3.553621 1.3105469,5.068359 l -0.7988282,4.294922 a 0.750075,0.750075 0 0 0 0.8750001,0.875 L 6.9316406,21.439453 C 8.4463516,22.254282 10.162743,22.75 12,22.75 c 5.928132,0 10.75,-4.821868 10.75,-10.75 0,-0.36224 -0.01758,-0.720652 -0.05273,-1.074219 a 0.75,0.75 0 0 0 -0.820313,-0.671875 0.75,0.75 0 0 0 -0.671875,0.820313 C 21.235326,11.378451 21.25,11.687241 21.25,12 c 0,5.117457 -4.132543,9.25 -9.25,9.25 -1.68771,0 -3.2645513,-0.449399 -4.625,-1.236328 A 0.750075,0.750075 0 0 0 6.8632812,19.925781 L 3.4375,20.5625 4.0742187,17.136719 A 0.750075,0.750075 0 0 0 3.9863281,16.625 C 3.1993552,15.264527 2.75,13.687718 2.75,12 2.75,6.8824848 6.8824848,2.75 12,2.75 c 0.312729,0 0.621459,0.014702 0.925781,0.044922 A 0.75,0.75 0 0 0 13.746094,2.1230469 0.75,0.75 0 0 0 13.074219,1.3027344 C 12.720742,1.2676339 12.36227,1.25 12,1.25 Z"
     id="path4" />
</svg>
