<?xml version="1.0" encoding="UTF-8" standalone="no"?>
<svg
   width="24"
   height="24"
   viewBox="0 0 24 24"
   stroke-width="1.5"
   fill="none"
   version="1.1"
   id="svg16"
   sodipodi:docname="bus-green.svg"
   inkscape:version="1.2.1 (9c6d41e410, 2022-07-14)"
   xmlns:inkscape="http://www.inkscape.org/namespaces/inkscape"
   xmlns:sodipodi="http://sodipodi.sourceforge.net/DTD/sodipodi-0.dtd"
   xmlns="http://www.w3.org/2000/svg"
   xmlns:svg="http://www.w3.org/2000/svg">
  <defs
     id="defs20" />
  <sodipodi:namedview
     id="namedview18"
     pagecolor="#ffffff"
     bordercolor="#666666"
     borderopacity="1.0"
     inkscape:showpageshadow="2"
     inkscape:pageopacity="0.0"
     inkscape:pagecheckerboard="0"
     inkscape:deskcolor="#d1d1d1"
     showgrid="false"
     inkscape:zoom="34.541667"
     inkscape:cx="10.364294"
     inkscape:cy="12.014475"
     inkscape:window-width="1920"
     inkscape:window-height="1009"
     inkscape:window-x="1912"
     inkscape:window-y="-8"
     inkscape:window-maximized="1"
     inkscape:current-layer="svg16" />
  <path
     style="color:#000000;fill:currentColor;stroke-linecap:round;stroke-linejoin:round;-inkscape-stroke:none"
     d="m 7.5117187,15.441406 a 0.75,0.75 0 0 0 -1.0585937,0.05469 l -0.00977,0.01172 a 0.75,0.75 0 0 0 0.054687,1.058593 0.75,0.75 0 0 0 1.0585937,-0.05469 L 7.5664062,16.5 a 0.75,0.75 0 0 0 -0.054687,-1.058594 z"
     id="path2" />
  <path
     style="color:#000000;fill:currentColor;stroke-linecap:round;stroke-linejoin:round;-inkscape-stroke:none"
     d="M 3,11.25 A 0.750075,0.750075 0 0 0 2.25,12 v 7 c 0,0.957622 0.7924012,1.75 1.75,1.75 h 9 A 0.75,0.75 0 0 0 13.75,20 0.75,0.75 0 0 0 13,19.25 H 4 C 3.8530399,19.25 3.75,19.146977 3.75,19 V 12.75 H 21 A 0.75,0.75 0 0 0 21.75,12 0.75,0.75 0 0 0 21,11.25 Z"
     id="path4" />
  <path
     style="color:#000000;fill:currentColor;stroke-linecap:round;stroke-linejoin:round;-inkscape-stroke:none"
     d="m 19.5,17.441406 c -2.327167,2.086029 -3.220703,5.34961 -3.220703,5.34961 a 0.75,0.75 0 0 0 0.511719,0.929687 0.75,0.75 0 0 0 0.929687,-0.511719 c 0,0 0.906468,-2.971622 2.779297,-4.65039 A 0.75,0.75 0 0 0 20.558594,17.5 0.75,0.75 0 0 0 19.5,17.441406 Z"
     id="path6" />
  <path
     style="color:#000000;fill:currentColor;stroke-linecap:round;stroke-linejoin:round;-inkscape-stroke:none"
     d="m 21.978516,14.285156 -2.984375,0.28125 c -2.095438,0.196924 -3.644083,2.075485 -3.4375,4.169922 0.206708,2.094457 2.086228,3.644063 4.18164,3.447266 l 0.134766,-0.01172 c 2.169687,-0.203811 3.772601,-2.14966 3.558594,-4.318359 l -0.25586,-2.580078 c -0.05872,-0.594621 -0.602307,-1.044175 -1.197265,-0.988282 z m -0.25586,1.53125 0.214844,2.185547 c 0.134392,1.361897 -0.842568,2.547793 -2.205078,2.675781 l -0.134766,0.01367 c -1.288385,0.121003 -2.421737,-0.813823 -2.548828,-2.101562 -0.127017,-1.287759 0.795625,-2.408221 2.083984,-2.529297 z"
     id="path8" />
  <path
     style="color:#000000;fill:currentColor;stroke-linecap:round;stroke-linejoin:round;-inkscape-stroke:none"
     d="M 7,1.25 C 4.3855329,1.25 2.25,3.3855329 2.25,6 V 8 A 0.75,0.75 0 0 0 3,8.75 0.75,0.75 0 0 0 3.75,8 V 6 C 3.75,4.1961915 5.1961915,2.75 7,2.75 h 10 c 1.803761,0 3.25,1.4462005 3.25,3.25 V 8 A 0.75,0.75 0 0 0 21,8.75 0.75,0.75 0 0 0 21.75,8 V 6 C 21.75,3.3855239 19.614434,1.25 17,1.25 Z"
     id="path10" />
  <path
     style="color:#000000;fill:currentColor;stroke-linecap:round;stroke-linejoin:round;-inkscape-stroke:none"
     d="M 7,7.25 A 0.75,0.75 0 0 0 6.25,8 0.75,0.75 0 0 0 7,8.75 H 17 A 0.75,0.75 0 0 0 17.75,8 0.75,0.75 0 0 0 17,7.25 Z"
     id="path12" />
  <path
     style="color:#000000;fill:currentColor;stroke-linecap:round;-inkscape-stroke:none"
     d="M 4.5,19.25 A 0.75,0.75 0 0 0 3.75,20 v 1.900391 C 3.75,22.637086 4.362953,23.25 5.0996094,23.25 H 7.9003906 C 8.637047,23.25 9.25,22.637086 9.25,21.900391 V 20 A 0.75,0.75 0 0 0 8.5,19.25 0.75,0.75 0 0 0 7.75,20 v 1.75 H 5.25 V 20 A 0.75,0.75 0 0 0 4.5,19.25 Z"
     id="path14" />
</svg>
