<?xml version="1.0" encoding="UTF-8" standalone="no"?>
<svg
   width="24"
   height="24"
   viewBox="0 0 24 24"
   stroke-width="1.5"
   fill="none"
   version="1.1"
   id="svg16"
   sodipodi:docname="bus-stop.svg"
   inkscape:version="1.2.1 (9c6d41e410, 2022-07-14)"
   xmlns:inkscape="http://www.inkscape.org/namespaces/inkscape"
   xmlns:sodipodi="http://sodipodi.sourceforge.net/DTD/sodipodi-0.dtd"
   xmlns="http://www.w3.org/2000/svg"
   xmlns:svg="http://www.w3.org/2000/svg">
  <defs
     id="defs20" />
  <sodipodi:namedview
     id="namedview18"
     pagecolor="#ffffff"
     bordercolor="#666666"
     borderopacity="1.0"
     inkscape:showpageshadow="2"
     inkscape:pageopacity="0.0"
     inkscape:pagecheckerboard="0"
     inkscape:deskcolor="#d1d1d1"
     showgrid="false"
     inkscape:zoom="34.541667"
     inkscape:cx="10.364294"
     inkscape:cy="12.014475"
     inkscape:window-width="1920"
     inkscape:window-height="1009"
     inkscape:window-x="1912"
     inkscape:window-y="-8"
     inkscape:window-maximized="1"
     inkscape:current-layer="svg16" />
  <path
     style="color:#000000;fill:currentColor;stroke-linecap:round;stroke-linejoin:round;-inkscape-stroke:none"
     d="m 15.970703,15.25 a 0.75,0.75 0 0 0 -0.517578,0.246094 l -0.0098,0.01172 a 0.75,0.75 0 0 0 0.05469,1.058593 0.75,0.75 0 0 0 1.058594,-0.05469 L 16.566406,16.5 A 0.75,0.75 0 0 0 16.511719,15.441406 0.75,0.75 0 0 0 15.970703,15.25 Z"
     id="path2" />
  <path
     style="color:#000000;fill:currentColor;stroke-linecap:round;stroke-linejoin:round;-inkscape-stroke:none"
     d="m 6.5117187,15.441406 a 0.75,0.75 0 0 0 -1.0585937,0.05469 l -0.00977,0.01172 a 0.75,0.75 0 0 0 0.054687,1.058593 0.75,0.75 0 0 0 1.0585937,-0.05469 L 6.5664062,16.5 a 0.75,0.75 0 0 0 -0.054687,-1.058594 z"
     id="path4" />
  <path
     style="color:#000000;fill:currentColor;stroke-linecap:round;stroke-linejoin:round;-inkscape-stroke:none"
     d="M 18,1.25 A 0.750075,0.750075 0 0 0 17.25,2 V 8 A 0.750075,0.750075 0 0 0 18,8.75 h 1.25 V 15 22 A 0.75,0.75 0 0 0 20,22.75 0.75,0.75 0 0 0 20.75,22 V 15 8.75 H 22 A 0.750075,0.750075 0 0 0 22.75,8 V 2 A 0.750075,0.750075 0 0 0 22,1.25 Z m 0.75,1.5 h 2.5 v 4.5 H 20 18.75 Z"
     id="path6" />
  <path
     style="color:#000000;fill:currentColor;stroke-linecap:round;stroke-linejoin:round;-inkscape-stroke:none"
     d="M 2.5996094,11.25 C 1.862953,11.25 1.25,11.862914 1.25,12.599609 v 6.800782 C 1.25,20.137086 1.862953,20.75 2.5996094,20.75 H 16 A 0.75,0.75 0 0 0 16.75,20 0.75,0.75 0 0 0 16,19.25 H 2.75 v -6.5 H 16 A 0.75,0.75 0 0 0 16.75,12 0.75,0.75 0 0 0 16,11.25 Z"
     id="path8" />
  <path
     style="color:#000000;fill:currentColor;stroke-linecap:round;stroke-linejoin:round;-inkscape-stroke:none"
     d="M 6,1.25 C 3.3855329,1.25 1.25,3.3855329 1.25,6 V 8 A 0.75,0.75 0 0 0 2,8.75 0.75,0.75 0 0 0 2.75,8 V 6 C 2.75,4.1961915 4.1961915,2.75 6,2.75 h 8 A 0.75,0.75 0 0 0 14.75,2 0.75,0.75 0 0 0 14,1.25 Z m 0,6 A 0.75,0.75 0 0 0 5.25,8 0.75,0.75 0 0 0 6,8.75 h 8 A 0.75,0.75 0 0 0 14.75,8 0.75,0.75 0 0 0 14,7.25 Z"
     id="path10" />
  <path
     style="color:#000000;fill:currentColor;stroke-linecap:round;-inkscape-stroke:none"
     d="M 3.5,19.25 A 0.75,0.75 0 0 0 2.75,20 v 1.900391 C 2.75,22.637086 3.362953,23.25 4.0996094,23.25 H 6.9003906 C 7.637047,23.25 8.25,22.637086 8.25,21.900391 V 20 A 0.75,0.75 0 0 0 7.5,19.25 0.75,0.75 0 0 0 6.75,20 v 1.75 H 4.25 V 20 A 0.75,0.75 0 0 0 3.5,19.25 Z"
     id="path12" />
  <path
     style="color:#000000;fill:currentColor;stroke-linecap:round;-inkscape-stroke:none"
     d="M 14.5,19.25 A 0.75,0.75 0 0 0 13.75,20 v 1.900391 C 13.75,22.63704 14.36296,23.25 15.099609,23.25 H 16 A 0.75,0.75 0 0 0 16.75,22.5 0.75,0.75 0 0 0 16,21.75 H 15.25 V 20 A 0.75,0.75 0 0 0 14.5,19.25 Z"
     id="path14" />
</svg>
