<?xml version="1.0" encoding="UTF-8" standalone="no"?>
<svg
   width="24"
   height="24"
   viewBox="0 0 24 24"
   stroke-width="1.5"
   fill="none"
   version="1.1"
   id="svg16"
   sodipodi:docname="bus.svg"
   inkscape:version="1.2.1 (9c6d41e410, 2022-07-14)"
   xmlns:inkscape="http://www.inkscape.org/namespaces/inkscape"
   xmlns:sodipodi="http://sodipodi.sourceforge.net/DTD/sodipodi-0.dtd"
   xmlns="http://www.w3.org/2000/svg"
   xmlns:svg="http://www.w3.org/2000/svg">
  <defs
     id="defs20" />
  <sodipodi:namedview
     id="namedview18"
     pagecolor="#ffffff"
     bordercolor="#666666"
     borderopacity="1.0"
     inkscape:showpageshadow="2"
     inkscape:pageopacity="0.0"
     inkscape:pagecheckerboard="0"
     inkscape:deskcolor="#d1d1d1"
     showgrid="false"
     inkscape:zoom="34.541667"
     inkscape:cx="10.364294"
     inkscape:cy="12.014475"
     inkscape:window-width="1920"
     inkscape:window-height="1009"
     inkscape:window-x="1912"
     inkscape:window-y="-8"
     inkscape:window-maximized="1"
     inkscape:current-layer="svg16" />
  <path
     style="color:#000000;fill:currentColor;stroke-linecap:round;stroke-linejoin:round;-inkscape-stroke:none"
     d="m 7.5117187,15.441406 a 0.75,0.75 0 0 0 -1.0585937,0.05469 l -0.00977,0.01172 a 0.75,0.75 0 0 0 0.054687,1.058593 0.75,0.75 0 0 0 1.0585937,-0.05469 L 7.5664062,16.5 a 0.75,0.75 0 0 0 -0.054687,-1.058594 z"
     id="path2" />
  <path
     style="color:#000000;fill:currentColor;stroke-linecap:round;stroke-linejoin:round;-inkscape-stroke:none"
     d="m 16.970703,15.25 a 0.75,0.75 0 0 0 -0.517578,0.246094 l -0.0098,0.01172 a 0.75,0.75 0 0 0 0.05469,1.058593 0.75,0.75 0 0 0 1.058594,-0.05469 L 17.566406,16.5 A 0.75,0.75 0 0 0 17.511719,15.441406 0.75,0.75 0 0 0 16.970703,15.25 Z"
     id="path4" />
  <path
     style="color:#000000;fill:currentColor;stroke-linecap:round;stroke-linejoin:round;-inkscape-stroke:none"
     d="M 3,11.25 A 0.750075,0.750075 0 0 0 2.25,12 v 7 c 0,0.957622 0.7924012,1.75 1.75,1.75 h 16 c 0.957604,0 1.75,-0.792396 1.75,-1.75 V 12 A 0.750075,0.750075 0 0 0 21,11.25 Z m 0.75,1.5 h 16.5 V 19 c 0,0.146995 -0.103005,0.25 -0.25,0.25 H 4 C 3.8530399,19.25 3.75,19.146977 3.75,19 Z"
     id="path6" />
  <path
     style="color:#000000;fill:currentColor;stroke-linecap:round;stroke-linejoin:round;-inkscape-stroke:none"
     d="M 7,1.25 C 4.3855329,1.25 2.25,3.3855329 2.25,6 V 8 A 0.75,0.75 0 0 0 3,8.75 0.75,0.75 0 0 0 3.75,8 V 6 C 3.75,4.1961915 5.1961915,2.75 7,2.75 h 10 c 1.803761,0 3.25,1.4462005 3.25,3.25 V 8 A 0.75,0.75 0 0 0 21,8.75 0.75,0.75 0 0 0 21.75,8 V 6 C 21.75,3.3855239 19.614434,1.25 17,1.25 Z"
     id="path8" />
  <path
     style="color:#000000;fill:currentColor;stroke-linecap:round;stroke-linejoin:round;-inkscape-stroke:none"
     d="M 7,7.25 A 0.75,0.75 0 0 0 6.25,8 0.75,0.75 0 0 0 7,8.75 H 17 A 0.75,0.75 0 0 0 17.75,8 0.75,0.75 0 0 0 17,7.25 Z"
     id="path10" />
  <path
     style="color:#000000;fill:currentColor;stroke-linecap:round;-inkscape-stroke:none"
     d="M 4.5,19.25 A 0.75,0.75 0 0 0 3.75,20 v 1.900391 C 3.75,22.637086 4.362953,23.25 5.0996094,23.25 H 7.9003906 C 8.637047,23.25 9.25,22.637086 9.25,21.900391 V 20 A 0.75,0.75 0 0 0 8.5,19.25 0.75,0.75 0 0 0 7.75,20 v 1.75 H 5.25 V 20 A 0.75,0.75 0 0 0 4.5,19.25 Z"
     id="path12" />
  <path
     style="color:#000000;fill:currentColor;stroke-linecap:round;-inkscape-stroke:none"
     d="M 15.5,19.25 A 0.75,0.75 0 0 0 14.75,20 v 1.900391 c 0,0.736649 0.61296,1.349609 1.349609,1.349609 h 2.800782 C 19.63704,23.25 20.25,22.63704 20.25,21.900391 V 20 A 0.75,0.75 0 0 0 19.5,19.25 0.75,0.75 0 0 0 18.75,20 v 1.75 h -2.5 V 20 A 0.75,0.75 0 0 0 15.5,19.25 Z"
     id="path14" />
</svg>
