<?xml version="1.0" encoding="UTF-8" standalone="no"?>
<svg
   width="24"
   stroke-width="1.5"
   height="24"
   viewBox="0 0 24 24"
   fill="none"
   version="1.1"
   id="svg6"
   sodipodi:docname="c-square.svg"
   inkscape:version="1.2.1 (9c6d41e410, 2022-07-14)"
   xmlns:inkscape="http://www.inkscape.org/namespaces/inkscape"
   xmlns:sodipodi="http://sodipodi.sourceforge.net/DTD/sodipodi-0.dtd"
   xmlns="http://www.w3.org/2000/svg"
   xmlns:svg="http://www.w3.org/2000/svg">
  <defs
     id="defs10" />
  <sodipodi:namedview
     id="namedview8"
     pagecolor="#ffffff"
     bordercolor="#666666"
     borderopacity="1.0"
     inkscape:showpageshadow="2"
     inkscape:pageopacity="0.0"
     inkscape:pagecheckerboard="0"
     inkscape:deskcolor="#d1d1d1"
     showgrid="false"
     inkscape:zoom="34.541667"
     inkscape:cx="10.364294"
     inkscape:cy="12.014475"
     inkscape:window-width="1920"
     inkscape:window-height="1009"
     inkscape:window-x="1912"
     inkscape:window-y="-8"
     inkscape:window-maximized="1"
     inkscape:current-layer="svg6" />
  <path
     style="color:#000000;fill:currentColor;stroke-linecap:round;stroke-linejoin:round;-inkscape-stroke:none"
     d="M 3.5996094,2.25 C 2.8629077,2.25 2.25,2.8629077 2.25,3.5996094 V 20.400391 C 2.25,21.137086 2.862953,21.75 3.5996094,21.75 H 20.400391 C 21.13704,21.75 21.75,21.13704 21.75,20.400391 V 3.5996094 C 21.75,2.862953 21.137086,2.25 20.400391,2.25 Z M 3.75,3.75 h 16.5 v 16.5 H 3.75 Z"
     id="path2" />
  <path
     style="color:#000000;fill:currentColor;stroke-linecap:round;stroke-linejoin:round;-inkscape-stroke:none"
     d="M 11.800781,7.25 C 10.401346,7.25 9.25,8.4013352 9.25,9.8007813 v 4.3984377 c 0,1.39944 1.151341,2.550781 2.550781,2.550781 h 0.398438 C 13.598659,16.75 14.75,15.598659 14.75,14.199219 V 14 A 0.75,0.75 0 0 0 14,13.25 0.75,0.75 0 0 0 13.25,14 v 0.199219 C 13.25,14.787977 12.787977,15.25 12.199219,15.25 H 11.800781 C 11.212023,15.25 10.75,14.787977 10.75,14.199219 V 9.8007813 C 10.75,9.2120093 11.212018,8.75 11.800781,8.75 h 0.398438 C 12.787982,8.75 13.25,9.2120093 13.25,9.8007813 V 10 A 0.75,0.75 0 0 0 14,10.75 0.75,0.75 0 0 0 14.75,10 V 9.8007813 C 14.75,8.4013352 13.598654,7.25 12.199219,7.25 Z"
     id="path4" />
</svg>
