<?xml version="1.0" encoding="UTF-8" standalone="no"?>
<svg
   width="24"
   height="24"
   stroke-width="1.5"
   viewBox="0 0 24 24"
   fill="none"
   version="1.1"
   id="svg6"
   sodipodi:docname="cable-tag.svg"
   inkscape:version="1.2.1 (9c6d41e410, 2022-07-14)"
   xmlns:inkscape="http://www.inkscape.org/namespaces/inkscape"
   xmlns:sodipodi="http://sodipodi.sourceforge.net/DTD/sodipodi-0.dtd"
   xmlns="http://www.w3.org/2000/svg"
   xmlns:svg="http://www.w3.org/2000/svg">
  <defs
     id="defs10" />
  <sodipodi:namedview
     id="namedview8"
     pagecolor="#ffffff"
     bordercolor="#666666"
     borderopacity="1.0"
     inkscape:showpageshadow="2"
     inkscape:pageopacity="0.0"
     inkscape:pagecheckerboard="0"
     inkscape:deskcolor="#d1d1d1"
     showgrid="false"
     inkscape:zoom="34.541667"
     inkscape:cx="10.364294"
     inkscape:cy="12.014475"
     inkscape:window-width="1920"
     inkscape:window-height="1009"
     inkscape:window-x="1912"
     inkscape:window-y="-8"
     inkscape:window-maximized="1"
     inkscape:current-layer="svg6" />
  <path
     style="color:#000000;fill:currentColor;-inkscape-stroke:none"
     d="M 8,2.25 C 4.280964,2.25 1.25,5.280964 1.25,9 v 6 c 0,3.719027 3.0309625,6.75 6.75,6.75 h 8 c 3.719029,0 6.75,-3.030971 6.75,-6.75 V 9 C 22.75,5.2809625 19.719027,2.25 16,2.25 Z m 0,1.5 h 8 c 2.908366,0 5.25,2.3416241 5.25,5.25 v 6 c 0,2.908365 -2.341635,5.25 -5.25,5.25 H 8 C 5.0916241,20.25 2.75,17.908366 2.75,15 V 9 C 2.75,6.0916226 5.0916226,3.75 8,3.75 Z"
     id="path2" />
  <path
     style="color:#000000;fill:currentColor;stroke-linecap:round;stroke-linejoin:round;-inkscape-stroke:none"
     d="M 11.955078,7.3085937 A 0.75,0.75 0 0 0 10.974609,7.7109375 L 9.3085938,11.710938 A 0.750075,0.750075 0 0 0 10,12.75 h 2.875 l -1.234375,2.960938 a 0.75,0.75 0 0 0 0.404297,0.980468 0.75,0.75 0 0 0 0.980469,-0.402344 l 1.666015,-3.999999 A 0.750075,0.750075 0 0 0 14,11.25 H 11.125 L 12.359375,8.2890625 A 0.75,0.75 0 0 0 11.955078,7.3085937 Z"
     id="path4" />
</svg>
