<?xml version="1.0" encoding="UTF-8" standalone="no"?>
<svg
   width="24"
   height="24"
   stroke-width="1.5"
   viewBox="0 0 24 24"
   fill="none"
   version="1.1"
   id="svg14"
   sodipodi:docname="calculator.svg"
   inkscape:version="1.2.1 (9c6d41e410, 2022-07-14)"
   xmlns:inkscape="http://www.inkscape.org/namespaces/inkscape"
   xmlns:sodipodi="http://sodipodi.sourceforge.net/DTD/sodipodi-0.dtd"
   xmlns="http://www.w3.org/2000/svg"
   xmlns:svg="http://www.w3.org/2000/svg">
  <defs
     id="defs18" />
  <sodipodi:namedview
     id="namedview16"
     pagecolor="#ffffff"
     bordercolor="#666666"
     borderopacity="1.0"
     inkscape:showpageshadow="2"
     inkscape:pageopacity="0.0"
     inkscape:pagecheckerboard="0"
     inkscape:deskcolor="#d1d1d1"
     showgrid="false"
     inkscape:zoom="34.541667"
     inkscape:cx="10.364294"
     inkscape:cy="12.014475"
     inkscape:window-width="1920"
     inkscape:window-height="1009"
     inkscape:window-x="1912"
     inkscape:window-y="-8"
     inkscape:window-maximized="1"
     inkscape:current-layer="svg14" />
  <path
     style="color:#000000;fill:currentColor;-inkscape-stroke:none"
     d="M 3,0.25 C 1.4901018,0.25 0.25,1.4901018 0.25,3 v 18 c 0,1.509917 1.2401154,2.75 2.75,2.75 h 18 c 1.509904,0 2.75,-1.240096 2.75,-2.75 V 3 C 23.75,1.4901154 22.509917,0.25 21,0.25 Z m 0,1.5 h 18 c 0.699281,0 1.25,0.5507468 1.25,1.25 v 18 c 0,0.699294 -0.550706,1.25 -1.25,1.25 H 3 C 2.3007468,22.25 1.75,21.699281 1.75,21 V 3 C 1.75,2.3007604 2.3007604,1.75 3,1.75 Z"
     id="path2" />
  <path
     style="color:#000000;fill:currentColor;stroke-linecap:round;stroke-linejoin:round;-inkscape-stroke:none"
     d="M 15,6.25 A 0.75,0.75 0 0 0 14.25,7 0.75,0.75 0 0 0 15,7.75 h 2 2 A 0.75,0.75 0 0 0 19.75,7 0.75,0.75 0 0 0 19,6.25 h -2 z"
     id="path4" />
  <path
     style="color:#000000;fill:currentColor;stroke-linecap:round;stroke-linejoin:round;-inkscape-stroke:none"
     d="M 15,14.75 A 0.75,0.75 0 0 0 14.25,15.5 0.75,0.75 0 0 0 15,16.25 h 2 2 A 0.75,0.75 0 0 0 19.75,15.5 0.75,0.75 0 0 0 19,14.75 h -2 z"
     id="path6" />
  <path
     style="color:#000000;fill:currentColor;stroke-linecap:round;stroke-linejoin:round;-inkscape-stroke:none"
     d="M 15,17.75 A 0.75,0.75 0 0 0 14.25,18.5 0.75,0.75 0 0 0 15,19.25 h 2 2 A 0.75,0.75 0 0 0 19.75,18.5 0.75,0.75 0 0 0 19,17.75 h -2 z"
     id="path8" />
  <path
     style="color:#000000;fill:currentColor;stroke-linecap:round;stroke-linejoin:round;-inkscape-stroke:none"
     d="M 7,4.25 A 0.75,0.75 0 0 0 6.25,5 V 6.25 H 5 A 0.75,0.75 0 0 0 4.25,7 0.75,0.75 0 0 0 5,7.75 H 6.25 V 9 A 0.75,0.75 0 0 0 7,9.75 0.75,0.75 0 0 0 7.75,9 V 7.75 H 9 A 0.75,0.75 0 0 0 9.75,7 0.75,0.75 0 0 0 9,6.25 H 7.75 V 5 A 0.75,0.75 0 0 0 7,4.25 Z"
     id="path10" />
  <path
     style="color:#000000;fill:currentColor;stroke-linecap:round;stroke-linejoin:round;-inkscape-stroke:none"
     d="m 8.4140625,14.835938 a 0.75,0.75 0 0 0 -0.5292969,0.21875 L 7,15.9375 6.1171875,15.054688 a 0.75,0.75 0 0 0 -1.0605469,0 0.75,0.75 0 0 0 0,1.060546 L 5.9394531,17 5.0566406,17.884766 a 0.75,0.75 0 0 0 0,1.060546 0.75,0.75 0 0 0 1.0605469,0 L 7,18.0625 7.8847656,18.945312 a 0.75,0.75 0 0 0 1.0605469,0 0.75,0.75 0 0 0 0,-1.060546 L 8.0625,17 8.9453125,16.115234 a 0.75,0.75 0 0 0 0,-1.060546 0.75,0.75 0 0 0 -0.53125,-0.21875 z"
     id="path12" />
</svg>
