<?xml version="1.0" encoding="UTF-8" standalone="no"?>
<svg
   width="24"
   height="24"
   viewBox="0 0 24 24"
   stroke-width="1.5"
   fill="none"
   version="1.1"
   id="svg8"
   sodipodi:docname="calendar-rotate.svg"
   inkscape:version="1.3.2 (091e20e, 2023-11-25, custom)"
   xmlns:inkscape="http://www.inkscape.org/namespaces/inkscape"
   xmlns:sodipodi="http://sodipodi.sourceforge.net/DTD/sodipodi-0.dtd"
   xmlns="http://www.w3.org/2000/svg"
   xmlns:svg="http://www.w3.org/2000/svg">
  <defs
     id="defs8" />
  <sodipodi:namedview
     id="namedview8"
     pagecolor="#ffffff"
     bordercolor="#666666"
     borderopacity="1.0"
     inkscape:showpageshadow="2"
     inkscape:pageopacity="0.0"
     inkscape:pagecheckerboard="0"
     inkscape:deskcolor="#d1d1d1"
     inkscape:zoom="30.708333"
     inkscape:cx="12"
     inkscape:cy="12"
     inkscape:window-width="1920"
     inkscape:window-height="1009"
     inkscape:window-x="1912"
     inkscape:window-y="-8"
     inkscape:window-maximized="1"
     inkscape:current-layer="svg8" />
  <path
     style="color:#000000;fill:currentColor;stroke-linecap:round;stroke-linejoin:round;-inkscape-stroke:none"
     d="M 15,1.25 A 0.75,0.75 0 0 0 14.25,2 V 3.25 H 10.5 A 0.75,0.75 0 0 0 9.75,4 0.75,0.75 0 0 0 10.5,4.75 h 3.75 V 6 A 0.75,0.75 0 0 0 15,6.75 0.75,0.75 0 0 0 15.75,6 V 4 2 A 0.75,0.75 0 0 0 15,1.25 Z m -12,8 A 0.750075,0.750075 0 0 0 2.25,10 v 9 c 0,1.509917 1.2401154,2.75 2.75,2.75 h 5 A 0.75,0.75 0 0 0 10.75,21 0.75,0.75 0 0 0 10,20.25 H 5 C 4.3007468,20.25 3.75,19.699281 3.75,19 V 10.75 H 21 A 0.75,0.75 0 0 0 21.75,10 0.75,0.75 0 0 0 21,9.25 Z"
     id="path1" />
  <path
     style="color:#000000;fill:currentColor;stroke-linecap:round;stroke-linejoin:round;-inkscape-stroke:none"
     d="M 5,3.25 C 3.4901018,3.25 2.25,4.4901018 2.25,6 v 4 A 0.75,0.75 0 0 0 3,10.75 0.75,0.75 0 0 0 3.75,10 V 6 C 3.75,5.3007604 4.3007604,4.75 5,4.75 H 7 A 0.75,0.75 0 0 0 7.75,4 0.75,0.75 0 0 0 7,3.25 Z"
     id="path2" />
  <path
     style="color:#000000;fill:currentColor;stroke-linecap:round;stroke-linejoin:round;-inkscape-stroke:none"
     d="M 7,1.25 A 0.75,0.75 0 0 0 6.25,2 V 6 A 0.75,0.75 0 0 0 7,6.75 0.75,0.75 0 0 0 7.75,6 V 2 A 0.75,0.75 0 0 0 7,1.25 Z"
     id="path3" />
  <path
     style="color:#000000;fill:currentColor;stroke-linecap:round;stroke-linejoin:round;-inkscape-stroke:none"
     d="M 18.5,3.25 A 0.75,0.75 0 0 0 17.75,4 0.75,0.75 0 0 0 18.5,4.75 H 19 c 0.699281,0 1.25,0.5507468 1.25,1.25 v 4 A 0.75,0.75 0 0 0 21,10.75 0.75,0.75 0 0 0 21.75,10 V 6 C 21.75,4.4901154 20.509917,3.25 19,3.25 Z"
     id="path4" />
  <path
     style="color:#000000;fill:currentColor;stroke-linecap:round;stroke-linejoin:round;-inkscape-stroke:none"
     d="m 17.990234,13.25 c -2.115114,0 -3.883364,1.505928 -4.509765,3.527344 a 0.75,0.75 0 0 0 0.49414,0.939453 0.75,0.75 0 0 0 0.939454,-0.494141 C 15.36946,15.753075 16.588552,14.75 17.990234,14.75 c 1.310843,0 2.458868,0.873222 2.978516,2.191406 a 0.75,0.75 0 0 0 0.972656,0.423828 0.75,0.75 0 0 0 0.423828,-0.972656 C 21.647284,14.571365 19.968189,13.25 17.990234,13.25 Z"
     id="path5" />
  <path
     style="color:#000000;fill:currentColor;stroke-linecap:round;stroke-linejoin:round;-inkscape-stroke:none"
     d="m 22,13.798828 a 0.75,0.75 0 0 0 -0.75,0.75 v 1.472656 h -1.255859 a 0.75,0.75 0 0 0 -0.75,0.75 0.75,0.75 0 0 0 0.75,0.75 h 1.40625 c 0.736672,0 1.349609,-0.612808 1.349609,-1.349609 v -1.623047 a 0.75,0.75 0 0 0 -0.75,-0.75 z"
     id="path6" />
  <path
     style="color:#000000;fill:currentColor;stroke-linecap:round;stroke-linejoin:round;-inkscape-stroke:none"
     d="m 22.025391,18.283203 a 0.75,0.75 0 0 0 -0.9375,0.494141 C 20.632501,20.2469 19.411448,21.25 18.009766,21.25 c -1.310722,0 -2.458868,-0.873222 -2.978516,-2.191406 a 0.75,0.75 0 0 0 -0.972656,-0.423828 0.75,0.75 0 0 0 -0.421875,0.972656 c 0.71795,1.821213 2.395172,3.142578 4.373047,3.142578 2.115114,0 3.883356,-1.505903 4.509765,-3.527344 a 0.75,0.75 0 0 0 -0.49414,-0.939453 z"
     id="path7" />
  <path
     style="color:#000000;fill:currentColor;stroke-linecap:round;stroke-linejoin:round;-inkscape-stroke:none"
     d="m 14.599609,18.478516 c -0.736672,0 -1.349609,0.612808 -1.349609,1.349609 v 1.623047 a 0.75,0.75 0 0 0 0.75,0.75 0.75,0.75 0 0 0 0.75,-0.75 v -1.472656 h 1.255859 a 0.75,0.75 0 0 0 0.75,-0.75 0.75,0.75 0 0 0 -0.75,-0.75 z"
     id="path8" />
</svg>
