<?xml version="1.0" encoding="UTF-8" standalone="no"?>
<svg
   width="24"
   height="24"
   viewBox="0 0 24 24"
   stroke-width="1.5"
   fill="none"
   version="1.1"
   id="svg12"
   sodipodi:docname="calendar-plus.svg"
   inkscape:version="1.2.1 (9c6d41e410, 2022-07-14)"
   xmlns:inkscape="http://www.inkscape.org/namespaces/inkscape"
   xmlns:sodipodi="http://sodipodi.sourceforge.net/DTD/sodipodi-0.dtd"
   xmlns="http://www.w3.org/2000/svg"
   xmlns:svg="http://www.w3.org/2000/svg">
  <defs
     id="defs16" />
  <sodipodi:namedview
     id="namedview14"
     pagecolor="#ffffff"
     bordercolor="#666666"
     borderopacity="1.0"
     inkscape:showpageshadow="2"
     inkscape:pageopacity="0.0"
     inkscape:pagecheckerboard="0"
     inkscape:deskcolor="#d1d1d1"
     showgrid="false"
     inkscape:zoom="34.541667"
     inkscape:cx="10.364294"
     inkscape:cy="12.014475"
     inkscape:window-width="1920"
     inkscape:window-height="1009"
     inkscape:window-x="1912"
     inkscape:window-y="-8"
     inkscape:window-maximized="1"
     inkscape:current-layer="svg12" />
  <path
     style="color:#000000;fill:currentColor;stroke-linecap:round;stroke-linejoin:round;-inkscape-stroke:none"
     d="M 15,1.25 A 0.75,0.75 0 0 0 14.25,2 V 3.25 H 10.5 A 0.75,0.75 0 0 0 9.75,4 0.75,0.75 0 0 0 10.5,4.75 h 3.75 V 6 A 0.75,0.75 0 0 0 15,6.75 0.75,0.75 0 0 0 15.75,6 V 4 2 A 0.75,0.75 0 0 0 15,1.25 Z m -12,8 A 0.750075,0.750075 0 0 0 2.25,10 v 9 c 0,1.509917 1.2401154,2.75 2.75,2.75 h 8 A 0.75,0.75 0 0 0 13.75,21 0.75,0.75 0 0 0 13,20.25 H 5 C 4.3007468,20.25 3.75,19.699281 3.75,19 v -8.25 h 16.5 V 13 A 0.75,0.75 0 0 0 21,13.75 0.75,0.75 0 0 0 21.75,13 V 10 A 0.750075,0.750075 0 0 0 21,9.25 Z"
     id="path2" />
  <path
     style="color:#000000;fill:currentColor;stroke-linecap:round;stroke-linejoin:round;-inkscape-stroke:none"
     d="M 5,3.25 C 3.4901018,3.25 2.25,4.4901018 2.25,6 v 4 A 0.75,0.75 0 0 0 3,10.75 0.75,0.75 0 0 0 3.75,10 V 6 C 3.75,5.3007604 4.3007604,4.75 5,4.75 H 7 A 0.75,0.75 0 0 0 7.75,4 0.75,0.75 0 0 0 7,3.25 Z"
     id="path4" />
  <path
     style="color:#000000;fill:currentColor;stroke-linecap:round;stroke-linejoin:round;-inkscape-stroke:none"
     d="M 7,1.25 A 0.75,0.75 0 0 0 6.25,2 V 6 A 0.75,0.75 0 0 0 7,6.75 0.75,0.75 0 0 0 7.75,6 V 2 A 0.75,0.75 0 0 0 7,1.25 Z"
     id="path6" />
  <path
     style="color:#000000;fill:currentColor;stroke-linecap:round;stroke-linejoin:round;-inkscape-stroke:none"
     d="M 18.5,3.25 A 0.75,0.75 0 0 0 17.75,4 0.75,0.75 0 0 0 18.5,4.75 H 19 c 0.699281,0 1.25,0.5507468 1.25,1.25 v 4 A 0.75,0.75 0 0 0 21,10.75 0.75,0.75 0 0 0 21.75,10 V 6 C 21.75,4.4901154 20.509917,3.25 19,3.25 Z"
     id="path8" />
  <path
     style="color:#000000;fill:currentColor;stroke-linecap:round;stroke-linejoin:round;-inkscape-stroke:none"
     d="m 17.992187,14.25 a 0.75,0.75 0 0 0 -0.75,0.75 v 2.25 h -2.249999 a 0.75,0.75 0 0 0 -0.75,0.75 0.75,0.75 0 0 0 0.75,0.75 h 2.249999 V 21 a 0.75,0.75 0 0 0 0.75,0.75 0.75,0.75 0 0 0 0.75,-0.75 V 18.75 H 21 A 0.75,0.75 0 0 0 21.75,18 0.75,0.75 0 0 0 21,17.25 H 18.742187 V 15 a 0.75,0.75 0 0 0 -0.75,-0.75 z"
     id="path10" />
</svg>
