<?xml version="1.0" encoding="UTF-8" standalone="no"?>
<svg
   width="24"
   height="24"
   viewBox="0 0 24 24"
   stroke-width="1.5"
   fill="none"
   version="1.1"
   id="svg5"
   sodipodi:docname="calendar-xmark.svg"
   inkscape:version="1.3.2 (091e20e, 2023-11-25, custom)"
   xmlns:inkscape="http://www.inkscape.org/namespaces/inkscape"
   xmlns:sodipodi="http://sodipodi.sourceforge.net/DTD/sodipodi-0.dtd"
   xmlns="http://www.w3.org/2000/svg"
   xmlns:svg="http://www.w3.org/2000/svg">
  <defs
     id="defs5" />
  <sodipodi:namedview
     id="namedview5"
     pagecolor="#ffffff"
     bordercolor="#666666"
     borderopacity="1.0"
     inkscape:showpageshadow="2"
     inkscape:pageopacity="0.0"
     inkscape:pagecheckerboard="0"
     inkscape:deskcolor="#d1d1d1"
     inkscape:zoom="30.708333"
     inkscape:cx="12"
     inkscape:cy="12"
     inkscape:window-width="1920"
     inkscape:window-height="1009"
     inkscape:window-x="1912"
     inkscape:window-y="-8"
     inkscape:window-maximized="1"
     inkscape:current-layer="svg5" />
  <path
     style="color:#000000;fill:currentColor;stroke-linecap:round;stroke-linejoin:round;-inkscape-stroke:none"
     d="M 15,1.25 A 0.75,0.75 0 0 0 14.25,2 V 3.25 H 10.5 A 0.75,0.75 0 0 0 9.75,4 0.75,0.75 0 0 0 10.5,4.75 h 3.75 V 6 A 0.75,0.75 0 0 0 15,6.75 0.75,0.75 0 0 0 15.75,6 V 4 2 A 0.75,0.75 0 0 0 15,1.25 Z m -12,8 A 0.750075,0.750075 0 0 0 2.25,10 v 9 c 0,1.509917 1.2401154,2.75 2.75,2.75 H 15 A 0.75,0.75 0 0 0 15.75,21 0.75,0.75 0 0 0 15,20.25 H 5 C 4.3007468,20.25 3.75,19.699281 3.75,19 v -8.25 h 16.5 V 15 A 0.75,0.75 0 0 0 21,15.75 0.75,0.75 0 0 0 21.75,15 V 10 A 0.750075,0.750075 0 0 0 21,9.25 Z"
     id="path1" />
  <path
     style="color:#000000;fill:currentColor;stroke-linecap:round;stroke-linejoin:round;-inkscape-stroke:none"
     d="M 5,3.25 C 3.4901018,3.25 2.25,4.4901018 2.25,6 v 4 A 0.75,0.75 0 0 0 3,10.75 0.75,0.75 0 0 0 3.75,10 V 6 C 3.75,5.3007604 4.3007604,4.75 5,4.75 H 7 A 0.75,0.75 0 0 0 7.75,4 0.75,0.75 0 0 0 7,3.25 Z"
     id="path2" />
  <path
     style="color:#000000;fill:currentColor;stroke-linecap:round;stroke-linejoin:round;-inkscape-stroke:none"
     d="M 7,1.25 A 0.75,0.75 0 0 0 6.25,2 V 6 A 0.75,0.75 0 0 0 7,6.75 0.75,0.75 0 0 0 7.75,6 V 2 A 0.75,0.75 0 0 0 7,1.25 Z"
     id="path3" />
  <path
     style="color:#000000;fill:currentColor;stroke-linecap:round;stroke-linejoin:round;-inkscape-stroke:none"
     d="M 18.5,3.25 A 0.75,0.75 0 0 0 17.75,4 0.75,0.75 0 0 0 18.5,4.75 H 19 c 0.699281,0 1.25,0.5507468 1.25,1.25 v 4 A 0.75,0.75 0 0 0 21,10.75 0.75,0.75 0 0 0 21.75,10 V 6 C 21.75,4.4901154 20.509917,3.25 19,3.25 Z"
     id="path4" />
  <path
     style="color:#000000;fill:currentColor;stroke-linecap:round;stroke-linejoin:round;-inkscape-stroke:none"
     d="m 18,17.25 a 0.75,0.75 0 0 0 -0.53125,0.21875 0.75,0.75 0 0 0 0,1.0625 l 1.591797,1.589844 -1.591797,1.591797 a 0.75,0.75 0 0 0 0,1.060546 0.75,0.75 0 0 0 1.0625,0 l 1.589844,-1.589843 1.591797,1.589843 a 0.75,0.75 0 0 0 1.060546,0 0.75,0.75 0 0 0 0,-1.060546 l -1.589843,-1.591797 1.589843,-1.589844 a 0.75,0.75 0 0 0 0,-1.0625 0.75,0.75 0 0 0 -1.060546,0 L 20.121094,19.060547 18.53125,17.46875 A 0.75,0.75 0 0 0 18,17.25 Z"
     id="path5" />
</svg>
