<?xml version="1.0" encoding="UTF-8" standalone="no"?>
<svg
   width="24"
   height="24"
   stroke-width="1.5"
   viewBox="0 0 24 24"
   fill="none"
   version="1.1"
   id="svg6"
   sodipodi:docname="camera.svg"
   inkscape:version="1.2.1 (9c6d41e410, 2022-07-14)"
   xmlns:inkscape="http://www.inkscape.org/namespaces/inkscape"
   xmlns:sodipodi="http://sodipodi.sourceforge.net/DTD/sodipodi-0.dtd"
   xmlns="http://www.w3.org/2000/svg"
   xmlns:svg="http://www.w3.org/2000/svg">
  <defs
     id="defs10" />
  <sodipodi:namedview
     id="namedview8"
     pagecolor="#ffffff"
     bordercolor="#666666"
     borderopacity="1.0"
     inkscape:showpageshadow="2"
     inkscape:pageopacity="0.0"
     inkscape:pagecheckerboard="0"
     inkscape:deskcolor="#d1d1d1"
     showgrid="false"
     inkscape:zoom="34.541667"
     inkscape:cx="10.364294"
     inkscape:cy="12.014475"
     inkscape:window-width="1920"
     inkscape:window-height="1009"
     inkscape:window-x="1912"
     inkscape:window-y="-8"
     inkscape:window-maximized="1"
     inkscape:current-layer="svg6" />
  <path
     style="color:#000000;fill:currentColor;stroke-linecap:round;stroke-linejoin:round;-inkscape-stroke:none"
     d="M 8.8007813,2.25 C 8.3765067,2.25 7.9752678,2.4496429 7.7207031,2.7890625 L 5.5,5.75 c -0.236463,0.3152819 -0.6059037,0.5 -1,0.5 H 4 C 2.4901018,6.25 1.25,7.4901018 1.25,9 v 10 c 0,1.509917 1.2401154,2.75 2.75,2.75 h 16 c 1.509904,0 2.75,-1.240096 2.75,-2.75 V 9 C 22.75,7.4901154 21.509917,6.25 20,6.25 h -0.5 c -0.394083,0 -0.763557,-0.1847366 -1,-0.5 L 16.279297,2.7890625 C 16.024785,2.4496827 15.623481,2.25 15.199219,2.25 Z M 8.875,3.75 h 6.25 l 2.175781,2.9003906 C 17.819738,7.3423462 18.635084,7.75 19.5,7.75 H 20 c 0.699281,0 1.25,0.5507468 1.25,1.25 v 10 c 0,0.699294 -0.550706,1.25 -1.25,1.25 H 4 C 3.3007468,20.25 2.75,19.699281 2.75,19 V 9 C 2.75,8.3007604 3.3007604,7.75 4,7.75 h 0.5 c 0.8649224,0 1.6802625,-0.4076723 2.1992187,-1.0996094 z"
     id="path2" />
  <path
     style="color:#000000;fill:currentColor;stroke-linecap:round;stroke-linejoin:round;-inkscape-stroke:none"
     d="m 12,8.25 c -2.6144761,0 -4.75,2.135566 -4.75,4.75 0,2.614434 2.1355239,4.75 4.75,4.75 2.614443,0 4.75,-2.135557 4.75,-4.75 0,-2.614443 -2.135557,-4.75 -4.75,-4.75 z m 0,1.5 c 1.803752,0 3.25,1.446248 3.25,3.25 0,1.803752 -1.446248,3.25 -3.25,3.25 -1.803799,0 -3.25,-1.446239 -3.25,-3.25 0,-1.803761 1.446201,-3.25 3.25,-3.25 z"
     id="path4" />
</svg>
