<?xml version="1.0" encoding="UTF-8" standalone="no"?>
<svg
   width="24"
   height="24"
   viewBox="0 0 24 24"
   stroke-width="1.5"
   fill="none"
   version="1.1"
   id="svg20"
   sodipodi:docname="candlestick-chart.svg"
   inkscape:version="1.2.1 (9c6d41e410, 2022-07-14)"
   xmlns:inkscape="http://www.inkscape.org/namespaces/inkscape"
   xmlns:sodipodi="http://sodipodi.sourceforge.net/DTD/sodipodi-0.dtd"
   xmlns="http://www.w3.org/2000/svg"
   xmlns:svg="http://www.w3.org/2000/svg">
  <defs
     id="defs24" />
  <sodipodi:namedview
     id="namedview22"
     pagecolor="#ffffff"
     bordercolor="#666666"
     borderopacity="1.0"
     inkscape:showpageshadow="2"
     inkscape:pageopacity="0.0"
     inkscape:pagecheckerboard="0"
     inkscape:deskcolor="#d1d1d1"
     showgrid="false"
     inkscape:zoom="34.541667"
     inkscape:cx="10.364294"
     inkscape:cy="12.014475"
     inkscape:window-width="1920"
     inkscape:window-height="1009"
     inkscape:window-x="1912"
     inkscape:window-y="-8"
     inkscape:window-maximized="1"
     inkscape:current-layer="svg20" />
  <path
     style="color:#000000;fill:currentColor;stroke-linecap:round;stroke-linejoin:round;-inkscape-stroke:none"
     d="M 5,13.25 A 0.75,0.75 0 0 0 4.25,14 v 2 A 0.75,0.75 0 0 0 5,16.75 0.75,0.75 0 0 0 5.75,16 V 14 A 0.75,0.75 0 0 0 5,13.25 Z"
     id="path2" />
  <path
     style="color:#000000;fill:currentColor;stroke-linecap:round;stroke-linejoin:round;-inkscape-stroke:none"
     d="M 12,18.25 A 0.75,0.75 0 0 0 11.25,19 v 2 A 0.75,0.75 0 0 0 12,21.75 0.75,0.75 0 0 0 12.75,21 V 19 A 0.75,0.75 0 0 0 12,18.25 Z"
     id="path4" />
  <path
     style="color:#000000;fill:currentColor;stroke-linecap:round;stroke-linejoin:round;-inkscape-stroke:none"
     d="M 19,10.25 A 0.75,0.75 0 0 0 18.25,11 v 2 A 0.75,0.75 0 0 0 19,13.75 0.75,0.75 0 0 0 19.75,13 V 11 A 0.75,0.75 0 0 0 19,10.25 Z"
     id="path6" />
  <path
     style="color:#000000;fill:currentColor;stroke-linecap:round;stroke-linejoin:round;-inkscape-stroke:none"
     d="M 5,5.25 A 0.75,0.75 0 0 0 4.25,6 V 8 A 0.75,0.75 0 0 0 5,8.75 0.75,0.75 0 0 0 5.75,8 V 6 A 0.75,0.75 0 0 0 5,5.25 Z"
     id="path8" />
  <path
     style="color:#000000;fill:currentColor;stroke-linecap:round;stroke-linejoin:round;-inkscape-stroke:none"
     d="M 12,10.25 A 0.75,0.75 0 0 0 11.25,11 v 2 A 0.75,0.75 0 0 0 12,13.75 0.75,0.75 0 0 0 12.75,13 V 11 A 0.75,0.75 0 0 0 12,10.25 Z"
     id="path10" />
  <path
     style="color:#000000;fill:currentColor;stroke-linecap:round;stroke-linejoin:round;-inkscape-stroke:none"
     d="M 19,2.25 A 0.75,0.75 0 0 0 18.25,3 V 5 A 0.75,0.75 0 0 0 19,5.75 0.75,0.75 0 0 0 19.75,5 V 3 A 0.75,0.75 0 0 0 19,2.25 Z"
     id="path12" />
  <path
     style="color:#000000;fill:currentColor;stroke-linecap:round;stroke-linejoin:round;-inkscape-stroke:none"
     d="M 3.5996094,7.25 C 2.8629077,7.25 2.25,7.8629077 2.25,8.5996094 V 13.400391 C 2.25,14.137086 2.862953,14.75 3.5996094,14.75 H 6.4003906 C 7.137047,14.75 7.75,14.137086 7.75,13.400391 V 8.5996094 C 7.75,7.8629077 7.1370923,7.25 6.4003906,7.25 Z M 3.75,8.75 h 2.5 v 4.5 h -2.5 z"
     id="path14" />
  <path
     style="color:#000000;fill:currentColor;stroke-linecap:round;stroke-linejoin:round;-inkscape-stroke:none"
     d="M 10.599609,12.25 C 9.8629597,12.25 9.25,12.86296 9.25,13.599609 v 4.800782 C 9.25,19.13704 9.8629597,19.75 10.599609,19.75 h 2.800782 C 14.13704,19.75 14.75,19.13704 14.75,18.400391 V 13.599609 C 14.75,12.86296 14.13704,12.25 13.400391,12.25 Z M 10.75,13.75 h 2.5 v 4.5 h -2.5 z"
     id="path16" />
  <path
     style="color:#000000;fill:currentColor;stroke-linecap:round;stroke-linejoin:round;-inkscape-stroke:none"
     d="M 17.599609,4.25 C 16.862914,4.25 16.25,4.862953 16.25,5.5996094 v 4.8007816 c 0,0.736649 0.61296,1.349609 1.349609,1.349609 h 2.800782 C 21.13704,11.75 21.75,11.13704 21.75,10.400391 V 5.5996094 C 21.75,4.862953 21.137086,4.25 20.400391,4.25 Z M 17.75,5.75 h 2.5 v 4.5 h -2.5 z"
     id="path18" />
</svg>
