<?xml version="1.0" encoding="UTF-8" standalone="no"?>
<svg
   width="24"
   height="24"
   stroke-width="1.5"
   viewBox="0 0 24 24"
   fill="none"
   version="1.1"
   id="svg10"
   sodipodi:docname="car.svg"
   inkscape:version="1.2.1 (9c6d41e410, 2022-07-14)"
   xmlns:inkscape="http://www.inkscape.org/namespaces/inkscape"
   xmlns:sodipodi="http://sodipodi.sourceforge.net/DTD/sodipodi-0.dtd"
   xmlns="http://www.w3.org/2000/svg"
   xmlns:svg="http://www.w3.org/2000/svg">
  <defs
     id="defs14" />
  <sodipodi:namedview
     id="namedview12"
     pagecolor="#ffffff"
     bordercolor="#666666"
     borderopacity="1.0"
     inkscape:showpageshadow="2"
     inkscape:pageopacity="0.0"
     inkscape:pagecheckerboard="0"
     inkscape:deskcolor="#d1d1d1"
     showgrid="false"
     inkscape:zoom="34.541667"
     inkscape:cx="10.364294"
     inkscape:cy="12.014475"
     inkscape:window-width="1920"
     inkscape:window-height="1009"
     inkscape:window-x="1912"
     inkscape:window-y="-8"
     inkscape:window-maximized="1"
     inkscape:current-layer="svg10" />
  <path
     style="color:#000000;fill:currentColor;stroke-linecap:round;stroke-linejoin:round;-inkscape-stroke:none"
     d="M 8,9.25 A 0.75,0.75 0 0 0 7.25,10 0.75,0.75 0 0 0 8,10.75 h 8 A 0.75,0.75 0 0 0 16.75,10 0.75,0.75 0 0 0 16,9.25 Z"
     id="path2" />
  <path
     style="color:#000000;fill:currentColor;stroke-linecap:round;stroke-linejoin:round;-inkscape-stroke:none"
     d="M 7,13.25 A 0.75,0.75 0 0 0 6.25,14 0.75,0.75 0 0 0 7,14.75 H 8 A 0.75,0.75 0 0 0 8.75,14 0.75,0.75 0 0 0 8,13.25 Z"
     id="path4" />
  <path
     style="color:#000000;fill:currentColor;stroke-linecap:round;stroke-linejoin:round;-inkscape-stroke:none"
     d="M 16,13.25 A 0.75,0.75 0 0 0 15.25,14 0.75,0.75 0 0 0 16,14.75 h 1 A 0.75,0.75 0 0 0 17.75,14 0.75,0.75 0 0 0 17,13.25 Z"
     id="path6" />
  <path
     style="color:#000000;fill:currentColor;-inkscape-stroke:none"
     d="M 7.3183594,3.25 C 6.2203353,3.25 5.2235543,3.9067634 4.7910156,4.9160156 L 2.4726563,10.328125 C 2.3259178,10.670455 2.25,11.037769 2.25,11.410156 V 18 20.400391 C 2.25,21.137086 2.862953,21.75 3.5996094,21.75 H 6.4003906 C 7.137047,21.75 7.75,21.137086 7.75,20.400391 V 18.75 h 8.5 v 1.650391 c 0,0.736649 0.61296,1.349609 1.349609,1.349609 h 2.800782 C 21.13704,21.75 21.75,21.13704 21.75,20.400391 V 18 11.410156 c 0,-0.37235 -0.07588,-0.739657 -0.222656,-1.082031 L 19.208984,4.9160156 C 18.776422,3.9068355 17.779696,3.25 16.681641,3.25 Z m 0,1.5 h 9.3632816 c 0.502143,0 0.9506,0.2962541 1.148437,0.7578125 l 2.318359,5.4101565 C 20.215066,11.073394 20.25,11.240907 20.25,11.410156 V 17.25 H 17 7 3.75 v -5.839844 c 0,-0.169212 0.034921,-0.336718 0.1015625,-0.492187 L 6.1699219,5.5078125 C 6.3677026,5.0463262 6.816285,4.75 7.3183594,4.75 Z M 3.75,18.75 h 2.5 v 1.5 h -2.5 z m 14,0 h 2.5 v 1.5 h -2.5 z"
     id="path8" />
</svg>
