<?xml version="1.0" encoding="UTF-8" standalone="no"?>
<svg
   width="24"
   height="24"
   viewBox="0 0 24 24"
   stroke-width="1.5"
   fill="none"
   version="1.1"
   id="svg6"
   sodipodi:docname="card-lock.svg"
   inkscape:version="1.2.1 (9c6d41e410, 2022-07-14)"
   xmlns:inkscape="http://www.inkscape.org/namespaces/inkscape"
   xmlns:sodipodi="http://sodipodi.sourceforge.net/DTD/sodipodi-0.dtd"
   xmlns="http://www.w3.org/2000/svg"
   xmlns:svg="http://www.w3.org/2000/svg">
  <defs
     id="defs10" />
  <sodipodi:namedview
     id="namedview8"
     pagecolor="#ffffff"
     bordercolor="#666666"
     borderopacity="1.0"
     inkscape:showpageshadow="2"
     inkscape:pageopacity="0.0"
     inkscape:pagecheckerboard="0"
     inkscape:deskcolor="#d1d1d1"
     showgrid="false"
     inkscape:zoom="34.541667"
     inkscape:cx="10.364294"
     inkscape:cy="12.014475"
     inkscape:window-width="1920"
     inkscape:window-height="1009"
     inkscape:window-x="1912"
     inkscape:window-y="-8"
     inkscape:window-maximized="1"
     inkscape:current-layer="svg6" />
  <path
     style="color:#000000;fill:currentColor;stroke-linecap:round;stroke-linejoin:round;-inkscape-stroke:none"
     d="M 4,4.25 C 2.4901018,4.25 1.25,5.4901018 1.25,7 v 10 c 0,1.509917 1.2401154,2.75 2.75,2.75 H 14 A 0.75,0.75 0 0 0 14.75,19 0.75,0.75 0 0 0 14,18.25 H 4 C 3.3007468,18.25 2.75,17.699281 2.75,17 V 7 C 2.75,6.3007604 3.3007604,5.75 4,5.75 h 16 c 0.699281,0 1.25,0.5507468 1.25,1.25 V 8.25 H 6 A 0.75,0.75 0 0 0 5.25,9 0.75,0.75 0 0 0 6,9.75 H 21.25 V 13 A 0.75,0.75 0 0 0 22,13.75 0.75,0.75 0 0 0 22.75,13 V 9 7 C 22.75,5.4901154 21.509917,4.25 20,4.25 Z"
     id="path2" />
  <path
     style="color:#000000;fill:currentColor;stroke-linecap:round;stroke-linejoin:round;-inkscape-stroke:none"
     d="m 19.5,14.25 c -0.885411,0 -1.586865,0.451161 -1.951172,0.982422 -0.364307,0.531261 -0.464844,1.083035 -0.464844,1.517578 v 1.216797 C 16.622121,18.182986 16.25,18.562738 16.25,19.099609 v 2.300782 c 0,0.736649 0.61296,1.349609 1.349609,1.349609 h 3.800782 C 22.13704,22.75 22.75,22.13704 22.75,21.400391 v -2.300782 c 0,-0.536871 -0.372121,-0.916623 -0.833984,-1.132812 V 16.75 c 0,-0.434543 -0.100537,-0.986317 -0.464844,-1.517578 C 21.086865,14.701161 20.385411,14.25 19.5,14.25 Z m 0,1.5 c 0.447888,0 0.579126,0.132165 0.714844,0.330078 0.135717,0.197914 0.201172,0.521166 0.201172,0.669922 v 1 h -1.832032 v -1 c 0,-0.148756 0.06546,-0.472008 0.201172,-0.669922 C 18.920874,15.882165 19.052112,15.75 19.5,15.75 Z m -1.75,3.5 h 0.08398 3.332032 0.08398 v 2 h -3.5 z"
     id="path4" />
</svg>
