<?xml version="1.0" encoding="UTF-8" standalone="no"?>
<svg
   width="24"
   height="24"
   viewBox="0 0 24 24"
   stroke-width="1.5"
   fill="none"
   version="1.1"
   id="svg8"
   sodipodi:docname="card-reader.svg"
   inkscape:version="1.2.1 (9c6d41e410, 2022-07-14)"
   xmlns:inkscape="http://www.inkscape.org/namespaces/inkscape"
   xmlns:sodipodi="http://sodipodi.sourceforge.net/DTD/sodipodi-0.dtd"
   xmlns="http://www.w3.org/2000/svg"
   xmlns:svg="http://www.w3.org/2000/svg">
  <defs
     id="defs12" />
  <sodipodi:namedview
     id="namedview10"
     pagecolor="#ffffff"
     bordercolor="#666666"
     borderopacity="1.0"
     inkscape:showpageshadow="2"
     inkscape:pageopacity="0.0"
     inkscape:pagecheckerboard="0"
     inkscape:deskcolor="#d1d1d1"
     showgrid="false"
     inkscape:zoom="34.541667"
     inkscape:cx="10.364294"
     inkscape:cy="12.014475"
     inkscape:window-width="1920"
     inkscape:window-height="1009"
     inkscape:window-x="1912"
     inkscape:window-y="-8"
     inkscape:window-maximized="1"
     inkscape:current-layer="svg8" />
  <path
     style="color:#000000;fill:currentColor;-inkscape-stroke:none"
     d="M 4.25,2.25 V 19 c 0,1.509917 1.2401154,2.75 2.75,2.75 h 10 c 1.509904,0 2.75,-1.240096 2.75,-2.75 V 2.25 Z m 1.5,1.5 h 12.5 V 19 c 0,0.699294 -0.550706,1.25 -1.25,1.25 H 7 C 6.3007468,20.25 5.75,19.699281 5.75,19 Z"
     id="path2" />
  <path
     style="color:#000000;fill:currentColor;-inkscape-stroke:none"
     d="m 3.5,2.25 c -1.2337557,0 -2.25,1.0162443 -2.25,2.25 0,1.2337557 1.0162443,2.25 2.25,2.25 H 5 V 5.25 H 3.5 C 3.0768974,5.25 2.75,4.9231026 2.75,4.5 2.75,4.0768974 3.0768974,3.75 3.5,3.75 h 17 c 0.423058,0 0.75,0.3269155 0.75,0.75 0,0.4230845 -0.326942,0.75 -0.75,0.75 H 19 v 1.5 h 1.5 c 1.23374,0 2.25,-1.0162262 2.25,-2.25 0,-1.2337738 -1.01626,-2.25 -2.25,-2.25 z"
     id="path4" />
  <path
     style="color:#000000;fill:currentColor;stroke-linecap:round;stroke-linejoin:round;-inkscape-stroke:none"
     d="M 15,2.25 A 0.75,0.75 0 0 0 14.25,3 V 21 A 0.75,0.75 0 0 0 15,21.75 0.75,0.75 0 0 0 15.75,21 V 3 A 0.75,0.75 0 0 0 15,2.25 Z"
     id="path6" />
</svg>
