<?xml version="1.0" encoding="UTF-8" standalone="no"?>
<svg
   width="24"
   stroke-width="1.5"
   height="24"
   viewBox="0 0 24 24"
   fill="none"
   version="1.1"
   id="svg12"
   sodipodi:docname="card-wallet.svg"
   inkscape:version="1.3.1 (91b66b0783, 2023-11-16)"
   xmlns:inkscape="http://www.inkscape.org/namespaces/inkscape"
   xmlns:sodipodi="http://sodipodi.sourceforge.net/DTD/sodipodi-0.dtd"
   xmlns="http://www.w3.org/2000/svg"
   xmlns:svg="http://www.w3.org/2000/svg">
  <defs
     id="defs16" />
  <sodipodi:namedview
     id="namedview14"
     pagecolor="#ffffff"
     bordercolor="#666666"
     borderopacity="1.0"
     inkscape:showpageshadow="2"
     inkscape:pageopacity="0.0"
     inkscape:pagecheckerboard="0"
     inkscape:deskcolor="#d1d1d1"
     showgrid="false"
     inkscape:zoom="34.541667"
     inkscape:cx="10.364294"
     inkscape:cy="12.02895"
     inkscape:window-width="1920"
     inkscape:window-height="1009"
     inkscape:window-x="1912"
     inkscape:window-y="-8"
     inkscape:window-maximized="1"
     inkscape:current-layer="svg12" />
  <path
     style="color:#000000;fill:currentColor;-inkscape-stroke:none"
     d="M 5,6.25 C 3.4901018,6.25 2.25,7.4901018 2.25,9 v 9 c 0,1.509917 1.2401154,2.75 2.75,2.75 h 14 c 1.509904,0 2.75,-1.240096 2.75,-2.75 V 9 C 21.75,7.4901154 20.509917,6.25 19,6.25 Z m 0,1.5 h 14 c 0.699281,0 1.25,0.5507468 1.25,1.25 v 9 c 0,0.699294 -0.550706,1.25 -1.25,1.25 H 5 C 4.3007468,19.25 3.75,18.699281 3.75,18 V 9 C 3.75,8.3007604 4.3007604,7.75 5,7.75 Z"
     id="path2" />
  <path
     style="color:#000000;fill:currentColor;-inkscape-stroke:none"
     d="M 7.5996094,2.25 C 6.8629077,2.25 6.25,2.8629077 6.25,3.5996094 V 7 h 1.5 V 3.75 h 8.5 V 7 h 1.5 V 3.5996094 C 17.75,2.862953 17.137086,2.25 16.400391,2.25 Z"
     id="path4" />
  <path
     style="color:#000000;fill:currentColor;-inkscape-stroke:none"
     d="m 9.25,3 v 4 h 1.5 V 3 Z"
     id="path6" />
  <path
     style="color:#000000;fill:currentColor;-inkscape-stroke:none"
     d="m 11.25,3 v 4 h 1.5 V 3 Z"
     id="path8" />
  <circle
     style="fill:#000000;stroke-width:2.27213;stroke-linecap:round;stroke-linejoin:round"
     id="path1"
     cx="16.5"
     cy="13.5"
     r="1.25" />
</svg>
