<?xml version="1.0" encoding="UTF-8" standalone="no"?>
<svg
   width="24"
   height="24"
   stroke-width="1.5"
   viewBox="0 0 24 24"
   fill="none"
   version="1.1"
   id="svg10"
   sodipodi:docname="cart-plus.svg"
   inkscape:version="1.2.1 (9c6d41e410, 2022-07-14)"
   xmlns:inkscape="http://www.inkscape.org/namespaces/inkscape"
   xmlns:sodipodi="http://sodipodi.sourceforge.net/DTD/sodipodi-0.dtd"
   xmlns="http://www.w3.org/2000/svg"
   xmlns:svg="http://www.w3.org/2000/svg">
  <defs
     id="defs14" />
  <sodipodi:namedview
     id="namedview12"
     pagecolor="#ffffff"
     bordercolor="#666666"
     borderopacity="1.0"
     inkscape:showpageshadow="2"
     inkscape:pageopacity="0.0"
     inkscape:pagecheckerboard="0"
     inkscape:deskcolor="#d1d1d1"
     showgrid="false"
     inkscape:zoom="34.541667"
     inkscape:cx="10.364294"
     inkscape:cy="12.014475"
     inkscape:window-width="1920"
     inkscape:window-height="1009"
     inkscape:window-x="1912"
     inkscape:window-y="-8"
     inkscape:window-maximized="1"
     inkscape:current-layer="svg10" />
  <path
     style="color:#000000;fill:currentColor;stroke-linecap:round;stroke-linejoin:round;-inkscape-stroke:none"
     d="M 2.0351563,2.78125 A 0.75,0.75 0 0 0 1.53125,3.7148438 l 0.75,2.4999999 3,10.0000003 A 0.750075,0.750075 0 0 0 6,16.75 h 13 a 0.750075,0.750075 0 0 0 0.71875,-0.535156 l 3,-10.0000003 A 0.750075,0.750075 0 0 0 22,5.25 H 3.5585938 L 2.96875,3.2851563 A 0.75,0.75 0 0 0 2.0351563,2.78125 Z M 4.0078125,6.75 H 20.992187 l -2.550781,8.5 H 6.5585937 Z"
     id="path2" />
  <path
     style="color:#000000;fill:currentColor;stroke-linecap:round;stroke-linejoin:round;-inkscape-stroke:none"
     d="m 11.992188,8.25 a 0.75,0.75 0 0 0 -0.75,0.75 v 1.25 H 9.9921875 a 0.75,0.75 0 0 0 -0.75,0.75 0.75,0.75 0 0 0 0.75,0.75 H 11.242188 V 13 a 0.75,0.75 0 0 0 0.75,0.75 0.75,0.75 0 0 0 0.75,-0.75 v -1.25 h 1.25 a 0.75,0.75 0 0 0 0.75,-0.75 0.75,0.75 0 0 0 -0.75,-0.75 h -1.25 V 9 a 0.75,0.75 0 0 0 -0.75,-0.75 z"
     id="path4" />
  <path
     style="color:#000000;fill:currentColor;stroke-linecap:round;stroke-linejoin:round;-inkscape-stroke:none"
     d="M 8,18.75 A 0.75,0.75 0 0 0 7.25,19.5 c 0,1.23374 1.0162262,2.25 2.25,2.25 1.233758,0 2.25,-1.016242 2.25,-2.25 A 0.75,0.75 0 0 0 11,18.75 0.75,0.75 0 0 0 10.25,19.5 c 0,0.42304 -0.3269602,0.75 -0.75,0.75 -0.4230845,0 -0.75,-0.326942 -0.75,-0.75 A 0.75,0.75 0 0 0 8,18.75 Z"
     id="path6" />
  <path
     style="color:#000000;fill:currentColor;stroke-linecap:round;stroke-linejoin:round;-inkscape-stroke:none"
     d="m 14,18.75 a 0.75,0.75 0 0 0 -0.75,0.75 c 0,1.233758 1.016242,2.25 2.25,2.25 1.233758,0 2.25,-1.016242 2.25,-2.25 A 0.75,0.75 0 0 0 17,18.75 0.75,0.75 0 0 0 16.25,19.5 c 0,0.42304 -0.32696,0.75 -0.75,0.75 -0.42304,0 -0.75,-0.32696 -0.75,-0.75 A 0.75,0.75 0 0 0 14,18.75 Z"
     id="path8" />
</svg>
