<?xml version="1.0" encoding="UTF-8" standalone="no"?>
<svg
   width="24"
   height="24"
   stroke-width="1.5"
   viewBox="0 0 24 24"
   fill="none"
   version="1.1"
   id="svg10"
   sodipodi:docname="cart.svg"
   inkscape:version="1.2.1 (9c6d41e410, 2022-07-14)"
   xmlns:inkscape="http://www.inkscape.org/namespaces/inkscape"
   xmlns:sodipodi="http://sodipodi.sourceforge.net/DTD/sodipodi-0.dtd"
   xmlns="http://www.w3.org/2000/svg"
   xmlns:svg="http://www.w3.org/2000/svg">
  <defs
     id="defs14" />
  <sodipodi:namedview
     id="namedview12"
     pagecolor="#ffffff"
     bordercolor="#666666"
     borderopacity="1.0"
     inkscape:showpageshadow="2"
     inkscape:pageopacity="0.0"
     inkscape:pagecheckerboard="0"
     inkscape:deskcolor="#d1d1d1"
     showgrid="false"
     inkscape:zoom="34.541667"
     inkscape:cx="10.364294"
     inkscape:cy="12.014475"
     inkscape:window-width="1920"
     inkscape:window-height="1009"
     inkscape:window-x="1912"
     inkscape:window-y="-8"
     inkscape:window-maximized="1"
     inkscape:current-layer="svg10" />
  <g
     id="path2">
    <path
       style="color:#000000;fill:currentColor;stroke-width:1.5;stroke-linecap:round;stroke-linejoin:round;-inkscape-stroke:none"
       d="M 19.5,22 C 20.3284,22 21,21.3284 21,20.5 21,19.6716 20.3284,19 19.5,19 18.6716,19 18,19.6716 18,20.5 c 0,0.8284 0.6716,1.5 1.5,1.5 z"
       id="path205" />
    <path
       style="color:#000000;fill:currentColor;stroke-linecap:round;stroke-linejoin:round;-inkscape-stroke:none"
       d="m 19.5,18.25 c -1.233758,0 -2.25,1.016242 -2.25,2.25 0,1.233758 1.016242,2.25 2.25,2.25 1.233758,0 2.25,-1.016242 2.25,-2.25 0,-1.233758 -1.016242,-2.25 -2.25,-2.25 z m 0,1.5 c 0.42304,0 0.75,0.32696 0.75,0.75 0,0.42304 -0.32696,0.75 -0.75,0.75 -0.42304,0 -0.75,-0.32696 -0.75,-0.75 0,-0.42304 0.32696,-0.75 0.75,-0.75 z"
       id="path207" />
  </g>
  <g
     id="path4">
    <path
       style="color:#000000;fill:currentColor;stroke-width:1.5;stroke-linecap:round;stroke-linejoin:round;-inkscape-stroke:none"
       d="M 9.5,22 C 10.3284,22 11,21.3284 11,20.5 11,19.6716 10.3284,19 9.5,19 8.67157,19 8,19.6716 8,20.5 8,21.3284 8.67157,22 9.5,22 Z"
       id="path199" />
    <path
       style="color:#000000;fill:currentColor;stroke-linecap:round;stroke-linejoin:round;-inkscape-stroke:none"
       d="m 9.5,18.25 c -1.2337738,0 -2.25,1.01626 -2.25,2.25 0,1.23374 1.0162262,2.25 2.25,2.25 1.233758,0 2.25,-1.016242 2.25,-2.25 0,-1.233758 -1.016242,-2.25 -2.25,-2.25 z m 0,1.5 c 0.4230398,0 0.75,0.32696 0.75,0.75 0,0.42304 -0.3269602,0.75 -0.75,0.75 -0.4230845,0 -0.75,-0.326942 -0.75,-0.75 0,-0.423058 0.3269155,-0.75 0.75,-0.75 z"
       id="path201" />
  </g>
  <path
     style="color:#000000;fill:currentColor;stroke-linecap:round;stroke-linejoin:round;-inkscape-stroke:none"
     d="M 2,1.25 A 0.75,0.75 0 0 0 1.25,2 0.75,0.75 0 0 0 2,2.75 c 0.8333329,0 1.342862,0.2599276 1.6953125,0.5664063 0.3515323,0.3056802 0.5330435,0.7003464 0.5742187,0.8632812 L 6.2617187,15.134766 A 0.750075,0.750075 0 0 0 7,15.75 h 13 a 0.750075,0.750075 0 0 0 0.738281,-0.615234 l 2,-11.0000004 A 0.750075,0.750075 0 0 0 22,3.25 H 5.3632812 C 5.1870014,2.8901644 5.0748227,2.5271895 4.6796875,2.1835938 4.0738065,1.6567407 3.1666651,1.25 2,1.25 Z m 3.8984375,3.5 H 21.101562 L 19.375,14.25 H 7.625 Z"
     id="path6" />
  <path
     style="color:#000000;fill:currentColor;stroke-linecap:round;stroke-linejoin:round;-inkscape-stroke:none"
     d="m 5.2304687,14.25 c -1.001608,0 -1.8494984,0.213659 -2.4863281,0.695313 C 2.107311,15.426966 1.75,16.196463 1.75,17 c 0,0.803537 0.357311,1.573034 0.9941406,2.054687 C 3.3809703,19.536341 4.2288607,19.75 5.2304687,19.75 H 19.5 A 0.75,0.75 0 0 0 20.25,19 0.75,0.75 0 0 0 19.5,18.25 H 5.2304687 C 4.4477686,18.25 3.9309145,18.073021 3.6484375,17.859375 3.3659605,17.645729 3.25,17.415262 3.25,17 3.25,16.584738 3.3659605,16.354271 3.6484375,16.140625 3.9309145,15.926979 4.4477686,15.75 5.2304687,15.75 H 7 20 A 0.75,0.75 0 0 0 20.75,15 0.75,0.75 0 0 0 20,14.25 H 7 Z"
     id="path8" />
</svg>
