<?xml version="1.0" encoding="UTF-8" standalone="no"?>
<svg
   width="24"
   height="24"
   stroke-width="1.5"
   viewBox="0 0 24 24"
   fill="none"
   version="1.1"
   id="svg12"
   sodipodi:docname="cart-alt.svg"
   inkscape:version="1.2.1 (9c6d41e410, 2022-07-14)"
   xmlns:inkscape="http://www.inkscape.org/namespaces/inkscape"
   xmlns:sodipodi="http://sodipodi.sourceforge.net/DTD/sodipodi-0.dtd"
   xmlns="http://www.w3.org/2000/svg"
   xmlns:svg="http://www.w3.org/2000/svg">
  <defs
     id="defs16" />
  <sodipodi:namedview
     id="namedview14"
     pagecolor="#ffffff"
     bordercolor="#666666"
     borderopacity="1.0"
     inkscape:showpageshadow="2"
     inkscape:pageopacity="0.0"
     inkscape:pagecheckerboard="0"
     inkscape:deskcolor="#d1d1d1"
     showgrid="false"
     inkscape:zoom="34.541667"
     inkscape:cx="10.364294"
     inkscape:cy="12.014475"
     inkscape:window-width="1920"
     inkscape:window-height="1009"
     inkscape:window-x="1912"
     inkscape:window-y="-8"
     inkscape:window-maximized="1"
     inkscape:current-layer="svg12" />
  <g
     id="path2">
    <path
       style="color:#000000;fill:currentColor;stroke-width:1.5;stroke-linecap:round;stroke-linejoin:round;-inkscape-stroke:none"
       d="M 19.5,22 C 20.3284,22 21,21.3284 21,20.5 21,19.6716 20.3284,19 19.5,19 18.6716,19 18,19.6716 18,20.5 c 0,0.8284 0.6716,1.5 1.5,1.5 z"
       id="path211" />
    <path
       style="color:#000000;fill:currentColor;stroke-linecap:round;stroke-linejoin:round;-inkscape-stroke:none"
       d="m 19.5,18.25 c -1.233758,0 -2.25,1.016242 -2.25,2.25 0,1.233758 1.016242,2.25 2.25,2.25 1.233758,0 2.25,-1.016242 2.25,-2.25 0,-1.233758 -1.016242,-2.25 -2.25,-2.25 z m 0,1.5 c 0.42304,0 0.75,0.32696 0.75,0.75 0,0.42304 -0.32696,0.75 -0.75,0.75 -0.42304,0 -0.75,-0.32696 -0.75,-0.75 0,-0.42304 0.32696,-0.75 0.75,-0.75 z"
       id="path213" />
  </g>
  <g
     id="path4">
    <path
       style="color:#000000;fill:currentColor;stroke-width:1.5;stroke-linecap:round;stroke-linejoin:round;-inkscape-stroke:none"
       d="M 9.5,22 C 10.3284,22 11,21.3284 11,20.5 11,19.6716 10.3284,19 9.5,19 8.67157,19 8,19.6716 8,20.5 8,21.3284 8.67157,22 9.5,22 Z"
       id="path205" />
    <path
       style="color:#000000;fill:currentColor;stroke-linecap:round;stroke-linejoin:round;-inkscape-stroke:none"
       d="m 9.5,18.25 c -1.2337738,0 -2.25,1.01626 -2.25,2.25 0,1.23374 1.0162262,2.25 2.25,2.25 1.233758,0 2.25,-1.016242 2.25,-2.25 0,-1.233758 -1.016242,-2.25 -2.25,-2.25 z m 0,1.5 c 0.4230398,0 0.75,0.32696 0.75,0.75 0,0.42304 -0.3269602,0.75 -0.75,0.75 -0.4230845,0 -0.75,-0.326942 -0.75,-0.75 0,-0.423058 0.3269155,-0.75 0.75,-0.75 z"
       id="path207" />
  </g>
  <path
     style="color:#000000;fill:currentColor;stroke-linecap:round;stroke-linejoin:round;-inkscape-stroke:none"
     d="M 5,3.25 A 0.750075,0.750075 0 0 0 4.2617187,4.1347656 l 2,11.0000004 A 0.750075,0.750075 0 0 0 7,15.75 h 4.5 4 4.5 a 0.750075,0.750075 0 0 0 0.738281,-0.615234 l 2,-11.0000004 A 0.750075,0.750075 0 0 0 22,3.25 h -5.5 -5.75 z m 0.8984375,1.5 h 4.1503905 l 0.648438,9.5 H 7.625 Z m 5.6542965,0 h 4.126954 l -0.863282,9.5 h -2.615234 z m 5.63086,0 h 3.917968 L 19.375,14.25 h -3.054688 z"
     id="path6" />
  <path
     style="color:#000000;fill:currentColor;stroke-linecap:round;stroke-linejoin:round;-inkscape-stroke:none"
     d="M 2,1.25 A 0.75,0.75 0 0 0 1.25,2 0.75,0.75 0 0 0 2,2.75 c 0.8333329,0 1.342862,0.2599276 1.6953125,0.5664063 0.3524505,0.3064786 0.535637,0.7030972 0.5761719,0.8652343 a 0.75,0.75 0 0 0 0.9101562,0.546875 0.75,0.75 0 0 0 0.546875,-0.9101562 C 5.6023807,3.3138271 5.2855685,2.7104468 4.6796875,2.1835938 4.0738065,1.6567407 3.1666651,1.25 2,1.25 Z"
     id="path8" />
  <path
     style="color:#000000;fill:currentColor;stroke-linecap:round;stroke-linejoin:round;-inkscape-stroke:none"
     d="m 5.2304687,14.25 c -1.001608,0 -1.8494984,0.213659 -2.4863281,0.695313 C 2.107311,15.426966 1.75,16.196463 1.75,17 c 0,0.803537 0.357311,1.573034 0.9941406,2.054687 C 3.3809703,19.536341 4.2288607,19.75 5.2304687,19.75 H 19.5 A 0.75,0.75 0 0 0 20.25,19 0.75,0.75 0 0 0 19.5,18.25 H 5.2304687 C 4.4477686,18.25 3.9309145,18.073021 3.6484375,17.859375 3.3659605,17.645729 3.25,17.415262 3.25,17 3.25,16.584738 3.3659605,16.354271 3.6484375,16.140625 3.9309145,15.926979 4.4477686,15.75 5.2304687,15.75 H 7 20 A 0.75,0.75 0 0 0 20.75,15 0.75,0.75 0 0 0 20,14.25 H 7 Z"
     id="path10" />
</svg>
