<?xml version="1.0" encoding="UTF-8" standalone="no"?>
<svg
   width="24"
   height="24"
   viewBox="0 0 24 24"
   stroke-width="1.5"
   fill="none"
   version="1.1"
   id="svg10"
   sodipodi:docname="cash.svg"
   inkscape:version="1.2.1 (9c6d41e410, 2022-07-14)"
   xmlns:inkscape="http://www.inkscape.org/namespaces/inkscape"
   xmlns:sodipodi="http://sodipodi.sourceforge.net/DTD/sodipodi-0.dtd"
   xmlns="http://www.w3.org/2000/svg"
   xmlns:svg="http://www.w3.org/2000/svg">
  <defs
     id="defs14" />
  <sodipodi:namedview
     id="namedview12"
     pagecolor="#ffffff"
     bordercolor="#666666"
     borderopacity="1.0"
     inkscape:showpageshadow="2"
     inkscape:pageopacity="0.0"
     inkscape:pagecheckerboard="0"
     inkscape:deskcolor="#d1d1d1"
     showgrid="false"
     inkscape:zoom="34.541667"
     inkscape:cx="10.364294"
     inkscape:cy="12.014475"
     inkscape:window-width="1920"
     inkscape:window-height="1009"
     inkscape:window-x="1912"
     inkscape:window-y="-8"
     inkscape:window-maximized="1"
     inkscape:current-layer="svg10" />
  <path
     style="color:#000000;fill:currentColor;stroke-linecap:round;stroke-linejoin:round;-inkscape-stroke:none"
     d="M 4,4.25 C 2.4901018,4.25 1.25,5.4901018 1.25,7 v 10 c 0,1.509917 1.2401154,2.75 2.75,2.75 h 6 4 6 c 1.509904,0 2.75,-1.240096 2.75,-2.75 V 7 C 22.75,5.4901154 21.509917,4.25 20,4.25 h -6 -4 z m 0,1.5 h 6 4 6 c 0.699281,0 1.25,0.5507468 1.25,1.25 v 10 c 0,0.699294 -0.550706,1.25 -1.25,1.25 H 14 10 4 C 3.3007468,18.25 2.75,17.699281 2.75,17 V 7 C 2.75,6.3007604 3.3007604,5.75 4,5.75 Z"
     id="path2" />
  <path
     style="color:#000000;fill:currentColor;stroke-linecap:round;stroke-linejoin:round;-inkscape-stroke:none"
     d="m 12,8.25 c -2.062203,0 -3.75,1.687797 -3.75,3.75 0,2.062203 1.687797,3.75 3.75,3.75 2.062203,0 3.75,-1.687797 3.75,-3.75 0,-2.062203 -1.687797,-3.75 -3.75,-3.75 z m 0,1.5 c 1.251594,0 2.25,0.998406 2.25,2.25 0,1.251594 -0.998406,2.25 -2.25,2.25 -1.251594,0 -2.25,-0.998406 -2.25,-2.25 0,-1.251594 0.998406,-2.25 2.25,-2.25 z"
     id="path4" />
  <path
     style="color:#000000;fill:currentColor;stroke-linecap:round;stroke-linejoin:round;-inkscape-stroke:none"
     d="m 18.470703,11.25 a 0.75,0.75 0 0 0 -0.517578,0.246094 l -0.0098,0.01172 a 0.75,0.75 0 0 0 0.05469,1.058593 0.75,0.75 0 0 0 1.058594,-0.05469 L 19.066406,12.5 A 0.75,0.75 0 0 0 19.011719,11.441406 0.75,0.75 0 0 0 18.470703,11.25 Z"
     id="path6" />
  <path
     style="color:#000000;fill:currentColor;stroke-linecap:round;stroke-linejoin:round;-inkscape-stroke:none"
     d="M 5.4707031,11.25 A 0.75,0.75 0 0 0 4.953125,11.496094 l -0.00977,0.01172 a 0.75,0.75 0 0 0 0.054687,1.058593 0.75,0.75 0 0 0 1.0585937,-0.05469 L 6.0664062,12.5 A 0.75,0.75 0 0 0 6.0117187,11.441406 0.75,0.75 0 0 0 5.4707031,11.25 Z"
     id="path8" />
</svg>
