<?xml version="1.0" encoding="UTF-8" standalone="no"?>
<svg
   width="24"
   height="24"
   viewBox="0 0 24 24"
   stroke-width="1.5"
   fill="none"
   version="1.1"
   id="svg10"
   sodipodi:docname="cellar.svg"
   inkscape:version="1.2.1 (9c6d41e410, 2022-07-14)"
   xmlns:inkscape="http://www.inkscape.org/namespaces/inkscape"
   xmlns:sodipodi="http://sodipodi.sourceforge.net/DTD/sodipodi-0.dtd"
   xmlns="http://www.w3.org/2000/svg"
   xmlns:svg="http://www.w3.org/2000/svg">
  <defs
     id="defs14" />
  <sodipodi:namedview
     id="namedview12"
     pagecolor="#ffffff"
     bordercolor="#666666"
     borderopacity="1.0"
     inkscape:showpageshadow="2"
     inkscape:pageopacity="0.0"
     inkscape:pagecheckerboard="0"
     inkscape:deskcolor="#d1d1d1"
     showgrid="false"
     inkscape:zoom="34.541667"
     inkscape:cx="10.364294"
     inkscape:cy="12.014475"
     inkscape:window-width="1920"
     inkscape:window-height="1009"
     inkscape:window-x="1912"
     inkscape:window-y="-8"
     inkscape:window-maximized="1"
     inkscape:current-layer="svg10" />
  <path
     style="color:#000000;fill:currentColor;stroke-linecap:round;stroke-linejoin:round;-inkscape-stroke:none"
     d="M 12,2.25 C 9.4144288,2.25 6.9337449,3.2771926 5.1054687,5.1054687 3.2771926,6.9337449 2.25,9.4144288 2.25,12 v 9 A 0.750075,0.750075 0 0 0 3,21.75 H 21 A 0.750075,0.750075 0 0 0 21.75,21 V 12 C 21.75,9.4144309 20.722775,6.9337454 18.894531,5.1054687 17.06619,3.2772034 14.585525,2.25 12,2.25 Z m 0,1.5 c 2.18827,0 4.286529,0.8686244 5.833984,2.4160156 C 19.381337,7.7133956 20.25,9.8116739 20.25,12 v 8.25 H 3.75 V 12 C 3.75,9.811676 4.6186351,7.7133961 6.1660156,6.1660156 7.7133961,4.6186351 9.811676,3.75 12,3.75 Z"
     id="path2" />
  <path
     style="color:#000000;fill:currentColor;stroke-linecap:round;stroke-linejoin:round;-inkscape-stroke:none"
     d="M 3,16.25 A 0.75,0.75 0 0 0 2.25,17 0.75,0.75 0 0 0 3,17.75 H 21 A 0.75,0.75 0 0 0 21.75,17 0.75,0.75 0 0 0 21,16.25 Z"
     id="path4" />
  <path
     style="color:#000000;fill:currentColor;stroke-linecap:round;stroke-linejoin:round;-inkscape-stroke:none"
     d="M 9,12.25 A 0.750075,0.750075 0 0 0 8.25,13 v 4 A 0.75,0.75 0 0 0 9,17.75 0.75,0.75 0 0 0 9.75,17 V 13.75 H 21 A 0.75,0.75 0 0 0 21.75,13 0.75,0.75 0 0 0 21,12.25 Z"
     id="path6" />
  <path
     style="color:#000000;fill:currentColor;stroke-linecap:round;stroke-linejoin:round;-inkscape-stroke:none"
     d="M 13,8.25 A 0.750075,0.750075 0 0 0 12.25,9 v 4 A 0.75,0.75 0 0 0 13,13.75 0.75,0.75 0 0 0 13.75,13 V 9.75 H 20 A 0.75,0.75 0 0 0 20.75,9 0.75,0.75 0 0 0 20,8.25 Z"
     id="path8" />
</svg>
