<?xml version="1.0" encoding="UTF-8" standalone="no"?>
<svg
   width="24"
   height="24"
   viewBox="0 0 24 24"
   stroke-width="1.5"
   fill="none"
   version="1.1"
   id="svg2"
   sodipodi:docname="check-square.svg"
   inkscape:version="1.3.2 (091e20e, 2023-11-25, custom)"
   xmlns:inkscape="http://www.inkscape.org/namespaces/inkscape"
   xmlns:sodipodi="http://sodipodi.sourceforge.net/DTD/sodipodi-0.dtd"
   xmlns="http://www.w3.org/2000/svg"
   xmlns:svg="http://www.w3.org/2000/svg">
  <defs
     id="defs2" />
  <sodipodi:namedview
     id="namedview2"
     pagecolor="#ffffff"
     bordercolor="#666666"
     borderopacity="1.0"
     inkscape:showpageshadow="2"
     inkscape:pageopacity="0.0"
     inkscape:pagecheckerboard="0"
     inkscape:deskcolor="#d1d1d1"
     inkscape:zoom="30.708333"
     inkscape:cx="12"
     inkscape:cy="12"
     inkscape:window-width="1920"
     inkscape:window-height="1009"
     inkscape:window-x="-8"
     inkscape:window-y="-8"
     inkscape:window-maximized="1"
     inkscape:current-layer="svg2" />
  <path
     style="color:#000000;fill:currentColor;-inkscape-stroke:none"
     d="M 3.5996094,2.25 C 2.8629077,2.25 2.25,2.8629077 2.25,3.5996094 V 20.400391 C 2.25,21.137086 2.862953,21.75 3.5996094,21.75 H 20.400391 C 21.13704,21.75 21.75,21.13704 21.75,20.400391 V 3.5996094 C 21.75,2.862953 21.137086,2.25 20.400391,2.25 Z M 3.75,3.75 h 16.5 v 16.5 H 3.75 Z"
     id="path1" />
  <path
     style="color:#000000;fill:currentColor;stroke-linecap:round;stroke-linejoin:round;-inkscape-stroke:none"
     d="M 17,7.75 A 0.75,0.75 0 0 0 16.46875,7.96875 L 10,14.4375 7.53125,11.96875 a 0.75,0.75 0 0 0 -1.0625,0 0.75,0.75 0 0 0 0,1.0625 l 3,3 a 0.750075,0.750075 0 0 0 1.0625,0 l 7,-7 a 0.75,0.75 0 0 0 0,-1.0625 A 0.75,0.75 0 0 0 17,7.75 Z"
     id="path2" />
</svg>
