<?xml version="1.0" encoding="UTF-8" standalone="no"?>
<svg
   width="24"
   height="24"
   stroke-width="1.5"
   viewBox="0 0 24 24"
   fill="none"
   version="1.1"
   id="svg10"
   sodipodi:docname="chocolate.svg"
   inkscape:version="1.2.1 (9c6d41e410, 2022-07-14)"
   xmlns:inkscape="http://www.inkscape.org/namespaces/inkscape"
   xmlns:sodipodi="http://sodipodi.sourceforge.net/DTD/sodipodi-0.dtd"
   xmlns="http://www.w3.org/2000/svg"
   xmlns:svg="http://www.w3.org/2000/svg">
  <defs
     id="defs14" />
  <sodipodi:namedview
     id="namedview12"
     pagecolor="#ffffff"
     bordercolor="#666666"
     borderopacity="1.0"
     inkscape:showpageshadow="2"
     inkscape:pageopacity="0.0"
     inkscape:pagecheckerboard="0"
     inkscape:deskcolor="#d1d1d1"
     showgrid="false"
     inkscape:zoom="34.541667"
     inkscape:cx="10.364294"
     inkscape:cy="12.014475"
     inkscape:window-width="1920"
     inkscape:window-height="1009"
     inkscape:window-x="1912"
     inkscape:window-y="-8"
     inkscape:window-maximized="1"
     inkscape:current-layer="svg10" />
  <path
     style="color:#000000;fill:currentColor;stroke-linecap:round;stroke-linejoin:round;-inkscape-stroke:none"
     d="M 5,2.25 A 0.750075,0.750075 0 0 0 4.25,3 V 21 A 0.750075,0.750075 0 0 0 5,21.75 H 19 A 0.750075,0.750075 0 0 0 19.75,21 V 6.5 A 0.750075,0.750075 0 0 0 19,5.75 C 17.541668,5.75 16.551001,5.58999 16.041016,5.25 15.531031,4.91001 15.25,4.3749986 15.25,3 A 0.750075,0.750075 0 0 0 14.5,2.25 Z m 0.75,1.5 h 8.126953 c 0.13835,1.2126084 0.517857,2.2072171 1.332031,2.75 0.813345,0.5422295 1.856904,0.6639483 3.041016,0.703125 V 20.25 H 5.75 Z"
     id="path2" />
  <path
     style="color:#000000;fill:currentColor;stroke-linecap:round;stroke-linejoin:round;-inkscape-stroke:none"
     d="M 5,14.25 A 0.75,0.75 0 0 0 4.25,15 0.75,0.75 0 0 0 5,15.75 H 19 A 0.75,0.75 0 0 0 19.75,15 0.75,0.75 0 0 0 19,14.25 Z"
     id="path4" />
  <path
     style="color:#000000;fill:currentColor;stroke-linecap:round;stroke-linejoin:round;-inkscape-stroke:none"
     d="M 5,8.25 A 0.75,0.75 0 0 0 4.25,9 0.75,0.75 0 0 0 5,9.75 H 19 A 0.75,0.75 0 0 0 19.75,9 0.75,0.75 0 0 0 19,8.25 Z"
     id="path6" />
  <path
     style="color:#000000;fill:currentColor;stroke-linecap:round;stroke-linejoin:round;-inkscape-stroke:none"
     d="M 12,2.25 A 0.75,0.75 0 0 0 11.25,3 V 21 A 0.75,0.75 0 0 0 12,21.75 0.75,0.75 0 0 0 12.75,21 V 3 A 0.75,0.75 0 0 0 12,2.25 Z"
     id="path8" />
</svg>
