<?xml version="1.0" encoding="UTF-8" standalone="no"?>
<svg
   width="24"
   height="24"
   stroke-width="1.5"
   viewBox="0 0 24 24"
   fill="none"
   version="1.1"
   id="svg10"
   sodipodi:docname="chromecast.svg"
   inkscape:version="1.2.1 (9c6d41e410, 2022-07-14)"
   xmlns:inkscape="http://www.inkscape.org/namespaces/inkscape"
   xmlns:sodipodi="http://sodipodi.sourceforge.net/DTD/sodipodi-0.dtd"
   xmlns="http://www.w3.org/2000/svg"
   xmlns:svg="http://www.w3.org/2000/svg">
  <defs
     id="defs14" />
  <sodipodi:namedview
     id="namedview12"
     pagecolor="#ffffff"
     bordercolor="#666666"
     borderopacity="1.0"
     inkscape:showpageshadow="2"
     inkscape:pageopacity="0.0"
     inkscape:pagecheckerboard="0"
     inkscape:deskcolor="#d1d1d1"
     showgrid="false"
     inkscape:zoom="34.541667"
     inkscape:cx="10.364294"
     inkscape:cy="12.014475"
     inkscape:window-width="1920"
     inkscape:window-height="1009"
     inkscape:window-x="1912"
     inkscape:window-y="-8"
     inkscape:window-maximized="1"
     inkscape:current-layer="svg10" />
  <path
     style="color:#000000;fill:currentColor;stroke-linecap:round;stroke-linejoin:round;-inkscape-stroke:none"
     d="M 1.9707031,19.25 A 0.75,0.75 0 0 0 1.453125,19.496094 l -0.00977,0.01172 a 0.75,0.75 0 0 0 0.054687,1.058594 0.75,0.75 0 0 0 1.0585937,-0.05469 L 2.5664063,20.5 A 0.75,0.75 0 0 0 2.5117188,19.441406 0.75,0.75 0 0 0 1.9707031,19.25 Z"
     id="path2" />
  <path
     style="color:#000000;fill:currentColor;stroke-linecap:round;stroke-linejoin:round;-inkscape-stroke:none"
     d="M 4,3.25 C 2.4901018,3.25 1.25,4.4901018 1.25,6 V 7 A 0.75,0.75 0 0 0 2,7.75 0.75,0.75 0 0 0 2.75,7 V 6 C 2.75,5.3007604 3.3007604,4.75 4,4.75 h 16 c 0.699281,0 1.25,0.5507468 1.25,1.25 v 12 c 0,0.699294 -0.550706,1.25 -1.25,1.25 H 15 A 0.75,0.75 0 0 0 14.25,20 0.75,0.75 0 0 0 15,20.75 h 5 c 1.509904,0 2.75,-1.240096 2.75,-2.75 V 6 C 22.75,4.4901154 21.509917,3.25 20,3.25 Z"
     id="path4" />
  <path
     style="color:#000000;fill:currentColor;stroke-linecap:round;stroke-linejoin:round;-inkscape-stroke:none"
     d="m 2.1816406,15.271484 a 0.75,0.75 0 0 0 -0.9101562,0.546875 0.75,0.75 0 0 0 0.546875,0.910157 c 1.7431958,0.435799 3.017326,1.709929 3.453125,3.453125 a 0.75,0.75 0 0 0 0.9101562,0.546875 0.75,0.75 0 0 0 0.546875,-0.910157 c -0.5642,-2.2568 -2.2900748,-3.982675 -4.546875,-4.546875 z"
     id="path6" />
  <path
     style="color:#000000;fill:currentColor;stroke-linecap:round;stroke-linejoin:round;-inkscape-stroke:none"
     d="M 2.09375,11.255859 A 0.75,0.75 0 0 0 1.2558594,11.90625 0.75,0.75 0 0 0 1.90625,12.744141 c 3.6259839,0.453248 6.8963614,3.723625 7.3496094,7.349609 A 0.75,0.75 0 0 0 10.09375,20.744141 0.75,0.75 0 0 0 10.744141,19.90625 C 10.19739,15.532242 6.4677581,11.80261 2.09375,11.255859 Z"
     id="path8" />
</svg>
