<?xml version="1.0" encoding="UTF-8" standalone="no"?>
<svg
   width="24"
   height="24"
   stroke-width="1.5"
   viewBox="0 0 24 24"
   fill="none"
   version="1.1"
   id="svg14"
   sodipodi:docname="church.svg"
   inkscape:version="1.2.1 (9c6d41e410, 2022-07-14)"
   xmlns:inkscape="http://www.inkscape.org/namespaces/inkscape"
   xmlns:sodipodi="http://sodipodi.sourceforge.net/DTD/sodipodi-0.dtd"
   xmlns="http://www.w3.org/2000/svg"
   xmlns:svg="http://www.w3.org/2000/svg">
  <defs
     id="defs18" />
  <sodipodi:namedview
     id="namedview16"
     pagecolor="#ffffff"
     bordercolor="#666666"
     borderopacity="1.0"
     inkscape:showpageshadow="2"
     inkscape:pageopacity="0.0"
     inkscape:pagecheckerboard="0"
     inkscape:deskcolor="#d1d1d1"
     showgrid="false"
     inkscape:zoom="34.541667"
     inkscape:cx="10.364294"
     inkscape:cy="12.014475"
     inkscape:window-width="1920"
     inkscape:window-height="1009"
     inkscape:window-x="1912"
     inkscape:window-y="-8"
     inkscape:window-maximized="1"
     inkscape:current-layer="svg14" />
  <path
     style="color:#000000;fill:currentColor;stroke-linecap:round;stroke-linejoin:round;-inkscape-stroke:none"
     d="M 12,1.25 A 0.75,0.75 0 0 0 11.25,2 V 3.25 H 10 A 0.75,0.75 0 0 0 9.25,4 0.75,0.75 0 0 0 10,4.75 h 1.25 V 5.5839844 L 3.8847656,10.1875 C 3.4910334,10.433709 3.25,10.867567 3.25,11.332031 v 10.06836 C 3.25,22.137086 3.862953,22.75 4.5996094,22.75 H 12 19.400391 C 20.13704,22.75 20.75,22.13704 20.75,21.400391 v -10.06836 c 0,-0.464536 -0.24111,-0.898328 -0.634766,-1.144531 L 12.75,5.5839844 V 4.75 H 14 A 0.75,0.75 0 0 0 14.75,4 0.75,0.75 0 0 0 14,3.25 H 12.75 V 2 A 0.75,0.75 0 0 0 12,1.25 Z m 0,5.6347656 7.25,4.5312504 V 21.25 h -6.5 V 17 A 0.75,0.75 0 0 0 12,16.25 0.75,0.75 0 0 0 11.25,17 v 4.25 h -6.5 v -9.833984 z"
     id="path2" />
  <path
     style="color:#000000;fill:currentColor;stroke-linecap:round;stroke-linejoin:round;-inkscape-stroke:none"
     d="m 16.511719,16.441406 a 0.75,0.75 0 0 0 -1.058594,0.05469 l -0.0098,0.01172 a 0.75,0.75 0 0 0 0.05469,1.058594 0.75,0.75 0 0 0 1.058594,-0.05469 L 16.566406,17.5 a 0.75,0.75 0 0 0 -0.05469,-1.058594 z"
     id="path4" />
  <path
     style="color:#000000;fill:currentColor;stroke-linecap:round;stroke-linejoin:round;-inkscape-stroke:none"
     d="m 16.511719,12.441406 a 0.75,0.75 0 0 0 -1.058594,0.05469 l -0.0098,0.01172 a 0.75,0.75 0 0 0 0.05469,1.058593 0.75,0.75 0 0 0 1.058594,-0.05469 L 16.566406,13.5 a 0.75,0.75 0 0 0 -0.05469,-1.058594 z"
     id="path6" />
  <path
     style="color:#000000;fill:currentColor;stroke-linecap:round;stroke-linejoin:round;-inkscape-stroke:none"
     d="m 11.970703,12.25 a 0.75,0.75 0 0 0 -0.517578,0.246094 l -0.0098,0.01172 a 0.75,0.75 0 0 0 0.05469,1.058593 0.75,0.75 0 0 0 1.058594,-0.05469 L 12.566406,13.5 A 0.75,0.75 0 0 0 12.511719,12.441406 0.75,0.75 0 0 0 11.970703,12.25 Z"
     id="path8" />
  <path
     style="color:#000000;fill:currentColor;stroke-linecap:round;stroke-linejoin:round;-inkscape-stroke:none"
     d="M 7.9707031,12.25 A 0.75,0.75 0 0 0 7.453125,12.496094 l -0.00977,0.01172 a 0.75,0.75 0 0 0 0.054687,1.058593 0.75,0.75 0 0 0 1.0585937,-0.05469 L 8.5664063,13.5 A 0.75,0.75 0 0 0 8.5117188,12.441406 0.75,0.75 0 0 0 7.9707031,12.25 Z"
     id="path10" />
  <path
     style="color:#000000;fill:currentColor;stroke-linecap:round;stroke-linejoin:round;-inkscape-stroke:none"
     d="M 7.9707031,16.25 A 0.75,0.75 0 0 0 7.453125,16.496094 l -0.00977,0.01172 a 0.75,0.75 0 0 0 0.054687,1.058594 0.75,0.75 0 0 0 1.0585937,-0.05469 L 8.5664063,17.5 A 0.75,0.75 0 0 0 8.5117188,16.441406 0.75,0.75 0 0 0 7.9707031,16.25 Z"
     id="path12" />
</svg>
