<?xml version="1.0" encoding="UTF-8" standalone="no"?>
<svg
   width="24"
   height="24"
   stroke-width="1.5"
   viewBox="0 0 24 24"
   fill="none"
   version="1.1"
   id="svg14"
   sodipodi:docname="cigarette-slash.svg"
   inkscape:version="1.2.1 (9c6d41e410, 2022-07-14)"
   xmlns:inkscape="http://www.inkscape.org/namespaces/inkscape"
   xmlns:sodipodi="http://sodipodi.sourceforge.net/DTD/sodipodi-0.dtd"
   xmlns="http://www.w3.org/2000/svg"
   xmlns:svg="http://www.w3.org/2000/svg">
  <defs
     id="defs18" />
  <sodipodi:namedview
     id="namedview16"
     pagecolor="#ffffff"
     bordercolor="#666666"
     borderopacity="1.0"
     inkscape:showpageshadow="2"
     inkscape:pageopacity="0.0"
     inkscape:pagecheckerboard="0"
     inkscape:deskcolor="#d1d1d1"
     showgrid="false"
     inkscape:zoom="34.541667"
     inkscape:cx="10.364294"
     inkscape:cy="12.014475"
     inkscape:window-width="1920"
     inkscape:window-height="1009"
     inkscape:window-x="1912"
     inkscape:window-y="-8"
     inkscape:window-maximized="1"
     inkscape:current-layer="svg14" />
  <path
     style="color:#000000;fill:currentColor;stroke-linecap:round;stroke-linejoin:round;-inkscape-stroke:none"
     d="M 18,14.25 A 0.75,0.75 0 0 0 17.25,15 v 3 A 0.75,0.75 0 0 0 18,18.75 0.75,0.75 0 0 0 18.75,18 V 15 A 0.75,0.75 0 0 0 18,14.25 Z"
     id="path2" />
  <path
     style="color:#000000;fill:currentColor;stroke-linecap:round;stroke-linejoin:round;-inkscape-stroke:none"
     d="M 11,1.25 A 0.75,0.75 0 0 0 10.25,2 v 4 c 0,2.0622558 1.687857,3.75 3.75,3.75 h 1 c 0.874999,0 1.460782,0.2196096 1.800781,0.474609 C 17.140781,10.479609 17.25,10.75 17.25,11 A 0.75,0.75 0 0 0 18,11.75 0.75,0.75 0 0 0 18.75,11 C 18.75,10.250001 18.359218,9.5203901 17.699219,9.0253906 17.039219,8.5303911 16.124999,8.25 15,8.25 H 14 C 12.748546,8.25 11.75,7.2514409 11.75,6 V 2 A 0.75,0.75 0 0 0 11,1.25 Z"
     id="path4" />
  <path
     style="color:#000000;fill:currentColor;stroke-linecap:round;stroke-linejoin:round;-inkscape-stroke:none"
     d="M 22,1.25 A 0.75,0.75 0 0 0 21.25,2 c 0,0.8749991 -0.207829,1.371115 -0.460938,1.6875 -0.253108,0.316385 -0.584837,0.4875181 -0.970703,0.5839844 -0.77173,0.1929326 -1.636718,0 -1.636718,0 v 0.00586 C 18.149387,4.2757718 18,4.25 18,4.25 a 0.750075,0.750075 0 0 0 -0.181641,1.4785156 c 0,0 0.170377,-0.00327 0.183594,0 L 18,5.75 c 0,0 0.742782,-0.00639 1.550781,0.5996094 C 20.35878,6.9556088 21.25,8.1666695 21.25,11 A 0.75,0.75 0 0 0 22,11.75 0.75,0.75 0 0 0 22.75,11 C 22.75,8.046556 21.760921,6.3779812 20.664062,5.4296875 21.120901,5.242419 21.598723,5.0777686 21.960937,4.625 22.457829,4.003886 22.75,3.1249989 22.75,2 A 0.75,0.75 0 0 0 22,1.25 Z"
     id="path6" />
  <path
     style="color:#000000;fill:currentColor;stroke-linecap:round;stroke-linejoin:round;-inkscape-stroke:none"
     d="M 22,14.25 A 0.75,0.75 0 0 0 21.25,15 v 3 A 0.75,0.75 0 0 0 22,18.75 0.75,0.75 0 0 0 22.75,18 V 15 A 0.75,0.75 0 0 0 22,14.25 Z"
     id="path8" />
  <path
     style="color:#000000;fill:currentColor;-inkscape-stroke:none"
     d="M 2.5996094,14.25 C 1.862953,14.25 1.25,14.862914 1.25,15.599609 v 1.800782 C 1.25,18.137086 1.862953,18.75 2.5996094,18.75 H 19.810547 l -4.5,-4.5 z M 2.75,15.75 h 11.939453 l 1.498047,1.5 H 2.75 Z"
     id="path10" />
  <path
     style="color:#000000;fill:currentColor;stroke-linecap:round;stroke-linejoin:round;-inkscape-stroke:none"
     d="m 3,2.25 a 0.75,0.75 0 0 0 -0.53125,0.21875 0.75,0.75 0 0 0 0,1.0625 l 18,18 a 0.75,0.75 0 0 0 1.0625,0 0.75,0.75 0 0 0 0,-1.0625 l -18,-18 A 0.75,0.75 0 0 0 3,2.25 Z"
     id="path12" />
</svg>
