<?xml version="1.0" encoding="UTF-8" standalone="no"?>
<svg
   width="24"
   height="24"
   viewBox="0 0 24 24"
   stroke-width="1.5"
   fill="none"
   version="1.1"
   id="svg6"
   sodipodi:docname="circle-spark.svg"
   inkscape:version="1.2.1 (9c6d41e410, 2022-07-14)"
   xmlns:inkscape="http://www.inkscape.org/namespaces/inkscape"
   xmlns:sodipodi="http://sodipodi.sourceforge.net/DTD/sodipodi-0.dtd"
   xmlns="http://www.w3.org/2000/svg"
   xmlns:svg="http://www.w3.org/2000/svg">
  <defs
     id="defs10" />
  <sodipodi:namedview
     id="namedview8"
     pagecolor="#ffffff"
     bordercolor="#666666"
     borderopacity="1.0"
     inkscape:showpageshadow="2"
     inkscape:pageopacity="0.0"
     inkscape:pagecheckerboard="0"
     inkscape:deskcolor="#d1d1d1"
     showgrid="false"
     inkscape:zoom="34.541667"
     inkscape:cx="10.364294"
     inkscape:cy="12.014475"
     inkscape:window-width="1920"
     inkscape:window-height="1009"
     inkscape:window-x="1912"
     inkscape:window-y="-8"
     inkscape:window-maximized="1"
     inkscape:current-layer="svg6" />
  <path
     style="color:#000000;fill:currentColor;stroke-linecap:round;stroke-linejoin:round;-inkscape-stroke:none"
     d="M 12,1.25 C 6.0718263,1.25 1.25,6.0718263 1.25,12 1.25,17.928127 6.0718217,22.75 12,22.75 17.928132,22.75 22.75,17.928132 22.75,12 A 0.75,0.75 0 0 0 22,11.25 0.75,0.75 0 0 0 21.25,12 c 0,5.117457 -4.132543,9.25 -9.25,9.25 C 6.8824893,21.25 2.75,17.117462 2.75,12 2.75,6.8824848 6.8824848,2.75 12,2.75 A 0.75,0.75 0 0 0 12.75,2 0.75,0.75 0 0 0 12,1.25 Z"
     id="path2" />
  <path
     style="color:#000000;fill:currentColor;stroke-linejoin:round;-inkscape-stroke:none"
     d="M 17.5,1.2597656 A 0.750075,0.750075 0 0 0 16.75,2 c 0,1.4834095 -0.312111,2.3731571 -0.853516,2.9101562 C 15.35508,5.4471554 14.461717,5.75 13,5.75 a 0.750075,0.750075 0 0 0 0,1.5 c 1.458668,0 2.350723,0.3086361 2.894531,0.8515625 C 16.438339,8.6444889 16.75,9.5370058 16.75,11 a 0.750075,0.750075 0 0 0 1.5,0 c 0,-1.4637498 0.309229,-2.3561047 0.851562,-2.8984375 C 19.643896,7.5592297 20.536255,7.25 22,7.25 A 0.750075,0.750075 0 0 0 22.640625,6.1289062 0.750075,0.750075 0 0 0 22,5.75 C 20.533215,5.75 19.639537,5.4465592 19.099609,4.9101562 18.559682,4.3737533 18.25,3.484156 18.25,2 A 0.750075,0.750075 0 0 0 17.5,1.2597656 Z m -0.002,3.7871094 c 0.173545,0.3153598 0.291926,0.6763896 0.544922,0.9277344 0.249116,0.2474902 0.604331,0.3593883 0.914062,0.5292968 -0.310596,0.1720266 -0.66685,0.2879449 -0.916015,0.5371094 C 17.788783,7.2932478 17.671276,7.6535928 17.498047,7.96875 17.324401,7.6538228 17.20743,7.2929586 16.955078,7.0410156 16.705274,6.7916163 16.348284,6.6760211 16.037109,6.5039062 16.347105,6.3339946 16.703583,6.2221212 16.953125,5.9746094 17.206457,5.723339 17.324,5.3623278 17.498047,5.046875 Z"
     id="path4" />
</svg>
