<?xml version="1.0" encoding="UTF-8" standalone="no"?>
<svg
   width="24"
   height="24"
   stroke-width="1.5"
   viewBox="0 0 24 24"
   fill="none"
   version="1.1"
   id="svg16"
   sodipodi:docname="city.svg"
   inkscape:version="1.2.1 (9c6d41e410, 2022-07-14)"
   xmlns:inkscape="http://www.inkscape.org/namespaces/inkscape"
   xmlns:sodipodi="http://sodipodi.sourceforge.net/DTD/sodipodi-0.dtd"
   xmlns="http://www.w3.org/2000/svg"
   xmlns:svg="http://www.w3.org/2000/svg">
  <defs
     id="defs20" />
  <sodipodi:namedview
     id="namedview18"
     pagecolor="#ffffff"
     bordercolor="#666666"
     borderopacity="1.0"
     inkscape:showpageshadow="2"
     inkscape:pageopacity="0.0"
     inkscape:pagecheckerboard="0"
     inkscape:deskcolor="#d1d1d1"
     showgrid="false"
     inkscape:zoom="34.541667"
     inkscape:cx="10.364294"
     inkscape:cy="12.014475"
     inkscape:window-width="1920"
     inkscape:window-height="1009"
     inkscape:window-x="1912"
     inkscape:window-y="-8"
     inkscape:window-maximized="1"
     inkscape:current-layer="svg16" />
  <path
     style="color:#000000;fill:currentColor;stroke-linecap:round;stroke-linejoin:round;-inkscape-stroke:none"
     d="M 6.9707031,8.25 A 0.75,0.75 0 0 0 6.453125,8.4980469 l -0.00977,0.00977 a 0.75,0.75 0 0 0 0.054687,1.0605469 0.75,0.75 0 0 0 1.0585937,-0.056641 L 7.5683594,9.5 A 0.75,0.75 0 0 0 7.5117187,8.4414063 0.75,0.75 0 0 0 6.9707031,8.25 Z"
     id="path2" />
  <path
     style="color:#000000;fill:currentColor;stroke-linecap:round;stroke-linejoin:round;-inkscape-stroke:none"
     d="m 11.511719,8.4414063 a 0.75,0.75 0 0 0 -1.058594,0.056641 l -0.0098,0.00977 a 0.75,0.75 0 0 0 0.05469,1.0605469 0.75,0.75 0 0 0 1.058594,-0.056641 L 11.568359,9.5 a 0.75,0.75 0 0 0 -0.05664,-1.0585937 z"
     id="path4" />
  <path
     style="color:#000000;fill:currentColor;stroke-linecap:round;stroke-linejoin:round;-inkscape-stroke:none"
     d="M 6.9707031,12.25 A 0.75,0.75 0 0 0 6.453125,12.496094 l -0.00977,0.01172 a 0.75,0.75 0 0 0 0.054687,1.058593 0.75,0.75 0 0 0 1.0585937,-0.05469 L 7.5664062,13.5 A 0.75,0.75 0 0 0 7.5117187,12.441406 0.75,0.75 0 0 0 6.9707031,12.25 Z"
     id="path6" />
  <path
     style="color:#000000;fill:currentColor;stroke-linecap:round;stroke-linejoin:round;-inkscape-stroke:none"
     d="m 10.970703,12.25 a 0.75,0.75 0 0 0 -0.517578,0.246094 l -0.0098,0.01172 a 0.75,0.75 0 0 0 0.05469,1.058593 0.75,0.75 0 0 0 1.058594,-0.05469 L 11.566406,13.5 A 0.75,0.75 0 0 0 11.511719,12.441406 0.75,0.75 0 0 0 10.970703,12.25 Z"
     id="path8" />
  <path
     style="color:#000000;fill:currentColor;stroke-linecap:round;stroke-linejoin:round;-inkscape-stroke:none"
     d="M 6.9707031,16.25 A 0.75,0.75 0 0 0 6.453125,16.496094 l -0.00977,0.01172 a 0.75,0.75 0 0 0 0.054687,1.058594 0.75,0.75 0 0 0 1.0585937,-0.05469 L 7.5664062,17.5 A 0.75,0.75 0 0 0 7.5117187,16.441406 0.75,0.75 0 0 0 6.9707031,16.25 Z"
     id="path10" />
  <path
     style="color:#000000;fill:currentColor;stroke-linecap:round;stroke-linejoin:round;-inkscape-stroke:none"
     d="m 10.970703,16.25 a 0.75,0.75 0 0 0 -0.517578,0.246094 l -0.0098,0.01172 a 0.75,0.75 0 0 0 0.05469,1.058594 0.75,0.75 0 0 0 1.058594,-0.05469 L 11.566406,17.5 A 0.75,0.75 0 0 0 11.511719,16.441406 0.75,0.75 0 0 0 10.970703,16.25 Z"
     id="path12" />
  <path
     style="color:#000000;fill:currentColor;stroke-linecap:round;stroke-linejoin:round;-inkscape-stroke:none"
     d="M 9.5996094,2.25 C 8.8629077,2.25 8.25,2.8629077 8.25,3.5996094 V 4.25 H 3.5996094 C 2.8629077,4.25 2.25,4.8629077 2.25,5.5996094 V 20.400391 C 2.25,21.137086 2.862953,21.75 3.5996094,21.75 H 15 20.400391 C 21.13704,21.75 21.75,21.13704 21.75,20.400391 V 9.5996094 C 21.75,8.862953 21.137086,8.25 20.400391,8.25 H 15.75 V 3.5996094 C 15.75,2.862953 15.137086,2.25 14.400391,2.25 Z M 9.75,3.75 h 4.5 V 9 v 4 4 3.25 H 3.75 V 5.75 H 9 A 0.750075,0.750075 0 0 0 9.75,5 Z m 6,6 h 4.5 v 10.5 h -4.5 v -2.5 H 17 A 0.75,0.75 0 0 0 17.75,17 0.75,0.75 0 0 0 17,16.25 h -1.25 v -2.5 H 17 A 0.75,0.75 0 0 0 17.75,13 0.75,0.75 0 0 0 17,12.25 h -1.25 z"
     id="path14" />
</svg>
