<?xml version="1.0" encoding="UTF-8" standalone="no"?>
<svg
   width="24"
   height="24"
   viewBox="0 0 24 24"
   stroke-width="1.5"
   fill="none"
   version="1.1"
   id="svg10"
   sodipodi:docname="clipboard-check.svg"
   inkscape:version="1.2.1 (9c6d41e410, 2022-07-14)"
   xmlns:inkscape="http://www.inkscape.org/namespaces/inkscape"
   xmlns:sodipodi="http://sodipodi.sourceforge.net/DTD/sodipodi-0.dtd"
   xmlns="http://www.w3.org/2000/svg"
   xmlns:svg="http://www.w3.org/2000/svg">
  <defs
     id="defs14" />
  <sodipodi:namedview
     id="namedview12"
     pagecolor="#ffffff"
     bordercolor="#666666"
     borderopacity="1.0"
     inkscape:showpageshadow="2"
     inkscape:pageopacity="0.0"
     inkscape:pagecheckerboard="0"
     inkscape:deskcolor="#d1d1d1"
     showgrid="false"
     inkscape:zoom="34.541667"
     inkscape:cx="10.364294"
     inkscape:cy="12.014475"
     inkscape:window-width="1920"
     inkscape:window-height="1009"
     inkscape:window-x="1912"
     inkscape:window-y="-8"
     inkscape:window-maximized="1"
     inkscape:current-layer="svg10" />
  <path
     style="color:#000000;fill:currentColor;stroke-linecap:round;-inkscape-stroke:none"
     d="M 6,3.25 C 4.4901018,3.25 3.25,4.4901018 3.25,6 v 14 c 0,1.509917 1.2401154,2.75 2.75,2.75 h 6 A 0.75,0.75 0 0 0 12.75,22 0.75,0.75 0 0 0 12,21.25 H 6 C 5.3007468,21.25 4.75,20.699281 4.75,20 V 6 C 4.75,5.3007604 5.3007604,4.75 6,4.75 H 8.5 A 0.75,0.75 0 0 0 9.25,4 0.75,0.75 0 0 0 8.5,3.25 Z"
     id="path2" />
  <path
     style="color:#000000;fill:currentColor;stroke-linecap:round;-inkscape-stroke:none"
     d="M 15.5,3.25 A 0.75,0.75 0 0 0 14.75,4 0.75,0.75 0 0 0 15.5,4.75 H 18 c 0.699281,0 1.25,0.5507468 1.25,1.25 v 9 A 0.75,0.75 0 0 0 20,15.75 0.75,0.75 0 0 0 20.75,15 V 6 C 20.75,4.4901154 19.509917,3.25 18,3.25 Z"
     id="path4" />
  <path
     style="color:#000000;fill:currentColor;stroke-linecap:round;-inkscape-stroke:none"
     d="M 12,0.25 C 10.701495,0.25 9.7409462,0.77825981 9.1738281,1.4472656 8.6233822,2.096604 8.4303551,2.8128157 8.3378906,3.3183594 7.7415794,3.4099309 7.25,3.8812893 7.25,4.5 V 6.4003906 C 7.25,7.1370923 7.8629077,7.75 8.5996094,7.75 H 15.400391 C 16.137086,7.75 16.75,7.137047 16.75,6.4003906 V 4.5 C 16.75,3.8812236 16.258432,3.4099204 15.662109,3.3183594 15.569627,2.81284 15.376617,2.096601 14.826172,1.4472656 14.259055,0.77826291 13.298501,0.25 12,0.25 Z m 0,1.5 c 0.927497,0 1.368059,0.29805 1.681641,0.6679688 0.313582,0.3699187 0.467247,0.8692413 0.527343,1.2148437 0.08986,0.5168687 0.506286,0.9018596 1.041016,1.0214844 V 6.25 H 8.75 V 4.6542969 C 9.2847281,4.5346653 9.7011587,4.1496511 9.7910156,3.6328125 9.8510911,3.2872365 10.004781,2.7878844 10.318359,2.4179688 10.631938,2.0480531 11.072497,1.75 12,1.75 Z"
     id="path6" />
  <path
     style="color:#000000;fill:currentColor;stroke-linecap:round;stroke-linejoin:round;-inkscape-stroke:none"
     d="m 22.5,16.75 a 0.75,0.75 0 0 0 -0.53125,0.21875 L 17.5,21.4375 16.03125,19.96875 a 0.75,0.75 0 0 0 -1.0625,0 0.75,0.75 0 0 0 0,1.0625 l 2,2 a 0.750075,0.750075 0 0 0 1.0625,0 l 5,-5 a 0.75,0.75 0 0 0 0,-1.0625 A 0.75,0.75 0 0 0 22.5,16.75 Z"
     id="path8" />
</svg>
