<?xml version="1.0" encoding="UTF-8" standalone="no"?>
<svg
   width="24"
   height="24"
   viewBox="0 0 24 24"
   stroke-width="1.5"
   fill="none"
   version="1.1"
   id="svg8"
   sodipodi:docname="clock-rotate-right.svg"
   inkscape:version="1.2.1 (9c6d41e410, 2022-07-14)"
   xmlns:inkscape="http://www.inkscape.org/namespaces/inkscape"
   xmlns:sodipodi="http://sodipodi.sourceforge.net/DTD/sodipodi-0.dtd"
   xmlns="http://www.w3.org/2000/svg"
   xmlns:svg="http://www.w3.org/2000/svg">
  <defs
     id="defs12" />
  <sodipodi:namedview
     id="namedview10"
     pagecolor="#ffffff"
     bordercolor="#666666"
     borderopacity="1.0"
     inkscape:showpageshadow="2"
     inkscape:pageopacity="0.0"
     inkscape:pagecheckerboard="0"
     inkscape:deskcolor="#d1d1d1"
     showgrid="false"
     inkscape:zoom="34.541667"
     inkscape:cx="10.364294"
     inkscape:cy="12.014475"
     inkscape:window-width="1920"
     inkscape:window-height="1009"
     inkscape:window-x="1912"
     inkscape:window-y="-8"
     inkscape:window-maximized="1"
     inkscape:current-layer="svg8" />
  <path
     style="color:#000000;fill:currentColor;stroke-linecap:round;stroke-linejoin:round;-inkscape-stroke:none"
     d="M 12,5.25 A 0.75,0.75 0 0 0 11.25,6 v 6 A 0.750075,0.750075 0 0 0 12,12.75 h 6 A 0.75,0.75 0 0 0 18.75,12 0.75,0.75 0 0 0 18,11.25 H 12.75 V 6 A 0.75,0.75 0 0 0 12,5.25 Z"
     id="path2" />
  <path
     style="color:#000000;fill:currentColor;stroke-linecap:round;stroke-linejoin:round;-inkscape-stroke:none"
     d="M 12,1.25 C 6.0718263,1.25 1.25,6.0718263 1.25,12 c 0,5.928127 4.8218217,10.75 10.75,10.75 4.401552,0 8.195962,-2.650991 9.855469,-6.449219 A 0.75,0.75 0 0 0 21.46875,15.3125 0.75,0.75 0 0 0 20.480469,15.699219 C 19.053778,18.964584 15.79964,21.25 12,21.25 6.8824893,21.25 2.75,17.117462 2.75,12 2.75,6.8824848 6.8824848,2.75 12,2.75 c 4.645078,0 8.477058,3.4114998 9.146484,7.861328 A 0.75,0.75 0 0 0 22,11.242188 0.75,0.75 0 0 0 22.630859,10.388672 C 21.852687,5.2159899 17.380912,1.25 12,1.25 Z"
     id="path4" />
  <path
     style="color:#000000;fill:currentColor;stroke-linecap:round;stroke-linejoin:round;-inkscape-stroke:none"
     d="M 17,15.25 A 0.75,0.75 0 0 0 16.25,16 0.75,0.75 0 0 0 17,16.75 h 4.25 V 21 A 0.75,0.75 0 0 0 22,21.75 0.75,0.75 0 0 0 22.75,21 V 16.599609 C 22.75,15.86296 22.13704,15.25 21.400391,15.25 Z"
     id="path6" />
</svg>
