<?xml version="1.0" encoding="UTF-8" standalone="no"?>
<svg
   width="24"
   height="24"
   viewBox="0 0 24 24"
   stroke-width="1.5"
   fill="none"
   version="1.1"
   id="svg8"
   sodipodi:docname="closed-captions-tag.svg"
   inkscape:version="1.2.1 (9c6d41e410, 2022-07-14)"
   xmlns:inkscape="http://www.inkscape.org/namespaces/inkscape"
   xmlns:sodipodi="http://sodipodi.sourceforge.net/DTD/sodipodi-0.dtd"
   xmlns="http://www.w3.org/2000/svg"
   xmlns:svg="http://www.w3.org/2000/svg">
  <defs
     id="defs12" />
  <sodipodi:namedview
     id="namedview10"
     pagecolor="#ffffff"
     bordercolor="#666666"
     borderopacity="1.0"
     inkscape:showpageshadow="2"
     inkscape:pageopacity="0.0"
     inkscape:pagecheckerboard="0"
     inkscape:deskcolor="#d1d1d1"
     showgrid="false"
     inkscape:zoom="34.541667"
     inkscape:cx="10.364294"
     inkscape:cy="12.014475"
     inkscape:window-width="1920"
     inkscape:window-height="1009"
     inkscape:window-x="1912"
     inkscape:window-y="-8"
     inkscape:window-maximized="1"
     inkscape:current-layer="svg8" />
  <path
     style="color:#000000;fill:currentColor;-inkscape-stroke:none"
     d="M 7,2.25 C 3.280964,2.25 0.25,5.280964 0.25,9 v 6 c 0,3.719027 3.0309625,6.75 6.75,6.75 h 10 c 3.719029,0 6.75,-3.030971 6.75,-6.75 V 9 C 23.75,5.2809625 20.719027,2.25 17,2.25 Z m 0,1.5 h 10 c 2.908366,0 5.25,2.3416241 5.25,5.25 v 6 c 0,2.908365 -2.341635,5.25 -5.25,5.25 H 7 C 4.0916241,20.25 1.75,17.908366 1.75,15 V 9 C 1.75,6.0916226 4.0916226,3.75 7,3.75 Z"
     id="path2" />
  <path
     style="color:#000000;fill:currentColor;stroke-linecap:round;-inkscape-stroke:none"
     d="M 8.328125,8.25 C 6.3607072,8.25 4.75,9.8606976 4.75,11.828125 v 0.34375 c 0,1.967427 1.6107072,3.578125 3.578125,3.578125 0.9487686,0 1.860389,-0.37798 2.53125,-1.048828 L 11.03125,14.53125 a 0.75,0.75 0 0 0 0,-1.0625 0.75,0.75 0 0 0 -1.0625,0 L 9.7988281,13.640625 C 9.4088701,14.030576 8.8796349,14.25 8.328125,14.25 7.1713459,14.25 6.25,13.328644 6.25,12.171875 v -0.34375 C 6.25,10.671356 7.1713459,9.75 8.328125,9.75 c 0.5515165,0 1.0807507,0.2194005 1.4707031,0.609375 L 9.96875,10.53125 a 0.75,0.75 0 0 0 1.0625,0 0.75,0.75 0 0 0 0,-1.0625 L 10.859375,9.2988281 C 10.188509,8.6279237 9.276887,8.25 8.328125,8.25 Z"
     id="path4" />
  <path
     style="color:#000000;fill:currentColor;stroke-linecap:round;-inkscape-stroke:none"
     d="M 16.328125,8.25 C 14.360707,8.25 12.75,9.8607072 12.75,11.828125 v 0.34375 c 0,1.967418 1.610707,3.578125 3.578125,3.578125 0.948813,0 1.860403,-0.377981 2.53125,-1.048828 L 19.03125,14.53125 a 0.75,0.75 0 0 0 0,-1.0625 0.75,0.75 0 0 0 -1.0625,0 l -0.169922,0.171875 C 17.408877,14.030576 16.879711,14.25 16.328125,14.25 15.171346,14.25 14.25,13.328654 14.25,12.171875 v -0.34375 C 14.25,10.671346 15.171346,9.75 16.328125,9.75 c 0.551592,0 1.080757,0.2193997 1.470703,0.609375 l 0.169922,0.171875 a 0.75,0.75 0 0 0 1.0625,0 0.75,0.75 0 0 0 0,-1.0625 L 18.859375,9.2988281 C 18.188522,8.6279245 17.276931,8.25 16.328125,8.25 Z"
     id="path6" />
</svg>
