<?xml version="1.0" encoding="UTF-8" standalone="no"?>
<svg
   width="24"
   height="24"
   stroke-width="1.5"
   viewBox="0 0 24 24"
   fill="none"
   version="1.1"
   id="svg6"
   sodipodi:docname="cloud-xmark.svg"
   inkscape:version="1.2.1 (9c6d41e410, 2022-07-14)"
   xmlns:inkscape="http://www.inkscape.org/namespaces/inkscape"
   xmlns:sodipodi="http://sodipodi.sourceforge.net/DTD/sodipodi-0.dtd"
   xmlns="http://www.w3.org/2000/svg"
   xmlns:svg="http://www.w3.org/2000/svg">
  <defs
     id="defs10" />
  <sodipodi:namedview
     id="namedview8"
     pagecolor="#ffffff"
     bordercolor="#666666"
     borderopacity="1.0"
     inkscape:showpageshadow="2"
     inkscape:pageopacity="0.0"
     inkscape:pagecheckerboard="0"
     inkscape:deskcolor="#d1d1d1"
     showgrid="false"
     inkscape:zoom="34.541667"
     inkscape:cx="10.364294"
     inkscape:cy="12.014475"
     inkscape:window-width="1920"
     inkscape:window-height="1009"
     inkscape:window-x="1912"
     inkscape:window-y="-8"
     inkscape:window-maximized="1"
     inkscape:current-layer="svg6" />
  <path
     style="color:#000000;fill:currentColor;stroke-linecap:round;stroke-linejoin:round;-inkscape-stroke:none"
     d="m 9,15.25 a 0.75,0.75 0 0 0 -0.53125,0.21875 0.75,0.75 0 0 0 0,1.0625 L 10.939453,19 8.46875,21.46875 a 0.75,0.75 0 0 0 0,1.0625 0.75,0.75 0 0 0 1.0625,0 L 12,20.0625 l 2.46875,2.46875 a 0.75,0.75 0 0 0 1.0625,0 0.75,0.75 0 0 0 0,-1.0625 L 13.0625,19 15.53125,16.53125 a 0.75,0.75 0 0 0 0,-1.0625 0.75,0.75 0 0 0 -1.0625,0 L 12,17.9375 9.53125,15.46875 A 0.75,0.75 0 0 0 9,15.25 Z"
     id="path2" />
  <path
     style="color:#000000;fill:currentColor;stroke-linecap:round;stroke-linejoin:round;-inkscape-stroke:none"
     d="M 12,1.25 C 8.8333365,1.25 6.993611,2.3862993 6.1074219,3.8632813 5.3729074,5.0874721 5.2978272,6.3581448 5.2832031,7.3535156 4.3976047,7.4554194 3.3907258,7.7043021 2.4375,8.390625 1.2290812,9.2606869 0.25,10.791669 0.25,13 c 0,2.968989 1.7820657,4.640828 3.4765625,5.304687 A 0.75,0.75 0 0 0 4.6992187,17.880859 0.75,0.75 0 0 0 4.2734375,16.908203 C 2.9804973,16.401663 1.75,15.408805 1.75,13 1.75,11.208335 2.4375883,10.239312 3.3125,9.609375 4.1874117,8.9794384 5.3166654,8.75 6,8.75 A 0.750075,0.750075 0 0 0 6.75,8 C 6.75,7.000001 6.7787688,5.6597343 7.3925781,4.6367187 8.0063875,3.6137032 9.1666695,2.75 12,2.75 c 2.83333,0 3.993613,0.8637032 4.607422,1.8867187 C 17.221231,5.6597343 17.25,7.000001 17.25,8 A 0.750075,0.750075 0 0 0 18,8.75 c 0.683352,0 1.812593,0.2294394 2.6875,0.859375 C 21.562407,10.239311 22.25,11.208333 22.25,13 c 0,2.408802 -1.230515,3.401663 -2.523438,3.908203 a 0.75,0.75 0 0 0 -0.425781,0.972656 0.75,0.75 0 0 0 0.972656,0.423828 C 21.967912,17.640828 23.75,15.968993 23.75,13 23.75,10.791671 22.770916,9.2606879 21.5625,8.390625 20.609277,7.7043013 19.602402,7.4554194 18.716797,7.3535156 18.702173,6.3581448 18.627093,5.0874721 17.892578,3.8632813 17.006389,2.3862993 15.166664,1.25 12,1.25 Z"
     id="path4" />
</svg>
