<?xml version="1.0" encoding="UTF-8" standalone="no"?>
<svg
   width="24"
   height="24"
   stroke-width="1.5"
   viewBox="0 0 24 24"
   fill="none"
   version="1.1"
   id="svg16"
   sodipodi:docname="cloud-sunny.svg"
   inkscape:version="1.2.1 (9c6d41e410, 2022-07-14)"
   xmlns:inkscape="http://www.inkscape.org/namespaces/inkscape"
   xmlns:sodipodi="http://sodipodi.sourceforge.net/DTD/sodipodi-0.dtd"
   xmlns="http://www.w3.org/2000/svg"
   xmlns:svg="http://www.w3.org/2000/svg">
  <defs
     id="defs20" />
  <sodipodi:namedview
     id="namedview18"
     pagecolor="#ffffff"
     bordercolor="#666666"
     borderopacity="1.0"
     inkscape:showpageshadow="2"
     inkscape:pageopacity="0.0"
     inkscape:pagecheckerboard="0"
     inkscape:deskcolor="#d1d1d1"
     showgrid="false"
     inkscape:zoom="34.541667"
     inkscape:cx="10.364294"
     inkscape:cy="12.014475"
     inkscape:window-width="1920"
     inkscape:window-height="1009"
     inkscape:window-x="1912"
     inkscape:window-y="-8"
     inkscape:window-maximized="1"
     inkscape:current-layer="svg16" />
  <path
     style="color:#000000;fill:currentColor;stroke-linecap:round;stroke-linejoin:round;-inkscape-stroke:none"
     d="m 6,12.25 c -0.9833337,0 -2.3540812,0.270563 -3.5625,1.140625 C 1.2290812,14.260687 0.25,15.791669 0.25,18 c 0,2.208331 0.9790812,3.739313 2.1875,4.609375 C 3.6459188,23.479437 5.0166663,23.75 6,23.75 h 12 c 0.983346,0 2.354084,-0.270562 3.5625,-1.140625 C 22.770916,21.739312 23.75,20.208329 23.75,18 23.75,15.791671 22.770916,14.260688 21.5625,13.390625 20.354084,12.520562 18.983346,12.25 18,12.25 A 0.75,0.75 0 0 0 17.25,13 0.75,0.75 0 0 0 18,13.75 c 0.683352,0 1.812593,0.229439 2.6875,0.859375 C 21.562407,15.239311 22.25,16.208333 22.25,18 c 0,1.791667 -0.687593,2.760689 -1.5625,3.390625 C 19.812593,22.020561 18.683352,22.25 18,22.25 H 6 C 5.3166654,22.25 4.1874117,22.020562 3.3125,21.390625 2.4375883,20.760688 1.75,19.791665 1.75,18 1.75,16.208335 2.4375883,15.239312 3.3125,14.609375 4.1874117,13.979438 5.3166654,13.75 6,13.75 A 0.75,0.75 0 0 0 6.75,13 0.75,0.75 0 0 0 6,12.25 Z"
     id="path2" />
  <path
     style="color:#000000;fill:currentColor;stroke-linecap:round;stroke-linejoin:round;-inkscape-stroke:none"
     d="M 12,5.25 C 9.9377819,5.25 8.25,6.9378347 8.25,9 c 0,2.062203 1.687797,3.75 3.75,3.75 2.062203,0 3.75,-1.687797 3.75,-3.75 0,-2.0621653 -1.687782,-3.75 -3.75,-3.75 z m 0,1.5 c 1.251579,0 2.25,0.9984686 2.25,2.25 0,1.251594 -0.998406,2.25 -2.25,2.25 C 10.748406,11.25 9.75,10.251594 9.75,9 9.75,7.7484686 10.748421,6.75 12,6.75 Z"
     id="path4" />
  <path
     style="color:#000000;fill:currentColor;stroke-linecap:round;stroke-linejoin:round;-inkscape-stroke:none"
     d="M 19,8.25 A 0.75,0.75 0 0 0 18.25,9 0.75,0.75 0 0 0 19,9.75 h 1 A 0.75,0.75 0 0 0 20.75,9 0.75,0.75 0 0 0 20,8.25 Z"
     id="path6" />
  <path
     style="color:#000000;fill:currentColor;stroke-linecap:round;stroke-linejoin:round;-inkscape-stroke:none"
     d="M 12,0.25 A 0.75,0.75 0 0 0 11.25,1 V 2 A 0.75,0.75 0 0 0 12,2.75 0.75,0.75 0 0 0 12.75,2 V 1 A 0.75,0.75 0 0 0 12,0.25 Z"
     id="path8" />
  <path
     style="color:#000000;fill:currentColor;stroke-linecap:round;stroke-linejoin:round;-inkscape-stroke:none"
     d="m 18.5,2.75 a 0.75,0.75 0 0 0 -0.53125,0.21875 l -1,1 a 0.75,0.75 0 0 0 0,1.0625 0.75,0.75 0 0 0 1.0625,0 l 1,-1 a 0.75,0.75 0 0 0 0,-1.0625 A 0.75,0.75 0 0 0 18.5,2.75 Z"
     id="path10" />
  <path
     style="color:#000000;fill:currentColor;stroke-linecap:round;stroke-linejoin:round;-inkscape-stroke:none"
     d="m 5.5,2.75 a 0.75,0.75 0 0 0 -0.53125,0.21875 0.75,0.75 0 0 0 0,1.0625 l 1,1 a 0.75,0.75 0 0 0 1.0625,0 0.75,0.75 0 0 0 0,-1.0625 l -1,-1 A 0.75,0.75 0 0 0 5.5,2.75 Z"
     id="path12" />
  <path
     style="color:#000000;fill:currentColor;stroke-linecap:round;stroke-linejoin:round;-inkscape-stroke:none"
     d="M 4,8.25 A 0.75,0.75 0 0 0 3.25,9 0.75,0.75 0 0 0 4,9.75 H 5 A 0.75,0.75 0 0 0 5.75,9 0.75,0.75 0 0 0 5,8.25 Z"
     id="path14" />
</svg>
