<?xml version="1.0" encoding="UTF-8" standalone="no"?>
<svg
   width="24"
   height="24"
   stroke-width="1.5"
   viewBox="0 0 24 24"
   fill="none"
   version="1.1"
   id="svg6"
   sodipodi:docname="cloud-square.svg"
   inkscape:version="1.2.1 (9c6d41e410, 2022-07-14)"
   xmlns:inkscape="http://www.inkscape.org/namespaces/inkscape"
   xmlns:sodipodi="http://sodipodi.sourceforge.net/DTD/sodipodi-0.dtd"
   xmlns="http://www.w3.org/2000/svg"
   xmlns:svg="http://www.w3.org/2000/svg">
  <defs
     id="defs10" />
  <sodipodi:namedview
     id="namedview8"
     pagecolor="#ffffff"
     bordercolor="#666666"
     borderopacity="1.0"
     inkscape:showpageshadow="2"
     inkscape:pageopacity="0.0"
     inkscape:pagecheckerboard="0"
     inkscape:deskcolor="#d1d1d1"
     showgrid="false"
     inkscape:zoom="34.541667"
     inkscape:cx="10.364294"
     inkscape:cy="12.014475"
     inkscape:window-width="1920"
     inkscape:window-height="1009"
     inkscape:window-x="1912"
     inkscape:window-y="-8"
     inkscape:window-maximized="1"
     inkscape:current-layer="svg6" />
  <path
     style="color:#000000;fill:currentColor;-inkscape-stroke:none"
     d="M 3.5996094,2.25 C 2.8629077,2.25 2.25,2.8629077 2.25,3.5996094 V 20.400391 C 2.25,21.137086 2.862953,21.75 3.5996094,21.75 H 20.400391 C 21.13704,21.75 21.75,21.13704 21.75,20.400391 V 3.5996094 C 21.75,2.862953 21.137086,2.25 20.400391,2.25 Z M 3.75,3.75 h 16.5 v 16.5 H 3.75 Z"
     id="path2" />
  <path
     style="color:#000000;fill:currentColor;stroke-linejoin:round;-inkscape-stroke:none"
     d="M 12,7.25 C 10.210859,7.25 9.0694279,7.8598049 8.5097656,8.7148438 8.0989368,9.3424983 8.0268609,9.9539874 8.0058594,10.462891 7.545493,10.541204 7.0938018,10.555278 6.609375,10.875 5.8749237,11.359738 5.25,12.272729 5.25,13.5 c 0,1.227271 0.6249237,2.140262 1.359375,2.625 0.7344513,0.484738 1.525143,0.625 2.1171875,0.625 h 6.5468755 c 0.592048,0 1.38273,-0.140263 2.117187,-0.625 C 18.125082,15.640263 18.75,14.727274 18.75,13.5 18.75,12.272726 18.125082,11.359737 17.390625,10.875 16.906194,10.555279 16.45451,10.541204 15.994141,10.462891 15.973139,9.9539881 15.901059,9.3424982 15.490234,8.7148438 14.930577,7.8598051 13.789127,7.25 12,7.25 Z m 0,1.5 c 1.483569,0 1.977811,0.3901961 2.236328,0.7851563 C 14.494845,9.9301164 14.523437,10.500001 14.523438,11 a 0.750075,0.750075 0 0 0 0.75,0.75 c 0.317051,0 0.889099,0.109738 1.291015,0.375 C 16.96637,12.390262 17.25,12.727276 17.25,13.5 c 0,0.772724 -0.28363,1.109738 -0.685547,1.375 -0.401916,0.265262 -0.973964,0.375 -1.291015,0.375 H 8.7265625 C 8.409518,15.25 7.837457,15.140261 7.4355469,14.875 7.0336368,14.609739 6.75,14.272727 6.75,13.5 6.75,12.727273 7.0336368,12.390261 7.4355469,12.125 7.837457,11.859739 8.409518,11.75 8.7265625,11.75 a 0.750075,0.750075 0 0 0 0.75,-0.75 c 0,-0.499999 0.02859,-1.0698838 0.2871094,-1.4648437 C 10.022191,9.1401963 10.516414,8.75 12,8.75 Z"
     id="path4" />
</svg>
