<?xml version="1.0" encoding="UTF-8" standalone="no"?>
<svg
   width="24"
   stroke-width="1.5"
   height="24"
   viewBox="0 0 24 24"
   fill="none"
   version="1.1"
   id="svg8"
   sodipodi:docname="code-brackets-square.svg"
   inkscape:version="1.2.1 (9c6d41e410, 2022-07-14)"
   xmlns:inkscape="http://www.inkscape.org/namespaces/inkscape"
   xmlns:sodipodi="http://sodipodi.sourceforge.net/DTD/sodipodi-0.dtd"
   xmlns="http://www.w3.org/2000/svg"
   xmlns:svg="http://www.w3.org/2000/svg">
  <defs
     id="defs12" />
  <sodipodi:namedview
     id="namedview10"
     pagecolor="#ffffff"
     bordercolor="#666666"
     borderopacity="1.0"
     inkscape:showpageshadow="2"
     inkscape:pageopacity="0.0"
     inkscape:pagecheckerboard="0"
     inkscape:deskcolor="#d1d1d1"
     showgrid="false"
     inkscape:zoom="34.541667"
     inkscape:cx="10.364294"
     inkscape:cy="12.014475"
     inkscape:window-width="1920"
     inkscape:window-height="1009"
     inkscape:window-x="1912"
     inkscape:window-y="-8"
     inkscape:window-maximized="1"
     inkscape:current-layer="svg8" />
  <path
     style="color:#000000;fill:currentColor;stroke-linecap:round;stroke-linejoin:round;-inkscape-stroke:none"
     d="m 9.3339844,6.25 c -1.5098891,0 -2.75,1.2401018 -2.75,2.75 v 1.777344 c -0.05581,0.05813 -0.1795426,0.155913 -0.3144532,0.240234 -0.2698211,0.168642 -0.5585937,0.291016 -0.5585937,0.291016 a 0.750075,0.750075 0 0 0 0,1.382812 c 0,0 0.2887746,0.122375 0.5585937,0.291016 0.1349096,0.08432 0.2586451,0.182102 0.3144532,0.240234 8.3e-6,0.501054 0,1.145144 0,1.777344 0,1.509854 1.2401607,2.75 2.75,2.75 H 10 A 0.75,0.75 0 0 0 10.75,17 0.75,0.75 0 0 0 10,16.25 H 9.3339844 c -0.6992985,0 -1.25,-0.550856 -1.25,-1.25 0,-0.671799 10e-6,-1.378659 0,-1.888672 0,-0.438904 -0.2237778,-0.725457 -0.4179688,-0.927734 C 7.5904443,12.104876 7.5102468,12.06373 7.4316406,12 7.510247,11.936271 7.5904441,11.895124 7.6660156,11.816406 7.8602072,11.614131 8.0839765,11.327573 8.0839844,10.888672 V 9 c 0,-0.6992396 0.5507513,-1.25 1.25,-1.25 H 10 A 0.75,0.75 0 0 0 10.75,7 0.75,0.75 0 0 0 10,6.25 Z"
     id="path2" />
  <path
     style="color:#000000;fill:currentColor;stroke-linecap:round;stroke-linejoin:round;-inkscape-stroke:none"
     d="M 14,6.25 A 0.75,0.75 0 0 0 13.25,7 0.75,0.75 0 0 0 14,7.75 h 0.666016 c 0.699153,0 1.25,0.5507921 1.25,1.25 v 1.888672 c 0,0.438897 0.223781,0.725456 0.417968,0.927734 0.07557,0.07872 0.155771,0.119864 0.234375,0.183594 -0.0786,0.06373 -0.158805,0.104875 -0.234375,0.183594 -0.194187,0.202278 -0.417968,0.488837 -0.417968,0.927734 V 15 c 0,0.699112 -0.550798,1.25 -1.25,1.25 H 14 A 0.75,0.75 0 0 0 13.25,17 0.75,0.75 0 0 0 14,17.75 h 0.666016 c 1.509795,0 2.75,-1.240114 2.75,-2.75 v -1.777344 c 0.05581,-0.05813 0.179547,-0.155914 0.314453,-0.240234 0.269811,-0.16864 0.558594,-0.291016 0.558593,-0.291016 a 0.750075,0.750075 0 0 0 0,-1.382812 c 0,0 -0.288782,-0.122376 -0.558593,-0.291016 -0.134906,-0.08432 -0.258647,-0.182103 -0.314453,-0.240234 V 9 c 0,-1.5099299 -1.240156,-2.75 -2.75,-2.75 z"
     id="path4" />
  <path
     style="color:#000000;fill:currentColor;stroke-linecap:round;stroke-linejoin:round;-inkscape-stroke:none"
     d="M 3.5996094,2.25 C 2.8629077,2.25 2.25,2.8629077 2.25,3.5996094 V 20.400391 C 2.25,21.137086 2.862953,21.75 3.5996094,21.75 H 20.400391 C 21.13704,21.75 21.75,21.13704 21.75,20.400391 V 3.5996094 C 21.75,2.862953 21.137086,2.25 20.400391,2.25 Z M 3.75,3.75 h 16.5 v 16.5 H 3.75 Z"
     id="path6" />
</svg>
