<?xml version="1.0" encoding="UTF-8" standalone="no"?>
<svg
   width="24"
   height="24"
   stroke-width="1.5"
   viewBox="0 0 24 24"
   fill="none"
   version="1.1"
   id="svg14"
   sodipodi:docname="codepen.svg"
   inkscape:version="1.2.1 (9c6d41e410, 2022-07-14)"
   xmlns:inkscape="http://www.inkscape.org/namespaces/inkscape"
   xmlns:sodipodi="http://sodipodi.sourceforge.net/DTD/sodipodi-0.dtd"
   xmlns="http://www.w3.org/2000/svg"
   xmlns:svg="http://www.w3.org/2000/svg">
  <defs
     id="defs18" />
  <sodipodi:namedview
     id="namedview16"
     pagecolor="#ffffff"
     bordercolor="#666666"
     borderopacity="1.0"
     inkscape:showpageshadow="2"
     inkscape:pageopacity="0.0"
     inkscape:pagecheckerboard="0"
     inkscape:deskcolor="#d1d1d1"
     showgrid="false"
     inkscape:zoom="34.541667"
     inkscape:cx="10.364294"
     inkscape:cy="12.014475"
     inkscape:window-width="1920"
     inkscape:window-height="1009"
     inkscape:window-x="1912"
     inkscape:window-y="-8"
     inkscape:window-maximized="1"
     inkscape:current-layer="svg14" />
  <path
     style="color:#000000;fill:currentColor;stroke-linecap:round;stroke-linejoin:round;-inkscape-stroke:none"
     d="M 21,8.25 A 0.75,0.75 0 0 0 20.25,9 v 6 A 0.75,0.75 0 0 0 21,15.75 0.75,0.75 0 0 0 21.75,15 V 9 A 0.75,0.75 0 0 0 21,8.25 Z"
     id="path2" />
  <path
     style="color:#000000;fill:currentColor;stroke-linecap:round;stroke-linejoin:round;-inkscape-stroke:none"
     d="M 3,8.25 A 0.75,0.75 0 0 0 2.25,9 v 6 A 0.75,0.75 0 0 0 3,15.75 0.75,0.75 0 0 0 3.75,15 V 9 A 0.75,0.75 0 0 0 3,8.25 Z"
     id="path4" />
  <path
     style="color:#000000;fill:currentColor;stroke-linecap:round;stroke-linejoin:round;-inkscape-stroke:none"
     d="M 12,14.25 A 0.75,0.75 0 0 0 11.25,15 v 6 A 0.75,0.75 0 0 0 12,21.75 0.75,0.75 0 0 0 12.75,21 V 15 A 0.75,0.75 0 0 0 12,14.25 Z"
     id="path6" />
  <path
     style="color:#000000;fill:currentColor;stroke-linecap:round;stroke-linejoin:round;-inkscape-stroke:none"
     d="M 12,2.25 A 0.75,0.75 0 0 0 11.25,3 V 9 A 0.75,0.75 0 0 0 12,9.75 0.75,0.75 0 0 0 12.75,9 V 3 A 0.75,0.75 0 0 0 12,2.25 Z"
     id="path8" />
  <path
     style="color:#000000;fill:currentColor;stroke-linecap:round;stroke-linejoin:round;-inkscape-stroke:none"
     d="m 11.583984,2.375 -8.9999996,6 a 0.750075,0.750075 0 0 0 0,1.25 l 8.9999996,6 a 0.750075,0.750075 0 0 0 0.832032,0 l 9,-6 a 0.750075,0.750075 0 0 0 0,-1.25 l -9,-6 a 0.750075,0.750075 0 0 0 -0.832032,0 z M 12,3.9023438 19.646484,9 12,14.097656 4.3535156,9 Z"
     id="path10" />
  <path
     style="color:#000000;fill:currentColor;stroke-linecap:round;stroke-linejoin:round;-inkscape-stroke:none"
     d="m 11.583984,8.375 -8.9999996,6 a 0.750075,0.750075 0 0 0 0,1.25 l 8.9999996,6 a 0.750075,0.750075 0 0 0 0.832032,0 l 9,-6 a 0.750075,0.750075 0 0 0 0,-1.25 l -9,-6 a 0.750075,0.750075 0 0 0 -0.832032,0 z M 12,9.9023438 19.646484,15 12,20.097656 4.3535156,15 Z"
     id="path12" />
</svg>
