<?xml version="1.0" encoding="UTF-8" standalone="no"?>
<svg
   width="24"
   stroke-width="1.5"
   height="24"
   viewBox="0 0 24 24"
   fill="none"
   version="1.1"
   id="svg6"
   sodipodi:docname="code-brackets.svg"
   inkscape:version="1.2.1 (9c6d41e410, 2022-07-14)"
   xmlns:inkscape="http://www.inkscape.org/namespaces/inkscape"
   xmlns:sodipodi="http://sodipodi.sourceforge.net/DTD/sodipodi-0.dtd"
   xmlns="http://www.w3.org/2000/svg"
   xmlns:svg="http://www.w3.org/2000/svg">
  <defs
     id="defs10" />
  <sodipodi:namedview
     id="namedview8"
     pagecolor="#ffffff"
     bordercolor="#666666"
     borderopacity="1.0"
     inkscape:showpageshadow="2"
     inkscape:pageopacity="0.0"
     inkscape:pagecheckerboard="0"
     inkscape:deskcolor="#d1d1d1"
     showgrid="false"
     inkscape:zoom="34.541667"
     inkscape:cx="10.364294"
     inkscape:cy="12.014475"
     inkscape:window-width="1920"
     inkscape:window-height="1009"
     inkscape:window-x="1912"
     inkscape:window-y="-8"
     inkscape:window-maximized="1"
     inkscape:current-layer="svg6" />
  <path
     style="color:#000000;fill:currentColor;stroke-linecap:round;stroke-linejoin:round;-inkscape-stroke:none"
     d="M 8,2.25 C 6.4904911,2.25 5.25,3.4901018 5.25,5 v 5 c 0,0.124997 -0.2151736,0.527676 -0.53125,0.84375 C 4.4026736,11.159824 4.0839844,11.375 4.0839844,11.375 a 0.750075,0.750075 0 0 0 0,1.25 c 0,0 0.3186915,0.215176 0.6347656,0.53125 C 5.0348241,13.472324 5.25,13.875 5.25,14 c 10e-6,1.344293 0,3.450955 0,5.001953 C 5.25,20.51187 6.4906133,21.75 8,21.75 H 9 A 0.75,0.75 0 0 0 9.75,21 0.75,0.75 0 0 0 9,20.25 H 8 c -0.6997511,0 -1.25,-0.548766 -1.25,-1.248047 0,-1.550998 10e-6,-3.657649 0,-5.001953 0,-0.874999 -0.5348249,-1.472325 -0.96875,-1.90625 C 5.7245251,12.037025 5.7236189,12.051324 5.6679687,12 5.7236193,11.948676 5.7245247,11.962975 5.78125,11.90625 6.2151778,11.472325 6.75,10.875002 6.75,10 V 5 C 6.75,4.3007604 7.3003711,3.75 8,3.75 H 9 A 0.75,0.75 0 0 0 9.75,3 0.75,0.75 0 0 0 9,2.25 Z"
     id="path2" />
  <path
     style="color:#000000;fill:currentColor;stroke-linecap:round;stroke-linejoin:round;-inkscape-stroke:none"
     d="M 15,2.25 A 0.75,0.75 0 0 0 14.25,3 0.75,0.75 0 0 0 15,3.75 h 1 c 0.69967,0 1.25,0.5507468 1.25,1.25 v 5 c 0,0.874999 0.534825,1.472325 0.96875,1.90625 0.05673,0.05673 0.05763,0.04243 0.113281,0.09375 -0.05565,0.05132 -0.05656,0.03702 -0.113281,0.09375 C 17.784825,12.527675 17.25,13.125001 17.25,14 v 5.001953 C 17.25,19.701247 16.699792,20.25 16,20.25 H 15 A 0.75,0.75 0 0 0 14.25,21 0.75,0.75 0 0 0 15,21.75 h 1 c 1.509406,0 2.75,-1.238143 2.75,-2.748047 V 14 c 0,-0.125 0.215176,-0.527676 0.53125,-0.84375 0.316074,-0.316074 0.634766,-0.53125 0.634766,-0.53125 a 0.750075,0.750075 0 0 0 0,-1.25 c 0,0 -0.318692,-0.215176 -0.634766,-0.53125 C 18.965176,10.527676 18.75,10.125 18.75,10 V 5 C 18.75,3.4901154 17.509528,2.25 16,2.25 Z"
     id="path4" />
</svg>
