<?xml version="1.0" encoding="UTF-8" standalone="no"?>
<svg
   width="24"
   height="24"
   viewBox="0 0 24 24"
   stroke-width="1.5"
   fill="none"
   version="1.1"
   id="svg10"
   sodipodi:docname="coffee-cup.svg"
   inkscape:version="1.2.1 (9c6d41e410, 2022-07-14)"
   xmlns:inkscape="http://www.inkscape.org/namespaces/inkscape"
   xmlns:sodipodi="http://sodipodi.sourceforge.net/DTD/sodipodi-0.dtd"
   xmlns="http://www.w3.org/2000/svg"
   xmlns:svg="http://www.w3.org/2000/svg">
  <defs
     id="defs14" />
  <sodipodi:namedview
     id="namedview12"
     pagecolor="#ffffff"
     bordercolor="#666666"
     borderopacity="1.0"
     inkscape:showpageshadow="2"
     inkscape:pageopacity="0.0"
     inkscape:pagecheckerboard="0"
     inkscape:deskcolor="#d1d1d1"
     showgrid="false"
     inkscape:zoom="34.541667"
     inkscape:cx="10.364294"
     inkscape:cy="12.014475"
     inkscape:window-width="1920"
     inkscape:window-height="1009"
     inkscape:window-x="1912"
     inkscape:window-y="-8"
     inkscape:window-maximized="1"
     inkscape:current-layer="svg10" />
  <path
     style="color:#000000;fill:currentColor;stroke-linecap:round;stroke-linejoin:round;-inkscape-stroke:none"
     d="M 3.5996094,10.25 C 2.862953,10.25 2.25,10.862914 2.25,11.599609 V 15 c 0,3.719027 3.0309625,6.75 6.75,6.75 h 2 c 3.719029,0 6.75,-3.030971 6.75,-6.75 V 11.599609 C 17.75,10.86296 17.13704,10.25 16.400391,10.25 Z M 3.75,11.75 h 12.5 V 15 c 0,2.908365 -2.341635,5.25 -5.25,5.25 H 9 C 6.0916241,20.25 3.75,17.908366 3.75,15 Z"
     id="path2" />
  <path
     style="color:#000000;fill:currentColor;stroke-linecap:round;stroke-linejoin:round;-inkscape-stroke:none"
     d="M 17,2.75 A 0.75,0.75 0 0 0 16.25,3.5 V 4.1425781 C 16.25,5.3151909 15.315131,6.25 14.142578,6.25 13.253283,6.25 12.492846,6.581741 11.992188,7.1074219 11.491529,7.6331027 11.25,8.3214257 11.25,9 A 0.75,0.75 0 0 0 12,9.75 0.75,0.75 0 0 0 12.75,9 c 0,-0.3214247 0.114484,-0.6331035 0.328125,-0.8574219 C 13.291766,7.9182597 13.603275,7.75 14.142578,7.75 16.125822,7.75 17.75,6.1258622 17.75,4.1425781 V 3.5 A 0.75,0.75 0 0 0 17,2.75 Z"
     id="path4" />
  <path
     style="color:#000000;fill:currentColor;stroke-linecap:round;stroke-linejoin:round;-inkscape-stroke:none"
     d="M 13,2.25 A 0.75,0.75 0 0 0 12.25,3 V 3.5 C 12.25,4.1992532 11.699281,4.75 11,4.75 8.9378197,4.75 7.25,6.4378197 7.25,8.5 V 9 A 0.75,0.75 0 0 0 8,9.75 0.75,0.75 0 0 0 8.75,9 V 8.5 c 0,-1.2515163 0.9984837,-2.25 2.25,-2.25 1.509917,0 2.75,-1.2401154 2.75,-2.75 V 3 A 0.75,0.75 0 0 0 13,2.25 Z"
     id="path6" />
  <path
     style="color:#000000;fill:currentColor;stroke-linecap:round;stroke-linejoin:round;-inkscape-stroke:none"
     d="M 16,10.25 A 0.75,0.75 0 0 0 15.25,11 0.75,0.75 0 0 0 16,11.75 h 2.5 c 0.975361,0 1.75,0.774639 1.75,1.75 0,0.975361 -0.774639,1.75 -1.75,1.75 H 17 A 0.75,0.75 0 0 0 16.25,16 0.75,0.75 0 0 0 17,16.75 h 1.5 c 1.786036,0 3.25,-1.463964 3.25,-3.25 0,-1.786036 -1.463964,-3.25 -3.25,-3.25 z"
     id="path8" />
</svg>
