<?xml version="1.0" encoding="UTF-8" standalone="no"?>
<svg
   width="24"
   height="24"
   viewBox="0 0 24 24"
   stroke-width="1.5"
   fill="none"
   version="1.1"
   id="svg10"
   sodipodi:docname="coins-swap.svg"
   inkscape:version="1.2.1 (9c6d41e410, 2022-07-14)"
   xmlns:inkscape="http://www.inkscape.org/namespaces/inkscape"
   xmlns:sodipodi="http://sodipodi.sourceforge.net/DTD/sodipodi-0.dtd"
   xmlns="http://www.w3.org/2000/svg"
   xmlns:svg="http://www.w3.org/2000/svg">
  <defs
     id="defs14" />
  <sodipodi:namedview
     id="namedview12"
     pagecolor="#ffffff"
     bordercolor="#666666"
     borderopacity="1.0"
     inkscape:showpageshadow="2"
     inkscape:pageopacity="0.0"
     inkscape:pagecheckerboard="0"
     inkscape:deskcolor="#d1d1d1"
     showgrid="false"
     inkscape:zoom="34.541667"
     inkscape:cx="10.364294"
     inkscape:cy="12.014475"
     inkscape:window-width="1920"
     inkscape:window-height="1009"
     inkscape:window-x="1912"
     inkscape:window-y="-8"
     inkscape:window-maximized="1"
     inkscape:current-layer="svg10" />
  <path
     style="color:#000000;fill:currentColor;stroke-linecap:round;stroke-linejoin:round;-inkscape-stroke:none"
     d="m 15.5,1.25 c -3.995221,0 -7.25,3.2548307 -7.25,7.25 0,0.1872305 0.0075,0.3727242 0.021484,0.5566406 A 0.75,0.75 0 0 0 9.0761719,9.7480469 0.75,0.75 0 0 0 9.7675781,8.9433594 C 9.7564652,8.7972361 9.75,8.6492491 9.75,8.5 c 0,-3.1845235 2.565428,-5.75 5.75,-5.75 3.184572,0 5.75,2.5654765 5.75,5.75 0,3.184579 -2.565421,5.75 -5.75,5.75 -0.149175,0 -0.297096,-0.0065 -0.443359,-0.01758 a 0.75,0.75 0 0 0 -0.804688,0.691406 0.75,0.75 0 0 0 0.691406,0.804688 C 15.127096,15.742435 15.312775,15.75 15.5,15.75 c 3.995214,0 7.25,-3.254786 7.25,-7.25 0,-3.9951693 -3.254779,-7.25 -7.25,-7.25 z"
     id="path2" />
  <path
     style="color:#000000;fill:currentColor;stroke-linecap:round;stroke-linejoin:round;-inkscape-stroke:none"
     d="m 8.5,8.25 c -3.9951693,0 -7.25,3.254779 -7.25,7.25 0,3.995221 3.2548307,7.25 7.25,7.25 3.995214,0 7.25,-3.254786 7.25,-7.25 0,-3.995214 -3.254786,-7.25 -7.25,-7.25 z m 0,1.5 c 3.184579,0 5.75,2.565421 5.75,5.75 0,3.184579 -2.565421,5.75 -5.75,5.75 -3.1845235,0 -5.75,-2.565428 -5.75,-5.75 0,-3.184572 2.5654765,-5.75 5.75,-5.75 z"
     id="path4" />
  <path
     style="color:#000000;fill:currentColor;stroke-linecap:round;stroke-linejoin:round;-inkscape-stroke:none"
     d="M 22,16.25 A 0.75,0.75 0 0 0 21.25,17 c 0,1.251594 -0.998406,2.25 -2.25,2.25 h -0.1875 l 0.71875,-0.71875 a 0.75,0.75 0 0 0 0,-1.0625 0.75,0.75 0 0 0 -1.0625,0 l -2,2 A 0.75,0.75 0 0 0 16.25,20 a 0.75,0.75 0 0 0 0.21875,0.53125 l 2,2 a 0.75,0.75 0 0 0 1.0625,0 0.75,0.75 0 0 0 0,-1.0625 L 18.8125,20.75 H 19 c 2.062203,0 3.75,-1.687797 3.75,-3.75 A 0.75,0.75 0 0 0 22,16.25 Z"
     id="path6" />
  <path
     style="color:#000000;fill:currentColor;stroke-linecap:round;stroke-linejoin:round;-inkscape-stroke:none"
     d="m 5,1.25 a 0.75,0.75 0 0 0 -0.53125,0.21875 0.75,0.75 0 0 0 0,1.0625 L 5.1875,3.25 H 5 C 2.9378197,3.25 1.25,4.9378197 1.25,7 A 0.75,0.75 0 0 0 2,7.75 0.75,0.75 0 0 0 2.75,7 C 2.75,5.7484837 3.7484837,4.75 5,4.75 H 5.1875 L 4.46875,5.46875 a 0.75,0.75 0 0 0 0,1.0625 0.75,0.75 0 0 0 1.0625,0 l 2,-2 A 0.75,0.75 0 0 0 7.75,4 0.75,0.75 0 0 0 7.53125,3.46875 l -2,-2 A 0.75,0.75 0 0 0 5,1.25 Z"
     id="path8" />
</svg>
