<?xml version="1.0" encoding="UTF-8" standalone="no"?>
<svg
   width="24"
   height="24"
   viewBox="0 0 24 24"
   stroke-width="1.5"
   fill="none"
   version="1.1"
   id="svg18"
   sodipodi:docname="coins.svg"
   inkscape:version="1.2.1 (9c6d41e410, 2022-07-14)"
   xmlns:inkscape="http://www.inkscape.org/namespaces/inkscape"
   xmlns:sodipodi="http://sodipodi.sourceforge.net/DTD/sodipodi-0.dtd"
   xmlns="http://www.w3.org/2000/svg"
   xmlns:svg="http://www.w3.org/2000/svg">
  <defs
     id="defs22" />
  <sodipodi:namedview
     id="namedview20"
     pagecolor="#ffffff"
     bordercolor="#666666"
     borderopacity="1.0"
     inkscape:showpageshadow="2"
     inkscape:pageopacity="0.0"
     inkscape:pagecheckerboard="0"
     inkscape:deskcolor="#d1d1d1"
     showgrid="false"
     inkscape:zoom="34.541667"
     inkscape:cx="10.364294"
     inkscape:cy="12.014475"
     inkscape:window-width="1920"
     inkscape:window-height="1009"
     inkscape:window-x="1912"
     inkscape:window-y="-8"
     inkscape:window-maximized="1"
     inkscape:current-layer="svg18" />
  <path
     style="color:#000000;fill:currentColor;stroke-linecap:round;stroke-linejoin:round;-inkscape-stroke:none"
     d="m 16,7.25 c -1.482032,0 -2.829786,0.2898944 -3.871094,0.8105469 C 11.087598,8.5811994 10.25,9.4043112 10.25,10.5 c 0,1.095687 0.837599,1.918799 1.878906,2.439453 C 13.170214,13.460107 14.517967,13.75 16,13.75 c 1.482033,0 2.829786,-0.289893 3.871094,-0.810547 C 20.912401,12.418799 21.75,11.595687 21.75,10.5 21.75,9.4043112 20.912402,8.5811994 19.871094,8.0605469 18.829786,7.5398944 17.482032,7.25 16,7.25 Z m 0,1.5 c 1.279365,0 2.430878,0.2681746 3.199219,0.6523438 C 19.967559,9.7865129 20.25,10.21498 20.25,10.5 c 0,0.285012 -0.28244,0.713486 -1.050781,1.097656 C 18.430878,11.981827 17.279364,12.25 16,12.25 14.720636,12.25 13.569122,11.981827 12.800781,11.597656 12.03244,11.213486 11.75,10.785012 11.75,10.5 11.75,10.21498 12.032441,9.7865129 12.800781,9.4023438 13.569122,9.0181746 14.720635,8.75 16,8.75 Z"
     id="path2" />
  <path
     style="color:#000000;fill:currentColor;stroke-linecap:round;stroke-linejoin:round;-inkscape-stroke:none"
     d="m 11,13.75 a 0.75,0.75 0 0 0 -0.75,0.75 c 0,1.095687 0.837599,1.918799 1.878906,2.439453 C 13.170214,17.460107 14.517967,17.75 16,17.75 c 1.482033,0 2.829786,-0.289893 3.871094,-0.810547 C 20.912401,16.418799 21.75,15.595687 21.75,14.5 A 0.75,0.75 0 0 0 21,13.75 0.75,0.75 0 0 0 20.25,14.5 c 0,0.285012 -0.28244,0.713486 -1.050781,1.097656 C 18.430878,15.981827 17.279364,16.25 16,16.25 14.720636,16.25 13.569122,15.981827 12.800781,15.597656 12.03244,15.213486 11.75,14.785012 11.75,14.5 A 0.75,0.75 0 0 0 11,13.75 Z"
     id="path4" />
  <path
     style="color:#000000;fill:currentColor;stroke-linecap:round;stroke-linejoin:round;-inkscape-stroke:none"
     d="M 3,8.75 A 0.75,0.75 0 0 0 2.25,9.5 c 0,1.095683 0.8376006,1.918799 1.8789062,2.439453 C 5.1702119,12.460107 6.5179577,12.75 8,12.75 c 1.2084345,0 2.327617,-0.197164 3.263672,-0.548828 a 0.75,0.75 0 0 0 0.439453,-0.964844 0.75,0.75 0 0 0 -0.966797,-0.4375 C 10.000784,11.075163 9.0432232,11.25 8,11.25 6.720625,11.25 5.5691188,10.981826 4.8007812,10.597656 4.0324437,10.213486 3.75,9.7850155 3.75,9.5 A 0.75,0.75 0 0 0 3,8.75 Z"
     id="path6" />
  <path
     style="color:#000000;fill:currentColor;stroke-linecap:round;stroke-linejoin:round;-inkscape-stroke:none"
     d="M 3,12.25 A 0.75,0.75 0 0 0 2.25,13 c 0,1.095683 0.8376006,1.918799 1.8789062,2.439453 C 5.1702119,15.960107 6.5179577,16.25 8,16.25 c 1.2082307,0 2.327819,-0.195468 3.263672,-0.546875 a 0.75,0.75 0 0 0 0.4375,-0.966797 0.75,0.75 0 0 0 -0.964844,-0.4375 C 10.000783,14.575021 9.0429871,14.75 8,14.75 6.720625,14.75 5.5691188,14.481826 4.8007812,14.097656 4.0324437,13.713486 3.75,13.285015 3.75,13 A 0.75,0.75 0 0 0 3,12.25 Z"
     id="path8" />
  <path
     style="color:#000000;fill:currentColor;stroke-linecap:round;stroke-linejoin:round;-inkscape-stroke:none"
     d="M 3,4.75 A 0.75,0.75 0 0 0 2.25,5.5 v 11 c 0,1.095683 0.8376006,1.918799 1.8789062,2.439453 C 5.1702119,19.460107 6.5179577,19.75 8,19.75 c 1.2082936,0 2.327822,-0.197311 3.263672,-0.548828 a 0.75,0.75 0 0 0 0.4375,-0.964844 0.75,0.75 0 0 0 -0.964844,-0.4375 C 10.00078,18.07511 9.0429641,18.25 8,18.25 6.720625,18.25 5.5691188,17.981826 4.8007812,17.597656 4.0324437,17.213486 3.75,16.785015 3.75,16.5 V 5.5 A 0.75,0.75 0 0 0 3,4.75 Z"
     id="path10" />
  <path
     style="color:#000000;fill:currentColor;stroke-linecap:round;stroke-linejoin:round;-inkscape-stroke:none"
     d="M 13,4.75 A 0.75,0.75 0 0 0 12.25,5.5 v 3 A 0.75,0.75 0 0 0 13,9.25 0.75,0.75 0 0 0 13.75,8.5 v -3 A 0.75,0.75 0 0 0 13,4.75 Z"
     id="path12" />
  <path
     style="color:#000000;fill:currentColor;stroke-linecap:round;stroke-linejoin:round;-inkscape-stroke:none"
     d="m 11,9.75 a 0.75,0.75 0 0 0 -0.75,0.75 v 8 c 0,1.095687 0.837599,1.918799 1.878906,2.439453 C 13.170214,21.460107 14.517967,21.75 16,21.75 c 1.482033,0 2.829786,-0.289893 3.871094,-0.810547 C 20.912401,20.418799 21.75,19.595687 21.75,18.5 v -8 A 0.75,0.75 0 0 0 21,9.75 0.75,0.75 0 0 0 20.25,10.5 v 8 c 0,0.285012 -0.28244,0.713486 -1.050781,1.097656 C 18.430878,19.981827 17.279364,20.25 16,20.25 14.720636,20.25 13.569122,19.981827 12.800781,19.597656 12.03244,19.213486 11.75,18.785012 11.75,18.5 v -8 A 0.75,0.75 0 0 0 11,9.75 Z"
     id="path14" />
  <path
     style="color:#000000;fill:currentColor;stroke-linecap:round;stroke-linejoin:round;-inkscape-stroke:none"
     d="M 8,2.25 C 6.5179587,2.25 5.1702124,2.5398938 4.1289062,3.0605469 3.0876001,3.5812 2.25,4.4043148 2.25,5.5 2.25,6.5956852 3.0876001,7.4188 4.1289062,7.9394531 5.1702124,8.4601062 6.5179587,8.75 8,8.75 9.4820321,8.75 10.829786,8.4601056 11.871094,7.9394531 12.912402,7.4188006 13.75,6.5956888 13.75,5.5 13.75,4.4043112 12.912402,3.5811994 11.871094,3.0605469 10.829786,2.5398944 9.4820321,2.25 8,2.25 Z m 0,1.5 c 1.2793652,0 2.430878,0.2681746 3.199219,0.6523437 C 11.967559,4.7865129 12.25,5.2149802 12.25,5.5 12.25,5.7850198 11.967559,6.2134871 11.199219,6.5976562 10.430878,6.9818254 9.2793652,7.25 8,7.25 6.7206241,7.25 5.5691182,6.9818247 4.8007812,6.5976562 4.0324443,6.2134878 3.75,5.7850234 3.75,5.5 3.75,5.2149766 4.0324443,4.7865122 4.8007812,4.4023437 5.5691182,4.0181753 6.7206241,3.75 8,3.75 Z"
     id="path16" />
</svg>
