<?xml version="1.0" encoding="UTF-8" standalone="no"?>
<svg
   width="24"
   height="24"
   stroke-width="1.5"
   viewBox="0 0 24 24"
   fill="none"
   version="1.1"
   id="svg10"
   sodipodi:docname="collapse.svg"
   inkscape:version="1.2.1 (9c6d41e410, 2022-07-14)"
   xmlns:inkscape="http://www.inkscape.org/namespaces/inkscape"
   xmlns:sodipodi="http://sodipodi.sourceforge.net/DTD/sodipodi-0.dtd"
   xmlns="http://www.w3.org/2000/svg"
   xmlns:svg="http://www.w3.org/2000/svg">
  <defs
     id="defs14" />
  <sodipodi:namedview
     id="namedview12"
     pagecolor="#ffffff"
     bordercolor="#666666"
     borderopacity="1.0"
     inkscape:showpageshadow="2"
     inkscape:pageopacity="0.0"
     inkscape:pagecheckerboard="0"
     inkscape:deskcolor="#d1d1d1"
     showgrid="false"
     inkscape:zoom="34.541667"
     inkscape:cx="10.364294"
     inkscape:cy="12.014475"
     inkscape:window-width="1920"
     inkscape:window-height="1009"
     inkscape:window-x="1912"
     inkscape:window-y="-8"
     inkscape:window-maximized="1"
     inkscape:current-layer="svg10" />
  <path
     style="color:#000000;fill:currentColor;stroke-linecap:round;stroke-linejoin:round;-inkscape-stroke:none"
     d="M 15,14.25 A 0.75,0.75 0 0 0 14.46875,14.46875 0.75,0.75 0 0 0 14.25,15 v 4 A 0.75,0.75 0 0 0 15,19.75 0.75,0.75 0 0 0 15.75,19 v -2.1875 l 3.71875,3.71875 a 0.75,0.75 0 0 0 1.0625,0 0.75,0.75 0 0 0 0,-1.0625 L 16.8125,15.75 H 19 A 0.75,0.75 0 0 0 19.75,15 0.75,0.75 0 0 0 19,14.25 Z"
     id="path2" />
  <path
     style="color:#000000;fill:currentColor;stroke-linecap:round;stroke-linejoin:round;-inkscape-stroke:none"
     d="M 5,14.25 A 0.75,0.75 0 0 0 4.25,15 0.75,0.75 0 0 0 5,15.75 h 2.1875 l -3.71875,3.71875 a 0.75,0.75 0 0 0 0,1.0625 0.75,0.75 0 0 0 1.0625,0 L 8.25,16.8125 V 19 A 0.75,0.75 0 0 0 9,19.75 0.75,0.75 0 0 0 9.75,19 V 15 A 0.75,0.75 0 0 0 9.7246094,14.871094 0.75,0.75 0 0 0 9.7050781,14.773438 0.75,0.75 0 0 0 9.6933594,14.712891 0.75,0.75 0 0 0 9.53125,14.46875 0.75,0.75 0 0 0 9.2871094,14.306641 0.75,0.75 0 0 0 9,14.25 Z"
     id="path4" />
  <path
     style="color:#000000;fill:currentColor;stroke-linecap:round;stroke-linejoin:round;-inkscape-stroke:none"
     d="M 20,3.25 A 0.75,0.75 0 0 0 19.46875,3.46875 L 15.75,7.1875 V 5 A 0.75,0.75 0 0 0 15,4.25 0.75,0.75 0 0 0 14.25,5 V 9 A 0.75,0.75 0 0 0 14.46875,9.53125 0.75,0.75 0 0 0 15,9.75 h 4 A 0.75,0.75 0 0 0 19.75,9 0.75,0.75 0 0 0 19,8.25 h -2.1875 l 3.71875,-3.71875 a 0.75,0.75 0 0 0 0,-1.0625 A 0.75,0.75 0 0 0 20,3.25 Z"
     id="path6" />
  <path
     style="color:#000000;fill:currentColor;stroke-linecap:round;stroke-linejoin:round;-inkscape-stroke:none"
     d="m 4,3.25 a 0.75,0.75 0 0 0 -0.53125,0.21875 0.75,0.75 0 0 0 0,1.0625 L 7.1875,8.25 H 5 A 0.75,0.75 0 0 0 4.25,9 0.75,0.75 0 0 0 5,9.75 H 9 A 0.75,0.75 0 0 0 9.53125,9.53125 0.75,0.75 0 0 0 9.7246094,9.0625 0.75,0.75 0 0 0 9.75,9 V 5 A 0.75,0.75 0 0 0 9,4.25 0.75,0.75 0 0 0 8.25,5 V 7.1875 L 4.53125,3.46875 A 0.75,0.75 0 0 0 4,3.25 Z"
     id="path8" />
</svg>
