<?xml version="1.0" encoding="UTF-8" standalone="no"?>
<svg
   width="24"
   height="24"
   stroke-width="1.5"
   viewBox="0 0 24 24"
   fill="none"
   version="1.1"
   id="svg8"
   sodipodi:docname="color-filter.svg"
   inkscape:version="1.2.1 (9c6d41e410, 2022-07-14)"
   xmlns:inkscape="http://www.inkscape.org/namespaces/inkscape"
   xmlns:sodipodi="http://sodipodi.sourceforge.net/DTD/sodipodi-0.dtd"
   xmlns="http://www.w3.org/2000/svg"
   xmlns:svg="http://www.w3.org/2000/svg">
  <defs
     id="defs12" />
  <sodipodi:namedview
     id="namedview10"
     pagecolor="#ffffff"
     bordercolor="#666666"
     borderopacity="1.0"
     inkscape:showpageshadow="2"
     inkscape:pageopacity="0.0"
     inkscape:pagecheckerboard="0"
     inkscape:deskcolor="#d1d1d1"
     showgrid="false"
     inkscape:zoom="34.541667"
     inkscape:cx="10.364294"
     inkscape:cy="12.014475"
     inkscape:window-width="1920"
     inkscape:window-height="1009"
     inkscape:window-x="1912"
     inkscape:window-y="-8"
     inkscape:window-maximized="1"
     inkscape:current-layer="svg8" />
  <path
     style="color:#000000;fill:currentColor;stroke-linecap:round;stroke-linejoin:round;-inkscape-stroke:none"
     d="m 12,1.75 c -3.719036,0 -6.75,3.030964 -6.75,6.75 0,3.719027 3.0309625,6.75 6.75,6.75 3.719029,0 6.75,-3.030971 6.75,-6.75 0,-3.7190375 -3.030973,-6.75 -6.75,-6.75 z m 0,1.5 c 2.908366,0 5.25,2.3416241 5.25,5.25 0,2.908365 -2.341635,5.25 -5.25,5.25 C 9.0916241,13.75 6.75,11.408366 6.75,8.5 6.75,5.5916226 9.0916226,3.25 12,3.25 Z"
     id="path2" />
  <path
     style="color:#000000;fill:currentColor;stroke-linecap:round;stroke-linejoin:round;-inkscape-stroke:none"
     d="m 16,8.75 c -3.719029,0 -6.75,3.030971 -6.75,6.75 0,3.719029 3.030971,6.75 6.75,6.75 3.719029,0 6.75,-3.030971 6.75,-6.75 0,-3.719029 -3.030971,-6.75 -6.75,-6.75 z m 0,1.5 c 2.908365,0 5.25,2.341635 5.25,5.25 0,2.908365 -2.341635,5.25 -5.25,5.25 -2.908365,0 -5.25,-2.341635 -5.25,-5.25 0,-2.908365 2.341635,-5.25 5.25,-5.25 z"
     id="path4" />
  <path
     style="color:#000000;fill:currentColor;stroke-linecap:round;stroke-linejoin:round;-inkscape-stroke:none"
     d="m 8,8.75 c -3.7190375,0 -6.75,3.030973 -6.75,6.75 0,3.719027 3.0309625,6.75 6.75,6.75 3.719029,0 6.75,-3.030971 6.75,-6.75 0,-3.719029 -3.030971,-6.75 -6.75,-6.75 z m 0,1.5 c 2.908365,0 5.25,2.341635 5.25,5.25 0,2.908365 -2.341635,5.25 -5.25,5.25 -2.9083759,0 -5.25,-2.341634 -5.25,-5.25 0,-2.908366 2.3416241,-5.25 5.25,-5.25 z"
     id="path6" />
</svg>
