<?xml version="1.0" encoding="UTF-8" standalone="no"?>
<svg
   width="24"
   height="24"
   viewBox="0 0 24 24"
   stroke-width="1.5"
   fill="none"
   version="1.1"
   id="svg22"
   sodipodi:docname="color-wheel.svg"
   inkscape:version="1.2.1 (9c6d41e410, 2022-07-14)"
   xmlns:inkscape="http://www.inkscape.org/namespaces/inkscape"
   xmlns:sodipodi="http://sodipodi.sourceforge.net/DTD/sodipodi-0.dtd"
   xmlns="http://www.w3.org/2000/svg"
   xmlns:svg="http://www.w3.org/2000/svg">
  <defs
     id="defs26" />
  <sodipodi:namedview
     id="namedview24"
     pagecolor="#ffffff"
     bordercolor="#666666"
     borderopacity="1.0"
     inkscape:showpageshadow="2"
     inkscape:pageopacity="0.0"
     inkscape:pagecheckerboard="0"
     inkscape:deskcolor="#d1d1d1"
     showgrid="false"
     inkscape:zoom="34.541667"
     inkscape:cx="10.364294"
     inkscape:cy="12.014475"
     inkscape:window-width="1920"
     inkscape:window-height="1009"
     inkscape:window-x="1912"
     inkscape:window-y="-8"
     inkscape:window-maximized="1"
     inkscape:current-layer="svg22" />
  <path
     style="color:#000000;fill:currentColor;stroke-linecap:round;stroke-linejoin:round;-inkscape-stroke:none"
     d="M 12,1.25 C 6.0718263,1.25 1.25,6.0718263 1.25,12 1.25,17.928127 6.0718217,22.75 12,22.75 17.928132,22.75 22.75,17.928132 22.75,12 22.75,6.0718217 17.928127,1.25 12,1.25 Z m 0,1.5 c 5.117462,0 9.25,4.1324893 9.25,9.25 0,5.117457 -4.132543,9.25 -9.25,9.25 C 6.8824893,21.25 2.75,17.117462 2.75,12 2.75,6.8824848 6.8824848,2.75 12,2.75 Z"
     id="path2" />
  <path
     style="color:#000000;fill:currentColor;stroke-linecap:round;stroke-linejoin:round;-inkscape-stroke:none"
     d="m 12,7.25 c -2.6144671,0 -4.75,2.1355329 -4.75,4.75 0,2.614434 2.1355239,4.75 4.75,4.75 2.614443,0 4.75,-2.135557 4.75,-4.75 0,-2.6144761 -2.135566,-4.75 -4.75,-4.75 z m 0,1.5 c 1.803761,0 3.25,1.446201 3.25,3.25 0,1.803752 -1.446248,3.25 -3.25,3.25 -1.803799,0 -3.25,-1.446239 -3.25,-3.25 0,-1.803809 1.446191,-3.25 3.25,-3.25 z"
     id="path4" />
  <path
     style="color:#000000;fill:currentColor;stroke-linecap:round;stroke-linejoin:round;-inkscape-stroke:none"
     d="M 12,1.25 A 0.75,0.75 0 0 0 11.25,2 V 8 A 0.75,0.75 0 0 0 12,8.75 0.75,0.75 0 0 0 12.75,8 V 2 A 0.75,0.75 0 0 0 12,1.25 Z"
     id="path6" />
  <path
     style="color:#000000;fill:currentColor;stroke-linecap:round;stroke-linejoin:round;-inkscape-stroke:none"
     d="M 12,15.25 A 0.75,0.75 0 0 0 11.25,16 v 6 A 0.75,0.75 0 0 0 12,22.75 0.75,0.75 0 0 0 12.75,22 V 16 A 0.75,0.75 0 0 0 12,15.25 Z"
     id="path8" />
  <path
     style="color:#000000;fill:currentColor;stroke-linecap:round;stroke-linejoin:round;-inkscape-stroke:none"
     d="M 2,11.25 A 0.75,0.75 0 0 0 1.25,12 0.75,0.75 0 0 0 2,12.75 H 8 A 0.75,0.75 0 0 0 8.75,12 0.75,0.75 0 0 0 8,11.25 Z"
     id="path10" />
  <path
     style="color:#000000;fill:currentColor;stroke-linecap:round;stroke-linejoin:round;-inkscape-stroke:none"
     d="M 16,11.25 A 0.75,0.75 0 0 0 15.25,12 0.75,0.75 0 0 0 16,12.75 h 6 A 0.75,0.75 0 0 0 22.75,12 0.75,0.75 0 0 0 22,11.25 Z"
     id="path12" />
  <path
     style="color:#000000;fill:currentColor;stroke-linecap:round;stroke-linejoin:round;-inkscape-stroke:none"
     d="m 4.9296875,4.1777344 a 0.75,0.75 0 0 0 -0.53125,0.2207031 0.75,0.75 0 0 0 0,1.0605469 L 8.640625,9.7011719 a 0.75,0.75 0 0 0 1.0605469,0 0.75,0.75 0 0 0 0,-1.0605469 L 5.4589844,4.3984375 A 0.75,0.75 0 0 0 4.9296875,4.1777344 Z"
     id="path14" />
  <path
     style="color:#000000;fill:currentColor;stroke-linecap:round;stroke-linejoin:round;-inkscape-stroke:none"
     d="m 14.828125,14.078125 a 0.75,0.75 0 0 0 -0.529297,0.220703 0.75,0.75 0 0 0 0,1.060547 l 4.242188,4.242187 a 0.75,0.75 0 0 0 1.060546,0 0.75,0.75 0 0 0 0,-1.060546 l -4.242187,-4.242188 a 0.75,0.75 0 0 0 -0.53125,-0.220703 z"
     id="path16" />
  <path
     style="color:#000000;fill:currentColor;stroke-linecap:round;stroke-linejoin:round;-inkscape-stroke:none"
     d="m 9.171875,14.078125 a 0.75,0.75 0 0 0 -0.53125,0.220703 l -4.2421875,4.242188 a 0.75,0.75 0 0 0 0,1.060546 0.75,0.75 0 0 0 1.0605469,0 l 4.2421875,-4.242187 a 0.75,0.75 0 0 0 0,-1.060547 0.75,0.75 0 0 0 -0.5292969,-0.220703 z"
     id="path18" />
  <path
     style="color:#000000;fill:currentColor;stroke-linecap:round;stroke-linejoin:round;-inkscape-stroke:none"
     d="M 18.541016,4.3984375 14.298828,8.640625 a 0.75,0.75 0 0 0 0,1.0605469 0.75,0.75 0 0 0 1.060547,0 l 4.242187,-4.2421875 a 0.75,0.75 0 0 0 0,-1.0605469 0.75,0.75 0 0 0 -1.060546,0 z"
     id="path20" />
</svg>
