<?xml version="1.0" encoding="UTF-8" standalone="no"?>
<svg
   width="24"
   height="24"
   stroke-width="1.5"
   viewBox="0 0 24 24"
   fill="none"
   version="1.1"
   id="svg6"
   sodipodi:docname="color-picker.svg"
   inkscape:version="1.2.1 (9c6d41e410, 2022-07-14)"
   xmlns:inkscape="http://www.inkscape.org/namespaces/inkscape"
   xmlns:sodipodi="http://sodipodi.sourceforge.net/DTD/sodipodi-0.dtd"
   xmlns="http://www.w3.org/2000/svg"
   xmlns:svg="http://www.w3.org/2000/svg">
  <defs
     id="defs10" />
  <sodipodi:namedview
     id="namedview8"
     pagecolor="#ffffff"
     bordercolor="#666666"
     borderopacity="1.0"
     inkscape:showpageshadow="2"
     inkscape:pageopacity="0.0"
     inkscape:pagecheckerboard="0"
     inkscape:deskcolor="#d1d1d1"
     showgrid="false"
     inkscape:zoom="34.541667"
     inkscape:cx="10.364294"
     inkscape:cy="12.014475"
     inkscape:window-width="1920"
     inkscape:window-height="1009"
     inkscape:window-x="1912"
     inkscape:window-y="-8"
     inkscape:window-maximized="1"
     inkscape:current-layer="svg6" />
  <path
     style="color:#000000;fill:currentColor;stroke-linecap:round;stroke-linejoin:round;-inkscape-stroke:none"
     d="m 13.171875,6.6582031 c -0.449441,0 -0.899714,0.1692197 -1.238281,0.5078125 L 6.46875,12.630859 4.296875,14.802734 C 4.133374,14.96613 4.0039855,15.161331 3.9160156,15.375 l -1.0273437,2.496094 c -0.3687296,0.895494 -0.1014846,1.855535 0.4902344,2.447265 0.5917189,0.59173 1.5517665,0.858923 2.4472656,0.490235 l 2.4960937,-1.029297 c 0.2137197,-0.08805 0.4071315,-0.217783 0.5703125,-0.38086 l 5.7089849,-5.707031 1.927734,-1.929687 c 0.677145,-0.677145 0.677167,-1.7974776 0,-2.4746096 L 14.408203,7.1660156 C 14.069636,6.8274228 13.621316,6.6582031 13.171875,6.6582031 Z m -0.177734,1.5683594 c 0.103865,-0.1038736 0.24965,-0.1038736 0.353515,0 l 2.121094,2.1210935 c 0.103833,0.103827 0.103855,0.249661 0,0.353516 l -1.707031,1.708984 H 8.8125 Z M 7.3125,13.910156 h 4.949219 l -4.4296878,4.427735 c -0.023292,0.02298 -0.05012,0.04235 -0.080078,0.05469 L 5.2539062,19.421875 C 4.9165066,19.560787 4.6454934,19.463857 4.4394531,19.257812 4.2334129,19.051768 4.1364607,18.778811 4.2753906,18.441406 l 1.0273438,-2.496093 c 0.01257,-0.03053 0.031469,-0.05883 0.054687,-0.08203 z"
     id="path2" />
  <path
     style="color:#000000;fill:currentColor;stroke-linecap:round;stroke-linejoin:round;-inkscape-stroke:none"
     d="m 13.347656,2.9238281 a 0.75,0.75 0 0 0 0,1.0605469 l 2.121094,2.1210937 2.121094,2.1210938 2.121093,2.1210935 a 0.75,0.75 0 0 0 1.060547,0 0.75,0.75 0 0 0 0,-1.0605466 L 19.179687,7.6953125 20.064453,6.8125 c 0.677109,-0.6771437 0.677109,-1.7974656 0,-2.4746094 L 19.357422,3.6308594 c -0.677092,-0.6771268 -1.797454,-0.6770167 -2.47461,0 L 16,4.515625 14.408203,2.9238281 a 0.75,0.75 0 0 0 -1.060547,0 z m 4.595703,1.7675781 c 0.104044,-0.1040225 0.249609,-0.1039124 0.353516,0 l 0.707031,0.7070313 c 0.10389,0.1038955 0.10389,0.2496201 0,0.3535156 l -0.882812,0.8847656 -1.0625,-1.0625 z"
     id="path4" />
</svg>
