<?xml version="1.0" encoding="UTF-8" standalone="no"?>
<svg
   width="24"
   height="24"
   stroke-width="1.5"
   viewBox="0 0 24 24"
   fill="none"
   version="1.1"
   id="svg6"
   sodipodi:docname="combine.svg"
   inkscape:version="1.2.1 (9c6d41e410, 2022-07-14)"
   xmlns:inkscape="http://www.inkscape.org/namespaces/inkscape"
   xmlns:sodipodi="http://sodipodi.sourceforge.net/DTD/sodipodi-0.dtd"
   xmlns="http://www.w3.org/2000/svg"
   xmlns:svg="http://www.w3.org/2000/svg">
  <defs
     id="defs10" />
  <sodipodi:namedview
     id="namedview8"
     pagecolor="#ffffff"
     bordercolor="#666666"
     borderopacity="1.0"
     inkscape:showpageshadow="2"
     inkscape:pageopacity="0.0"
     inkscape:pagecheckerboard="0"
     inkscape:deskcolor="#d1d1d1"
     showgrid="false"
     inkscape:zoom="34.541667"
     inkscape:cx="10.364294"
     inkscape:cy="12.014475"
     inkscape:window-width="1920"
     inkscape:window-height="1009"
     inkscape:window-x="1912"
     inkscape:window-y="-8"
     inkscape:window-maximized="1"
     inkscape:current-layer="svg6" />
  <path
     style="color:#000000;fill:currentColor;stroke-linecap:round;stroke-linejoin:round;-inkscape-stroke:none"
     d="M 9.5996094,8.25 C 8.8629077,8.25 8.25,8.8629077 8.25,9.5996094 V 20.400391 C 8.25,21.137086 8.862953,21.75 9.5996094,21.75 H 20.400391 C 21.13704,21.75 21.75,21.13704 21.75,20.400391 V 9.5996094 C 21.75,8.862953 21.137086,8.25 20.400391,8.25 Z M 9.75,9.75 h 10.5 v 10.5 H 9.75 Z"
     id="path2" />
  <path
     style="color:#000000;fill:currentColor;stroke-linecap:round;stroke-linejoin:round;-inkscape-stroke:none"
     d="M 3.5996094,2.25 C 2.8629077,2.25 2.25,2.8629077 2.25,3.5996094 V 14.400391 C 2.25,15.137086 2.862953,15.75 3.5996094,15.75 H 14.400391 C 15.13704,15.75 15.75,15.13704 15.75,14.400391 V 3.5996094 C 15.75,2.862953 15.137086,2.25 14.400391,2.25 Z M 3.75,3.75 h 10.5 v 10.5 H 3.75 Z"
     id="path4" />
</svg>
