<?xml version="1.0" encoding="UTF-8" standalone="no"?>
<svg
   width="24"
   height="24"
   viewBox="0 0 24 24"
   stroke-width="1.5"
   fill="none"
   version="1.1"
   id="svg14"
   sodipodi:docname="community.svg"
   inkscape:version="1.2.1 (9c6d41e410, 2022-07-14)"
   xmlns:inkscape="http://www.inkscape.org/namespaces/inkscape"
   xmlns:sodipodi="http://sodipodi.sourceforge.net/DTD/sodipodi-0.dtd"
   xmlns="http://www.w3.org/2000/svg"
   xmlns:svg="http://www.w3.org/2000/svg">
  <defs
     id="defs18" />
  <sodipodi:namedview
     id="namedview16"
     pagecolor="#ffffff"
     bordercolor="#666666"
     borderopacity="1.0"
     inkscape:showpageshadow="2"
     inkscape:pageopacity="0.0"
     inkscape:pagecheckerboard="0"
     inkscape:deskcolor="#d1d1d1"
     showgrid="false"
     inkscape:zoom="34.541667"
     inkscape:cx="10.364294"
     inkscape:cy="12.014475"
     inkscape:window-width="1920"
     inkscape:window-height="1009"
     inkscape:window-x="1912"
     inkscape:window-y="-8"
     inkscape:window-maximized="1"
     inkscape:current-layer="svg14" />
  <path
     style="color:#000000;fill:currentColor;stroke-linecap:round;stroke-linejoin:round;-inkscape-stroke:none"
     d="m 12,11.25 c -3.1667518,0 -5.75,2.583269 -5.75,5.75 v 1 A 0.75,0.75 0 0 0 7,18.75 0.75,0.75 0 0 0 7.75,18 v -1 c 0,-2.356063 1.8939173,-4.25 4.25,-4.25 2.35606,0 4.25,1.89394 4.25,4.25 v 1 A 0.75,0.75 0 0 0 17,18.75 0.75,0.75 0 0 0 17.75,18 v -1 c 0,-3.166735 -2.583265,-5.75 -5.75,-5.75 z"
     id="path2" />
  <path
     style="color:#000000;fill:currentColor;stroke-linecap:round;stroke-linejoin:round;-inkscape-stroke:none"
     d="m 4,13.25 c -2.0621653,0 -3.75,1.687782 -3.75,3.75 v 1 A 0.75,0.75 0 0 0 1,18.75 0.75,0.75 0 0 0 1.75,18 V 17 C 1.75,15.748421 2.7484686,14.75 4,14.75 A 0.75,0.75 0 0 0 4.75,14 0.75,0.75 0 0 0 4,13.25 Z"
     id="path4" />
  <path
     style="color:#000000;fill:currentColor;stroke-linecap:round;stroke-linejoin:round;-inkscape-stroke:none"
     d="M 20,13.25 A 0.75,0.75 0 0 0 19.25,14 0.75,0.75 0 0 0 20,14.75 c 1.251594,0 2.25,0.998406 2.25,2.25 v 1 A 0.75,0.75 0 0 0 23,18.75 0.75,0.75 0 0 0 23.75,18 v -1 c 0,-2.062203 -1.687797,-3.75 -3.75,-3.75 z"
     id="path6" />
  <path
     style="color:#000000;fill:currentColor;stroke-linecap:round;stroke-linejoin:round;-inkscape-stroke:none"
     d="M 12,5.25 C 9.9377819,5.25 8.25,6.9378347 8.25,9 c 0,2.062203 1.687797,3.75 3.75,3.75 2.062203,0 3.75,-1.687797 3.75,-3.75 0,-2.0621653 -1.687782,-3.75 -3.75,-3.75 z m 0,1.5 c 1.251579,0 2.25,0.9984686 2.25,2.25 0,1.251594 -0.998406,2.25 -2.25,2.25 C 10.748406,11.25 9.75,10.251594 9.75,9 9.75,7.7484686 10.748421,6.75 12,6.75 Z"
     id="path8" />
  <path
     style="color:#000000;fill:currentColor;stroke-linecap:round;stroke-linejoin:round;-inkscape-stroke:none"
     d="m 4,9.25 c -1.5098846,0 -2.75,1.240083 -2.75,2.75 0,1.509917 1.2401154,2.75 2.75,2.75 1.5098846,0 2.75,-1.240083 2.75,-2.75 C 6.75,10.490083 5.5098846,9.25 4,9.25 Z m 0,1.5 c 0.6992532,0 1.25,0.550719 1.25,1.25 0,0.699281 -0.5507468,1.25 -1.25,1.25 -0.6992532,0 -1.25,-0.550719 -1.25,-1.25 0,-0.699281 0.5507468,-1.25 1.25,-1.25 z"
     id="path10" />
  <path
     style="color:#000000;fill:currentColor;stroke-linecap:round;stroke-linejoin:round;-inkscape-stroke:none"
     d="m 20,9.25 c -1.509904,0 -2.75,1.240096 -2.75,2.75 0,1.509904 1.240096,2.75 2.75,2.75 1.509904,0 2.75,-1.240096 2.75,-2.75 0,-1.509904 -1.240096,-2.75 -2.75,-2.75 z m 0,1.5 c 0.699294,0 1.25,0.550706 1.25,1.25 0,0.699294 -0.550706,1.25 -1.25,1.25 -0.699294,0 -1.25,-0.550706 -1.25,-1.25 0,-0.699294 0.550706,-1.25 1.25,-1.25 z"
     id="path12" />
</svg>
