<?xml version="1.0" encoding="UTF-8" standalone="no"?>
<svg
   width="24"
   height="24"
   viewBox="0 0 24 24"
   stroke-width="1.5"
   fill="none"
   version="1.1"
   id="svg8"
   sodipodi:docname="commodity.svg"
   inkscape:version="1.2.1 (9c6d41e410, 2022-07-14)"
   xmlns:inkscape="http://www.inkscape.org/namespaces/inkscape"
   xmlns:sodipodi="http://sodipodi.sourceforge.net/DTD/sodipodi-0.dtd"
   xmlns="http://www.w3.org/2000/svg"
   xmlns:svg="http://www.w3.org/2000/svg">
  <defs
     id="defs12" />
  <sodipodi:namedview
     id="namedview10"
     pagecolor="#ffffff"
     bordercolor="#666666"
     borderopacity="1.0"
     inkscape:showpageshadow="2"
     inkscape:pageopacity="0.0"
     inkscape:pagecheckerboard="0"
     inkscape:deskcolor="#d1d1d1"
     showgrid="false"
     inkscape:zoom="34.541667"
     inkscape:cx="10.364294"
     inkscape:cy="12.014475"
     inkscape:window-width="1920"
     inkscape:window-height="1009"
     inkscape:window-x="1912"
     inkscape:window-y="-8"
     inkscape:window-maximized="1"
     inkscape:current-layer="svg8" />
  <path
     style="color:#000000;fill:currentColor;stroke-linecap:round;-inkscape-stroke:none"
     d="m 13.917969,11.25 c -0.637081,0 -1.194872,0.455847 -1.322266,1.080078 l -1.183594,5.800781 C 11.244524,18.952006 11.896267,19.75 12.734375,19.75 h 8.53125 c 0.838108,0 1.489851,-0.797994 1.322266,-1.619141 L 21.404297,12.330078 C 21.276903,11.705847 20.719112,11.25 20.082031,11.25 Z m 0.125,1.5 h 5.914062 l 1.125,5.5 h -8.164062 z"
     id="path2" />
  <path
     style="color:#000000;fill:currentColor;stroke-linecap:round;-inkscape-stroke:none"
     d="M 8.9179688,4.25 C 8.2809625,4.25 7.7230759,4.7059271 7.5957031,5.3300781 L 6.4121094,11.130859 C 6.244524,11.952006 6.8962648,12.75 7.734375,12.75 h 8.53125 c 0.838108,0 1.489851,-0.797994 1.322266,-1.619141 L 16.404297,5.3300781 C 16.276925,4.7058236 15.719042,4.25 15.082031,4.25 Z m 0.125,1.5 h 5.9140622 l 1.125,5.5 H 7.9179687 Z"
     id="path4" />
  <path
     style="color:#000000;fill:currentColor;stroke-linecap:round;-inkscape-stroke:none"
     d="m 3.9179688,11.25 c -0.6370765,0 -1.1948703,0.45595 -1.3222657,1.080078 L 1.4121094,18.130859 C 1.244524,18.952006 1.8962648,19.75 2.734375,19.75 h 8.53125 c 0.838108,0 1.489851,-0.797994 1.322266,-1.619141 L 11.404297,12.330078 C 11.276903,11.705847 10.719112,11.25 10.082031,11.25 Z m 0.1249999,1.5 h 5.9140626 l 1.1249997,5.5 H 2.9179688 Z"
     id="path6" />
</svg>
