<?xml version="1.0" encoding="UTF-8" standalone="no"?>
<svg
   width="24"
   height="24"
   stroke-width="1.5"
   viewBox="0 0 24 24"
   fill="none"
   version="1.1"
   id="svg8"
   sodipodi:docname="computer.svg"
   inkscape:version="1.2.1 (9c6d41e410, 2022-07-14)"
   xmlns:inkscape="http://www.inkscape.org/namespaces/inkscape"
   xmlns:sodipodi="http://sodipodi.sourceforge.net/DTD/sodipodi-0.dtd"
   xmlns="http://www.w3.org/2000/svg"
   xmlns:svg="http://www.w3.org/2000/svg">
  <defs
     id="defs12" />
  <sodipodi:namedview
     id="namedview10"
     pagecolor="#ffffff"
     bordercolor="#666666"
     borderopacity="1.0"
     inkscape:showpageshadow="2"
     inkscape:pageopacity="0.0"
     inkscape:pagecheckerboard="0"
     inkscape:deskcolor="#d1d1d1"
     showgrid="false"
     inkscape:zoom="34.541667"
     inkscape:cx="10.364294"
     inkscape:cy="12.014475"
     inkscape:window-width="1920"
     inkscape:window-height="1009"
     inkscape:window-x="1912"
     inkscape:window-y="-8"
     inkscape:window-maximized="1"
     inkscape:current-layer="svg8" />
  <path
     style="color:#000000;fill:currentColor;stroke-linecap:round;stroke-linejoin:round;-inkscape-stroke:none"
     d="M 2,20.25 A 0.75,0.75 0 0 0 1.25,21 0.75,0.75 0 0 0 2,21.75 H 17 A 0.75,0.75 0 0 0 17.75,21 0.75,0.75 0 0 0 17,20.25 Z"
     id="path2" />
  <path
     style="color:#000000;fill:currentColor;stroke-linecap:round;stroke-linejoin:round;-inkscape-stroke:none"
     d="M 21,20.25 A 0.75,0.75 0 0 0 20.25,21 0.75,0.75 0 0 0 21,21.75 h 1 A 0.75,0.75 0 0 0 22.75,21 0.75,0.75 0 0 0 22,20.25 Z"
     id="path4" />
  <path
     style="color:#000000;fill:currentColor;-inkscape-stroke:none"
     d="M 2.5996094,2.25 C 1.8629077,2.25 1.25,2.8629077 1.25,3.5996094 V 16.400391 C 1.25,17.137086 1.862953,17.75 2.5996094,17.75 H 21.400391 C 22.13704,17.75 22.75,17.13704 22.75,16.400391 V 3.5996094 C 22.75,2.862953 22.137086,2.25 21.400391,2.25 Z M 2.75,3.75 h 18.5 v 12.5 H 2.75 Z"
     id="path6" />
</svg>
