<?xml version="1.0" encoding="UTF-8" standalone="no"?>
<svg
   width="24"
   height="24"
   viewBox="0 0 24 24"
   stroke-width="1.5"
   fill="none"
   version="1.1"
   id="svg10"
   sodipodi:docname="component.svg"
   inkscape:version="1.2.1 (9c6d41e410, 2022-07-14)"
   xmlns:inkscape="http://www.inkscape.org/namespaces/inkscape"
   xmlns:sodipodi="http://sodipodi.sourceforge.net/DTD/sodipodi-0.dtd"
   xmlns="http://www.w3.org/2000/svg"
   xmlns:svg="http://www.w3.org/2000/svg">
  <defs
     id="defs14" />
  <sodipodi:namedview
     id="namedview12"
     pagecolor="#ffffff"
     bordercolor="#666666"
     borderopacity="1.0"
     inkscape:showpageshadow="2"
     inkscape:pageopacity="0.0"
     inkscape:pagecheckerboard="0"
     inkscape:deskcolor="#d1d1d1"
     showgrid="false"
     inkscape:zoom="34.541667"
     inkscape:cx="10.364294"
     inkscape:cy="12.014475"
     inkscape:window-width="1920"
     inkscape:window-height="1009"
     inkscape:window-x="1912"
     inkscape:window-y="-8"
     inkscape:window-maximized="1"
     inkscape:current-layer="svg10" />
  <path
     style="color:#000000;fill:currentColor;-inkscape-stroke:none"
     d="m 5.6367187,7.9667969 c -0.3470618,-6e-7 -0.6946124,0.1301704 -0.9550781,0.390625 l -2.6875,2.6875001 c -0.5207031,0.520881 -0.5207031,1.389275 0,1.910156 l 2.6875,2.6875 c 0.5209375,0.520893 1.3872695,0.520912 1.9082031,0 l 2.6875001,-2.6875 c 0.5206869,-0.520887 0.5206869,-1.389269 0,-1.910156 L 6.5898437,8.3574219 C 6.32938,8.0969581 5.9837806,7.9667974 5.6367187,7.9667969 Z m 0,1.5585937 L 8.1113281,12 5.6367187,14.474609 3.1601563,12 Z"
     id="path2" />
  <path
     style="color:#000000;fill:currentColor;-inkscape-stroke:none"
     d="m 12,14.332031 c -0.347049,-5e-6 -0.694594,0.130252 -0.955078,0.390625 l -2.685547,2.685547 c -0.5209458,0.520924 -0.5209458,1.389233 0,1.910156 l 2.685547,2.6875 c 0.520907,0.520908 1.389288,0.521091 1.910156,0 l 2.6875,-2.6875 c 0.52093,-0.520929 0.52093,-1.389226 0,-1.910156 l -2.6875,-2.685547 C 12.694613,14.462191 12.347049,14.332037 12,14.332031 Z m 0,1.556641 2.474609,2.474609 L 12,20.839844 9.5253906,18.363281 Z"
     id="path4" />
  <path
     style="color:#000000;fill:currentColor;-inkscape-stroke:none"
     d="m 12,1.6035156 c -0.347056,-5.3e-6 -0.694597,0.1302438 -0.955078,0.390625 l -2.685547,2.6875 c -0.5209275,0.5209275 -0.5209275,1.3872757 0,1.9082031 l 2.685547,2.6875001 c 0.520962,0.5207624 1.389233,0.5209458 1.910156,0 l 2.6875,-2.6875001 c 0.520912,-0.5209336 0.520912,-1.3872695 0,-1.9082031 l -2.6875,-2.6875 C 12.694616,1.7336677 12.347056,1.603521 12,1.6035156 Z M 12,3.1601563 14.474609,5.6367187 12,8.1113281 9.5253906,5.6367187 Z"
     id="path6" />
  <path
     style="color:#000000;fill:currentColor;-inkscape-stroke:none"
     d="m 18.363281,7.9667969 c -0.347056,-5.4e-6 -0.692644,0.1302438 -0.953125,0.390625 l -2.6875,2.6875001 c -0.520671,0.520893 -0.520671,1.389263 0,1.910156 l 2.6875,2.6875 c 0.520969,0.520746 1.387274,0.52093 1.908203,0 l 2.6875,-2.6875 c 0.520671,-0.520893 0.520671,-1.389263 0,-1.910156 l -2.6875,-2.685547 C 19.057898,8.0989021 18.710337,7.9668022 18.363281,7.9667969 Z m 0,1.5585937 L 20.839844,12 18.363281,14.474609 15.888672,12 Z"
     id="path8" />
</svg>
