<?xml version="1.0" encoding="UTF-8" standalone="no"?>
<svg
   width="24"
   height="24"
   stroke-width="1.5"
   viewBox="0 0 24 24"
   fill="none"
   version="1.1"
   id="svg6"
   sodipodi:docname="control-slider.svg"
   inkscape:version="1.2.1 (9c6d41e410, 2022-07-14)"
   xmlns:inkscape="http://www.inkscape.org/namespaces/inkscape"
   xmlns:sodipodi="http://sodipodi.sourceforge.net/DTD/sodipodi-0.dtd"
   xmlns="http://www.w3.org/2000/svg"
   xmlns:svg="http://www.w3.org/2000/svg">
  <defs
     id="defs10" />
  <sodipodi:namedview
     id="namedview8"
     pagecolor="#ffffff"
     bordercolor="#666666"
     borderopacity="1.0"
     inkscape:showpageshadow="2"
     inkscape:pageopacity="0.0"
     inkscape:pagecheckerboard="0"
     inkscape:deskcolor="#d1d1d1"
     showgrid="false"
     inkscape:zoom="34.541667"
     inkscape:cx="10.364294"
     inkscape:cy="12.014475"
     inkscape:window-width="1920"
     inkscape:window-height="1009"
     inkscape:window-x="1912"
     inkscape:window-y="-8"
     inkscape:window-maximized="1"
     inkscape:current-layer="svg6" />
  <path
     style="color:#000000;fill:currentColor;-inkscape-stroke:none"
     d="m 7.3066406,4.25 c -1.6599461,0 -2.957403,1.4954173 -2.7226562,3.1386719 L 6.0117187,17.388672 C 6.2044734,18.737927 7.3713983,19.75 8.734375,19.75 h 0.53125 c 1.36297,0 2.529975,-1.012012 2.722656,-2.361328 L 13.416016,7.3886719 C 13.650732,5.745424 12.353301,4.25 10.693359,4.25 Z m 0,1.5 h 3.3867184 c 0.774256,0 1.347765,0.6612446 1.238282,1.4277344 l -1.429688,9.9980466 v 0.002 C 10.413235,17.799016 9.8932326,18.25 9.265625,18.25 h -0.53125 c -0.6276213,0 -1.1475631,-0.452876 -1.2363281,-1.074219 L 6.0683594,7.1777344 C 5.9588665,6.4112713 6.5323892,5.75 7.3066406,5.75 Z"
     id="path2" />
  <path
     style="color:#000000;fill:currentColor;stroke-linecap:round;stroke-linejoin:round;-inkscape-stroke:none"
     d="M 2,11.25 A 0.75,0.75 0 0 0 1.25,12 0.75,0.75 0 0 0 2,12.75 H 6 A 0.75,0.75 0 0 0 6.75,12 0.75,0.75 0 0 0 6,11.25 Z m 10,0 A 0.75,0.75 0 0 0 11.25,12 0.75,0.75 0 0 0 12,12.75 H 22 A 0.75,0.75 0 0 0 22.75,12 0.75,0.75 0 0 0 22,11.25 Z"
     id="path4" />
</svg>
