<?xml version="1.0" encoding="UTF-8" standalone="no"?>
<svg
   width="24"
   height="24"
   stroke-width="1.5"
   viewBox="0 0 24 24"
   fill="none"
   version="1.1"
   id="svg18"
   sodipodi:docname="cookie.svg"
   inkscape:version="1.2.1 (9c6d41e410, 2022-07-14)"
   xmlns:inkscape="http://www.inkscape.org/namespaces/inkscape"
   xmlns:sodipodi="http://sodipodi.sourceforge.net/DTD/sodipodi-0.dtd"
   xmlns="http://www.w3.org/2000/svg"
   xmlns:svg="http://www.w3.org/2000/svg">
  <defs
     id="defs22" />
  <sodipodi:namedview
     id="namedview20"
     pagecolor="#ffffff"
     bordercolor="#666666"
     borderopacity="1.0"
     inkscape:showpageshadow="2"
     inkscape:pageopacity="0.0"
     inkscape:pagecheckerboard="0"
     inkscape:deskcolor="#d1d1d1"
     showgrid="false"
     inkscape:zoom="34.541667"
     inkscape:cx="10.364294"
     inkscape:cy="12.014475"
     inkscape:window-width="1920"
     inkscape:window-height="1009"
     inkscape:window-x="1912"
     inkscape:window-y="-8"
     inkscape:window-maximized="1"
     inkscape:current-layer="svg18" />
  <path
     style="color:#000000;fill:currentColor;stroke-linecap:round;stroke-linejoin:round;-inkscape-stroke:none"
     d="M 12,1.25 C 6.0718263,1.25 1.25,6.0718263 1.25,12 1.25,17.928127 6.0718217,22.75 12,22.75 17.928132,22.75 22.75,17.928132 22.75,12 22.75,6.0718217 17.928127,1.25 12,1.25 Z m 0,1.5 c 5.117462,0 9.25,4.1324893 9.25,9.25 0,5.117457 -4.132543,9.25 -9.25,9.25 C 6.8824893,21.25 2.75,17.117462 2.75,12 2.75,6.8824848 6.8824848,2.75 12,2.75 Z"
     id="path2" />
  <path
     style="color:#000000;fill:currentColor;stroke-linecap:round;stroke-linejoin:round;-inkscape-stroke:none"
     d="m 7.5,9.25 c -0.6815496,0 -1.25,0.5685041 -1.25,1.25 0,0.681496 0.5684504,1.25 1.25,1.25 0.6815496,0 1.25,-0.568504 1.25,-1.25 C 8.75,9.8185041 8.1815496,9.25 7.5,9.25 Z m 0,1 c 0.1292702,0 0.25,0.120704 0.25,0.25 0,0.129296 -0.1207298,0.25 -0.25,0.25 -0.1292702,0 -0.25,-0.120704 -0.25,-0.25 0,-0.129296 0.1207298,-0.25 0.25,-0.25 z"
     id="path4" />
  <path
     style="color:#000000;fill:currentColor;stroke-linecap:round;stroke-linejoin:round;-inkscape-stroke:none"
     d="m 13,15.25 c -0.957604,0 -1.75,0.792396 -1.75,1.75 0,0.957604 0.792396,1.75 1.75,1.75 0.957604,0 1.75,-0.792396 1.75,-1.75 0,-0.957604 -0.792396,-1.75 -1.75,-1.75 z m 0,1.5 c 0.146995,0 0.25,0.103005 0.25,0.25 0,0.146995 -0.103005,0.25 -0.25,0.25 -0.146995,0 -0.25,-0.103005 -0.25,-0.25 0,-0.146995 0.103005,-0.25 0.25,-0.25 z"
     id="path6" />
  <path
     style="color:#000000;fill:currentColor;stroke-linecap:round;stroke-linejoin:round;-inkscape-stroke:none"
     d="m 10.970703,6.25 a 0.75,0.75 0 0 0 -0.517578,0.2480469 l -0.0098,0.00977 a 0.75,0.75 0 0 0 0.05469,1.0605469 0.75,0.75 0 0 0 1.058594,-0.056641 L 11.568359,7.5 A 0.75,0.75 0 0 0 11.511719,6.4414062 0.75,0.75 0 0 0 10.970703,6.25 Z"
     id="path8" />
  <path
     style="color:#000000;fill:currentColor;stroke-linecap:round;stroke-linejoin:round;-inkscape-stroke:none"
     d="m 8.5117188,15.441406 a 0.75,0.75 0 0 0 -1.0585938,0.05469 l -0.00977,0.01172 a 0.75,0.75 0 0 0 0.054687,1.058593 0.75,0.75 0 0 0 1.0585937,-0.05469 L 8.5664063,16.5 a 0.75,0.75 0 0 0 -0.054687,-1.058594 z"
     id="path10" />
  <path
     style="color:#000000;fill:currentColor;stroke-linecap:round;stroke-linejoin:round;-inkscape-stroke:none"
     d="m 15.970703,8.25 a 0.75,0.75 0 0 0 -0.517578,0.2480469 l -0.0098,0.00977 a 0.75,0.75 0 0 0 0.05469,1.0605469 0.75,0.75 0 0 0 1.058594,-0.056641 L 16.568359,9.5 A 0.75,0.75 0 0 0 16.511719,8.4414063 0.75,0.75 0 0 0 15.970703,8.25 Z"
     id="path12" />
  <path
     style="color:#000000;fill:currentColor;stroke-linecap:round;stroke-linejoin:round;-inkscape-stroke:none"
     d="m 16.970703,13.25 a 0.75,0.75 0 0 0 -0.517578,0.246094 l -0.0098,0.01172 a 0.75,0.75 0 0 0 0.05469,1.058593 0.75,0.75 0 0 0 1.058594,-0.05469 L 17.566406,14.5 A 0.75,0.75 0 0 0 17.511719,13.441406 0.75,0.75 0 0 0 16.970703,13.25 Z"
     id="path14" />
  <path
     style="color:#000000;fill:currentColor;stroke-linecap:round;stroke-linejoin:round;-inkscape-stroke:none"
     d="m 12.970703,11.25 a 0.75,0.75 0 0 0 -0.517578,0.246094 l -0.0098,0.01172 a 0.75,0.75 0 0 0 0.05469,1.058593 0.75,0.75 0 0 0 1.058594,-0.05469 L 13.566406,12.5 A 0.75,0.75 0 0 0 13.511719,11.441406 0.75,0.75 0 0 0 12.970703,11.25 Z"
     id="path16" />
</svg>
