<?xml version="1.0" encoding="UTF-8" standalone="no"?>
<svg
   width="24"
   height="24"
   viewBox="0 0 24 24"
   stroke-width="1.5"
   fill="none"
   version="1.1"
   id="svg6"
   sodipodi:docname="cooling-square.svg"
   inkscape:version="1.2.1 (9c6d41e410, 2022-07-14)"
   xmlns:inkscape="http://www.inkscape.org/namespaces/inkscape"
   xmlns:sodipodi="http://sodipodi.sourceforge.net/DTD/sodipodi-0.dtd"
   xmlns="http://www.w3.org/2000/svg"
   xmlns:svg="http://www.w3.org/2000/svg">
  <defs
     id="defs10" />
  <sodipodi:namedview
     id="namedview8"
     pagecolor="#ffffff"
     bordercolor="#666666"
     borderopacity="1.0"
     inkscape:showpageshadow="2"
     inkscape:pageopacity="0.0"
     inkscape:pagecheckerboard="0"
     inkscape:deskcolor="#d1d1d1"
     showgrid="false"
     inkscape:zoom="34.541667"
     inkscape:cx="10.364294"
     inkscape:cy="12.014475"
     inkscape:window-width="1920"
     inkscape:window-height="1009"
     inkscape:window-x="1912"
     inkscape:window-y="-8"
     inkscape:window-maximized="1"
     inkscape:current-layer="svg6" />
  <path
     style="color:#000000;fill:currentColor;stroke-linecap:round;stroke-linejoin:round;-inkscape-stroke:none"
     d="M 3.5996094,2.25 C 2.8629077,2.25 2.25,2.8629077 2.25,3.5996094 V 20.400391 C 2.25,21.137086 2.862953,21.75 3.5996094,21.75 H 20.400391 C 21.13704,21.75 21.75,21.13704 21.75,20.400391 V 3.5996094 C 21.75,2.862953 21.137086,2.25 20.400391,2.25 Z M 3.75,3.75 h 16.5 v 16.5 H 3.75 Z"
     id="path2" />
  <path
     style="color:#000000;fill:currentColor;stroke-linecap:round;stroke-linejoin:round;-inkscape-stroke:none"
     d="M 12,6.25 A 0.75,0.75 0 0 0 11.25,7 v 3.724609 L 7.8632812,8.84375 A 0.75,0.75 0 0 0 6.84375,9.1367188 0.75,0.75 0 0 0 7.1367187,10.15625 L 10.455078,12 7.1367187,13.84375 A 0.75,0.75 0 0 0 6.84375,14.863281 0.75,0.75 0 0 0 7.8632812,15.15625 L 11.25,13.275391 V 17 A 0.75,0.75 0 0 0 12,17.75 0.75,0.75 0 0 0 12.75,17 v -3.724609 l 3.386719,1.880859 A 0.75,0.75 0 0 0 17.15625,14.863281 0.75,0.75 0 0 0 16.863281,13.84375 L 13.544922,12 16.863281,10.15625 A 0.75,0.75 0 0 0 17.15625,9.1367188 0.75,0.75 0 0 0 16.136719,8.84375 L 12.75,10.724609 V 7 A 0.75,0.75 0 0 0 12,6.25 Z"
     id="path4" />
</svg>
