<?xml version="1.0" encoding="UTF-8" standalone="no"?>
<svg
   width="24"
   height="24"
   stroke-width="1.5"
   viewBox="0 0 24 24"
   fill="none"
   version="1.1"
   id="svg26"
   sodipodi:docname="corner-bottom-right.svg"
   inkscape:version="1.2.1 (9c6d41e410, 2022-07-14)"
   xmlns:inkscape="http://www.inkscape.org/namespaces/inkscape"
   xmlns:sodipodi="http://sodipodi.sourceforge.net/DTD/sodipodi-0.dtd"
   xmlns="http://www.w3.org/2000/svg"
   xmlns:svg="http://www.w3.org/2000/svg">
  <defs
     id="defs30" />
  <sodipodi:namedview
     id="namedview28"
     pagecolor="#ffffff"
     bordercolor="#666666"
     borderopacity="1.0"
     inkscape:showpageshadow="2"
     inkscape:pageopacity="0.0"
     inkscape:pagecheckerboard="0"
     inkscape:deskcolor="#d1d1d1"
     showgrid="false"
     inkscape:zoom="34.541667"
     inkscape:cx="10.364294"
     inkscape:cy="12.014475"
     inkscape:window-width="1920"
     inkscape:window-height="1009"
     inkscape:window-x="1912"
     inkscape:window-y="-8"
     inkscape:window-maximized="1"
     inkscape:current-layer="svg26" />
  <path
     style="color:#000000;fill:currentColor;stroke-linecap:round;stroke-linejoin:round;-inkscape-stroke:none"
     d="m 19.970703,7.2519531 a 0.75,0.75 0 0 0 -0.517578,0.2460938 l -0.0098,0.011719 a 0.75,0.75 0 0 0 0.05469,1.0585938 0.75,0.75 0 0 0 1.058594,-0.054687 l 0.01172,-0.011719 A 0.75,0.75 0 0 0 20.511719,7.4433594 0.75,0.75 0 0 0 19.970703,7.2519531 Z"
     id="path2" />
  <path
     style="color:#000000;fill:currentColor;stroke-linecap:round;stroke-linejoin:round;-inkscape-stroke:none"
     d="m 19.970703,3.2519531 a 0.75,0.75 0 0 0 -0.517578,0.2460938 l -0.0098,0.011719 a 0.75,0.75 0 0 0 0.05469,1.0585938 0.75,0.75 0 0 0 1.058594,-0.054687 l 0.01172,-0.011719 A 0.75,0.75 0 0 0 20.511719,3.4433594 0.75,0.75 0 0 0 19.970703,3.2519531 Z"
     id="path4" />
  <path
     style="color:#000000;fill:currentColor;stroke-linecap:round;stroke-linejoin:round;-inkscape-stroke:none"
     d="m 15.970703,3.2519531 a 0.75,0.75 0 0 0 -0.517578,0.2460938 l -0.0098,0.011719 a 0.75,0.75 0 0 0 0.05469,1.0585938 0.75,0.75 0 0 0 1.058594,-0.054687 l 0.01172,-0.011719 A 0.75,0.75 0 0 0 16.511719,3.4433594 0.75,0.75 0 0 0 15.970703,3.2519531 Z"
     id="path6" />
  <path
     style="color:#000000;fill:currentColor;stroke-linecap:round;stroke-linejoin:round;-inkscape-stroke:none"
     d="m 12.511719,3.4433594 a 0.75,0.75 0 0 0 -1.058594,0.054687 l -0.0098,0.011719 a 0.75,0.75 0 0 0 0.05469,1.0585938 0.75,0.75 0 0 0 1.058594,-0.054687 l 0.01172,-0.011719 a 0.75,0.75 0 0 0 -0.05664,-1.0585937 z"
     id="path8" />
  <path
     style="color:#000000;fill:currentColor;stroke-linecap:round;stroke-linejoin:round;-inkscape-stroke:none"
     d="M 8.5117188,3.4433594 A 0.75,0.75 0 0 0 7.453125,3.4980469 l -0.00977,0.011719 a 0.75,0.75 0 0 0 0.054687,1.0585938 0.75,0.75 0 0 0 1.0585937,-0.054687 l 0.011719,-0.011719 A 0.75,0.75 0 0 0 8.5117188,3.4433594 Z"
     id="path10" />
  <path
     style="color:#000000;fill:currentColor;stroke-linecap:round;stroke-linejoin:round;-inkscape-stroke:none"
     d="M 3.9707031,3.2519531 A 0.75,0.75 0 0 0 3.453125,3.4980469 l -0.00977,0.011719 a 0.75,0.75 0 0 0 0.054687,1.0585938 0.75,0.75 0 0 0 1.0585937,-0.054687 l 0.011719,-0.011719 A 0.75,0.75 0 0 0 4.5117187,3.4433594 0.75,0.75 0 0 0 3.9707031,3.2519531 Z"
     id="path12" />
  <path
     style="color:#000000;fill:currentColor;stroke-linecap:round;stroke-linejoin:round;-inkscape-stroke:none"
     d="M 3.9707031,7.2519531 A 0.75,0.75 0 0 0 3.453125,7.4980469 l -0.00977,0.011719 a 0.75,0.75 0 0 0 0.054687,1.0585938 0.75,0.75 0 0 0 1.0585937,-0.054687 l 0.011719,-0.011719 A 0.75,0.75 0 0 0 4.5117187,7.4433594 0.75,0.75 0 0 0 3.9707031,7.2519531 Z"
     id="path14" />
  <path
     style="color:#000000;fill:currentColor;stroke-linecap:round;stroke-linejoin:round;-inkscape-stroke:none"
     d="M 3.9707031,11.251953 A 0.75,0.75 0 0 0 3.453125,11.498047 l -0.00977,0.01172 a 0.75,0.75 0 0 0 0.054687,1.058593 0.75,0.75 0 0 0 1.0585937,-0.05469 l 0.00977,-0.01172 A 0.75,0.75 0 0 0 4.5117187,11.443359 0.75,0.75 0 0 0 3.9707031,11.251953 Z"
     id="path16" />
  <path
     style="color:#000000;fill:currentColor;stroke-linecap:round;stroke-linejoin:round;-inkscape-stroke:none"
     d="M 3.9707031,15.251953 A 0.75,0.75 0 0 0 3.453125,15.498047 l -0.00977,0.01172 a 0.75,0.75 0 0 0 0.054687,1.058593 0.75,0.75 0 0 0 1.0585937,-0.05469 l 0.00977,-0.01172 A 0.75,0.75 0 0 0 4.5117187,15.443359 0.75,0.75 0 0 0 3.9707031,15.251953 Z"
     id="path18" />
  <path
     style="color:#000000;fill:currentColor;stroke-linecap:round;stroke-linejoin:round;-inkscape-stroke:none"
     d="M 3.9707031,19.251953 A 0.75,0.75 0 0 0 3.453125,19.498047 l -0.00977,0.01172 a 0.75,0.75 0 0 0 0.054687,1.058593 0.75,0.75 0 0 0 1.0585937,-0.05469 l 0.00977,-0.01172 A 0.75,0.75 0 0 0 4.5117187,19.443359 0.75,0.75 0 0 0 3.9707031,19.251953 Z"
     id="path20" />
  <path
     style="color:#000000;fill:currentColor;stroke-linecap:round;stroke-linejoin:round;-inkscape-stroke:none"
     d="M 7.9707031,19.251953 A 0.75,0.75 0 0 0 7.453125,19.498047 l -0.00977,0.01172 a 0.75,0.75 0 0 0 0.054687,1.058593 0.75,0.75 0 0 0 1.0585937,-0.05469 l 0.00977,-0.01172 A 0.75,0.75 0 0 0 8.5117188,19.443359 0.75,0.75 0 0 0 7.9707031,19.251953 Z"
     id="path22" />
  <path
     style="color:#000000;fill:currentColor;stroke-linecap:round;stroke-linejoin:round;-inkscape-stroke:none"
     d="m 12.009766,11.259766 a 0.750075,0.750075 0 0 0 -0.75,0.75 v 8 a 0.750075,0.750075 0 0 0 0.75,0.75 h 8 a 0.750075,0.750075 0 0 0 0.75,-0.75 v -8 a 0.750075,0.750075 0 0 0 -0.75,-0.75 z m 0.75,1.5 h 6.5 v 6.5 h -6.5 z"
     id="path24" />
</svg>
