<?xml version="1.0" encoding="UTF-8" standalone="no"?>
<svg
   width="24"
   height="24"
   stroke-width="1.5"
   viewBox="0 0 24 24"
   fill="none"
   version="1.1"
   id="svg26"
   sodipodi:docname="corner-top-right.svg"
   inkscape:version="1.2.1 (9c6d41e410, 2022-07-14)"
   xmlns:inkscape="http://www.inkscape.org/namespaces/inkscape"
   xmlns:sodipodi="http://sodipodi.sourceforge.net/DTD/sodipodi-0.dtd"
   xmlns="http://www.w3.org/2000/svg"
   xmlns:svg="http://www.w3.org/2000/svg">
  <defs
     id="defs30" />
  <sodipodi:namedview
     id="namedview28"
     pagecolor="#ffffff"
     bordercolor="#666666"
     borderopacity="1.0"
     inkscape:showpageshadow="2"
     inkscape:pageopacity="0.0"
     inkscape:pagecheckerboard="0"
     inkscape:deskcolor="#d1d1d1"
     showgrid="false"
     inkscape:zoom="34.541667"
     inkscape:cx="10.364294"
     inkscape:cy="12.014475"
     inkscape:window-width="1920"
     inkscape:window-height="1009"
     inkscape:window-x="1912"
     inkscape:window-y="-8"
     inkscape:window-maximized="1"
     inkscape:current-layer="svg26" />
  <path
     style="color:#000000;fill:currentColor;stroke-linecap:round;stroke-linejoin:round;-inkscape-stroke:none"
     d="M 20.039062,15.25 A 0.75,0.75 0 0 0 19.498047,15.441406 0.75,0.75 0 0 0 19.443359,16.5 l 0.0098,0.01172 a 0.75,0.75 0 0 0 1.058594,0.05469 0.75,0.75 0 0 0 0.05469,-1.058593 l -0.0098,-0.01172 A 0.75,0.75 0 0 0 20.039062,15.25 Z"
     id="path2" />
  <path
     style="color:#000000;fill:currentColor;stroke-linecap:round;stroke-linejoin:round;-inkscape-stroke:none"
     d="M 19.498047,19.441406 A 0.75,0.75 0 0 0 19.443359,20.5 l 0.0098,0.01172 a 0.75,0.75 0 0 0 1.058594,0.05469 0.75,0.75 0 0 0 0.05469,-1.058594 l -0.0098,-0.01172 a 0.75,0.75 0 0 0 -1.058594,-0.05469 z"
     id="path4" />
  <path
     style="color:#000000;fill:currentColor;stroke-linecap:round;stroke-linejoin:round;-inkscape-stroke:none"
     d="M 16.039062,19.25 A 0.75,0.75 0 0 0 15.498047,19.441406 0.75,0.75 0 0 0 15.443359,20.5 l 0.0098,0.01172 a 0.75,0.75 0 0 0 1.058594,0.05469 0.75,0.75 0 0 0 0.05469,-1.058594 l -0.0098,-0.01172 A 0.75,0.75 0 0 0 16.039062,19.25 Z"
     id="path6" />
  <path
     style="color:#000000;fill:currentColor;stroke-linecap:round;stroke-linejoin:round;-inkscape-stroke:none"
     d="M 11.498047,19.441406 A 0.75,0.75 0 0 0 11.443359,20.5 l 0.0098,0.01172 a 0.75,0.75 0 0 0 1.058594,0.05469 0.75,0.75 0 0 0 0.05469,-1.058594 l -0.0098,-0.01172 a 0.75,0.75 0 0 0 -1.058594,-0.05469 z"
     id="path8" />
  <path
     style="color:#000000;fill:currentColor;stroke-linecap:round;stroke-linejoin:round;-inkscape-stroke:none"
     d="M 7.4980469,19.441406 A 0.75,0.75 0 0 0 7.4433594,20.5 l 0.00977,0.01172 a 0.75,0.75 0 0 0 1.0585938,0.05469 0.75,0.75 0 0 0 0.054687,-1.058594 l -0.00977,-0.01172 a 0.75,0.75 0 0 0 -1.0585937,-0.05469 z"
     id="path10" />
  <path
     style="color:#000000;fill:currentColor;stroke-linecap:round;stroke-linejoin:round;-inkscape-stroke:none"
     d="M 4.0390625,19.25 A 0.75,0.75 0 0 0 3.4980469,19.441406 0.75,0.75 0 0 0 3.4433594,20.5 l 0.00977,0.01172 a 0.75,0.75 0 0 0 1.0585937,0.05469 0.75,0.75 0 0 0 0.054687,-1.058594 l -0.00977,-0.01172 A 0.75,0.75 0 0 0 4.0390625,19.25 Z"
     id="path12" />
  <path
     style="color:#000000;fill:currentColor;stroke-linecap:round;stroke-linejoin:round;-inkscape-stroke:none"
     d="M 4.0390625,15.25 A 0.75,0.75 0 0 0 3.4980469,15.441406 0.75,0.75 0 0 0 3.4433594,16.5 l 0.00977,0.01172 a 0.75,0.75 0 0 0 1.0585937,0.05469 0.75,0.75 0 0 0 0.054687,-1.058593 l -0.00977,-0.01172 A 0.75,0.75 0 0 0 4.0390625,15.25 Z"
     id="path14" />
  <path
     style="color:#000000;fill:currentColor;stroke-linecap:round;stroke-linejoin:round;-inkscape-stroke:none"
     d="M 4.0390625,11.25 A 0.75,0.75 0 0 0 3.4980469,11.441406 0.75,0.75 0 0 0 3.4433594,12.5 l 0.00977,0.01172 a 0.75,0.75 0 0 0 1.0585937,0.05469 0.75,0.75 0 0 0 0.054687,-1.058593 l -0.00977,-0.01172 A 0.75,0.75 0 0 0 4.0390625,11.25 Z"
     id="path16" />
  <path
     style="color:#000000;fill:currentColor;stroke-linecap:round;stroke-linejoin:round;-inkscape-stroke:none"
     d="M 3.4980469,7.4414062 A 0.75,0.75 0 0 0 3.4433594,8.5 l 0.00977,0.011719 a 0.75,0.75 0 0 0 1.0585937,0.056641 0.75,0.75 0 0 0 0.056641,-1.0605469 l -0.011719,-0.00977 A 0.75,0.75 0 0 0 3.4980469,7.4414062 Z"
     id="path18" />
  <path
     style="color:#000000;fill:currentColor;stroke-linecap:round;stroke-linejoin:round;-inkscape-stroke:none"
     d="M 3.4980469,3.4414063 A 0.75,0.75 0 0 0 3.4433594,4.5 l 0.00977,0.011719 a 0.75,0.75 0 0 0 1.0585937,0.056641 0.75,0.75 0 0 0 0.056641,-1.0605469 l -0.011719,-0.00977 A 0.75,0.75 0 0 0 3.4980469,3.4414063 Z"
     id="path20" />
  <path
     style="color:#000000;fill:currentColor;stroke-linecap:round;stroke-linejoin:round;-inkscape-stroke:none"
     d="M 8.0390625,3.25 A 0.75,0.75 0 0 0 7.4980469,3.4414063 0.75,0.75 0 0 0 7.4433594,4.5 l 0.00977,0.011719 a 0.75,0.75 0 0 0 1.0585938,0.056641 0.75,0.75 0 0 0 0.056641,-1.0605469 l -0.011719,-0.00977 A 0.75,0.75 0 0 0 8.0390625,3.25 Z"
     id="path22" />
  <path
     style="color:#000000;fill:currentColor;stroke-linecap:round;stroke-linejoin:round;-inkscape-stroke:none"
     d="m 12.009766,3.25 a 0.750075,0.750075 0 0 0 -0.75,0.75 v 8 a 0.750075,0.750075 0 0 0 0.75,0.75 h 8 a 0.750075,0.750075 0 0 0 0.75,-0.75 V 4 a 0.750075,0.750075 0 0 0 -0.75,-0.75 z m 0.75,1.5 h 6.5 v 6.5 h -6.5 z"
     id="path24" />
</svg>
