<?xml version="1.0" encoding="UTF-8" standalone="no"?>
<svg
   width="24"
   height="24"
   stroke-width="1.5"
   viewBox="0 0 24 24"
   fill="none"
   version="1.1"
   id="svg28"
   sodipodi:docname="cpu-warning.svg"
   inkscape:version="1.2.1 (9c6d41e410, 2022-07-14)"
   xmlns:inkscape="http://www.inkscape.org/namespaces/inkscape"
   xmlns:sodipodi="http://sodipodi.sourceforge.net/DTD/sodipodi-0.dtd"
   xmlns="http://www.w3.org/2000/svg"
   xmlns:svg="http://www.w3.org/2000/svg">
  <defs
     id="defs32" />
  <sodipodi:namedview
     id="namedview30"
     pagecolor="#ffffff"
     bordercolor="#666666"
     borderopacity="1.0"
     inkscape:showpageshadow="2"
     inkscape:pageopacity="0.0"
     inkscape:pagecheckerboard="0"
     inkscape:deskcolor="#d1d1d1"
     showgrid="false"
     inkscape:zoom="34.541667"
     inkscape:cx="10.364294"
     inkscape:cy="12.014475"
     inkscape:window-width="1920"
     inkscape:window-height="1009"
     inkscape:window-x="1912"
     inkscape:window-y="-8"
     inkscape:window-maximized="1"
     inkscape:current-layer="svg28" />
  <path
     style="color:#000000;fill:currentColor;stroke-linecap:round;stroke-linejoin:round;-inkscape-stroke:none"
     d="M 19,1.25 A 0.75,0.75 0 0 0 18.25,2 V 6 A 0.75,0.75 0 0 0 19,6.75 0.75,0.75 0 0 0 19.75,6 V 2 A 0.75,0.75 0 0 0 19,1.25 Z"
     id="path2" />
  <path
     style="color:#000000;fill:currentColor;stroke-linecap:round;stroke-linejoin:round;-inkscape-stroke:none"
     d="m 18.970703,9.25 a 0.75,0.75 0 0 0 -0.517578,0.2480469 l -0.0098,0.00977 a 0.75,0.75 0 0 0 0.05469,1.0605465 0.75,0.75 0 0 0 1.058594,-0.05664 L 19.568359,10.5 A 0.75,0.75 0 0 0 19.511719,9.4414063 0.75,0.75 0 0 0 18.970703,9.25 Z"
     id="path4" />
  <path
     style="color:#000000;fill:currentColor;stroke-linecap:round;stroke-linejoin:round;-inkscape-stroke:none"
     d="M 8.5996094,7.25 C 7.8629077,7.25 7.25,7.8629077 7.25,8.5996094 V 15.400391 C 7.25,16.137086 7.862953,16.75 8.5996094,16.75 H 15.400391 C 16.13704,16.75 16.75,16.13704 16.75,15.400391 V 14 A 0.75,0.75 0 0 0 16,13.25 0.75,0.75 0 0 0 15.25,14 v 1.25 H 8.75 V 8.75 H 14 A 0.75,0.75 0 0 0 14.75,8 0.75,0.75 0 0 0 14,7.25 Z"
     id="path6" />
  <path
     style="color:#000000;fill:currentColor;stroke-linecap:round;stroke-linejoin:round;-inkscape-stroke:none"
     d="M 4.5996094,3.25 C 3.8629077,3.25 3.25,3.8629077 3.25,4.5996094 V 19.400391 C 3.25,20.137086 3.862953,20.75 4.5996094,20.75 H 19.400391 C 20.13704,20.75 20.75,20.13704 20.75,19.400391 V 14 A 0.75,0.75 0 0 0 20,13.25 0.75,0.75 0 0 0 19.25,14 v 5.25 H 4.75 V 4.75 H 14 A 0.75,0.75 0 0 0 14.75,4 0.75,0.75 0 0 0 14,3.25 Z"
     id="path8" />
  <path
     style="color:#000000;fill:currentColor;stroke-linecap:round;stroke-linejoin:round;-inkscape-stroke:none"
     d="M 20,16.25 A 0.75,0.75 0 0 0 19.25,17 0.75,0.75 0 0 0 20,17.75 h 2 A 0.75,0.75 0 0 0 22.75,17 0.75,0.75 0 0 0 22,16.25 Z"
     id="path10" />
  <path
     style="color:#000000;fill:currentColor;stroke-linecap:round;stroke-linejoin:round;-inkscape-stroke:none"
     d="M 17,19.25 A 0.75,0.75 0 0 0 16.25,20 v 2 A 0.75,0.75 0 0 0 17,22.75 0.75,0.75 0 0 0 17.75,22 V 20 A 0.75,0.75 0 0 0 17,19.25 Z"
     id="path12" />
  <path
     style="color:#000000;fill:currentColor;stroke-linecap:round;stroke-linejoin:round;-inkscape-stroke:none"
     d="M 12,19.25 A 0.75,0.75 0 0 0 11.25,20 v 2 A 0.75,0.75 0 0 0 12,22.75 0.75,0.75 0 0 0 12.75,22 V 20 A 0.75,0.75 0 0 0 12,19.25 Z"
     id="path14" />
  <path
     style="color:#000000;fill:currentColor;stroke-linecap:round;stroke-linejoin:round;-inkscape-stroke:none"
     d="M 7,19.25 A 0.75,0.75 0 0 0 6.25,20 v 2 A 0.75,0.75 0 0 0 7,22.75 0.75,0.75 0 0 0 7.75,22 V 20 A 0.75,0.75 0 0 0 7,19.25 Z"
     id="path16" />
  <path
     style="color:#000000;fill:currentColor;stroke-linecap:round;stroke-linejoin:round;-inkscape-stroke:none"
     d="M 2,16.25 A 0.75,0.75 0 0 0 1.25,17 0.75,0.75 0 0 0 2,17.75 H 4 A 0.75,0.75 0 0 0 4.75,17 0.75,0.75 0 0 0 4,16.25 Z"
     id="path18" />
  <path
     style="color:#000000;fill:currentColor;stroke-linecap:round;stroke-linejoin:round;-inkscape-stroke:none"
     d="M 2,11.25 A 0.75,0.75 0 0 0 1.25,12 0.75,0.75 0 0 0 2,12.75 H 4 A 0.75,0.75 0 0 0 4.75,12 0.75,0.75 0 0 0 4,11.25 Z"
     id="path20" />
  <path
     style="color:#000000;fill:currentColor;stroke-linecap:round;stroke-linejoin:round;-inkscape-stroke:none"
     d="M 2,6.25 A 0.75,0.75 0 0 0 1.25,7 0.75,0.75 0 0 0 2,7.75 H 4 A 0.75,0.75 0 0 0 4.75,7 0.75,0.75 0 0 0 4,6.25 Z"
     id="path22" />
  <path
     style="color:#000000;fill:currentColor;stroke-linecap:round;stroke-linejoin:round;-inkscape-stroke:none"
     d="M 12,1.25 A 0.75,0.75 0 0 0 11.25,2 V 4 A 0.75,0.75 0 0 0 12,4.75 0.75,0.75 0 0 0 12.75,4 V 2 A 0.75,0.75 0 0 0 12,1.25 Z"
     id="path24" />
  <path
     style="color:#000000;fill:currentColor;stroke-linecap:round;stroke-linejoin:round;-inkscape-stroke:none"
     d="M 7,1.25 A 0.75,0.75 0 0 0 6.25,2 V 4 A 0.75,0.75 0 0 0 7,4.75 0.75,0.75 0 0 0 7.75,4 V 2 A 0.75,0.75 0 0 0 7,1.25 Z"
     id="path26" />
</svg>
