<?xml version="1.0" encoding="UTF-8" standalone="no"?>
<svg
   width="24"
   height="24"
   viewBox="0 0 24 24"
   stroke-width="1.5"
   fill="none"
   version="1.1"
   id="svg6"
   sodipodi:docname="credit-cards.svg"
   inkscape:version="1.2.1 (9c6d41e410, 2022-07-14)"
   xmlns:inkscape="http://www.inkscape.org/namespaces/inkscape"
   xmlns:sodipodi="http://sodipodi.sourceforge.net/DTD/sodipodi-0.dtd"
   xmlns="http://www.w3.org/2000/svg"
   xmlns:svg="http://www.w3.org/2000/svg">
  <defs
     id="defs10" />
  <sodipodi:namedview
     id="namedview8"
     pagecolor="#ffffff"
     bordercolor="#666666"
     borderopacity="1.0"
     inkscape:showpageshadow="2"
     inkscape:pageopacity="0.0"
     inkscape:pagecheckerboard="0"
     inkscape:deskcolor="#d1d1d1"
     showgrid="false"
     inkscape:zoom="34.541667"
     inkscape:cx="10.364294"
     inkscape:cy="12.014475"
     inkscape:window-width="1920"
     inkscape:window-height="1009"
     inkscape:window-x="1912"
     inkscape:window-y="-8"
     inkscape:window-maximized="1"
     inkscape:current-layer="svg6" />
  <path
     style="color:#000000;fill:currentColor;stroke-linecap:round;stroke-linejoin:round;-inkscape-stroke:none"
     d="M 19,7.25 A 0.75,0.75 0 0 0 18.25,8 0.75,0.75 0 0 0 19,8.75 h 1 c 0.699281,0 1.25,0.5507468 1.25,1.25 v 0.677734 H 19 a 0.75,0.75 0 0 0 -0.75,0.75 0.75,0.75 0 0 0 0.75,0.75 h 2.25 V 18 c 0,0.699294 -0.550706,1.25 -1.25,1.25 H 7 C 6.3007468,19.25 5.75,18.699281 5.75,18 V 16.5 A 0.75,0.75 0 0 0 5,15.75 0.75,0.75 0 0 0 4.25,16.5 V 18 c 0,1.509917 1.2401154,2.75 2.75,2.75 h 13 c 1.509904,0 2.75,-1.240096 2.75,-2.75 V 11.427734 10 C 22.75,8.4901154 21.509917,7.25 20,7.25 Z"
     id="path2" />
  <path
     style="color:#000000;fill:currentColor;stroke-linecap:round;stroke-linejoin:round;-inkscape-stroke:none"
     d="M 4,3.75 C 2.4901018,3.75 1.25,4.9901018 1.25,6.5 v 8 c 0,1.509917 1.2401154,2.75 2.75,2.75 h 13 c 1.509904,0 2.75,-1.240096 2.75,-2.75 V 8 6.5 C 19.75,4.9901154 18.509917,3.75 17,3.75 Z m 0,1.5 h 13 c 0.699281,0 1.25,0.5507468 1.25,1.25 V 7.25 H 5.5 A 0.75,0.75 0 0 0 4.75,8 0.75,0.75 0 0 0 5.5,8.75 h 12.75 v 5.75 c 0,0.699294 -0.550706,1.25 -1.25,1.25 H 4 c -0.6992532,0 -1.25,-0.550719 -1.25,-1.25 v -8 C 2.75,5.8007604 3.3007604,5.25 4,5.25 Z"
     id="path4" />
</svg>
