<?xml version="1.0" encoding="UTF-8" standalone="no"?>
<svg
   width="24"
   height="24"
   viewBox="0 0 24 24"
   stroke-width="1.5"
   fill="none"
   version="1.1"
   id="svg24"
   sodipodi:docname="crib.svg"
   inkscape:version="1.2.1 (9c6d41e410, 2022-07-14)"
   xmlns:inkscape="http://www.inkscape.org/namespaces/inkscape"
   xmlns:sodipodi="http://sodipodi.sourceforge.net/DTD/sodipodi-0.dtd"
   xmlns="http://www.w3.org/2000/svg"
   xmlns:svg="http://www.w3.org/2000/svg">
  <defs
     id="defs28" />
  <sodipodi:namedview
     id="namedview26"
     pagecolor="#ffffff"
     bordercolor="#666666"
     borderopacity="1.0"
     inkscape:showpageshadow="2"
     inkscape:pageopacity="0.0"
     inkscape:pagecheckerboard="0"
     inkscape:deskcolor="#d1d1d1"
     showgrid="false"
     inkscape:zoom="34.541667"
     inkscape:cx="10.364294"
     inkscape:cy="12.014475"
     inkscape:window-width="1920"
     inkscape:window-height="1009"
     inkscape:window-x="1912"
     inkscape:window-y="-8"
     inkscape:window-maximized="1"
     inkscape:current-layer="svg24" />
  <path
     style="color:#000000;fill:currentColor;stroke-linecap:round;stroke-linejoin:round;-inkscape-stroke:none"
     d="M 3,4.25 A 0.75,0.75 0 0 0 2.25,5 V 21 A 0.75,0.75 0 0 0 3,21.75 0.75,0.75 0 0 0 3.75,21 V 5 A 0.75,0.75 0 0 0 3,4.25 Z"
     id="path2" />
  <path
     style="color:#000000;fill:currentColor;stroke-linejoin:round;-inkscape-stroke:none"
     d="m 3,15.25 v 1.5 h 18 v -1.5 z"
     id="path4" />
  <path
     style="color:#000000;fill:currentColor;stroke-linejoin:round;-inkscape-stroke:none"
     d="m 3,6.25 v 1.5 h 18 v -1.5 z"
     id="path6" />
  <path
     style="color:#000000;fill:currentColor;stroke-linejoin:round;-inkscape-stroke:none"
     d="m 17.25,7 v 9 h 1.5 V 7 Z"
     id="path8" />
  <path
     style="color:#000000;fill:currentColor;stroke-linejoin:round;-inkscape-stroke:none"
     d="m 13.25,7 v 9 h 1.5 V 7 Z"
     id="path10" />
  <path
     style="color:#000000;fill:currentColor;stroke-linejoin:round;-inkscape-stroke:none"
     d="m 9.25,7 v 9 h 1.5 V 7 Z"
     id="path12" />
  <path
     style="color:#000000;fill:currentColor;stroke-linejoin:round;-inkscape-stroke:none"
     d="m 5.25,7 v 9 h 1.5 V 7 Z"
     id="path14" />
  <path
     style="color:#000000;fill:currentColor;stroke-linejoin:round;-inkscape-stroke:none"
     d="m 3,18.25 v 1.5 h 18 v -1.5 z"
     id="path16" />
  <path
     style="color:#000000;fill:currentColor;stroke-linecap:round;stroke-linejoin:round;-inkscape-stroke:none"
     d="M 21,4.25 A 0.75,0.75 0 0 0 20.25,5 V 21 A 0.75,0.75 0 0 0 21,21.75 0.75,0.75 0 0 0 21.75,21 V 5 A 0.75,0.75 0 0 0 21,4.25 Z"
     id="path18" />
  <path
     style="color:#000000;fill:currentColor;stroke-linecap:round;stroke-linejoin:round;-inkscape-stroke:none"
     d="m 21,2.25 c -0.957622,0 -1.75,0.7924012 -1.75,1.75 0,0.9575988 0.792378,1.75 1.75,1.75 0.957622,0 1.75,-0.7924012 1.75,-1.75 0,-0.9575988 -0.792378,-1.75 -1.75,-1.75 z m 0,1.5 c 0.146977,0 0.25,0.1030399 0.25,0.25 0,0.1469601 -0.103023,0.25 -0.25,0.25 -0.146977,0 -0.25,-0.1030399 -0.25,-0.25 0,-0.1469601 0.103023,-0.25 0.25,-0.25 z"
     id="path20" />
  <path
     style="color:#000000;fill:currentColor;stroke-linecap:round;stroke-linejoin:round;-inkscape-stroke:none"
     d="M 3,2.25 C 2.0423831,2.25 1.25,3.0423831 1.25,4 1.25,4.9576169 2.0423831,5.75 3,5.75 3.9576169,5.75 4.75,4.9576169 4.75,4 4.75,3.0423831 3.9576169,2.25 3,2.25 Z m 0,1.5 C 3.146942,3.75 3.25,3.853058 3.25,4 3.25,4.146942 3.146942,4.25 3,4.25 2.853058,4.25 2.75,4.146942 2.75,4 2.75,3.853058 2.853058,3.75 3,3.75 Z"
     id="path22" />
</svg>
