<?xml version="1.0" encoding="UTF-8" standalone="no"?>
<svg
   width="24"
   height="24"
   viewBox="0 0 24 24"
   stroke-width="1.5"
   fill="none"
   version="1.1"
   id="svg14"
   sodipodi:docname="crop-rotate-tl.svg"
   inkscape:version="1.2.1 (9c6d41e410, 2022-07-14)"
   xmlns:inkscape="http://www.inkscape.org/namespaces/inkscape"
   xmlns:sodipodi="http://sodipodi.sourceforge.net/DTD/sodipodi-0.dtd"
   xmlns="http://www.w3.org/2000/svg"
   xmlns:svg="http://www.w3.org/2000/svg">
  <defs
     id="defs18" />
  <sodipodi:namedview
     id="namedview16"
     pagecolor="#ffffff"
     bordercolor="#666666"
     borderopacity="1.0"
     inkscape:showpageshadow="2"
     inkscape:pageopacity="0.0"
     inkscape:pagecheckerboard="0"
     inkscape:deskcolor="#d1d1d1"
     showgrid="false"
     inkscape:zoom="34.541667"
     inkscape:cx="10.364294"
     inkscape:cy="12.014475"
     inkscape:window-width="1920"
     inkscape:window-height="1009"
     inkscape:window-x="1912"
     inkscape:window-y="-8"
     inkscape:window-maximized="1"
     inkscape:current-layer="svg14" />
  <path
     style="color:#000000;fill:currentColor;stroke-linecap:round;stroke-linejoin:round;-inkscape-stroke:none"
     d="M 7,3.25 C 4.3855329,3.25 2.25,5.3855329 2.25,8 v 4 A 0.75,0.75 0 0 0 3,12.75 0.75,0.75 0 0 0 3.75,12 V 8 C 3.75,6.1961915 5.1961915,4.75 7,4.75 h 3 A 0.75,0.75 0 0 0 10.75,4 0.75,0.75 0 0 0 10,3.25 Z"
     id="path2" />
  <path
     style="color:#000000;fill:currentColor;stroke-linecap:round;stroke-linejoin:round;-inkscape-stroke:none"
     d="m 7.5,0.75 a 0.75,0.75 0 0 0 -0.53125,0.21875 0.75,0.75 0 0 0 0,1.0625 L 8.9375,4 6.96875,5.96875 a 0.75,0.75 0 0 0 0,1.0625 0.75,0.75 0 0 0 1.0625,0 l 2.5,-2.5 a 0.750075,0.750075 0 0 0 0,-1.0625 l -2.5,-2.5 A 0.75,0.75 0 0 0 7.5,0.75 Z"
     id="path4" />
  <path
     style="color:#000000;fill:currentColor;stroke-linecap:round;stroke-linejoin:round;-inkscape-stroke:none"
     d="M 13,9.25 A 0.75,0.75 0 0 0 12.25,10 0.75,0.75 0 0 0 13,10.75 h 6 c 0.146995,0 0.25,0.103005 0.25,0.25 v 6 A 0.75,0.75 0 0 0 20,17.75 0.75,0.75 0 0 0 20.75,17 V 11 C 20.75,10.042396 19.957604,9.25 19,9.25 Z"
     id="path6" />
  <path
     style="color:#000000;fill:currentColor;stroke-linecap:round;stroke-linejoin:round;-inkscape-stroke:none"
     d="M 8,9.25 A 0.75,0.75 0 0 0 7.25,10 0.75,0.75 0 0 0 8,10.75 h 2 A 0.75,0.75 0 0 0 10.75,10 0.75,0.75 0 0 0 10,9.25 Z"
     id="path8" />
  <path
     style="color:#000000;fill:currentColor;stroke-linecap:round;stroke-linejoin:round;-inkscape-stroke:none"
     d="M 20,19.25 A 0.75,0.75 0 0 0 19.25,20 v 2 A 0.75,0.75 0 0 0 20,22.75 0.75,0.75 0 0 0 20.75,22 V 20 A 0.75,0.75 0 0 0 20,19.25 Z"
     id="path10" />
  <path
     style="color:#000000;fill:currentColor;stroke-linecap:round;stroke-linejoin:round;-inkscape-stroke:none"
     d="M 10,7.25 A 0.75,0.75 0 0 0 9.25,8 v 11 c 0,0.957604 0.792396,1.75 1.75,1.75 H 22 A 0.75,0.75 0 0 0 22.75,20 0.75,0.75 0 0 0 22,19.25 H 11 c -0.146995,0 -0.25,-0.103005 -0.25,-0.25 V 8 A 0.75,0.75 0 0 0 10,7.25 Z"
     id="path12" />
</svg>
