<?xml version="1.0" encoding="UTF-8" standalone="no"?>
<svg
   width="24"
   height="24"
   viewBox="0 0 24 24"
   stroke-width="1.5"
   fill="none"
   version="1.1"
   id="svg14"
   sodipodi:docname="crop-rotate-bl.svg"
   inkscape:version="1.2.1 (9c6d41e410, 2022-07-14)"
   xmlns:inkscape="http://www.inkscape.org/namespaces/inkscape"
   xmlns:sodipodi="http://sodipodi.sourceforge.net/DTD/sodipodi-0.dtd"
   xmlns="http://www.w3.org/2000/svg"
   xmlns:svg="http://www.w3.org/2000/svg">
  <defs
     id="defs18" />
  <sodipodi:namedview
     id="namedview16"
     pagecolor="#ffffff"
     bordercolor="#666666"
     borderopacity="1.0"
     inkscape:showpageshadow="2"
     inkscape:pageopacity="0.0"
     inkscape:pagecheckerboard="0"
     inkscape:deskcolor="#d1d1d1"
     showgrid="false"
     inkscape:zoom="34.541667"
     inkscape:cx="10.364294"
     inkscape:cy="12.014475"
     inkscape:window-width="1920"
     inkscape:window-height="1009"
     inkscape:window-x="1912"
     inkscape:window-y="-8"
     inkscape:window-maximized="1"
     inkscape:current-layer="svg14" />
  <path
     style="color:#000000;fill:currentColor;stroke-linecap:round;stroke-linejoin:round;-inkscape-stroke:none"
     d="M 4,13.25 A 0.75,0.75 0 0 0 3.25,14 v 3 c 0,2.614434 2.1355239,4.75 4.75,4.75 h 4 A 0.75,0.75 0 0 0 12.75,21 0.75,0.75 0 0 0 12,20.25 H 8 C 6.1962005,20.25 4.75,18.803761 4.75,17 V 14 A 0.75,0.75 0 0 0 4,13.25 Z"
     id="path2" />
  <path
     style="color:#000000;fill:currentColor;stroke-linecap:round;stroke-linejoin:round;-inkscape-stroke:none"
     d="m 3.46875,13.46875 -2.5,2.5 a 0.75,0.75 0 0 0 0,1.0625 0.75,0.75 0 0 0 1.0625,0 L 4,15.0625 5.96875,17.03125 a 0.75,0.75 0 0 0 1.0625,0 0.75,0.75 0 0 0 0,-1.0625 l -2.5,-2.5 a 0.750075,0.750075 0 0 0 -1.0625,0 z"
     id="path4" />
  <path
     style="color:#000000;fill:currentColor;stroke-linecap:round;stroke-linejoin:round;-inkscape-stroke:none"
     d="M 13,3.25 A 0.75,0.75 0 0 0 12.25,4 0.75,0.75 0 0 0 13,4.75 h 6 c 0.146977,0 0.25,0.1030399 0.25,0.25 v 6 A 0.75,0.75 0 0 0 20,11.75 0.75,0.75 0 0 0 20.75,11 V 5 C 20.75,4.0424012 19.957622,3.25 19,3.25 Z"
     id="path6" />
  <path
     style="color:#000000;fill:currentColor;stroke-linecap:round;stroke-linejoin:round;-inkscape-stroke:none"
     d="M 8,3.25 A 0.75,0.75 0 0 0 7.25,4 0.75,0.75 0 0 0 8,4.75 h 2 A 0.75,0.75 0 0 0 10.75,4 0.75,0.75 0 0 0 10,3.25 Z"
     id="path8" />
  <path
     style="color:#000000;fill:currentColor;stroke-linecap:round;stroke-linejoin:round;-inkscape-stroke:none"
     d="M 20,13.25 A 0.75,0.75 0 0 0 19.25,14 v 2 A 0.75,0.75 0 0 0 20,16.75 0.75,0.75 0 0 0 20.75,16 V 14 A 0.75,0.75 0 0 0 20,13.25 Z"
     id="path10" />
  <path
     style="color:#000000;fill:currentColor;stroke-linecap:round;stroke-linejoin:round;-inkscape-stroke:none"
     d="M 10,1.25 A 0.75,0.75 0 0 0 9.25,2 v 11 c 0,0.957604 0.792396,1.75 1.75,1.75 H 22 A 0.75,0.75 0 0 0 22.75,14 0.75,0.75 0 0 0 22,13.25 H 11 c -0.146995,0 -0.25,-0.103005 -0.25,-0.25 V 2 A 0.75,0.75 0 0 0 10,1.25 Z"
     id="path12" />
</svg>
