<?xml version="1.0" encoding="UTF-8" standalone="no"?>
<svg
   width="24"
   height="24"
   viewBox="0 0 24 24"
   stroke-width="1.5"
   fill="none"
   version="1.1"
   id="svg14"
   sodipodi:docname="crop-rotate-tr.svg"
   inkscape:version="1.2.1 (9c6d41e410, 2022-07-14)"
   xmlns:inkscape="http://www.inkscape.org/namespaces/inkscape"
   xmlns:sodipodi="http://sodipodi.sourceforge.net/DTD/sodipodi-0.dtd"
   xmlns="http://www.w3.org/2000/svg"
   xmlns:svg="http://www.w3.org/2000/svg">
  <defs
     id="defs18" />
  <sodipodi:namedview
     id="namedview16"
     pagecolor="#ffffff"
     bordercolor="#666666"
     borderopacity="1.0"
     inkscape:showpageshadow="2"
     inkscape:pageopacity="0.0"
     inkscape:pagecheckerboard="0"
     inkscape:deskcolor="#d1d1d1"
     showgrid="false"
     inkscape:zoom="34.541667"
     inkscape:cx="10.364294"
     inkscape:cy="12.014475"
     inkscape:window-width="1920"
     inkscape:window-height="1009"
     inkscape:window-x="1912"
     inkscape:window-y="-8"
     inkscape:window-maximized="1"
     inkscape:current-layer="svg14" />
  <path
     style="color:#000000;fill:currentColor;stroke-linecap:round;stroke-linejoin:round;-inkscape-stroke:none"
     d="M 12,2.25 A 0.75,0.75 0 0 0 11.25,3 0.75,0.75 0 0 0 12,3.75 h 4 c 1.803761,0 3.25,1.4462005 3.25,3.25 v 3 A 0.75,0.75 0 0 0 20,10.75 0.75,0.75 0 0 0 20.75,10 V 7 C 20.75,4.3855239 18.614434,2.25 16,2.25 Z"
     id="path2" />
  <path
     style="color:#000000;fill:currentColor;stroke-linecap:round;stroke-linejoin:round;-inkscape-stroke:none"
     d="m 17.5,6.75 a 0.75,0.75 0 0 0 -0.53125,0.21875 0.75,0.75 0 0 0 0,1.0625 l 2.5,2.5 a 0.750075,0.750075 0 0 0 1.0625,0 l 2.5,-2.5 a 0.75,0.75 0 0 0 0,-1.0625 0.75,0.75 0 0 0 -1.0625,0 L 20,8.9375 18.03125,6.96875 A 0.75,0.75 0 0 0 17.5,6.75 Z"
     id="path4" />
  <path
     style="color:#000000;fill:currentColor;stroke-linecap:round;stroke-linejoin:round;-inkscape-stroke:none"
     d="M 7,9.25 A 0.75,0.75 0 0 0 6.25,10 0.75,0.75 0 0 0 7,10.75 h 6 c 0.146995,0 0.25,0.103005 0.25,0.25 v 6 A 0.75,0.75 0 0 0 14,17.75 0.75,0.75 0 0 0 14.75,17 V 11 C 14.75,10.042396 13.957604,9.25 13,9.25 Z"
     id="path6" />
  <path
     style="color:#000000;fill:currentColor;stroke-linecap:round;stroke-linejoin:round;-inkscape-stroke:none"
     d="M 2,9.25 A 0.75,0.75 0 0 0 1.25,10 0.75,0.75 0 0 0 2,10.75 H 4 A 0.75,0.75 0 0 0 4.75,10 0.75,0.75 0 0 0 4,9.25 Z"
     id="path8" />
  <path
     style="color:#000000;fill:currentColor;stroke-linecap:round;stroke-linejoin:round;-inkscape-stroke:none"
     d="M 14,19.25 A 0.75,0.75 0 0 0 13.25,20 v 2 A 0.75,0.75 0 0 0 14,22.75 0.75,0.75 0 0 0 14.75,22 V 20 A 0.75,0.75 0 0 0 14,19.25 Z"
     id="path10" />
  <path
     style="color:#000000;fill:currentColor;stroke-linecap:round;stroke-linejoin:round;-inkscape-stroke:none"
     d="M 4,7.25 A 0.75,0.75 0 0 0 3.25,8 v 11 c 0,0.957622 0.7924012,1.75 1.75,1.75 H 16 A 0.75,0.75 0 0 0 16.75,20 0.75,0.75 0 0 0 16,19.25 H 5 C 4.8530399,19.25 4.75,19.146977 4.75,19 V 8 A 0.75,0.75 0 0 0 4,7.25 Z"
     id="path12" />
</svg>
