<?xml version="1.0" encoding="UTF-8" standalone="no"?>
<svg
   width="24"
   height="24"
   viewBox="0 0 24 24"
   stroke-width="1.5"
   fill="none"
   version="1.1"
   id="svg14"
   sodipodi:docname="crop-rotate-br.svg"
   inkscape:version="1.2.1 (9c6d41e410, 2022-07-14)"
   xmlns:inkscape="http://www.inkscape.org/namespaces/inkscape"
   xmlns:sodipodi="http://sodipodi.sourceforge.net/DTD/sodipodi-0.dtd"
   xmlns="http://www.w3.org/2000/svg"
   xmlns:svg="http://www.w3.org/2000/svg">
  <defs
     id="defs18" />
  <sodipodi:namedview
     id="namedview16"
     pagecolor="#ffffff"
     bordercolor="#666666"
     borderopacity="1.0"
     inkscape:showpageshadow="2"
     inkscape:pageopacity="0.0"
     inkscape:pagecheckerboard="0"
     inkscape:deskcolor="#d1d1d1"
     showgrid="false"
     inkscape:zoom="34.541667"
     inkscape:cx="10.364294"
     inkscape:cy="12.014475"
     inkscape:window-width="1920"
     inkscape:window-height="1009"
     inkscape:window-x="1912"
     inkscape:window-y="-8"
     inkscape:window-maximized="1"
     inkscape:current-layer="svg14" />
  <path
     style="color:#000000;fill:currentColor;stroke-linecap:round;stroke-linejoin:round;-inkscape-stroke:none"
     d="M 21,11.25 A 0.75,0.75 0 0 0 20.25,12 v 4 c 0,1.803752 -1.446248,3.25 -3.25,3.25 H 14 A 0.75,0.75 0 0 0 13.25,20 0.75,0.75 0 0 0 14,20.75 h 3 c 2.614443,0 4.75,-2.135557 4.75,-4.75 V 12 A 0.75,0.75 0 0 0 21,11.25 Z"
     id="path2" />
  <path
     style="color:#000000;fill:currentColor;stroke-linecap:round;stroke-linejoin:round;-inkscape-stroke:none"
     d="m 16.5,16.75 a 0.75,0.75 0 0 0 -0.53125,0.21875 l -2.5,2.5 a 0.750075,0.750075 0 0 0 0,1.0625 l 2.5,2.5 a 0.75,0.75 0 0 0 1.0625,0 0.75,0.75 0 0 0 0,-1.0625 L 15.0625,20 17.03125,18.03125 a 0.75,0.75 0 0 0 0,-1.0625 A 0.75,0.75 0 0 0 16.5,16.75 Z"
     id="path4" />
  <path
     style="color:#000000;fill:currentColor;stroke-linecap:round;stroke-linejoin:round;-inkscape-stroke:none"
     d="M 7,3.25 A 0.75,0.75 0 0 0 6.25,4 0.75,0.75 0 0 0 7,4.75 h 6 c 0.146977,0 0.25,0.1030399 0.25,0.25 v 6 A 0.75,0.75 0 0 0 14,11.75 0.75,0.75 0 0 0 14.75,11 V 5 C 14.75,4.0424012 13.957622,3.25 13,3.25 Z"
     id="path6" />
  <path
     style="color:#000000;fill:currentColor;stroke-linecap:round;stroke-linejoin:round;-inkscape-stroke:none"
     d="M 2,3.25 A 0.75,0.75 0 0 0 1.25,4 0.75,0.75 0 0 0 2,4.75 H 4 A 0.75,0.75 0 0 0 4.75,4 0.75,0.75 0 0 0 4,3.25 Z"
     id="path8" />
  <path
     style="color:#000000;fill:currentColor;stroke-linecap:round;stroke-linejoin:round;-inkscape-stroke:none"
     d="M 14,13.25 A 0.75,0.75 0 0 0 13.25,14 v 2 A 0.75,0.75 0 0 0 14,16.75 0.75,0.75 0 0 0 14.75,16 V 14 A 0.75,0.75 0 0 0 14,13.25 Z"
     id="path10" />
  <path
     style="color:#000000;fill:currentColor;stroke-linecap:round;stroke-linejoin:round;-inkscape-stroke:none"
     d="M 4,1.25 A 0.75,0.75 0 0 0 3.25,2 v 11 c 0,0.957622 0.7924012,1.75 1.75,1.75 H 16 A 0.75,0.75 0 0 0 16.75,14 0.75,0.75 0 0 0 16,13.25 H 5 C 4.8530399,13.25 4.75,13.146977 4.75,13 V 2 A 0.75,0.75 0 0 0 4,1.25 Z"
     id="path12" />
</svg>
