<?xml version="1.0" encoding="UTF-8" standalone="no"?>
<svg
   width="24"
   height="24"
   viewBox="0 0 24 24"
   stroke-width="1.5"
   fill="none"
   version="1.1"
   id="svg4"
   sodipodi:docname="crown.svg"
   inkscape:version="1.2.1 (9c6d41e410, 2022-07-14)"
   xmlns:inkscape="http://www.inkscape.org/namespaces/inkscape"
   xmlns:sodipodi="http://sodipodi.sourceforge.net/DTD/sodipodi-0.dtd"
   xmlns="http://www.w3.org/2000/svg"
   xmlns:svg="http://www.w3.org/2000/svg">
  <defs
     id="defs8" />
  <sodipodi:namedview
     id="namedview6"
     pagecolor="#ffffff"
     bordercolor="#666666"
     borderopacity="1.0"
     inkscape:showpageshadow="2"
     inkscape:pageopacity="0.0"
     inkscape:pagecheckerboard="0"
     inkscape:deskcolor="#d1d1d1"
     showgrid="false"
     inkscape:zoom="34.541667"
     inkscape:cx="10.364294"
     inkscape:cy="12.014475"
     inkscape:window-width="1920"
     inkscape:window-height="1009"
     inkscape:window-x="1912"
     inkscape:window-y="-8"
     inkscape:window-maximized="1"
     inkscape:current-layer="svg4" />
  <path
     style="color:#000000;fill:currentColor;stroke-linecap:round;stroke-linejoin:round;-inkscape-stroke:none"
     d="M 12,6.25 A 0.750075,0.750075 0 0 0 11.443359,6.4980469 L 9.1171875,9.0820313 3.3222656,6.3222656 A 0.750075,0.750075 0 0 0 2.2617188,7.1328125 L 4.0625,17.132812 A 0.750075,0.750075 0 0 0 4.8007812,17.75 H 19.199219 A 0.750075,0.750075 0 0 0 19.9375,17.132812 L 21.738281,7.1328125 A 0.750075,0.750075 0 0 0 20.677734,6.3222656 L 14.882813,9.0820313 12.556641,6.4980469 A 0.750075,0.750075 0 0 0 12,6.25 Z m 0,1.8710938 2.142578,2.3808592 a 0.750075,0.750075 0 0 0 0.878906,0.175781 L 20.001953,8.3066406 18.572266,16.25 H 5.4277344 L 3.9980469,8.3066406 8.9785156,10.677734 a 0.750075,0.750075 0 0 0 0.8789063,-0.175781 z"
     id="path2" />
</svg>
