<?xml version="1.0" encoding="UTF-8" standalone="no"?>
<svg
   width="24"
   height="24"
   viewBox="0 0 24 24"
   stroke-width="1.5"
   fill="none"
   version="1.1"
   id="svg6"
   sodipodi:docname="cube-dots.svg"
   inkscape:version="1.3.2 (091e20e, 2023-11-25, custom)"
   xmlns:inkscape="http://www.inkscape.org/namespaces/inkscape"
   xmlns:sodipodi="http://sodipodi.sourceforge.net/DTD/sodipodi-0.dtd"
   xmlns="http://www.w3.org/2000/svg"
   xmlns:svg="http://www.w3.org/2000/svg">
  <defs
     id="defs6" />
  <sodipodi:namedview
     id="namedview6"
     pagecolor="#ffffff"
     bordercolor="#666666"
     borderopacity="1.0"
     inkscape:showpageshadow="2"
     inkscape:pageopacity="0.0"
     inkscape:pagecheckerboard="0"
     inkscape:deskcolor="#d1d1d1"
     inkscape:zoom="30.708333"
     inkscape:cx="12"
     inkscape:cy="12"
     inkscape:window-width="1920"
     inkscape:window-height="1009"
     inkscape:window-x="1912"
     inkscape:window-y="-8"
     inkscape:window-maximized="1"
     inkscape:current-layer="svg6" />
  <path
     style="color:#000000;fill:currentColor;stroke-linecap:round;stroke-linejoin:round;-inkscape-stroke:none"
     d="M 11.130859,4.6328125 5.1308594,8.0605469 C 4.5866665,8.3715142 4.25,8.9533034 4.25,9.5800781 v 5.8398439 c 0,0.626762 0.3365495,1.208567 0.8808594,1.519531 l 5.9999996,3.427734 c 0.537005,0.306935 1.201277,0.306935 1.738282,0 l 5.998046,-3.427734 C 19.411527,16.628502 19.75,16.046698 19.75,15.419922 V 9.5800781 c 0,-0.6267886 -0.336637,-1.2085771 -0.880859,-1.5195312 l -6,-3.4277344 c -0.536998,-0.3068958 -1.201284,-0.3068958 -1.738282,0 z m 0.746094,1.3027344 c 0.0778,-0.044464 0.168292,-0.044464 0.246094,0 l 6,3.4277344 C 18.202024,9.4084068 18.25,9.4891675 18.25,9.5800781 v 5.8398439 c 0,0.09082 -0.04614,0.171748 -0.125,0.216797 a 0.750075,0.750075 0 0 0 -0.002,0 l -6,3.427734 c -0.0778,0.04446 -0.168299,0.04446 -0.246094,0 L 5.875,15.636719 C 5.7961705,15.591683 5.75,15.510759 5.75,15.419922 V 9.5800781 c 0,-0.090925 0.046054,-0.1716845 0.125,-0.2167968 z"
     id="path1" />
  <path
     style="color:#000000;fill:currentColor;stroke-linecap:round;stroke-linejoin:round;-inkscape-stroke:none"
     d="M 5.2851562,8.78125 A 0.75,0.75 0 0 0 4.8398437,9.1445313 0.75,0.75 0 0 0 5.1445312,10.160156 L 11.25,13.447266 V 19.5 A 0.75,0.75 0 0 0 12,20.25 0.75,0.75 0 0 0 12.75,19.5 v -6.052734 l 6.105469,-3.28711 A 0.75,0.75 0 0 0 19.160156,9.1445313 0.75,0.75 0 0 0 18.144531,8.8398438 L 12,12.148438 5.8554687,8.8398438 A 0.75,0.75 0 0 0 5.2851562,8.78125 Z"
     id="path2" />
  <path
     style="color:#000000;fill:currentColor;stroke-linecap:round;stroke-linejoin:round;-inkscape-stroke:none"
     d="M 2.9707031,2.25 A 0.75,0.75 0 0 0 2.453125,2.4980469 l -0.00977,0.00977 a 0.75,0.75 0 0 0 0.054687,1.0605469 0.75,0.75 0 0 0 1.0585937,-0.056641 L 3.5683594,3.5 A 0.75,0.75 0 0 0 3.5117188,2.4414063 0.75,0.75 0 0 0 2.9707031,2.25 Z"
     id="path3" />
  <path
     style="color:#000000;fill:currentColor;stroke-linecap:round;stroke-linejoin:round;-inkscape-stroke:none"
     d="M 2.9707031,20.25 A 0.75,0.75 0 0 0 2.453125,20.496094 l -0.00977,0.01172 a 0.75,0.75 0 0 0 0.054687,1.058594 0.75,0.75 0 0 0 1.0585937,-0.05469 l 0.00977,-0.0098 A 0.75,0.75 0 0 0 3.5117188,20.441406 0.75,0.75 0 0 0 2.9707031,20.25 Z"
     id="path4" />
  <path
     style="color:#000000;fill:currentColor;stroke-linecap:round;stroke-linejoin:round;-inkscape-stroke:none"
     d="m 20.970703,2.25 a 0.75,0.75 0 0 0 -0.517578,0.2480469 l -0.0098,0.00977 a 0.75,0.75 0 0 0 0.05469,1.0605469 0.75,0.75 0 0 0 1.058594,-0.056641 L 21.568359,3.5 A 0.75,0.75 0 0 0 21.511719,2.4414063 0.75,0.75 0 0 0 20.970703,2.25 Z"
     id="path5" />
  <path
     style="color:#000000;fill:currentColor;stroke-linecap:round;stroke-linejoin:round;-inkscape-stroke:none"
     d="m 21.511719,20.441406 a 0.75,0.75 0 0 0 -1.058594,0.05469 l -0.0098,0.01172 a 0.75,0.75 0 0 0 0.05469,1.058594 0.75,0.75 0 0 0 1.058594,-0.05469 l 0.0098,-0.0098 a 0.75,0.75 0 0 0 -0.05469,-1.060547 z"
     id="path6" />
</svg>
