<?xml version="1.0" encoding="UTF-8" standalone="no"?>
<svg
   width="24"
   height="24"
   viewBox="0 0 24 24"
   stroke-width="1.5"
   fill="none"
   version="1.1"
   id="svg16"
   sodipodi:docname="cube-bandage.svg"
   inkscape:version="1.2.1 (9c6d41e410, 2022-07-14)"
   xmlns:inkscape="http://www.inkscape.org/namespaces/inkscape"
   xmlns:sodipodi="http://sodipodi.sourceforge.net/DTD/sodipodi-0.dtd"
   xmlns="http://www.w3.org/2000/svg"
   xmlns:svg="http://www.w3.org/2000/svg">
  <defs
     id="defs20" />
  <sodipodi:namedview
     id="namedview18"
     pagecolor="#ffffff"
     bordercolor="#666666"
     borderopacity="1.0"
     inkscape:showpageshadow="2"
     inkscape:pageopacity="0.0"
     inkscape:pagecheckerboard="0"
     inkscape:deskcolor="#d1d1d1"
     showgrid="false"
     inkscape:zoom="34.541667"
     inkscape:cx="10.364294"
     inkscape:cy="12.014475"
     inkscape:window-width="1920"
     inkscape:window-height="1009"
     inkscape:window-x="1912"
     inkscape:window-y="-8"
     inkscape:window-maximized="1"
     inkscape:current-layer="svg16" />
  <path
     style="color:#000000;fill:currentColor;stroke-linecap:round;stroke-linejoin:round;-inkscape-stroke:none"
     d="M 11.34375,1.5058594 2.9453125,6.1738281 C 2.5178738,6.4112891 2.25,6.8645285 2.25,7.3535156 v 9.2929684 c 0,0.488988 0.266257,0.942234 0.6933594,1.179688 a 0.750075,0.750075 0 0 0 0.00195,0 L 11.636719,22.65625 A 0.75,0.75 0 0 0 12.65625,22.363281 0.75,0.75 0 0 0 12.363281,21.34375 L 3.75,16.558594 V 7.4414062 L 12,2.859375 20.25,7.4414062 V 11 A 0.75,0.75 0 0 0 21,11.75 0.75,0.75 0 0 0 21.75,11 V 7.3535156 c 0,-0.4888954 -0.26781,-0.942216 -0.695313,-1.1796875 L 12.65625,1.5058594 c -0.406896,-0.2260606 -0.905604,-0.2260606 -1.3125,0 z"
     id="path2" />
  <path
     style="color:#000000;fill:currentColor;stroke-linecap:round;stroke-linejoin:round;-inkscape-stroke:none"
     d="m 20.705078,6.5566406 a 0.75,0.75 0 0 0 -0.568359,0.066406 L 12,11.140625 3.8925781,6.6386719 A 0.75,0.75 0 0 0 2.8730469,6.9296875 0.75,0.75 0 0 0 3.1640625,7.9492187 L 11.34375,12.494141 c 0.40685,0.225878 0.90565,0.225878 1.3125,0 L 20.863281,7.9335937 A 0.75,0.75 0 0 0 21.15625,6.9140625 0.75,0.75 0 0 0 20.705078,6.5566406 Z"
     id="path4" />
  <path
     style="color:#000000;fill:currentColor;stroke-linecap:round;stroke-linejoin:round;-inkscape-stroke:none"
     d="M 12,11.25 A 0.75,0.75 0 0 0 11.25,12 v 5.5 A 0.75,0.75 0 0 0 12,18.25 0.75,0.75 0 0 0 12.75,17.5 V 12 A 0.75,0.75 0 0 0 12,11.25 Z"
     id="path6" />
  <path
     style="color:#000000;fill:currentColor;stroke-linecap:round;stroke-linejoin:round;-inkscape-stroke:none"
     d="M 12,1.25 A 0.75,0.75 0 0 0 11.25,2 V 9 A 0.75,0.75 0 0 0 12,9.75 0.75,0.75 0 0 0 12.75,9 V 2 A 0.75,0.75 0 0 0 12,1.25 Z"
     id="path8" />
  <path
     style="color:#000000;fill:currentColor;stroke-linecap:round;stroke-linejoin:round;-inkscape-stroke:none"
     d="m 18.65625,16.492187 a 0.75,0.75 0 0 0 -0.529297,0.220704 0.75,0.75 0 0 0 0,1.060546 l 0.707031,0.707032 a 0.75,0.75 0 0 0 1.060547,0 0.75,0.75 0 0 0 0,-1.060547 L 19.1875,16.712891 a 0.75,0.75 0 0 0 -0.53125,-0.220704 z"
     id="path10" />
  <path
     style="color:#000000;fill:currentColor;stroke-linecap:round;stroke-linejoin:round;-inkscape-stroke:none"
     d="m 17.242187,17.90625 a 0.75,0.75 0 0 0 -0.529296,0.220703 0.75,0.75 0 0 0 0,1.060547 l 0.707031,0.707031 a 0.75,0.75 0 0 0 1.060547,0 0.75,0.75 0 0 0 0,-1.060547 l -0.707032,-0.707031 a 0.75,0.75 0 0 0 -0.53125,-0.220703 z"
     id="path12" />
  <path
     style="color:#000000;fill:currentColor;stroke-linecap:round;stroke-linejoin:round;-inkscape-stroke:none"
     d="m 20.070312,13.083984 c -0.705339,2e-6 -1.409548,0.266971 -1.943359,0.800782 l -4.242187,4.242187 c -1.067645,1.067644 -1.067645,2.821028 0,3.888672 l 0.707031,0.707031 c 1.067685,1.067685 2.821068,1.06774 3.888672,0 l 4.242187,-4.242187 c 1.067567,-1.067704 1.067567,-2.820969 0,-3.888672 l -0.707031,-0.707031 c -0.533852,-0.533784 -1.239973,-0.800783 -1.945313,-0.800782 z m 0,1.490235 c 0.318335,1e-6 0.637519,0.123878 0.884766,0.371094 l 0.707031,0.707031 c 0.494432,0.494495 0.494432,1.273083 0,1.767578 l -4.242187,4.242187 c -0.494395,0.494459 -1.273065,0.494514 -1.767578,0 l -0.707031,-0.707031 c -0.494355,-0.494354 -0.494355,-1.273224 0,-1.767578 L 19.1875,14.945313 c 0.247188,-0.247189 0.564478,-0.371096 0.882812,-0.371094 z"
     id="path14" />
</svg>
