<?xml version="1.0" encoding="UTF-8" standalone="no"?>
<svg
   width="24"
   height="24"
   viewBox="0 0 24 24"
   stroke-width="1.5"
   fill="none"
   version="1.1"
   id="svg21"
   sodipodi:docname="cube-replace-face.svg"
   inkscape:version="1.2.1 (9c6d41e410, 2022-07-14)"
   xmlns:inkscape="http://www.inkscape.org/namespaces/inkscape"
   xmlns:sodipodi="http://sodipodi.sourceforge.net/DTD/sodipodi-0.dtd"
   xmlns="http://www.w3.org/2000/svg"
   xmlns:svg="http://www.w3.org/2000/svg">
  <sodipodi:namedview
     id="namedview23"
     pagecolor="#ffffff"
     bordercolor="#666666"
     borderopacity="1.0"
     inkscape:showpageshadow="2"
     inkscape:pageopacity="0.0"
     inkscape:pagecheckerboard="0"
     inkscape:deskcolor="#d1d1d1"
     showgrid="false"
     inkscape:zoom="34.541667"
     inkscape:cx="10.364294"
     inkscape:cy="12.014475"
     inkscape:window-width="1920"
     inkscape:window-height="1009"
     inkscape:window-x="1912"
     inkscape:window-y="-8"
     inkscape:window-maximized="1"
     inkscape:current-layer="svg21" />
  <path
     style="color:#000000;fill:currentColor;stroke-linecap:round;stroke-linejoin:round;-inkscape-stroke:none"
     d="M 5,12.25 A 0.75,0.75 0 0 0 4.25,13 v 5.652344 c 0,0.483251 0.2603529,0.932082 0.6796875,1.171875 l 6.4003905,3.65625 c 0.413959,0.236483 0.925885,0.236483 1.339844,0 l 6.40039,-3.65625 C 19.489575,19.584416 19.75,19.135641 19.75,18.652344 V 13.5 A 0.75,0.75 0 0 0 19,12.75 0.75,0.75 0 0 0 18.25,13.5 v 5.064453 L 12,22.136719 5.75,18.564453 V 13 A 0.75,0.75 0 0 0 5,12.25 Z m 6.925781,9.927734 c 0.0012,-6.76e-4 0.0027,6.41e-4 0.0039,0 l -0.0039,0.002 z m 0.144532,0 c 0.0012,6.41e-4 0.0027,-6.76e-4 0.0039,0 v 0.002 z"
     id="path2" />
  <path
     style="color:#000000;fill:currentColor;stroke-linecap:round;stroke-linejoin:round;-inkscape-stroke:none"
     d="M 12,16.25 A 0.75,0.75 0 0 0 11.25,17 v 5.5 A 0.75,0.75 0 0 0 12,23.25 0.75,0.75 0 0 0 12.75,22.5 V 17 A 0.75,0.75 0 0 0 12,16.25 Z"
     id="path4" />
  <path
     style="color:#000000;fill:currentColor;stroke-linecap:round;stroke-linejoin:round;-inkscape-stroke:none"
     d="m 10.808594,0.27539063 a 0.75,0.75 0 0 0 -0.457031,0.34765624 0.75,0.75 0 0 0 0.271484,1.02539063 l 12,7 a 0.75,0.75 0 0 0 1.02539,-0.2714844 0.75,0.75 0 0 0 -0.271484,-1.0253906 l -12,-7 a 0.75,0.75 0 0 0 -0.568359,-0.0761719 z"
     id="path6" />
  <path
     style="color:#000000;fill:currentColor;stroke-linecap:round;stroke-linejoin:round;-inkscape-stroke:none"
     d="M 0.80859375,7.2753906 A 0.75,0.75 0 0 0 0.3515625,7.6230469 0.75,0.75 0 0 0 0.62304687,8.6484375 L 12.623047,15.648438 a 0.75,0.75 0 0 0 1.025391,-0.271485 0.75,0.75 0 0 0 -0.271485,-1.02539 L 1.3769531,7.3515625 A 0.75,0.75 0 0 0 0.80859375,7.2753906 Z"
     id="path8" />
  <path
     style="color:#000000;fill:currentColor;stroke-linecap:round;stroke-linejoin:round;-inkscape-stroke:none"
     d="M 10.818359,0.27148438 A 0.75,0.75 0 0 0 10.357422,0.61328125 C 8.9671319,2.9304312 7.5449201,3.2792974 5.7949219,3.7792969 4.0449236,4.2792964 1.9671289,4.9304362 0.35742188,7.6132812 A 0.75,0.75 0 0 0 0.61328125,8.6425781 0.75,0.75 0 0 0 1.6425781,8.3867188 c 1.39029,-2.31715 2.8125018,-2.6660162 4.5625,-3.1660157 C 7.9550764,4.7207036 10.032871,4.0695638 11.642578,1.3867187 a 0.75,0.75 0 0 0 -0.255859,-1.02929682 0.75,0.75 0 0 0 -0.56836,-0.0859375 z"
     id="path10" />
  <path
     style="color:#000000;fill:currentColor;stroke-linecap:round;stroke-linejoin:round;-inkscape-stroke:none"
     d="m 22.818359,7.2714844 a 0.75,0.75 0 0 0 -0.460937,0.3417968 c -1.39029,2.31715 -2.812502,2.6660158 -4.5625,3.1660158 -1.749998,0.499999 -3.827793,1.151139 -5.4375,3.833984 a 0.75,0.75 0 0 0 0.255859,1.029297 0.75,0.75 0 0 0 1.029297,-0.255859 c 1.39029,-2.31715 2.812502,-2.666016 4.5625,-3.166016 1.749998,-0.499999 3.827793,-1.151139 5.4375,-3.8339842 a 0.75,0.75 0 0 0 -0.255859,-1.0292969 0.75,0.75 0 0 0 -0.56836,-0.085937 z"
     id="path12" />
  <defs
     id="defs19">
    <clipPath
       clipPathUnits="userSpaceOnUse"
       id="clipPath208">
      <g
         id="g212">
        <rect
           width="24"
           height="24"
           fill="#ffffff"
           id="rect210"
           x="0"
           y="0" />
      </g>
    </clipPath>
    <clipPath
       clipPathUnits="userSpaceOnUse"
       id="clipPath214">
      <g
         id="g218">
        <rect
           width="24"
           height="24"
           fill="#ffffff"
           id="rect216"
           x="0"
           y="0" />
      </g>
    </clipPath>
    <clipPath
       clipPathUnits="userSpaceOnUse"
       id="clipPath220">
      <g
         id="g224">
        <rect
           width="24"
           height="24"
           fill="#ffffff"
           id="rect222"
           x="0"
           y="0" />
      </g>
    </clipPath>
    <clipPath
       clipPathUnits="userSpaceOnUse"
       id="clipPath226">
      <g
         id="g230">
        <rect
           width="24"
           height="24"
           fill="#ffffff"
           id="rect228"
           x="0"
           y="0" />
      </g>
    </clipPath>
    <clipPath
       clipPathUnits="userSpaceOnUse"
       id="clipPath232">
      <g
         id="g236">
        <rect
           width="24"
           height="24"
           fill="#ffffff"
           id="rect234"
           x="0"
           y="0" />
      </g>
    </clipPath>
    <clipPath
       clipPathUnits="userSpaceOnUse"
       id="clipPath238">
      <g
         id="g242">
        <rect
           width="24"
           height="24"
           fill="#ffffff"
           id="rect240"
           x="0"
           y="0" />
      </g>
    </clipPath>
  </defs>
</svg>
