<?xml version="1.0" encoding="UTF-8" standalone="no"?>
<svg
   width="24"
   height="24"
   viewBox="0 0 24 24"
   stroke-width="1.5"
   fill="none"
   version="1.1"
   id="svg16"
   sodipodi:docname="cube-cut-with-curve.svg"
   inkscape:version="1.2.1 (9c6d41e410, 2022-07-14)"
   xmlns:inkscape="http://www.inkscape.org/namespaces/inkscape"
   xmlns:sodipodi="http://sodipodi.sourceforge.net/DTD/sodipodi-0.dtd"
   xmlns="http://www.w3.org/2000/svg"
   xmlns:svg="http://www.w3.org/2000/svg">
  <defs
     id="defs20" />
  <sodipodi:namedview
     id="namedview18"
     pagecolor="#ffffff"
     bordercolor="#666666"
     borderopacity="1.0"
     inkscape:showpageshadow="2"
     inkscape:pageopacity="0.0"
     inkscape:pagecheckerboard="0"
     inkscape:deskcolor="#d1d1d1"
     showgrid="false"
     inkscape:zoom="34.541667"
     inkscape:cx="10.364294"
     inkscape:cy="12.014475"
     inkscape:window-width="1920"
     inkscape:window-height="1009"
     inkscape:window-x="1912"
     inkscape:window-y="-8"
     inkscape:window-maximized="1"
     inkscape:current-layer="svg16" />
  <path
     style="color:#000000;fill:currentColor;stroke-linecap:round;stroke-linejoin:round;-inkscape-stroke:none"
     d="M 3.8925781,6.6386719 A 0.75,0.75 0 0 0 2.8730469,6.9296875 0.75,0.75 0 0 0 3.1640625,7.9492187 L 8.6367188,10.988281 A 0.75,0.75 0 0 0 9.65625,10.697266 0.75,0.75 0 0 0 9.3632813,9.6777344 Z"
     id="path2" />
  <path
     style="color:#000000;fill:currentColor;stroke-linecap:round;stroke-linejoin:round;-inkscape-stroke:none"
     d="M 20,1.25 A 0.75,0.75 0 0 0 19.25,2 0.75,0.75 0 0 0 20,2.75 h 2 A 0.75,0.75 0 0 0 22.75,2 0.75,0.75 0 0 0 22,1.25 Z M 17.265625,1.6855469 C 13.769917,2.834537 11.25,6.1295431 11.25,10 v 2 A 0.75,0.75 0 0 0 12,12.75 0.75,0.75 0 0 0 12.75,12 v -2 c 0,-3.219976 2.09229,-5.9380841 4.984375,-6.8886719 A 0.75,0.75 0 0 0 18.212891,2.1640625 0.75,0.75 0 0 0 17.265625,1.6855469 Z"
     id="path4" />
  <path
     style="color:#000000;fill:currentColor;stroke-linecap:round;stroke-linejoin:round;-inkscape-stroke:none"
     d="M 20,11.25 A 0.75,0.75 0 0 0 19.25,12 0.75,0.75 0 0 0 20,12.75 h 2 A 0.75,0.75 0 0 0 22.75,12 0.75,0.75 0 0 0 22,11.25 Z m -2.734375,0.435547 C 13.76992,12.834547 11.25,16.129561 11.25,20 v 2 A 0.75,0.75 0 0 0 12,22.75 0.75,0.75 0 0 0 12.75,22 v -2 c 0,-3.219954 2.092287,-5.938074 4.984375,-6.888672 a 0.75,0.75 0 0 0 0.478516,-0.947265 0.75,0.75 0 0 0 -0.947266,-0.478516 z"
     id="path6" />
  <path
     style="color:#000000;fill:currentColor;stroke-linecap:round;stroke-linejoin:round;-inkscape-stroke:none"
     d="M 11.34375,1.5058594 2.9453125,6.1738281 C 2.5178738,6.4112891 2.25,6.8645285 2.25,7.3535156 v 9.2929684 c 0,0.488965 0.2662473,0.942229 0.6933594,1.179688 a 0.750075,0.750075 0 0 0 0.00195,0 L 11.636719,22.65625 A 0.75,0.75 0 0 0 12.65625,22.363281 0.75,0.75 0 0 0 12.363281,21.34375 L 3.75,16.558594 V 7.4414062 L 12,2.859375 14.636719,4.3222656 A 0.75,0.75 0 0 0 15.65625,4.03125 0.75,0.75 0 0 0 15.363281,3.0117188 L 12.65625,1.5058594 c -0.406896,-0.2260606 -0.905604,-0.2260606 -1.3125,0 z"
     id="path8" />
  <path
     style="color:#000000;fill:currentColor;stroke-linecap:round;stroke-linejoin:round;-inkscape-stroke:none"
     d="M 3.8925781,6.6386719 A 0.75,0.75 0 0 0 2.8730469,6.9296875 0.75,0.75 0 0 0 3.1640625,7.9492187 L 11.636719,12.65625 A 0.75,0.75 0 0 0 12.65625,12.363281 0.75,0.75 0 0 0 12.363281,11.34375 Z"
     id="path10" />
  <path
     style="color:#000000;fill:currentColor;stroke-linecap:round;stroke-linejoin:round;-inkscape-stroke:none"
     d="M 12,11.25 A 0.75,0.75 0 0 0 11.25,12 v 9 A 0.75,0.75 0 0 0 12,21.75 0.75,0.75 0 0 0 12.75,21 V 12 A 0.75,0.75 0 0 0 12,11.25 Z"
     id="path12" />
  <path
     style="color:#000000;fill:currentColor;stroke-linecap:round;stroke-linejoin:round;-inkscape-stroke:none"
     d="M 15,3.25 A 0.75,0.75 0 0 0 14.25,4 v 9.5 A 0.75,0.75 0 0 0 15,14.25 0.75,0.75 0 0 0 15.75,13.5 V 4 A 0.75,0.75 0 0 0 15,3.25 Z"
     id="path14" />
</svg>
