<?xml version="1.0" encoding="UTF-8" standalone="no"?>
<svg
   width="24"
   height="24"
   viewBox="0 0 24 24"
   stroke-width="1.5"
   fill="none"
   version="1.1"
   id="svg6"
   sodipodi:docname="cube-scan.svg"
   inkscape:version="1.3.2 (091e20e, 2023-11-25, custom)"
   xmlns:inkscape="http://www.inkscape.org/namespaces/inkscape"
   xmlns:sodipodi="http://sodipodi.sourceforge.net/DTD/sodipodi-0.dtd"
   xmlns="http://www.w3.org/2000/svg"
   xmlns:svg="http://www.w3.org/2000/svg">
  <defs
     id="defs6" />
  <sodipodi:namedview
     id="namedview6"
     pagecolor="#ffffff"
     bordercolor="#666666"
     borderopacity="1.0"
     inkscape:showpageshadow="2"
     inkscape:pageopacity="0.0"
     inkscape:pagecheckerboard="0"
     inkscape:deskcolor="#d1d1d1"
     inkscape:zoom="30.708333"
     inkscape:cx="12"
     inkscape:cy="12"
     inkscape:window-width="1920"
     inkscape:window-height="1009"
     inkscape:window-x="1912"
     inkscape:window-y="-8"
     inkscape:window-maximized="1"
     inkscape:current-layer="svg6" />
  <path
     style="color:#000000;fill:currentColor;stroke-linecap:round;stroke-linejoin:round;-inkscape-stroke:none"
     d="M 3,2.25 A 0.750075,0.750075 0 0 0 2.25,3 V 6 A 0.75,0.75 0 0 0 3,6.75 0.75,0.75 0 0 0 3.75,6 V 3.75 H 6 A 0.75,0.75 0 0 0 6.75,3 0.75,0.75 0 0 0 6,2.25 Z"
     id="path1" />
  <path
     style="color:#000000;fill:currentColor;stroke-linecap:round;stroke-linejoin:round;-inkscape-stroke:none"
     d="M 18,2.25 A 0.75,0.75 0 0 0 17.25,3 0.75,0.75 0 0 0 18,3.75 h 2.25 V 6 A 0.75,0.75 0 0 0 21,6.75 0.75,0.75 0 0 0 21.75,6 V 3 A 0.750075,0.750075 0 0 0 21,2.25 Z"
     id="path2" />
  <path
     style="color:#000000;fill:currentColor;stroke-linecap:round;stroke-linejoin:round;-inkscape-stroke:none"
     d="M 3,17.25 A 0.75,0.75 0 0 0 2.25,18 v 3 A 0.750075,0.750075 0 0 0 3,21.75 H 6 A 0.75,0.75 0 0 0 6.75,21 0.75,0.75 0 0 0 6,20.25 H 3.75 V 18 A 0.75,0.75 0 0 0 3,17.25 Z"
     id="path3" />
  <path
     style="color:#000000;fill:currentColor;stroke-linecap:round;stroke-linejoin:round;-inkscape-stroke:none"
     d="M 21,17.25 A 0.75,0.75 0 0 0 20.25,18 v 2.25 H 18 A 0.75,0.75 0 0 0 17.25,21 0.75,0.75 0 0 0 18,21.75 h 3 A 0.750075,0.750075 0 0 0 21.75,21 V 18 A 0.75,0.75 0 0 0 21,17.25 Z"
     id="path4" />
  <path
     style="color:#000000;fill:currentColor;stroke-linecap:round;stroke-linejoin:round;-inkscape-stroke:none"
     d="M 11.099609,6.6660156 7.0996094,9.0664063 C 6.5734821,9.3820826 6.25,9.9527954 6.25,10.566406 v 3.867188 c 0,0.613611 0.3234286,1.184326 0.8496094,1.5 l 3.9999996,2.40039 c 0.552972,0.331748 1.24781,0.331748 1.800782,0 l 4,-2.40039 c 0.52618,-0.315674 0.849609,-0.886389 0.849609,-1.5 v -3.867188 c 0,-0.6136106 -0.323482,-1.1843234 -0.849609,-1.4999997 l -4,-2.4003907 c -0.552974,-0.3317667 -1.247808,-0.3317667 -1.800782,0 z m 0.771485,1.2851563 c 0.08042,-0.048253 0.177387,-0.048253 0.257812,0 l 4,2.4003911 c 0.07627,0.04576 0.121094,0.125855 0.121094,0.214843 v 3.867188 c 0,0.08899 -0.04488,0.169117 -0.121094,0.214844 l -4,2.40039 c -0.08043,0.04825 -0.177384,0.04825 -0.257812,0 L 7.8710937,14.648438 C 7.7948751,14.602711 7.75,14.522582 7.75,14.433594 v -3.867188 c 0,-0.08899 0.044822,-0.16908 0.1210937,-0.214843 z"
     id="path5" />
  <path
     style="color:#000000;fill:currentColor;stroke-linecap:round;stroke-linejoin:round;-inkscape-stroke:none"
     d="M 16.675781,9.7714844 A 0.75,0.75 0 0 0 16.109375,9.859375 C 15.527773,10.214197 12.525245,11.855419 12,12.142578 L 7.8632812,9.84375 A 0.75,0.75 0 0 0 6.84375,10.136719 0.75,0.75 0 0 0 7.1367187,11.15625 L 11.25,13.439453 V 17.5 A 0.75,0.75 0 0 0 12,18.25 0.75,0.75 0 0 0 12.75,17.5 v -4.058594 c 0.537075,-0.292118 3.372872,-1.832393 4.140625,-2.300781 a 0.75,0.75 0 0 0 0.25,-1.03125 0.75,0.75 0 0 0 -0.464844,-0.3378906 z"
     id="path6" />
</svg>
