<?xml version="1.0" encoding="UTF-8" standalone="no"?>
<svg
   width="24"
   height="24"
   viewBox="0 0 24 24"
   stroke-width="1.5"
   fill="none"
   version="1.1"
   id="svg10"
   sodipodi:docname="curve-array.svg"
   inkscape:version="1.2.1 (9c6d41e410, 2022-07-14)"
   xmlns:inkscape="http://www.inkscape.org/namespaces/inkscape"
   xmlns:sodipodi="http://sodipodi.sourceforge.net/DTD/sodipodi-0.dtd"
   xmlns="http://www.w3.org/2000/svg"
   xmlns:svg="http://www.w3.org/2000/svg">
  <defs
     id="defs14" />
  <sodipodi:namedview
     id="namedview12"
     pagecolor="#ffffff"
     bordercolor="#666666"
     borderopacity="1.0"
     inkscape:showpageshadow="2"
     inkscape:pageopacity="0.0"
     inkscape:pagecheckerboard="0"
     inkscape:deskcolor="#d1d1d1"
     showgrid="false"
     inkscape:zoom="34.541667"
     inkscape:cx="10.364294"
     inkscape:cy="12.014475"
     inkscape:window-width="1920"
     inkscape:window-height="1009"
     inkscape:window-x="1912"
     inkscape:window-y="-8"
     inkscape:window-maximized="1"
     inkscape:current-layer="svg10" />
  <path
     style="color:#000000;fill:currentColor;stroke-linecap:round;stroke-linejoin:round;-inkscape-stroke:none"
     d="m 14.244141,5.5859375 a 0.75,0.75 0 0 0 -0.572266,0.035156 C 12.750786,6.0702383 11.877924,6.5953353 11.060547,7.1875 a 0.75,0.75 0 0 0 -0.167969,1.046875 0.75,0.75 0 0 0 1.046875,0.1679688 C 12.686474,7.8611496 13.484616,7.3820177 14.328125,6.9707031 A 0.75,0.75 0 0 0 14.673828,5.9667969 0.75,0.75 0 0 0 14.244141,5.5859375 Z M 6.0507812,13.291016 a 0.75,0.75 0 0 0 -0.4296875,0.380859 c -0.4828554,0.990224 -0.8781291,2.036006 -1.1796875,3.128906 a 0.75,0.75 0 0 0 0.5234375,0.921875 0.75,0.75 0 0 0 0.921875,-0.523437 c 0.2772211,-1.004698 0.6418208,-1.96432 1.0839844,-2.871094 A 0.75,0.75 0 0 0 6.625,13.326172 0.75,0.75 0 0 0 6.0507812,13.291016 Z"
     id="path2" />
  <path
     style="color:#000000;fill:currentColor;stroke-linecap:round;stroke-linejoin:round;-inkscape-stroke:none"
     d="m 4.5,16.25 c -1.7860432,0 -3.25,1.463968 -3.25,3.25 0,1.786032 1.4639568,3.25 3.25,3.25 1.7860432,0 3.25,-1.463968 3.25,-3.25 0,-1.786032 -1.4639568,-3.25 -3.25,-3.25 z m 0,1.5 c 0.9753741,0 1.75,0.774635 1.75,1.75 0,0.975365 -0.7746259,1.75 -1.75,1.75 -0.9753741,0 -1.75,-0.774635 -1.75,-1.75 0,-0.975365 0.7746259,-1.75 1.75,-1.75 z"
     id="path4" />
  <path
     style="color:#000000;fill:currentColor;stroke-linecap:round;stroke-linejoin:round;-inkscape-stroke:none"
     d="m 9.5,6.25 c -1.7860395,0 -3.25,1.4639605 -3.25,3.25 0,1.786032 1.4639568,3.25 3.25,3.25 1.786036,0 3.25,-1.463964 3.25,-3.25 0,-1.7860432 -1.463968,-3.25 -3.25,-3.25 z m 0,1.5 c 0.975365,0 1.75,0.7746259 1.75,1.75 0,0.975361 -0.774639,1.75 -1.75,1.75 -0.9753741,0 -1.75,-0.774635 -1.75,-1.75 0,-0.9753777 0.7746223,-1.75 1.75,-1.75 z"
     id="path6" />
  <path
     style="color:#000000;fill:currentColor;stroke-linecap:round;stroke-linejoin:round;-inkscape-stroke:none"
     d="m 19.5,1.25 c -1.786032,0 -3.25,1.4639568 -3.25,3.25 0,1.7860432 1.463968,3.25 3.25,3.25 1.786032,0 3.25,-1.4639568 3.25,-3.25 0,-1.7860432 -1.463968,-3.25 -3.25,-3.25 z m 0,1.5 c 0.975365,0 1.75,0.7746259 1.75,1.75 0,0.9753741 -0.774635,1.75 -1.75,1.75 -0.975365,0 -1.75,-0.7746259 -1.75,-1.75 0,-0.9753741 0.774635,-1.75 1.75,-1.75 z"
     id="path8" />
</svg>
