<?xml version="1.0" encoding="UTF-8" standalone="no"?>
<svg
   width="24"
   height="24"
   stroke-width="1.5"
   viewBox="0 0 24 24"
   fill="none"
   version="1.1"
   id="svg10"
   sodipodi:docname="cycling.svg"
   inkscape:version="1.2.1 (9c6d41e410, 2022-07-14)"
   xmlns:inkscape="http://www.inkscape.org/namespaces/inkscape"
   xmlns:sodipodi="http://sodipodi.sourceforge.net/DTD/sodipodi-0.dtd"
   xmlns="http://www.w3.org/2000/svg"
   xmlns:svg="http://www.w3.org/2000/svg">
  <defs
     id="defs14" />
  <sodipodi:namedview
     id="namedview12"
     pagecolor="#ffffff"
     bordercolor="#666666"
     borderopacity="1.0"
     inkscape:showpageshadow="2"
     inkscape:pageopacity="0.0"
     inkscape:pagecheckerboard="0"
     inkscape:deskcolor="#d1d1d1"
     showgrid="false"
     inkscape:zoom="34.541667"
     inkscape:cx="10.364294"
     inkscape:cy="12.014475"
     inkscape:window-width="1920"
     inkscape:window-height="1009"
     inkscape:window-x="1912"
     inkscape:window-y="-8"
     inkscape:window-maximized="1"
     inkscape:current-layer="svg10" />
  <path
     style="color:#000000;fill:currentColor;stroke-linecap:round;stroke-linejoin:round;-inkscape-stroke:none"
     d="m 14,2.25 c -1.509917,0 -2.75,1.2401154 -2.75,2.75 0,1.5098846 1.240083,2.75 2.75,2.75 1.509917,0 2.75,-1.2401154 2.75,-2.75 0,-1.5098846 -1.240083,-2.75 -2.75,-2.75 z m 0,1.5 c 0.699281,0 1.25,0.5507468 1.25,1.25 0,0.6992532 -0.550719,1.25 -1.25,1.25 -0.699281,0 -1.25,-0.5507468 -1.25,-1.25 0,-0.6992532 0.550719,-1.25 1.25,-1.25 z"
     id="path2" />
  <path
     style="color:#000000;fill:currentColor;stroke-linecap:round;stroke-linejoin:round;-inkscape-stroke:none"
     d="m 18,14.25 c -2.062203,0 -3.75,1.687797 -3.75,3.75 0,2.062203 1.687797,3.75 3.75,3.75 2.062203,0 3.75,-1.687797 3.75,-3.75 0,-2.062203 -1.687797,-3.75 -3.75,-3.75 z m 0,1.5 c 1.251594,0 2.25,0.998406 2.25,2.25 0,1.251594 -0.998406,2.25 -2.25,2.25 -1.251594,0 -2.25,-0.998406 -2.25,-2.25 0,-1.251594 0.998406,-2.25 2.25,-2.25 z"
     id="path4" />
  <path
     style="color:#000000;fill:currentColor;stroke-linecap:round;stroke-linejoin:round;-inkscape-stroke:none"
     d="m 6,14.25 c -2.0621653,0 -3.75,1.687782 -3.75,3.75 0,2.062218 1.6878347,3.75 3.75,3.75 2.0621653,0 3.75,-1.687782 3.75,-3.75 0,-2.062218 -1.6878347,-3.75 -3.75,-3.75 z m 0,1.5 c 1.2515314,0 2.25,0.998421 2.25,2.25 0,1.251579 -0.9984686,2.25 -2.25,2.25 -1.2515314,0 -2.25,-0.998421 -2.25,-2.25 0,-1.251579 0.9984686,-2.25 2.25,-2.25 z"
     id="path6" />
  <path
     style="color:#000000;fill:currentColor;stroke-linecap:round;stroke-linejoin:round;-inkscape-stroke:none"
     d="m 11.597656,7.9238281 a 0.750075,0.750075 0 0 0 -1.048828,0.087891 L 7.5488281,11.511719 a 0.750075,0.750075 0 0 0 0.2851563,1.18164 l 4.2089846,1.72461 -1.246094,3.318359 a 0.75,0.75 0 0 0 0.439453,0.966797 0.75,0.75 0 0 0 0.966797,-0.439453 l 1.5,-4 A 0.750075,0.750075 0 0 0 13.285156,13.306641 L 9.3632813,11.699219 11.205078,9.5488281 13.638672,11.576172 A 0.750075,0.750075 0 0 0 14.117188,11.75 h 3.499999 a 0.75,0.75 0 0 0 0.75,-0.75 0.75,0.75 0 0 0 -0.75,-0.75 h -3.228515 z"
     id="path8" />
</svg>
