<?xml version="1.0" encoding="UTF-8" standalone="no"?>
<svg
   width="24"
   height="24"
   viewBox="0 0 24 24"
   stroke-width="1.5"
   fill="none"
   version="1.1"
   id="svg10"
   sodipodi:docname="cylinder.svg"
   inkscape:version="1.2.1 (9c6d41e410, 2022-07-14)"
   xmlns:inkscape="http://www.inkscape.org/namespaces/inkscape"
   xmlns:sodipodi="http://sodipodi.sourceforge.net/DTD/sodipodi-0.dtd"
   xmlns="http://www.w3.org/2000/svg"
   xmlns:svg="http://www.w3.org/2000/svg">
  <defs
     id="defs14" />
  <sodipodi:namedview
     id="namedview12"
     pagecolor="#ffffff"
     bordercolor="#666666"
     borderopacity="1.0"
     inkscape:showpageshadow="2"
     inkscape:pageopacity="0.0"
     inkscape:pagecheckerboard="0"
     inkscape:deskcolor="#d1d1d1"
     showgrid="false"
     inkscape:zoom="34.541667"
     inkscape:cx="10.364294"
     inkscape:cy="12.014475"
     inkscape:window-width="1920"
     inkscape:window-height="1009"
     inkscape:window-x="1912"
     inkscape:window-y="-8"
     inkscape:window-maximized="1"
     inkscape:current-layer="svg10" />
  <path
     style="color:#000000;fill:currentColor;-inkscape-stroke:none"
     d="M 12,1.25 C 7.9062541,1.25 5.7427801,2.0063915 4.5507812,2.9003906 3.9547818,3.3473902 3.6146969,3.832264 3.4394531,4.2265625 3.2642094,4.620861 3.25,5 3.25,5 3.25,5 3.2642094,5.379139 3.4394531,5.7734375 3.6146969,6.167736 3.9547818,6.6526098 4.5507812,7.0996094 5.7427801,7.9936085 7.9062541,8.75 12,8.75 16.093746,8.75 18.25722,7.9936085 19.449219,7.0996094 20.045218,6.6526098 20.385303,6.167736 20.560547,5.7734375 20.735791,5.379139 20.75,5 20.75,5 20.75,5 20.735791,4.620861 20.560547,4.2265625 20.385303,3.832264 20.045218,3.3473902 19.449219,2.9003906 18.25722,2.0063915 16.093746,1.25 12,1.25 Z m 0,1.5 c 3.906246,0 5.742782,0.74361 6.550781,1.3496094 0.404,0.3029997 0.563916,0.5681271 0.638672,0.7363281 C 19.264209,5.0041385 19.25,5 19.25,5 c 0,0 0.01421,-0.00414 -0.06055,0.1640625 -0.07476,0.168201 -0.234672,0.4333284 -0.638672,0.7363281 C 17.742782,6.50639 15.906246,7.25 12,7.25 8.0937539,7.25 6.2572179,6.50639 5.4492187,5.9003906 5.0452192,5.5973909 4.8853029,5.3322635 4.8105469,5.1640625 4.7357909,4.9958615 4.75,5 4.75,5 c 0,0 -0.014209,0.00414 0.060547,-0.1640625 C 4.8853029,4.6677365 5.0452192,4.4026091 5.4492187,4.0996094 6.2572179,3.49361 8.0937539,2.75 12,2.75 Z"
     id="path2" />
  <path
     style="color:#000000;fill:currentColor;-inkscape-stroke:none"
     d="m 12,15.25 c -4.0937459,0 -6.2572199,0.756392 -7.4492188,1.650391 C 3.9547818,17.34739 3.6146969,17.832264 3.4394531,18.226562 3.2642094,18.620861 3.25,19 3.25,19 c 0,0 0.014209,0.379139 0.1894531,0.773437 0.1752438,0.394299 0.5153287,0.879173 1.1113281,1.326172 C 5.7427801,21.993608 7.9062541,22.75 12,22.75 c 4.093746,0 6.25722,-0.756392 7.449219,-1.650391 0.595999,-0.446999 0.936084,-0.931873 1.111328,-1.326172 C 20.735791,19.379139 20.75,19 20.75,19 c 0,0 -0.01421,-0.379139 -0.189453,-0.773438 C 20.385303,17.832264 20.045218,17.34739 19.449219,16.900391 18.25722,16.006392 16.093746,15.25 12,15.25 Z m 0,1.5 c 3.906246,0 5.742782,0.74361 6.550781,1.349609 0.404,0.303 0.563916,0.568128 0.638672,0.736328 C 19.264209,19.004138 19.25,19 19.25,19 c 0,0 0.01421,-0.0041 -0.06055,0.164062 -0.07476,0.168201 -0.234672,0.433329 -0.638672,0.736329 C 17.742782,20.50639 15.906246,21.25 12,21.25 8.0937539,21.25 6.2572179,20.50639 5.4492187,19.900391 5.0452192,19.597391 4.8853029,19.332263 4.8105469,19.164062 4.7357909,18.995862 4.75,19 4.75,19 c 0,0 -0.014209,0.0041 0.060547,-0.164063 0.074756,-0.1682 0.2346723,-0.433328 0.6386718,-0.736328 C 6.2572179,17.49361 8.0937539,16.75 12,16.75 Z"
     id="path4" />
  <path
     style="color:#000000;fill:currentColor;stroke-linecap:round;stroke-linejoin:round;-inkscape-stroke:none"
     d="M 20,4.25 A 0.75,0.75 0 0 0 19.25,5 V 19 A 0.75,0.75 0 0 0 20,19.75 0.75,0.75 0 0 0 20.75,19 V 5 A 0.75,0.75 0 0 0 20,4.25 Z"
     id="path6" />
  <path
     style="color:#000000;fill:currentColor;stroke-linecap:round;stroke-linejoin:round;-inkscape-stroke:none"
     d="M 4,4.25 A 0.75,0.75 0 0 0 3.25,5 V 19 A 0.75,0.75 0 0 0 4,19.75 0.75,0.75 0 0 0 4.75,19 V 5 A 0.75,0.75 0 0 0 4,4.25 Z"
     id="path8" />
</svg>
