<?xml version="1.0" encoding="UTF-8" standalone="no"?>
<svg
   width="24"
   height="24"
   stroke-width="1.5"
   viewBox="0 0 24 24"
   fill="none"
   version="1.1"
   id="svg22"
   sodipodi:docname="dashboard-dots.svg"
   inkscape:version="1.2.1 (9c6d41e410, 2022-07-14)"
   xmlns:inkscape="http://www.inkscape.org/namespaces/inkscape"
   xmlns:sodipodi="http://sodipodi.sourceforge.net/DTD/sodipodi-0.dtd"
   xmlns="http://www.w3.org/2000/svg"
   xmlns:svg="http://www.w3.org/2000/svg">
  <defs
     id="defs26" />
  <sodipodi:namedview
     id="namedview24"
     pagecolor="#ffffff"
     bordercolor="#666666"
     borderopacity="1.0"
     inkscape:showpageshadow="2"
     inkscape:pageopacity="0.0"
     inkscape:pagecheckerboard="0"
     inkscape:deskcolor="#d1d1d1"
     showgrid="false"
     inkscape:zoom="34.541667"
     inkscape:cx="10.364294"
     inkscape:cy="12.014475"
     inkscape:window-width="1920"
     inkscape:window-height="1009"
     inkscape:window-x="1912"
     inkscape:window-y="-8"
     inkscape:window-maximized="1"
     inkscape:current-layer="svg22" />
  <path
     style="color:#000000;fill:currentColor;stroke-linecap:round;stroke-linejoin:round;-inkscape-stroke:none"
     d="m 11.970703,6.25 a 0.75,0.75 0 0 0 -0.517578,0.2480469 l -0.0098,0.00977 a 0.75,0.75 0 0 0 0.05469,1.0605469 0.75,0.75 0 0 0 1.058594,-0.056641 L 12.568359,7.5 A 0.75,0.75 0 0 0 12.511719,6.4414062 0.75,0.75 0 0 0 11.970703,6.25 Z"
     id="path2" />
  <path
     style="color:#000000;fill:currentColor;stroke-linecap:round;stroke-linejoin:round;-inkscape-stroke:none"
     d="m 15.970703,8.25 a 0.75,0.75 0 0 0 -0.517578,0.2480469 l -0.0098,0.00977 a 0.75,0.75 0 0 0 0.05469,1.0605469 0.75,0.75 0 0 0 1.058594,-0.056641 L 16.568359,9.5 A 0.75,0.75 0 0 0 16.511719,8.4414063 0.75,0.75 0 0 0 15.970703,8.25 Z"
     id="path4" />
  <path
     style="color:#000000;fill:currentColor;stroke-linecap:round;stroke-linejoin:round;-inkscape-stroke:none"
     d="M 8.5117188,8.4414063 A 0.75,0.75 0 0 0 7.453125,8.4980469 l -0.00977,0.00977 a 0.75,0.75 0 0 0 0.054687,1.0605469 0.75,0.75 0 0 0 1.0585937,-0.056641 L 8.5683594,9.5 A 0.75,0.75 0 0 0 8.5117188,8.4414063 Z"
     id="path6" />
  <path
     style="color:#000000;fill:currentColor;stroke-linecap:round;stroke-linejoin:round;-inkscape-stroke:none"
     d="m 17.970703,12.25 a 0.75,0.75 0 0 0 -0.517578,0.246094 l -0.0098,0.01172 a 0.75,0.75 0 0 0 0.05469,1.058593 0.75,0.75 0 0 0 1.058594,-0.05469 L 18.566406,13.5 A 0.75,0.75 0 0 0 18.511719,12.441406 0.75,0.75 0 0 0 17.970703,12.25 Z"
     id="path8" />
  <path
     style="color:#000000;fill:currentColor;stroke-linecap:round;stroke-linejoin:round;-inkscape-stroke:none"
     d="M 5.9707031,12.25 A 0.75,0.75 0 0 0 5.453125,12.496094 l -0.00977,0.01172 a 0.75,0.75 0 0 0 0.054687,1.058593 0.75,0.75 0 0 0 1.0585937,-0.05469 L 6.5664062,13.5 A 0.75,0.75 0 0 0 6.5117187,12.441406 0.75,0.75 0 0 0 5.9707031,12.25 Z"
     id="path10" />
  <path
     style="color:#000000;fill:currentColor;stroke-linecap:round;stroke-linejoin:round;-inkscape-stroke:none"
     d="m 17.511719,16.441406 a 0.75,0.75 0 0 0 -1.058594,0.05469 l -0.0098,0.01172 a 0.75,0.75 0 0 0 0.05469,1.058594 0.75,0.75 0 0 0 1.058594,-0.05469 L 17.566406,17.5 a 0.75,0.75 0 0 0 -0.05469,-1.058594 z"
     id="path12" />
  <path
     style="color:#000000;fill:currentColor;stroke-linecap:round;stroke-linejoin:round;-inkscape-stroke:none"
     d="M 6.9707031,16.25 A 0.75,0.75 0 0 0 6.453125,16.496094 l -0.00977,0.01172 a 0.75,0.75 0 0 0 0.054687,1.058594 0.75,0.75 0 0 0 1.0585937,-0.05469 L 7.5664062,17.5 A 0.75,0.75 0 0 0 7.5117187,16.441406 0.75,0.75 0 0 0 6.9707031,16.25 Z"
     id="path14" />
  <path
     style="color:#000000;fill:currentColor;stroke-linecap:round;stroke-linejoin:round;-inkscape-stroke:none"
     d="m 13.123047,10.259766 a 0.75,0.75 0 0 0 -0.863281,0.617187 l -1,6 a 0.75,0.75 0 0 0 0.617187,0.863281 0.75,0.75 0 0 0 0.863281,-0.617187 l 1,-6 a 0.75,0.75 0 0 0 -0.617187,-0.863281 z"
     id="path16" />
  <path
     style="color:#000000;fill:currentColor;stroke-linecap:round;stroke-linejoin:round;-inkscape-stroke:none"
     d="M 12,3.25 C 6.0718263,3.25 1.25,8.0718263 1.25,14 c 0,2.416853 0.8007421,4.654786 2.1503906,6.451172 A 0.750075,0.750075 0 0 0 4,20.751953 h 4.5 a 0.75,0.75 0 0 0 0.75,-0.75 0.75,0.75 0 0 0 -0.75,-0.75 H 4.4414062 C 3.3995063,17.755237 2.75,15.965145 2.75,14 2.75,8.8824848 6.8824848,4.75 12,4.75 c 5.117462,0 9.25,4.1324893 9.25,9.25 0,1.965141 -0.649517,3.755233 -1.691406,5.251953 L 15.5,19.25 A 0.75,0.75 0 0 0 14.75,20 0.75,0.75 0 0 0 15.5,20.75 l 4.5,0.002 a 0.750075,0.750075 0 0 0 0.599609,-0.300781 C 21.949233,18.654791 22.75,16.416858 22.75,14 22.75,8.0718217 17.928127,3.25 12,3.25 Z"
     id="path18" />
  <path
     style="color:#000000;fill:currentColor;stroke-linecap:round;stroke-linejoin:round;-inkscape-stroke:none"
     d="m 12,16.25 c -2.062203,0 -3.75,1.687797 -3.75,3.75 0,2.062203 1.687797,3.75 3.75,3.75 2.062203,0 3.75,-1.687797 3.75,-3.75 0,-2.062203 -1.687797,-3.75 -3.75,-3.75 z m 0,1.5 c 1.251594,0 2.25,0.998406 2.25,2.25 0,1.251594 -0.998406,2.25 -2.25,2.25 -1.251594,0 -2.25,-0.998406 -2.25,-2.25 0,-1.251594 0.998406,-2.25 2.25,-2.25 z"
     id="path20" />
</svg>
