<?xml version="1.0" encoding="UTF-8" standalone="no"?>
<svg
   width="24"
   height="24"
   stroke-width="1.5"
   viewBox="0 0 24 24"
   fill="none"
   version="1.1"
   id="svg14"
   sodipodi:docname="dashboard.svg"
   inkscape:version="1.2.1 (9c6d41e410, 2022-07-14)"
   xmlns:inkscape="http://www.inkscape.org/namespaces/inkscape"
   xmlns:sodipodi="http://sodipodi.sourceforge.net/DTD/sodipodi-0.dtd"
   xmlns="http://www.w3.org/2000/svg"
   xmlns:svg="http://www.w3.org/2000/svg">
  <defs
     id="defs18" />
  <sodipodi:namedview
     id="namedview16"
     pagecolor="#ffffff"
     bordercolor="#666666"
     borderopacity="1.0"
     inkscape:showpageshadow="2"
     inkscape:pageopacity="0.0"
     inkscape:pagecheckerboard="0"
     inkscape:deskcolor="#d1d1d1"
     showgrid="false"
     inkscape:zoom="34.541667"
     inkscape:cx="10.364294"
     inkscape:cy="12.014475"
     inkscape:window-width="1920"
     inkscape:window-height="1009"
     inkscape:window-x="1912"
     inkscape:window-y="-8"
     inkscape:window-maximized="1"
     inkscape:current-layer="svg14" />
  <path
     style="color:#000000;fill:currentColor;-inkscape-stroke:none"
     d="m 12,9.9335938 -0.533203,0.5390622 c 0,0 -0.779382,0.786273 -1.5625001,1.808594 C 9.1211791,13.303571 8.25,14.492756 8.25,15.800781 8.25,17.948066 9.9107586,19.75 12,19.75 c 2.089241,0 3.75,-1.801934 3.75,-3.949219 0,-1.308025 -0.871179,-2.49721 -1.654297,-3.519531 -0.783118,-1.022321 -1.5625,-1.808594 -1.5625,-1.808594 z m 0,2.2109372 c 0.273657,0.295268 0.453133,0.459856 0.904297,1.048828 C 13.621178,14.129211 14.25,15.341508 14.25,15.800781 14.25,17.188093 13.224555,18.25 12,18.25 c -1.224555,0 -2.25,-1.061907 -2.25,-2.449219 0,-0.459273 0.628822,-1.67157 1.345703,-2.607422 0.451164,-0.588972 0.63064,-0.75356 0.904297,-1.048828 z"
     id="path2" />
  <path
     style="color:#000000;fill:currentColor;stroke-linecap:round;stroke-linejoin:round;-inkscape-stroke:none"
     d="M 12,3.25 A 0.75,0.75 0 0 0 11.25,4 V 8 A 0.75,0.75 0 0 0 12,8.75 0.75,0.75 0 0 0 12.75,8 V 4 A 0.75,0.75 0 0 0 12,3.25 Z"
     id="path4" />
  <path
     style="color:#000000;fill:currentColor;stroke-linecap:round;stroke-linejoin:round;-inkscape-stroke:none"
     d="m 3.5,6.75 a 0.75,0.75 0 0 0 -0.53125,0.21875 0.75,0.75 0 0 0 0,1.0625 l 3,3 a 0.75,0.75 0 0 0 1.0625,0 0.75,0.75 0 0 0 0,-1.0625 l -3,-3 A 0.75,0.75 0 0 0 3.5,6.75 Z"
     id="path6" />
  <path
     style="color:#000000;fill:currentColor;stroke-linecap:round;stroke-linejoin:round;-inkscape-stroke:none"
     d="m 20.5,6.75 a 0.75,0.75 0 0 0 -0.53125,0.21875 l -3,3 a 0.75,0.75 0 0 0 0,1.0625 0.75,0.75 0 0 0 1.0625,0 l 3,-3 a 0.75,0.75 0 0 0 0,-1.0625 A 0.75,0.75 0 0 0 20.5,6.75 Z"
     id="path8" />
  <path
     style="color:#000000;fill:currentColor;stroke-linecap:round;stroke-linejoin:round;-inkscape-stroke:none"
     d="M 2,16.25 A 0.75,0.75 0 0 0 1.25,17 0.75,0.75 0 0 0 2,17.75 H 6 A 0.75,0.75 0 0 0 6.75,17 0.75,0.75 0 0 0 6,16.25 Z"
     id="path10" />
  <path
     style="color:#000000;fill:currentColor;stroke-linecap:round;stroke-linejoin:round;-inkscape-stroke:none"
     d="M 18,16.25 A 0.75,0.75 0 0 0 17.25,17 0.75,0.75 0 0 0 18,17.75 h 4 A 0.75,0.75 0 0 0 22.75,17 0.75,0.75 0 0 0 22,16.25 Z"
     id="path12" />
</svg>
