<?xml version="1.0" encoding="UTF-8" standalone="no"?>
<svg
   width="24"
   height="24"
   stroke-width="1.5"
   viewBox="0 0 24 24"
   fill="none"
   version="1.1"
   id="svg12"
   sodipodi:docname="database-settings.svg"
   inkscape:version="1.2.1 (9c6d41e410, 2022-07-14)"
   xmlns:inkscape="http://www.inkscape.org/namespaces/inkscape"
   xmlns:sodipodi="http://sodipodi.sourceforge.net/DTD/sodipodi-0.dtd"
   xmlns="http://www.w3.org/2000/svg"
   xmlns:svg="http://www.w3.org/2000/svg">
  <defs
     id="defs16" />
  <sodipodi:namedview
     id="namedview14"
     pagecolor="#ffffff"
     bordercolor="#666666"
     borderopacity="1.0"
     inkscape:showpageshadow="2"
     inkscape:pageopacity="0.0"
     inkscape:pagecheckerboard="0"
     inkscape:deskcolor="#d1d1d1"
     showgrid="false"
     inkscape:zoom="34.541667"
     inkscape:cx="10.364294"
     inkscape:cy="12.014475"
     inkscape:window-width="1920"
     inkscape:window-height="1009"
     inkscape:window-x="1912"
     inkscape:window-y="-8"
     inkscape:window-maximized="1"
     inkscape:current-layer="svg12" />
  <path
     style="color:#000000;fill:currentColor;stroke-linecap:round;stroke-linejoin:round;-inkscape-stroke:none"
     d="M 4,5.25 A 0.75,0.75 0 0 0 3.25,6 v 6 c 0,0 0.00997,0.354041 0.1601563,0.740234 0.1501864,0.386194 0.4452725,0.874687 0.9765624,1.330079 C 5.4492987,14.981095 7.3928607,15.75 11,15.75 c 3.607139,0 5.550701,-0.768905 6.613281,-1.679687 0.53129,-0.455392 0.826376,-0.943885 0.976563,-1.330079 C 18.74003,12.354041 18.75,12 18.75,12 V 6 A 0.75,0.75 0 0 0 18,5.25 0.75,0.75 0 0 0 17.25,6 v 6 c 0,0 0.01,0.02096 -0.05859,0.197266 -0.06856,0.176305 -0.210978,0.437814 -0.554687,0.732422 C 15.9493,13.518903 14.392854,14.25 11,14.25 7.6071462,14.25 6.0506995,13.518903 5.3632812,12.929688 5.0195721,12.63508 4.877157,12.373571 4.8085937,12.197266 4.7400305,12.02096 4.75,12 4.75,12 V 6 A 0.75,0.75 0 0 0 4,5.25 Z"
     id="path2" />
  <path
     style="color:#000000;fill:currentColor;stroke-linecap:round;stroke-linejoin:round;-inkscape-stroke:none"
     d="M 11,2.25 C 7.3928608,2.25 5.4492987,3.0189047 4.3867187,3.9296875 3.8554288,4.3850789 3.5603427,4.8735718 3.4101563,5.2597656 3.2599698,5.6459595 3.25,6 3.25,6 c 0,0 0.00997,0.3540405 0.1601563,0.7402344 C 3.5603427,7.1264282 3.8554288,7.6149211 4.3867187,8.0703125 5.4492987,8.9810953 7.3928607,9.75 11,9.75 c 3.607139,0 5.550701,-0.7689047 6.613281,-1.6796875 0.53129,-0.4553914 0.826376,-0.9438843 0.976563,-1.3300781 C 18.74003,6.3540405 18.75,6 18.75,6 c 0,0 -0.01,-0.3540405 -0.160156,-0.7402344 C 18.439657,4.8735718 18.144571,4.3850789 17.613281,3.9296875 16.550701,3.0189047 14.607139,2.25 11,2.25 Z m 0,1.5 c 3.392854,0 4.9493,0.7310968 5.636719,1.3203125 0.343709,0.2946078 0.486124,0.5561163 0.554687,0.7324219 C 17.25997,5.97904 17.25,6 17.25,6 c 0,0 0.01,0.02096 -0.05859,0.1972656 -0.06856,0.1763056 -0.210978,0.4378141 -0.554687,0.7324219 C 15.9493,7.5189032 14.392854,8.25 11,8.25 7.6071462,8.25 6.0506995,7.5189032 5.3632812,6.9296875 5.0195721,6.6350797 4.877157,6.3735712 4.8085937,6.1972656 4.7400305,6.02096 4.75,6 4.75,6 4.75,6 4.7400305,5.97904 4.8085937,5.8027344 4.877157,5.6264288 5.0195721,5.3649203 5.3632812,5.0703125 6.0506995,4.4810968 7.6071463,3.75 11,3.75 Z"
     id="path4" />
  <path
     style="color:#000000;fill:currentColor;stroke-linecap:round;stroke-linejoin:round;-inkscape-stroke:none"
     d="M 4,11.25 A 0.75,0.75 0 0 0 3.25,12 v 6 c 0,0 0.00997,0.354041 0.1601563,0.740234 0.1501864,0.386194 0.4452725,0.874687 0.9765624,1.330078 C 5.4492987,20.981095 7.3928607,21.75 11,21.75 A 0.75,0.75 0 0 0 11.75,21 0.75,0.75 0 0 0 11,20.25 C 7.6071462,20.25 6.0506995,19.518903 5.3632812,18.929687 5.0195721,18.63508 4.877157,18.373571 4.8085937,18.197266 4.7400305,18.02096 4.75,18 4.75,18 V 12 A 0.75,0.75 0 0 0 4,11.25 Z"
     id="path6" />
  <path
     style="color:#000000;fill:currentColor;stroke-linecap:round;stroke-linejoin:round;-inkscape-stroke:none"
     d="m 19,16.25 c -0.497981,0 -0.9704,0.135072 -1.375,0.369141 C 16.802807,17.094742 16.25,17.988054 16.25,19 c 0,1.011946 0.552807,1.905258 1.375,2.380859 C 18.0296,21.614928 18.502019,21.75 19,21.75 c 1.509904,0 2.75,-1.240096 2.75,-2.75 0,-1.509904 -1.240096,-2.75 -2.75,-2.75 z m 0,1.5 c 0.699294,0 1.25,0.550706 1.25,1.25 0,0.699294 -0.550706,1.25 -1.25,1.25 -0.230619,0 -0.441201,-0.05968 -0.625,-0.166016 C 18.001594,19.867986 17.75,19.468653 17.75,19 c 0,-0.468653 0.251594,-0.867986 0.625,-1.083984 C 18.558799,17.809684 18.769381,17.75 19,17.75 Z"
     id="path8" />
  <path
     style="color:#000000;fill:currentColor;stroke-linecap:round;stroke-linejoin:round;stroke-dasharray:0.3, 2;-inkscape-stroke:none"
     d="m 18.980469,15.25 -0.07422,0.002 a 0.75,0.75 0 0 0 -0.730469,0.769531 0.75,0.75 0 0 0 0.767578,0.730469 L 19,16.75 l 0.117187,0.0039 0.05078,0.0039 a 0.75,0.75 0 0 0 0.804687,-0.691406 0.75,0.75 0 0 0 -0.691406,-0.804687 l -0.07031,-0.0059 a 0.750075,0.750075 0 0 0 -0.03711,-0.002 L 19.019531,15.25 a 0.750075,0.750075 0 0 0 -0.03906,0 z m -1.839844,0.691406 a 0.75,0.75 0 0 0 -0.544922,0.181641 l -0.103516,0.08984 a 0.750075,0.750075 0 0 0 -0.02734,0.02344 l -0.103516,0.09961 a 0.750075,0.750075 0 0 0 -0.02539,0.02539 l -0.01367,0.01367 a 0.75,0.75 0 0 0 0.02539,1.060547 0.75,0.75 0 0 0 1.060547,-0.02539 v -0.002 l 0.08008,-0.07422 0.08984,-0.07813 a 0.75,0.75 0 0 0 0.07617,-1.058593 0.75,0.75 0 0 0 -0.513672,-0.25586 z m 3.867187,0.09766 a 0.75,0.75 0 0 0 -0.523437,0.232422 0.75,0.75 0 0 0 0.02539,1.058594 l 0.08203,0.07813 0.07422,0.08008 0.0039,0.0039 a 0.75,0.75 0 0 0 1.058594,0.07617 0.75,0.75 0 0 0 0.07617,-1.058593 l -0.01758,-0.01758 a 0.750075,0.750075 0 0 0 -0.02344,-0.02734 l -0.09961,-0.103516 a 0.750075,0.750075 0 0 0 -0.02539,-0.02539 l -0.09375,-0.08984 a 0.75,0.75 0 0 0 -0.53711,-0.207032 z m -4.894531,1.878907 a 0.75,0.75 0 0 0 -0.83789,0.65039 l -0.0039,0.03125 a 0.750075,0.750075 0 0 0 -0.0039,0.03711 l -0.01172,0.152343 a 0.750075,0.750075 0 0 0 -0.002,0.03711 l -0.002,0.117187 A 0.75,0.75 0 0 0 15.982422,19.712891 0.75,0.75 0 0 0 16.75,18.980469 l 0.0039,-0.09766 0.0078,-0.113281 0.002,-0.01172 a 0.75,0.75 0 0 0 -0.650391,-0.839843 z m 5.824219,0.146484 a 0.75,0.75 0 0 0 -0.691406,0.804688 v 0.01367 L 21.25,19 l -0.002,0.09375 a 0.75,0.75 0 0 0 0.730469,0.769531 0.75,0.75 0 0 0 0.767578,-0.732422 L 22.75,19.019531 a 0.750075,0.750075 0 0 0 0,-0.03906 l -0.0039,-0.154297 a 0.750075,0.750075 0 0 0 -0.002,-0.03711 l -0.002,-0.0332 A 0.75,0.75 0 0 0 21.9375,18.064453 Z m -0.705078,2.128906 a 0.75,0.75 0 0 0 -0.513672,0.257813 l -0.05273,0.06055 -0.07422,0.08008 -0.0293,0.02539 a 0.75,0.75 0 0 0 -0.02539,1.060547 0.75,0.75 0 0 0 1.060547,0.02539 l 0.04102,-0.03906 a 0.750075,0.750075 0 0 0 0.02539,-0.02539 l 0.09961,-0.103516 a 0.750075,0.750075 0 0 0 0.02344,-0.02734 l 0.06641,-0.07422 A 0.75,0.75 0 0 0 21.777344,20.375 0.75,0.75 0 0 0 21.232422,20.193359 Z m -5.076172,0.04102 a 0.75,0.75 0 0 0 -0.126953,1.054687 l 0.06641,0.08203 a 0.750075,0.750075 0 0 0 0.02148,0.02734 l 0.0957,0.109375 a 0.750075,0.750075 0 0 0 0.02344,0.02734 l 0.03516,0.03516 a 0.75,0.75 0 0 0 1.060547,0.02539 0.75,0.75 0 0 0 0.02539,-1.060547 l -0.02344,-0.02344 -0.07031,-0.08008 -0.05469,-0.07031 A 0.75,0.75 0 0 0 16.15625,20.234375 Z m 2.490234,0.988281 a 0.75,0.75 0 0 0 -0.839843,0.648438 0.75,0.75 0 0 0 0.65039,0.839843 l 0.142578,0.01758 a 0.750075,0.750075 0 0 0 0.03711,0.0039 l 0.152343,0.01172 a 0.750075,0.750075 0 0 0 0.03711,0.002 h 0.0039 a 0.75,0.75 0 0 0 0.0918,-0.08789 0.75,0.75 0 0 0 0.09766,0.0918 l 0.154297,-0.0039 a 0.750075,0.750075 0 0 0 0.03711,-0.002 l 0.144532,-0.01172 a 0.75,0.75 0 0 0 0.691406,-0.804688 0.75,0.75 0 0 0 -0.804688,-0.691406 l -0.125,0.0098 -0.136718,0.0039 a 0.75,0.75 0 0 0 -0.01758,0.01758 0.75,0.75 0 0 0 -0.09375,-0.02148 l -0.09961,-0.0078 z"
     id="path10" />
</svg>
