<?xml version="1.0" encoding="UTF-8" standalone="no"?>
<svg
   width="24"
   height="24"
   stroke-width="1.5"
   viewBox="0 0 24 24"
   fill="none"
   version="1.1"
   id="svg8"
   sodipodi:docname="database.svg"
   inkscape:version="1.2.1 (9c6d41e410, 2022-07-14)"
   xmlns:inkscape="http://www.inkscape.org/namespaces/inkscape"
   xmlns:sodipodi="http://sodipodi.sourceforge.net/DTD/sodipodi-0.dtd"
   xmlns="http://www.w3.org/2000/svg"
   xmlns:svg="http://www.w3.org/2000/svg">
  <defs
     id="defs12" />
  <sodipodi:namedview
     id="namedview10"
     pagecolor="#ffffff"
     bordercolor="#666666"
     borderopacity="1.0"
     inkscape:showpageshadow="2"
     inkscape:pageopacity="0.0"
     inkscape:pagecheckerboard="0"
     inkscape:deskcolor="#d1d1d1"
     showgrid="false"
     inkscape:zoom="34.541667"
     inkscape:cx="10.364294"
     inkscape:cy="12.014475"
     inkscape:window-width="1920"
     inkscape:window-height="1009"
     inkscape:window-x="1912"
     inkscape:window-y="-8"
     inkscape:window-maximized="1"
     inkscape:current-layer="svg8" />
  <path
     style="color:#000000;fill:currentColor;-inkscape-stroke:none"
     d="m 4.25,12 v 6 c 0,0 0.00997,0.354041 0.1601562,0.740234 0.1501865,0.386194 0.4452726,0.874687 0.9765625,1.330078 C 6.4492987,20.981095 8.3928608,21.75 12,21.75 c 3.607139,0 5.550701,-0.768905 6.613281,-1.679688 0.53129,-0.455391 0.826376,-0.943884 0.976563,-1.330078 C 19.74003,18.354041 19.75,18 19.75,18 v -6 h -1.5 v 6 c 0,0 0.01,0.02096 -0.05859,0.197266 -0.06856,0.176305 -0.210978,0.437814 -0.554687,0.732421 C 16.9493,19.518903 15.392854,20.25 12,20.25 8.6071463,20.25 7.0506995,19.518903 6.3632812,18.929687 6.0195721,18.63508 5.877157,18.373571 5.8085937,18.197266 5.7400305,18.02096 5.75,18 5.75,18 v -6 z"
     id="path2" />
  <path
     style="color:#000000;fill:currentColor;-inkscape-stroke:none"
     d="m 4.25,6 v 6 c 0,0 0.00997,0.354041 0.1601562,0.740234 0.1501865,0.386194 0.4452726,0.874687 0.9765625,1.330079 C 6.4492987,14.981095 8.3928608,15.75 12,15.75 c 3.607139,0 5.550701,-0.768905 6.613281,-1.679687 0.53129,-0.455392 0.826376,-0.943885 0.976563,-1.330079 C 19.74003,12.354041 19.75,12 19.75,12 V 6 h -1.5 v 6 c 0,0 0.01,0.02096 -0.05859,0.197266 -0.06856,0.176305 -0.210978,0.437814 -0.554687,0.732422 C 16.9493,13.518903 15.392854,14.25 12,14.25 8.6071463,14.25 7.0506995,13.518903 6.3632812,12.929688 6.0195721,12.63508 5.877157,12.373571 5.8085937,12.197266 5.7400305,12.02096 5.75,12 5.75,12 V 6 Z"
     id="path4" />
  <path
     style="color:#000000;fill:currentColor;-inkscape-stroke:none"
     d="M 12,2.25 C 8.3928608,2.25 6.4492987,3.0189047 5.3867187,3.9296875 4.8554288,4.3850789 4.5603427,4.8735718 4.4101562,5.2597656 4.2599698,5.6459595 4.25,6 4.25,6 c 0,0 0.00997,0.3540405 0.1601562,0.7402344 C 4.5603427,7.1264282 4.8554288,7.6149211 5.3867187,8.0703125 6.4492987,8.9810953 8.3928608,9.75 12,9.75 c 3.607139,0 5.550701,-0.7689047 6.613281,-1.6796875 0.53129,-0.4553914 0.826376,-0.9438843 0.976563,-1.3300781 C 19.74003,6.3540405 19.75,6 19.75,6 c 0,0 -0.01,-0.3540405 -0.160156,-0.7402344 C 19.439657,4.8735718 19.144571,4.3850789 18.613281,3.9296875 17.550701,3.0189047 15.607139,2.25 12,2.25 Z m 0,1.5 c 3.392854,0 4.9493,0.7310968 5.636719,1.3203125 0.343709,0.2946078 0.486124,0.5561163 0.554687,0.7324219 C 18.25997,5.97904 18.25,6 18.25,6 c 0,0 0.01,0.02096 -0.05859,0.1972656 -0.06856,0.1763056 -0.210978,0.4378141 -0.554687,0.7324219 C 16.9493,7.5189032 15.392854,8.25 12,8.25 8.6071463,8.25 7.0506995,7.5189032 6.3632812,6.9296875 6.0195721,6.6350797 5.877157,6.3735712 5.8085937,6.1972656 5.7400305,6.02096 5.75,6 5.75,6 5.75,6 5.7400305,5.97904 5.8085937,5.8027344 5.877157,5.6264288 6.0195721,5.3649203 6.3632812,5.0703125 7.0506995,4.4810968 8.6071463,3.75 12,3.75 Z"
     id="path6" />
</svg>
