<?xml version="1.0" encoding="UTF-8" standalone="no"?>
<svg
   width="24"
   height="24"
   stroke-width="1.5"
   viewBox="0 0 24 24"
   fill="none"
   version="1.1"
   id="svg8"
   sodipodi:docname="database-script-minus.svg"
   inkscape:version="1.2.1 (9c6d41e410, 2022-07-14)"
   xmlns:inkscape="http://www.inkscape.org/namespaces/inkscape"
   xmlns:sodipodi="http://sodipodi.sourceforge.net/DTD/sodipodi-0.dtd"
   xmlns="http://www.w3.org/2000/svg"
   xmlns:svg="http://www.w3.org/2000/svg">
  <defs
     id="defs12" />
  <sodipodi:namedview
     id="namedview10"
     pagecolor="#ffffff"
     bordercolor="#666666"
     borderopacity="1.0"
     inkscape:showpageshadow="2"
     inkscape:pageopacity="0.0"
     inkscape:pagecheckerboard="0"
     inkscape:deskcolor="#d1d1d1"
     showgrid="false"
     inkscape:zoom="34.541667"
     inkscape:cx="10.364294"
     inkscape:cy="12.014475"
     inkscape:window-width="1920"
     inkscape:window-height="1009"
     inkscape:window-x="1912"
     inkscape:window-y="-8"
     inkscape:window-maximized="1"
     inkscape:current-layer="svg8" />
  <path
     style="color:#000000;fill:currentColor;stroke-linecap:round;stroke-linejoin:round;-inkscape-stroke:none"
     d="M 9,2.25 C 6.9378197,2.25 5.25,3.9378197 5.25,6 v 7 A 0.75,0.75 0 0 0 6,13.75 0.75,0.75 0 0 0 6.75,13 V 6 C 6.75,4.7484837 7.7484837,3.75 9,3.75 h 5 A 0.75,0.75 0 0 0 14.75,3 0.75,0.75 0 0 0 14,2.25 Z m 13,5.5 A 0.75,0.75 0 0 0 21.25,8.5 V 14 A 0.75,0.75 0 0 0 22,14.75 0.75,0.75 0 0 0 22.75,14 V 8.5 A 0.75,0.75 0 0 0 22,7.75 Z"
     id="path2" />
  <path
     style="color:#000000;fill:currentColor;stroke-linecap:round;stroke-linejoin:round;-inkscape-stroke:none"
     d="M 18,3.25 A 0.75,0.75 0 0 0 17.25,4 0.75,0.75 0 0 0 18,4.75 h 4 A 0.75,0.75 0 0 0 22.75,4 0.75,0.75 0 0 0 22,3.25 Z"
     id="path4" />
  <path
     style="color:#000000;fill:currentColor;stroke-linecap:round;stroke-linejoin:round;-inkscape-stroke:none"
     d="m 6,12.25 c -2.6144761,0 -4.75,2.135566 -4.75,4.75 0,2.614434 2.1355239,4.75 4.75,4.75 h 6 A 0.75,0.75 0 0 0 12.75,21 0.75,0.75 0 0 0 12,20.25 H 6 C 4.1962005,20.25 2.75,18.803761 2.75,17 2.75,15.196239 4.1962005,13.75 6,13.75 h 8.574219 C 13.765658,14.602456 13.25,15.738255 13.25,17 c 0,2.614443 2.135557,4.75 4.75,4.75 2.614443,0 4.75,-2.135557 4.75,-4.75 V 14 A 0.75,0.75 0 0 0 22,13.25 0.75,0.75 0 0 0 21.25,14 v 3 c 0,1.803752 -1.446248,3.25 -3.25,3.25 -1.803752,0 -3.25,-1.446248 -3.25,-3.25 0,-1.803752 1.446248,-3.25 3.25,-3.25 a 0.750075,0.750075 0 0 0 0,-1.5 h -1 z"
     id="path6" />
</svg>
