<?xml version="1.0" encoding="UTF-8" standalone="no"?>
<svg
   width="24"
   height="24"
   stroke-width="1.5"
   viewBox="0 0 24 24"
   fill="none"
   version="1.1"
   id="svg18"
   sodipodi:docname="database-backup.svg"
   inkscape:version="1.2.1 (9c6d41e410, 2022-07-14)"
   xmlns:inkscape="http://www.inkscape.org/namespaces/inkscape"
   xmlns:sodipodi="http://sodipodi.sourceforge.net/DTD/sodipodi-0.dtd"
   xmlns="http://www.w3.org/2000/svg"
   xmlns:svg="http://www.w3.org/2000/svg">
  <defs
     id="defs22" />
  <sodipodi:namedview
     id="namedview20"
     pagecolor="#ffffff"
     bordercolor="#666666"
     borderopacity="1.0"
     inkscape:showpageshadow="2"
     inkscape:pageopacity="0.0"
     inkscape:pagecheckerboard="0"
     inkscape:deskcolor="#d1d1d1"
     showgrid="false"
     inkscape:zoom="34.541667"
     inkscape:cx="10.364294"
     inkscape:cy="12.014475"
     inkscape:window-width="1920"
     inkscape:window-height="1009"
     inkscape:window-x="1912"
     inkscape:window-y="-8"
     inkscape:window-maximized="1"
     inkscape:current-layer="svg18" />
  <path
     style="color:#000000;fill:currentColor;stroke-linecap:round;stroke-linejoin:round;-inkscape-stroke:none"
     d="M 4,5.25 A 0.75,0.75 0 0 0 3.25,6 v 6 c 0,0 0.00997,0.354041 0.1601563,0.740234 0.1501864,0.386194 0.4452725,0.874687 0.9765624,1.330079 C 5.4492987,14.981095 7.3928607,15.75 11,15.75 c 0.610643,0 1.173611,-0.02151 1.691406,-0.0625 a 0.75,0.75 0 0 0 0.6875,-0.806641 0.75,0.75 0 0 0 -0.80664,-0.689453 C 12.097262,14.229012 11.574356,14.25 11,14.25 7.6071462,14.25 6.0506995,13.518903 5.3632812,12.929688 5.0195721,12.63508 4.877157,12.373571 4.8085937,12.197266 4.7400305,12.02096 4.75,12 4.75,12 V 6 A 0.75,0.75 0 0 0 4,5.25 Z"
     id="path2" />
  <path
     style="color:#000000;fill:currentColor;stroke-linecap:round;stroke-linejoin:round;-inkscape-stroke:none"
     d="M 18,5.25 A 0.75,0.75 0 0 0 17.25,6 v 6 A 0.75,0.75 0 0 0 18,12.75 0.75,0.75 0 0 0 18.75,12 V 6 A 0.75,0.75 0 0 0 18,5.25 Z"
     id="path4" />
  <path
     style="color:#000000;fill:currentColor;stroke-linecap:round;stroke-linejoin:round;-inkscape-stroke:none"
     d="M 11,2.25 C 7.3928608,2.25 5.4492987,3.0189047 4.3867187,3.9296875 3.8554288,4.3850789 3.5603427,4.8735718 3.4101563,5.2597656 3.2599698,5.6459595 3.25,6 3.25,6 c 0,0 0.00997,0.3540405 0.1601563,0.7402344 C 3.5603427,7.1264282 3.8554288,7.6149211 4.3867187,8.0703125 5.4492987,8.9810953 7.3928607,9.75 11,9.75 c 3.607139,0 5.550701,-0.7689047 6.613281,-1.6796875 0.53129,-0.4553914 0.826376,-0.9438843 0.976563,-1.3300781 C 18.74003,6.3540405 18.75,6 18.75,6 c 0,0 -0.01,-0.3540405 -0.160156,-0.7402344 C 18.439657,4.8735718 18.144571,4.3850789 17.613281,3.9296875 16.550701,3.0189047 14.607139,2.25 11,2.25 Z m 0,1.5 c 3.392854,0 4.9493,0.7310968 5.636719,1.3203125 0.343709,0.2946078 0.486124,0.5561163 0.554687,0.7324219 C 17.25997,5.97904 17.25,6 17.25,6 c 0,0 0.01,0.02096 -0.05859,0.1972656 -0.06856,0.1763056 -0.210978,0.4378141 -0.554687,0.7324219 C 15.9493,7.5189032 14.392854,8.25 11,8.25 7.6071462,8.25 6.0506995,7.5189032 5.3632812,6.9296875 5.0195721,6.6350797 4.877157,6.3735712 4.8085937,6.1972656 4.7400305,6.02096 4.75,6 4.75,6 4.75,6 4.7400305,5.97904 4.8085937,5.8027344 4.877157,5.6264288 5.0195721,5.3649203 5.3632812,5.0703125 6.0506995,4.4810968 7.6071463,3.75 11,3.75 Z"
     id="path6" />
  <path
     style="color:#000000;fill:currentColor;stroke-linecap:round;stroke-linejoin:round;-inkscape-stroke:none"
     d="M 4,11.25 A 0.75,0.75 0 0 0 3.25,12 v 6 c 0,0 0.00997,0.354041 0.1601563,0.740234 0.1501864,0.386194 0.4452725,0.874687 0.9765624,1.330078 C 5.4492987,20.981095 7.3928607,21.75 11,21.75 A 0.75,0.75 0 0 0 11.75,21 0.75,0.75 0 0 0 11,20.25 C 7.6071462,20.25 6.0506995,19.518903 5.3632812,18.929687 5.0195721,18.63508 4.877157,18.373571 4.8085937,18.197266 4.7400305,18.02096 4.75,18 4.75,18 V 12 A 0.75,0.75 0 0 0 4,11.25 Z"
     id="path8" />
  <path
     style="color:#000000;fill:currentColor;stroke-linecap:round;stroke-linejoin:round;-inkscape-stroke:none"
     d="m 18.990234,14.25 c -2.115034,0 -3.883356,1.505903 -4.509765,3.527344 a 0.75,0.75 0 0 0 0.49414,0.939453 0.75,0.75 0 0 0 0.939454,-0.494141 C 16.369452,16.7531 17.588672,15.75 18.990234,15.75 c 1.310843,0 2.458868,0.873222 2.978516,2.191406 a 0.75,0.75 0 0 0 0.972656,0.423828 0.75,0.75 0 0 0 0.421875,-0.972656 C 22.645331,15.571365 20.968189,14.25 18.990234,14.25 Z"
     id="path10" />
  <path
     style="color:#000000;fill:currentColor;stroke-linecap:round;stroke-linejoin:round;-inkscape-stroke:none"
     d="m 23,14.695313 a 0.75,0.75 0 0 0 -0.75,0.75 v 1.470703 h -1.255859 a 0.75,0.75 0 0 0 -0.75,0.75 0.75,0.75 0 0 0 0.75,0.75 h 1.671875 c 0.589616,0 1.083984,-0.494368 1.083984,-1.083985 v -1.886718 a 0.75,0.75 0 0 0 -0.75,-0.75 z"
     id="path12" />
  <path
     style="color:#000000;fill:currentColor;stroke-linecap:round;stroke-linejoin:round;-inkscape-stroke:none"
     d="m 23.025391,19.283203 a 0.75,0.75 0 0 0 -0.939454,0.494141 C 21.630548,21.2469 20.411328,22.25 19.009766,22.25 c -1.310843,0 -2.458868,-0.873222 -2.978516,-2.191406 a 0.75,0.75 0 0 0 -0.972656,-0.423828 0.75,0.75 0 0 0 -0.421875,0.972656 c 0.71795,1.821213 2.395092,3.142578 4.373047,3.142578 2.115034,0 3.883356,-1.505903 4.509765,-3.527344 a 0.75,0.75 0 0 0 -0.49414,-0.939453 z"
     id="path14" />
  <path
     style="color:#000000;fill:currentColor;stroke-linecap:round;stroke-linejoin:round;-inkscape-stroke:none"
     d="m 15.333984,19.583984 c -0.589616,0 -1.083984,0.494368 -1.083984,1.083985 v 1.886718 a 0.75,0.75 0 0 0 0.75,0.75 0.75,0.75 0 0 0 0.75,-0.75 v -1.470703 h 1.255859 a 0.75,0.75 0 0 0 0.75,-0.75 0.75,0.75 0 0 0 -0.75,-0.75 z"
     id="path16" />
</svg>
