<?xml version="1.0" encoding="UTF-8" standalone="no"?>
<svg
   width="24"
   height="24"
   stroke-width="1.5"
   viewBox="0 0 24 24"
   fill="none"
   version="1.1"
   id="svg16"
   sodipodi:docname="delivery-truck.svg"
   inkscape:version="1.2.1 (9c6d41e410, 2022-07-14)"
   xmlns:inkscape="http://www.inkscape.org/namespaces/inkscape"
   xmlns:sodipodi="http://sodipodi.sourceforge.net/DTD/sodipodi-0.dtd"
   xmlns="http://www.w3.org/2000/svg"
   xmlns:svg="http://www.w3.org/2000/svg">
  <defs
     id="defs20" />
  <sodipodi:namedview
     id="namedview18"
     pagecolor="#ffffff"
     bordercolor="#666666"
     borderopacity="1.0"
     inkscape:showpageshadow="2"
     inkscape:pageopacity="0.0"
     inkscape:pagecheckerboard="0"
     inkscape:deskcolor="#d1d1d1"
     showgrid="false"
     inkscape:zoom="34.541667"
     inkscape:cx="10.364294"
     inkscape:cy="12.014475"
     inkscape:window-width="1920"
     inkscape:window-height="1009"
     inkscape:window-x="1912"
     inkscape:window-y="-8"
     inkscape:window-maximized="1"
     inkscape:current-layer="svg16" />
  <path
     style="color:#000000;fill:currentColor;stroke-linecap:round;stroke-linejoin:round;stroke-miterlimit:1.5;-inkscape-stroke:none"
     d="m 8,14.25 c -1.5098846,0 -2.75,1.240083 -2.75,2.75 0,1.509917 1.2401154,2.75 2.75,2.75 1.5098846,0 2.75,-1.240083 2.75,-2.75 0,-1.509917 -1.2401154,-2.75 -2.75,-2.75 z m 0,1.5 c 0.6992532,0 1.25,0.550719 1.25,1.25 0,0.699281 -0.5507468,1.25 -1.25,1.25 -0.6992532,0 -1.25,-0.550719 -1.25,-1.25 0,-0.699281 0.5507468,-1.25 1.25,-1.25 z"
     id="path2" />
  <path
     style="color:#000000;fill:currentColor;stroke-linecap:round;stroke-linejoin:round;stroke-miterlimit:1.5;-inkscape-stroke:none"
     d="m 18,14.25 c -1.509904,0 -2.75,1.240096 -2.75,2.75 0,1.509904 1.240096,2.75 2.75,2.75 1.509904,0 2.75,-1.240096 2.75,-2.75 0,-1.509904 -1.240096,-2.75 -2.75,-2.75 z m 0,1.5 c 0.699294,0 1.25,0.550706 1.25,1.25 0,0.699294 -0.550706,1.25 -1.25,1.25 -0.699294,0 -1.25,-0.550706 -1.25,-1.25 0,-0.699294 0.550706,-1.25 1.25,-1.25 z"
     id="path4" />
  <path
     style="color:#000000;fill:currentColor;stroke-linecap:round;-inkscape-stroke:none"
     d="M 1,5.25 A 0.75,0.75 0 0 0 0.25,6 0.75,0.75 0 0 0 1,6.75 h 13.25 v 9.5 H 10.050781 A 0.75,0.75 0 0 0 9.3007813,17 0.75,0.75 0 0 0 10.050781,17.75 H 15.75 V 6.5996094 C 15.75,5.862953 15.137086,5.25 14.400391,5.25 Z"
     id="path6" />
  <path
     style="color:#000000;fill:currentColor;stroke-linecap:round;-inkscape-stroke:none"
     d="M 3,10.75 A 0.75,0.75 0 0 0 2.25,11.5 v 4.900391 C 2.25,17.137086 2.862953,17.75 3.5996094,17.75 h 2.0507812 a 0.75,0.75 0 0 0 0.75,-0.75 0.75,0.75 0 0 0 -0.75,-0.75 H 3.75 V 11.5 A 0.75,0.75 0 0 0 3,10.75 Z"
     id="path8" />
  <path
     style="color:#000000;fill:currentColor;stroke-linecap:round;stroke-linejoin:round;-inkscape-stroke:none"
     d="M 2,8.25 A 0.75,0.75 0 0 0 1.25,9 0.75,0.75 0 0 0 2,9.75 H 6 A 0.75,0.75 0 0 0 6.75,9 0.75,0.75 0 0 0 6,8.25 Z"
     id="path10" />
  <path
     style="color:#000000;fill:currentColor;stroke-linecap:round;-inkscape-stroke:none"
     d="M 15,8.25 A 0.75,0.75 0 0 0 14.25,9 0.75,0.75 0 0 0 15,9.75 h 5.511719 L 22.25,13.65625 V 16.25 H 20.5 A 0.75,0.75 0 0 0 19.75,17 0.75,0.75 0 0 0 20.5,17.75 h 1.900391 C 23.13704,17.75 23.75,17.13704 23.75,16.400391 v -2.773438 c 0,-0.188786 -0.0406,-0.374381 -0.117188,-0.546875 L 21.84375,9.0507813 C 21.62784,8.5649725 21.140949,8.25 20.609375,8.25 Z"
     id="path12" />
  <path
     style="color:#000000;fill:currentColor;stroke-linecap:round;-inkscape-stroke:none"
     d="M 15,16.25 A 0.75,0.75 0 0 0 14.25,17 0.75,0.75 0 0 0 15,17.75 h 1 A 0.75,0.75 0 0 0 16.75,17 0.75,0.75 0 0 0 16,16.25 Z"
     id="path14" />
</svg>
