<?xml version="1.0" encoding="UTF-8" standalone="no"?>
<svg
   width="24"
   height="24"
   viewBox="0 0 24 24"
   stroke-width="1.5"
   fill="none"
   version="1.1"
   id="svg20"
   sodipodi:docname="depth.svg"
   inkscape:version="1.2.1 (9c6d41e410, 2022-07-14)"
   xmlns:inkscape="http://www.inkscape.org/namespaces/inkscape"
   xmlns:sodipodi="http://sodipodi.sourceforge.net/DTD/sodipodi-0.dtd"
   xmlns="http://www.w3.org/2000/svg"
   xmlns:svg="http://www.w3.org/2000/svg">
  <defs
     id="defs24" />
  <sodipodi:namedview
     id="namedview22"
     pagecolor="#ffffff"
     bordercolor="#666666"
     borderopacity="1.0"
     inkscape:showpageshadow="2"
     inkscape:pageopacity="0.0"
     inkscape:pagecheckerboard="0"
     inkscape:deskcolor="#d1d1d1"
     showgrid="false"
     inkscape:zoom="34.541667"
     inkscape:cx="10.364294"
     inkscape:cy="12.014475"
     inkscape:window-width="1920"
     inkscape:window-height="1009"
     inkscape:window-x="1912"
     inkscape:window-y="-8"
     inkscape:window-maximized="1"
     inkscape:current-layer="svg20" />
  <path
     style="color:#000000;fill:currentColor;stroke-linecap:round;stroke-linejoin:round;-inkscape-stroke:none"
     d="M 2,19.25 A 0.75,0.75 0 0 0 1.25,20 0.75,0.75 0 0 0 2,20.75 H 22 A 0.75,0.75 0 0 0 22.75,20 0.75,0.75 0 0 0 22,19.25 Z"
     id="path2" />
  <path
     style="color:#000000;fill:currentColor;stroke-linecap:round;stroke-linejoin:round;-inkscape-stroke:none"
     d="M 5,3.25 A 0.75,0.75 0 0 0 4.25,4 0.75,0.75 0 0 0 5,4.75 H 19 A 0.75,0.75 0 0 0 19.75,4 0.75,0.75 0 0 0 19,3.25 Z"
     id="path4" />
  <path
     style="color:#000000;fill:currentColor;stroke-linecap:round;stroke-linejoin:round;-inkscape-stroke:none"
     d="m 3.5117188,15.441406 a 0.75,0.75 0 0 0 -1.0585938,0.05469 l -0.00977,0.01172 a 0.75,0.75 0 0 0 0.054687,1.058593 0.75,0.75 0 0 0 1.0585937,-0.05469 L 3.5664063,16.5 a 0.75,0.75 0 0 0 -0.054687,-1.058594 z"
     id="path6" />
  <path
     style="color:#000000;fill:currentColor;stroke-linecap:round;stroke-linejoin:round;-inkscape-stroke:none"
     d="M 21.039062,15.25 A 0.75,0.75 0 0 0 20.498047,15.441406 0.75,0.75 0 0 0 20.443359,16.5 l 0.0098,0.01172 a 0.75,0.75 0 0 0 1.058594,0.05469 0.75,0.75 0 0 0 0.05469,-1.058593 l -0.0098,-0.01172 A 0.75,0.75 0 0 0 21.039062,15.25 Z"
     id="path8" />
  <path
     style="color:#000000;fill:currentColor;stroke-linecap:round;stroke-linejoin:round;-inkscape-stroke:none"
     d="M 3.9707031,11.25 A 0.75,0.75 0 0 0 3.453125,11.496094 l -0.00977,0.01172 a 0.75,0.75 0 0 0 0.054687,1.058593 0.75,0.75 0 0 0 1.0585937,-0.05469 L 4.5664062,12.5 A 0.75,0.75 0 0 0 4.5117187,11.441406 0.75,0.75 0 0 0 3.9707031,11.25 Z"
     id="path10" />
  <path
     style="color:#000000;fill:currentColor;stroke-linecap:round;stroke-linejoin:round;-inkscape-stroke:none"
     d="M 20.039062,11.25 A 0.75,0.75 0 0 0 19.498047,11.441406 0.75,0.75 0 0 0 19.443359,12.5 l 0.0098,0.01172 a 0.75,0.75 0 0 0 1.058594,0.05469 0.75,0.75 0 0 0 0.05469,-1.058593 l -0.0098,-0.01172 A 0.75,0.75 0 0 0 20.039062,11.25 Z"
     id="path12" />
  <path
     style="color:#000000;fill:currentColor;stroke-linecap:round;stroke-linejoin:round;-inkscape-stroke:none"
     d="M 4.9707031,7.25 A 0.75,0.75 0 0 0 4.453125,7.4980469 l -0.00977,0.00977 a 0.75,0.75 0 0 0 0.054687,1.0605469 0.75,0.75 0 0 0 1.0585937,-0.056641 L 5.5683594,8.5 A 0.75,0.75 0 0 0 5.5117187,7.4414062 0.75,0.75 0 0 0 4.9707031,7.25 Z"
     id="path14" />
  <path
     style="color:#000000;fill:currentColor;stroke-linecap:round;stroke-linejoin:round;-inkscape-stroke:none"
     d="M 18.498047,7.4414062 A 0.75,0.75 0 0 0 18.441406,8.5 l 0.01172,0.011719 a 0.75,0.75 0 0 0 1.058594,0.056641 0.75,0.75 0 0 0 0.05469,-1.0605469 l -0.0098,-0.00977 a 0.75,0.75 0 0 0 -1.058594,-0.056641 z"
     id="path16" />
  <path
     style="color:#000000;fill:currentColor;stroke-linecap:round;stroke-linejoin:round;-inkscape-stroke:none"
     d="m 12,6.25 a 0.75,0.75 0 0 0 -0.53125,0.21875 l -1.5,1.5 a 0.75,0.75 0 0 0 0,1.0625 0.75,0.75 0 0 0 1.0625,0 L 11.25,8.8125 v 6.375 L 9.53125,13.46875 a 0.75,0.75 0 0 0 -1.0625,0 0.75,0.75 0 0 0 0,1.0625 l 3,3 A 0.75,0.75 0 0 0 12,17.75 0.75,0.75 0 0 0 12.53125,17.53125 l 3,-3 a 0.75,0.75 0 0 0 0,-1.0625 0.75,0.75 0 0 0 -1.0625,0 L 12.75,15.1875 v -6.375 l 0.21875,0.21875 a 0.75,0.75 0 0 0 1.0625,0 0.75,0.75 0 0 0 0,-1.0625 l -1.5,-1.5 A 0.75,0.75 0 0 0 12,6.25 Z"
     id="path18" />
</svg>
