<?xml version="1.0" encoding="UTF-8" standalone="no"?>
<svg
   width="24"
   height="24"
   stroke-width="1.5"
   viewBox="0 0 24 24"
   fill="none"
   version="1.1"
   id="svg8"
   sodipodi:docname="design-pencil.svg"
   inkscape:version="1.2.1 (9c6d41e410, 2022-07-14)"
   xmlns:inkscape="http://www.inkscape.org/namespaces/inkscape"
   xmlns:sodipodi="http://sodipodi.sourceforge.net/DTD/sodipodi-0.dtd"
   xmlns="http://www.w3.org/2000/svg"
   xmlns:svg="http://www.w3.org/2000/svg">
  <defs
     id="defs12" />
  <sodipodi:namedview
     id="namedview10"
     pagecolor="#ffffff"
     bordercolor="#666666"
     borderopacity="1.0"
     inkscape:showpageshadow="2"
     inkscape:pageopacity="0.0"
     inkscape:pagecheckerboard="0"
     inkscape:deskcolor="#d1d1d1"
     showgrid="false"
     inkscape:zoom="34.541667"
     inkscape:cx="10.364294"
     inkscape:cy="12.014475"
     inkscape:window-width="1920"
     inkscape:window-height="1009"
     inkscape:window-x="1912"
     inkscape:window-y="-8"
     inkscape:window-maximized="1"
     inkscape:current-layer="svg8" />
  <path
     style="color:#000000;fill:currentColor;stroke-linecap:round;stroke-linejoin:round;-inkscape-stroke:none"
     d="M 12,1.25 C 6.0718263,1.25 1.25,6.0718263 1.25,12 1.25,17.928127 6.0718217,22.75 12,22.75 17.928132,22.75 22.75,17.928132 22.75,12 22.75,6.0718217 17.928127,1.25 12,1.25 Z m 0,1.5 c 5.117462,0 9.25,4.1324893 9.25,9.25 0,5.117457 -4.132543,9.25 -9.25,9.25 C 6.8824893,21.25 2.75,17.117462 2.75,12 2.75,6.8824848 6.8824848,2.75 12,2.75 Z"
     id="path2" />
  <path
     style="color:#000000;fill:currentColor;stroke-linecap:round;stroke-linejoin:round;-inkscape-stroke:none"
     d="M 12,6.25 A 0.750075,0.750075 0 0 0 11.349609,6.6269531 L 7.3496094,13.626953 A 0.750075,0.750075 0 0 0 7.25,14 v 7.167969 a 0.75,0.75 0 0 0 0.75,0.75 0.75,0.75 0 0 0 0.75,-0.75 v -6.96875 L 12,8.5117188 15.25,14.199219 v 6.96875 a 0.75,0.75 0 0 0 0.75,0.75 0.75,0.75 0 0 0 0.75,-0.75 V 14 a 0.750075,0.750075 0 0 0 -0.09961,-0.373047 l -4,-6.9999999 A 0.750075,0.750075 0 0 0 12,6.25 Z"
     id="path4" />
  <path
     style="color:#000000;fill:currentColor;stroke-linecap:round;stroke-linejoin:round;-inkscape-stroke:none"
     d="m 7.9550781,13.251953 a 0.75,0.75 0 0 0 -0.515625,0.25 0.75,0.75 0 0 0 0.0625,1.058594 c 0,0 0.3213838,0.286158 0.765625,0.570312 C 8.7118193,15.415014 9.2770906,15.75 10,15.75 c 0.722903,0 1.288179,-0.334989 1.732422,-0.619141 0.155231,-0.09929 0.15072,-0.111646 0.267578,-0.199218 0.116858,0.08757 0.112347,0.09993 0.267578,0.199218 C 12.711821,15.415011 13.277097,15.75 14,15.75 c 0.722903,0 1.288179,-0.334989 1.732422,-0.619141 0.444243,-0.284151 0.765625,-0.570312 0.765625,-0.570312 a 0.75,0.75 0 0 0 0.0625,-1.058594 0.75,0.75 0 0 0 -1.058594,-0.0625 c 0,0 -0.240669,0.21384 -0.578125,0.429688 C 14.586372,14.084988 14.150297,14.25 14,14.25 c -0.150297,0 -0.586372,-0.165012 -0.923828,-0.380859 -0.337456,-0.215848 -0.578125,-0.429688 -0.578125,-0.429688 a 0.750075,0.750075 0 0 0 -0.996094,0 c 0,0 -0.240669,0.21384 -0.578125,0.429688 C 10.586372,14.084988 10.150297,14.25 10,14.25 9.8496703,14.25 9.4136199,14.084986 9.0761719,13.869141 8.7387238,13.653295 8.4980469,13.439453 8.4980469,13.439453 a 0.75,0.75 0 0 0 -0.5429688,-0.1875 z"
     id="path6" />
</svg>
