<?xml version="1.0" encoding="UTF-8" standalone="no"?>
<svg
   width="24"
   height="24"
   viewBox="0 0 24 24"
   stroke-width="1.5"
   fill="none"
   version="1.1"
   id="svg10"
   sodipodi:docname="developer.svg"
   inkscape:version="1.2.1 (9c6d41e410, 2022-07-14)"
   xmlns:inkscape="http://www.inkscape.org/namespaces/inkscape"
   xmlns:sodipodi="http://sodipodi.sourceforge.net/DTD/sodipodi-0.dtd"
   xmlns="http://www.w3.org/2000/svg"
   xmlns:svg="http://www.w3.org/2000/svg">
  <defs
     id="defs14" />
  <sodipodi:namedview
     id="namedview12"
     pagecolor="#ffffff"
     bordercolor="#666666"
     borderopacity="1.0"
     inkscape:showpageshadow="2"
     inkscape:pageopacity="0.0"
     inkscape:pagecheckerboard="0"
     inkscape:deskcolor="#d1d1d1"
     showgrid="false"
     inkscape:zoom="34.541667"
     inkscape:cx="10.364294"
     inkscape:cy="12.014475"
     inkscape:window-width="1920"
     inkscape:window-height="1009"
     inkscape:window-x="1912"
     inkscape:window-y="-8"
     inkscape:window-maximized="1"
     inkscape:current-layer="svg10" />
  <path
     style="color:#000000;fill:currentColor;stroke-linecap:round;stroke-linejoin:round;-inkscape-stroke:none"
     d="M 11.189453,1.25 C 8.8591211,1.2256737 6.9269321,1.8189678 5.4667969,2.8964844 A 0.75,0.75 0 0 0 5.3085937,3.9453125 0.75,0.75 0 0 0 6.3574219,4.1035156 C 7.522804,3.2435141 9.1033446,2.7283863 11.173828,2.75 c 1.823411,0.019039 3.572585,0.5556441 4.830078,1.5644531 1.257494,1.008809 2.064453,2.4601624 2.064453,4.5429688 a 0.750075,0.750075 0 0 0 0.117188,0.4023437 l 2.027344,3.1875004 c -0.0496,0.724921 -0.320469,0.999988 -0.652344,1.173828 -0.363397,0.190351 -0.742188,0.201172 -0.742188,0.201172 a 0.750075,0.750075 0 0 0 -0.746093,0.820312 c 0,0 0.109419,1.303558 -0.306641,2.548828 -0.20803,0.622635 -0.535684,1.205092 -1.039063,1.626953 -0.503378,0.421861 -1.189708,0.716797 -2.271484,0.716797 a 0.750075,0.750075 0 0 0 -0.75,0.75 V 22 a 0.75,0.75 0 0 0 0.75,0.75 0.75,0.75 0 0 0 0.75,-0.75 v -1.082031 c 0.999707,-0.129513 1.867119,-0.431921 2.484375,-0.949219 0.775043,-0.649532 1.230743,-1.496846 1.5,-2.302734 0.366,-1.095441 0.39329,-1.966669 0.382813,-2.539063 0.264028,-0.04748 0.339187,0.0056 0.685546,-0.175781 C 20.985314,14.570099 21.75,13.666641 21.75,12.285156 A 0.750075,0.750075 0 0 0 21.632812,11.882813 L 19.496094,8.5253906 C 19.397666,6.2125006 18.441127,4.347664 16.941406,3.1445313 15.362603,1.877955 13.293639,1.2719708 11.189453,1.25 Z M 4.8261719,14.263672 a 0.75,0.75 0 0 0 -0.5625,0.113281 0.75,0.75 0 0 0 -0.2050782,1.041016 c 0.9806796,1.461153 1.8791782,2.533846 2.0097657,3.791015 V 22 a 0.75,0.75 0 0 0 0.75,0.75 0.75,0.75 0 0 0 0.75,-0.75 v -2.857422 a 0.750075,0.750075 0 0 0 -0.00391,-0.07422 C 7.3795336,17.227945 6.222773,15.949923 5.3046875,14.582031 A 0.75,0.75 0 0 0 4.8261719,14.263672 Z"
     id="path2" />
  <path
     style="color:#000000;fill:currentColor;stroke-linecap:round;stroke-linejoin:round;-inkscape-stroke:none"
     d="M 13.082031,6.2539062 A 0.75,0.75 0 0 0 12.53125,6.4140625 0.75,0.75 0 0 0 12.414063,7.46875 l 1.625,2.03125 -1.625,2.03125 a 0.75,0.75 0 0 0 0.117187,1.054688 0.75,0.75 0 0 0 1.054688,-0.117188 l 2,-2.5 a 0.750075,0.750075 0 0 0 0,-0.9375 l -2,-2.5 A 0.75,0.75 0 0 0 13.082031,6.2539062 Z"
     id="path4" />
  <path
     style="color:#000000;fill:currentColor;stroke-linecap:round;stroke-linejoin:round;-inkscape-stroke:none"
     d="M 4.9179687,6.2539062 A 0.75,0.75 0 0 0 4.4140625,6.53125 l -2,2.5 a 0.750075,0.750075 0 0 0 0,0.9375 l 2,2.5 A 0.75,0.75 0 0 0 5.46875,12.585938 0.75,0.75 0 0 0 5.5859375,11.53125 l -1.625,-2.03125 1.625,-2.03125 A 0.75,0.75 0 0 0 5.46875,6.4140625 0.75,0.75 0 0 0 4.9179687,6.2539062 Z"
     id="path6" />
  <path
     style="color:#000000;fill:currentColor;stroke-linecap:round;stroke-linejoin:round;-inkscape-stroke:none"
     d="m 10.205078,5.2792969 a 0.75,0.75 0 0 0 -0.9257811,0.515625 l -2,7.0000001 a 0.75,0.75 0 0 0 0.515625,0.925781 0.75,0.75 0 0 0 0.9257812,-0.515625 L 10.720703,6.2050781 A 0.75,0.75 0 0 0 10.205078,5.2792969 Z"
     id="path8" />
</svg>
