<?xml version="1.0" encoding="UTF-8" standalone="no"?>
<svg
   width="24"
   height="24"
   viewBox="0 0 24 24"
   stroke-width="1.5"
   fill="none"
   version="1.1"
   id="svg16"
   sodipodi:docname="director-chair.svg"
   inkscape:version="1.2.1 (9c6d41e410, 2022-07-14)"
   xmlns:inkscape="http://www.inkscape.org/namespaces/inkscape"
   xmlns:sodipodi="http://sodipodi.sourceforge.net/DTD/sodipodi-0.dtd"
   xmlns="http://www.w3.org/2000/svg"
   xmlns:svg="http://www.w3.org/2000/svg">
  <defs
     id="defs20" />
  <sodipodi:namedview
     id="namedview18"
     pagecolor="#ffffff"
     bordercolor="#666666"
     borderopacity="1.0"
     inkscape:showpageshadow="2"
     inkscape:pageopacity="0.0"
     inkscape:pagecheckerboard="0"
     inkscape:deskcolor="#d1d1d1"
     showgrid="false"
     inkscape:zoom="34.541667"
     inkscape:cx="10.364294"
     inkscape:cy="12.014475"
     inkscape:window-width="1920"
     inkscape:window-height="1009"
     inkscape:window-x="1912"
     inkscape:window-y="-8"
     inkscape:window-maximized="1"
     inkscape:current-layer="svg16" />
  <path
     style="color:#000000;fill:currentColor;stroke-linecap:round;stroke-linejoin:round;-inkscape-stroke:none"
     d="m 18.59375,11.369141 -14,9 A 0.75,0.75 0 0 0 4.3691406,21.40625 0.75,0.75 0 0 0 5.40625,21.630859 l 14,-9 A 0.75,0.75 0 0 0 19.630859,11.59375 0.75,0.75 0 0 0 18.59375,11.369141 Z"
     id="path2" />
  <path
     style="color:#000000;fill:currentColor;stroke-linecap:round;stroke-linejoin:round;-inkscape-stroke:none"
     d="M 5,2.25 A 0.75,0.75 0 0 0 4.25,3 v 9 A 0.75,0.75 0 0 0 5,12.75 0.75,0.75 0 0 0 5.75,12 V 3 A 0.75,0.75 0 0 0 5,2.25 Z"
     id="path4" />
  <path
     style="color:#000000;fill:currentColor;stroke-linecap:round;stroke-linejoin:round;-inkscape-stroke:none"
     d="M 19,2.25 A 0.75,0.75 0 0 0 18.25,3 v 9 A 0.75,0.75 0 0 0 19,12.75 0.75,0.75 0 0 0 19.75,12 V 3 A 0.75,0.75 0 0 0 19,2.25 Z"
     id="path6" />
  <path
     style="color:#000000;fill:currentColor;stroke-linecap:round;stroke-linejoin:round;-inkscape-stroke:none"
     d="M 4.8398437,11.267578 A 0.75,0.75 0 0 0 4.3691406,11.59375 0.75,0.75 0 0 0 4.59375,12.630859 l 14,9 A 0.75,0.75 0 0 0 19.630859,21.40625 0.75,0.75 0 0 0 19.40625,20.369141 l -14,-9 A 0.75,0.75 0 0 0 4.8398437,11.267578 Z"
     id="path8" />
  <path
     style="color:#000000;fill:currentColor;stroke-linecap:round;stroke-linejoin:round;-inkscape-stroke:none"
     d="M 4,11.25 A 0.75,0.75 0 0 0 3.25,12 0.75,0.75 0 0 0 4,12.75 H 20 A 0.75,0.75 0 0 0 20.75,12 0.75,0.75 0 0 0 20,11.25 Z"
     id="path10" />
  <path
     style="color:#000000;fill:currentColor;stroke-linejoin:round;-inkscape-stroke:none"
     d="m 5,3.25 v 1.5 h 14 v -1.5 z"
     id="path12" />
  <path
     style="color:#000000;fill:currentColor;stroke-linejoin:round;-inkscape-stroke:none"
     d="m 5,6.25 v 1.5 h 14 v -1.5 z"
     id="path14" />
</svg>
