<?xml version="1.0" encoding="UTF-8" standalone="no"?>
<svg
   width="24"
   height="24"
   viewBox="0 0 24 24"
   stroke-width="1.5"
   fill="none"
   version="1.1"
   id="svg12"
   sodipodi:docname="discord.svg"
   inkscape:version="1.2.1 (9c6d41e410, 2022-07-14)"
   xmlns:inkscape="http://www.inkscape.org/namespaces/inkscape"
   xmlns:sodipodi="http://sodipodi.sourceforge.net/DTD/sodipodi-0.dtd"
   xmlns="http://www.w3.org/2000/svg"
   xmlns:svg="http://www.w3.org/2000/svg">
  <defs
     id="defs16" />
  <sodipodi:namedview
     id="namedview14"
     pagecolor="#ffffff"
     bordercolor="#666666"
     borderopacity="1.0"
     inkscape:showpageshadow="2"
     inkscape:pageopacity="0.0"
     inkscape:pagecheckerboard="0"
     inkscape:deskcolor="#d1d1d1"
     showgrid="false"
     inkscape:zoom="34.541667"
     inkscape:cx="10.364294"
     inkscape:cy="12.014475"
     inkscape:window-width="1920"
     inkscape:window-height="1009"
     inkscape:window-x="1912"
     inkscape:window-y="-8"
     inkscape:window-maximized="1"
     inkscape:current-layer="svg12" />
  <path
     style="color:#000000;fill:currentColor;stroke-linecap:round;stroke-linejoin:round;-inkscape-stroke:none"
     d="m 18.736328,15.289063 a 0.75,0.75 0 0 0 -0.572266,0.04101 C 15.717731,16.553244 13.843748,17.125 12,17.125 c -1.843748,0 -3.7177306,-0.571756 -6.1640625,-1.794922 a 0.75,0.75 0 0 0 -1.0058594,0.333985 0.75,0.75 0 0 0 0.3339844,1.005859 C 7.7177256,17.946753 9.8437522,18.625 12,18.625 c 2.156248,0 4.282274,-0.678247 6.835937,-1.955078 a 0.75,0.75 0 0 0 0.333985,-1.005859 0.75,0.75 0 0 0 -0.433594,-0.375 z"
     id="path2" />
  <path
     style="color:#000000;fill:currentColor;stroke-linecap:round;stroke-linejoin:round;-inkscape-stroke:none"
     d="M 15.146484,3.2636719 A 0.750075,0.750075 0 0 0 14.330078,3.6640625 L 13.537109,5.25 H 12 A 0.75,0.75 0 0 0 11.25,6 0.75,0.75 0 0 0 12,6.75 h 2 a 0.750075,0.750075 0 0 0 0.669922,-0.4140625 l 0.726562,-1.453125 c 0.661006,0.1624341 2.161281,0.558041 3.1875,1.2421875 1.459089,0.9727213 2.200225,3.122444 2.496094,5.236328 0.278678,1.991058 0.172298,3.6388 0.160156,4.369141 -0.560218,0.805737 -1.727127,1.614397 -2.824218,2.162109 -0.837967,0.418347 -1.2099,0.525887 -1.558594,0.648438 l -0.6875,-1.376954 a 0.75,0.75 0 0 0 -1.005859,-0.333984 0.75,0.75 0 0 0 -0.333985,1.005859 l 1,2 a 0.750075,0.750075 0 0 0 0.898438,0.378907 c 0,0 1.092661,-0.347097 2.357421,-0.978516 1.264761,-0.631419 2.743517,-1.519881 3.554688,-2.845703 A 0.750075,0.750075 0 0 0 22.75,16 c 0,-0.367475 0.138012,-2.547939 -0.183594,-4.845703 C 22.244801,8.856533 21.487024,6.2556663 19.416016,4.875 17.692004,3.7256588 15.146484,3.2636719 15.146484,3.2636719 Z"
     id="path4" />
  <path
     style="color:#000000;fill:currentColor;stroke-linecap:round;stroke-linejoin:round;-inkscape-stroke:none"
     d="m 8.8808594,3.2636719 c 0,0 -2.5455195,0.4619869 -4.2695313,1.6113281 C 2.540325,6.2556668 1.7825443,8.8565333 1.4609375,11.154297 1.1393307,13.45206 1.2773438,15.632523 1.2773437,16 a 0.750075,0.750075 0 0 0 0.1113282,0.390625 c 0.8111576,1.32583 2.2879691,2.214284 3.5527343,2.845703 1.2647653,0.63142 2.359375,0.978516 2.359375,0.978516 a 0.750075,0.750075 0 0 0 0.8984376,-0.378907 l 1,-2 A 0.75,0.75 0 0 0 8.8632813,16.830078 0.75,0.75 0 0 0 7.8574219,17.164062 l -0.6875,1.376954 C 6.8212252,18.418465 6.449297,18.310924 5.6113281,17.892578 4.5137335,17.344617 3.3469799,16.534611 2.7871094,15.728516 2.7748982,14.997553 2.6687113,13.351498 2.9472656,11.361328 3.2431357,9.2474436 3.9862292,7.0977208 5.4453125,6.125 6.470695,5.4414117 7.9685557,5.0456348 8.6308594,4.8828125 l 0.7265625,1.453125 A 0.750075,0.750075 0 0 0 10.027344,6.75 h 2 a 0.75,0.75 0 0 0 0.75,-0.75 0.75,0.75 0 0 0 -0.75,-0.75 H 10.492188 L 9.6992188,3.6640625 A 0.750075,0.750075 0 0 0 8.8808594,3.2636719 Z"
     id="path6" />
  <path
     style="color:#000000;fill:currentColor;stroke-linecap:round;stroke-linejoin:round;-inkscape-stroke:none"
     d="M 8.5,9.25 C 7.8155758,9.25 7.2211612,9.6283002 6.8398437,10.136719 6.4585263,10.645137 6.25,11.295707 6.25,12 c 0,0.704293 0.2085263,1.354863 0.5898437,1.863281 C 7.2211612,14.3717 7.8155758,14.75 8.5,14.75 c 0.6844242,0 1.2788388,-0.3783 1.660156,-0.886719 C 10.541474,13.354863 10.75,12.704293 10.75,12 10.75,11.295707 10.541474,10.645137 10.160156,10.136719 9.7788388,9.6283002 9.1844242,9.25 8.5,9.25 Z m 0,1.5 c 0.1440049,0 0.299363,0.06973 0.4609375,0.285156 C 9.122512,11.250587 9.25,11.599694 9.25,12 9.25,12.400306 9.122512,12.749413 8.9609375,12.964844 8.799363,13.180274 8.6440049,13.25 8.5,13.25 8.3559951,13.25 8.200637,13.180274 8.0390625,12.964844 7.877488,12.749413 7.75,12.400306 7.75,12 7.75,11.599694 7.877488,11.250587 8.0390625,11.035156 8.200637,10.819726 8.3559951,10.75 8.5,10.75 Z"
     id="path8" />
  <path
     style="color:#000000;fill:currentColor;stroke-linecap:round;stroke-linejoin:round;-inkscape-stroke:none"
     d="m 15.5,9.25 c -0.684419,0 -1.278836,0.378304 -1.660156,0.886719 C 13.458524,10.645134 13.25,11.2957 13.25,12 c 0,0.7043 0.208524,1.354866 0.589844,1.863281 C 14.221164,14.371696 14.815581,14.75 15.5,14.75 c 0.684419,0 1.278836,-0.378304 1.660156,-0.886719 C 17.541476,13.354866 17.75,12.7043 17.75,12 17.75,11.2957 17.541476,10.645134 17.160156,10.136719 16.778836,9.628304 16.184419,9.25 15.5,9.25 Z m 0,1.5 c 0.14398,0 0.299358,0.06972 0.460938,0.285156 C 16.122517,11.250591 16.25,11.599701 16.25,12 c 0,0.400299 -0.127483,0.749409 -0.289062,0.964844 C 15.799358,13.180278 15.64398,13.25 15.5,13.25 c -0.14398,0 -0.299358,-0.06972 -0.460937,-0.285156 C 14.877483,12.749409 14.75,12.400299 14.75,12 c 0,-0.400299 0.127483,-0.749409 0.289063,-0.964844 C 15.200642,10.819722 15.35602,10.75 15.5,10.75 Z"
     id="path10" />
</svg>
