<?xml version="1.0" encoding="UTF-8" standalone="no"?>
<svg
   width="24"
   height="24"
   viewBox="0 0 24 24"
   stroke-width="1.5"
   fill="none"
   version="1.1"
   id="svg10"
   sodipodi:docname="divide.svg"
   inkscape:version="1.2.1 (9c6d41e410, 2022-07-14)"
   xmlns:inkscape="http://www.inkscape.org/namespaces/inkscape"
   xmlns:sodipodi="http://sodipodi.sourceforge.net/DTD/sodipodi-0.dtd"
   xmlns="http://www.w3.org/2000/svg"
   xmlns:svg="http://www.w3.org/2000/svg">
  <defs
     id="defs14" />
  <sodipodi:namedview
     id="namedview12"
     pagecolor="#ffffff"
     bordercolor="#666666"
     borderopacity="1.0"
     inkscape:showpageshadow="2"
     inkscape:pageopacity="0.0"
     inkscape:pagecheckerboard="0"
     inkscape:deskcolor="#d1d1d1"
     showgrid="false"
     inkscape:zoom="34.541667"
     inkscape:cx="10.364294"
     inkscape:cy="12.014475"
     inkscape:window-width="1920"
     inkscape:window-height="1009"
     inkscape:window-x="1912"
     inkscape:window-y="-8"
     inkscape:window-maximized="1"
     inkscape:current-layer="svg10" />
  <path
     style="color:#000000;fill:currentColor;stroke-linecap:round;stroke-linejoin:round;-inkscape-stroke:none"
     d="M 3,6.25 A 0.75,0.75 0 0 0 2.25,7 0.75,0.75 0 0 0 3,7.75 h 4 c 2.3560791,0 4.25,1.8939595 4.25,4.25 v 9 A 0.75,0.75 0 0 0 12,21.75 0.75,0.75 0 0 0 12.75,21 V 12 C 12.75,8.833286 10.166755,6.25 7,6.25 Z"
     id="path2" />
  <path
     style="color:#000000;fill:currentColor;stroke-linecap:round;stroke-linejoin:round;-inkscape-stroke:none"
     d="m 17,6.25 c -3.166738,0 -5.75,2.5832824 -5.75,5.75 v 9 A 0.75,0.75 0 0 0 12,21.75 0.75,0.75 0 0 0 12.75,21 v -9 c 0,-2.3560368 1.893944,-4.25 4.25,-4.25 h 4 A 0.75,0.75 0 0 0 21.75,7 0.75,0.75 0 0 0 21,6.25 Z"
     id="path4" />
  <path
     style="color:#000000;fill:currentColor;stroke-linecap:round;stroke-linejoin:round;-inkscape-stroke:none"
     d="M 7,2.25 A 0.75,0.75 0 0 0 6.46875,2.46875 l -4,4 a 0.750075,0.750075 0 0 0 0,1.0625 l 4,4 a 0.75,0.75 0 0 0 1.0625,0 0.75,0.75 0 0 0 0,-1.0625 L 4.0625,7 7.53125,3.53125 a 0.75,0.75 0 0 0 0,-1.0625 A 0.75,0.75 0 0 0 7,2.25 Z"
     id="path6" />
  <path
     style="color:#000000;fill:currentColor;stroke-linecap:round;stroke-linejoin:round;-inkscape-stroke:none"
     d="m 17,2.25 a 0.75,0.75 0 0 0 -0.53125,0.21875 0.75,0.75 0 0 0 0,1.0625 L 19.9375,7 16.46875,10.46875 a 0.75,0.75 0 0 0 0,1.0625 0.75,0.75 0 0 0 1.0625,0 l 4,-4 a 0.750075,0.750075 0 0 0 0,-1.0625 l -4,-4 A 0.75,0.75 0 0 0 17,2.25 Z"
     id="path8" />
</svg>
