<?xml version="1.0" encoding="UTF-8" standalone="no"?>
<svg
   width="24"
   height="24"
   viewBox="0 0 24 24"
   stroke-width="1.5"
   fill="none"
   version="1.1"
   id="svg14"
   sodipodi:docname="divide-three.svg"
   inkscape:version="1.2.1 (9c6d41e410, 2022-07-14)"
   xmlns:inkscape="http://www.inkscape.org/namespaces/inkscape"
   xmlns:sodipodi="http://sodipodi.sourceforge.net/DTD/sodipodi-0.dtd"
   xmlns="http://www.w3.org/2000/svg"
   xmlns:svg="http://www.w3.org/2000/svg">
  <defs
     id="defs18" />
  <sodipodi:namedview
     id="namedview16"
     pagecolor="#ffffff"
     bordercolor="#666666"
     borderopacity="1.0"
     inkscape:showpageshadow="2"
     inkscape:pageopacity="0.0"
     inkscape:pagecheckerboard="0"
     inkscape:deskcolor="#d1d1d1"
     showgrid="false"
     inkscape:zoom="34.541667"
     inkscape:cx="10.364294"
     inkscape:cy="12.014475"
     inkscape:window-width="1920"
     inkscape:window-height="1009"
     inkscape:window-x="1912"
     inkscape:window-y="-8"
     inkscape:window-maximized="1"
     inkscape:current-layer="svg14" />
  <path
     style="color:#000000;fill:currentColor;stroke-linecap:round;stroke-linejoin:round;-inkscape-stroke:none"
     d="M 3,11.25 A 0.75,0.75 0 0 0 2.25,12 0.75,0.75 0 0 0 3,12.75 h 4 c 2.3560827,0 4.25,1.893937 4.25,4.25 v 4 A 0.75,0.75 0 0 0 12,21.75 0.75,0.75 0 0 0 12.75,21 v -4 c 0,-3.166731 -2.583248,-5.75 -5.75,-5.75 z"
     id="path2" />
  <path
     style="color:#000000;fill:currentColor;stroke-linecap:round;stroke-linejoin:round;-inkscape-stroke:none"
     d="m 17,11.25 c -3.166735,0 -5.75,2.583265 -5.75,5.75 v 4 A 0.75,0.75 0 0 0 12,21.75 0.75,0.75 0 0 0 12.75,21 v -4 c 0,-2.35606 1.89394,-4.25 4.25,-4.25 h 4 A 0.75,0.75 0 0 0 21.75,12 0.75,0.75 0 0 0 21,11.25 Z"
     id="path4" />
  <path
     style="color:#000000;fill:currentColor;stroke-linecap:round;stroke-linejoin:round;-inkscape-stroke:none"
     d="M 12,1.25 A 0.75,0.75 0 0 0 11.25,2 V 22 A 0.75,0.75 0 0 0 12,22.75 0.75,0.75 0 0 0 12.75,22 V 2 A 0.75,0.75 0 0 0 12,1.25 Z"
     id="path6" />
  <path
     style="color:#000000;fill:currentColor;stroke-linecap:round;stroke-linejoin:round;-inkscape-stroke:none"
     d="M 6,7.25 A 0.75,0.75 0 0 0 5.46875,7.46875 l -4,4 a 0.750075,0.750075 0 0 0 0,1.0625 l 4,4 a 0.75,0.75 0 0 0 1.0625,0 0.75,0.75 0 0 0 0,-1.0625 L 3.0625,12 6.53125,8.53125 a 0.75,0.75 0 0 0 0,-1.0625 A 0.75,0.75 0 0 0 6,7.25 Z"
     id="path8" />
  <path
     style="color:#000000;fill:currentColor;stroke-linecap:round;stroke-linejoin:round;-inkscape-stroke:none"
     d="m 11.46875,1.46875 -4,4 a 0.75,0.75 0 0 0 0,1.0625 0.75,0.75 0 0 0 1.0625,0 L 12,3.0625 15.46875,6.53125 a 0.75,0.75 0 0 0 1.0625,0 0.75,0.75 0 0 0 0,-1.0625 l -4,-4 a 0.750075,0.750075 0 0 0 -1.0625,0 z"
     id="path10" />
  <path
     style="color:#000000;fill:currentColor;stroke-linecap:round;stroke-linejoin:round;-inkscape-stroke:none"
     d="m 18,7.25 a 0.75,0.75 0 0 0 -0.53125,0.21875 0.75,0.75 0 0 0 0,1.0625 L 20.9375,12 17.46875,15.46875 a 0.75,0.75 0 0 0 0,1.0625 0.75,0.75 0 0 0 1.0625,0 l 4,-4 a 0.750075,0.750075 0 0 0 0,-1.0625 l -4,-4 A 0.75,0.75 0 0 0 18,7.25 Z"
     id="path12" />
</svg>
