<?xml version="1.0" encoding="UTF-8" standalone="no"?>
<svg
   width="24"
   height="24"
   viewBox="0 0 24 24"
   stroke-width="1.5"
   fill="none"
   version="1.1"
   id="svg14"
   sodipodi:docname="dna.svg"
   inkscape:version="1.2.1 (9c6d41e410, 2022-07-14)"
   xmlns:inkscape="http://www.inkscape.org/namespaces/inkscape"
   xmlns:sodipodi="http://sodipodi.sourceforge.net/DTD/sodipodi-0.dtd"
   xmlns="http://www.w3.org/2000/svg"
   xmlns:svg="http://www.w3.org/2000/svg">
  <defs
     id="defs18" />
  <sodipodi:namedview
     id="namedview16"
     pagecolor="#ffffff"
     bordercolor="#666666"
     borderopacity="1.0"
     inkscape:showpageshadow="2"
     inkscape:pageopacity="0.0"
     inkscape:pagecheckerboard="0"
     inkscape:deskcolor="#d1d1d1"
     showgrid="false"
     inkscape:zoom="34.541667"
     inkscape:cx="10.364294"
     inkscape:cy="12.014475"
     inkscape:window-width="1920"
     inkscape:window-height="1009"
     inkscape:window-x="1912"
     inkscape:window-y="-8"
     inkscape:window-maximized="1"
     inkscape:current-layer="svg14" />
  <path
     style="color:#000000;fill:currentColor;stroke-linecap:round;stroke-linejoin:round;-inkscape-stroke:none"
     d="M 4,2.25 A 0.75,0.75 0 0 0 3.25,3 c 0,3.1680524 2.2040168,5.5889619 4.2910156,7.203125 2.0869988,1.614163 4.1679684,2.488281 4.1679684,2.488281 0,0 1.919034,0.813385 3.832032,2.292969 C 17.454013,16.463959 19.25,18.543058 19.25,21 A 0.75,0.75 0 0 0 20,21.75 0.75,0.75 0 0 0 20.75,21 c 0,-3.168052 -2.204017,-5.588962 -4.291016,-7.203125 -2.086998,-1.614163 -4.167968,-2.488281 -4.167968,-2.488281 0,0 -1.919034,-0.813385 -3.8320316,-2.292969 C 6.5459872,7.5360412 4.75,5.456942 4.75,3 A 0.75,0.75 0 0 0 4,2.25 Z"
     id="path2" />
  <path
     style="color:#000000;fill:currentColor;stroke-linecap:round;stroke-linejoin:round;-inkscape-stroke:none"
     d="M 20,2.25 A 0.75,0.75 0 0 0 19.25,3 c 0,2.456942 -1.795987,4.5360412 -3.708984,6.015625 -1.912998,1.479584 -3.832032,2.292969 -3.832032,2.292969 0,0 -2.0809696,0.874118 -4.1679684,2.488281 C 5.4540168,15.411038 3.25,17.831948 3.25,21 A 0.75,0.75 0 0 0 4,21.75 0.75,0.75 0 0 0 4.75,21 c 0,-2.456942 1.7959872,-4.536041 3.7089844,-6.015625 1.9129976,-1.479584 3.8320316,-2.292969 3.8320316,-2.292969 0,0 2.08097,-0.874118 4.167968,-2.488281 C 18.545983,8.5889619 20.75,6.1680524 20.75,3 A 0.75,0.75 0 0 0 20,2.25 Z"
     id="path4" />
  <path
     style="color:#000000;fill:currentColor;stroke-linecap:round;stroke-linejoin:round;-inkscape-stroke:none"
     d="M 8,5.25 A 0.75,0.75 0 0 0 7.25,6 0.75,0.75 0 0 0 8,6.75 H 19 A 0.75,0.75 0 0 0 19.75,6 0.75,0.75 0 0 0 19,5.25 Z"
     id="path6" />
  <path
     style="color:#000000;fill:currentColor;stroke-linecap:round;stroke-linejoin:round;-inkscape-stroke:none"
     d="M 8,17.25 A 0.75,0.75 0 0 0 7.25,18 0.75,0.75 0 0 0 8,18.75 H 19 A 0.75,0.75 0 0 0 19.75,18 0.75,0.75 0 0 0 19,17.25 Z"
     id="path8" />
  <path
     style="color:#000000;fill:currentColor;stroke-linecap:round;stroke-linejoin:round;-inkscape-stroke:none"
     d="M 11,8.25 A 0.75,0.75 0 0 0 10.25,9 0.75,0.75 0 0 0 11,9.75 h 5.5 A 0.75,0.75 0 0 0 17.25,9 0.75,0.75 0 0 0 16.5,8.25 Z"
     id="path10" />
  <path
     style="color:#000000;fill:currentColor;stroke-linecap:round;stroke-linejoin:round;-inkscape-stroke:none"
     d="M 11,14.25 A 0.75,0.75 0 0 0 10.25,15 0.75,0.75 0 0 0 11,15.75 h 5.5 A 0.75,0.75 0 0 0 17.25,15 0.75,0.75 0 0 0 16.5,14.25 Z"
     id="path12" />
</svg>
