<?xml version="1.0" encoding="UTF-8" standalone="no"?>
<svg
   width="24"
   height="24"
   viewBox="0 0 24 24"
   stroke-width="1.5"
   fill="none"
   version="1.1"
   id="svg10"
   sodipodi:docname="doc-magnifying-glass-in.svg"
   inkscape:version="1.2.1 (9c6d41e410, 2022-07-14)"
   xmlns:inkscape="http://www.inkscape.org/namespaces/inkscape"
   xmlns:sodipodi="http://sodipodi.sourceforge.net/DTD/sodipodi-0.dtd"
   xmlns="http://www.w3.org/2000/svg"
   xmlns:svg="http://www.w3.org/2000/svg">
  <defs
     id="defs14" />
  <sodipodi:namedview
     id="namedview12"
     pagecolor="#ffffff"
     bordercolor="#666666"
     borderopacity="1.0"
     inkscape:showpageshadow="2"
     inkscape:pageopacity="0.0"
     inkscape:pagecheckerboard="0"
     inkscape:deskcolor="#d1d1d1"
     showgrid="false"
     inkscape:zoom="34.541667"
     inkscape:cx="10.364294"
     inkscape:cy="12.014475"
     inkscape:window-width="1920"
     inkscape:window-height="1009"
     inkscape:window-x="1912"
     inkscape:window-y="-8"
     inkscape:window-maximized="1"
     inkscape:current-layer="svg10" />
  <path
     style="color:#000000;fill:currentColor;stroke-linecap:round;stroke-linejoin:round;-inkscape-stroke:none"
     d="m 14,14.25 a 0.75,0.75 0 0 0 -0.53125,0.21875 0.75,0.75 0 0 0 0,1.0625 l 1.5,1.5 a 0.75,0.75 0 0 0 1.0625,0 0.75,0.75 0 0 0 0,-1.0625 l -1.5,-1.5 A 0.75,0.75 0 0 0 14,14.25 Z"
     id="path2" />
  <path
     style="color:#000000;fill:currentColor;stroke-linecap:round;stroke-linejoin:round;-inkscape-stroke:none"
     d="m 11.5,8.75 c -2.0621653,0 -3.75,1.687782 -3.75,3.75 0,2.062218 1.6878347,3.75 3.75,3.75 1.032935,0 1.976302,-0.42182 2.654297,-1.101562 C 14.83006,14.470927 15.25,13.529296 15.25,12.5 15.25,10.437797 13.562203,8.75 11.5,8.75 Z m 0,1.5 c 1.251594,0 2.25,0.998406 2.25,2.25 0,0.624702 -0.249414,1.180002 -0.65625,1.587891 C 12.685546,14.497147 12.126863,14.75 11.5,14.75 c -1.251531,0 -2.25,-0.998421 -2.25,-2.25 0,-1.251579 0.998469,-2.25 2.25,-2.25 z"
     id="path4" />
  <path
     style="color:#000000;fill:currentColor;stroke-linecap:round;stroke-linejoin:round;-inkscape-stroke:none"
     d="M 4.5996094,1.25 C 3.8629077,1.25 3.25,1.8629077 3.25,2.5996094 V 21.400391 C 3.25,22.137086 3.862953,22.75 4.5996094,22.75 H 19.400391 C 20.13704,22.75 20.75,22.13704 20.75,21.400391 V 5.7480469 c 0,-0.3577094 -0.14162,-0.7001462 -0.394531,-0.953125 a 0.750075,0.750075 0 0 0 0,-0.00195 L 17.207031,1.6445312 h -0.002 C 16.952233,1.3923213 16.609076,1.25 16.251953,1.25 Z M 4.75,2.75 H 16.1875 L 19.25,5.8105469 V 21.25 H 4.75 Z"
     id="path6" />
  <path
     style="color:#000000;fill:currentColor;stroke-linecap:round;stroke-linejoin:round;-inkscape-stroke:none"
     d="M 16,1.25 A 0.75,0.75 0 0 0 15.25,2 V 5.4003906 C 15.25,6.137047 15.862914,6.75 16.599609,6.75 H 20 A 0.75,0.75 0 0 0 20.75,6 0.75,0.75 0 0 0 20,5.25 H 16.75 V 2 A 0.75,0.75 0 0 0 16,1.25 Z"
     id="path8" />
</svg>
