<?xml version="1.0" encoding="UTF-8" standalone="no"?>
<svg
   width="24"
   height="24"
   viewBox="0 0 24 24"
   stroke-width="1.5"
   fill="none"
   version="1.1"
   id="svg8"
   sodipodi:docname="doc-star.svg"
   inkscape:version="1.2.1 (9c6d41e410, 2022-07-14)"
   xmlns:inkscape="http://www.inkscape.org/namespaces/inkscape"
   xmlns:sodipodi="http://sodipodi.sourceforge.net/DTD/sodipodi-0.dtd"
   xmlns="http://www.w3.org/2000/svg"
   xmlns:svg="http://www.w3.org/2000/svg">
  <defs
     id="defs12" />
  <sodipodi:namedview
     id="namedview10"
     pagecolor="#ffffff"
     bordercolor="#666666"
     borderopacity="1.0"
     inkscape:showpageshadow="2"
     inkscape:pageopacity="0.0"
     inkscape:pagecheckerboard="0"
     inkscape:deskcolor="#d1d1d1"
     showgrid="false"
     inkscape:zoom="34.541667"
     inkscape:cx="10.364294"
     inkscape:cy="12.014475"
     inkscape:window-width="1920"
     inkscape:window-height="1009"
     inkscape:window-x="1912"
     inkscape:window-y="-8"
     inkscape:window-maximized="1"
     inkscape:current-layer="svg8" />
  <path
     style="color:#000000;fill:currentColor;stroke-linecap:round;stroke-linejoin:round;-inkscape-stroke:none"
     d="m 17.5,14.25 c -0.386112,0 -0.7857,0.239444 -0.962891,0.615234 l -0.740234,1.566407 -1.638672,0.251953 c -0.852722,0.130408 -1.187898,1.232175 -0.597656,1.833984 l 1.205078,1.228516 -0.285156,1.742187 c -0.06674,0.407004 0.110208,0.815331 0.412109,1.044922 0.301901,0.229591 0.776133,0.290035 1.150391,0.08398 L 17.5,21.816406 l 1.457031,0.800781 c 0.374258,0.206051 0.84849,0.145607 1.150391,-0.08398 0.301901,-0.229591 0.478846,-0.637918 0.412109,-1.044922 l -0.285156,-1.742187 1.205078,-1.228516 c 0.590242,-0.601809 0.255066,-1.703576 -0.597656,-1.833984 L 19.203125,16.431641 18.462891,14.865234 C 18.2857,14.489444 17.886112,14.25 17.5,14.25 Z m 0,2.089844 0.515625,1.09375 a 0.750075,0.750075 0 0 0 0.564453,0.421875 l 1.222656,0.1875 -0.90625,0.923828 a 0.750075,0.750075 0 0 0 -0.203125,0.646484 L 18.898437,20.875 17.861328,20.302734 a 0.750075,0.750075 0 0 0 -0.722656,0 l -1.03711,0.572266 0.205079,-1.261719 a 0.750075,0.750075 0 0 0 -0.203125,-0.646484 l -0.90625,-0.923828 1.222656,-0.1875 a 0.750075,0.750075 0 0 0 0.564453,-0.421875 z"
     id="path2" />
  <path
     style="color:#000000;fill:currentColor;stroke-linecap:round;stroke-linejoin:round;-inkscape-stroke:none"
     d="M 4.5996094,1.25 C 3.8629077,1.25 3.25,1.8629077 3.25,2.5996094 V 21.400391 C 3.25,22.137086 3.862953,22.75 4.5996094,22.75 H 11 A 0.75,0.75 0 0 0 11.75,22 0.75,0.75 0 0 0 11,21.25 H 4.75 V 2.75 H 16.1875 L 19.25,5.8105469 V 12 A 0.75,0.75 0 0 0 20,12.75 0.75,0.75 0 0 0 20.75,12 V 5.7480469 c 0,-0.3577094 -0.14162,-0.7001462 -0.394531,-0.953125 a 0.750075,0.750075 0 0 0 0,-0.00195 L 17.207031,1.6445312 h -0.002 C 16.952233,1.3923213 16.609076,1.25 16.251953,1.25 Z"
     id="path4" />
  <path
     style="color:#000000;fill:currentColor;stroke-linecap:round;stroke-linejoin:round;-inkscape-stroke:none"
     d="M 16,1.25 A 0.75,0.75 0 0 0 15.25,2 V 5.4003906 C 15.25,6.137047 15.862914,6.75 16.599609,6.75 H 20 A 0.75,0.75 0 0 0 20.75,6 0.75,0.75 0 0 0 20,5.25 H 16.75 V 2 A 0.75,0.75 0 0 0 16,1.25 Z"
     id="path6" />
</svg>
