<?xml version="1.0" encoding="UTF-8" standalone="no"?>
<svg
   width="24"
   height="24"
   viewBox="0 0 24 24"
   stroke-width="1.5"
   fill="none"
   version="1.1"
   id="svg8"
   sodipodi:docname="doc-star-in.svg"
   inkscape:version="1.2.1 (9c6d41e410, 2022-07-14)"
   xmlns:inkscape="http://www.inkscape.org/namespaces/inkscape"
   xmlns:sodipodi="http://sodipodi.sourceforge.net/DTD/sodipodi-0.dtd"
   xmlns="http://www.w3.org/2000/svg"
   xmlns:svg="http://www.w3.org/2000/svg">
  <defs
     id="defs12" />
  <sodipodi:namedview
     id="namedview10"
     pagecolor="#ffffff"
     bordercolor="#666666"
     borderopacity="1.0"
     inkscape:showpageshadow="2"
     inkscape:pageopacity="0.0"
     inkscape:pagecheckerboard="0"
     inkscape:deskcolor="#d1d1d1"
     showgrid="false"
     inkscape:zoom="34.541667"
     inkscape:cx="10.364294"
     inkscape:cy="12.014475"
     inkscape:window-width="1920"
     inkscape:window-height="1009"
     inkscape:window-x="1912"
     inkscape:window-y="-8"
     inkscape:window-maximized="1"
     inkscape:current-layer="svg8" />
  <path
     style="color:#000000;fill:currentColor;stroke-linecap:round;stroke-linejoin:round;-inkscape-stroke:none"
     d="M 4.5996094,1.25 C 3.8629077,1.25 3.25,1.8629077 3.25,2.5996094 V 21.400391 C 3.25,22.137086 3.862953,22.75 4.5996094,22.75 H 19.400391 C 20.13704,22.75 20.75,22.13704 20.75,21.400391 V 5.7480469 c 0,-0.3577094 -0.14162,-0.7001462 -0.394531,-0.953125 a 0.750075,0.750075 0 0 0 0,-0.00195 L 17.207031,1.6445312 h -0.002 C 16.952233,1.3923213 16.609076,1.25 16.251953,1.25 Z M 4.75,2.75 H 16.1875 L 19.25,5.8105469 V 21.25 H 4.75 Z"
     id="path2" />
  <path
     style="color:#000000;fill:currentColor;stroke-linecap:round;stroke-linejoin:round;-inkscape-stroke:none"
     d="m 12,7.25 c -0.402289,0 -0.818407,0.2490209 -1.003906,0.6425781 L 10.126953,9.734375 8.1972656,10.029297 c -0.8899438,0.136124 -1.2401437,1.28671 -0.6230469,1.916016 l 1.4160157,1.441406 -0.3359375,2.046875 c -0.069882,0.426423 0.1165802,0.850345 0.4316406,1.089843 0.3150604,0.239499 0.8063867,0.304956 1.1972655,0.08984 L 12,15.667969 l 1.716797,0.945312 c 0.390865,0.215064 0.882183,0.149677 1.197266,-0.08984 0.315082,-0.23952 0.501591,-0.663419 0.43164,-1.089843 l -0.335937,-2.046875 1.416015,-1.441406 c 0.617035,-0.62933 0.266917,-1.779879 -0.623047,-1.916016 L 13.873047,9.734375 13.003906,7.8925781 C 12.818407,7.4990209 12.402289,7.25 12,7.25 Z m 0,2.0273438 0.6875,1.4570312 a 0.750075,0.750075 0 0 0 0.564453,0.421875 l 1.603516,0.246094 -1.181641,1.205078 a 0.750075,0.750075 0 0 0 -0.205078,0.646484 l 0.271484,1.660157 -1.378906,-0.759766 a 0.750075,0.750075 0 0 0 -0.722656,0 l -1.378906,0.759766 0.271484,-1.660157 A 0.750075,0.750075 0 0 0 10.326172,12.607422 L 9.1445313,11.402344 10.748047,11.15625 A 0.750075,0.750075 0 0 0 11.3125,10.734375 Z"
     id="path4" />
  <path
     style="color:#000000;fill:currentColor;stroke-linecap:round;stroke-linejoin:round;-inkscape-stroke:none"
     d="M 16,1.25 A 0.75,0.75 0 0 0 15.25,2 V 5.4003906 C 15.25,6.137047 15.862914,6.75 16.599609,6.75 H 20 A 0.75,0.75 0 0 0 20.75,6 0.75,0.75 0 0 0 20,5.25 H 16.75 V 2 A 0.75,0.75 0 0 0 16,1.25 Z"
     id="path6" />
</svg>
