<?xml version="1.0" encoding="UTF-8" standalone="no"?>
<svg
   width="24"
   height="24"
   stroke-width="1.5"
   viewBox="0 0 24 24"
   fill="none"
   version="1.1"
   id="svg4"
   sodipodi:docname="dollar.svg"
   inkscape:version="1.2.1 (9c6d41e410, 2022-07-14)"
   xmlns:inkscape="http://www.inkscape.org/namespaces/inkscape"
   xmlns:sodipodi="http://sodipodi.sourceforge.net/DTD/sodipodi-0.dtd"
   xmlns="http://www.w3.org/2000/svg"
   xmlns:svg="http://www.w3.org/2000/svg">
  <defs
     id="defs8" />
  <sodipodi:namedview
     id="namedview6"
     pagecolor="#ffffff"
     bordercolor="#666666"
     borderopacity="1.0"
     inkscape:showpageshadow="2"
     inkscape:pageopacity="0.0"
     inkscape:pagecheckerboard="0"
     inkscape:deskcolor="#d1d1d1"
     showgrid="false"
     inkscape:zoom="34.541667"
     inkscape:cx="10.364294"
     inkscape:cy="12.014475"
     inkscape:window-width="1920"
     inkscape:window-height="1009"
     inkscape:window-x="1912"
     inkscape:window-y="-8"
     inkscape:window-maximized="1"
     inkscape:current-layer="svg4" />
  <path
     style="color:#000000;fill:currentColor;stroke-linecap:round;stroke-linejoin:round;-inkscape-stroke:none"
     d="M 12,2.25 A 0.75,0.75 0 0 0 11.25,3 V 4.8339844 C 10.487459,4.9114015 9.7440867,5.0941028 9.1308594,5.5585937 8.3104488,6.1800163 7.7890625,7.2294816 7.7890625,8.5390625 c 0,1.2676251 0.6776029,2.2264705 1.5371094,2.7734375 0.8595061,0.546967 1.8703531,0.804838 2.8222661,1.064453 0.951912,0.259616 1.843748,0.521128 2.412109,0.882813 0.568361,0.361685 0.84375,0.700483 0.84375,1.509765 0,0.970671 -0.363312,1.538493 -0.960938,1.957031 -0.597625,0.418539 -1.480466,0.63712 -2.416015,0.603516 -1.409526,-0.05067 -2.8752808,-0.684629 -3.5820315,-1.626953 A 0.75,0.75 0 0 0 7.3964844,15.554688 0.75,0.75 0 0 0 7.2460937,16.603516 c 0.9300499,1.240052 2.4548011,1.849861 4.0039063,2.0625 V 21 A 0.75,0.75 0 0 0 12,21.75 0.75,0.75 0 0 0 12.75,21 v -2.246094 c 0.919049,-0.07283 1.816677,-0.281972 2.554688,-0.798828 0.947523,-0.663585 1.599609,-1.787119 1.599609,-3.185547 0,-1.267615 -0.677603,-2.228431 -1.537109,-2.77539 C 14.507681,11.447181 13.49488,11.189303 12.542969,10.929688 11.591058,10.670072 10.69922,10.408565 10.130859,10.046875 9.5624986,9.6851852 9.2890625,9.3483603 9.2890625,8.5390625 c 0,-0.9473668 0.2943337,-1.4414898 0.7480465,-1.7851563 0.453714,-0.3436664 1.149099,-0.521373 1.94336,-0.5 1.335084,0.035928 2.88255,0.6696279 3.642578,1.4296875 a 0.75,0.75 0 0 0 1.060547,0 0.75,0.75 0 0 0 0,-1.0605468 C 15.709207,5.6486188 14.23875,5.0974409 12.75,4.9042969 V 3 A 0.75,0.75 0 0 0 12,2.25 Z"
     id="path2" />
</svg>
