<?xml version="1.0" encoding="UTF-8" standalone="no"?>
<svg
   width="24"
   height="24"
   stroke-width="1.5"
   viewBox="0 0 24 24"
   fill="none"
   version="1.1"
   id="svg18"
   sodipodi:docname="drawer.svg"
   inkscape:version="1.2.1 (9c6d41e410, 2022-07-14)"
   xmlns:inkscape="http://www.inkscape.org/namespaces/inkscape"
   xmlns:sodipodi="http://sodipodi.sourceforge.net/DTD/sodipodi-0.dtd"
   xmlns="http://www.w3.org/2000/svg"
   xmlns:svg="http://www.w3.org/2000/svg">
  <defs
     id="defs22" />
  <sodipodi:namedview
     id="namedview20"
     pagecolor="#ffffff"
     bordercolor="#666666"
     borderopacity="1.0"
     inkscape:showpageshadow="2"
     inkscape:pageopacity="0.0"
     inkscape:pagecheckerboard="0"
     inkscape:deskcolor="#d1d1d1"
     showgrid="false"
     inkscape:zoom="34.541667"
     inkscape:cx="10.364294"
     inkscape:cy="12.014475"
     inkscape:window-width="1920"
     inkscape:window-height="1009"
     inkscape:window-x="1912"
     inkscape:window-y="-8"
     inkscape:window-maximized="1"
     inkscape:current-layer="svg18" />
  <path
     style="color:#000000;fill:currentColor;stroke-linecap:round;stroke-linejoin:round;-inkscape-stroke:none"
     d="M 3,13.25 A 0.75,0.75 0 0 0 2.25,14 0.75,0.75 0 0 0 3,14.75 H 21 A 0.75,0.75 0 0 0 21.75,14 0.75,0.75 0 0 0 21,13.25 Z"
     id="path2" />
  <path
     style="color:#000000;fill:currentColor;stroke-linecap:round;stroke-linejoin:round;-inkscape-stroke:none"
     d="M 3,7.25 A 0.75,0.75 0 0 0 2.25,8 0.75,0.75 0 0 0 3,8.75 H 21 A 0.75,0.75 0 0 0 21.75,8 0.75,0.75 0 0 0 21,7.25 Z"
     id="path4" />
  <path
     style="color:#000000;fill:currentColor;stroke-linecap:round;stroke-linejoin:round;-inkscape-stroke:none"
     d="M 11,16.25 A 0.75,0.75 0 0 0 10.25,17 0.75,0.75 0 0 0 11,17.75 h 2 A 0.75,0.75 0 0 0 13.75,17 0.75,0.75 0 0 0 13,16.25 Z"
     id="path6" />
  <path
     style="color:#000000;fill:currentColor;stroke-linecap:round;stroke-linejoin:round;-inkscape-stroke:none"
     d="M 11,10.25 A 0.75,0.75 0 0 0 10.25,11 0.75,0.75 0 0 0 11,11.75 h 2 A 0.75,0.75 0 0 0 13.75,11 0.75,0.75 0 0 0 13,10.25 Z"
     id="path8" />
  <path
     style="color:#000000;fill:currentColor;stroke-linecap:round;stroke-linejoin:round;-inkscape-stroke:none"
     d="M 11,4.25 A 0.75,0.75 0 0 0 10.25,5 0.75,0.75 0 0 0 11,5.75 h 2 A 0.75,0.75 0 0 0 13.75,5 0.75,0.75 0 0 0 13,4.25 Z"
     id="path10" />
  <path
     style="color:#000000;fill:currentColor;stroke-linecap:round;stroke-linejoin:round;-inkscape-stroke:none"
     d="M 3.5996094,1.25 C 2.8629077,1.25 2.25,1.8629077 2.25,2.5996094 V 19.400391 C 2.25,20.137086 2.862953,20.75 3.5996094,20.75 H 20.400391 C 21.13704,20.75 21.75,20.13704 21.75,19.400391 V 2.5996094 C 21.75,1.862953 21.137086,1.25 20.400391,1.25 Z M 3.75,2.75 h 16.5 v 16.5 H 3.75 Z"
     id="path12" />
  <path
     style="color:#000000;fill:currentColor;stroke-linecap:round;stroke-linejoin:round;-inkscape-stroke:none"
     d="M 17.5,19.25 A 0.75,0.75 0 0 0 16.75,20 v 2 A 0.75,0.75 0 0 0 17.5,22.75 0.75,0.75 0 0 0 18.25,22 V 20 A 0.75,0.75 0 0 0 17.5,19.25 Z"
     id="path14" />
  <path
     style="color:#000000;fill:currentColor;stroke-linecap:round;stroke-linejoin:round;-inkscape-stroke:none"
     d="M 6.5,19.25 A 0.75,0.75 0 0 0 5.75,20 v 2 A 0.75,0.75 0 0 0 6.5,22.75 0.75,0.75 0 0 0 7.25,22 V 20 A 0.75,0.75 0 0 0 6.5,19.25 Z"
     id="path16" />
</svg>
