<?xml version="1.0" encoding="UTF-8" standalone="no"?>
<svg
   width="24"
   height="24"
   stroke-width="1.5"
   viewBox="0 0 24 24"
   fill="none"
   version="1.1"
   id="svg10"
   sodipodi:docname="dribbble.svg"
   inkscape:version="1.2.1 (9c6d41e410, 2022-07-14)"
   xmlns:inkscape="http://www.inkscape.org/namespaces/inkscape"
   xmlns:sodipodi="http://sodipodi.sourceforge.net/DTD/sodipodi-0.dtd"
   xmlns="http://www.w3.org/2000/svg"
   xmlns:svg="http://www.w3.org/2000/svg">
  <defs
     id="defs14" />
  <sodipodi:namedview
     id="namedview12"
     pagecolor="#ffffff"
     bordercolor="#666666"
     borderopacity="1.0"
     inkscape:showpageshadow="2"
     inkscape:pageopacity="0.0"
     inkscape:pagecheckerboard="0"
     inkscape:deskcolor="#d1d1d1"
     showgrid="false"
     inkscape:zoom="34.541667"
     inkscape:cx="10.364294"
     inkscape:cy="12.014475"
     inkscape:window-width="1920"
     inkscape:window-height="1009"
     inkscape:window-x="1912"
     inkscape:window-y="-8"
     inkscape:window-maximized="1"
     inkscape:current-layer="svg10" />
  <path
     style="color:#000000;fill:currentColor;stroke-linecap:round;stroke-linejoin:round;-inkscape-stroke:none"
     d="M 12,1.25 C 6.0718263,1.25 1.25,6.0718263 1.25,12 1.25,17.928127 6.0718217,22.75 12,22.75 17.928132,22.75 22.75,17.928132 22.75,12 22.75,6.0718217 17.928127,1.25 12,1.25 Z m 0,1.5 c 5.117462,0 9.25,4.1324893 9.25,9.25 0,5.117457 -4.132543,9.25 -9.25,9.25 C 6.8824893,21.25 2.75,17.117462 2.75,12 2.75,6.8824848 6.8824848,2.75 12,2.75 Z"
     id="path2" />
  <path
     style="color:#000000;fill:currentColor;stroke-linecap:round;stroke-linejoin:round;-inkscape-stroke:none"
     d="M 8.0527344,2.0273438 A 0.75,0.75 0 0 0 7.8984375,3.078125 C 11.84589,8.3779645 14.784633,14.265164 15.933594,20.970703 a 0.75,0.75 0 0 0 0.865234,0.611328 0.75,0.75 0 0 0 0.613281,-0.865234 C 16.215873,13.73535 13.154102,7.6225704 9.1015625,2.1816406 A 0.75,0.75 0 0 0 8.0527344,2.0273438 Z"
     id="path4" />
  <path
     style="color:#000000;fill:currentColor;stroke-linecap:round;stroke-linejoin:round;-inkscape-stroke:none"
     d="M 19.011719,4.2617187 A 0.75,0.75 0 0 0 18.527344,4.5683594 C 16.75431,7.0956195 13.652773,8.5437372 10.457031,9.3125 7.2612895,10.081263 4.0088596,10.169246 2.0976563,10.091797 a 0.75,0.75 0 0 0 -0.7812501,0.71875 0.75,0.75 0 0 0 0.7207032,0.779297 c 2.0223026,0.08195 5.3758221,-0.002 8.7695316,-0.81836 3.393709,-0.8163852 6.863656,-2.367109 8.949218,-5.3398434 a 0.75,0.75 0 0 0 -0.183593,-1.0449219 0.75,0.75 0 0 0 -0.560547,-0.125 z"
     id="path6" />
  <path
     style="color:#000000;fill:currentColor;stroke-linecap:round;stroke-linejoin:round;-inkscape-stroke:none"
     d="M 16.824219,11.484375 C 11.458663,11.787097 6.3928709,14.691961 4.5410156,19.068359 a 0.75,0.75 0 0 0 0.3984375,0.984375 0.75,0.75 0 0 0 0.9824219,-0.398437 c 2.0679951,-4.887191 9.573195,-7.985766 15.832031,-6.125 A 0.75,0.75 0 0 0 22.6875,13.023438 0.75,0.75 0 0 0 22.181641,12.091797 c -1.747238,-0.519458 -3.568904,-0.708329 -5.357422,-0.607422 z"
     id="path8" />
</svg>
