<?xml version="1.0" encoding="UTF-8" standalone="no"?>
<svg
   width="24"
   height="24"
   viewBox="0 0 24 24"
   stroke-width="1.5"
   fill="none"
   version="1.1"
   id="svg2"
   sodipodi:docname="droplet-snow-flake.svg"
   inkscape:version="1.3.2 (091e20e, 2023-11-25, custom)"
   xmlns:inkscape="http://www.inkscape.org/namespaces/inkscape"
   xmlns:sodipodi="http://sodipodi.sourceforge.net/DTD/sodipodi-0.dtd"
   xmlns="http://www.w3.org/2000/svg"
   xmlns:svg="http://www.w3.org/2000/svg">
  <defs
     id="defs2" />
  <sodipodi:namedview
     id="namedview2"
     pagecolor="#ffffff"
     bordercolor="#666666"
     borderopacity="1.0"
     inkscape:showpageshadow="2"
     inkscape:pageopacity="0.0"
     inkscape:pagecheckerboard="0"
     inkscape:deskcolor="#d1d1d1"
     inkscape:zoom="33.875"
     inkscape:cx="11.98524"
     inkscape:cy="12"
     inkscape:window-width="1920"
     inkscape:window-height="1009"
     inkscape:window-x="-8"
     inkscape:window-y="-8"
     inkscape:window-maximized="1"
     inkscape:current-layer="svg2" />
  <path
     style="color:#000000;fill:currentColor;-inkscape-stroke:none"
     d="M 12,0.96679688 11.484375,1.4550781 c 0,0 -2.02948,1.9235454 -4.0644531,4.4140625 C 5.3849488,8.3596577 3.25,11.338198 3.25,14 c 0,4.823623 3.9263974,8.75 8.75,8.75 4.823621,0 8.75,-3.926379 8.75,-8.75 0,-2.661802 -2.134949,-5.6403423 -4.169922,-8.1308594 C 14.545105,3.3786235 12.515625,1.4550781 12.515625,1.4550781 Z m 0,2.13867192 c 0.419342,0.4057808 1.712513,1.6232659 3.419922,3.7128906 C 17.384945,9.2232674 19.25,12.243527 19.25,14 19.25,18.01297 16.01297,21.25 12,21.25 7.9870514,21.25 4.75,18.012968 4.75,14 4.75,12.243527 6.6150552,9.2232674 8.5800781,6.8183594 10.287487,4.7287347 11.580658,3.5112496 12,3.1054688 Z"
     id="path1" />
  <path
     style="color:#000000;fill:currentColor;stroke-linecap:round;stroke-linejoin:round;-inkscape-stroke:none"
     d="M 12,9.25 A 0.75,0.75 0 0 0 11.25,10 v 2.193359 L 9.3769531,11.101563 a 0.75,0.75 0 0 0 -1.0253906,0.271484 0.75,0.75 0 0 0 0.2714844,1.025391 L 10.511719,13.5 8.6230469,14.601563 a 0.75,0.75 0 0 0 -0.2714844,1.02539 0.75,0.75 0 0 0 1.0253906,0.271485 L 11.25,14.806641 V 17 A 0.75,0.75 0 0 0 12,17.75 0.75,0.75 0 0 0 12.75,17 v -2.193359 l 1.873047,1.091797 a 0.75,0.75 0 0 0 1.025391,-0.271485 0.75,0.75 0 0 0 -0.271485,-1.02539 L 13.488281,13.5 15.376953,12.398438 a 0.75,0.75 0 0 0 0.271485,-1.025391 0.75,0.75 0 0 0 -1.025391,-0.271484 L 12.75,12.193359 V 10 A 0.75,0.75 0 0 0 12,9.25 Z"
     id="path2" />
</svg>
