<?xml version="1.0" encoding="UTF-8" standalone="no"?>
<svg
   width="24"
   height="24"
   stroke-width="1.5"
   viewBox="0 0 24 24"
   fill="none"
   version="1.1"
   id="svg8"
   sodipodi:docname="ease-in-control-point.svg"
   inkscape:version="1.2.1 (9c6d41e410, 2022-07-14)"
   xmlns:inkscape="http://www.inkscape.org/namespaces/inkscape"
   xmlns:sodipodi="http://sodipodi.sourceforge.net/DTD/sodipodi-0.dtd"
   xmlns="http://www.w3.org/2000/svg"
   xmlns:svg="http://www.w3.org/2000/svg">
  <defs
     id="defs12" />
  <sodipodi:namedview
     id="namedview10"
     pagecolor="#ffffff"
     bordercolor="#666666"
     borderopacity="1.0"
     inkscape:showpageshadow="2"
     inkscape:pageopacity="0.0"
     inkscape:pagecheckerboard="0"
     inkscape:deskcolor="#d1d1d1"
     showgrid="false"
     inkscape:zoom="34.541667"
     inkscape:cx="10.364294"
     inkscape:cy="12.014475"
     inkscape:window-width="1920"
     inkscape:window-height="1009"
     inkscape:window-x="1912"
     inkscape:window-y="-8"
     inkscape:window-maximized="1"
     inkscape:current-layer="svg8" />
  <path
     style="color:#000000;fill:currentColor;stroke-linecap:round;stroke-linejoin:round;-inkscape-stroke:none"
     d="m 20.832031,3.2695313 a 0.75,0.75 0 0 0 -0.46875,0.3320312 c 0,0 -2.474357,3.9575806 -5.927734,7.9042965 C 10.98217,15.452576 6.4999965,19.25 3,19.25 A 0.75,0.75 0 0 0 2.25,20 0.75,0.75 0 0 0 3,20.75 c 4.4999955,0 9.017837,-4.202584 12.564453,-8.255859 3.546616,-4.0532761 6.072266,-8.0957035 6.072266,-8.0957035 a 0.75,0.75 0 0 0 -0.238282,-1.0351562 0.75,0.75 0 0 0 -0.566406,-0.09375 z"
     id="path2" />
  <path
     style="color:#000000;fill:currentColor;stroke-linecap:round;stroke-linejoin:round;-inkscape-stroke:none"
     d="m 19,17.25 c -1.218235,0 -2.080161,0.89508 -2.4375,2 H 15 A 0.75,0.75 0 0 0 14.25,20 0.75,0.75 0 0 0 15,20.75 h 1.5625 c 0.357339,1.10492 1.219265,2 2.4375,2 1.509904,0 2.75,-1.240096 2.75,-2.75 0,-1.509904 -1.240096,-2.75 -2.75,-2.75 z m 0,1.5 c 0.699294,0 1.25,0.550706 1.25,1.25 0,0.699294 -0.550706,1.25 -1.25,1.25 -0.699294,0 -1.25,-0.550706 -1.25,-1.25 0,-0.699294 0.550706,-1.25 1.25,-1.25 z"
     id="path4" />
  <path
     style="color:#000000;fill:currentColor;stroke-linecap:round;stroke-linejoin:round;-inkscape-stroke:none"
     d="M 10,19.25 A 0.75,0.75 0 0 0 9.25,20 0.75,0.75 0 0 0 10,20.75 h 2 A 0.75,0.75 0 0 0 12.75,20 0.75,0.75 0 0 0 12,19.25 Z"
     id="path6" />
</svg>
