<?xml version="1.0" encoding="UTF-8" standalone="no"?>
<svg
   width="24"
   height="24"
   stroke-width="1.5"
   viewBox="0 0 24 24"
   fill="none"
   version="1.1"
   id="svg12"
   sodipodi:docname="ease-curve-control-points.svg"
   inkscape:version="1.2.1 (9c6d41e410, 2022-07-14)"
   xmlns:inkscape="http://www.inkscape.org/namespaces/inkscape"
   xmlns:sodipodi="http://sodipodi.sourceforge.net/DTD/sodipodi-0.dtd"
   xmlns="http://www.w3.org/2000/svg"
   xmlns:svg="http://www.w3.org/2000/svg">
  <defs
     id="defs16" />
  <sodipodi:namedview
     id="namedview14"
     pagecolor="#ffffff"
     bordercolor="#666666"
     borderopacity="1.0"
     inkscape:showpageshadow="2"
     inkscape:pageopacity="0.0"
     inkscape:pagecheckerboard="0"
     inkscape:deskcolor="#d1d1d1"
     showgrid="false"
     inkscape:zoom="34.541667"
     inkscape:cx="10.364294"
     inkscape:cy="12.014475"
     inkscape:window-width="1920"
     inkscape:window-height="1009"
     inkscape:window-x="1912"
     inkscape:window-y="-8"
     inkscape:window-maximized="1"
     inkscape:current-layer="svg12" />
  <path
     style="color:#000000;fill:currentColor;stroke-linecap:round;stroke-linejoin:round;-inkscape-stroke:none"
     d="m 19,17.25 c -1.218235,0 -2.080161,0.89508 -2.4375,2 H 15 A 0.75,0.75 0 0 0 14.25,20 0.75,0.75 0 0 0 15,20.75 h 1.5625 c 0.357339,1.10492 1.219265,2 2.4375,2 1.509904,0 2.75,-1.240096 2.75,-2.75 0,-1.509904 -1.240096,-2.75 -2.75,-2.75 z m 0,1.5 c 0.699294,0 1.25,0.550706 1.25,1.25 0,0.699294 -0.550706,1.25 -1.25,1.25 -0.699294,0 -1.25,-0.550706 -1.25,-1.25 0,-0.699294 0.550706,-1.25 1.25,-1.25 z"
     id="path2" />
  <path
     style="color:#000000;fill:currentColor;stroke-linecap:round;stroke-linejoin:round;-inkscape-stroke:none"
     d="M 5,1.25 C 3.4901018,1.25 2.25,2.4901018 2.25,4 c 0,1.5098982 1.2401018,2.75 2.75,2.75 1.2182305,0 2.0801597,-0.8950815 2.4375,-2 H 9 A 0.75,0.75 0 0 0 9.75,4 0.75,0.75 0 0 0 9,3.25 H 7.4375 C 7.0801597,2.1450815 6.2182305,1.25 5,1.25 Z m 0,1.5 C 5.6992396,2.75 6.25,3.3007604 6.25,4 6.25,4.6992396 5.6992396,5.25 5,5.25 4.3007604,5.25 3.75,4.6992396 3.75,4 3.75,3.3007604 4.3007604,2.75 5,2.75 Z"
     id="path4" />
  <path
     style="color:#000000;fill:currentColor;stroke-linecap:round;stroke-linejoin:round;-inkscape-stroke:none"
     d="M 12,3.25 A 0.75,0.75 0 0 0 11.25,4 0.75,0.75 0 0 0 12,4.75 h 2 A 0.75,0.75 0 0 0 14.75,4 0.75,0.75 0 0 0 14,3.25 Z"
     id="path6" />
  <path
     style="color:#000000;fill:currentColor;stroke-linecap:round;stroke-linejoin:round;-inkscape-stroke:none"
     d="M 10,19.25 A 0.75,0.75 0 0 0 9.25,20 0.75,0.75 0 0 0 10,20.75 h 2 A 0.75,0.75 0 0 0 12.75,20 0.75,0.75 0 0 0 12,19.25 Z"
     id="path8" />
  <path
     style="color:#000000;fill:currentColor;stroke-linecap:round;stroke-linejoin:round;-inkscape-stroke:none"
     d="m 21,3.25 c -2.249998,0 -4.085869,1.1468373 -5.603516,2.7304687 -1.517646,1.5836315 -2.783204,3.6210958 -4.033203,5.6210943 -1.249998,1.999998 -2.4844463,3.96254 -3.8417966,5.378906 C 6.164134,18.396834 4.7499982,19.25 3,19.25 A 0.75,0.75 0 0 0 2.25,20 0.75,0.75 0 0 0 3,20.75 c 2.2499978,0 4.0858688,-1.146837 5.6035156,-2.730469 C 10.121162,16.4359 11.38672,14.398435 12.636719,12.398438 13.886718,10.39844 15.121165,8.4358968 16.478516,7.0195312 17.835866,5.6031657 19.250002,4.75 21,4.75 A 0.75,0.75 0 0 0 21.75,4 0.75,0.75 0 0 0 21,3.25 Z"
     id="path10" />
</svg>
