<?xml version="1.0" encoding="UTF-8" standalone="no"?>
<svg
   width="24"
   height="24"
   stroke-width="1.5"
   viewBox="0 0 24 24"
   fill="none"
   version="1.1"
   id="svg8"
   sodipodi:docname="ease-out-control-point.svg"
   inkscape:version="1.2.1 (9c6d41e410, 2022-07-14)"
   xmlns:inkscape="http://www.inkscape.org/namespaces/inkscape"
   xmlns:sodipodi="http://sodipodi.sourceforge.net/DTD/sodipodi-0.dtd"
   xmlns="http://www.w3.org/2000/svg"
   xmlns:svg="http://www.w3.org/2000/svg">
  <defs
     id="defs12" />
  <sodipodi:namedview
     id="namedview10"
     pagecolor="#ffffff"
     bordercolor="#666666"
     borderopacity="1.0"
     inkscape:showpageshadow="2"
     inkscape:pageopacity="0.0"
     inkscape:pagecheckerboard="0"
     inkscape:deskcolor="#d1d1d1"
     showgrid="false"
     inkscape:zoom="34.541667"
     inkscape:cx="10.364294"
     inkscape:cy="12.014475"
     inkscape:window-width="1920"
     inkscape:window-height="1009"
     inkscape:window-x="1912"
     inkscape:window-y="-8"
     inkscape:window-maximized="1"
     inkscape:current-layer="svg8" />
  <path
     style="color:#000000;fill:currentColor;stroke-linecap:round;stroke-linejoin:round;-inkscape-stroke:none"
     d="m 21,3.25 c -4.499996,0 -9.017837,4.2025837 -12.5644531,8.255859 -3.5466163,4.053276 -6.0722657,8.095703 -6.0722656,8.095703 a 0.75,0.75 0 0 0 0.2382812,1.035157 0.75,0.75 0 0 0 1.0351563,-0.238282 c 0,0 2.4743576,-3.95758 5.9277343,-7.904296 C 13.01783,8.5474243 17.500004,4.75 21,4.75 A 0.75,0.75 0 0 0 21.75,4 0.75,0.75 0 0 0 21,3.25 Z"
     id="path2" />
  <path
     style="color:#000000;fill:currentColor;stroke-linecap:round;stroke-linejoin:round;-inkscape-stroke:none"
     d="M 5,1.25 C 3.4901018,1.25 2.25,2.4901018 2.25,4 c 0,1.5098982 1.2401018,2.75 2.75,2.75 1.2182305,0 2.0801597,-0.8950815 2.4375,-2 H 9 A 0.75,0.75 0 0 0 9.75,4 0.75,0.75 0 0 0 9,3.25 H 7.4375 C 7.0801597,2.1450815 6.2182305,1.25 5,1.25 Z m 0,1.5 C 5.6992396,2.75 6.25,3.3007604 6.25,4 6.25,4.6992396 5.6992396,5.25 5,5.25 4.3007604,5.25 3.75,4.6992396 3.75,4 3.75,3.3007604 4.3007604,2.75 5,2.75 Z"
     id="path4" />
  <path
     style="color:#000000;fill:currentColor;stroke-linecap:round;stroke-linejoin:round;-inkscape-stroke:none"
     d="M 12,3.25 A 0.75,0.75 0 0 0 11.25,4 0.75,0.75 0 0 0 12,4.75 h 2 A 0.75,0.75 0 0 0 14.75,4 0.75,0.75 0 0 0 14,3.25 Z"
     id="path6" />
</svg>
