<?xml version="1.0" encoding="UTF-8" standalone="no"?>
<svg
   width="24"
   height="24"
   stroke-width="1.5"
   viewBox="0 0 24 24"
   fill="none"
   version="1.1"
   id="svg6"
   sodipodi:docname="edit.svg"
   inkscape:version="1.2.1 (9c6d41e410, 2022-07-14)"
   xmlns:inkscape="http://www.inkscape.org/namespaces/inkscape"
   xmlns:sodipodi="http://sodipodi.sourceforge.net/DTD/sodipodi-0.dtd"
   xmlns="http://www.w3.org/2000/svg"
   xmlns:svg="http://www.w3.org/2000/svg">
  <defs
     id="defs10" />
  <sodipodi:namedview
     id="namedview8"
     pagecolor="#ffffff"
     bordercolor="#666666"
     borderopacity="1.0"
     inkscape:showpageshadow="2"
     inkscape:pageopacity="0.0"
     inkscape:pagecheckerboard="0"
     inkscape:deskcolor="#d1d1d1"
     showgrid="false"
     inkscape:zoom="34.541667"
     inkscape:cx="10.364294"
     inkscape:cy="12.014475"
     inkscape:window-width="1920"
     inkscape:window-height="1009"
     inkscape:window-x="1912"
     inkscape:window-y="-8"
     inkscape:window-maximized="1"
     inkscape:current-layer="svg6" />
  <path
     style="color:#000000;fill:currentColor;stroke-linecap:round;stroke-linejoin:round;-inkscape-stroke:none"
     d="M 3,20.25 A 0.75,0.75 0 0 0 2.25,21 0.75,0.75 0 0 0 3,21.75 h 9 9 A 0.75,0.75 0 0 0 21.75,21 0.75,0.75 0 0 0 21,20.25 h -9 z"
     id="path2" />
  <path
     style="color:#000000;fill:currentColor;stroke-linecap:round;stroke-linejoin:round;-inkscape-stroke:none"
     d="M 14.519531,2.46875 11.691406,5.2988281 6.0839844,10.904297 c -0.3280731,0.32802 -0.5117188,0.774439 -0.5117188,1.238281 v 4.535156 a 0.750075,0.750075 0 0 0 0.75,0.75 h 4.5351564 c 0.463729,0 0.910278,-0.185668 1.238281,-0.513672 l 5.605469,-5.605468 2.830078,-2.8281252 a 0.750075,0.750075 0 0 0 0,-1.0605469 L 15.580078,2.46875 a 0.750075,0.750075 0 0 0 -1.060547,0 z m 0.53125,1.5917969 3.888672,3.8886718 L 17.171875,9.71875 13.28125,5.828125 Z m -2.828125,2.8300781 3.886719,3.886719 -5.074219,5.076172 c -0.0472,0.0472 -0.111064,0.07422 -0.177734,0.07422 H 7.0722656 v -3.785156 c 0,-0.06656 0.025279,-0.130755 0.072266,-0.177734 a 0.750075,0.750075 0 0 0 0.00195,0 z"
     id="path4" />
</svg>
