<?xml version="1.0" encoding="UTF-8" standalone="no"?>
<svg
   width="24"
   height="24"
   viewBox="0 0 24 24"
   stroke-width="1.5"
   fill="none"
   version="1.1"
   id="svg4"
   sodipodi:docname="edit-pencil.svg"
   inkscape:version="1.2.1 (9c6d41e410, 2022-07-14)"
   xmlns:inkscape="http://www.inkscape.org/namespaces/inkscape"
   xmlns:sodipodi="http://sodipodi.sourceforge.net/DTD/sodipodi-0.dtd"
   xmlns="http://www.w3.org/2000/svg"
   xmlns:svg="http://www.w3.org/2000/svg">
  <defs
     id="defs8" />
  <sodipodi:namedview
     id="namedview6"
     pagecolor="#ffffff"
     bordercolor="#666666"
     borderopacity="1.0"
     inkscape:showpageshadow="2"
     inkscape:pageopacity="0.0"
     inkscape:pagecheckerboard="0"
     inkscape:deskcolor="#d1d1d1"
     showgrid="false"
     inkscape:zoom="34.541667"
     inkscape:cx="10.364294"
     inkscape:cy="12.014475"
     inkscape:window-width="1920"
     inkscape:window-height="1009"
     inkscape:window-x="1912"
     inkscape:window-y="-8"
     inkscape:window-maximized="1"
     inkscape:current-layer="svg4" />
  <path
     style="color:#000000;fill:currentColor;stroke-linecap:round;stroke-linejoin:round;-inkscape-stroke:none"
     d="m 17.257812,2.8398438 c -0.705357,0 -1.411465,0.2669683 -1.945312,0.8007812 L 13.832031,5.1210937 4.2167969,14.736328 C 3.7603603,15.192806 3.4786772,15.796373 3.421875,16.439453 l -0.2421875,2.740234 c -0.094534,1.070131 0.8282667,1.991071 1.8984375,1.896485 l 2.7402344,-0.240235 c 0.6431794,-0.05678 1.2447345,-0.33858 1.7011719,-0.794921 l 9.6171877,-9.617188 1.478515,-1.4785155 c 1.067601,-1.0676692 1.067607,-2.8229639 0,-3.890625 L 19.201172,3.640625 C 18.667325,3.1068121 17.96317,2.8398437 17.257812,2.8398438 Z m 0,1.4921874 c 0.318342,0 0.635561,0.1219043 0.882813,0.3691407 l 1.414062,1.4140625 c 0.494393,0.4944173 0.494398,1.275102 0,1.7695312 L 18.605469,8.8339844 15.423828,5.6503906 16.373047,4.7011719 c 0.247252,-0.2472364 0.566424,-0.3691407 0.884765,-0.3691407 z m -2.894531,2.3789063 3.181641,3.1835938 -9.0859376,9.0859377 c -0.207702,0.207658 -0.4809979,0.333557 -0.7734375,0.359375 L 4.9453125,19.582031 C 4.7754445,19.597045 4.6588221,19.482369 4.6738281,19.3125 l 0.2421875,-2.740234 c 0.025838,-0.292519 0.1536253,-0.567669 0.3613281,-0.775391 z"
     id="path2" />
</svg>
