<?xml version="1.0" encoding="UTF-8" standalone="no"?>
<svg
   width="24"
   height="24"
   stroke-width="1.5"
   viewBox="0 0 24 24"
   fill="none"
   version="1.1"
   id="svg24"
   sodipodi:docname="electronics-chip.svg"
   inkscape:version="1.2.1 (9c6d41e410, 2022-07-14)"
   xmlns:inkscape="http://www.inkscape.org/namespaces/inkscape"
   xmlns:sodipodi="http://sodipodi.sourceforge.net/DTD/sodipodi-0.dtd"
   xmlns="http://www.w3.org/2000/svg"
   xmlns:svg="http://www.w3.org/2000/svg">
  <defs
     id="defs28" />
  <sodipodi:namedview
     id="namedview26"
     pagecolor="#ffffff"
     bordercolor="#666666"
     borderopacity="1.0"
     inkscape:showpageshadow="2"
     inkscape:pageopacity="0.0"
     inkscape:pagecheckerboard="0"
     inkscape:deskcolor="#d1d1d1"
     showgrid="false"
     inkscape:zoom="34.541667"
     inkscape:cx="10.364294"
     inkscape:cy="12.014475"
     inkscape:window-width="1920"
     inkscape:window-height="1009"
     inkscape:window-x="1912"
     inkscape:window-y="-8"
     inkscape:window-maximized="1"
     inkscape:current-layer="svg24" />
  <path
     style="color:#000000;fill:currentColor;stroke-linecap:round;stroke-linejoin:round;-inkscape-stroke:none"
     d="M 7.5996094,3.25 C 6.8629077,3.25 6.25,3.8629077 6.25,4.5996094 V 19.400391 C 6.25,20.137086 6.862953,20.75 7.5996094,20.75 H 16.400391 C 17.13704,20.75 17.75,20.13704 17.75,19.400391 V 4.5996094 C 17.75,3.862953 17.137086,3.25 16.400391,3.25 Z M 7.75,4.75 h 8.5 v 14.5 h -8.5 z"
     id="path2" />
  <path
     style="color:#000000;fill:currentColor;stroke-linecap:round;stroke-linejoin:round;-inkscape-stroke:none"
     d="M 14,19.25 A 0.75,0.75 0 0 0 13.25,20 v 2.5 A 0.75,0.75 0 0 0 14,23.25 0.75,0.75 0 0 0 14.75,22.5 V 20 A 0.75,0.75 0 0 0 14,19.25 Z"
     id="path4" />
  <path
     style="color:#000000;fill:currentColor;stroke-linecap:round;stroke-linejoin:round;-inkscape-stroke:none"
     d="M 10,19.25 A 0.75,0.75 0 0 0 9.25,20 v 2.5 A 0.75,0.75 0 0 0 10,23.25 0.75,0.75 0 0 0 10.75,22.5 V 20 A 0.75,0.75 0 0 0 10,19.25 Z"
     id="path6" />
  <path
     style="color:#000000;fill:currentColor;stroke-linecap:round;stroke-linejoin:round;-inkscape-stroke:none"
     d="M 14,0.75 A 0.75,0.75 0 0 0 13.25,1.5 V 4 A 0.75,0.75 0 0 0 14,4.75 0.75,0.75 0 0 0 14.75,4 V 1.5 A 0.75,0.75 0 0 0 14,0.75 Z"
     id="path8" />
  <path
     style="color:#000000;fill:currentColor;stroke-linecap:round;stroke-linejoin:round;-inkscape-stroke:none"
     d="M 10,0.75 A 0.75,0.75 0 0 0 9.25,1.5 V 4 A 0.75,0.75 0 0 0 10,4.75 0.75,0.75 0 0 0 10.75,4 V 1.5 A 0.75,0.75 0 0 0 10,0.75 Z"
     id="path10" />
  <path
     style="color:#000000;fill:currentColor;stroke-linecap:round;stroke-linejoin:round;-inkscape-stroke:none"
     d="M 4.5,11.25 A 0.75,0.75 0 0 0 3.75,12 0.75,0.75 0 0 0 4.5,12.75 H 7 A 0.75,0.75 0 0 0 7.75,12 0.75,0.75 0 0 0 7,11.25 Z"
     id="path12" />
  <path
     style="color:#000000;fill:currentColor;stroke-linecap:round;stroke-linejoin:round;-inkscape-stroke:none"
     d="M 17,11.25 A 0.75,0.75 0 0 0 16.25,12 0.75,0.75 0 0 0 17,12.75 h 2.5 A 0.75,0.75 0 0 0 20.25,12 0.75,0.75 0 0 0 19.5,11.25 Z"
     id="path14" />
  <path
     style="color:#000000;fill:currentColor;stroke-linecap:round;stroke-linejoin:round;-inkscape-stroke:none"
     d="M 4.5,5.75 A 0.75,0.75 0 0 0 3.75,6.5 0.75,0.75 0 0 0 4.5,7.25 H 7 A 0.75,0.75 0 0 0 7.75,6.5 0.75,0.75 0 0 0 7,5.75 Z"
     id="path16" />
  <path
     style="color:#000000;fill:currentColor;stroke-linecap:round;stroke-linejoin:round;-inkscape-stroke:none"
     d="M 17,5.75 A 0.75,0.75 0 0 0 16.25,6.5 0.75,0.75 0 0 0 17,7.25 h 2.5 A 0.75,0.75 0 0 0 20.25,6.5 0.75,0.75 0 0 0 19.5,5.75 Z"
     id="path18" />
  <path
     style="color:#000000;fill:currentColor;stroke-linecap:round;stroke-linejoin:round;-inkscape-stroke:none"
     d="M 4.5,16.75 A 0.75,0.75 0 0 0 3.75,17.5 0.75,0.75 0 0 0 4.5,18.25 H 7 A 0.75,0.75 0 0 0 7.75,17.5 0.75,0.75 0 0 0 7,16.75 Z"
     id="path20" />
  <path
     style="color:#000000;fill:currentColor;stroke-linecap:round;stroke-linejoin:round;-inkscape-stroke:none"
     d="M 17,16.75 A 0.75,0.75 0 0 0 16.25,17.5 0.75,0.75 0 0 0 17,18.25 h 2.5 A 0.75,0.75 0 0 0 20.25,17.5 0.75,0.75 0 0 0 19.5,16.75 Z"
     id="path22" />
</svg>
