<?xml version="1.0" encoding="UTF-8" standalone="no"?>
<svg
   width="24"
   height="24"
   stroke-width="1.5"
   viewBox="0 0 24 24"
   fill="none"
   version="1.1"
   id="svg4"
   sodipodi:docname="electronics-transistor.svg"
   inkscape:version="1.2.1 (9c6d41e410, 2022-07-14)"
   xmlns:inkscape="http://www.inkscape.org/namespaces/inkscape"
   xmlns:sodipodi="http://sodipodi.sourceforge.net/DTD/sodipodi-0.dtd"
   xmlns="http://www.w3.org/2000/svg"
   xmlns:svg="http://www.w3.org/2000/svg">
  <defs
     id="defs8" />
  <sodipodi:namedview
     id="namedview6"
     pagecolor="#ffffff"
     bordercolor="#666666"
     borderopacity="1.0"
     inkscape:showpageshadow="2"
     inkscape:pageopacity="0.0"
     inkscape:pagecheckerboard="0"
     inkscape:deskcolor="#d1d1d1"
     showgrid="false"
     inkscape:zoom="34.541667"
     inkscape:cx="10.364294"
     inkscape:cy="12.014475"
     inkscape:window-width="1920"
     inkscape:window-height="1009"
     inkscape:window-x="1912"
     inkscape:window-y="-8"
     inkscape:window-maximized="1"
     inkscape:current-layer="svg4" />
  <path
     style="color:#000000;fill:currentColor;stroke-linecap:round;stroke-linejoin:round;-inkscape-stroke:none"
     d="M 7.5996094,2.25 C 6.8629077,2.25 6.25,2.8629077 6.25,3.5996094 V 15.25 H 5 A 0.75,0.75 0 0 0 4.25,16 0.75,0.75 0 0 0 5,16.75 H 7 8.25 V 22 A 0.75,0.75 0 0 0 9,22.75 0.75,0.75 0 0 0 9.75,22 v -5.25 h 1.5 V 22 A 0.75,0.75 0 0 0 12,22.75 0.75,0.75 0 0 0 12.75,22 v -5.25 h 1.5 V 22 A 0.75,0.75 0 0 0 15,22.75 0.75,0.75 0 0 0 15.75,22 V 16.75 H 17 19 A 0.75,0.75 0 0 0 19.75,16 0.75,0.75 0 0 0 19,15.25 H 17.75 V 3.5996094 C 17.75,2.862953 17.137086,2.25 16.400391,2.25 Z M 7.75,3.75 h 8.5 v 11.5 H 15 12 9 7.75 Z"
     id="path2" />
</svg>
