<?xml version="1.0" encoding="UTF-8" standalone="no"?>
<svg
   width="24"
   height="24"
   viewBox="0 0 24 24"
   stroke-width="1.5"
   fill="none"
   version="1.1"
   id="svg10"
   sodipodi:docname="elevator.svg"
   inkscape:version="1.2.1 (9c6d41e410, 2022-07-14)"
   xmlns:inkscape="http://www.inkscape.org/namespaces/inkscape"
   xmlns:sodipodi="http://sodipodi.sourceforge.net/DTD/sodipodi-0.dtd"
   xmlns="http://www.w3.org/2000/svg"
   xmlns:svg="http://www.w3.org/2000/svg">
  <defs
     id="defs14" />
  <sodipodi:namedview
     id="namedview12"
     pagecolor="#ffffff"
     bordercolor="#666666"
     borderopacity="1.0"
     inkscape:showpageshadow="2"
     inkscape:pageopacity="0.0"
     inkscape:pagecheckerboard="0"
     inkscape:deskcolor="#d1d1d1"
     showgrid="false"
     inkscape:zoom="34.541667"
     inkscape:cx="10.364294"
     inkscape:cy="12.014475"
     inkscape:window-width="1920"
     inkscape:window-height="1009"
     inkscape:window-x="1912"
     inkscape:window-y="-8"
     inkscape:window-maximized="1"
     inkscape:current-layer="svg10" />
  <path
     style="color:#000000;fill:currentColor;stroke-linecap:round;stroke-linejoin:round;-inkscape-stroke:none"
     d="M 12,2.25 A 0.75,0.75 0 0 0 11.25,3 V 21 A 0.75,0.75 0 0 0 12,21.75 0.75,0.75 0 0 0 12.75,21 V 3 A 0.75,0.75 0 0 0 12,2.25 Z"
     id="path2" />
  <path
     style="color:#000000;fill:currentColor;stroke-linecap:round;stroke-linejoin:round;-inkscape-stroke:none"
     d="M 3.5996094,2.25 C 2.8629077,2.25 2.25,2.8629077 2.25,3.5996094 V 20.400391 C 2.25,21.137086 2.862953,21.75 3.5996094,21.75 H 20.400391 C 21.13704,21.75 21.75,21.13704 21.75,20.400391 V 3.5996094 C 21.75,2.862953 21.137086,2.25 20.400391,2.25 Z M 3.75,3.75 h 16.5 v 16.5 H 3.75 Z"
     id="path4" />
  <path
     style="color:#000000;fill:currentColor;stroke-linecap:round;stroke-linejoin:round;-inkscape-stroke:none"
     d="M 7.5,9.25 A 0.750075,0.750075 0 0 0 6.9003906,9.5507813 l -1.5,1.9999997 a 0.75,0.75 0 0 0 0.1503906,1.048828 0.75,0.75 0 0 0 1.0488282,-0.15039 L 7.5,11.248047 8.4003906,12.449219 a 0.75,0.75 0 0 0 1.0488282,0.15039 0.75,0.75 0 0 0 0.1503906,-1.048828 l -1.5,-1.9999997 A 0.750075,0.750075 0 0 0 7.5,9.25 Z"
     id="path6" />
  <path
     style="color:#000000;fill:currentColor;stroke-linecap:round;stroke-linejoin:round;-inkscape-stroke:none"
     d="m 17.894531,11.257813 a 0.75,0.75 0 0 0 -0.49414,0.292968 L 16.5,12.751953 15.599609,11.550781 a 0.75,0.75 0 0 0 -1.048828,-0.15039 0.75,0.75 0 0 0 -0.15039,1.048828 l 1.5,2 a 0.750075,0.750075 0 0 0 1.199218,0 l 1.5,-2 a 0.75,0.75 0 0 0 -0.15039,-1.048828 0.75,0.75 0 0 0 -0.554688,-0.142578 z"
     id="path8" />
</svg>
