<?xml version="1.0" encoding="UTF-8" standalone="no"?>
<svg
   width="24"
   height="24"
   viewBox="0 0 24 24"
   stroke-width="1.5"
   fill="none"
   version="1.1"
   id="svg16"
   sodipodi:docname="ellipse-3d-three-points.svg"
   inkscape:version="1.2.1 (9c6d41e410, 2022-07-14)"
   xmlns:inkscape="http://www.inkscape.org/namespaces/inkscape"
   xmlns:sodipodi="http://sodipodi.sourceforge.net/DTD/sodipodi-0.dtd"
   xmlns="http://www.w3.org/2000/svg"
   xmlns:svg="http://www.w3.org/2000/svg">
  <defs
     id="defs20" />
  <sodipodi:namedview
     id="namedview18"
     pagecolor="#ffffff"
     bordercolor="#666666"
     borderopacity="1.0"
     inkscape:showpageshadow="2"
     inkscape:pageopacity="0.0"
     inkscape:pagecheckerboard="0"
     inkscape:deskcolor="#d1d1d1"
     showgrid="false"
     inkscape:zoom="34.541667"
     inkscape:cx="10.364294"
     inkscape:cy="12.014475"
     inkscape:window-width="1920"
     inkscape:window-height="1009"
     inkscape:window-x="1912"
     inkscape:window-y="-8"
     inkscape:window-maximized="1"
     inkscape:current-layer="svg16" />
  <g
     id="path2">
    <path
       style="color:#000000;fill:currentColor;stroke-width:1.5;stroke-linecap:round;stroke-linejoin:round;-inkscape-stroke:none"
       d="M 5,3 C 5.55228,3 6,2.55228 6,2 6,1.44772 5.55228,1 5,1 4.44772,1 4,1.44772 4,2 4,2.55228 4.44772,3 5,3 Z"
       id="path225" />
    <path
       style="color:#000000;fill:currentColor;stroke-linecap:round;stroke-linejoin:round;-inkscape-stroke:none"
       d="M 5,0.25 C 4.0423831,0.25 3.25,1.0423831 3.25,2 3.25,2.9576169 4.0423831,3.75 5,3.75 5.9576169,3.75 6.75,2.9576169 6.75,2 6.75,1.0423831 5.9576169,0.25 5,0.25 Z m 0,1.5 C 5.146942,1.75 5.25,1.853058 5.25,2 5.25,2.146942 5.146942,2.25 5,2.25 4.853058,2.25 4.75,2.146942 4.75,2 4.75,1.853058 4.853058,1.75 5,1.75 Z"
       id="path227" />
  </g>
  <path
     style="color:#000000;fill:currentColor;stroke-linecap:round;stroke-linejoin:round;-inkscape-stroke:none"
     d="M 5,21.25 A 0.75,0.75 0 0 0 4.25,22 0.75,0.75 0 0 0 5,22.75 h 8 A 0.75,0.75 0 0 0 13.75,22 0.75,0.75 0 0 0 13,21.25 Z"
     id="path4" />
  <path
     style="color:#000000;fill:currentColor;stroke-linecap:round;stroke-linejoin:round;-inkscape-stroke:none"
     d="M 5,1.25 A 0.75,0.75 0 0 0 4.25,2 V 22 A 0.75,0.75 0 0 0 5,22.75 0.75,0.75 0 0 0 5.75,22 V 2 A 0.75,0.75 0 0 0 5,1.25 Z"
     id="path6" />
  <g
     id="path8">
    <path
       style="color:#000000;fill:currentColor;stroke-width:1.5;stroke-linecap:round;stroke-linejoin:round;-inkscape-stroke:none"
       d="m 5,23 c 0.55228,0 1,-0.4477 1,-1 0,-0.5523 -0.44772,-1 -1,-1 -0.55228,0 -1,0.4477 -1,1 0,0.5523 0.44772,1 1,1 z"
       id="path211" />
    <path
       style="color:#000000;fill:currentColor;stroke-linecap:round;stroke-linejoin:round;-inkscape-stroke:none"
       d="m 5,20.25 c -0.9575988,0 -1.75,0.792378 -1.75,1.75 0,0.957622 0.7924012,1.75 1.75,1.75 0.9575988,0 1.75,-0.792378 1.75,-1.75 0,-0.957622 -0.7924012,-1.75 -1.75,-1.75 z m 0,1.5 c 0.1469601,0 0.25,0.103023 0.25,0.25 0,0.146977 -0.1030399,0.25 -0.25,0.25 -0.1469601,0 -0.25,-0.103023 -0.25,-0.25 0,-0.146977 0.1030399,-0.25 0.25,-0.25 z"
       id="path213" />
  </g>
  <path
     style="color:#000000;fill:currentColor;stroke-linecap:round;stroke-linejoin:round;stroke-dasharray:3, 3;-inkscape-stroke:none"
     d="m 13.429688,1.2636719 a 0.75,0.75 0 0 0 -0.785157,0.7128906 0.75,0.75 0 0 0 0.712891,0.7851563 h 0.0078 l 0.179688,0.013672 0.177734,0.019531 0.177735,0.025391 0.177734,0.03125 0.173828,0.037109 0.173828,0.041016 0.173828,0.046875 0.169922,0.052734 0.169922,0.056641 0.167969,0.0625 0.166016,0.068359 0.166015,0.072266 0.16211,0.078125 0.162109,0.082031 0.123047,0.066406 A 0.75,0.75 0 0 0 16.904297,3.21875 0.75,0.75 0 0 0 16.605469,2.1992188 l -0.13086,-0.072266 a 0.750075,0.750075 0 0 0 -0.01953,-0.00977 l -0.179687,-0.091797 a 0.750075,0.750075 0 0 0 -0.01953,-0.00977 l -0.183593,-0.085937 a 0.750075,0.750075 0 0 0 -0.01953,-0.00977 l -0.185546,-0.080078 a 0.750075,0.750075 0 0 0 -0.01953,-0.00977 l -0.1875,-0.076172 a 0.750075,0.750075 0 0 0 -0.01953,-0.00781 l -0.189453,-0.070312 a 0.750075,0.750075 0 0 0 -0.02148,-0.00781 l -0.189454,-0.064453 a 0.750075,0.750075 0 0 0 -0.02148,-0.00586 l -0.193359,-0.058594 a 0.750075,0.750075 0 0 0 -0.02149,-0.00586 l -0.195312,-0.054687 a 0.750075,0.750075 0 0 0 -0.02149,-0.00391 l -0.197265,-0.046875 a 0.750075,0.750075 0 0 0 -0.02149,-0.00586 l -0.197265,-0.041016 a 0.750075,0.750075 0 0 0 -0.02344,-0.00391 L 14.148438,1.3417969 A 0.750075,0.750075 0 0 0 14.125,1.3378906 l -0.201172,-0.029297 a 0.750075,0.750075 0 0 0 -0.02344,-0.00195 L 13.699219,1.2832031 A 0.750075,0.750075 0 0 0 13.673828,1.28125 L 13.470703,1.265625 a 0.750075,0.750075 0 0 0 -0.02344,-0.00195 z m -2.691407,0.5527343 a 0.75,0.75 0 0 0 -0.574218,0.00781 l -0.158204,0.070312 a 0.750075,0.750075 0 0 0 -0.015625,0.00586 l -0.1582031,0.074219 a 0.750075,0.750075 0 0 0 -0.015625,0.00781 l -0.15625,0.076172 a 0.750075,0.750075 0 0 0 -0.015625,0.00781 L 9.4902344,2.1464844 A 0.750075,0.750075 0 0 0 9.4746094,2.15625 L 9.3222656,2.2402344 A 0.750075,0.750075 0 0 0 9.3066406,2.25 L 9.15625,2.3378906 a 0.750075,0.750075 0 0 0 -0.015625,0.00781 L 8.9921875,2.4375 a 0.750075,0.750075 0 0 0 -0.015625,0.00977 l -0.1464844,0.095703 a 0.750075,0.750075 0 0 0 -0.015625,0.00977 L 8.6699219,2.6523438 A 0.750075,0.750075 0 0 0 8.65625,2.6621094 L 8.5117188,2.765625 a 0.750075,0.750075 0 0 0 -0.013672,0.00977 l -0.140625,0.1074219 a 0.750075,0.750075 0 0 0 -0.013672,0.00977 l -0.140625,0.109375 a 0.750075,0.750075 0 0 0 -0.011719,0.011719 L 8.0527344,3.1269531 a 0.750075,0.750075 0 0 0 -0.011719,0.00977 L 7.9042969,3.2539063 A 0.750075,0.750075 0 0 0 7.8925781,3.265625 L 7.7597656,3.3847656 a 0.750075,0.750075 0 0 0 -0.011719,0.011719 L 7.6152344,3.5195313 A 0.750075,0.750075 0 0 0 7.6035156,3.53125 L 7.4746094,3.6582031 a 0.75,0.75 0 0 0 -0.00977,1.0605469 0.75,0.75 0 0 0 1.0605469,0.00977 L 8.6484375,4.6074219 8.7695313,4.4941406 8.890625,4.3847656 9.0136719,4.2792969 l 0.125,-0.1035157 0.1269531,-0.099609 0.1289063,-0.097656 0.1289062,-0.091797 0.1308594,-0.089844 0.1328125,-0.087891 0.1347656,-0.082031 0.134766,-0.078125 0.136718,-0.076172 0.136719,-0.072266 0.140625,-0.068359 0.140625,-0.064453 0.148438,-0.066406 a 0.75,0.75 0 0 0 0.390625,-0.9863281 0.75,0.75 0 0 0 -0.41211,-0.3984376 z m 7.867188,2.2128907 A 0.75,0.75 0 0 0 18.056641,4.1953125 0.75,0.75 0 0 0 17.951172,5.25 l 0.11914,0.1484375 0.125,0.15625 0.119141,0.1621094 0.119141,0.1660156 0.113281,0.1699219 0.111328,0.171875 0.109375,0.1777343 0.105469,0.1796875 0.101562,0.1835938 0.09766,0.1875 0.0957,0.1894531 0.08984,0.1933594 0.08789,0.1972656 0.04102,0.091797 a 0.75,0.75 0 0 0 0.982422,0.4003906 0.75,0.75 0 0 0 0.398437,-0.9824219 l -0.04297,-0.1015625 a 0.750075,0.750075 0 0 0 -0.0059,-0.013672 L 20.625,6.7167969 a 0.750075,0.750075 0 0 0 -0.0078,-0.015625 l -0.09766,-0.2070313 a 0.750075,0.750075 0 0 0 -0.0059,-0.013672 L 20.410156,6.2753906 a 0.750075,0.750075 0 0 0 -0.0078,-0.015625 L 20.296875,6.0585937 a 0.750075,0.750075 0 0 0 -0.0078,-0.013672 L 20.179687,5.8476562 a 0.750075,0.750075 0 0 0 -0.0078,-0.013672 L 20.058594,5.6386719 A 0.750075,0.750075 0 0 0 20.050781,5.625 L 19.933594,5.4335937 a 0.750075,0.750075 0 0 0 -0.0098,-0.013672 l -0.121094,-0.1875 a 0.750075,0.750075 0 0 0 -0.0078,-0.013672 l -0.125,-0.1835938 a 0.750075,0.750075 0 0 0 -0.0098,-0.013672 L 19.533203,4.8417969 a 0.750075,0.750075 0 0 0 -0.0098,-0.013672 L 19.392578,4.6523437 a 0.750075,0.750075 0 0 0 -0.0098,-0.013672 l -0.134765,-0.171875 a 0.750075,0.750075 0 0 0 -0.01172,-0.013672 l -0.125,-0.1523438 A 0.75,0.75 0 0 0 18.605469,4.0292969 Z m 2.154297,5.4472656 a 0.75,0.75 0 0 0 -0.626954,0.8554685 v 0.0039 l 0.03125,0.232421 0.02539,0.234375 0.02148,0.236329 0.01758,0.236328 0.01172,0.240234 0.0078,0.242188 L 20.25,12 l -0.0039,0.287109 -0.0098,0.285157 -0.01758,0.283203 -0.02344,0.28125 0.002,-0.0078 a 0.75,0.75 0 0 0 0.664062,0.826172 0.75,0.75 0 0 0 0.826172,-0.664062 v -0.002 a 0.750075,0.750075 0 0 0 0.002,-0.01758 l 0.02539,-0.298828 a 0.750075,0.750075 0 0 0 0.002,-0.01758 l 0.01758,-0.300781 a 0.750075,0.750075 0 0 0 0,-0.01758 l 0.01172,-0.304688 a 0.750075,0.750075 0 0 0 0,-0.01758 L 21.75,12.009766 a 0.750075,0.750075 0 0 0 0,-0.01758 l -0.002,-0.257813 a 0.750075,0.750075 0 0 0 -0.002,-0.01563 l -0.0078,-0.255859 a 0.750075,0.750075 0 0 0 0,-0.01563 l -0.01172,-0.253907 a 0.750075,0.750075 0 0 0 -0.002,-0.01563 l -0.01758,-0.253906 a 0.750075,0.750075 0 0 0 -0.002,-0.01367 l -0.02344,-0.251953 a 0.750075,0.750075 0 0 0 0,-0.01563 l -0.0293,-0.248047 a 0.750075,0.750075 0 0 0 -0.002,-0.01563 l -0.03125,-0.248047 a 0.750075,0.750075 0 0 0 -0.002,-0.01563 l -0.002,-0.01172 A 0.75,0.75 0 0 0 20.759766,9.4765625 Z m -0.214844,5.9492185 a 0.75,0.75 0 0 0 -0.960938,0.445313 l -0.05469,0.146484 -0.09375,0.240234 -0.101563,0.236329 -0.103515,0.232421 -0.111328,0.228516 -0.115235,0.222656 -0.11914,0.216797 -0.125,0.214844 -0.128907,0.208984 -0.132812,0.203125 -0.136719,0.197266 -0.08008,0.107422 a 0.75,0.75 0 0 0 0.162109,1.048828 0.75,0.75 0 0 0 1.046875,-0.160156 l 0.08594,-0.115235 a 0.750075,0.750075 0 0 0 0.01172,-0.01758 l 0.148437,-0.214844 a 0.750075,0.750075 0 0 0 0.01172,-0.01563 l 0.144531,-0.220703 a 0.750075,0.750075 0 0 0 0.0098,-0.01563 l 0.138672,-0.226562 a 0.750075,0.750075 0 0 0 0.0098,-0.01563 l 0.134766,-0.230469 a 0.750075,0.750075 0 0 0 0.0098,-0.01758 l 0.128907,-0.234375 a 0.750075,0.750075 0 0 0 0.0098,-0.01758 l 0.123047,-0.240235 a 0.750075,0.750075 0 0 0 0.0078,-0.01563 l 0.11914,-0.246093 a 0.750075,0.750075 0 0 0 0.0078,-0.01563 l 0.113281,-0.25 a 0.750075,0.750075 0 0 0 0.0078,-0.01758 l 0.107421,-0.253907 a 0.750075,0.750075 0 0 0 0.0059,-0.01563 l 0.101562,-0.257812 a 0.750075,0.750075 0 0 0 0.0078,-0.01758 l 0.05664,-0.15625 a 0.75,0.75 0 0 0 -0.447265,-0.960938 z"
     id="path10" />
  <path
     style="color:#000000;fill:currentColor;stroke-linecap:round;stroke-linejoin:round;-inkscape-stroke:none"
     d="m 7.1269531,17.875 a 0.75,0.75 0 0 0 -0.5605469,0.126953 0.75,0.75 0 0 0 -0.1796875,1.044922 c 0.3885975,0.550308 0.8237014,1.053739 1.2988282,1.5 a 0.75,0.75 0 0 0 1.0605469,-0.0332 0.75,0.75 0 0 0 -0.033203,-1.060547 C 8.3149783,19.079387 7.946223,18.653132 7.6132812,18.181641 A 0.75,0.75 0 0 0 7.1269531,17.875 Z"
     id="path12" />
  <g
     id="path14">
    <path
       style="color:#000000;fill:currentColor;stroke-width:1.5;stroke-linecap:round;stroke-linejoin:round;-inkscape-stroke:none"
       d="m 13,23 c 0.5523,0 1,-0.4477 1,-1 0,-0.5523 -0.4477,-1 -1,-1 -0.5523,0 -1,0.4477 -1,1 0,0.5523 0.4477,1 1,1 z"
       id="path197" />
    <path
       style="color:#000000;fill:currentColor;stroke-linecap:round;stroke-linejoin:round;-inkscape-stroke:none"
       d="m 13,20.25 c -0.957604,0 -1.75,0.792396 -1.75,1.75 0,0.957604 0.792396,1.75 1.75,1.75 0.957604,0 1.75,-0.792396 1.75,-1.75 0,-0.957604 -0.792396,-1.75 -1.75,-1.75 z m 0,1.5 c 0.146995,0 0.25,0.103005 0.25,0.25 0,0.146995 -0.103005,0.25 -0.25,0.25 -0.146995,0 -0.25,-0.103005 -0.25,-0.25 0,-0.146995 0.103005,-0.25 0.25,-0.25 z"
       id="path199" />
  </g>
</svg>
