<?xml version="1.0" encoding="UTF-8" standalone="no"?>
<svg
   width="24"
   height="24"
   viewBox="0 0 24 24"
   stroke-width="1.5"
   fill="none"
   version="1.1"
   id="svg8"
   sodipodi:docname="ellipse-3d.svg"
   inkscape:version="1.2.1 (9c6d41e410, 2022-07-14)"
   xmlns:inkscape="http://www.inkscape.org/namespaces/inkscape"
   xmlns:sodipodi="http://sodipodi.sourceforge.net/DTD/sodipodi-0.dtd"
   xmlns="http://www.w3.org/2000/svg"
   xmlns:svg="http://www.w3.org/2000/svg">
  <defs
     id="defs12" />
  <sodipodi:namedview
     id="namedview10"
     pagecolor="#ffffff"
     bordercolor="#666666"
     borderopacity="1.0"
     inkscape:showpageshadow="2"
     inkscape:pageopacity="0.0"
     inkscape:pagecheckerboard="0"
     inkscape:deskcolor="#d1d1d1"
     showgrid="false"
     inkscape:zoom="34.541667"
     inkscape:cx="10.364294"
     inkscape:cy="12.014475"
     inkscape:window-width="1920"
     inkscape:window-height="1009"
     inkscape:window-x="1912"
     inkscape:window-y="-8"
     inkscape:window-maximized="1"
     inkscape:current-layer="svg8" />
  <g
     id="path2">
    <path
       style="color:#000000;fill:currentColor;stroke-width:1.5;stroke-linecap:round;stroke-linejoin:round;-inkscape-stroke:none"
       d="m 12,3 c 0.5523,0 1,-0.44772 1,-1 0,-0.55228 -0.4477,-1 -1,-1 -0.5523,0 -1,0.44772 -1,1 0,0.55228 0.4477,1 1,1 z"
       id="path199" />
    <path
       style="color:#000000;fill:currentColor;stroke-linecap:round;stroke-linejoin:round;-inkscape-stroke:none"
       d="m 12,0.25 c -0.957622,0 -1.75,0.7924012 -1.75,1.75 0,0.9575988 0.792378,1.75 1.75,1.75 0.957622,0 1.75,-0.7924012 1.75,-1.75 0,-0.9575988 -0.792378,-1.75 -1.75,-1.75 z m 0,1.5 c 0.146977,0 0.25,0.1030399 0.25,0.25 0,0.1469601 -0.103023,0.25 -0.25,0.25 -0.146977,0 -0.25,-0.1030399 -0.25,-0.25 0,-0.1469601 0.103023,-0.25 0.25,-0.25 z"
       id="path201" />
  </g>
  <path
     style="color:#000000;fill:currentColor;stroke-linecap:round;stroke-linejoin:round;-inkscape-stroke:none"
     d="M 12,1.25 C 7.0750628,1.25 3.25,6.1528921 3.25,12 c 0,5.847061 3.8250572,10.75 8.75,10.75 4.924961,0 8.75,-4.902941 8.75,-10.75 C 20.75,6.1528939 16.924955,1.25 12,1.25 Z m 0,1.5 c 3.911636,0 7.25,4.0514171 7.25,9.25 0,5.19853 -3.338369,9.25 -7.25,9.25 C 8.0883917,21.25 4.75,17.198528 4.75,12 4.75,6.8014189 8.088386,2.75 12,2.75 Z"
     id="path4" />
  <g
     id="path6">
    <path
       style="color:#000000;fill:currentColor;stroke-width:1.5;stroke-linecap:round;stroke-linejoin:round;-inkscape-stroke:none"
       d="m 12,23 c 0.5523,0 1,-0.4477 1,-1 0,-0.5523 -0.4477,-1 -1,-1 -0.5523,0 -1,0.4477 -1,1 0,0.5523 0.4477,1 1,1 z"
       id="path189" />
    <path
       style="color:#000000;fill:currentColor;stroke-linecap:round;stroke-linejoin:round;-inkscape-stroke:none"
       d="m 12,20.25 c -0.957604,0 -1.75,0.792396 -1.75,1.75 0,0.957604 0.792396,1.75 1.75,1.75 0.957604,0 1.75,-0.792396 1.75,-1.75 0,-0.957604 -0.792396,-1.75 -1.75,-1.75 z m 0,1.5 c 0.146995,0 0.25,0.103005 0.25,0.25 0,0.146995 -0.103005,0.25 -0.25,0.25 -0.146995,0 -0.25,-0.103005 -0.25,-0.25 0,-0.146995 0.103005,-0.25 0.25,-0.25 z"
       id="path191" />
  </g>
</svg>
