<?xml version="1.0" encoding="UTF-8" standalone="no"?>
<svg
   width="24"
   height="24"
   stroke-width="1.5"
   viewBox="0 0 24 24"
   fill="none"
   version="1.1"
   id="svg4"
   sodipodi:docname="emoji-talking-angry.svg"
   inkscape:version="1.2.1 (9c6d41e410, 2022-07-14)"
   xmlns:inkscape="http://www.inkscape.org/namespaces/inkscape"
   xmlns:sodipodi="http://sodipodi.sourceforge.net/DTD/sodipodi-0.dtd"
   xmlns="http://www.w3.org/2000/svg"
   xmlns:svg="http://www.w3.org/2000/svg">
  <defs
     id="defs8" />
  <sodipodi:namedview
     id="namedview6"
     pagecolor="#ffffff"
     bordercolor="#666666"
     borderopacity="1.0"
     inkscape:showpageshadow="2"
     inkscape:pageopacity="0.0"
     inkscape:pagecheckerboard="0"
     inkscape:deskcolor="#d1d1d1"
     showgrid="false"
     inkscape:zoom="34.541667"
     inkscape:cx="10.364294"
     inkscape:cy="12.014475"
     inkscape:window-width="1920"
     inkscape:window-height="1009"
     inkscape:window-x="1912"
     inkscape:window-y="-8"
     inkscape:window-maximized="1"
     inkscape:current-layer="svg4" />
  <path
     style="color:#000000;fill:currentColor;stroke-linecap:round;stroke-linejoin:round;-inkscape-stroke:none"
     d="M 12,1.25 C 6.0718263,1.25 1.25,6.0718263 1.25,12 1.25,17.928127 6.0718217,22.75 12,22.75 17.928132,22.75 22.75,17.928132 22.75,12 22.75,6.0718217 17.928127,1.25 12,1.25 Z m 0,1.5 c 5.117462,0 9.25,4.1324893 9.25,9.25 0,5.117457 -4.132543,9.25 -9.25,9.25 C 6.8824893,21.25 2.75,17.117462 2.75,12 2.75,6.8824848 6.8824848,2.75 12,2.75 Z M 8,8.25 A 0.75,0.75 0 0 0 7.25,9 0.75,0.75 0 0 0 8,9.75 h 2 A 0.75,0.75 0 0 0 10.75,9 0.75,0.75 0 0 0 10,8.25 Z m 6,0 A 0.75,0.75 0 0 0 13.25,9 0.75,0.75 0 0 0 14,9.75 h 2 A 0.75,0.75 0 0 0 16.75,9 0.75,0.75 0 0 0 16,8.25 Z m -2,4 c -1.008327,0 -1.788919,0.479082 -2.2089844,1.0625 C 9.3709506,13.895918 9.25,14.516658 9.25,15 v 3 A 0.750075,0.750075 0 0 0 10,18.75 h 4 A 0.750075,0.750075 0 0 0 14.75,18 v -3 c 0,-0.483342 -0.120951,-1.104082 -0.541016,-1.6875 C 13.788919,12.729082 13.008327,12.25 12,12.25 Z m 0,1.5 c 0.591671,0 0.812253,0.187594 0.992188,0.4375 C 13.172122,14.437406 13.25,14.816643 13.25,15 v 2.25 h -2.5 V 15 c 0,-0.183357 0.07788,-0.562594 0.257813,-0.8125 C 11.187747,13.937594 11.408329,13.75 12,13.75 Z"
     id="path2" />
</svg>
