<?xml version="1.0" encoding="UTF-8" standalone="no"?>
<svg
   width="24"
   height="24"
   stroke-width="1.5"
   viewBox="0 0 24 24"
   fill="none"
   version="1.1"
   id="svg14"
   sodipodi:docname="emoji-sing-right-note.svg"
   inkscape:version="1.3.1 (91b66b0783, 2023-11-16)"
   xmlns:inkscape="http://www.inkscape.org/namespaces/inkscape"
   xmlns:sodipodi="http://sodipodi.sourceforge.net/DTD/sodipodi-0.dtd"
   xmlns="http://www.w3.org/2000/svg"
   xmlns:svg="http://www.w3.org/2000/svg">
  <defs
     id="defs18" />
  <sodipodi:namedview
     id="namedview16"
     pagecolor="#ffffff"
     bordercolor="#666666"
     borderopacity="1.0"
     inkscape:showpageshadow="2"
     inkscape:pageopacity="0.0"
     inkscape:pagecheckerboard="0"
     inkscape:deskcolor="#d1d1d1"
     showgrid="false"
     inkscape:zoom="34.541667"
     inkscape:cx="10.349819"
     inkscape:cy="12.02895"
     inkscape:window-width="1920"
     inkscape:window-height="1009"
     inkscape:window-x="1912"
     inkscape:window-y="-8"
     inkscape:window-maximized="1"
     inkscape:current-layer="svg14" />
  <circle
     style="fill:#000000;stroke-width:2.27213;stroke-linecap:round;stroke-linejoin:round"
     id="circle1"
     cx="8.5"
     cy="8.5"
     r="1.25" />
  <circle
     style="fill:#000000;stroke-width:2.27213;stroke-linecap:round;stroke-linejoin:round"
     id="circle2"
     cx="15.5"
     cy="8.5"
     r="1.25" />
  <path
     id="path4-7"
     style="color:#000000;fill:currentColor;stroke-linecap:round;-inkscape-stroke:none"
     d="m 21.400391,2.25 c -0.736701,0 -1.34961,0.6129084 -1.34961,1.3496094 V 6.4570312 C 19.110902,6.3650531 18.25,7.1268207 18.25,8.0996094 18.25,9.003213 18.999074,9.75 19.900391,9.75 c 0.712776,0 1.648521,-0.571983 1.65039,-1.6503906 V 3.75 H 23 C 23.414214,3.75 23.75,3.4142136 23.75,3 23.75,2.5857864 23.414214,2.25 23,2.25 Z"
     sodipodi:nodetypes="sscssccssss" />
  <path
     style="color:#000000;fill:currentColor;stroke-linecap:round;stroke-linejoin:round;-inkscape-stroke:none"
     d="m 16,12.25 c -1.509904,0 -2.75,1.240096 -2.75,2.75 0,1.509904 1.240096,2.75 2.75,2.75 1.509904,0 2.75,-1.240096 2.75,-2.75 0,-1.509904 -1.240096,-2.75 -2.75,-2.75 z m 0,1.5 c 0.699294,0 1.25,0.550706 1.25,1.25 0,0.699294 -0.550706,1.25 -1.25,1.25 -0.699294,0 -1.25,-0.550706 -1.25,-1.25 0,-0.699294 0.550706,-1.25 1.25,-1.25 z"
     id="path6" />
  <path
     style="color:#000000;fill:currentColor;stroke-linecap:round;stroke-linejoin:round;-inkscape-stroke:none"
     d="M 12,1.25 C 6.0718263,1.25 1.25,6.0718263 1.25,12 c 0,5.928127 4.8218217,10.75 10.75,10.75 5.565861,0 10.158088,-4.244989 10.697266,-9.675781 a 0.75,0.75 0 0 0 -0.671875,-0.820313 0.75,0.75 0 0 0 -0.820313,0.671875 C 20.740857,17.601579 16.804729,21.25 12,21.25 6.8824893,21.25 2.75,17.117462 2.75,12 2.75,6.8824848 6.8824848,2.75 12,2.75 c 1.317818,0 2.56673,0.2747182 3.699219,0.7695313 A 0.75,0.75 0 0 0 16.6875,3.1328125 0.75,0.75 0 0 0 16.300781,2.1445313 C 14.983472,1.5689653 13.526579,1.25 12,1.25 Z"
     id="path8" />
</svg>
