<?xml version="1.0" encoding="UTF-8" standalone="no"?>
<svg
   width="24"
   height="24"
   stroke-width="1.5"
   viewBox="0 0 24 24"
   fill="none"
   version="1.1"
   id="svg14"
   sodipodi:docname="emoji-sing-left-note.svg"
   inkscape:version="1.3.1 (91b66b0783, 2023-11-16)"
   xmlns:inkscape="http://www.inkscape.org/namespaces/inkscape"
   xmlns:sodipodi="http://sodipodi.sourceforge.net/DTD/sodipodi-0.dtd"
   xmlns="http://www.w3.org/2000/svg"
   xmlns:svg="http://www.w3.org/2000/svg">
  <defs
     id="defs18" />
  <sodipodi:namedview
     id="namedview16"
     pagecolor="#ffffff"
     bordercolor="#666666"
     borderopacity="1.0"
     inkscape:showpageshadow="2"
     inkscape:pageopacity="0.0"
     inkscape:pagecheckerboard="0"
     inkscape:deskcolor="#d1d1d1"
     showgrid="false"
     inkscape:zoom="48.849294"
     inkscape:cx="5.1484879"
     inkscape:cy="6.6838223"
     inkscape:window-width="1920"
     inkscape:window-height="1009"
     inkscape:window-x="-8"
     inkscape:window-y="-8"
     inkscape:window-maximized="1"
     inkscape:current-layer="svg14" />
  <circle
     style="fill:#000000;stroke-width:2.27213;stroke-linecap:round;stroke-linejoin:round"
     id="circle1"
     cx="15.5"
     cy="8.5"
     r="1.25" />
  <circle
     style="fill:#000000;stroke-width:2.27213;stroke-linecap:round;stroke-linejoin:round"
     id="path1"
     cx="8.5"
     cy="8.5"
     r="1.25" />
  <path
     style="color:#000000;fill:currentColor;stroke-linecap:round;stroke-linejoin:round;-inkscape-stroke:none"
     d="m 8,12.25 c -1.5098846,0 -2.75,1.240083 -2.75,2.75 0,1.509917 1.2401154,2.75 2.75,2.75 1.5098846,0 2.75,-1.240083 2.75,-2.75 0,-1.509917 -1.2401154,-2.75 -2.75,-2.75 z m 0,1.5 c 0.6992532,0 1.25,0.550719 1.25,1.25 0,0.699281 -0.5507468,1.25 -1.25,1.25 -0.6992532,0 -1.25,-0.550719 -1.25,-1.25 0,-0.699281 0.5507468,-1.25 1.25,-1.25 z"
     id="path6" />
  <path
     style="color:#000000;fill:currentColor;stroke-linecap:round;stroke-linejoin:round;-inkscape-stroke:none"
     d="m 12,1.25 c -1.526579,0 -2.9834586,0.3189689 -4.3007813,0.8945313 A 0.75,0.75 0 0 0 7.3125,3.1328125 0.75,0.75 0 0 0 8.3007813,3.5195313 C 9.4332962,3.0247147 10.682182,2.75 12,2.75 c 5.117462,0 9.25,4.1324893 9.25,9.25 0,5.117457 -4.132543,9.25 -9.25,9.25 -4.8047826,0 -8.740838,-3.648414 -9.2050781,-8.324219 A 0.75,0.75 0 0 0 1.9746094,12.253906 0.75,0.75 0 0 0 1.3027344,13.074219 C 1.8419332,18.505004 6.434093,22.75 12,22.75 17.928132,22.75 22.75,17.928132 22.75,12 22.75,6.0718217 17.928127,1.25 12,1.25 Z"
     id="path8" />
  <path
     id="path4"
     style="color:#000000;fill:currentColor;stroke-linecap:round;-inkscape-stroke:none"
     d="M 3.4003906,2.25 C 2.6636898,2.25 2.0507812,2.8629084 2.0507812,3.5996094 V 6.4570312 C 1.110902,6.3650531 0.25,7.1268207 0.25,8.0996094 0.25,9.0032134 0.99907396,9.75 1.9003906,9.75 2.6131675,9.75 3.548912,9.1780166 3.5507812,8.0996094 V 3.75 H 5 C 5.4142136,3.75 5.75,3.4142136 5.75,3 5.75,2.5857864 5.4142136,2.25 5,2.25 Z"
     sodipodi:nodetypes="sscssccssss" />
</svg>
