<?xml version="1.0" encoding="UTF-8" standalone="no"?>
<svg
   width="24"
   height="24"
   stroke-width="1.5"
   viewBox="0 0 24 24"
   fill="none"
   version="1.1"
   id="svg6"
   sodipodi:docname="enlarge.svg"
   inkscape:version="1.2.1 (9c6d41e410, 2022-07-14)"
   xmlns:inkscape="http://www.inkscape.org/namespaces/inkscape"
   xmlns:sodipodi="http://sodipodi.sourceforge.net/DTD/sodipodi-0.dtd"
   xmlns="http://www.w3.org/2000/svg"
   xmlns:svg="http://www.w3.org/2000/svg">
  <defs
     id="defs10" />
  <sodipodi:namedview
     id="namedview8"
     pagecolor="#ffffff"
     bordercolor="#666666"
     borderopacity="1.0"
     inkscape:showpageshadow="2"
     inkscape:pageopacity="0.0"
     inkscape:pagecheckerboard="0"
     inkscape:deskcolor="#d1d1d1"
     showgrid="false"
     inkscape:zoom="34.541667"
     inkscape:cx="10.364294"
     inkscape:cy="12.014475"
     inkscape:window-width="1920"
     inkscape:window-height="1009"
     inkscape:window-x="1912"
     inkscape:window-y="-8"
     inkscape:window-maximized="1"
     inkscape:current-layer="svg6" />
  <path
     style="color:#000000;fill:currentColor;stroke-linecap:round;stroke-linejoin:round;-inkscape-stroke:none"
     d="M 16,3.25 A 0.75,0.75 0 0 0 15.25,4 0.75,0.75 0 0 0 16,4.75 h 2.1875 l -3.71875,3.71875 a 0.75,0.75 0 0 0 0,1.0625 0.75,0.75 0 0 0 1.0625,0 L 19.25,5.8125 V 8 A 0.75,0.75 0 0 0 20,8.75 0.75,0.75 0 0 0 20.75,8 V 4 A 0.75,0.75 0 0 0 20.53125,3.46875 0.75,0.75 0 0 0 20.287109,3.3066406 0.75,0.75 0 0 0 20,3.25 Z"
     id="path2" />
  <path
     style="color:#000000;fill:currentColor;stroke-linecap:round;stroke-linejoin:round;-inkscape-stroke:none"
     d="M 9,14.25 A 0.75,0.75 0 0 0 8.46875,14.46875 L 4.75,18.1875 V 16 A 0.75,0.75 0 0 0 4,15.25 0.75,0.75 0 0 0 3.25,16 v 4 A 0.75,0.75 0 0 0 3.46875,20.53125 0.75,0.75 0 0 0 4,20.75 H 8 A 0.75,0.75 0 0 0 8.75,20 0.75,0.75 0 0 0 8,19.25 H 5.8125 l 3.71875,-3.71875 a 0.75,0.75 0 0 0 0,-1.0625 A 0.75,0.75 0 0 0 9,14.25 Z"
     id="path4" />
</svg>
