<?xml version="1.0" encoding="UTF-8" standalone="no"?>
<svg
   width="24"
   height="24"
   viewBox="0 0 24 24"
   stroke-width="1.5"
   fill="none"
   version="1.1"
   id="svg6"
   sodipodi:docname="ethereum-circle.svg"
   inkscape:version="1.2.1 (9c6d41e410, 2022-07-14)"
   xmlns:inkscape="http://www.inkscape.org/namespaces/inkscape"
   xmlns:sodipodi="http://sodipodi.sourceforge.net/DTD/sodipodi-0.dtd"
   xmlns="http://www.w3.org/2000/svg"
   xmlns:svg="http://www.w3.org/2000/svg">
  <defs
     id="defs10" />
  <sodipodi:namedview
     id="namedview8"
     pagecolor="#ffffff"
     bordercolor="#666666"
     borderopacity="1.0"
     inkscape:showpageshadow="2"
     inkscape:pageopacity="0.0"
     inkscape:pagecheckerboard="0"
     inkscape:deskcolor="#d1d1d1"
     showgrid="false"
     inkscape:zoom="34.541667"
     inkscape:cx="10.364294"
     inkscape:cy="12.014475"
     inkscape:window-width="1920"
     inkscape:window-height="1009"
     inkscape:window-x="1912"
     inkscape:window-y="-8"
     inkscape:window-maximized="1"
     inkscape:current-layer="svg6" />
  <path
     style="color:#000000;fill:currentColor;stroke-linecap:round;stroke-linejoin:round;-inkscape-stroke:none"
     d="m 12,4.25 a 0.75,0.75 0 0 0 -0.06055,0.025391 0.75,0.75 0 0 0 -0.208984,0.076172 0.75,0.75 0 0 0 -0.166016,0.039063 0.75,0.75 0 0 0 -0.0078,0.041016 0.75,0.75 0 0 0 -0.113282,0.099609 0.75,0.75 0 0 0 -0.05273,0.033203 l -5,6.9999999 a 0.75,0.75 0 0 0 -0.035156,0.152344 0.75,0.75 0 0 0 -0.091797,0.136719 0.75,0.75 0 0 0 0.00586,0.0078 A 0.75,0.75 0 0 0 6.2890625,12 a 0.75,0.75 0 0 0 0.0625,0.269531 0.75,0.75 0 0 0 0.039063,0.166016 l 5,7 a 0.750075,0.750075 0 0 0 1.21875,0 l 5,-7 a 0.75,0.75 0 0 0 0.002,-0.0059 0.75,0.75 0 0 0 0.04297,-0.08399 0.75,0.75 0 0 0 0.03906,-0.0957 0.75,0.75 0 0 0 0.04297,-0.152344 0.75,0.75 0 0 0 0,-0.08594 0.75,0.75 0 0 0 0,-0.02344 0.75,0.75 0 0 0 0,-0.08594 0.75,0.75 0 0 0 0,-0.04883 0.75,0.75 0 0 0 -0.03516,-0.05078 0.75,0.75 0 0 0 -0.06641,-0.173828 0.75,0.75 0 0 0 -0.02539,-0.06445 l -4.972656,-6.9609374 -0.02734,-0.039063 a 0.75,0.75 0 0 0 -0.02344,-0.015625 0.75,0.75 0 0 0 -0.0039,-0.00195 0.75,0.75 0 0 0 -0.109375,-0.1171875 0.75,0.75 0 0 0 -0.03711,-0.039063 0.75,0.75 0 0 0 -0.0332,-0.00781 A 0.75,0.75 0 0 0 12.15625,4.28125 0.75,0.75 0 0 0 12.089844,4.2675781 0.75,0.75 0 0 0 12,4.25 Z m -0.75,3.0878906 v 4.7460934 l -2.9667969,-0.59375 z m 1.5,0 2.966797,4.1523434 -2.966797,0.59375 z m -4.0390625,5.7695314 3.1425785,0.628906 a 0.75,0.75 0 0 0 0.07617,-0.01563 A 0.75,0.75 0 0 0 12,13.75 a 0.75,0.75 0 0 0 0.07031,-0.0293 0.75,0.75 0 0 0 0.07617,0.01563 L 15.289063,13.107422 12,17.710937 Z"
     id="path2" />
  <path
     style="color:#000000;fill:currentColor;stroke-linecap:round;stroke-linejoin:round;-inkscape-stroke:none"
     d="M 12,1.25 C 6.0718263,1.25 1.25,6.0718263 1.25,12 1.25,17.928127 6.0718217,22.75 12,22.75 17.928132,22.75 22.75,17.928132 22.75,12 22.75,6.0718217 17.928127,1.25 12,1.25 Z m 0,1.5 c 5.117462,0 9.25,4.1324893 9.25,9.25 0,5.117457 -4.132543,9.25 -9.25,9.25 C 6.8824893,21.25 2.75,17.117462 2.75,12 2.75,6.8824848 6.8824848,2.75 12,2.75 Z"
     id="path4" />
</svg>
