<?xml version="1.0" encoding="UTF-8" standalone="no"?>
<svg
   width="24"
   height="24"
   stroke-width="1.5"
   viewBox="0 0 24 24"
   fill="none"
   version="1.1"
   id="svg10"
   sodipodi:docname="euro-square.svg"
   inkscape:version="1.2.1 (9c6d41e410, 2022-07-14)"
   xmlns:inkscape="http://www.inkscape.org/namespaces/inkscape"
   xmlns:sodipodi="http://sodipodi.sourceforge.net/DTD/sodipodi-0.dtd"
   xmlns="http://www.w3.org/2000/svg"
   xmlns:svg="http://www.w3.org/2000/svg">
  <defs
     id="defs14" />
  <sodipodi:namedview
     id="namedview12"
     pagecolor="#ffffff"
     bordercolor="#666666"
     borderopacity="1.0"
     inkscape:showpageshadow="2"
     inkscape:pageopacity="0.0"
     inkscape:pagecheckerboard="0"
     inkscape:deskcolor="#d1d1d1"
     showgrid="false"
     inkscape:zoom="34.541667"
     inkscape:cx="10.364294"
     inkscape:cy="12.014475"
     inkscape:window-width="1920"
     inkscape:window-height="1009"
     inkscape:window-x="1912"
     inkscape:window-y="-8"
     inkscape:window-maximized="1"
     inkscape:current-layer="svg10" />
  <path
     style="color:#000000;fill:currentColor;-inkscape-stroke:none"
     d="M 3.5996094,2.25 C 2.8629077,2.25 2.25,2.8629077 2.25,3.5996094 V 20.400391 C 2.25,21.137086 2.862953,21.75 3.5996094,21.75 H 20.400391 C 21.13704,21.75 21.75,21.13704 21.75,20.400391 V 3.5996094 C 21.75,2.862953 21.137086,2.25 20.400391,2.25 Z M 3.75,3.75 h 16.5 v 16.5 H 3.75 Z"
     id="path2" />
  <path
     style="color:#000000;fill:currentColor;stroke-linecap:round;stroke-linejoin:round;-inkscape-stroke:none"
     d="M 13.869141,6.25 C 10.763558,6.25 8.25,8.8438225 8.25,12 c 0,3.15616 2.513554,5.75 5.619141,5.75 0.882258,0 1.722739,-0.209829 2.466796,-0.582031 a 0.75,0.75 0 0 0 0.333985,-1.00586 0.75,0.75 0 0 0 -1.005859,-0.335937 C 15.121121,16.097769 14.514881,16.25 13.869141,16.25 11.595932,16.25 9.75,14.366634 9.75,12 c 0,-2.366657 1.845929,-4.25 4.119141,-4.25 0.645766,0 1.252042,0.1521858 1.794922,0.4238281 A 0.75,0.75 0 0 0 16.669922,7.8378906 0.75,0.75 0 0 0 16.335937,6.8320312 C 15.591818,6.4596942 14.751373,6.25 13.869141,6.25 Z"
     id="path4" />
  <path
     style="color:#000000;fill:currentColor;stroke-linecap:round;stroke-linejoin:round;-inkscape-stroke:none"
     d="M 8,10.25 A 0.75,0.75 0 0 0 7.25,11 0.75,0.75 0 0 0 8,11.75 h 6 A 0.75,0.75 0 0 0 14.75,11 0.75,0.75 0 0 0 14,10.25 Z"
     id="path6" />
  <path
     style="color:#000000;fill:currentColor;stroke-linecap:round;stroke-linejoin:round;-inkscape-stroke:none"
     d="M 8,12.25 A 0.75,0.75 0 0 0 7.25,13 0.75,0.75 0 0 0 8,13.75 h 6 A 0.75,0.75 0 0 0 14.75,13 0.75,0.75 0 0 0 14,12.25 Z"
     id="path8" />
</svg>
