<?xml version="1.0" encoding="UTF-8" standalone="no"?>
<svg
   width="24"
   height="24"
   stroke-width="1.5"
   viewBox="0 0 24 24"
   fill="none"
   version="1.1"
   id="svg12"
   sodipodi:docname="ev-charge.svg"
   inkscape:version="1.2.1 (9c6d41e410, 2022-07-14)"
   xmlns:inkscape="http://www.inkscape.org/namespaces/inkscape"
   xmlns:sodipodi="http://sodipodi.sourceforge.net/DTD/sodipodi-0.dtd"
   xmlns="http://www.w3.org/2000/svg"
   xmlns:svg="http://www.w3.org/2000/svg">
  <defs
     id="defs16" />
  <sodipodi:namedview
     id="namedview14"
     pagecolor="#ffffff"
     bordercolor="#666666"
     borderopacity="1.0"
     inkscape:showpageshadow="2"
     inkscape:pageopacity="0.0"
     inkscape:pagecheckerboard="0"
     inkscape:deskcolor="#d1d1d1"
     showgrid="false"
     inkscape:zoom="34.541667"
     inkscape:cx="10.364294"
     inkscape:cy="12.014475"
     inkscape:window-width="1920"
     inkscape:window-height="1009"
     inkscape:window-x="1912"
     inkscape:window-y="-8"
     inkscape:window-maximized="1"
     inkscape:current-layer="svg12" />
  <path
     style="color:#000000;fill:currentColor;stroke-linecap:round;-inkscape-stroke:none"
     d="M 6,8.25 A 0.75,0.75 0 0 0 5.25,9 v 10 c 0,1.509917 1.2401154,2.75 2.75,2.75 h 9 c 1.509904,0 2.75,-1.240096 2.75,-2.75 V 14 A 0.75,0.75 0 0 0 19,13.25 0.75,0.75 0 0 0 18.25,14 v 5 c 0,0.699294 -0.550706,1.25 -1.25,1.25 H 8 C 7.3007468,20.25 6.75,19.699281 6.75,19 V 9 A 0.75,0.75 0 0 0 6,8.25 Z"
     id="path2" />
  <path
     style="color:#000000;fill:currentColor;stroke-linecap:round;-inkscape-stroke:none"
     d="M 3.5996094,4.25 C 2.8629077,4.25 2.25,4.8629077 2.25,5.5996094 V 7 C 2.25,8.5098982 3.4901018,9.75 5,9.75 H 7 C 8.5098982,9.75 9.75,8.5098982 9.75,7 V 5.5996094 C 9.75,4.8629077 9.1370923,4.25 8.4003906,4.25 Z M 3.75,5.75 h 4.5 V 7 C 8.25,7.6992396 7.6992396,8.25 7,8.25 H 5 C 4.3007604,8.25 3.75,7.6992396 3.75,7 Z"
     id="path4" />
  <path
     style="color:#000000;fill:currentColor;stroke-linecap:round;-inkscape-stroke:none"
     d="M 4,2.25 A 0.75,0.75 0 0 0 3.25,3 V 5 A 0.75,0.75 0 0 0 4,5.75 0.75,0.75 0 0 0 4.75,5 V 3 A 0.75,0.75 0 0 0 4,2.25 Z"
     id="path6" />
  <path
     style="color:#000000;fill:currentColor;stroke-linecap:round;-inkscape-stroke:none"
     d="M 8,2.25 A 0.75,0.75 0 0 0 7.25,3 V 5 A 0.75,0.75 0 0 0 8,5.75 0.75,0.75 0 0 0 8.75,5 V 3 A 0.75,0.75 0 0 0 8,2.25 Z"
     id="path8" />
  <path
     style="color:#000000;fill:currentColor;stroke-linecap:round;stroke-linejoin:round;-inkscape-stroke:none"
     d="M 18.53125,3.34375 A 0.75,0.75 0 0 0 17.511719,3.6367188 L 15.84375,6.6367187 A 0.750075,0.750075 0 0 0 16.5,7.75 h 2.724609 L 18.177734,9.6367188 A 0.75,0.75 0 0 0 18.46875,10.65625 0.75,0.75 0 0 0 19.488281,10.363281 L 21.15625,7.3632812 A 0.750075,0.750075 0 0 0 20.5,6.25 H 17.775391 L 18.822266,4.3632812 A 0.75,0.75 0 0 0 18.53125,3.34375 Z"
     id="path10" />
</svg>
