<?xml version="1.0" encoding="UTF-8" standalone="no"?>
<svg
   width="24"
   height="24"
   stroke-width="1.5"
   viewBox="0 0 24 24"
   fill="none"
   version="1.1"
   id="svg10"
   sodipodi:docname="ev-plug.svg"
   inkscape:version="1.2.1 (9c6d41e410, 2022-07-14)"
   xmlns:inkscape="http://www.inkscape.org/namespaces/inkscape"
   xmlns:sodipodi="http://sodipodi.sourceforge.net/DTD/sodipodi-0.dtd"
   xmlns="http://www.w3.org/2000/svg"
   xmlns:svg="http://www.w3.org/2000/svg">
  <defs
     id="defs14" />
  <sodipodi:namedview
     id="namedview12"
     pagecolor="#ffffff"
     bordercolor="#666666"
     borderopacity="1.0"
     inkscape:showpageshadow="2"
     inkscape:pageopacity="0.0"
     inkscape:pagecheckerboard="0"
     inkscape:deskcolor="#d1d1d1"
     showgrid="false"
     inkscape:zoom="34.541667"
     inkscape:cx="10.364294"
     inkscape:cy="12.014475"
     inkscape:window-width="1920"
     inkscape:window-height="1009"
     inkscape:window-x="1912"
     inkscape:window-y="-8"
     inkscape:window-maximized="1"
     inkscape:current-layer="svg10" />
  <path
     style="color:#000000;fill:currentColor;stroke-linecap:round;-inkscape-stroke:none"
     d="m 12,12.404297 a 0.75,0.75 0 0 0 -0.75,0.75 V 21 A 0.75,0.75 0 0 0 12,21.75 0.75,0.75 0 0 0 12.75,21 v -7.845703 a 0.75,0.75 0 0 0 -0.75,-0.75 z"
     id="path2" />
  <path
     style="color:#000000;fill:currentColor;stroke-linecap:round;-inkscape-stroke:none"
     d="m 9,5.6347656 c -1.5098982,0 -2.75,1.2401019 -2.75,2.75 v 2.7695314 c 0,1.509854 1.2400701,2.75 2.75,2.75 h 6 c 1.509949,0 2.75,-1.24016 2.75,-2.75 V 8.3847656 c 0,-1.5098846 -1.240083,-2.75 -2.75,-2.75 z m 0,1.5 h 6 c 0.699281,0 1.25,0.5507468 1.25,1.25 v 2.7695314 c 0,0.699157 -0.550751,1.25 -1.25,1.25 H 9 c -0.6992079,0 -1.25,-0.550856 -1.25,-1.25 V 8.3847656 c 0,-0.6992396 0.5507604,-1.25 1.25,-1.25 z"
     id="path4" />
  <path
     style="color:#000000;fill:currentColor;stroke-linecap:round;-inkscape-stroke:none"
     d="m 15.333984,2.25 a 0.75,0.75 0 0 0 -0.75,0.75 v 3.3847656 a 0.75,0.75 0 0 0 0.75,0.75 0.75,0.75 0 0 0 0.75,-0.75 V 3 a 0.75,0.75 0 0 0 -0.75,-0.75 z"
     id="path6" />
  <path
     style="color:#000000;fill:currentColor;stroke-linecap:round;-inkscape-stroke:none"
     d="m 8.6660156,2.25 a 0.75,0.75 0 0 0 -0.75,0.75 v 3.3847656 a 0.75,0.75 0 0 0 0.75,0.75 0.75,0.75 0 0 0 0.75,-0.75 V 3 a 0.75,0.75 0 0 0 -0.75,-0.75 z"
     id="path8" />
</svg>
