<?xml version="1.0" encoding="UTF-8" standalone="no"?>
<svg
   width="24"
   height="24"
   stroke-width="1.5"
   viewBox="0 0 24 24"
   fill="none"
   version="1.1"
   id="svg12"
   sodipodi:docname="ev-plug-charging.svg"
   inkscape:version="1.2.1 (9c6d41e410, 2022-07-14)"
   xmlns:inkscape="http://www.inkscape.org/namespaces/inkscape"
   xmlns:sodipodi="http://sodipodi.sourceforge.net/DTD/sodipodi-0.dtd"
   xmlns="http://www.w3.org/2000/svg"
   xmlns:svg="http://www.w3.org/2000/svg">
  <defs
     id="defs16" />
  <sodipodi:namedview
     id="namedview14"
     pagecolor="#ffffff"
     bordercolor="#666666"
     borderopacity="1.0"
     inkscape:showpageshadow="2"
     inkscape:pageopacity="0.0"
     inkscape:pagecheckerboard="0"
     inkscape:deskcolor="#d1d1d1"
     showgrid="false"
     inkscape:zoom="34.541667"
     inkscape:cx="10.364294"
     inkscape:cy="12.014475"
     inkscape:window-width="1920"
     inkscape:window-height="1009"
     inkscape:window-x="1912"
     inkscape:window-y="-8"
     inkscape:window-maximized="1"
     inkscape:current-layer="svg12" />
  <path
     style="color:#000000;fill:currentColor;stroke-linecap:round;-inkscape-stroke:none"
     d="m 10,12.404297 a 0.75,0.75 0 0 0 -0.75,0.75 V 21 A 0.75,0.75 0 0 0 10,21.75 0.75,0.75 0 0 0 10.75,21 v -7.845703 a 0.75,0.75 0 0 0 -0.75,-0.75 z"
     id="path2" />
  <path
     style="color:#000000;fill:currentColor;stroke-linecap:round;-inkscape-stroke:none"
     d="m 7,5.6347656 c -1.5098982,0 -2.75,1.2401019 -2.75,2.75 v 2.7695314 c 0,1.509854 1.2400701,2.75 2.75,2.75 h 6 c 1.509949,0 2.75,-1.24016 2.75,-2.75 V 8.3847656 c 0,-1.5098846 -1.240083,-2.75 -2.75,-2.75 z m 0,1.5 h 6 c 0.699281,0 1.25,0.5507468 1.25,1.25 v 2.7695314 c 0,0.699157 -0.550751,1.25 -1.25,1.25 H 7 c -0.6992079,0 -1.25,-0.550856 -1.25,-1.25 V 8.3847656 c 0,-0.6992396 0.5507604,-1.25 1.25,-1.25 z"
     id="path4" />
  <path
     style="color:#000000;fill:currentColor;stroke-linecap:round;-inkscape-stroke:none"
     d="m 13.333984,2.25 a 0.75,0.75 0 0 0 -0.75,0.75 v 3.3847656 a 0.75,0.75 0 0 0 0.75,0.75 0.75,0.75 0 0 0 0.75,-0.75 V 3 a 0.75,0.75 0 0 0 -0.75,-0.75 z"
     id="path6" />
  <path
     style="color:#000000;fill:currentColor;stroke-linecap:round;-inkscape-stroke:none"
     d="m 6.6660156,2.25 a 0.75,0.75 0 0 0 -0.75,0.75 v 3.3847656 a 0.75,0.75 0 0 0 0.75,0.75 0.75,0.75 0 0 0 0.75,-0.75 V 3 a 0.75,0.75 0 0 0 -0.75,-0.75 z"
     id="path8" />
  <path
     style="color:#000000;fill:currentColor;stroke-linecap:round;stroke-linejoin:round;-inkscape-stroke:none"
     d="m 17.03125,15.34375 a 0.75,0.75 0 0 0 -1.019531,0.292969 l -1.667969,3 A 0.750075,0.750075 0 0 0 15,19.75 h 2.724609 l -1.046875,1.886719 a 0.75,0.75 0 0 0 0.291016,1.019531 0.75,0.75 0 0 0 1.019531,-0.292969 l 1.667969,-3 A 0.750075,0.750075 0 0 0 19,18.25 h -2.724609 l 1.046875,-1.886719 A 0.75,0.75 0 0 0 17.03125,15.34375 Z"
     id="path10" />
</svg>
