<?xml version="1.0" encoding="UTF-8" standalone="no"?>
<svg
   width="24"
   height="24"
   stroke-width="1.5"
   viewBox="0 0 24 24"
   fill="none"
   version="1.1"
   id="svg10"
   sodipodi:docname="ev-station.svg"
   inkscape:version="1.2.1 (9c6d41e410, 2022-07-14)"
   xmlns:inkscape="http://www.inkscape.org/namespaces/inkscape"
   xmlns:sodipodi="http://sodipodi.sourceforge.net/DTD/sodipodi-0.dtd"
   xmlns="http://www.w3.org/2000/svg"
   xmlns:svg="http://www.w3.org/2000/svg">
  <defs
     id="defs14" />
  <sodipodi:namedview
     id="namedview12"
     pagecolor="#ffffff"
     bordercolor="#666666"
     borderopacity="1.0"
     inkscape:showpageshadow="2"
     inkscape:pageopacity="0.0"
     inkscape:pagecheckerboard="0"
     inkscape:deskcolor="#d1d1d1"
     showgrid="false"
     inkscape:zoom="34.541667"
     inkscape:cx="10.364294"
     inkscape:cy="12.014475"
     inkscape:window-width="1920"
     inkscape:window-height="1009"
     inkscape:window-x="1912"
     inkscape:window-y="-8"
     inkscape:window-maximized="1"
     inkscape:current-layer="svg10" />
  <path
     style="color:#000000;fill:currentColor;stroke-linecap:round;stroke-linejoin:round;-inkscape-stroke:none"
     d="M 21,4.25 A 0.75,0.75 0 0 0 20.25,5 V 9 A 0.75,0.75 0 0 0 21,9.75 0.75,0.75 0 0 0 21.75,9 V 5 A 0.75,0.75 0 0 0 21,4.25 Z"
     id="path2" />
  <path
     style="color:#000000;fill:currentColor;-inkscape-stroke:none"
     d="M 7,6.25 C 5.4901018,6.25 4.25,7.4901018 4.25,9 v 10 c 0,1.509917 1.2401154,2.75 2.75,2.75 h 9 c 1.509904,0 2.75,-1.240096 2.75,-2.75 V 9 C 18.75,7.4901154 17.509917,6.25 16,6.25 Z m 0,1.5 h 9 c 0.699281,0 1.25,0.5507468 1.25,1.25 v 10 c 0,0.699294 -0.550706,1.25 -1.25,1.25 H 7 C 6.3007468,20.25 5.75,19.699281 5.75,19 V 9 C 5.75,8.3007604 6.3007604,7.75 7,7.75 Z"
     id="path4" />
  <path
     style="color:#000000;fill:currentColor;-inkscape-stroke:none"
     d="M 7,2.25 C 5.4901018,2.25 4.25,3.4901018 4.25,5 v 5 h 1.5 V 5 C 5.75,4.3007604 6.3007604,3.75 7,3.75 h 9 c 0.699281,0 1.25,0.5507468 1.25,1.25 v 5 h 1.5 V 5 C 18.75,3.4901154 17.509917,2.25 16,2.25 Z"
     id="path6" />
  <path
     style="color:#000000;fill:currentColor;stroke-linecap:round;stroke-linejoin:round;-inkscape-stroke:none"
     d="m 10.960938,10.279297 a 0.75,0.75 0 0 0 -0.449219,0.357422 l -1.667969,3 A 0.750075,0.750075 0 0 0 9.5,14.75 h 2.724609 l -1.046875,1.886719 a 0.75,0.75 0 0 0 0.291016,1.019531 0.75,0.75 0 0 0 1.019531,-0.292969 l 1.667969,-3 A 0.750075,0.750075 0 0 0 13.5,13.25 h -2.724609 l 1.046875,-1.886719 A 0.75,0.75 0 0 0 11.53125,10.34375 0.75,0.75 0 0 0 10.960938,10.279297 Z"
     id="path8" />
</svg>
