<?xml version="1.0" encoding="UTF-8" standalone="no"?>
<svg
   width="24"
   height="24"
   stroke-width="1.5"
   viewBox="0 0 24 24"
   fill="none"
   version="1.1"
   id="svg10"
   sodipodi:docname="expand-lines.svg"
   inkscape:version="1.2.1 (9c6d41e410, 2022-07-14)"
   xmlns:inkscape="http://www.inkscape.org/namespaces/inkscape"
   xmlns:sodipodi="http://sodipodi.sourceforge.net/DTD/sodipodi-0.dtd"
   xmlns="http://www.w3.org/2000/svg"
   xmlns:svg="http://www.w3.org/2000/svg">
  <defs
     id="defs14" />
  <sodipodi:namedview
     id="namedview12"
     pagecolor="#ffffff"
     bordercolor="#666666"
     borderopacity="1.0"
     inkscape:showpageshadow="2"
     inkscape:pageopacity="0.0"
     inkscape:pagecheckerboard="0"
     inkscape:deskcolor="#d1d1d1"
     showgrid="false"
     inkscape:zoom="34.541667"
     inkscape:cx="10.364294"
     inkscape:cy="12.014475"
     inkscape:window-width="1920"
     inkscape:window-height="1009"
     inkscape:window-x="1912"
     inkscape:window-y="-8"
     inkscape:window-maximized="1"
     inkscape:current-layer="svg10" />
  <path
     style="color:#000000;fill:currentColor;stroke-linecap:round;stroke-linejoin:round;-inkscape-stroke:none"
     d="M 6,1.25 A 0.75,0.75 0 0 0 5.25,2 0.75,0.75 0 0 0 6,2.75 H 18 A 0.75,0.75 0 0 0 18.75,2 0.75,0.75 0 0 0 18,1.25 Z"
     id="path2" />
  <path
     style="color:#000000;fill:currentColor;stroke-linecap:round;stroke-linejoin:round;-inkscape-stroke:none"
     d="M 6,21.25 A 0.75,0.75 0 0 0 5.25,22 0.75,0.75 0 0 0 6,22.75 H 18 A 0.75,0.75 0 0 0 18.75,22 0.75,0.75 0 0 0 18,21.25 Z"
     id="path4" />
  <path
     style="color:#000000;fill:currentColor;stroke-linecap:round;stroke-linejoin:round;-inkscape-stroke:none"
     d="M 12,13.25 A 0.75,0.75 0 0 0 11.25,14 v 3.1875 L 9.53125,15.46875 a 0.75,0.75 0 0 0 -1.0625,0 0.75,0.75 0 0 0 0,1.0625 l 3,3 a 0.75,0.75 0 0 0 1.0625,0 l 3,-3 a 0.75,0.75 0 0 0 0,-1.0625 0.75,0.75 0 0 0 -1.0625,0 L 12.75,17.1875 V 14 A 0.75,0.75 0 0 0 12,13.25 Z"
     id="path6" />
  <path
     style="color:#000000;fill:currentColor;stroke-linecap:round;stroke-linejoin:round;-inkscape-stroke:none"
     d="m 12,4.25 a 0.75,0.75 0 0 0 -0.53125,0.21875 l -3,3 a 0.75,0.75 0 0 0 0,1.0625 0.75,0.75 0 0 0 1.0625,0 L 11.25,6.8125 V 10 A 0.75,0.75 0 0 0 12,10.75 0.75,0.75 0 0 0 12.75,10 V 6.8125 l 1.71875,1.71875 a 0.75,0.75 0 0 0 1.0625,0 0.75,0.75 0 0 0 0,-1.0625 l -3,-3 A 0.75,0.75 0 0 0 12,4.25 Z"
     id="path8" />
</svg>
