<?xml version="1.0" encoding="UTF-8" standalone="no"?>
<svg
   width="24"
   height="24"
   viewBox="0 0 24 24"
   stroke-width="1.5"
   fill="none"
   version="1.1"
   id="svg10"
   sodipodi:docname="extrude.svg"
   inkscape:version="1.2.1 (9c6d41e410, 2022-07-14)"
   xmlns:inkscape="http://www.inkscape.org/namespaces/inkscape"
   xmlns:sodipodi="http://sodipodi.sourceforge.net/DTD/sodipodi-0.dtd"
   xmlns="http://www.w3.org/2000/svg"
   xmlns:svg="http://www.w3.org/2000/svg">
  <defs
     id="defs14" />
  <sodipodi:namedview
     id="namedview12"
     pagecolor="#ffffff"
     bordercolor="#666666"
     borderopacity="1.0"
     inkscape:showpageshadow="2"
     inkscape:pageopacity="0.0"
     inkscape:pagecheckerboard="0"
     inkscape:deskcolor="#d1d1d1"
     showgrid="false"
     inkscape:zoom="34.541667"
     inkscape:cx="10.364294"
     inkscape:cy="12.014475"
     inkscape:window-width="1920"
     inkscape:window-height="1009"
     inkscape:window-x="1912"
     inkscape:window-y="-8"
     inkscape:window-maximized="1"
     inkscape:current-layer="svg10" />
  <path
     style="color:#000000;fill:currentColor;stroke-linecap:round;stroke-linejoin:round;-inkscape-stroke:none"
     d="M 11.34375,6.5058594 2.9453125,11.173828 a 0.750075,0.750075 0 0 0 -0.00195,0 C 2.516257,11.411282 2.25,11.864528 2.25,12.353516 v 4.292968 c 0,0.488988 0.2662695,0.942229 0.6933594,1.179688 a 0.750075,0.750075 0 0 0 0.00195,0 l 8.3984375,4.667969 c 0.406915,0.226138 0.905585,0.226138 1.3125,0 l 8.398437,-4.667969 a 0.750075,0.750075 0 0 0 0.002,0 C 21.483807,17.588708 21.75,17.13538 21.75,16.646484 v -4.292968 c 0,-0.489125 -0.266415,-0.942222 -0.693359,-1.179688 a 0.750075,0.750075 0 0 0 -0.002,0 L 12.65625,6.5058594 c -0.406896,-0.2260606 -0.905604,-0.2260606 -1.3125,0 z M 12,7.859375 l 8.25,4.582031 v 4.117188 L 12,21.140625 3.75,16.558594 v -4.117188 z"
     id="path2" />
  <path
     style="color:#000000;fill:currentColor;stroke-linecap:round;stroke-linejoin:round;-inkscape-stroke:none"
     d="m 3.3222656,11.572266 a 0.75,0.75 0 0 0 -0.4492187,0.357422 0.75,0.75 0 0 0 0.2910156,1.019531 l 8.1796875,4.544922 c 0.40685,0.225878 0.90565,0.225878 1.3125,0 l 8.207031,-4.560547 A 0.75,0.75 0 0 0 21.15625,11.914063 0.75,0.75 0 0 0 20.136719,11.623047 L 12,16.140625 3.8925781,11.638672 a 0.75,0.75 0 0 0 -0.5703125,-0.06641 z"
     id="path4" />
  <path
     style="color:#000000;fill:currentColor;stroke-linecap:round;stroke-linejoin:round;-inkscape-stroke:none"
     d="M 12,16.25 A 0.75,0.75 0 0 0 11.25,17 v 4.5 A 0.75,0.75 0 0 0 12,22.25 0.75,0.75 0 0 0 12.75,21.5 V 17 A 0.75,0.75 0 0 0 12,16.25 Z"
     id="path6" />
  <path
     style="color:#000000;fill:currentColor;stroke-linecap:round;stroke-linejoin:round;-inkscape-stroke:none"
     d="m 12,1.25 a 0.75,0.75 0 0 0 -0.53125,0.21875 l -2.5,2.5 a 0.75,0.75 0 0 0 0,1.0625 0.75,0.75 0 0 0 1.0625,0 L 11.25,3.8125 V 12 A 0.75,0.75 0 0 0 12,12.75 0.75,0.75 0 0 0 12.75,12 V 3.8125 l 1.21875,1.21875 a 0.75,0.75 0 0 0 1.0625,0 0.75,0.75 0 0 0 0,-1.0625 l -2.5,-2.5 A 0.75,0.75 0 0 0 12,1.25 Z"
     id="path8" />
</svg>
