<?xml version="1.0" encoding="UTF-8" standalone="no"?>
<svg
   width="24"
   height="24"
   viewBox="0 0 24 24"
   stroke-width="1.5"
   fill="none"
   version="1.1"
   id="svg10"
   sodipodi:docname="eye-closed.svg"
   inkscape:version="1.2.1 (9c6d41e410, 2022-07-14)"
   xmlns:inkscape="http://www.inkscape.org/namespaces/inkscape"
   xmlns:sodipodi="http://sodipodi.sourceforge.net/DTD/sodipodi-0.dtd"
   xmlns="http://www.w3.org/2000/svg"
   xmlns:svg="http://www.w3.org/2000/svg">
  <defs
     id="defs14" />
  <sodipodi:namedview
     id="namedview12"
     pagecolor="#ffffff"
     bordercolor="#666666"
     borderopacity="1.0"
     inkscape:showpageshadow="2"
     inkscape:pageopacity="0.0"
     inkscape:pagecheckerboard="0"
     inkscape:deskcolor="#d1d1d1"
     showgrid="false"
     inkscape:zoom="34.541667"
     inkscape:cx="10.364294"
     inkscape:cy="12.014475"
     inkscape:window-width="1920"
     inkscape:window-height="1009"
     inkscape:window-x="1912"
     inkscape:window-y="-8"
     inkscape:window-maximized="1"
     inkscape:current-layer="svg10" />
  <path
     style="color:#000000;fill:currentColor;stroke-linecap:round;stroke-linejoin:round;-inkscape-stroke:none"
     d="m 17.140625,11.863281 a 0.75,0.75 0 0 0 -0.556641,0.134766 0.75,0.75 0 0 0 -0.166015,1.046875 l 2.476562,3.396484 a 0.75,0.75 0 0 0 1.046875,0.164063 0.75,0.75 0 0 0 0.164063,-1.046875 l -2.47461,-3.396485 a 0.75,0.75 0 0 0 -0.490234,-0.298828 z"
     id="path2" />
  <path
     style="color:#000000;fill:currentColor;stroke-linecap:round;stroke-linejoin:round;-inkscape-stroke:none"
     d="M 12,13.25 A 0.75,0.75 0 0 0 11.25,14 v 3.5 A 0.75,0.75 0 0 0 12,18.25 0.75,0.75 0 0 0 12.75,17.5 V 14 A 0.75,0.75 0 0 0 12,13.25 Z"
     id="path4" />
  <path
     style="color:#000000;fill:currentColor;stroke-linecap:round;stroke-linejoin:round;-inkscape-stroke:none"
     d="m 7.4101562,12.005859 a 0.75,0.75 0 0 0 -1.046875,0.164063 l -2.4687499,3.388672 a 0.75,0.75 0 0 0 0.1640624,1.046875 0.75,0.75 0 0 0 1.046875,-0.164063 l 2.46875,-3.386718 A 0.75,0.75 0 0 0 7.4101562,12.005859 Z"
     id="path6" />
  <path
     style="color:#000000;fill:currentColor;stroke-linecap:round;stroke-linejoin:round;-inkscape-stroke:none"
     d="m 2.6914063,7.3164062 a 0.75,0.75 0 0 0 -0.375,0.9921876 C 4.2315795,12.564534 8.1222261,14.75 12,14.75 c 3.877774,0 7.768421,-2.185466 9.683594,-6.4414062 a 0.75,0.75 0 0 0 -0.375,-0.9921876 0.75,0.75 0 0 0 -0.992188,0.375 C 18.631583,11.435458 15.322219,13.25 12,13.25 8.6777811,13.25 5.3684169,11.435458 3.6835938,7.6914062 a 0.75,0.75 0 0 0 -0.9921875,-0.375 z"
     id="path8" />
</svg>
