<?xml version="1.0" encoding="UTF-8" standalone="no"?>
<svg
   width="24"
   height="24"
   stroke-width="1.5"
   viewBox="0 0 24 24"
   fill="none"
   version="1.1"
   id="svg4"
   sodipodi:docname="facebook.svg"
   inkscape:version="1.2.1 (9c6d41e410, 2022-07-14)"
   xmlns:inkscape="http://www.inkscape.org/namespaces/inkscape"
   xmlns:sodipodi="http://sodipodi.sourceforge.net/DTD/sodipodi-0.dtd"
   xmlns="http://www.w3.org/2000/svg"
   xmlns:svg="http://www.w3.org/2000/svg">
  <defs
     id="defs8" />
  <sodipodi:namedview
     id="namedview6"
     pagecolor="#ffffff"
     bordercolor="#666666"
     borderopacity="1.0"
     inkscape:showpageshadow="2"
     inkscape:pageopacity="0.0"
     inkscape:pagecheckerboard="0"
     inkscape:deskcolor="#d1d1d1"
     showgrid="false"
     inkscape:zoom="34.541667"
     inkscape:cx="10.364294"
     inkscape:cy="12.014475"
     inkscape:window-width="1920"
     inkscape:window-height="1009"
     inkscape:window-x="1912"
     inkscape:window-y="-8"
     inkscape:window-maximized="1"
     inkscape:current-layer="svg4" />
  <path
     style="color:#000000;fill:currentColor;stroke-linecap:round;stroke-linejoin:round;-inkscape-stroke:none"
     d="M 14,1.25 C 12.475282,1.25 11.011663,1.8554212 9.9335938,2.9335938 8.8554179,4.0117236 8.25,5.4752985 8.25,7 V 9.25 H 6 A 0.750075,0.750075 0 0 0 5.25,10 v 4 A 0.750075,0.750075 0 0 0 6,14.75 H 8.25 V 22 A 0.750075,0.750075 0 0 0 9,22.75 h 4 A 0.750075,0.750075 0 0 0 13.75,22 V 14.75 H 16 a 0.750075,0.750075 0 0 0 0.728516,-0.568359 l 1,-4 A 0.750075,0.750075 0 0 0 17,9.25 H 13.75 V 7 c 0,-0.066517 0.02708,-0.1305897 0.07422,-0.1777344 C 13.871198,6.7752791 13.933443,6.75 14,6.75 h 3 A 0.750075,0.750075 0 0 0 17.75,6 V 2 A 0.750075,0.750075 0 0 0 17,1.25 Z m 0,1.5 h 2.25 v 2.5 H 14 c -0.463842,0 -0.910261,0.1836457 -1.238281,0.5117187 C 12.433854,6.0896536 12.25,6.5360775 12.25,7 v 3 A 0.750075,0.750075 0 0 0 13,10.75 h 3.039062 l -0.624999,2.5 H 13 A 0.750075,0.750075 0 0 0 12.25,14 v 7.25 H 9.75 V 14 A 0.750075,0.750075 0 0 0 9,13.25 H 6.75 v -2.5 H 9 A 0.750075,0.750075 0 0 0 9.75,10 V 7 C 9.75,5.8725441 10.196878,4.7913689 10.994141,3.9941406 11.79127,3.196935 12.872521,2.75 14,2.75 Z"
     id="path2" />
</svg>
