<?xml version="1.0" encoding="UTF-8" standalone="no"?>
<svg
   width="24"
   height="24"
   stroke-width="1.5"
   viewBox="0 0 24 24"
   fill="none"
   version="1.1"
   id="svg18"
   sodipodi:docname="face-id.svg"
   inkscape:version="1.2.1 (9c6d41e410, 2022-07-14)"
   xmlns:inkscape="http://www.inkscape.org/namespaces/inkscape"
   xmlns:sodipodi="http://sodipodi.sourceforge.net/DTD/sodipodi-0.dtd"
   xmlns="http://www.w3.org/2000/svg"
   xmlns:svg="http://www.w3.org/2000/svg">
  <defs
     id="defs22" />
  <sodipodi:namedview
     id="namedview20"
     pagecolor="#ffffff"
     bordercolor="#666666"
     borderopacity="1.0"
     inkscape:showpageshadow="2"
     inkscape:pageopacity="0.0"
     inkscape:pagecheckerboard="0"
     inkscape:deskcolor="#d1d1d1"
     showgrid="false"
     inkscape:zoom="34.541667"
     inkscape:cx="10.364294"
     inkscape:cy="12.014475"
     inkscape:window-width="1920"
     inkscape:window-height="1009"
     inkscape:window-x="1912"
     inkscape:window-y="-8"
     inkscape:window-maximized="1"
     inkscape:current-layer="svg18" />
  <path
     style="color:#000000;fill:currentColor;stroke-linecap:round;stroke-linejoin:round;-inkscape-stroke:none"
     d="M 5,2.25 C 3.4901018,2.25 2.25,3.4901018 2.25,5 V 7 A 0.75,0.75 0 0 0 3,7.75 0.75,0.75 0 0 0 3.75,7 V 5 C 3.75,4.3007604 4.3007604,3.75 5,3.75 H 7 A 0.75,0.75 0 0 0 7.75,3 0.75,0.75 0 0 0 7,2.25 Z"
     id="path2" />
  <path
     style="color:#000000;fill:currentColor;stroke-linecap:round;stroke-linejoin:round;-inkscape-stroke:none"
     d="M 17,2.25 A 0.75,0.75 0 0 0 16.25,3 0.75,0.75 0 0 0 17,3.75 h 2 c 0.699281,0 1.25,0.5507468 1.25,1.25 V 7 A 0.75,0.75 0 0 0 21,7.75 0.75,0.75 0 0 0 21.75,7 V 5 C 21.75,3.4901154 20.509917,2.25 19,2.25 Z"
     id="path4" />
  <path
     style="color:#000000;fill:currentColor;stroke-linecap:round;stroke-linejoin:round;-inkscape-stroke:none"
     d="M 16,7.25 A 0.75,0.75 0 0 0 15.25,8 v 2 A 0.75,0.75 0 0 0 16,10.75 0.75,0.75 0 0 0 16.75,10 V 8 A 0.75,0.75 0 0 0 16,7.25 Z"
     id="path6" />
  <path
     style="color:#000000;fill:currentColor;stroke-linecap:round;stroke-linejoin:round;-inkscape-stroke:none"
     d="M 8,7.25 A 0.75,0.75 0 0 0 7.25,8 v 2 A 0.75,0.75 0 0 0 8,10.75 0.75,0.75 0 0 0 8.75,10 V 8 A 0.75,0.75 0 0 0 8,7.25 Z"
     id="path8" />
  <path
     style="color:#000000;fill:currentColor;stroke-linecap:round;stroke-linejoin:round;-inkscape-stroke:none"
     d="m 9,15.25 a 0.75,0.75 0 0 0 -0.53125,0.21875 0.75,0.75 0 0 0 0,1.0625 c 0,0 0.3558704,0.343951 0.9453125,0.638672 C 10.003505,17.464643 10.875001,17.75 12,17.75 c 1.124999,0 1.996495,-0.285357 2.585938,-0.580078 0.589442,-0.294721 0.945312,-0.638672 0.945312,-0.638672 a 0.75,0.75 0 0 0 0,-1.0625 0.75,0.75 0 0 0 -1.0625,0 c 0,0 -0.144131,0.15605 -0.554687,0.361328 C 13.503506,16.035357 12.874999,16.25 12,16.25 11.125001,16.25 10.496494,16.035357 10.085938,15.830078 9.6753806,15.6248 9.53125,15.46875 9.53125,15.46875 A 0.75,0.75 0 0 0 9,15.25 Z"
     id="path10" />
  <path
     style="color:#000000;fill:currentColor;stroke-linecap:round;stroke-linejoin:round;-inkscape-stroke:none"
     d="M 12,7.25 A 0.75,0.75 0 0 0 11.25,8 v 4.25 H 11 A 0.75,0.75 0 0 0 10.25,13 0.75,0.75 0 0 0 11,13.75 h 1 A 0.750075,0.750075 0 0 0 12.75,13 V 8 A 0.75,0.75 0 0 0 12,7.25 Z"
     id="path12" />
  <path
     style="color:#000000;fill:currentColor;stroke-linecap:round;stroke-linejoin:round;-inkscape-stroke:none"
     d="M 3,16.25 A 0.75,0.75 0 0 0 2.25,17 v 2 c 0,1.509917 1.2401154,2.75 2.75,2.75 H 7 A 0.75,0.75 0 0 0 7.75,21 0.75,0.75 0 0 0 7,20.25 H 5 C 4.3007468,20.25 3.75,19.699281 3.75,19 V 17 A 0.75,0.75 0 0 0 3,16.25 Z"
     id="path14" />
  <path
     style="color:#000000;fill:currentColor;stroke-linecap:round;stroke-linejoin:round;-inkscape-stroke:none"
     d="M 21,16.25 A 0.75,0.75 0 0 0 20.25,17 v 2 c 0,0.699294 -0.550706,1.25 -1.25,1.25 H 17 A 0.75,0.75 0 0 0 16.25,21 0.75,0.75 0 0 0 17,21.75 h 2 c 1.509904,0 2.75,-1.240096 2.75,-2.75 V 17 A 0.75,0.75 0 0 0 21,16.25 Z"
     id="path16" />
</svg>
