<?xml version="1.0" encoding="UTF-8" standalone="no"?>
<svg
   width="24"
   height="24"
   stroke-width="1.5"
   viewBox="0 0 24 24"
   fill="none"
   version="1.1"
   id="svg8"
   sodipodi:docname="facetime.svg"
   inkscape:version="1.2.1 (9c6d41e410, 2022-07-14)"
   xmlns:inkscape="http://www.inkscape.org/namespaces/inkscape"
   xmlns:sodipodi="http://sodipodi.sourceforge.net/DTD/sodipodi-0.dtd"
   xmlns="http://www.w3.org/2000/svg"
   xmlns:svg="http://www.w3.org/2000/svg">
  <defs
     id="defs12" />
  <sodipodi:namedview
     id="namedview10"
     pagecolor="#ffffff"
     bordercolor="#666666"
     borderopacity="1.0"
     inkscape:showpageshadow="2"
     inkscape:pageopacity="0.0"
     inkscape:pagecheckerboard="0"
     inkscape:deskcolor="#d1d1d1"
     showgrid="false"
     inkscape:zoom="34.541667"
     inkscape:cx="10.364294"
     inkscape:cy="12.014475"
     inkscape:window-width="1920"
     inkscape:window-height="1009"
     inkscape:window-x="1912"
     inkscape:window-y="-8"
     inkscape:window-maximized="1"
     inkscape:current-layer="svg8" />
  <path
     style="color:#000000;fill:currentColor;-inkscape-stroke:none"
     d="M 8,1.25 C 4.280964,1.25 1.25,4.280964 1.25,8 v 8 c 0,3.719027 3.0309625,6.75 6.75,6.75 h 8 c 3.719029,0 6.75,-3.030971 6.75,-6.75 V 8 C 22.75,4.2809625 19.719027,1.25 16,1.25 Z m 0,1.5 h 8 c 2.908366,0 5.25,2.3416241 5.25,5.25 v 8 c 0,2.908365 -2.341635,5.25 -5.25,5.25 H 8 C 5.0916241,21.25 2.75,18.908366 2.75,16 V 8 C 2.75,5.0916226 5.0916226,2.75 8,2.75 Z"
     id="path2" />
  <path
     style="color:#000000;fill:currentColor;-inkscape-stroke:none"
     d="M 8,8.25 C 6.4901018,8.25 5.25,9.4901018 5.25,11 v 2 c 0,1.509917 1.2401154,2.75 2.75,2.75 h 3 c 1.509904,0 2.75,-1.240096 2.75,-2.75 V 11 C 13.75,9.4901154 12.509917,8.25 11,8.25 Z m 0,1.5 h 3 c 0.699281,0 1.25,0.550747 1.25,1.25 v 2 c 0,0.699294 -0.550706,1.25 -1.25,1.25 H 8 C 7.3007468,14.25 6.75,13.699281 6.75,13 V 11 C 6.75,10.30076 7.3007604,9.75 8,9.75 Z"
     id="path4" />
  <path
     style="color:#000000;fill:currentColor;stroke-linecap:round;stroke-linejoin:round;-inkscape-stroke:none"
     d="m 17.990234,8.5214844 c -0.433466,-0.2167407 -0.974295,-0.221872 -1.40039,0.097656 l -3.066406,2.3007814 c -0.704,0.527999 -0.704,1.632157 0,2.160156 l 3.066406,2.300781 C 17.44205,16.020014 18.75,15.365973 18.75,14.300781 V 9.6992188 C 18.75,9.1666252 18.4237,8.738225 17.990234,8.5214844 Z M 17.25,10 v 4 l -2.667969,-2 z"
     id="path6" />
</svg>
