<?xml version="1.0" encoding="UTF-8" standalone="no"?>
<svg
   width="24"
   height="24"
   stroke-width="1.5"
   viewBox="0 0 24 24"
   fill="none"
   version="1.1"
   id="svg10"
   sodipodi:docname="farm.svg"
   inkscape:version="1.2.1 (9c6d41e410, 2022-07-14)"
   xmlns:inkscape="http://www.inkscape.org/namespaces/inkscape"
   xmlns:sodipodi="http://sodipodi.sourceforge.net/DTD/sodipodi-0.dtd"
   xmlns="http://www.w3.org/2000/svg"
   xmlns:svg="http://www.w3.org/2000/svg">
  <defs
     id="defs14" />
  <sodipodi:namedview
     id="namedview12"
     pagecolor="#ffffff"
     bordercolor="#666666"
     borderopacity="1.0"
     inkscape:showpageshadow="2"
     inkscape:pageopacity="0.0"
     inkscape:pagecheckerboard="0"
     inkscape:deskcolor="#d1d1d1"
     showgrid="false"
     inkscape:zoom="34.541667"
     inkscape:cx="10.364294"
     inkscape:cy="12.014475"
     inkscape:window-width="1920"
     inkscape:window-height="1009"
     inkscape:window-x="1912"
     inkscape:window-y="-8"
     inkscape:window-maximized="1"
     inkscape:current-layer="svg10" />
  <path
     style="color:#000000;fill:currentColor;stroke-linecap:round;stroke-linejoin:round;-inkscape-stroke:none"
     d="m 7.6640625,4.3300781 -6,3 A 0.750075,0.750075 0 0 0 1.25,8 V 20 A 0.750075,0.750075 0 0 0 2,20.75 h 3 6 3 A 0.750075,0.750075 0 0 0 14.75,20 V 8 A 0.750075,0.750075 0 0 0 14.335938,7.3300781 l -6.0000005,-3 a 0.750075,0.750075 0 0 0 -0.671875,0 z M 8,5.8378906 l 5.25,2.625 V 19.25 h -1.5 V 13 A 0.750075,0.750075 0 0 0 11,12.25 H 5 A 0.750075,0.750075 0 0 0 4.25,13 v 6.25 H 2.75 V 8.4628906 Z M 5.75,13.75 h 4.5 v 5.5 h -4.5 z"
     id="path2" />
  <path
     style="color:#000000;fill:currentColor;stroke-linecap:round;stroke-linejoin:round;-inkscape-stroke:none"
     d="M 18,13.25 A 0.75,0.75 0 0 0 17.25,14 v 3 3 A 0.75,0.75 0 0 0 18,20.75 0.75,0.75 0 0 0 18.75,20 V 17 14 A 0.75,0.75 0 0 0 18,13.25 Z"
     id="path4" />
  <path
     style="color:#000000;fill:currentColor;stroke-linecap:round;stroke-linejoin:round;-inkscape-stroke:none"
     d="M 14,16.25 A 0.75,0.75 0 0 0 13.25,17 0.75,0.75 0 0 0 14,17.75 h 4 4 A 0.75,0.75 0 0 0 22.75,17 0.75,0.75 0 0 0 22,16.25 h -4 z"
     id="path6" />
  <path
     style="color:#000000;fill:currentColor;stroke-linecap:round;stroke-linejoin:round;-inkscape-stroke:none"
     d="M 14,13.25 A 0.75,0.75 0 0 0 13.25,14 0.75,0.75 0 0 0 14,14.75 h 4 4 A 0.75,0.75 0 0 0 22.75,14 0.75,0.75 0 0 0 22,13.25 h -4 z"
     id="path8" />
</svg>
