<?xml version="1.0" encoding="UTF-8" standalone="no"?>
<svg
   width="24"
   stroke-width="1.5"
   height="24"
   viewBox="0 0 24 24"
   fill="none"
   version="1.1"
   id="svg12"
   sodipodi:docname="favourite-book.svg"
   inkscape:version="1.2.1 (9c6d41e410, 2022-07-14)"
   xmlns:inkscape="http://www.inkscape.org/namespaces/inkscape"
   xmlns:sodipodi="http://sodipodi.sourceforge.net/DTD/sodipodi-0.dtd"
   xmlns="http://www.w3.org/2000/svg"
   xmlns:svg="http://www.w3.org/2000/svg">
  <defs
     id="defs16" />
  <sodipodi:namedview
     id="namedview14"
     pagecolor="#ffffff"
     bordercolor="#666666"
     borderopacity="1.0"
     inkscape:showpageshadow="2"
     inkscape:pageopacity="0.0"
     inkscape:pagecheckerboard="0"
     inkscape:deskcolor="#d1d1d1"
     showgrid="false"
     inkscape:zoom="34.541667"
     inkscape:cx="10.364294"
     inkscape:cy="12.014475"
     inkscape:window-width="1920"
     inkscape:window-height="1009"
     inkscape:window-x="1912"
     inkscape:window-y="-8"
     inkscape:window-maximized="1"
     inkscape:current-layer="svg12" />
  <path
     style="color:#000000;fill:currentColor;stroke-linecap:round;-inkscape-stroke:none"
     d="M 6,2.25 C 4.4901018,2.25 3.25,3.4901018 3.25,5 V 19 A 0.75,0.75 0 0 0 4,19.75 0.75,0.75 0 0 0 4.75,19 V 5 C 4.75,4.3007604 5.3007604,3.75 6,3.75 h 13.25 v 12.964844 a 0.75,0.75 0 0 0 0.75,0.75 0.75,0.75 0 0 0 0.75,-0.75 V 3.5996094 C 20.75,2.862953 20.137086,2.25 19.400391,2.25 Z"
     id="path2" />
  <path
     style="color:#000000;fill:currentColor;stroke-linejoin:round;-inkscape-stroke:none"
     d="m 13.722656,5.75 c -0.6482,0 -1.209068,0.3405439 -1.724609,0.71875 -1.183708,-0.8561377 -2.8087058,-0.8928926 -3.8691407,0.1757812 -1.1662758,1.1753468 -1.1662806,3.0941929 0,4.2695318 l 2.9179687,2.941406 c 0.507948,0.511834 1.333921,0.527597 1.863281,0.03906 a 0.750075,0.750075 0 0 0 0.0039,-0.002 C 13.95377,12.919283 14.907531,11.885126 15.871094,10.914063 16.434805,10.346272 16.75,9.5781722 16.75,8.7792969 16.75,7.9804417 16.434742,7.2123514 15.871094,6.6445312 15.30361,6.0723293 14.530091,5.75 13.722656,5.75 Z m -3.445312,1.4960937 c 0.390937,-1.1e-6 0.782123,0.1508444 1.083984,0.4550782 l 0.105469,0.1074218 a 0.750075,0.750075 0 0 0 1.066406,0 L 12.638672,7.7011719 C 12.925332,7.4121693 13.315041,7.25 13.722656,7.25 c 0.407764,0 0.797469,0.1622746 1.083985,0.4511719 0.284751,0.286859 0.443359,0.6741813 0.443359,1.078125 0,0.4039835 -0.158671,0.7913765 -0.443359,1.078125 C 13.855009,10.816461 12.945442,11.790691 12,12.685547 L 9.1933594,9.8574219 c -0.5977177,-0.6023598 -0.5977225,-1.5538786 0,-2.15625 0.3019075,-0.3042532 0.6930471,-0.455077 1.0839846,-0.4550782 z"
     id="path4" />
  <path
     style="color:#000000;fill:currentColor;stroke-linecap:round;-inkscape-stroke:none"
     d="M 6,16.25 A 0.75,0.75 0 0 0 5.25,17 0.75,0.75 0 0 0 6,17.75 H 20 A 0.75,0.75 0 0 0 20.75,17 0.75,0.75 0 0 0 20,16.25 Z"
     id="path6" />
  <path
     style="color:#000000;fill:currentColor;stroke-linecap:round;-inkscape-stroke:none"
     d="M 6,20.25 A 0.75,0.75 0 0 0 5.25,21 0.75,0.75 0 0 0 6,21.75 H 20 A 0.75,0.75 0 0 0 20.75,21 0.75,0.75 0 0 0 20,20.25 Z"
     id="path8" />
  <path
     style="color:#000000;fill:currentColor;stroke-linecap:round;stroke-linejoin:round;-inkscape-stroke:none"
     d="m 6,16.25 c -1.5098846,0 -2.75,1.240083 -2.75,2.75 0,1.509917 1.2401154,2.75 2.75,2.75 A 0.75,0.75 0 0 0 6.75,21 0.75,0.75 0 0 0 6,20.25 C 5.3007468,20.25 4.75,19.699281 4.75,19 4.75,18.300719 5.3007468,17.75 6,17.75 A 0.75,0.75 0 0 0 6.75,17 0.75,0.75 0 0 0 6,16.25 Z"
     id="path10" />
</svg>
