<?xml version="1.0" encoding="UTF-8" standalone="no"?>
<svg
   width="24"
   height="24"
   stroke-width="1.5"
   viewBox="0 0 24 24"
   fill="none"
   version="1.1"
   id="svg12"
   sodipodi:docname="figma.svg"
   inkscape:version="1.2.1 (9c6d41e410, 2022-07-14)"
   xmlns:inkscape="http://www.inkscape.org/namespaces/inkscape"
   xmlns:sodipodi="http://sodipodi.sourceforge.net/DTD/sodipodi-0.dtd"
   xmlns="http://www.w3.org/2000/svg"
   xmlns:svg="http://www.w3.org/2000/svg">
  <defs
     id="defs16" />
  <sodipodi:namedview
     id="namedview14"
     pagecolor="#ffffff"
     bordercolor="#666666"
     borderopacity="1.0"
     inkscape:showpageshadow="2"
     inkscape:pageopacity="0.0"
     inkscape:pagecheckerboard="0"
     inkscape:deskcolor="#d1d1d1"
     showgrid="false"
     inkscape:zoom="34.541667"
     inkscape:cx="10.364294"
     inkscape:cy="12.014475"
     inkscape:window-width="1920"
     inkscape:window-height="1009"
     inkscape:window-x="1912"
     inkscape:window-y="-8"
     inkscape:window-maximized="1"
     inkscape:current-layer="svg12" />
  <path
     style="color:#000000;fill:currentColor;stroke-linecap:round;stroke-linejoin:round;-inkscape-stroke:none"
     d="M 9,2.25 C 8.0057272,2.25 7.0507135,2.644599 6.3476562,3.3476563 5.644599,4.0507135 5.25,5.0057272 5.25,6 5.25,6.9942728 5.644599,7.9492865 6.3476562,8.6523438 7.0507135,9.355401 8.0057272,9.75 9,9.75 h 3 A 0.750075,0.750075 0 0 0 12.75,9 V 3 A 0.750075,0.750075 0 0 0 12,2.25 Z m 0,1.5 h 2.25 v 4.5 H 9 C 8.4029744,8.25 7.8303648,8.0139585 7.4082031,7.5917969 6.9860415,7.1696352 6.75,6.5970256 6.75,6 6.75,5.4029744 6.9860415,4.8303648 7.4082031,4.4082031 7.8303648,3.9860415 8.4029744,3.75 9,3.75 Z"
     id="path2" />
  <path
     style="color:#000000;fill:currentColor;stroke-linecap:round;stroke-linejoin:round;-inkscape-stroke:none"
     d="M 12,2.25 A 0.750075,0.750075 0 0 0 11.25,3 V 9 A 0.750075,0.750075 0 0 0 12,9.75 h 3 c 0.492477,0 0.980586,-0.096723 1.435547,-0.2851562 0.454856,-0.1884548 0.868579,-0.4643073 1.216797,-0.8125 0.34823,-0.3482052 0.624084,-0.7617238 0.8125,-1.2167969 C 18.65335,6.9805579 18.75,6.4924542 18.75,6 18.75,5.5075458 18.65335,5.0194421 18.464844,4.5644531 18.276428,4.10938 18.000574,3.6958614 17.652344,3.3476563 17.304126,2.9994635 16.890403,2.723611 16.435547,2.5351563 15.980586,2.3467225 15.492477,2.25 15,2.25 Z m 0.75,1.5 H 15 c 0.295523,0 0.58829,0.058789 0.861328,0.171875 0.272943,0.113085 0.521487,0.2773614 0.730469,0.4863281 0.208969,0.2089543 0.373344,0.4575826 0.486328,0.7304688 C 17.191219,5.4116422 17.25,5.704515 17.25,6 c 0,0.295485 -0.05878,0.5883578 -0.171875,0.8613281 C 16.965141,7.1342143 16.800766,7.3828426 16.591797,7.5917969 16.382815,7.8007636 16.134271,7.96504 15.861328,8.078125 15.58829,8.191211 15.295523,8.25 15,8.25 h -2.25 z"
     id="path4" />
  <path
     style="color:#000000;fill:currentColor;stroke-linecap:round;stroke-linejoin:round;-inkscape-stroke:none"
     d="m 15,8.25 c -0.492477,0 -0.980586,0.096723 -1.435547,0.2851563 -0.454856,0.1884547 -0.868579,0.4643072 -1.216797,0.8125 C 11.999468,9.69587 11.723573,10.109477 11.535156,10.564453 11.346658,11.01945 11.25,11.507523 11.25,12 c 0,0.492477 0.09666,0.98055 0.285156,1.435547 0.188417,0.454976 0.464294,0.86859 0.8125,1.216797 0.348207,0.348206 0.761821,0.624083 1.216797,0.8125 C 14.01945,15.653342 14.507523,15.75 15,15.75 c 0.492477,0 0.98055,-0.09666 1.435547,-0.285156 0.454976,-0.188417 0.86859,-0.464294 1.216797,-0.8125 0.348206,-0.348207 0.624083,-0.761821 0.8125,-1.216797 C 18.653342,12.98055 18.75,12.492477 18.75,12 c 0,-0.492477 -0.09666,-0.98055 -0.285156,-1.435547 C 18.276427,10.109477 18.000532,9.69587 17.652344,9.3476563 17.304126,8.9994635 16.890403,8.723611 16.435547,8.5351563 15.980586,8.3467225 15.492477,8.25 15,8.25 Z m 0,1.5 c 0.295523,0 0.58829,0.058789 0.861328,0.171875 0.272943,0.113085 0.521487,0.277361 0.730469,0.486328 0.209011,0.209026 0.373345,0.457646 0.486328,0.730469 C 17.191226,11.411675 17.25,11.704477 17.25,12 c 0,0.295523 -0.05877,0.588325 -0.171875,0.861328 -0.112983,0.272823 -0.277335,0.521476 -0.486328,0.730469 -0.208993,0.208993 -0.457646,0.373345 -0.730469,0.486328 C 15.588325,14.191226 15.295523,14.25 15,14.25 c -0.295523,0 -0.588325,-0.05877 -0.861328,-0.171875 C 13.865849,13.965142 13.617196,13.80079 13.408203,13.591797 13.19921,13.382804 13.034858,13.134151 12.921875,12.861328 12.808774,12.588325 12.75,12.295523 12.75,12 c 0,-0.295523 0.05877,-0.588325 0.171875,-0.861328 0.112983,-0.272823 0.277317,-0.521443 0.486328,-0.730469 0.208982,-0.208967 0.457526,-0.373243 0.730469,-0.486328 C 14.41171,9.808789 14.704477,9.75 15,9.75 Z"
     id="path6" />
  <path
     style="color:#000000;fill:currentColor;stroke-linecap:round;stroke-linejoin:round;-inkscape-stroke:none"
     d="m 9,14.25 c -0.9942916,0 -1.9492965,0.394621 -2.6523438,1.097656 C 5.6445809,16.050719 5.25,17.005765 5.25,18 c 0,0.994235 0.3945809,1.949281 1.0976562,2.652344 C 7.0507035,21.355379 8.0057084,21.75 9,21.75 c 0.9942916,0 1.949307,-0.394619 2.652344,-1.097656 C 12.355397,19.949291 12.75,18.994254 12.75,18 V 15 A 0.750075,0.750075 0 0 0 12,14.25 Z m 0,1.5 h 2.25 V 18 c 0,0.596944 -0.236057,1.169651 -0.658203,1.591797 C 10.169635,20.013959 9.5970068,20.25 9,20.25 8.4029932,20.25 7.8303747,20.013961 7.4082031,19.591797 6.9860596,19.169661 6.75,18.596963 6.75,18 6.75,17.403037 6.9860596,16.830339 7.4082031,16.408203 7.8303747,15.986039 8.4029932,15.75 9,15.75 Z"
     id="path8" />
  <path
     style="color:#000000;fill:currentColor;stroke-linecap:round;stroke-linejoin:round;-inkscape-stroke:none"
     d="M 9,8.25 C 8.0057272,8.25 7.0507135,8.644599 6.3476562,9.3476563 5.644592,10.050733 5.25,11.005765 5.25,12 c 0,0.994235 0.3945809,1.949281 1.0976562,2.652344 C 7.0507035,15.355379 8.0057084,15.75 9,15.75 h 3 A 0.750075,0.750075 0 0 0 12.75,15 V 9 A 0.750075,0.750075 0 0 0 12,8.25 Z m 0,1.5 h 2.25 v 4.5 H 9 C 8.4029932,14.25 7.8303747,14.013961 7.4082031,13.591797 6.9860596,13.169661 6.75,12.596963 6.75,12 6.75,11.403037 6.9860485,10.830365 7.4082031,10.408203 7.8303648,9.9860415 8.4029744,9.75 9,9.75 Z"
     id="path10" />
</svg>
