<?xml version="1.0" encoding="UTF-8" standalone="no"?>
<svg
   width="24"
   height="24"
   stroke-width="1.5"
   viewBox="0 0 24 24"
   fill="none"
   version="1.1"
   id="svg18"
   sodipodi:docname="file-not-found.svg"
   inkscape:version="1.2.1 (9c6d41e410, 2022-07-14)"
   xmlns:inkscape="http://www.inkscape.org/namespaces/inkscape"
   xmlns:sodipodi="http://sodipodi.sourceforge.net/DTD/sodipodi-0.dtd"
   xmlns="http://www.w3.org/2000/svg"
   xmlns:svg="http://www.w3.org/2000/svg">
  <defs
     id="defs22" />
  <sodipodi:namedview
     id="namedview20"
     pagecolor="#ffffff"
     bordercolor="#666666"
     borderopacity="1.0"
     inkscape:showpageshadow="2"
     inkscape:pageopacity="0.0"
     inkscape:pagecheckerboard="0"
     inkscape:deskcolor="#d1d1d1"
     showgrid="false"
     inkscape:zoom="34.541667"
     inkscape:cx="10.364294"
     inkscape:cy="12.014475"
     inkscape:window-width="1920"
     inkscape:window-height="1009"
     inkscape:window-x="1912"
     inkscape:window-y="-8"
     inkscape:window-maximized="1"
     inkscape:current-layer="svg18" />
  <path
     style="color:#000000;fill:currentColor;stroke-linecap:round;stroke-linejoin:round;-inkscape-stroke:none"
     d="M 12,7.25 A 0.75,0.75 0 0 0 11.25,8 v 4 A 0.75,0.75 0 0 0 12,12.75 0.75,0.75 0 0 0 12.75,12 V 8 A 0.75,0.75 0 0 0 12,7.25 Z"
     id="path2" />
  <path
     style="color:#000000;fill:currentColor;stroke-linecap:round;stroke-linejoin:round;-inkscape-stroke:none"
     d="m 11.970703,15.25 a 0.75,0.75 0 0 0 -0.517578,0.246094 l -0.0098,0.01172 a 0.75,0.75 0 0 0 0.05469,1.058593 0.75,0.75 0 0 0 1.058594,-0.05469 L 12.566406,16.5 A 0.75,0.75 0 0 0 12.511719,15.441406 0.75,0.75 0 0 0 11.970703,15.25 Z"
     id="path4" />
  <path
     style="color:#000000;fill:currentColor;stroke-linecap:round;stroke-linejoin:round;-inkscape-stroke:none"
     d="M 4,2.25 A 0.750075,0.750075 0 0 0 3.25,3 V 6 A 0.75,0.75 0 0 0 4,6.75 0.75,0.75 0 0 0 4.75,6 V 3.75 H 9 A 0.75,0.75 0 0 0 9.75,3 0.75,0.75 0 0 0 9,2.25 Z"
     id="path6" />
  <path
     style="color:#000000;fill:currentColor;stroke-linecap:round;stroke-linejoin:round;-inkscape-stroke:none"
     d="M 4,10.25 A 0.75,0.75 0 0 0 3.25,11 v 2 A 0.75,0.75 0 0 0 4,13.75 0.75,0.75 0 0 0 4.75,13 V 11 A 0.75,0.75 0 0 0 4,10.25 Z"
     id="path8" />
  <path
     style="color:#000000;fill:currentColor;stroke-linecap:round;stroke-linejoin:round;-inkscape-stroke:none"
     d="M 20,10.25 A 0.75,0.75 0 0 0 19.25,11 v 2 A 0.75,0.75 0 0 0 20,13.75 0.75,0.75 0 0 0 20.75,13 V 11 A 0.75,0.75 0 0 0 20,10.25 Z"
     id="path10" />
  <path
     style="color:#000000;fill:currentColor;stroke-linecap:round;stroke-linejoin:round;-inkscape-stroke:none"
     d="M 15,2.25 A 0.75,0.75 0 0 0 14.25,3 0.75,0.75 0 0 0 15,3.75 h 4.25 V 6 A 0.75,0.75 0 0 0 20,6.75 0.75,0.75 0 0 0 20.75,6 V 3 A 0.750075,0.750075 0 0 0 20,2.25 Z"
     id="path12" />
  <path
     style="color:#000000;fill:currentColor;stroke-linecap:round;stroke-linejoin:round;-inkscape-stroke:none"
     d="M 4,17.25 A 0.75,0.75 0 0 0 3.25,18 v 3 A 0.750075,0.750075 0 0 0 4,21.75 H 9 A 0.75,0.75 0 0 0 9.75,21 0.75,0.75 0 0 0 9,20.25 H 4.75 V 18 A 0.75,0.75 0 0 0 4,17.25 Z"
     id="path14" />
  <path
     style="color:#000000;fill:currentColor;stroke-linecap:round;stroke-linejoin:round;-inkscape-stroke:none"
     d="M 20,17.25 A 0.75,0.75 0 0 0 19.25,18 v 2.25 H 15 A 0.75,0.75 0 0 0 14.25,21 0.75,0.75 0 0 0 15,21.75 h 5 A 0.750075,0.750075 0 0 0 20.75,21 V 18 A 0.75,0.75 0 0 0 20,17.25 Z"
     id="path16" />
</svg>
