<?xml version="1.0" encoding="UTF-8" standalone="no"?>
<svg
   width="24"
   height="24"
   viewBox="0 0 24 24"
   stroke-width="1.5"
   fill="none"
   version="1.1"
   id="svg8"
   sodipodi:docname="fill-color.svg"
   inkscape:version="1.2.1 (9c6d41e410, 2022-07-14)"
   xmlns:inkscape="http://www.inkscape.org/namespaces/inkscape"
   xmlns:sodipodi="http://sodipodi.sourceforge.net/DTD/sodipodi-0.dtd"
   xmlns="http://www.w3.org/2000/svg"
   xmlns:svg="http://www.w3.org/2000/svg">
  <defs
     id="defs12" />
  <sodipodi:namedview
     id="namedview10"
     pagecolor="#ffffff"
     bordercolor="#666666"
     borderopacity="1.0"
     inkscape:showpageshadow="2"
     inkscape:pageopacity="0.0"
     inkscape:pagecheckerboard="0"
     inkscape:deskcolor="#d1d1d1"
     showgrid="false"
     inkscape:zoom="34.541667"
     inkscape:cx="10.364294"
     inkscape:cy="12.014475"
     inkscape:window-width="1920"
     inkscape:window-height="1009"
     inkscape:window-x="1912"
     inkscape:window-y="-8"
     inkscape:window-maximized="1"
     inkscape:current-layer="svg8" />
  <path
     style="color:#000000;fill:currentColor;stroke-linecap:round;stroke-linejoin:round;-inkscape-stroke:none"
     d="M 9.1757813,2.6914063 2.1054688,9.7617188 c -1.067614,1.0676962 -1.067614,2.8229292 0,3.8906252 l 5.6562499,5.65625 c 1.067651,1.067719 2.8230153,1.067747 3.8906253,0 l 7.070312,-7.070313 a 0.750075,0.750075 0 0 0 0,-1.0625 L 10.238281,2.6914063 a 0.750075,0.750075 0 0 0 -1.0624997,0 z m 0.53125,1.5917968 7.4238277,7.4238279 -6.539062,6.541016 c -0.494388,0.494452 -1.2750838,0.494479 -1.7695314,0 l -5.65625,-5.65625 c -0.4944645,-0.494503 -0.4944645,-1.275029 0,-1.769531 z"
     id="path2" />
  <path
     style="color:#000000;fill:currentColor;stroke-linecap:round;stroke-linejoin:round;-inkscape-stroke:none"
     d="m 8.2929688,1.0585937 a 0.75,0.75 0 0 0 -0.5312501,0.21875 0.75,0.75 0 0 0 0,1.0605469 l 1.4160157,1.4140625 a 0.75,0.75 0 0 0 1.0605466,0 0.75,0.75 0 0 0 0,-1.0605468 L 8.8242188,1.2773437 a 0.75,0.75 0 0 0 -0.53125,-0.21875 z"
     id="path4" />
  <path
     style="color:#000000;clip-rule:evenodd;fill:currentColor;fill-rule:evenodd;stroke-linecap:round;stroke-linejoin:round;stroke-miterlimit:1.5;-inkscape-stroke:none"
     d="m 20.529297,14.46875 a 0.75004001,0.75004001 0 0 0 -1.060547,0.002 c 0,0 -0.779151,0.777946 -1.5625,1.808594 -0.783349,1.030648 -1.649319,2.26399 -1.65625,3.603515 a 0.75004001,0.75004001 0 0 0 0,0.0098 c 0.01489,2.055013 1.688511,3.744141 3.75,3.744141 2.061489,0 3.750374,-1.688226 3.75,-3.75 -2.13e-4,-1.342643 -0.869193,-2.576384 -1.654297,-3.607422 C 21.310599,15.248259 20.529297,14.46875 20.529297,14.46875 Z M 20,16.144531 c 0.272634,0.291905 0.452204,0.451822 0.902344,1.042969 0.714969,0.938935 1.347569,2.148764 1.347656,2.699219 2.26e-4,1.249622 -1.000493,2.25 -2.25,2.25 -1.247283,0 -2.235469,-0.99677 -2.248047,-2.25 0.0047,-0.555662 0.634939,-1.761501 1.347656,-2.699219 C 19.548785,16.596522 19.728166,16.436449 20,16.144531 Z"
     id="path6" />
</svg>
