<?xml version="1.0" encoding="UTF-8" standalone="no"?>
<svg
   width="24"
   height="24"
   viewBox="0 0 24 24"
   stroke-width="1.5"
   fill="none"
   version="1.1"
   id="svg8"
   sodipodi:docname="fillet-3d.svg"
   inkscape:version="1.2.1 (9c6d41e410, 2022-07-14)"
   xmlns:inkscape="http://www.inkscape.org/namespaces/inkscape"
   xmlns:sodipodi="http://sodipodi.sourceforge.net/DTD/sodipodi-0.dtd"
   xmlns="http://www.w3.org/2000/svg"
   xmlns:svg="http://www.w3.org/2000/svg">
  <defs
     id="defs12" />
  <sodipodi:namedview
     id="namedview10"
     pagecolor="#ffffff"
     bordercolor="#666666"
     borderopacity="1.0"
     inkscape:showpageshadow="2"
     inkscape:pageopacity="0.0"
     inkscape:pagecheckerboard="0"
     inkscape:deskcolor="#d1d1d1"
     showgrid="false"
     inkscape:zoom="34.541667"
     inkscape:cx="10.364294"
     inkscape:cy="12.014475"
     inkscape:window-width="1920"
     inkscape:window-height="1009"
     inkscape:window-x="1912"
     inkscape:window-y="-8"
     inkscape:window-maximized="1"
     inkscape:current-layer="svg8" />
  <path
     style="color:#000000;fill:currentColor;stroke-linecap:round;stroke-linejoin:round;-inkscape-stroke:none"
     d="M 16,1.25 C 7.8626885,1.25 1.25,7.8626885 1.25,16 v 4 A 0.75,0.75 0 0 0 2,20.75 0.75,0.75 0 0 0 2.75,20 V 16 C 2.75,8.673347 8.673347,2.75 16,2.75 h 4 A 0.75,0.75 0 0 0 20.75,2 0.75,0.75 0 0 0 20,1.25 Z"
     id="path2" />
  <path
     style="color:#000000;fill:currentColor;stroke-linecap:round;stroke-linejoin:round;-inkscape-stroke:none"
     d="m 20.837891,16.552734 a 0.75,0.75 0 0 0 -0.75,0.75 v 1.72461 L 18.53125,17.470703 a 0.75,0.75 0 0 0 -1.0625,0 0.75,0.75 0 0 0 0,1.060547 l 1.560547,1.558594 h -1.726563 a 0.75,0.75 0 0 0 -0.75,0.75 0.75,0.75 0 0 0 0.75,0.75 h 3.535157 a 0.75,0.75 0 0 0 0.53125,-0.220703 0.75,0.75 0 0 0 0.193359,-0.46875 0.75,0.75 0 0 0 0.02539,-0.06055 v -3.53711 a 0.75,0.75 0 0 0 -0.75,-0.75 z"
     id="path4" />
  <path
     style="color:#000000;fill:currentColor;stroke-linecap:round;stroke-linejoin:round;stroke-dasharray:2, 3;-inkscape-stroke:none"
     d="m 9,8.25 a 0.75,0.75 0 0 0 -0.53125,0.21875 0.75,0.75 0 0 0 0,1.0625 l 1.4160156,1.414063 a 0.75,0.75 0 0 0 1.0605474,0 0.75,0.75 0 0 0 0,-1.0605474 L 9.53125,8.46875 A 0.75,0.75 0 0 0 9,8.25 Z m 3.535156,3.535156 a 0.75,0.75 0 0 0 -0.529297,0.220703 0.75,0.75 0 0 0 0,1.060547 l 1.414063,1.414063 a 0.75,0.75 0 0 0 1.060547,0 0.75,0.75 0 0 0 0,-1.060547 l -1.414063,-1.414063 a 0.75,0.75 0 0 0 -0.53125,-0.220703 z"
     id="path6" />
</svg>
