<?xml version="1.0" encoding="UTF-8" standalone="no"?>
<svg
   width="24"
   height="24"
   stroke-width="1.5"
   viewBox="0 0 24 24"
   fill="none"
   version="1.1"
   id="svg4"
   sodipodi:docname="filter.svg"
   inkscape:version="1.2.1 (9c6d41e410, 2022-07-14)"
   xmlns:inkscape="http://www.inkscape.org/namespaces/inkscape"
   xmlns:sodipodi="http://sodipodi.sourceforge.net/DTD/sodipodi-0.dtd"
   xmlns="http://www.w3.org/2000/svg"
   xmlns:svg="http://www.w3.org/2000/svg">
  <defs
     id="defs8" />
  <sodipodi:namedview
     id="namedview6"
     pagecolor="#ffffff"
     bordercolor="#666666"
     borderopacity="1.0"
     inkscape:showpageshadow="2"
     inkscape:pageopacity="0.0"
     inkscape:pagecheckerboard="0"
     inkscape:deskcolor="#d1d1d1"
     showgrid="false"
     inkscape:zoom="34.541667"
     inkscape:cx="10.364294"
     inkscape:cy="12.014475"
     inkscape:window-width="1920"
     inkscape:window-height="1009"
     inkscape:window-x="1912"
     inkscape:window-y="-8"
     inkscape:window-maximized="1"
     inkscape:current-layer="svg4" />
  <path
     style="color:#000000;fill:currentColor;stroke-linecap:round;stroke-linejoin:round;-inkscape-stroke:none"
     d="M 4,2.25 C 3.0423804,2.25 2.25,3.0423921 2.25,4 v 1.5859375 c 0,0.4638257 0.1837045,0.9083314 0.5117188,1.2363281 L 9.1757813,13.238281 C 9.2227678,13.28526 9.25,13.347505 9.25,13.414063 v 5.804687 c 0,0.799159 0.5508468,1.505387 1.326172,1.699219 l 2,0.5 C 13.662521,21.688204 14.75,20.838525 14.75,19.71875 v -6.304687 c 0,-0.06648 0.02524,-0.12876 0.07227,-0.175782 L 21.236328,6.8242187 C 21.56439,6.4962089 21.750175,6.0500558 21.75,5.5859375 V 4 C 21.75,3.0424145 20.95755,2.25 20,2.25 Z m 0,1.5 h 16 c 0.147049,0 0.25,0.1031266 0.25,0.25 v 1.5859375 c 2.5e-5,0.066441 -0.02708,0.1286515 -0.07422,0.1757812 l -6.414062,6.4140623 a 0.750075,0.750075 0 0 0 0,0.002 C 13.433741,12.505713 13.25,12.950145 13.25,13.414063 v 6.304687 c 0,0.180726 -0.135375,0.285988 -0.310547,0.242187 l -2,-0.5 C 10.824379,19.432169 10.75,19.337391 10.75,19.21875 v -5.804687 c 0,-0.463218 -0.186426,-0.908434 -0.513672,-1.236329 v -0.002 L 3.8222656,5.7617187 C 3.7752002,5.7146558 3.75,5.6525312 3.75,5.5859375 V 4 C 3.75,3.853049 3.8530407,3.75 4,3.75 Z"
     id="path2" />
</svg>
