<?xml version="1.0" encoding="UTF-8" standalone="no"?>
<svg
   width="24"
   height="24"
   stroke-width="1.5"
   viewBox="0 0 24 24"
   fill="none"
   version="1.1"
   id="svg12"
   sodipodi:docname="finder.svg"
   inkscape:version="1.2.1 (9c6d41e410, 2022-07-14)"
   xmlns:inkscape="http://www.inkscape.org/namespaces/inkscape"
   xmlns:sodipodi="http://sodipodi.sourceforge.net/DTD/sodipodi-0.dtd"
   xmlns="http://www.w3.org/2000/svg"
   xmlns:svg="http://www.w3.org/2000/svg">
  <defs
     id="defs16" />
  <sodipodi:namedview
     id="namedview14"
     pagecolor="#ffffff"
     bordercolor="#666666"
     borderopacity="1.0"
     inkscape:showpageshadow="2"
     inkscape:pageopacity="0.0"
     inkscape:pagecheckerboard="0"
     inkscape:deskcolor="#d1d1d1"
     showgrid="false"
     inkscape:zoom="34.541667"
     inkscape:cx="10.364294"
     inkscape:cy="12.014475"
     inkscape:window-width="1920"
     inkscape:window-height="1009"
     inkscape:window-x="1912"
     inkscape:window-y="-8"
     inkscape:window-maximized="1"
     inkscape:current-layer="svg12" />
  <path
     style="color:#000000;fill:currentColor;stroke-linecap:round;stroke-linejoin:round;-inkscape-stroke:none"
     d="M 9,2.25 C 5.280964,2.25 2.25,5.280964 2.25,9 v 6 c 0,3.719027 3.0309625,6.75 6.75,6.75 h 6 c 3.719029,0 6.75,-3.030971 6.75,-6.75 V 9 C 21.75,5.2809625 18.719027,2.25 15,2.25 Z m 0,1.5 h 6 c 2.908366,0 5.25,2.3416241 5.25,5.25 v 6 c 0,2.908365 -2.341635,5.25 -5.25,5.25 H 9 C 6.0916241,20.25 3.75,17.908366 3.75,15 V 9 C 3.75,6.0916226 6.0916226,3.75 9,3.75 Z"
     id="path2" />
  <path
     style="color:#000000;fill:currentColor;stroke-linecap:round;stroke-linejoin:round;-inkscape-stroke:none"
     d="m 15,2.25 c 0,0 -0.42271,0.00744 -0.939453,0.1796875 C 13.543804,2.6019351 12.869638,2.9428623 12.21875,3.59375 10.916975,4.8955254 9.75,7.3750046 9.75,12 a 0.750075,0.750075 0 0 0 0.75,0.75 h 1.794922 c 0.06233,3.947401 0.484781,6.226499 1.019531,7.429687 0.287683,0.647286 0.608329,1.042673 0.923828,1.279297 0.15775,0.118313 0.311381,0.195232 0.445313,0.238282 C 14.817525,21.740315 15,21.75 15,21.75 A 0.75,0.75 0 0 0 15.75,21 0.75,0.75 0 0 0 15,20.25 c 0,0 0.119975,0.0097 0.144531,0.01758 0.02456,0.0079 0.02194,0.0145 -0.0078,-0.0078 -0.0595,-0.04462 -0.238855,-0.211741 -0.451172,-0.689454 C 14.260913,18.614887 13.75,16.44444 13.75,12 A 0.750075,0.750075 0 0 0 13,11.25 H 11.349609 C 11.494508,7.5283253 12.404757,5.5327426 13.28125,4.65625 13.755361,4.1821388 14.206197,3.9605646 14.533203,3.8515625 14.860209,3.7425604 15,3.75 15,3.75 A 0.75,0.75 0 0 0 15.75,3 0.75,0.75 0 0 0 15,2.25 Z"
     id="path4" />
  <path
     style="color:#000000;fill:currentColor;stroke-linecap:round;stroke-linejoin:round;-inkscape-stroke:none"
     d="m 7.6054687,13.757813 a 0.75,0.75 0 0 0 -0.5546875,0.142578 0.75,0.75 0 0 0 -0.1503906,1.048828 c 0,0 1.7662794,2.300781 5.0996094,2.300781 3.33333,0 5.099609,-2.300781 5.099609,-2.300781 a 0.75,0.75 0 0 0 -0.15039,-1.048828 0.75,0.75 0 0 0 -1.048828,0.15039 c 0,0 -1.233727,1.699219 -3.900391,1.699219 -2.666664,0 -3.9003906,-1.699219 -3.9003906,-1.699219 A 0.75,0.75 0 0 0 7.6054687,13.757813 Z"
     id="path6" />
  <path
     style="color:#000000;fill:currentColor;stroke-linecap:round;stroke-linejoin:round;-inkscape-stroke:none"
     d="M 7,8.25 A 0.75,0.75 0 0 0 6.25,9 v 2 A 0.75,0.75 0 0 0 7,11.75 0.75,0.75 0 0 0 7.75,11 V 9 A 0.75,0.75 0 0 0 7,8.25 Z"
     id="path8" />
  <path
     style="color:#000000;fill:currentColor;stroke-linecap:round;stroke-linejoin:round;-inkscape-stroke:none"
     d="M 17,8.25 A 0.75,0.75 0 0 0 16.25,9 v 2 A 0.75,0.75 0 0 0 17,11.75 0.75,0.75 0 0 0 17.75,11 V 9 A 0.75,0.75 0 0 0 17,8.25 Z"
     id="path10" />
</svg>
