<?xml version="1.0" encoding="UTF-8" standalone="no"?>
<svg
   width="24"
   height="24"
   stroke-width="1.5"
   viewBox="0 0 24 24"
   fill="none"
   version="1.1"
   id="svg20"
   sodipodi:docname="fingerprint.svg"
   inkscape:version="1.2.1 (9c6d41e410, 2022-07-14)"
   xmlns:inkscape="http://www.inkscape.org/namespaces/inkscape"
   xmlns:sodipodi="http://sodipodi.sourceforge.net/DTD/sodipodi-0.dtd"
   xmlns="http://www.w3.org/2000/svg"
   xmlns:svg="http://www.w3.org/2000/svg">
  <defs
     id="defs24" />
  <sodipodi:namedview
     id="namedview22"
     pagecolor="#ffffff"
     bordercolor="#666666"
     borderopacity="1.0"
     inkscape:showpageshadow="2"
     inkscape:pageopacity="0.0"
     inkscape:pagecheckerboard="0"
     inkscape:deskcolor="#d1d1d1"
     showgrid="false"
     inkscape:zoom="34.541667"
     inkscape:cx="10.364294"
     inkscape:cy="12.014475"
     inkscape:window-width="1920"
     inkscape:window-height="1009"
     inkscape:window-x="1912"
     inkscape:window-y="-8"
     inkscape:window-maximized="1"
     inkscape:current-layer="svg20" />
  <path
     style="color:#000000;fill:currentColor;stroke-linecap:round;stroke-linejoin:round;-inkscape-stroke:none"
     d="M 12,1.25 C 9.9990264,1.25 8.1310956,1.8556658 6.5820312,2.8925781 A 0.75,0.75 0 0 0 6.3769531,3.9335938 0.75,0.75 0 0 0 7.4179687,4.1386719 C 8.7291015,3.2610261 10.300777,2.75 12,2.75 c 3.768505,0 6.935426,2.518093 7.927734,5.9570313 a 0.75,0.75 0 0 0 0.927735,0.5136718 0.75,0.75 0 0 0 0.513672,-0.9277343 C 20.194851,4.2233546 16.437686,1.25 12,1.25 Z"
     id="path2" />
  <path
     style="color:#000000;fill:currentColor;stroke-linecap:round;stroke-linejoin:round;-inkscape-stroke:none"
     d="M 21,13.25 A 0.75,0.75 0 0 0 20.25,14 v 8 A 0.75,0.75 0 0 0 21,22.75 0.75,0.75 0 0 0 21.75,22 V 14 A 0.75,0.75 0 0 0 21,13.25 Z"
     id="path4" />
  <path
     style="color:#000000;fill:currentColor;stroke-linecap:round;stroke-linejoin:round;-inkscape-stroke:none"
     d="M 3.7617188,7.2929687 A 0.75,0.75 0 0 0 2.8046875,7.75 C 2.4451761,8.7671377 2.25,9.8623138 2.25,11 V 22 A 0.75,0.75 0 0 0 3,22.75 0.75,0.75 0 0 0 3.75,22 V 11 c 0,-0.966132 0.164942,-1.8904596 0.46875,-2.75 A 0.75,0.75 0 0 0 3.7617188,7.2929687 Z"
     id="path6" />
  <path
     style="color:#000000;fill:currentColor;stroke-linecap:round;stroke-linejoin:round;-inkscape-stroke:none"
     d="m 12,4.25 c -3.7393033,0 -6.75,3.1853662 -6.75,7.050781 V 14 A 0.75,0.75 0 0 0 6,14.75 0.75,0.75 0 0 0 6.75,14 V 11.300781 C 6.75,8.2074232 9.1118899,5.75 12,5.75 c 2.888099,0 5.25,2.4574247 5.25,5.550781 V 22 A 0.75,0.75 0 0 0 18,22.75 0.75,0.75 0 0 0 18.75,22 V 11.300781 C 18.75,7.4353648 15.739295,4.25 12,4.25 Z"
     id="path8" />
  <path
     style="color:#000000;fill:currentColor;stroke-linecap:round;stroke-linejoin:round;-inkscape-stroke:none"
     d="M 6,17.25 A 0.75,0.75 0 0 0 5.25,18 v 4 A 0.75,0.75 0 0 0 6,22.75 0.75,0.75 0 0 0 6.75,22 V 18 A 0.75,0.75 0 0 0 6,17.25 Z"
     id="path10" />
  <path
     style="color:#000000;fill:currentColor;stroke-linecap:round;stroke-linejoin:round;-inkscape-stroke:none"
     d="m 12,7.25 c -2.0824818,0 -3.75,1.7746779 -3.75,3.900391 V 22 A 0.75,0.75 0 0 0 9,22.75 0.75,0.75 0 0 0 9.75,22 V 11.150391 C 9.75,9.7967068 10.768685,8.75 12,8.75 c 0.64303,0 1.217063,0.2808674 1.632813,0.7480469 a 0.75,0.75 0 0 0 1.058593,0.0625 0.75,0.75 0 0 0 0.06055,-1.0585938 C 14.072504,7.7384538 13.087569,7.25 12,7.25 Z"
     id="path12" />
  <path
     style="color:#000000;fill:currentColor;stroke-linecap:round;stroke-linejoin:round;-inkscape-stroke:none"
     d="M 15,13.25 A 0.75,0.75 0 0 0 14.25,14 v 8 A 0.75,0.75 0 0 0 15,22.75 0.75,0.75 0 0 0 15.75,22 V 14 A 0.75,0.75 0 0 0 15,13.25 Z"
     id="path14" />
  <path
     style="color:#000000;fill:currentColor;stroke-linecap:round;stroke-linejoin:round;-inkscape-stroke:none"
     d="M 12,17.75 A 0.75,0.75 0 0 0 11.25,18.5 V 22 A 0.75,0.75 0 0 0 12,22.75 0.75,0.75 0 0 0 12.75,22 V 18.5 A 0.75,0.75 0 0 0 12,17.75 Z"
     id="path16" />
  <path
     style="color:#000000;fill:currentColor;stroke-linecap:round;stroke-linejoin:round;-inkscape-stroke:none"
     d="M 12,10.25 A 0.75,0.75 0 0 0 11.25,11 v 3 A 0.75,0.75 0 0 0 12,14.75 0.75,0.75 0 0 0 12.75,14 V 11 A 0.75,0.75 0 0 0 12,10.25 Z"
     id="path18" />
</svg>
