<?xml version="1.0" encoding="UTF-8" standalone="no"?>
<svg
   width="24"
   height="24"
   stroke-width="1.5"
   viewBox="0 0 24 24"
   fill="none"
   version="1.1"
   id="svg10"
   sodipodi:docname="fingerprint-check-circle.svg"
   inkscape:version="1.2.1 (9c6d41e410, 2022-07-14)"
   xmlns:inkscape="http://www.inkscape.org/namespaces/inkscape"
   xmlns:sodipodi="http://sodipodi.sourceforge.net/DTD/sodipodi-0.dtd"
   xmlns="http://www.w3.org/2000/svg"
   xmlns:svg="http://www.w3.org/2000/svg">
  <defs
     id="defs14" />
  <sodipodi:namedview
     id="namedview12"
     pagecolor="#ffffff"
     bordercolor="#666666"
     borderopacity="1.0"
     inkscape:showpageshadow="2"
     inkscape:pageopacity="0.0"
     inkscape:pagecheckerboard="0"
     inkscape:deskcolor="#d1d1d1"
     showgrid="false"
     inkscape:zoom="34.541667"
     inkscape:cx="10.364294"
     inkscape:cy="12.014475"
     inkscape:window-width="1920"
     inkscape:window-height="1009"
     inkscape:window-x="1912"
     inkscape:window-y="-8"
     inkscape:window-maximized="1"
     inkscape:current-layer="svg10" />
  <path
     style="color:#000000;fill:currentColor;stroke-linecap:round;stroke-linejoin:round;-inkscape-stroke:none"
     d="m 12,6.25 c -1.159502,0 -2.2453219,0.3040315 -3.15625,0.8359375 A 0.75,0.75 0 0 0 8.5742188,8.1132813 0.75,0.75 0 0 0 9.5996094,8.3828125 C 10.27764,7.9868994 11.103704,7.75 12,7.75 c 1.987631,0 3.605277,1.1641471 4.091797,2.634766 a 0.75,0.75 0 0 0 0.949219,0.476562 0.75,0.75 0 0 0 0.476562,-0.9472655 C 16.8003,7.7459246 14.571364,6.25 12,6.25 Z M 7.5664062,9.2128906 A 0.75,0.75 0 0 0 6.5898437,9.6269531 C 6.3708159,10.167491 6.25,10.753277 6.25,11.361328 V 16 A 0.75,0.75 0 0 0 7,16.75 0.75,0.75 0 0 0 7.75,16 v -4.638672 c 0,-0.411347 0.080997,-0.802994 0.2304687,-1.171875 A 0.75,0.75 0 0 0 7.5664062,9.2128906 Z M 17,12.064453 a 0.75,0.75 0 0 0 -0.75,0.75 V 16 A 0.75,0.75 0 0 0 17,16.75 0.75,0.75 0 0 0 17.75,16 v -3.185547 a 0.75,0.75 0 0 0 -0.75,-0.75 z"
     id="path2" />
  <path
     style="color:#000000;fill:currentColor;stroke-linecap:round;stroke-linejoin:round;-inkscape-stroke:none"
     d="m 12,9.25 c -1.480119,0 -2.75,1.142711 -2.75,2.603516 v 0.792968 a 0.75,0.75 0 0 0 0.75,0.75 0.75,0.75 0 0 0 0.75,-0.75 V 11.853516 C 10.75,11.267722 11.270921,10.75 12,10.75 c 0.729079,0 1.25,0.517722 1.25,1.103516 V 17 A 0.75,0.75 0 0 0 14,17.75 0.75,0.75 0 0 0 14.75,17 V 11.853516 C 14.75,10.392711 13.480119,9.25 12,9.25 Z m -2,4.824219 a 0.75,0.75 0 0 0 -0.75,0.75 V 17 A 0.75,0.75 0 0 0 10,17.75 0.75,0.75 0 0 0 10.75,17 v -2.175781 a 0.75,0.75 0 0 0 -0.75,-0.75 z"
     id="path4" />
  <path
     style="color:#000000;fill:currentColor;stroke-linecap:round;stroke-linejoin:round;-inkscape-stroke:none"
     d="M 12,1.25 C 6.0718263,1.25 1.25,6.0718263 1.25,12 1.25,17.928127 6.0718217,22.75 12,22.75 A 0.75,0.75 0 0 0 12.75,22 0.75,0.75 0 0 0 12,21.25 C 6.8824893,21.25 2.75,17.117462 2.75,12 2.75,6.8824848 6.8824848,2.75 12,2.75 c 5.117462,0 9.25,4.1324893 9.25,9.25 0,0.968467 -0.148905,1.899962 -0.423828,2.775391 a 0.75,0.75 0 0 0 0.492187,0.939453 0.75,0.75 0 0 0 0.939453,-0.490235 C 22.577688,14.20604 22.75,13.121931 22.75,12 22.75,6.0718217 17.928127,1.25 12,1.25 Z"
     id="path6" />
  <path
     style="color:#000000;fill:currentColor;stroke-linecap:round;stroke-linejoin:round;-inkscape-stroke:none"
     d="m 22.5,16.75 a 0.75,0.75 0 0 0 -0.53125,0.21875 L 17.5,21.4375 16.03125,19.96875 a 0.75,0.75 0 0 0 -1.0625,0 0.75,0.75 0 0 0 0,1.0625 l 2,2 a 0.750075,0.750075 0 0 0 1.0625,0 l 5,-5 a 0.75,0.75 0 0 0 0,-1.0625 A 0.75,0.75 0 0 0 22.5,16.75 Z"
     id="path8" />
</svg>
