<?xml version="1.0" encoding="UTF-8" standalone="no"?>
<svg
   width="24"
   stroke-width="1.5"
   height="24"
   viewBox="0 0 24 24"
   fill="none"
   version="1.1"
   id="svg6"
   sodipodi:docname="fire-flame.svg"
   inkscape:version="1.2.1 (9c6d41e410, 2022-07-14)"
   xmlns:inkscape="http://www.inkscape.org/namespaces/inkscape"
   xmlns:sodipodi="http://sodipodi.sourceforge.net/DTD/sodipodi-0.dtd"
   xmlns="http://www.w3.org/2000/svg"
   xmlns:svg="http://www.w3.org/2000/svg">
  <defs
     id="defs10" />
  <sodipodi:namedview
     id="namedview8"
     pagecolor="#ffffff"
     bordercolor="#666666"
     borderopacity="1.0"
     inkscape:showpageshadow="2"
     inkscape:pageopacity="0.0"
     inkscape:pagecheckerboard="0"
     inkscape:deskcolor="#d1d1d1"
     showgrid="false"
     inkscape:zoom="34.541667"
     inkscape:cx="10.364294"
     inkscape:cy="12.014475"
     inkscape:window-width="1920"
     inkscape:window-height="1009"
     inkscape:window-x="1912"
     inkscape:window-y="-8"
     inkscape:window-maximized="1"
     inkscape:current-layer="svg6" />
  <path
     style="color:#000000;fill:currentColor;stroke-linecap:round;stroke-linejoin:round;-inkscape-stroke:none"
     d="m 10.900391,8.2578125 a 0.750075,0.750075 0 0 0 -0.570313,0.40625 C 8.8355148,11.653189 7.25,14.582025 7.25,18 c 0,1.392803 0.6027483,2.470539 1.5273438,3.042969 C 9.7019392,21.615398 10.829206,21.75 12,21.75 c 1.022814,0 1.922753,-0.166351 2.671875,-0.552734 0.749122,-0.386384 1.330651,-1.016619 1.626953,-1.808594 0.592603,-1.58395 0.165658,-3.635481 -1.128906,-6.224609 a 0.750075,0.750075 0 0 0 -1.261719,-0.125 c -0.811834,1.043786 -1.33645,1.200602 -1.425781,1.191406 -0.04467,-0.0046 -0.08413,-0.01293 -0.1875,-0.134766 C 12.191549,13.973871 12.06404,13.743442 11.958984,13.441406 11.53876,12.233262 11.542716,9.9248375 11.728516,9.1816406 A 0.750075,0.750075 0 0 0 10.900391,8.2578125 Z m -0.632813,4.0957035 c 0.07749,0.53885 0.104472,1.094301 0.273438,1.580078 0.144943,0.416713 0.329935,0.803473 0.609375,1.132812 0.279439,0.32934 0.693103,0.606161 1.179687,0.65625 0.655604,0.06749 1.260357,-0.311234 1.869141,-0.867187 0.738637,1.812742 0.981204,3.241707 0.695312,4.005859 -0.17136,0.458024 -0.447526,0.76529 -0.910156,1.003906 C 13.521745,20.10385 12.856534,20.25 12,20.25 10.961656,20.25 10.089524,20.091448 9.5664063,19.767578 9.0432882,19.443709 8.75,19.021994 8.75,18 c 0,-1.925814 0.6784101,-3.773623 1.517578,-5.646484 z"
     id="path2" />
  <path
     style="color:#000000;fill:currentColor;stroke-linecap:round;stroke-linejoin:round;-inkscape-stroke:none"
     d="m 11.59375,2.3691406 c 0,0 -2.0525761,1.3210733 -4.1113281,3.2871094 C 5.4236699,7.6222861 3.25,10.237354 3.25,13.125 c 0,2.633697 0.7969739,4.826793 2.3300781,6.335937 C 7.1131823,20.970082 9.3314751,21.75 12,21.75 c 2.668544,0 4.886822,-0.779917 6.419922,-2.289063 C 19.953022,17.951792 20.75,15.758695 20.75,13.125 20.75,10.237354 18.57633,7.6222861 16.517578,5.65625 14.458826,3.6902139 12.40625,2.3691406 12.40625,2.3691406 a 0.750075,0.750075 0 0 0 -0.8125,0 z M 12,3.9550781 c 0.345008,0.2285441 1.743829,1.1248613 3.482422,2.7851563 C 17.423666,8.5940545 19.25,11.042091 19.25,13.125 c 0,2.3369 -0.67829,4.081876 -1.882813,5.267578 C 16.162665,19.57828 14.380951,20.25 12,20.25 9.6190699,20.25 7.8373406,19.578281 6.6328125,18.392578 5.4282844,17.206875 4.75,15.461898 4.75,13.125 4.75,11.042091 6.5763341,8.5940545 8.5175781,6.7402344 10.256171,5.0799394 11.654992,4.1836222 12,3.9550781 Z"
     id="path4" />
</svg>
