<?xml version="1.0" encoding="UTF-8" standalone="no"?>
<svg
   width="24"
   height="24"
   viewBox="0 0 24 24"
   stroke-width="1.5"
   fill="none"
   version="1.1"
   id="svg8"
   sodipodi:docname="fish.svg"
   inkscape:version="1.2.1 (9c6d41e410, 2022-07-14)"
   xmlns:inkscape="http://www.inkscape.org/namespaces/inkscape"
   xmlns:sodipodi="http://sodipodi.sourceforge.net/DTD/sodipodi-0.dtd"
   xmlns="http://www.w3.org/2000/svg"
   xmlns:svg="http://www.w3.org/2000/svg">
  <defs
     id="defs12" />
  <sodipodi:namedview
     id="namedview10"
     pagecolor="#ffffff"
     bordercolor="#666666"
     borderopacity="1.0"
     inkscape:showpageshadow="2"
     inkscape:pageopacity="0.0"
     inkscape:pagecheckerboard="0"
     inkscape:deskcolor="#d1d1d1"
     showgrid="false"
     inkscape:zoom="34.541667"
     inkscape:cx="10.364294"
     inkscape:cy="12.014475"
     inkscape:window-width="1920"
     inkscape:window-height="1009"
     inkscape:window-x="1912"
     inkscape:window-y="-8"
     inkscape:window-maximized="1"
     inkscape:current-layer="svg8" />
  <path
     style="color:#000000;fill:currentColor;stroke-linecap:round;stroke-linejoin:round;-inkscape-stroke:none"
     d="M 9.5,4.25 A 0.750075,0.750075 0 0 0 8.8300781,5.3359375 C 9.5942639,6.864309 9.6888668,8.1739221 9.7109375,8.6308594 9.4268386,8.8005424 9.004792,9.033762 8.2871094,9.5976563 7.8235654,9.9618699 7.3519256,10.378466 6.96875,10.84375 6.5855744,11.309034 6.2500044,11.833336 6.25,12.5 c -1.56e-5,1.166674 0.7730374,2.21054 1.78125,3.21875 0.8795594,0.879557 2.040125,1.604784 3.21875,2.162109 V 20.5 a 0.750075,0.750075 0 0 0 1.148438,0.636719 l 3.898437,-2.435547 c 0.289839,-0.03903 1.379918,-0.20683 2.708984,-0.992188 1.517388,-0.896638 3.193784,-2.611705 3.732422,-5.574218 a 0.750075,0.750075 0 0 0 -0.06836,-0.470703 C 21.352841,9.0299016 19.703654,7.7520816 18.353516,7.1835937 17.251099,6.7194116 16.65425,6.8167657 16.345703,6.8359375 16.095633,6.5955006 13.601774,4.25 9.5,4.25 Z m 1.064453,1.6523437 C 13.580163,6.2913497 15.46875,8.03125 15.46875,8.03125 a 0.750075,0.750075 0 0 0 0.636719,0.2109375 c 0,0 0.641156,-0.1073074 1.666015,0.3242188 0.978786,0.4121263 2.249448,1.3937365 3.392578,3.5351567 -0.507738,2.340879 -1.736614,3.615225 -2.919921,4.314453 -1.23261,0.72836 -2.31836,0.83789 -2.31836,0.83789 a 0.750075,0.750075 0 0 0 -0.324218,0.109375 L 12.75,19.144531 V 17.5 A 0.750075,0.750075 0 0 0 12.279297,16.802734 C 11.149359,16.350759 9.9605405,15.523038 9.09375,14.65625 8.2269595,13.789462 7.7499956,12.833324 7.75,12.5 c 6e-7,-0.08333 0.1019254,-0.371535 0.375,-0.703125 0.2730746,-0.33159 0.6764368,-0.696246 1.0878906,-1.019531 C 10.024246,10.139849 10.826637,9.6792278 10.849609,9.6660156 10.864558,9.659161 11.756211,9.25 12.5,9.25 A 0.75,0.75 0 0 0 13.25,8.5 0.75,0.75 0 0 0 12.5,7.75 c -0.715902,0 -0.902947,0.1696854 -1.337891,0.3320313 -0.05481,-0.5519001 -0.28926,-1.2385923 -0.597656,-2.1796876 z"
     id="path2" />
  <path
     style="color:#000000;fill:currentColor;stroke-linecap:round;stroke-linejoin:round;-inkscape-stroke:none"
     d="M 2,8.75 A 0.750075,0.750075 0 0 0 1.2890625,9.7363281 L 2.2089844,12.5 1.2890625,15.263672 A 0.750075,0.750075 0 0 0 2,16.25 c 0,0 1.3330342,0.0083 2.7148437,-0.40625 C 5.4057485,15.636479 6.1287558,15.323768 6.7207031,14.791016 7.3126505,14.258263 7.75,13.458332 7.75,12.5 7.75,11.541668 7.3126505,10.741737 6.7207031,10.208984 6.1287558,9.6762318 5.4057485,9.3635214 4.7148437,9.15625 3.3330342,8.7417071 2,8.75 2,8.75 Z m 1.09375,1.664063 c 0.4370427,0.04212 0.6083857,0.0048 1.1914062,0.179687 0.559094,0.167728 1.0860889,0.417519 1.4316407,0.728516 C 6.0623486,11.633262 6.25,11.958334 6.25,12.5 6.25,13.041666 6.0623486,13.366738 5.7167969,13.677734 5.3712451,13.988731 4.8442502,14.238522 4.2851562,14.40625 3.7021357,14.581156 3.5307927,14.543814 3.09375,14.585938 l 0.6171875,-1.84961 a 0.750075,0.750075 0 0 0 0,-0.472656 z"
     id="path4" />
  <path
     style="color:#000000;fill:currentColor;stroke-linecap:round;stroke-linejoin:round;-inkscape-stroke:none"
     d="m 16.970703,11.25 a 0.75,0.75 0 0 0 -0.517578,0.246094 l -0.0098,0.01172 a 0.75,0.75 0 0 0 0.05469,1.058593 0.75,0.75 0 0 0 1.058594,-0.05469 L 17.566406,12.5 A 0.75,0.75 0 0 0 17.511719,11.441406 0.75,0.75 0 0 0 16.970703,11.25 Z"
     id="path6" />
</svg>
