<?xml version="1.0" encoding="UTF-8" standalone="no"?>
<svg
   width="24"
   stroke-width="1.5"
   height="24"
   viewBox="0 0 24 24"
   fill="none"
   version="1.1"
   id="svg12"
   sodipodi:docname="flask.svg"
   inkscape:version="1.2.1 (9c6d41e410, 2022-07-14)"
   xmlns:inkscape="http://www.inkscape.org/namespaces/inkscape"
   xmlns:sodipodi="http://sodipodi.sourceforge.net/DTD/sodipodi-0.dtd"
   xmlns="http://www.w3.org/2000/svg"
   xmlns:svg="http://www.w3.org/2000/svg">
  <defs
     id="defs16" />
  <sodipodi:namedview
     id="namedview14"
     pagecolor="#ffffff"
     bordercolor="#666666"
     borderopacity="1.0"
     inkscape:showpageshadow="2"
     inkscape:pageopacity="0.0"
     inkscape:pagecheckerboard="0"
     inkscape:deskcolor="#d1d1d1"
     showgrid="false"
     inkscape:zoom="34.541667"
     inkscape:cx="10.364294"
     inkscape:cy="12.014475"
     inkscape:window-width="1920"
     inkscape:window-height="1009"
     inkscape:window-x="1912"
     inkscape:window-y="-8"
     inkscape:window-maximized="1"
     inkscape:current-layer="svg12" />
  <path
     style="color:#000000;fill:currentColor;stroke-linejoin:round;-inkscape-stroke:none"
     d="m 5.5,14.25 v 1.5 h 13 v -1.5 z"
     id="path2" />
  <path
     style="color:#000000;fill:currentColor;stroke-linecap:round;stroke-linejoin:round;-inkscape-stroke:none"
     d="M 8,3.25 A 0.75,0.75 0 0 0 7.25,4 0.75,0.75 0 0 0 8,4.75 h 8 A 0.75,0.75 0 0 0 16.75,4 0.75,0.75 0 0 0 16,3.25 Z"
     id="path4" />
  <path
     style="color:#000000;fill:currentColor;stroke-linecap:round;stroke-linejoin:round;-inkscape-stroke:none"
     d="M 9,3.75 A 0.75,0.75 0 0 0 8.25,4.5 v 5.759766 c 0,0.298535 -0.1064351,0.587712 -0.3007813,0.814453 L 2.9121094,16.951172 C 2.4850362,17.449431 2.25,18.08397 2.25,18.740234 V 19 c 0,1.509917 1.2401154,2.75 2.75,2.75 h 14 c 1.509904,0 2.75,-1.240096 2.75,-2.75 v -0.259766 c 0,-0.656285 -0.235062,-1.290817 -0.662109,-1.789062 l -5.03711,-5.876953 C 15.856429,10.847464 15.75,10.55828 15.75,10.259766 V 4.5 A 0.75,0.75 0 0 0 15,3.75 0.75,0.75 0 0 0 14.25,4.5 v 5.759766 c 0,0.656285 0.235062,1.290817 0.662109,1.789062 l 5.03711,5.876953 C 20.143571,18.152536 20.25,18.44172 20.25,18.740234 V 19 c 0,0.699294 -0.550706,1.25 -1.25,1.25 H 5 C 4.3007468,20.25 3.75,19.699281 3.75,19 v -0.259766 c 0,-0.298535 0.1064351,-0.587712 0.3007812,-0.814453 L 9.0878906,12.048828 C 9.5149638,11.550569 9.75,10.91603 9.75,10.259766 V 4.5 A 0.75,0.75 0 0 0 9,3.75 Z"
     id="path6" />
  <path
     style="color:#000000;fill:currentColor;stroke-linecap:round;stroke-linejoin:round;-inkscape-stroke:none"
     d="m 12.511719,8.4414063 a 0.75,0.75 0 0 0 -1.058594,0.056641 l -0.0098,0.00977 a 0.75,0.75 0 0 0 0.05469,1.0605469 0.75,0.75 0 0 0 1.058594,-0.056641 L 12.568359,9.5 a 0.75,0.75 0 0 0 -0.05664,-1.0585937 z"
     id="path8" />
  <path
     style="color:#000000;fill:currentColor;stroke-linecap:round;stroke-linejoin:round;-inkscape-stroke:none"
     d="m 11.511719,1.4414062 a 0.75,0.75 0 0 0 -1.058594,0.056641 l -0.0098,0.00977 a 0.75,0.75 0 0 0 0.05469,1.0605469 0.75,0.75 0 0 0 1.058594,-0.056641 L 11.568359,2.5 a 0.75,0.75 0 0 0 -0.05664,-1.0585938 z"
     id="path10" />
</svg>
