<?xml version="1.0" encoding="UTF-8" standalone="no"?>
<svg
   width="24"
   height="24"
   viewBox="0 0 24 24"
   stroke-width="1.5"
   fill="none"
   version="1.1"
   id="svg4"
   sodipodi:docname="flash.svg"
   inkscape:version="1.2.1 (9c6d41e410, 2022-07-14)"
   xmlns:inkscape="http://www.inkscape.org/namespaces/inkscape"
   xmlns:sodipodi="http://sodipodi.sourceforge.net/DTD/sodipodi-0.dtd"
   xmlns="http://www.w3.org/2000/svg"
   xmlns:svg="http://www.w3.org/2000/svg">
  <defs
     id="defs8" />
  <sodipodi:namedview
     id="namedview6"
     pagecolor="#ffffff"
     bordercolor="#666666"
     borderopacity="1.0"
     inkscape:showpageshadow="2"
     inkscape:pageopacity="0.0"
     inkscape:pagecheckerboard="0"
     inkscape:deskcolor="#d1d1d1"
     showgrid="false"
     inkscape:zoom="34.541667"
     inkscape:cx="10.364294"
     inkscape:cy="12.014475"
     inkscape:window-width="1920"
     inkscape:window-height="1009"
     inkscape:window-x="1912"
     inkscape:window-y="-8"
     inkscape:window-maximized="1"
     inkscape:current-layer="svg4" />
  <path
     style="color:#000000;fill:currentColor;stroke-linecap:round;stroke-linejoin:round;-inkscape-stroke:none"
     d="M 13.232422,2.2871094 A 0.750075,0.750075 0 0 0 12.392578,2.5585938 L 4.3925781,13.558594 A 0.750075,0.750075 0 0 0 5,14.75 h 5.25 V 21 a 0.750075,0.750075 0 0 0 1.357422,0.441406 l 8,-11 A 0.750075,0.750075 0 0 0 19,9.25 H 13.75 V 3 A 0.750075,0.750075 0 0 0 13.232422,2.2871094 Z M 12.25,5.3085937 V 10 A 0.750075,0.750075 0 0 0 13,10.75 h 4.525391 L 11.75,18.691406 V 14 A 0.750075,0.750075 0 0 0 11,13.25 H 6.4746094 Z"
     id="path2" />
</svg>
