<?xml version="1.0" encoding="UTF-8" standalone="no"?>
<svg
   width="24"
   height="24"
   viewBox="0 0 24 24"
   stroke-width="1.5"
   fill="none"
   version="1.1"
   id="svg6"
   sodipodi:docname="flash-off.svg"
   inkscape:version="1.2.1 (9c6d41e410, 2022-07-14)"
   xmlns:inkscape="http://www.inkscape.org/namespaces/inkscape"
   xmlns:sodipodi="http://sodipodi.sourceforge.net/DTD/sodipodi-0.dtd"
   xmlns="http://www.w3.org/2000/svg"
   xmlns:svg="http://www.w3.org/2000/svg">
  <defs
     id="defs10" />
  <sodipodi:namedview
     id="namedview8"
     pagecolor="#ffffff"
     bordercolor="#666666"
     borderopacity="1.0"
     inkscape:showpageshadow="2"
     inkscape:pageopacity="0.0"
     inkscape:pagecheckerboard="0"
     inkscape:deskcolor="#d1d1d1"
     showgrid="false"
     inkscape:zoom="34.541667"
     inkscape:cx="10.364294"
     inkscape:cy="12.014475"
     inkscape:window-width="1920"
     inkscape:window-height="1009"
     inkscape:window-x="1912"
     inkscape:window-y="-8"
     inkscape:window-maximized="1"
     inkscape:current-layer="svg6" />
  <path
     style="color:#000000;fill:currentColor;stroke-linecap:round;stroke-linejoin:round;-inkscape-stroke:none"
     d="m 13.232422,2.2871094 a 0.750075,0.750075 0 0 0 -0.839844,0.2714844 l -2.18164,2.9999999 a 0.75,0.75 0 0 0 0.166015,1.0488282 0.75,0.75 0 0 0 1.046875,-0.1660157 L 12.25,5.3066406 V 10 A 0.750075,0.750075 0 0 0 13,10.75 h 4.527344 l -0.951172,1.308594 a 0.75,0.75 0 0 0 0.164062,1.048828 0.75,0.75 0 0 0 1.048828,-0.166016 l 1.81836,-2.5 A 0.750075,0.750075 0 0 0 19,9.25 H 13.75 V 3 A 0.750075,0.750075 0 0 0 13.232422,2.2871094 Z M 9.2363281,8.1757813 A 0.75,0.75 0 0 0 8.1875,8.3417969 L 4.3925781,13.558594 A 0.750075,0.750075 0 0 0 5,14.75 h 5.25 V 21 a 0.750075,0.750075 0 0 0 1.357422,0.441406 l 4,-5.5 a 0.75,0.75 0 0 0 -0.166016,-1.048828 0.75,0.75 0 0 0 -1.048828,0.166016 L 11.75,18.691406 V 14 A 0.750075,0.750075 0 0 0 11,13.25 H 6.4726562 L 9.4003906,9.2226563 A 0.75,0.75 0 0 0 9.2363281,8.1757813 Z"
     id="path2" />
  <path
     style="color:#000000;fill:currentColor;stroke-linecap:round;stroke-linejoin:round;-inkscape-stroke:none"
     d="m 4,3.25 a 0.75,0.75 0 0 0 -0.53125,0.21875 0.75,0.75 0 0 0 0,1.0625 l 16,16 a 0.75,0.75 0 0 0 1.0625,0 0.75,0.75 0 0 0 0,-1.0625 l -16,-16 A 0.75,0.75 0 0 0 4,3.25 Z"
     id="path4" />
</svg>
