<?xml version="1.0" encoding="UTF-8" standalone="no"?>
<svg
   width="24"
   height="24"
   stroke-width="1.5"
   viewBox="0 0 24 24"
   fill="none"
   version="1.1"
   id="svg14"
   sodipodi:docname="flip.svg"
   inkscape:version="1.2.1 (9c6d41e410, 2022-07-14)"
   xmlns:inkscape="http://www.inkscape.org/namespaces/inkscape"
   xmlns:sodipodi="http://sodipodi.sourceforge.net/DTD/sodipodi-0.dtd"
   xmlns="http://www.w3.org/2000/svg"
   xmlns:svg="http://www.w3.org/2000/svg">
  <defs
     id="defs18" />
  <sodipodi:namedview
     id="namedview16"
     pagecolor="#ffffff"
     bordercolor="#666666"
     borderopacity="1.0"
     inkscape:showpageshadow="2"
     inkscape:pageopacity="0.0"
     inkscape:pagecheckerboard="0"
     inkscape:deskcolor="#d1d1d1"
     showgrid="false"
     inkscape:zoom="34.541667"
     inkscape:cx="10.364294"
     inkscape:cy="12.014475"
     inkscape:window-width="1920"
     inkscape:window-height="1009"
     inkscape:window-x="1912"
     inkscape:window-y="-8"
     inkscape:window-maximized="1"
     inkscape:current-layer="svg14" />
  <path
     style="color:#000000;fill:currentColor;stroke-linecap:round;stroke-linejoin:round;-inkscape-stroke:none"
     d="M 9.6621094,3.2675781 A 0.750075,0.750075 0 0 0 8.8203125,3.6816406 l -7.5,16.0000004 A 0.750075,0.750075 0 0 0 2,20.75 H 9.5 A 0.750075,0.750075 0 0 0 10.25,20 V 4 A 0.750075,0.750075 0 0 0 9.6621094,3.2675781 Z M 8.75,7.3691406 V 19.25 H 3.1796875 Z"
     id="path2" />
  <path
     style="color:#000000;fill:currentColor;stroke-linecap:round;stroke-linejoin:round;-inkscape-stroke:none"
     d="m 20.744141,17.320312 a 0.75,0.75 0 0 0 -0.361329,0.998047 L 20.820312,19.25 H 20.125 a 0.75,0.75 0 0 0 -0.75,0.75 0.75,0.75 0 0 0 0.75,0.75 H 22 a 0.750075,0.750075 0 0 0 0.679687,-1.068359 l -0.9375,-2 a 0.75,0.75 0 0 0 -0.998046,-0.361329 z"
     id="path4" />
  <path
     style="color:#000000;fill:currentColor;stroke-linecap:round;stroke-linejoin:round;-inkscape-stroke:none"
     d="M 14.5,17.25 A 0.75,0.75 0 0 0 13.75,18 v 2 a 0.750075,0.750075 0 0 0 0.75,0.75 h 1.875 A 0.75,0.75 0 0 0 17.125,20 0.75,0.75 0 0 0 16.375,19.25 H 15.25 V 18 A 0.75,0.75 0 0 0 14.5,17.25 Z"
     id="path6" />
  <path
     style="color:#000000;fill:currentColor;stroke-linecap:round;stroke-linejoin:round;-inkscape-stroke:none"
     d="M 14.5,11.25 A 0.75,0.75 0 0 0 13.75,12 v 2 A 0.75,0.75 0 0 0 14.5,14.75 0.75,0.75 0 0 0 15.25,14 V 12 A 0.75,0.75 0 0 0 14.5,11.25 Z"
     id="path8" />
  <path
     style="color:#000000;fill:currentColor;stroke-linecap:round;stroke-linejoin:round;-inkscape-stroke:none"
     d="m 17.931641,11.320313 a 0.75,0.75 0 0 0 -0.361329,0.998046 l 0.9375,2 a 0.75,0.75 0 0 0 0.998047,0.361329 0.75,0.75 0 0 0 0.361328,-0.998047 l -0.9375,-2 a 0.75,0.75 0 0 0 -0.998046,-0.361328 z"
     id="path10" />
  <path
     style="color:#000000;fill:currentColor;stroke-linecap:round;stroke-linejoin:round;-inkscape-stroke:none"
     d="M 14.337891,3.2675781 A 0.750075,0.750075 0 0 0 13.75,4 V 8 A 0.75,0.75 0 0 0 14.5,8.75 0.75,0.75 0 0 0 15.25,8 V 7.3691406 l 0.445313,0.9492188 a 0.75,0.75 0 0 0 0.998046,0.3613281 0.75,0.75 0 0 0 0.361328,-0.9980469 l -1.874999,-4 A 0.750075,0.750075 0 0 0 14.337891,3.2675781 Z"
     id="path12" />
</svg>
