<?xml version="1.0" encoding="UTF-8" standalone="no"?>
<svg
   width="24"
   height="24"
   stroke-width="1.5"
   viewBox="0 0 24 24"
   fill="none"
   version="1.1"
   id="svg14"
   sodipodi:docname="flip-reverse.svg"
   inkscape:version="1.2.1 (9c6d41e410, 2022-07-14)"
   xmlns:inkscape="http://www.inkscape.org/namespaces/inkscape"
   xmlns:sodipodi="http://sodipodi.sourceforge.net/DTD/sodipodi-0.dtd"
   xmlns="http://www.w3.org/2000/svg"
   xmlns:svg="http://www.w3.org/2000/svg">
  <defs
     id="defs18" />
  <sodipodi:namedview
     id="namedview16"
     pagecolor="#ffffff"
     bordercolor="#666666"
     borderopacity="1.0"
     inkscape:showpageshadow="2"
     inkscape:pageopacity="0.0"
     inkscape:pagecheckerboard="0"
     inkscape:deskcolor="#d1d1d1"
     showgrid="false"
     inkscape:zoom="34.541667"
     inkscape:cx="10.364294"
     inkscape:cy="12.014475"
     inkscape:window-width="1920"
     inkscape:window-height="1009"
     inkscape:window-x="1912"
     inkscape:window-y="-8"
     inkscape:window-maximized="1"
     inkscape:current-layer="svg14" />
  <path
     style="color:#000000;fill:currentColor;stroke-linecap:round;stroke-linejoin:round;-inkscape-stroke:none"
     d="M 9.5,11.25 A 0.75,0.75 0 0 0 8.75,12 v 2 A 0.75,0.75 0 0 0 9.5,14.75 0.75,0.75 0 0 0 10.25,14 V 12 A 0.75,0.75 0 0 0 9.5,11.25 Z"
     id="path2" />
  <path
     style="color:#000000;fill:currentColor;stroke-linecap:round;stroke-linejoin:round;-inkscape-stroke:none"
     d="m 5.4941406,11.294922 a 0.75,0.75 0 0 0 -0.4238281,0.386719 l -0.9375,2 a 0.75,0.75 0 0 0 0.3613281,0.998047 0.75,0.75 0 0 0 0.9980469,-0.361329 l 0.9375,-2 A 0.75,0.75 0 0 0 6.0683594,11.320313 0.75,0.75 0 0 0 5.4941406,11.294922 Z"
     id="path4" />
  <path
     style="color:#000000;fill:currentColor;stroke-linecap:round;stroke-linejoin:round;-inkscape-stroke:none"
     d="M 9.5,17.25 A 0.75,0.75 0 0 0 8.75,18 v 1.25 H 7.625 A 0.75,0.75 0 0 0 6.875,20 0.75,0.75 0 0 0 7.625,20.75 H 9.5 A 0.750075,0.750075 0 0 0 10.25,20 V 18 A 0.75,0.75 0 0 0 9.5,17.25 Z"
     id="path6" />
  <path
     style="color:#000000;fill:currentColor;stroke-linecap:round;stroke-linejoin:round;-inkscape-stroke:none"
     d="m 2.6816406,17.294922 a 0.75,0.75 0 0 0 -0.4238281,0.386719 l -0.9375,2 A 0.750075,0.750075 0 0 0 2,20.75 H 3.875 A 0.75,0.75 0 0 0 4.625,20 0.75,0.75 0 0 0 3.875,19.25 H 3.1796875 l 0.4375,-0.931641 A 0.75,0.75 0 0 0 3.2558594,17.320312 0.75,0.75 0 0 0 2.6816406,17.294922 Z"
     id="path8" />
  <path
     style="color:#000000;fill:currentColor;stroke-linecap:round;stroke-linejoin:round;-inkscape-stroke:none"
     d="M 9.6621094,3.2675781 A 0.750075,0.750075 0 0 0 8.8203125,3.6816406 l -1.875,4 A 0.75,0.75 0 0 0 7.3066406,8.6796875 0.75,0.75 0 0 0 8.3046875,8.3183594 L 8.75,7.3691406 V 8 A 0.75,0.75 0 0 0 9.5,8.75 0.75,0.75 0 0 0 10.25,8 V 4 A 0.750075,0.750075 0 0 0 9.6621094,3.2675781 Z"
     id="path10" />
  <path
     style="color:#000000;fill:currentColor;stroke-linecap:round;stroke-linejoin:round;-inkscape-stroke:none"
     d="M 14.337891,3.2675781 A 0.750075,0.750075 0 0 0 13.75,4 v 16 a 0.750075,0.750075 0 0 0 0.75,0.75 H 22 a 0.750075,0.750075 0 0 0 0.679687,-1.068359 L 15.179688,3.6816406 A 0.750075,0.750075 0 0 0 14.337891,3.2675781 Z M 15.25,7.3691406 20.820312,19.25 H 15.25 Z"
     id="path12" />
</svg>
