<?xml version="1.0" encoding="UTF-8" standalone="no"?>
<svg
   width="24"
   height="24"
   stroke-width="1.5"
   viewBox="0 0 24 24"
   fill="none"
   version="1.1"
   id="svg12"
   sodipodi:docname="floppy-disk-arrow-out.svg"
   inkscape:version="1.2.1 (9c6d41e410, 2022-07-14)"
   xmlns:inkscape="http://www.inkscape.org/namespaces/inkscape"
   xmlns:sodipodi="http://sodipodi.sourceforge.net/DTD/sodipodi-0.dtd"
   xmlns="http://www.w3.org/2000/svg"
   xmlns:svg="http://www.w3.org/2000/svg">
  <defs
     id="defs16" />
  <sodipodi:namedview
     id="namedview14"
     pagecolor="#ffffff"
     bordercolor="#666666"
     borderopacity="1.0"
     inkscape:showpageshadow="2"
     inkscape:pageopacity="0.0"
     inkscape:pagecheckerboard="0"
     inkscape:deskcolor="#d1d1d1"
     showgrid="false"
     inkscape:zoom="34.541667"
     inkscape:cx="10.364294"
     inkscape:cy="12.014475"
     inkscape:window-width="1920"
     inkscape:window-height="1009"
     inkscape:window-x="1912"
     inkscape:window-y="-8"
     inkscape:window-maximized="1"
     inkscape:current-layer="svg12" />
  <path
     style="color:#000000;fill:currentColor;stroke-linecap:round;stroke-linejoin:round;-inkscape-stroke:none"
     d="M 5,2.25 C 3.4901018,2.25 2.25,3.4901018 2.25,5 V 6.5 A 0.75,0.75 0 0 0 3,7.25 0.75,0.75 0 0 0 3.75,6.5 V 5 C 3.75,4.3007604 4.3007604,3.75 5,3.75 h 11.171875 c 0.331767,0 0.648148,0.130582 0.882812,0.3652344 l 2.830079,2.8300781 C 20.119408,7.1799421 20.25,7.496294 20.25,7.828125 V 19 c 0,0.699294 -0.550706,1.25 -1.25,1.25 H 5 C 4.3007468,20.25 3.75,19.699281 3.75,19 V 17.5 A 0.75,0.75 0 0 0 3,16.75 0.75,0.75 0 0 0 2.25,17.5 V 19 c 0,1.509917 1.2401154,2.75 2.75,2.75 h 14 c 1.509904,0 2.75,-1.240096 2.75,-2.75 V 7.828125 c 0,-0.729048 -0.28913,-1.4278298 -0.804688,-1.9433594 L 18.115234,3.0546875 C 17.5997,2.5391807 16.900907,2.25 16.171875,2.25 Z"
     id="path2" />
  <path
     style="color:#000000;fill:currentColor;stroke-linecap:round;stroke-linejoin:round;-inkscape-stroke:none"
     d="M 8,2.25 A 0.750075,0.750075 0 0 0 7.25,3 V 8.4003906 C 7.25,9.1370923 7.8629077,9.75 8.5996094,9.75 H 15.400391 C 16.137086,9.75 16.75,9.137047 16.75,8.4003906 V 3 A 0.750075,0.750075 0 0 0 16,2.25 Z m 0.75,1.5 h 6.5 v 4.5 h -6.5 z"
     id="path4" />
  <path
     style="color:#000000;fill:currentColor;stroke-linecap:round;stroke-linejoin:round;-inkscape-stroke:none"
     d="M 15,12.25 A 0.75,0.75 0 0 0 14.25,13 0.75,0.75 0 0 0 15,13.75 h 2.25 V 21 A 0.75,0.75 0 0 0 18,21.75 0.75,0.75 0 0 0 18.75,21 V 13.599609 C 18.75,12.86296 18.13704,12.25 17.400391,12.25 Z"
     id="path6" />
  <path
     style="color:#000000;fill:currentColor;stroke-linecap:round;stroke-linejoin:round;-inkscape-stroke:none"
     d="M 6,16.75 A 0.75,0.75 0 0 0 5.25,17.5 V 21 A 0.75,0.75 0 0 0 6,21.75 0.75,0.75 0 0 0 6.75,21 V 17.5 A 0.75,0.75 0 0 0 6,16.75 Z"
     id="path8" />
  <path
     style="color:#000000;fill:currentColor;stroke-linecap:round;stroke-linejoin:round;-inkscape-stroke:none"
     d="M 4,8.25 A 0.75,0.75 0 0 0 3.46875,8.46875 l -3,3 A 0.75,0.75 0 0 0 0.25,12 0.75,0.75 0 0 0 0.46875,12.53125 l 3,3 a 0.75,0.75 0 0 0 1.0625,0 0.75,0.75 0 0 0 0,-1.0625 L 2.8125,12.75 H 12 A 0.75,0.75 0 0 0 12.75,12 0.75,0.75 0 0 0 12,11.25 H 2.8125 L 4.53125,9.53125 a 0.75,0.75 0 0 0 0,-1.0625 A 0.75,0.75 0 0 0 4,8.25 Z"
     id="path10" />
</svg>
