<?xml version="1.0" encoding="UTF-8" standalone="no"?>
<svg
   width="24"
   height="24"
   stroke-width="1.5"
   viewBox="0 0 24 24"
   fill="none"
   version="1.1"
   id="svg8"
   sodipodi:docname="floppy-disk.svg"
   inkscape:version="1.2.1 (9c6d41e410, 2022-07-14)"
   xmlns:inkscape="http://www.inkscape.org/namespaces/inkscape"
   xmlns:sodipodi="http://sodipodi.sourceforge.net/DTD/sodipodi-0.dtd"
   xmlns="http://www.w3.org/2000/svg"
   xmlns:svg="http://www.w3.org/2000/svg">
  <defs
     id="defs12" />
  <sodipodi:namedview
     id="namedview10"
     pagecolor="#ffffff"
     bordercolor="#666666"
     borderopacity="1.0"
     inkscape:showpageshadow="2"
     inkscape:pageopacity="0.0"
     inkscape:pagecheckerboard="0"
     inkscape:deskcolor="#d1d1d1"
     showgrid="false"
     inkscape:zoom="34.541667"
     inkscape:cx="10.364294"
     inkscape:cy="12.014475"
     inkscape:window-width="1920"
     inkscape:window-height="1009"
     inkscape:window-x="1912"
     inkscape:window-y="-8"
     inkscape:window-maximized="1"
     inkscape:current-layer="svg8" />
  <path
     style="color:#000000;fill:currentColor;-inkscape-stroke:none"
     d="M 5,2.25 C 3.4901018,2.25 2.25,3.4901018 2.25,5 v 14 c 0,1.509917 1.2401154,2.75 2.75,2.75 h 14 c 1.509904,0 2.75,-1.240096 2.75,-2.75 V 7.828125 c 0,-0.729048 -0.28913,-1.4278298 -0.804688,-1.9433594 L 18.115234,3.0546875 C 17.5997,2.5391807 16.900907,2.25 16.171875,2.25 Z m 0,1.5 h 11.171875 c 0.331767,0 0.648148,0.130582 0.882812,0.3652344 l 2.830079,2.8300781 C 20.119408,7.1799421 20.25,7.496294 20.25,7.828125 V 19 c 0,0.699294 -0.550706,1.25 -1.25,1.25 H 5 C 4.3007468,20.25 3.75,19.699281 3.75,19 V 5 C 3.75,4.3007604 4.3007604,3.75 5,3.75 Z"
     id="path2" />
  <path
     style="color:#000000;fill:currentColor;-inkscape-stroke:none"
     d="M 8.5996094,2.25 C 7.8629077,2.25 7.25,2.8629077 7.25,3.5996094 V 8.4003906 C 7.25,9.1370923 7.8629077,9.75 8.5996094,9.75 H 15.400391 C 16.137086,9.75 16.75,9.137047 16.75,8.4003906 V 3.5996094 C 16.75,2.862953 16.137086,2.25 15.400391,2.25 Z M 8.75,3.75 h 6.5 v 4.5 h -6.5 z"
     id="path4" />
  <path
     style="color:#000000;fill:currentColor;-inkscape-stroke:none"
     d="M 6.5996094,12.25 C 5.862953,12.25 5.25,12.862914 5.25,13.599609 V 21.75 h 13.5 V 13.599609 C 18.75,12.86296 18.13704,12.25 17.400391,12.25 Z M 6.75,13.75 h 10.5 v 6.5 H 6.75 Z"
     id="path6" />
</svg>
