<?xml version="1.0" encoding="UTF-8" standalone="no"?>
<svg
   width="24"
   height="24"
   stroke-width="1.5"
   viewBox="0 0 24 24"
   fill="none"
   version="1.1"
   id="svg20"
   sodipodi:docname="flower.svg"
   inkscape:version="1.2.1 (9c6d41e410, 2022-07-14)"
   xmlns:inkscape="http://www.inkscape.org/namespaces/inkscape"
   xmlns:sodipodi="http://sodipodi.sourceforge.net/DTD/sodipodi-0.dtd"
   xmlns="http://www.w3.org/2000/svg"
   xmlns:svg="http://www.w3.org/2000/svg">
  <defs
     id="defs24" />
  <sodipodi:namedview
     id="namedview22"
     pagecolor="#ffffff"
     bordercolor="#666666"
     borderopacity="1.0"
     inkscape:showpageshadow="2"
     inkscape:pageopacity="0.0"
     inkscape:pagecheckerboard="0"
     inkscape:deskcolor="#d1d1d1"
     showgrid="false"
     inkscape:zoom="34.541667"
     inkscape:cx="10.364294"
     inkscape:cy="12.014475"
     inkscape:window-width="1920"
     inkscape:window-height="1009"
     inkscape:window-x="1912"
     inkscape:window-y="-8"
     inkscape:window-maximized="1"
     inkscape:current-layer="svg20" />
  <path
     style="color:#000000;fill:currentColor;stroke-linecap:round;stroke-linejoin:round;stroke-miterlimit:1.5;-inkscape-stroke:none"
     d="m 12,8.25 c -2.0621546,0 -3.75,1.6878514 -3.75,3.75 0,2.062224 1.6878725,3.75 3.75,3.75 2.062203,0 3.75,-1.687797 3.75,-3.75 0,-2.0621275 -1.68777,-3.75 -3.75,-3.75 z m 0,1.5 c 1.251567,0 2.25,0.998531 2.25,2.25 0,1.251594 -0.998406,2.25 -2.25,2.25 -1.251469,0 -2.25,-0.998427 -2.25,-2.25 0,-1.251448 0.998558,-2.25 2.25,-2.25 z"
     id="path2" />
  <path
     style="color:#000000;fill:currentColor;stroke-linecap:round;stroke-linejoin:round;stroke-miterlimit:1.5;-inkscape-stroke:none"
     d="m 11.46875,0.46875 c 0,0 -0.551081,0.5512313 -1.09375,1.3652344 C 9.8323313,2.6479874 9.25,3.7500013 9.25,5 c 0,2.2499978 1.080078,4.3359375 1.080078,4.3359375 a 0.75,0.75 0 0 0 1.00586,0.3339844 0.75,0.75 0 0 0 0.333984,-1.0058594 c 0,0 -0.919922,-1.9140642 -0.919922,-3.6640625 0,-0.7499993 0.41767,-1.6479889 0.875,-2.3339844 0.189041,-0.2835618 0.219937,-0.2810101 0.375,-0.46875 0.155063,0.1877399 0.185959,0.1851882 0.375,0.46875 C 12.83233,3.3520111 13.25,4.2500007 13.25,5 c 0,1.7499982 -0.919922,3.6640625 -0.919922,3.6640625 a 0.75,0.75 0 0 0 0.333985,1.0058594 0.75,0.75 0 0 0 1.005859,-0.3339844 C 13.669922,9.3359375 14.75,7.2499977 14.75,5 14.75,3.7500013 14.167669,2.6479874 13.625,1.8339844 13.082331,1.0199813 12.53125,0.46875 12.53125,0.46875 a 0.750075,0.750075 0 0 0 -1.0625,0 z"
     id="path4" />
  <path
     style="color:#000000;fill:currentColor;stroke-linecap:round;stroke-linejoin:round;stroke-miterlimit:1.5;-inkscape-stroke:none"
     d="M 5,9.25 C 3.7500013,9.25 2.6479874,9.8323313 1.8339844,10.375 1.0199813,10.917669 0.46875,11.46875 0.46875,11.46875 a 0.750075,0.750075 0 0 0 0,1.0625 c 0,0 0.5512313,0.551081 1.3652344,1.09375 C 2.6479874,14.167669 3.7500013,14.75 5,14.75 c 2.2499978,0 4.3359375,-1.080078 4.3359375,-1.080078 A 0.75,0.75 0 0 0 9.6699219,12.664063 0.75,0.75 0 0 0 8.6640625,12.330078 C 8.6640625,12.330078 6.7499983,13.25 5,13.25 4.2500007,13.25 3.3520111,12.83233 2.6660156,12.375 2.3824538,12.185959 2.3850055,12.155063 2.1972656,12 2.3850055,11.844937 2.3824538,11.814041 2.6660156,11.625 3.3520111,11.16767 4.2500007,10.75 5,10.75 c 1.7499982,0 3.6640625,0.919922 3.6640625,0.919922 A 0.75,0.75 0 0 0 9.6699219,11.335938 0.75,0.75 0 0 0 9.3359375,10.330078 C 9.3359375,10.330078 7.2499977,9.25 5,9.25 Z"
     id="path6" />
  <path
     style="color:#000000;fill:currentColor;stroke-linecap:round;stroke-linejoin:round;stroke-miterlimit:1.5;-inkscape-stroke:none"
     d="m 11.335938,14.330078 a 0.75,0.75 0 0 0 -1.00586,0.333985 c 0,0 -1.080078,2.085939 -1.080078,4.335937 0,1.249999 0.5823313,2.352013 1.125,3.166016 0.542669,0.814003 1.09375,1.365234 1.09375,1.365234 a 0.750075,0.750075 0 0 0 1.0625,0 c 0,0 0.551081,-0.551231 1.09375,-1.365234 C 14.167669,21.352013 14.75,20.249999 14.75,19 c 0,-2.249998 -1.080078,-4.335938 -1.080078,-4.335937 a 0.75,0.75 0 0 0 -1.005859,-0.333985 0.75,0.75 0 0 0 -0.333985,1.00586 c 0,0 0.919922,1.914064 0.919922,3.664062 0,0.749999 -0.41767,1.647989 -0.875,2.333984 -0.189041,0.283562 -0.219937,0.281011 -0.375,0.46875 -0.155063,-0.187739 -0.185959,-0.185188 -0.375,-0.46875 C 11.16767,20.647989 10.75,19.749999 10.75,19 c 0,-1.749998 0.919922,-3.664062 0.919922,-3.664062 a 0.75,0.75 0 0 0 -0.333984,-1.00586 z"
     id="path8" />
  <path
     style="color:#000000;fill:currentColor;stroke-linecap:round;stroke-linejoin:round;stroke-miterlimit:1.5;-inkscape-stroke:none"
     d="m 19,9.25 c -2.249998,0 -4.335938,1.080078 -4.335937,1.080078 a 0.75,0.75 0 0 0 -0.333985,1.00586 0.75,0.75 0 0 0 1.00586,0.333984 c 0,0 1.914064,-0.919922 3.664062,-0.919922 0.749999,0 1.647989,0.41767 2.333984,0.875 0.283562,0.189041 0.281011,0.219937 0.46875,0.375 -0.187739,0.155063 -0.185188,0.185959 -0.46875,0.375 C 20.647989,12.83233 19.749999,13.25 19,13.25 c -1.749998,0 -3.664062,-0.919922 -3.664062,-0.919922 a 0.75,0.75 0 0 0 -1.00586,0.333985 0.75,0.75 0 0 0 0.333985,1.005859 c 0,0 2.085939,1.080078 4.335937,1.080078 1.249999,0 2.352013,-0.582331 3.166016,-1.125 0.814003,-0.542669 1.365234,-1.09375 1.365234,-1.09375 a 0.750075,0.750075 0 0 0 0,-1.0625 c 0,0 -0.551231,-0.551081 -1.365234,-1.09375 C 21.352013,9.8323313 20.249999,9.25 19,9.25 Z"
     id="path10" />
  <path
     style="color:#000000;fill:currentColor;stroke-linecap:round;stroke-linejoin:round;stroke-miterlimit:1.5;-inkscape-stroke:none"
     d="M 4.2226562,3.4726563 A 0.750075,0.750075 0 0 0 3.4726563,4.2226562 c 0,0 -4.557e-4,0.7789707 0.1914062,1.7382813 0.1918619,0.9593106 0.5575273,2.1493179 1.4414062,3.0332031 1.5909914,1.5909804 3.828125,2.3027344 3.8281251,2.3027344 A 0.75,0.75 0 0 0 9.8828125,10.822266 0.75,0.75 0 0 0 9.4082031,9.875 c 0,0 -2.0047417,-0.7039692 -3.2421875,-1.9414063 C 5.635686,7.4032604 5.2964559,6.4744682 5.1347656,5.6660156 5.067823,5.3313018 5.0914506,5.3109449 5.0683594,5.0683594 5.3109456,5.0914506 5.3313013,5.067823 5.6660156,5.1347656 6.4744694,5.2964559 7.4032666,5.6356885 7.9335937,6.1660156 9.1710271,7.4034489 9.875,9.4082031 9.875,9.4082031 a 0.75,0.75 0 0 0 0.947266,0.4746094 0.75,0.75 0 0 0 0.474609,-0.9472656 c 0,0 -0.711751,-2.2390943 -2.3027344,-3.8300782 C 8.1102592,4.2215873 6.9182963,3.8559243 5.9589844,3.6640625 4.9996724,3.4722007 4.2226563,3.4726563 4.2226562,3.4726563 Z"
     id="path12" />
  <path
     style="color:#000000;fill:currentColor;stroke-linecap:round;stroke-linejoin:round;stroke-miterlimit:1.5;-inkscape-stroke:none"
     d="m 8.9335938,12.703125 c 0,0 -2.2371387,0.711759 -3.8281251,2.302734 -0.8838933,0.883881 -1.2495433,2.075829 -1.4414062,3.035157 -0.1918629,0.959328 -0.1914062,1.736328 -0.1914062,1.736328 a 0.750075,0.750075 0 0 0 0.7499999,0.75 c 0,0 0.7770167,4.54e-4 1.7363282,-0.191407 0.9593114,-0.19186 2.1512742,-0.55753 3.0351562,-1.441406 1.5909764,-1.591066 2.3027344,-3.828125 2.3027344,-3.828125 A 0.75,0.75 0 0 0 10.822266,14.117188 0.75,0.75 0 0 0 9.875,14.591797 c 0,0 -0.7039454,2.004657 -1.9414063,3.242187 -0.5303265,0.530323 -1.4591238,0.869561 -2.2675781,1.03125 -0.3347145,0.06694 -0.3550698,0.04332 -0.5976562,0.06641 0.023091,-0.242593 -5.371e-4,-0.262935 0.066406,-0.597657 0.1616918,-0.80847 0.5009248,-1.73726 1.03125,-2.267578 C 7.4034464,14.828984 9.4082031,14.125 9.4082031,14.125 A 0.75,0.75 0 0 0 9.8828125,13.177734 0.75,0.75 0 0 0 8.9335938,12.703125 Z"
     id="path14" />
  <path
     style="color:#000000;fill:currentColor;stroke-linecap:round;stroke-linejoin:round;stroke-miterlimit:1.5;-inkscape-stroke:none"
     d="m 15.066406,12.703125 a 0.75,0.75 0 0 0 -0.949218,0.474609 0.75,0.75 0 0 0 0.474609,0.947266 c 0,0 2.004765,0.703984 3.242187,1.941406 0.530317,0.530317 0.869561,1.459107 1.03125,2.267578 0.06694,0.334722 0.04332,0.355064 0.06641,0.597657 -0.242584,-0.02309 -0.262946,5.35e-4 -0.597657,-0.06641 -0.808445,-0.161689 -1.737255,-0.500927 -2.267578,-1.03125 C 14.828959,16.59645 14.125,14.591797 14.125,14.591797 a 0.75,0.75 0 0 0 -0.947266,-0.474609 0.75,0.75 0 0 0 -0.474609,0.949218 c 0,0 0.711784,2.237063 2.302734,3.828125 0.883876,0.883876 2.075853,1.249546 3.035157,1.441406 0.959303,0.191861 1.736328,0.191407 1.736328,0.191407 a 0.750075,0.750075 0 0 0 0.75,-0.75 c 0,0 4.53e-4,-0.777001 -0.191407,-1.736328 -0.191859,-0.959327 -0.557524,-2.151275 -1.441406,-3.035157 -1.590975,-1.590975 -3.828125,-2.302734 -3.828125,-2.302734 z"
     id="path16" />
  <path
     style="color:#000000;fill:currentColor;stroke-linecap:round;stroke-linejoin:round;stroke-miterlimit:1.5;-inkscape-stroke:none"
     d="m 19.777344,3.4726563 c 0,0 -0.777001,-4.552e-4 -1.736328,0.1914062 -0.959328,0.1918614 -2.151275,0.5575186 -3.035157,1.4414062 -1.590975,1.5909864 -2.302734,3.8300782 -2.302734,3.8300782 A 0.75,0.75 0 0 0 13.177734,9.8828125 0.75,0.75 0 0 0 14.125,9.4082031 c 0,0 0.703984,-2.0047567 1.941406,-3.2421875 0.530317,-0.5303209 1.459108,-0.8695592 2.267578,-1.03125 0.334722,-0.066943 0.355064,-0.043315 0.597657,-0.066406 -0.02309,0.2425857 5.36e-4,0.2629422 -0.06641,0.5976562 C 18.703545,6.4744687 18.36431,7.403261 17.833984,7.9335937 16.596446,9.1710533 14.591797,9.875 14.591797,9.875 a 0.75,0.75 0 0 0 -0.474609,0.947266 0.75,0.75 0 0 0 0.949218,0.474609 c 0,0 2.237066,-0.711777 3.828125,-2.3027344 0.883874,-0.8838858 1.249546,-2.0738929 1.441406,-3.0332031 0.191861,-0.9593102 0.191407,-1.7382813 0.191407,-1.7382813 a 0.750075,0.750075 0 0 0 -0.75,-0.7499999 z"
     id="path18" />
</svg>
