<?xml version="1.0" encoding="UTF-8" standalone="no"?>
<svg
   width="24"
   height="24"
   stroke-width="1.5"
   viewBox="0 0 24 24"
   fill="none"
   version="1.1"
   id="svg8"
   sodipodi:docname="folder-minus.svg"
   inkscape:version="1.2.1 (9c6d41e410, 2022-07-14)"
   xmlns:inkscape="http://www.inkscape.org/namespaces/inkscape"
   xmlns:sodipodi="http://sodipodi.sourceforge.net/DTD/sodipodi-0.dtd"
   xmlns="http://www.w3.org/2000/svg"
   xmlns:svg="http://www.w3.org/2000/svg">
  <defs
     id="defs12" />
  <sodipodi:namedview
     id="namedview10"
     pagecolor="#ffffff"
     bordercolor="#666666"
     borderopacity="1.0"
     inkscape:showpageshadow="2"
     inkscape:pageopacity="0.0"
     inkscape:pagecheckerboard="0"
     inkscape:deskcolor="#d1d1d1"
     showgrid="false"
     inkscape:zoom="34.541667"
     inkscape:cx="10.364294"
     inkscape:cy="12.014475"
     inkscape:window-width="1920"
     inkscape:window-height="1009"
     inkscape:window-x="1912"
     inkscape:window-y="-8"
     inkscape:window-maximized="1"
     inkscape:current-layer="svg8" />
  <path
     style="color:#000000;fill:currentColor;stroke-linecap:round;stroke-linejoin:round;-inkscape-stroke:none"
     d="M 18,5.25 A 0.75,0.75 0 0 0 17.25,6 0.75,0.75 0 0 0 18,6.75 h 2 2 A 0.75,0.75 0 0 0 22.75,6 0.75,0.75 0 0 0 22,5.25 h -2 z"
     id="path2" />
  <path
     style="color:#000000;fill:currentColor;stroke-linecap:round;stroke-linejoin:round;-inkscape-stroke:none"
     d="M 2,10.25 A 0.750075,0.750075 0 0 0 1.25,11 v 8.400391 C 1.25,20.137086 1.862953,20.75 2.5996094,20.75 H 21.400391 C 22.13704,20.75 22.75,20.13704 22.75,19.400391 V 11.599609 C 22.75,10.86296 22.13704,10.25 21.400391,10.25 Z m 0.75,1.5 h 18.5 v 7.5 H 2.75 Z"
     id="path4" />
  <path
     style="color:#000000;fill:currentColor;stroke-linecap:round;stroke-linejoin:round;-inkscape-stroke:none"
     d="M 2.5996094,3.25 C 1.8629077,3.25 1.25,3.8629077 1.25,4.5996094 V 11 A 0.75,0.75 0 0 0 2,11.75 0.75,0.75 0 0 0 2.75,11 V 4.75 H 8.7207031 L 11.84375,7.4257812 C 12.088322,7.6355016 12.400571,7.75 12.722656,7.75 H 14 A 0.75,0.75 0 0 0 14.75,7 0.75,0.75 0 0 0 14,6.25 H 12.779297 L 9.65625,3.5742188 C 9.4117205,3.3646317 9.0994491,3.25 8.7773438,3.25 Z"
     id="path6" />
</svg>
