<?xml version="1.0" encoding="UTF-8" standalone="no"?>
<svg
   width="24"
   height="24"
   viewBox="0 0 24 24"
   stroke-width="1.5"
   fill="none"
   version="1.1"
   id="svg12"
   sodipodi:docname="folder-settings.svg"
   inkscape:version="1.2.1 (9c6d41e410, 2022-07-14)"
   xmlns:inkscape="http://www.inkscape.org/namespaces/inkscape"
   xmlns:sodipodi="http://sodipodi.sourceforge.net/DTD/sodipodi-0.dtd"
   xmlns="http://www.w3.org/2000/svg"
   xmlns:svg="http://www.w3.org/2000/svg">
  <defs
     id="defs16" />
  <sodipodi:namedview
     id="namedview14"
     pagecolor="#ffffff"
     bordercolor="#666666"
     borderopacity="1.0"
     inkscape:showpageshadow="2"
     inkscape:pageopacity="0.0"
     inkscape:pagecheckerboard="0"
     inkscape:deskcolor="#d1d1d1"
     showgrid="false"
     inkscape:zoom="34.541667"
     inkscape:cx="10.364294"
     inkscape:cy="12.014475"
     inkscape:window-width="1920"
     inkscape:window-height="1009"
     inkscape:window-x="1912"
     inkscape:window-y="-8"
     inkscape:window-maximized="1"
     inkscape:current-layer="svg12" />
  <path
     style="color:#000000;fill:currentColor;stroke-linecap:round;stroke-linejoin:round;-inkscape-stroke:none"
     d="M 2.5996094,3.25 C 1.8629077,3.25 1.25,3.8629077 1.25,4.5996094 V 10.400391 C 1.25,11.137086 1.862953,11.75 2.5996094,11.75 H 21.400391 C 22.13704,11.75 22.75,11.13704 22.75,10.400391 V 7.5996094 C 22.75,6.862953 22.137086,6.25 21.400391,6.25 H 12.779297 L 9.65625,3.5742188 C 9.4117205,3.3646317 9.0994491,3.25 8.7773438,3.25 Z M 2.75,4.75 H 8.7207031 L 11.84375,7.4257812 C 12.088322,7.6355016 12.400571,7.75 12.722656,7.75 H 21.25 v 2.5 H 2.75 Z"
     id="path2" />
  <path
     style="color:#000000;fill:currentColor;stroke-linecap:round;stroke-linejoin:round;-inkscape-stroke:none"
     d="M 22,9.25 A 0.75,0.75 0 0 0 21.25,10 v 4 A 0.75,0.75 0 0 0 22,14.75 0.75,0.75 0 0 0 22.75,14 V 10 A 0.75,0.75 0 0 0 22,9.25 Z"
     id="path4" />
  <path
     style="color:#000000;fill:currentColor;stroke-linecap:round;stroke-linejoin:round;-inkscape-stroke:none"
     d="M 2,9.25 A 0.75,0.75 0 0 0 1.25,10 v 9.400391 C 1.25,20.137086 1.862953,20.75 2.5996094,20.75 H 13 A 0.75,0.75 0 0 0 13.75,20 0.75,0.75 0 0 0 13,19.25 H 2.75 V 10 A 0.75,0.75 0 0 0 2,9.25 Z"
     id="path6" />
  <path
     style="color:#000000;fill:currentColor;stroke-linecap:round;stroke-linejoin:round;-inkscape-stroke:none"
     d="m 19,16.25 c -0.497981,0 -0.9704,0.135072 -1.375,0.369141 C 16.802807,17.094742 16.25,17.988054 16.25,19 c 0,1.011946 0.552807,1.905258 1.375,2.380859 C 18.0296,21.614928 18.502019,21.75 19,21.75 c 1.509904,0 2.75,-1.240096 2.75,-2.75 0,-1.509904 -1.240096,-2.75 -2.75,-2.75 z m 0,1.5 c 0.699294,0 1.25,0.550706 1.25,1.25 0,0.699294 -0.550706,1.25 -1.25,1.25 -0.230619,0 -0.441201,-0.05968 -0.625,-0.166016 C 18.001594,19.867986 17.75,19.468653 17.75,19 c 0,-0.468653 0.251594,-0.867986 0.625,-1.083984 C 18.558799,17.809684 18.769381,17.75 19,17.75 Z"
     id="path8" />
  <path
     style="color:#000000;fill:currentColor;stroke-linecap:round;stroke-linejoin:round;stroke-dasharray:0.3, 2;-inkscape-stroke:none"
     d="m 18.980469,15.25 -0.07422,0.002 a 0.75,0.75 0 0 0 -0.730469,0.769531 0.75,0.75 0 0 0 0.767578,0.730469 L 19,16.75 l 0.117187,0.0039 0.05078,0.0039 a 0.75,0.75 0 0 0 0.804687,-0.691406 0.75,0.75 0 0 0 -0.691406,-0.804687 l -0.07031,-0.0059 a 0.750075,0.750075 0 0 0 -0.03711,-0.002 L 19.019531,15.25 a 0.750075,0.750075 0 0 0 -0.03906,0 z m -1.839844,0.691406 a 0.75,0.75 0 0 0 -0.544922,0.181641 l -0.103516,0.08984 a 0.750075,0.750075 0 0 0 -0.02734,0.02344 l -0.103516,0.09961 a 0.750075,0.750075 0 0 0 -0.02539,0.02539 l -0.01367,0.01367 a 0.75,0.75 0 0 0 0.02539,1.060547 0.75,0.75 0 0 0 1.060547,-0.02539 v -0.002 l 0.08008,-0.07422 0.08984,-0.07813 a 0.75,0.75 0 0 0 0.07617,-1.058593 0.75,0.75 0 0 0 -0.513672,-0.25586 z m 3.867187,0.09766 a 0.75,0.75 0 0 0 -0.523437,0.232422 0.75,0.75 0 0 0 0.02539,1.058594 l 0.08203,0.07813 0.07422,0.08008 0.0039,0.0039 a 0.75,0.75 0 0 0 1.058594,0.07617 0.75,0.75 0 0 0 0.07617,-1.058593 l -0.01758,-0.01758 a 0.750075,0.750075 0 0 0 -0.02344,-0.02734 l -0.09961,-0.103516 a 0.750075,0.750075 0 0 0 -0.02539,-0.02539 l -0.09375,-0.08984 a 0.75,0.75 0 0 0 -0.53711,-0.207032 z m -4.894531,1.878907 a 0.75,0.75 0 0 0 -0.83789,0.65039 l -0.0039,0.03125 a 0.750075,0.750075 0 0 0 -0.0039,0.03711 l -0.01172,0.152343 a 0.750075,0.750075 0 0 0 -0.002,0.03711 l -0.002,0.117187 A 0.75,0.75 0 0 0 15.982422,19.712891 0.75,0.75 0 0 0 16.75,18.980469 l 0.0039,-0.09766 0.0078,-0.113281 0.002,-0.01172 a 0.75,0.75 0 0 0 -0.650391,-0.839843 z m 5.824219,0.146484 a 0.75,0.75 0 0 0 -0.691406,0.804688 v 0.01367 L 21.25,19 l -0.002,0.09375 a 0.75,0.75 0 0 0 0.730469,0.769531 0.75,0.75 0 0 0 0.767578,-0.732422 L 22.75,19.019531 a 0.750075,0.750075 0 0 0 0,-0.03906 l -0.0039,-0.154297 a 0.750075,0.750075 0 0 0 -0.002,-0.03711 l -0.002,-0.0332 A 0.75,0.75 0 0 0 21.9375,18.064453 Z m -0.705078,2.128906 a 0.75,0.75 0 0 0 -0.513672,0.257813 l -0.05273,0.06055 -0.07422,0.08008 -0.0293,0.02539 a 0.75,0.75 0 0 0 -0.02539,1.060547 0.75,0.75 0 0 0 1.060547,0.02539 l 0.04102,-0.03906 a 0.750075,0.750075 0 0 0 0.02539,-0.02539 l 0.09961,-0.103516 a 0.750075,0.750075 0 0 0 0.02344,-0.02734 l 0.06641,-0.07422 A 0.75,0.75 0 0 0 21.777344,20.375 0.75,0.75 0 0 0 21.232422,20.193359 Z m -5.076172,0.04102 a 0.75,0.75 0 0 0 -0.126953,1.054687 l 0.06641,0.08203 a 0.750075,0.750075 0 0 0 0.02148,0.02734 l 0.0957,0.109375 a 0.750075,0.750075 0 0 0 0.02344,0.02734 l 0.03516,0.03516 a 0.75,0.75 0 0 0 1.060547,0.02539 0.75,0.75 0 0 0 0.02539,-1.060547 l -0.02344,-0.02344 -0.07031,-0.08008 -0.05469,-0.07031 A 0.75,0.75 0 0 0 16.15625,20.234375 Z m 2.490234,0.988281 a 0.75,0.75 0 0 0 -0.839843,0.648438 0.75,0.75 0 0 0 0.65039,0.839843 l 0.142578,0.01758 a 0.750075,0.750075 0 0 0 0.03711,0.0039 l 0.152343,0.01172 a 0.750075,0.750075 0 0 0 0.03711,0.002 h 0.0039 a 0.75,0.75 0 0 0 0.0918,-0.08789 0.75,0.75 0 0 0 0.09766,0.0918 l 0.154297,-0.0039 a 0.750075,0.750075 0 0 0 0.03711,-0.002 l 0.144532,-0.01172 a 0.75,0.75 0 0 0 0.691406,-0.804688 0.75,0.75 0 0 0 -0.804688,-0.691406 l -0.125,0.0098 -0.136718,0.0039 a 0.75,0.75 0 0 0 -0.01758,0.01758 0.75,0.75 0 0 0 -0.09375,-0.02148 l -0.09961,-0.0078 z"
     id="path10" />
</svg>
