<?xml version="1.0" encoding="UTF-8" standalone="no"?>
<svg
   width="24"
   height="24"
   stroke-width="1.5"
   viewBox="0 0 24 24"
   fill="none"
   version="1.1"
   id="svg8"
   sodipodi:docname="font-question.svg"
   inkscape:version="1.2.1 (9c6d41e410, 2022-07-14)"
   xmlns:inkscape="http://www.inkscape.org/namespaces/inkscape"
   xmlns:sodipodi="http://sodipodi.sourceforge.net/DTD/sodipodi-0.dtd"
   xmlns="http://www.w3.org/2000/svg"
   xmlns:svg="http://www.w3.org/2000/svg">
  <defs
     id="defs12" />
  <sodipodi:namedview
     id="namedview10"
     pagecolor="#ffffff"
     bordercolor="#666666"
     borderopacity="1.0"
     inkscape:showpageshadow="2"
     inkscape:pageopacity="0.0"
     inkscape:pagecheckerboard="0"
     inkscape:deskcolor="#d1d1d1"
     showgrid="false"
     inkscape:zoom="34.541667"
     inkscape:cx="10.364294"
     inkscape:cy="12.014475"
     inkscape:window-width="1920"
     inkscape:window-height="1009"
     inkscape:window-x="1912"
     inkscape:window-y="-8"
     inkscape:window-maximized="1"
     inkscape:current-layer="svg8" />
  <path
     style="color:#000000;fill:currentColor;stroke-linecap:round;stroke-linejoin:round;-inkscape-stroke:none"
     d="M 8.7910156,5.9160156 A 0.750075,0.750075 0 0 0 8.1074219,6.3554687 L 3.8496094,15.722656 2.7851563,18.064453 a 0.75,0.75 0 0 0 0.3730468,0.992188 0.75,0.75 0 0 0 0.9941406,-0.371094 l 0.8652344,-1.902344 h 7.5468749 l 0.865235,1.902344 a 0.75,0.75 0 0 0 0.99414,0.371094 0.75,0.75 0 0 0 0.373047,-0.992188 l -1.054687,-2.318359 -0.0098,-0.02344 L 9.4746094,6.3554687 A 0.750075,0.750075 0 0 0 8.7910156,5.9160156 Z m 0,2.5644532 3.0917974,6.8027342 H 5.6992187 Z"
     id="path2" />
  <path
     style="color:#000000;fill:currentColor;stroke-linecap:round;stroke-linejoin:round;-inkscape-stroke:none"
     d="m 18.105469,5.25 c -0.890914,-2.3e-6 -1.792442,0.2782635 -2.498047,0.8769531 -0.705605,0.5986896 -1.179688,1.5401306 -1.179688,2.6679688 a 0.75,0.75 0 0 0 0.75,0.75 0.75,0.75 0 0 0 0.75,-0.75 c 0,-0.73498 0.258259,-1.1926759 0.650391,-1.5253907 C 16.970257,6.9368165 17.532734,6.7499985 18.105469,6.75 c 0.572735,1.5e-6 1.13521,0.1868146 1.527343,0.5195312 0.392134,0.3327167 0.650391,0.7904198 0.650391,1.5253907 0,1.080593 -0.398155,1.2870861 -1.083984,1.9042971 -0.685829,0.617211 -1.578125,1.612978 -1.578125,3.417969 a 0.75,0.75 0 0 0 0.75,0.75 0.75,0.75 0 0 0 0.75,-0.75 c 0,-1.388307 0.437261,-1.724428 1.082031,-2.304688 0.64477,-0.58026 1.580078,-1.436984 1.580078,-3.0175781 0,-1.1278323 -0.474084,-2.0692791 -1.179687,-2.6679688 C 19.897912,5.5282635 18.996383,5.2500023 18.105469,5.25 Z"
     id="path4" />
  <path
     style="color:#000000;fill:currentColor;stroke-linecap:round;stroke-linejoin:round;-inkscape-stroke:none"
     d="m 18.882812,17.814453 a 0.75,0.75 0 0 0 -1.058593,0.05664 l -0.01172,0.01367 a 0.75,0.75 0 0 0 0.05664,1.058593 0.75,0.75 0 0 0 1.060546,-0.05664 l 0.0098,-0.01172 a 0.75,0.75 0 0 0 -0.05664,-1.060547 z"
     id="path6" />
</svg>
