<?xml version="1.0" encoding="UTF-8" standalone="no"?>
<svg
   width="24"
   height="24"
   stroke-width="1.5"
   viewBox="0 0 24 24"
   fill="none"
   version="1.1"
   id="svg4"
   sodipodi:docname="football-ball.svg"
   inkscape:version="1.2.1 (9c6d41e410, 2022-07-14)"
   xmlns:inkscape="http://www.inkscape.org/namespaces/inkscape"
   xmlns:sodipodi="http://sodipodi.sourceforge.net/DTD/sodipodi-0.dtd"
   xmlns="http://www.w3.org/2000/svg"
   xmlns:svg="http://www.w3.org/2000/svg">
  <defs
     id="defs8" />
  <sodipodi:namedview
     id="namedview6"
     pagecolor="#ffffff"
     bordercolor="#666666"
     borderopacity="1.0"
     inkscape:showpageshadow="2"
     inkscape:pageopacity="0.0"
     inkscape:pagecheckerboard="0"
     inkscape:deskcolor="#d1d1d1"
     showgrid="false"
     inkscape:zoom="34.541667"
     inkscape:cx="10.364294"
     inkscape:cy="12.014475"
     inkscape:window-width="1920"
     inkscape:window-height="1009"
     inkscape:window-x="1912"
     inkscape:window-y="-8"
     inkscape:window-maximized="1"
     inkscape:current-layer="svg4" />
  <path
     style="color:#000000;fill:currentColor;stroke-linecap:round;stroke-linejoin:round;-inkscape-stroke:none"
     d="m 17.71875,3.2636719 c -1.013819,-0.052401 -2.31084,-0.046866 -3.695312,0.1054687 a 0.75,0.75 0 0 0 -0.01758,0 c -0.02855,0.00317 -0.04753,-0.00135 -0.07617,0.00195 C 11.42333,3.6603752 8.5782325,4.460841 6.5195312,6.5195312 4.460841,8.5782325 3.6603752,11.42333 3.3710938,13.929688 c -0.00331,0.02864 0.00122,0.04762 -0.00195,0.07617 a 0.75,0.75 0 0 0 0,0.01758 c -0.1523352,1.384472 -0.1578695,2.681493 -0.1054687,3.695312 0.084257,1.629957 1.3875489,2.933397 3.0175781,3.017578 1.0137817,0.0524 2.310856,0.04688 3.6953125,-0.105469 a 0.75,0.75 0 0 0 0.017578,0 c 0.028555,-0.0032 0.047535,0.0014 0.076172,-0.002 2.506391,-0.289272 5.351531,-1.089703 7.410156,-3.148437 2.025025,-2.024918 2.817904,-4.807274 3.11914,-7.283203 a 0.75,0.75 0 0 0 0.0098,-0.04297 c 0.0033,-0.02724 0.0164,-0.05682 0.01953,-0.08398 C 20.793346,8.6457075 20.790057,7.3207457 20.736328,6.28125 20.652147,4.6512208 19.348707,3.3479285 17.71875,3.2636719 Z m -0.07813,1.4980468 c 0.89884,0.046463 1.551237,0.6988281 1.597656,1.5976563 0.02663,0.5151874 -0.0369,1.2309511 -0.05273,1.8671875 L 15.773438,4.8144531 c 0.636237,-0.015853 1.352009,-0.079362 1.867187,-0.052734 z M 13.775391,4.9375 19.0625,10.224609 c -0.298867,2.222547 -1.020021,4.572842 -2.642578,6.195313 -1.622471,1.622557 -3.972766,2.343711 -6.195313,2.642578 L 4.9375,13.775391 C 5.2363719,11.552852 5.957536,9.2026289 7.5800781,7.5800781 9.2026289,5.957536 11.552852,5.2363719 13.775391,4.9375 Z M 12,8.421875 a 0.75,0.75 0 0 0 -0.53125,0.21875 0.75,0.75 0 0 0 0,1.0605469 l 0.884766,0.8847661 -1.767578,1.767578 -0.8847661,-0.884766 a 0.75,0.75 0 0 0 -1.0605469,0 0.75,0.75 0 0 0 0,1.0625 l 0.8828125,0.882813 -0.8828125,0.884765 a 0.75,0.75 0 0 0 0,1.060547 0.75,0.75 0 0 0 1.0605469,0 l 0.8847661,-0.882812 0.882812,0.882812 a 0.75,0.75 0 0 0 1.0625,0 0.75,0.75 0 0 0 0,-1.060547 l -0.884766,-0.884765 1.767579,-1.767579 0.884765,0.884766 a 0.75,0.75 0 0 0 1.060547,0 0.75,0.75 0 0 0 0,-1.0625 l -0.882812,-0.882812 0.882812,-0.8847661 a 0.75,0.75 0 0 0 0,-1.0605469 0.75,0.75 0 0 0 -1.060547,0 L 13.414063,9.5234375 12.53125,8.640625 A 0.75,0.75 0 0 0 12,8.421875 Z m -7.1855469,7.351563 3.4121094,3.412109 c -0.6362364,0.01584 -1.3520001,0.07936 -1.8671875,0.05273 -0.8988282,-0.04642 -1.551193,-0.698816 -1.5976563,-1.597656 -0.026628,-0.515178 0.036882,-1.23095 0.052734,-1.867187 z"
     id="path2" />
</svg>
