<?xml version="1.0" encoding="UTF-8" standalone="no"?>
<svg
   width="24"
   height="24"
   stroke-width="1.5"
   viewBox="0 0 24 24"
   fill="none"
   version="1.1"
   id="svg8"
   sodipodi:docname="football.svg"
   inkscape:version="1.2.1 (9c6d41e410, 2022-07-14)"
   xmlns:inkscape="http://www.inkscape.org/namespaces/inkscape"
   xmlns:sodipodi="http://sodipodi.sourceforge.net/DTD/sodipodi-0.dtd"
   xmlns="http://www.w3.org/2000/svg"
   xmlns:svg="http://www.w3.org/2000/svg">
  <defs
     id="defs12" />
  <sodipodi:namedview
     id="namedview10"
     pagecolor="#ffffff"
     bordercolor="#666666"
     borderopacity="1.0"
     inkscape:showpageshadow="2"
     inkscape:pageopacity="0.0"
     inkscape:pagecheckerboard="0"
     inkscape:deskcolor="#d1d1d1"
     showgrid="false"
     inkscape:zoom="34.541667"
     inkscape:cx="10.364294"
     inkscape:cy="12.014475"
     inkscape:window-width="1920"
     inkscape:window-height="1009"
     inkscape:window-x="1912"
     inkscape:window-y="-8"
     inkscape:window-maximized="1"
     inkscape:current-layer="svg8" />
  <path
     style="color:#000000;fill:currentColor;stroke-linecap:round;stroke-linejoin:round;-inkscape-stroke:none"
     d="m 12,13.078125 a 0.75,0.75 0 0 0 -0.75,0.75 V 21 A 0.75,0.75 0 0 0 12,21.75 0.75,0.75 0 0 0 12.75,21 v -7.171875 a 0.75,0.75 0 0 0 -0.75,-0.75 z"
     id="path2" />
  <path
     style="color:#000000;fill:currentColor;stroke-linecap:round;stroke-linejoin:round;-inkscape-stroke:none"
     d="M 5,2.25 A 0.75,0.75 0 0 0 4.25,3 v 10.828125 a 0.750075,0.750075 0 0 0 0.75,0.75 h 14 a 0.750075,0.750075 0 0 0 0.75,-0.75 V 3 A 0.75,0.75 0 0 0 19,2.25 0.75,0.75 0 0 0 18.25,3 V 13.078125 H 5.75 V 3 A 0.75,0.75 0 0 0 5,2.25 Z"
     id="path4" />
  <path
     style="color:#000000;fill:currentColor;stroke-linecap:round;stroke-linejoin:round;-inkscape-stroke:none"
     d="M 12.824219,2.2050781 C 12.134099,2.1297991 11.355391,2.1974282 10.625,2.6191406 9.1641647,3.4625394 8.8392256,5.1807553 8.7109375,5.9824219 c -0.092428,0.5775584 0.2485404,1.1662638 0.7949219,1.375 0.7584226,0.2897313 2.4083096,0.866812 3.8691406,0.023437 1.460748,-0.8434194 1.785757,-2.5616324 1.914063,-3.3632813 0.09241,-0.5776028 -0.246653,-1.1662428 -0.792969,-1.375 -0.37921,-0.1448778 -0.981755,-0.3622209 -1.671875,-0.4375 z m -0.126953,1.5410157 c 0.402492,0.043066 0.751737,0.1488384 1.046875,0.2460937 C 13.604613,4.6635399 13.2478,5.7224336 12.625,6.0820312 12.002706,6.4412974 10.909308,6.2204972 10.257813,6.0058594 10.397615,5.334394 10.752631,4.2772875 11.375,3.9179688 c 0.340308,-0.196487 0.836437,-0.2238583 1.322266,-0.171875 z"
     id="path6" />
</svg>
