<?xml version="1.0" encoding="UTF-8" standalone="no"?>
<svg
   width="24"
   height="24"
   stroke-width="1.5"
   viewBox="0 0 24 24"
   fill="none"
   version="1.1"
   id="svg6"
   sodipodi:docname="forward.svg"
   inkscape:version="1.2.1 (9c6d41e410, 2022-07-14)"
   xmlns:inkscape="http://www.inkscape.org/namespaces/inkscape"
   xmlns:sodipodi="http://sodipodi.sourceforge.net/DTD/sodipodi-0.dtd"
   xmlns="http://www.w3.org/2000/svg"
   xmlns:svg="http://www.w3.org/2000/svg">
  <defs
     id="defs10" />
  <sodipodi:namedview
     id="namedview8"
     pagecolor="#ffffff"
     bordercolor="#666666"
     borderopacity="1.0"
     inkscape:showpageshadow="2"
     inkscape:pageopacity="0.0"
     inkscape:pagecheckerboard="0"
     inkscape:deskcolor="#d1d1d1"
     showgrid="false"
     inkscape:zoom="34.541667"
     inkscape:cx="10.364294"
     inkscape:cy="12.014475"
     inkscape:window-width="1920"
     inkscape:window-height="1009"
     inkscape:window-x="1912"
     inkscape:window-y="-8"
     inkscape:window-maximized="1"
     inkscape:current-layer="svg6" />
  <path
     style="color:#000000;fill:currentColor;stroke-linecap:round;stroke-linejoin:round;-inkscape-stroke:none"
     d="M 2.0058594,5.0097656 C 1.5749126,5.2275289 1.25,5.6570767 1.25,6.1875 v 11.625 c 0,1.060845 1.2963781,1.715194 2.1503906,1.085937 l 7.8886724,-5.812499 c 0.715308,-0.527139 0.715308,-1.644737 0,-2.171875 L 3.4003906,5.0996094 C 2.9733679,4.784969 2.4368062,4.7920023 2.0058594,5.0097656 Z M 2.75,6.484375 10.236328,12 2.75,17.515625 Z"
     id="path2" />
  <path
     style="color:#000000;fill:currentColor;stroke-linecap:round;stroke-linejoin:round;-inkscape-stroke:none"
     d="M 13.005859,5.0097656 C 12.574906,5.2275274 12.25,5.6570563 12.25,6.1875 v 11.625 c 0,1.060886 1.296381,1.715287 2.150391,1.085937 l 7.888671,-5.812499 c 0.715309,-0.527139 0.715309,-1.644737 0,-2.171875 L 14.400391,5.0996094 v 0.00195 C 13.97337,4.7868757 13.436812,4.7920038 13.005859,5.0097656 Z M 13.75,6.484375 21.236328,12 13.75,17.515625 Z"
     id="path4" />
</svg>
