<?xml version="1.0" encoding="UTF-8" standalone="no"?>
<svg
   width="24"
   height="24"
   viewBox="0 0 24 24"
   stroke-width="1.5"
   fill="none"
   version="1.1"
   id="svg34"
   sodipodi:docname="frame.svg"
   inkscape:version="1.2.1 (9c6d41e410, 2022-07-14)"
   xmlns:inkscape="http://www.inkscape.org/namespaces/inkscape"
   xmlns:sodipodi="http://sodipodi.sourceforge.net/DTD/sodipodi-0.dtd"
   xmlns="http://www.w3.org/2000/svg"
   xmlns:svg="http://www.w3.org/2000/svg">
  <defs
     id="defs38" />
  <sodipodi:namedview
     id="namedview36"
     pagecolor="#ffffff"
     bordercolor="#666666"
     borderopacity="1.0"
     inkscape:showpageshadow="2"
     inkscape:pageopacity="0.0"
     inkscape:pagecheckerboard="0"
     inkscape:deskcolor="#d1d1d1"
     showgrid="false"
     inkscape:zoom="34.541667"
     inkscape:cx="10.364294"
     inkscape:cy="12.014475"
     inkscape:window-width="1920"
     inkscape:window-height="1009"
     inkscape:window-x="1912"
     inkscape:window-y="-8"
     inkscape:window-maximized="1"
     inkscape:current-layer="svg34" />
  <path
     style="color:#000000;fill:currentColor;stroke-linecap:round;stroke-linejoin:round;stroke-miterlimit:1.5;-inkscape-stroke:none"
     d="m 2,1.2519531 a 0.750075,0.750075 0 0 0 -0.75,0.75 V 5 A 0.750075,0.750075 0 0 0 2,5.75 h 2.9980469 a 0.750075,0.750075 0 0 0 0.75,-0.75 V 2.0019531 a 0.750075,0.750075 0 0 0 -0.75,-0.75 z m 0.75,1.5 H 4.2480469 V 4.25 H 2.75 Z"
     id="path2" />
  <path
     style="color:#000000;fill:currentColor;stroke-linecap:round;stroke-linejoin:round;stroke-miterlimit:1.5;-inkscape-stroke:none"
     d="M 2,9.7519531 A 0.750075,0.750075 0 0 0 1.25,10.501953 V 13.5 A 0.750075,0.750075 0 0 0 2,14.25 h 2.9980469 a 0.750075,0.750075 0 0 0 0.75,-0.75 v -2.998047 a 0.750075,0.750075 0 0 0 -0.75,-0.7499999 z M 2.75,11.251953 H 4.2480469 V 12.75 H 2.75 Z"
     id="path4" />
  <path
     style="color:#000000;fill:currentColor;stroke-linecap:round;stroke-linejoin:round;stroke-miterlimit:1.5;-inkscape-stroke:none"
     d="m 20.498047,4.25 a 0.75,0.75 0 0 0 -0.75,0.75 v 5.503906 a 0.75,0.75 0 0 0 0.75,0.75 0.75,0.75 0 0 0 0.75,-0.75 V 5 a 0.75,0.75 0 0 0 -0.75,-0.75 z"
     id="path6" />
  <path
     style="color:#000000;fill:currentColor;stroke-linecap:round;stroke-linejoin:round;stroke-miterlimit:1.5;-inkscape-stroke:none"
     d="M 3.5,4.25 A 0.75,0.75 0 0 0 2.75,5 v 5.503906 a 0.75,0.75 0 0 0 0.75,0.75 0.75,0.75 0 0 0 0.75,-0.75 V 5 A 0.75,0.75 0 0 0 3.5,4.25 Z"
     id="path8" />
  <path
     style="color:#000000;fill:currentColor;stroke-linecap:round;stroke-linejoin:round;stroke-miterlimit:1.5;-inkscape-stroke:none"
     d="m 20.498047,12.751953 a 0.75,0.75 0 0 0 -0.75,0.75 v 5.501953 a 0.75,0.75 0 0 0 0.75,0.75 0.75,0.75 0 0 0 0.75,-0.75 v -5.501953 a 0.75,0.75 0 0 0 -0.75,-0.75 z"
     id="path10" />
  <path
     style="color:#000000;fill:currentColor;stroke-linecap:round;stroke-linejoin:round;stroke-miterlimit:1.5;-inkscape-stroke:none"
     d="m 3.5,12.751953 a 0.75,0.75 0 0 0 -0.75,0.75 v 5.501953 a 0.75,0.75 0 0 0 0.75,0.75 0.75,0.75 0 0 0 0.75,-0.75 v -5.501953 a 0.75,0.75 0 0 0 -0.75,-0.75 z"
     id="path12" />
  <path
     style="color:#000000;fill:currentColor;stroke-linecap:round;stroke-linejoin:round;stroke-miterlimit:1.5;-inkscape-stroke:none"
     d="m 4.9980469,19.751953 a 0.75,0.75 0 0 0 -0.75,0.75 0.75,0.75 0 0 0 0.75,0.75 H 10.5 a 0.75,0.75 0 0 0 0.75,-0.75 0.75,0.75 0 0 0 -0.75,-0.75 z"
     id="path14" />
  <path
     style="color:#000000;fill:currentColor;stroke-linecap:round;stroke-linejoin:round;stroke-miterlimit:1.5;-inkscape-stroke:none"
     d="m 4.9980469,2.8945313 a 0.60974997,0.60974997 0 0 0 -0.609375,0.609375 0.60974997,0.60974997 0 0 0 0.609375,0.6093749 H 10.5 A 0.60974997,0.60974997 0 0 0 11.109375,3.5039063 0.60974997,0.60974997 0 0 0 10.5,2.8945313 Z"
     id="path16" />
  <path
     style="color:#000000;fill:currentColor;stroke-linecap:round;stroke-linejoin:round;stroke-miterlimit:1.5"
     d="m 13.498047,19.748047 a 0.75,0.75 0 0 0 -0.75,0.75 0.75,0.75 0 0 0 0.75,0.75 h 5.5 a 0.75,0.75 0 0 0 0.75,-0.75 0.75,0.75 0 0 0 -0.75,-0.75 z"
     id="path18" />
  <path
     style="color:#000000;fill:currentColor;stroke-linecap:round;stroke-linejoin:round;stroke-miterlimit:1.5"
     d="m 13.498047,2.890625 a 0.60974997,0.60974997 0 0 0 -0.609375,0.6113281 0.60974997,0.60974997 0 0 0 0.609375,0.609375 h 5.5 A 0.60974997,0.60974997 0 0 0 19.609375,3.5019531 0.60974997,0.60974997 0 0 0 18.998047,2.890625 Z"
     id="path20" />
  <path
     style="color:#000000;fill:currentColor;stroke-linecap:round;stroke-linejoin:round;stroke-miterlimit:1.5"
     d="m 2,18.251953 a 0.750075,0.750075 0 0 0 -0.75,0.75 V 22 A 0.750075,0.750075 0 0 0 2,22.75 h 2.9980469 a 0.750075,0.750075 0 0 0 0.75,-0.75 v -2.998047 a 0.750075,0.750075 0 0 0 -0.75,-0.75 z m 0.75,1.5 H 4.2480469 V 21.25 H 2.75 Z"
     id="path22" />
  <path
     style="color:#000000;fill:currentColor;stroke-linecap:round;stroke-linejoin:round;stroke-miterlimit:1.5"
     d="m 18.998047,1.2519531 a 0.750075,0.750075 0 0 0 -0.75,0.75 V 5 a 0.750075,0.750075 0 0 0 0.75,0.75 h 3 a 0.750075,0.750075 0 0 0 0.75,-0.75 V 2.0019531 a 0.750075,0.750075 0 0 0 -0.75,-0.75 z m 0.75,1.5 h 1.5 V 4.25 h -1.5 z"
     id="path24" />
  <path
     style="color:#000000;fill:currentColor;stroke-linecap:round;stroke-linejoin:round;stroke-miterlimit:1.5"
     d="M 10.498047,1.25 A 0.750075,0.750075 0 0 0 9.7480469,2 v 2.9980469 a 0.750075,0.750075 0 0 0 0.7500001,0.75 h 3 a 0.750075,0.750075 0 0 0 0.75,-0.75 V 2 a 0.750075,0.750075 0 0 0 -0.75,-0.75 z m 0.75,1.5 h 1.5 v 1.4980469 h -1.5 z"
     id="path26" />
  <path
     style="color:#000000;fill:currentColor;stroke-linecap:round;stroke-linejoin:round;stroke-miterlimit:1.5"
     d="m 18.998047,9.7519531 a 0.750075,0.750075 0 0 0 -0.75,0.7499999 v 3 a 0.750075,0.750075 0 0 0 0.75,0.75 h 3 a 0.750075,0.750075 0 0 0 0.75,-0.75 v -3 a 0.750075,0.750075 0 0 0 -0.75,-0.7499999 z m 0.75,1.4999999 h 1.5 v 1.5 h -1.5 z"
     id="path28" />
  <path
     style="color:#000000;fill:currentColor;stroke-linecap:round;stroke-linejoin:round;stroke-miterlimit:1.5"
     d="m 18.998047,18.251953 a 0.750075,0.750075 0 0 0 -0.75,0.75 V 22 a 0.750075,0.750075 0 0 0 0.75,0.75 h 3 a 0.750075,0.750075 0 0 0 0.75,-0.75 v -2.998047 a 0.750075,0.750075 0 0 0 -0.75,-0.75 z m 0.75,1.5 h 1.5 V 21.25 h -1.5 z"
     id="path30" />
  <path
     style="color:#000000;fill:currentColor;stroke-linecap:round;stroke-linejoin:round;stroke-miterlimit:1.5"
     d="M 10.498047,18.25 A 0.750075,0.750075 0 0 0 9.7480469,19 v 2.998047 a 0.750075,0.750075 0 0 0 0.7500001,0.75 h 3 a 0.750075,0.750075 0 0 0 0.75,-0.75 V 19 a 0.750075,0.750075 0 0 0 -0.75,-0.75 z m 0.75,1.5 h 1.5 v 1.498047 h -1.5 z"
     id="path32" />
</svg>
