<?xml version="1.0" encoding="UTF-8" standalone="no"?>
<svg
   width="24"
   height="24"
   viewBox="0 0 24 24"
   stroke-width="1.5"
   fill="none"
   version="1.1"
   id="svg22"
   sodipodi:docname="frame-select.svg"
   inkscape:version="1.2.1 (9c6d41e410, 2022-07-14)"
   xmlns:inkscape="http://www.inkscape.org/namespaces/inkscape"
   xmlns:sodipodi="http://sodipodi.sourceforge.net/DTD/sodipodi-0.dtd"
   xmlns="http://www.w3.org/2000/svg"
   xmlns:svg="http://www.w3.org/2000/svg">
  <defs
     id="defs26" />
  <sodipodi:namedview
     id="namedview24"
     pagecolor="#ffffff"
     bordercolor="#666666"
     borderopacity="1.0"
     inkscape:showpageshadow="2"
     inkscape:pageopacity="0.0"
     inkscape:pagecheckerboard="0"
     inkscape:deskcolor="#d1d1d1"
     showgrid="false"
     inkscape:zoom="34.541667"
     inkscape:cx="10.364294"
     inkscape:cy="12.014475"
     inkscape:window-width="1920"
     inkscape:window-height="1009"
     inkscape:window-x="1912"
     inkscape:window-y="-8"
     inkscape:window-maximized="1"
     inkscape:current-layer="svg22" />
  <path
     style="color:#000000;fill:currentColor;stroke-linecap:round;stroke-linejoin:round;stroke-miterlimit:1.5;-inkscape-stroke:none"
     d="M 2,1.25 A 0.750075,0.750075 0 0 0 1.25,2 v 2.9980469 a 0.750075,0.750075 0 0 0 0.75,0.75 h 2.9980469 a 0.750075,0.750075 0 0 0 0.75,-0.75 V 2 a 0.750075,0.750075 0 0 0 -0.75,-0.75 z m 0.75,1.5 H 4.2480469 V 4.2480469 H 2.75 Z"
     id="path2" />
  <path
     style="color:#000000;fill:currentColor;stroke-linecap:round;stroke-linejoin:round;stroke-miterlimit:1.5;-inkscape-stroke:none"
     d="m 4.9980469,2.7519531 a 0.75,0.75 0 0 0 -0.75,0.75 0.75,0.75 0 0 0 0.75,0.75 H 18.998047 a 0.75,0.75 0 0 0 0.75,-0.75 0.75,0.75 0 0 0 -0.75,-0.75 z"
     id="path4" />
  <path
     style="color:#000000;fill:currentColor;stroke-linecap:round;stroke-linejoin:round;stroke-miterlimit:1.5;-inkscape-stroke:none"
     d="m 3.5,4.2480469 a 0.75,0.75 0 0 0 -0.75,0.75 V 19 A 0.75,0.75 0 0 0 3.5,19.75 0.75,0.75 0 0 0 4.25,19 V 4.9980469 a 0.75,0.75 0 0 0 -0.75,-0.75 z"
     id="path6" />
  <path
     style="color:#000000;fill:currentColor;stroke-linecap:round;stroke-linejoin:round;stroke-miterlimit:1.5;-inkscape-stroke:none"
     d="m 20.498047,4.25 a 0.75,0.75 0 0 0 -0.75,0.75 v 14.001953 a 0.75,0.75 0 0 0 0.75,0.75 0.75,0.75 0 0 0 0.75,-0.75 V 5 a 0.75,0.75 0 0 0 -0.75,-0.75 z"
     id="path8" />
  <path
     style="color:#000000;fill:currentColor;stroke-linecap:round;stroke-linejoin:round;stroke-miterlimit:1.5;-inkscape-stroke:none"
     d="m 4.9980469,19.751953 a 0.75,0.75 0 0 0 -0.75,0.75 0.75,0.75 0 0 0 0.75,0.75 H 18.998047 a 0.75,0.75 0 0 0 0.75,-0.75 0.75,0.75 0 0 0 -0.75,-0.75 z"
     id="path10" />
  <path
     style="color:#000000;fill:currentColor;stroke-linecap:round;stroke-linejoin:round;stroke-miterlimit:1.5;-inkscape-stroke:none"
     d="M 2,18.25 A 0.750075,0.750075 0 0 0 1.25,19 v 2.998047 a 0.750075,0.750075 0 0 0 0.75,0.75 h 2.9980469 a 0.750075,0.750075 0 0 0 0.75,-0.75 V 19 a 0.750075,0.750075 0 0 0 -0.75,-0.75 z m 0.75,1.5 h 1.4980469 v 1.498047 H 2.75 Z"
     id="path12" />
  <path
     style="color:#000000;fill:currentColor;stroke-linecap:round;stroke-linejoin:round;stroke-miterlimit:1.5;-inkscape-stroke:none"
     d="m 18.998047,1.2519531 a 0.750075,0.750075 0 0 0 -0.75,0.75 V 5 a 0.750075,0.750075 0 0 0 0.75,0.75 h 3 a 0.750075,0.750075 0 0 0 0.75,-0.75 V 2.0019531 a 0.750075,0.750075 0 0 0 -0.75,-0.75 z m 0.75,1.5 h 1.5 V 4.25 h -1.5 z"
     id="path14" />
  <path
     style="color:#000000;fill:currentColor;stroke-linecap:round;stroke-linejoin:round;stroke-miterlimit:1.5;-inkscape-stroke:none"
     d="m 18.998047,18.251953 a 0.750075,0.750075 0 0 0 -0.75,0.75 V 22 a 0.750075,0.750075 0 0 0 0.75,0.75 h 3 a 0.750075,0.750075 0 0 0 0.75,-0.75 v -2.998047 a 0.750075,0.750075 0 0 0 -0.75,-0.75 z m 0.75,1.5 h 1.5 V 21.25 h -1.5 z"
     id="path16" />
  <path
     style="color:#000000;clip-rule:evenodd;fill:currentColor;fill-rule:evenodd;stroke-linecap:round;stroke-linejoin:round;stroke-miterlimit:1.5;-inkscape-stroke:none"
     d="M 8.2929688,7.3125 A 0.750075,0.750075 0 0 0 7.3066406,8.296875 l 3.0000004,7 a 0.750075,0.750075 0 0 0 1.40039,-0.05664 l 0.884766,-2.646484 2.642578,-0.880859 a 0.750075,0.750075 0 0 0 0.05859,-1.400391 z m 1.1308593,2.1171875 3.4648439,1.4843755 -1.126953,0.375 a 0.750075,0.750075 0 0 0 -0.47461,0.474609 l -0.378906,1.130859 z"
     id="path18" />
  <path
     style="color:#000000;clip-rule:evenodd;fill:currentColor;fill-rule:evenodd;stroke-linecap:round;stroke-linejoin:round;stroke-miterlimit:1.5;-inkscape-stroke:none"
     d="m 12.529297,11.472656 -1.060547,1.058594 2.998047,3 1.060547,-1.058594 z"
     id="path20" />
</svg>
