<?xml version="1.0" encoding="UTF-8" standalone="no"?>
<svg
   width="24"
   height="24"
   stroke-width="1.5"
   viewBox="0 0 24 24"
   fill="none"
   version="1.1"
   id="svg4"
   sodipodi:docname="frame-tool.svg"
   inkscape:version="1.2.1 (9c6d41e410, 2022-07-14)"
   xmlns:inkscape="http://www.inkscape.org/namespaces/inkscape"
   xmlns:sodipodi="http://sodipodi.sourceforge.net/DTD/sodipodi-0.dtd"
   xmlns="http://www.w3.org/2000/svg"
   xmlns:svg="http://www.w3.org/2000/svg">
  <defs
     id="defs8" />
  <sodipodi:namedview
     id="namedview6"
     pagecolor="#ffffff"
     bordercolor="#666666"
     borderopacity="1.0"
     inkscape:showpageshadow="2"
     inkscape:pageopacity="0.0"
     inkscape:pagecheckerboard="0"
     inkscape:deskcolor="#d1d1d1"
     showgrid="false"
     inkscape:zoom="34.541667"
     inkscape:cx="10.364294"
     inkscape:cy="12.014475"
     inkscape:window-width="1920"
     inkscape:window-height="1009"
     inkscape:window-x="1912"
     inkscape:window-y="-8"
     inkscape:window-maximized="1"
     inkscape:current-layer="svg4" />
  <path
     style="color:#000000;fill:currentColor;stroke-linecap:round;stroke-linejoin:round;-inkscape-stroke:none"
     d="M 7,1.25 A 0.75,0.75 0 0 0 6.25,2 V 3 A 0.75,0.75 0 0 0 7,3.75 0.75,0.75 0 0 0 7.75,3 V 2 A 0.75,0.75 0 0 0 7,1.25 Z m 10,0 A 0.75,0.75 0 0 0 16.25,2 V 3 A 0.75,0.75 0 0 0 17,3.75 0.75,0.75 0 0 0 17.75,3 V 2 A 0.75,0.75 0 0 0 17,1.25 Z m -10.4003906,4 C 5.8629077,5.25 5.25,5.8629077 5.25,6.5996094 V 17.400391 C 5.25,18.137086 5.862953,18.75 6.5996094,18.75 H 17.400391 C 18.13704,18.75 18.75,18.13704 18.75,17.400391 V 6.5996094 C 18.75,5.862953 18.137086,5.25 17.400391,5.25 Z M 2,6.25 A 0.75,0.75 0 0 0 1.25,7 0.75,0.75 0 0 0 2,7.75 H 3 A 0.75,0.75 0 0 0 3.75,7 0.75,0.75 0 0 0 3,6.25 Z m 19,0 A 0.75,0.75 0 0 0 20.25,7 0.75,0.75 0 0 0 21,7.75 h 1 A 0.75,0.75 0 0 0 22.75,7 0.75,0.75 0 0 0 22,6.25 Z M 6.75,6.75 h 10.5 v 10.5 H 6.75 Z M 2,16.25 A 0.75,0.75 0 0 0 1.25,17 0.75,0.75 0 0 0 2,17.75 H 3 A 0.75,0.75 0 0 0 3.75,17 0.75,0.75 0 0 0 3,16.25 Z m 19,0 A 0.75,0.75 0 0 0 20.25,17 0.75,0.75 0 0 0 21,17.75 h 1 A 0.75,0.75 0 0 0 22.75,17 0.75,0.75 0 0 0 22,16.25 Z m -14,4 A 0.75,0.75 0 0 0 6.25,21 v 1 A 0.75,0.75 0 0 0 7,22.75 0.75,0.75 0 0 0 7.75,22 V 21 A 0.75,0.75 0 0 0 7,20.25 Z m 10,0 A 0.75,0.75 0 0 0 16.25,21 v 1 A 0.75,0.75 0 0 0 17,22.75 0.75,0.75 0 0 0 17.75,22 V 21 A 0.75,0.75 0 0 0 17,20.25 Z"
     id="path2" />
</svg>
