<?xml version="1.0" encoding="UTF-8" standalone="no"?>
<svg
   width="24"
   height="24"
   stroke-width="1.5"
   viewBox="0 0 24 24"
   fill="none"
   version="1.1"
   id="svg8"
   sodipodi:docname="fridge.svg"
   inkscape:version="1.2.1 (9c6d41e410, 2022-07-14)"
   xmlns:inkscape="http://www.inkscape.org/namespaces/inkscape"
   xmlns:sodipodi="http://sodipodi.sourceforge.net/DTD/sodipodi-0.dtd"
   xmlns="http://www.w3.org/2000/svg"
   xmlns:svg="http://www.w3.org/2000/svg">
  <defs
     id="defs12" />
  <sodipodi:namedview
     id="namedview10"
     pagecolor="#ffffff"
     bordercolor="#666666"
     borderopacity="1.0"
     inkscape:showpageshadow="2"
     inkscape:pageopacity="0.0"
     inkscape:pagecheckerboard="0"
     inkscape:deskcolor="#d1d1d1"
     showgrid="false"
     inkscape:zoom="34.541667"
     inkscape:cx="10.364294"
     inkscape:cy="12.014475"
     inkscape:window-width="1920"
     inkscape:window-height="1009"
     inkscape:window-x="1912"
     inkscape:window-y="-8"
     inkscape:window-maximized="1"
     inkscape:current-layer="svg8" />
  <path
     style="color:#000000;fill:currentColor;stroke-linecap:round;stroke-linejoin:round;-inkscape-stroke:none"
     d="M 9,13.25 A 0.75,0.75 0 0 0 8.25,14 0.75,0.75 0 0 0 9,14.75 h 1 A 0.75,0.75 0 0 0 10.75,14 0.75,0.75 0 0 0 10,13.25 Z"
     id="path2" />
  <path
     style="color:#000000;fill:currentColor;stroke-linecap:round;stroke-linejoin:round;-inkscape-stroke:none"
     d="M 9,5.25 A 0.75,0.75 0 0 0 8.25,6 0.75,0.75 0 0 0 9,6.75 h 1 A 0.75,0.75 0 0 0 10.75,6 0.75,0.75 0 0 0 10,5.25 Z"
     id="path4" />
  <path
     style="color:#000000;fill:currentColor;-inkscape-stroke:none"
     d="M 5.5996094,1.25 C 4.8629077,1.25 4.25,1.8629077 4.25,2.5996094 V 10 21.400391 C 4.25,22.137086 4.862953,22.75 5.5996094,22.75 H 18.400391 C 19.13704,22.75 19.75,22.13704 19.75,21.400391 V 10 2.5996094 C 19.75,1.862953 19.137086,1.25 18.400391,1.25 Z M 5.75,2.75 h 12.5 v 6.5 H 5.75 Z m 0,8 h 12.5 v 10.5 H 5.75 Z"
     id="path6" />
</svg>
