<?xml version="1.0" encoding="UTF-8" standalone="no"?>
<svg
   width="24"
   height="24"
   stroke-width="1.5"
   viewBox="0 0 24 24"
   fill="none"
   version="1.1"
   id="svg6"
   sodipodi:docname="gas-tank-droplet.svg"
   inkscape:version="1.2.1 (9c6d41e410, 2022-07-14)"
   xmlns:inkscape="http://www.inkscape.org/namespaces/inkscape"
   xmlns:sodipodi="http://sodipodi.sourceforge.net/DTD/sodipodi-0.dtd"
   xmlns="http://www.w3.org/2000/svg"
   xmlns:svg="http://www.w3.org/2000/svg">
  <defs
     id="defs10" />
  <sodipodi:namedview
     id="namedview8"
     pagecolor="#ffffff"
     bordercolor="#666666"
     borderopacity="1.0"
     inkscape:showpageshadow="2"
     inkscape:pageopacity="0.0"
     inkscape:pagecheckerboard="0"
     inkscape:deskcolor="#d1d1d1"
     showgrid="false"
     inkscape:zoom="34.541667"
     inkscape:cx="10.364294"
     inkscape:cy="12.014475"
     inkscape:window-width="1920"
     inkscape:window-height="1009"
     inkscape:window-x="1912"
     inkscape:window-y="-8"
     inkscape:window-maximized="1"
     inkscape:current-layer="svg6" />
  <path
     style="color:#000000;clip-rule:evenodd;fill:currentColor;fill-rule:evenodd;stroke-linecap:round;stroke-linejoin:round;stroke-miterlimit:1.5;-inkscape-stroke:none"
     d="M 7,2.2539063 A 0.74681466,0.74681466 0 0 0 6.2519531,3 V 4.2539062 H 5.5625 c -1.8198005,0 -3.3085937,1.49053 -3.3085937,3.3085938 v 10.876953 c 0,0.87661 0.3475397,1.719409 0.96875,2.339844 0.6201668,0.619522 1.4616017,0.96875 2.3398437,0.96875 h 12.875 c 0.878242,0 1.71967,-0.349221 2.339844,-0.96875 0.621214,-0.620438 0.96875,-1.463241 0.96875,-2.339844 v -6.441406 c 0,-4.2681128 -3.47595,-7.7441408 -7.744141,-7.7441408 H 12.746094 V 3 A 0.74681466,0.74681466 0 0 0 12,2.2539063 Z M 7.7460937,3.7460938 H 11.253906 V 5 A 0.74681466,0.74681466 0 0 0 12,5.7460937 h 2.001953 c 3.461001,0 6.251953,2.7912536 6.251953,6.2519533 v 6.441406 c 0,0.480396 -0.191265,0.943643 -0.53125,1.283203 a 0.74681466,0.74681466 0 0 0 -0.002,0 c -0.341025,0.34067 -0.800646,0.533203 -1.283203,0.533203 H 5.5625 c -0.4825566,0 -0.9421709,-0.192525 -1.2832031,-0.533203 a 0.74681466,0.74681466 0 0 0 -0.00195,0 C 3.937355,19.383092 3.7460937,18.919842 3.7460938,18.439453 V 7.5625 c 0,-1.0110134 0.8030096,-1.8164063 1.8164062,-1.8164063 H 7 A 0.74681466,0.74681466 0 0 0 7.7460937,5 Z"
     id="path2" />
  <path
     style="color:#000000;clip-rule:evenodd;fill:currentColor;fill-rule:evenodd;stroke-linecap:round;stroke-linejoin:round;stroke-miterlimit:1.5"
     d="m 12.529297,8.46875 a 0.75004001,0.75004001 0 0 0 -1.060547,0.00195 c 0,0 -0.779149,0.7779457 -1.5625,1.8085939 C 9.1228991,11.309945 8.2569236,12.543284 8.25,13.882813 a 0.75004001,0.75004001 0 0 0 0,0.0098 c 0.014894,2.055013 1.6885107,3.744141 3.75,3.744141 2.061489,0 3.750374,-1.688226 3.75,-3.75 -2.13e-4,-1.342643 -0.869193,-2.576384 -1.654297,-3.607422 C 13.310599,9.2482586 12.529297,8.46875 12.529297,8.46875 Z M 12,10.144531 c 0.272634,0.291905 0.452204,0.451822 0.902344,1.042969 0.714969,0.938935 1.347569,2.148764 1.347656,2.699219 2.26e-4,1.249622 -1.000493,2.25 -2.25,2.25 -1.247283,0 -2.2354692,-0.99677 -2.2480469,-2.25 C 9.7566354,13.331061 10.386891,12.125217 11.099609,11.1875 11.548786,10.596522 11.728165,10.436449 12,10.144531 Z"
     id="path4" />
</svg>
