<?xml version="1.0" encoding="UTF-8" standalone="no"?>
<svg
   width="24"
   height="24"
   stroke-width="1.5"
   viewBox="0 0 24 24"
   fill="none"
   version="1.1"
   id="svg6"
   sodipodi:docname="gas-tank.svg"
   inkscape:version="1.2.1 (9c6d41e410, 2022-07-14)"
   xmlns:inkscape="http://www.inkscape.org/namespaces/inkscape"
   xmlns:sodipodi="http://sodipodi.sourceforge.net/DTD/sodipodi-0.dtd"
   xmlns="http://www.w3.org/2000/svg"
   xmlns:svg="http://www.w3.org/2000/svg">
  <defs
     id="defs10" />
  <sodipodi:namedview
     id="namedview8"
     pagecolor="#ffffff"
     bordercolor="#666666"
     borderopacity="1.0"
     inkscape:showpageshadow="2"
     inkscape:pageopacity="0.0"
     inkscape:pagecheckerboard="0"
     inkscape:deskcolor="#d1d1d1"
     showgrid="false"
     inkscape:zoom="34.541667"
     inkscape:cx="10.364294"
     inkscape:cy="12.014475"
     inkscape:window-width="1920"
     inkscape:window-height="1009"
     inkscape:window-x="1912"
     inkscape:window-y="-8"
     inkscape:window-maximized="1"
     inkscape:current-layer="svg6" />
  <path
     style="color:#000000;clip-rule:evenodd;fill:currentColor;fill-rule:evenodd;stroke-linecap:round;stroke-linejoin:round;stroke-miterlimit:1.5;-inkscape-stroke:none"
     d="M 7,2.2539063 A 0.74681466,0.74681466 0 0 0 6.2519531,3 V 4.2539062 H 5.5625 c -1.8198005,0 -3.3085937,1.49053 -3.3085937,3.3085938 v 10.876953 c 0,0.87661 0.3475397,1.719409 0.96875,2.339844 0.6201668,0.619522 1.4616017,0.96875 2.3398437,0.96875 h 12.875 c 0.878242,0 1.71967,-0.349221 2.339844,-0.96875 0.621214,-0.620438 0.96875,-1.463241 0.96875,-2.339844 v -6.441406 c 0,-4.2681128 -3.47595,-7.7441408 -7.744141,-7.7441408 H 12.746094 V 3 A 0.74681466,0.74681466 0 0 0 12,2.2539063 Z M 7.7460937,3.7460938 H 11.253906 V 5 A 0.74681466,0.74681466 0 0 0 12,5.7460937 h 2.001953 c 3.461001,0 6.251953,2.7912536 6.251953,6.2519533 v 6.441406 c 0,0.480396 -0.191265,0.943643 -0.53125,1.283203 a 0.74681466,0.74681466 0 0 0 -0.002,0 c -0.341025,0.34067 -0.800646,0.533203 -1.283203,0.533203 H 5.5625 c -0.4825566,0 -0.9421709,-0.192525 -1.2832031,-0.533203 a 0.74681466,0.74681466 0 0 0 -0.00195,0 C 3.937355,19.383092 3.7460937,18.919842 3.7460938,18.439453 V 7.5625 c 0,-1.0110134 0.8030096,-1.8164063 1.8164062,-1.8164063 H 7 A 0.74681466,0.74681466 0 0 0 7.7460937,5 Z"
     id="path2" />
  <path
     style="color:#000000;fill:currentColor;stroke-linecap:round;stroke-linejoin:round;stroke-miterlimit:1.5"
     d="M 15.988281,8.1230469 A 0.75108498,0.75108498 0 0 0 15.460938,8.3515625 L 11.998047,11.917969 8.5390625,8.3554688 a 0.75108498,0.75108498 0 0 0 -1.0625,-0.015625 0.75108498,0.75108498 0 0 0 -0.015625,1.0625 l 3.4902345,3.5937502 -3.4902345,3.595703 a 0.75138219,0.75138219 0 0 0 1.078125,1.046875 l 3.4589845,-3.564453 3.462891,3.564453 a 0.75138219,0.75138219 0 0 0 1.078124,-1.046875 L 13.046875,12.994141 16.539062,9.3964844 A 0.75108498,0.75108498 0 0 0 16.523437,8.3359375 0.75108498,0.75108498 0 0 0 15.988281,8.1230469 Z"
     id="path4" />
</svg>
