<?xml version="1.0" encoding="UTF-8" standalone="no"?>
<svg
   width="24"
   height="24"
   stroke-width="1.5"
   viewBox="0 0 24 24"
   fill="none"
   version="1.1"
   id="svg8"
   sodipodi:docname="gas.svg"
   inkscape:version="1.2.1 (9c6d41e410, 2022-07-14)"
   xmlns:inkscape="http://www.inkscape.org/namespaces/inkscape"
   xmlns:sodipodi="http://sodipodi.sourceforge.net/DTD/sodipodi-0.dtd"
   xmlns="http://www.w3.org/2000/svg"
   xmlns:svg="http://www.w3.org/2000/svg">
  <defs
     id="defs12" />
  <sodipodi:namedview
     id="namedview10"
     pagecolor="#ffffff"
     bordercolor="#666666"
     borderopacity="1.0"
     inkscape:showpageshadow="2"
     inkscape:pageopacity="0.0"
     inkscape:pagecheckerboard="0"
     inkscape:deskcolor="#d1d1d1"
     showgrid="false"
     inkscape:zoom="34.541667"
     inkscape:cx="10.364294"
     inkscape:cy="12.014475"
     inkscape:window-width="1920"
     inkscape:window-height="1009"
     inkscape:window-x="1912"
     inkscape:window-y="-8"
     inkscape:window-maximized="1"
     inkscape:current-layer="svg8" />
  <path
     style="color:#000000;fill:currentColor;stroke-linecap:round;-inkscape-stroke:none"
     d="M 12,4.25 C 9.9377819,4.25 8.25,5.9378347 8.25,8 V 21.400391 C 8.25,22.137086 8.862953,22.75 9.5996094,22.75 H 14.400391 C 15.13704,22.75 15.75,22.13704 15.75,21.400391 V 8 C 15.75,5.9378347 14.062218,4.25 12,4.25 Z m 0,1.5 c 1.251579,0 2.25,0.9984686 2.25,2.25 V 21.25 H 9.75 V 8 C 9.75,6.7484686 10.748421,5.75 12,5.75 Z"
     id="path2" />
  <path
     style="color:#000000;fill:currentColor;stroke-linecap:round;-inkscape-stroke:none"
     d="M 9,10.25 A 0.75,0.75 0 0 0 8.25,11 0.75,0.75 0 0 0 9,11.75 h 6 A 0.75,0.75 0 0 0 15.75,11 0.75,0.75 0 0 0 15,10.25 Z"
     id="path4" />
  <path
     style="color:#000000;fill:currentColor;stroke-linecap:round;-inkscape-stroke:none"
     d="M 11,1.25 A 0.75,0.75 0 0 0 10.25,2 0.75,0.75 0 0 0 11,2.75 h 0.25 V 5 A 0.75,0.75 0 0 0 12,5.75 0.75,0.75 0 0 0 12.75,5 V 2.75 H 13 A 0.75,0.75 0 0 0 13.75,2 0.75,0.75 0 0 0 13,1.25 h -1 z"
     id="path6" />
</svg>
