<?xml version="1.0" encoding="UTF-8" standalone="no"?>
<svg
   width="24"
   height="24"
   stroke-width="1.5"
   viewBox="0 0 24 24"
   fill="none"
   version="1.1"
   id="svg12"
   sodipodi:docname="gift.svg"
   inkscape:version="1.2.1 (9c6d41e410, 2022-07-14)"
   xmlns:inkscape="http://www.inkscape.org/namespaces/inkscape"
   xmlns:sodipodi="http://sodipodi.sourceforge.net/DTD/sodipodi-0.dtd"
   xmlns="http://www.w3.org/2000/svg"
   xmlns:svg="http://www.w3.org/2000/svg">
  <defs
     id="defs16" />
  <sodipodi:namedview
     id="namedview14"
     pagecolor="#ffffff"
     bordercolor="#666666"
     borderopacity="1.0"
     inkscape:showpageshadow="2"
     inkscape:pageopacity="0.0"
     inkscape:pagecheckerboard="0"
     inkscape:deskcolor="#d1d1d1"
     showgrid="false"
     inkscape:zoom="34.541667"
     inkscape:cx="10.364294"
     inkscape:cy="12.014475"
     inkscape:window-width="1920"
     inkscape:window-height="1009"
     inkscape:window-x="1912"
     inkscape:window-y="-8"
     inkscape:window-maximized="1"
     inkscape:current-layer="svg12" />
  <path
     style="color:#000000;fill:currentColor;stroke-linecap:round;stroke-linejoin:round;-inkscape-stroke:none"
     d="M 4,11.25 A 0.75,0.75 0 0 0 3.25,12 v 9.400391 C 3.25,22.137086 3.862953,22.75 4.5996094,22.75 H 19.400391 C 20.13704,22.75 20.75,22.13704 20.75,21.400391 V 12 A 0.75,0.75 0 0 0 20,11.25 0.75,0.75 0 0 0 19.25,12 v 9.25 H 4.75 V 12 A 0.75,0.75 0 0 0 4,11.25 Z"
     id="path2" />
  <path
     style="color:#000000;fill:currentColor;stroke-linecap:round;stroke-linejoin:round;-inkscape-stroke:none"
     d="M 2.5996094,6.25 C 1.8629077,6.25 1.25,6.8629077 1.25,7.5996094 V 11.400391 C 1.25,12.137086 1.862953,12.75 2.5996094,12.75 H 21.400391 C 22.13704,12.75 22.75,12.13704 22.75,11.400391 V 7.5996094 C 22.75,6.862953 22.137086,6.25 21.400391,6.25 Z M 2.75,7.75 h 18.5 v 3.5 H 2.75 Z"
     id="path4" />
  <path
     style="color:#000000;fill:currentColor;stroke-linecap:round;stroke-linejoin:round;-inkscape-stroke:none"
     d="M 12,6.25 A 0.75,0.75 0 0 0 11.25,7 V 22 A 0.75,0.75 0 0 0 12,22.75 0.75,0.75 0 0 0 12.75,22 V 7 A 0.75,0.75 0 0 0 12,6.25 Z"
     id="path6" />
  <path
     style="color:#000000;fill:currentColor;stroke-linecap:round;stroke-linejoin:round;-inkscape-stroke:none"
     d="M 7.5,1.25 C 6.6383379,1.25 5.8104628,1.5918809 5.2011719,2.2011719 4.5918809,2.8104628 4.25,3.6383379 4.25,4.5 4.25,5.3616621 4.5918809,6.1895372 5.2011719,6.7988281 5.8104628,7.4081191 6.6383379,7.75 7.5,7.75 H 12 a 0.750075,0.750075 0 0 0 0.736328,-0.8964844 c 0,0 -0.26533,-1.3471193 -1.017578,-2.7148437 C 10.966502,2.7709475 9.6071407,1.25 7.5,1.25 Z m 0,1.5 c 1.3928558,0 2.2834998,0.979055 2.90625,2.1113281 C 10.78473,5.5494728 10.800981,5.8099188 10.927734,6.25 H 7.5 C 7.0355835,6.25 6.5901068,6.0666693 6.2617187,5.7382812 5.9333307,5.4098932 5.75,4.9644165 5.75,4.5 5.75,4.0355835 5.9333307,3.5901068 6.2617187,3.2617188 6.5901068,2.9333307 7.0355835,2.75 7.5,2.75 Z"
     id="path8" />
  <path
     style="color:#000000;fill:currentColor;stroke-linecap:round;stroke-linejoin:round;-inkscape-stroke:none"
     d="m 16.5,1.25 c -2.107141,0 -3.466502,1.5209475 -4.21875,2.8886719 -0.752248,1.3677244 -1.017578,2.7148437 -1.017578,2.7148437 A 0.750075,0.750075 0 0 0 12,7.75 h 4.5 c 0.861634,0 1.689495,-0.3419168 2.298828,-0.9511719 C 19.408061,6.1895434 19.75,5.3616697 19.75,4.5 19.75,3.6383303 19.408061,2.8104566 18.798828,2.2011719 18.189495,1.5919168 17.361634,1.25 16.5,1.25 Z m 0,1.5 c 0.464365,0 0.909815,0.1832948 1.238281,0.5117188 C 18.066648,3.5901131 18.25,4.035591 18.25,4.5 18.25,4.964409 18.066648,5.4098869 17.738281,5.7382812 17.409815,6.0667052 16.964365,6.25 16.5,6.25 H 13.072266 C 13.199019,5.8099188 13.21527,5.5494728 13.59375,4.8613281 14.2165,3.729055 15.107144,2.75 16.5,2.75 Z"
     id="path10" />
</svg>
