<?xml version="1.0" encoding="UTF-8" standalone="no"?>
<svg
   width="24"
   height="24"
   viewBox="0 0 24 24"
   stroke-width="1.5"
   fill="none"
   version="1.1"
   id="svg12"
   sodipodi:docname="git-pull-request-closed.svg"
   inkscape:version="1.2.1 (9c6d41e410, 2022-07-14)"
   xmlns:inkscape="http://www.inkscape.org/namespaces/inkscape"
   xmlns:sodipodi="http://sodipodi.sourceforge.net/DTD/sodipodi-0.dtd"
   xmlns="http://www.w3.org/2000/svg"
   xmlns:svg="http://www.w3.org/2000/svg">
  <defs
     id="defs16" />
  <sodipodi:namedview
     id="namedview14"
     pagecolor="#ffffff"
     bordercolor="#666666"
     borderopacity="1.0"
     inkscape:showpageshadow="2"
     inkscape:pageopacity="0.0"
     inkscape:pagecheckerboard="0"
     inkscape:deskcolor="#d1d1d1"
     showgrid="false"
     inkscape:zoom="34.541667"
     inkscape:cx="10.364294"
     inkscape:cy="12.014475"
     inkscape:window-width="1920"
     inkscape:window-height="1009"
     inkscape:window-x="1912"
     inkscape:window-y="-8"
     inkscape:window-maximized="1"
     inkscape:current-layer="svg12" />
  <path
     style="color:#000000;fill:currentColor;stroke-linecap:round;stroke-linejoin:round;-inkscape-stroke:none"
     d="m 18,16.25 c -1.509904,0 -2.75,1.240096 -2.75,2.75 0,1.509904 1.240096,2.75 2.75,2.75 1.509904,0 2.75,-1.240096 2.75,-2.75 0,-1.509904 -1.240096,-2.75 -2.75,-2.75 z m 0,1.5 c 0.699294,0 1.25,0.550706 1.25,1.25 0,0.699294 -0.550706,1.25 -1.25,1.25 -0.699294,0 -1.25,-0.550706 -1.25,-1.25 0,-0.699294 0.550706,-1.25 1.25,-1.25 z"
     id="path2" />
  <path
     style="color:#000000;fill:currentColor;stroke-linecap:round;stroke-linejoin:round;-inkscape-stroke:none"
     d="m 6,16.25 c -1.5098846,0 -2.75,1.240083 -2.75,2.75 0,1.509917 1.2401154,2.75 2.75,2.75 1.5098846,0 2.75,-1.240083 2.75,-2.75 0,-1.509917 -1.2401154,-2.75 -2.75,-2.75 z m 0,1.5 c 0.6992532,0 1.25,0.550719 1.25,1.25 0,0.699281 -0.5507468,1.25 -1.25,1.25 -0.6992532,0 -1.25,-0.550719 -1.25,-1.25 0,-0.699281 0.5507468,-1.25 1.25,-1.25 z"
     id="path4" />
  <path
     style="color:#000000;fill:currentColor;stroke-linecap:round;stroke-linejoin:round;-inkscape-stroke:none"
     d="M 6,10.25 A 0.75,0.75 0 0 0 5.25,11 v 6 A 0.75,0.75 0 0 0 6,17.75 0.75,0.75 0 0 0 6.75,17 V 11 A 0.75,0.75 0 0 0 6,10.25 Z"
     id="path6" />
  <path
     style="color:#000000;fill:currentColor;stroke-linecap:round;stroke-linejoin:round;-inkscape-stroke:none"
     d="M 12,4.25 A 0.75,0.75 0 0 0 11.25,5 0.75,0.75 0 0 0 12,5.75 h 4 c 0.749999,0 0.919521,0.2648233 1.080078,0.5859375 C 17.240635,6.6570517 17.25,7 17.25,7 V 17 A 0.75,0.75 0 0 0 18,17.75 0.75,0.75 0 0 0 18.75,17 V 7 c 0,0 0.0094,-0.6570527 -0.330078,-1.3359375 C 18.080479,4.9851777 17.249999,4.25 16,4.25 Z"
     id="path8" />
  <path
     style="color:#000000;fill:currentColor;stroke-linecap:round;stroke-linejoin:round;-inkscape-stroke:none"
     d="m 4,2.25 a 0.75,0.75 0 0 0 -0.53125,0.21875 0.75,0.75 0 0 0 0,1.0625 L 5.0605469,5.1210937 3.46875,6.7128906 a 0.75,0.75 0 0 0 0,1.0605469 0.75,0.75 0 0 0 1.0625,0 L 6.1210937,6.1835937 7.7128906,7.7734375 a 0.75,0.75 0 0 0 1.0605469,0 0.75,0.75 0 0 0 0,-1.0605469 L 7.1835937,5.1210937 8.7734375,3.53125 a 0.75,0.75 0 0 0 0,-1.0625 0.75,0.75 0 0 0 -1.0605469,0 L 6.1210937,4.0605469 4.53125,2.46875 A 0.75,0.75 0 0 0 4,2.25 Z"
     id="path10" />
</svg>
