<?xml version="1.0" encoding="UTF-8" standalone="no"?>
<svg
   width="24"
   height="24"
   viewBox="0 0 24 24"
   stroke-width="1.5"
   fill="none"
   version="1.1"
   id="svg10"
   sodipodi:docname="git-cherry-pick-commit.svg"
   inkscape:version="1.2.1 (9c6d41e410, 2022-07-14)"
   xmlns:inkscape="http://www.inkscape.org/namespaces/inkscape"
   xmlns:sodipodi="http://sodipodi.sourceforge.net/DTD/sodipodi-0.dtd"
   xmlns="http://www.w3.org/2000/svg"
   xmlns:svg="http://www.w3.org/2000/svg">
  <defs
     id="defs14" />
  <sodipodi:namedview
     id="namedview12"
     pagecolor="#ffffff"
     bordercolor="#666666"
     borderopacity="1.0"
     inkscape:showpageshadow="2"
     inkscape:pageopacity="0.0"
     inkscape:pagecheckerboard="0"
     inkscape:deskcolor="#d1d1d1"
     showgrid="false"
     inkscape:zoom="34.541667"
     inkscape:cx="10.364294"
     inkscape:cy="12.014475"
     inkscape:window-width="1920"
     inkscape:window-height="1009"
     inkscape:window-x="1912"
     inkscape:window-y="-8"
     inkscape:window-maximized="1"
     inkscape:current-layer="svg10" />
  <path
     style="color:#000000;fill:currentColor;stroke-linecap:round;stroke-linejoin:round;-inkscape-stroke:none"
     d="M 12,3.25 A 0.75,0.75 0 0 0 11.25,4 V 7.25 H 9 C 7.4901018,7.25 6.25,8.4901018 6.25,10 v 1 A 0.75,0.75 0 0 0 7,11.75 0.75,0.75 0 0 0 7.75,11 V 10 C 7.75,9.3007604 8.3007604,8.75 9,8.75 h 3 3 c 0.699281,0 1.25,0.5507468 1.25,1.25 v 1 A 0.75,0.75 0 0 0 17,11.75 0.75,0.75 0 0 0 17.75,11 V 10 C 17.75,8.4901154 16.509917,7.25 15,7.25 H 12.75 V 4 A 0.75,0.75 0 0 0 12,3.25 Z"
     id="path2" />
  <path
     style="color:#000000;fill:currentColor;stroke-linecap:round;stroke-linejoin:round;-inkscape-stroke:none"
     d="m 12,13.25 c -2.062203,0 -3.75,1.687797 -3.75,3.75 0,2.062203 1.687797,3.75 3.75,3.75 2.062203,0 3.75,-1.687797 3.75,-3.75 0,-2.062203 -1.687797,-3.75 -3.75,-3.75 z m 0,1.5 c 1.251594,0 2.25,0.998406 2.25,2.25 0,1.251594 -0.998406,2.25 -2.25,2.25 -1.251594,0 -2.25,-0.998406 -2.25,-2.25 0,-1.251594 0.998406,-2.25 2.25,-2.25 z"
     id="path4" />
  <path
     style="color:#000000;fill:currentColor;stroke-linecap:round;stroke-linejoin:round;-inkscape-stroke:none"
     d="M 3,16.25 A 0.75,0.75 0 0 0 2.25,17 0.75,0.75 0 0 0 3,17.75 H 9 A 0.75,0.75 0 0 0 9.75,17 0.75,0.75 0 0 0 9,16.25 Z"
     id="path6" />
  <path
     style="color:#000000;fill:currentColor;stroke-linecap:round;stroke-linejoin:round;-inkscape-stroke:none"
     d="M 15,16.25 A 0.75,0.75 0 0 0 14.25,17 0.75,0.75 0 0 0 15,17.75 h 6 A 0.75,0.75 0 0 0 21.75,17 0.75,0.75 0 0 0 21,16.25 Z"
     id="path8" />
</svg>
