<?xml version="1.0" encoding="UTF-8" standalone="no"?>
<svg
   width="24"
   height="24"
   viewBox="0 0 24 24"
   stroke-width="1.5"
   fill="none"
   version="1.1"
   id="svg10"
   sodipodi:docname="git-merge.svg"
   inkscape:version="1.2.1 (9c6d41e410, 2022-07-14)"
   xmlns:inkscape="http://www.inkscape.org/namespaces/inkscape"
   xmlns:sodipodi="http://sodipodi.sourceforge.net/DTD/sodipodi-0.dtd"
   xmlns="http://www.w3.org/2000/svg"
   xmlns:svg="http://www.w3.org/2000/svg">
  <defs
     id="defs14" />
  <sodipodi:namedview
     id="namedview12"
     pagecolor="#ffffff"
     bordercolor="#666666"
     borderopacity="1.0"
     inkscape:showpageshadow="2"
     inkscape:pageopacity="0.0"
     inkscape:pagecheckerboard="0"
     inkscape:deskcolor="#d1d1d1"
     showgrid="false"
     inkscape:zoom="34.541667"
     inkscape:cx="10.364294"
     inkscape:cy="12.014475"
     inkscape:window-width="1920"
     inkscape:window-height="1009"
     inkscape:window-x="1912"
     inkscape:window-y="-8"
     inkscape:window-maximized="1"
     inkscape:current-layer="svg10" />
  <path
     style="color:#000000;fill:currentColor;stroke-linecap:round;stroke-linejoin:round;-inkscape-stroke:none"
     d="m 18,15.25 c -1.509904,0 -2.75,1.240096 -2.75,2.75 0,1.509904 1.240096,2.75 2.75,2.75 1.509904,0 2.75,-1.240096 2.75,-2.75 0,-1.509904 -1.240096,-2.75 -2.75,-2.75 z m 0,1.5 c 0.699294,0 1.25,0.550706 1.25,1.25 0,0.699294 -0.550706,1.25 -1.25,1.25 -0.699294,0 -1.25,-0.550706 -1.25,-1.25 0,-0.699294 0.550706,-1.25 1.25,-1.25 z"
     id="path2" />
  <path
     style="color:#000000;fill:currentColor;stroke-linecap:round;stroke-linejoin:round;-inkscape-stroke:none"
     d="M 6,6.25 A 0.75,0.75 0 0 0 5.25,7 V 21 A 0.75,0.75 0 0 0 6,21.75 0.75,0.75 0 0 0 6.75,21 V 7 A 0.75,0.75 0 0 0 6,6.25 Z"
     id="path4" />
  <path
     style="color:#000000;fill:currentColor;stroke-linecap:round;stroke-linejoin:round;-inkscape-stroke:none"
     d="M 6,6.25 A 0.75,0.75 0 0 0 5.25,7 v 2 c 0,1.92857 0.6628539,4.302207 2.1523437,6.265625 C 8.8918336,17.229043 11.270837,18.75 14.5,18.75 H 16 A 0.75,0.75 0 0 0 16.75,18 0.75,0.75 0 0 0 16,17.25 H 14.5 C 11.729169,17.25 9.8581637,16.020953 8.5976563,14.359375 7.3371488,12.697797 6.75,10.571427 6.75,9 V 7 A 0.75,0.75 0 0 0 6,6.25 Z"
     id="path6" />
  <path
     style="color:#000000;fill:currentColor;stroke-linecap:round;stroke-linejoin:round;-inkscape-stroke:none"
     d="M 6,2.25 C 4.4901018,2.25 3.25,3.4901018 3.25,5 3.25,6.5098982 4.4901018,7.75 6,7.75 7.5098982,7.75 8.75,6.5098982 8.75,5 8.75,3.4901018 7.5098982,2.25 6,2.25 Z m 0,1.5 C 6.6992396,3.75 7.25,4.3007604 7.25,5 7.25,5.6992396 6.6992396,6.25 6,6.25 5.3007604,6.25 4.75,5.6992396 4.75,5 4.75,4.3007604 5.3007604,3.75 6,3.75 Z"
     id="path8" />
</svg>
