<?xml version="1.0" encoding="UTF-8" standalone="no"?>
<svg
   width="24"
   height="24"
   viewBox="0 0 24 24"
   stroke-width="1.5"
   fill="none"
   version="1.1"
   id="svg14"
   sodipodi:docname="git-pull-request.svg"
   inkscape:version="1.2.1 (9c6d41e410, 2022-07-14)"
   xmlns:inkscape="http://www.inkscape.org/namespaces/inkscape"
   xmlns:sodipodi="http://sodipodi.sourceforge.net/DTD/sodipodi-0.dtd"
   xmlns="http://www.w3.org/2000/svg"
   xmlns:svg="http://www.w3.org/2000/svg">
  <defs
     id="defs18" />
  <sodipodi:namedview
     id="namedview16"
     pagecolor="#ffffff"
     bordercolor="#666666"
     borderopacity="1.0"
     inkscape:showpageshadow="2"
     inkscape:pageopacity="0.0"
     inkscape:pagecheckerboard="0"
     inkscape:deskcolor="#d1d1d1"
     showgrid="false"
     inkscape:zoom="34.541667"
     inkscape:cx="10.364294"
     inkscape:cy="12.014475"
     inkscape:window-width="1920"
     inkscape:window-height="1009"
     inkscape:window-x="1912"
     inkscape:window-y="-8"
     inkscape:window-maximized="1"
     inkscape:current-layer="svg14" />
  <path
     style="color:#000000;fill:currentColor;stroke-linecap:round;stroke-linejoin:round;-inkscape-stroke:none"
     d="m 18,16.25 c -1.509904,0 -2.75,1.240096 -2.75,2.75 0,1.509904 1.240096,2.75 2.75,2.75 1.509904,0 2.75,-1.240096 2.75,-2.75 0,-1.509904 -1.240096,-2.75 -2.75,-2.75 z m 0,1.5 c 0.699294,0 1.25,0.550706 1.25,1.25 0,0.699294 -0.550706,1.25 -1.25,1.25 -0.699294,0 -1.25,-0.550706 -1.25,-1.25 0,-0.699294 0.550706,-1.25 1.25,-1.25 z"
     id="path2" />
  <path
     style="color:#000000;fill:currentColor;stroke-linecap:round;stroke-linejoin:round;-inkscape-stroke:none"
     d="M 6,2.25 C 4.4901018,2.25 3.25,3.4901018 3.25,5 3.25,6.5098982 4.4901018,7.75 6,7.75 7.5098982,7.75 8.75,6.5098982 8.75,5 8.75,3.4901018 7.5098982,2.25 6,2.25 Z m 0,1.5 C 6.6992396,3.75 7.25,4.3007604 7.25,5 7.25,5.6992396 6.6992396,6.25 6,6.25 5.3007604,6.25 4.75,5.6992396 4.75,5 4.75,4.3007604 5.3007604,3.75 6,3.75 Z"
     id="path4" />
  <path
     style="color:#000000;fill:currentColor;stroke-linecap:round;stroke-linejoin:round;-inkscape-stroke:none"
     d="m 6,16.25 c -1.5098846,0 -2.75,1.240083 -2.75,2.75 0,1.509917 1.2401154,2.75 2.75,2.75 1.5098846,0 2.75,-1.240083 2.75,-2.75 0,-1.509917 -1.2401154,-2.75 -2.75,-2.75 z m 0,1.5 c 0.6992532,0 1.25,0.550719 1.25,1.25 0,0.699281 -0.5507468,1.25 -1.25,1.25 -0.6992532,0 -1.25,-0.550719 -1.25,-1.25 0,-0.699281 0.5507468,-1.25 1.25,-1.25 z"
     id="path6" />
  <path
     style="color:#000000;fill:currentColor;stroke-linecap:round;stroke-linejoin:round;-inkscape-stroke:none"
     d="M 6,6.25 A 0.75,0.75 0 0 0 5.25,7 V 17 A 0.75,0.75 0 0 0 6,17.75 0.75,0.75 0 0 0 6.75,17 V 7 A 0.75,0.75 0 0 0 6,6.25 Z"
     id="path8" />
  <path
     style="color:#000000;fill:currentColor;stroke-linecap:round;stroke-linejoin:round;-inkscape-stroke:none"
     d="M 13,4.25 A 0.75,0.75 0 0 0 12.25,5 0.75,0.75 0 0 0 13,5.75 h 3 c 0.749999,0 0.919521,0.2648233 1.080078,0.5859375 C 17.240635,6.6570517 17.25,7 17.25,7 V 17 A 0.75,0.75 0 0 0 18,17.75 0.75,0.75 0 0 0 18.75,17 V 7 c 0,0 0.0094,-0.6570527 -0.330078,-1.3359375 C 18.080479,4.9851777 17.249999,4.25 16,4.25 Z"
     id="path10" />
  <path
     style="color:#000000;fill:currentColor;stroke-linecap:round;stroke-linejoin:round;-inkscape-stroke:none"
     d="m 15,1.75 a 0.75,0.75 0 0 0 -0.529297,0.2207031 l -2.5,2.5 a 0.750075,0.750075 0 0 0 0,1.0605469 l 2.5,2.5 a 0.75,0.75 0 0 0 1.060547,0 0.75,0.75 0 0 0 0,-1.0605469 L 13.5625,5 15.53125,3.03125 a 0.75,0.75 0 0 0 0,-1.0605469 A 0.75,0.75 0 0 0 15,1.75 Z"
     id="path12" />
</svg>
