<?xml version="1.0" encoding="UTF-8" standalone="no"?>
<svg
   width="24"
   height="24"
   viewBox="0 0 24 24"
   stroke-width="1.5"
   fill="none"
   version="1.1"
   id="svg12"
   sodipodi:docname="git-fork.svg"
   inkscape:version="1.2.1 (9c6d41e410, 2022-07-14)"
   xmlns:inkscape="http://www.inkscape.org/namespaces/inkscape"
   xmlns:sodipodi="http://sodipodi.sourceforge.net/DTD/sodipodi-0.dtd"
   xmlns="http://www.w3.org/2000/svg"
   xmlns:svg="http://www.w3.org/2000/svg">
  <defs
     id="defs16" />
  <sodipodi:namedview
     id="namedview14"
     pagecolor="#ffffff"
     bordercolor="#666666"
     borderopacity="1.0"
     inkscape:showpageshadow="2"
     inkscape:pageopacity="0.0"
     inkscape:pagecheckerboard="0"
     inkscape:deskcolor="#d1d1d1"
     showgrid="false"
     inkscape:zoom="34.541667"
     inkscape:cx="10.364294"
     inkscape:cy="12.014475"
     inkscape:window-width="1920"
     inkscape:window-height="1009"
     inkscape:window-x="1912"
     inkscape:window-y="-8"
     inkscape:window-maximized="1"
     inkscape:current-layer="svg12" />
  <path
     style="color:#000000;fill:currentColor;stroke-linecap:round;stroke-linejoin:round;-inkscape-stroke:none"
     d="m 17,2.25 c -1.509917,0 -2.75,1.2401154 -2.75,2.75 0,1.5098846 1.240083,2.75 2.75,2.75 1.509917,0 2.75,-1.2401154 2.75,-2.75 0,-1.5098846 -1.240083,-2.75 -2.75,-2.75 z m 0,1.5 c 0.699281,0 1.25,0.5507468 1.25,1.25 0,0.6992532 -0.550719,1.25 -1.25,1.25 -0.699281,0 -1.25,-0.5507468 -1.25,-1.25 0,-0.6992532 0.550719,-1.25 1.25,-1.25 z"
     id="path2" />
  <path
     style="color:#000000;fill:currentColor;stroke-linecap:round;stroke-linejoin:round;-inkscape-stroke:none"
     d="M 7,2.25 C 5.4901018,2.25 4.25,3.4901018 4.25,5 4.25,6.5098982 5.4901018,7.75 7,7.75 8.5098982,7.75 9.75,6.5098982 9.75,5 9.75,3.4901018 8.5098982,2.25 7,2.25 Z m 0,1.5 C 7.6992396,3.75 8.25,4.3007604 8.25,5 8.25,5.6992396 7.6992396,6.25 7,6.25 6.3007604,6.25 5.75,5.6992396 5.75,5 5.75,4.3007604 6.3007604,3.75 7,3.75 Z"
     id="path4" />
  <path
     style="color:#000000;fill:currentColor;stroke-linecap:round;stroke-linejoin:round;-inkscape-stroke:none"
     d="m 7,16.25 c -1.5098846,0 -2.75,1.240083 -2.75,2.75 0,1.509917 1.2401154,2.75 2.75,2.75 1.5098846,0 2.75,-1.240083 2.75,-2.75 0,-1.509917 -1.2401154,-2.75 -2.75,-2.75 z m 0,1.5 c 0.6992532,0 1.25,0.550719 1.25,1.25 0,0.699281 -0.5507468,1.25 -1.25,1.25 -0.6992532,0 -1.25,-0.550719 -1.25,-1.25 0,-0.699281 0.5507468,-1.25 1.25,-1.25 z"
     id="path6" />
  <path
     style="color:#000000;fill:currentColor;stroke-linecap:round;stroke-linejoin:round;-inkscape-stroke:none"
     d="M 7,6.25 A 0.75,0.75 0 0 0 6.25,7 V 17 A 0.75,0.75 0 0 0 7,17.75 0.75,0.75 0 0 0 7.75,17 V 7 A 0.75,0.75 0 0 0 7,6.25 Z"
     id="path8" />
  <path
     style="color:#000000;fill:currentColor;stroke-linecap:round;stroke-linejoin:round;-inkscape-stroke:none"
     d="M 17,6.25 A 0.75,0.75 0 0 0 16.25,7 v 1 c 0,1.0499989 -0.37734,1.5520967 -0.744141,1.8730469 -0.3668,0.3209501 -0.6875,0.3984371 -0.6875,0.3984371 a 0.750075,0.750075 0 0 0 -0.05469,0.01758 l -5.9453126,1.982421 c 0,0 -0.6793012,0.172514 -1.3125,0.726563 C 6.8726606,13.552096 6.25,14.550001 6.25,16 v 1 A 0.75,0.75 0 0 0 7,17.75 0.75,0.75 0 0 0 7.75,17 v -1 c 0,-1.049999 0.3773404,-1.552097 0.7441406,-1.873047 0.3668002,-0.32095 0.6875,-0.398437 0.6875,-0.398437 a 0.750075,0.750075 0 0 0 0.054687,-0.01758 l 5.9453129,-1.982422 c 0,0 0.679301,-0.172514 1.3125,-0.726563 C 17.127339,10.447904 17.75,9.4499986 17.75,8 V 7 A 0.75,0.75 0 0 0 17,6.25 Z"
     id="path10" />
</svg>
