<?xml version="1.0" encoding="UTF-8" standalone="no"?>
<svg
   width="24"
   height="24"
   viewBox="0 0 24 24"
   stroke-width="1.5"
   fill="none"
   version="1.1"
   id="svg7"
   sodipodi:docname="git.svg"
   inkscape:version="1.3.2 (091e20e, 2023-11-25, custom)"
   xmlns:inkscape="http://www.inkscape.org/namespaces/inkscape"
   xmlns:sodipodi="http://sodipodi.sourceforge.net/DTD/sodipodi-0.dtd"
   xmlns="http://www.w3.org/2000/svg"
   xmlns:svg="http://www.w3.org/2000/svg">
  <sodipodi:namedview
     id="namedview7"
     pagecolor="#ffffff"
     bordercolor="#666666"
     borderopacity="1.0"
     inkscape:showpageshadow="2"
     inkscape:pageopacity="0.0"
     inkscape:pagecheckerboard="0"
     inkscape:deskcolor="#d1d1d1"
     inkscape:zoom="30.708333"
     inkscape:cx="12"
     inkscape:cy="12"
     inkscape:window-width="1920"
     inkscape:window-height="1009"
     inkscape:window-x="-8"
     inkscape:window-y="-8"
     inkscape:window-maximized="1"
     inkscape:current-layer="svg7" />
  <path
     style="color:#000000;fill:currentColor;stroke-linecap:round;stroke-linejoin:round;-inkscape-stroke:none"
     d="m 12,6.25 c -1.23374,0 -2.25,1.0162262 -2.25,2.25 0,1.2337738 1.01626,2.25 2.25,2.25 1.23374,0 2.25,-1.0162262 2.25,-2.25 0,-1.2337738 -1.01626,-2.25 -2.25,-2.25 z m 0,1.5 c 0.423058,0 0.75,0.3269155 0.75,0.75 0,0.4230845 -0.326942,0.75 -0.75,0.75 -0.423058,0 -0.75,-0.3269155 -0.75,-0.75 0,-0.4230845 0.326942,-0.75 0.75,-0.75 z"
     id="path1" />
  <path
     style="color:#000000;fill:currentColor;stroke-linecap:round;stroke-linejoin:round;-inkscape-stroke:none"
     d="m 12,14.25 c -1.233758,0 -2.25,1.016242 -2.25,2.25 0,1.233758 1.016242,2.25 2.25,2.25 1.233758,0 2.25,-1.016242 2.25,-2.25 0,-1.233758 -1.016242,-2.25 -2.25,-2.25 z m 0,1.5 c 0.42304,0 0.75,0.32696 0.75,0.75 0,0.42304 -0.32696,0.75 -0.75,0.75 -0.42304,0 -0.75,-0.32696 -0.75,-0.75 0,-0.42304 0.32696,-0.75 0.75,-0.75 z"
     id="path2" />
  <path
     style="color:#000000;fill:currentColor;stroke-linecap:round;stroke-linejoin:round;-inkscape-stroke:none"
     d="m 16.25,10.5 c -1.233758,0 -2.25,1.016242 -2.25,2.25 0,1.233758 1.016242,2.25 2.25,2.25 1.233758,0 2.25,-1.016242 2.25,-2.25 0,-1.233758 -1.016242,-2.25 -2.25,-2.25 z m 0,1.5 c 0.42304,0 0.75,0.32696 0.75,0.75 0,0.42304 -0.32696,0.75 -0.75,0.75 -0.42304,0 -0.75,-0.32696 -0.75,-0.75 0,-0.42304 0.32696,-0.75 0.75,-0.75 z"
     id="path3" />
  <path
     style="color:#000000;fill:currentColor;stroke-linecap:round;stroke-linejoin:round;-inkscape-stroke:none"
     d="M 12,9.25 A 0.75,0.75 0 0 0 11.25,10 v 5 A 0.75,0.75 0 0 0 12,15.75 0.75,0.75 0 0 0 12.75,15 V 10 A 0.75,0.75 0 0 0 12,9.25 Z"
     id="path4" />
  <path
     style="color:#000000;fill:currentColor;stroke-linecap:round;stroke-linejoin:round;-inkscape-stroke:none"
     d="m 8.25,4 a 0.75,0.75 0 0 0 -0.53125,0.21875 0.75,0.75 0 0 0 0,1.0625 l 2.25,2.25 a 0.75,0.75 0 0 0 1.0625,0 0.75,0.75 0 0 0 0,-1.0625 l -2.25,-2.25 A 0.75,0.75 0 0 0 8.25,4 Z"
     id="path5" />
  <path
     style="color:#000000;fill:currentColor;stroke-linecap:round;stroke-linejoin:round;-inkscape-stroke:none"
     d="m 13.25,9 a 0.75,0.75 0 0 0 -0.53125,0.21875 0.75,0.75 0 0 0 0,1.0625 l 1.5,1.5 a 0.75,0.75 0 0 0 1.0625,0 0.75,0.75 0 0 0 0,-1.0625 l -1.5,-1.5 A 0.75,0.75 0 0 0 13.25,9 Z"
     id="path6" />
  <path
     style="color:#000000;fill:currentColor;stroke-linecap:round;stroke-linejoin:round;-inkscape-stroke:none"
     d="m 12,0.50390625 c -0.347056,5.35e-6 -0.694616,0.13015208 -0.955078,0.390625 L 0.89453125,11.044922 c -0.5207624,0.520962 -0.52094584,1.389233 0,1.910156 L 11.044922,23.105469 c 0.520983,0.520983 1.389302,0.520854 1.910156,0 L 23.105469,12.955078 c 0.520983,-0.520983 0.520854,-1.389302 0,-1.910156 L 12.955078,0.89453125 C 12.694597,0.63415005 12.347056,0.5039009 12,0.50390625 Z M 12,2.0605469 21.939453,12 12,21.939453 2.0605469,12 Z"
     id="path7" />
  <defs
     id="defs7">
    <clipPath
       clipPathUnits="userSpaceOnUse"
       id="clipPath8">
      <g
         id="g9">
        <rect
           width="24"
           height="24"
           fill="#ffffff"
           id="rect8"
           x="0"
           y="0" />
      </g>
    </clipPath>
    <clipPath
       clipPathUnits="userSpaceOnUse"
       id="clipPath9">
      <g
         id="g10">
        <rect
           width="24"
           height="24"
           fill="#ffffff"
           id="rect9"
           x="0"
           y="0" />
      </g>
    </clipPath>
    <clipPath
       clipPathUnits="userSpaceOnUse"
       id="clipPath10">
      <g
         id="g11">
        <rect
           width="24"
           height="24"
           fill="#ffffff"
           id="rect10"
           x="0"
           y="0" />
      </g>
    </clipPath>
    <clipPath
       clipPathUnits="userSpaceOnUse"
       id="clipPath11">
      <g
         id="g12">
        <rect
           width="24"
           height="24"
           fill="#ffffff"
           id="rect11"
           x="0"
           y="0" />
      </g>
    </clipPath>
    <clipPath
       clipPathUnits="userSpaceOnUse"
       id="clipPath12">
      <g
         id="g13">
        <rect
           width="24"
           height="24"
           fill="#ffffff"
           id="rect12"
           x="0"
           y="0" />
      </g>
    </clipPath>
    <clipPath
       clipPathUnits="userSpaceOnUse"
       id="clipPath13">
      <g
         id="g14">
        <rect
           width="24"
           height="24"
           fill="#ffffff"
           id="rect13"
           x="0"
           y="0" />
      </g>
    </clipPath>
    <clipPath
       clipPathUnits="userSpaceOnUse"
       id="clipPath14">
      <g
         id="g15">
        <rect
           width="24"
           height="24"
           fill="#ffffff"
           id="rect14"
           x="0"
           y="0" />
      </g>
    </clipPath>
  </defs>
</svg>
