<?xml version="1.0" encoding="UTF-8" standalone="no"?>
<svg
   width="24"
   height="24"
   stroke-width="1.5"
   viewBox="0 0 24 24"
   fill="none"
   version="1.1"
   id="svg6"
   sodipodi:docname="github.svg"
   inkscape:version="1.2.1 (9c6d41e410, 2022-07-14)"
   xmlns:inkscape="http://www.inkscape.org/namespaces/inkscape"
   xmlns:sodipodi="http://sodipodi.sourceforge.net/DTD/sodipodi-0.dtd"
   xmlns="http://www.w3.org/2000/svg"
   xmlns:svg="http://www.w3.org/2000/svg">
  <defs
     id="defs10" />
  <sodipodi:namedview
     id="namedview8"
     pagecolor="#ffffff"
     bordercolor="#666666"
     borderopacity="1.0"
     inkscape:showpageshadow="2"
     inkscape:pageopacity="0.0"
     inkscape:pagecheckerboard="0"
     inkscape:deskcolor="#d1d1d1"
     showgrid="false"
     inkscape:zoom="34.541667"
     inkscape:cx="10.364294"
     inkscape:cy="12.014475"
     inkscape:window-width="1920"
     inkscape:window-height="1009"
     inkscape:window-x="1912"
     inkscape:window-y="-8"
     inkscape:window-maximized="1"
     inkscape:current-layer="svg6" />
  <path
     style="color:#000000;fill:currentColor;stroke-linecap:round;stroke-linejoin:round;-inkscape-stroke:none"
     d="m 5.296875,1.2519531 c -0.2179421,0.006 -0.4199219,0.056641 -0.4199219,0.056641 A 0.750075,0.750075 0 0 0 4.4003906,1.7304687 C 3.8678106,2.973031 3.8515765,4.3489455 4.2265625,5.6386719 3.3057238,6.7523765 2.7431861,8.1222071 2.75,9.5761719 c 0,7.501e-4 -10e-8,0.0012 0,0.00195 3.3e-6,6.521e-4 -3.5e-6,0.0013 0,0.00195 9.594e-4,2.8597339 0.9172368,4.7854449 2.3105469,5.9570309 1.0869308,0.913963 2.3954261,1.300799 3.6933594,1.550782 -0.075758,0.148704 -0.2062779,0.264356 -0.2636719,0.421875 -0.1979972,0.543437 -0.2788714,1.122276 -0.2382813,1.699218 L 8.25,19.15625 v 2.871094 a 0.75,0.75 0 0 0 0.75,0.75 0.75,0.75 0 0 0 0.75,-0.75 V 19.15625 a 0.750075,0.750075 0 0 0 -0.00195,-0.05273 c -0.02581,-0.366857 0.026441,-0.734517 0.1523437,-1.080079 0.1259184,-0.345584 0.3222994,-0.661401 0.5781254,-0.925781 A 0.750075,0.750075 0 0 0 10.033203,15.832031 C 8.5239067,15.644571 7.0663423,15.263972 6.0253906,14.388672 4.9844389,13.513372 4.25,12.133961 4.25,9.5761719 a 0.750075,0.750075 0 0 0 0,-0.00391 C 4.2435499,8.3593984 4.7066312,7.1928887 5.5429687,6.3144531 A 0.750075,0.750075 0 0 0 5.703125,5.5351562 C 5.371531,4.6466406 5.4068266,3.6905225 5.6777344,2.7910156 c 0.069439,0.00954 0.090331,0.00121 0.1816406,0.021484 0.5243913,0.1164169 1.4175404,0.4415484 2.7226563,1.3164062 a 0.750075,0.750075 0 0 0 0.6132812,0.1015625 c 2.1635745,-0.5863714 4.4458115,-0.586371 6.6093755,0 A 0.750075,0.750075 0 0 0 16.417969,4.1289062 C 17.723085,3.2540484 18.616234,2.9289169 19.140625,2.8125 c 0.09131,-0.020271 0.112202,-0.011944 0.181641,-0.021484 0.270887,0.8995104 0.306167,1.8556048 -0.02539,2.7441406 a 0.750075,0.750075 0 0 0 0.160156,0.7792969 c 0.830134,0.8719554 1.29271,2.0284616 1.292969,3.2324219 0,2.578904 -0.736278,3.968045 -1.775391,4.841797 -1.039113,0.873752 -2.492306,1.244272 -3.998046,1.412109 a 0.750075,0.750075 0 0 0 -0.455079,1.267578 c 0.258788,0.266951 0.457937,0.585631 0.583985,0.935547 0.126005,0.3498 0.17564,0.723037 0.146484,1.09375 a 0.750075,0.750075 0 0 0 -0.002,0.05859 v 2.871094 a 0.75,0.75 0 0 0 0.75,0.75 0.75,0.75 0 0 0 0.75,-0.75 V 19.15625 l -0.002,0.05859 c 0.04584,-0.582886 -0.03227,-1.168551 -0.230469,-1.71875 -0.05763,-0.15999 -0.191034,-0.276751 -0.267578,-0.427735 1.297144,-0.238181 2.604162,-0.618668 3.689453,-1.53125 C 21.335338,14.363361 22.25,12.427976 22.25,9.546875 22.24969,8.103432 21.687525,6.7443791 20.773437,5.6386719 21.148373,4.3489669 21.13216,2.9730343 20.599609,1.7304687 a 0.750075,0.750075 0 0 0 -0.476562,-0.421875 c 0,0 -0.20198,-0.050642 -0.419922,-0.056641 -0.217942,-0.006 -0.512665,0.012662 -0.886719,0.095703 -0.67857,0.1506452 -1.702144,0.61709 -2.933593,1.3945313 -2.225513,-0.5497555 -4.540106,-0.5497552 -6.7656255,0 C 7.885738,1.9647462 6.8621636,1.4983014 6.1835937,1.3476562 5.80954,1.2646149 5.5148171,1.2459547 5.296875,1.2519531 Z"
     id="path2" />
  <path
     style="color:#000000;fill:currentColor;stroke-linecap:round;stroke-linejoin:round;-inkscape-stroke:none"
     d="m 2.2363281,16.314453 a 0.75,0.75 0 0 0 -0.5722656,0.04102 0.75,0.75 0 0 0 -0.3339844,1.005859 c 0.8100272,1.620054 1.9407334,2.77149 3.3183594,3.347656 1.377626,0.576167 2.9540711,0.559361 4.5820313,0.03125 A 0.75,0.75 0 0 0 9.7128906,19.794922 0.75,0.75 0 0 0 8.7695313,19.3125 C 7.3974944,19.757589 6.2239341,19.741351 5.2265625,19.324219 4.2291909,18.907086 3.3598932,18.071349 2.6699219,16.691406 A 0.75,0.75 0 0 0 2.2363281,16.314453 Z"
     id="path4" />
</svg>
