<?xml version="1.0" encoding="UTF-8" standalone="no"?>
<svg
   width="24"
   height="24"
   stroke-width="1.5"
   viewBox="0 0 24 24"
   fill="none"
   version="1.1"
   id="svg8"
   sodipodi:docname="github-circle.svg"
   inkscape:version="1.2.1 (9c6d41e410, 2022-07-14)"
   xmlns:inkscape="http://www.inkscape.org/namespaces/inkscape"
   xmlns:sodipodi="http://sodipodi.sourceforge.net/DTD/sodipodi-0.dtd"
   xmlns="http://www.w3.org/2000/svg"
   xmlns:svg="http://www.w3.org/2000/svg">
  <defs
     id="defs12" />
  <sodipodi:namedview
     id="namedview10"
     pagecolor="#ffffff"
     bordercolor="#666666"
     borderopacity="1.0"
     inkscape:showpageshadow="2"
     inkscape:pageopacity="0.0"
     inkscape:pagecheckerboard="0"
     inkscape:deskcolor="#d1d1d1"
     showgrid="false"
     inkscape:zoom="34.541667"
     inkscape:cx="10.364294"
     inkscape:cy="12.014475"
     inkscape:window-width="1920"
     inkscape:window-height="1009"
     inkscape:window-x="1912"
     inkscape:window-y="-8"
     inkscape:window-maximized="1"
     inkscape:current-layer="svg8" />
  <path
     style="color:#000000;fill:currentColor;stroke-linecap:round;stroke-linejoin:round;-inkscape-stroke:none"
     d="M 12,1.25 C 6.0718263,1.25 1.25,6.0718263 1.25,12 1.25,17.928127 6.0718217,22.75 12,22.75 17.928132,22.75 22.75,17.928132 22.75,12 22.75,6.0718217 17.928127,1.25 12,1.25 Z m 0,1.5 c 5.117462,0 9.25,4.1324893 9.25,9.25 0,5.117457 -4.132543,9.25 -9.25,9.25 C 6.8824893,21.25 2.75,17.117462 2.75,12 2.75,6.8824848 6.8824848,2.75 12,2.75 Z"
     id="path2" />
  <path
     style="color:#000000;fill:currentColor;stroke-linecap:round;stroke-linejoin:round;-inkscape-stroke:none"
     d="M 7.1914062,5.25 C 7.0262553,5.254425 6.8515625,5.296875 6.8515625,5.296875 A 0.750075,0.750075 0 0 0 6.3730469,5.7148437 C 6.0113522,6.5365208 6.0008981,7.4426371 6.2246094,8.3027344 5.6270827,9.0544895 5.2456442,9.9543237 5.25,10.917969 c 0,7.38e-4 -2e-7,0.0012 0,0.002 3.2e-6,6.51e-4 -3.6e-6,0.0013 0,0.002 9.966e-4,1.913129 0.6482185,3.262931 1.6367187,4.072266 0.6667056,0.545865 1.4358132,0.804051 2.2070313,0.982422 -0.1446395,0.38808 -0.2056015,0.801969 -0.1757812,1.214843 l -0.00195,-0.05469 V 19 a 0.75,0.75 0 0 0 0.75,0.75 A 0.75,0.75 0 0 0 10.416016,19 v -1.863281 a 0.750075,0.750075 0 0 0 -0.002,-0.05469 c -0.01435,-0.198624 0.01563,-0.396119 0.08594,-0.583984 0.07032,-0.187959 0.181085,-0.361799 0.326172,-0.507813 A 0.750075,0.750075 0 0 0 10.382813,14.716797 C 9.3953462,14.597403 8.4700008,14.353124 7.8359375,13.833984 7.2018742,13.314845 6.75,12.520792 6.75,10.917969 a 0.750075,0.750075 0 0 0 0,-0.0039 C 6.7461049,10.199957 7.0260541,9.5109474 7.5371094,8.9882813 A 0.750075,0.750075 0 0 0 7.7011719,8.1953125 c -0.163257,-0.4259509 -0.048688,-0.8708804 0.03125,-1.3105469 0.331259,0.090451 0.7765617,0.233219 1.5234375,0.7207031 a 0.750075,0.750075 0 0 0 0.6015625,0.097656 c 1.4023241,-0.3700551 2.8828781,-0.3700527 4.2851561,0 a 0.750075,0.750075 0 0 0 0.601563,-0.097656 c 0.746874,-0.4874832 1.192171,-0.6302518 1.523437,-0.7207031 0.07994,0.439674 0.194504,0.8846031 0.03125,1.3105469 a 0.750075,0.750075 0 0 0 0.164063,0.7929688 c 0.50726,0.5188 0.786953,1.2012087 0.787109,1.9101567 0,1.616915 -0.453723,2.41792 -1.085938,2.935546 -0.632214,0.517627 -1.555044,0.75648 -2.539062,0.863282 a 0.750075,0.750075 0 0 0 -0.449219,1.27539 c 0.146783,0.147444 0.257831,0.3216 0.328125,0.511719 0.07034,0.19006 0.09824,0.391145 0.08203,0.591797 a 0.750075,0.750075 0 0 0 -0.002,0.06055 V 19 a 0.75,0.75 0 0 0 0.75,0.75 0.75,0.75 0 0 0 0.75,-0.75 v -1.863281 l -0.0039,0.06055 c 0.03374,-0.417697 -0.02456,-0.836859 -0.169922,-1.230469 0.770239,-0.17278 1.538022,-0.428102 2.203125,-0.972656 C 18.10439,14.182669 18.75,12.825719 18.75,10.898438 18.749789,9.9411004 18.369227,9.0474242 17.775391,8.3007813 17.998506,7.4412272 17.988357,6.535908 17.626953,5.7148437 A 0.750075,0.750075 0 0 0 17.148437,5.296875 c 0,0 -0.174691,-0.04245 -0.339843,-0.046875 -0.165152,-0.00442 -0.381694,0.010699 -0.648438,0.068359 -0.463245,0.1001367 -1.152705,0.4242366 -1.941406,0.8964843 -1.461818,-0.3368912 -2.975656,-0.3368895 -4.4375,0 C 8.9925518,5.7425967 8.3030827,5.4184966 7.8398437,5.3183594 7.5731031,5.2606987 7.3565572,5.245575 7.1914062,5.25 Z"
     id="path4" />
  <path
     style="color:#000000;fill:currentColor;stroke-linecap:round;stroke-linejoin:round;-inkscape-stroke:none"
     d="m 5.2304687,15.041016 a 0.75,0.75 0 0 0 -0.5722656,0.04687 0.75,0.75 0 0 0 -0.3261719,1.009765 c 0.5622892,1.095002 1.3647912,1.894312 2.34375,2.292969 0.9789589,0.398657 2.0912774,0.380886 3.2167969,0.02539 A 0.75,0.75 0 0 0 10.382813,17.476562 0.75,0.75 0 0 0 9.4414063,16.986328 C 8.5669278,17.262532 7.844609,17.246117 7.2402344,17 6.6358598,16.753883 6.1056786,16.264506 5.6679687,15.412109 a 0.75,0.75 0 0 0 -0.4375,-0.371093 z"
     id="path6" />
</svg>
