<?xml version="1.0" encoding="UTF-8" standalone="no"?>
<svg
   width="24"
   height="24"
   stroke-width="1.5"
   viewBox="0 0 24 24"
   fill="none"
   version="1.1"
   id="svg4"
   sodipodi:docname="gitlab-full.svg"
   inkscape:version="1.2.1 (9c6d41e410, 2022-07-14)"
   xmlns:inkscape="http://www.inkscape.org/namespaces/inkscape"
   xmlns:sodipodi="http://sodipodi.sourceforge.net/DTD/sodipodi-0.dtd"
   xmlns="http://www.w3.org/2000/svg"
   xmlns:svg="http://www.w3.org/2000/svg">
  <defs
     id="defs8" />
  <sodipodi:namedview
     id="namedview6"
     pagecolor="#ffffff"
     bordercolor="#666666"
     borderopacity="1.0"
     inkscape:showpageshadow="2"
     inkscape:pageopacity="0.0"
     inkscape:pagecheckerboard="0"
     inkscape:deskcolor="#d1d1d1"
     showgrid="false"
     inkscape:zoom="34.541667"
     inkscape:cx="10.364294"
     inkscape:cy="12.014475"
     inkscape:window-width="1920"
     inkscape:window-height="1009"
     inkscape:window-x="1912"
     inkscape:window-y="-8"
     inkscape:window-maximized="1"
     inkscape:current-layer="svg4" />
  <path
     style="color:#000000;clip-rule:evenodd;fill:currentColor;fill-rule:evenodd;-inkscape-stroke:none"
     d="M 6.7714844,1.65625 C 6.4093128,1.6482375 6.0030963,1.8898057 5.859375,2.2734375 L 2.9160156,10.134766 2.7480469,10.583984 1.3515625,14.3125 c -0.1485735,0.396416 -0.011891,0.85249 0.3300781,1.101563 l 9.7597654,7.107421 v -0.002 c 0.331296,0.241501 0.785892,0.241501 1.117188,0 v 0.002 l 9.759765,-7.107421 c 0.341771,-0.249032 0.478635,-0.702987 0.330078,-1.09961 L 21.251953,10.582031 18.136719,2.2734375 C 17.993,1.8897896 17.588763,1.6481679 17.226562,1.65625 16.864362,1.6643321 16.470339,1.9229315 16.34375,2.3125 L 14,9.53125 H 10 L 7.6523437,2.3125 C 7.5257211,1.9228918 7.1336559,1.6642625 6.7714844,1.65625 Z M 6.7128906,4.2734375 8.6953125,10.375 c 0.126279,0.388551 0.4956351,0.65625 0.9042969,0.65625 h 4.8007816 c 0.40877,0 0.778202,-0.268585 0.904297,-0.658203 l 1.980468,-6.0996095 2.560547,6.8359375 1.251953,3.337891 -9.097656,6.625 -9.0976562,-6.625 1.2519531,-3.339844 0.1660156,-0.449219 z"
     id="path2" />
</svg>
