<?xml version="1.0" encoding="UTF-8" standalone="no"?>
<svg
   width="24"
   height="24"
   stroke-width="1.5"
   viewBox="0 0 24 24"
   fill="none"
   version="1.1"
   id="svg8"
   sodipodi:docname="glasses.svg"
   inkscape:version="1.2.1 (9c6d41e410, 2022-07-14)"
   xmlns:inkscape="http://www.inkscape.org/namespaces/inkscape"
   xmlns:sodipodi="http://sodipodi.sourceforge.net/DTD/sodipodi-0.dtd"
   xmlns="http://www.w3.org/2000/svg"
   xmlns:svg="http://www.w3.org/2000/svg">
  <defs
     id="defs12" />
  <sodipodi:namedview
     id="namedview10"
     pagecolor="#ffffff"
     bordercolor="#666666"
     borderopacity="1.0"
     inkscape:showpageshadow="2"
     inkscape:pageopacity="0.0"
     inkscape:pagecheckerboard="0"
     inkscape:deskcolor="#d1d1d1"
     showgrid="false"
     inkscape:zoom="34.541667"
     inkscape:cx="10.364294"
     inkscape:cy="12.014475"
     inkscape:window-width="1920"
     inkscape:window-height="1009"
     inkscape:window-x="1912"
     inkscape:window-y="-8"
     inkscape:window-maximized="1"
     inkscape:current-layer="svg8" />
  <path
     style="color:#000000;fill:currentColor;stroke-linecap:round;stroke-linejoin:round;-inkscape-stroke:none"
     d="M 2,5.25 A 0.75,0.75 0 0 0 1.25,6 v 8 c 0,2.614434 2.1355239,4.75 4.75,4.75 2.6144761,0 4.75,-2.135566 4.75,-4.75 C 10.75,11.385566 8.6144761,9.25 6,9.25 4.7382396,9.25 3.6024525,9.7656564 2.75,10.574219 V 6 A 0.75,0.75 0 0 0 2,5.25 Z m 4,5.5 c 1.8037995,0 3.25,1.446239 3.25,3.25 0,1.803761 -1.4462005,3.25 -3.25,3.25 -1.8037995,0 -3.25,-1.446239 -3.25,-3.25 0,-1.803761 1.4462005,-3.25 3.25,-3.25 z"
     id="path2" />
  <path
     style="color:#000000;fill:currentColor;stroke-linecap:round;stroke-linejoin:round;-inkscape-stroke:none"
     d="M 22,5.25 A 0.75,0.75 0 0 0 21.25,6 v 4.574219 C 20.397544,9.7656576 19.261745,9.25 18,9.25 c -2.614443,0 -4.75,2.135557 -4.75,4.75 0,2.614443 2.135557,4.75 4.75,4.75 2.614443,0 4.75,-2.135557 4.75,-4.75 V 6 A 0.75,0.75 0 0 0 22,5.25 Z m -4,5.5 c 1.803752,0 3.25,1.446248 3.25,3.25 0,1.803752 -1.446248,3.25 -3.25,3.25 -1.803752,0 -3.25,-1.446248 -3.25,-3.25 0,-1.803752 1.446248,-3.25 3.25,-3.25 z"
     id="path4" />
  <path
     style="color:#000000;fill:currentColor;stroke-linecap:round;stroke-linejoin:round;-inkscape-stroke:none"
     d="M 10,13.25 A 0.75,0.75 0 0 0 9.25,14 0.75,0.75 0 0 0 10,14.75 h 4 A 0.75,0.75 0 0 0 14.75,14 0.75,0.75 0 0 0 14,13.25 Z"
     id="path6" />
</svg>
