<?xml version="1.0" encoding="UTF-8" standalone="no"?>
<svg
   width="24"
   height="24"
   viewBox="0 0 24 24"
   stroke-width="1.5"
   fill="none"
   version="1.1"
   id="svg8"
   sodipodi:docname="glass-fragile.svg"
   inkscape:version="1.2.1 (9c6d41e410, 2022-07-14)"
   xmlns:inkscape="http://www.inkscape.org/namespaces/inkscape"
   xmlns:sodipodi="http://sodipodi.sourceforge.net/DTD/sodipodi-0.dtd"
   xmlns="http://www.w3.org/2000/svg"
   xmlns:svg="http://www.w3.org/2000/svg">
  <defs
     id="defs12" />
  <sodipodi:namedview
     id="namedview10"
     pagecolor="#ffffff"
     bordercolor="#666666"
     borderopacity="1.0"
     inkscape:showpageshadow="2"
     inkscape:pageopacity="0.0"
     inkscape:pagecheckerboard="0"
     inkscape:deskcolor="#d1d1d1"
     showgrid="false"
     inkscape:zoom="34.541667"
     inkscape:cx="10.364294"
     inkscape:cy="12.014475"
     inkscape:window-width="1920"
     inkscape:window-height="1009"
     inkscape:window-x="1912"
     inkscape:window-y="-8"
     inkscape:window-maximized="1"
     inkscape:current-layer="svg8" />
  <path
     style="color:#000000;fill:currentColor;stroke-linecap:round;stroke-linejoin:round;-inkscape-stroke:none"
     d="M 12,14.25 A 0.75,0.75 0 0 0 11.25,15 v 6.25 H 8 A 0.75,0.75 0 0 0 7.25,22 0.75,0.75 0 0 0 8,22.75 h 4 4 A 0.75,0.75 0 0 0 16.75,22 0.75,0.75 0 0 0 16,21.25 H 12.75 V 15 A 0.75,0.75 0 0 0 12,14.25 Z"
     id="path2" />
  <path
     style="color:#000000;fill:currentColor;stroke-linecap:round;stroke-linejoin:round;-inkscape-stroke:none"
     d="M 6.578125,1.25 A 0.750075,0.750075 0 0 0 5.8496094,1.8183594 c 0,0 -0.3375064,1.3512958 -0.5058594,3.0664062 -0.168353,1.7151104 -0.2088489,3.8091305 0.5527344,5.4746094 0.7054303,1.542686 2.1421351,2.808827 3.3925781,3.751953 1.2504425,0.943126 2.3496095,1.546875 2.3496095,1.546875 a 0.750075,0.750075 0 0 0 0.722656,0 c 0,0 1.099175,-0.603749 2.34961,-1.546875 1.250434,-0.943125 2.687138,-2.209273 3.392578,-3.751953 C 18.865111,8.6938943 18.824606,6.5998769 18.65625,4.8847656 18.487894,3.1696544 18.150391,1.8183594 18.150391,1.8183594 A 0.750075,0.750075 0 0 0 17.421875,1.25 Z m 0.6347656,1.5 h 9.5742184 c 0.08479,0.3706687 0.251411,1.0022957 0.376953,2.28125 0.15682,1.5975829 0.115275,3.5261517 -0.423828,4.7050781 C 16.240875,10.828345 14.965953,12.037712 13.806641,12.912109 12.840547,13.640774 12.260504,13.954735 12,14.103516 11.739493,13.954735 11.159459,13.640774 10.193359,12.912109 9.0340398,12.037712 7.7591141,10.828339 7.2597656,9.7363281 6.7206702,8.5573999 6.6791208,6.6288338 6.8359375,5.03125 6.961478,3.752295 7.1281014,3.1206689 7.2128906,2.75 Z"
     id="path4" />
  <path
     style="color:#000000;fill:currentColor;stroke-linecap:round;stroke-linejoin:round;-inkscape-stroke:none"
     d="m 12.835938,1.3300781 a 0.75,0.75 0 0 0 -1.00586,0.3339844 l -1.9999999,4 A 0.750075,0.750075 0 0 0 10.5,6.75 h 1.787109 l -1.457031,2.9140625 a 0.75,0.75 0 0 0 0.333985,1.0058595 0.75,0.75 0 0 0 1.005859,-0.333984 l 2,-4.0000005 A 0.750075,0.750075 0 0 0 13.5,5.25 H 11.712891 L 13.169922,2.3359375 A 0.75,0.75 0 0 0 12.835938,1.3300781 Z"
     id="path6" />
</svg>
