<?xml version="1.0" encoding="UTF-8" standalone="no"?>
<svg
   width="24"
   height="24"
   stroke-width="1.5"
   viewBox="0 0 24 24"
   fill="none"
   version="1.1"
   id="svg12"
   sodipodi:docname="globe.svg"
   inkscape:version="1.2.1 (9c6d41e410, 2022-07-14)"
   xmlns:inkscape="http://www.inkscape.org/namespaces/inkscape"
   xmlns:sodipodi="http://sodipodi.sourceforge.net/DTD/sodipodi-0.dtd"
   xmlns="http://www.w3.org/2000/svg"
   xmlns:svg="http://www.w3.org/2000/svg">
  <defs
     id="defs16" />
  <sodipodi:namedview
     id="namedview14"
     pagecolor="#ffffff"
     bordercolor="#666666"
     borderopacity="1.0"
     inkscape:showpageshadow="2"
     inkscape:pageopacity="0.0"
     inkscape:pagecheckerboard="0"
     inkscape:deskcolor="#d1d1d1"
     showgrid="false"
     inkscape:zoom="34.541667"
     inkscape:cx="10.364294"
     inkscape:cy="12.014475"
     inkscape:window-width="1920"
     inkscape:window-height="1009"
     inkscape:window-x="1912"
     inkscape:window-y="-8"
     inkscape:window-maximized="1"
     inkscape:current-layer="svg12" />
  <path
     style="color:#000000;fill:currentColor;stroke-linecap:round;stroke-linejoin:round;-inkscape-stroke:none"
     d="M 12,1.25 C 6.0718263,1.25 1.25,6.0718263 1.25,12 1.25,17.928127 6.0718217,22.75 12,22.75 17.928132,22.75 22.75,17.928132 22.75,12 22.75,6.0718217 17.928127,1.25 12,1.25 Z m 0,1.5 c 5.117462,0 9.25,4.1324893 9.25,9.25 0,5.117457 -4.132543,9.25 -9.25,9.25 C 6.8824893,21.25 2.75,17.117462 2.75,12 2.75,6.8824848 6.8824848,2.75 12,2.75 Z"
     id="path2" />
  <path
     style="color:#000000;fill:currentColor;stroke-linecap:round;stroke-linejoin:round;-inkscape-stroke:none"
     d="m 2.7558594,11.794922 a 0.75,0.75 0 0 0 -0.9609375,0.449219 0.75,0.75 0 0 0 0.4492187,0.960937 l 4.8417969,1.761719 -0.8066406,2.828125 a 0.750075,0.750075 0 0 0 0.00977,0.441406 l 1,3 a 0.75,0.75 0 0 0 0.9472656,0.474609 0.75,0.75 0 0 0 0.4746094,-0.947265 L 7.7851562,17.982422 8.7207031,14.705078 A 0.750075,0.750075 0 0 0 8.2558594,13.794922 Z"
     id="path4" />
  <path
     style="color:#000000;fill:currentColor;stroke-linecap:round;stroke-linejoin:round;-inkscape-stroke:none"
     d="m 17.082031,11.753906 a 0.750075,0.750075 0 0 0 -0.318359,0.03516 l -3,1 A 0.750075,0.750075 0 0 0 13.25,13.5 V 17 a 0.750075,0.750075 0 0 0 0.470703,0.697266 l 2.123047,0.847656 0.419922,2.101562 a 0.75,0.75 0 0 0 0.882812,0.589844 0.75,0.75 0 0 0 0.589844,-0.882812 l -0.5,-2.5 A 0.750075,0.750075 0 0 0 16.779297,17.302734 L 14.75,16.492187 v -2.451171 l 2.330078,-0.777344 4.337891,0.482422 a 0.75,0.75 0 0 0 0.828125,-0.664063 0.75,0.75 0 0 0 -0.664063,-0.828125 z"
     id="path6" />
  <path
     style="color:#000000;fill:currentColor;stroke-linecap:round;stroke-linejoin:round;-inkscape-stroke:none"
     d="M 19.236328,4.7890625 A 0.75,0.75 0 0 0 18.289062,5.2636719 L 17.935547,6.3222656 14.894531,6.7578125 A 0.750075,0.750075 0 0 0 14.25,7.5 v 3 a 0.750075,0.750075 0 0 0 1.029297,0.697266 L 17.644531,10.25 h 1.677735 l 1.841796,0.919922 a 0.75,0.75 0 0 0 1.00586,-0.333984 0.75,0.75 0 0 0 -0.333985,-1.0058599 l -2,-1 A 0.750075,0.750075 0 0 0 19.5,8.75 h -2 a 0.750075,0.750075 0 0 0 -0.279297,0.052734 L 15.75,9.390625 V 8.1503906 l 2.855469,-0.4082031 a 0.750075,0.750075 0 0 0 0.605468,-0.5058594 l 0.5,-1.5 A 0.75,0.75 0 0 0 19.236328,4.7890625 Z"
     id="path8" />
  <path
     style="color:#000000;fill:currentColor;stroke-linecap:round;stroke-linejoin:round;-inkscape-stroke:none"
     d="M 8.1640625,2.3300781 A 0.75,0.75 0 0 0 7.8300781,3.3359375 l 0.8046875,1.609375 -1.5859375,2.3808594 -2.1953125,0.4375 A 0.750075,0.750075 0 0 0 4.53125,7.9140625 l -2.5,2 A 0.75,0.75 0 0 0 1.9140625,10.96875 0.75,0.75 0 0 0 2.96875,11.085938 L 5.3261719,9.1992188 7.6464844,8.7363281 A 0.750075,0.750075 0 0 0 8.125,8.4160156 l 2,-3 a 0.750075,0.750075 0 0 0 0.04492,-0.7519531 l -1.0000001,-2 A 0.75,0.75 0 0 0 8.1640625,2.3300781 Z"
     id="path10" />
</svg>
