<?xml version="1.0" encoding="UTF-8" standalone="no"?>
<svg
   width="24"
   height="24"
   stroke-width="1.5"
   viewBox="0 0 24 24"
   fill="none"
   version="1.1"
   id="svg6"
   sodipodi:docname="golf.svg"
   inkscape:version="1.2.1 (9c6d41e410, 2022-07-14)"
   xmlns:inkscape="http://www.inkscape.org/namespaces/inkscape"
   xmlns:sodipodi="http://sodipodi.sourceforge.net/DTD/sodipodi-0.dtd"
   xmlns="http://www.w3.org/2000/svg"
   xmlns:svg="http://www.w3.org/2000/svg">
  <defs
     id="defs10" />
  <sodipodi:namedview
     id="namedview8"
     pagecolor="#ffffff"
     bordercolor="#666666"
     borderopacity="1.0"
     inkscape:showpageshadow="2"
     inkscape:pageopacity="0.0"
     inkscape:pagecheckerboard="0"
     inkscape:deskcolor="#d1d1d1"
     showgrid="false"
     inkscape:zoom="34.541667"
     inkscape:cx="10.364294"
     inkscape:cy="12.014475"
     inkscape:window-width="1920"
     inkscape:window-height="1009"
     inkscape:window-x="1912"
     inkscape:window-y="-8"
     inkscape:window-maximized="1"
     inkscape:current-layer="svg6" />
  <path
     style="color:#000000;fill:currentColor;stroke-linecap:round;stroke-linejoin:round;-inkscape-stroke:none"
     d="M 13.130859,2.1699219 C 12.265066,1.7989427 11.25,2.4682058 11.25,3.4101563 V 12 18 A 0.75,0.75 0 0 0 12,18.75 0.75,0.75 0 0 0 12.75,18 v -5.525391 l 8.875,-4.2265621 c 0.499176,-0.237711 0.779185,-0.758932 0.769531,-1.2460938 -0.0097,-0.4871617 -0.310156,-0.997085 -0.818359,-1.2148437 L 13.132813,2.1699219 a 0.750075,0.750075 0 0 0 -0.002,0 z M 12.75,3.6367188 20.679687,7.0351562 12.75,10.8125 Z"
     id="path2" />
  <path
     style="color:#000000;fill:currentColor;stroke-linecap:round;stroke-linejoin:round;-inkscape-stroke:none"
     d="m 12,14.25 c -2.0343254,0 -3.8819214,0.401899 -5.2851563,1.103516 C 5.3116089,16.055132 4.25,17.128172 4.25,18.5 c 0,1.371828 1.0616089,2.444868 2.4648437,3.146484 C 8.1180786,22.348101 9.9656746,22.75 12,22.75 c 2.03433,0 3.881922,-0.401899 5.285156,-1.103516 C 18.68839,20.944867 19.75,19.871827 19.75,18.5 19.75,17.128173 18.68839,16.055133 17.285156,15.353516 15.881922,14.651899 14.03433,14.25 12,14.25 Z m 0,1.5 c 1.831666,0 3.484971,0.380181 4.615234,0.945312 C 17.745498,17.260444 18.25,17.938829 18.25,18.5 c 0,0.561171 -0.504502,1.239556 -1.634766,1.804687 C 15.484971,20.869819 13.831666,21.25 12,21.25 10.168339,21.25 8.5150307,20.869819 7.3847656,20.304687 6.2545005,19.739556 5.75,19.06117 5.75,18.5 5.75,17.93883 6.2545005,17.260444 7.3847656,16.695312 8.5150307,16.130181 10.168339,15.75 12,15.75 Z"
     id="path4" />
</svg>
