<?xml version="1.0" encoding="UTF-8" standalone="no"?>
<svg
   width="24"
   height="24"
   stroke-width="1.5"
   viewBox="0 0 24 24"
   fill="none"
   version="1.1"
   id="svg13"
   sodipodi:docname="google-drive-check.svg"
   inkscape:version="1.2.1 (9c6d41e410, 2022-07-14)"
   xmlns:inkscape="http://www.inkscape.org/namespaces/inkscape"
   xmlns:sodipodi="http://sodipodi.sourceforge.net/DTD/sodipodi-0.dtd"
   xmlns="http://www.w3.org/2000/svg"
   xmlns:svg="http://www.w3.org/2000/svg">
  <sodipodi:namedview
     id="namedview15"
     pagecolor="#ffffff"
     bordercolor="#666666"
     borderopacity="1.0"
     inkscape:showpageshadow="2"
     inkscape:pageopacity="0.0"
     inkscape:pagecheckerboard="0"
     inkscape:deskcolor="#d1d1d1"
     showgrid="false"
     inkscape:zoom="34.541667"
     inkscape:cx="10.364294"
     inkscape:cy="12.014475"
     inkscape:window-width="1920"
     inkscape:window-height="1009"
     inkscape:window-x="1912"
     inkscape:window-y="-8"
     inkscape:window-maximized="1"
     inkscape:current-layer="svg13" />
  <path
     style="color:#000000;fill:currentColor;stroke-linecap:round;stroke-linejoin:round;-inkscape-stroke:none"
     d="m 14.857422,2.25 -5.7148439,0.00391 a 0.75,0.75 0 0 0 -0.2636718,0.109375 0.75,0.75 0 0 0 -0.080078,-0.025391 0.75,0.75 0 0 0 -0.076172,0.091797 0.75,0.75 0 0 0 -0.1660157,0.1757813 0.75,0.75 0 0 0 -0.058594,0.015625 L 1.3554687,14.621094 a 0.75,0.75 0 0 0 0.017578,0.06641 0.75,0.75 0 0 0 -0.085937,0.226563 0.75,0.75 0 0 0 -0.037109,0.08984 0.75,0.75 0 0 0 0.076172,0.185547 0.75,0.75 0 0 0 0.029297,0.199219 l 3.5761719,5.996094 a 0.75,0.75 0 0 0 0.058594,0.01563 0.75,0.75 0 0 0 0.21875,0.199218 0.75,0.75 0 0 0 0.021484,0.06641 0.75,0.75 0 0 0 0.1777344,0.01563 0.75,0.75 0 0 0 0.1660156,0.06836 h 6.4296873 a 0.75,0.75 0 0 0 0.75,-0.75 0.75,0.75 0 0 0 -0.75,-0.75 H 6.8066406 L 9.125,15.753906 H 12.5 a 0.75,0.75 0 0 0 0.75,-0.75 0.75,0.75 0 0 0 -0.75,-0.75 H 9.8984375 l 2.1035155,-4.078125 1.376953,2.667969 a 0.75,0.75 0 0 0 1.009766,0.322266 0.75,0.75 0 0 0 0.322266,-1.009766 L 12.84375,8.5410156 14.908203,4.5371094 20.857422,14.388672 a 0.75,0.75 0 0 0 1.03125,0.253906 0.75,0.75 0 0 0 0.253906,-1.03125 L 15.5,2.6113281 A 0.75,0.75 0 0 0 15.480469,2.6074219 0.75,0.75 0 0 0 15.201172,2.3339844 0.75,0.75 0 0 0 14.917969,2.3105469 0.75,0.75 0 0 0 14.857422,2.25 Z M 13.626953,3.75 12,6.9042969 10.373047,3.7539063 Z M 9.0957031,4.546875 11.15625,8.5390625 8.2109375,14.253906 H 3.3183594 Z M 3.3203125,15.753906 h 4.1152344 l -1.9082032,3.701172 z"
     id="path2" />
  <path
     style="color:#000000;fill:currentColor;stroke-linecap:round;stroke-linejoin:round;-inkscape-stroke:none"
     d="m 23,16.25 a 0.75,0.75 0 0 0 -0.53125,0.21875 L 18,20.9375 15.53125,18.46875 a 0.75,0.75 0 0 0 -1.0625,0 0.75,0.75 0 0 0 0,1.0625 l 3,3 a 0.750075,0.750075 0 0 0 1.0625,0 l 5,-5 a 0.75,0.75 0 0 0 0,-1.0625 A 0.75,0.75 0 0 0 23,16.25 Z"
     id="path4" />
  <defs
     id="defs11">
    <clipPath
       clipPathUnits="userSpaceOnUse"
       id="clipPath196">
      <g
         id="g200">
        <rect
           width="24"
           height="24"
           stroke-width="1.5"
           fill="#ffffff"
           id="rect198"
           x="0"
           y="0" />
      </g>
    </clipPath>
    <clipPath
       clipPathUnits="userSpaceOnUse"
       id="clipPath202">
      <g
         id="g206">
        <rect
           width="24"
           height="24"
           stroke-width="1.5"
           fill="#ffffff"
           id="rect204"
           x="0"
           y="0" />
      </g>
    </clipPath>
  </defs>
</svg>
