<?xml version="1.0" encoding="UTF-8" standalone="no"?>
<svg
   width="24"
   height="24"
   stroke-width="1.5"
   viewBox="0 0 24 24"
   fill="none"
   version="1.1"
   id="svg10"
   sodipodi:docname="google-home.svg"
   inkscape:version="1.2.1 (9c6d41e410, 2022-07-14)"
   xmlns:inkscape="http://www.inkscape.org/namespaces/inkscape"
   xmlns:sodipodi="http://sodipodi.sourceforge.net/DTD/sodipodi-0.dtd"
   xmlns="http://www.w3.org/2000/svg"
   xmlns:svg="http://www.w3.org/2000/svg">
  <defs
     id="defs14" />
  <sodipodi:namedview
     id="namedview12"
     pagecolor="#ffffff"
     bordercolor="#666666"
     borderopacity="1.0"
     inkscape:showpageshadow="2"
     inkscape:pageopacity="0.0"
     inkscape:pagecheckerboard="0"
     inkscape:deskcolor="#d1d1d1"
     showgrid="false"
     inkscape:zoom="34.541667"
     inkscape:cx="10.364294"
     inkscape:cy="12.014475"
     inkscape:window-width="1920"
     inkscape:window-height="1009"
     inkscape:window-x="1912"
     inkscape:window-y="-8"
     inkscape:window-maximized="1"
     inkscape:current-layer="svg10" />
  <path
     style="color:#000000;fill:currentColor;stroke-linecap:round;-inkscape-stroke:none"
     d="m 11,1.25 c -5.3758852,0 -9.75,4.3741148 -9.75,9.75 0,5.375922 4.3741188,9.75 9.75,9.75 2.730915,0 5.157332,-1.186373 6.927734,-3 H 19.5 c 0.975361,0 1.75,0.774639 1.75,1.75 0,0.975361 -0.774639,1.75 -1.75,1.75 H 17 A 0.75,0.75 0 0 0 16.25,22 0.75,0.75 0 0 0 17,22.75 h 2.5 c 1.786036,0 3.25,-1.463964 3.25,-3.25 0,-1.786036 -1.463964,-3.25 -3.25,-3.25 H 19.035156 C 20.039928,14.715845 20.75,12.966997 20.75,11 20.75,5.6241188 16.375922,1.25 11,1.25 Z m 0,1.5 c 4.565268,0 8.25,3.6847711 8.25,8.25 0,2.117123 -0.792556,4.039596 -2.099609,5.5 C 15.639023,18.188652 13.448127,19.25 11,19.25 6.4347711,19.25 2.75,15.565268 2.75,11 2.75,6.4347752 6.4347752,2.75 11,2.75 Z"
     id="path2" />
  <path
     style="color:#000000;fill:currentColor;stroke-linecap:round;stroke-linejoin:round;-inkscape-stroke:none"
     d="m 10.970703,10.25 a 0.75,0.75 0 0 0 -0.517578,0.246094 l -0.0098,0.01172 a 0.75,0.75 0 0 0 0.05469,1.058593 0.75,0.75 0 0 0 1.058594,-0.05469 L 11.566406,11.5 A 0.75,0.75 0 0 0 11.511719,10.441406 0.75,0.75 0 0 0 10.970703,10.25 Z"
     id="path4" />
  <path
     style="color:#000000;fill:currentColor;stroke-linecap:round;stroke-linejoin:round;-inkscape-stroke:none"
     d="M 7.9707031,10.25 A 0.75,0.75 0 0 0 7.453125,10.496094 l -0.00977,0.01172 a 0.75,0.75 0 0 0 0.054687,1.058593 0.75,0.75 0 0 0 1.0585937,-0.05469 L 8.5664063,11.5 A 0.75,0.75 0 0 0 8.5117188,10.441406 0.75,0.75 0 0 0 7.9707031,10.25 Z"
     id="path6" />
  <path
     style="color:#000000;fill:currentColor;stroke-linecap:round;stroke-linejoin:round;-inkscape-stroke:none"
     d="m 13.970703,10.25 a 0.75,0.75 0 0 0 -0.517578,0.246094 l -0.0098,0.01172 a 0.75,0.75 0 0 0 0.05469,1.058593 0.75,0.75 0 0 0 1.058594,-0.05469 L 14.566406,11.5 A 0.75,0.75 0 0 0 14.511719,10.441406 0.75,0.75 0 0 0 13.970703,10.25 Z"
     id="path8" />
</svg>
