<?xml version="1.0" encoding="UTF-8" standalone="no"?>
<svg
   width="24"
   height="24"
   stroke-width="1.5"
   viewBox="0 0 24 24"
   fill="none"
   version="1.1"
   id="svg4"
   sodipodi:docname="google-drive.svg"
   inkscape:version="1.2.1 (9c6d41e410, 2022-07-14)"
   xmlns:inkscape="http://www.inkscape.org/namespaces/inkscape"
   xmlns:sodipodi="http://sodipodi.sourceforge.net/DTD/sodipodi-0.dtd"
   xmlns="http://www.w3.org/2000/svg"
   xmlns:svg="http://www.w3.org/2000/svg">
  <defs
     id="defs8" />
  <sodipodi:namedview
     id="namedview6"
     pagecolor="#ffffff"
     bordercolor="#666666"
     borderopacity="1.0"
     inkscape:showpageshadow="2"
     inkscape:pageopacity="0.0"
     inkscape:pagecheckerboard="0"
     inkscape:deskcolor="#d1d1d1"
     showgrid="false"
     inkscape:zoom="34.541667"
     inkscape:cx="10.364294"
     inkscape:cy="12.014475"
     inkscape:window-width="1920"
     inkscape:window-height="1009"
     inkscape:window-x="1912"
     inkscape:window-y="-8"
     inkscape:window-maximized="1"
     inkscape:current-layer="svg4" />
  <path
     style="color:#000000;fill:currentColor;stroke-linecap:round;stroke-linejoin:round;-inkscape-stroke:none"
     d="m 14.857422,2.25 -5.7148439,0.00391 a 0.75,0.75 0 0 0 -0.1660156,0.068359 0.75,0.75 0 0 0 -0.1777344,0.015625 0.75,0.75 0 0 0 -0.076172,0.091797 0.75,0.75 0 0 0 -0.1660157,0.1757813 0.75,0.75 0 0 0 -0.058594,0.015625 L 1.3554687,14.621094 a 0.75,0.75 0 0 0 0.017578,0.06641 0.75,0.75 0 0 0 -0.085937,0.226563 0.75,0.75 0 0 0 -0.037109,0.08984 0.75,0.75 0 0 0 0.076172,0.185547 0.75,0.75 0 0 0 0.029297,0.199219 l 3.5761719,5.996094 a 0.75,0.75 0 0 0 0.058594,0.01563 0.75,0.75 0 0 0 0.21875,0.199218 0.75,0.75 0 0 0 0.021484,0.06641 0.75,0.75 0 0 0 0.1777344,0.01563 A 0.75,0.75 0 0 0 5.5742187,21.75 H 18.431641 a 0.75,0.75 0 0 0 0.08984,-0.03711 0.75,0.75 0 0 0 0.199219,-0.06445 0.75,0.75 0 0 0 0.05469,0.01758 0.75,0.75 0 0 0 0.152343,-0.121094 0.75,0.75 0 0 0 0.04297,-0.0332 0.75,0.75 0 0 0 0.08008,-0.111328 0.75,0.75 0 0 0 0.02539,-0.01758 l 3.568359,-5.996093 a 0.75,0.75 0 0 0 0.01758,-0.0625 0.75,0.75 0 0 0 0.07031,-0.248047 0.75,0.75 0 0 0 0.01563,-0.06836 0.75,0.75 0 0 0 0.002,-0.0039 0.75,0.75 0 0 0 -0.0098,-0.05469 0.75,0.75 0 0 0 -0.02734,-0.138672 0.75,0.75 0 0 0 -0.05078,-0.138672 0.75,0.75 0 0 0 0,-0.0039 0.75,0.75 0 0 0 -0.01367,-0.03711 0.75,0.75 0 0 0 -0.0039,-0.0098 L 15.501953,2.6171875 A 0.75,0.75 0 0 0 15.474609,2.5976563 0.75,0.75 0 0 0 15.201172,2.3339844 0.75,0.75 0 0 0 15.111328,2.3261719 0.75,0.75 0 0 0 14.900391,2.2929688 0.75,0.75 0 0 0 14.857422,2.25 Z M 13.626953,3.75 12,6.90625 10.373047,3.7539063 Z m 1.277344,0.7949219 5.777344,9.7089841 H 15.792969 L 12.84375,8.5410156 Z M 9.0957031,4.546875 11.15625,8.5410156 8.2109375,14.253906 H 3.3183594 Z M 12,10.175781 14.105469,14.253906 H 9.8984375 Z m -8.6796875,5.578125 h 4.1152344 l -1.9082032,3.701172 z m 5.8046875,0 h 5.755859 L 17.201172,20.25 H 6.8066406 Z m 7.441406,0 h 4.115235 l -2.203125,3.701172 z"
     id="path2" />
</svg>
