<?xml version="1.0" encoding="UTF-8" standalone="no"?>
<svg
   width="24"
   height="24"
   stroke-width="1.5"
   viewBox="0 0 24 24"
   fill="none"
   version="1.1"
   id="svg12"
   sodipodi:docname="google-drive-sync.svg"
   inkscape:version="1.2.1 (9c6d41e410, 2022-07-14)"
   xmlns:inkscape="http://www.inkscape.org/namespaces/inkscape"
   xmlns:sodipodi="http://sodipodi.sourceforge.net/DTD/sodipodi-0.dtd"
   xmlns="http://www.w3.org/2000/svg"
   xmlns:svg="http://www.w3.org/2000/svg">
  <defs
     id="defs16" />
  <sodipodi:namedview
     id="namedview14"
     pagecolor="#ffffff"
     bordercolor="#666666"
     borderopacity="1.0"
     inkscape:showpageshadow="2"
     inkscape:pageopacity="0.0"
     inkscape:pagecheckerboard="0"
     inkscape:deskcolor="#d1d1d1"
     showgrid="false"
     inkscape:zoom="34.541667"
     inkscape:cx="10.364294"
     inkscape:cy="12.014475"
     inkscape:window-width="1920"
     inkscape:window-height="1009"
     inkscape:window-x="1912"
     inkscape:window-y="-8"
     inkscape:window-maximized="1"
     inkscape:current-layer="svg12" />
  <path
     style="color:#000000;fill:currentColor;stroke-linecap:round;stroke-linejoin:round;-inkscape-stroke:none"
     d="m 14.857422,2.25 -5.7148439,0.00391 a 0.75,0.75 0 0 0 -0.2636718,0.109375 0.75,0.75 0 0 0 -0.080078,-0.025391 0.75,0.75 0 0 0 -0.076172,0.091797 0.75,0.75 0 0 0 -0.1660157,0.1757813 0.75,0.75 0 0 0 -0.058594,0.015625 L 1.3554687,14.621094 a 0.75,0.75 0 0 0 0.017578,0.06641 0.75,0.75 0 0 0 -0.085937,0.226563 0.75,0.75 0 0 0 -0.037109,0.08984 0.75,0.75 0 0 0 0.076172,0.185547 0.75,0.75 0 0 0 0.029297,0.199219 l 3.5761719,5.996094 a 0.75,0.75 0 0 0 0.058594,0.01563 0.75,0.75 0 0 0 0.21875,0.199218 0.75,0.75 0 0 0 0.021484,0.06641 0.75,0.75 0 0 0 0.1777344,0.01563 0.75,0.75 0 0 0 0.1660156,0.06836 h 6.4296873 a 0.75,0.75 0 0 0 0.75,-0.75 0.75,0.75 0 0 0 -0.75,-0.75 H 6.8066406 L 9.125,15.753906 H 12.5 a 0.75,0.75 0 0 0 0.75,-0.75 0.75,0.75 0 0 0 -0.75,-0.75 H 9.8984375 l 2.1035155,-4.078125 1.376953,2.667969 a 0.75,0.75 0 0 0 1.009766,0.322266 0.75,0.75 0 0 0 0.322266,-1.009766 L 12.84375,8.5410156 14.904297,4.5449219 19.568359,12.382813 a 0.75,0.75 0 0 0 1.027344,0.261718 0.75,0.75 0 0 0 0.261719,-1.027343 L 15.501953,2.6171875 A 0.75,0.75 0 0 0 15.474609,2.5976563 0.75,0.75 0 0 0 15.201172,2.3339844 0.75,0.75 0 0 0 15.111328,2.3261719 0.75,0.75 0 0 0 14.900391,2.2929688 0.75,0.75 0 0 0 14.857422,2.25 Z M 13.626953,3.75 12,6.9042969 10.373047,3.7539063 Z M 9.0957031,4.546875 11.15625,8.5390625 8.2109375,14.253906 H 3.3183594 Z M 3.3203125,15.753906 h 4.1152344 l -1.9082032,3.701172 z"
     id="path2" />
  <path
     style="color:#000000;fill:currentColor;stroke-linecap:round;stroke-linejoin:round;-inkscape-stroke:none"
     d="m 18.990234,14.25 c -2.115114,0 -3.883356,1.505903 -4.509765,3.527344 a 0.75,0.75 0 0 0 0.49414,0.939453 0.75,0.75 0 0 0 0.939454,-0.494141 C 16.369452,16.7531 17.588552,15.75 18.990234,15.75 c 1.310722,0 2.458975,0.873282 2.978516,2.191406 a 0.75,0.75 0 0 0 0.972656,0.423828 0.75,0.75 0 0 0 0.421875,-0.972656 C 22.645423,15.571305 20.968109,14.25 18.990234,14.25 Z"
     id="path4" />
  <path
     style="color:#000000;fill:currentColor;stroke-linecap:round;stroke-linejoin:round;-inkscape-stroke:none"
     d="m 23,14.800781 a 0.75,0.75 0 0 0 -0.75,0.75 v 1.470703 h -1.255859 a 0.75,0.75 0 0 0 -0.75,0.75 0.75,0.75 0 0 0 0.75,0.75 h 1.40625 c 0.736649,0 1.349609,-0.612959 1.349609,-1.349609 v -1.621094 a 0.75,0.75 0 0 0 -0.75,-0.75 z"
     id="path6" />
  <path
     style="color:#000000;fill:currentColor;stroke-linecap:round;stroke-linejoin:round;-inkscape-stroke:none"
     d="m 23.025391,19.283203 a 0.75,0.75 0 0 0 -0.939454,0.494141 C 21.630548,21.2469 20.411448,22.25 19.009766,22.25 c -1.310722,0 -2.458975,-0.873282 -2.978516,-2.191406 a 0.75,0.75 0 0 0 -0.972656,-0.423828 0.75,0.75 0 0 0 -0.421875,0.972656 c 0.717858,1.821273 2.395172,3.142578 4.373047,3.142578 2.115114,0 3.883356,-1.505903 4.509765,-3.527344 a 0.75,0.75 0 0 0 -0.49414,-0.939453 z"
     id="path8" />
  <path
     style="color:#000000;fill:currentColor;stroke-linecap:round;stroke-linejoin:round;-inkscape-stroke:none"
     d="m 15.599609,19.478516 c -0.736649,0 -1.349609,0.612959 -1.349609,1.349609 v 1.621094 a 0.75,0.75 0 0 0 0.75,0.75 0.75,0.75 0 0 0 0.75,-0.75 v -1.470703 h 1.255859 a 0.75,0.75 0 0 0 0.75,-0.75 0.75,0.75 0 0 0 -0.75,-0.75 z"
     id="path10" />
</svg>
