<?xml version="1.0" encoding="UTF-8" standalone="no"?>
<svg
   width="24"
   height="24"
   stroke-width="1.5"
   viewBox="0 0 24 24"
   fill="none"
   version="1.1"
   id="svg10"
   sodipodi:docname="grid-plus.svg"
   inkscape:version="1.2.1 (9c6d41e410, 2022-07-14)"
   xmlns:inkscape="http://www.inkscape.org/namespaces/inkscape"
   xmlns:sodipodi="http://sodipodi.sourceforge.net/DTD/sodipodi-0.dtd"
   xmlns="http://www.w3.org/2000/svg"
   xmlns:svg="http://www.w3.org/2000/svg">
  <defs
     id="defs14" />
  <sodipodi:namedview
     id="namedview12"
     pagecolor="#ffffff"
     bordercolor="#666666"
     borderopacity="1.0"
     inkscape:showpageshadow="2"
     inkscape:pageopacity="0.0"
     inkscape:pagecheckerboard="0"
     inkscape:deskcolor="#d1d1d1"
     showgrid="false"
     inkscape:zoom="34.541667"
     inkscape:cx="10.364294"
     inkscape:cy="12.014475"
     inkscape:window-width="1920"
     inkscape:window-height="1009"
     inkscape:window-x="1912"
     inkscape:window-y="-8"
     inkscape:window-maximized="1"
     inkscape:current-layer="svg10" />
  <path
     style="color:#000000;fill:currentColor;stroke-linecap:round;stroke-linejoin:round;-inkscape-stroke:none"
     d="m 16.992187,13.25 a 0.75,0.75 0 0 0 -0.75,0.75 v 2.25 h -2.249999 a 0.75,0.75 0 0 0 -0.75,0.75 0.75,0.75 0 0 0 0.75,0.75 h 2.249999 V 20 a 0.75,0.75 0 0 0 0.75,0.75 0.75,0.75 0 0 0 0.75,-0.75 v -2.25 h 2.25 a 0.75,0.75 0 0 0 0.75,-0.75 0.75,0.75 0 0 0 -0.75,-0.75 h -2.25 V 14 a 0.75,0.75 0 0 0 -0.75,-0.75 z"
     id="path2" />
  <path
     style="color:#000000;fill:currentColor;-inkscape-stroke:none"
     d="M 4.5996094,3.25 C 3.8629077,3.25 3.25,3.8629077 3.25,4.5996094 V 9.4003906 C 3.25,10.137092 3.8629077,10.75 4.5996094,10.75 H 9.4003906 C 10.137092,10.75 10.75,10.137092 10.75,9.4003906 V 4.5996094 C 10.75,3.8629077 10.137092,3.25 9.4003906,3.25 Z M 4.75,4.75 h 4.5 v 4.5 h -4.5 z"
     id="path4" />
  <path
     style="color:#000000;fill:currentColor;-inkscape-stroke:none"
     d="M 4.5996094,13.25 C 3.862953,13.25 3.25,13.862914 3.25,14.599609 v 4.800782 C 3.25,20.137086 3.862953,20.75 4.5996094,20.75 H 9.4003906 C 10.137047,20.75 10.75,20.137086 10.75,19.400391 V 14.599609 C 10.75,13.862914 10.137047,13.25 9.4003906,13.25 Z M 4.75,14.75 h 4.5 v 4.5 h -4.5 z"
     id="path6" />
  <path
     style="color:#000000;fill:currentColor;-inkscape-stroke:none"
     d="M 14.599609,3.25 C 13.862914,3.25 13.25,3.862953 13.25,4.5996094 V 9.4003906 C 13.25,10.137047 13.862914,10.75 14.599609,10.75 h 4.800782 C 20.137086,10.75 20.75,10.137047 20.75,9.4003906 V 4.5996094 C 20.75,3.862953 20.137086,3.25 19.400391,3.25 Z M 14.75,4.75 h 4.5 v 4.5 h -4.5 z"
     id="path8" />
</svg>
