<?xml version="1.0" encoding="UTF-8" standalone="no"?>
<svg
   width="24"
   height="24"
   stroke-width="1.5"
   viewBox="0 0 24 24"
   fill="none"
   version="1.1"
   id="svg12"
   sodipodi:docname="gym.svg"
   inkscape:version="1.2.1 (9c6d41e410, 2022-07-14)"
   xmlns:inkscape="http://www.inkscape.org/namespaces/inkscape"
   xmlns:sodipodi="http://sodipodi.sourceforge.net/DTD/sodipodi-0.dtd"
   xmlns="http://www.w3.org/2000/svg"
   xmlns:svg="http://www.w3.org/2000/svg">
  <defs
     id="defs16" />
  <sodipodi:namedview
     id="namedview14"
     pagecolor="#ffffff"
     bordercolor="#666666"
     borderopacity="1.0"
     inkscape:showpageshadow="2"
     inkscape:pageopacity="0.0"
     inkscape:pagecheckerboard="0"
     inkscape:deskcolor="#d1d1d1"
     showgrid="false"
     inkscape:zoom="34.541667"
     inkscape:cx="10.364294"
     inkscape:cy="12.014475"
     inkscape:window-width="1920"
     inkscape:window-height="1009"
     inkscape:window-x="1912"
     inkscape:window-y="-8"
     inkscape:window-maximized="1"
     inkscape:current-layer="svg12" />
  <path
     style="color:#000000;fill:currentColor;stroke-linecap:round;stroke-linejoin:round;-inkscape-stroke:none"
     d="M 4.5996094,6.25 C 3.8629077,6.25 3.25,6.8629077 3.25,7.5996094 V 16.400391 C 3.25,17.137086 3.862953,17.75 4.5996094,17.75 H 7.4003906 C 8.137047,17.75 8.75,17.137086 8.75,16.400391 V 7.5996094 C 8.75,6.8629077 8.1370923,6.25 7.4003906,6.25 Z M 4.75,7.75 h 2.5 v 8.5 h -2.5 z"
     id="path2" />
  <path
     style="color:#000000;fill:currentColor;stroke-linecap:round;stroke-linejoin:round;-inkscape-stroke:none"
     d="M 16.599609,6.25 C 15.862914,6.25 15.25,6.862953 15.25,7.5996094 v 8.8007816 c 0,0.736649 0.61296,1.349609 1.349609,1.349609 h 2.800782 C 20.13704,17.75 20.75,17.13704 20.75,16.400391 V 7.5996094 C 20.75,6.862953 20.137086,6.25 19.400391,6.25 Z M 16.75,7.75 h 2.5 v 8.5 h -2.5 z"
     id="path4" />
  <path
     style="color:#000000;fill:currentColor;stroke-linecap:round;stroke-linejoin:round;-inkscape-stroke:none"
     d="M 1.5996094,8.25 C 0.8629077,8.25 0.25,8.8629077 0.25,9.5996094 V 14.400391 C 0.25,15.137086 0.86295297,15.75 1.5996094,15.75 H 3.4003906 C 4.137047,15.75 4.75,15.137086 4.75,14.400391 V 9.5996094 C 4.75,8.8629077 4.1370923,8.25 3.4003906,8.25 Z M 1.75,9.75 h 1.5 v 4.5 h -1.5 z"
     id="path6" />
  <path
     style="color:#000000;fill:currentColor;stroke-linecap:round;stroke-linejoin:round;-inkscape-stroke:none"
     d="M 20.599609,8.25 C 19.862914,8.25 19.25,8.862953 19.25,9.5996094 v 4.8007816 c 0,0.736649 0.61296,1.349609 1.349609,1.349609 h 1.800782 C 23.13704,15.75 23.75,15.13704 23.75,14.400391 V 9.5996094 C 23.75,8.862953 23.137086,8.25 22.400391,8.25 Z M 20.75,9.75 h 1.5 v 4.5 h -1.5 z"
     id="path8" />
  <path
     style="color:#000000;fill:currentColor;stroke-linecap:round;stroke-linejoin:round;-inkscape-stroke:none"
     d="M 8,11.25 A 0.75,0.75 0 0 0 7.25,12 0.75,0.75 0 0 0 8,12.75 h 8 A 0.75,0.75 0 0 0 16.75,12 0.75,0.75 0 0 0 16,11.25 Z"
     id="path10" />
</svg>
