<?xml version="1.0" encoding="UTF-8" standalone="no"?>
<svg
   width="24"
   height="24"
   stroke-width="1.5"
   viewBox="0 0 24 24"
   fill="none"
   version="1.1"
   id="svg22"
   sodipodi:docname="half-cookie.svg"
   inkscape:version="1.2.1 (9c6d41e410, 2022-07-14)"
   xmlns:inkscape="http://www.inkscape.org/namespaces/inkscape"
   xmlns:sodipodi="http://sodipodi.sourceforge.net/DTD/sodipodi-0.dtd"
   xmlns="http://www.w3.org/2000/svg"
   xmlns:svg="http://www.w3.org/2000/svg">
  <defs
     id="defs26" />
  <sodipodi:namedview
     id="namedview24"
     pagecolor="#ffffff"
     bordercolor="#666666"
     borderopacity="1.0"
     inkscape:showpageshadow="2"
     inkscape:pageopacity="0.0"
     inkscape:pagecheckerboard="0"
     inkscape:deskcolor="#d1d1d1"
     showgrid="false"
     inkscape:zoom="34.541667"
     inkscape:cx="10.364294"
     inkscape:cy="12.014475"
     inkscape:window-width="1920"
     inkscape:window-height="1009"
     inkscape:window-x="1912"
     inkscape:window-y="-8"
     inkscape:window-maximized="1"
     inkscape:current-layer="svg22" />
  <path
     style="color:#000000;fill:currentColor;stroke-linecap:round;stroke-linejoin:round;-inkscape-stroke:none"
     d="M 10.925781,1.3027344 C 5.494977,1.841933 1.25,6.434132 1.25,12 c 0,5.92822 4.8218308,10.75 10.75,10.75 5.192956,0 9.538691,-3.692902 10.535156,-8.601562 a 0.75,0.75 0 0 0 -0.585937,-0.882813 0.75,0.75 0 0 0 -0.884766,0.585938 C 20.20772,18.071893 16.482834,21.25 12,21.25 6.8824803,21.25 2.75,17.117569 2.75,12 2.75,7.1952584 6.3983931,3.2591623 11.074219,2.7949219 a 0.75,0.75 0 0 0 0.671875,-0.8203125 0.75,0.75 0 0 0 -0.820313,-0.671875 z"
     id="path2" />
  <path
     style="color:#000000;fill:currentColor;stroke-linecap:round;stroke-linejoin:round;-inkscape-stroke:none"
     d="m 6.5,8.25 c -0.6814772,0 -1.25,0.5685228 -1.25,1.25 0,0.681477 0.5685228,1.25 1.25,1.25 0.6814772,0 1.25,-0.568523 1.25,-1.25 C 7.75,8.8185228 7.1814772,8.25 6.5,8.25 Z m 0,1 C 6.6291977,9.25 6.75,9.3708023 6.75,9.5 6.75,9.6291977 6.6291977,9.75 6.5,9.75 6.3708023,9.75 6.25,9.6291977 6.25,9.5 6.25,9.3708023 6.3708023,9.25 6.5,9.25 Z"
     id="path4" />
  <path
     style="color:#000000;fill:currentColor;stroke-linecap:round;stroke-linejoin:round;-inkscape-stroke:none"
     d="m 20.5,2.25 c -0.681496,0 -1.25,0.5684504 -1.25,1.25 0,0.6815496 0.568504,1.25 1.25,1.25 0.681496,0 1.25,-0.5684504 1.25,-1.25 0,-0.6815496 -0.568504,-1.25 -1.25,-1.25 z m 0,1 c 0.129296,0 0.25,0.1207298 0.25,0.25 0,0.1292702 -0.120704,0.25 -0.25,0.25 -0.129296,0 -0.25,-0.1207298 -0.25,-0.25 0,-0.1292702 0.120704,-0.25 0.25,-0.25 z"
     id="path6" />
  <path
     style="color:#000000;fill:currentColor;stroke-linecap:round;stroke-linejoin:round;-inkscape-stroke:none"
     d="m 12,16.25 c -0.957604,0 -1.75,0.792396 -1.75,1.75 0,0.957604 0.792396,1.75 1.75,1.75 0.957604,0 1.75,-0.792396 1.75,-1.75 0,-0.957604 -0.792396,-1.75 -1.75,-1.75 z m 0,1.5 c 0.146995,0 0.25,0.103005 0.25,0.25 0,0.146995 -0.103005,0.25 -0.25,0.25 -0.146995,0 -0.25,-0.103005 -0.25,-0.25 0,-0.146995 0.103005,-0.25 0.25,-0.25 z"
     id="path8" />
  <path
     style="color:#000000;fill:currentColor;stroke-linecap:round;stroke-linejoin:round;-inkscape-stroke:none"
     d="M 6.9707031,14.25 A 0.75,0.75 0 0 0 6.453125,14.496094 l -0.00977,0.01172 a 0.75,0.75 0 0 0 0.054687,1.058593 0.75,0.75 0 0 0 1.0585937,-0.05469 L 7.5664062,15.5 A 0.75,0.75 0 0 0 7.5117187,14.441406 0.75,0.75 0 0 0 6.9707031,14.25 Z"
     id="path10" />
  <path
     style="color:#000000;fill:currentColor;stroke-linecap:round;stroke-linejoin:round;-inkscape-stroke:none"
     d="m 16.970703,14.25 a 0.75,0.75 0 0 0 -0.517578,0.246094 l -0.0098,0.01172 a 0.75,0.75 0 0 0 0.05469,1.058593 0.75,0.75 0 0 0 1.058594,-0.05469 L 17.566406,15.5 A 0.75,0.75 0 0 0 17.511719,14.441406 0.75,0.75 0 0 0 16.970703,14.25 Z"
     id="path12" />
  <path
     style="color:#000000;fill:currentColor;stroke-linecap:round;stroke-linejoin:round;-inkscape-stroke:none"
     d="m 10.970703,11.25 a 0.75,0.75 0 0 0 -0.517578,0.246094 l -0.0098,0.01172 a 0.75,0.75 0 0 0 0.05469,1.058593 0.75,0.75 0 0 0 1.058594,-0.05469 L 11.566406,12.5 A 0.75,0.75 0 0 0 11.511719,11.441406 0.75,0.75 0 0 0 10.970703,11.25 Z"
     id="path14" />
  <path
     style="color:#000000;fill:currentColor;stroke-linecap:round;stroke-linejoin:round;-inkscape-stroke:none"
     d="m 20.970703,8.25 a 0.75,0.75 0 0 0 -0.517578,0.2480469 l -0.0098,0.00977 a 0.75,0.75 0 0 0 0.05469,1.0605469 0.75,0.75 0 0 0 1.058594,-0.056641 L 21.568359,9.5 A 0.75,0.75 0 0 0 21.511719,8.4414063 0.75,0.75 0 0 0 20.970703,8.25 Z"
     id="path16" />
  <path
     style="color:#000000;fill:currentColor;stroke-linecap:round;stroke-linejoin:round;-inkscape-stroke:none"
     d="m 17.511719,5.4414062 a 0.75,0.75 0 0 0 -1.058594,0.056641 l -0.0098,0.00977 a 0.75,0.75 0 0 0 0.05469,1.0605469 0.75,0.75 0 0 0 1.058594,-0.056641 L 17.568359,6.5 a 0.75,0.75 0 0 0 -0.05664,-1.0585938 z"
     id="path18" />
  <path
     style="color:#000000;fill:currentColor;stroke-linecap:round;stroke-linejoin:round;-inkscape-stroke:none"
     d="m 11.236328,1.2890625 a 0.75,0.75 0 0 0 -0.947265,0.4746094 c -0.5358605,1.6075799 0.371867,3.2344983 1.871093,3.7539062 -0.693915,1.6659913 -0.78248,3.3683694 0.109375,4.6582029 0.959244,1.387293 2.835383,2.075916 5.173828,2.00586 0.227691,1.102331 0.820331,1.976108 1.628907,2.36914 0.984404,0.4785 2.059248,0.503162 2.910156,0.158203 a 0.75,0.75 0 0 0 0.412109,-0.976562 0.75,0.75 0 0 0 -0.976562,-0.414063 C 21.069078,13.4598 20.29406,13.478025 19.728516,13.203125 19.162972,12.928225 18.75,12.499999 18.75,11.5 A 0.750075,0.750075 0 0 0 17.925781,10.753906 C 15.608043,10.98568 14.17674,10.300119 13.501953,9.3242188 12.827167,8.3483181 12.797957,6.9497579 13.730469,5.3847656 A 0.750075,0.750075 0 0 0 13.085938,4.25 c -1.112592,0 -1.732707,-0.940552 -1.375,-2.0136719 a 0.75,0.75 0 0 0 -0.47461,-0.9472656 z"
     id="path20" />
</svg>
