<?xml version="1.0" encoding="UTF-8" standalone="no"?>
<svg
   width="24"
   height="24"
   viewBox="0 0 24 24"
   stroke-width="1.5"
   fill="none"
   version="1.1"
   id="svg6"
   sodipodi:docname="hammer.svg"
   inkscape:version="1.2.1 (9c6d41e410, 2022-07-14)"
   xmlns:inkscape="http://www.inkscape.org/namespaces/inkscape"
   xmlns:sodipodi="http://sodipodi.sourceforge.net/DTD/sodipodi-0.dtd"
   xmlns="http://www.w3.org/2000/svg"
   xmlns:svg="http://www.w3.org/2000/svg">
  <defs
     id="defs10" />
  <sodipodi:namedview
     id="namedview8"
     pagecolor="#ffffff"
     bordercolor="#666666"
     borderopacity="1.0"
     inkscape:showpageshadow="2"
     inkscape:pageopacity="0.0"
     inkscape:pagecheckerboard="0"
     inkscape:deskcolor="#d1d1d1"
     showgrid="false"
     inkscape:zoom="34.541667"
     inkscape:cx="10.364294"
     inkscape:cy="12.014475"
     inkscape:window-width="1920"
     inkscape:window-height="1009"
     inkscape:window-x="1912"
     inkscape:window-y="-8"
     inkscape:window-maximized="1"
     inkscape:current-layer="svg6" />
  <path
     style="color:#000000;fill:currentColor;stroke-linecap:round;stroke-linejoin:round;-inkscape-stroke:none"
     d="m 10.632813,10.304688 a 0.75,0.75 0 0 0 -0.529297,0.220703 l -8.4863285,8.484375 a 0.750075,0.750075 0 0 0 0,1.060546 l 2.1230469,2.123047 a 0.750075,0.750075 0 0 0 1.0605468,0 l 8.4843748,-8.486328 a 0.75,0.75 0 0 0 0,-1.060547 0.75,0.75 0 0 0 -1.060547,0 L 4.2695312,20.601562 3.2089844,19.541016 11.164063,11.585938 a 0.75,0.75 0 0 0 0,-1.060547 0.75,0.75 0 0 0 -0.53125,-0.220703 z"
     id="path2" />
  <path
     style="color:#000000;fill:currentColor;stroke-linecap:round;stroke-linejoin:round;-inkscape-stroke:none"
     d="m 10.341797,1.2382812 a 0.750075,0.750075 0 0 0 -0.9453126,0.09375 L 8.3359375,2.3925781 a 0.750075,0.750075 0 0 0 0,1.0605469 c 1.6793835,1.679374 2.4054155,3.237283 2.7265625,4.3613281 0.283409,0.9919573 0.223669,1.4118821 0.212891,1.5390625 l -1.171875,1.1718754 a 0.750075,0.750075 0 0 0 0,1.060547 l 2.121093,2.121093 a 0.750075,0.750075 0 0 0 1.060547,0 l 1.238282,-1.238281 0.353515,0.353516 -0.53125,0.53125 a 0.750075,0.750075 0 0 0 0,1.060547 l 2.474609,2.474609 a 0.750075,0.750075 0 0 0 1.060547,0 l 4.951172,-4.949219 a 0.750075,0.750075 0 0 0 0,-1.060547 L 20.355469,8.4042969 a 0.750075,0.750075 0 0 0 -1.060547,0 L 18.765625,8.9335938 18.412109,8.5800781 18.941406,8.0507813 A 0.750075,0.750075 0 0 0 18.828125,6.8964844 Z m -0.320313,1.5898438 7.212891,4.8085937 -0.414063,0.4140626 a 0.750075,0.750075 0 0 0 0,1.0605468 l 1.414063,1.4140629 a 0.750075,0.750075 0 0 0 1.060547,0 l 0.53125,-0.5312504 1.414062,1.4140624 -3.888672,3.890625 -1.414062,-1.414062 0.529297,-0.53125 a 0.750075,0.750075 0 0 0 0,-1.060547 l -1.414063,-1.414063 a 0.750075,0.750075 0 0 0 -1.060546,0 l -1.236329,1.236328 -1.060546,-1.060546 0.882812,-0.882813 a 0.750075,0.750075 0 0 0 0.214844,-0.4472656 c 0,0 0.09688,-0.9714408 -0.289063,-2.3222657 C 12.160599,6.2007346 11.323318,4.6244279 9.8613281,2.9882813 Z"
     id="path4" />
</svg>
