<?xml version="1.0" encoding="UTF-8" standalone="no"?>
<svg
   width="24"
   height="24"
   stroke-width="1.5"
   viewBox="0 0 24 24"
   fill="none"
   version="1.1"
   id="svg4"
   sodipodi:docname="handbag.svg"
   inkscape:version="1.2.1 (9c6d41e410, 2022-07-14)"
   xmlns:inkscape="http://www.inkscape.org/namespaces/inkscape"
   xmlns:sodipodi="http://sodipodi.sourceforge.net/DTD/sodipodi-0.dtd"
   xmlns="http://www.w3.org/2000/svg"
   xmlns:svg="http://www.w3.org/2000/svg">
  <defs
     id="defs8" />
  <sodipodi:namedview
     id="namedview6"
     pagecolor="#ffffff"
     bordercolor="#666666"
     borderopacity="1.0"
     inkscape:showpageshadow="2"
     inkscape:pageopacity="0.0"
     inkscape:pagecheckerboard="0"
     inkscape:deskcolor="#d1d1d1"
     showgrid="false"
     inkscape:zoom="34.541667"
     inkscape:cx="10.364294"
     inkscape:cy="12.014475"
     inkscape:window-width="1920"
     inkscape:window-height="1009"
     inkscape:window-x="1912"
     inkscape:window-y="-8"
     inkscape:window-maximized="1"
     inkscape:current-layer="svg4" />
  <path
     style="color:#000000;fill:currentColor;stroke-linecap:round;stroke-linejoin:round;-inkscape-stroke:none"
     d="M 9.5996094,2.25 C 8.8629077,2.25 8.25,2.8629077 8.25,3.5996094 V 7.25 H 4 C 2.4901018,7.25 1.25,8.4901018 1.25,10 v 9 c 0,1.509917 1.2401154,2.75 2.75,2.75 h 16 c 1.509904,0 2.75,-1.240096 2.75,-2.75 V 10 C 22.75,8.4901154 21.509917,7.25 20,7.25 H 15.75 V 3.5996094 C 15.75,2.862953 15.137086,2.25 14.400391,2.25 Z M 9.75,3.75 h 4.5 v 3.5 H 9.75 Z M 4,8.75 H 8.25 V 14 A 0.75,0.75 0 0 0 9,14.75 0.75,0.75 0 0 0 9.75,14 V 8.75 h 4.5 V 14 A 0.75,0.75 0 0 0 15,14.75 0.75,0.75 0 0 0 15.75,14 V 8.75 H 20 c 0.699281,0 1.25,0.5507468 1.25,1.25 v 9 c 0,0.699294 -0.550706,1.25 -1.25,1.25 H 4 C 3.3007468,20.25 2.75,19.699281 2.75,19 V 10 C 2.75,9.3007604 3.3007604,8.75 4,8.75 Z"
     id="path2" />
</svg>
