<?xml version="1.0" encoding="UTF-8" standalone="no"?>
<svg
   width="24"
   height="24"
   viewBox="0 0 24 24"
   stroke-width="1.5"
   fill="none"
   version="1.1"
   id="svg10"
   sodipodi:docname="hand-card.svg"
   inkscape:version="1.2.1 (9c6d41e410, 2022-07-14)"
   xmlns:inkscape="http://www.inkscape.org/namespaces/inkscape"
   xmlns:sodipodi="http://sodipodi.sourceforge.net/DTD/sodipodi-0.dtd"
   xmlns="http://www.w3.org/2000/svg"
   xmlns:svg="http://www.w3.org/2000/svg">
  <defs
     id="defs14" />
  <sodipodi:namedview
     id="namedview12"
     pagecolor="#ffffff"
     bordercolor="#666666"
     borderopacity="1.0"
     inkscape:showpageshadow="2"
     inkscape:pageopacity="0.0"
     inkscape:pagecheckerboard="0"
     inkscape:deskcolor="#d1d1d1"
     showgrid="false"
     inkscape:zoom="34.541667"
     inkscape:cx="10.364294"
     inkscape:cy="12.014475"
     inkscape:window-width="1920"
     inkscape:window-height="1009"
     inkscape:window-x="1912"
     inkscape:window-y="-8"
     inkscape:window-maximized="1"
     inkscape:current-layer="svg10" />
  <path
     style="color:#000000;fill:currentColor;stroke-linecap:round;stroke-linejoin:round;-inkscape-stroke:none"
     d="M 11,8.25 A 0.75,0.75 0 0 0 10.25,9 0.75,0.75 0 0 0 11,9.75 H 22 A 0.75,0.75 0 0 0 22.75,9 0.75,0.75 0 0 0 22,8.25 Z"
     id="path2" />
  <path
     style="color:#000000;fill:currentColor;stroke-linecap:round;stroke-linejoin:round;-inkscape-stroke:none"
     d="m 7.796875,5.75 c -1.3563642,0 -2.6496515,0.579985 -3.5507813,1.59375 l -2.8066406,3.158203 a 0.75,0.75 0 0 0 0.0625,1.058594 0.75,0.75 0 0 0 1.0585938,-0.0625 L 5.3671875,8.3417969 C 5.9842162,7.6476436 6.8681415,7.25 7.796875,7.25 H 8 A 0.75,0.75 0 0 0 8.75,6.5 0.75,0.75 0 0 0 8,5.75 Z"
     id="path4" />
  <path
     style="color:#000000;fill:currentColor;stroke-linecap:round;stroke-linejoin:round;-inkscape-stroke:none"
     d="m 12.910156,10.34375 c -0.738158,-0.123347 -1.56194,0.02191 -2.326172,0.53125 -2.0125384,1.341225 -3.9609371,2.476562 -3.9609371,2.476563 a 0.75,0.75 0 0 0 -0.2714844,1.02539 0.75,0.75 0 0 0 1.0253906,0.271485 c 0,0 1.9797854,-1.153018 4.0390629,-2.525391 0.971534,-0.647501 1.707545,-0.334635 2.109375,0.201172 0.40183,0.535806 0.509842,1.286697 -0.494141,2.089844 -1.170954,0.936743 -1.951172,1.464843 -1.951172,1.464843 a 0.750075,0.750075 0 0 0 -0.0293,0.02149 L 7.25,18.75 H 2 A 0.75,0.75 0 0 0 1.25,19.5 0.75,0.75 0 0 0 2,20.25 h 5.5 a 0.750075,0.750075 0 0 0 0.4492187,-0.150391 l 3.9707033,-2.978515 0.0293,-0.02148 c 0.02333,-0.01583 0.825869,-0.558762 2.019531,-1.513671 1.496014,-1.196752 1.604028,-3.029195 0.755859,-4.160157 C 14.300525,10.8603 13.648315,10.467097 12.910156,10.34375 Z"
     id="path6" />
  <path
     style="color:#000000;fill:currentColor;-inkscape-stroke:none"
     d="M 10,4.25 C 8.4901018,4.25 7.25,5.4901018 7.25,7 v 6.5 h 1.5 V 7 C 8.75,6.3007604 9.3007604,5.75 10,5.75 h 10 c 0.699281,0 1.25,0.5507468 1.25,1.25 v 6 c 0,0.699294 -0.550706,1.25 -1.25,1.25 h -6.5 v 1.5 H 20 c 1.509904,0 2.75,-1.240096 2.75,-2.75 V 7 C 22.75,5.4901154 21.509917,4.25 20,4.25 Z"
     id="path8" />
</svg>
