<?xml version="1.0" encoding="UTF-8" standalone="no"?>
<svg
   width="24"
   height="24"
   stroke-width="1.5"
   viewBox="0 0 24 24"
   fill="none"
   version="1.1"
   id="svg8"
   sodipodi:docname="hard-drive.svg"
   inkscape:version="1.2.1 (9c6d41e410, 2022-07-14)"
   xmlns:inkscape="http://www.inkscape.org/namespaces/inkscape"
   xmlns:sodipodi="http://sodipodi.sourceforge.net/DTD/sodipodi-0.dtd"
   xmlns="http://www.w3.org/2000/svg"
   xmlns:svg="http://www.w3.org/2000/svg">
  <defs
     id="defs12" />
  <sodipodi:namedview
     id="namedview10"
     pagecolor="#ffffff"
     bordercolor="#666666"
     borderopacity="1.0"
     inkscape:showpageshadow="2"
     inkscape:pageopacity="0.0"
     inkscape:pagecheckerboard="0"
     inkscape:deskcolor="#d1d1d1"
     showgrid="false"
     inkscape:zoom="34.541667"
     inkscape:cx="10.364294"
     inkscape:cy="12.014475"
     inkscape:window-width="1920"
     inkscape:window-height="1009"
     inkscape:window-x="1912"
     inkscape:window-y="-8"
     inkscape:window-maximized="1"
     inkscape:current-layer="svg8" />
  <path
     style="color:#000000;fill:currentColor;stroke-linecap:round;stroke-linejoin:round;-inkscape-stroke:none"
     d="M 9.9707031,16.25 A 0.75,0.75 0 0 0 9.453125,16.496094 l -0.00977,0.01172 a 0.75,0.75 0 0 0 0.054687,1.058594 0.75,0.75 0 0 0 1.0585941,-0.05469 L 10.566406,17.5 A 0.75,0.75 0 0 0 10.511719,16.441406 0.75,0.75 0 0 0 9.9707031,16.25 Z"
     id="path2" />
  <path
     style="color:#000000;fill:currentColor;stroke-linecap:round;stroke-linejoin:round;-inkscape-stroke:none"
     d="M 5.9707031,16.25 A 0.75,0.75 0 0 0 5.453125,16.496094 l -0.00977,0.01172 a 0.75,0.75 0 0 0 0.054687,1.058594 0.75,0.75 0 0 0 1.0585937,-0.05469 L 6.5664062,17.5 A 0.75,0.75 0 0 0 6.5117187,16.441406 0.75,0.75 0 0 0 5.9707031,16.25 Z"
     id="path4" />
  <path
     style="color:#000000;fill:currentColor;-inkscape-stroke:none"
     d="m 5.4472656,2.25 c -0.592931,0 -1.1225875,0.3949754 -1.2929687,0.9628906 L 1.28125,12.785156 2,13 H 1.25 v 7.400391 C 1.25,21.137086 1.862953,21.75 2.5996094,21.75 H 21.400391 C 22.13704,21.75 22.75,21.13704 22.75,20.400391 V 13 H 22 L 22.71875,12.785156 19.845703,3.2128906 C 19.675222,2.6450906 19.145682,2.25 18.552734,2.25 Z m 0.1113281,1.5 H 18.441406 l 2.550781,8.5 H 3.0078125 Z M 2.75,13.75 h 18.5 v 6.5 H 2.75 Z"
     id="path6" />
</svg>
