<?xml version="1.0" encoding="UTF-8" standalone="no"?>
<svg
   width="24"
   height="24"
   viewBox="0 0 24 24"
   stroke-width="1.5"
   fill="none"
   version="1.1"
   id="svg4"
   sodipodi:docname="hashtag.svg"
   inkscape:version="1.3.1 (91b66b0783, 2023-11-16)"
   xmlns:inkscape="http://www.inkscape.org/namespaces/inkscape"
   xmlns:sodipodi="http://sodipodi.sourceforge.net/DTD/sodipodi-0.dtd"
   xmlns="http://www.w3.org/2000/svg"
   xmlns:svg="http://www.w3.org/2000/svg">
  <defs
     id="defs4" />
  <sodipodi:namedview
     id="namedview4"
     pagecolor="#ffffff"
     bordercolor="#666666"
     borderopacity="1.0"
     inkscape:showpageshadow="2"
     inkscape:pageopacity="0.0"
     inkscape:pagecheckerboard="0"
     inkscape:deskcolor="#d1d1d1"
     inkscape:zoom="33.875"
     inkscape:cx="11.98524"
     inkscape:cy="12"
     inkscape:window-width="1920"
     inkscape:window-height="1009"
     inkscape:window-x="1912"
     inkscape:window-y="-8"
     inkscape:window-maximized="1"
     inkscape:current-layer="svg4" />
  <path
     style="color:#000000;fill:currentColor;stroke-linecap:round;-inkscape-stroke:none"
     d="M 10.162109,2.2675781 A 0.75,0.75 0 0 0 9.2675781,2.8378906 l -4,18.0000004 a 0.75,0.75 0 0 0 0.5703125,0.894531 0.75,0.75 0 0 0 0.8945313,-0.570313 L 10.732422,3.1621094 A 0.75,0.75 0 0 0 10.162109,2.2675781 Z"
     id="path1" />
  <path
     style="color:#000000;fill:currentColor;stroke-linecap:round;-inkscape-stroke:none"
     d="M 2.5,15.25 A 0.75,0.75 0 0 0 1.75,16 0.75,0.75 0 0 0 2.5,16.75 h 18 A 0.75,0.75 0 0 0 21.25,16 0.75,0.75 0 0 0 20.5,15.25 Z"
     id="path2" />
  <path
     style="color:#000000;fill:currentColor;stroke-linecap:round;-inkscape-stroke:none"
     d="M 4,6.25 A 0.75,0.75 0 0 0 3.25,7 0.75,0.75 0 0 0 4,7.75 H 22 A 0.75,0.75 0 0 0 22.75,7 0.75,0.75 0 0 0 22,6.25 Z"
     id="path3" />
  <path
     style="color:#000000;fill:currentColor;stroke-linecap:round;-inkscape-stroke:none"
     d="m 18.162109,2.2675781 a 0.75,0.75 0 0 0 -0.894531,0.5703125 l -4,18.0000004 a 0.75,0.75 0 0 0 0.570313,0.894531 0.75,0.75 0 0 0 0.894531,-0.570313 l 4,-17.9999996 A 0.75,0.75 0 0 0 18.162109,2.2675781 Z"
     id="path4" />
</svg>
