<?xml version="1.0" encoding="UTF-8" standalone="no"?>
<svg
   width="24"
   height="24"
   viewBox="0 0 24 24"
   stroke-width="1.5"
   fill="none"
   version="1.1"
   id="svg3"
   sodipodi:docname="headset-warning.svg"
   inkscape:version="1.3.1 (91b66b0783, 2023-11-16)"
   xmlns:inkscape="http://www.inkscape.org/namespaces/inkscape"
   xmlns:sodipodi="http://sodipodi.sourceforge.net/DTD/sodipodi-0.dtd"
   xmlns="http://www.w3.org/2000/svg"
   xmlns:svg="http://www.w3.org/2000/svg">
  <defs
     id="defs3" />
  <sodipodi:namedview
     id="namedview3"
     pagecolor="#ffffff"
     bordercolor="#666666"
     borderopacity="1.0"
     inkscape:showpageshadow="2"
     inkscape:pageopacity="0.0"
     inkscape:pagecheckerboard="0"
     inkscape:deskcolor="#d1d1d1"
     inkscape:zoom="33.875"
     inkscape:cx="11.98524"
     inkscape:cy="12"
     inkscape:window-width="1920"
     inkscape:window-height="1009"
     inkscape:window-x="1912"
     inkscape:window-y="-8"
     inkscape:window-maximized="1"
     inkscape:current-layer="svg3" />
  <path
     style="color:#000000;fill:currentColor;stroke-linecap:round;stroke-linejoin:round;-inkscape-stroke:none"
     d="M 12,12.25 A 0.75,0.75 0 0 0 11.25,13 v 5 A 0.75,0.75 0 0 0 12,18.75 0.75,0.75 0 0 0 12.75,18 V 13 A 0.75,0.75 0 0 0 12,12.25 Z"
     id="path1" />
  <path
     style="color:#000000;fill:currentColor;stroke-linecap:round;stroke-linejoin:round;-inkscape-stroke:none"
     d="m 11.970703,20.25 a 0.75,0.75 0 0 0 -0.517578,0.246094 l -0.0098,0.01172 a 0.75,0.75 0 0 0 0.05469,1.058594 0.75,0.75 0 0 0 1.058594,-0.05469 l 0.0098,-0.0098 A 0.75,0.75 0 0 0 12.511719,20.441406 0.75,0.75 0 0 0 11.970703,20.25 Z"
     id="path2" />
  <path
     style="color:#000000;fill:currentColor;stroke-linecap:round;stroke-linejoin:round;-inkscape-stroke:none"
     d="M 12,3.25 C 7.145335,3.25 3.2927269,7.6374098 3.2617188,12.939453 2.0876783,13.274423 1.25,14.332798 1.25,15.560547 V 17.4375 c 0,1.258001 0.8635081,2.362829 2.0839844,2.667969 l 1.7382812,0.435547 C 5.9067671,20.749481 6.75,20.090701 6.75,19.230469 v -5.462891 c 0,-0.860232 -0.8432329,-1.517059 -1.6777344,-1.308594 l -0.2363281,0.05859 C 5.0684855,8.1524802 8.1854684,4.75 12,4.75 c 3.814553,0 6.931516,3.4024785 7.164062,7.767578 l -0.236328,-0.05859 C 18.093245,12.250527 17.25,12.907384 17.25,13.767578 v 5.462891 c 0,0.860194 0.843245,1.519004 1.677734,1.310547 l 1.740235,-0.435547 C 21.888412,19.800324 22.75,18.695506 22.75,17.4375 v -1.876953 c 0,-1.228301 -0.836871,-2.286636 -2.011719,-2.621094 C 20.707273,7.6374118 16.854683,3.25 12,3.25 Z M 5.25,13.960938 v 5.078124 L 3.6972656,18.650391 C 3.1370637,18.510331 2.75,18.014898 2.75,17.4375 v -1.876953 c 0,-0.577398 0.3870637,-1.070878 0.9472656,-1.210938 l 0.484375,-0.123046 z m 13.5,0 1.068359,0.267578 0.484375,0.121093 C 20.862889,14.489664 21.25,14.983155 21.25,15.560547 V 17.4375 c 0,0.577392 -0.387111,1.072836 -0.947266,1.212891 L 18.75,19.039062 Z"
     id="path3" />
</svg>
