<?xml version="1.0" encoding="UTF-8" standalone="no"?>
<svg
   width="24"
   height="24"
   stroke-width="1.5"
   viewBox="0 0 24 24"
   fill="none"
   version="1.1"
   id="svg12"
   sodipodi:docname="headset-warning.svg"
   inkscape:version="1.2.1 (9c6d41e410, 2022-07-14)"
   xmlns:inkscape="http://www.inkscape.org/namespaces/inkscape"
   xmlns:sodipodi="http://sodipodi.sourceforge.net/DTD/sodipodi-0.dtd"
   xmlns="http://www.w3.org/2000/svg"
   xmlns:svg="http://www.w3.org/2000/svg">
  <defs
     id="defs16" />
  <sodipodi:namedview
     id="namedview14"
     pagecolor="#ffffff"
     bordercolor="#666666"
     borderopacity="1.0"
     inkscape:showpageshadow="2"
     inkscape:pageopacity="0.0"
     inkscape:pagecheckerboard="0"
     inkscape:deskcolor="#d1d1d1"
     showgrid="false"
     inkscape:zoom="34.541667"
     inkscape:cx="10.364294"
     inkscape:cy="12.014475"
     inkscape:window-width="1920"
     inkscape:window-height="1009"
     inkscape:window-x="1912"
     inkscape:window-y="-8"
     inkscape:window-maximized="1"
     inkscape:current-layer="svg12" />
  <path
     style="color:#000000;fill:currentColor;stroke-linecap:round;stroke-linejoin:round;-inkscape-stroke:none"
     d="M 12,11.25 A 0.75,0.75 0 0 0 11.25,12 v 5 A 0.75,0.75 0 0 0 12,17.75 0.75,0.75 0 0 0 12.75,17 V 12 A 0.75,0.75 0 0 0 12,11.25 Z"
     id="path2" />
  <path
     style="color:#000000;fill:currentColor;stroke-linecap:round;stroke-linejoin:round;-inkscape-stroke:none"
     d="m 11.970703,20.25 a 0.75,0.75 0 0 0 -0.517578,0.246094 l -0.0098,0.01172 a 0.75,0.75 0 0 0 0.05469,1.058594 0.75,0.75 0 0 0 1.058594,-0.05469 L 12.566406,21.5 A 0.75,0.75 0 0 0 12.511719,20.441406 0.75,0.75 0 0 0 11.970703,20.25 Z"
     id="path4" />
  <path
     style="color:#000000;fill:currentColor;stroke-linecap:round;stroke-linejoin:round;-inkscape-stroke:none"
     d="M 12,3.25 C 7.1257284,3.25 3.25,7.6691519 3.25,13 v 0.5 A 0.75,0.75 0 0 0 4,14.25 0.75,0.75 0 0 0 4.75,13.5 V 13 c 0,-4.610262 3.2877204,-8.25 7.25,-8.25 3.962302,0 7.25,3.639736 7.25,8.25 v 0.5 A 0.75,0.75 0 0 0 20,14.25 0.75,0.75 0 0 0 20.75,13.5 V 13 C 20.75,7.6691539 16.87429,3.25 12,3.25 Z"
     id="path6" />
  <path
     style="color:#000000;fill:currentColor;stroke-linecap:round;stroke-linejoin:round;-inkscape-stroke:none"
     d="m 5.0722656,12.458984 -1.2539062,0.3125 -0.4863281,0.123047 C 2.1124403,13.200262 1.25,14.305075 1.25,15.5625 v 1.876953 c 0,1.258001 0.8635081,2.360876 2.0839844,2.666016 l 1.7382812,0.435547 C 5.9067671,20.749481 6.75,20.092654 6.75,19.232422 v -5.464844 c 0,-0.860232 -0.8432329,-1.517059 -1.6777344,-1.308594 z M 5.25,13.960938 v 5.078124 L 3.6972656,18.650391 C 3.1370637,18.510331 2.75,18.016851 2.75,17.439453 V 15.5625 c 0,-0.577398 0.3870637,-1.072831 0.9472656,-1.212891 l 0.484375,-0.121093 z"
     id="path8" />
  <path
     style="color:#000000;fill:currentColor;stroke-linecap:round;stroke-linejoin:round;-inkscape-stroke:none"
     d="M 18.927734,12.458984 C 18.093245,12.250527 17.25,12.907384 17.25,13.767578 v 5.464844 c 0,0.860194 0.843245,1.517051 1.677734,1.308594 l 1.740235,-0.435547 C 21.888412,19.800324 22.75,18.697459 22.75,17.439453 V 15.5625 c 0,-1.258006 -0.861588,-2.362824 -2.082031,-2.667969 L 20.181641,12.771484 Z M 18.75,13.960938 l 1.068359,0.267578 0.484375,0.121093 C 20.862889,14.489664 21.25,14.985108 21.25,15.5625 v 1.876953 c 0,0.577392 -0.387111,1.070883 -0.947266,1.210938 L 18.75,19.039062 Z"
     id="path10" />
</svg>
