<?xml version="1.0" encoding="UTF-8" standalone="no"?>
<svg
   width="24"
   height="24"
   viewBox="0 0 24 24"
   stroke-width="1.5"
   fill="none"
   version="1.1"
   id="svg1"
   sodipodi:docname="headset-help.svg"
   inkscape:version="1.3.1 (91b66b0783, 2023-11-16)"
   xmlns:inkscape="http://www.inkscape.org/namespaces/inkscape"
   xmlns:sodipodi="http://sodipodi.sourceforge.net/DTD/sodipodi-0.dtd"
   xmlns="http://www.w3.org/2000/svg"
   xmlns:svg="http://www.w3.org/2000/svg">
  <defs
     id="defs1" />
  <sodipodi:namedview
     id="namedview1"
     pagecolor="#ffffff"
     bordercolor="#666666"
     borderopacity="1.0"
     inkscape:showpageshadow="2"
     inkscape:pageopacity="0.0"
     inkscape:pagecheckerboard="0"
     inkscape:deskcolor="#d1d1d1"
     inkscape:zoom="33.875"
     inkscape:cx="11.98524"
     inkscape:cy="12"
     inkscape:window-width="1920"
     inkscape:window-height="1009"
     inkscape:window-x="1912"
     inkscape:window-y="-8"
     inkscape:window-maximized="1"
     inkscape:current-layer="svg1" />
  <path
     style="color:#000000;fill:currentColor;-inkscape-stroke:none"
     d="M 12,2.25 C 7.1978169,2.25 3.2963788,6.1452633 3.2617188,10.939453 2.0877513,11.274426 1.25,12.332755 1.25,13.560547 V 15.4375 c 0,1.258064 0.8635594,2.362842 2.0839844,2.667969 l 1.7382812,0.435547 C 5.9067989,18.74971 6.75,18.090681 6.75,17.230469 v -5.462891 c 0,-0.860212 -0.8432011,-1.517288 -1.6777344,-1.308594 l -0.2246094,0.05664 C 5.108867,6.7426124 8.1590143,3.75 12,3.75 c 3.841007,0 6.891135,2.9926106 7.152344,6.765625 l -0.22461,-0.05664 C 18.093213,10.250299 17.25,10.907404 17.25,11.767578 v 5.462891 c 0,0.860173 0.843213,1.519232 1.677734,1.310547 L 19.25,18.460937 V 18.5 c 0,0.699294 -0.550706,1.25 -1.25,1.25 H 15.4375 C 15.10491,18.920068 14.442423,18.25 13.5,18.25 h -3 c -1.2337738,0 -2.25,1.01626 -2.25,2.25 0,1.23374 1.0162262,2.25 2.25,2.25 h 3 c 0.942423,0 1.60491,-0.670068 1.9375,-1.5 H 18 c 1.509904,0 2.75,-1.240096 2.75,-2.75 v -0.447266 c 1.167772,-0.338758 2,-1.391468 2,-2.615234 v -1.876953 c 0,-1.22872 -0.836369,-2.288941 -2.011719,-2.623047 C 20.702552,6.1442262 16.801536,2.25 12,2.25 Z m -7.25,9.179688 0.5,0.353515 v 5.255859 L 3.6972656,16.650391 C 3.1370124,16.510318 2.75,16.015035 2.75,15.4375 v -1.876953 c 0,-0.577535 0.3870124,-1.070865 0.9472656,-1.210938 L 4.1816406,12.226563 4,11.5 h 0.75 z m 14,0.53125 1.068359,0.265625 0.484375,0.123046 C 20.86294,12.489677 21.25,12.983018 21.25,13.560547 V 15.4375 c 0,0.577529 -0.38706,1.072823 -0.947266,1.212891 L 19.818359,16.771484 18.75,17.039062 Z M 10.5,19.75 h 3 c 0.42304,0 0.75,0.32696 0.75,0.75 0,0.42304 -0.32696,0.75 -0.75,0.75 h -3 c -0.423085,0 -0.75,-0.326942 -0.75,-0.75 0,-0.423058 0.326915,-0.75 0.75,-0.75 z"
     id="path1" />
</svg>
