<?xml version="1.0" encoding="UTF-8" standalone="no"?>
<svg
   width="24"
   height="24"
   stroke-width="1.5"
   viewBox="0 0 24 24"
   fill="none"
   version="1.1"
   id="svg12"
   sodipodi:docname="headset-help.svg"
   inkscape:version="1.2.1 (9c6d41e410, 2022-07-14)"
   xmlns:inkscape="http://www.inkscape.org/namespaces/inkscape"
   xmlns:sodipodi="http://sodipodi.sourceforge.net/DTD/sodipodi-0.dtd"
   xmlns="http://www.w3.org/2000/svg"
   xmlns:svg="http://www.w3.org/2000/svg">
  <defs
     id="defs16" />
  <sodipodi:namedview
     id="namedview14"
     pagecolor="#ffffff"
     bordercolor="#666666"
     borderopacity="1.0"
     inkscape:showpageshadow="2"
     inkscape:pageopacity="0.0"
     inkscape:pagecheckerboard="0"
     inkscape:deskcolor="#d1d1d1"
     showgrid="false"
     inkscape:zoom="34.541667"
     inkscape:cx="10.364294"
     inkscape:cy="12.014475"
     inkscape:window-width="1920"
     inkscape:window-height="1009"
     inkscape:window-x="1912"
     inkscape:window-y="-8"
     inkscape:window-maximized="1"
     inkscape:current-layer="svg12" />
  <path
     style="color:#000000;fill:currentColor;stroke-linecap:round;stroke-linejoin:round;-inkscape-stroke:none"
     d="M 12,2.25 C 7.1763951,2.25 3.25,6.1763951 3.25,11 A 0.75,0.75 0 0 0 4,11.75 0.75,0.75 0 0 0 4.75,11 c 0,-4.0129463 3.2370537,-7.25 7.25,-7.25 4.012968,0 7.25,3.2370514 7.25,7.25 A 0.75,0.75 0 0 0 20,11.75 0.75,0.75 0 0 0 20.75,11 C 20.75,6.1763974 16.823623,2.25 12,2.25 Z"
     id="path2" />
  <path
     style="color:#000000;fill:currentColor;-inkscape-stroke:none"
     d="M 5.0722656,10.458984 3.3339844,10.894531 C 2.1135594,11.199658 1.25,12.304436 1.25,13.5625 v 1.875 c 0,1.258064 0.8635594,2.362842 2.0839844,2.667969 l 1.7382812,0.435547 C 5.9067989,18.74971 6.75,18.092634 6.75,17.232422 V 11.767578 C 6.75,10.907366 5.9067989,10.25029 5.0722656,10.458984 Z M 5.25,11.960938 v 5.078124 L 3.6972656,16.650391 C 3.1370124,16.510318 2.75,16.015035 2.75,15.4375 v -1.875 c 0,-0.577535 0.3870124,-1.072818 0.9472656,-1.212891 z"
     id="path4" />
  <path
     style="color:#000000;fill:currentColor;-inkscape-stroke:none"
     d="M 18.927734,10.458984 C 18.093213,10.250299 17.25,10.907404 17.25,11.767578 v 5.464844 c 0,0.860174 0.843213,1.517279 1.677734,1.308594 l 1.740235,-0.435547 C 21.888361,17.800336 22.75,16.695569 22.75,15.4375 v -1.875 c 0,-1.258069 -0.861639,-2.362836 -2.082031,-2.667969 z M 18.75,11.960938 20.302734,12.349609 C 20.86294,12.489677 21.25,12.984971 21.25,13.5625 v 1.875 c 0,0.577529 -0.38706,1.072823 -0.947266,1.212891 L 18.75,17.039062 Z"
     id="path6" />
  <path
     style="color:#000000;fill:currentColor;-inkscape-stroke:none"
     d="m 19.25,18 v 0.5 c 0,0.699294 -0.550706,1.25 -1.25,1.25 h -3.5 v 1.5 H 18 c 1.509904,0 2.75,-1.240096 2.75,-2.75 V 18 Z"
     id="path8" />
  <path
     style="color:#000000;fill:currentColor;-inkscape-stroke:none"
     d="m 10.5,18.25 c -1.2337738,0 -2.25,1.01626 -2.25,2.25 0,1.23374 1.0162262,2.25 2.25,2.25 h 3 c 1.233758,0 2.25,-1.016242 2.25,-2.25 0,-1.233758 -1.016242,-2.25 -2.25,-2.25 z m 0,1.5 h 3 c 0.42304,0 0.75,0.32696 0.75,0.75 0,0.42304 -0.32696,0.75 -0.75,0.75 h -3 c -0.423085,0 -0.75,-0.326942 -0.75,-0.75 0,-0.423058 0.326915,-0.75 0.75,-0.75 z"
     id="path10" />
</svg>
