<?xml version="1.0" encoding="UTF-8" standalone="no"?>
<svg
   width="24"
   height="24"
   stroke-width="1.5"
   viewBox="0 0 24 24"
   fill="none"
   version="1.1"
   id="svg12"
   sodipodi:docname="healthcare.svg"
   inkscape:version="1.2.1 (9c6d41e410, 2022-07-14)"
   xmlns:inkscape="http://www.inkscape.org/namespaces/inkscape"
   xmlns:sodipodi="http://sodipodi.sourceforge.net/DTD/sodipodi-0.dtd"
   xmlns="http://www.w3.org/2000/svg"
   xmlns:svg="http://www.w3.org/2000/svg">
  <defs
     id="defs16" />
  <sodipodi:namedview
     id="namedview14"
     pagecolor="#ffffff"
     bordercolor="#666666"
     borderopacity="1.0"
     inkscape:showpageshadow="2"
     inkscape:pageopacity="0.0"
     inkscape:pagecheckerboard="0"
     inkscape:deskcolor="#d1d1d1"
     showgrid="false"
     inkscape:zoom="34.541667"
     inkscape:cx="10.364294"
     inkscape:cy="12.014475"
     inkscape:window-width="1920"
     inkscape:window-height="1009"
     inkscape:window-x="1912"
     inkscape:window-y="-8"
     inkscape:window-maximized="1"
     inkscape:current-layer="svg12" />
  <path
     style="color:#000000;fill:currentColor;stroke-linecap:round;stroke-linejoin:round;-inkscape-stroke:none"
     d="m 20.5,8.25 c -1.23374,0 -2.25,1.0162262 -2.25,2.25 V 15 A 0.75,0.75 0 0 0 19,15.75 0.75,0.75 0 0 0 19.75,15 v -4.5 c 0,-0.423085 0.326942,-0.75 0.75,-0.75 0.423058,0 0.75,0.326915 0.75,0.75 v 5.189453 l -3.78125,3.779297 a 0.75,0.75 0 0 0 0,1.0625 0.75,0.75 0 0 0 1.0625,0 l 3.824219,-3.826172 C 22.608447,16.4521 22.75,16.10967 22.75,15.751953 V 10.5 c 0,-1.2337738 -1.01626,-2.25 -2.25,-2.25 z"
     id="path2" />
  <path
     style="color:#000000;fill:currentColor;stroke-linecap:round;stroke-linejoin:round;-inkscape-stroke:none"
     d="m 16.955078,13.220703 c -0.557208,0.09041 -1.086425,0.350097 -1.503906,0.767578 l -0.896484,0.896485 C 14.039147,15.400306 13.75,16.099102 13.75,16.828125 V 20 A 0.75,0.75 0 0 0 14.5,20.75 0.75,0.75 0 0 0 15.25,20 v -3.171875 c 0,-0.331776 0.130576,-0.648154 0.365234,-0.882812 l 0.896485,-0.896485 c 0.382436,-0.382436 0.95772,-0.474296 1.441406,-0.232422 l 0.113281,0.05664 -0.597656,0.595703 a 0.75,0.75 0 0 0 0,1.0625 0.75,0.75 0 0 0 1.0625,0 l 0.857422,-0.859375 C 19.619982,15.440565 19.75,15.125826 19.75,14.798828 c 0,-0.466061 -0.265126,-0.895131 -0.681641,-1.103515 L 18.625,13.474609 C 18.096944,13.210547 17.512287,13.13029 16.955078,13.220703 Z"
     id="path4" />
  <path
     style="color:#000000;fill:currentColor;stroke-linecap:round;stroke-linejoin:round;-inkscape-stroke:none"
     d="m 3.5,8.25 c -1.2337557,0 -2.25,1.0162443 -2.25,2.25 v 5.251953 c 0,0.357748 0.1414935,0.702108 0.3945312,0.955078 L 5.46875,20.53125 a 0.75,0.75 0 0 0 1.0625,0 0.75,0.75 0 0 0 0,-1.0625 L 2.75,15.6875 V 10.5 c 0,-0.423103 0.3268974,-0.75 0.75,-0.75 0.4231026,0 0.75,0.326897 0.75,0.75 V 15 A 0.75,0.75 0 0 0 5,15.75 0.75,0.75 0 0 0 5.75,15 V 10.5 C 5.75,9.2662443 4.7337557,8.25 3.5,8.25 Z"
     id="path6" />
  <path
     style="color:#000000;fill:currentColor;stroke-linecap:round;stroke-linejoin:round;-inkscape-stroke:none"
     d="M 7.0449219,13.220703 C 6.4877151,13.13029 5.9030702,13.210564 5.375,13.474609 L 4.9316406,13.695313 C 4.5150824,13.903719 4.25,14.332876 4.25,14.798828 c 0,0.327115 0.1302485,0.641815 0.3613281,0.873047 L 5.46875,16.53125 a 0.75,0.75 0 0 0 1.0625,0 0.75,0.75 0 0 0 0,-1.0625 L 5.9335937,14.873047 6.046875,14.816406 c 0.483798,-0.241908 1.0589307,-0.150041 1.4414062,0.232422 l 0.8964844,0.896485 C 8.619418,16.179977 8.75,16.496358 8.75,16.828125 V 20 A 0.75,0.75 0 0 0 9.5,20.75 0.75,0.75 0 0 0 10.25,20 V 16.828125 C 10.25,16.099093 9.9608193,15.4003 9.4453125,14.884766 L 8.5488281,13.988281 C 8.1313465,13.570813 7.6021286,13.311116 7.0449219,13.220703 Z"
     id="path8" />
  <path
     style="color:#000000;fill:currentColor;stroke-linecap:round;stroke-linejoin:round;-inkscape-stroke:none"
     d="M 10.333984,3.25 A 0.750075,0.750075 0 0 0 9.5839844,4 V 5.5839844 H 8 a 0.750075,0.750075 0 0 0 -0.75,0.75 V 9.6660156 A 0.750075,0.750075 0 0 0 8,10.416016 H 9.5839844 V 12 a 0.750075,0.750075 0 0 0 0.7499996,0.75 h 3.332032 a 0.750075,0.750075 0 0 0 0.75,-0.75 V 10.416016 H 16 A 0.750075,0.750075 0 0 0 16.75,9.6660156 V 6.3339844 a 0.750075,0.750075 0 0 0 -0.75,-0.75 H 14.416016 V 4 a 0.750075,0.750075 0 0 0 -0.75,-0.75 z m 0.75,1.5 h 1.832032 v 1.5839844 a 0.750075,0.750075 0 0 0 0.75,0.75 H 15.25 v 1.8320312 h -1.583984 a 0.750075,0.750075 0 0 0 -0.75,0.75 V 11.25 H 11.083984 V 9.6660156 a 0.750075,0.750075 0 0 0 -0.75,-0.75 H 8.75 V 7.0839844 h 1.583984 a 0.750075,0.750075 0 0 0 0.75,-0.75 z"
     id="path10" />
</svg>
