<?xml version="1.0" encoding="UTF-8" standalone="no"?>
<svg
   width="24"
   height="24"
   viewBox="0 0 24 24"
   stroke-width="1.5"
   fill="none"
   version="1.1"
   id="svg10"
   sodipodi:docname="heating-square.svg"
   inkscape:version="1.2.1 (9c6d41e410, 2022-07-14)"
   xmlns:inkscape="http://www.inkscape.org/namespaces/inkscape"
   xmlns:sodipodi="http://sodipodi.sourceforge.net/DTD/sodipodi-0.dtd"
   xmlns="http://www.w3.org/2000/svg"
   xmlns:svg="http://www.w3.org/2000/svg">
  <defs
     id="defs14" />
  <sodipodi:namedview
     id="namedview12"
     pagecolor="#ffffff"
     bordercolor="#666666"
     borderopacity="1.0"
     inkscape:showpageshadow="2"
     inkscape:pageopacity="0.0"
     inkscape:pagecheckerboard="0"
     inkscape:deskcolor="#d1d1d1"
     showgrid="false"
     inkscape:zoom="34.541667"
     inkscape:cx="10.364294"
     inkscape:cy="12.014475"
     inkscape:window-width="1920"
     inkscape:window-height="1009"
     inkscape:window-x="1912"
     inkscape:window-y="-8"
     inkscape:window-maximized="1"
     inkscape:current-layer="svg10" />
  <path
     style="color:#000000;fill:currentColor;stroke-linecap:round;stroke-linejoin:round;-inkscape-stroke:none"
     d="M 3.5996094,2.25 C 2.8629077,2.25 2.25,2.8629077 2.25,3.5996094 V 20.400391 C 2.25,21.137086 2.862953,21.75 3.5996094,21.75 H 20.400391 C 21.13704,21.75 21.75,21.13704 21.75,20.400391 V 3.5996094 C 21.75,2.862953 21.137086,2.25 20.400391,2.25 Z M 3.75,3.75 h 16.5 v 16.5 H 3.75 Z"
     id="path2" />
  <path
     style="color:#000000;fill:currentColor;stroke-linecap:round;stroke-linejoin:round;-inkscape-stroke:none"
     d="m 7.9316406,5.2539062 a 0.75,0.75 0 0 0 -0.5078125,0.265625 c 0,0 -0.7254793,0.863653 -1.0839844,2.1542969 -0.358505,1.2906439 -0.3234091,3.1177349 1.0839844,4.8066409 1.092554,1.311091 1.0574975,2.484005 0.7910157,3.443359 -0.2664819,0.959354 -0.7910157,1.595703 -0.7910157,1.595703 a 0.75,0.75 0 0 0 0.095703,1.056641 0.75,0.75 0 0 0 1.0566407,-0.0957 c 0,0 0.7254793,-0.863653 1.0839844,-2.154297 C 10.018661,15.035528 9.9835654,13.208437 8.5761719,11.519531 7.4836179,10.20844 7.5186744,9.0355257 7.7851562,8.0761719 8.0516381,7.116818 8.5761719,6.4804687 8.5761719,6.4804687 A 0.75,0.75 0 0 0 8.4804688,5.4238281 0.75,0.75 0 0 0 7.9316406,5.2539062 Z"
     id="path4" />
  <path
     style="color:#000000;fill:currentColor;stroke-linecap:round;stroke-linejoin:round;-inkscape-stroke:none"
     d="m 11.931641,5.2539062 a 0.75,0.75 0 0 0 -0.507813,0.265625 c 0,0 -0.725487,0.8636556 -1.083984,2.1542969 -0.3584974,1.2906413 -0.323382,3.1177339 1.083984,4.8066409 1.092577,1.311092 1.057502,2.484008 0.791016,3.443359 -0.266487,0.959351 -0.791016,1.595703 -0.791016,1.595703 a 0.75,0.75 0 0 0 0.0957,1.056641 0.75,0.75 0 0 0 1.056641,-0.0957 c 0,0 0.725471,-0.863651 1.083984,-2.154297 0.358513,-1.290647 0.323437,-3.117736 -1.083984,-4.806641 -1.092531,-1.31109 -1.057493,-2.4840027 -0.791016,-3.4433591 0.266477,-0.9593565 0.791016,-1.5957032 0.791016,-1.5957032 a 0.75,0.75 0 0 0 -0.0957,-1.0566406 0.75,0.75 0 0 0 -0.548828,-0.1699219 z"
     id="path6" />
  <path
     style="color:#000000;fill:currentColor;stroke-linecap:round;stroke-linejoin:round;-inkscape-stroke:none"
     d="m 15.931641,5.2539062 a 0.75,0.75 0 0 0 -0.507813,0.265625 c 0,0 -0.725487,0.8636556 -1.083984,2.1542969 -0.358497,1.2906413 -0.323382,3.1177339 1.083984,4.8066409 1.092577,1.311092 1.057502,2.484008 0.791016,3.443359 -0.266487,0.959351 -0.791016,1.595703 -0.791016,1.595703 a 0.75,0.75 0 0 0 0.0957,1.056641 0.75,0.75 0 0 0 1.056641,-0.0957 c 0,0 0.725471,-0.863651 1.083984,-2.154297 0.358513,-1.290647 0.323437,-3.117736 -1.083984,-4.806641 -1.092531,-1.31109 -1.057493,-2.4840027 -0.791016,-3.4433591 0.266477,-0.9593565 0.791016,-1.5957032 0.791016,-1.5957032 a 0.75,0.75 0 0 0 -0.0957,-1.0566406 0.75,0.75 0 0 0 -0.548828,-0.1699219 z"
     id="path8" />
</svg>
