<?xml version="1.0" encoding="UTF-8" standalone="no"?>
<svg
   width="24"
   height="24"
   viewBox="0 0 24 24"
   stroke-width="1.5"
   fill="none"
   version="1.1"
   id="svg20"
   sodipodi:docname="hexagon-dice.svg"
   inkscape:version="1.2.1 (9c6d41e410, 2022-07-14)"
   xmlns:inkscape="http://www.inkscape.org/namespaces/inkscape"
   xmlns:sodipodi="http://sodipodi.sourceforge.net/DTD/sodipodi-0.dtd"
   xmlns="http://www.w3.org/2000/svg"
   xmlns:svg="http://www.w3.org/2000/svg">
  <defs
     id="defs24" />
  <sodipodi:namedview
     id="namedview22"
     pagecolor="#ffffff"
     bordercolor="#666666"
     borderopacity="1.0"
     inkscape:showpageshadow="2"
     inkscape:pageopacity="0.0"
     inkscape:pagecheckerboard="0"
     inkscape:deskcolor="#d1d1d1"
     showgrid="false"
     inkscape:zoom="34.541667"
     inkscape:cx="10.364294"
     inkscape:cy="12.014475"
     inkscape:window-width="1920"
     inkscape:window-height="1009"
     inkscape:window-x="1912"
     inkscape:window-y="-8"
     inkscape:window-maximized="1"
     inkscape:current-layer="svg20" />
  <path
     style="color:#000000;fill:currentColor;stroke-linecap:round;stroke-linejoin:round;-inkscape-stroke:none"
     d="M 11.324219,0.5234375 2.3984375,5.6777344 C 1.9817835,5.9182912 1.7246094,6.3645961 1.7246094,6.8457031 V 17.154297 c 0,0.481122 0.257193,0.927378 0.6738281,1.167969 l 8.9257815,5.154296 c 0.416765,0.240718 0.934797,0.240718 1.351562,0 l 8.925781,-5.154296 c 0.416543,-0.240589 0.673829,-0.686754 0.673829,-1.167969 V 6.8457031 c 0,-0.4812003 -0.25724,-0.9274205 -0.673829,-1.1679687 L 12.675781,0.5234375 c -0.416754,-0.24066683 -0.934813,-0.24064126 -1.351562,0 z M 12,1.8652344 20.775391,6.9316406 V 17.068359 L 12,22.134766 3.2246094,17.068359 V 6.9316406 Z"
     id="path2" />
  <path
     style="color:#000000;fill:currentColor;stroke-linecap:round;stroke-linejoin:round;-inkscape-stroke:none"
     d="M 12,6.25 A 0.750075,0.750075 0 0 0 11.363281,6.6015625 L 6.3632812,14.601563 A 0.750075,0.750075 0 0 0 7,15.75 h 10 a 0.750075,0.750075 0 0 0 0.636719,-1.148437 l -5,-8.0000005 A 0.750075,0.750075 0 0 0 12,6.25 Z M 12,8.4179688 15.644531,14.25 H 8.3554688 Z"
     id="path4" />
  <path
     style="color:#000000;fill:currentColor;stroke-linejoin:round;-inkscape-stroke:none"
     d="m 2.5390625,5.7519531 -0.078125,1.4960938 9.5000005,0.5 0.07813,-1.4960938 z"
     id="path6" />
  <path
     style="color:#000000;fill:currentColor;stroke-linejoin:round;-inkscape-stroke:none"
     d="m 3.1621094,6.1484375 -1.3242188,0.703125 4.5,8.5000005 1.3242188,-0.703125 z"
     id="path8" />
  <path
     style="color:#000000;fill:currentColor;stroke-linejoin:round;-inkscape-stroke:none"
     d="m 20.837891,6.1484375 -4.5,8.5000005 1.324218,0.703125 4.5,-8.5000005 z"
     id="path10" />
  <path
     style="color:#000000;fill:currentColor;stroke-linejoin:round;-inkscape-stroke:none"
     d="m 11.25,1 v 6 a 0.750075,0.750075 0 0 0 0.789063,0.7480469 l 9.499999,-0.5 L 21.460937,5.7519531 12.75,6.2109375 V 1 Z"
     id="path12" />
  <path
     style="color:#000000;fill:currentColor;stroke-linejoin:round;-inkscape-stroke:none"
     d="m 17.363281,14.34375 -0.726562,1.3125 4.5,2.5 0.726562,-1.3125 z"
     id="path14" />
  <path
     style="color:#000000;fill:currentColor;stroke-linejoin:round;-inkscape-stroke:none"
     d="m 6.6367187,14.34375 -4.4999999,2.5 0.7265625,1.3125 4.4999999,-2.5 z"
     id="path16" />
  <path
     style="color:#000000;fill:currentColor;stroke-linejoin:round;-inkscape-stroke:none"
     d="m 7.6367187,14.601563 -1.2734375,0.796875 4.9999998,7.999999 a 0.750075,0.750075 0 0 0 1.273438,0 l 5,-7.999999 L 16.363281,14.601563 12,21.582031 Z"
     id="path18" />
</svg>
