<?xml version="1.0" encoding="UTF-8" standalone="no"?>
<svg
   width="24"
   height="24"
   stroke-width="1.5"
   viewBox="0 0 24 24"
   fill="none"
   version="1.1"
   id="svg6"
   sodipodi:docname="hexagon-plus.svg"
   inkscape:version="1.2.1 (9c6d41e410, 2022-07-14)"
   xmlns:inkscape="http://www.inkscape.org/namespaces/inkscape"
   xmlns:sodipodi="http://sodipodi.sourceforge.net/DTD/sodipodi-0.dtd"
   xmlns="http://www.w3.org/2000/svg"
   xmlns:svg="http://www.w3.org/2000/svg">
  <defs
     id="defs10" />
  <sodipodi:namedview
     id="namedview8"
     pagecolor="#ffffff"
     bordercolor="#666666"
     borderopacity="1.0"
     inkscape:showpageshadow="2"
     inkscape:pageopacity="0.0"
     inkscape:pagecheckerboard="0"
     inkscape:deskcolor="#d1d1d1"
     showgrid="false"
     inkscape:zoom="34.541667"
     inkscape:cx="10.364294"
     inkscape:cy="12.014475"
     inkscape:window-width="1920"
     inkscape:window-height="1009"
     inkscape:window-x="1912"
     inkscape:window-y="-8"
     inkscape:window-maximized="1"
     inkscape:current-layer="svg6" />
  <path
     style="color:#000000;fill:currentColor;stroke-linecap:round;stroke-linejoin:round;-inkscape-stroke:none"
     d="M 12,8.25 A 0.75,0.75 0 0 0 11.25,9 v 2.25 H 9 A 0.75,0.75 0 0 0 8.25,12 0.75,0.75 0 0 0 9,12.75 h 2.25 V 15 A 0.75,0.75 0 0 0 12,15.75 0.75,0.75 0 0 0 12.75,15 V 12.75 H 15 A 0.75,0.75 0 0 0 15.75,12 0.75,0.75 0 0 0 15,11.25 H 12.75 V 9 A 0.75,0.75 0 0 0 12,8.25 Z"
     id="path2" />
  <path
     style="color:#000000;fill:currentColor;stroke-linecap:round;stroke-linejoin:round;-inkscape-stroke:none"
     d="M 11.324219,0.5234375 2.3984375,5.6777344 C 1.9817835,5.9182912 1.7246094,6.3645961 1.7246094,6.8457031 V 17.154297 c 0,0.481122 0.257193,0.927378 0.6738281,1.167969 l 8.9257815,5.154296 c 0.416765,0.240718 0.934797,0.240718 1.351562,0 l 8.925781,-5.154296 c 0.416543,-0.240589 0.673829,-0.686754 0.673829,-1.167969 V 6.8457031 c 0,-0.4812003 -0.25724,-0.9274205 -0.673829,-1.1679687 L 12.675781,0.5234375 c -0.416754,-0.24066683 -0.934813,-0.24064126 -1.351562,0 z M 12,1.8652344 20.775391,6.9316406 V 17.068359 L 12,22.134766 3.2246094,17.068359 V 6.9316406 Z"
     id="path4" />
</svg>
