<?xml version="1.0" encoding="UTF-8" standalone="no"?>
<svg
   width="24"
   height="24"
   stroke-width="1.5"
   viewBox="0 0 24 24"
   fill="none"
   version="1.1"
   id="svg4"
   sodipodi:docname="home-simple-door.svg"
   inkscape:version="1.2.1 (9c6d41e410, 2022-07-14)"
   xmlns:inkscape="http://www.inkscape.org/namespaces/inkscape"
   xmlns:sodipodi="http://sodipodi.sourceforge.net/DTD/sodipodi-0.dtd"
   xmlns="http://www.w3.org/2000/svg"
   xmlns:svg="http://www.w3.org/2000/svg">
  <defs
     id="defs8" />
  <sodipodi:namedview
     id="namedview6"
     pagecolor="#ffffff"
     bordercolor="#666666"
     borderopacity="1.0"
     inkscape:showpageshadow="2"
     inkscape:pageopacity="0.0"
     inkscape:pagecheckerboard="0"
     inkscape:deskcolor="#d1d1d1"
     showgrid="false"
     inkscape:zoom="34.541667"
     inkscape:cx="10.364294"
     inkscape:cy="12.014475"
     inkscape:window-width="1920"
     inkscape:window-height="1009"
     inkscape:window-x="1912"
     inkscape:window-y="-8"
     inkscape:window-maximized="1"
     inkscape:current-layer="svg4" />
  <path
     style="color:#000000;fill:currentColor;stroke-linecap:round;stroke-linejoin:round;-inkscape-stroke:none"
     d="m 12,2.9277344 c -0.852972,-10e-8 -1.706914,0.2293493 -2.4628906,0.6875 l -5,3.0292968 C 3.1175762,7.5048573 2.25,9.0471338 2.25,10.707031 V 17 c 0,2.614434 2.1355239,4.75 4.75,4.75 h 2 6 2 c 2.614443,0 4.75,-2.135557 4.75,-4.75 v -6.292969 c 0,-1.6598936 -0.867553,-3.2021743 -2.287109,-4.0624998 l -5,-3.0292968 C 13.706917,3.1570825 12.852972,2.9277344 12,2.9277344 Z m 0,1.4980468 c 0.583079,0 1.165268,0.158529 1.683594,0.4726563 l 5,3.0292969 C 19.656435,8.5173275 20.25,9.5694679 20.25,10.707031 V 17 c 0,1.803752 -1.446248,3.25 -3.25,3.25 H 15.75 V 17 c 0,-2.062203 -1.687797,-3.75 -3.75,-3.75 -2.062203,0 -3.75,1.687797 -3.75,3.75 v 3.25 H 7 C 5.1962005,20.25 3.75,18.803761 3.75,17 V 10.707031 C 3.75,9.5694714 4.3435819,8.5173269 5.3164062,7.9277344 L 10.316406,4.8984375 C 10.834738,4.584309 11.416921,4.4257813 12,4.4257812 Z M 12,14.75 c 1.251594,0 2.25,0.998406 2.25,2.25 v 3.25 H 9.75 V 17 c 0,-1.251594 0.998406,-2.25 2.25,-2.25 z"
     id="path2" />
</svg>
