<?xml version="1.0" encoding="UTF-8" standalone="no"?>
<svg
   width="24"
   height="24"
   stroke-width="1.5"
   viewBox="0 0 24 24"
   fill="none"
   version="1.1"
   id="svg8"
   sodipodi:docname="home-hospital.svg"
   inkscape:version="1.2.1 (9c6d41e410, 2022-07-14)"
   xmlns:inkscape="http://www.inkscape.org/namespaces/inkscape"
   xmlns:sodipodi="http://sodipodi.sourceforge.net/DTD/sodipodi-0.dtd"
   xmlns="http://www.w3.org/2000/svg"
   xmlns:svg="http://www.w3.org/2000/svg">
  <defs
     id="defs12" />
  <sodipodi:namedview
     id="namedview10"
     pagecolor="#ffffff"
     bordercolor="#666666"
     borderopacity="1.0"
     inkscape:showpageshadow="2"
     inkscape:pageopacity="0.0"
     inkscape:pagecheckerboard="0"
     inkscape:deskcolor="#d1d1d1"
     showgrid="false"
     inkscape:zoom="34.541667"
     inkscape:cx="10.364294"
     inkscape:cy="12.014475"
     inkscape:window-width="1920"
     inkscape:window-height="1009"
     inkscape:window-x="1912"
     inkscape:window-y="-8"
     inkscape:window-maximized="1"
     inkscape:current-layer="svg8" />
  <path
     style="color:#000000;fill:currentColor;stroke-linecap:round;stroke-linejoin:round;-inkscape-stroke:none"
     d="m 11.609375,3.359375 -9,5.5 a 0.75,0.75 0 0 0 -0.25,1.03125 0.75,0.75 0 0 0 1.03125,0.25 L 12,4.8789062 20.609375,10.140625 a 0.75,0.75 0 0 0 1.03125,-0.25 0.75,0.75 0 0 0 -0.25,-1.03125 l -9,-5.5 a 0.750075,0.750075 0 0 0 -0.78125,0 z"
     id="path2" />
  <path
     style="color:#000000;fill:currentColor;stroke-linecap:round;stroke-linejoin:round;-inkscape-stroke:none"
     d="M 5,12.25 A 0.75,0.75 0 0 0 4.25,13 v 6.400391 C 4.25,20.137086 4.862953,20.75 5.5996094,20.75 H 18.400391 C 19.13704,20.75 19.75,20.13704 19.75,19.400391 V 13 A 0.75,0.75 0 0 0 19,12.25 0.75,0.75 0 0 0 18.25,13 v 6.25 H 5.75 V 13 A 0.75,0.75 0 0 0 5,12.25 Z"
     id="path4" />
  <path
     style="color:#000000;fill:currentColor;stroke-linecap:round;stroke-linejoin:round;-inkscape-stroke:none"
     d="M 10.333984,8.25 A 0.750075,0.750075 0 0 0 9.5839844,9 v 1.583984 H 8 a 0.750075,0.750075 0 0 0 -0.75,0.75 v 3.332032 a 0.750075,0.750075 0 0 0 0.75,0.75 H 9.5839844 V 17 a 0.750075,0.750075 0 0 0 0.7499996,0.75 h 3.332032 a 0.750075,0.750075 0 0 0 0.75,-0.75 V 15.416016 H 16 a 0.750075,0.750075 0 0 0 0.75,-0.75 v -3.332032 a 0.750075,0.750075 0 0 0 -0.75,-0.75 H 14.416016 V 9 a 0.750075,0.750075 0 0 0 -0.75,-0.75 z m 0.75,1.5 h 1.832032 v 1.583984 a 0.750075,0.750075 0 0 0 0.75,0.75 H 15.25 v 1.832032 h -1.583984 a 0.750075,0.750075 0 0 0 -0.75,0.75 V 16.25 h -1.832032 v -1.583984 a 0.750075,0.750075 0 0 0 -0.75,-0.75 H 8.75 v -1.832032 h 1.583984 a 0.750075,0.750075 0 0 0 0.75,-0.75 z"
     id="path6" />
</svg>
