<?xml version="1.0" encoding="UTF-8" standalone="no"?>
<svg
   width="24"
   height="24"
   viewBox="0 0 24 24"
   stroke-width="1.5"
   fill="none"
   version="1.1"
   id="svg8"
   sodipodi:docname="home-secure.svg"
   inkscape:version="1.2.1 (9c6d41e410, 2022-07-14)"
   xmlns:inkscape="http://www.inkscape.org/namespaces/inkscape"
   xmlns:sodipodi="http://sodipodi.sourceforge.net/DTD/sodipodi-0.dtd"
   xmlns="http://www.w3.org/2000/svg"
   xmlns:svg="http://www.w3.org/2000/svg">
  <defs
     id="defs12" />
  <sodipodi:namedview
     id="namedview10"
     pagecolor="#ffffff"
     bordercolor="#666666"
     borderopacity="1.0"
     inkscape:showpageshadow="2"
     inkscape:pageopacity="0.0"
     inkscape:pagecheckerboard="0"
     inkscape:deskcolor="#d1d1d1"
     showgrid="false"
     inkscape:zoom="34.541667"
     inkscape:cx="10.364294"
     inkscape:cy="12.014475"
     inkscape:window-width="1920"
     inkscape:window-height="1009"
     inkscape:window-x="1912"
     inkscape:window-y="-8"
     inkscape:window-maximized="1"
     inkscape:current-layer="svg8" />
  <path
     style="color:#000000;fill:currentColor;stroke-linecap:round;stroke-linejoin:round;-inkscape-stroke:none"
     d="M 12,7.25 C 10.991668,7.25 10.211078,7.7290805 9.7910156,8.3125 9.3709531,8.8959195 9.25,9.5166662 9.25,10 v 1.396484 c -0.5507641,0.170495 -1,0.601824 -1,1.203125 v 2.800782 C 8.25,16.137086 8.862953,16.75 9.5996094,16.75 H 14.400391 C 15.13704,16.75 15.75,16.13704 15.75,15.400391 v -2.800782 c 0,-0.601264 -0.449238,-1.03262 -1,-1.203125 V 10 C 14.75,9.5166662 14.629047,8.8959195 14.208984,8.3125 13.788922,7.7290805 13.008332,7.25 12,7.25 Z m 0,1.5 c 0.591667,0 0.812251,0.1875879 0.992188,0.4375 C 13.172124,9.4374121 13.25,9.8166644 13.25,10 v 1.25 h -2.5 V 10 c 0,-0.1833356 0.07788,-0.5625879 0.257813,-0.8125 C 11.187749,8.9375879 11.408333,8.75 12,8.75 Z m -2.25,4 h 0.25 4 0.25 v 2.5 h -4.5 z"
     id="path2" />
  <path
     style="color:#000000;fill:currentColor;stroke-linecap:round;stroke-linejoin:round;-inkscape-stroke:none"
     d="M 11.396484,2.4628906 1.6640625,7.3300781 A 0.75,0.75 0 0 0 1.3300781,8.3359375 0.75,0.75 0 0 0 2.3359375,8.6699219 L 12,3.8378906 21.664062,8.6699219 A 0.75,0.75 0 0 0 22.669922,8.3359375 0.75,0.75 0 0 0 22.335937,7.3300781 L 12.603516,2.4628906 c -0.379484,-0.1897644 -0.8276,-0.1897158 -1.207032,0 z"
     id="path4" />
  <path
     style="color:#000000;fill:currentColor;stroke-linecap:round;stroke-linejoin:round;-inkscape-stroke:none"
     d="M 4,10.25 A 0.75,0.75 0 0 0 3.25,11 v 8 c 0,1.509917 1.2401154,2.75 2.75,2.75 h 12 c 1.509904,0 2.75,-1.240096 2.75,-2.75 V 11 A 0.75,0.75 0 0 0 20,10.25 0.75,0.75 0 0 0 19.25,11 v 8 c 0,0.699294 -0.550706,1.25 -1.25,1.25 H 6 C 5.3007468,20.25 4.75,19.699281 4.75,19 V 11 A 0.75,0.75 0 0 0 4,10.25 Z"
     id="path6" />
</svg>
