<?xml version="1.0" encoding="UTF-8" standalone="no"?>
<svg
   width="24"
   height="24"
   viewBox="0 0 24 24"
   stroke-width="1.5"
   fill="none"
   version="1.1"
   id="svg12"
   sodipodi:docname="home-sale.svg"
   inkscape:version="1.2.1 (9c6d41e410, 2022-07-14)"
   xmlns:inkscape="http://www.inkscape.org/namespaces/inkscape"
   xmlns:sodipodi="http://sodipodi.sourceforge.net/DTD/sodipodi-0.dtd"
   xmlns="http://www.w3.org/2000/svg"
   xmlns:svg="http://www.w3.org/2000/svg">
  <defs
     id="defs16" />
  <sodipodi:namedview
     id="namedview14"
     pagecolor="#ffffff"
     bordercolor="#666666"
     borderopacity="1.0"
     inkscape:showpageshadow="2"
     inkscape:pageopacity="0.0"
     inkscape:pagecheckerboard="0"
     inkscape:deskcolor="#d1d1d1"
     showgrid="false"
     inkscape:zoom="34.541667"
     inkscape:cx="10.364294"
     inkscape:cy="12.014475"
     inkscape:window-width="1920"
     inkscape:window-height="1009"
     inkscape:window-x="1912"
     inkscape:window-y="-8"
     inkscape:window-maximized="1"
     inkscape:current-layer="svg12" />
  <path
     style="color:#000000;fill:currentColor;stroke-linecap:round;stroke-linejoin:round;-inkscape-stroke:none"
     d="M 11.755859,8.3671875 C 11.249187,8.3918043 10.724388,8.5220304 10.291016,8.875 9.8576435,9.2279696 9.5839844,9.8188425 9.5839844,10.460938 c 0,0.709809 0.4541996,1.313415 0.9414066,1.599609 0.487206,0.286193 1.000644,0.39829 1.458984,0.513672 0.45834,0.115382 0.862198,0.233909 1.0625,0.351562 0.200302,0.117654 0.203125,0.09144 0.203125,0.304688 0,0.25843 -0.06379,0.348857 -0.207031,0.464844 -0.14324,0.115986 -0.40861,0.22136 -0.734375,0.25 -0.65153,0.05728 -1.458023,-0.241747 -1.726563,-0.572266 a 0.75,0.75 0 0 0 -1.0546872,-0.109375 0.75,0.75 0 0 0 -0.109375,1.054687 c 0.7314592,0.90028 1.9249692,1.217665 3.0234372,1.121094 0.549234,-0.04828 1.096366,-0.213331 1.546875,-0.578125 0.45051,-0.364794 0.761719,-0.96619 0.761719,-1.630859 0,-0.709798 -0.456156,-1.311482 -0.943359,-1.597656 -0.487204,-0.286175 -0.998698,-0.398292 -1.457032,-0.513672 -0.458334,-0.115381 -0.864154,-0.233904 -1.064453,-0.351563 -0.200299,-0.117659 -0.201172,-0.09335 -0.201172,-0.30664 0,-0.28098 0.05641,-0.342152 0.154297,-0.421875 0.09788,-0.079724 0.304842,-0.1599817 0.589844,-0.1738286 0.570003,-0.027694 1.3777,0.2669146 1.664063,0.5312496 a 0.75,0.75 0 0 0 1.058593,-0.04101 0.75,0.75 0 0 0 -0.04297,-1.0605471 C 13.794176,8.6361784 12.769205,8.3179538 11.755859,8.3671875 Z"
     id="path2" />
  <path
     style="color:#000000;fill:currentColor;stroke-linecap:round;stroke-linejoin:round;-inkscape-stroke:none"
     d="m 12,13.951172 a 0.75,0.75 0 0 0 -0.75,0.75 V 16 A 0.75,0.75 0 0 0 12,16.75 0.75,0.75 0 0 0 12.75,16 v -1.298828 a 0.75,0.75 0 0 0 -0.75,-0.75 z"
     id="path4" />
  <path
     style="color:#000000;fill:currentColor;stroke-linecap:round;stroke-linejoin:round;-inkscape-stroke:none"
     d="M 12,7.25 A 0.75,0.75 0 0 0 11.25,8 v 1.1132813 a 0.75,0.75 0 0 0 0.75,0.75 0.75,0.75 0 0 0 0.75,-0.75 V 8 A 0.75,0.75 0 0 0 12,7.25 Z"
     id="path6" />
  <path
     style="color:#000000;fill:currentColor;stroke-linecap:round;stroke-linejoin:round;-inkscape-stroke:none"
     d="M 11.396484,2.4628906 1.6640625,7.3300781 A 0.75,0.75 0 0 0 1.3300781,8.3359375 0.75,0.75 0 0 0 2.3359375,8.6699219 L 12,3.8378906 21.664062,8.6699219 A 0.75,0.75 0 0 0 22.669922,8.3359375 0.75,0.75 0 0 0 22.335937,7.3300781 L 12.603516,2.4628906 c -0.379484,-0.1897644 -0.8276,-0.1897158 -1.207032,0 z"
     id="path8" />
  <path
     style="color:#000000;fill:currentColor;stroke-linecap:round;stroke-linejoin:round;-inkscape-stroke:none"
     d="M 4,10.25 A 0.75,0.75 0 0 0 3.25,11 v 8 c 0,1.509917 1.2401154,2.75 2.75,2.75 h 12 c 1.509904,0 2.75,-1.240096 2.75,-2.75 V 11 A 0.75,0.75 0 0 0 20,10.25 0.75,0.75 0 0 0 19.25,11 v 8 c 0,0.699294 -0.550706,1.25 -1.25,1.25 H 6 C 5.3007468,20.25 4.75,19.699281 4.75,19 V 11 A 0.75,0.75 0 0 0 4,10.25 Z"
     id="path10" />
</svg>
