<?xml version="1.0" encoding="UTF-8" standalone="no"?>
<svg
   width="24"
   height="24"
   viewBox="0 0 24 24"
   stroke-width="1.5"
   fill="none"
   version="1.1"
   id="svg14"
   sodipodi:docname="home-temperature-out.svg"
   inkscape:version="1.2.1 (9c6d41e410, 2022-07-14)"
   xmlns:inkscape="http://www.inkscape.org/namespaces/inkscape"
   xmlns:sodipodi="http://sodipodi.sourceforge.net/DTD/sodipodi-0.dtd"
   xmlns="http://www.w3.org/2000/svg"
   xmlns:svg="http://www.w3.org/2000/svg">
  <defs
     id="defs18" />
  <sodipodi:namedview
     id="namedview16"
     pagecolor="#ffffff"
     bordercolor="#666666"
     borderopacity="1.0"
     inkscape:showpageshadow="2"
     inkscape:pageopacity="0.0"
     inkscape:pagecheckerboard="0"
     inkscape:deskcolor="#d1d1d1"
     showgrid="false"
     inkscape:zoom="34.541667"
     inkscape:cx="10.364294"
     inkscape:cy="12.014475"
     inkscape:window-width="1920"
     inkscape:window-height="1009"
     inkscape:window-x="1912"
     inkscape:window-y="-8"
     inkscape:window-maximized="1"
     inkscape:current-layer="svg14" />
  <path
     style="color:#000000;fill:currentColor;stroke-linecap:round;stroke-linejoin:round;-inkscape-stroke:none"
     d="M 4.6464844,2.484375 C 4.2142793,2.2682725 3.6969925,2.3003198 3.2949219,2.5683594 L 2.0839844,3.375 A 0.75,0.75 0 0 0 1.875,4.4160156 0.75,0.75 0 0 0 2.9160156,4.625 L 4.0546875,3.8652344 13.664063,8.6699219 A 0.75,0.75 0 0 0 14.669922,8.3359375 0.75,0.75 0 0 0 14.335938,7.3300781 Z"
     id="path2" />
  <path
     style="color:#000000;fill:currentColor;stroke-linecap:round;stroke-linejoin:round;-inkscape-stroke:none"
     d="M 12,10.25 A 0.75,0.75 0 0 0 11.25,11 v 8 c 0,0.699294 -0.550706,1.25 -1.25,1.25 H 7.75 V 15.599609 C 7.75,14.862914 7.137047,14.25 6.4003906,14.25 H 3.5996094 C 2.862953,14.25 2.25,14.862914 2.25,15.599609 v 4.800782 C 2.25,21.137086 2.862953,21.75 3.5996094,21.75 H 7 10 c 1.509904,0 2.75,-1.240096 2.75,-2.75 V 11 A 0.75,0.75 0 0 0 12,10.25 Z m -8.25,5.5 h 2.5 v 4.5 h -2.5 z"
     id="path4" />
  <path
     style="color:#000000;fill:currentColor;stroke-linecap:round;stroke-linejoin:round;-inkscape-stroke:none"
     d="m 19,13.25 c -1.509904,0 -2.75,1.240096 -2.75,2.75 0,1.509904 1.240096,2.75 2.75,2.75 1.509904,0 2.75,-1.240096 2.75,-2.75 0,-1.509904 -1.240096,-2.75 -2.75,-2.75 z m 0,1.5 c 0.699294,0 1.25,0.550706 1.25,1.25 0,0.699294 -0.550706,1.25 -1.25,1.25 -0.699294,0 -1.25,-0.550706 -1.25,-1.25 0,-0.699294 0.550706,-1.25 1.25,-1.25 z"
     id="path6" />
  <path
     style="color:#000000;fill:currentColor;stroke-linecap:round;stroke-linejoin:round;-inkscape-stroke:none"
     d="M 19,6.75 A 0.75,0.75 0 0 0 18.25,7.5 V 14 A 0.75,0.75 0 0 0 19,14.75 0.75,0.75 0 0 0 19.75,14 V 7.5 A 0.75,0.75 0 0 0 19,6.75 Z"
     id="path8" />
  <path
     style="color:#000000;fill:currentColor;stroke-linecap:round;stroke-linejoin:round;-inkscape-stroke:none"
     d="M 19,11.25 A 0.75,0.75 0 0 0 18.25,12 0.75,0.75 0 0 0 19,12.75 h 2 A 0.75,0.75 0 0 0 21.75,12 0.75,0.75 0 0 0 21,11.25 Z"
     id="path10" />
  <path
     style="color:#000000;fill:currentColor;stroke-linecap:round;stroke-linejoin:round;-inkscape-stroke:none"
     d="M 19,8.25 A 0.75,0.75 0 0 0 18.25,9 0.75,0.75 0 0 0 19,9.75 h 2 A 0.75,0.75 0 0 0 21.75,9 0.75,0.75 0 0 0 21,8.25 Z"
     id="path12" />
</svg>
