<?xml version="1.0" encoding="UTF-8" standalone="no"?>
<svg
   width="24"
   height="24"
   viewBox="0 0 24 24"
   stroke-width="1.5"
   fill="none"
   version="1.1"
   id="svg10"
   sodipodi:docname="home-table.svg"
   inkscape:version="1.2.1 (9c6d41e410, 2022-07-14)"
   xmlns:inkscape="http://www.inkscape.org/namespaces/inkscape"
   xmlns:sodipodi="http://sodipodi.sourceforge.net/DTD/sodipodi-0.dtd"
   xmlns="http://www.w3.org/2000/svg"
   xmlns:svg="http://www.w3.org/2000/svg">
  <defs
     id="defs14" />
  <sodipodi:namedview
     id="namedview12"
     pagecolor="#ffffff"
     bordercolor="#666666"
     borderopacity="1.0"
     inkscape:showpageshadow="2"
     inkscape:pageopacity="0.0"
     inkscape:pagecheckerboard="0"
     inkscape:deskcolor="#d1d1d1"
     showgrid="false"
     inkscape:zoom="34.541667"
     inkscape:cx="10.364294"
     inkscape:cy="12.014475"
     inkscape:window-width="1920"
     inkscape:window-height="1009"
     inkscape:window-x="1912"
     inkscape:window-y="-8"
     inkscape:window-maximized="1"
     inkscape:current-layer="svg10" />
  <path
     style="color:#000000;fill:currentColor;stroke-linecap:round;stroke-linejoin:round;-inkscape-stroke:none"
     d="M 4,6.25 A 0.75,0.75 0 0 0 3.25,7 V 17 A 0.75,0.75 0 0 0 4,17.75 0.75,0.75 0 0 0 4.75,17 V 7 A 0.75,0.75 0 0 0 4,6.25 Z"
     id="path2" />
  <path
     style="color:#000000;fill:currentColor;stroke-linecap:round;stroke-linejoin:round;-inkscape-stroke:none"
     d="M 1,6.25 A 0.75,0.75 0 0 0 0.25,7 0.75,0.75 0 0 0 1,7.75 H 23 A 0.75,0.75 0 0 0 23.75,7 0.75,0.75 0 0 0 23,6.25 Z"
     id="path4" />
  <path
     style="color:#000000;fill:currentColor;stroke-linecap:round;stroke-linejoin:round;-inkscape-stroke:none"
     d="M 4,9.25 A 0.75,0.75 0 0 0 3.25,10 0.75,0.75 0 0 0 4,10.75 H 20 A 0.75,0.75 0 0 0 20.75,10 0.75,0.75 0 0 0 20,9.25 Z"
     id="path6" />
  <path
     style="color:#000000;fill:currentColor;stroke-linecap:round;stroke-linejoin:round;-inkscape-stroke:none"
     d="M 20,6.25 A 0.75,0.75 0 0 0 19.25,7 V 17 A 0.75,0.75 0 0 0 20,17.75 0.75,0.75 0 0 0 20.75,17 V 7 A 0.75,0.75 0 0 0 20,6.25 Z"
     id="path8" />
</svg>
