<?xml version="1.0" encoding="UTF-8" standalone="no"?>
<svg
   width="24"
   height="24"
   viewBox="0 0 24 24"
   stroke-width="1.5"
   fill="none"
   version="1.1"
   id="svg8"
   sodipodi:docname="home-shield.svg"
   inkscape:version="1.2.1 (9c6d41e410, 2022-07-14)"
   xmlns:inkscape="http://www.inkscape.org/namespaces/inkscape"
   xmlns:sodipodi="http://sodipodi.sourceforge.net/DTD/sodipodi-0.dtd"
   xmlns="http://www.w3.org/2000/svg"
   xmlns:svg="http://www.w3.org/2000/svg">
  <defs
     id="defs12" />
  <sodipodi:namedview
     id="namedview10"
     pagecolor="#ffffff"
     bordercolor="#666666"
     borderopacity="1.0"
     inkscape:showpageshadow="2"
     inkscape:pageopacity="0.0"
     inkscape:pagecheckerboard="0"
     inkscape:deskcolor="#d1d1d1"
     showgrid="false"
     inkscape:zoom="34.541667"
     inkscape:cx="10.364294"
     inkscape:cy="12.014475"
     inkscape:window-width="1920"
     inkscape:window-height="1009"
     inkscape:window-x="1912"
     inkscape:window-y="-8"
     inkscape:window-maximized="1"
     inkscape:current-layer="svg8" />
  <path
     style="color:#000000;fill:currentColor;stroke-linecap:round;stroke-linejoin:round;-inkscape-stroke:none"
     d="m 11.310547,8.4042969 -2.0488282,0.53125 C 8.6691849,9.0891717 8.2368905,9.6394575 8.2578125,10.267578 c 0.08773,2.634749 0.8990509,4.272503 1.7480465,5.22461 0.848996,0.952106 1.796875,1.232421 1.796875,1.232421 a 0.750075,0.750075 0 0 0 0.394532,0 c 0,0 0.947885,-0.280317 1.796875,-1.232421 0.848989,-0.952105 1.66028,-2.589865 1.748047,-5.22461 0.02092,-0.6281753 -0.411395,-1.1783947 -1.003907,-1.3320311 l -2.048828,-0.53125 c -0.452554,-0.1173177 -0.926352,-0.1173177 -1.378906,0 z m 0.375,1.4511719 c 0.205845,-0.053362 0.423061,-0.053362 0.628906,0 l 1.904297,0.4941402 c -0.104562,2.246226 -0.752625,3.481612 -1.34375,4.144532 -0.494019,0.55402 -0.744134,0.592425 -0.875,0.636718 -0.130869,-0.04429 -0.38098,-0.0827 -0.875,-0.636718 -0.591126,-0.662918 -1.2392195,-1.898309 -1.34375,-4.144532 z"
     id="path2" />
  <path
     style="color:#000000;fill:currentColor;stroke-linecap:round;stroke-linejoin:round;-inkscape-stroke:none"
     d="M 11.396484,2.4628906 1.6640625,7.3300781 A 0.75,0.75 0 0 0 1.3300781,8.3359375 0.75,0.75 0 0 0 2.3359375,8.6699219 L 12,3.8378906 21.664062,8.6699219 A 0.75,0.75 0 0 0 22.669922,8.3359375 0.75,0.75 0 0 0 22.335937,7.3300781 L 12.603516,2.4628906 c -0.379484,-0.1897644 -0.8276,-0.1897158 -1.207032,0 z"
     id="path4" />
  <path
     style="color:#000000;fill:currentColor;stroke-linecap:round;stroke-linejoin:round;-inkscape-stroke:none"
     d="M 4,10.25 A 0.75,0.75 0 0 0 3.25,11 v 8 c 0,1.509917 1.2401154,2.75 2.75,2.75 h 12 c 1.509904,0 2.75,-1.240096 2.75,-2.75 V 11 A 0.75,0.75 0 0 0 20,10.25 0.75,0.75 0 0 0 19.25,11 v 8 c 0,0.699294 -0.550706,1.25 -1.25,1.25 H 6 C 5.3007468,20.25 4.75,19.699281 4.75,19 V 11 A 0.75,0.75 0 0 0 4,10.25 Z"
     id="path6" />
</svg>
