<?xml version="1.0" encoding="UTF-8" standalone="no"?>
<svg
   width="24"
   height="24"
   stroke-width="1.5"
   viewBox="0 0 24 24"
   fill="none"
   version="1.1"
   id="svg6"
   sodipodi:docname="horiz-distribution-left.svg"
   inkscape:version="1.2.1 (9c6d41e410, 2022-07-14)"
   xmlns:inkscape="http://www.inkscape.org/namespaces/inkscape"
   xmlns:sodipodi="http://sodipodi.sourceforge.net/DTD/sodipodi-0.dtd"
   xmlns="http://www.w3.org/2000/svg"
   xmlns:svg="http://www.w3.org/2000/svg">
  <defs
     id="defs10" />
  <sodipodi:namedview
     id="namedview8"
     pagecolor="#ffffff"
     bordercolor="#666666"
     borderopacity="1.0"
     inkscape:showpageshadow="2"
     inkscape:pageopacity="0.0"
     inkscape:pagecheckerboard="0"
     inkscape:deskcolor="#d1d1d1"
     showgrid="false"
     inkscape:zoom="34.541667"
     inkscape:cx="10.364294"
     inkscape:cy="12.014475"
     inkscape:window-width="1920"
     inkscape:window-height="1009"
     inkscape:window-x="1912"
     inkscape:window-y="-8"
     inkscape:window-maximized="1"
     inkscape:current-layer="svg6" />
  <path
     style="color:#000000;fill:currentColor;stroke-linecap:round;stroke-linejoin:round;-inkscape-stroke:none"
     d="M 19,3.25 A 0.75,0.75 0 0 0 18.25,4 V 6.25 H 13.599609 C 12.862914,6.25 12.25,6.862953 12.25,7.5996094 V 16.400391 C 12.25,17.13704 12.86296,17.75 13.599609,17.75 H 18.25 V 20 A 0.75,0.75 0 0 0 19,20.75 0.75,0.75 0 0 0 19.75,20 V 17 7 4 A 0.75,0.75 0 0 0 19,3.25 Z m -5.25,4.5 h 4.5 v 8.5 h -4.5 z"
     id="path2" />
  <path
     style="color:#000000;fill:currentColor;stroke-linecap:round;stroke-linejoin:round;-inkscape-stroke:none"
     d="M 9,3.25 A 0.75,0.75 0 0 0 8.25,4 V 6.25 H 5.5996094 C 4.8629077,6.25 4.25,6.8629077 4.25,7.5996094 V 16.400391 C 4.25,17.137086 4.862953,17.75 5.5996094,17.75 H 8.25 V 20 A 0.75,0.75 0 0 0 9,20.75 0.75,0.75 0 0 0 9.75,20 V 17 7 4 A 0.75,0.75 0 0 0 9,3.25 Z m -3.25,4.5 h 2.5 v 8.5 h -2.5 z"
     id="path4" />
</svg>
