<?xml version="1.0" encoding="UTF-8" standalone="no"?>
<svg
   width="24"
   height="24"
   viewBox="0 0 24 24"
   stroke-width="1.5"
   fill="none"
   version="1.1"
   id="svg10"
   sodipodi:docname="horizontal-merge.svg"
   inkscape:version="1.2.1 (9c6d41e410, 2022-07-14)"
   xmlns:inkscape="http://www.inkscape.org/namespaces/inkscape"
   xmlns:sodipodi="http://sodipodi.sourceforge.net/DTD/sodipodi-0.dtd"
   xmlns="http://www.w3.org/2000/svg"
   xmlns:svg="http://www.w3.org/2000/svg">
  <defs
     id="defs14" />
  <sodipodi:namedview
     id="namedview12"
     pagecolor="#ffffff"
     bordercolor="#666666"
     borderopacity="1.0"
     inkscape:showpageshadow="2"
     inkscape:pageopacity="0.0"
     inkscape:pagecheckerboard="0"
     inkscape:deskcolor="#d1d1d1"
     showgrid="false"
     inkscape:zoom="34.541667"
     inkscape:cx="10.364294"
     inkscape:cy="12.014475"
     inkscape:window-width="1920"
     inkscape:window-height="1009"
     inkscape:window-x="1912"
     inkscape:window-y="-8"
     inkscape:window-maximized="1"
     inkscape:current-layer="svg10" />
  <path
     style="color:#000000;fill:currentColor;stroke-linecap:round;stroke-linejoin:round;-inkscape-stroke:none"
     d="m 17.5,7.75 a 0.75,0.75 0 0 0 -0.53125,0.21875 l -3.5,3.5 A 0.75,0.75 0 0 0 13.25,12 a 0.75,0.75 0 0 0 0.21875,0.53125 l 3.5,3.5 a 0.75,0.75 0 0 0 1.0625,0 0.75,0.75 0 0 0 0,-1.0625 L 15.8125,12.75 H 22 A 0.75,0.75 0 0 0 22.75,12 0.75,0.75 0 0 0 22,11.25 h -6.1875 l 2.21875,-2.21875 a 0.75,0.75 0 0 0 0,-1.0625 A 0.75,0.75 0 0 0 17.5,7.75 Z"
     id="path2" />
  <path
     style="color:#000000;fill:currentColor;stroke-linecap:round;stroke-linejoin:round;-inkscape-stroke:none"
     d="m 6.5,7.75 a 0.75,0.75 0 0 0 -0.53125,0.21875 0.75,0.75 0 0 0 0,1.0625 L 8.1875,11.25 H 2 A 0.75,0.75 0 0 0 1.25,12 0.75,0.75 0 0 0 2,12.75 h 6.1875 l -2.21875,2.21875 a 0.75,0.75 0 0 0 0,1.0625 0.75,0.75 0 0 0 1.0625,0 l 3.5,-3.5 A 0.75,0.75 0 0 0 10.724609,12.0625 0.75,0.75 0 0 0 10.75,12 0.75,0.75 0 0 0 10.724609,11.871094 0.75,0.75 0 0 0 10.705078,11.773438 0.75,0.75 0 0 0 10.53125,11.46875 l -3.5,-3.5 A 0.75,0.75 0 0 0 6.5,7.75 Z"
     id="path4" />
  <path
     style="color:#000000;fill:currentColor;stroke-linecap:round;stroke-linejoin:round;-inkscape-stroke:none"
     d="M 10,2.25 A 0.75,0.75 0 0 0 9.25,3 V 21 A 0.75,0.75 0 0 0 10,21.75 0.75,0.75 0 0 0 10.75,21 V 3 A 0.75,0.75 0 0 0 10,2.25 Z"
     id="path6" />
  <path
     style="color:#000000;fill:currentColor;stroke-linecap:round;stroke-linejoin:round;-inkscape-stroke:none"
     d="M 14,2.25 A 0.75,0.75 0 0 0 13.25,3 V 21 A 0.75,0.75 0 0 0 14,21.75 0.75,0.75 0 0 0 14.75,21 V 3 A 0.75,0.75 0 0 0 14,2.25 Z"
     id="path8" />
</svg>
