<?xml version="1.0" encoding="UTF-8" standalone="no"?>
<svg
   width="24"
   height="24"
   viewBox="0 0 24 24"
   stroke-width="1.5"
   fill="none"
   version="1.1"
   id="svg3"
   sodipodi:docname="ice-cream.svg"
   inkscape:version="1.3.1 (91b66b0783, 2023-11-16)"
   xmlns:inkscape="http://www.inkscape.org/namespaces/inkscape"
   xmlns:sodipodi="http://sodipodi.sourceforge.net/DTD/sodipodi-0.dtd"
   xmlns="http://www.w3.org/2000/svg"
   xmlns:svg="http://www.w3.org/2000/svg">
  <defs
     id="defs3" />
  <sodipodi:namedview
     id="namedview3"
     pagecolor="#ffffff"
     bordercolor="#666666"
     borderopacity="1.0"
     inkscape:showpageshadow="2"
     inkscape:pageopacity="0.0"
     inkscape:pagecheckerboard="0"
     inkscape:deskcolor="#d1d1d1"
     inkscape:zoom="33.875"
     inkscape:cx="11.98524"
     inkscape:cy="12"
     inkscape:window-width="1920"
     inkscape:window-height="1009"
     inkscape:window-x="1912"
     inkscape:window-y="-8"
     inkscape:window-maximized="1"
     inkscape:current-layer="svg3" />
  <path
     style="color:#000000;fill:currentColor;-inkscape-stroke:none"
     d="m 9.25,18 v 2 c 0,1.509904 1.240096,2.75 2.75,2.75 1.509904,0 2.75,-1.240096 2.75,-2.75 v -2 h -1.5 v 2 c 0,0.699294 -0.550706,1.25 -1.25,1.25 -0.699294,0 -1.25,-0.550706 -1.25,-1.25 v -2 z"
     id="path1" />
  <path
     style="color:#000000;fill:currentColor;-inkscape-stroke:none"
     d="m 5,11.25 v 1.5 h 14 v -1.5 z"
     id="path2" />
  <path
     style="color:#000000;fill:currentColor;-inkscape-stroke:none"
     d="M 12,1.25 C 7.7286847,1.25 4.25,4.7286745 4.25,9 v 7 c 0,1.510338 1.2397878,2.750273 2.75,2.75 h 0.00195 c 3.3328169,-8e-4 6.6648749,-3e-4 9.9980469,0 1.509904,0 2.75,-1.240096 2.75,-2.75 V 9 C 19.75,4.7286758 16.271324,1.25 12,1.25 Z m 0,1.5 c 3.460668,0 6.25,2.789332 6.25,6.25 v 7 c 0,0.699294 -0.550706,1.25 -1.25,1.25 -3.333022,-3e-4 -6.666703,-8e-4 -10,0 C 6.3004144,17.250127 5.75,16.69946 5.75,16 V 9 C 5.75,5.5393333 8.539343,2.75 12,2.75 Z"
     id="path3" />
</svg>
