<?xml version="1.0" encoding="UTF-8" standalone="no"?>
<svg
   width="24"
   height="24"
   stroke-width="1.5"
   viewBox="0 0 24 24"
   fill="none"
   version="1.1"
   id="svg6"
   sodipodi:docname="iconoir.svg"
   inkscape:version="1.2.1 (9c6d41e410, 2022-07-14)"
   xmlns:inkscape="http://www.inkscape.org/namespaces/inkscape"
   xmlns:sodipodi="http://sodipodi.sourceforge.net/DTD/sodipodi-0.dtd"
   xmlns="http://www.w3.org/2000/svg"
   xmlns:svg="http://www.w3.org/2000/svg">
  <defs
     id="defs10" />
  <sodipodi:namedview
     id="namedview8"
     pagecolor="#ffffff"
     bordercolor="#666666"
     borderopacity="1.0"
     inkscape:showpageshadow="2"
     inkscape:pageopacity="0.0"
     inkscape:pagecheckerboard="0"
     inkscape:deskcolor="#d1d1d1"
     showgrid="false"
     inkscape:zoom="34.541667"
     inkscape:cx="10.364294"
     inkscape:cy="12.014475"
     inkscape:window-width="1920"
     inkscape:window-height="1009"
     inkscape:window-x="1912"
     inkscape:window-y="-8"
     inkscape:window-maximized="1"
     inkscape:current-layer="svg6" />
  <path
     style="color:#000000;fill:currentColor;stroke-linecap:round;stroke-linejoin:round;-inkscape-stroke:none"
     d="m 12,7.25 c -2.6144671,0 -4.75,2.1355329 -4.75,4.75 0,2.614434 2.1355239,4.75 4.75,4.75 2.614443,0 4.75,-2.135557 4.75,-4.75 0,-2.6144761 -2.135566,-4.75 -4.75,-4.75 z m 0,1.5 c 1.803761,0 3.25,1.446201 3.25,3.25 0,1.803752 -1.446248,3.25 -3.25,3.25 -1.803799,0 -3.25,-1.446239 -3.25,-3.25 0,-1.803809 1.446191,-3.25 3.25,-3.25 z"
     id="path2" />
  <path
     style="color:#000000;fill:currentColor;stroke-linecap:round;stroke-linejoin:round;-inkscape-stroke:none"
     d="M 5,2.25 C 3.4901018,2.25 2.25,3.4901018 2.25,5 v 14 c 0,1.509917 1.2401154,2.75 2.75,2.75 h 14 c 1.509904,0 2.75,-1.240096 2.75,-2.75 V 5 C 21.75,3.4901154 20.509917,2.25 19,2.25 Z m 0,1.5 h 14 c 0.699281,0 1.25,0.5507468 1.25,1.25 v 14 c 0,0.699294 -0.550706,1.25 -1.25,1.25 H 5 C 4.3007468,20.25 3.75,19.699281 3.75,19 V 5 C 3.75,4.3007604 4.3007604,3.75 5,3.75 Z"
     id="path4" />
</svg>
