<?xml version="1.0" encoding="UTF-8" standalone="no"?>
<svg
   width="24"
   height="24"
   viewBox="0 0 24 24"
   stroke-width="1.5"
   fill="none"
   version="1.1"
   id="svg6"
   sodipodi:docname="infinite.svg"
   inkscape:version="1.2.1 (9c6d41e410, 2022-07-14)"
   xmlns:inkscape="http://www.inkscape.org/namespaces/inkscape"
   xmlns:sodipodi="http://sodipodi.sourceforge.net/DTD/sodipodi-0.dtd"
   xmlns="http://www.w3.org/2000/svg"
   xmlns:svg="http://www.w3.org/2000/svg">
  <defs
     id="defs10" />
  <sodipodi:namedview
     id="namedview8"
     pagecolor="#ffffff"
     bordercolor="#666666"
     borderopacity="1.0"
     inkscape:showpageshadow="2"
     inkscape:pageopacity="0.0"
     inkscape:pagecheckerboard="0"
     inkscape:deskcolor="#d1d1d1"
     showgrid="false"
     inkscape:zoom="34.541667"
     inkscape:cx="10.364294"
     inkscape:cy="12.014475"
     inkscape:window-width="1920"
     inkscape:window-height="1009"
     inkscape:window-x="1912"
     inkscape:window-y="-8"
     inkscape:window-maximized="1"
     inkscape:current-layer="svg6" />
  <path
     style="color:#000000;fill:currentColor;stroke-linecap:round;stroke-linejoin:round;-inkscape-stroke:none"
     d="m 6,6.25 c -3.1667481,0 -5.75,2.5832519 -5.75,5.75 0,3.166731 2.5832482,5.75 5.75,5.75 1.8759423,0 3.5510703,-0.902983 4.599609,-2.298828 a 0.750075,0.750075 0 0 0 0.02539,-0.03516 l 0.332031,-0.5 A 0.75,0.75 0 0 0 10.75,13.875 0.75,0.75 0 0 0 9.7089844,14.083984 L 9.4003906,14.548828 C 8.6244515,15.581781 7.3956944,16.25 6,16.25 3.6439173,16.25 1.75,14.356063 1.75,12 1.75,9.6439137 3.6439137,7.75 6,7.75 c 1.3955874,0 2.6244344,0.6682054 3.4003906,1.7011719 A 0.75,0.75 0 0 0 10.451172,9.5996094 0.75,0.75 0 0 0 10.599609,8.5488281 C 9.5511474,7.1530971 7.8758894,6.25 6,6.25 Z m 7.853516,2.0136719 A 0.75,0.75 0 0 0 13.375,8.5839844 l -0.25,0.375 A 0.75,0.75 0 0 0 13.333984,10 0.75,0.75 0 0 0 14.375,9.7910156 l 0.25,-0.375 A 0.75,0.75 0 0 0 14.416016,8.375 0.75,0.75 0 0 0 13.853516,8.2636719 Z"
     id="path2" />
  <path
     style="color:#000000;fill:currentColor;stroke-linecap:round;stroke-linejoin:round;-inkscape-stroke:none"
     d="m 18,6.25 c -1.87591,0 -3.551092,0.9028926 -4.599609,2.2988281 a 0.75,0.75 0 0 0 0.148437,1.0507813 0.75,0.75 0 0 0 1.050781,-0.1484375 C 15.37549,8.4182098 16.604313,7.75 18,7.75 c 2.356063,0 4.25,1.8939173 4.25,4.25 0,2.35606 -1.89394,4.25 -4.25,4.25 -1.395671,0 -2.624506,-0.668246 -3.400391,-1.701172 L 10.625,8.5839844 A 0.75,0.75 0 0 0 9.5839844,8.375 0.75,0.75 0 0 0 9.375,9.4160156 l 4,6.0000004 a 0.750075,0.750075 0 0 0 0.02539,0.03516 C 14.448904,16.847044 16.124075,17.75 18,17.75 c 3.166735,0 5.75,-2.583265 5.75,-5.75 0,-3.1667518 -2.583269,-5.75 -5.75,-5.75 z"
     id="path4" />
</svg>
