<?xml version="1.0" encoding="UTF-8" standalone="no"?>
<svg
   width="24"
   height="24"
   stroke-width="1.5"
   viewBox="0 0 24 24"
   fill="none"
   version="1.1"
   id="svg6"
   sodipodi:docname="input-search.svg"
   inkscape:version="1.2.1 (9c6d41e410, 2022-07-14)"
   xmlns:inkscape="http://www.inkscape.org/namespaces/inkscape"
   xmlns:sodipodi="http://sodipodi.sourceforge.net/DTD/sodipodi-0.dtd"
   xmlns="http://www.w3.org/2000/svg"
   xmlns:svg="http://www.w3.org/2000/svg">
  <defs
     id="defs10" />
  <sodipodi:namedview
     id="namedview8"
     pagecolor="#ffffff"
     bordercolor="#666666"
     borderopacity="1.0"
     inkscape:showpageshadow="2"
     inkscape:pageopacity="0.0"
     inkscape:pagecheckerboard="0"
     inkscape:deskcolor="#d1d1d1"
     showgrid="false"
     inkscape:zoom="34.541667"
     inkscape:cx="10.364294"
     inkscape:cy="12.014475"
     inkscape:window-width="1920"
     inkscape:window-height="1009"
     inkscape:window-x="1912"
     inkscape:window-y="-8"
     inkscape:window-maximized="1"
     inkscape:current-layer="svg6" />
  <path
     style="color:#000000;fill:currentColor;stroke-linecap:round;stroke-linejoin:round;-inkscape-stroke:none"
     d="m 8,4.25 c -3.1667481,0 -5.75,2.5832519 -5.75,5.75 0,3.166731 2.5832482,5.75 5.75,5.75 h 4 A 0.75,0.75 0 0 0 12.75,15 0.75,0.75 0 0 0 12,14.25 H 8 C 5.6439173,14.25 3.75,12.356063 3.75,10 3.75,7.6439137 5.6439137,5.75 8,5.75 h 8 c 2.356063,0 4.25,1.8939173 4.25,4.25 v 2 A 0.75,0.75 0 0 0 21,12.75 0.75,0.75 0 0 0 21.75,12 V 10 C 21.75,6.8332482 19.166731,4.25 16,4.25 Z"
     id="path2" />
  <path
     style="color:#000000;fill:currentColor;stroke-linecap:round;stroke-linejoin:round;-inkscape-stroke:none"
     d="m 18,13.25 c -2.062203,0 -3.75,1.687797 -3.75,3.75 0,2.062203 1.687797,3.75 3.75,3.75 0.758277,0 1.427108,-0.283945 2.019531,-0.673828 l 1.449219,1.453125 a 0.75,0.75 0 0 0 1.060547,0.002 0.75,0.75 0 0 0 0.002,-1.060547 L 21.078125,19.015625 C 21.466467,18.423951 21.75,17.756551 21.75,17 21.75,14.937797 20.062203,13.25 18,13.25 Z m 0,1.5 c 1.251594,0 2.25,0.998406 2.25,2.25 0,0.624702 -0.249414,1.180002 -0.65625,1.587891 C 19.185546,18.997147 18.626863,19.25 18,19.25 c -1.251594,0 -2.25,-0.998406 -2.25,-2.25 0,-1.251594 0.998406,-2.25 2.25,-2.25 z"
     id="path4" />
</svg>
