<?xml version="1.0" encoding="UTF-8" standalone="no"?>
<svg
   width="24"
   height="24"
   stroke-width="1.5"
   viewBox="0 0 24 24"
   fill="none"
   version="1.1"
   id="svg8"
   sodipodi:docname="instagram.svg"
   inkscape:version="1.2.1 (9c6d41e410, 2022-07-14)"
   xmlns:inkscape="http://www.inkscape.org/namespaces/inkscape"
   xmlns:sodipodi="http://sodipodi.sourceforge.net/DTD/sodipodi-0.dtd"
   xmlns="http://www.w3.org/2000/svg"
   xmlns:svg="http://www.w3.org/2000/svg">
  <defs
     id="defs12" />
  <sodipodi:namedview
     id="namedview10"
     pagecolor="#ffffff"
     bordercolor="#666666"
     borderopacity="1.0"
     inkscape:showpageshadow="2"
     inkscape:pageopacity="0.0"
     inkscape:pagecheckerboard="0"
     inkscape:deskcolor="#d1d1d1"
     showgrid="false"
     inkscape:zoom="34.541667"
     inkscape:cx="10.364294"
     inkscape:cy="12.014475"
     inkscape:window-width="1920"
     inkscape:window-height="1009"
     inkscape:window-x="1912"
     inkscape:window-y="-8"
     inkscape:window-maximized="1"
     inkscape:current-layer="svg8" />
  <path
     style="color:#000000;fill:currentColor;stroke-linecap:round;stroke-linejoin:round;-inkscape-stroke:none"
     d="m 12,7.25 c -2.6144671,0 -4.75,2.1355329 -4.75,4.75 0,2.614434 2.1355239,4.75 4.75,4.75 2.614443,0 4.75,-2.135557 4.75,-4.75 0,-2.6144761 -2.135566,-4.75 -4.75,-4.75 z m 0,1.5 c 1.803761,0 3.25,1.446201 3.25,3.25 0,1.803752 -1.446248,3.25 -3.25,3.25 -1.803799,0 -3.25,-1.446239 -3.25,-3.25 0,-1.803809 1.446191,-3.25 3.25,-3.25 z"
     id="path2" />
  <path
     style="color:#000000;fill:currentColor;-inkscape-stroke:none"
     d="M 8,2.25 C 4.8332519,2.25 2.25,4.8332519 2.25,8 v 8 c 0,3.166731 2.5832482,5.75 5.75,5.75 h 8 c 3.166735,0 5.75,-2.583265 5.75,-5.75 V 8 C 21.75,4.8332482 19.166731,2.25 16,2.25 Z m 0,1.5 h 8 c 2.356063,0 4.25,1.8939173 4.25,4.25 v 8 c 0,2.35606 -1.89394,4.25 -4.25,4.25 H 8 C 5.6439173,20.25 3.75,18.356063 3.75,16 V 8 C 3.75,5.6439137 5.6439137,3.75 8,3.75 Z"
     id="path4" />
  <path
     style="color:#000000;fill:currentColor;stroke-linecap:round;stroke-linejoin:round;-inkscape-stroke:none"
     d="m 18.011719,5.9414062 a 0.75,0.75 0 0 0 -1.058594,0.056641 l -0.0098,0.00977 a 0.75,0.75 0 0 0 0.05469,1.0605469 0.75,0.75 0 0 0 1.058594,-0.056641 L 18.068359,7 a 0.75,0.75 0 0 0 -0.05664,-1.0585938 z"
     id="path6" />
</svg>
