<?xml version="1.0" encoding="UTF-8" standalone="no"?>
<svg
   width="24"
   height="24"
   stroke-width="1.5"
   viewBox="0 0 24 24"
   fill="none"
   version="1.1"
   id="svg22"
   sodipodi:docname="intersect.svg"
   inkscape:version="1.2.1 (9c6d41e410, 2022-07-14)"
   xmlns:inkscape="http://www.inkscape.org/namespaces/inkscape"
   xmlns:sodipodi="http://sodipodi.sourceforge.net/DTD/sodipodi-0.dtd"
   xmlns="http://www.w3.org/2000/svg"
   xmlns:svg="http://www.w3.org/2000/svg">
  <defs
     id="defs26" />
  <sodipodi:namedview
     id="namedview24"
     pagecolor="#ffffff"
     bordercolor="#666666"
     borderopacity="1.0"
     inkscape:showpageshadow="2"
     inkscape:pageopacity="0.0"
     inkscape:pagecheckerboard="0"
     inkscape:deskcolor="#d1d1d1"
     showgrid="false"
     inkscape:zoom="34.541667"
     inkscape:cx="10.364294"
     inkscape:cy="12.014475"
     inkscape:window-width="1920"
     inkscape:window-height="1009"
     inkscape:window-x="1912"
     inkscape:window-y="-8"
     inkscape:window-maximized="1"
     inkscape:current-layer="svg22" />
  <path
     style="color:#000000;fill:currentColor;stroke-linecap:round;stroke-linejoin:round;-inkscape-stroke:none"
     d="m 21,12.75 a 0.75,0.75 0 0 0 -0.75,0.75 v 3 A 0.75,0.75 0 0 0 21,17.25 0.75,0.75 0 0 0 21.75,16.5 v -3 A 0.75,0.75 0 0 0 21,12.75 Z m -7.5,7.5 A 0.75,0.75 0 0 0 12.75,21 0.75,0.75 0 0 0 13.5,21.75 h 3 A 0.75,0.75 0 0 0 17.25,21 0.75,0.75 0 0 0 16.5,20.25 Z"
     id="path2" />
  <path
     style="color:#000000;fill:currentColor;stroke-linecap:round;stroke-linejoin:round;-inkscape-stroke:none"
     d="M 9.5996094,8.25 C 8.8629077,8.25 8.25,8.8629077 8.25,9.5996094 V 16.5 A 0.75,0.75 0 0 0 9,17.25 0.75,0.75 0 0 0 9.75,16.5 V 9.75 H 16.5 A 0.75,0.75 0 0 0 17.25,9 0.75,0.75 0 0 0 16.5,8.25 Z"
     id="path4" />
  <path
     style="color:#000000;fill:currentColor;stroke-linecap:round;stroke-linejoin:round;-inkscape-stroke:none"
     d="M 9,18.75 A 0.75,0.75 0 0 0 8.25,19.5 v 0.900391 C 8.25,21.137086 8.862953,21.75 9.5996094,21.75 H 10.5 A 0.75,0.75 0 0 0 11.25,21 0.75,0.75 0 0 0 10.5,20.25 H 9.75 V 19.5 A 0.75,0.75 0 0 0 9,18.75 Z"
     id="path6" />
  <path
     style="color:#000000;fill:currentColor;stroke-linecap:round;stroke-linejoin:round;-inkscape-stroke:none"
     d="m 21,18.75 a 0.75,0.75 0 0 0 -0.75,0.75 v 0.75 H 19.5 A 0.75,0.75 0 0 0 18.75,21 0.75,0.75 0 0 0 19.5,21.75 h 0.900391 C 21.13704,21.75 21.75,21.13704 21.75,20.400391 V 19.5 A 0.75,0.75 0 0 0 21,18.75 Z"
     id="path8" />
  <path
     style="color:#000000;fill:currentColor;stroke-linecap:round;stroke-linejoin:round;-inkscape-stroke:none"
     d="M 19.5,8.25 A 0.75,0.75 0 0 0 18.75,9 0.75,0.75 0 0 0 19.5,9.75 h 0.75 V 10.5 A 0.75,0.75 0 0 0 21,11.25 0.75,0.75 0 0 0 21.75,10.5 V 9.5996094 C 21.75,8.862953 21.137086,8.25 20.400391,8.25 Z"
     id="path10" />
  <path
     style="color:#000000;fill:currentColor;stroke-linecap:round;stroke-linejoin:round;-inkscape-stroke:none"
     d="M 7.5,2.25 A 0.75,0.75 0 0 0 6.75,3 0.75,0.75 0 0 0 7.5,3.75 h 3 A 0.75,0.75 0 0 0 11.25,3 0.75,0.75 0 0 0 10.5,2.25 Z M 3,6.75 A 0.75,0.75 0 0 0 2.25,7.5 v 3 A 0.75,0.75 0 0 0 3,11.25 0.75,0.75 0 0 0 3.75,10.5 v -3 A 0.75,0.75 0 0 0 3,6.75 Z"
     id="path12" />
  <path
     style="color:#000000;fill:currentColor;stroke-linecap:round;stroke-linejoin:round;-inkscape-stroke:none"
     d="M 15,6.75 A 0.75,0.75 0 0 0 14.25,7.5 v 6.75 H 7.5 A 0.75,0.75 0 0 0 6.75,15 0.75,0.75 0 0 0 7.5,15.75 h 6.900391 C 15.13704,15.75 15.75,15.13704 15.75,14.400391 V 7.5 A 0.75,0.75 0 0 0 15,6.75 Z"
     id="path14" />
  <path
     style="color:#000000;fill:currentColor;stroke-linecap:round;stroke-linejoin:round;-inkscape-stroke:none"
     d="M 3,12.75 A 0.75,0.75 0 0 0 2.25,13.5 v 0.900391 C 2.25,15.137086 2.862953,15.75 3.5996094,15.75 H 4.5 A 0.75,0.75 0 0 0 5.25,15 0.75,0.75 0 0 0 4.5,14.25 H 3.75 V 13.5 A 0.75,0.75 0 0 0 3,12.75 Z"
     id="path16" />
  <path
     style="color:#000000;fill:currentColor;stroke-linecap:round;stroke-linejoin:round;-inkscape-stroke:none"
     d="M 3.5996094,2.25 C 2.8629077,2.25 2.25,2.8629077 2.25,3.5996094 V 4.5 A 0.75,0.75 0 0 0 3,5.25 0.75,0.75 0 0 0 3.75,4.5 V 3.75 H 4.5 A 0.75,0.75 0 0 0 5.25,3 0.75,0.75 0 0 0 4.5,2.25 Z"
     id="path18" />
  <path
     style="color:#000000;fill:currentColor;stroke-linecap:round;stroke-linejoin:round;-inkscape-stroke:none"
     d="M 13.5,2.25 A 0.75,0.75 0 0 0 12.75,3 0.75,0.75 0 0 0 13.5,3.75 h 0.75 V 4.5 A 0.75,0.75 0 0 0 15,5.25 0.75,0.75 0 0 0 15.75,4.5 V 3.5996094 C 15.75,2.862953 15.137086,2.25 14.400391,2.25 Z"
     id="path20" />
</svg>
