<?xml version="1.0" encoding="UTF-8" standalone="no"?>
<svg
   width="24"
   height="24"
   stroke-width="1.5"
   viewBox="0 0 24 24"
   fill="none"
   version="1.1"
   id="svg34"
   sodipodi:docname="intersect-alt.svg"
   inkscape:version="1.2.1 (9c6d41e410, 2022-07-14)"
   xmlns:inkscape="http://www.inkscape.org/namespaces/inkscape"
   xmlns:sodipodi="http://sodipodi.sourceforge.net/DTD/sodipodi-0.dtd"
   xmlns="http://www.w3.org/2000/svg"
   xmlns:svg="http://www.w3.org/2000/svg">
  <defs
     id="defs38" />
  <sodipodi:namedview
     id="namedview36"
     pagecolor="#ffffff"
     bordercolor="#666666"
     borderopacity="1.0"
     inkscape:showpageshadow="2"
     inkscape:pageopacity="0.0"
     inkscape:pagecheckerboard="0"
     inkscape:deskcolor="#d1d1d1"
     showgrid="false"
     inkscape:zoom="34.541667"
     inkscape:cx="10.364294"
     inkscape:cy="12.014475"
     inkscape:window-width="1920"
     inkscape:window-height="1009"
     inkscape:window-x="1912"
     inkscape:window-y="-8"
     inkscape:window-maximized="1"
     inkscape:current-layer="svg34" />
  <path
     style="color:#000000;fill:currentColor;stroke-linecap:round;stroke-linejoin:round;-inkscape-stroke:none"
     d="m 14.970703,2.2519531 a 0.75,0.75 0 0 0 -0.517578,0.2460938 l -0.01172,0.011719 a 0.75,0.75 0 0 0 0.05664,1.0585938 0.75,0.75 0 0 0 1.058594,-0.054687 l 0.0098,-0.011719 A 0.75,0.75 0 0 0 15.511719,2.4433594 0.75,0.75 0 0 0 14.970703,2.2519531 Z"
     id="path2" />
  <path
     style="color:#000000;fill:currentColor;stroke-linecap:round;stroke-linejoin:round;-inkscape-stroke:none"
     d="m 10.970703,2.2519531 a 0.75,0.75 0 0 0 -0.517578,0.2460938 l -0.01172,0.011719 a 0.75,0.75 0 0 0 0.05664,1.0585938 0.75,0.75 0 0 0 1.058594,-0.054687 l 0.0098,-0.011719 A 0.75,0.75 0 0 0 11.511719,2.4433594 0.75,0.75 0 0 0 10.970703,2.2519531 Z"
     id="path4" />
  <path
     style="color:#000000;fill:currentColor;stroke-linecap:round;stroke-linejoin:round;-inkscape-stroke:none"
     d="M 6.9707031,2.2519531 A 0.75,0.75 0 0 0 6.453125,2.4980469 l -0.011719,0.011719 a 0.75,0.75 0 0 0 0.056641,1.0585938 0.75,0.75 0 0 0 1.0585937,-0.054687 l 0.00977,-0.011719 A 0.75,0.75 0 0 0 7.5117187,2.4433594 0.75,0.75 0 0 0 6.9707031,2.2519531 Z"
     id="path6" />
  <path
     style="color:#000000;fill:currentColor;stroke-linecap:round;stroke-linejoin:round;-inkscape-stroke:none"
     d="M 2.9707031,2.2519531 A 0.75,0.75 0 0 0 2.453125,2.4980469 l -0.011719,0.011719 a 0.75,0.75 0 0 0 0.056641,1.0585938 0.75,0.75 0 0 0 1.0585937,-0.054687 l 0.00977,-0.011719 A 0.75,0.75 0 0 0 3.5117188,2.4433594 0.75,0.75 0 0 0 2.9707031,2.2519531 Z"
     id="path8" />
  <path
     style="color:#000000;fill:currentColor;stroke-linecap:round;stroke-linejoin:round;-inkscape-stroke:none"
     d="M 2.9707031,6.2519531 A 0.75,0.75 0 0 0 2.453125,6.4980469 l -0.011719,0.011719 a 0.75,0.75 0 0 0 0.056641,1.0585938 0.75,0.75 0 0 0 1.0585937,-0.054687 l 0.00977,-0.011719 A 0.75,0.75 0 0 0 3.5117188,6.4433594 0.75,0.75 0 0 0 2.9707031,6.2519531 Z"
     id="path10" />
  <path
     style="color:#000000;fill:currentColor;stroke-linecap:round;stroke-linejoin:round;-inkscape-stroke:none"
     d="M 2.9707031,10.251953 A 0.75,0.75 0 0 0 2.453125,10.498047 l -0.00977,0.01172 a 0.75,0.75 0 0 0 0.054687,1.058593 0.75,0.75 0 0 0 1.0585937,-0.05469 l 0.00977,-0.01172 A 0.75,0.75 0 0 0 3.5117188,10.443359 0.75,0.75 0 0 0 2.9707031,10.251953 Z"
     id="path12" />
  <path
     style="color:#000000;fill:currentColor;stroke-linecap:round;stroke-linejoin:round;-inkscape-stroke:none"
     d="M 2.9707031,14.251953 A 0.75,0.75 0 0 0 2.453125,14.498047 l -0.00977,0.01172 a 0.75,0.75 0 0 0 0.054687,1.058593 0.75,0.75 0 0 0 1.0585937,-0.05469 l 0.00977,-0.01172 A 0.75,0.75 0 0 0 3.5117188,14.443359 0.75,0.75 0 0 0 2.9707031,14.251953 Z"
     id="path14" />
  <path
     style="color:#000000;fill:currentColor;stroke-linecap:round;stroke-linejoin:round;-inkscape-stroke:none"
     d="M 8.9707031,20.25 A 0.75,0.75 0 0 0 8.453125,20.496094 l -0.00977,0.01172 a 0.75,0.75 0 0 0 0.054687,1.058594 0.75,0.75 0 0 0 1.0585937,-0.05469 L 9.5664063,21.5 A 0.75,0.75 0 0 0 9.5117188,20.441406 0.75,0.75 0 0 0 8.9707031,20.25 Z"
     id="path16" />
  <path
     style="color:#000000;fill:currentColor;stroke-linecap:round;stroke-linejoin:round;-inkscape-stroke:none"
     d="m 12.970703,20.25 a 0.75,0.75 0 0 0 -0.517578,0.246094 l -0.0098,0.01172 a 0.75,0.75 0 0 0 0.05469,1.058594 0.75,0.75 0 0 0 1.058594,-0.05469 L 13.566406,21.5 A 0.75,0.75 0 0 0 13.511719,20.441406 0.75,0.75 0 0 0 12.970703,20.25 Z"
     id="path18" />
  <path
     style="color:#000000;fill:currentColor;stroke-linecap:round;stroke-linejoin:round;-inkscape-stroke:none"
     d="m 17.511719,20.441406 a 0.75,0.75 0 0 0 -1.058594,0.05469 l -0.0098,0.01172 a 0.75,0.75 0 0 0 0.05469,1.058594 0.75,0.75 0 0 0 1.058594,-0.05469 L 17.566406,21.5 a 0.75,0.75 0 0 0 -0.05469,-1.058594 z"
     id="path20" />
  <path
     style="color:#000000;fill:currentColor;stroke-linecap:round;stroke-linejoin:round;-inkscape-stroke:none"
     d="m 21.511719,20.441406 a 0.75,0.75 0 0 0 -1.058594,0.05469 l -0.0098,0.01172 a 0.75,0.75 0 0 0 0.05469,1.058594 0.75,0.75 0 0 0 1.058594,-0.05469 L 21.566406,21.5 a 0.75,0.75 0 0 0 -0.05469,-1.058594 z"
     id="path22" />
  <path
     style="color:#000000;fill:currentColor;stroke-linecap:round;stroke-linejoin:round;-inkscape-stroke:none"
     d="m 21.511719,16.441406 a 0.75,0.75 0 0 0 -1.058594,0.05469 l -0.0098,0.01172 a 0.75,0.75 0 0 0 0.05469,1.058594 0.75,0.75 0 0 0 1.058594,-0.05469 L 21.566406,17.5 a 0.75,0.75 0 0 0 -0.05469,-1.058594 z"
     id="path24" />
  <path
     style="color:#000000;fill:currentColor;stroke-linecap:round;stroke-linejoin:round;-inkscape-stroke:none"
     d="m 20.970703,12.25 a 0.75,0.75 0 0 0 -0.517578,0.246094 l -0.0098,0.01172 a 0.75,0.75 0 0 0 0.05469,1.058593 0.75,0.75 0 0 0 1.058594,-0.05469 L 21.566406,13.5 A 0.75,0.75 0 0 0 21.511719,12.441406 0.75,0.75 0 0 0 20.970703,12.25 Z"
     id="path26" />
  <path
     style="color:#000000;fill:currentColor;stroke-linecap:round;stroke-linejoin:round;-inkscape-stroke:none"
     d="m 20.970703,8.25 a 0.75,0.75 0 0 0 -0.517578,0.2480469 l -0.0098,0.00977 a 0.75,0.75 0 0 0 0.05469,1.0605469 0.75,0.75 0 0 0 1.058594,-0.056641 L 21.568359,9.5 A 0.75,0.75 0 0 0 21.511719,8.4414063 0.75,0.75 0 0 0 20.970703,8.25 Z"
     id="path28" />
  <path
     style="color:#000000;fill:currentColor;stroke-linecap:round;stroke-linejoin:round;-inkscape-stroke:none"
     d="M 10,8.25 C 9.0423831,8.25 8.25,9.0423831 8.25,10 v 7 A 0.75,0.75 0 0 0 9,17.75 0.75,0.75 0 0 0 9.75,17 V 10 C 9.75,9.853058 9.853058,9.75 10,9.75 h 7 A 0.75,0.75 0 0 0 17.75,9 0.75,0.75 0 0 0 17,8.25 Z"
     id="path30" />
  <path
     style="color:#000000;fill:currentColor;stroke-linecap:round;stroke-linejoin:round;-inkscape-stroke:none"
     d="M 15,6.25 A 0.75,0.75 0 0 0 14.25,7 v 7 c 0,0.146995 -0.103005,0.25 -0.25,0.25 H 7 A 0.75,0.75 0 0 0 6.25,15 0.75,0.75 0 0 0 7,15.75 h 7 c 0.957604,0 1.75,-0.792396 1.75,-1.75 V 7 A 0.75,0.75 0 0 0 15,6.25 Z"
     id="path32" />
</svg>
