<?xml version="1.0" encoding="UTF-8" standalone="no"?>
<svg
   width="24"
   height="24"
   stroke-width="1.5"
   viewBox="0 0 24 24"
   fill="none"
   version="1.1"
   id="svg12"
   sodipodi:docname="ios-settings.svg"
   inkscape:version="1.2.1 (9c6d41e410, 2022-07-14)"
   xmlns:inkscape="http://www.inkscape.org/namespaces/inkscape"
   xmlns:sodipodi="http://sodipodi.sourceforge.net/DTD/sodipodi-0.dtd"
   xmlns="http://www.w3.org/2000/svg"
   xmlns:svg="http://www.w3.org/2000/svg">
  <defs
     id="defs16" />
  <sodipodi:namedview
     id="namedview14"
     pagecolor="#ffffff"
     bordercolor="#666666"
     borderopacity="1.0"
     inkscape:showpageshadow="2"
     inkscape:pageopacity="0.0"
     inkscape:pagecheckerboard="0"
     inkscape:deskcolor="#d1d1d1"
     showgrid="false"
     inkscape:zoom="34.541667"
     inkscape:cx="10.364294"
     inkscape:cy="12.014475"
     inkscape:window-width="1920"
     inkscape:window-height="1009"
     inkscape:window-x="1912"
     inkscape:window-y="-8"
     inkscape:window-maximized="1"
     inkscape:current-layer="svg12" />
  <path
     style="color:#000000;fill:currentColor;stroke-linecap:round;stroke-linejoin:round;-inkscape-stroke:none"
     d="m 12,5.25 c -3.719036,0 -6.75,3.030964 -6.75,6.75 0,3.719027 3.0309625,6.75 6.75,6.75 3.719029,0 6.75,-3.030971 6.75,-6.75 0,-3.7190375 -3.030973,-6.75 -6.75,-6.75 z m 0,1.5 c 2.908366,0 5.25,2.3416241 5.25,5.25 0,2.908365 -2.341635,5.25 -5.25,5.25 C 9.0916241,17.25 6.75,14.908366 6.75,12 6.75,9.0916226 9.0916226,6.75 12,6.75 Z"
     id="path2" />
  <path
     style="color:#000000;fill:currentColor;stroke-linecap:round;stroke-linejoin:round;-inkscape-stroke:none"
     d="M 8.625,6.1523437 A 0.75,0.75 0 0 0 8.3496094,7.1777344 L 11.132813,12 8.3496094,16.822266 A 0.75,0.75 0 0 0 8.625,17.847656 0.75,0.75 0 0 0 9.6503906,17.572266 L 12.433594,12.75 H 18 A 0.75,0.75 0 0 0 18.75,12 0.75,0.75 0 0 0 18,11.25 H 12.433594 L 9.6503906,6.4277344 A 0.75,0.75 0 0 0 8.625,6.1523437 Z"
     id="path4" />
  <path
     style="color:#000000;fill:currentColor;stroke-linecap:round;stroke-linejoin:round;stroke-dasharray:1, 3;-inkscape-stroke:none"
     d="M 13.09375,4.328125 A 0.75,0.75 0 0 0 12.248047,4.9667969 0.75,0.75 0 0 0 12.886719,5.8125 l 0.06641,0.00977 0.154297,0.025391 0.152344,0.029297 0.152343,0.033203 0.150391,0.037109 0.148438,0.039063 L 13.753906,6 A 0.75,0.75 0 0 0 14.685547,5.4941406 0.75,0.75 0 0 0 14.181641,4.5625 l -0.05078,-0.015625 a 0.750075,0.750075 0 0 0 -0.01953,-0.00586 l -0.166015,-0.044922 a 0.750075,0.750075 0 0 0 -0.01758,-0.00391 l -0.169921,-0.041016 a 0.750075,0.750075 0 0 0 -0.01758,-0.00391 l -0.169921,-0.037109 a 0.750075,0.750075 0 0 0 -0.01758,-0.00391 l -0.171875,-0.033203 a 0.750075,0.750075 0 0 0 -0.01953,-0.00391 l -0.171875,-0.029297 a 0.750075,0.750075 0 0 0 -0.01953,-0.00195 z M 9.8066406,4.5644531 9.7050781,4.5957031 A 0.750075,0.750075 0 0 0 9.6875,4.6015625 l -0.1640625,0.052734 a 0.750075,0.750075 0 0 0 -0.017578,0.00586 L 9.34375,4.7167969 a 0.750075,0.750075 0 0 0 -0.017578,0.00781 l -0.1601563,0.060547 a 0.750075,0.750075 0 0 0 -0.015625,0.00586 l -0.1582031,0.064453 a 0.750075,0.750075 0 0 0 -0.017578,0.00781 l -0.15625,0.068359 a 0.750075,0.750075 0 0 0 -0.015625,0.00781 l -0.035156,0.015625 A 0.75,0.75 0 0 0 8.40625,5.9511719 0.75,0.75 0 0 0 9.4023438,6.3144531 l 0.025391,-0.011719 0.140625,-0.0625 0.140625,-0.056641 0.1425781,-0.054687 0.1445313,-0.050781 0.1445312,-0.046875 0.09375,-0.027344 A 0.75,0.75 0 0 0 10.740234,5.0703125 0.75,0.75 0 0 0 9.8066406,4.5644531 Z m 6.7109374,1.3945313 a 0.75,0.75 0 0 0 -0.509766,0.2636718 0.75,0.75 0 0 0 0.08789,1.0546875 v 0.00195 l 0.107422,0.09375 0.109375,0.1035156 0.107422,0.1035156 0.103515,0.1074219 0.103516,0.109375 0.09961,0.1132812 a 0.75,0.75 0 0 0 1.058594,0.0625 0.75,0.75 0 0 0 0.0625,-1.0585937 L 17.742187,6.7949219 a 0.750075,0.750075 0 0 0 -0.01172,-0.011719 L 17.615234,6.6601562 a 0.750075,0.750075 0 0 0 -0.01172,-0.013672 L 17.486328,6.5253906 a 0.750075,0.750075 0 0 0 -0.01172,-0.011719 L 17.353516,6.3964844 a 0.750075,0.750075 0 0 0 -0.01367,-0.011719 L 17.216797,6.2695312 a 0.750075,0.750075 0 0 0 -0.01172,-0.011719 L 17.078125,6.1464844 a 0.750075,0.750075 0 0 0 -0.01367,-0.011719 v -0.00195 A 0.75,0.75 0 0 0 16.517578,5.9589844 Z M 6.6425781,6.6738281 A 0.75,0.75 0 0 0 6.1308594,6.9375 l -0.1054688,0.125 a 0.750075,0.750075 0 0 0 -0.011719,0.013672 L 5.9082031,7.2070312 a 0.750075,0.750075 0 0 0 -0.00977,0.015625 L 5.7949219,7.3554687 a 0.750075,0.750075 0 0 0 -0.00977,0.013672 l -0.099609,0.1367188 a 0.750075,0.750075 0 0 0 -0.00977,0.013672 l -0.095703,0.1386719 a 0.750075,0.750075 0 0 0 -0.011719,0.015625 L 5.4804687,7.8105469 A 0.75,0.75 0 0 0 5.6933594,8.8496094 0.75,0.75 0 0 0 6.7324219,8.6347656 L 6.8164062,8.5058594 6.9023437,8.3828125 6.9921875,8.2617188 7.0820312,8.1425781 7.1777344,8.0253906 7.2773437,7.90625 A 0.75,0.75 0 0 0 7.1894531,6.8496094 0.75,0.75 0 0 0 6.6425781,6.6738281 Z M 18.501953,9.3046875 a 0.75,0.75 0 0 0 -0.503906,0.9335935 l 0.01563,0.05078 0.03906,0.148437 0.03711,0.150391 0.0332,0.152343 0.0293,0.152344 0.02539,0.154297 0.0078,0.05664 a 0.75,0.75 0 0 0 0.847656,0.638672 0.75,0.75 0 0 0 0.638672,-0.845704 l -0.0098,-0.06641 a 0.750075,0.750075 0 0 0 -0.002,-0.01953 l -0.0293,-0.171875 a 0.750075,0.750075 0 0 0 -0.0039,-0.01953 l -0.0332,-0.171875 a 0.750075,0.750075 0 0 0 -0.0039,-0.01758 l -0.03711,-0.169922 a 0.750075,0.750075 0 0 0 -0.0039,-0.01758 l -0.04102,-0.169922 a 0.750075,0.750075 0 0 0 -0.0039,-0.01758 l -0.04492,-0.1660161 a 0.750075,0.750075 0 0 0 -0.0059,-0.019531 l -0.01758,-0.058594 A 0.75,0.75 0 0 0 18.501953,9.3046875 Z M 5.1738281,10.269531 a 0.75,0.75 0 0 0 -0.8476562,0.638672 l -0.013672,0.0957 a 0.750075,0.750075 0 0 0 -0.00195,0.01953 l -0.019531,0.175781 a 0.750075,0.750075 0 0 0 -0.00195,0.01953 l -0.015625,0.175781 a 0.750075,0.750075 0 0 0 -0.00195,0.01953 l -0.011719,0.177734 a 0.750075,0.750075 0 0 0 0,0.01953 l -0.00781,0.179688 a 0.750075,0.750075 0 0 0 0,0.01953 L 4.25,11.990234 a 0.750075,0.750075 0 0 0 0,0.01953 v 0.0098 A 0.75,0.75 0 0 0 5.0097656,12.759766 0.75,0.75 0 0 0 5.75,12 l 0.00195,-0.162109 0.00586,-0.160157 0.00977,-0.160156 0.015625,-0.158203 0.017578,-0.15625 0.011719,-0.08594 A 0.75,0.75 0 0 0 5.1738281,10.269531 Z M 18.931641,13.251953 A 0.75,0.75 0 0 0 18,13.755859 l -0.03125,0.103516 -0.04687,0.144531 -0.05078,0.144532 -0.05469,0.142578 -0.05664,0.140625 -0.0625,0.140625 -0.0078,0.01758 a 0.75,0.75 0 0 0 0.363281,0.996094 0.75,0.75 0 0 0 0.996094,-0.363282 l 0.01172,-0.02539 a 0.750075,0.750075 0 0 0 0.0078,-0.01563 l 0.06836,-0.15625 a 0.750075,0.750075 0 0 0 0.0078,-0.01758 l 0.06445,-0.158204 a 0.750075,0.750075 0 0 0 0.0059,-0.01563 l 0.06055,-0.160156 a 0.750075,0.750075 0 0 0 0.0078,-0.01758 l 0.05664,-0.162109 a 0.750075,0.750075 0 0 0 0.0059,-0.01758 l 0.05273,-0.164063 a 0.750075,0.750075 0 0 0 0.0059,-0.01758 l 0.0332,-0.111328 A 0.75,0.75 0 0 0 18.931641,13.251953 Z M 5.8925781,14.212891 a 0.75,0.75 0 0 0 -0.5742187,0.02539 0.75,0.75 0 0 0 -0.3613282,0.996094 l 0.052734,0.117188 a 0.750075,0.750075 0 0 0 0.00977,0.01758 l 0.074219,0.152343 a 0.750075,0.750075 0 0 0 0.00781,0.01563 l 0.080078,0.150391 a 0.750075,0.750075 0 0 0 0.00781,0.01563 l 0.083984,0.146484 a 0.750075,0.750075 0 0 0 0.00781,0.01563 l 0.085937,0.146485 a 0.750075,0.750075 0 0 0 0.00977,0.01563 l 0.089844,0.142578 a 0.750075,0.750075 0 0 0 0.00977,0.01563 l 0.013672,0.01953 a 0.75,0.75 0 0 0 1.0390625,0.214844 0.75,0.75 0 0 0 0.2128906,-1.039063 l -0.00781,-0.01367 -0.080078,-0.126954 -0.076172,-0.128906 -0.074219,-0.132812 -0.070312,-0.132813 -0.068359,-0.136719 -0.050781,-0.109375 a 0.75,0.75 0 0 0 -0.421875,-0.386718 z m 10.1953129,2.515625 -0.113282,0.09375 -0.117187,0.0957 -0.119141,0.08984 -0.121093,0.08984 -0.123047,0.08594 -0.121094,0.07813 a 0.75,0.75 0 0 0 -0.212891,1.039062 0.75,0.75 0 0 0 1.03711,0.214844 l 0.128906,-0.08398 a 0.750075,0.750075 0 0 0 0.01563,-0.01172 l 0.138672,-0.0957 a 0.750075,0.750075 0 0 0 0.01367,-0.0098 l 0.136718,-0.09961 a 0.750075,0.750075 0 0 0 0.01367,-0.0098 l 0.132813,-0.103516 a 0.750075,0.750075 0 0 0 0.01563,-0.0098 l 0.130859,-0.105469 a 0.750075,0.750075 0 0 0 0.01367,-0.01172 l 0.126953,-0.109375 a 0.750075,0.750075 0 0 0 0.01367,-0.01172 l 0.0039,-0.0039 a 0.75,0.75 0 0 0 0.06445,-1.058593 0.75,0.75 0 0 0 -1.058593,-0.0625 z M 8.0742188,17.162109 A 0.75,0.75 0 0 0 7.5976562,17.484375 0.75,0.75 0 0 0 7.8125,18.521484 l 0.00195,0.002 a 0.750075,0.750075 0 0 0 0.015625,0.0098 l 0.1425781,0.08984 a 0.750075,0.750075 0 0 0 0.015625,0.0098 l 0.1464844,0.08594 a 0.750075,0.750075 0 0 0 0.015625,0.0078 l 0.1464844,0.08398 a 0.750075,0.750075 0 0 0 0.015625,0.0078 l 0.1503906,0.08008 a 0.750075,0.750075 0 0 0 0.015625,0.0078 l 0.1523438,0.07422 a 0.750075,0.750075 0 0 0 0.017578,0.0098 l 0.1367188,0.0625 A 0.75,0.75 0 0 0 9.78125,18.691406 0.75,0.75 0 0 0 9.4199219,17.693359 l -0.1289063,-0.05859 -0.1367187,-0.06836 -0.1328125,-0.07031 -0.1328125,-0.07422 -0.1289063,-0.07617 -0.1230468,-0.07617 a 0.75,0.75 0 0 0 -0.5625,-0.107422 z m 4.8183592,1.023438 -0.0957,0.01367 -0.15625,0.01758 -0.158203,0.01563 -0.160156,0.0098 -0.160157,0.0059 -0.171875,0.002 A 0.75,0.75 0 0 0 11.25,19.009766 0.75,0.75 0 0 0 12.009766,19.75 l 0.179687,-0.002 a 0.750075,0.750075 0 0 0 0.01953,0 l 0.179688,-0.0078 a 0.750075,0.750075 0 0 0 0.01953,0 l 0.177735,-0.01172 a 0.750075,0.750075 0 0 0 0.01953,-0.002 l 0.175781,-0.01563 a 0.750075,0.750075 0 0 0 0.01953,-0.002 l 0.175782,-0.01953 a 0.750075,0.750075 0 0 0 0.01953,-0.002 l 0.103515,-0.01563 a 0.75,0.75 0 0 0 0.640625,-0.847656 0.75,0.75 0 0 0 -0.847656,-0.638672 z"
     id="path6" />
  <path
     style="color:#000000;fill:currentColor;stroke-linecap:round;stroke-linejoin:round;-inkscape-stroke:none"
     d="M 12,1.25 C 6.0718263,1.25 1.25,6.0718263 1.25,12 1.25,17.928127 6.0718217,22.75 12,22.75 17.928132,22.75 22.75,17.928132 22.75,12 22.75,6.0718217 17.928127,1.25 12,1.25 Z m 0,1.5 c 5.117462,0 9.25,4.1324893 9.25,9.25 0,5.117457 -4.132543,9.25 -9.25,9.25 C 6.8824893,21.25 2.75,17.117462 2.75,12 2.75,6.8824848 6.8824848,2.75 12,2.75 Z"
     id="path8" />
  <path
     style="color:#000000;fill:currentColor;stroke-linecap:round;stroke-linejoin:round;-inkscape-stroke:none"
     d="m 12,8.25 c -2.062203,0 -3.75,1.687797 -3.75,3.75 0,2.062203 1.687797,3.75 3.75,3.75 2.062203,0 3.75,-1.687797 3.75,-3.75 0,-2.062203 -1.687797,-3.75 -3.75,-3.75 z m 0,1.5 c 1.251594,0 2.25,0.998406 2.25,2.25 0,1.251594 -0.998406,2.25 -2.25,2.25 -1.251594,0 -2.25,-0.998406 -2.25,-2.25 0,-1.251594 0.998406,-2.25 2.25,-2.25 z"
     id="path10" />
</svg>
