<?xml version="1.0" encoding="UTF-8" standalone="no"?>
<svg
   width="24"
   height="24"
   stroke-width="1.5"
   viewBox="0 0 24 24"
   fill="none"
   version="1.1"
   id="svg14"
   sodipodi:docname="iris-scan.svg"
   inkscape:version="1.2.1 (9c6d41e410, 2022-07-14)"
   xmlns:inkscape="http://www.inkscape.org/namespaces/inkscape"
   xmlns:sodipodi="http://sodipodi.sourceforge.net/DTD/sodipodi-0.dtd"
   xmlns="http://www.w3.org/2000/svg"
   xmlns:svg="http://www.w3.org/2000/svg">
  <defs
     id="defs18" />
  <sodipodi:namedview
     id="namedview16"
     pagecolor="#ffffff"
     bordercolor="#666666"
     borderopacity="1.0"
     inkscape:showpageshadow="2"
     inkscape:pageopacity="0.0"
     inkscape:pagecheckerboard="0"
     inkscape:deskcolor="#d1d1d1"
     showgrid="false"
     inkscape:zoom="34.541667"
     inkscape:cx="10.364294"
     inkscape:cy="12.014475"
     inkscape:window-width="1920"
     inkscape:window-height="1009"
     inkscape:window-x="1912"
     inkscape:window-y="-8"
     inkscape:window-maximized="1"
     inkscape:current-layer="svg14" />
  <path
     style="color:#000000;fill:currentColor;stroke-linecap:round;stroke-linejoin:round;-inkscape-stroke:none"
     d="M 3,2.25 A 0.750075,0.750075 0 0 0 2.25,3 V 6 A 0.75,0.75 0 0 0 3,6.75 0.75,0.75 0 0 0 3.75,6 V 3.75 H 6 A 0.75,0.75 0 0 0 6.75,3 0.75,0.75 0 0 0 6,2.25 Z"
     id="path2" />
  <path
     style="color:#000000;fill:currentColor;stroke-linecap:round;stroke-linejoin:round;-inkscape-stroke:none"
     d="m 12,9.25 c -1.509904,0 -2.75,1.240096 -2.75,2.75 0,1.509904 1.240096,2.75 2.75,2.75 1.509904,0 2.75,-1.240096 2.75,-2.75 0,-1.509904 -1.240096,-2.75 -2.75,-2.75 z m 0,1.5 c 0.699294,0 1.25,0.550706 1.25,1.25 0,0.699294 -0.550706,1.25 -1.25,1.25 -0.699294,0 -1.25,-0.550706 -1.25,-1.25 0,-0.699294 0.550706,-1.25 1.25,-1.25 z"
     id="path4" />
  <path
     style="color:#000000;fill:currentColor;stroke-linecap:round;stroke-linejoin:round;-inkscape-stroke:none"
     d="m 12,5.25 c -4.4023225,0 -7.2761706,3.4260939 -9.5839844,6.279297 a 0.750075,0.750075 0 0 0 -0.050781,0.871094 C 4.3490744,15.54229 7.8770837,18.75 12,18.75 c 4.122916,0 7.65089,-3.207721 9.634766,-6.349609 a 0.750075,0.750075 0 0 0 -0.05078,-0.871094 C 19.27621,8.6760302 16.402343,5.25 12,5.25 Z m 0,1.5 c 3.421142,0 5.827691,2.6236422 8.019531,5.300781 C 18.177092,14.726246 15.134151,17.25 12,17.25 8.8658491,17.25 5.8228742,14.726237 3.9804688,12.050781 6.1723587,9.3736685 8.578895,6.75 12,6.75 Z"
     id="path6" />
  <path
     style="color:#000000;fill:currentColor;stroke-linecap:round;stroke-linejoin:round;-inkscape-stroke:none"
     d="M 18,2.25 A 0.75,0.75 0 0 0 17.25,3 0.75,0.75 0 0 0 18,3.75 h 2.25 V 6 A 0.75,0.75 0 0 0 21,6.75 0.75,0.75 0 0 0 21.75,6 V 3 A 0.750075,0.750075 0 0 0 21,2.25 Z"
     id="path8" />
  <path
     style="color:#000000;fill:currentColor;stroke-linecap:round;stroke-linejoin:round;-inkscape-stroke:none"
     d="M 3,17.25 A 0.75,0.75 0 0 0 2.25,18 v 3 A 0.750075,0.750075 0 0 0 3,21.75 H 6 A 0.75,0.75 0 0 0 6.75,21 0.75,0.75 0 0 0 6,20.25 H 3.75 V 18 A 0.75,0.75 0 0 0 3,17.25 Z"
     id="path10" />
  <path
     style="color:#000000;fill:currentColor;stroke-linecap:round;stroke-linejoin:round;-inkscape-stroke:none"
     d="M 21,17.25 A 0.75,0.75 0 0 0 20.25,18 v 2.25 H 18 A 0.75,0.75 0 0 0 17.25,21 0.75,0.75 0 0 0 18,21.75 h 3 A 0.750075,0.750075 0 0 0 21.75,21 V 18 A 0.75,0.75 0 0 0 21,17.25 Z"
     id="path12" />
</svg>
