<?xml version="1.0" encoding="UTF-8" standalone="no"?>
<svg
   width="24"
   height="24"
   viewBox="0 0 24 24"
   stroke-width="1.5"
   fill="none"
   version="1.1"
   id="svg10"
   sodipodi:docname="jellyfish.svg"
   inkscape:version="1.2.1 (9c6d41e410, 2022-07-14)"
   xmlns:inkscape="http://www.inkscape.org/namespaces/inkscape"
   xmlns:sodipodi="http://sodipodi.sourceforge.net/DTD/sodipodi-0.dtd"
   xmlns="http://www.w3.org/2000/svg"
   xmlns:svg="http://www.w3.org/2000/svg">
  <defs
     id="defs14" />
  <sodipodi:namedview
     id="namedview12"
     pagecolor="#ffffff"
     bordercolor="#666666"
     borderopacity="1.0"
     inkscape:showpageshadow="2"
     inkscape:pageopacity="0.0"
     inkscape:pagecheckerboard="0"
     inkscape:deskcolor="#d1d1d1"
     showgrid="false"
     inkscape:zoom="34.541667"
     inkscape:cx="10.364294"
     inkscape:cy="12.014475"
     inkscape:window-width="1920"
     inkscape:window-height="1009"
     inkscape:window-x="1912"
     inkscape:window-y="-8"
     inkscape:window-maximized="1"
     inkscape:current-layer="svg10" />
  <path
     style="color:#000000;fill:currentColor;stroke-linecap:round;stroke-linejoin:round;-inkscape-stroke:none"
     d="m 12,1.25 c -5.3833914,0 -9.75,4.4554227 -9.75,9.916016 0,0.07364 3.776e-4,0.147323 0.00195,0.220703 C 2.2817843,12.775057 3.5124648,13.75 4.8203125,13.75 H 19.179687 c 1.307867,0 2.538514,-0.974957 2.56836,-2.363281 0.0016,-0.07389 0.002,-0.147279 0.002,-0.220703 C 21.75,5.7054267 17.383428,1.25 12,1.25 Z m 0,1.5 c 4.557762,0 8.25,3.7513347 8.25,8.416016 0,0.06317 -5.83e-4,0.127347 -0.002,0.189453 C 20.236892,11.874343 19.779619,12.25 19.179687,12.25 H 4.8203125 C 4.2204222,12.25 3.7631019,11.874329 3.7519531,11.355469 3.7506086,11.292849 3.75,11.228971 3.75,11.166016 3.75,6.5013387 7.4422813,2.75 12,2.75 Z"
     id="path2" />
  <path
     style="color:#000000;fill:currentColor;stroke-linecap:round;stroke-linejoin:round;-inkscape-stroke:none"
     d="m 6.0449219,12.251953 a 0.75,0.75 0 0 0 -0.5429688,0.1875 0.75,0.75 0 0 0 -0.0625,1.058594 l 1,1.125 c 0.3217535,0.36198 0.3217535,0.891926 0,1.253906 -0.8188453,0.921219 -0.8188453,2.324875 0,3.246094 0.3217535,0.36198 0.3217535,0.891926 0,1.253906 l -1,1.125 a 0.75,0.75 0 0 0 0.0625,1.058594 0.75,0.75 0 0 0 1.0585938,-0.0625 l 1,-1.125 c 0.8188453,-0.921219 0.8188453,-2.324875 0,-3.246094 -0.3217535,-0.36198 -0.3217535,-0.891926 0,-1.253906 0.8188453,-0.921219 0.8188453,-2.324875 0,-3.246094 l -1,-1.125 a 0.75,0.75 0 0 0 -0.515625,-0.25 z"
     id="path4" />
  <path
     style="color:#000000;fill:currentColor;stroke-linecap:round;stroke-linejoin:round;-inkscape-stroke:none"
     d="m 11.044922,12.251953 a 0.75,0.75 0 0 0 -0.542969,0.1875 0.75,0.75 0 0 0 -0.0625,1.058594 l 1,1.125 c 0.321754,0.36198 0.321754,0.891926 0,1.253906 -0.818845,0.921219 -0.818845,2.324875 0,3.246094 0.321754,0.36198 0.321754,0.891926 0,1.253906 l -1,1.125 a 0.75,0.75 0 0 0 0.0625,1.058594 0.75,0.75 0 0 0 1.058594,-0.0625 l 1,-1.125 c 0.818845,-0.921219 0.818845,-2.324875 0,-3.246094 -0.321754,-0.36198 -0.321754,-0.891926 0,-1.253906 0.818845,-0.921219 0.818845,-2.324875 0,-3.246094 l -1,-1.125 a 0.75,0.75 0 0 0 -0.515625,-0.25 z"
     id="path6" />
  <path
     style="color:#000000;fill:currentColor;stroke-linecap:round;stroke-linejoin:round;-inkscape-stroke:none"
     d="m 16.044922,12.251953 a 0.75,0.75 0 0 0 -0.542969,0.1875 0.75,0.75 0 0 0 -0.0625,1.058594 l 1,1.125 c 0.321754,0.36198 0.321754,0.891926 0,1.253906 -0.818845,0.921219 -0.818845,2.324875 0,3.246094 0.321754,0.36198 0.321754,0.891926 0,1.253906 l -1,1.125 a 0.75,0.75 0 0 0 0.0625,1.058594 0.75,0.75 0 0 0 1.058594,-0.0625 l 1,-1.125 c 0.818845,-0.921219 0.818845,-2.324875 0,-3.246094 -0.321754,-0.36198 -0.321754,-0.891926 0,-1.253906 0.818845,-0.921219 0.818845,-2.324875 0,-3.246094 l -1,-1.125 a 0.75,0.75 0 0 0 -0.515625,-0.25 z"
     id="path8" />
</svg>
