<?xml version="1.0" encoding="UTF-8" standalone="no"?>
<svg
   width="24"
   height="24"
   viewBox="0 0 24 24"
   stroke-width="1.5"
   fill="none"
   version="1.1"
   id="svg14"
   sodipodi:docname="journal.svg"
   inkscape:version="1.2.1 (9c6d41e410, 2022-07-14)"
   xmlns:inkscape="http://www.inkscape.org/namespaces/inkscape"
   xmlns:sodipodi="http://sodipodi.sourceforge.net/DTD/sodipodi-0.dtd"
   xmlns="http://www.w3.org/2000/svg"
   xmlns:svg="http://www.w3.org/2000/svg">
  <defs
     id="defs18" />
  <sodipodi:namedview
     id="namedview16"
     pagecolor="#ffffff"
     bordercolor="#666666"
     borderopacity="1.0"
     inkscape:showpageshadow="2"
     inkscape:pageopacity="0.0"
     inkscape:pagecheckerboard="0"
     inkscape:deskcolor="#d1d1d1"
     showgrid="false"
     inkscape:zoom="34.541667"
     inkscape:cx="10.364294"
     inkscape:cy="12.014475"
     inkscape:window-width="1920"
     inkscape:window-height="1009"
     inkscape:window-x="1912"
     inkscape:window-y="-8"
     inkscape:window-maximized="1"
     inkscape:current-layer="svg14" />
  <path
     style="color:#000000;fill:currentColor;stroke-linecap:round;stroke-linejoin:round;-inkscape-stroke:none"
     d="M 6,5.25 A 0.75,0.75 0 0 0 5.25,6 0.75,0.75 0 0 0 6,6.75 H 18 A 0.75,0.75 0 0 0 18.75,6 0.75,0.75 0 0 0 18,5.25 Z"
     id="path2" />
  <path
     style="color:#000000;fill:currentColor;stroke-linecap:round;stroke-linejoin:round;-inkscape-stroke:none"
     d="M 6,9.25 A 0.75,0.75 0 0 0 5.25,10 0.75,0.75 0 0 0 6,10.75 H 18 A 0.75,0.75 0 0 0 18.75,10 0.75,0.75 0 0 0 18,9.25 Z"
     id="path4" />
  <path
     style="color:#000000;fill:currentColor;stroke-linecap:round;stroke-linejoin:round;-inkscape-stroke:none"
     d="M 13,13.25 A 0.75,0.75 0 0 0 12.25,14 0.75,0.75 0 0 0 13,14.75 h 5 A 0.75,0.75 0 0 0 18.75,14 0.75,0.75 0 0 0 18,13.25 Z"
     id="path6" />
  <path
     style="color:#000000;fill:currentColor;stroke-linecap:round;stroke-linejoin:round;-inkscape-stroke:none"
     d="M 13,17.25 A 0.75,0.75 0 0 0 12.25,18 0.75,0.75 0 0 0 13,18.75 h 5 A 0.75,0.75 0 0 0 18.75,18 0.75,0.75 0 0 0 18,17.25 Z"
     id="path8" />
  <path
     style="color:#000000;fill:currentColor;stroke-linecap:round;stroke-linejoin:round;-inkscape-stroke:none"
     d="M 2.5996094,1.25 C 1.8629077,1.25 1.25,1.8629077 1.25,2.5996094 V 21.400391 C 1.25,22.137086 1.862953,22.75 2.5996094,22.75 H 21.400391 C 22.13704,22.75 22.75,22.13704 22.75,21.400391 V 2.5996094 C 22.75,1.862953 22.137086,1.25 21.400391,1.25 Z M 2.75,2.75 h 18.5 v 18.5 H 2.75 Z"
     id="path10" />
  <path
     style="color:#000000;fill:currentColor;stroke-linecap:round;stroke-linejoin:round;-inkscape-stroke:none"
     d="M 6,13.25 A 0.750075,0.750075 0 0 0 5.25,14 v 4 A 0.750075,0.750075 0 0 0 6,18.75 H 9 A 0.750075,0.750075 0 0 0 9.75,18 V 14 A 0.750075,0.750075 0 0 0 9,13.25 Z m 0.75,1.5 h 1.5 v 2.5 h -1.5 z"
     id="path12" />
</svg>
