<?xml version="1.0" encoding="UTF-8" standalone="no"?>
<svg
   width="24"
   height="24"
   viewBox="0 0 24 24"
   stroke-width="1.5"
   fill="none"
   version="1.1"
   id="svg16"
   sodipodi:docname="jpeg-format.svg"
   inkscape:version="1.2.1 (9c6d41e410, 2022-07-14)"
   xmlns:inkscape="http://www.inkscape.org/namespaces/inkscape"
   xmlns:sodipodi="http://sodipodi.sourceforge.net/DTD/sodipodi-0.dtd"
   xmlns="http://www.w3.org/2000/svg"
   xmlns:svg="http://www.w3.org/2000/svg">
  <defs
     id="defs20" />
  <sodipodi:namedview
     id="namedview18"
     pagecolor="#ffffff"
     bordercolor="#666666"
     borderopacity="1.0"
     inkscape:showpageshadow="2"
     inkscape:pageopacity="0.0"
     inkscape:pagecheckerboard="0"
     inkscape:deskcolor="#d1d1d1"
     showgrid="false"
     inkscape:zoom="34.541667"
     inkscape:cx="10.364294"
     inkscape:cy="12.014475"
     inkscape:window-width="1920"
     inkscape:window-height="1009"
     inkscape:window-x="1912"
     inkscape:window-y="-8"
     inkscape:window-maximized="1"
     inkscape:current-layer="svg16" />
  <path
     style="color:#000000;fill:currentColor;stroke-linecap:round;stroke-linejoin:round;-inkscape-stroke:none"
     d="M 7,8.25 A 0.750075,0.750075 0 0 0 6.25,9 v 3 3 A 0.75,0.75 0 0 0 7,15.75 0.75,0.75 0 0 0 7.75,15 V 12.75 H 10 A 0.750075,0.750075 0 0 0 10.75,12 V 9 A 0.750075,0.750075 0 0 0 10,8.25 Z m 0.75,1.5 h 1.5 v 1.5 h -1.5 z"
     id="path2" />
  <path
     style="color:#000000;fill:currentColor;stroke-linecap:round;stroke-linejoin:round;-inkscape-stroke:none"
     d="M 13,8.25 A 0.750075,0.750075 0 0 0 12.25,9 v 6 A 0.750075,0.750075 0 0 0 13,15.75 h 3 A 0.75,0.75 0 0 0 16.75,15 0.75,0.75 0 0 0 16,14.25 H 13.75 V 9.75 H 16 A 0.75,0.75 0 0 0 16.75,9 0.75,0.75 0 0 0 16,8.25 Z"
     id="path4" />
  <path
     style="color:#000000;fill:currentColor;stroke-linecap:round;stroke-linejoin:round;-inkscape-stroke:none"
     d="M 19,8.25 A 0.750075,0.750075 0 0 0 18.25,9 v 6 A 0.750075,0.750075 0 0 0 19,15.75 h 3 A 0.750075,0.750075 0 0 0 22.75,15 v -2.400391 a 0.75,0.75 0 0 0 -0.75,-0.75 0.75,0.75 0 0 0 -0.75,0.75 V 14.25 h -1.5 V 9.75 H 22 A 0.75,0.75 0 0 0 22.75,9 0.75,0.75 0 0 0 22,8.25 Z"
     id="path6" />
  <path
     style="color:#000000;fill:currentColor;stroke-linecap:round;stroke-linejoin:round;-inkscape-stroke:none"
     d="M 4,8.25 A 0.75,0.75 0 0 0 3.25,9 v 4.199219 C 3.25,13.82144 3.0207761,13.94358 2.6914063,14.091797 2.3620364,14.240013 2,14.25 2,14.25 A 0.75,0.75 0 0 0 1.25,15 0.75,0.75 0 0 0 2,15.75 c 0,0 0.6379646,0.01077 1.3085938,-0.291016 C 3.9792229,15.157201 4.75,14.376995 4.75,13.199219 V 9 A 0.75,0.75 0 0 0 4,8.25 Z"
     id="path8" />
  <path
     style="color:#000000;fill:currentColor;stroke-linecap:round;stroke-linejoin:round;-inkscape-stroke:none"
     d="M 13,11.25 A 0.75,0.75 0 0 0 12.25,12 0.75,0.75 0 0 0 13,12.75 h 2 A 0.75,0.75 0 0 0 15.75,12 0.75,0.75 0 0 0 15,11.25 Z"
     id="path10" />
  <path
     style="color:#000000;fill:currentColor;stroke-linecap:round;-inkscape-stroke:none"
     d="M 4.5996094,2.25 C 3.8629077,2.25 3.25,2.8629077 3.25,3.5996094 V 6 A 0.75,0.75 0 0 0 4,6.75 0.75,0.75 0 0 0 4.75,6 V 3.75 h 14.5 V 6 A 0.75,0.75 0 0 0 20,6.75 0.75,0.75 0 0 0 20.75,6 V 3.5996094 C 20.75,2.862953 20.137086,2.25 19.400391,2.25 Z"
     id="path12" />
  <path
     style="color:#000000;fill:currentColor;stroke-linecap:round;-inkscape-stroke:none"
     d="M 4,17.25 A 0.75,0.75 0 0 0 3.25,18 v 2.400391 C 3.25,21.137086 3.862953,21.75 4.5996094,21.75 H 19.400391 C 20.13704,21.75 20.75,21.13704 20.75,20.400391 V 18 A 0.75,0.75 0 0 0 20,17.25 0.75,0.75 0 0 0 19.25,18 v 2.25 H 4.75 V 18 A 0.75,0.75 0 0 0 4,17.25 Z"
     id="path14" />
</svg>
