<?xml version="1.0" encoding="UTF-8" standalone="no"?>
<svg
   width="24"
   height="24"
   viewBox="0 0 24 24"
   stroke-width="1.5"
   fill="none"
   version="1.1"
   id="svg10"
   sodipodi:docname="key-command.svg"
   inkscape:version="1.2.1 (9c6d41e410, 2022-07-14)"
   xmlns:inkscape="http://www.inkscape.org/namespaces/inkscape"
   xmlns:sodipodi="http://sodipodi.sourceforge.net/DTD/sodipodi-0.dtd"
   xmlns="http://www.w3.org/2000/svg"
   xmlns:svg="http://www.w3.org/2000/svg">
  <defs
     id="defs14" />
  <sodipodi:namedview
     id="namedview12"
     pagecolor="#ffffff"
     bordercolor="#666666"
     borderopacity="1.0"
     inkscape:showpageshadow="2"
     inkscape:pageopacity="0.0"
     inkscape:pagecheckerboard="0"
     inkscape:deskcolor="#d1d1d1"
     showgrid="false"
     inkscape:zoom="34.541667"
     inkscape:cx="10.364294"
     inkscape:cy="12.014475"
     inkscape:window-width="1920"
     inkscape:window-height="1009"
     inkscape:window-x="1912"
     inkscape:window-y="-8"
     inkscape:window-maximized="1"
     inkscape:current-layer="svg10" />
  <path
     style="color:#000000;fill:currentColor;stroke-linecap:round;stroke-linejoin:round;-inkscape-stroke:none"
     d="M 9,5.25 A 0.75,0.75 0 0 0 8.25,6 V 18 A 0.75,0.75 0 0 0 9,18.75 0.75,0.75 0 0 0 9.75,18 V 6 A 0.75,0.75 0 0 0 9,5.25 Z"
     id="path2" />
  <path
     style="color:#000000;fill:currentColor;stroke-linecap:round;stroke-linejoin:round;-inkscape-stroke:none"
     d="M 15,5.25 A 0.75,0.75 0 0 0 14.25,6 V 18 A 0.75,0.75 0 0 0 15,18.75 0.75,0.75 0 0 0 15.75,18 V 6 A 0.75,0.75 0 0 0 15,5.25 Z"
     id="path4" />
  <path
     style="color:#000000;fill:currentColor;stroke-linecap:round;stroke-linejoin:round;-inkscape-stroke:none"
     d="M 6,2.25 C 3.9378197,2.25 2.25,3.9378197 2.25,6 2.25,8.0621803 3.9378197,9.75 6,9.75 H 18 C 20.062218,9.75 21.75,8.0621653 21.75,6 21.75,3.9378347 20.062218,2.25 18,2.25 15.937782,2.25 14.25,3.9378347 14.25,6 A 0.75,0.75 0 0 0 15,6.75 0.75,0.75 0 0 0 15.75,6 c 0,-1.2515314 0.998421,-2.25 2.25,-2.25 1.251579,0 2.25,0.9984686 2.25,2.25 0,1.2515314 -0.998421,2.25 -2.25,2.25 H 6 C 4.7484837,8.25 3.75,7.2515163 3.75,6 3.75,4.7484837 4.7484837,3.75 6,3.75 7.2515163,3.75 8.25,4.7484837 8.25,6 A 0.75,0.75 0 0 0 9,6.75 0.75,0.75 0 0 0 9.75,6 C 9.75,3.9378197 8.0621803,2.25 6,2.25 Z"
     id="path6" />
  <path
     style="color:#000000;fill:currentColor;stroke-linecap:round;stroke-linejoin:round;-inkscape-stroke:none"
     d="m 6,14.25 c -2.0621653,0 -3.75,1.687782 -3.75,3.75 0,2.062218 1.6878347,3.75 3.75,3.75 2.0621653,0 3.75,-1.687782 3.75,-3.75 A 0.75,0.75 0 0 0 9,17.25 0.75,0.75 0 0 0 8.25,18 C 8.25,19.251579 7.2515314,20.25 6,20.25 4.7484686,20.25 3.75,19.251579 3.75,18 3.75,16.748421 4.7484686,15.75 6,15.75 h 12 c 1.251594,0 2.25,0.998406 2.25,2.25 0,1.251594 -0.998406,2.25 -2.25,2.25 -1.251594,0 -2.25,-0.998406 -2.25,-2.25 A 0.75,0.75 0 0 0 15,17.25 0.75,0.75 0 0 0 14.25,18 c 0,2.062203 1.687797,3.75 3.75,3.75 2.062203,0 3.75,-1.687797 3.75,-3.75 0,-2.062203 -1.687797,-3.75 -3.75,-3.75 z"
     id="path8" />
</svg>
