<?xml version="1.0" encoding="UTF-8" standalone="no"?>
<svg
   width="24"
   height="24"
   stroke-width="1.5"
   viewBox="0 0 24 24"
   fill="none"
   version="1.1"
   id="svg6"
   sodipodi:docname="key.svg"
   inkscape:version="1.2.1 (9c6d41e410, 2022-07-14)"
   xmlns:inkscape="http://www.inkscape.org/namespaces/inkscape"
   xmlns:sodipodi="http://sodipodi.sourceforge.net/DTD/sodipodi-0.dtd"
   xmlns="http://www.w3.org/2000/svg"
   xmlns:svg="http://www.w3.org/2000/svg">
  <defs
     id="defs10" />
  <sodipodi:namedview
     id="namedview8"
     pagecolor="#ffffff"
     bordercolor="#666666"
     borderopacity="1.0"
     inkscape:showpageshadow="2"
     inkscape:pageopacity="0.0"
     inkscape:pagecheckerboard="0"
     inkscape:deskcolor="#d1d1d1"
     showgrid="false"
     inkscape:zoom="34.541667"
     inkscape:cx="10.364294"
     inkscape:cy="12.014475"
     inkscape:window-width="1920"
     inkscape:window-height="1009"
     inkscape:window-x="1912"
     inkscape:window-y="-8"
     inkscape:window-maximized="1"
     inkscape:current-layer="svg6" />
  <path
     style="color:#000000;fill:currentColor;stroke-linecap:round;stroke-linejoin:round;-inkscape-stroke:none"
     d="m 6,7.25 c -2.6144671,0 -4.75,2.1355329 -4.75,4.75 0,2.614434 2.1355239,4.75 4.75,4.75 2.3488811,0 4.223212,-1.753926 4.597656,-4 H 21.25 V 15 A 0.75,0.75 0 0 0 22,15.75 0.75,0.75 0 0 0 22.75,15 V 12 A 0.750075,0.750075 0 0 0 22,11.25 H 10.597656 C 10.223211,9.0039082 8.348873,7.25 6,7.25 Z m 0,1.5 c 1.8038085,0 3.25,1.446191 3.25,3.25 0,1.803761 -1.4462005,3.25 -3.25,3.25 C 4.1962005,15.25 2.75,13.803761 2.75,12 2.75,10.196191 4.1961915,8.75 6,8.75 Z"
     id="path2" />
  <path
     style="color:#000000;fill:currentColor;stroke-linecap:round;stroke-linejoin:round;-inkscape-stroke:none"
     d="M 18,11.25 A 0.75,0.75 0 0 0 17.25,12 v 3 A 0.75,0.75 0 0 0 18,15.75 0.75,0.75 0 0 0 18.75,15 V 12 A 0.75,0.75 0 0 0 18,11.25 Z"
     id="path4" />
</svg>
