<?xml version="1.0" encoding="UTF-8" standalone="no"?>
<svg
   width="24"
   height="24"
   stroke-width="1.5"
   viewBox="0 0 24 24"
   fill="none"
   version="1.1"
   id="svg10"
   sodipodi:docname="keyframes-minus.svg"
   inkscape:version="1.2.1 (9c6d41e410, 2022-07-14)"
   xmlns:inkscape="http://www.inkscape.org/namespaces/inkscape"
   xmlns:sodipodi="http://sodipodi.sourceforge.net/DTD/sodipodi-0.dtd"
   xmlns="http://www.w3.org/2000/svg"
   xmlns:svg="http://www.w3.org/2000/svg">
  <defs
     id="defs14" />
  <sodipodi:namedview
     id="namedview12"
     pagecolor="#ffffff"
     bordercolor="#666666"
     borderopacity="1.0"
     inkscape:showpageshadow="2"
     inkscape:pageopacity="0.0"
     inkscape:pagecheckerboard="0"
     inkscape:deskcolor="#d1d1d1"
     showgrid="false"
     inkscape:zoom="34.541667"
     inkscape:cx="10.364294"
     inkscape:cy="12.014475"
     inkscape:window-width="1920"
     inkscape:window-height="1009"
     inkscape:window-x="1912"
     inkscape:window-y="-8"
     inkscape:window-maximized="1"
     inkscape:current-layer="svg10" />
  <path
     style="color:#000000;fill:currentColor;stroke-linecap:round;stroke-linejoin:round;-inkscape-stroke:none"
     d="M 2,11.25 A 0.75,0.75 0 0 0 1.25,12 0.75,0.75 0 0 0 2,12.75 H 5 8 A 0.75,0.75 0 0 0 8.75,12 0.75,0.75 0 0 0 8,11.25 H 5 Z"
     id="path2" />
  <path
     style="color:#000000;fill:currentColor;stroke-linecap:round;stroke-linejoin:round;-inkscape-stroke:none"
     d="M 8,4.2949219 C 7.2369382,4.2949238 6.4731447,4.6054627 5.9296875,5.2265625 L 5.6855469,5.5058594 a 0.75,0.75 0 0 0 0.070312,1.0585937 0.75,0.75 0 0 0 1.0585937,-0.070312 L 7.0585937,6.2148437 c 0.5067241,-0.5791186 1.3760908,-0.5791097 1.8828126,0 l 4.3417967,4.9628903 c 0.416115,0.475524 0.416115,1.169008 0,1.644532 l -4.3417967,4.96289 c -0.506733,0.579154 -1.3760796,0.579154 -1.8828126,0 L 6.8144531,17.505859 a 0.75,0.75 0 0 0 -1.0585937,-0.07031 0.75,0.75 0 0 0 -0.070312,1.058594 l 0.2441406,0.279296 c 1.0869055,1.242244 3.0537195,1.242244 4.1406255,0 l 4.341796,-4.96289 c 0.903484,-1.032475 0.903484,-2.588619 0,-3.621094 L 10.070313,5.2265625 C 9.5268542,4.6054683 8.7630618,4.29492 8,4.2949219 Z"
     id="path4" />
  <path
     style="color:#000000;fill:currentColor;stroke-linecap:round;stroke-linejoin:round;-inkscape-stroke:none"
     d="m 13.056641,4.2519531 a 0.75,0.75 0 0 0 -0.544922,0.1777344 0.75,0.75 0 0 0 -0.08203,1.0585937 l 4.884765,5.6972658 c 0.404679,0.472199 0.404679,1.156707 0,1.628906 l -4.884765,5.697266 a 0.75,0.75 0 0 0 0.08203,1.058593 0.75,0.75 0 0 0 1.058594,-0.08203 l 4.882812,-5.699218 c 0.879119,-1.0258 0.879119,-2.552326 0,-3.578125 L 13.570313,4.5117187 A 0.75,0.75 0 0 0 13.056641,4.2519531 Z"
     id="path6" />
  <path
     style="color:#000000;fill:currentColor;stroke-linecap:round;stroke-linejoin:round;-inkscape-stroke:none"
     d="m 17.056641,4.2519531 a 0.75,0.75 0 0 0 -0.544922,0.1777344 0.75,0.75 0 0 0 -0.08203,1.0585937 l 4.884766,5.6972658 c 0.404679,0.472199 0.404679,1.156707 0,1.628906 l -4.884766,5.697266 a 0.75,0.75 0 0 0 0.08203,1.058593 0.75,0.75 0 0 0 1.058593,-0.08203 l 4.882813,-5.699218 c 0.879119,-1.0258 0.879119,-2.552326 0,-3.578125 L 17.570312,4.5117187 A 0.75,0.75 0 0 0 17.056641,4.2519531 Z"
     id="path8" />
</svg>
