<?xml version="1.0" encoding="UTF-8" standalone="no"?>
<svg
   width="24"
   height="24"
   viewBox="0 0 24 24"
   stroke-width="1.5"
   fill="none"
   version="1.1"
   id="svg6"
   sodipodi:docname="keyframe-plus.svg"
   inkscape:version="1.2.1 (9c6d41e410, 2022-07-14)"
   xmlns:inkscape="http://www.inkscape.org/namespaces/inkscape"
   xmlns:sodipodi="http://sodipodi.sourceforge.net/DTD/sodipodi-0.dtd"
   xmlns="http://www.w3.org/2000/svg"
   xmlns:svg="http://www.w3.org/2000/svg">
  <defs
     id="defs10" />
  <sodipodi:namedview
     id="namedview8"
     pagecolor="#ffffff"
     bordercolor="#666666"
     borderopacity="1.0"
     inkscape:showpageshadow="2"
     inkscape:pageopacity="0.0"
     inkscape:pagecheckerboard="0"
     inkscape:deskcolor="#d1d1d1"
     showgrid="false"
     inkscape:zoom="34.541667"
     inkscape:cx="10.364294"
     inkscape:cy="12.014475"
     inkscape:window-width="1920"
     inkscape:window-height="1009"
     inkscape:window-x="1912"
     inkscape:window-y="-8"
     inkscape:window-maximized="1"
     inkscape:current-layer="svg6" />
  <path
     style="color:#000000;fill:currentColor;stroke-linecap:round;stroke-linejoin:round;-inkscape-stroke:none"
     d="M 19,1.25 A 0.75,0.75 0 0 0 18.25,2 V 4.25 H 16 A 0.75,0.75 0 0 0 15.25,5 0.75,0.75 0 0 0 16,5.75 h 2.25 V 8 A 0.75,0.75 0 0 0 19,8.75 0.75,0.75 0 0 0 19.75,8 V 5.75 H 22 A 0.75,0.75 0 0 0 22.75,5 0.75,0.75 0 0 0 22,4.25 H 19.75 V 2 A 0.75,0.75 0 0 0 19,1.25 Z"
     id="path2" />
  <path
     style="color:#000000;fill:currentColor;stroke-linecap:round;stroke-linejoin:round;-inkscape-stroke:none"
     d="m 10,4.2675781 c -0.7563007,4e-7 -1.5119309,0.3054127 -2.0546875,0.9160156 L 2.6210938,11.173828 c -0.9221885,1.037371 -0.9221885,2.614973 0,3.652344 l 5.3242187,5.990234 c 1.0854979,1.221284 3.0238595,1.221273 4.1093755,0 l 5.324218,-5.990234 c 0.922226,-1.037367 0.922226,-2.614977 0,-3.652344 L 12.054688,5.1835937 C 11.511922,4.5729963 10.756301,4.2675777 10,4.2675781 Z m 0,1.4863281 c 0.340713,4e-7 0.68076,0.1413497 0.933594,0.4257813 l 5.324218,5.9902345 c 0.424973,0.478031 0.424973,1.182125 0,1.660156 l -5.324218,5.990234 c -0.505683,0.568925 -1.3615273,0.568915 -1.8671877,0 L 3.7421875,13.830078 c -0.4249502,-0.478027 -0.4249502,-1.182129 0,-1.660156 L 9.0664063,6.1796875 C 9.3192288,5.8952613 9.6592868,5.7539059 10,5.7539062 Z"
     id="path4" />
</svg>
