<?xml version="1.0" encoding="UTF-8" standalone="no"?>
<svg
   width="24"
   height="24"
   stroke-width="1.5"
   viewBox="0 0 24 24"
   fill="none"
   version="1.1"
   id="svg8"
   sodipodi:docname="keyframes.svg"
   inkscape:version="1.2.1 (9c6d41e410, 2022-07-14)"
   xmlns:inkscape="http://www.inkscape.org/namespaces/inkscape"
   xmlns:sodipodi="http://sodipodi.sourceforge.net/DTD/sodipodi-0.dtd"
   xmlns="http://www.w3.org/2000/svg"
   xmlns:svg="http://www.w3.org/2000/svg">
  <defs
     id="defs12" />
  <sodipodi:namedview
     id="namedview10"
     pagecolor="#ffffff"
     bordercolor="#666666"
     borderopacity="1.0"
     inkscape:showpageshadow="2"
     inkscape:pageopacity="0.0"
     inkscape:pagecheckerboard="0"
     inkscape:deskcolor="#d1d1d1"
     showgrid="false"
     inkscape:zoom="34.541667"
     inkscape:cx="10.364294"
     inkscape:cy="12.014475"
     inkscape:window-width="1920"
     inkscape:window-height="1009"
     inkscape:window-x="1912"
     inkscape:window-y="-8"
     inkscape:window-maximized="1"
     inkscape:current-layer="svg8" />
  <path
     style="color:#000000;fill:currentColor;stroke-linecap:round;stroke-linejoin:round;-inkscape-stroke:none"
     d="M 8,4.2949219 C 7.2369382,4.2949238 6.4731447,4.6054627 5.9296875,5.2265625 L 1.5878906,10.189453 c -0.9034713,1.032476 -0.9034713,2.588618 0,3.621094 l 4.3417969,4.96289 c 1.0869055,1.242244 3.0537195,1.242244 4.1406255,0 l 4.341796,-4.96289 c 0.903484,-1.032475 0.903484,-2.588619 0,-3.621094 L 10.070313,5.2265625 C 9.5268542,4.6054683 8.7630618,4.29492 8,4.2949219 Z m 0,1.484375 c 0.3436771,-6e-7 0.6880454,0.145992 0.9414063,0.4355468 l 4.3417967,4.9628903 c 0.416115,0.475524 0.416115,1.169008 0,1.644532 l -4.3417967,4.96289 c -0.506733,0.579154 -1.3760796,0.579154 -1.8828126,0 l -4.3417968,-4.96289 c -0.4161074,-0.475523 -0.4161074,-1.169009 0,-1.644532 L 7.0585937,6.2148437 C 7.3119558,5.9252844 7.6563229,5.7792975 8,5.7792969 Z"
     id="path2" />
  <path
     style="color:#000000;fill:currentColor;stroke-linecap:round;stroke-linejoin:round;-inkscape-stroke:none"
     d="m 13.056641,4.2519531 a 0.75,0.75 0 0 0 -0.544922,0.1777344 0.75,0.75 0 0 0 -0.08203,1.0585937 l 4.884765,5.6972658 c 0.404679,0.472199 0.404679,1.156707 0,1.628906 l -4.884765,5.697266 a 0.75,0.75 0 0 0 0.08203,1.058593 0.75,0.75 0 0 0 1.058594,-0.08203 l 4.882812,-5.699218 c 0.879119,-1.0258 0.879119,-2.552326 0,-3.578125 L 13.570313,4.5117187 A 0.75,0.75 0 0 0 13.056641,4.2519531 Z"
     id="path4" />
  <path
     style="color:#000000;fill:currentColor;stroke-linecap:round;stroke-linejoin:round;-inkscape-stroke:none"
     d="m 17.056641,4.2519531 a 0.75,0.75 0 0 0 -0.544922,0.1777344 0.75,0.75 0 0 0 -0.08203,1.0585937 l 4.884766,5.6972658 c 0.404679,0.472199 0.404679,1.156707 0,1.628906 l -4.884766,5.697266 a 0.75,0.75 0 0 0 0.08203,1.058593 0.75,0.75 0 0 0 1.058593,-0.08203 l 4.882813,-5.699218 c 0.879119,-1.0258 0.879119,-2.552326 0,-3.578125 L 17.570312,4.5117187 A 0.75,0.75 0 0 0 17.056641,4.2519531 Z"
     id="path6" />
</svg>
