<?xml version="1.0" encoding="UTF-8" standalone="no"?>
<svg
   width="24"
   height="24"
   stroke-width="1.5"
   viewBox="0 0 24 24"
   fill="none"
   version="1.1"
   id="svg4"
   sodipodi:docname="lamp.svg"
   inkscape:version="1.2.1 (9c6d41e410, 2022-07-14)"
   xmlns:inkscape="http://www.inkscape.org/namespaces/inkscape"
   xmlns:sodipodi="http://sodipodi.sourceforge.net/DTD/sodipodi-0.dtd"
   xmlns="http://www.w3.org/2000/svg"
   xmlns:svg="http://www.w3.org/2000/svg">
  <defs
     id="defs8" />
  <sodipodi:namedview
     id="namedview6"
     pagecolor="#ffffff"
     bordercolor="#666666"
     borderopacity="1.0"
     inkscape:showpageshadow="2"
     inkscape:pageopacity="0.0"
     inkscape:pagecheckerboard="0"
     inkscape:deskcolor="#d1d1d1"
     showgrid="false"
     inkscape:zoom="34.541667"
     inkscape:cx="10.364294"
     inkscape:cy="12.014475"
     inkscape:window-width="1920"
     inkscape:window-height="1009"
     inkscape:window-x="1912"
     inkscape:window-y="-8"
     inkscape:window-maximized="1"
     inkscape:current-layer="svg4" />
  <path
     style="color:#000000;fill:currentColor;stroke-linecap:round;stroke-linejoin:round;-inkscape-stroke:none"
     d="M 9,2.25 A 0.750075,0.750075 0 0 0 8.296875,2.7363281 l -3,7.9999999 A 0.750075,0.750075 0 0 0 6,11.75 h 5.25 v 8.5 H 9 A 0.75,0.75 0 0 0 8.25,21 0.75,0.75 0 0 0 9,21.75 h 3 3 A 0.75,0.75 0 0 0 15.75,21 0.75,0.75 0 0 0 15,20.25 h -2.25 v -8.5 H 18 a 0.750075,0.750075 0 0 0 0.703125,-1.013672 l -3,-7.9999999 A 0.750075,0.750075 0 0 0 15,2.25 Z m 0.5195313,1.5 h 4.9609377 l 2.435547,6.5 H 12.75 V 7 A 0.75,0.75 0 0 0 12,6.25 0.75,0.75 0 0 0 11.25,7 v 3.25 H 7.0839844 Z"
     id="path2" />
</svg>
