<?xml version="1.0" encoding="UTF-8" standalone="no"?>
<svg
   width="24"
   height="24"
   stroke-width="1.5"
   viewBox="0 0 24 24"
   fill="none"
   version="1.1"
   id="svg12"
   sodipodi:docname="language.svg"
   inkscape:version="1.2.1 (9c6d41e410, 2022-07-14)"
   xmlns:inkscape="http://www.inkscape.org/namespaces/inkscape"
   xmlns:sodipodi="http://sodipodi.sourceforge.net/DTD/sodipodi-0.dtd"
   xmlns="http://www.w3.org/2000/svg"
   xmlns:svg="http://www.w3.org/2000/svg">
  <defs
     id="defs16" />
  <sodipodi:namedview
     id="namedview14"
     pagecolor="#ffffff"
     bordercolor="#666666"
     borderopacity="1.0"
     inkscape:showpageshadow="2"
     inkscape:pageopacity="0.0"
     inkscape:pagecheckerboard="0"
     inkscape:deskcolor="#d1d1d1"
     showgrid="false"
     inkscape:zoom="34.541667"
     inkscape:cx="10.364294"
     inkscape:cy="12.014475"
     inkscape:window-width="1920"
     inkscape:window-height="1009"
     inkscape:window-x="1912"
     inkscape:window-y="-8"
     inkscape:window-maximized="1"
     inkscape:current-layer="svg12" />
  <path
     style="color:#000000;fill:currentColor;stroke-linecap:round;stroke-linejoin:round;-inkscape-stroke:none"
     d="M 12,1.25 C 6.0718263,1.25 1.25,6.0718263 1.25,12 1.25,17.928127 6.0718217,22.75 12,22.75 17.928132,22.75 22.75,17.928132 22.75,12 22.75,6.0718217 17.928127,1.25 12,1.25 Z m 0,1.5 c 5.117462,0 9.25,4.1324893 9.25,9.25 0,5.117457 -4.132543,9.25 -9.25,9.25 C 6.8824893,21.25 2.75,17.117462 2.75,12 2.75,6.8824848 6.8824848,2.75 12,2.75 Z"
     id="path2" />
  <path
     style="color:#000000;fill:currentColor;stroke-linecap:round;stroke-linejoin:round;-inkscape-stroke:none"
     d="m 12.546875,1.4511719 a 0.75,0.75 0 0 0 -0.144531,1.0507812 c 0,0 2.847656,3.7480943 2.847656,9.4980469 0,5.749994 -2.847656,9.496094 -2.847656,9.496094 a 0.75,0.75 0 0 0 0.144531,1.052734 0.75,0.75 0 0 0 1.050781,-0.144531 c 0,0 3.152344,-4.154303 3.152344,-10.404297 0,-6.2499554 -3.152344,-10.4042969 -3.152344,-10.4042969 A 0.75,0.75 0 0 0 12.546875,1.4511719 Z"
     id="path4" />
  <path
     style="color:#000000;fill:currentColor;stroke-linecap:round;stroke-linejoin:round;-inkscape-stroke:none"
     d="m 10.898438,1.3066406 a 0.75,0.75 0 0 0 -0.496094,0.2890625 c 0,0 -3.152344,4.1543415 -3.152344,10.4042969 0,6.249994 3.152344,10.404297 3.152344,10.404297 a 0.75,0.75 0 0 0 1.050781,0.144531 0.75,0.75 0 0 0 0.144531,-1.052734 c 0,0 -2.847656,-3.7461 -2.847656,-9.496094 0,-5.7499526 2.847656,-9.4980469 2.847656,-9.4980469 A 0.75,0.75 0 0 0 11.453125,1.4511719 0.75,0.75 0 0 0 10.898438,1.3066406 Z"
     id="path6" />
  <path
     style="color:#000000;fill:currentColor;stroke-linecap:round;stroke-linejoin:round;-inkscape-stroke:none"
     d="M 2.6289063,14.75 A 0.75,0.75 0 0 0 1.8789062,15.5 0.75,0.75 0 0 0 2.6289063,16.25 H 21.371094 a 0.75,0.75 0 0 0 0.75,-0.75 0.75,0.75 0 0 0 -0.75,-0.75 z"
     id="path8" />
  <path
     style="color:#000000;fill:currentColor;stroke-linecap:round;stroke-linejoin:round;-inkscape-stroke:none"
     d="M 2.6289063,7.75 A 0.75,0.75 0 0 0 1.8789062,8.5 0.75,0.75 0 0 0 2.6289063,9.25 H 21.371094 a 0.75,0.75 0 0 0 0.75,-0.75 0.75,0.75 0 0 0 -0.75,-0.75 z"
     id="path10" />
</svg>
