<?xml version="1.0" encoding="UTF-8" standalone="no"?>
<svg
   width="24"
   height="24"
   stroke-width="1.5"
   viewBox="0 0 24 24"
   fill="none"
   version="1.1"
   id="svg14"
   sodipodi:docname="laptop-fix.svg"
   inkscape:version="1.2.1 (9c6d41e410, 2022-07-14)"
   xmlns:inkscape="http://www.inkscape.org/namespaces/inkscape"
   xmlns:sodipodi="http://sodipodi.sourceforge.net/DTD/sodipodi-0.dtd"
   xmlns="http://www.w3.org/2000/svg"
   xmlns:svg="http://www.w3.org/2000/svg">
  <defs
     id="defs18" />
  <sodipodi:namedview
     id="namedview16"
     pagecolor="#ffffff"
     bordercolor="#666666"
     borderopacity="1.0"
     inkscape:showpageshadow="2"
     inkscape:pageopacity="0.0"
     inkscape:pagecheckerboard="0"
     inkscape:deskcolor="#d1d1d1"
     showgrid="false"
     inkscape:zoom="34.541667"
     inkscape:cx="10.364294"
     inkscape:cy="12.014475"
     inkscape:window-width="1920"
     inkscape:window-height="1009"
     inkscape:window-x="1912"
     inkscape:window-y="-8"
     inkscape:window-maximized="1"
     inkscape:current-layer="svg14" />
  <path
     style="color:#000000;fill:currentColor;stroke-linecap:round;stroke-linejoin:round;-inkscape-stroke:none"
     d="m 20.800781,7.3613281 a 0.75,0.75 0 0 0 -0.75,0.75 V 13.472656 H 3.6542969 c -0.600534,0 -1.1353779,0.404407 -1.2988281,0.982422 L 0.99804688,19.251953 C 0.50692297,20.988284 1.8400829,22.75 3.6445313,22.75 H 20.355469 c 1.804474,0 3.137664,-1.76171 2.646484,-3.498047 L 21.550781,14.121094 V 8.1113281 a 0.75,0.75 0 0 0 -0.75,-0.75 z M 3.7675781,14.972656 H 20.232422 l 1.326172,4.6875 C 21.789613,20.476817 21.204192,21.25 20.355469,21.25 H 3.6445313 c -0.848669,0 -1.4341204,-0.773177 -1.203125,-1.589844 z"
     id="path2" />
  <path
     style="color:#000000;fill:currentColor;stroke-linecap:round;stroke-linejoin:round;-inkscape-stroke:none"
     d="m 5.1992187,1.25 c -1.5098981,0 -2.75,1.2401018 -2.7499999,2.75 v 10.222656 a 0.75,0.75 0 0 0 0.75,0.75 0.75,0.75 0 0 0 0.75,-0.75 V 4 c 0,-0.6992396 0.5507603,-1.25 1.2499999,-1.25 H 12 A 0.75,0.75 0 0 0 12.75,2 0.75,0.75 0 0 0 12,1.25 Z"
     id="path4" />
  <path
     style="color:#000000;fill:currentColor;stroke-linecap:round;stroke-linejoin:round;-inkscape-stroke:none"
     d="M 11,18.25 A 0.75,0.75 0 0 0 10.25,19 0.75,0.75 0 0 0 11,19.75 h 2 A 0.75,0.75 0 0 0 13.75,19 0.75,0.75 0 0 0 13,18.25 Z"
     id="path6" />
  <path
     style="color:#000000;fill:currentColor;stroke-linecap:round;stroke-linejoin:round;-inkscape-stroke:none"
     d="m 17.65625,4.078125 a 0.75,0.75 0 0 0 -0.529297,0.2207031 l -2.828125,2.828125 a 0.75,0.75 0 0 0 0,1.0605469 0.75,0.75 0 0 0 1.060547,0 L 18.1875,5.359375 a 0.75,0.75 0 0 0 0,-1.0605469 0.75,0.75 0 0 0 -0.53125,-0.2207031 z"
     id="path8" />
  <path
     style="color:#000000;fill:currentColor;stroke-linecap:round;stroke-linejoin:round;-inkscape-stroke:none"
     d="m 17.65625,1.25 a 0.75,0.75 0 0 0 -0.529297,0.21875 c -1.067719,1.0676509 -1.067719,2.8229741 0,3.890625 1.067613,1.0676808 2.820978,1.0676258 3.888672,0 a 0.75,0.75 0 0 0 0,-1.0605469 0.75,0.75 0 0 0 -1.060547,0 c -0.494504,0.4944727 -1.273192,0.4944177 -1.767578,0 -0.494479,-0.4944475 -0.494479,-1.2731306 0,-1.7675781 a 0.75,0.75 0 0 0 0,-1.0625 A 0.75,0.75 0 0 0 17.65625,1.25 Z"
     id="path10" />
  <path
     style="color:#000000;fill:currentColor;stroke-linecap:round;stroke-linejoin:round;-inkscape-stroke:none"
     d="m 13.414063,6.3261719 c -0.705351,1.6e-6 -1.411507,0.2669408 -1.945313,0.8007812 a 0.75,0.75 0 0 0 0,1.0605469 0.75,0.75 0 0 0 1.0625,0 c 0.494386,-0.4944176 1.273074,-0.4944727 1.767578,0 0.494398,0.4944292 0.494387,1.2731726 0,1.7675781 a 0.75,0.75 0 0 0 0,1.0605469 0.75,0.75 0 0 0 1.060547,0 c 1.067612,-1.0676529 1.067601,-2.8210026 0,-3.8886719 C 14.825528,6.5931402 14.119413,6.3261703 13.414063,6.3261719 Z"
     id="path12" />
</svg>
