<?xml version="1.0" encoding="UTF-8" standalone="no"?>
<svg
   width="24"
   height="24"
   stroke-width="1.5"
   viewBox="0 0 24 24"
   fill="none"
   version="1.1"
   id="svg8"
   sodipodi:docname="laptop-charging.svg"
   inkscape:version="1.2.1 (9c6d41e410, 2022-07-14)"
   xmlns:inkscape="http://www.inkscape.org/namespaces/inkscape"
   xmlns:sodipodi="http://sodipodi.sourceforge.net/DTD/sodipodi-0.dtd"
   xmlns="http://www.w3.org/2000/svg"
   xmlns:svg="http://www.w3.org/2000/svg">
  <defs
     id="defs12" />
  <sodipodi:namedview
     id="namedview10"
     pagecolor="#ffffff"
     bordercolor="#666666"
     borderopacity="1.0"
     inkscape:showpageshadow="2"
     inkscape:pageopacity="0.0"
     inkscape:pagecheckerboard="0"
     inkscape:deskcolor="#d1d1d1"
     showgrid="false"
     inkscape:zoom="34.541667"
     inkscape:cx="10.364294"
     inkscape:cy="12.014475"
     inkscape:window-width="1920"
     inkscape:window-height="1009"
     inkscape:window-x="1912"
     inkscape:window-y="-8"
     inkscape:window-maximized="1"
     inkscape:current-layer="svg8" />
  <path
     style="color:#000000;fill:currentColor;-inkscape-stroke:none"
     d="M 5.1992187,1.25 C 3.6893206,1.25 2.4492188,2.4901018 2.4492188,4 V 14.121094 L 0.99804688,19.251953 C 0.50692297,20.988284 1.8400829,22.75 3.6445313,22.75 H 20.355469 c 1.804474,0 3.137664,-1.76171 2.646484,-3.498047 L 21.550781,14.121094 V 4 c 0,-1.5098846 -1.240083,-2.75 -2.75,-2.75 z m 0,1.5 H 18.800781 c 0.699281,0 1.25,0.5507468 1.25,1.25 v 9.472656 H 3.9492188 V 4 c 0,-0.6992396 0.5507603,-1.25 1.2499999,-1.25 z M 3.7675781,14.972656 H 20.232422 l 1.326172,4.6875 C 21.789613,20.476817 21.204192,21.25 20.355469,21.25 H 3.6445313 c -0.848669,0 -1.4341204,-0.773177 -1.203125,-1.589844 z"
     id="path2" />
  <path
     style="color:#000000;fill:currentColor;stroke-linecap:round;stroke-linejoin:round;-inkscape-stroke:none"
     d="m 11.460938,4.2792969 a 0.75,0.75 0 0 0 -0.449219,0.3574218 l -1.667969,3 A 0.750075,0.750075 0 0 0 10,8.75 h 2.724609 l -1.046875,1.886719 a 0.75,0.75 0 0 0 0.291016,1.019531 0.75,0.75 0 0 0 1.019531,-0.292969 L 14.65625,8.3632813 A 0.750075,0.750075 0 0 0 14,7.25 H 11.275391 L 12.322266,5.3632812 A 0.75,0.75 0 0 0 12.03125,4.34375 0.75,0.75 0 0 0 11.460938,4.2792969 Z"
     id="path4" />
  <path
     style="color:#000000;fill:currentColor;stroke-linecap:round;stroke-linejoin:round;-inkscape-stroke:none"
     d="M 11,18.25 A 0.75,0.75 0 0 0 10.25,19 0.75,0.75 0 0 0 11,19.75 h 2 A 0.75,0.75 0 0 0 13.75,19 0.75,0.75 0 0 0 13,18.25 Z"
     id="path6" />
</svg>
