<?xml version="1.0" encoding="UTF-8" standalone="no"?>
<svg
   width="24"
   height="24"
   stroke-width="1.5"
   viewBox="0 0 24 24"
   fill="none"
   version="1.1"
   id="svg10"
   sodipodi:docname="leaderboard.svg"
   inkscape:version="1.2.1 (9c6d41e410, 2022-07-14)"
   xmlns:inkscape="http://www.inkscape.org/namespaces/inkscape"
   xmlns:sodipodi="http://sodipodi.sourceforge.net/DTD/sodipodi-0.dtd"
   xmlns="http://www.w3.org/2000/svg"
   xmlns:svg="http://www.w3.org/2000/svg">
  <defs
     id="defs14" />
  <sodipodi:namedview
     id="namedview12"
     pagecolor="#ffffff"
     bordercolor="#666666"
     borderopacity="1.0"
     inkscape:showpageshadow="2"
     inkscape:pageopacity="0.0"
     inkscape:pagecheckerboard="0"
     inkscape:deskcolor="#d1d1d1"
     showgrid="false"
     inkscape:zoom="34.541667"
     inkscape:cx="10.364294"
     inkscape:cy="12.014475"
     inkscape:window-width="1920"
     inkscape:window-height="1009"
     inkscape:window-x="1912"
     inkscape:window-y="-8"
     inkscape:window-maximized="1"
     inkscape:current-layer="svg10" />
  <path
     style="color:#000000;fill:currentColor;stroke-linecap:round;stroke-linejoin:round;-inkscape-stroke:none"
     d="M 9.5996094,7.25 C 8.8629077,7.25 8.25,7.8629077 8.25,8.5996094 V 12.5 19 A 0.750075,0.750075 0 0 0 9,19.75 h 6 A 0.750075,0.750075 0 0 0 15.75,19 V 14.5 8.5996094 C 15.75,7.862953 15.137086,7.25 14.400391,7.25 Z M 9.75,8.75 h 4.5 v 5.75 3.75 H 9.75 V 12.5 Z"
     id="path2" />
  <path
     style="color:#000000;fill:currentColor;stroke-linecap:round;stroke-linejoin:round;-inkscape-stroke:none"
     d="M 9,4.25 A 0.75,0.75 0 0 0 8.25,5 0.75,0.75 0 0 0 9,5.75 h 6 A 0.75,0.75 0 0 0 15.75,5 0.75,0.75 0 0 0 15,4.25 Z"
     id="path4" />
  <path
     style="color:#000000;fill:currentColor;stroke-linecap:round;stroke-linejoin:round;-inkscape-stroke:none"
     d="M 15.599609,13.75 C 14.86296,13.75 14.25,14.36296 14.25,15.099609 V 19 A 0.750075,0.750075 0 0 0 15,19.75 h 5.400391 C 21.13704,19.75 21.75,19.13704 21.75,18.400391 V 15.099609 C 21.75,14.36296 21.13704,13.75 20.400391,13.75 Z M 15.75,15.25 h 4.5 v 3 h -4.5 z"
     id="path6" />
  <path
     style="color:#000000;fill:currentColor;stroke-linecap:round;stroke-linejoin:round;-inkscape-stroke:none"
     d="M 3.5996094,11.75 C 2.862953,11.75 2.25,12.362914 2.25,13.099609 v 5.300782 C 2.25,19.137086 2.862953,19.75 3.5996094,19.75 H 9 A 0.750075,0.750075 0 0 0 9.75,19 V 13.099609 C 9.75,12.362914 9.137047,11.75 8.4003906,11.75 Z M 3.75,13.25 h 4.5 v 5 h -4.5 z"
     id="path8" />
</svg>
