<?xml version="1.0" encoding="UTF-8" standalone="no"?>
<svg
   width="24"
   height="24"
   stroke-width="1.5"
   viewBox="0 0 24 24"
   fill="none"
   version="1.1"
   id="svg10"
   sodipodi:docname="leaderboard-star.svg"
   inkscape:version="1.2.1 (9c6d41e410, 2022-07-14)"
   xmlns:inkscape="http://www.inkscape.org/namespaces/inkscape"
   xmlns:sodipodi="http://sodipodi.sourceforge.net/DTD/sodipodi-0.dtd"
   xmlns="http://www.w3.org/2000/svg"
   xmlns:svg="http://www.w3.org/2000/svg">
  <defs
     id="defs14" />
  <sodipodi:namedview
     id="namedview12"
     pagecolor="#ffffff"
     bordercolor="#666666"
     borderopacity="1.0"
     inkscape:showpageshadow="2"
     inkscape:pageopacity="0.0"
     inkscape:pagecheckerboard="0"
     inkscape:deskcolor="#d1d1d1"
     showgrid="false"
     inkscape:zoom="34.541667"
     inkscape:cx="10.364294"
     inkscape:cy="12.014475"
     inkscape:window-width="1920"
     inkscape:window-height="1009"
     inkscape:window-x="1912"
     inkscape:window-y="-8"
     inkscape:window-maximized="1"
     inkscape:current-layer="svg10" />
  <path
     style="color:#000000;fill:currentColor;stroke-linecap:round;stroke-linejoin:round;-inkscape-stroke:none"
     d="M 9.5996094,11.25 C 8.862953,11.25 8.25,11.862914 8.25,12.599609 V 21 A 0.750075,0.750075 0 0 0 9,21.75 h 6 A 0.750075,0.750075 0 0 0 15.75,21 V 12.599609 C 15.75,11.86296 15.13704,11.25 14.400391,11.25 Z M 9.75,12.75 h 4.5 v 7.5 h -4.5 z"
     id="path2" />
  <path
     style="color:#000000;fill:currentColor;stroke-linecap:round;stroke-linejoin:round;-inkscape-stroke:none"
     d="M 15.599609,16.75 C 14.86296,16.75 14.25,17.36296 14.25,18.099609 V 21 A 0.750075,0.750075 0 0 0 15,21.75 h 5.400391 C 21.13704,21.75 21.75,21.13704 21.75,20.400391 V 18.099609 C 21.75,17.36296 21.13704,16.75 20.400391,16.75 Z M 15.75,18.25 h 4.5 v 2 h -4.5 z"
     id="path4" />
  <path
     style="color:#000000;fill:currentColor;stroke-linecap:round;stroke-linejoin:round;-inkscape-stroke:none"
     d="M 3.5996094,14.75 C 2.862953,14.75 2.25,15.362914 2.25,16.099609 v 4.300782 C 2.25,21.137086 2.862953,21.75 3.5996094,21.75 H 9 A 0.750075,0.750075 0 0 0 9.75,21 V 16.099609 C 9.75,15.362914 9.137047,14.75 8.4003906,14.75 Z M 3.75,16.25 h 4.5 v 4 h -4.5 z"
     id="path6" />
  <path
     style="color:#000000;fill:currentColor;stroke-linecap:round;stroke-linejoin:round;-inkscape-stroke:none"
     d="m 12,2.25 c -0.386079,0 -0.785679,0.2394447 -0.962891,0.6152344 L 10.296875,4.4316406 8.6582031,4.6835937 C 7.8054867,4.8140592 7.4702221,5.9157813 8.0605469,6.5175781 L 9.265625,7.7460937 8.9804688,9.4882813 c -0.0667,0.407008 0.110193,0.8153487 0.4121093,1.0449217 0.3019164,0.229573 0.7761379,0.290057 1.1503909,0.08399 L 12,9.8164063 13.457031,10.617188 c 0.374238,0.206055 0.848471,0.145613 1.150391,-0.08399 0.30192,-0.229597 0.478836,-0.6379363 0.412109,-1.0449217 L 14.734375,7.7460937 15.939453,6.5175781 C 16.529632,5.9157704 16.194483,4.8140296 15.341797,4.6835937 L 13.703125,4.4316406 12.962891,2.8652344 C 12.785679,2.4894447 12.386079,2.25 12,2.25 Z m 0,2.0898437 0.515625,1.09375 a 0.750075,0.750075 0 0 0 0.564453,0.421875 l 1.222656,0.1875 -0.90625,0.9238282 A 0.750075,0.750075 0 0 0 13.193359,7.6132812 L 13.398438,8.875 12.361328,8.3027344 a 0.750075,0.750075 0 0 0 -0.722656,0 L 10.601563,8.875 10.806641,7.6132812 A 0.750075,0.750075 0 0 0 10.603516,6.9667969 l -0.9062504,-0.9238282 1.2226564,-0.1875 a 0.750075,0.750075 0 0 0 0.564453,-0.421875 z"
     id="path8" />
</svg>
