<?xml version="1.0" encoding="UTF-8" standalone="no"?>
<svg
   width="24"
   height="24"
   viewBox="0 0 24 24"
   stroke-width="1.5"
   fill="none"
   version="1.1"
   id="svg6"
   sodipodi:docname="leaf.svg"
   inkscape:version="1.2.1 (9c6d41e410, 2022-07-14)"
   xmlns:inkscape="http://www.inkscape.org/namespaces/inkscape"
   xmlns:sodipodi="http://sodipodi.sourceforge.net/DTD/sodipodi-0.dtd"
   xmlns="http://www.w3.org/2000/svg"
   xmlns:svg="http://www.w3.org/2000/svg">
  <defs
     id="defs10" />
  <sodipodi:namedview
     id="namedview8"
     pagecolor="#ffffff"
     bordercolor="#666666"
     borderopacity="1.0"
     inkscape:showpageshadow="2"
     inkscape:pageopacity="0.0"
     inkscape:pagecheckerboard="0"
     inkscape:deskcolor="#d1d1d1"
     showgrid="false"
     inkscape:zoom="34.541667"
     inkscape:cx="10.364294"
     inkscape:cy="12.014475"
     inkscape:window-width="1920"
     inkscape:window-height="1009"
     inkscape:window-x="1912"
     inkscape:window-y="-8"
     inkscape:window-maximized="1"
     inkscape:current-layer="svg6" />
  <path
     style="color:#000000;fill:currentColor;stroke-linecap:round;stroke-linejoin:round;-inkscape-stroke:none"
     d="m 11.494141,11.935547 a 0.75,0.75 0 0 0 -1.058594,0.07031 c -3.660252,4.183145 -4.1816408,8.91211 -4.1816408,8.91211 a 0.75,0.75 0 0 0 0.6640625,0.828125 0.75,0.75 0 0 0 0.828125,-0.664063 c 0,0 0.4786183,-4.271043 3.8183593,-8.08789 a 0.75,0.75 0 0 0 -0.07031,-1.058594 z"
     id="path2" />
  <path
     style="color:#000000;fill:currentColor;stroke-linecap:round;stroke-linejoin:round;-inkscape-stroke:none"
     d="M 18.402344,2.9550781 11.832031,3.5878906 C 7.6156498,3.9938793 4.5119801,7.7601922 4.9179687,11.976563 c 0.4068119,4.224908 4.2367514,7.312306 8.4531253,6.906249 4.289473,-0.412941 7.513372,-4.239213 7.099609,-8.537109 L 19.876953,4.1699219 C 19.806462,3.4364363 19.135692,2.8844339 18.402344,2.9550781 Z m -0.0059,1.5078125 0.582032,6.0253904 c 0.334436,3.473897 -2.269435,6.567087 -5.751953,6.902344 C 9.8171437,17.718968 6.7395768,15.232915 6.4121094,11.832031 6.0838188,8.4225891 8.5671116,5.4103219 11.976563,5.0820312 Z"
     id="path4" />
</svg>
