<?xml version="1.0" encoding="UTF-8" standalone="no"?>
<svg
   width="24"
   height="24"
   viewBox="0 0 24 24"
   stroke-width="1.5"
   fill="none"
   version="1.1"
   id="svg8"
   sodipodi:docname="learning.svg"
   inkscape:version="1.2.1 (9c6d41e410, 2022-07-14)"
   xmlns:inkscape="http://www.inkscape.org/namespaces/inkscape"
   xmlns:sodipodi="http://sodipodi.sourceforge.net/DTD/sodipodi-0.dtd"
   xmlns="http://www.w3.org/2000/svg"
   xmlns:svg="http://www.w3.org/2000/svg">
  <defs
     id="defs12" />
  <sodipodi:namedview
     id="namedview10"
     pagecolor="#ffffff"
     bordercolor="#666666"
     borderopacity="1.0"
     inkscape:showpageshadow="2"
     inkscape:pageopacity="0.0"
     inkscape:pagecheckerboard="0"
     inkscape:deskcolor="#d1d1d1"
     showgrid="false"
     inkscape:zoom="34.541667"
     inkscape:cx="10.364294"
     inkscape:cy="12.014475"
     inkscape:window-width="1920"
     inkscape:window-height="1009"
     inkscape:window-x="1912"
     inkscape:window-y="-8"
     inkscape:window-maximized="1"
     inkscape:current-layer="svg8" />
  <path
     style="color:#000000;fill:currentColor;stroke-linecap:round;stroke-linejoin:round;-inkscape-stroke:none"
     d="M 11.189453,1.25 C 8.3011689,1.2198438 6.0208722,2.1489524 4.5019531,3.7480469 2.983034,5.3471413 2.2499947,7.5652129 2.25,10 c 0,2.4781 0.9857119,4.213346 1.9277344,5.591797 0.9393652,1.374562 1.7653107,2.410696 1.890625,3.617187 V 22 a 0.75,0.75 0 0 0 0.75,0.75 0.75,0.75 0 0 0 0.75,-0.75 v -2.857422 a 0.750075,0.750075 0 0 0 -0.00391,-0.07422 C 7.3869477,17.301849 6.3083013,16.051765 5.4160156,14.746094 4.5237299,13.440422 3.75,12.093196 3.75,10 3.7499953,7.8635316 4.3814481,6.0534302 5.5898437,4.78125 6.7982394,3.5090698 8.6075978,2.7232063 11.173828,2.75 c 1.823357,0.019034 3.572596,0.5556456 4.830078,1.5644531 1.257482,1.0088076 2.064453,2.4601624 2.064453,4.5429688 a 0.750075,0.750075 0 0 0 0.117188,0.4023437 l 2.027344,3.1875004 c -0.0496,0.724921 -0.320469,0.999988 -0.652344,1.173828 -0.363397,0.190351 -0.742188,0.201172 -0.742188,0.201172 a 0.750075,0.750075 0 0 0 -0.746093,0.820312 c 0,0 0.109419,1.303558 -0.306641,2.548828 -0.20803,0.622635 -0.535684,1.205092 -1.039063,1.626953 -0.503378,0.421861 -1.189708,0.716797 -2.271484,0.716797 a 0.750075,0.750075 0 0 0 -0.75,0.75 V 22 a 0.75,0.75 0 0 0 0.75,0.75 0.75,0.75 0 0 0 0.75,-0.75 v -1.082031 c 0.999707,-0.129513 1.867119,-0.431921 2.484375,-0.949219 0.775043,-0.649532 1.230743,-1.496846 1.5,-2.302734 0.366,-1.095441 0.39329,-1.966669 0.382813,-2.539063 0.264028,-0.04748 0.339187,0.0056 0.685546,-0.175781 C 20.985314,14.570099 21.75,13.666641 21.75,12.285156 A 0.750075,0.750075 0 0 0 21.632812,11.882813 L 19.496094,8.5253906 C 19.397666,6.2125008 18.441114,4.347663 16.941406,3.1445313 15.362616,1.8779561 13.293593,1.2719656 11.189453,1.25 Z"
     id="path2" />
  <path
     style="color:#000000;fill:currentColor;stroke-linecap:round;stroke-linejoin:round;-inkscape-stroke:none"
     d="M 11,7.25 C 10.502033,7.25 10.029587,7.3851208 9.625,7.6191406 8.8027882,8.0947664 8.25,8.988067 8.25,10 c 0,1.011946 0.5528068,1.905258 1.375,2.380859 C 10.0296,12.614928 10.502019,12.75 11,12.75 c 1.509904,0 2.75,-1.240096 2.75,-2.75 0,-1.5098846 -1.240083,-2.75 -2.75,-2.75 z m 0,1.5 c 0.699281,0 1.25,0.5507468 1.25,1.25 0,0.699294 -0.550706,1.25 -1.25,1.25 -0.230619,0 -0.441201,-0.05968 -0.625,-0.166016 C 10.001594,10.867986 9.75,10.468653 9.75,10 9.75,9.5313744 10.001613,9.1320092 10.375,8.9160156 10.558812,8.8096958 10.769368,8.75 11,8.75 Z"
     id="path4" />
  <path
     style="color:#000000;fill:currentColor;stroke-linecap:round;stroke-linejoin:round;stroke-dasharray:0.3, 2;-inkscape-stroke:none"
     d="m 10.980469,6.25 -0.07422,0.00195 a 0.75,0.75 0 0 0 -0.730469,0.7695313 0.75,0.75 0 0 0 0.767578,0.7304687 L 11,7.75 l 0.117188,0.00391 0.05078,0.00391 A 0.75,0.75 0 0 0 11.972656,7.0664062 0.75,0.75 0 0 0 11.28125,6.2617187 l -0.07031,-0.00586 a 0.750075,0.750075 0 0 0 -0.03711,-0.00195 L 11.019531,6.25 a 0.750075,0.750075 0 0 0 -0.03906,0 z M 8.5957031,7.1230469 8.4921875,7.2128906 a 0.750075,0.750075 0 0 0 -0.027344,0.023437 l -0.1035157,0.099609 a 0.750075,0.750075 0 0 0 -0.025391,0.025391 L 8.3222656,7.375 a 0.75,0.75 0 0 0 0.025391,1.0605469 0.75,0.75 0 0 0 1.0605468,-0.025391 v -0.00195 l 0.080078,-0.074219 0.089844,-0.078125 A 0.75,0.75 0 0 0 9.6542969,7.1992187 0.75,0.75 0 0 0 8.5957031,7.1230469 Z m 4.9492189,0.1230468 a 0.75,0.75 0 0 0 -1.060547,0.025391 0.75,0.75 0 0 0 0.02539,1.0585937 l 0.08203,0.078125 0.07422,0.080078 0.0039,0.00391 a 0.75,0.75 0 0 0 1.058594,0.076172 0.75,0.75 0 0 0 0.07617,-1.0585938 l -0.01758,-0.017578 a 0.750075,0.750075 0 0 0 -0.02344,-0.027344 l -0.09961,-0.1035156 a 0.750075,0.750075 0 0 0 -0.02539,-0.025391 z M 8.1132813,8.9199219 A 0.75,0.75 0 0 0 7.2753906,9.5683594 l -0.00391,0.03125 a 0.750075,0.750075 0 0 0 -0.00391,0.037109 l -0.011719,0.1523437 a 0.750075,0.750075 0 0 0 -0.00195,0.037109 l -0.00195,0.1171875 A 0.75,0.75 0 0 0 7.9824219,10.712891 0.75,0.75 0 0 0 8.75,9.9804688 l 0.00391,-0.097656 0.00781,-0.1132812 0.00195,-0.011719 A 0.75,0.75 0 0 0 8.1132813,8.9199219 Z M 13.9375,9.0644531 a 0.75,0.75 0 0 0 -0.691406,0.8046875 v 0.013672 L 13.25,10 l -0.002,0.09375 a 0.75,0.75 0 0 0 0.730469,0.769531 0.75,0.75 0 0 0 0.767578,-0.732422 L 14.75,10.019531 a 0.750075,0.750075 0 0 0 0,-0.039062 l -0.0039,-0.1542969 a 0.750075,0.750075 0 0 0 -0.002,-0.037109 l -0.002,-0.033203 A 0.75,0.75 0 0 0 13.9375,9.0644531 Z m -0.705078,2.1289059 a 0.75,0.75 0 0 0 -0.513672,0.257813 l -0.05273,0.06055 -0.07422,0.08008 -0.0293,0.02539 a 0.75,0.75 0 0 0 -0.02539,1.060546 0.75,0.75 0 0 0 1.060547,0.02539 l 0.04102,-0.03906 a 0.750075,0.750075 0 0 0 0.02539,-0.02539 l 0.09961,-0.103516 a 0.750075,0.750075 0 0 0 0.02344,-0.02734 l 0.06641,-0.07422 A 0.75,0.75 0 0 0 13.777344,11.375 0.75,0.75 0 0 0 13.232422,11.193359 Z m -5.076172,0.04102 a 0.75,0.75 0 0 0 -0.1269531,1.054688 l 0.066406,0.08203 a 0.750075,0.750075 0 0 0 0.023437,0.02734 l 0.09375,0.109375 a 0.750075,0.750075 0 0 0 0.023437,0.02734 l 0.035156,0.03516 a 0.75,0.75 0 0 0 1.0605469,0.02539 0.75,0.75 0 0 0 0.025391,-1.060547 l -0.023437,-0.02344 -0.070312,-0.08008 -0.054687,-0.07031 A 0.75,0.75 0 0 0 8.15625,11.234375 Z m 2.490234,0.988281 a 0.75,0.75 0 0 0 -0.8398434,0.648438 0.75,0.75 0 0 0 0.6503904,0.839844 l 0.142578,0.01758 a 0.750075,0.750075 0 0 0 0.03711,0.0039 l 0.152344,0.01172 a 0.750075,0.750075 0 0 0 0.03711,0.002 h 0.0039 a 0.75,0.75 0 0 0 0.05274,-0.04883 0.75,0.75 0 0 0 0.136718,0.05273 l 0.154297,-0.0039 a 0.750075,0.750075 0 0 0 0.03711,-0.002 l 0.144531,-0.01172 a 0.75,0.75 0 0 0 0.691406,-0.804688 0.75,0.75 0 0 0 -0.804687,-0.691406 l -0.125,0.0098 -0.136719,0.0039 a 0.75,0.75 0 0 0 -0.02149,0.02344 0.75,0.75 0 0 0 -0.08984,-0.02734 l -0.09961,-0.0078 z"
     id="path6" />
</svg>
