<?xml version="1.0" encoding="UTF-8" standalone="no"?>
<svg
   width="24"
   height="24"
   stroke-width="1.5"
   viewBox="0 0 24 24"
   fill="none"
   version="1.1"
   id="svg10"
   sodipodi:docname="lens-plus.svg"
   inkscape:version="1.2.1 (9c6d41e410, 2022-07-14)"
   xmlns:inkscape="http://www.inkscape.org/namespaces/inkscape"
   xmlns:sodipodi="http://sodipodi.sourceforge.net/DTD/sodipodi-0.dtd"
   xmlns="http://www.w3.org/2000/svg"
   xmlns:svg="http://www.w3.org/2000/svg">
  <defs
     id="defs14" />
  <sodipodi:namedview
     id="namedview12"
     pagecolor="#ffffff"
     bordercolor="#666666"
     borderopacity="1.0"
     inkscape:showpageshadow="2"
     inkscape:pageopacity="0.0"
     inkscape:pagecheckerboard="0"
     inkscape:deskcolor="#d1d1d1"
     showgrid="false"
     inkscape:zoom="34.541667"
     inkscape:cx="10.364294"
     inkscape:cy="12.014475"
     inkscape:window-width="1920"
     inkscape:window-height="1009"
     inkscape:window-x="1912"
     inkscape:window-y="-8"
     inkscape:window-maximized="1"
     inkscape:current-layer="svg10" />
  <path
     style="color:#000000;fill:currentColor;stroke-linecap:round;stroke-linejoin:round;-inkscape-stroke:none"
     d="m 5.9921875,2.25 a 0.75,0.75 0 0 0 -0.75,0.75 v 2.25 h -2.25 a 0.75,0.75 0 0 0 -0.75,0.75 0.75,0.75 0 0 0 0.75,0.75 h 2.25 V 9 a 0.75,0.75 0 0 0 0.75,0.75 0.75,0.75 0 0 0 0.75,-0.75 V 6.75 h 2.25 a 0.75,0.75 0 0 0 0.75,-0.75 0.75,0.75 0 0 0 -0.75,-0.75 h -2.25 V 3 a 0.75,0.75 0 0 0 -0.75,-0.75 z"
     id="path2" />
  <path
     style="color:#000000;fill:currentColor;stroke-linecap:round;stroke-linejoin:round;-inkscape-stroke:none"
     d="M 13.611328,1.3691406 A 0.75,0.75 0 0 0 12.757813,2 0.75,0.75 0 0 0 13.388672,2.8535156 C 17.838534,3.5228678 21.25,7.3548859 21.25,12 c 0,5.117573 -4.132427,9.25 -9.25,9.25 -4.6450712,0 -8.4771227,-3.411465 -9.1464844,-7.861328 A 0.75,0.75 0 0 0 2,12.757813 0.75,0.75 0 0 0 1.3691406,13.611328 C 2.1472375,18.784055 6.6191012,22.75 12,22.75 17.928216,22.75 22.75,17.928216 22.75,12 22.75,6.6190642 18.784056,2.147227 13.611328,1.3691406 Z"
     id="path4" />
  <path
     style="color:#000000;fill:currentColor;stroke-linecap:round;stroke-linejoin:round;-inkscape-stroke:none"
     d="M 16.435547,7.890625 A 0.75,0.75 0 0 0 16.265625,8.9375 c 0.101365,0.1409567 0.195953,0.2867513 0.283203,0.4375 A 0.75,0.75 0 0 0 17.572266,9.6484375 0.75,0.75 0 0 0 17.845703,8.625 C 17.733553,8.431229 17.612456,8.243323 17.482422,8.0625 A 0.75,0.75 0 0 0 16.435547,7.890625 Z"
     id="path6" />
  <path
     style="color:#000000;fill:currentColor;stroke-linecap:round;stroke-linejoin:round;-inkscape-stroke:none"
     d="M 17.998047,12.773438 A 0.75,0.75 0 0 0 17.083984,13.3125 c -0.47436,1.842899 -1.928585,3.297124 -3.771484,3.771484 a 0.75,0.75 0 0 0 -0.539062,0.914063 0.75,0.75 0 0 0 0.914062,0.539062 c 2.373897,-0.611038 4.238571,-2.475712 4.849609,-4.849609 a 0.75,0.75 0 0 0 -0.539062,-0.914062 z"
     id="path8" />
</svg>
