<?xml version="1.0" encoding="UTF-8" standalone="no"?>
<svg
   width="24"
   height="24"
   stroke-width="1.5"
   viewBox="0 0 24 24"
   fill="none"
   version="1.1"
   id="svg14"
   sodipodi:docname="lifebelt.svg"
   inkscape:version="1.2.1 (9c6d41e410, 2022-07-14)"
   xmlns:inkscape="http://www.inkscape.org/namespaces/inkscape"
   xmlns:sodipodi="http://sodipodi.sourceforge.net/DTD/sodipodi-0.dtd"
   xmlns="http://www.w3.org/2000/svg"
   xmlns:svg="http://www.w3.org/2000/svg">
  <defs
     id="defs18" />
  <sodipodi:namedview
     id="namedview16"
     pagecolor="#ffffff"
     bordercolor="#666666"
     borderopacity="1.0"
     inkscape:showpageshadow="2"
     inkscape:pageopacity="0.0"
     inkscape:pagecheckerboard="0"
     inkscape:deskcolor="#d1d1d1"
     showgrid="false"
     inkscape:zoom="34.541667"
     inkscape:cx="10.364294"
     inkscape:cy="12.014475"
     inkscape:window-width="1920"
     inkscape:window-height="1009"
     inkscape:window-x="1912"
     inkscape:window-y="-8"
     inkscape:window-maximized="1"
     inkscape:current-layer="svg14" />
  <path
     style="color:#000000;fill:currentColor;stroke-linecap:round;stroke-linejoin:round;-inkscape-stroke:none"
     d="M 12,1.25 C 6.0718263,1.25 1.25,6.0718263 1.25,12 1.25,17.928127 6.0718217,22.75 12,22.75 17.928132,22.75 22.75,17.928132 22.75,12 22.75,6.0718217 17.928127,1.25 12,1.25 Z m 0,1.5 c 5.117462,0 9.25,4.1324893 9.25,9.25 0,5.117457 -4.132543,9.25 -9.25,9.25 C 6.8824893,21.25 2.75,17.117462 2.75,12 2.75,6.8824848 6.8824848,2.75 12,2.75 Z"
     id="path2" />
  <path
     style="color:#000000;fill:currentColor;stroke-linecap:round;stroke-linejoin:round;-inkscape-stroke:none"
     d="m 12,7.25 c -2.6144671,0 -4.75,2.1355329 -4.75,4.75 0,2.614434 2.1355239,4.75 4.75,4.75 2.614443,0 4.75,-2.135557 4.75,-4.75 0,-2.6144761 -2.135566,-4.75 -4.75,-4.75 z m 0,1.5 c 1.803761,0 3.25,1.446201 3.25,3.25 0,1.803752 -1.446248,3.25 -3.25,3.25 -1.803799,0 -3.25,-1.446239 -3.25,-3.25 0,-1.803809 1.446191,-3.25 3.25,-3.25 z"
     id="path4" />
  <path
     style="color:#000000;fill:currentColor;stroke-linecap:round;stroke-linejoin:round;-inkscape-stroke:none"
     d="m 8.7128906,14.351563 -4.234375,4.109374 a 0.75,0.75 0 0 0 -0.017578,1.060547 0.75,0.75 0 0 0 1.0605469,0.01758 l 4.2363281,-4.109374 a 0.75,0.75 0 0 0 0.015625,-1.060547 0.75,0.75 0 0 0 -1.0605469,-0.01758 z"
     id="path6" />
  <path
     style="color:#000000;fill:currentColor;stroke-linecap:round;stroke-linejoin:round;-inkscape-stroke:none"
     d="m 15.287109,14.351563 a 0.75,0.75 0 0 0 -1.060546,0.01758 0.75,0.75 0 0 0 0.01563,1.060547 l 4.236328,4.109374 a 0.75,0.75 0 0 0 1.060546,-0.01758 0.75,0.75 0 0 0 -0.01758,-1.060547 z"
     id="path8" />
  <path
     style="color:#000000;fill:currentColor;stroke-linecap:round;stroke-linejoin:round;-inkscape-stroke:none"
     d="m 18.478516,4.4609375 -4.236328,4.109375 a 0.75,0.75 0 0 0 -0.01563,1.0605469 0.75,0.75 0 0 0 1.060546,0.017578 l 4.234375,-4.109375 a 0.75,0.75 0 0 0 0.01758,-1.0605469 0.75,0.75 0 0 0 -1.060546,-0.017578 z"
     id="path10" />
  <path
     style="color:#000000;fill:currentColor;stroke-linecap:round;stroke-linejoin:round;-inkscape-stroke:none"
     d="m 4.9882812,4.25 a 0.75,0.75 0 0 0 -0.5273437,0.2285156 0.75,0.75 0 0 0 0.017578,1.0605469 l 4.234375,4.109375 A 0.75,0.75 0 0 0 9.7734375,9.6308594 0.75,0.75 0 0 0 9.7578125,8.5703125 L 5.5214844,4.4609375 A 0.75,0.75 0 0 0 4.9882812,4.25 Z"
     id="path12" />
</svg>
