<?xml version="1.0" encoding="UTF-8" standalone="no"?>
<svg
   width="24"
   height="24"
   stroke-width="1.5"
   viewBox="0 0 24 24"
   fill="none"
   version="1.1"
   id="svg16"
   sodipodi:docname="light-bulb-on.svg"
   inkscape:version="1.2.1 (9c6d41e410, 2022-07-14)"
   xmlns:inkscape="http://www.inkscape.org/namespaces/inkscape"
   xmlns:sodipodi="http://sodipodi.sourceforge.net/DTD/sodipodi-0.dtd"
   xmlns="http://www.w3.org/2000/svg"
   xmlns:svg="http://www.w3.org/2000/svg">
  <defs
     id="defs20" />
  <sodipodi:namedview
     id="namedview18"
     pagecolor="#ffffff"
     bordercolor="#666666"
     borderopacity="1.0"
     inkscape:showpageshadow="2"
     inkscape:pageopacity="0.0"
     inkscape:pagecheckerboard="0"
     inkscape:deskcolor="#d1d1d1"
     showgrid="false"
     inkscape:zoom="34.541667"
     inkscape:cx="10.364294"
     inkscape:cy="12.014475"
     inkscape:window-width="1920"
     inkscape:window-height="1009"
     inkscape:window-x="1912"
     inkscape:window-y="-8"
     inkscape:window-maximized="1"
     inkscape:current-layer="svg16" />
  <path
     style="color:#000000;fill:currentColor;stroke-linecap:round;stroke-linejoin:round;-inkscape-stroke:none"
     d="m 21,1.25 a 0.75,0.75 0 0 0 -0.53125,0.21875 l -1,1 a 0.75,0.75 0 0 0 0,1.0625 0.75,0.75 0 0 0 1.0625,0 l 1,-1 a 0.75,0.75 0 0 0 0,-1.0625 A 0.75,0.75 0 0 0 21,1.25 Z"
     id="path2" />
  <path
     style="color:#000000;fill:currentColor;stroke-linecap:round;stroke-linejoin:round;-inkscape-stroke:none"
     d="m 3,1.25 a 0.75,0.75 0 0 0 -0.53125,0.21875 0.75,0.75 0 0 0 0,1.0625 l 1,1 a 0.75,0.75 0 0 0 1.0625,0 0.75,0.75 0 0 0 0,-1.0625 l -1,-1 A 0.75,0.75 0 0 0 3,1.25 Z"
     id="path4" />
  <path
     style="color:#000000;fill:currentColor;stroke-linecap:round;stroke-linejoin:round;-inkscape-stroke:none"
     d="m 20,14.25 a 0.75,0.75 0 0 0 -0.53125,0.21875 0.75,0.75 0 0 0 0,1.0625 l 1,1 a 0.75,0.75 0 0 0 1.0625,0 0.75,0.75 0 0 0 0,-1.0625 l -1,-1 A 0.75,0.75 0 0 0 20,14.25 Z"
     id="path6" />
  <path
     style="color:#000000;fill:currentColor;stroke-linecap:round;stroke-linejoin:round;-inkscape-stroke:none"
     d="m 4,14.25 a 0.75,0.75 0 0 0 -0.53125,0.21875 l -1,1 a 0.75,0.75 0 0 0 0,1.0625 0.75,0.75 0 0 0 1.0625,0 l 1,-1 a 0.75,0.75 0 0 0 0,-1.0625 A 0.75,0.75 0 0 0 4,14.25 Z"
     id="path8" />
  <path
     style="color:#000000;fill:currentColor;stroke-linecap:round;stroke-linejoin:round;-inkscape-stroke:none"
     d="M 9,17.25 A 0.75,0.75 0 0 0 8.25,18 0.75,0.75 0 0 0 9,18.75 h 6 A 0.75,0.75 0 0 0 15.75,18 0.75,0.75 0 0 0 15,17.25 Z"
     id="path10" />
  <path
     style="color:#000000;fill:currentColor;stroke-linecap:round;stroke-linejoin:round;-inkscape-stroke:none"
     d="M 10,20.25 A 0.75,0.75 0 0 0 9.25,21 0.75,0.75 0 0 0 10,21.75 h 4 A 0.75,0.75 0 0 0 14.75,21 0.75,0.75 0 0 0 14,20.25 Z"
     id="path12" />
  <path
     style="color:#000000;fill:currentColor;stroke-linecap:round;stroke-linejoin:round;-inkscape-stroke:none"
     d="M 12,2.25 C 9.878062,2.25 8.1744558,2.7680235 6.9921875,3.7890625 5.8099192,4.8101015 5.2233248,6.3165412 5.25,8.0117188 5.2758252,9.6534108 5.8737141,10.936378 6.96875,12.03125 7.4688179,12.531243 7.7721738,12.845129 7.9550781,13.210938 8.1379825,13.576746 8.2500703,14.062506 8.25,15 A 0.750075,0.750075 0 0 0 9,15.75 h 6 A 0.750075,0.750075 0 0 0 15.75,15 c 9.4e-5,-0.937452 0.111992,-1.423184 0.294922,-1.789062 0.18293,-0.365879 0.484525,-0.679738 0.984375,-1.179688 C 18.12399,10.936448 18.724272,9.6535461 18.75,8.0117188 18.776681,6.316544 18.190085,4.8101035 17.007812,3.7890625 15.82554,2.7680215 14.121985,2.25 12,2.25 Z m 0,1.5 c 1.878211,0 3.197668,0.4572983 4.027344,1.1738281 C 16.85702,5.6403579 17.271319,6.633749 17.25,7.9882812 17.229128,9.3202309 16.873855,10.063554 15.96875,10.96875 v 0.002 c -0.499849,0.49995 -0.946627,0.934239 -1.263672,1.56836 C 14.484656,12.979928 14.44959,13.627019 14.388672,14.25 H 9.6113281 C 9.5505015,13.626975 9.5153789,12.979977 9.2949219,12.539063 8.9778267,11.904872 8.529378,11.468756 8.0292969,10.96875 7.1240347,10.063624 6.7709548,9.3203662 6.75,7.9882812 6.7286852,6.6337518 7.142979,5.6403599 7.9726562,4.9238281 8.8023335,4.2072963 10.121842,3.75 12,3.75 Z"
     id="path14" />
</svg>
