<?xml version="1.0" encoding="UTF-8" standalone="no"?>
<svg
   width="24"
   height="24"
   stroke-width="1.5"
   viewBox="0 0 24 24"
   fill="none"
   version="1.1"
   id="svg12"
   sodipodi:docname="light-bulb-off.svg"
   inkscape:version="1.2.1 (9c6d41e410, 2022-07-14)"
   xmlns:inkscape="http://www.inkscape.org/namespaces/inkscape"
   xmlns:sodipodi="http://sodipodi.sourceforge.net/DTD/sodipodi-0.dtd"
   xmlns="http://www.w3.org/2000/svg"
   xmlns:svg="http://www.w3.org/2000/svg">
  <defs
     id="defs16" />
  <sodipodi:namedview
     id="namedview14"
     pagecolor="#ffffff"
     bordercolor="#666666"
     borderopacity="1.0"
     inkscape:showpageshadow="2"
     inkscape:pageopacity="0.0"
     inkscape:pagecheckerboard="0"
     inkscape:deskcolor="#d1d1d1"
     showgrid="false"
     inkscape:zoom="34.541667"
     inkscape:cx="10.364294"
     inkscape:cy="12.014475"
     inkscape:window-width="1920"
     inkscape:window-height="1009"
     inkscape:window-x="1912"
     inkscape:window-y="-8"
     inkscape:window-maximized="1"
     inkscape:current-layer="svg12" />
  <path
     style="color:#000000;fill:currentColor;stroke-linecap:round;stroke-linejoin:round;-inkscape-stroke:none"
     d="M 9,17.25 A 0.75,0.75 0 0 0 8.25,18 0.75,0.75 0 0 0 9,18.75 h 6 A 0.75,0.75 0 0 0 15.75,18 0.75,0.75 0 0 0 15,17.25 Z"
     id="path2" />
  <path
     style="color:#000000;fill:currentColor;stroke-linecap:round;stroke-linejoin:round;-inkscape-stroke:none"
     d="M 10,20.25 A 0.75,0.75 0 0 0 9.25,21 0.75,0.75 0 0 0 10,21.75 h 4 A 0.75,0.75 0 0 0 14.75,21 0.75,0.75 0 0 0 14,20.25 Z"
     id="path4" />
  <path
     style="color:#000000;fill:currentColor;stroke-linecap:round;stroke-linejoin:round;-inkscape-stroke:none"
     d="m 12,2.25 c -1.238647,0 -2.3293109,0.1757148 -3.2636719,0.5253906 A 0.75,0.75 0 0 0 8.296875,3.7402344 0.75,0.75 0 0 0 9.2636719,4.1796875 C 9.9919293,3.907144 10.903649,3.75 12,3.75 c 1.878158,0 3.197652,0.4572939 4.027344,1.1738281 0.829691,0.7165342 1.243975,1.7099291 1.222656,3.0644531 -0.02096,1.3319731 -0.376232,2.0752698 -1.28125,2.9804688 a 0.75,0.75 0 0 0 0,1.0625 0.75,0.75 0 0 0 1.0625,0 C 18.12583,10.936451 18.724162,9.6535227 18.75,8.0117188 18.776681,6.3165358 18.190094,4.8100991 17.007812,3.7890625 15.825531,2.7680259 14.121938,2.25 12,2.25 Z"
     id="path6" />
  <path
     style="color:#000000;fill:currentColor;stroke-linecap:round;stroke-linejoin:round;-inkscape-stroke:none"
     d="M 6.3554687,5.7734375 A 0.75,0.75 0 0 0 5.4414062,6.3125 C 5.3026733,6.8478244 5.2406282,7.4164839 5.25,8.0117188 5.2758252,9.6534108 5.8737141,10.936378 6.96875,12.03125 7.4688179,12.531243 7.7721738,12.845129 7.9550781,13.210938 8.1379825,13.576746 8.2500703,14.062506 8.25,15 A 0.75,0.75 0 0 0 9,15.75 0.75,0.75 0 0 0 9.75,15 C 9.7500797,13.937496 9.612017,13.173253 9.2949219,12.539063 8.9778267,11.904872 8.529378,11.468756 8.0292969,10.96875 7.1240347,10.063624 6.7709548,9.3203662 6.75,7.9882812 6.7425118,7.5126772 6.7932645,7.0782547 6.8945312,6.6875 A 0.75,0.75 0 0 0 6.3554687,5.7734375 Z"
     id="path8" />
  <path
     style="color:#000000;fill:currentColor;stroke-linecap:round;stroke-linejoin:round;-inkscape-stroke:none"
     d="m 3,2.25 a 0.75,0.75 0 0 0 -0.53125,0.21875 0.75,0.75 0 0 0 0,1.0625 l 18,18 a 0.75,0.75 0 0 0 1.0625,0 0.75,0.75 0 0 0 0,-1.0625 l -18,-18 A 0.75,0.75 0 0 0 3,2.25 Z"
     id="path10" />
</svg>
