<?xml version="1.0" encoding="UTF-8" standalone="no"?>
<svg
   width="24"
   height="24"
   stroke-width="1.5"
   viewBox="0 0 24 24"
   fill="none"
   version="1.1"
   id="svg8"
   sodipodi:docname="light-bulb.svg"
   inkscape:version="1.2.1 (9c6d41e410, 2022-07-14)"
   xmlns:inkscape="http://www.inkscape.org/namespaces/inkscape"
   xmlns:sodipodi="http://sodipodi.sourceforge.net/DTD/sodipodi-0.dtd"
   xmlns="http://www.w3.org/2000/svg"
   xmlns:svg="http://www.w3.org/2000/svg">
  <defs
     id="defs12" />
  <sodipodi:namedview
     id="namedview10"
     pagecolor="#ffffff"
     bordercolor="#666666"
     borderopacity="1.0"
     inkscape:showpageshadow="2"
     inkscape:pageopacity="0.0"
     inkscape:pagecheckerboard="0"
     inkscape:deskcolor="#d1d1d1"
     showgrid="false"
     inkscape:zoom="34.541667"
     inkscape:cx="10.364294"
     inkscape:cy="12.014475"
     inkscape:window-width="1920"
     inkscape:window-height="1009"
     inkscape:window-x="1912"
     inkscape:window-y="-8"
     inkscape:window-maximized="1"
     inkscape:current-layer="svg8" />
  <path
     style="color:#000000;fill:currentColor;stroke-linecap:round;stroke-linejoin:round;-inkscape-stroke:none"
     d="M 9,17.25 A 0.75,0.75 0 0 0 8.25,18 0.75,0.75 0 0 0 9,18.75 h 6 A 0.75,0.75 0 0 0 15.75,18 0.75,0.75 0 0 0 15,17.25 Z"
     id="path2" />
  <path
     style="color:#000000;fill:currentColor;stroke-linecap:round;stroke-linejoin:round;-inkscape-stroke:none"
     d="M 10,20.25 A 0.75,0.75 0 0 0 9.25,21 0.75,0.75 0 0 0 10,21.75 h 4 A 0.75,0.75 0 0 0 14.75,21 0.75,0.75 0 0 0 14,20.25 Z"
     id="path4" />
  <path
     style="color:#000000;fill:currentColor;stroke-linecap:round;stroke-linejoin:round;-inkscape-stroke:none"
     d="M 12,2.25 C 9.878048,2.25 8.1744586,2.7680236 6.9921875,3.7890625 5.8099164,4.8101014 5.2233304,6.3165425 5.25,8.0117188 5.2758361,9.6534051 5.8756655,10.936377 6.9707031,12.03125 7.4707756,12.531242 7.7721747,12.845131 7.9550781,13.210938 8.1379816,13.576744 8.250075,14.062506 8.25,15 A 0.75,0.75 0 0 0 9,15.75 0.75,0.75 0 0 0 9.75,15 C 9.750085,13.937496 9.613971,13.173255 9.296875,12.539063 8.979779,11.90487 8.5313366,11.468757 8.03125,10.96875 7.1259896,10.063625 6.7709638,9.3203719 6.75,7.9882812 6.7286897,6.6337505 7.1429769,5.64036 7.9726562,4.9238281 8.8023356,4.2072963 10.121826,3.75 12,3.75 c 1.878211,0 3.199621,0.4572983 4.029297,1.1738281 0.829676,0.7165298 1.242022,1.7099209 1.220703,3.0644531 -0.02096,1.3320067 -0.374209,2.0752908 -1.279297,2.9804688 -0.499891,0.499991 -0.948561,0.936185 -1.265625,1.570313 C 14.388014,13.17319 14.250106,13.937507 14.25,15 A 0.75,0.75 0 0 0 15,15.75 0.75,0.75 0 0 0 15.75,15 c 9.4e-5,-0.937505 0.113939,-1.423191 0.296875,-1.789062 0.182936,-0.365872 0.484467,-0.67968 0.984375,-1.179688 C 18.125961,10.93643 18.724163,9.6534891 18.75,8.0117188 18.776681,6.316544 18.192038,4.8101035 17.009766,3.7890625 15.827494,2.7680215 14.121985,2.25 12,2.25 Z"
     id="path6" />
</svg>
