<?xml version="1.0" encoding="UTF-8" standalone="no"?>
<svg
   width="24"
   height="24"
   viewBox="0 0 24 24"
   stroke-width="1.5"
   fill="none"
   version="1.1"
   id="svg10"
   sodipodi:docname="link-slash.svg"
   inkscape:version="1.2.1 (9c6d41e410, 2022-07-14)"
   xmlns:inkscape="http://www.inkscape.org/namespaces/inkscape"
   xmlns:sodipodi="http://sodipodi.sourceforge.net/DTD/sodipodi-0.dtd"
   xmlns="http://www.w3.org/2000/svg"
   xmlns:svg="http://www.w3.org/2000/svg">
  <defs
     id="defs14" />
  <sodipodi:namedview
     id="namedview12"
     pagecolor="#ffffff"
     bordercolor="#666666"
     borderopacity="1.0"
     inkscape:showpageshadow="2"
     inkscape:pageopacity="0.0"
     inkscape:pagecheckerboard="0"
     inkscape:deskcolor="#d1d1d1"
     showgrid="false"
     inkscape:zoom="34.541667"
     inkscape:cx="10.364294"
     inkscape:cy="12.014475"
     inkscape:window-width="1920"
     inkscape:window-height="1009"
     inkscape:window-x="1912"
     inkscape:window-y="-8"
     inkscape:window-maximized="1"
     inkscape:current-layer="svg10" />
  <path
     style="color:#000000;fill:currentColor;stroke-linecap:round;stroke-linejoin:round;-inkscape-stroke:none"
     d="M 6.9804687,6.2519531 C 3.8192054,6.3357401 1.25,8.8742586 1.25,11.998047 c 0,2.737826 1.969603,5.028141 4.5878906,5.605469 0.4201271,0.09258 0.8574073,0.142578 1.3046875,0.142578 a 0.75,0.75 0 0 0 0.75,-0.75 0.75,0.75 0 0 0 -0.75,-0.75 c -0.338319,0 -0.6654766,-0.03801 -0.9804687,-0.107422 C 4.1998616,15.706 2.75,14.017016 2.75,11.998047 2.75,9.6944406 4.6322602,7.815226 7.0195312,7.7519531 A 0.75,0.75 0 0 0 7.75,6.9824219 0.75,0.75 0 0 0 6.9804687,6.2519531 Z"
     id="path2" />
  <path
     style="color:#000000;fill:currentColor;stroke-linecap:round;stroke-linejoin:round;-inkscape-stroke:none"
     d="m 10.753906,6.7910156 a 0.75,0.75 0 0 0 -0.429687,0.3808594 0.75,0.75 0 0 0 0.349609,1.0019531 c 0.833627,0.4031321 1.542507,1.0724363 2,1.8437499 a 0.75,0.75 0 0 0 1.027344,0.261719 0.75,0.75 0 0 0 0.261719,-1.0273439 C 13.355185,8.2273886 12.439944,7.3628258 11.326172,6.8242187 a 0.75,0.75 0 0 0 -0.572266,-0.033203 z"
     id="path4" />
  <path
     style="color:#000000;fill:currentColor;stroke-linecap:round;stroke-linejoin:round;-inkscape-stroke:none"
     d="m 16.857422,6.25 a 0.75,0.75 0 0 0 -0.75,0.75 0.75,0.75 0 0 0 0.75,0.75 c 0.338332,0 0.665494,0.036022 0.980469,0.1054687 C 19.80018,8.2881526 21.25,9.9790712 21.25,11.998047 c 0,2.342993 -1.946051,4.248047 -4.392578,4.248047 h -1.714844 c -2.382517,0 -4.392578,-2.221293 -4.392578,-4.248047 0,0 0.0015,-0.177684 0.04883,-0.414063 0.04737,-0.236378 0.158775,-0.479087 0.232422,-0.552734 a 0.75,0.75 0 0 0 0,-1.0625 0.75,0.75 0 0 0 -1.0625,0 C 9.542398,10.395102 9.4038051,10.901642 9.3261719,11.289063 9.2485386,11.676483 9.25,11.998047 9.25,11.998047 c 0,2.956641 2.623301,5.748047 5.892578,5.748047 h 1.714844 c 3.234267,0 5.892578,-2.570846 5.892578,-5.748047 0,-2.7378197 -1.969585,-5.0300869 -4.587891,-5.607422 C 17.741885,6.2979721 17.304689,6.25 16.857422,6.25 Z"
     id="path6" />
  <path
     style="color:#000000;fill:currentColor;stroke-linecap:round;stroke-linejoin:round;-inkscape-stroke:none"
     d="m 3,2.25 a 0.75,0.75 0 0 0 -0.53125,0.21875 0.75,0.75 0 0 0 0,1.0625 l 18,18 a 0.75,0.75 0 0 0 1.0625,0 0.75,0.75 0 0 0 0,-1.0625 l -18,-18 A 0.75,0.75 0 0 0 3,2.25 Z"
     id="path8" />
</svg>
