<?xml version="1.0" encoding="UTF-8" standalone="no"?>
<svg
   width="24"
   height="24"
   stroke-width="1.5"
   viewBox="0 0 24 24"
   fill="none"
   version="1.1"
   id="svg10"
   sodipodi:docname="linkedin.svg"
   inkscape:version="1.2.1 (9c6d41e410, 2022-07-14)"
   xmlns:inkscape="http://www.inkscape.org/namespaces/inkscape"
   xmlns:sodipodi="http://sodipodi.sourceforge.net/DTD/sodipodi-0.dtd"
   xmlns="http://www.w3.org/2000/svg"
   xmlns:svg="http://www.w3.org/2000/svg">
  <defs
     id="defs14" />
  <sodipodi:namedview
     id="namedview12"
     pagecolor="#ffffff"
     bordercolor="#666666"
     borderopacity="1.0"
     inkscape:showpageshadow="2"
     inkscape:pageopacity="0.0"
     inkscape:pagecheckerboard="0"
     inkscape:deskcolor="#d1d1d1"
     showgrid="false"
     inkscape:zoom="34.541667"
     inkscape:cx="10.364294"
     inkscape:cy="12.014475"
     inkscape:window-width="1920"
     inkscape:window-height="1009"
     inkscape:window-x="1912"
     inkscape:window-y="-8"
     inkscape:window-maximized="1"
     inkscape:current-layer="svg10" />
  <path
     style="color:#000000;fill:currentColor;stroke-linecap:round;stroke-linejoin:round;-inkscape-stroke:none"
     d="M 8,2.25 C 4.8332519,2.25 2.25,4.8332519 2.25,8 v 8 c 0,3.166731 2.5832482,5.75 5.75,5.75 h 8 c 3.166735,0 5.75,-2.583265 5.75,-5.75 V 8 C 21.75,4.8332482 19.166731,2.25 16,2.25 Z m 0,1.5 h 8 c 2.356063,0 4.25,1.8939173 4.25,4.25 v 8 c 0,2.35606 -1.89394,4.25 -4.25,4.25 H 8 C 5.6439173,20.25 3.75,18.356063 3.75,16 V 8 C 3.75,5.6439137 5.6439137,3.75 8,3.75 Z"
     id="path2" />
  <path
     style="color:#000000;fill:currentColor;stroke-linecap:round;stroke-linejoin:round;-inkscape-stroke:none"
     d="M 7,9.25 A 0.75,0.75 0 0 0 6.25,10 V 13.5 17 A 0.75,0.75 0 0 0 7,17.75 0.75,0.75 0 0 0 7.75,17 V 13.5 10 A 0.75,0.75 0 0 0 7,9.25 Z"
     id="path4" />
  <path
     style="color:#000000;fill:currentColor;stroke-linecap:round;stroke-linejoin:round;-inkscape-stroke:none"
     d="M 11,9.25 A 0.75,0.75 0 0 0 10.25,10 V 13.75 17 A 0.75,0.75 0 0 0 11,17.75 0.75,0.75 0 0 0 11.75,17 v -3.25 c 0,-0.737499 0.262892,-1.195639 0.667969,-1.533203 C 12.823046,11.879233 13.406251,11.6875 14,11.6875 c 0.593749,0 1.176954,0.191733 1.582031,0.529297 C 15.987108,12.554361 16.25,13.012501 16.25,13.75 V 17 A 0.75,0.75 0 0 0 17,17.75 0.75,0.75 0 0 0 17.75,17 v -3.25 c 0,-1.137499 -0.48711,-2.085612 -1.207031,-2.685547 C 15.823047,10.464518 14.906249,10.1875 14,10.1875 c -0.801784,0 -1.575407,0.309936 -2.25,0.775391 V 10 A 0.75,0.75 0 0 0 11,9.25 Z"
     id="path6" />
  <path
     style="color:#000000;fill:currentColor;stroke-linecap:round;stroke-linejoin:round;-inkscape-stroke:none"
     d="M 6.9707031,6.25 A 0.75,0.75 0 0 0 6.453125,6.4980469 l -0.00977,0.00977 a 0.75,0.75 0 0 0 0.054687,1.0605469 0.75,0.75 0 0 0 1.0585937,-0.056641 L 7.5683594,7.5 A 0.75,0.75 0 0 0 7.5117187,6.4414062 0.75,0.75 0 0 0 6.9707031,6.25 Z"
     id="path8" />
</svg>
