<?xml version="1.0" encoding="UTF-8" standalone="no"?>
<svg
   width="24"
   height="24"
   stroke-width="1.5"
   viewBox="0 0 24 24"
   fill="none"
   version="1.1"
   id="svg6"
   sodipodi:docname="link.svg"
   inkscape:version="1.2.1 (9c6d41e410, 2022-07-14)"
   xmlns:inkscape="http://www.inkscape.org/namespaces/inkscape"
   xmlns:sodipodi="http://sodipodi.sourceforge.net/DTD/sodipodi-0.dtd"
   xmlns="http://www.w3.org/2000/svg"
   xmlns:svg="http://www.w3.org/2000/svg">
  <defs
     id="defs10" />
  <sodipodi:namedview
     id="namedview8"
     pagecolor="#ffffff"
     bordercolor="#666666"
     borderopacity="1.0"
     inkscape:showpageshadow="2"
     inkscape:pageopacity="0.0"
     inkscape:pagecheckerboard="0"
     inkscape:deskcolor="#d1d1d1"
     showgrid="false"
     inkscape:zoom="34.541667"
     inkscape:cx="10.364294"
     inkscape:cy="12.014475"
     inkscape:window-width="1920"
     inkscape:window-height="1009"
     inkscape:window-x="1912"
     inkscape:window-y="-8"
     inkscape:window-maximized="1"
     inkscape:current-layer="svg6" />
  <path
     style="color:#000000;fill:currentColor;stroke-linecap:round;stroke-linejoin:round;-inkscape-stroke:none"
     d="M 7.1425781,6.25 C 3.9083779,6.25 1.25,8.8208553 1.25,11.998047 c 0,2.737826 1.969603,5.028141 4.5878906,5.605469 0.4203766,0.09275 0.8575346,0.142578 1.3046875,0.142578 a 0.75,0.75 0 0 0 0.75,-0.75 0.75,0.75 0 0 0 -0.75,-0.75 c -0.3384463,0 -0.665726,-0.03798 -0.9804687,-0.107422 C 4.1998616,15.706 2.75,14.017016 2.75,11.998047 2.75,9.6550839 4.696144,7.75 7.1425781,7.75 c 0.2761979,0 1.380129,0 1.7148438,0 C 11.239892,7.75 13.25,9.9712925 13.25,11.998047 a 0.75,0.75 0 0 0 0.75,0.75 0.75,0.75 0 0 0 0.75,-0.75 C 14.75,9.0414062 12.126666,6.25 8.8574219,6.25 c -0.3347446,0 -1.4386822,0 -1.7148438,0 z"
     id="path2" />
  <path
     style="color:#000000;fill:currentColor;stroke-linecap:round;stroke-linejoin:round;-inkscape-stroke:none"
     d="m 16.857422,6.25 a 0.75,0.75 0 0 0 -0.75,0.75 0.75,0.75 0 0 0 0.75,0.75 c 0.338332,0 0.665494,0.036022 0.980469,0.1054687 C 19.80018,8.2881526 21.25,9.9790712 21.25,11.998047 c 0,2.342993 -1.946051,4.248047 -4.392578,4.248047 h -1.714844 c -2.382517,0 -4.392578,-2.221293 -4.392578,-4.248047 a 0.75,0.75 0 0 0 -0.75,-0.75 0.75,0.75 0 0 0 -0.75,0.75 c 0,2.956641 2.623301,5.748047 5.892578,5.748047 h 1.714844 c 3.234267,0 5.892578,-2.570846 5.892578,-5.748047 0,-2.7378197 -1.969585,-5.0300869 -4.587891,-5.607422 C 17.741885,6.2979721 17.304689,6.25 16.857422,6.25 Z"
     id="path4" />
</svg>
