<?xml version="1.0" encoding="UTF-8" standalone="no"?>
<svg
   width="24"
   height="24"
   stroke-width="1.5"
   viewBox="0 0 24 24"
   fill="none"
   version="1.1"
   id="svg16"
   sodipodi:docname="linux.svg"
   inkscape:version="1.2.1 (9c6d41e410, 2022-07-14)"
   xmlns:inkscape="http://www.inkscape.org/namespaces/inkscape"
   xmlns:sodipodi="http://sodipodi.sourceforge.net/DTD/sodipodi-0.dtd"
   xmlns="http://www.w3.org/2000/svg"
   xmlns:svg="http://www.w3.org/2000/svg">
  <defs
     id="defs20" />
  <sodipodi:namedview
     id="namedview18"
     pagecolor="#ffffff"
     bordercolor="#666666"
     borderopacity="1.0"
     inkscape:showpageshadow="2"
     inkscape:pageopacity="0.0"
     inkscape:pagecheckerboard="0"
     inkscape:deskcolor="#d1d1d1"
     showgrid="false"
     inkscape:zoom="34.541667"
     inkscape:cx="10.364294"
     inkscape:cy="12.014475"
     inkscape:window-width="1920"
     inkscape:window-height="1009"
     inkscape:window-x="1912"
     inkscape:window-y="-8"
     inkscape:window-maximized="1"
     inkscape:current-layer="svg16" />
  <path
     style="color:#000000;fill:currentColor;stroke-linecap:round;-inkscape-stroke:none"
     d="M 12,3.25 C 7.2022775,3.25 3.75,7.0571468 3.75,11 v 7 c 0,0.783333 -0.6500006,1.25 -1.25,1.25 A 0.75,0.75 0 0 0 1.75,20 0.75,0.75 0 0 0 2.5,20.75 c 1.3999986,0 2.75,-1.133335 2.75,-2.75 V 11 C 5.25,7.9428602 7.9977313,4.75 12,4.75 A 0.75,0.75 0 0 0 12.75,4 0.75,0.75 0 0 0 12,3.25 Z"
     id="path2" />
  <path
     style="color:#000000;fill:currentColor;stroke-linecap:round;-inkscape-stroke:none"
     d="M 12,3.25 A 0.75,0.75 0 0 0 11.25,4 0.75,0.75 0 0 0 12,4.75 c 4.002269,0 6.75,3.1928602 6.75,6.25 v 7 c 0,1.616665 1.350001,2.75 2.75,2.75 A 0.75,0.75 0 0 0 22.25,20 0.75,0.75 0 0 0 21.5,19.25 c -0.599999,0 -1.25,-0.466667 -1.25,-1.25 V 11 C 20.25,7.0571468 16.797722,3.25 12,3.25 Z"
     id="path4" />
  <path
     style="color:#000000;fill:currentColor;stroke-linecap:round;stroke-linejoin:round;-inkscape-stroke:none"
     d="m 12,13.25 c -1.482042,0 -2.8297881,0.289893 -3.8710937,0.810547 C 7.0876006,14.581201 6.25,15.404317 6.25,16.5 c 0,1.095683 0.8376006,1.918799 1.8789063,2.439453 C 9.1702119,19.460107 10.517958,19.75 12,19.75 c 1.482033,0 2.829786,-0.289893 3.871094,-0.810547 C 16.912401,18.418799 17.75,17.595687 17.75,16.5 17.75,15.404313 16.912401,14.581201 15.871094,14.060547 14.829786,13.539893 13.482033,13.25 12,13.25 Z m 0,1.5 c 1.279364,0 2.430878,0.268173 3.199219,0.652344 C 15.96756,15.786514 16.25,16.214988 16.25,16.5 c 0,0.285012 -0.28244,0.713486 -1.050781,1.097656 C 14.430878,17.981827 13.279364,18.25 12,18.25 10.720625,18.25 9.5691188,17.981826 8.8007813,17.597656 8.0324437,17.213486 7.75,16.785015 7.75,16.5 7.75,16.214985 8.0324437,15.786514 8.8007813,15.402344 9.5691188,15.018174 10.720625,14.75 12,14.75 Z"
     id="path6" />
  <path
     style="color:#000000;fill:currentColor;stroke-linecap:round;stroke-linejoin:round;-inkscape-stroke:none"
     d="M 9.5,8.25 C 8.5259151,8.25 7.6783792,8.809645 7.1210937,9.5898438 6.5638083,10.370042 6.25,11.38874 6.25,12.5 c 0,1.12599 0.3230914,2.157396 0.8945312,2.941406 a 0.75,0.75 0 0 0 1.0468751,0.164063 0.75,0.75 0 0 0 0.1660156,-1.046875 C 8.0027626,14.072005 7.75,13.332608 7.75,12.5 7.75,11.678262 7.9942607,10.947488 8.3417969,10.460938 8.689333,9.9743875 9.0933762,9.75 9.5,9.75 c 0.4066167,0 0.810665,0.2243867 1.158203,0.710938 C 11.005741,10.947488 11.25,11.678263 11.25,12.5 c 0,0.387218 -0.05278,0.754984 -0.146484,1.085938 a 0.75,0.75 0 0 0 0.517578,0.925781 0.75,0.75 0 0 0 0.925781,-0.517578 C 12.67917,13.526895 12.75,13.023581 12.75,12.5 12.75,11.388739 12.436193,10.370042 11.878906,9.5898438 11.32162,8.8096458 10.474082,8.25 9.5,8.25 Z"
     id="path8" />
  <path
     style="color:#000000;fill:currentColor;stroke-linecap:round;stroke-linejoin:round;-inkscape-stroke:none"
     d="m 14.5,8.25 c -0.974082,0 -1.82162,0.5596458 -2.378906,1.3398438 C 11.563807,10.370042 11.25,11.388739 11.25,12.5 c 0,0.523581 0.07083,1.026895 0.203125,1.494141 a 0.75,0.75 0 0 0 0.925781,0.517578 0.75,0.75 0 0 0 0.517578,-0.925781 C 12.802779,13.254984 12.75,12.887218 12.75,12.5 c 0,-0.821737 0.244259,-1.552512 0.591797,-2.039062 C 13.689335,9.9743867 14.093383,9.75 14.5,9.75 c 0.406617,0 0.810665,0.2243867 1.158203,0.710938 C 16.005741,10.947488 16.25,11.678263 16.25,12.5 c 0,0.832613 -0.252736,1.572021 -0.607422,2.058594 a 0.75,0.75 0 0 0 0.166016,1.046875 0.75,0.75 0 0 0 1.046875,-0.164063 C 17.426982,14.65738 17.75,13.625985 17.75,12.5 17.75,11.388739 17.436193,10.370042 16.878906,9.5898438 16.32162,8.8096458 15.474082,8.25 14.5,8.25 Z"
     id="path10" />
  <path
     style="color:#000000;fill:currentColor;stroke-linecap:round;stroke-linejoin:round;-inkscape-stroke:none"
     d="M 9.5,11.25 A 0.75,0.75 0 0 0 8.75,12 v 2 A 0.75,0.75 0 0 0 9.5,14.75 0.75,0.75 0 0 0 10.25,14 V 12 A 0.75,0.75 0 0 0 9.5,11.25 Z"
     id="path12" />
  <path
     style="color:#000000;fill:currentColor;stroke-linecap:round;stroke-linejoin:round;-inkscape-stroke:none"
     d="M 14.5,11.25 A 0.75,0.75 0 0 0 13.75,12 v 2 A 0.75,0.75 0 0 0 14.5,14.75 0.75,0.75 0 0 0 15.25,14 V 12 A 0.75,0.75 0 0 0 14.5,11.25 Z"
     id="path14" />
</svg>
