<?xml version="1.0" encoding="UTF-8" standalone="no"?>
<svg
   width="24"
   height="24"
   viewBox="0 0 24 24"
   stroke-width="1.5"
   fill="none"
   version="1.1"
   id="svg14"
   sodipodi:docname="litecoin-rotate-out.svg"
   inkscape:version="1.2.1 (9c6d41e410, 2022-07-14)"
   xmlns:inkscape="http://www.inkscape.org/namespaces/inkscape"
   xmlns:sodipodi="http://sodipodi.sourceforge.net/DTD/sodipodi-0.dtd"
   xmlns="http://www.w3.org/2000/svg"
   xmlns:svg="http://www.w3.org/2000/svg">
  <defs
     id="defs18" />
  <sodipodi:namedview
     id="namedview16"
     pagecolor="#ffffff"
     bordercolor="#666666"
     borderopacity="1.0"
     inkscape:showpageshadow="2"
     inkscape:pageopacity="0.0"
     inkscape:pagecheckerboard="0"
     inkscape:deskcolor="#d1d1d1"
     showgrid="false"
     inkscape:zoom="34.541667"
     inkscape:cx="10.364294"
     inkscape:cy="12.014475"
     inkscape:window-width="1920"
     inkscape:window-height="1009"
     inkscape:window-x="1912"
     inkscape:window-y="-8"
     inkscape:window-maximized="1"
     inkscape:current-layer="svg14" />
  <path
     style="color:#000000;fill:currentColor;stroke-linecap:round;stroke-linejoin:round;-inkscape-stroke:none"
     d="M 12,1.25 C 6.434132,1.25 1.841933,5.494977 1.3027344,10.925781 a 0.75,0.75 0 0 0 0.671875,0.820313 0.75,0.75 0 0 0 0.8203125,-0.671875 C 3.2591623,6.3983931 7.1952584,2.75 12,2.75 c 3.799749,0 7.053674,2.2853793 8.480469,5.5507813 A 0.75,0.75 0 0 0 21.46875,8.6875 0.75,0.75 0 0 0 21.855469,7.6992187 C 20.195867,3.9010078 16.401643,1.25 12,1.25 Z"
     id="path2" />
  <path
     style="color:#000000;fill:currentColor;stroke-linecap:round;stroke-linejoin:round;-inkscape-stroke:none"
     d="M 22,3.25 A 0.75,0.75 0 0 0 21.25,4 V 7.25 H 18 A 0.75,0.75 0 0 0 17.25,8 0.75,0.75 0 0 0 18,8.75 h 3.400391 C 22.137086,8.75 22.75,8.137047 22.75,7.4003906 V 4 A 0.75,0.75 0 0 0 22,3.25 Z"
     id="path4" />
  <path
     style="color:#000000;fill:currentColor;stroke-linecap:round;stroke-linejoin:round;-inkscape-stroke:none"
     d="m 22.074219,12.253906 a 0.75,0.75 0 0 0 -0.820313,0.671875 C 20.789685,17.601579 16.853557,21.25 12.048828,21.25 8.2491235,21.25 4.9950717,18.964592 3.5683594,15.699219 A 0.75,0.75 0 0 0 2.5820313,15.3125 0.75,0.75 0 0 0 2.1933594,16.300781 C 3.852884,20.099001 7.647221,22.75 12.048828,22.75 c 5.565861,0 10.158088,-4.244989 10.697266,-9.675781 a 0.75,0.75 0 0 0 -0.671875,-0.820313 z"
     id="path6" />
  <path
     style="color:#000000;fill:currentColor;stroke-linecap:round;stroke-linejoin:round;-inkscape-stroke:none"
     d="m 2.6484375,15.25 c -0.7366564,0 -1.3496094,0.612914 -1.3496094,1.349609 V 20 a 0.75,0.75 0 0 0 0.75,0.75 0.75,0.75 0 0 0 0.75,-0.75 v -3.25 h 3.25 a 0.75,0.75 0 0 0 0.75,-0.75 0.75,0.75 0 0 0 -0.75,-0.75 z"
     id="path8" />
  <path
     style="color:#000000;fill:currentColor;stroke-linecap:round;-inkscape-stroke:none"
     d="M 10.5,6.25 A 0.75,0.75 0 0 0 9.75,7 v 9.400391 C 9.75,17.13704 10.36296,17.75 11.099609,17.75 H 15.5 A 0.75,0.75 0 0 0 16.25,17 0.75,0.75 0 0 0 15.5,16.25 H 11.25 V 7 A 0.75,0.75 0 0 0 10.5,6.25 Z"
     id="path10" />
  <path
     style="color:#000000;fill:currentColor;stroke-linecap:round;stroke-linejoin:round;-inkscape-stroke:none"
     d="m 13.269531,10.300781 a 0.75,0.75 0 0 0 -0.574218,0.01367 l -4.5000005,2 a 0.75,0.75 0 0 0 -0.3808594,0.990235 0.75,0.75 0 0 0 0.9902344,0.380859 l 4.5000005,-2 a 0.75,0.75 0 0 0 0.380859,-0.990234 0.75,0.75 0 0 0 -0.416016,-0.394532 z"
     id="path12" />
</svg>
