<?xml version="1.0" encoding="UTF-8" standalone="no"?>
<svg
   width="24"
   height="24"
   stroke-width="1.5"
   viewBox="0 0 24 24"
   fill="none"
   version="1.1"
   id="svg4"
   sodipodi:docname="lock.svg"
   inkscape:version="1.2.1 (9c6d41e410, 2022-07-14)"
   xmlns:inkscape="http://www.inkscape.org/namespaces/inkscape"
   xmlns:sodipodi="http://sodipodi.sourceforge.net/DTD/sodipodi-0.dtd"
   xmlns="http://www.w3.org/2000/svg"
   xmlns:svg="http://www.w3.org/2000/svg">
  <defs
     id="defs8" />
  <sodipodi:namedview
     id="namedview6"
     pagecolor="#ffffff"
     bordercolor="#666666"
     borderopacity="1.0"
     inkscape:showpageshadow="2"
     inkscape:pageopacity="0.0"
     inkscape:pagecheckerboard="0"
     inkscape:deskcolor="#d1d1d1"
     showgrid="false"
     inkscape:zoom="34.541667"
     inkscape:cx="10.364294"
     inkscape:cy="12.014475"
     inkscape:window-width="1920"
     inkscape:window-height="1009"
     inkscape:window-x="1912"
     inkscape:window-y="-8"
     inkscape:window-maximized="1"
     inkscape:current-layer="svg4" />
  <path
     style="color:#000000;fill:currentColor;stroke-linecap:round;stroke-linejoin:round;-inkscape-stroke:none"
     d="M 12,3.25 C 10.191668,3.25 8.911468,4.0624137 8.1914063,5.0625 7.4713445,6.0625863 7.25,7.1833354 7.25,8 v 3.25 H 6.5996094 C 5.862953,11.25 5.25,11.862914 5.25,12.599609 v 6.800782 C 5.25,20.137086 5.862953,20.75 6.5996094,20.75 H 17.400391 C 18.13704,20.75 18.75,20.13704 18.75,19.400391 V 12.599609 C 18.75,11.86296 18.13704,11.25 17.400391,11.25 H 16.75 V 8 C 16.75,7.1833354 16.528656,6.0625863 15.808594,5.0625 15.088532,4.0624137 13.808332,3.25 12,3.25 Z m 0,1.5 c 1.391665,0 2.11186,0.5209204 2.591797,1.1875 C 15.071734,6.6040796 15.25,7.4833359 15.25,8 v 3.25 H 8.75 V 8 C 8.75,7.4833359 8.9282661,6.6040796 9.4082031,5.9375 9.8881402,5.2709204 10.608335,4.75 12,4.75 Z m -5.25,8 H 8 h 8 1.25 v 6.5 H 6.75 Z"
     id="path2" />
</svg>
