<?xml version="1.0" encoding="UTF-8" standalone="no"?>
<svg
   width="24"
   height="24"
   stroke-width="1.5"
   viewBox="0 0 24 24"
   fill="none"
   version="1.1"
   id="svg6"
   sodipodi:docname="long-arrow-down-left.svg"
   inkscape:version="1.2.1 (9c6d41e410, 2022-07-14)"
   xmlns:inkscape="http://www.inkscape.org/namespaces/inkscape"
   xmlns:sodipodi="http://sodipodi.sourceforge.net/DTD/sodipodi-0.dtd"
   xmlns="http://www.w3.org/2000/svg"
   xmlns:svg="http://www.w3.org/2000/svg">
  <defs
     id="defs10" />
  <sodipodi:namedview
     id="namedview8"
     pagecolor="#ffffff"
     bordercolor="#666666"
     borderopacity="1.0"
     inkscape:showpageshadow="2"
     inkscape:pageopacity="0.0"
     inkscape:pagecheckerboard="0"
     inkscape:deskcolor="#d1d1d1"
     showgrid="false"
     inkscape:zoom="34.541667"
     inkscape:cx="10.364294"
     inkscape:cy="12.014475"
     inkscape:window-width="1920"
     inkscape:window-height="1009"
     inkscape:window-x="1912"
     inkscape:window-y="-8"
     inkscape:window-maximized="1"
     inkscape:current-layer="svg6" />
  <path
     style="color:#000000;fill:currentColor;stroke-linecap:round;stroke-linejoin:round;-inkscape-stroke:none"
     d="m 10.25,11.5 a 0.75,0.75 0 0 0 -0.53125,0.21875 l -3.5,3.5 a 0.750075,0.750075 0 0 0 0,1.0625 l 3.5,3.5 a 0.75,0.75 0 0 0 1.0625,0 0.75,0.75 0 0 0 0,-1.0625 L 7.8125,15.75 10.78125,12.78125 a 0.75,0.75 0 0 0 0,-1.0625 A 0.75,0.75 0 0 0 10.25,11.5 Z"
     id="path2" />
  <path
     style="color:#000000;fill:currentColor;stroke-linecap:round;stroke-linejoin:round;-inkscape-stroke:none"
     d="M 16.75,4 A 0.75,0.75 0 0 0 16,4.75 v 7 C 16,13.553752 14.553752,15 12.75,15 h -6 A 0.75,0.75 0 0 0 6,15.75 0.75,0.75 0 0 0 6.75,16.5 h 6 c 2.614443,0 4.75,-2.135557 4.75,-4.75 v -7 A 0.75,0.75 0 0 0 16.75,4 Z"
     id="path4" />
</svg>
