<?xml version="1.0" encoding="UTF-8" standalone="no"?>
<svg
   width="24"
   height="24"
   viewBox="0 0 24 24"
   stroke-width="1.5"
   fill="none"
   version="1.1"
   id="svg6"
   sodipodi:docname="lullaby.svg"
   inkscape:version="1.2.1 (9c6d41e410, 2022-07-14)"
   xmlns:inkscape="http://www.inkscape.org/namespaces/inkscape"
   xmlns:sodipodi="http://sodipodi.sourceforge.net/DTD/sodipodi-0.dtd"
   xmlns="http://www.w3.org/2000/svg"
   xmlns:svg="http://www.w3.org/2000/svg">
  <defs
     id="defs10" />
  <sodipodi:namedview
     id="namedview8"
     pagecolor="#ffffff"
     bordercolor="#666666"
     borderopacity="1.0"
     inkscape:showpageshadow="2"
     inkscape:pageopacity="0.0"
     inkscape:pagecheckerboard="0"
     inkscape:deskcolor="#d1d1d1"
     showgrid="false"
     inkscape:zoom="34.541667"
     inkscape:cx="10.364294"
     inkscape:cy="12.014475"
     inkscape:window-width="1920"
     inkscape:window-height="1009"
     inkscape:window-x="1912"
     inkscape:window-y="-8"
     inkscape:window-maximized="1"
     inkscape:current-layer="svg6" />
  <path
     style="color:#000000;fill:currentColor;stroke-linecap:round;stroke-linejoin:round;-inkscape-stroke:none"
     d="M 7.9394531,2.328125 C 4.5656475,4.0047636 2.25,7.4902526 2.25,11.505859 2.25,17.154281 6.84576,21.75 12.494141,21.75 c 4.015651,0 7.501135,-2.315641 9.177734,-5.689453 A 0.750075,0.750075 0 0 0 21,14.976563 c -4.129295,-1e-6 -7.082778,-1.012464 -9.023437,-2.953125 C 10.035903,10.082776 9.0234375,7.1292954 9.0234375,3 A 0.750075,0.750075 0 0 0 7.9394531,2.328125 Z M 7.7070312,4.2851562 c 0.216501,3.7027722 1.1666863,6.7565278 3.2089848,8.7988278 2.042298,2.042301 5.096056,2.992483 8.798828,3.208985 C 18.149704,18.648508 15.541033,20.25 12.494141,20.25 7.6564117,20.25 3.75,16.343628 3.75,11.505859 3.75,8.4590158 5.3514852,5.8503262 7.7070312,4.2851562 Z"
     id="path2" />
  <path
     style="color:#000000;fill:currentColor;stroke-linecap:round;-inkscape-stroke:none"
     d="M 19.599609,2.25 C 18.862914,2.25 18.25,2.862953 18.25,3.5996094 V 7.5625 C 17.99344,7.4596859 17.791331,7.25 17.5,7.25 c -1.23374,0 -2.25,1.0162262 -2.25,2.25 0,1.233758 1.016242,2.25 2.25,2.25 1.02657,0 1.762085,-0.769758 2.027344,-1.716797 A 0.75,0.75 0 0 0 19.75,9.5 V 3.75 H 21 A 0.75,0.75 0 0 0 21.75,3 0.75,0.75 0 0 0 21,2.25 Z M 17.5,8.75 c 0.423058,0 0.75,0.3269155 0.75,0.75 0,0.4230398 -0.32696,0.75 -0.75,0.75 -0.42304,0 -0.75,-0.3269602 -0.75,-0.75 0,-0.4230845 0.326942,-0.75 0.75,-0.75 z"
     id="path4" />
</svg>
