<?xml version="1.0" encoding="UTF-8" standalone="no"?>
<svg
   width="24"
   height="24"
   stroke-width="1.5"
   viewBox="0 0 24 24"
   fill="none"
   version="1.1"
   id="svg14"
   sodipodi:docname="mac-dock.svg"
   inkscape:version="1.3.1 (91b66b0783, 2023-11-16)"
   xmlns:inkscape="http://www.inkscape.org/namespaces/inkscape"
   xmlns:sodipodi="http://sodipodi.sourceforge.net/DTD/sodipodi-0.dtd"
   xmlns="http://www.w3.org/2000/svg"
   xmlns:svg="http://www.w3.org/2000/svg">
  <defs
     id="defs18" />
  <sodipodi:namedview
     id="namedview16"
     pagecolor="#ffffff"
     bordercolor="#666666"
     borderopacity="1.0"
     inkscape:showpageshadow="2"
     inkscape:pageopacity="0.0"
     inkscape:pagecheckerboard="0"
     inkscape:deskcolor="#d1d1d1"
     showgrid="false"
     inkscape:zoom="34.541667"
     inkscape:cx="10.364294"
     inkscape:cy="12.02895"
     inkscape:window-width="1920"
     inkscape:window-height="1009"
     inkscape:window-x="1912"
     inkscape:window-y="-8"
     inkscape:window-maximized="1"
     inkscape:current-layer="svg14" />
  <circle
     style="fill:#000000;stroke-width:2.27213;stroke-linecap:round;stroke-linejoin:round"
     id="circle3"
     cx="16"
     cy="16.5"
     r="1.25" />
  <circle
     style="fill:#000000;stroke-width:2.27213;stroke-linecap:round;stroke-linejoin:round"
     id="circle2"
     cx="12"
     cy="16.5"
     r="1.25" />
  <circle
     style="fill:#000000;stroke-width:2.27213;stroke-linecap:round;stroke-linejoin:round"
     id="path1"
     cx="8"
     cy="16.5"
     r="1.25" />
  <path
     style="color:#000000;fill:currentColor;stroke-linecap:round;stroke-linejoin:round;-inkscape-stroke:none"
     d="M 3,2.25 C 2.0423831,2.25 1.25,3.0423831 1.25,4 v 16 c 0,0.957622 0.7924012,1.75 1.75,1.75 h 18 c 0.957604,0 1.75,-0.792396 1.75,-1.75 V 4 C 22.75,3.0424012 21.957622,2.25 21,2.25 Z m 0,1.5 h 18 c 0.146977,0 0.25,0.1030399 0.25,0.25 v 16 c 0,0.146995 -0.103005,0.25 -0.25,0.25 H 3 C 2.8530399,20.25 2.75,20.146977 2.75,20 V 4 C 2.75,3.853058 2.853058,3.75 3,3.75 Z"
     id="path8" />
  <path
     style="color:#000000;fill:currentColor;stroke-linecap:round;stroke-linejoin:round;-inkscape-stroke:none"
     d="m 3.6640625,15.830078 -2,1 a 0.75,0.75 0 0 0 -0.3339844,1.005859 0.75,0.75 0 0 0 1.0058594,0.333985 l 2,-1 a 0.75,0.75 0 0 0 0.3339844,-1.00586 0.75,0.75 0 0 0 -1.0058594,-0.333984 z"
     id="path10" />
  <path
     style="color:#000000;fill:currentColor;stroke-linecap:round;stroke-linejoin:round;-inkscape-stroke:none"
     d="m 19.763672,15.789063 a 0.75,0.75 0 0 0 -0.433594,0.374999 0.75,0.75 0 0 0 0.333984,1.00586 l 2,1 a 0.75,0.75 0 0 0 1.00586,-0.333985 0.75,0.75 0 0 0 -0.333985,-1.005859 l -2,-1 a 0.75,0.75 0 0 0 -0.572265,-0.04101 z"
     id="path12" />
</svg>
