<?xml version="1.0" encoding="UTF-8" standalone="no"?>
<svg
   width="24"
   height="24"
   stroke-width="1.5"
   viewBox="0 0 24 24"
   fill="none"
   version="1.1"
   id="svg14"
   sodipodi:docname="mac-dock.svg"
   inkscape:version="1.2.1 (9c6d41e410, 2022-07-14)"
   xmlns:inkscape="http://www.inkscape.org/namespaces/inkscape"
   xmlns:sodipodi="http://sodipodi.sourceforge.net/DTD/sodipodi-0.dtd"
   xmlns="http://www.w3.org/2000/svg"
   xmlns:svg="http://www.w3.org/2000/svg">
  <defs
     id="defs18" />
  <sodipodi:namedview
     id="namedview16"
     pagecolor="#ffffff"
     bordercolor="#666666"
     borderopacity="1.0"
     inkscape:showpageshadow="2"
     inkscape:pageopacity="0.0"
     inkscape:pagecheckerboard="0"
     inkscape:deskcolor="#d1d1d1"
     showgrid="false"
     inkscape:zoom="34.541667"
     inkscape:cx="10.364294"
     inkscape:cy="12.014475"
     inkscape:window-width="1920"
     inkscape:window-height="1009"
     inkscape:window-x="1912"
     inkscape:window-y="-8"
     inkscape:window-maximized="1"
     inkscape:current-layer="svg14" />
  <g
     id="path2">
    <path
       style="color:#000000;fill:currentColor;stroke-width:1.5;stroke-linecap:round;stroke-linejoin:round;-inkscape-stroke:none"
       d="M 8,17 C 7.72386,17 7.5,16.7761 7.5,16.5 7.5,16.2239 7.72386,16 8,16 8.27614,16 8.5,16.2239 8.5,16.5 8.5,16.7761 8.27614,17 8,17 Z"
       id="path219" />
    <path
       style="color:#000000;fill:currentColor;stroke-linecap:round;stroke-linejoin:round;-inkscape-stroke:none"
       d="m 8,15.25 c -0.6815496,0 -1.25,0.568504 -1.25,1.25 0,0.681496 0.5684504,1.25 1.25,1.25 0.6815496,0 1.25,-0.568504 1.25,-1.25 0,-0.681496 -0.5684504,-1.25 -1.25,-1.25 z m 0,1 c 0.1292702,0 0.25,0.120704 0.25,0.25 0,0.129296 -0.1207298,0.25 -0.25,0.25 -0.1292702,0 -0.25,-0.120704 -0.25,-0.25 0,-0.129296 0.1207298,-0.25 0.25,-0.25 z"
       id="path221" />
  </g>
  <g
     id="path4">
    <path
       style="color:#000000;fill:currentColor;stroke-width:1.5;stroke-linecap:round;stroke-linejoin:round;-inkscape-stroke:none"
       d="m 12,17 c -0.2761,0 -0.5,-0.2239 -0.5,-0.5 0,-0.2761 0.2239,-0.5 0.5,-0.5 0.2761,0 0.5,0.2239 0.5,0.5 0,0.2761 -0.2239,0.5 -0.5,0.5 z"
       id="path213" />
    <path
       style="color:#000000;fill:currentColor;stroke-linecap:round;stroke-linejoin:round;-inkscape-stroke:none"
       d="m 12,15.25 c -0.681568,0 -1.25,0.568432 -1.25,1.25 0,0.681568 0.568432,1.25 1.25,1.25 0.681568,0 1.25,-0.568432 1.25,-1.25 0,-0.681568 -0.568432,-1.25 -1.25,-1.25 z m 0,1 c 0.129369,0 0.25,0.120631 0.25,0.25 0,0.129369 -0.120631,0.25 -0.25,0.25 -0.129369,0 -0.25,-0.120631 -0.25,-0.25 0,-0.129369 0.120631,-0.25 0.25,-0.25 z"
       id="path215" />
  </g>
  <g
     id="path6">
    <path
       style="color:#000000;fill:currentColor;stroke-width:1.5;stroke-linecap:round;stroke-linejoin:round;-inkscape-stroke:none"
       d="m 16,17 c -0.2761,0 -0.5,-0.2239 -0.5,-0.5 0,-0.2761 0.2239,-0.5 0.5,-0.5 0.2761,0 0.5,0.2239 0.5,0.5 0,0.2761 -0.2239,0.5 -0.5,0.5 z"
       id="path207" />
    <path
       style="color:#000000;fill:currentColor;stroke-linecap:round;stroke-linejoin:round;-inkscape-stroke:none"
       d="m 16,15.25 c -0.681568,0 -1.25,0.568432 -1.25,1.25 0,0.681568 0.568432,1.25 1.25,1.25 0.681568,0 1.25,-0.568432 1.25,-1.25 0,-0.681568 -0.568432,-1.25 -1.25,-1.25 z m 0,1 c 0.129369,0 0.25,0.120631 0.25,0.25 0,0.129369 -0.120631,0.25 -0.25,0.25 -0.129369,0 -0.25,-0.120631 -0.25,-0.25 0,-0.129369 0.120631,-0.25 0.25,-0.25 z"
       id="path209" />
  </g>
  <path
     style="color:#000000;fill:currentColor;stroke-linecap:round;stroke-linejoin:round;-inkscape-stroke:none"
     d="M 3,2.25 C 2.0423831,2.25 1.25,3.0423831 1.25,4 v 16 c 0,0.957622 0.7924012,1.75 1.75,1.75 h 18 c 0.957604,0 1.75,-0.792396 1.75,-1.75 V 4 C 22.75,3.0424012 21.957622,2.25 21,2.25 Z m 0,1.5 h 18 c 0.146977,0 0.25,0.1030399 0.25,0.25 v 16 c 0,0.146995 -0.103005,0.25 -0.25,0.25 H 3 C 2.8530399,20.25 2.75,20.146977 2.75,20 V 4 C 2.75,3.853058 2.853058,3.75 3,3.75 Z"
     id="path8" />
  <path
     style="color:#000000;fill:currentColor;stroke-linecap:round;stroke-linejoin:round;-inkscape-stroke:none"
     d="m 3.6640625,15.830078 -2,1 a 0.75,0.75 0 0 0 -0.3339844,1.005859 0.75,0.75 0 0 0 1.0058594,0.333985 l 2,-1 a 0.75,0.75 0 0 0 0.3339844,-1.00586 0.75,0.75 0 0 0 -1.0058594,-0.333984 z"
     id="path10" />
  <path
     style="color:#000000;fill:currentColor;stroke-linecap:round;stroke-linejoin:round;-inkscape-stroke:none"
     d="m 19.763672,15.789063 a 0.75,0.75 0 0 0 -0.433594,0.374999 0.75,0.75 0 0 0 0.333984,1.00586 l 2,1 a 0.75,0.75 0 0 0 1.00586,-0.333985 0.75,0.75 0 0 0 -0.333985,-1.005859 l -2,-1 a 0.75,0.75 0 0 0 -0.572265,-0.04101 z"
     id="path12" />
</svg>
