<?xml version="1.0" encoding="UTF-8" standalone="no"?>
<svg
   width="24"
   height="24"
   viewBox="0 0 24 24"
   stroke-width="1.5"
   fill="none"
   version="1.1"
   id="svg8"
   sodipodi:docname="magic-wand.svg"
   inkscape:version="1.2.1 (9c6d41e410, 2022-07-14)"
   xmlns:inkscape="http://www.inkscape.org/namespaces/inkscape"
   xmlns:sodipodi="http://sodipodi.sourceforge.net/DTD/sodipodi-0.dtd"
   xmlns="http://www.w3.org/2000/svg"
   xmlns:svg="http://www.w3.org/2000/svg">
  <defs
     id="defs12" />
  <sodipodi:namedview
     id="namedview10"
     pagecolor="#ffffff"
     bordercolor="#666666"
     borderopacity="1.0"
     inkscape:showpageshadow="2"
     inkscape:pageopacity="0.0"
     inkscape:pagecheckerboard="0"
     inkscape:deskcolor="#d1d1d1"
     showgrid="false"
     inkscape:zoom="34.541667"
     inkscape:cx="10.364294"
     inkscape:cy="12.014475"
     inkscape:window-width="1920"
     inkscape:window-height="1009"
     inkscape:window-x="1912"
     inkscape:window-y="-8"
     inkscape:window-maximized="1"
     inkscape:current-layer="svg8" />
  <path
     style="color:#000000;fill:currentColor;stroke-linecap:round;stroke-linejoin:round;-inkscape-stroke:none"
     d="m 18,5.25 a 0.75,0.75 0 0 0 -0.53125,0.21875 l -2.5,2.5 a 0.75,0.75 0 0 0 0,1.0625 0.75,0.75 0 0 0 1.0625,0 l 2.5,-2.5 a 0.75,0.75 0 0 0 0,-1.0625 A 0.75,0.75 0 0 0 18,5.25 Z m -5,5 a 0.75,0.75 0 0 0 -0.53125,0.21875 l -10,10 a 0.75,0.75 0 0 0 0,1.0625 0.75,0.75 0 0 0 1.0625,0 l 10,-10 a 0.75,0.75 0 0 0 0,-1.0625 A 0.75,0.75 0 0 0 13,10.25 Z"
     id="path2" />
  <path
     style="color:#000000;fill:currentColor;stroke-linejoin:round;-inkscape-stroke:none"
     d="M 9.5,1.25 A 0.750075,0.750075 0 0 0 8.796875,1.7402344 L 7.9707031,3.9707031 5.7402344,4.796875 a 0.750075,0.750075 0 0 0 0,1.40625 L 7.9707031,7.0292969 8.796875,9.2597656 a 0.750075,0.750075 0 0 0 1.40625,0 L 11.029297,7.0292969 13.259766,6.203125 a 0.750075,0.750075 0 0 0 0,-1.40625 L 11.029297,3.9707031 10.203125,1.7402344 A 0.750075,0.750075 0 0 0 9.5,1.25 Z m 0,2.9101562 0.2421875,0.6542969 A 0.750075,0.750075 0 0 0 10.185547,5.2578125 L 10.839844,5.5 10.185547,5.7421875 A 0.750075,0.750075 0 0 0 9.7421875,6.1855469 L 9.5,6.8398437 9.2578125,6.1855469 A 0.750075,0.750075 0 0 0 8.8144531,5.7421875 L 8.1601563,5.5 8.8144531,5.2578125 A 0.750075,0.750075 0 0 0 9.2578125,4.8144531 Z"
     id="path4" />
  <path
     style="color:#000000;fill:currentColor;stroke-linejoin:round;-inkscape-stroke:none"
     d="m 19,9.25 a 0.750075,0.750075 0 0 0 -0.703125,0.4902344 l -0.419922,1.1367186 -1.136719,0.419922 a 0.750075,0.750075 0 0 0 0,1.40625 l 1.136719,0.419922 0.419922,1.136719 a 0.750075,0.750075 0 0 0 1.40625,0 l 0.419922,-1.136719 1.136719,-0.419922 a 0.750075,0.750075 0 0 0 0,-1.40625 L 20.123047,10.876953 19.703125,9.7402344 A 0.750075,0.750075 0 0 0 19,9.25 Z m 0,2.634766 A 0.750075,0.750075 0 0 0 19.115234,12 0.750075,0.750075 0 0 0 19,12.115234 0.750075,0.750075 0 0 0 18.884766,12 0.750075,0.750075 0 0 0 19,11.884766 Z"
     id="path6" />
</svg>
