<?xml version="1.0" encoding="UTF-8" standalone="no"?>
<svg
   width="24"
   stroke-width="1.5"
   height="24"
   viewBox="0 0 24 24"
   fill="none"
   version="1.1"
   id="svg10"
   sodipodi:docname="magnet.svg"
   inkscape:version="1.2.1 (9c6d41e410, 2022-07-14)"
   xmlns:inkscape="http://www.inkscape.org/namespaces/inkscape"
   xmlns:sodipodi="http://sodipodi.sourceforge.net/DTD/sodipodi-0.dtd"
   xmlns="http://www.w3.org/2000/svg"
   xmlns:svg="http://www.w3.org/2000/svg">
  <defs
     id="defs14" />
  <sodipodi:namedview
     id="namedview12"
     pagecolor="#ffffff"
     bordercolor="#666666"
     borderopacity="1.0"
     inkscape:showpageshadow="2"
     inkscape:pageopacity="0.0"
     inkscape:pagecheckerboard="0"
     inkscape:deskcolor="#d1d1d1"
     showgrid="false"
     inkscape:zoom="34.541667"
     inkscape:cx="10.364294"
     inkscape:cy="12.014475"
     inkscape:window-width="1920"
     inkscape:window-height="1009"
     inkscape:window-x="1912"
     inkscape:window-y="-8"
     inkscape:window-maximized="1"
     inkscape:current-layer="svg10" />
  <path
     style="color:#000000;fill:currentColor;stroke-linecap:round;stroke-linejoin:round;-inkscape-stroke:none"
     d="M 4,3.25 A 0.75,0.75 0 0 0 3.25,4 v 8.296875 C 3.25,16.972394 7.1914032,20.75 12,20.75 c 4.808615,0 8.75,-3.777609 8.75,-8.453125 V 4 A 0.75,0.75 0 0 0 20,3.25 0.75,0.75 0 0 0 19.25,4 v 8.296875 C 19.25,16.13055 16.027976,19.25 12,19.25 7.9720456,19.25 4.75,16.130548 4.75,12.296875 V 4 A 0.75,0.75 0 0 0 4,3.25 Z"
     id="path2" />
  <path
     style="color:#000000;fill:currentColor;stroke-linecap:round;stroke-linejoin:round;-inkscape-stroke:none"
     d="M 4,3.25 A 0.75,0.75 0 0 0 3.25,4 0.75,0.75 0 0 0 4,4.75 h 4.8789063 v 6.068359 C 8.8789063,12.463719 10.317821,13.75 12,13.75 c 1.682179,0 3.121094,-1.286269 3.121094,-2.931641 V 4.75 H 20 A 0.75,0.75 0 0 0 20.75,4 0.75,0.75 0 0 0 20,3.25 h -5.628906 a 0.750075,0.750075 0 0 0 -0.75,0.75 v 6.818359 C 13.621094,11.582985 12.936018,12.25 12,12.25 c -0.936018,0 -1.621094,-0.667002 -1.621094,-1.431641 V 4 A 0.750075,0.750075 0 0 0 9.6289063,3.25 Z"
     id="path4" />
  <path
     style="color:#000000;fill:currentColor;stroke-linecap:round;stroke-linejoin:round;-inkscape-stroke:none"
     d="M 4,7.25 A 0.75,0.75 0 0 0 3.25,8 0.75,0.75 0 0 0 4,8.75 H 9 A 0.75,0.75 0 0 0 9.75,8 0.75,0.75 0 0 0 9,7.25 Z"
     id="path6" />
  <path
     style="color:#000000;fill:currentColor;stroke-linecap:round;stroke-linejoin:round;-inkscape-stroke:none"
     d="M 15,7.25 A 0.75,0.75 0 0 0 14.25,8 0.75,0.75 0 0 0 15,8.75 h 5 A 0.75,0.75 0 0 0 20.75,8 0.75,0.75 0 0 0 20,7.25 Z"
     id="path8" />
</svg>
