<?xml version="1.0" encoding="UTF-8" standalone="no"?>
<svg
   width="24"
   stroke-width="1.5"
   height="24"
   viewBox="0 0 24 24"
   fill="none"
   version="1.1"
   id="svg16"
   sodipodi:docname="magnet-energy.svg"
   inkscape:version="1.2.1 (9c6d41e410, 2022-07-14)"
   xmlns:inkscape="http://www.inkscape.org/namespaces/inkscape"
   xmlns:sodipodi="http://sodipodi.sourceforge.net/DTD/sodipodi-0.dtd"
   xmlns="http://www.w3.org/2000/svg"
   xmlns:svg="http://www.w3.org/2000/svg">
  <defs
     id="defs20" />
  <sodipodi:namedview
     id="namedview18"
     pagecolor="#ffffff"
     bordercolor="#666666"
     borderopacity="1.0"
     inkscape:showpageshadow="2"
     inkscape:pageopacity="0.0"
     inkscape:pagecheckerboard="0"
     inkscape:deskcolor="#d1d1d1"
     showgrid="false"
     inkscape:zoom="34.541667"
     inkscape:cx="10.364294"
     inkscape:cy="12.014475"
     inkscape:window-width="1920"
     inkscape:window-height="1009"
     inkscape:window-x="1912"
     inkscape:window-y="-8"
     inkscape:window-maximized="1"
     inkscape:current-layer="svg16" />
  <path
     style="color:#000000;fill:currentColor;stroke-linecap:round;stroke-linejoin:round;-inkscape-stroke:none"
     d="M 5,8.25 A 0.75,0.75 0 0 0 4.25,9 v 6.740234 C 4.25,19.650428 7.7715715,22.75 12,22.75 c 4.228438,0 7.75,-3.099573 7.75,-7.009766 V 9 A 0.75,0.75 0 0 0 19,8.25 0.75,0.75 0 0 0 18.25,9 v 6.740234 C 18.25,18.743835 15.503555,21.25 12,21.25 8.4964562,21.25 5.75,18.743834 5.75,15.740234 V 9 A 0.75,0.75 0 0 0 5,8.25 Z"
     id="path2" />
  <path
     style="color:#000000;fill:currentColor;stroke-linecap:round;stroke-linejoin:round;-inkscape-stroke:none"
     d="M 5,8.25 A 0.75,0.75 0 0 0 4.25,9 0.75,0.75 0 0 0 5,9.75 H 8 A 0.75,0.75 0 0 0 8.75,9 0.75,0.75 0 0 0 8,8.25 Z"
     id="path4" />
  <path
     style="color:#000000;fill:currentColor;stroke-linecap:round;stroke-linejoin:round;-inkscape-stroke:none"
     d="M 16,8.25 A 0.75,0.75 0 0 0 15.25,9 0.75,0.75 0 0 0 16,9.75 h 3 A 0.75,0.75 0 0 0 19.75,9 0.75,0.75 0 0 0 19,8.25 Z"
     id="path6" />
  <path
     style="color:#000000;fill:currentColor;stroke-linecap:round;stroke-linejoin:round;-inkscape-stroke:none"
     d="m 9.9257813,10.75 a 0.75,0.75 0 0 0 -0.75,0.75 v 3.560547 C 9.1757813,16.565125 10.475497,17.75 12,17.75 c 1.524503,0 2.824219,-1.184875 2.824219,-2.689453 V 11.5 a 0.75,0.75 0 0 0 -0.75,-0.75 0.75,0.75 0 0 0 -0.75,0.75 v 3.560547 C 13.324219,15.698167 12.766494,16.25 12,16.25 c -0.766494,0 -1.324219,-0.551833 -1.324219,-1.189453 V 11.5 A 0.75,0.75 0 0 0 9.9257813,10.75 Z"
     id="path8" />
  <path
     style="color:#000000;fill:currentColor;stroke-linejoin:round;-inkscape-stroke:none"
     d="m 5,12.25 v 1.5 h 5 v -1.5 z"
     id="path10" />
  <path
     style="color:#000000;fill:currentColor;stroke-linejoin:round;-inkscape-stroke:none"
     d="m 14,12.25 v 1.5 h 5 v -1.5 z"
     id="path12" />
  <path
     style="color:#000000;fill:currentColor;stroke-linecap:round;stroke-linejoin:round;-inkscape-stroke:none"
     d="m 11.460938,1.2792969 a 0.75,0.75 0 0 0 -0.449219,0.3574218 l -1.667969,3 A 0.750075,0.750075 0 0 0 10,5.75 h 2.724609 L 11.677734,7.6367187 A 0.75,0.75 0 0 0 11.96875,8.65625 0.75,0.75 0 0 0 12.988281,8.3632813 L 14.65625,5.3632812 A 0.750075,0.750075 0 0 0 14,4.25 H 11.275391 L 12.322266,2.3632813 A 0.75,0.75 0 0 0 12.03125,1.34375 0.75,0.75 0 0 0 11.460938,1.2792969 Z"
     id="path14" />
</svg>
