<?xml version="1.0" encoding="UTF-8" standalone="no"?>
<svg
   width="24"
   height="24"
   stroke-width="1.5"
   viewBox="0 0 24 24"
   fill="none"
   version="1.1"
   id="svg6"
   sodipodi:docname="mail.svg"
   inkscape:version="1.2.1 (9c6d41e410, 2022-07-14)"
   xmlns:inkscape="http://www.inkscape.org/namespaces/inkscape"
   xmlns:sodipodi="http://sodipodi.sourceforge.net/DTD/sodipodi-0.dtd"
   xmlns="http://www.w3.org/2000/svg"
   xmlns:svg="http://www.w3.org/2000/svg">
  <defs
     id="defs10" />
  <sodipodi:namedview
     id="namedview8"
     pagecolor="#ffffff"
     bordercolor="#666666"
     borderopacity="1.0"
     inkscape:showpageshadow="2"
     inkscape:pageopacity="0.0"
     inkscape:pagecheckerboard="0"
     inkscape:deskcolor="#d1d1d1"
     showgrid="false"
     inkscape:zoom="34.541667"
     inkscape:cx="10.364294"
     inkscape:cy="12.014475"
     inkscape:window-width="1920"
     inkscape:window-height="1009"
     inkscape:window-x="1912"
     inkscape:window-y="-8"
     inkscape:window-maximized="1"
     inkscape:current-layer="svg6" />
  <path
     style="color:#000000;fill:currentColor;stroke-linecap:round;stroke-linejoin:round;-inkscape-stroke:none"
     d="m 6.8691406,8.2617188 a 0.75,0.75 0 0 0 -0.484375,0.3085937 0.75,0.75 0 0 0 0.1855469,1.0449219 l 5.0000005,3.4999996 a 0.750075,0.750075 0 0 0 0.859375,0 L 17.429687,9.6152344 A 0.75,0.75 0 0 0 17.615234,8.5703125 0.75,0.75 0 0 0 16.570312,8.3847656 L 12,11.583984 7.4296875,8.3847656 A 0.75,0.75 0 0 0 6.8691406,8.2617188 Z"
     id="path2" />
  <path
     style="color:#000000;fill:currentColor;-inkscape-stroke:none"
     d="M 4,4.25 C 2.4901018,4.25 1.25,5.4901018 1.25,7 v 10 c 0,1.509917 1.2401154,2.75 2.75,2.75 h 16 c 1.509904,0 2.75,-1.240096 2.75,-2.75 V 7 C 22.75,5.4901154 21.509917,4.25 20,4.25 Z m 0,1.5 h 16 c 0.699281,0 1.25,0.5507468 1.25,1.25 v 10 c 0,0.699294 -0.550706,1.25 -1.25,1.25 H 4 C 3.3007468,18.25 2.75,17.699281 2.75,17 V 7 C 2.75,6.3007604 3.3007604,5.75 4,5.75 Z"
     id="path4" />
</svg>
