<?xml version="1.0" encoding="UTF-8" standalone="no"?>
<svg
   width="24"
   height="24"
   viewBox="0 0 24 24"
   stroke-width="1.5"
   fill="none"
   version="1.1"
   id="svg8"
   sodipodi:docname="mail-in.svg"
   inkscape:version="1.2.1 (9c6d41e410, 2022-07-14)"
   xmlns:inkscape="http://www.inkscape.org/namespaces/inkscape"
   xmlns:sodipodi="http://sodipodi.sourceforge.net/DTD/sodipodi-0.dtd"
   xmlns="http://www.w3.org/2000/svg"
   xmlns:svg="http://www.w3.org/2000/svg">
  <defs
     id="defs12" />
  <sodipodi:namedview
     id="namedview10"
     pagecolor="#ffffff"
     bordercolor="#666666"
     borderopacity="1.0"
     inkscape:showpageshadow="2"
     inkscape:pageopacity="0.0"
     inkscape:pagecheckerboard="0"
     inkscape:deskcolor="#d1d1d1"
     showgrid="false"
     inkscape:zoom="34.541667"
     inkscape:cx="10.364294"
     inkscape:cy="12.014475"
     inkscape:window-width="1920"
     inkscape:window-height="1009"
     inkscape:window-x="1912"
     inkscape:window-y="-8"
     inkscape:window-maximized="1"
     inkscape:current-layer="svg8" />
  <path
     style="color:#000000;fill:currentColor;stroke-linecap:round;stroke-linejoin:round;-inkscape-stroke:none"
     d="M 5.4160156,8.375 A 0.75,0.75 0 0 0 4.375,8.5839844 0.75,0.75 0 0 0 4.5839844,9.625 l 4.5,3 a 0.750075,0.750075 0 0 0 0.8320312,0 l 4.5000004,-3 A 0.75,0.75 0 0 0 14.625,8.5839844 0.75,0.75 0 0 0 13.583984,8.375 L 9.5,11.097656 Z"
     id="path2" />
  <path
     style="color:#000000;fill:currentColor;stroke-linecap:round;-inkscape-stroke:none"
     d="M 3,4.25 C 1.4901018,4.25 0.25,5.4901018 0.25,7 v 10 c 0,1.509917 1.2401154,2.75 2.75,2.75 H 17 A 0.75,0.75 0 0 0 17.75,19 0.75,0.75 0 0 0 17,18.25 H 3 C 2.3007468,18.25 1.75,17.699281 1.75,17 V 7 C 1.75,6.3007604 2.3007604,5.75 3,5.75 h 13 c 0.699281,0 1.25,0.5507468 1.25,1.25 V 9 A 0.75,0.75 0 0 0 18,9.75 0.75,0.75 0 0 0 18.75,9 V 7 C 18.75,5.4901154 17.509917,4.25 16,4.25 Z"
     id="path4" />
  <path
     style="color:#000000;fill:currentColor;stroke-linecap:round;stroke-linejoin:round;-inkscape-stroke:none"
     d="m 20,10.25 a 0.75,0.75 0 0 0 -0.53125,0.21875 l -3,3 A 0.75,0.75 0 0 0 16.25,14 a 0.75,0.75 0 0 0 0.21875,0.53125 l 3,3 a 0.75,0.75 0 0 0 1.0625,0 0.75,0.75 0 0 0 0,-1.0625 L 18.8125,14.75 H 23 A 0.75,0.75 0 0 0 23.75,14 0.75,0.75 0 0 0 23,13.25 h -4.1875 l 1.71875,-1.71875 a 0.75,0.75 0 0 0 0,-1.0625 A 0.75,0.75 0 0 0 20,10.25 Z"
     id="path6" />
</svg>
