<?xml version="1.0" encoding="UTF-8" standalone="no"?>
<svg
   width="24"
   height="24"
   stroke-width="1.5"
   viewBox="0 0 24 24"
   fill="none"
   version="1.1"
   id="svg4"
   sodipodi:docname="male.svg"
   inkscape:version="1.2.1 (9c6d41e410, 2022-07-14)"
   xmlns:inkscape="http://www.inkscape.org/namespaces/inkscape"
   xmlns:sodipodi="http://sodipodi.sourceforge.net/DTD/sodipodi-0.dtd"
   xmlns="http://www.w3.org/2000/svg"
   xmlns:svg="http://www.w3.org/2000/svg">
  <defs
     id="defs8" />
  <sodipodi:namedview
     id="namedview6"
     pagecolor="#ffffff"
     bordercolor="#666666"
     borderopacity="1.0"
     inkscape:showpageshadow="2"
     inkscape:pageopacity="0.0"
     inkscape:pagecheckerboard="0"
     inkscape:deskcolor="#d1d1d1"
     showgrid="false"
     inkscape:zoom="34.541667"
     inkscape:cx="10.364294"
     inkscape:cy="12.014475"
     inkscape:window-width="1920"
     inkscape:window-height="1009"
     inkscape:window-x="1912"
     inkscape:window-y="-8"
     inkscape:window-maximized="1"
     inkscape:current-layer="svg4" />
  <path
     style="color:#000000;fill:currentColor;stroke-linecap:round;stroke-linejoin:round;-inkscape-stroke:none"
     d="M 16,3.25 A 0.75,0.75 0 0 0 15.25,4 0.75,0.75 0 0 0 16,4.75 h 2.185547 L 14.128906,8.7910156 C 12.97701,7.8779885 11.580037,7.25 10,7.25 6.2809625,7.25 3.25,10.280973 3.25,14 c 0,3.719027 3.0309625,6.75 6.75,6.75 3.719029,0 6.75,-3.030971 6.75,-6.75 0,-1.589632 -0.635535,-2.993251 -1.558594,-4.1484375 L 19.25,5.8066406 V 8 A 0.75,0.75 0 0 0 20,8.75 0.75,0.75 0 0 0 20.75,8 V 4.0019531 a 0.75,0.75 0 0 0 -0.05664,-0.2890625 0.75,0.75 0 0 0 -0.162109,-0.2421875 0.75,0.75 0 0 0 0,-0.00195 A 0.75,0.75 0 0 0 20.003906,3.25 0.75,0.75 0 0 0 20,3.25 Z m -6,5.5 c 1.448594,0 2.75123,0.5828847 3.701172,1.527344 6.42e-4,6.38e-4 0.0013,0.0013 0.002,0.002 C 14.659401,11.230958 15.25,12.541198 15.25,14 15.25,16.908365 12.908365,19.25 10,19.25 7.0916241,19.25 4.75,16.908366 4.75,14 4.75,11.091634 7.0916241,8.75 10,8.75 Z"
     id="path2" />
</svg>
