<?xml version="1.0" encoding="UTF-8" standalone="no"?>
<svg
   width="24"
   height="24"
   stroke-width="1.5"
   viewBox="0 0 24 24"
   fill="none"
   version="1.1"
   id="svg8"
   sodipodi:docname="map-xmark.svg"
   inkscape:version="1.2.1 (9c6d41e410, 2022-07-14)"
   xmlns:inkscape="http://www.inkscape.org/namespaces/inkscape"
   xmlns:sodipodi="http://sodipodi.sourceforge.net/DTD/sodipodi-0.dtd"
   xmlns="http://www.w3.org/2000/svg"
   xmlns:svg="http://www.w3.org/2000/svg">
  <defs
     id="defs12" />
  <sodipodi:namedview
     id="namedview10"
     pagecolor="#ffffff"
     bordercolor="#666666"
     borderopacity="1.0"
     inkscape:showpageshadow="2"
     inkscape:pageopacity="0.0"
     inkscape:pagecheckerboard="0"
     inkscape:deskcolor="#d1d1d1"
     showgrid="false"
     inkscape:zoom="34.541667"
     inkscape:cx="10.364294"
     inkscape:cy="12.014475"
     inkscape:window-width="1920"
     inkscape:window-height="1009"
     inkscape:window-x="1912"
     inkscape:window-y="-8"
     inkscape:window-maximized="1"
     inkscape:current-layer="svg8" />
  <path
     style="color:#000000;fill:currentColor;stroke-linecap:round;stroke-linejoin:round;-inkscape-stroke:none"
     d="M 9,2.25 A 0.75,0.75 0 0 0 8.8847656,2.296875 0.75,0.75 0 0 0 8.7636719,2.2890625 L 3.1738281,4.1523437 C 2.6252677,4.3351823 2.25,4.8534323 2.25,5.4316406 V 20.167969 c 0,0.899369 0.9240967,1.565651 1.7773437,1.28125 L 9,19.789062 13.972656,21.449219 C 14.8259,21.733633 15.75,21.067314 15.75,20.167969 V 5.4316406 c 0,-0.5782857 -0.375291,-1.096466 -0.923828,-1.2792969 L 9.2871094,2.3066406 9.2363281,2.2890625 A 0.75,0.75 0 0 0 9.2089844,2.2910156 0.75,0.75 0 0 0 9,2.25 Z M 8.25,4.0390625 V 18.460937 l -4.5,1.498047 V 5.5390625 Z m 1.5,0 4.5,1.5019531 V 19.958984 l -4.5,-1.498047 z"
     id="path2" />
  <path
     style="color:#000000;fill:currentColor;stroke-linecap:round;stroke-linejoin:round;-inkscape-stroke:none"
     d="m 19.972656,2.5507813 -5.208984,1.7382812 a 0.75,0.75 0 0 0 -0.474609,0.9472656 0.75,0.75 0 0 0 0.947265,0.4746094 L 20.25,4.0410156 V 15 A 0.75,0.75 0 0 0 21,15.75 0.75,0.75 0 0 0 21.75,15 V 3.8320313 c 0,-0.899357 -0.924121,-1.5656796 -1.777344,-1.28125 z"
     id="path4" />
  <path
     style="color:#000000;fill:currentColor;stroke-linecap:round;stroke-linejoin:round;-inkscape-stroke:none"
     d="m 17.121094,17.371094 a 0.75,0.75 0 0 0 -0.529297,0.220703 0.75,0.75 0 0 0 0,1.060547 l 1.591797,1.589843 -1.591797,1.591797 a 0.75,0.75 0 0 0 0,1.060547 0.75,0.75 0 0 0 1.060547,0 l 1.589843,-1.589844 1.591797,1.589844 a 0.75,0.75 0 0 0 1.060547,0 0.75,0.75 0 0 0 0,-1.060547 l -1.589844,-1.591797 1.589844,-1.589843 a 0.75,0.75 0 0 0 0,-1.060547 0.75,0.75 0 0 0 -1.060547,0 l -1.591797,1.591797 -1.589843,-1.591797 a 0.75,0.75 0 0 0 -0.53125,-0.220703 z"
     id="path6" />
</svg>
