<?xml version="1.0" encoding="UTF-8" standalone="no"?>
<svg
   width="24"
   height="24"
   stroke-width="1.5"
   viewBox="0 0 24 24"
   fill="none"
   version="1.1"
   id="svg8"
   sodipodi:docname="map-pin-xmark.svg"
   inkscape:version="1.2.1 (9c6d41e410, 2022-07-14)"
   xmlns:inkscape="http://www.inkscape.org/namespaces/inkscape"
   xmlns:sodipodi="http://sodipodi.sourceforge.net/DTD/sodipodi-0.dtd"
   xmlns="http://www.w3.org/2000/svg"
   xmlns:svg="http://www.w3.org/2000/svg">
  <defs
     id="defs12" />
  <sodipodi:namedview
     id="namedview10"
     pagecolor="#ffffff"
     bordercolor="#666666"
     borderopacity="1.0"
     inkscape:showpageshadow="2"
     inkscape:pageopacity="0.0"
     inkscape:pagecheckerboard="0"
     inkscape:deskcolor="#d1d1d1"
     showgrid="false"
     inkscape:zoom="34.541667"
     inkscape:cx="10.364294"
     inkscape:cy="12.014475"
     inkscape:window-width="1920"
     inkscape:window-height="1009"
     inkscape:window-x="1912"
     inkscape:window-y="-8"
     inkscape:window-maximized="1"
     inkscape:current-layer="svg8" />
  <path
     style="color:#000000;fill:currentColor;-inkscape-stroke:none"
     d="m 9,1.25 c -4.282897,0 -7.75,3.5787018 -7.75,7.9492188 0,2.4283332 1.8779333,5.1134162 3.6621094,7.3593752 1.7841761,2.245959 3.5644531,3.978515 3.5644531,3.978515 L 9,21.046875 9.5234375,20.537109 c 0,0 1.7802775,-1.732556 3.5644535,-3.978515 C 14.872067,14.312635 16.75,11.627552 16.75,9.1992188 16.75,4.828703 13.282906,1.25 9,1.25 Z m 0,1.5 c 3.449086,0 6.25,2.8668424 6.25,6.4492188 0,1.5481632 -1.62207,4.2658692 -3.337891,6.4257812 C 10.457523,17.456064 9.4102153,18.469175 9,18.878906 8.5897847,18.469175 7.542477,17.456064 6.0878906,15.625 4.3720702,13.465088 2.75,10.747382 2.75,9.1992188 2.75,5.6168437 5.5509248,2.75 9,2.75 Z"
     id="path2" />
  <g
     id="path4">
    <path
       style="color:#000000;fill:currentColor;stroke-width:1.5;stroke-linecap:round;stroke-linejoin:round;-inkscape-stroke:none"
       d="M 9,10 C 9.55228,10 10,9.55228 10,9 10,8.44772 9.55228,8 9,8 8.44772,8 8,8.44772 8,9 c 0,0.55228 0.44772,1 1,1 z"
       id="path247" />
    <path
       style="color:#000000;fill:currentColor;stroke-linecap:round;stroke-linejoin:round;-inkscape-stroke:none"
       d="M 9,7.25 C 8.0423831,7.25 7.25,8.0423831 7.25,9 7.25,9.9576169 8.0423831,10.75 9,10.75 9.9576169,10.75 10.75,9.9576169 10.75,9 10.75,8.0423831 9.9576169,7.25 9,7.25 Z m 0,1.5 C 9.146942,8.75 9.25,8.853058 9.25,9 9.25,9.146942 9.146942,9.25 9,9.25 8.853058,9.25 8.75,9.146942 8.75,9 8.75,8.853058 8.853058,8.75 9,8.75 Z"
       id="path249" />
  </g>
  <path
     style="color:#000000;fill:currentColor;stroke-linecap:round;stroke-linejoin:round;-inkscape-stroke:none"
     d="m 16.878906,16.128906 a 0.75,0.75 0 0 0 -0.529297,0.21875 0.75,0.75 0 0 0 0,1.060547 L 17.939453,19 16.349609,20.591797 a 0.75,0.75 0 0 0 0,1.060547 0.75,0.75 0 0 0 1.060547,0 L 19,20.0625 l 1.591797,1.589844 a 0.75,0.75 0 0 0 1.060547,0 0.75,0.75 0 0 0 0,-1.060547 L 20.0625,19 21.652344,17.408203 a 0.75,0.75 0 0 0 0,-1.060547 0.75,0.75 0 0 0 -1.060547,0 L 19,17.9375 17.410156,16.347656 a 0.75,0.75 0 0 0 -0.53125,-0.21875 z"
     id="path6" />
</svg>
