<?xml version="1.0" encoding="UTF-8" standalone="no"?>
<svg
   width="24"
   height="24"
   stroke-width="1.5"
   viewBox="0 0 24 24"
   fill="none"
   version="1.1"
   id="svg4"
   sodipodi:docname="map.svg"
   inkscape:version="1.2.1 (9c6d41e410, 2022-07-14)"
   xmlns:inkscape="http://www.inkscape.org/namespaces/inkscape"
   xmlns:sodipodi="http://sodipodi.sourceforge.net/DTD/sodipodi-0.dtd"
   xmlns="http://www.w3.org/2000/svg"
   xmlns:svg="http://www.w3.org/2000/svg">
  <defs
     id="defs8" />
  <sodipodi:namedview
     id="namedview6"
     pagecolor="#ffffff"
     bordercolor="#666666"
     borderopacity="1.0"
     inkscape:showpageshadow="2"
     inkscape:pageopacity="0.0"
     inkscape:pagecheckerboard="0"
     inkscape:deskcolor="#d1d1d1"
     showgrid="false"
     inkscape:zoom="34.541667"
     inkscape:cx="10.364294"
     inkscape:cy="12.014475"
     inkscape:window-width="1920"
     inkscape:window-height="1009"
     inkscape:window-x="1912"
     inkscape:window-y="-8"
     inkscape:window-maximized="1"
     inkscape:current-layer="svg4" />
  <path
     style="color:#000000;fill:currentColor;stroke-linecap:round;stroke-linejoin:round;-inkscape-stroke:none"
     d="M 9,2.25 A 0.75,0.75 0 0 0 8.8847656,2.296875 0.75,0.75 0 0 0 8.7636719,2.2890625 L 3.1738281,4.1523437 C 2.6252677,4.3351823 2.25,4.8534323 2.25,5.4316406 V 20.167969 c 0,0.899369 0.9240967,1.565651 1.7773437,1.28125 L 9,19.789062 l 5.763672,1.921875 a 0.75,0.75 0 0 0 0.121094,-0.0078 A 0.75,0.75 0 0 0 15,21.75 a 0.75,0.75 0 0 0 0.115234,-0.04687 0.75,0.75 0 0 0 0.121094,0.0078 l 5.589844,-1.863281 C 21.374635,19.664761 21.75,19.146636 21.75,18.568359 V 3.8320313 c 0,-0.899357 -0.924121,-1.5656796 -1.777344,-1.28125 L 15,4.2109375 9.2871094,2.3066406 9.2363281,2.2890625 A 0.75,0.75 0 0 0 9.2246094,2.2949219 0.75,0.75 0 0 0 9,2.25 Z M 8.25,4.0390625 V 18.460937 l -4.5,1.498047 V 5.5390625 Z m 1.5,0 4.5,1.5 V 19.960937 l -4.5,-1.5 z m 10.5,0.00195 V 18.458984 l -4.5,1.501953 V 5.5390625 Z"
     id="path2" />
</svg>
