<?xml version="1.0" encoding="UTF-8" standalone="no"?>
<svg
   width="24"
   height="24"
   stroke-width="1.5"
   viewBox="0 0 24 24"
   fill="none"
   version="1.1"
   id="svg8"
   sodipodi:docname="maps-turn-back.svg"
   inkscape:version="1.2.1 (9c6d41e410, 2022-07-14)"
   xmlns:inkscape="http://www.inkscape.org/namespaces/inkscape"
   xmlns:sodipodi="http://sodipodi.sourceforge.net/DTD/sodipodi-0.dtd"
   xmlns="http://www.w3.org/2000/svg"
   xmlns:svg="http://www.w3.org/2000/svg">
  <defs
     id="defs12" />
  <sodipodi:namedview
     id="namedview10"
     pagecolor="#ffffff"
     bordercolor="#666666"
     borderopacity="1.0"
     inkscape:showpageshadow="2"
     inkscape:pageopacity="0.0"
     inkscape:pagecheckerboard="0"
     inkscape:deskcolor="#d1d1d1"
     showgrid="false"
     inkscape:zoom="34.541667"
     inkscape:cx="10.364294"
     inkscape:cy="12.014475"
     inkscape:window-width="1920"
     inkscape:window-height="1009"
     inkscape:window-x="1912"
     inkscape:window-y="-8"
     inkscape:window-maximized="1"
     inkscape:current-layer="svg8" />
  <path
     style="color:#000000;fill:currentColor;stroke-linecap:round;stroke-linejoin:round;-inkscape-stroke:none"
     d="m 12,12.421875 c -0.297951,0 -0.595581,0.104113 -0.830078,0.3125 l -7.3027345,6.492187 c -0.4366374,0.388089 -0.5140327,1.037406 -0.2910156,1.488282 0.2230171,0.450875 0.7859406,0.785345 1.359375,0.673828 L 12,20.013672 l 7.064453,1.375 c 0.573449,0.111542 1.136381,-0.222992 1.359375,-0.673828 0.222995,-0.450836 0.145588,-1.100151 -0.291016,-1.488282 L 12.830078,12.734375 C 12.595581,12.525988 12.297951,12.421875 12,12.421875 Z m 0,1.582031 6.455078,5.738281 -6.216797,-1.208984 c -0.157929,-0.03083 -0.318633,-0.03083 -0.476562,0 l -6.2167971,1.208984 z"
     id="path2" />
  <path
     style="color:#000000;fill:currentColor;stroke-linecap:round;stroke-linejoin:round;-inkscape-stroke:none"
     d="M 8.5,1.75 C 6.7083351,1.75 5.6318594,2.9136822 5.1855469,3.9550781 4.7392343,4.996474 4.75,6 4.75,6 v 5 A 0.75,0.75 0 0 0 5.5,11.75 0.75,0.75 0 0 0 6.25,11 V 6 C 6.25,6 6.2607664,5.2535242 6.5644531,4.5449219 6.8681398,3.8363195 7.2916679,3.25 8.5,3.25 c 1.4999985,0 2.044521,0.6398236 2.392578,1.3359375 C 11.240635,5.2820514 11.25,6 11.25,6 v 4.5 A 0.75,0.75 0 0 0 12,11.25 0.75,0.75 0 0 0 12.75,10.5 V 6 c 0,0 0.0094,-1.0320531 -0.517578,-2.0859375 C 11.70548,2.8601781 10.499998,1.75 8.5,1.75 Z"
     id="path4" />
  <path
     style="color:#000000;fill:currentColor;stroke-linecap:round;stroke-linejoin:round;-inkscape-stroke:none"
     d="m 2,6.75 a 0.75,0.75 0 0 0 -0.53125,0.21875 0.75,0.75 0 0 0 0,1.0625 l 3.5,3.5 a 0.750075,0.750075 0 0 0 1.0625,0 l 3.5,-3.5 a 0.75,0.75 0 0 0 0,-1.0625 0.75,0.75 0 0 0 -1.0625,0 L 5.5,9.9375 2.53125,6.96875 A 0.75,0.75 0 0 0 2,6.75 Z"
     id="path6" />
</svg>
