<?xml version="1.0" encoding="UTF-8" standalone="no"?>
<svg
   width="24"
   height="24"
   stroke-width="1.5"
   viewBox="0 0 24 24"
   fill="none"
   version="1.1"
   id="svg4"
   sodipodi:docname="maps-arrow.svg"
   inkscape:version="1.2.1 (9c6d41e410, 2022-07-14)"
   xmlns:inkscape="http://www.inkscape.org/namespaces/inkscape"
   xmlns:sodipodi="http://sodipodi.sourceforge.net/DTD/sodipodi-0.dtd"
   xmlns="http://www.w3.org/2000/svg"
   xmlns:svg="http://www.w3.org/2000/svg">
  <defs
     id="defs8" />
  <sodipodi:namedview
     id="namedview6"
     pagecolor="#ffffff"
     bordercolor="#666666"
     borderopacity="1.0"
     inkscape:showpageshadow="2"
     inkscape:pageopacity="0.0"
     inkscape:pagecheckerboard="0"
     inkscape:deskcolor="#d1d1d1"
     showgrid="false"
     inkscape:zoom="34.541667"
     inkscape:cx="10.364294"
     inkscape:cy="12.014475"
     inkscape:window-width="1920"
     inkscape:window-height="1009"
     inkscape:window-x="1912"
     inkscape:window-y="-8"
     inkscape:window-maximized="1"
     inkscape:current-layer="svg4" />
  <path
     style="color:#000000;fill:currentColor;stroke-linecap:round;stroke-linejoin:round;-inkscape-stroke:none"
     d="m 12,3.7949219 c -0.429897,0 -0.8602,0.2031818 -1.089844,0.6113281 L 3.03125,18.414062 c -0.2686898,0.477723 -0.1687197,1.072573 0.1445313,1.433594 0.3132509,0.361021 0.887612,0.544415 1.3984374,0.345703 L 12,17.304687 l 7.425781,2.888672 c 0.51084,0.198732 1.085175,0.01531 1.398438,-0.345703 0.313263,-0.361014 0.413284,-0.955862 0.144531,-1.433594 L 13.089844,4.40625 C 12.8602,3.9981037 12.429897,3.7949219 12,3.7949219 Z m 0,1.7363281 7.320312,13.009766 -6.867187,-2.669922 c -0.291567,-0.113624 -0.614683,-0.113624 -0.90625,0 l -6.8671875,2.669922 z"
     id="path2" />
</svg>
