<?xml version="1.0" encoding="UTF-8" standalone="no"?>
<svg
   width="24"
   height="24"
   stroke-width="1.5"
   viewBox="0 0 24 24"
   fill="none"
   version="1.1"
   id="svg8"
   sodipodi:docname="maps-turn-left.svg"
   inkscape:version="1.2.1 (9c6d41e410, 2022-07-14)"
   xmlns:inkscape="http://www.inkscape.org/namespaces/inkscape"
   xmlns:sodipodi="http://sodipodi.sourceforge.net/DTD/sodipodi-0.dtd"
   xmlns="http://www.w3.org/2000/svg"
   xmlns:svg="http://www.w3.org/2000/svg">
  <defs
     id="defs12" />
  <sodipodi:namedview
     id="namedview10"
     pagecolor="#ffffff"
     bordercolor="#666666"
     borderopacity="1.0"
     inkscape:showpageshadow="2"
     inkscape:pageopacity="0.0"
     inkscape:pagecheckerboard="0"
     inkscape:deskcolor="#d1d1d1"
     showgrid="false"
     inkscape:zoom="34.541667"
     inkscape:cx="10.364294"
     inkscape:cy="12.014475"
     inkscape:window-width="1920"
     inkscape:window-height="1009"
     inkscape:window-x="1912"
     inkscape:window-y="-8"
     inkscape:window-maximized="1"
     inkscape:current-layer="svg8" />
  <path
     style="color:#000000;fill:currentColor;stroke-linecap:round;stroke-linejoin:round;-inkscape-stroke:none"
     d="m 12,12.421875 c -0.297951,0 -0.595581,0.104113 -0.830078,0.3125 l -7.3027345,6.492187 c -0.4366374,0.388089 -0.5140327,1.037406 -0.2910156,1.488282 0.2230171,0.450875 0.7859406,0.785345 1.359375,0.673828 L 12,20.013672 l 7.064453,1.375 c 0.573449,0.111542 1.136381,-0.222992 1.359375,-0.673828 0.222995,-0.450836 0.145588,-1.100151 -0.291016,-1.488282 L 12.830078,12.734375 C 12.595581,12.525988 12.297951,12.421875 12,12.421875 Z m 0,1.582031 6.455078,5.738281 -6.216797,-1.208984 c -0.157929,-0.03083 -0.318633,-0.03083 -0.476562,0 l -6.2167971,1.208984 z"
     id="path2" />
  <path
     style="color:#000000;fill:currentColor;stroke-linecap:round;stroke-linejoin:round;-inkscape-stroke:none"
     d="M 5,5.75 A 0.75,0.75 0 0 0 4.25,6.5 0.75,0.75 0 0 0 5,7.25 h 3 c 0,0 0.8429488,0.00936 1.6640625,0.4199219 C 10.485176,8.0804787 11.25,8.7500018 11.25,10.5 A 0.75,0.75 0 0 0 12,11.25 0.75,0.75 0 0 0 12.75,10.5 C 12.75,8.2500023 11.514822,6.9195203 10.335938,6.3300781 9.1570532,5.740636 8,5.75 8,5.75 Z"
     id="path4" />
  <path
     style="color:#000000;fill:currentColor;stroke-linecap:round;stroke-linejoin:round;-inkscape-stroke:none"
     d="M 8.6230469,3.2597656 A 0.75,0.75 0 0 0 8.0644531,3.390625 l -3.5,2.5 a 0.750075,0.750075 0 0 0 0,1.21875 l 3.5,2.5 A 0.75,0.75 0 0 0 9.109375,9.4355469 0.75,0.75 0 0 0 8.9355469,8.390625 L 6.2890625,6.5 8.9355469,4.609375 A 0.75,0.75 0 0 0 9.109375,3.5644531 0.75,0.75 0 0 0 8.6230469,3.2597656 Z"
     id="path6" />
</svg>
