<?xml version="1.0" encoding="UTF-8" standalone="no"?>
<svg
   width="24"
   height="24"
   stroke-width="1.5"
   viewBox="0 0 24 24"
   fill="none"
   version="1.1"
   id="svg6"
   sodipodi:docname="maps-go-straight.svg"
   inkscape:version="1.2.1 (9c6d41e410, 2022-07-14)"
   xmlns:inkscape="http://www.inkscape.org/namespaces/inkscape"
   xmlns:sodipodi="http://sodipodi.sourceforge.net/DTD/sodipodi-0.dtd"
   xmlns="http://www.w3.org/2000/svg"
   xmlns:svg="http://www.w3.org/2000/svg">
  <defs
     id="defs10" />
  <sodipodi:namedview
     id="namedview8"
     pagecolor="#ffffff"
     bordercolor="#666666"
     borderopacity="1.0"
     inkscape:showpageshadow="2"
     inkscape:pageopacity="0.0"
     inkscape:pagecheckerboard="0"
     inkscape:deskcolor="#d1d1d1"
     showgrid="false"
     inkscape:zoom="34.541667"
     inkscape:cx="10.364294"
     inkscape:cy="12.014475"
     inkscape:window-width="1920"
     inkscape:window-height="1009"
     inkscape:window-x="1912"
     inkscape:window-y="-8"
     inkscape:window-maximized="1"
     inkscape:current-layer="svg6" />
  <path
     style="color:#000000;fill:currentColor;stroke-linecap:round;stroke-linejoin:round;-inkscape-stroke:none"
     d="m 12,12.421875 c -0.297951,0 -0.595581,0.104113 -0.830078,0.3125 l -7.3027345,6.492187 c -0.4366374,0.388089 -0.5140327,1.037406 -0.2910156,1.488282 0.2230171,0.450875 0.7859406,0.785345 1.359375,0.673828 L 12,20.013672 l 7.064453,1.375 c 0.573449,0.111542 1.136381,-0.222992 1.359375,-0.673828 0.222995,-0.450836 0.145588,-1.100151 -0.291016,-1.488282 L 12.830078,12.734375 C 12.595581,12.525988 12.297951,12.421875 12,12.421875 Z m 0,1.582031 6.455078,5.738281 -6.216797,-1.208984 c -0.157929,-0.03083 -0.318633,-0.03083 -0.476562,0 l -6.2167971,1.208984 z"
     id="path2" />
  <path
     style="color:#000000;fill:currentColor;stroke-linecap:round;stroke-linejoin:round;-inkscape-stroke:none"
     d="m 12,3.25 a 0.75,0.75 0 0 0 -0.08203,0.033203 0.75,0.75 0 0 0 -0.1875,0.058594 0.75,0.75 0 0 0 -0.128906,0.021484 L 7.6015625,5.8632812 A 0.75,0.75 0 0 0 7.3632812,6.8984375 0.75,0.75 0 0 0 8.3984375,7.1367187 L 11.25,5.3554687 V 10.5 A 0.75,0.75 0 0 0 12,11.25 0.75,0.75 0 0 0 12.75,10.5 V 5.3554687 l 2.851563,1.78125 A 0.75,0.75 0 0 0 16.636719,6.8984375 0.75,0.75 0 0 0 16.398437,5.8632812 L 12.398438,3.3632813 a 0.75,0.75 0 0 0 -0.03516,-0.00586 0.75,0.75 0 0 0 -0.167968,-0.068359 0.75,0.75 0 0 0 -0.06445,-0.013672 A 0.75,0.75 0 0 0 12,3.25 Z"
     id="path4" />
</svg>
