<?xml version="1.0" encoding="UTF-8" standalone="no"?>
<svg
   width="24"
   height="24"
   stroke-width="1.5"
   viewBox="0 0 24 24"
   fill="none"
   version="1.1"
   id="svg6"
   sodipodi:docname="mask-square.svg"
   inkscape:version="1.2.1 (9c6d41e410, 2022-07-14)"
   xmlns:inkscape="http://www.inkscape.org/namespaces/inkscape"
   xmlns:sodipodi="http://sodipodi.sourceforge.net/DTD/sodipodi-0.dtd"
   xmlns="http://www.w3.org/2000/svg"
   xmlns:svg="http://www.w3.org/2000/svg">
  <defs
     id="defs10" />
  <sodipodi:namedview
     id="namedview8"
     pagecolor="#ffffff"
     bordercolor="#666666"
     borderopacity="1.0"
     inkscape:showpageshadow="2"
     inkscape:pageopacity="0.0"
     inkscape:pagecheckerboard="0"
     inkscape:deskcolor="#d1d1d1"
     showgrid="false"
     inkscape:zoom="34.541667"
     inkscape:cx="10.364294"
     inkscape:cy="12.014475"
     inkscape:window-width="1920"
     inkscape:window-height="1009"
     inkscape:window-x="1912"
     inkscape:window-y="-8"
     inkscape:window-maximized="1"
     inkscape:current-layer="svg6" />
  <path
     style="color:#000000;fill:currentColor;stroke-linecap:round;stroke-linejoin:round;-inkscape-stroke:none"
     d="M 3.5996094,2.25 C 2.8629077,2.25 2.25,2.8629077 2.25,3.5996094 V 20.400391 C 2.25,21.137086 2.862953,21.75 3.5996094,21.75 H 20.400391 C 21.13704,21.75 21.75,21.13704 21.75,20.400391 V 3.5996094 C 21.75,2.862953 21.137086,2.25 20.400391,2.25 Z M 3.75,3.75 h 16.5 v 16.5 H 3.75 Z"
     id="path2" />
  <path
     style="color:#000000;fill:currentColor;stroke-linecap:round;stroke-linejoin:round;-inkscape-stroke:none"
     d="m 12,5.25 c -3.719036,0 -6.75,3.030964 -6.75,6.75 0,2.931954 1.8760834,5.43778 4.5,6.365234 C 10.454369,18.614173 11.212932,18.75 12,18.75 c 3.719029,0 6.75,-3.030971 6.75,-6.75 0,-2.9319851 -1.876059,-5.4378136 -4.5,-6.3652344 C 13.545638,5.3858294 12.787076,5.25 12,5.25 Z m 0,1.5 c 0.351679,0 0.668912,0.104412 1,0.1699219 L 9.6210938,16.480469 C 7.9765723,15.595724 6.75,14.0062 6.75,12 6.75,9.0916226 9.0916226,6.75 12,6.75 Z m 2.378906,0.7695312 C 16.023433,8.4042515 17.25,9.9937572 17.25,12 c 0,2.908365 -2.341635,5.25 -5.25,5.25 -0.351683,0 -0.668913,-0.104415 -1,-0.169922 z"
     id="path4" />
</svg>
