<?xml version="1.0" encoding="UTF-8" standalone="no"?>
<svg
   width="24"
   height="24"
   viewBox="0 0 24 24"
   stroke-width="1.5"
   fill="none"
   version="1.1"
   id="svg3"
   sodipodi:docname="mastodon.svg"
   inkscape:version="1.3.1 (91b66b0783, 2023-11-16)"
   xmlns:inkscape="http://www.inkscape.org/namespaces/inkscape"
   xmlns:sodipodi="http://sodipodi.sourceforge.net/DTD/sodipodi-0.dtd"
   xmlns="http://www.w3.org/2000/svg"
   xmlns:svg="http://www.w3.org/2000/svg">
  <defs
     id="defs3" />
  <sodipodi:namedview
     id="namedview3"
     pagecolor="#ffffff"
     bordercolor="#666666"
     borderopacity="1.0"
     inkscape:showpageshadow="2"
     inkscape:pageopacity="0.0"
     inkscape:pagecheckerboard="0"
     inkscape:deskcolor="#d1d1d1"
     inkscape:zoom="33.875"
     inkscape:cx="11.98524"
     inkscape:cy="12"
     inkscape:window-width="1920"
     inkscape:window-height="1009"
     inkscape:window-x="1912"
     inkscape:window-y="-8"
     inkscape:window-maximized="1"
     inkscape:current-layer="svg3" />
  <path
     style="color:#000000;fill:currentColor;stroke-linecap:round;stroke-linejoin:round;-inkscape-stroke:none"
     d="M 9.5,6 C 8.7250003,5.9999985 7.939963,6.2245908 7.3125,6.7265625 6.685037,7.2285342 6.25,8.041664 6.25,9 v 4.5 A 0.75,0.75 0 0 0 7,14.25 0.75,0.75 0 0 0 7.75,13.5 V 9 C 7.75,8.4583275 7.939964,8.1464669 8.25,7.8984375 8.560036,7.6504081 9.025001,7.4999991 9.5,7.5 c 0.474999,9e-7 0.939963,0.1504067 1.25,0.3984375 C 11.060037,8.1464683 11.25,8.4583339 11.25,9 v 3 A 0.75,0.75 0 0 0 12,12.75 0.75,0.75 0 0 0 12.75,12 V 9 C 12.75,8.0416676 12.314962,7.2285341 11.6875,6.7265625 11.060038,6.2245909 10.275,6.0000015 9.5,6 Z"
     id="path1" />
  <path
     style="color:#000000;fill:currentColor;stroke-linecap:round;stroke-linejoin:round;-inkscape-stroke:none"
     d="m 14.5,6 c -0.775,1.5e-6 -1.560038,0.2245909 -2.1875,0.7265625 C 11.685038,7.2285341 11.25,8.0416676 11.25,9 v 3 A 0.75,0.75 0 0 0 12,12.75 0.75,0.75 0 0 0 12.75,12 V 9 c 0,-0.5416661 0.189963,-0.8535317 0.5,-1.1015625 C 13.560037,7.6504067 14.025001,7.5000009 14.5,7.5 c 0.474999,-9e-7 0.939964,0.1504081 1.25,0.3984375 0.310036,0.2480294 0.5,0.55989 0.5,1.1015625 v 4.5 A 0.75,0.75 0 0 0 17,14.25 0.75,0.75 0 0 0 17.75,13.5 V 9 C 17.75,8.041664 17.314963,7.2285342 16.6875,6.7265625 16.060037,6.2245908 15.275,5.9999985 14.5,6 Z"
     id="path2" />
  <path
     style="color:#000000;fill:currentColor;stroke-linecap:round;stroke-linejoin:round;-inkscape-stroke:none"
     d="M 9,1.75 C 7.4166163,1.75 5.7070037,2.0028299 4.3847656,3.1132813 3.0625275,4.2237326 2.2793591,6.1365282 2.3867188,9.0273438 c 0.072734,1.9551332 0.03437,4.3884642 0.3691406,7.0664062 0.2687428,2.149792 1.1474644,3.700795 2.3496093,4.707031 1.202145,1.006237 2.6798208,1.463269 4.1210938,1.63086 2.8825455,0.33518 5.6649015,-0.439082 6.5097655,-0.720704 A 0.750075,0.750075 0 0 0 16.25,21 v -1.5 a 0.750075,0.750075 0 0 0 -0.888672,-0.736328 c 0,0 -1.941757,0.354941 -3.75,0.238281 C 10.707207,18.943623 9.8528418,18.750116 9.3554688,18.441406 9.068764,18.263454 8.9067951,18.064538 8.8144531,17.808594 c 3.3987549,0.385434 6.4241419,0.404322 8.6933589,-0.208985 1.241672,-0.335589 2.288646,-0.849563 3.048829,-1.61914 C 21.316823,15.210891 21.75,14.171871 21.75,13 V 9 C 21.75016,6.0681823 20.630382,4.1597982 19.201172,3.0878906 17.771962,2.0159831 16.12513,1.75 15,1.75 Z m 0,1.5 h 6 c 0.875168,0 2.229994,0.2340188 3.300781,1.0371094 C 19.371569,5.0901999 20.25014,6.4318232 20.25,9 v 4 c 0,0.828127 -0.254341,1.41411 -0.759766,1.925781 -0.505424,0.511671 -1.302237,0.9352 -2.373047,1.22461 -2.141619,0.57882 -5.323816,0.597965 -9.0175776,0.105468 a 0.750075,0.750075 0 0 0 -0.84375,0.650391 c -0.1547945,1.238529 0.4465735,2.273554 1.3085937,2.808594 0.8620203,0.535039 1.9158329,0.716533 2.9492189,0.783203 1.621507,0.104613 2.615444,-0.10527 3.236328,-0.205078 v 0.115234 C 13.77852,20.686726 11.605535,21.199999 9.3984375,20.943359 8.1522219,20.79845 6.9736408,20.41173 6.0664062,19.652344 5.1591717,18.892957 4.4754323,17.756454 4.2441406,15.90625 3.9251321,13.354397 3.9618241,10.991519 3.8867188,8.9726563 3.7898186,6.3634773 4.4392472,5.0262655 5.3496094,4.2617187 6.2599715,3.497172 7.5832767,3.25 9,3.25 Z"
     id="path3" />
</svg>
