<?xml version="1.0" encoding="UTF-8" standalone="no"?>
<svg
   width="24"
   height="24"
   stroke-width="1.5"
   viewBox="0 0 24 24"
   fill="none"
   version="1.1"
   id="svg4"
   sodipodi:docname="medal.svg"
   inkscape:version="1.2.1 (9c6d41e410, 2022-07-14)"
   xmlns:inkscape="http://www.inkscape.org/namespaces/inkscape"
   xmlns:sodipodi="http://sodipodi.sourceforge.net/DTD/sodipodi-0.dtd"
   xmlns="http://www.w3.org/2000/svg"
   xmlns:svg="http://www.w3.org/2000/svg">
  <defs
     id="defs8" />
  <sodipodi:namedview
     id="namedview6"
     pagecolor="#ffffff"
     bordercolor="#666666"
     borderopacity="1.0"
     inkscape:showpageshadow="2"
     inkscape:pageopacity="0.0"
     inkscape:pagecheckerboard="0"
     inkscape:deskcolor="#d1d1d1"
     showgrid="false"
     inkscape:zoom="34.541667"
     inkscape:cx="10.364294"
     inkscape:cy="12.014475"
     inkscape:window-width="1920"
     inkscape:window-height="1009"
     inkscape:window-x="1912"
     inkscape:window-y="-8"
     inkscape:window-maximized="1"
     inkscape:current-layer="svg4" />
  <path
     style="color:#000000;fill:currentColor;stroke-linecap:round;stroke-linejoin:round;-inkscape-stroke:none"
     d="M 9.078125,1.2910156 A 0.75,0.75 0 0 0 8.5058594,1.3261719 0.75,0.75 0 0 0 8.1601563,2.328125 L 11.580078,9.3359375 C 10.92264,9.3788587 10.288722,9.4979297 9.6953125,9.7167969 L 5.6699219,1.6640625 A 0.75,0.75 0 0 0 4.6640625,1.3300781 0.75,0.75 0 0 0 4.3300781,2.3359375 L 8.3867188,10.449219 C 6.543751,11.656276 5.25,13.639533 5.25,16 c 0,3.719027 3.0309625,6.75 6.75,6.75 3.719029,0 6.75,-3.030971 6.75,-6.75 0,-2.535293 -1.466127,-4.668745 -3.541016,-5.822266 L 18.685547,2.3027344 A 0.75,0.75 0 0 0 18.302734,1.3144531 0.75,0.75 0 0 0 17.314453,1.6972656 L 13.818359,9.6171875 C 13.662907,9.5725105 13.499621,9.5550304 13.339844,9.5214844 L 9.5097656,1.671875 A 0.75,0.75 0 0 0 9.078125,1.2910156 Z m 4.996094,0.015625 a 0.75,0.75 0 0 0 -0.40625,0.40625 l -1.041016,2.5 a 0.75,0.75 0 0 0 0.404297,0.9804688 0.75,0.75 0 0 0 0.980469,-0.40625 l 1.041015,-2.5 a 0.75,0.75 0 0 0 -0.404296,-0.9804688 0.75,0.75 0 0 0 -0.574219,0 z M 12,10.75 c 2.908365,0 5.25,2.341635 5.25,5.25 0,2.908365 -2.341635,5.25 -5.25,5.25 -2.9083759,0 -5.25,-2.341634 -5.25,-5.25 0,-2.908366 2.3416241,-5.25 5.25,-5.25 z"
     id="path2" />
</svg>
