<?xml version="1.0" encoding="UTF-8" standalone="no"?>
<svg
   width="24"
   height="24"
   stroke-width="1.5"
   viewBox="0 0 24 24"
   fill="none"
   version="1.1"
   id="svg8"
   sodipodi:docname="media-video-folder.svg"
   inkscape:version="1.2.1 (9c6d41e410, 2022-07-14)"
   xmlns:inkscape="http://www.inkscape.org/namespaces/inkscape"
   xmlns:sodipodi="http://sodipodi.sourceforge.net/DTD/sodipodi-0.dtd"
   xmlns="http://www.w3.org/2000/svg"
   xmlns:svg="http://www.w3.org/2000/svg">
  <defs
     id="defs12" />
  <sodipodi:namedview
     id="namedview10"
     pagecolor="#ffffff"
     bordercolor="#666666"
     borderopacity="1.0"
     inkscape:showpageshadow="2"
     inkscape:pageopacity="0.0"
     inkscape:pagecheckerboard="0"
     inkscape:deskcolor="#d1d1d1"
     showgrid="false"
     inkscape:zoom="34.541667"
     inkscape:cx="10.364294"
     inkscape:cy="12.014475"
     inkscape:window-width="1920"
     inkscape:window-height="1009"
     inkscape:window-x="1912"
     inkscape:window-y="-8"
     inkscape:window-maximized="1"
     inkscape:current-layer="svg8" />
  <path
     style="color:#000000;fill:currentColor;stroke-linecap:round;stroke-linejoin:round;-inkscape-stroke:none"
     d="M 13.599609,11.25 C 12.86296,11.25 12.25,11.86296 12.25,12.599609 v 7.800782 c 0,0.736649 0.61296,1.349609 1.349609,1.349609 h 7.800782 C 22.13704,21.75 22.75,21.13704 22.75,20.400391 V 12.599609 C 22.75,11.86296 22.13704,11.25 21.400391,11.25 Z M 13.75,12.75 h 7.5 v 7.5 h -7.5 z"
     id="path2" />
  <path
     style="color:#000000;fill:currentColor;stroke-linecap:round;stroke-linejoin:round;-inkscape-stroke:none"
     d="M 15.957031,13.923828 C 15.548928,14.150023 15.25,14.571389 15.25,15.082031 v 2.835938 c 0,1.021284 1.200351,1.685707 2.066406,1.144531 l 2.267578,-1.417969 c 0.820048,-0.51253 0.820048,-1.776532 0,-2.289062 L 17.316406,13.9375 c -0.433028,-0.270588 -0.951272,-0.239867 -1.359375,-0.01367 z M 16.75,15.353516 18.585937,16.5 16.75,17.646484 Z"
     id="path4" />
  <path
     style="color:#000000;fill:currentColor;stroke-linecap:round;stroke-linejoin:round;-inkscape-stroke:none"
     d="M 2.5996094,2.25 C 1.8629077,2.25 1.25,2.8629077 1.25,3.5996094 V 10 18.400391 C 1.25,19.137086 1.862953,19.75 2.5996094,19.75 H 10 A 0.75,0.75 0 0 0 10.75,19 0.75,0.75 0 0 0 10,18.25 H 2.75 v -7.5 H 10 A 0.75,0.75 0 0 0 10.75,10 0.75,0.75 0 0 0 10,9.25 H 2.75 V 3.75 H 8.7207031 L 11.84375,6.4257812 C 12.088322,6.6355016 12.400571,6.75 12.722656,6.75 H 21.25 V 9 A 0.75,0.75 0 0 0 22,9.75 0.75,0.75 0 0 0 22.75,9 V 6.5996094 C 22.75,5.862953 22.137086,5.25 21.400391,5.25 H 12.779297 L 9.65625,2.5742188 C 9.4117205,2.3646317 9.0994491,2.25 8.7773438,2.25 Z"
     id="path6" />
</svg>
