<?xml version="1.0" encoding="UTF-8" standalone="no"?>
<svg
   width="24"
   height="24"
   stroke-width="1.5"
   viewBox="0 0 24 24"
   fill="none"
   version="1.1"
   id="svg8"
   sodipodi:docname="medium.svg"
   inkscape:version="1.2.1 (9c6d41e410, 2022-07-14)"
   xmlns:inkscape="http://www.inkscape.org/namespaces/inkscape"
   xmlns:sodipodi="http://sodipodi.sourceforge.net/DTD/sodipodi-0.dtd"
   xmlns="http://www.w3.org/2000/svg"
   xmlns:svg="http://www.w3.org/2000/svg">
  <defs
     id="defs12" />
  <sodipodi:namedview
     id="namedview10"
     pagecolor="#ffffff"
     bordercolor="#666666"
     borderopacity="1.0"
     inkscape:showpageshadow="2"
     inkscape:pageopacity="0.0"
     inkscape:pagecheckerboard="0"
     inkscape:deskcolor="#d1d1d1"
     showgrid="false"
     inkscape:zoom="34.541667"
     inkscape:cx="10.364294"
     inkscape:cy="12.014475"
     inkscape:window-width="1920"
     inkscape:window-height="1009"
     inkscape:window-x="1912"
     inkscape:window-y="-8"
     inkscape:window-maximized="1"
     inkscape:current-layer="svg8" />
  <path
     style="color:#000000;fill:currentColor;stroke-linecap:round;stroke-linejoin:round;-inkscape-stroke:none"
     d="m 7,7.25 c -2.6144671,0 -4.75,2.1355329 -4.75,4.75 0,2.614434 2.1355239,4.75 4.75,4.75 2.6144761,0 4.75,-2.135566 4.75,-4.75 C 11.75,9.3855329 9.6144671,7.25 7,7.25 Z m 0,1.5 c 1.8038085,0 3.25,1.446191 3.25,3.25 0,1.803761 -1.4462005,3.25 -3.25,3.25 C 5.1962005,15.25 3.75,13.803761 3.75,12 3.75,10.196191 5.1961915,8.75 7,8.75 Z"
     id="path2" />
  <path
     style="color:#000000;fill:currentColor;stroke-linecap:round;stroke-linejoin:round;-inkscape-stroke:none"
     d="m 15,7.25 c -0.957618,0 -1.65577,0.7255938 -2.085937,1.5859375 C 12.483895,9.6962812 12.25,10.794102 12.25,12 c 0,1.20588 0.233897,2.303716 0.664063,3.164063 C 13.344228,16.024409 14.042373,16.75 15,16.75 c 0.957627,0 1.655772,-0.725591 2.085937,-1.585937 C 17.516103,14.303716 17.75,13.20588 17.75,12 17.75,10.794102 17.516105,9.6962812 17.085937,8.8359375 16.65577,7.9755938 15.957618,7.25 15,7.25 Z m 0,1.5 c 0.146981,0 0.450459,0.1704427 0.744141,0.7578125 C 16.037823,10.095182 16.25,10.99676 16.25,12 c 0,1.003218 -0.212176,1.904811 -0.505859,2.492188 C 15.450457,15.079564 15.146972,15.25 15,15.25 14.853028,15.25 14.549543,15.079564 14.255859,14.492188 13.962176,13.904811 13.75,13.003218 13.75,12 c 0,-1.00324 0.212177,-1.904818 0.505859,-2.4921875 C 14.549541,8.9204427 14.853019,8.75 15,8.75 Z"
     id="path4" />
  <path
     style="color:#000000;fill:currentColor;stroke-linecap:round;stroke-linejoin:round;-inkscape-stroke:none"
     d="m 20,7.25 c -0.543393,0 -0.854616,0.3781479 -1.035156,0.6835937 -0.18054,0.3054459 -0.299025,0.651171 -0.400391,1.0566407 C 18.36172,9.8011736 18.25,10.844767 18.25,12 c 0,1.155214 0.111721,2.198823 0.314453,3.009766 0.101366,0.405471 0.219852,0.751192 0.400391,1.05664 C 19.145382,16.371854 19.456598,16.75 20,16.75 c 0.543402,0 0.854618,-0.378146 1.035156,-0.683594 0.180539,-0.305448 0.299025,-0.651169 0.400391,-1.05664 C 21.638279,14.198823 21.75,13.155214 21.75,12 21.75,10.844767 21.63828,9.8011736 21.435547,8.9902344 21.334181,8.5847647 21.215696,8.2390396 21.035156,7.9335937 20.854616,7.6281479 20.543393,7.25 20,7.25 Z m 0,2.2949219 C 20.140944,10.177385 20.25,11.02232 20.25,12 20.25,12.97766 20.140945,13.82261 20,14.455078 19.859055,13.82261 19.75,12.97766 19.75,12 c 0,-0.97768 0.109056,-1.822615 0.25,-2.4550781 z"
     id="path6" />
</svg>
