<?xml version="1.0" encoding="UTF-8" standalone="no"?>
<svg
   width="24"
   height="24"
   stroke-width="1.5"
   viewBox="0 0 24 24"
   fill="none"
   version="1.1"
   id="svg8"
   sodipodi:docname="media-video-list.svg"
   inkscape:version="1.2.1 (9c6d41e410, 2022-07-14)"
   xmlns:inkscape="http://www.inkscape.org/namespaces/inkscape"
   xmlns:sodipodi="http://sodipodi.sourceforge.net/DTD/sodipodi-0.dtd"
   xmlns="http://www.w3.org/2000/svg"
   xmlns:svg="http://www.w3.org/2000/svg">
  <defs
     id="defs12" />
  <sodipodi:namedview
     id="namedview10"
     pagecolor="#ffffff"
     bordercolor="#666666"
     borderopacity="1.0"
     inkscape:showpageshadow="2"
     inkscape:pageopacity="0.0"
     inkscape:pagecheckerboard="0"
     inkscape:deskcolor="#d1d1d1"
     showgrid="false"
     inkscape:zoom="34.541667"
     inkscape:cx="10.364294"
     inkscape:cy="12.014475"
     inkscape:window-width="1920"
     inkscape:window-height="1009"
     inkscape:window-x="1912"
     inkscape:window-y="-8"
     inkscape:window-maximized="1"
     inkscape:current-layer="svg8" />
  <path
     style="color:#000000;fill:currentColor;stroke-linecap:round;stroke-linejoin:round;-inkscape-stroke:none"
     d="M 7.5996094,6.25 C 6.8629077,6.25 6.25,6.8629077 6.25,7.5996094 V 20.400391 C 6.25,21.137086 6.862953,21.75 7.5996094,21.75 H 20.400391 C 21.13704,21.75 21.75,21.13704 21.75,20.400391 V 7.5996094 C 21.75,6.862953 21.137086,6.25 20.400391,6.25 Z M 7.75,7.75 h 12.5 v 12.5 H 7.75 Z"
     id="path2" />
  <path
     style="color:#000000;fill:currentColor;stroke-linecap:round;stroke-linejoin:round;-inkscape-stroke:none"
     d="M 4.5996094,3.25 C 3.8629077,3.25 3.25,3.8629077 3.25,4.5996094 V 18 A 0.75,0.75 0 0 0 4,18.75 0.75,0.75 0 0 0 4.75,18 V 4.75 H 18 A 0.75,0.75 0 0 0 18.75,4 0.75,0.75 0 0 0 18,3.25 Z"
     id="path4" />
  <path
     style="color:#000000;fill:currentColor;stroke-linecap:round;stroke-linejoin:round;-inkscape-stroke:none"
     d="M 13.294922,10.902344 C 12.427298,10.381856 11.25,11.048693 11.25,12.060547 v 3.878906 c 0,1.011854 1.177298,1.678691 2.044922,1.158203 l 3.234375,-1.939453 c 0.845435,-0.507174 0.845435,-1.809232 0,-2.316406 z M 12.75,12.324219 15.541016,14 12.75,15.675781 Z"
     id="path6" />
</svg>
