<?xml version="1.0" encoding="UTF-8" standalone="no"?>
<svg
   width="24"
   height="24"
   stroke-width="1.5"
   viewBox="0 0 24 24"
   fill="none"
   version="1.1"
   id="svg6"
   sodipodi:docname="megaphone.svg"
   inkscape:version="1.2.1 (9c6d41e410, 2022-07-14)"
   xmlns:inkscape="http://www.inkscape.org/namespaces/inkscape"
   xmlns:sodipodi="http://sodipodi.sourceforge.net/DTD/sodipodi-0.dtd"
   xmlns="http://www.w3.org/2000/svg"
   xmlns:svg="http://www.w3.org/2000/svg">
  <defs
     id="defs10" />
  <sodipodi:namedview
     id="namedview8"
     pagecolor="#ffffff"
     bordercolor="#666666"
     borderopacity="1.0"
     inkscape:showpageshadow="2"
     inkscape:pageopacity="0.0"
     inkscape:pagecheckerboard="0"
     inkscape:deskcolor="#d1d1d1"
     showgrid="false"
     inkscape:zoom="34.541667"
     inkscape:cx="10.364294"
     inkscape:cy="12.014475"
     inkscape:window-width="1920"
     inkscape:window-height="1009"
     inkscape:window-x="1912"
     inkscape:window-y="-8"
     inkscape:window-maximized="1"
     inkscape:current-layer="svg6" />
  <path
     style="color:#000000;fill:currentColor;-inkscape-stroke:none"
     d="M 19.730469,1.8613281 13.800781,5.25 H 7 c -2.6144671,0 -4.75,2.1355329 -4.75,4.75 0,2.614434 2.1355239,4.75 4.75,4.75 h 6.800781 l 5.929688,3.388672 C 20.599419,18.635277 21.75,17.967652 21.75,16.966797 V 3.0332031 c 0,-1.0008553 -1.15055,-1.6684325 -2.019531,-1.171875 z M 20.25,3.2929688 V 16.707031 l -5.5,-3.142578 V 6.4355469 Z M 7,6.75 h 6.25 v 6.5 H 7 C 5.1962005,13.25 3.75,11.803761 3.75,10 3.75,8.1961915 5.1961915,6.75 7,6.75 Z"
     id="path2" />
  <path
     style="color:#000000;fill:currentColor;-inkscape-stroke:none"
     d="M 6.1347656,13.25 7.015625,19.40625 C 7.2069583,20.745611 8.3638437,21.75 9.7167969,21.75 c 1.6476771,0 2.9361541,-1.484029 2.7031251,-3.115234 L 11.650391,13.25 Z m 1.7304688,1.5 h 2.4843746 l 0.585938,4.095703 C 11.043317,19.600095 10.478797,20.25 9.7167969,20.25 9.099152,20.25 8.5873464,19.804797 8.5,19.193359 Z"
     id="path4" />
</svg>
