<?xml version="1.0" encoding="UTF-8" standalone="no"?>
<svg
   width="24"
   height="24"
   stroke-width="1.5"
   viewBox="0 0 24 24"
   fill="none"
   version="1.1"
   id="svg8"
   sodipodi:docname="message-text.svg"
   inkscape:version="1.2.1 (9c6d41e410, 2022-07-14)"
   xmlns:inkscape="http://www.inkscape.org/namespaces/inkscape"
   xmlns:sodipodi="http://sodipodi.sourceforge.net/DTD/sodipodi-0.dtd"
   xmlns="http://www.w3.org/2000/svg"
   xmlns:svg="http://www.w3.org/2000/svg">
  <defs
     id="defs12" />
  <sodipodi:namedview
     id="namedview10"
     pagecolor="#ffffff"
     bordercolor="#666666"
     borderopacity="1.0"
     inkscape:showpageshadow="2"
     inkscape:pageopacity="0.0"
     inkscape:pagecheckerboard="0"
     inkscape:deskcolor="#d1d1d1"
     showgrid="false"
     inkscape:zoom="34.541667"
     inkscape:cx="10.364294"
     inkscape:cy="12.014475"
     inkscape:window-width="1920"
     inkscape:window-height="1009"
     inkscape:window-x="1912"
     inkscape:window-y="-8"
     inkscape:window-maximized="1"
     inkscape:current-layer="svg8" />
  <path
     style="color:#000000;fill:currentColor;stroke-linecap:round;stroke-linejoin:round;-inkscape-stroke:none"
     d="M 7,11.25 A 0.75,0.75 0 0 0 6.25,12 0.75,0.75 0 0 0 7,12.75 H 17 A 0.75,0.75 0 0 0 17.75,12 0.75,0.75 0 0 0 17,11.25 Z"
     id="path2" />
  <path
     style="color:#000000;fill:currentColor;stroke-linecap:round;stroke-linejoin:round;-inkscape-stroke:none"
     d="M 7,7.25 A 0.75,0.75 0 0 0 6.25,8 0.75,0.75 0 0 0 7,8.75 h 6 A 0.75,0.75 0 0 0 13.75,8 0.75,0.75 0 0 0 13,7.25 Z"
     id="path4" />
  <path
     style="color:#000000;fill:currentColor;-inkscape-stroke:none"
     d="M 5,2.25 C 3.4901018,2.25 2.25,3.4901018 2.25,5 v 15.289062 c 0,0.598396 0.4121684,1.101507 0.9023438,1.273438 0.4901753,0.171931 1.1281485,0.03758 1.5019531,-0.429688 L 6.984375,18.21875 C 7.221951,17.921804 7.5806668,17.75 7.9609375,17.75 H 19 c 1.509904,0 2.75,-1.240096 2.75,-2.75 V 5 C 21.75,3.4901154 20.509917,2.25 19,2.25 Z m 0,1.5 h 14 c 0.699281,0 1.25,0.5507468 1.25,1.25 v 10 c 0,0.699294 -0.550706,1.25 -1.25,1.25 H 7.9609375 c -0.8348681,0 -1.6249611,0.379397 -2.1464844,1.03125 L 3.75,19.861328 V 5 C 3.75,4.3007604 4.3007604,3.75 5,3.75 Z"
     id="path6" />
</svg>
