<?xml version="1.0" encoding="UTF-8" standalone="no"?>
<svg
   width="24"
   height="24"
   viewBox="0 0 24 24"
   stroke-width="1.5"
   fill="none"
   version="1.1"
   id="svg3"
   sodipodi:docname="meter-arrow-down-right.svg"
   inkscape:version="1.3.1 (91b66b0783, 2023-11-16)"
   xmlns:inkscape="http://www.inkscape.org/namespaces/inkscape"
   xmlns:sodipodi="http://sodipodi.sourceforge.net/DTD/sodipodi-0.dtd"
   xmlns="http://www.w3.org/2000/svg"
   xmlns:svg="http://www.w3.org/2000/svg">
  <defs
     id="defs3" />
  <sodipodi:namedview
     id="namedview3"
     pagecolor="#ffffff"
     bordercolor="#666666"
     borderopacity="1.0"
     inkscape:showpageshadow="2"
     inkscape:pageopacity="0.0"
     inkscape:pagecheckerboard="0"
     inkscape:deskcolor="#d1d1d1"
     inkscape:zoom="33.875"
     inkscape:cx="11.98524"
     inkscape:cy="12"
     inkscape:window-width="1920"
     inkscape:window-height="1009"
     inkscape:window-x="1912"
     inkscape:window-y="-8"
     inkscape:window-maximized="1"
     inkscape:current-layer="svg3" />
  <path
     style="color:#000000;fill:currentColor;stroke-linecap:round;stroke-linejoin:round;-inkscape-stroke:none"
     d="m 2.5,2.75 a 0.75,0.75 0 0 0 -0.53125,0.2207031 0.75,0.75 0 0 0 0,1.0605469 L 5.1894531,7.25 H 3 A 0.75,0.75 0 0 0 2.25,8 0.75,0.75 0 0 0 3,8.75 H 7 A 0.75,0.75 0 0 0 7.53125,8.5292969 0.75,0.75 0 0 0 7.6933594,8.2871094 0.75,0.75 0 0 0 7.75,8 V 4 A 0.75,0.75 0 0 0 7,3.25 0.75,0.75 0 0 0 6.25,4 V 6.1875 L 3.03125,2.9707031 A 0.75,0.75 0 0 0 2.5,2.75 Z"
     id="path1" />
  <path
     style="color:#000000;fill:currentColor;stroke-linecap:round;stroke-linejoin:round;-inkscape-stroke:none"
     d="m 11.5,11.75 a 0.75,0.75 0 0 0 -0.53125,0.21875 0.75,0.75 0 0 0 0,1.0625 l 3.5,3.5 a 0.75,0.75 0 0 0 1.0625,0 0.75,0.75 0 0 0 0,-1.0625 l -3.5,-3.5 A 0.75,0.75 0 0 0 11.5,11.75 Z"
     id="path2" />
  <path
     style="color:#000000;fill:currentColor;-inkscape-stroke:none"
     d="m 14.5,8.25 c -4.5384162,0 -8.25,3.619344 -8.25,8.083984 0,1.249503 0.2903533,2.43658 0.8085937,3.494141 C 7.349295,20.421301 7.9600483,20.75 8.5742188,20.75 H 20.425781 c 0.614152,0 1.224872,-0.328783 1.515625,-0.921875 C 22.45958,18.770586 22.75,17.583495 22.75,16.333984 22.75,11.869344 19.038416,8.25 14.5,8.25 Z m 0,1.5 c 3.745776,0 6.75,2.948433 6.75,6.583984 0,1.017487 -0.235425,1.975126 -0.65625,2.833985 -0.02045,0.04171 -0.07532,0.08203 -0.167969,0.08203 H 8.5742188 C 8.4814499,19.25 8.4266485,19.209592 8.40625,19.167969 7.9853914,18.309132 7.75,17.35148 7.75,16.333984 7.75,12.698433 10.754224,9.75 14.5,9.75 Z"
     id="path3" />
</svg>
