<?xml version="1.0" encoding="UTF-8" standalone="no"?>
<svg
   width="24"
   height="24"
   viewBox="0 0 24 24"
   stroke-width="1.5"
   fill="none"
   version="1.1"
   id="svg20"
   sodipodi:docname="metro.svg"
   inkscape:version="1.2.1 (9c6d41e410, 2022-07-14)"
   xmlns:inkscape="http://www.inkscape.org/namespaces/inkscape"
   xmlns:sodipodi="http://sodipodi.sourceforge.net/DTD/sodipodi-0.dtd"
   xmlns="http://www.w3.org/2000/svg"
   xmlns:svg="http://www.w3.org/2000/svg">
  <defs
     id="defs24" />
  <sodipodi:namedview
     id="namedview22"
     pagecolor="#ffffff"
     bordercolor="#666666"
     borderopacity="1.0"
     inkscape:showpageshadow="2"
     inkscape:pageopacity="0.0"
     inkscape:pagecheckerboard="0"
     inkscape:deskcolor="#d1d1d1"
     showgrid="false"
     inkscape:zoom="34.541667"
     inkscape:cx="10.364294"
     inkscape:cy="12.014475"
     inkscape:window-width="1920"
     inkscape:window-height="1009"
     inkscape:window-x="1912"
     inkscape:window-y="-8"
     inkscape:window-maximized="1"
     inkscape:current-layer="svg20" />
  <path
     style="color:#000000;fill:currentColor;stroke-linecap:round;stroke-linejoin:round;-inkscape-stroke:none"
     d="m 13.970703,15.25 a 0.75,0.75 0 0 0 -0.517578,0.246094 l -0.0098,0.01172 a 0.75,0.75 0 0 0 0.05469,1.058593 0.75,0.75 0 0 0 1.058594,-0.05469 L 14.566406,16.5 A 0.75,0.75 0 0 0 14.511719,15.441406 0.75,0.75 0 0 0 13.970703,15.25 Z"
     id="path2" />
  <path
     style="color:#000000;fill:currentColor;stroke-linecap:round;stroke-linejoin:round;-inkscape-stroke:none"
     d="M 9.9707031,15.25 A 0.75,0.75 0 0 0 9.453125,15.496094 l -0.00977,0.01172 a 0.75,0.75 0 0 0 0.054687,1.058593 0.75,0.75 0 0 0 1.0585941,-0.05469 L 10.566406,16.5 A 0.75,0.75 0 0 0 10.511719,15.441406 0.75,0.75 0 0 0 9.9707031,15.25 Z"
     id="path4" />
  <path
     style="color:#000000;fill:currentColor;stroke-linecap:round;stroke-linejoin:round;-inkscape-stroke:none"
     d="M 12,1.25 C 6.0718263,1.25 1.25,6.0718263 1.25,12 v 3 c 0,3.166731 2.5832482,5.75 5.75,5.75 h 10 c 3.166735,0 5.75,-2.583265 5.75,-5.75 V 12 C 22.75,6.0718217 17.928127,1.25 12,1.25 Z m 0,1.5 c 5.117462,0 9.25,4.1324893 9.25,9.25 v 3 c 0,2.35606 -1.89394,4.25 -4.25,4.25 H 7 C 4.6439173,19.25 2.75,17.356063 2.75,15 V 12 C 2.75,6.8824848 6.8824848,2.75 12,2.75 Z"
     id="path6" />
  <path
     style="color:#000000;fill:currentColor;stroke-linecap:round;stroke-linejoin:round;-inkscape-stroke:none"
     d="M 11,6.25 C 7.8332519,6.25 5.25,8.8332519 5.25,12 v 3 c 0,3.166731 2.5832482,5.75 5.75,5.75 h 2 c 3.166735,0 5.75,-2.583265 5.75,-5.75 V 12 C 18.75,8.8332482 16.166731,6.25 13,6.25 Z m 0,1.5 h 2 c 2.356063,0 4.25,1.8939173 4.25,4.25 v 3 c 0,2.35606 -1.89394,4.25 -4.25,4.25 H 11 C 8.6439173,19.25 6.75,17.356063 6.75,15 V 12 C 6.75,9.6439137 8.6439137,7.75 11,7.75 Z"
     id="path8" />
  <path
     style="color:#000000;fill:currentColor;stroke-linecap:round;-inkscape-stroke:none"
     d="M 10.417969,19.253906 A 0.75,0.75 0 0 0 9.9140625,19.53125 l -2,2.5 A 0.75,0.75 0 0 0 8.03125,23.085937 0.75,0.75 0 0 0 9.0859375,22.96875 l 2.0000005,-2.5 A 0.75,0.75 0 0 0 10.96875,19.414062 0.75,0.75 0 0 0 10.417969,19.253906 Z"
     id="path10" />
  <path
     style="color:#000000;fill:currentColor;stroke-linecap:round;-inkscape-stroke:none"
     d="m 13.582031,19.253906 a 0.75,0.75 0 0 0 -0.550781,0.160156 0.75,0.75 0 0 0 -0.117187,1.054688 l 2,2.5 a 0.75,0.75 0 0 0 1.054687,0.117187 0.75,0.75 0 0 0 0.117187,-1.054687 l -1.999999,-2.5 a 0.75,0.75 0 0 0 -0.503907,-0.277344 z"
     id="path12" />
  <path
     style="color:#000000;fill:currentColor;stroke-linecap:round;-inkscape-stroke:none"
     d="m 16.582031,19.253906 a 0.75,0.75 0 0 0 -0.550781,0.160156 0.75,0.75 0 0 0 -0.117187,1.054688 l 1.999999,2.5 a 0.75,0.75 0 0 0 1.054688,0.117187 0.75,0.75 0 0 0 0.117187,-1.054687 l -2,-2.5 a 0.75,0.75 0 0 0 -0.503906,-0.277344 z"
     id="path14" />
  <path
     style="color:#000000;fill:currentColor;stroke-linecap:round;-inkscape-stroke:none"
     d="M 7.4179687,19.253906 A 0.75,0.75 0 0 0 6.9140625,19.53125 l -2,2.5 A 0.75,0.75 0 0 0 5.03125,23.085937 0.75,0.75 0 0 0 6.0859375,22.96875 l 2,-2.5 A 0.75,0.75 0 0 0 7.96875,19.414062 0.75,0.75 0 0 0 7.4179687,19.253906 Z"
     id="path16" />
  <path
     style="color:#000000;fill:currentColor;stroke-linecap:round;stroke-linejoin:round;-inkscape-stroke:none"
     d="M 11.785156,9.25 C 10.393614,9.25 9.25,10.393614 9.25,11.785156 9.25,12.308539 9.6914612,12.75 10.214844,12.75 h 3.570312 C 14.308539,12.75 14.75,12.308539 14.75,11.785156 14.75,10.393614 13.606386,9.25 12.214844,9.25 Z m 0,1.5 h 0.429688 c 0.369274,0 0.633484,0.216825 0.816406,0.5 h -2.0625 c 0.182922,-0.283175 0.447132,-0.5 0.816406,-0.5 z"
     id="path18" />
</svg>
