<?xml version="1.0" encoding="UTF-8" standalone="no"?>
<svg
   width="24"
   height="24"
   stroke-width="1.5"
   viewBox="0 0 24 24"
   fill="none"
   version="1.1"
   id="svg12"
   sodipodi:docname="microphone-warning.svg"
   inkscape:version="1.2.1 (9c6d41e410, 2022-07-14)"
   xmlns:inkscape="http://www.inkscape.org/namespaces/inkscape"
   xmlns:sodipodi="http://sodipodi.sourceforge.net/DTD/sodipodi-0.dtd"
   xmlns="http://www.w3.org/2000/svg"
   xmlns:svg="http://www.w3.org/2000/svg">
  <defs
     id="defs16" />
  <sodipodi:namedview
     id="namedview14"
     pagecolor="#ffffff"
     bordercolor="#666666"
     borderopacity="1.0"
     inkscape:showpageshadow="2"
     inkscape:pageopacity="0.0"
     inkscape:pagecheckerboard="0"
     inkscape:deskcolor="#d1d1d1"
     showgrid="false"
     inkscape:zoom="34.541667"
     inkscape:cx="10.364294"
     inkscape:cy="12.014475"
     inkscape:window-width="1920"
     inkscape:window-height="1009"
     inkscape:window-x="1912"
     inkscape:window-y="-8"
     inkscape:window-maximized="1"
     inkscape:current-layer="svg12" />
  <path
     style="color:#000000;fill:currentColor;stroke-linecap:round;stroke-linejoin:round;-inkscape-stroke:none"
     d="M 21,13.25 A 0.75,0.75 0 0 0 20.25,14 v 4 A 0.75,0.75 0 0 0 21,18.75 0.75,0.75 0 0 0 21.75,18 V 14 A 0.75,0.75 0 0 0 21,13.25 Z"
     id="path2" />
  <path
     style="color:#000000;fill:currentColor;stroke-linecap:round;stroke-linejoin:round;-inkscape-stroke:none"
     d="m 21.511719,21.441406 a 0.75,0.75 0 0 0 -1.058594,0.05469 l -0.0098,0.01172 a 0.75,0.75 0 0 0 0.05469,1.058594 0.75,0.75 0 0 0 1.058594,-0.05469 L 21.566406,22.5 a 0.75,0.75 0 0 0 -0.05469,-1.058594 z"
     id="path4" />
  <path
     style="color:#000000;fill:currentColor;-inkscape-stroke:none"
     d="M 10,1.25 C 7.935475,1.25 6.25,2.935475 6.25,5 v 6 c 0,2.064525 1.685475,3.75 3.75,3.75 2.064525,0 3.75,-1.685475 3.75,-3.75 V 5 C 13.75,2.935475 12.064525,1.25 10,1.25 Z m 0,1.5 c 1.259472,0 2.25,0.9905283 2.25,2.25 v 6 c 0,1.259472 -0.990528,2.25 -2.25,2.25 C 8.7405283,13.25 7.75,12.259472 7.75,11 V 5 C 7.75,3.7405283 8.7405283,2.75 10,2.75 Z"
     id="rect6" />
  <path
     style="color:#000000;fill:currentColor;stroke-linecap:round;stroke-linejoin:round;-inkscape-stroke:none"
     d="M 3,9.25 A 0.75,0.75 0 0 0 2.25,10 v 1 c 0,4.271326 3.4786847,7.75 7.75,7.75 4.271324,0 7.75,-3.478676 7.75,-7.75 V 10 A 0.75,0.75 0 0 0 17,9.25 0.75,0.75 0 0 0 16.25,10 v 1 c 0,3.460668 -2.789332,6.25 -6.25,6.25 C 6.539343,17.25 3.75,14.460667 3.75,11 V 10 A 0.75,0.75 0 0 0 3,9.25 Z"
     id="path8" />
  <path
     style="color:#000000;fill:currentColor;stroke-linecap:round;stroke-linejoin:round;-inkscape-stroke:none"
     d="M 10,17.25 A 0.75,0.75 0 0 0 9.25,18 v 3.25 H 7 A 0.75,0.75 0 0 0 6.25,22 0.75,0.75 0 0 0 7,22.75 h 3 3 A 0.75,0.75 0 0 0 13.75,22 0.75,0.75 0 0 0 13,21.25 H 10.75 V 18 A 0.75,0.75 0 0 0 10,17.25 Z"
     id="path10" />
</svg>
