<?xml version="1.0" encoding="UTF-8" standalone="no"?>
<svg
   width="24"
   height="24"
   stroke-width="1.5"
   viewBox="0 0 24 24"
   fill="none"
   version="1.1"
   id="svg10"
   sodipodi:docname="microphone-mute.svg"
   inkscape:version="1.2.1 (9c6d41e410, 2022-07-14)"
   xmlns:inkscape="http://www.inkscape.org/namespaces/inkscape"
   xmlns:sodipodi="http://sodipodi.sourceforge.net/DTD/sodipodi-0.dtd"
   xmlns="http://www.w3.org/2000/svg"
   xmlns:svg="http://www.w3.org/2000/svg">
  <defs
     id="defs14" />
  <sodipodi:namedview
     id="namedview12"
     pagecolor="#ffffff"
     bordercolor="#666666"
     borderopacity="1.0"
     inkscape:showpageshadow="2"
     inkscape:pageopacity="0.0"
     inkscape:pagecheckerboard="0"
     inkscape:deskcolor="#d1d1d1"
     showgrid="false"
     inkscape:zoom="34.541667"
     inkscape:cx="10.364294"
     inkscape:cy="12.014475"
     inkscape:window-width="1920"
     inkscape:window-height="1009"
     inkscape:window-x="1912"
     inkscape:window-y="-8"
     inkscape:window-maximized="1"
     inkscape:current-layer="svg10" />
  <path
     style="color:#000000;fill:currentColor;stroke-linecap:round;stroke-linejoin:round;-inkscape-stroke:none"
     d="m 3,2.25 a 0.75,0.75 0 0 0 -0.53125,0.21875 0.75,0.75 0 0 0 0,1.0625 l 18,18 a 0.75,0.75 0 0 0 1.0625,0 0.75,0.75 0 0 0 0,-1.0625 l -18,-18 A 0.75,0.75 0 0 0 3,2.25 Z"
     id="path2" />
  <path
     style="color:#000000;fill:currentColor;stroke-linecap:round;stroke-linejoin:round;-inkscape-stroke:none"
     d="M 12,1.25 C 9.9377819,1.25 8.25,2.9378347 8.25,5 V 5.5 A 0.75,0.75 0 0 0 9,6.25 0.75,0.75 0 0 0 9.75,5.5 V 5 c 0,-1.2515314 0.998421,-2.25 2.25,-2.25 1.251579,0 2.25,0.9984686 2.25,2.25 v 5.5 A 0.75,0.75 0 0 0 15,11.25 0.75,0.75 0 0 0 15.75,10.5 V 5 C 15.75,2.9378347 14.062218,1.25 12,1.25 Z m -3,7 A 0.75,0.75 0 0 0 8.25,9 c 0,3.166735 2.583265,5.75 5.75,5.75 A 0.75,0.75 0 0 0 14.75,14 0.75,0.75 0 0 0 14,13.25 C 11.64394,13.25 9.75,11.35606 9.75,9 A 0.75,0.75 0 0 0 9,8.25 Z"
     id="path4" />
  <path
     style="color:#000000;fill:currentColor;stroke-linecap:round;stroke-linejoin:round;-inkscape-stroke:none"
     d="M 5,9.25 A 0.75,0.75 0 0 0 4.25,10 v 1 c 0,4.271326 3.4786847,7.75 7.75,7.75 4.271324,0 7.75,-3.478676 7.75,-7.75 V 10 A 0.75,0.75 0 0 0 19,9.25 0.75,0.75 0 0 0 18.25,10 v 1 c 0,3.460668 -2.789332,6.25 -6.25,6.25 C 8.539343,17.25 5.75,14.460667 5.75,11 V 10 A 0.75,0.75 0 0 0 5,9.25 Z"
     id="path6" />
  <path
     style="color:#000000;fill:currentColor;stroke-linecap:round;stroke-linejoin:round;-inkscape-stroke:none"
     d="M 12,17.25 A 0.75,0.75 0 0 0 11.25,18 v 3.25 H 9 A 0.75,0.75 0 0 0 8.25,22 0.75,0.75 0 0 0 9,22.75 h 3 3 A 0.75,0.75 0 0 0 15.75,22 0.75,0.75 0 0 0 15,21.25 H 12.75 V 18 A 0.75,0.75 0 0 0 12,17.25 Z"
     id="path8" />
</svg>
