<?xml version="1.0" encoding="UTF-8" standalone="no"?>
<svg
   width="24"
   height="24"
   viewBox="0 0 24 24"
   stroke-width="1.5"
   fill="none"
   version="1.1"
   id="svg8"
   sodipodi:docname="mirror.svg"
   inkscape:version="1.2.1 (9c6d41e410, 2022-07-14)"
   xmlns:inkscape="http://www.inkscape.org/namespaces/inkscape"
   xmlns:sodipodi="http://sodipodi.sourceforge.net/DTD/sodipodi-0.dtd"
   xmlns="http://www.w3.org/2000/svg"
   xmlns:svg="http://www.w3.org/2000/svg">
  <defs
     id="defs12" />
  <sodipodi:namedview
     id="namedview10"
     pagecolor="#ffffff"
     bordercolor="#666666"
     borderopacity="1.0"
     inkscape:showpageshadow="2"
     inkscape:pageopacity="0.0"
     inkscape:pagecheckerboard="0"
     inkscape:deskcolor="#d1d1d1"
     showgrid="false"
     inkscape:zoom="34.541667"
     inkscape:cx="10.364294"
     inkscape:cy="12.014475"
     inkscape:window-width="1920"
     inkscape:window-height="1009"
     inkscape:window-x="1912"
     inkscape:window-y="-8"
     inkscape:window-maximized="1"
     inkscape:current-layer="svg8" />
  <path
     style="color:#000000;fill:currentColor;stroke-linecap:round;stroke-linejoin:round;-inkscape-stroke:none"
     d="M 6,1.25 C 4.4901018,1.25 3.25,2.4901018 3.25,4 v 16 c 0,1.509917 1.2401154,2.75 2.75,2.75 h 12 c 1.509904,0 2.75,-1.240096 2.75,-2.75 V 4 C 20.75,2.4901154 19.509917,1.25 18,1.25 Z m 0,1.5 h 12 c 0.699281,0 1.25,0.5507468 1.25,1.25 v 16 c 0,0.699294 -0.550706,1.25 -1.25,1.25 H 6 C 5.3007468,21.25 4.75,20.699281 4.75,20 V 4 C 4.75,3.3007604 5.3007604,2.75 6,2.75 Z"
     id="path2" />
  <path
     style="color:#000000;fill:currentColor;stroke-linecap:round;stroke-linejoin:round;-inkscape-stroke:none"
     d="m 20.068359,4.2539062 a 0.75,0.75 0 0 0 -0.548828,0.1699219 l -6,5 a 0.75,0.75 0 0 0 -0.0957,1.0566409 0.75,0.75 0 0 0 1.056641,0.0957 l 6,-5.0000001 a 0.75,0.75 0 0 0 0.0957,-1.0566407 0.75,0.75 0 0 0 -0.507813,-0.265625 z"
     id="path4" />
  <path
     style="color:#000000;fill:currentColor;stroke-linecap:round;stroke-linejoin:round;-inkscape-stroke:none"
     d="M 20.082031,8.2539063 A 0.75,0.75 0 0 0 19.53125,8.4140625 l -7.5,6.0000005 a 0.75,0.75 0 0 0 -0.117187,1.054687 0.75,0.75 0 0 0 1.054687,0.117188 l 7.5,-6.0000005 A 0.75,0.75 0 0 0 20.585937,8.53125 0.75,0.75 0 0 0 20.082031,8.2539063 Z"
     id="path6" />
</svg>
