<?xml version="1.0" encoding="UTF-8" standalone="no"?>
<svg
   width="24"
   height="24"
   stroke-width="1.5"
   viewBox="0 0 24 24"
   fill="none"
   version="1.1"
   id="svg16"
   sodipodi:docname="mobile-voice.svg"
   inkscape:version="1.2.1 (9c6d41e410, 2022-07-14)"
   xmlns:inkscape="http://www.inkscape.org/namespaces/inkscape"
   xmlns:sodipodi="http://sodipodi.sourceforge.net/DTD/sodipodi-0.dtd"
   xmlns="http://www.w3.org/2000/svg"
   xmlns:svg="http://www.w3.org/2000/svg">
  <defs
     id="defs20" />
  <sodipodi:namedview
     id="namedview18"
     pagecolor="#ffffff"
     bordercolor="#666666"
     borderopacity="1.0"
     inkscape:showpageshadow="2"
     inkscape:pageopacity="0.0"
     inkscape:pagecheckerboard="0"
     inkscape:deskcolor="#d1d1d1"
     showgrid="false"
     inkscape:zoom="34.541667"
     inkscape:cx="10.364294"
     inkscape:cy="12.014475"
     inkscape:window-width="1920"
     inkscape:window-height="1009"
     inkscape:window-x="1912"
     inkscape:window-y="-8"
     inkscape:window-maximized="1"
     inkscape:current-layer="svg16" />
  <path
     style="color:#000000;fill:currentColor;stroke-linecap:round;stroke-linejoin:round;-inkscape-stroke:none"
     d="M 7.9707031,16.25 A 0.75,0.75 0 0 0 7.453125,16.496094 l -0.00977,0.01172 a 0.75,0.75 0 0 0 0.054687,1.058594 0.75,0.75 0 0 0 1.0585937,-0.05469 L 8.5664063,17.5 A 0.75,0.75 0 0 0 8.5117188,16.441406 0.75,0.75 0 0 0 7.9707031,16.25 Z"
     id="path2" />
  <path
     style="color:#000000;fill:currentColor;stroke-linecap:round;stroke-linejoin:round;-inkscape-stroke:none"
     d="M 3.5996094,4.25 C 2.8629077,4.25 2.25,4.8629077 2.25,5.5996094 V 20.400391 C 2.25,21.137086 2.862953,21.75 3.5996094,21.75 H 12.400391 C 13.13704,21.75 13.75,21.13704 13.75,20.400391 V 16 A 0.75,0.75 0 0 0 13,15.25 0.75,0.75 0 0 0 12.25,16 v 4.25 H 3.75 V 5.75 H 8 A 0.75,0.75 0 0 0 8.75,5 0.75,0.75 0 0 0 8,4.25 Z"
     id="path4" />
  <path
     style="color:#000000;fill:currentColor;stroke-linecap:round;stroke-linejoin:round;-inkscape-stroke:none"
     d="M 16,2.25 A 0.75,0.75 0 0 0 15.25,3 V 13 A 0.75,0.75 0 0 0 16,13.75 0.75,0.75 0 0 0 16.75,13 V 3 A 0.75,0.75 0 0 0 16,2.25 Z"
     id="path6" />
  <path
     style="color:#000000;fill:currentColor;stroke-linecap:round;stroke-linejoin:round;-inkscape-stroke:none"
     d="M 13,4.25 A 0.75,0.75 0 0 0 12.25,5 v 6 A 0.75,0.75 0 0 0 13,11.75 0.75,0.75 0 0 0 13.75,11 V 5 A 0.75,0.75 0 0 0 13,4.25 Z"
     id="path8" />
  <path
     style="color:#000000;fill:currentColor;stroke-linecap:round;stroke-linejoin:round;-inkscape-stroke:none"
     d="M 22,6.25 A 0.75,0.75 0 0 0 21.25,7 V 9 A 0.75,0.75 0 0 0 22,9.75 0.75,0.75 0 0 0 22.75,9 V 7 A 0.75,0.75 0 0 0 22,6.25 Z"
     id="path10" />
  <path
     style="color:#000000;fill:currentColor;stroke-linecap:round;stroke-linejoin:round;-inkscape-stroke:none"
     d="M 10,6.25 A 0.75,0.75 0 0 0 9.25,7 V 9 A 0.75,0.75 0 0 0 10,9.75 0.75,0.75 0 0 0 10.75,9 V 7 A 0.75,0.75 0 0 0 10,6.25 Z"
     id="path12" />
  <path
     style="color:#000000;fill:currentColor;stroke-linecap:round;stroke-linejoin:round;-inkscape-stroke:none"
     d="M 19,3.25 A 0.75,0.75 0 0 0 18.25,4 v 8 A 0.75,0.75 0 0 0 19,12.75 0.75,0.75 0 0 0 19.75,12 V 4 A 0.75,0.75 0 0 0 19,3.25 Z"
     id="path14" />
</svg>
