<?xml version="1.0" encoding="UTF-8" standalone="no"?>
<svg
   width="24"
   height="24"
   stroke-width="1.5"
   viewBox="0 0 24 24"
   fill="none"
   version="1.1"
   id="svg10"
   sodipodi:docname="mobile-fingerprint.svg"
   inkscape:version="1.2.1 (9c6d41e410, 2022-07-14)"
   xmlns:inkscape="http://www.inkscape.org/namespaces/inkscape"
   xmlns:sodipodi="http://sodipodi.sourceforge.net/DTD/sodipodi-0.dtd"
   xmlns="http://www.w3.org/2000/svg"
   xmlns:svg="http://www.w3.org/2000/svg">
  <defs
     id="defs14" />
  <sodipodi:namedview
     id="namedview12"
     pagecolor="#ffffff"
     bordercolor="#666666"
     borderopacity="1.0"
     inkscape:showpageshadow="2"
     inkscape:pageopacity="0.0"
     inkscape:pagecheckerboard="0"
     inkscape:deskcolor="#d1d1d1"
     showgrid="false"
     inkscape:zoom="34.541667"
     inkscape:cx="10.364294"
     inkscape:cy="12.014475"
     inkscape:window-width="1920"
     inkscape:window-height="1009"
     inkscape:window-x="1912"
     inkscape:window-y="-8"
     inkscape:window-maximized="1"
     inkscape:current-layer="svg10" />
  <path
     style="color:#000000;fill:currentColor;stroke-linecap:round;stroke-linejoin:round;-inkscape-stroke:none"
     d="m 17,1.25 c -1.159502,0 -2.245308,0.304037 -3.15625,0.8359375 a 0.75,0.75 0 0 0 -0.269531,1.0273438 0.75,0.75 0 0 0 1.02539,0.2695312 C 15.277666,2.9868939 16.103704,2.75 17,2.75 c 1.987631,0 3.605277,1.1641471 4.091797,2.6347656 a 0.75,0.75 0 0 0 0.949219,0.4765625 0.75,0.75 0 0 0 0.476562,-0.9472656 C 21.8003,2.7459246 19.571364,1.25 17,1.25 Z M 12.566406,4.2128906 A 0.75,0.75 0 0 0 11.589844,4.6269531 C 11.370917,5.1674114 11.25,5.753181 11.25,6.3613281 V 11 A 0.75,0.75 0 0 0 12,11.75 0.75,0.75 0 0 0 12.75,11 V 6.3613281 c 0,-0.4113919 0.081,-0.8028741 0.230469,-1.171875 A 0.75,0.75 0 0 0 12.566406,4.2128906 Z M 22,7.0644531 a 0.75,0.75 0 0 0 -0.75,0.75 V 11 A 0.75,0.75 0 0 0 22,11.75 0.75,0.75 0 0 0 22.75,11 V 7.8144531 a 0.75,0.75 0 0 0 -0.75,-0.75 z"
     id="path2" />
  <path
     style="color:#000000;fill:currentColor;stroke-linecap:round;stroke-linejoin:round;-inkscape-stroke:none"
     d="m 17,4.25 c -1.480115,0 -2.75,1.1426824 -2.75,2.6035156 v 0.7929688 a 0.75,0.75 0 0 0 0.75,0.75 0.75,0.75 0 0 0 0.75,-0.75 V 6.8535156 C 15.75,6.2676509 16.270917,5.75 17,5.75 c 0.729083,0 1.25,0.5176509 1.25,1.1035156 V 12 A 0.75,0.75 0 0 0 19,12.75 0.75,0.75 0 0 0 19.75,12 V 6.8535156 C 19.75,5.3926824 18.480115,4.25 17,4.25 Z m -2,4.8242188 a 0.75,0.75 0 0 0 -0.75,0.75 V 12 A 0.75,0.75 0 0 0 15,12.75 0.75,0.75 0 0 0 15.75,12 V 9.8242188 a 0.75,0.75 0 0 0 -0.75,-0.75 z"
     id="path4" />
  <path
     style="color:#000000;fill:currentColor;stroke-linecap:round;stroke-linejoin:round;-inkscape-stroke:none"
     d="M 7.9707031,16.25 A 0.75,0.75 0 0 0 7.453125,16.496094 l -0.00977,0.01172 a 0.75,0.75 0 0 0 0.054687,1.058594 0.75,0.75 0 0 0 1.0585937,-0.05469 L 8.5664063,17.5 A 0.75,0.75 0 0 0 8.5117188,16.441406 0.75,0.75 0 0 0 7.9707031,16.25 Z"
     id="path6" />
  <path
     style="color:#000000;fill:currentColor;stroke-linecap:round;stroke-linejoin:round;-inkscape-stroke:none"
     d="M 3.5996094,4.25 C 2.8629077,4.25 2.25,4.8629077 2.25,5.5996094 V 20.400391 C 2.25,21.137086 2.862953,21.75 3.5996094,21.75 H 12.400391 C 13.13704,21.75 13.75,21.13704 13.75,20.400391 V 16 A 0.75,0.75 0 0 0 13,15.25 0.75,0.75 0 0 0 12.25,16 v 4.25 H 3.75 V 5.75 H 8 A 0.75,0.75 0 0 0 8.75,5 0.75,0.75 0 0 0 8,4.25 Z"
     id="path8" />
</svg>
