<?xml version="1.0" encoding="UTF-8" standalone="no"?>
<svg
   width="24"
   height="24"
   stroke-width="1.5"
   viewBox="0 0 24 24"
   fill="none"
   version="1.1"
   id="svg6"
   sodipodi:docname="money-square.svg"
   inkscape:version="1.2.1 (9c6d41e410, 2022-07-14)"
   xmlns:inkscape="http://www.inkscape.org/namespaces/inkscape"
   xmlns:sodipodi="http://sodipodi.sourceforge.net/DTD/sodipodi-0.dtd"
   xmlns="http://www.w3.org/2000/svg"
   xmlns:svg="http://www.w3.org/2000/svg">
  <defs
     id="defs10" />
  <sodipodi:namedview
     id="namedview8"
     pagecolor="#ffffff"
     bordercolor="#666666"
     borderopacity="1.0"
     inkscape:showpageshadow="2"
     inkscape:pageopacity="0.0"
     inkscape:pagecheckerboard="0"
     inkscape:deskcolor="#d1d1d1"
     showgrid="false"
     inkscape:zoom="34.541667"
     inkscape:cx="10.364294"
     inkscape:cy="12.014475"
     inkscape:window-width="1920"
     inkscape:window-height="1009"
     inkscape:window-x="1912"
     inkscape:window-y="-8"
     inkscape:window-maximized="1"
     inkscape:current-layer="svg6" />
  <path
     style="color:#000000;fill:currentColor;-inkscape-stroke:none"
     d="M 3.5996094,2.25 C 2.8629077,2.25 2.25,2.8629077 2.25,3.5996094 V 20.400391 C 2.25,21.137086 2.862953,21.75 3.5996094,21.75 H 20.400391 C 21.13704,21.75 21.75,21.13704 21.75,20.400391 V 3.5996094 C 21.75,2.862953 21.137086,2.25 20.400391,2.25 Z M 3.75,3.75 h 16.5 v 16.5 H 3.75 Z"
     id="path2" />
  <path
     style="color:#000000;fill:currentColor;stroke-linecap:round;stroke-linejoin:round;-inkscape-stroke:none"
     d="M 12,4.75 A 0.75,0.75 0 0 0 11.25,5.5 v 1.2753906 c -0.502675,0.078839 -1.027214,0.088088 -1.4472656,0.40625 C 9.1592766,7.6690194 8.75,8.5038697 8.75,9.5 c 0,0.979164 0.545834,1.758927 1.2070313,2.179688 0.6611977,0.42076 1.4082037,0.605469 2.0957027,0.792968 0.687499,0.187499 1.315496,0.377794 1.685547,0.613282 C 14.108333,13.321425 14.25,13.479167 14.25,14 c 0,0.641619 -0.220489,0.97589 -0.603516,1.244141 -0.383026,0.26825 -0.978999,0.419486 -1.61914,0.396484 -0.964425,-0.03467 -1.968874,-0.478034 -2.4277346,-1.089844 A 0.75,0.75 0 0 0 8.5507813,14.400391 0.75,0.75 0 0 0 8.4003906,15.449219 C 9.0790343,16.35407 10.149994,16.78939 11.25,16.976562 V 18.5 A 0.75,0.75 0 0 0 12,19.25 0.75,0.75 0 0 0 12.75,18.5 v -1.564453 c 0.612854,-0.078 1.24785,-0.107109 1.755859,-0.462891 C 15.238782,15.959358 15.75,15.06938 15.75,14 c 0,-0.979166 -0.545834,-1.758926 -1.207031,-2.179687 -0.661198,-0.420762 -1.408204,-0.60547 -2.095703,-0.792969 -0.6875,-0.187499 -1.315496,-0.377795 -1.685547,-0.613281 C 10.391667,10.178576 10.25,10.02083 10.25,9.5 c 0,-0.6338981 0.182218,-0.9134138 0.458984,-1.1230469 0.276767,-0.209633 0.730929,-0.3329069 1.271485,-0.3183593 0.90868,0.024448 1.99163,0.476012 2.488281,0.9726562 a 0.75,0.75 0 0 0 1.0625,0 0.75,0.75 0 0 0 0,-1.0625 C 14.824035,7.2615453 13.801842,6.8765869 12.75,6.7070312 V 5.5 A 0.75,0.75 0 0 0 12,4.75 Z"
     id="path4" />
</svg>
