<?xml version="1.0" encoding="UTF-8" standalone="no"?>
<svg
   width="24"
   height="24"
   stroke-width="1.5"
   viewBox="0 0 24 24"
   fill="none"
   version="1.1"
   id="svg6"
   sodipodi:docname="mouse-button-left.svg"
   inkscape:version="1.2.1 (9c6d41e410, 2022-07-14)"
   xmlns:inkscape="http://www.inkscape.org/namespaces/inkscape"
   xmlns:sodipodi="http://sodipodi.sourceforge.net/DTD/sodipodi-0.dtd"
   xmlns="http://www.w3.org/2000/svg"
   xmlns:svg="http://www.w3.org/2000/svg">
  <defs
     id="defs10" />
  <sodipodi:namedview
     id="namedview8"
     pagecolor="#ffffff"
     bordercolor="#666666"
     borderopacity="1.0"
     inkscape:showpageshadow="2"
     inkscape:pageopacity="0.0"
     inkscape:pagecheckerboard="0"
     inkscape:deskcolor="#d1d1d1"
     showgrid="false"
     inkscape:zoom="34.541667"
     inkscape:cx="10.364294"
     inkscape:cy="12.014475"
     inkscape:window-width="1920"
     inkscape:window-height="1009"
     inkscape:window-x="1912"
     inkscape:window-y="-8"
     inkscape:window-maximized="1"
     inkscape:current-layer="svg6" />
  <path
     style="color:#000000;fill:currentColor;stroke-linecap:round;-inkscape-stroke:none"
     d="M 11,1.25 C 6.7286834,1.25 3.25,4.7286834 3.25,9 v 5 c 0,4.823623 3.9263974,8.75 8.75,8.75 4.823621,0 8.75,-3.926379 8.75,-8.75 V 10 C 20.75,5.1763974 16.823623,1.25 12,1.25 Z m 0,1.5 h 1 c 4.012968,0 7.25,3.2370514 7.25,7.25 v 4 c 0,4.01297 -3.23703,7.25 -7.25,7.25 C 7.9870514,21.25 4.75,18.012968 4.75,14 V 9 C 4.75,5.5393443 7.5393443,2.75 11,2.75 Z"
     id="path2" />
  <path
     style="color:#000000;fill:currentColor;stroke-linecap:round;-inkscape-stroke:none"
     d="M 12,1.25 A 0.75,0.75 0 0 0 11.25,2 V 8.25 H 4 A 0.75,0.75 0 0 0 3.25,9 0.75,0.75 0 0 0 4,9.75 h 7.400391 C 12.137086,9.75 12.75,9.137047 12.75,8.4003906 V 2 A 0.75,0.75 0 0 0 12,1.25 Z"
     id="path4" />
</svg>
