<?xml version="1.0" encoding="UTF-8" standalone="no"?>
<svg
   width="24"
   height="24"
   stroke-width="1.5"
   viewBox="0 0 24 24"
   fill="none"
   version="1.1"
   id="svg6"
   sodipodi:docname="multi-bubble.svg"
   inkscape:version="1.2.1 (9c6d41e410, 2022-07-14)"
   xmlns:inkscape="http://www.inkscape.org/namespaces/inkscape"
   xmlns:sodipodi="http://sodipodi.sourceforge.net/DTD/sodipodi-0.dtd"
   xmlns="http://www.w3.org/2000/svg"
   xmlns:svg="http://www.w3.org/2000/svg">
  <defs
     id="defs10" />
  <sodipodi:namedview
     id="namedview8"
     pagecolor="#ffffff"
     bordercolor="#666666"
     borderopacity="1.0"
     inkscape:showpageshadow="2"
     inkscape:pageopacity="0.0"
     inkscape:pagecheckerboard="0"
     inkscape:deskcolor="#d1d1d1"
     showgrid="false"
     inkscape:zoom="34.541667"
     inkscape:cx="10.364294"
     inkscape:cy="12.014475"
     inkscape:window-width="1920"
     inkscape:window-height="1009"
     inkscape:window-x="1912"
     inkscape:window-y="-8"
     inkscape:window-maximized="1"
     inkscape:current-layer="svg6" />
  <path
     style="color:#000000;fill:currentColor;stroke-linecap:round;stroke-linejoin:round;-inkscape-stroke:none"
     d="m 7.5,10.25 c -3.4428905,0 -6.25,2.807079 -6.25,6.25 0,0.988637 0.3177194,1.887386 0.7285156,2.720703 l -0.4414062,2.367188 a 0.750075,0.750075 0 0 0 0.875,0.875 L 4.7792969,22.021484 C 5.61263,22.432309 6.5113832,22.75 7.5,22.75 c 3.442917,0 6.25,-2.807083 6.25,-6.25 0,-3.442917 -2.807083,-6.25 -6.25,-6.25 z m 0,1.5 c 2.632277,0 4.75,2.117723 4.75,4.75 0,2.632277 -2.117723,4.75 -4.75,4.75 -0.8681284,0 -1.6764725,-0.230663 -2.375,-0.634766 A 0.750075,0.750075 0 0 0 4.6132812,20.527344 L 3.2109375,20.789062 3.4726563,19.386719 A 0.750075,0.750075 0 0 0 3.3847656,18.875 C 2.9806679,18.176419 2.75,17.368125 2.75,16.5 c 0,-2.632272 2.1177566,-4.75 4.75,-4.75 z"
     id="path2" />
  <path
     style="color:#000000;fill:currentColor;stroke-linecap:round;stroke-linejoin:round;-inkscape-stroke:none"
     d="M 14,1.25 C 9.6031559,1.25 5.9503311,4.5058683 5.3398437,8.7421875 A 0.75,0.75 0 0 0 5.9746094,9.5917969 0.75,0.75 0 0 0 6.8242187,8.9550781 C 7.3299503,5.445685 10.342092,2.75 14,2.75 c 4.012968,0 7.25,3.2370514 7.25,7.25 0,1.323408 -0.351934,2.558735 -0.96875,3.625 a 0.750075,0.750075 0 0 0 -0.08984,0.511719 l 0.470703,2.52539 -2.52539,-0.470703 A 0.750075,0.750075 0 0 0 17.625,16.28125 c -0.746871,0.432065 -1.576421,0.734441 -2.460937,0.876953 a 0.75,0.75 0 0 0 -0.623047,0.859375 0.75,0.75 0 0 0 0.861328,0.621094 c 0.945369,-0.152317 1.812471,-0.509968 2.630859,-0.939453 l 3.429688,0.638672 a 0.750075,0.750075 0 0 0 0.875,-0.875 l -0.63086,-3.394532 C 22.352372,12.848224 22.75,11.473067 22.75,10 22.75,5.1763974 18.823623,1.25 14,1.25 Z"
     id="path4" />
</svg>
