<?xml version="1.0" encoding="UTF-8" standalone="no"?>
<svg
   width="24"
   height="24"
   viewBox="0 0 24 24"
   stroke-width="1.5"
   fill="none"
   version="1.1"
   id="svg10"
   sodipodi:docname="multiple-pages-minus.svg"
   inkscape:version="1.2.1 (9c6d41e410, 2022-07-14)"
   xmlns:inkscape="http://www.inkscape.org/namespaces/inkscape"
   xmlns:sodipodi="http://sodipodi.sourceforge.net/DTD/sodipodi-0.dtd"
   xmlns="http://www.w3.org/2000/svg"
   xmlns:svg="http://www.w3.org/2000/svg">
  <defs
     id="defs14" />
  <sodipodi:namedview
     id="namedview12"
     pagecolor="#ffffff"
     bordercolor="#666666"
     borderopacity="1.0"
     inkscape:showpageshadow="2"
     inkscape:pageopacity="0.0"
     inkscape:pagecheckerboard="0"
     inkscape:deskcolor="#d1d1d1"
     showgrid="false"
     inkscape:zoom="34.541667"
     inkscape:cx="10.364294"
     inkscape:cy="12.014475"
     inkscape:window-width="1920"
     inkscape:window-height="1009"
     inkscape:window-x="1912"
     inkscape:window-y="-8"
     inkscape:window-maximized="1"
     inkscape:current-layer="svg10" />
  <path
     style="color:#000000;fill:currentColor;stroke-linecap:round;stroke-linejoin:round;-inkscape-stroke:none"
     d="M 7,1.25 A 0.75,0.75 0 0 0 6.25,2 0.75,0.75 0 0 0 7,2.75 h 9.189453 L 20.25,6.8105469 V 19 A 0.75,0.75 0 0 0 21,19.75 0.75,0.75 0 0 0 21.75,19 V 6.5 A 0.750075,0.750075 0 0 0 21.53125,5.96875 l -4.5,-4.5 A 0.750075,0.750075 0 0 0 16.5,1.25 Z"
     id="path2" />
  <path
     style="color:#000000;fill:currentColor;stroke-linecap:round;stroke-linejoin:round;-inkscape-stroke:none"
     d="M 4.5,4.25 C 3.2662443,4.25 2.25,5.2662443 2.25,6.5 V 13 A 0.75,0.75 0 0 0 3,13.75 0.75,0.75 0 0 0 3.75,13 V 6.5 C 3.75,6.0768974 4.0768974,5.75 4.5,5.75 h 9.6875 L 17.25,8.8105469 V 20.5 c 0,0.42304 -0.32696,0.75 -0.75,0.75 H 11 A 0.75,0.75 0 0 0 10.25,22 0.75,0.75 0 0 0 11,22.75 h 5.5 c 1.233758,0 2.25,-1.016242 2.25,-2.25 V 8.7480469 c 0,-0.3577094 -0.14162,-0.7001462 -0.394531,-0.953125 a 0.750075,0.750075 0 0 0 0,-0.00195 L 15.207031,4.6445312 h -0.002 C 14.952233,4.3923213 14.609076,4.25 14.251953,4.25 Z"
     id="path4" />
  <path
     style="color:#000000;fill:currentColor;stroke-linecap:round;stroke-linejoin:round;-inkscape-stroke:none"
     d="m 1.9921875,18.25 a 0.75,0.75 0 0 0 -0.75,0.75 0.75,0.75 0 0 0 0.75,0.75 h 3 3 a 0.75,0.75 0 0 0 0.75,-0.75 0.75,0.75 0 0 0 -0.75,-0.75 h -3 z"
     id="path6" />
  <path
     style="color:#000000;fill:currentColor;stroke-linecap:round;stroke-linejoin:round;-inkscape-stroke:none"
     d="M 14,4.25 A 0.75,0.75 0 0 0 13.25,5 V 8.4003906 C 13.25,9.137047 13.862914,9.75 14.599609,9.75 H 18 A 0.75,0.75 0 0 0 18.75,9 0.75,0.75 0 0 0 18,8.25 H 14.75 V 5 A 0.75,0.75 0 0 0 14,4.25 Z"
     id="path8" />
</svg>
