<?xml version="1.0" encoding="UTF-8" standalone="no"?>
<svg
   width="24"
   height="24"
   stroke-width="1.5"
   viewBox="0 0 24 24"
   fill="none"
   version="1.1"
   id="svg18"
   sodipodi:docname="multi-mac-os-window.svg"
   inkscape:version="1.2.1 (9c6d41e410, 2022-07-14)"
   xmlns:inkscape="http://www.inkscape.org/namespaces/inkscape"
   xmlns:sodipodi="http://sodipodi.sourceforge.net/DTD/sodipodi-0.dtd"
   xmlns="http://www.w3.org/2000/svg"
   xmlns:svg="http://www.w3.org/2000/svg">
  <defs
     id="defs22" />
  <sodipodi:namedview
     id="namedview20"
     pagecolor="#ffffff"
     bordercolor="#666666"
     borderopacity="1.0"
     inkscape:showpageshadow="2"
     inkscape:pageopacity="0.0"
     inkscape:pagecheckerboard="0"
     inkscape:deskcolor="#d1d1d1"
     showgrid="false"
     inkscape:zoom="34.541667"
     inkscape:cx="10.364294"
     inkscape:cy="12.014475"
     inkscape:window-width="1920"
     inkscape:window-height="1009"
     inkscape:window-x="1912"
     inkscape:window-y="-8"
     inkscape:window-maximized="1"
     inkscape:current-layer="svg18" />
  <path
     style="color:#000000;fill:currentColor;-inkscape-stroke:none"
     d="M 9,8.25 C 7.4901018,8.25 6.25,9.4901018 6.25,11 v 8 c 0,1.509917 1.2401154,2.75 2.75,2.75 h 11 c 1.509904,0 2.75,-1.240096 2.75,-2.75 V 11 C 22.75,9.4901154 21.509917,8.25 20,8.25 Z m 0,1.5 h 11 c 0.699281,0 1.25,0.550747 1.25,1.25 v 8 c 0,0.699294 -0.550706,1.25 -1.25,1.25 H 9 C 8.3007468,20.25 7.75,19.699281 7.75,19 V 11 C 7.75,10.30076 8.3007604,9.75 9,9.75 Z"
     id="path2" />
  <path
     style="color:#000000;fill:currentColor;stroke-linecap:round;stroke-linejoin:round;-inkscape-stroke:none"
     d="M 9.9707031,11.25 A 0.75,0.75 0 0 0 9.453125,11.496094 l -0.00977,0.01172 a 0.75,0.75 0 0 0 0.054687,1.058593 0.75,0.75 0 0 0 1.0585941,-0.05469 L 10.566406,12.5 A 0.75,0.75 0 0 0 10.511719,11.441406 0.75,0.75 0 0 0 9.9707031,11.25 Z"
     id="path4" />
  <path
     style="color:#000000;fill:currentColor;stroke-linecap:round;stroke-linejoin:round;-inkscape-stroke:none"
     d="m 11.970703,11.25 a 0.75,0.75 0 0 0 -0.517578,0.246094 l -0.0098,0.01172 a 0.75,0.75 0 0 0 0.05469,1.058593 0.75,0.75 0 0 0 1.058594,-0.05469 L 12.566406,12.5 A 0.75,0.75 0 0 0 12.511719,11.441406 0.75,0.75 0 0 0 11.970703,11.25 Z"
     id="path6" />
  <path
     style="color:#000000;fill:currentColor;stroke-linecap:round;stroke-linejoin:round;-inkscape-stroke:none"
     d="m 13.970703,11.25 a 0.75,0.75 0 0 0 -0.517578,0.246094 l -0.0098,0.01172 a 0.75,0.75 0 0 0 0.05469,1.058593 0.75,0.75 0 0 0 1.058594,-0.05469 L 14.566406,12.5 A 0.75,0.75 0 0 0 14.511719,11.441406 0.75,0.75 0 0 0 13.970703,11.25 Z"
     id="path8" />
  <path
     style="color:#000000;fill:currentColor;-inkscape-stroke:none"
     d="M 4,3.25 C 2.4901018,3.25 1.25,4.4901018 1.25,6 v 8 c 0,1.509917 1.2401154,2.75 2.75,2.75 h 2.5 v -1.5 H 4 C 3.3007468,15.25 2.75,14.699281 2.75,14 V 6 C 2.75,5.3007604 3.3007604,4.75 4,4.75 h 11 c 0.699281,0 1.25,0.5507468 1.25,1.25 v 3 h 1.5 V 6 C 17.75,4.4901154 16.509917,3.25 15,3.25 Z"
     id="path10" />
  <path
     style="color:#000000;fill:currentColor;stroke-linecap:round;stroke-linejoin:round;-inkscape-stroke:none"
     d="M 4.9707031,6.25 A 0.75,0.75 0 0 0 4.453125,6.4980469 l -0.00977,0.00977 a 0.75,0.75 0 0 0 0.054687,1.0605469 0.75,0.75 0 0 0 1.0585937,-0.056641 L 5.5683594,7.5 A 0.75,0.75 0 0 0 5.5117187,6.4414062 0.75,0.75 0 0 0 4.9707031,6.25 Z"
     id="path12" />
  <path
     style="color:#000000;fill:currentColor;stroke-linecap:round;stroke-linejoin:round;-inkscape-stroke:none"
     d="M 6.9707031,6.25 A 0.75,0.75 0 0 0 6.453125,6.4980469 l -0.00977,0.00977 a 0.75,0.75 0 0 0 0.054687,1.0605469 0.75,0.75 0 0 0 1.0585937,-0.056641 L 7.5683594,7.5 A 0.75,0.75 0 0 0 7.5117187,6.4414062 0.75,0.75 0 0 0 6.9707031,6.25 Z"
     id="path14" />
  <path
     style="color:#000000;fill:currentColor;stroke-linecap:round;stroke-linejoin:round;-inkscape-stroke:none"
     d="M 8.9707031,6.25 A 0.75,0.75 0 0 0 8.453125,6.4980469 l -0.00977,0.00977 a 0.75,0.75 0 0 0 0.054687,1.0605469 0.75,0.75 0 0 0 1.0585937,-0.056641 L 9.5683594,7.5 A 0.75,0.75 0 0 0 9.5117188,6.4414062 0.75,0.75 0 0 0 8.9707031,6.25 Z"
     id="path16" />
</svg>
