<?xml version="1.0" encoding="UTF-8" standalone="no"?>
<svg
   width="24"
   height="24"
   stroke-width="1.5"
   viewBox="0 0 24 24"
   fill="none"
   version="1.1"
   id="svg4"
   sodipodi:docname="music-note.svg"
   inkscape:version="1.2.1 (9c6d41e410, 2022-07-14)"
   xmlns:inkscape="http://www.inkscape.org/namespaces/inkscape"
   xmlns:sodipodi="http://sodipodi.sourceforge.net/DTD/sodipodi-0.dtd"
   xmlns="http://www.w3.org/2000/svg"
   xmlns:svg="http://www.w3.org/2000/svg">
  <defs
     id="defs8" />
  <sodipodi:namedview
     id="namedview6"
     pagecolor="#ffffff"
     bordercolor="#666666"
     borderopacity="1.0"
     inkscape:showpageshadow="2"
     inkscape:pageopacity="0.0"
     inkscape:pagecheckerboard="0"
     inkscape:deskcolor="#d1d1d1"
     showgrid="false"
     inkscape:zoom="34.541667"
     inkscape:cx="10.364294"
     inkscape:cy="12.014475"
     inkscape:window-width="1920"
     inkscape:window-height="1009"
     inkscape:window-x="1912"
     inkscape:window-y="-8"
     inkscape:window-maximized="1"
     inkscape:current-layer="svg4" />
  <path
     style="color:#000000;fill:currentColor;stroke-linecap:round;stroke-linejoin:round;-inkscape-stroke:none"
     d="m 16.853516,2.2636719 -5,1 A 0.750075,0.750075 0 0 0 11.25,4 v 4 7.25 H 9 c -1.5098846,0 -2.75,1.240083 -2.75,2.75 v 1 c 0,1.509917 1.2401154,2.75 2.75,2.75 h 1 c 1.509904,0 2.75,-1.240096 2.75,-2.75 V 16 8.6152344 L 17.146484,7.7363281 A 0.750075,0.750075 0 0 0 17.75,7 V 3 A 0.750075,0.750075 0 0 0 16.853516,2.2636719 Z M 16.25,3.9160156 v 2.46875 l -3.5,0.6992188 v -2.46875 z M 9,16.75 h 2.25 V 19 c 0,0.699294 -0.550706,1.25 -1.25,1.25 H 9 C 8.3007468,20.25 7.75,19.699281 7.75,19 v -1 c 0,-0.699281 0.5507468,-1.25 1.25,-1.25 z"
     id="path2" />
</svg>
