<?xml version="1.0" encoding="UTF-8" standalone="no"?>
<svg
   width="24"
   height="24"
   stroke-width="1.5"
   viewBox="0 0 24 24"
   fill="none"
   version="1.1"
   id="svg8"
   sodipodi:docname="music-double-note.svg"
   inkscape:version="1.2.1 (9c6d41e410, 2022-07-14)"
   xmlns:inkscape="http://www.inkscape.org/namespaces/inkscape"
   xmlns:sodipodi="http://sodipodi.sourceforge.net/DTD/sodipodi-0.dtd"
   xmlns="http://www.w3.org/2000/svg"
   xmlns:svg="http://www.w3.org/2000/svg">
  <defs
     id="defs12" />
  <sodipodi:namedview
     id="namedview10"
     pagecolor="#ffffff"
     bordercolor="#666666"
     borderopacity="1.0"
     inkscape:showpageshadow="2"
     inkscape:pageopacity="0.0"
     inkscape:pagecheckerboard="0"
     inkscape:deskcolor="#d1d1d1"
     showgrid="false"
     inkscape:zoom="34.541667"
     inkscape:cx="10.364294"
     inkscape:cy="12.014475"
     inkscape:window-width="1920"
     inkscape:window-height="1009"
     inkscape:window-x="1912"
     inkscape:window-y="-8"
     inkscape:window-maximized="1"
     inkscape:current-layer="svg8" />
  <path
     style="color:#000000;fill:currentColor;stroke-linecap:round;stroke-linejoin:round;-inkscape-stroke:none"
     d="M 19.865234,2.2617188 8.8652344,4.2617187 A 0.750075,0.750075 0 0 0 8.25,5 V 16 A 0.75,0.75 0 0 0 9,16.75 0.75,0.75 0 0 0 9.75,16 V 5.625 l 9.5,-1.7265625 V 14 A 0.75,0.75 0 0 0 20,14.75 0.75,0.75 0 0 0 20.75,14 V 3 A 0.750075,0.750075 0 0 0 19.865234,2.2617188 Z"
     id="path2" />
  <path
     style="color:#000000;fill:currentColor;stroke-linecap:round;stroke-linejoin:round;-inkscape-stroke:none"
     d="m 17,13.25 c -1.509904,0 -2.75,1.240096 -2.75,2.75 v 1 c 0,1.509904 1.240096,2.75 2.75,2.75 h 1 c 1.509904,0 2.75,-1.240096 2.75,-2.75 V 14 A 0.750075,0.750075 0 0 0 20,13.25 Z m 0,1.5 h 2.25 V 17 c 0,0.699294 -0.550706,1.25 -1.25,1.25 h -1 c -0.699294,0 -1.25,-0.550706 -1.25,-1.25 v -1 c 0,-0.699294 0.550706,-1.25 1.25,-1.25 z"
     id="path4" />
  <path
     style="color:#000000;fill:currentColor;stroke-linecap:round;stroke-linejoin:round;-inkscape-stroke:none"
     d="m 6,15.25 c -1.5098846,0 -2.75,1.240083 -2.75,2.75 v 1 c 0,1.509917 1.2401154,2.75 2.75,2.75 h 1 c 1.5098846,0 2.75,-1.240083 2.75,-2.75 V 16 A 0.750075,0.750075 0 0 0 9,15.25 Z m 0,1.5 H 8.25 V 19 c 0,0.699281 -0.5507468,1.25 -1.25,1.25 H 6 C 5.3007468,20.25 4.75,19.699281 4.75,19 v -1 c 0,-0.699281 0.5507468,-1.25 1.25,-1.25 z"
     id="path6" />
</svg>
