<?xml version="1.0" encoding="UTF-8" standalone="no"?>
<svg
   width="24"
   height="24"
   stroke-width="1.5"
   viewBox="0 0 24 24"
   fill="none"
   version="1.1"
   id="svg12"
   sodipodi:docname="music-double-note-plus.svg"
   inkscape:version="1.2.1 (9c6d41e410, 2022-07-14)"
   xmlns:inkscape="http://www.inkscape.org/namespaces/inkscape"
   xmlns:sodipodi="http://sodipodi.sourceforge.net/DTD/sodipodi-0.dtd"
   xmlns="http://www.w3.org/2000/svg"
   xmlns:svg="http://www.w3.org/2000/svg">
  <defs
     id="defs16" />
  <sodipodi:namedview
     id="namedview14"
     pagecolor="#ffffff"
     bordercolor="#666666"
     borderopacity="1.0"
     inkscape:showpageshadow="2"
     inkscape:pageopacity="0.0"
     inkscape:pagecheckerboard="0"
     inkscape:deskcolor="#d1d1d1"
     showgrid="false"
     inkscape:zoom="34.541667"
     inkscape:cx="10.364294"
     inkscape:cy="12.014475"
     inkscape:window-width="1920"
     inkscape:window-height="1009"
     inkscape:window-x="1912"
     inkscape:window-y="-8"
     inkscape:window-maximized="1"
     inkscape:current-layer="svg12" />
  <path
     style="color:#000000;fill:currentColor;stroke-linecap:round;stroke-linejoin:round;-inkscape-stroke:none"
     d="M 20,2.75 A 0.75,0.75 0 0 0 19.25,3.5 V 5.75 H 17 A 0.75,0.75 0 0 0 16.25,6.5 0.75,0.75 0 0 0 17,7.25 h 2.25 V 9.5 A 0.75,0.75 0 0 0 20,10.25 0.75,0.75 0 0 0 20.75,9.5 V 7.25 H 23 A 0.75,0.75 0 0 0 23.75,6.5 0.75,0.75 0 0 0 23,5.75 H 20.75 V 3.5 A 0.75,0.75 0 0 0 20,2.75 Z"
     id="path2" />
  <path
     style="color:#000000;fill:currentColor;stroke-linecap:round;stroke-linejoin:round;-inkscape-stroke:none"
     d="m 13.90625,3.2558594 -8,1 A 0.750075,0.750075 0 0 0 5.25,5 V 16 A 0.75,0.75 0 0 0 6,16.75 0.75,0.75 0 0 0 6.75,16 V 5.6621094 L 14.09375,4.7441406 A 0.75,0.75 0 0 0 14.744141,3.90625 0.75,0.75 0 0 0 13.90625,3.2558594 Z"
     id="path4" />
  <path
     style="color:#000000;fill:currentColor;stroke-linecap:round;stroke-linejoin:round;-inkscape-stroke:none"
     d="M 15,9.25 A 0.75,0.75 0 0 0 14.25,10 v 4 A 0.75,0.75 0 0 0 15,14.75 0.75,0.75 0 0 0 15.75,14 V 10 A 0.75,0.75 0 0 0 15,9.25 Z"
     id="path6" />
  <path
     style="color:#000000;fill:currentColor;stroke-linecap:round;stroke-linejoin:round;-inkscape-stroke:none"
     d="m 12,13.25 c -1.509904,0 -2.75,1.240096 -2.75,2.75 v 1 c 0,1.509904 1.240096,2.75 2.75,2.75 h 1 c 1.509904,0 2.75,-1.240096 2.75,-2.75 V 14 A 0.750075,0.750075 0 0 0 15,13.25 Z m 0,1.5 h 2.25 V 17 c 0,0.699294 -0.550706,1.25 -1.25,1.25 h -1 c -0.699294,0 -1.25,-0.550706 -1.25,-1.25 v -1 c 0,-0.699294 0.550706,-1.25 1.25,-1.25 z"
     id="path8" />
  <path
     style="color:#000000;fill:currentColor;stroke-linecap:round;stroke-linejoin:round;-inkscape-stroke:none"
     d="m 3,15.25 c -1.5098846,0 -2.75,1.240083 -2.75,2.75 v 1 c 0,1.509917 1.2401154,2.75 2.75,2.75 h 1 c 1.5098846,0 2.75,-1.240083 2.75,-2.75 V 16 A 0.750075,0.750075 0 0 0 6,15.25 Z m 0,1.5 H 5.25 V 19 c 0,0.699281 -0.5507468,1.25 -1.25,1.25 H 3 C 2.3007468,20.25 1.75,19.699281 1.75,19 v -1 c 0,-0.699281 0.5507468,-1.25 1.25,-1.25 z"
     id="path10" />
</svg>
