<?xml version="1.0" encoding="UTF-8" standalone="no"?>
<svg
   width="24"
   height="24"
   viewBox="0 0 24 24"
   stroke-width="1.5"
   fill="none"
   version="1.1"
   id="svg12"
   sodipodi:docname="neighbourhood.svg"
   inkscape:version="1.2.1 (9c6d41e410, 2022-07-14)"
   xmlns:inkscape="http://www.inkscape.org/namespaces/inkscape"
   xmlns:sodipodi="http://sodipodi.sourceforge.net/DTD/sodipodi-0.dtd"
   xmlns="http://www.w3.org/2000/svg"
   xmlns:svg="http://www.w3.org/2000/svg">
  <defs
     id="defs16" />
  <sodipodi:namedview
     id="namedview14"
     pagecolor="#ffffff"
     bordercolor="#666666"
     borderopacity="1.0"
     inkscape:showpageshadow="2"
     inkscape:pageopacity="0.0"
     inkscape:pagecheckerboard="0"
     inkscape:deskcolor="#d1d1d1"
     showgrid="false"
     inkscape:zoom="34.541667"
     inkscape:cx="10.364294"
     inkscape:cy="12.014475"
     inkscape:window-width="1920"
     inkscape:window-height="1009"
     inkscape:window-x="1912"
     inkscape:window-y="-8"
     inkscape:window-maximized="1"
     inkscape:current-layer="svg12" />
  <path
     style="color:#000000;fill:currentColor;stroke-linecap:round;stroke-linejoin:round;-inkscape-stroke:none"
     d="m 7.5,9.5898438 c -0.4939497,0 -0.9883847,0.1314226 -1.4257813,0.3964843 L 2.5742188,12.107422 C 1.7526903,12.60521 1.25,13.498426 1.25,14.458984 V 19 c 0,1.509917 1.2401154,2.75 2.75,2.75 h 7 c 1.509904,0 2.75,-1.240096 2.75,-2.75 v -4.541016 c 0,-0.960551 -0.502676,-1.853774 -1.324219,-2.351562 L 8.9257813,9.9863281 C 8.4883847,9.7212664 7.9939497,9.5898438 7.5,9.5898438 Z M 6.8515625,11.269531 c 0.3994656,-0.242075 0.8974094,-0.242075 1.296875,0 l 3.5000005,2.121094 C 12.023093,13.617636 12.25,14.020737 12.25,14.458984 V 19 c 0,0.699294 -0.550706,1.25 -1.25,1.25 H 4 C 3.3007468,20.25 2.75,19.699281 2.75,19 v -4.541016 c 0,-0.43824 0.2269121,-0.841348 0.6015625,-1.068359 z"
     id="path2" />
  <path
     style="color:#000000;fill:currentColor;stroke-linecap:round;stroke-linejoin:round;-inkscape-stroke:none"
     d="m 12,1.5898437 c -0.493966,0 -0.988382,0.1313881 -1.425781,0.3964844 L 7.0742187,4.1074219 C 6.2527684,4.6052585 5.75,5.4984508 5.75,6.4589844 V 10 A 0.75,0.75 0 0 0 6.5,10.75 0.75,0.75 0 0 0 7.25,10 V 6.4589844 C 7.25,6.0207993 7.4768341,5.6177276 7.8515625,5.390625 L 11.351563,3.2695313 c 0.3994,-0.2420667 0.897474,-0.2420667 1.296875,0 L 16.148437,5.390625 C 16.523185,5.6177416 16.75,6.0207922 16.75,6.4589844 V 10 A 0.75,0.75 0 0 0 17.5,10.75 0.75,0.75 0 0 0 18.25,10 V 6.4589844 c 0,-0.9605264 -0.502767,-1.8537199 -1.324219,-2.3515625 l -3.5,-2.1210938 C 12.988382,1.7212318 12.493966,1.5898437 12,1.5898437 Z"
     id="path4" />
  <path
     style="color:#000000;fill:currentColor;stroke-linecap:round;stroke-linejoin:round;-inkscape-stroke:none"
     d="m 16.5,9.5859375 c -0.491981,-0.00109 -0.983238,0.1286559 -1.419922,0.390625 l -0.632812,0.3808595 a 0.75,0.75 0 0 0 -0.257813,1.029297 0.75,0.75 0 0 0 1.029297,0.255859 l 0.632813,-0.378906 c 0.39883,-0.239261 0.893324,-0.239082 1.291015,0.002 l 3.505859,2.125 C 21.023093,13.617636 21.25,14.020737 21.25,14.458984 V 19 c 0,0.699294 -0.550706,1.25 -1.25,1.25 H 16 A 0.75,0.75 0 0 0 15.25,21 0.75,0.75 0 0 0 16,21.75 h 4 c 1.509904,0 2.75,-1.240096 2.75,-2.75 v -4.541016 c 0,-0.960551 -0.502676,-1.853774 -1.324219,-2.351562 L 17.919922,9.984375 C 17.484368,9.7203927 16.991981,9.5870229 16.5,9.5859375 Z"
     id="path6" />
  <path
     style="color:#000000;fill:currentColor;stroke-linecap:round;stroke-linejoin:round;-inkscape-stroke:none"
     d="M 6.5996094,16.25 C 5.862953,16.25 5.25,16.862914 5.25,17.599609 V 21 A 0.75,0.75 0 0 0 6,21.75 0.75,0.75 0 0 0 6.75,21 v -3.25 h 1.5 V 21 A 0.75,0.75 0 0 0 9,21.75 0.75,0.75 0 0 0 9.75,21 V 17.599609 C 9.75,16.862914 9.137047,16.25 8.4003906,16.25 Z"
     id="path8" />
  <path
     style="color:#000000;fill:currentColor;stroke-linecap:round;stroke-linejoin:round;-inkscape-stroke:none"
     d="M 16,16.25 A 0.75,0.75 0 0 0 15.25,17 0.75,0.75 0 0 0 16,17.75 h 1.25 V 21 A 0.75,0.75 0 0 0 18,21.75 0.75,0.75 0 0 0 18.75,21 V 17.599609 C 18.75,16.86296 18.13704,16.25 17.400391,16.25 Z"
     id="path10" />
</svg>
