<?xml version="1.0" encoding="UTF-8" standalone="no"?>
<svg
   width="24"
   height="24"
   fill="none"
   stroke-width="1.5"
   viewBox="0 0 24 24"
   version="1.1"
   id="svg12"
   sodipodi:docname="network-right.svg"
   inkscape:version="1.2.1 (9c6d41e410, 2022-07-14)"
   xmlns:inkscape="http://www.inkscape.org/namespaces/inkscape"
   xmlns:sodipodi="http://sodipodi.sourceforge.net/DTD/sodipodi-0.dtd"
   xmlns="http://www.w3.org/2000/svg"
   xmlns:svg="http://www.w3.org/2000/svg">
  <defs
     id="defs16" />
  <sodipodi:namedview
     id="namedview14"
     pagecolor="#ffffff"
     bordercolor="#666666"
     borderopacity="1.0"
     inkscape:showpageshadow="2"
     inkscape:pageopacity="0.0"
     inkscape:pagecheckerboard="0"
     inkscape:deskcolor="#d1d1d1"
     showgrid="false"
     inkscape:zoom="34.541667"
     inkscape:cx="10.364294"
     inkscape:cy="12.014475"
     inkscape:window-width="1920"
     inkscape:window-height="1009"
     inkscape:window-x="1912"
     inkscape:window-y="-8"
     inkscape:window-maximized="1"
     inkscape:current-layer="svg12" />
  <path
     d="m 22.75,20.4 c 0,0.735 -0.615,1.35 -1.35,1.35 h -3.8 c -0.735,0 -1.35,-0.615 -1.35,-1.35 v -5.8 c 0,-0.735 0.615,-1.35 1.35,-1.35 h 3.8 c 0.735,0 1.35,0.615 1.35,1.35 z m -1.5,-0.15 v -5.5 h -3.5 v 5.5 z"
     style="color:#000000;fill:currentColor;-inkscape-stroke:none"
     id="path2" />
  <path
     d="m 7.75,14.9 c 0,0.735 -0.615,1.35 -1.35,1.35 H 2.6 C 1.865,16.25 1.25,15.635 1.25,14.9 V 9.1 C 1.25,8.365 1.865,7.75 2.6,7.75 h 3.8 c 0.735,0 1.35,0.615 1.35,1.35 z m -1.5,-0.15 v -5.5 h -3.5 v 5.5 z"
     style="color:#000000;fill:currentColor;-inkscape-stroke:none"
     id="path4" />
  <path
     d="m 22.75,9.4 c 0,0.735 -0.615,1.35 -1.35,1.35 h -3.8 c -0.735,0 -1.35,-0.615 -1.35,-1.35 V 3.6 c 0,-0.735 0.615,-1.35 1.35,-1.35 h 3.8 c 0.735,0 1.35,0.615 1.35,1.35 z m -1.5,-0.15 v -5.5 h -3.5 v 5.5 z"
     style="color:#000000;fill:currentColor;-inkscape-stroke:none"
     id="path6" />
  <path
     d="m 17,5.75 v 1.5 h -3.5 c -0.7,0 -1.25,0.55 -1.25,1.25 v 7 c 0,0.7 0.55,1.25 1.25,1.25 H 17 v 1.5 h -3.5 c -1.51,0 -2.75,-1.24 -2.75,-2.75 v -7 c 0,-1.51 1.24,-2.75 2.75,-2.75 z"
     style="color:#000000;fill:currentColor;-inkscape-stroke:none"
     id="path8" />
  <path
     d="m 11.5,11.25 v 1.5 H 7 v -1.5 z"
     style="color:#000000;fill:currentColor;-inkscape-stroke:none"
     id="path10" />
</svg>
