<?xml version="1.0" encoding="UTF-8" standalone="no"?>
<svg
   width="24"
   height="24"
   stroke-width="1.5"
   viewBox="0 0 24 24"
   fill="none"
   version="1.1"
   id="svg12"
   sodipodi:docname="network.svg"
   inkscape:version="1.2.1 (9c6d41e410, 2022-07-14)"
   xmlns:inkscape="http://www.inkscape.org/namespaces/inkscape"
   xmlns:sodipodi="http://sodipodi.sourceforge.net/DTD/sodipodi-0.dtd"
   xmlns="http://www.w3.org/2000/svg"
   xmlns:svg="http://www.w3.org/2000/svg">
  <defs
     id="defs16" />
  <sodipodi:namedview
     id="namedview14"
     pagecolor="#ffffff"
     bordercolor="#666666"
     borderopacity="1.0"
     inkscape:showpageshadow="2"
     inkscape:pageopacity="0.0"
     inkscape:pagecheckerboard="0"
     inkscape:deskcolor="#d1d1d1"
     showgrid="false"
     inkscape:zoom="34.541667"
     inkscape:cx="10.364294"
     inkscape:cy="12.014475"
     inkscape:window-width="1920"
     inkscape:window-height="1009"
     inkscape:window-x="1912"
     inkscape:window-y="-8"
     inkscape:window-maximized="1"
     inkscape:current-layer="svg12" />
  <path
     style="color:#000000;fill:currentColor;-inkscape-stroke:none"
     d="M 3.5996094,1.25 C 2.864683,1.25 2.25,1.864683 2.25,2.5996094 V 6.4003906 C 2.25,7.135317 2.864683,7.75 3.5996094,7.75 H 9.4003906 C 10.135317,7.75 10.75,7.135317 10.75,6.4003906 V 2.5996094 C 10.75,1.864683 10.135317,1.25 9.4003906,1.25 Z M 3.75,2.75 h 5.5 v 3.5 h -5.5 z"
     id="rect2" />
  <path
     style="color:#000000;fill:currentColor;-inkscape-stroke:none"
     d="M 9.0996094,16.25 C 8.364683,16.25 7.75,16.864683 7.75,17.599609 v 3.800782 C 7.75,22.135317 8.364683,22.75 9.0996094,22.75 H 14.900391 C 15.635317,22.75 16.25,22.135317 16.25,21.400391 V 17.599609 C 16.25,16.864683 15.635317,16.25 14.900391,16.25 Z M 9.25,17.75 h 5.5 v 3.5 h -5.5 z"
     id="rect4" />
  <path
     style="color:#000000;fill:currentColor;-inkscape-stroke:none"
     d="M 14.599609,1.25 C 13.864683,1.25 13.25,1.864683 13.25,2.5996094 V 6.4003906 C 13.25,7.135317 13.864683,7.75 14.599609,7.75 h 5.800782 C 21.135317,7.75 21.75,7.135317 21.75,6.4003906 V 2.5996094 C 21.75,1.864683 21.135317,1.25 20.400391,1.25 Z M 14.75,2.75 h 5.5 v 3.5 h -5.5 z"
     id="rect6" />
  <path
     style="color:#000000;fill:currentColor;-inkscape-stroke:none"
     d="m 5.75,7 v 3.5 c 0,1.509917 1.2401154,2.75 2.75,2.75 h 7 c 1.509904,0 2.75,-1.240096 2.75,-2.75 V 7 h -1.5 v 3.5 c 0,0.699294 -0.550706,1.25 -1.25,1.25 h -7 C 7.8007468,11.75 7.25,11.199281 7.25,10.5 V 7 Z"
     id="path8" />
  <path
     style="color:#000000;fill:currentColor;-inkscape-stroke:none"
     d="M 11.25,12.5 V 17 h 1.5 v -4.5 z"
     id="path10" />
</svg>
