<?xml version="1.0" encoding="UTF-8" standalone="no"?>
<svg
   width="24"
   height="24"
   fill="none"
   stroke-width="1.5"
   viewBox="0 0 24 24"
   version="1.1"
   id="svg8"
   sodipodi:docname="network.svg"
   inkscape:version="1.2.1 (9c6d41e410, 2022-07-14)"
   xmlns:inkscape="http://www.inkscape.org/namespaces/inkscape"
   xmlns:sodipodi="http://sodipodi.sourceforge.net/DTD/sodipodi-0.dtd"
   xmlns="http://www.w3.org/2000/svg"
   xmlns:svg="http://www.w3.org/2000/svg">
  <defs
     id="defs12" />
  <sodipodi:namedview
     id="namedview10"
     pagecolor="#ffffff"
     bordercolor="#666666"
     borderopacity="1.0"
     inkscape:showpageshadow="2"
     inkscape:pageopacity="0.0"
     inkscape:pagecheckerboard="0"
     inkscape:deskcolor="#d1d1d1"
     showgrid="false"
     inkscape:zoom="34.541667"
     inkscape:cx="10.364294"
     inkscape:cy="12.014475"
     inkscape:window-width="1920"
     inkscape:window-height="1009"
     inkscape:window-x="-8"
     inkscape:window-y="-8"
     inkscape:window-maximized="1"
     inkscape:current-layer="svg8" />
  <path
     d="m 3.6,22.75 c -0.735,0 -1.35,-0.615 -1.35,-1.35 v -3.8 c 0,-0.735 0.615,-1.35 1.35,-1.35 h 5.8 c 0.735,0 1.35,0.615 1.35,1.35 v 3.8 c 0,0.735 -0.615,1.35 -1.35,1.35 z m 0.15,-1.5 h 5.5 v -3.5 H 3.75 Z M 9.1,7.75 C 8.365,7.75 7.75,7.135 7.75,6.4 V 2.6 C 7.75,1.865 8.365,1.25 9.1,1.25 h 5.8 c 0.735,0 1.35,0.615 1.35,1.35 v 3.8 c 0,0.735 -0.615,1.35 -1.35,1.35 z m 0.15,-1.5 h 5.5 v -3.5 h -5.5 z m 5.35,16.5 c -0.735,0 -1.35,-0.615 -1.35,-1.35 v -3.8 c 0,-0.735 0.615,-1.35 1.35,-1.35 h 5.8 c 0.735,0 1.35,0.615 1.35,1.35 v 3.8 c 0,0.735 -0.615,1.35 -1.35,1.35 z m 0.15,-1.5 h 5.5 v -3.5 h -5.5 z"
     style="color:#000000;fill:currentColor;-inkscape-stroke:none"
     id="path2" />
  <path
     d="m 5.75,17 v -3.5 c 0,-1.51 1.24,-2.75 2.75,-2.75 h 7 c 1.51,0 2.75,1.24 2.75,2.75 V 17 h -1.5 v -3.5 c 0,-0.7 -0.55,-1.25 -1.25,-1.25 h -7 c -0.7,0 -1.25,0.55 -1.25,1.25 V 17 Z"
     style="color:#000000;fill:currentColor;-inkscape-stroke:none"
     id="path4" />
  <path
     d="M 11.25,11.5 V 7 h 1.5 v 4.5 z"
     style="color:#000000;fill:currentColor;-inkscape-stroke:none"
     id="path6" />
</svg>
