<?xml version="1.0" encoding="UTF-8" standalone="no"?>
<svg
   width="24"
   height="24"
   stroke-width="1.5"
   viewBox="0 0 24 24"
   fill="none"
   version="1.1"
   id="svg12"
   sodipodi:docname="network-left.svg"
   inkscape:version="1.2.1 (9c6d41e410, 2022-07-14)"
   xmlns:inkscape="http://www.inkscape.org/namespaces/inkscape"
   xmlns:sodipodi="http://sodipodi.sourceforge.net/DTD/sodipodi-0.dtd"
   xmlns="http://www.w3.org/2000/svg"
   xmlns:svg="http://www.w3.org/2000/svg">
  <defs
     id="defs16" />
  <sodipodi:namedview
     id="namedview14"
     pagecolor="#ffffff"
     bordercolor="#666666"
     borderopacity="1.0"
     inkscape:showpageshadow="2"
     inkscape:pageopacity="0.0"
     inkscape:pagecheckerboard="0"
     inkscape:deskcolor="#d1d1d1"
     showgrid="false"
     inkscape:zoom="34.541667"
     inkscape:cx="10.364294"
     inkscape:cy="12.014475"
     inkscape:window-width="1920"
     inkscape:window-height="1009"
     inkscape:window-x="1912"
     inkscape:window-y="-8"
     inkscape:window-maximized="1"
     inkscape:current-layer="svg12" />
  <path
     style="color:#000000;fill:currentColor;-inkscape-stroke:none"
     d="M 2.5996094,20.25 C 1.864683,20.25 1.25,20.864683 1.25,21.599609 v 3.800782 C 1.25,26.135317 1.864683,26.75 2.5996094,26.75 H 8.4003906 C 9.135317,26.75 9.75,26.135317 9.75,25.400391 V 21.599609 C 9.75,20.864683 9.135317,20.25 8.4003906,20.25 Z M 2.75,21.75 h 5.5 v 3.5 h -5.5 z"
     id="rect2"
     transform="rotate(-90 2 21)" />
  <path
     style="color:#000000;fill:currentColor;-inkscape-stroke:none"
     d="M 17.599609,14.75 C 16.864683,14.75 16.25,15.364683 16.25,16.099609 v 3.800782 c 0,0.734926 0.614683,1.349609 1.349609,1.349609 h 5.800782 C 24.135317,21.25 24.75,20.635317 24.75,19.900391 V 16.099609 C 24.75,15.364683 24.135317,14.75 23.400391,14.75 Z M 17.75,16.25 h 5.5 v 3.5 h -5.5 z"
     id="rect4"
     transform="rotate(-90 17 15.5)" />
  <path
     style="color:#000000;fill:currentColor;-inkscape-stroke:none"
     d="M 2.5996094,9.25 C 1.864683,9.25 1.25,9.864683 1.25,10.599609 v 3.800782 C 1.25,15.135317 1.864683,15.75 2.5996094,15.75 H 8.4003906 C 9.135317,15.75 9.75,15.135317 9.75,14.400391 V 10.599609 C 9.75,9.864683 9.135317,9.25 8.4003906,9.25 Z M 2.75,10.75 h 5.5 v 3.5 h -5.5 z"
     id="rect6"
     transform="rotate(-90 2 10)" />
  <path
     style="color:#000000;fill:currentColor;-inkscape-stroke:none"
     d="m 7,5.75 v 1.5 h 3.5 c 0.699281,0 1.25,0.5507468 1.25,1.25 v 7 c 0,0.699294 -0.550706,1.25 -1.25,1.25 H 7 v 1.5 h 3.5 c 1.509904,0 2.75,-1.240096 2.75,-2.75 v -7 c 0,-1.5098846 -1.240083,-2.75 -2.75,-2.75 z"
     id="path8" />
  <path
     style="color:#000000;fill:currentColor;-inkscape-stroke:none"
     d="m 12.5,11.25 v 1.5 H 17 v -1.5 z"
     id="path10" />
</svg>
