<?xml version="1.0" encoding="UTF-8" standalone="no"?>
<svg
   width="24"
   height="24"
   viewBox="0 0 24 24"
   stroke-width="1.5"
   fill="none"
   version="1.1"
   id="svg10"
   sodipodi:docname="nintendo-switch.svg"
   inkscape:version="1.2.1 (9c6d41e410, 2022-07-14)"
   xmlns:inkscape="http://www.inkscape.org/namespaces/inkscape"
   xmlns:sodipodi="http://sodipodi.sourceforge.net/DTD/sodipodi-0.dtd"
   xmlns="http://www.w3.org/2000/svg"
   xmlns:svg="http://www.w3.org/2000/svg">
  <defs
     id="defs14" />
  <sodipodi:namedview
     id="namedview12"
     pagecolor="#ffffff"
     bordercolor="#666666"
     borderopacity="1.0"
     inkscape:showpageshadow="2"
     inkscape:pageopacity="0.0"
     inkscape:pagecheckerboard="0"
     inkscape:deskcolor="#d1d1d1"
     showgrid="false"
     inkscape:zoom="34.541667"
     inkscape:cx="10.364294"
     inkscape:cy="12.014475"
     inkscape:window-width="1920"
     inkscape:window-height="1009"
     inkscape:window-x="1912"
     inkscape:window-y="-8"
     inkscape:window-maximized="1"
     inkscape:current-layer="svg10" />
  <path
     style="color:#000000;fill:currentColor;-inkscape-stroke:none"
     d="M 6,2.25 C 3.3855329,2.25 1.25,4.3855329 1.25,7 v 10 c 0,2.614434 2.1355239,4.75 4.75,4.75 H 9.9003906 C 10.63704,21.75 11.25,21.13704 11.25,20.400391 V 3.5996094 C 11.25,2.862953 10.637086,2.25 9.9003906,2.25 Z m 0,1.5 h 3.75 v 16.5 H 6 C 4.1962005,20.25 2.75,18.803761 2.75,17 V 7 C 2.75,5.1961915 4.1961915,3.75 6,3.75 Z"
     id="path2" />
  <g
     id="path4">
    <path
       style="color:#000000;fill:currentColor;stroke-width:1.5;stroke-linecap:round;stroke-linejoin:round;-inkscape-stroke:none"
       d="m 6.5,8 c 0.55228,0 1,-0.44772 1,-1 0,-0.55228 -0.44772,-1 -1,-1 -0.55228,0 -1,0.44772 -1,1 0,0.55228 0.44772,1 1,1 z"
       id="path255" />
    <path
       style="color:#000000;fill:currentColor;stroke-linecap:round;stroke-linejoin:round;-inkscape-stroke:none"
       d="M 6.5,5.25 C 5.5423831,5.25 4.75,6.0423831 4.75,7 4.75,7.9576169 5.5423831,8.75 6.5,8.75 7.4576169,8.75 8.25,7.9576169 8.25,7 8.25,6.0423831 7.4576169,5.25 6.5,5.25 Z m 0,1.5 C 6.646942,6.75 6.75,6.853058 6.75,7 6.75,7.146942 6.646942,7.25 6.5,7.25 6.353058,7.25 6.25,7.146942 6.25,7 6.25,6.853058 6.353058,6.75 6.5,6.75 Z"
       id="path257" />
  </g>
  <g
     id="path6">
    <path
       style="color:#000000;fill:currentColor;stroke-width:1.5;stroke-linecap:round;stroke-linejoin:round;-inkscape-stroke:none"
       d="m 17.5,14 c 0.5523,0 1,-0.4477 1,-1 0,-0.5523 -0.4477,-1 -1,-1 -0.5523,0 -1,0.4477 -1,1 0,0.5523 0.4477,1 1,1 z"
       id="path249" />
    <path
       style="color:#000000;fill:currentColor;stroke-linecap:round;stroke-linejoin:round;-inkscape-stroke:none"
       d="m 17.5,11.25 c -0.957604,0 -1.75,0.792396 -1.75,1.75 0,0.957604 0.792396,1.75 1.75,1.75 0.957604,0 1.75,-0.792396 1.75,-1.75 0,-0.957604 -0.792396,-1.75 -1.75,-1.75 z m 0,1.5 c 0.146995,0 0.25,0.103005 0.25,0.25 0,0.146995 -0.103005,0.25 -0.25,0.25 -0.146995,0 -0.25,-0.103005 -0.25,-0.25 0,-0.146995 0.103005,-0.25 0.25,-0.25 z"
       id="path251" />
  </g>
  <path
     style="color:#000000;fill:currentColor;-inkscape-stroke:none"
     d="M 14.099609,2.25 C 13.362914,2.25 12.75,2.862953 12.75,3.5996094 V 20.400391 C 12.75,21.13704 13.36296,21.75 14.099609,21.75 H 18 c 2.614443,0 4.75,-2.135557 4.75,-4.75 V 7 C 22.75,4.3855239 20.614434,2.25 18,2.25 Z M 14.25,3.75 H 18 c 1.803761,0 3.25,1.4462005 3.25,3.25 v 10 c 0,1.803752 -1.446248,3.25 -3.25,3.25 h -3.75 z"
     id="path8" />
</svg>
