<?xml version="1.0" encoding="UTF-8" standalone="no"?>
<svg
   width="24"
   height="24"
   viewBox="0 0 24 24"
   stroke-width="1.5"
   fill="none"
   version="1.1"
   id="svg8"
   sodipodi:docname="non-binary.svg"
   inkscape:version="1.2.1 (9c6d41e410, 2022-07-14)"
   xmlns:inkscape="http://www.inkscape.org/namespaces/inkscape"
   xmlns:sodipodi="http://sodipodi.sourceforge.net/DTD/sodipodi-0.dtd"
   xmlns="http://www.w3.org/2000/svg"
   xmlns:svg="http://www.w3.org/2000/svg">
  <defs
     id="defs12" />
  <sodipodi:namedview
     id="namedview10"
     pagecolor="#ffffff"
     bordercolor="#666666"
     borderopacity="1.0"
     inkscape:showpageshadow="2"
     inkscape:pageopacity="0.0"
     inkscape:pagecheckerboard="0"
     inkscape:deskcolor="#d1d1d1"
     showgrid="false"
     inkscape:zoom="34.541667"
     inkscape:cx="10.364294"
     inkscape:cy="12.014475"
     inkscape:window-width="1920"
     inkscape:window-height="1009"
     inkscape:window-x="1912"
     inkscape:window-y="-8"
     inkscape:window-maximized="1"
     inkscape:current-layer="svg8" />
  <path
     style="color:#000000;fill:currentColor;stroke-linecap:round;stroke-linejoin:round;-inkscape-stroke:none"
     d="M 12,2.25 A 0.75,0.75 0 0 0 11.25,3 V 8.4023438 C 7.8993032,8.7936117 5.25,11.546846 5.25,15 c 0,3.719027 3.0309625,6.75 6.75,6.75 3.719029,0 6.75,-3.030971 6.75,-6.75 0,-3.453155 -2.649309,-6.2063884 -6,-6.5976562 V 3 A 0.75,0.75 0 0 0 12,2.25 Z m 0,7.5 c 2.908365,0 5.25,2.341635 5.25,5.25 0,2.908365 -2.341635,5.25 -5.25,5.25 C 9.0916241,20.25 6.75,17.908366 6.75,15 6.75,12.091634 9.0916241,9.75 12,9.75 Z"
     id="path2" />
  <path
     style="color:#000000;fill:currentColor;stroke-linecap:round;stroke-linejoin:round;-inkscape-stroke:none"
     d="M 9.3359375,3.3300781 A 0.75,0.75 0 0 0 8.3300781,3.6640625 0.75,0.75 0 0 0 8.6640625,4.6699219 l 6.0000005,3 A 0.75,0.75 0 0 0 15.669922,7.3359375 0.75,0.75 0 0 0 15.335938,6.3300781 Z"
     id="path4" />
  <path
     style="color:#000000;fill:currentColor;stroke-linecap:round;stroke-linejoin:round;-inkscape-stroke:none"
     d="m 14.664063,3.3300781 -6.0000005,3 A 0.75,0.75 0 0 0 8.3300781,7.3359375 0.75,0.75 0 0 0 9.3359375,7.6699219 l 6.0000005,-3 A 0.75,0.75 0 0 0 15.669922,3.6640625 0.75,0.75 0 0 0 14.664063,3.3300781 Z"
     id="path6" />
</svg>
