<?xml version="1.0" encoding="UTF-8" standalone="no"?>
<svg
   width="24"
   height="24"
   stroke-width="1.5"
   viewBox="0 0 24 24"
   fill="none"
   version="1.1"
   id="svg10"
   sodipodi:docname="notes.svg"
   inkscape:version="1.2.1 (9c6d41e410, 2022-07-14)"
   xmlns:inkscape="http://www.inkscape.org/namespaces/inkscape"
   xmlns:sodipodi="http://sodipodi.sourceforge.net/DTD/sodipodi-0.dtd"
   xmlns="http://www.w3.org/2000/svg"
   xmlns:svg="http://www.w3.org/2000/svg">
  <defs
     id="defs14" />
  <sodipodi:namedview
     id="namedview12"
     pagecolor="#ffffff"
     bordercolor="#666666"
     borderopacity="1.0"
     inkscape:showpageshadow="2"
     inkscape:pageopacity="0.0"
     inkscape:pagecheckerboard="0"
     inkscape:deskcolor="#d1d1d1"
     showgrid="false"
     inkscape:zoom="34.541667"
     inkscape:cx="10.364294"
     inkscape:cy="12.014475"
     inkscape:window-width="1920"
     inkscape:window-height="1009"
     inkscape:window-x="1912"
     inkscape:window-y="-8"
     inkscape:window-maximized="1"
     inkscape:current-layer="svg10" />
  <path
     style="color:#000000;fill:currentColor;stroke-linecap:round;stroke-linejoin:round;-inkscape-stroke:none"
     d="M 8,13.25 A 0.75,0.75 0 0 0 7.25,14 0.75,0.75 0 0 0 8,14.75 h 8 A 0.75,0.75 0 0 0 16.75,14 0.75,0.75 0 0 0 16,13.25 Z"
     id="path2" />
  <path
     style="color:#000000;fill:currentColor;stroke-linecap:round;stroke-linejoin:round;-inkscape-stroke:none"
     d="M 8,9.25 A 0.75,0.75 0 0 0 7.25,10 0.75,0.75 0 0 0 8,10.75 h 2 A 0.75,0.75 0 0 0 10.75,10 0.75,0.75 0 0 0 10,9.25 Z"
     id="path4" />
  <path
     style="color:#000000;fill:currentColor;stroke-linecap:round;stroke-linejoin:round;-inkscape-stroke:none"
     d="M 8,17.25 A 0.75,0.75 0 0 0 7.25,18 0.75,0.75 0 0 0 8,18.75 h 4 A 0.75,0.75 0 0 0 12.75,18 0.75,0.75 0 0 0 12,17.25 Z"
     id="path6" />
  <path
     style="color:#000000;fill:currentColor;stroke-linecap:round;stroke-linejoin:round;-inkscape-stroke:none"
     d="M 10,0.25 A 0.75,0.75 0 0 0 9.25,1 V 2.25 H 6 C 4.4901018,2.25 3.25,3.4901018 3.25,5 v 15 c 0,1.509917 1.2401154,2.75 2.75,2.75 h 12 c 1.509904,0 2.75,-1.240096 2.75,-2.75 V 5 C 20.75,3.4901154 19.509917,2.25 18,2.25 H 14.5 A 0.75,0.75 0 0 0 13.75,3 0.75,0.75 0 0 0 14.5,3.75 H 18 c 0.699281,0 1.25,0.5507468 1.25,1.25 v 15 c 0,0.699294 -0.550706,1.25 -1.25,1.25 H 6 C 5.3007468,21.25 4.75,20.699281 4.75,20 V 5 C 4.75,4.3007604 5.3007604,3.75 6,3.75 H 9.25 V 5 A 0.75,0.75 0 0 0 10,5.75 0.75,0.75 0 0 0 10.75,5 V 3 1 A 0.75,0.75 0 0 0 10,0.25 Z"
     id="path8" />
</svg>
