<?xml version="1.0" encoding="UTF-8" standalone="no"?>
<svg
   width="24"
   height="24"
   viewBox="0 0 24 24"
   stroke-width="1.5"
   fill="none"
   version="1.1"
   id="svg16"
   sodipodi:docname="npm.svg"
   inkscape:version="1.2.1 (9c6d41e410, 2022-07-14)"
   xmlns:inkscape="http://www.inkscape.org/namespaces/inkscape"
   xmlns:sodipodi="http://sodipodi.sourceforge.net/DTD/sodipodi-0.dtd"
   xmlns="http://www.w3.org/2000/svg"
   xmlns:svg="http://www.w3.org/2000/svg">
  <defs
     id="defs20" />
  <sodipodi:namedview
     id="namedview18"
     pagecolor="#ffffff"
     bordercolor="#666666"
     borderopacity="1.0"
     inkscape:showpageshadow="2"
     inkscape:pageopacity="0.0"
     inkscape:pagecheckerboard="0"
     inkscape:deskcolor="#d1d1d1"
     showgrid="false"
     inkscape:zoom="34.541667"
     inkscape:cx="10.364294"
     inkscape:cy="12.014475"
     inkscape:window-width="1920"
     inkscape:window-height="1009"
     inkscape:window-x="1912"
     inkscape:window-y="-8"
     inkscape:window-maximized="1"
     inkscape:current-layer="svg16" />
  <path
     style="color:#000000;fill:currentColor;stroke-linecap:round;stroke-linejoin:round;-inkscape-stroke:none"
     d="M 1,7.25 A 0.750075,0.750075 0 0 0 0.25,8 v 7 A 0.750075,0.750075 0 0 0 1,15.75 H 6.75 V 17 A 0.750075,0.750075 0 0 0 7.5,17.75 H 11 A 0.750075,0.750075 0 0 0 11.75,17 V 15.75 H 23 A 0.750075,0.750075 0 0 0 23.75,15 V 8 A 0.750075,0.750075 0 0 0 23,7.25 Z m 0.75,1.5 h 20.5 v 5.5 H 11 A 0.750075,0.750075 0 0 0 10.25,15 v 1.25 h -2 V 15 A 0.750075,0.750075 0 0 0 7.5,14.25 H 1.75 Z"
     id="path2" />
  <path
     style="color:#000000;fill:currentColor;stroke-linecap:round;stroke-linejoin:round;-inkscape-stroke:none"
     d="M 7.5,7.25 A 0.75,0.75 0 0 0 6.75,8 v 7 A 0.75,0.75 0 0 0 7.5,15.75 0.75,0.75 0 0 0 8.25,15 V 8 A 0.75,0.75 0 0 0 7.5,7.25 Z"
     id="path4" />
  <path
     style="color:#000000;fill:currentColor;stroke-linecap:round;stroke-linejoin:round;-inkscape-stroke:none"
     d="M 13.5,7.25 A 0.75,0.75 0 0 0 12.75,8 v 7 A 0.75,0.75 0 0 0 13.5,15.75 0.75,0.75 0 0 0 14.25,15 V 8 A 0.75,0.75 0 0 0 13.5,7.25 Z"
     id="path6" />
  <path
     style="color:#000000;fill:currentColor;stroke-linecap:round;-inkscape-stroke:none"
     d="M 18,10.25 A 0.75,0.75 0 0 0 17.25,11 v 4 A 0.75,0.75 0 0 0 18,15.75 0.75,0.75 0 0 0 18.75,15 V 11 A 0.75,0.75 0 0 0 18,10.25 Z"
     id="path8" />
  <path
     style="color:#000000;fill:currentColor;stroke-linecap:round;-inkscape-stroke:none"
     d="M 5,10.25 A 0.75,0.75 0 0 0 4.25,11 v 4 A 0.75,0.75 0 0 0 5,15.75 0.75,0.75 0 0 0 5.75,15 V 11 A 0.75,0.75 0 0 0 5,10.25 Z"
     id="path10" />
  <path
     style="color:#000000;fill:currentColor;stroke-linecap:round;-inkscape-stroke:none"
     d="M 11,10.25 A 0.75,0.75 0 0 0 10.25,11 v 1 A 0.75,0.75 0 0 0 11,12.75 0.75,0.75 0 0 0 11.75,12 V 11 A 0.75,0.75 0 0 0 11,10.25 Z"
     id="path12" />
  <path
     style="color:#000000;fill:currentColor;stroke-linecap:round;-inkscape-stroke:none"
     d="M 20.5,10.25 A 0.75,0.75 0 0 0 19.75,11 v 4 A 0.75,0.75 0 0 0 20.5,15.75 0.75,0.75 0 0 0 21.25,15 V 11 A 0.75,0.75 0 0 0 20.5,10.25 Z"
     id="path14" />
</svg>
