<?xml version="1.0" encoding="UTF-8" standalone="no"?>
<svg
   width="24"
   height="24"
   viewBox="0 0 24 24"
   stroke-width="1.5"
   fill="none"
   version="1.1"
   id="svg8"
   sodipodi:docname="number-9-square.svg"
   inkscape:version="1.2.1 (9c6d41e410, 2022-07-14)"
   xmlns:inkscape="http://www.inkscape.org/namespaces/inkscape"
   xmlns:sodipodi="http://sodipodi.sourceforge.net/DTD/sodipodi-0.dtd"
   xmlns="http://www.w3.org/2000/svg"
   xmlns:svg="http://www.w3.org/2000/svg">
  <defs
     id="defs12" />
  <sodipodi:namedview
     id="namedview10"
     pagecolor="#ffffff"
     bordercolor="#666666"
     borderopacity="1.0"
     inkscape:showpageshadow="2"
     inkscape:pageopacity="0.0"
     inkscape:pagecheckerboard="0"
     inkscape:deskcolor="#d1d1d1"
     showgrid="false"
     inkscape:zoom="34.541667"
     inkscape:cx="10.364294"
     inkscape:cy="12.014475"
     inkscape:window-width="1920"
     inkscape:window-height="1009"
     inkscape:window-x="1912"
     inkscape:window-y="-8"
     inkscape:window-maximized="1"
     inkscape:current-layer="svg8" />
  <path
     style="color:#000000;fill:currentColor;-inkscape-stroke:none"
     d="M 3.5996094,2.25 C 2.8629077,2.25 2.25,2.8629077 2.25,3.5996094 V 20.400391 C 2.25,21.137086 2.862953,21.75 3.5996094,21.75 H 20.400391 C 21.13704,21.75 21.75,21.13704 21.75,20.400391 V 3.5996094 C 21.75,2.862953 21.137086,2.25 20.400391,2.25 Z M 3.75,3.75 h 16.5 v 16.5 H 3.75 Z"
     id="path2" />
  <path
     style="color:#000000;fill:currentColor;stroke-linecap:round;stroke-linejoin:round;-inkscape-stroke:none"
     d="M 12,7.25 C 11.219117,7.25 10.40456,7.3825551 9.7539063,7.921875 9.1032528,8.4611949 8.75,9.3600886 8.75,10.5 c 0,0.936549 0.415411,1.736764 1.0566406,2.179688 C 10.44787,13.122611 11.219117,13.25 12,13.25 c 0.780883,0 1.55213,-0.127389 2.193359,-0.570312 C 14.834589,12.236764 15.25,11.436549 15.25,10.5 15.25,9.3600886 14.896747,8.4611949 14.246094,7.921875 13.59544,7.3825551 12.780883,7.25 12,7.25 Z m 0,1.5 c 0.599816,0 1.034892,0.1174456 1.289063,0.328125 C 13.543233,9.2888044 13.75,9.6399134 13.75,10.5 c 0,0.563449 -0.144609,0.763237 -0.408203,0.945313 C 13.078202,11.627388 12.599816,11.75 12,11.75 11.400184,11.75 10.921798,11.627388 10.658203,11.445313 10.394609,11.263237 10.25,11.063449 10.25,10.5 10.25,9.6399134 10.456767,9.2888044 10.710938,9.078125 10.965108,8.8674456 11.400184,8.75 12,8.75 Z"
     id="path4" />
  <path
     style="color:#000000;fill:currentColor;stroke-linecap:round;stroke-linejoin:round;-inkscape-stroke:none"
     d="M 14.5,10.25 A 0.75,0.75 0 0 0 13.75,11 c 0,1.499999 -0.05656,2.617058 -0.443359,3.21875 -0.193401,0.300846 -0.4542,0.529622 -0.964844,0.71875 C 11.831152,15.126628 11.069443,15.25 10,15.25 A 0.75,0.75 0 0 0 9.25,16 0.75,0.75 0 0 0 10,16.75 c 1.180554,0 2.106349,-0.126628 2.861328,-0.40625 0.754979,-0.279622 1.337933,-0.738347 1.707031,-1.3125 C 15.306556,13.882944 15.25,12.499999 15.25,11 A 0.75,0.75 0 0 0 14.5,10.25 Z"
     id="path6" />
</svg>
