<?xml version="1.0" encoding="UTF-8" standalone="no"?>
<svg
   width="24"
   height="24"
   viewBox="0 0 24 24"
   stroke-width="1.5"
   fill="none"
   version="1.1"
   id="svg6"
   sodipodi:docname="number-2-square.svg"
   inkscape:version="1.2.1 (9c6d41e410, 2022-07-14)"
   xmlns:inkscape="http://www.inkscape.org/namespaces/inkscape"
   xmlns:sodipodi="http://sodipodi.sourceforge.net/DTD/sodipodi-0.dtd"
   xmlns="http://www.w3.org/2000/svg"
   xmlns:svg="http://www.w3.org/2000/svg">
  <defs
     id="defs10" />
  <sodipodi:namedview
     id="namedview8"
     pagecolor="#ffffff"
     bordercolor="#666666"
     borderopacity="1.0"
     inkscape:showpageshadow="2"
     inkscape:pageopacity="0.0"
     inkscape:pagecheckerboard="0"
     inkscape:deskcolor="#d1d1d1"
     showgrid="false"
     inkscape:zoom="34.541667"
     inkscape:cx="10.364294"
     inkscape:cy="12.014475"
     inkscape:window-width="1920"
     inkscape:window-height="1009"
     inkscape:window-x="1912"
     inkscape:window-y="-8"
     inkscape:window-maximized="1"
     inkscape:current-layer="svg6" />
  <path
     style="color:#000000;fill:currentColor;-inkscape-stroke:none"
     d="M 3.5996094,2.25 C 2.8629077,2.25 2.25,2.8629077 2.25,3.5996094 V 20.400391 C 2.25,21.137086 2.862953,21.75 3.5996094,21.75 H 20.400391 C 21.13704,21.75 21.75,21.13704 21.75,20.400391 V 3.5996094 C 21.75,2.862953 21.137086,2.25 20.400391,2.25 Z M 3.75,3.75 h 16.5 v 16.5 H 3.75 Z"
     id="path2" />
  <path
     style="color:#000000;fill:currentColor;stroke-linecap:round;stroke-linejoin:round;-inkscape-stroke:none"
     d="M 11.808594,7.25 C 10.11255,7.25 8.75,8.6851667 8.75,10.400391 v 0.40039 a 0.75,0.75 0 0 0 0.75,0.75 0.75,0.75 0 0 0 0.75,-0.75 v -0.40039 C 10.25,9.4646572 10.95564,8.75 11.808594,8.75 c 0.852953,0 1.55664,0.7146572 1.55664,1.650391 0,0.322645 -0.08534,0.616424 -0.232421,0.867187 -0.434518,0.741223 -1.477865,1.831818 -2.394532,2.675781 -0.9166662,0.843964 -1.7050779,1.46875 -1.7050779,1.46875 A 0.750075,0.750075 0 0 0 9.5,16.75 h 5 A 0.75,0.75 0 0 0 15.25,16 0.75,0.75 0 0 0 14.5,15.25 h -2.982422 c 0.12059,-0.107821 0.109499,-0.08635 0.236328,-0.203125 0.960407,-0.884235 2.055893,-1.968756 2.671875,-3.019531 0.279322,-0.476236 0.439453,-1.035599 0.439453,-1.626953 0,-1.7152243 -1.360596,-3.150391 -3.05664,-3.150391 z"
     id="path4" />
</svg>
