<?xml version="1.0" encoding="UTF-8" standalone="no"?>
<svg
   width="24"
   height="24"
   viewBox="0 0 24 24"
   stroke-width="1.5"
   fill="none"
   version="1.1"
   id="svg8"
   sodipodi:docname="number-8-square.svg"
   inkscape:version="1.2.1 (9c6d41e410, 2022-07-14)"
   xmlns:inkscape="http://www.inkscape.org/namespaces/inkscape"
   xmlns:sodipodi="http://sodipodi.sourceforge.net/DTD/sodipodi-0.dtd"
   xmlns="http://www.w3.org/2000/svg"
   xmlns:svg="http://www.w3.org/2000/svg">
  <defs
     id="defs12" />
  <sodipodi:namedview
     id="namedview10"
     pagecolor="#ffffff"
     bordercolor="#666666"
     borderopacity="1.0"
     inkscape:showpageshadow="2"
     inkscape:pageopacity="0.0"
     inkscape:pagecheckerboard="0"
     inkscape:deskcolor="#d1d1d1"
     showgrid="false"
     inkscape:zoom="34.541667"
     inkscape:cx="10.364294"
     inkscape:cy="12.014475"
     inkscape:window-width="1920"
     inkscape:window-height="1009"
     inkscape:window-x="1912"
     inkscape:window-y="-8"
     inkscape:window-maximized="1"
     inkscape:current-layer="svg8" />
  <path
     style="color:#000000;fill:currentColor;-inkscape-stroke:none"
     d="M 3.5996094,2.25 C 2.8629077,2.25 2.25,2.8629077 2.25,3.5996094 V 20.400391 C 2.25,21.137086 2.862953,21.75 3.5996094,21.75 H 20.400391 C 21.13704,21.75 21.75,21.13704 21.75,20.400391 V 3.5996094 C 21.75,2.862953 21.137086,2.25 20.400391,2.25 Z M 3.75,3.75 h 16.5 v 16.5 H 3.75 Z"
     id="path2" />
  <path
     style="color:#000000;fill:currentColor;stroke-linecap:round;stroke-linejoin:round;-inkscape-stroke:none"
     d="m 12,11.25 c -0.780883,0 -1.55213,0.127389 -2.1933594,0.570313 C 9.165411,12.263236 8.75,13.063451 8.75,14 c 0,0.936549 0.415411,1.736764 1.0566406,2.179687 C 10.44787,16.622611 11.219117,16.75 12,16.75 c 0.780883,0 1.55213,-0.127389 2.193359,-0.570313 C 14.834589,15.736764 15.25,14.936549 15.25,14 15.25,13.063451 14.834589,12.263236 14.193359,11.820313 13.55213,11.377389 12.780883,11.25 12,11.25 Z m 0,1.5 c 0.599816,0 1.078202,0.122612 1.341797,0.304688 C 13.605391,13.236763 13.75,13.436551 13.75,14 c 0,0.563449 -0.144609,0.763237 -0.408203,0.945313 C 13.078202,15.127388 12.599816,15.25 12,15.25 11.400184,15.25 10.921798,15.127388 10.658203,14.945313 10.394609,14.763237 10.25,14.563449 10.25,14 c 0,-0.563449 0.144609,-0.763237 0.408203,-0.945312 C 10.921798,12.872612 11.400184,12.75 12,12.75 Z"
     id="path4" />
  <path
     style="color:#000000;fill:currentColor;stroke-linecap:round;stroke-linejoin:round;-inkscape-stroke:none"
     d="M 12,7.25 C 11.219117,7.25 10.44787,7.3773887 9.8066406,7.8203125 9.165411,8.2632363 8.75,9.0634509 8.75,10 c 0,0.936549 0.415411,1.736764 1.0566406,2.179688 C 10.44787,12.622611 11.219117,12.75 12,12.75 c 0.780883,0 1.55213,-0.127389 2.193359,-0.570312 C 14.834589,11.736764 15.25,10.936549 15.25,10 15.25,9.0634509 14.834589,8.2632363 14.193359,7.8203125 13.55213,7.3773887 12.780883,7.25 12,7.25 Z m 0,1.5 c 0.599816,0 1.078202,0.1226119 1.341797,0.3046875 C 13.605391,9.2367631 13.75,9.4365506 13.75,10 c 0,0.563449 -0.144609,0.763237 -0.408203,0.945313 C 13.078202,11.127388 12.599816,11.25 12,11.25 11.400184,11.25 10.921798,11.127388 10.658203,10.945313 10.394609,10.763237 10.25,10.563449 10.25,10 10.25,9.4365506 10.394609,9.2367631 10.658203,9.0546875 10.921798,8.8726119 11.400184,8.75 12,8.75 Z"
     id="path6" />
</svg>
