<?xml version="1.0" encoding="UTF-8" standalone="no"?>
<svg
   width="24"
   height="24"
   viewBox="0 0 24 24"
   stroke-width="1.5"
   fill="none"
   version="1.1"
   id="svg16"
   sodipodi:docname="numbered-list-left.svg"
   inkscape:version="1.2.1 (9c6d41e410, 2022-07-14)"
   xmlns:inkscape="http://www.inkscape.org/namespaces/inkscape"
   xmlns:sodipodi="http://sodipodi.sourceforge.net/DTD/sodipodi-0.dtd"
   xmlns="http://www.w3.org/2000/svg"
   xmlns:svg="http://www.w3.org/2000/svg">
  <defs
     id="defs20" />
  <sodipodi:namedview
     id="namedview18"
     pagecolor="#ffffff"
     bordercolor="#666666"
     borderopacity="1.0"
     inkscape:showpageshadow="2"
     inkscape:pageopacity="0.0"
     inkscape:pagecheckerboard="0"
     inkscape:deskcolor="#d1d1d1"
     showgrid="false"
     inkscape:zoom="34.541667"
     inkscape:cx="10.364294"
     inkscape:cy="12.014475"
     inkscape:window-width="1920"
     inkscape:window-height="1009"
     inkscape:window-x="1912"
     inkscape:window-y="-8"
     inkscape:window-maximized="1"
     inkscape:current-layer="svg16" />
  <path
     style="color:#000000;fill:currentColor;stroke-linecap:round;stroke-linejoin:round;-inkscape-stroke:none"
     d="M 9,4.25 A 0.75,0.75 0 0 0 8.25,5 0.75,0.75 0 0 0 9,5.75 H 21 A 0.75,0.75 0 0 0 21.75,5 0.75,0.75 0 0 0 21,4.25 Z"
     id="path2" />
  <path
     style="color:#000000;fill:currentColor;stroke-linecap:round;stroke-linejoin:round;-inkscape-stroke:none"
     d="M 5.2871094,2.3066406 A 0.750075,0.750075 0 0 0 4.46875,2.46875 l -1.5,1.5 a 0.75,0.75 0 0 0 0,1.0625 0.75,0.75 0 0 0 1.0625,0 L 4.25,4.8125 V 7 A 0.75,0.75 0 0 0 5,7.75 0.75,0.75 0 0 0 5.75,7 V 3 A 0.750075,0.750075 0 0 0 5.2871094,2.3066406 Z"
     id="path4" />
  <path
     style="color:#000000;fill:currentColor;stroke-linecap:round;stroke-linejoin:round;-inkscape-stroke:none"
     d="M 4.5,9.25 C 3.7777785,9.25 3.200446,9.6677392 2.9707031,10.076172 2.7409603,10.484605 2.75,10.888672 2.75,10.888672 v 0.222656 a 0.75,0.75 0 0 0 0.75,0.75 0.75,0.75 0 0 0 0.75,-0.75 v -0.222656 c 0,0 0.00904,-0.04016 0.029297,-0.07617 C 4.2995563,10.776483 4.2222325,10.75 4.5,10.75 c 0.1668137,0 0.1641905,0.02209 0.1738281,0.03516 L 2.8691406,13.59375 A 0.750075,0.750075 0 0 0 3.5,14.75 h 2 A 0.75,0.75 0 0 0 6.25,14 0.75,0.75 0 0 0 5.5,13.25 H 4.8730469 L 6.0351562,11.443359 C 6.1718982,11.230586 6.2899819,10.913751 6.2089844,10.550781 6.1597403,10.330061 6.0494932,10.011857 5.7636719,9.7285156 5.4778506,9.4451738 5.0171126,9.25 4.5,9.25 Z"
     id="path6" />
  <path
     style="color:#000000;fill:currentColor;stroke-linecap:round;stroke-linejoin:round;-inkscape-stroke:none"
     d="M 4,18.25 A 0.75,0.75 0 0 0 3.25,19 0.75,0.75 0 0 0 4,19.75 h 0.5 c 0.1469601,0 0.25,0.103023 0.25,0.25 0,0.146977 -0.1030399,0.25 -0.25,0.25 h -1 A 0.75,0.75 0 0 0 2.75,21 0.75,0.75 0 0 0 3.5,21.75 h 1 c 0.9575988,0 1.75,-0.792378 1.75,-1.75 0,-0.957622 -0.7924012,-1.75 -1.75,-1.75 z"
     id="path8" />
  <path
     style="color:#000000;fill:currentColor;stroke-linecap:round;stroke-linejoin:round;-inkscape-stroke:none"
     d="M 3.5,16.25 A 0.75,0.75 0 0 0 2.75,17 0.75,0.75 0 0 0 3.5,17.75 H 4 l -0.5996094,0.800781 a 0.75,0.75 0 0 0 0.1503907,1.048828 0.75,0.75 0 0 0 1.0488281,-0.15039 l 1.5,-2 A 0.750075,0.750075 0 0 0 5.5,16.25 Z"
     id="path10" />
  <path
     style="color:#000000;fill:currentColor;stroke-linecap:round;stroke-linejoin:round;-inkscape-stroke:none"
     d="M 9,11.25 A 0.75,0.75 0 0 0 8.25,12 0.75,0.75 0 0 0 9,12.75 H 21 A 0.75,0.75 0 0 0 21.75,12 0.75,0.75 0 0 0 21,11.25 Z"
     id="path12" />
  <path
     style="color:#000000;fill:currentColor;stroke-linecap:round;stroke-linejoin:round;-inkscape-stroke:none"
     d="M 9,18.25 A 0.75,0.75 0 0 0 8.25,19 0.75,0.75 0 0 0 9,19.75 H 21 A 0.75,0.75 0 0 0 21.75,19 0.75,0.75 0 0 0 21,18.25 Z"
     id="path14" />
</svg>
