<?xml version="1.0" encoding="UTF-8" standalone="no"?>
<svg
   width="24"
   height="24"
   viewBox="0 0 24 24"
   stroke-width="1.5"
   fill="none"
   version="1.1"
   id="svg8"
   sodipodi:docname="number-6-square.svg"
   inkscape:version="1.2.1 (9c6d41e410, 2022-07-14)"
   xmlns:inkscape="http://www.inkscape.org/namespaces/inkscape"
   xmlns:sodipodi="http://sodipodi.sourceforge.net/DTD/sodipodi-0.dtd"
   xmlns="http://www.w3.org/2000/svg"
   xmlns:svg="http://www.w3.org/2000/svg">
  <defs
     id="defs12" />
  <sodipodi:namedview
     id="namedview10"
     pagecolor="#ffffff"
     bordercolor="#666666"
     borderopacity="1.0"
     inkscape:showpageshadow="2"
     inkscape:pageopacity="0.0"
     inkscape:pagecheckerboard="0"
     inkscape:deskcolor="#d1d1d1"
     showgrid="false"
     inkscape:zoom="34.541667"
     inkscape:cx="10.364294"
     inkscape:cy="12.014475"
     inkscape:window-width="1920"
     inkscape:window-height="1009"
     inkscape:window-x="1912"
     inkscape:window-y="-8"
     inkscape:window-maximized="1"
     inkscape:current-layer="svg8" />
  <path
     style="color:#000000;fill:currentColor;-inkscape-stroke:none"
     d="M 3.5996094,2.25 C 2.8629077,2.25 2.25,2.8629077 2.25,3.5996094 V 20.400391 C 2.25,21.137086 2.862953,21.75 3.5996094,21.75 H 20.400391 C 21.13704,21.75 21.75,21.13704 21.75,20.400391 V 3.5996094 C 21.75,2.862953 21.137086,2.25 20.400391,2.25 Z M 3.75,3.75 h 16.5 v 16.5 H 3.75 Z"
     id="path2" />
  <path
     style="color:#000000;fill:currentColor;stroke-linecap:round;stroke-linejoin:round;-inkscape-stroke:none"
     d="m 12,10.75 c -0.780883,0 -1.55213,0.127389 -2.1933594,0.570313 C 9.165411,11.763236 8.75,12.563451 8.75,13.5 c 0,1.139911 0.3532528,2.038805 1.0039063,2.578125 C 10.40456,16.617445 11.219117,16.75 12,16.75 c 0.780883,0 1.59544,-0.132555 2.246094,-0.671875 C 14.896747,15.538805 15.25,14.639911 15.25,13.5 15.25,12.563451 14.834589,11.763236 14.193359,11.320313 13.55213,10.877389 12.780883,10.75 12,10.75 Z m 0,1.5 c 0.599816,0 1.078202,0.122612 1.341797,0.304688 C 13.605391,12.736763 13.75,12.936551 13.75,13.5 c 0,0.860087 -0.206767,1.211196 -0.460937,1.421875 C 13.034892,15.132554 12.599816,15.25 12,15.25 11.400184,15.25 10.965108,15.132554 10.710938,14.921875 10.456767,14.711196 10.25,14.360087 10.25,13.5 c 0,-0.563449 0.144609,-0.763237 0.408203,-0.945312 C 10.921798,12.372612 11.400184,12.25 12,12.25 Z"
     id="path4" />
  <path
     style="color:#000000;fill:currentColor;stroke-linecap:round;stroke-linejoin:round;-inkscape-stroke:none"
     d="m 14,7.25 c -1.180554,0 -2.106349,0.1266281 -2.861328,0.40625 C 10.383693,7.9358719 9.800739,8.394597 9.4316406,8.96875 8.693444,10.117056 8.75,11.500002 8.75,13 A 0.75,0.75 0 0 0 9.5,13.75 0.75,0.75 0 0 0 10.25,13 c 0,-1.499998 0.05656,-2.617058 0.443359,-3.21875 C 10.88676,9.4804038 11.147559,9.2516276 11.658203,9.0625 12.168848,8.8733724 12.930557,8.75 14,8.75 A 0.75,0.75 0 0 0 14.75,8 0.75,0.75 0 0 0 14,7.25 Z"
     id="path6" />
</svg>
