<?xml version="1.0" encoding="UTF-8" standalone="no"?>
<svg
   width="24"
   height="24"
   viewBox="0 0 24 24"
   stroke-width="1.5"
   fill="none"
   version="1.1"
   id="svg8"
   sodipodi:docname="number-3-square.svg"
   inkscape:version="1.2.1 (9c6d41e410, 2022-07-14)"
   xmlns:inkscape="http://www.inkscape.org/namespaces/inkscape"
   xmlns:sodipodi="http://sodipodi.sourceforge.net/DTD/sodipodi-0.dtd"
   xmlns="http://www.w3.org/2000/svg"
   xmlns:svg="http://www.w3.org/2000/svg">
  <defs
     id="defs12" />
  <sodipodi:namedview
     id="namedview10"
     pagecolor="#ffffff"
     bordercolor="#666666"
     borderopacity="1.0"
     inkscape:showpageshadow="2"
     inkscape:pageopacity="0.0"
     inkscape:pagecheckerboard="0"
     inkscape:deskcolor="#d1d1d1"
     showgrid="false"
     inkscape:zoom="34.541667"
     inkscape:cx="10.364294"
     inkscape:cy="12.014475"
     inkscape:window-width="1920"
     inkscape:window-height="1009"
     inkscape:window-x="1912"
     inkscape:window-y="-8"
     inkscape:window-maximized="1"
     inkscape:current-layer="svg8" />
  <path
     style="color:#000000;fill:currentColor;-inkscape-stroke:none"
     d="M 3.5996094,2.25 C 2.8629077,2.25 2.25,2.8629077 2.25,3.5996094 V 20.400391 C 2.25,21.137086 2.862953,21.75 3.5996094,21.75 H 20.400391 C 21.13704,21.75 21.75,21.13704 21.75,20.400391 V 3.5996094 C 21.75,2.862953 21.137086,2.25 20.400391,2.25 Z M 3.75,3.75 h 16.5 v 16.5 H 3.75 Z"
     id="path2" />
  <path
     style="color:#000000;fill:currentColor;stroke-linecap:round;stroke-linejoin:round;-inkscape-stroke:none"
     d="M 12,7.25 C 10.295035,7.25 8.75,8.3887639 8.75,10 A 0.75,0.75 0 0 0 9.5,10.75 0.75,0.75 0 0 0 10.25,10 c 0,-0.5979016 0.693568,-1.25 1.75,-1.25 1.056432,0 1.75,0.6520984 1.75,1.25 0,0.412136 -0.11328,0.715844 -0.289062,0.910156 C 13.285155,11.104468 13.028222,11.25 12.5,11.25 A 0.75,0.75 0 0 0 11.75,12 0.75,0.75 0 0 0 12.5,12.75 c 0.852477,0 1.595177,-0.302494 2.074219,-0.832031 C 15.05326,11.388432 15.25,10.692463 15.25,10 15.25,8.3887639 13.704965,7.25 12,7.25 Z"
     id="path4" />
  <path
     style="color:#000000;fill:currentColor;stroke-linecap:round;stroke-linejoin:round;-inkscape-stroke:none"
     d="M 12.5,11.25 A 0.75,0.75 0 0 0 11.75,12 0.75,0.75 0 0 0 12.5,12.75 c 0.528222,0 0.785155,0.145532 0.960938,0.339844 C 13.63672,13.284156 13.75,13.587864 13.75,14 c 0,0.597945 -0.693557,1.25 -1.75,1.25 -1.056443,0 -1.75,-0.652055 -1.75,-1.25 A 0.75,0.75 0 0 0 9.5,13.25 0.75,0.75 0 0 0 8.75,14 c 0,1.611252 1.545046,2.75 3.25,2.75 1.704954,0 3.25,-1.138748 3.25,-2.75 0,-0.692463 -0.19674,-1.388432 -0.675781,-1.917969 C 14.095177,11.552494 13.352477,11.25 12.5,11.25 Z"
     id="path6" />
</svg>
