<?xml version="1.0" encoding="UTF-8" standalone="no"?>
<svg
   width="24"
   height="24"
   stroke-width="1.5"
   viewBox="0 0 24 24"
   fill="none"
   version="1.1"
   id="svg14"
   sodipodi:docname="off-tag.svg"
   inkscape:version="1.2.1 (9c6d41e410, 2022-07-14)"
   xmlns:inkscape="http://www.inkscape.org/namespaces/inkscape"
   xmlns:sodipodi="http://sodipodi.sourceforge.net/DTD/sodipodi-0.dtd"
   xmlns="http://www.w3.org/2000/svg"
   xmlns:svg="http://www.w3.org/2000/svg">
  <defs
     id="defs18" />
  <sodipodi:namedview
     id="namedview16"
     pagecolor="#ffffff"
     bordercolor="#666666"
     borderopacity="1.0"
     inkscape:showpageshadow="2"
     inkscape:pageopacity="0.0"
     inkscape:pagecheckerboard="0"
     inkscape:deskcolor="#d1d1d1"
     showgrid="false"
     inkscape:zoom="34.541667"
     inkscape:cx="10.364294"
     inkscape:cy="12.014475"
     inkscape:window-width="1920"
     inkscape:window-height="1009"
     inkscape:window-x="1912"
     inkscape:window-y="-8"
     inkscape:window-maximized="1"
     inkscape:current-layer="svg14" />
  <path
     style="color:#000000;fill:currentColor;-inkscape-stroke:none"
     d="M 7,2.25 C 3.280964,2.25 0.25,5.280964 0.25,9 v 6 c 0,3.719027 3.0309625,6.75 6.75,6.75 h 10 c 3.719029,0 6.75,-3.030971 6.75,-6.75 V 9 C 23.75,5.2809625 20.719027,2.25 17,2.25 Z m 0,1.5 h 10 c 2.908366,0 5.25,2.3416241 5.25,5.25 v 6 c 0,2.908365 -2.341635,5.25 -5.25,5.25 H 7 C 4.0916241,20.25 1.75,17.908366 1.75,15 V 9 C 1.75,6.0916226 4.0916226,3.75 7,3.75 Z"
     id="path2" />
  <path
     style="color:#000000;fill:currentColor;-inkscape-stroke:none"
     d="m 7,8.25 c -2.0621653,0 -3.75,1.6877819 -3.75,3.75 0,2.062218 1.6878347,3.75 3.75,3.75 2.0621653,0 3.75,-1.687782 3.75,-3.75 C 10.75,9.9377819 9.0621653,8.25 7,8.25 Z m 0,1.5 c 1.2515314,0 2.25,0.998421 2.25,2.25 0,1.251579 -0.9984686,2.25 -2.25,2.25 C 5.7484686,14.25 4.75,13.251579 4.75,12 4.75,10.748421 5.7484686,9.75 7,9.75 Z"
     id="path4" />
  <path
     style="color:#000000;fill:currentColor;stroke-linecap:round;stroke-linejoin:round;-inkscape-stroke:none"
     d="M 12,8.25 A 0.750075,0.750075 0 0 0 11.25,9 v 6 A 0.75,0.75 0 0 0 12,15.75 0.75,0.75 0 0 0 12.75,15 V 9.75 H 15 A 0.75,0.75 0 0 0 15.75,9 0.75,0.75 0 0 0 15,8.25 Z"
     id="path6" />
  <path
     style="color:#000000;fill:currentColor;stroke-linecap:round;stroke-linejoin:round;-inkscape-stroke:none"
     d="M 17,8.25 A 0.750075,0.750075 0 0 0 16.25,9 v 6 A 0.75,0.75 0 0 0 17,15.75 0.75,0.75 0 0 0 17.75,15 V 9.75 H 20 A 0.75,0.75 0 0 0 20.75,9 0.75,0.75 0 0 0 20,8.25 Z"
     id="path8" />
  <path
     style="color:#000000;fill:currentColor;stroke-linecap:round;stroke-linejoin:round;-inkscape-stroke:none"
     d="M 12,11.25 A 0.75,0.75 0 0 0 11.25,12 0.75,0.75 0 0 0 12,12.75 h 2.572266 a 0.75,0.75 0 0 0 0.75,-0.75 0.75,0.75 0 0 0 -0.75,-0.75 z"
     id="path10" />
  <path
     style="color:#000000;fill:currentColor;stroke-linecap:round;stroke-linejoin:round;-inkscape-stroke:none"
     d="M 17,11.25 A 0.75,0.75 0 0 0 16.25,12 0.75,0.75 0 0 0 17,12.75 h 2.572266 a 0.75,0.75 0 0 0 0.75,-0.75 0.75,0.75 0 0 0 -0.75,-0.75 z"
     id="path12" />
</svg>
