<?xml version="1.0" encoding="UTF-8" standalone="no"?>
<svg
   width="24"
   height="24"
   stroke-width="1.5"
   viewBox="0 0 24 24"
   fill="none"
   version="1.1"
   id="svg8"
   sodipodi:docname="on-tag.svg"
   inkscape:version="1.2.1 (9c6d41e410, 2022-07-14)"
   xmlns:inkscape="http://www.inkscape.org/namespaces/inkscape"
   xmlns:sodipodi="http://sodipodi.sourceforge.net/DTD/sodipodi-0.dtd"
   xmlns="http://www.w3.org/2000/svg"
   xmlns:svg="http://www.w3.org/2000/svg">
  <defs
     id="defs12" />
  <sodipodi:namedview
     id="namedview10"
     pagecolor="#ffffff"
     bordercolor="#666666"
     borderopacity="1.0"
     inkscape:showpageshadow="2"
     inkscape:pageopacity="0.0"
     inkscape:pagecheckerboard="0"
     inkscape:deskcolor="#d1d1d1"
     showgrid="false"
     inkscape:zoom="34.541667"
     inkscape:cx="10.364294"
     inkscape:cy="12.014475"
     inkscape:window-width="1920"
     inkscape:window-height="1009"
     inkscape:window-x="1912"
     inkscape:window-y="-8"
     inkscape:window-maximized="1"
     inkscape:current-layer="svg8" />
  <path
     style="color:#000000;fill:currentColor;-inkscape-stroke:none"
     d="M 7,2.25 C 3.280964,2.25 0.25,5.280964 0.25,9 v 6 c 0,3.719027 3.0309625,6.75 6.75,6.75 h 10 c 3.719029,0 6.75,-3.030971 6.75,-6.75 V 9 C 23.75,5.2809625 20.719027,2.25 17,2.25 Z m 0,1.5 h 10 c 2.908366,0 5.25,2.3416241 5.25,5.25 v 6 c 0,2.908365 -2.341635,5.25 -5.25,5.25 H 7 C 4.0916241,20.25 1.75,17.908366 1.75,15 V 9 C 1.75,6.0916226 4.0916226,3.75 7,3.75 Z"
     id="path2" />
  <path
     style="color:#000000;fill:currentColor;-inkscape-stroke:none"
     d="m 9,8.25 c -2.0621653,0 -3.75,1.6877819 -3.75,3.75 0,2.062218 1.6878347,3.75 3.75,3.75 2.062203,0 3.75,-1.687797 3.75,-3.75 C 12.75,9.937797 11.062203,8.25 9,8.25 Z m 0,1.5 c 1.251594,0 2.25,0.998406 2.25,2.25 0,1.251594 -0.998406,2.25 -2.25,2.25 C 7.7484686,14.25 6.75,13.251579 6.75,12 6.75,10.748421 7.7484686,9.75 9,9.75 Z"
     id="path4" />
  <path
     style="color:#000000;fill:currentColor;stroke-linecap:round;stroke-linejoin:round;-inkscape-stroke:none"
     d="M 18,8.25 A 0.75,0.75 0 0 0 17.25,9 v 3.521484 L 14.625,8.5839844 A 0.750075,0.750075 0 0 0 13.25,9 v 6 A 0.75,0.75 0 0 0 14,15.75 0.75,0.75 0 0 0 14.75,15 v -3.521484 l 2.625,3.9375 A 0.750075,0.750075 0 0 0 18.75,15 V 9 A 0.75,0.75 0 0 0 18,8.25 Z"
     id="path6" />
</svg>
