<?xml version="1.0" encoding="UTF-8" standalone="no"?>
<svg
   width="24"
   height="24"
   stroke-width="1.5"
   viewBox="0 0 24 24"
   fill="none"
   version="1.1"
   id="svg14"
   sodipodi:docname="open-book.svg"
   inkscape:version="1.2.1 (9c6d41e410, 2022-07-14)"
   xmlns:inkscape="http://www.inkscape.org/namespaces/inkscape"
   xmlns:sodipodi="http://sodipodi.sourceforge.net/DTD/sodipodi-0.dtd"
   xmlns="http://www.w3.org/2000/svg"
   xmlns:svg="http://www.w3.org/2000/svg">
  <defs
     id="defs18" />
  <sodipodi:namedview
     id="namedview16"
     pagecolor="#ffffff"
     bordercolor="#666666"
     borderopacity="1.0"
     inkscape:showpageshadow="2"
     inkscape:pageopacity="0.0"
     inkscape:pagecheckerboard="0"
     inkscape:deskcolor="#d1d1d1"
     showgrid="false"
     inkscape:zoom="34.541667"
     inkscape:cx="10.364294"
     inkscape:cy="12.014475"
     inkscape:window-width="1920"
     inkscape:window-height="1009"
     inkscape:window-x="1912"
     inkscape:window-y="-8"
     inkscape:window-maximized="1"
     inkscape:current-layer="svg14" />
  <path
     style="color:#000000;fill:currentColor;stroke-linecap:round;-inkscape-stroke:none"
     d="M 14,4.25 C 12.490083,4.25 11.25,5.4901154 11.25,7 V 21 A 0.75,0.75 0 0 0 12,21.75 0.75,0.75 0 0 0 12.75,21 V 7 c 0,-0.6992532 0.550719,-1.25 1.25,-1.25 h 7.25 v 12.964844 a 0.75,0.75 0 0 0 0.75,0.75 0.75,0.75 0 0 0 0.75,-0.75 V 5.5996094 C 22.75,4.862953 22.137086,4.25 21.400391,4.25 Z"
     id="path2" />
  <path
     style="color:#000000;fill:currentColor;stroke-linecap:round;-inkscape-stroke:none"
     d="M 2.5996094,4.25 C 1.8629077,4.25 1.25,4.8629077 1.25,5.5996094 V 18.714844 a 0.75,0.75 0 0 0 0.75,0.75 0.75,0.75 0 0 0 0.75,-0.75 V 5.75 H 10 c 0.699281,0 1.25,0.5507468 1.25,1.25 V 21 A 0.75,0.75 0 0 0 12,21.75 0.75,0.75 0 0 0 12.75,21 V 7 C 12.75,5.4901154 11.509917,4.25 10,4.25 Z"
     id="path4" />
  <path
     style="color:#000000;fill:currentColor;stroke-linecap:round;-inkscape-stroke:none"
     d="M 14,18.25 A 0.75,0.75 0 0 0 13.25,19 0.75,0.75 0 0 0 14,19.75 h 8 A 0.75,0.75 0 0 0 22.75,19 0.75,0.75 0 0 0 22,18.25 Z"
     id="path6" />
  <path
     style="color:#000000;fill:currentColor;stroke-linecap:round;-inkscape-stroke:none"
     d="M 2,18.25 A 0.75,0.75 0 0 0 1.25,19 0.75,0.75 0 0 0 2,19.75 h 8 A 0.75,0.75 0 0 0 10.75,19 0.75,0.75 0 0 0 10,18.25 Z"
     id="path8" />
  <path
     style="color:#000000;fill:currentColor;stroke-linecap:round;stroke-linejoin:round;-inkscape-stroke:none"
     d="m 14,18.25 c -1.509904,0 -2.75,1.240096 -2.75,2.75 A 0.75,0.75 0 0 0 12,21.75 0.75,0.75 0 0 0 12.75,21 c 0,-0.699294 0.550706,-1.25 1.25,-1.25 A 0.75,0.75 0 0 0 14.75,19 0.75,0.75 0 0 0 14,18.25 Z"
     id="path10" />
  <path
     style="color:#000000;fill:currentColor;stroke-linecap:round;stroke-linejoin:round;-inkscape-stroke:none"
     d="M 10,18.25 A 0.75,0.75 0 0 0 9.25,19 0.75,0.75 0 0 0 10,19.75 c 0.699294,0 1.25,0.550706 1.25,1.25 A 0.75,0.75 0 0 0 12,21.75 0.75,0.75 0 0 0 12.75,21 c 0,-1.509904 -1.240096,-2.75 -2.75,-2.75 z"
     id="path12" />
</svg>
