<?xml version="1.0" encoding="UTF-8" standalone="no"?>
<svg
   width="24"
   height="24"
   stroke-width="1.5"
   viewBox="0 0 24 24"
   fill="none"
   version="1.1"
   id="svg12"
   sodipodi:docname="open-select-hand-gesture.svg"
   inkscape:version="1.2.1 (9c6d41e410, 2022-07-14)"
   xmlns:inkscape="http://www.inkscape.org/namespaces/inkscape"
   xmlns:sodipodi="http://sodipodi.sourceforge.net/DTD/sodipodi-0.dtd"
   xmlns="http://www.w3.org/2000/svg"
   xmlns:svg="http://www.w3.org/2000/svg">
  <defs
     id="defs16" />
  <sodipodi:namedview
     id="namedview14"
     pagecolor="#ffffff"
     bordercolor="#666666"
     borderopacity="1.0"
     inkscape:showpageshadow="2"
     inkscape:pageopacity="0.0"
     inkscape:pagecheckerboard="0"
     inkscape:deskcolor="#d1d1d1"
     showgrid="false"
     inkscape:zoom="34.541667"
     inkscape:cx="10.364294"
     inkscape:cy="12.014475"
     inkscape:window-width="1920"
     inkscape:window-height="1009"
     inkscape:window-x="1912"
     inkscape:window-y="-8"
     inkscape:window-maximized="1"
     inkscape:current-layer="svg12" />
  <path
     style="color:#000000;fill:currentColor;stroke-linecap:round;stroke-linejoin:round;-inkscape-stroke:none"
     d="m 20,8.6777344 a 0.75,0.75 0 0 0 -0.75,0.75 V 18 c 0,1.599998 -1.266669,3.25 -3.25,3.25 h -4.634766 c -0.345853,0 -0.673158,-0.141744 -0.910156,-0.394531 L 4.5117187,14.517578 c -0.288687,-0.307943 -0.2954852,-0.768349 -0.017578,-1.085937 0.3095007,-0.35374 0.8256755,-0.376883 1.1660156,-0.05274 l 1.8222657,1.736328 a 0.75,0.75 0 0 0 1.0605469,-0.02734 0.75,0.75 0 0 0 -0.025391,-1.060547 L 6.6953125,12.292969 c -0.9435386,-0.89865 -2.47206,-0.830269 -3.3300781,0.15039 -0.7772318,0.888211 -0.7544776,2.238554 0.052734,3.09961 l 5.9414062,6.33789 C 9.8785962,22.434671 10.605489,22.75 11.365234,22.75 H 16 c 2.816664,0 4.75,-2.350002 4.75,-4.75 V 9.4277344 a 0.75,0.75 0 0 0 -0.75,-0.75 z"
     id="path2" />
  <path
     style="color:#000000;fill:currentColor;stroke-linecap:round;stroke-linejoin:round;-inkscape-stroke:none"
     d="m 18.5,6.9648437 c -1.130952,10e-8 -2.25,0.991908 -2.25,2.4628907 V 10 A 0.75,0.75 0 0 0 17,10.75 0.75,0.75 0 0 0 17.75,10 V 9.4277344 c 0,-0.814735 0.380954,-0.9628906 0.75,-0.9628906 0.369046,0 0.75,0.1481556 0.75,0.9628906 A 0.75,0.75 0 0 0 20,10.177734 0.75,0.75 0 0 0 20.75,9.4277344 c 0,-1.4709827 -1.119048,-2.4628906 -2.25,-2.4628907 z"
     id="path4" />
  <path
     style="color:#000000;fill:currentColor;stroke-linecap:round;stroke-linejoin:round;-inkscape-stroke:none"
     d="m 15.5,5.8222656 c -1.130952,0 -2.25,0.9919079 -2.25,2.4628907 V 10 A 0.75,0.75 0 0 0 14,10.75 0.75,0.75 0 0 0 14.75,10 V 8.2851563 c 0,-0.8147351 0.380954,-0.9628907 0.75,-0.9628907 0.369046,0 0.75,0.1481556 0.75,0.9628907 V 9.4277344 10 A 0.75,0.75 0 0 0 17,10.75 0.75,0.75 0 0 0 17.75,10 V 9.4277344 8.2851563 c 0,-1.4709828 -1.119048,-2.4628907 -2.25,-2.4628907 z"
     id="path6" />
  <path
     style="color:#000000;fill:currentColor;stroke-linecap:round;stroke-linejoin:round;-inkscape-stroke:none"
     d="m 12.5,5.0351562 c -1.130951,0 -2.25,0.9938647 -2.25,2.4648438 V 10 A 0.75,0.75 0 0 0 11,10.75 0.75,0.75 0 0 0 11.75,10 V 7.5 c 0,-0.8147286 0.380952,-0.9648438 0.75,-0.9648438 0.369048,0 0.75,0.1501152 0.75,0.9648438 V 8.2851563 10 A 0.75,0.75 0 0 0 14,10.75 0.75,0.75 0 0 0 14.75,10 V 8.2851563 7.5 c 0,-1.4709791 -1.119049,-2.4648438 -2.25,-2.4648438 z"
     id="path8" />
  <path
     style="color:#000000;fill:currentColor;stroke-linecap:round;stroke-linejoin:round;-inkscape-stroke:none"
     d="M 9.5,1.25 C 8.2662443,1.25 7.25,2.2662443 7.25,3.5 v 11.072266 a 0.75,0.75 0 0 0 0.75,0.75 0.75,0.75 0 0 0 0.75,-0.75 V 3.5 c 0,-0.4231026 0.3268974,-0.75 0.75,-0.75 0.4236676,0 0.75,0.3249623 0.75,0.7480469 V 7.5 10 A 0.75,0.75 0 0 0 11,10.75 0.75,0.75 0 0 0 11.75,10 V 7.5 3.4980469 C 11.75,2.2642731 10.733131,1.25 9.5,1.25 Z"
     id="path10" />
</svg>
