<?xml version="1.0" encoding="UTF-8" standalone="no"?>
<svg
   width="24"
   height="24"
   stroke-width="1.5"
   viewBox="0 0 24 24"
   fill="none"
   version="1.1"
   id="svg4"
   sodipodi:docname="orange-slice-alt.svg"
   inkscape:version="1.2.1 (9c6d41e410, 2022-07-14)"
   xmlns:inkscape="http://www.inkscape.org/namespaces/inkscape"
   xmlns:sodipodi="http://sodipodi.sourceforge.net/DTD/sodipodi-0.dtd"
   xmlns="http://www.w3.org/2000/svg"
   xmlns:svg="http://www.w3.org/2000/svg">
  <defs
     id="defs8" />
  <sodipodi:namedview
     id="namedview6"
     pagecolor="#ffffff"
     bordercolor="#666666"
     borderopacity="1.0"
     inkscape:showpageshadow="2"
     inkscape:pageopacity="0.0"
     inkscape:pagecheckerboard="0"
     inkscape:deskcolor="#d1d1d1"
     showgrid="false"
     inkscape:zoom="34.541667"
     inkscape:cx="10.364294"
     inkscape:cy="12.014475"
     inkscape:window-width="1920"
     inkscape:window-height="1009"
     inkscape:window-x="1912"
     inkscape:window-y="-8"
     inkscape:window-maximized="1"
     inkscape:current-layer="svg4" />
  <path
     style="color:#000000;fill:currentColor;stroke-linecap:round;stroke-linejoin:round;-inkscape-stroke:none"
     d="m 5.0800781,1.8027344 c -4.58237543,4.5823754 -4.58237243,12.0347826 0,16.6171876 4.5823753,4.582407 12.0347829,4.582404 16.6171879,0 a 0.750075,0.750075 0 0 0 0,-1.060547 L 13.919922,9.5800781 13.896484,9.5585938 6.1425781,1.8027344 a 0.750075,0.750075 0 0 0 -1.0625,0 z M 5.71875,3.5019531 11.580078,9.3613281 H 5.6113281 a 0.75,0.75 0 0 0 -0.75,0.7499999 0.75,0.75 0 0 0 0.75,0.75 h 5.9667969 l -4.0214844,4.023438 a 0.75,0.75 0 0 0 0,1.060547 0.75,0.75 0 0 0 1.0605469,0 l 4.0976565,-4.09961 0.279297,6.429688 a 0.75,0.75 0 0 0 0.78125,0.716796 0.75,0.75 0 0 0 0.716797,-0.78125 L 14.222656,12.003906 20,17.783203 C 15.968535,21.245397 9.9635137,21.180337 6.1425781,17.359375 2.32199,13.53876 2.2575673,7.5333924 5.71875,3.5019531 Z"
     id="path2" />
</svg>
