<?xml version="1.0" encoding="UTF-8" standalone="no"?>
<svg
   width="24"
   height="24"
   stroke-width="1.5"
   viewBox="0 0 24 24"
   fill="none"
   version="1.1"
   id="svg4"
   sodipodi:docname="orange-slice.svg"
   inkscape:version="1.2.1 (9c6d41e410, 2022-07-14)"
   xmlns:inkscape="http://www.inkscape.org/namespaces/inkscape"
   xmlns:sodipodi="http://sodipodi.sourceforge.net/DTD/sodipodi-0.dtd"
   xmlns="http://www.w3.org/2000/svg"
   xmlns:svg="http://www.w3.org/2000/svg">
  <defs
     id="defs8" />
  <sodipodi:namedview
     id="namedview6"
     pagecolor="#ffffff"
     bordercolor="#666666"
     borderopacity="1.0"
     inkscape:showpageshadow="2"
     inkscape:pageopacity="0.0"
     inkscape:pagecheckerboard="0"
     inkscape:deskcolor="#d1d1d1"
     showgrid="false"
     inkscape:zoom="34.541667"
     inkscape:cx="10.364294"
     inkscape:cy="12.014475"
     inkscape:window-width="1920"
     inkscape:window-height="1009"
     inkscape:window-x="1912"
     inkscape:window-y="-8"
     inkscape:window-maximized="1"
     inkscape:current-layer="svg4" />
  <path
     style="color:#000000;fill:currentColor;stroke-linecap:round;stroke-linejoin:round;-inkscape-stroke:none"
     d="m 17.859375,1.8027344 -7.753906,7.7558594 -0.02344,0.021484 -7.7773435,7.7792969 a 0.750075,0.750075 0 0 0 0,1.060547 c 4.5823681,4.582411 12.0348775,4.582417 16.6171875,0 4.582403,-4.582404 4.582406,-12.0348132 0,-16.6171876 a 0.750075,0.750075 0 0 0 -1.0625,0 z m 0.423828,1.6992187 c 3.461208,4.0314396 3.396788,10.0368059 -0.423828,13.8574219 -3.820864,3.820953 -9.82599,3.886017 -13.8574219,0.423828 l 5.7773438,-5.779297 -0.2695313,6.207031 a 0.75,0.75 0 0 0 0.7167974,0.78125 0.75,0.75 0 0 0 0.78125,-0.716796 l 0.279296,-6.429688 4.097657,4.09961 a 0.75,0.75 0 0 0 1.060546,0 0.75,0.75 0 0 0 0,-1.060547 l -4.021484,-4.023438 h 5.966797 a 0.75,0.75 0 0 0 0.75,-0.75 0.75,0.75 0 0 0 -0.75,-0.7499999 h -5.96875 z"
     id="path2" />
</svg>
