<?xml version="1.0" encoding="UTF-8" standalone="no"?>
<svg
   width="24"
   height="24"
   stroke-width="1.5"
   viewBox="0 0 24 24"
   fill="none"
   version="1.1"
   id="svg16"
   sodipodi:docname="orthogonal-view.svg"
   inkscape:version="1.2.1 (9c6d41e410, 2022-07-14)"
   xmlns:inkscape="http://www.inkscape.org/namespaces/inkscape"
   xmlns:sodipodi="http://sodipodi.sourceforge.net/DTD/sodipodi-0.dtd"
   xmlns="http://www.w3.org/2000/svg"
   xmlns:svg="http://www.w3.org/2000/svg">
  <defs
     id="defs20" />
  <sodipodi:namedview
     id="namedview18"
     pagecolor="#ffffff"
     bordercolor="#666666"
     borderopacity="1.0"
     inkscape:showpageshadow="2"
     inkscape:pageopacity="0.0"
     inkscape:pagecheckerboard="0"
     inkscape:deskcolor="#d1d1d1"
     showgrid="false"
     inkscape:zoom="34.541667"
     inkscape:cx="10.364294"
     inkscape:cy="12.014475"
     inkscape:window-width="1920"
     inkscape:window-height="1009"
     inkscape:window-x="1912"
     inkscape:window-y="-8"
     inkscape:window-maximized="1"
     inkscape:current-layer="svg16" />
  <path
     style="color:#000000;fill:currentColor;stroke-linecap:round;stroke-linejoin:round;-inkscape-stroke:none"
     d="M 3,2.25 A 0.750075,0.750075 0 0 0 2.25,3 V 21 A 0.750075,0.750075 0 0 0 3,21.75 H 21 A 0.750075,0.750075 0 0 0 21.75,21 V 3 A 0.750075,0.750075 0 0 0 21,2.25 Z m 0.75,1.5 h 16.5 v 16.5 H 3.75 Z"
     id="path2" />
  <path
     style="color:#000000;fill:currentColor;stroke-linecap:round;stroke-linejoin:round;-inkscape-stroke:none"
     d="M 3,15.75 A 0.75,0.75 0 0 0 2.25,16.5 0.75,0.75 0 0 0 3,17.25 h 9 9 A 0.75,0.75 0 0 0 21.75,16.5 0.75,0.75 0 0 0 21,15.75 h -9 z"
     id="path4" />
  <path
     style="color:#000000;fill:currentColor;stroke-linecap:round;stroke-linejoin:round;-inkscape-stroke:none"
     d="M 3,11.25 A 0.75,0.75 0 0 0 2.25,12 0.75,0.75 0 0 0 3,12.75 H 21 A 0.75,0.75 0 0 0 21.75,12 0.75,0.75 0 0 0 21,11.25 Z"
     id="path6" />
  <path
     style="color:#000000;fill:currentColor;stroke-linecap:round;stroke-linejoin:round;-inkscape-stroke:none"
     d="M 3,6.75 A 0.75,0.75 0 0 0 2.25,7.5 0.75,0.75 0 0 0 3,8.25 H 21 A 0.75,0.75 0 0 0 21.75,7.5 0.75,0.75 0 0 0 21,6.75 Z"
     id="path8" />
  <path
     style="color:#000000;fill:currentColor;stroke-linecap:round;stroke-linejoin:round;-inkscape-stroke:none"
     d="M 16.5,2.25 A 0.75,0.75 0 0 0 15.75,3 v 9 9 A 0.75,0.75 0 0 0 16.5,21.75 0.75,0.75 0 0 0 17.25,21 V 12 3 A 0.75,0.75 0 0 0 16.5,2.25 Z"
     id="path10" />
  <path
     style="color:#000000;fill:currentColor;stroke-linecap:round;stroke-linejoin:round;-inkscape-stroke:none"
     d="M 12,2.25 A 0.75,0.75 0 0 0 11.25,3 V 21 A 0.75,0.75 0 0 0 12,21.75 0.75,0.75 0 0 0 12.75,21 V 3 A 0.75,0.75 0 0 0 12,2.25 Z"
     id="path12" />
  <path
     style="color:#000000;fill:currentColor;stroke-linecap:round;stroke-linejoin:round;-inkscape-stroke:none"
     d="M 7.5,2.25 A 0.75,0.75 0 0 0 6.75,3 V 21 A 0.75,0.75 0 0 0 7.5,21.75 0.75,0.75 0 0 0 8.25,21 V 3 A 0.75,0.75 0 0 0 7.5,2.25 Z"
     id="path14" />
</svg>
