<?xml version="1.0" encoding="UTF-8" standalone="no"?>
<svg
   width="24"
   height="24"
   stroke-width="1.5"
   viewBox="0 0 24 24"
   fill="none"
   version="1.1"
   id="svg8"
   sodipodi:docname="package-lock.svg"
   inkscape:version="1.2.1 (9c6d41e410, 2022-07-14)"
   xmlns:inkscape="http://www.inkscape.org/namespaces/inkscape"
   xmlns:sodipodi="http://sodipodi.sourceforge.net/DTD/sodipodi-0.dtd"
   xmlns="http://www.w3.org/2000/svg"
   xmlns:svg="http://www.w3.org/2000/svg">
  <defs
     id="defs12" />
  <sodipodi:namedview
     id="namedview10"
     pagecolor="#ffffff"
     bordercolor="#666666"
     borderopacity="1.0"
     inkscape:showpageshadow="2"
     inkscape:pageopacity="0.0"
     inkscape:pagecheckerboard="0"
     inkscape:deskcolor="#d1d1d1"
     showgrid="false"
     inkscape:zoom="34.541667"
     inkscape:cx="10.364294"
     inkscape:cy="12.014475"
     inkscape:window-width="1920"
     inkscape:window-height="1009"
     inkscape:window-x="1912"
     inkscape:window-y="-8"
     inkscape:window-maximized="1"
     inkscape:current-layer="svg8" />
  <path
     style="color:#000000;fill:currentColor;stroke-linecap:round;stroke-linejoin:round;-inkscape-stroke:none"
     d="M 6,3.25 C 4.4901018,3.25 3.25,4.4901018 3.25,6 v 12 c 0,1.509917 1.2401154,2.75 2.75,2.75 h 8 A 0.75,0.75 0 0 0 14.75,20 0.75,0.75 0 0 0 14,19.25 H 6 C 5.3007468,19.25 4.75,18.699281 4.75,18 V 6 C 4.75,5.3007604 5.3007604,4.75 6,4.75 h 12 c 0.699144,0 1.249937,0.5507238 1.25,1.25 v 6 A 0.75,0.75 0 0 0 20,12.75 0.75,0.75 0 0 0 20.75,12 V 6 C 20.749863,4.4901584 19.509854,3.25 18,3.25 Z"
     id="path2" />
  <path
     style="color:#000000;fill:currentColor;stroke-linecap:round;stroke-linejoin:round;-inkscape-stroke:none"
     d="M 12,3.25 A 0.75,0.75 0 0 0 11.25,4 V 9 A 0.75,0.75 0 0 0 12,9.75 0.75,0.75 0 0 0 12.75,9 V 4 A 0.75,0.75 0 0 0 12,3.25 Z"
     id="path4" />
  <path
     style="color:#000000;fill:currentColor;stroke-linecap:round;stroke-linejoin:round;-inkscape-stroke:none"
     d="m 19.5,14.25 c -0.885411,0 -1.586865,0.451161 -1.951172,0.982422 -0.364307,0.531261 -0.464844,1.083035 -0.464844,1.517578 v 1.216797 C 16.622121,18.182986 16.25,18.562738 16.25,19.099609 v 2.300782 c 0,0.736649 0.61296,1.349609 1.349609,1.349609 h 3.800782 C 22.13704,22.75 22.75,22.13704 22.75,21.400391 v -2.300782 c 0,-0.536871 -0.372121,-0.916623 -0.833984,-1.132812 V 16.75 c 0,-0.434543 -0.100537,-0.986317 -0.464844,-1.517578 C 21.086865,14.701161 20.385411,14.25 19.5,14.25 Z m 0,1.5 c 0.447888,0 0.579126,0.132165 0.714844,0.330078 0.135717,0.197914 0.201172,0.521166 0.201172,0.669922 v 1 h -1.832032 v -1 c 0,-0.148756 0.06546,-0.472008 0.201172,-0.669922 C 18.920874,15.882165 19.052112,15.75 19.5,15.75 Z m -1.75,3.5 h 0.08398 3.332032 0.08398 v 2 h -3.5 z"
     id="path6" />
</svg>
