<?xml version="1.0" encoding="UTF-8" standalone="no"?>
<svg
   width="24"
   height="24"
   stroke-width="1.5"
   viewBox="0 0 24 24"
   fill="none"
   version="1.1"
   id="svg14"
   sodipodi:docname="packages.svg"
   inkscape:version="1.2.1 (9c6d41e410, 2022-07-14)"
   xmlns:inkscape="http://www.inkscape.org/namespaces/inkscape"
   xmlns:sodipodi="http://sodipodi.sourceforge.net/DTD/sodipodi-0.dtd"
   xmlns="http://www.w3.org/2000/svg"
   xmlns:svg="http://www.w3.org/2000/svg">
  <defs
     id="defs18" />
  <sodipodi:namedview
     id="namedview16"
     pagecolor="#ffffff"
     bordercolor="#666666"
     borderopacity="1.0"
     inkscape:showpageshadow="2"
     inkscape:pageopacity="0.0"
     inkscape:pagecheckerboard="0"
     inkscape:deskcolor="#d1d1d1"
     showgrid="false"
     inkscape:zoom="34.541667"
     inkscape:cx="10.364294"
     inkscape:cy="12.014475"
     inkscape:window-width="1920"
     inkscape:window-height="1009"
     inkscape:window-x="1912"
     inkscape:window-y="-8"
     inkscape:window-maximized="1"
     inkscape:current-layer="svg14" />
  <path
     style="color:#000000;fill:currentColor;stroke-linecap:round;stroke-linejoin:round;-inkscape-stroke:none"
     d="m 4,12.25 c -1.5098846,0 -2.75,1.240083 -2.75,2.75 v 4 c 0,1.509917 1.2401154,2.75 2.75,2.75 h 4 c 1.5098909,0 2.750014,-1.240079 2.75,-2.75 V 15 C 10.75,13.490083 9.5098846,12.25 8,12.25 Z m 0,1.5 h 4 c 0.6992532,0 1.25,0.550719 1.25,1.25 v 4 c 6.3e-6,0.699277 -0.5507331,1.25 -1.25,1.25 H 4 C 3.3007468,20.25 2.75,19.699281 2.75,19 v -4 c 0,-0.699281 0.5507468,-1.25 1.25,-1.25 z"
     id="path2" />
  <path
     style="color:#000000;fill:currentColor;stroke-linecap:round;stroke-linejoin:round;-inkscape-stroke:none"
     d="M 10,2.25 C 8.4901018,2.25 7.25,3.4901018 7.25,5 v 4 c 0,1.509917 1.2401154,2.75 2.75,2.75 h 4 c 1.509904,0 2.75,-1.24009 2.75,-2.75 V 5 C 16.75,3.4900765 15.509854,2.25 14,2.25 Z m 0,1.5 h 4 c 0.699144,0 1.25,0.5508057 1.25,1.25 v 4 c 0,0.6993079 -0.550706,1.25 -1.25,1.25 H 10 C 9.3007468,10.25 8.75,9.6992806 8.75,9 V 5 C 8.75,4.3007604 9.3007604,3.75 10,3.75 Z"
     id="path4" />
  <path
     style="color:#000000;fill:currentColor;stroke-linecap:round;stroke-linejoin:round;-inkscape-stroke:none"
     d="m 16,12.25 c -1.509904,0 -2.75,1.240096 -2.75,2.75 v 4 c 0,1.509904 1.240096,2.75 2.75,2.75 h 4 c 1.509904,0 2.75,-1.240096 2.75,-2.75 v -4 c 0,-1.509949 -1.24016,-2.75 -2.75,-2.75 z m 0,1.5 h 4 c 0.699158,0 1.25,0.550751 1.25,1.25 v 4 c 0,0.699294 -0.550706,1.25 -1.25,1.25 h -4 c -0.699294,0 -1.25,-0.550706 -1.25,-1.25 v -4 c 0,-0.699294 0.550706,-1.25 1.25,-1.25 z"
     id="path6" />
  <path
     style="color:#000000;fill:currentColor;stroke-linecap:round;stroke-linejoin:round;-inkscape-stroke:none"
     d="M 6,12.25 A 0.75,0.75 0 0 0 5.25,13 v 3 A 0.75,0.75 0 0 0 6,16.75 0.75,0.75 0 0 0 6.75,16 V 13 A 0.75,0.75 0 0 0 6,12.25 Z"
     id="path8" />
  <path
     style="color:#000000;fill:currentColor;stroke-linecap:round;stroke-linejoin:round;-inkscape-stroke:none"
     d="M 12,2.25 A 0.75,0.75 0 0 0 11.25,3 V 6 A 0.75,0.75 0 0 0 12,6.75 0.75,0.75 0 0 0 12.75,6 V 3 A 0.75,0.75 0 0 0 12,2.25 Z"
     id="path10" />
  <path
     style="color:#000000;fill:currentColor;stroke-linecap:round;stroke-linejoin:round;-inkscape-stroke:none"
     d="M 18,12.25 A 0.75,0.75 0 0 0 17.25,13 v 3 A 0.75,0.75 0 0 0 18,16.75 0.75,0.75 0 0 0 18.75,16 V 13 A 0.75,0.75 0 0 0 18,12.25 Z"
     id="path12" />
</svg>
