<?xml version="1.0" encoding="UTF-8" standalone="no"?>
<svg
   width="24"
   height="24"
   viewBox="0 0 24 24"
   stroke-width="1.5"
   fill="none"
   version="1.1"
   id="svg10"
   sodipodi:docname="pacman.svg"
   inkscape:version="1.2.1 (9c6d41e410, 2022-07-14)"
   xmlns:inkscape="http://www.inkscape.org/namespaces/inkscape"
   xmlns:sodipodi="http://sodipodi.sourceforge.net/DTD/sodipodi-0.dtd"
   xmlns="http://www.w3.org/2000/svg"
   xmlns:svg="http://www.w3.org/2000/svg">
  <defs
     id="defs14" />
  <sodipodi:namedview
     id="namedview12"
     pagecolor="#ffffff"
     bordercolor="#666666"
     borderopacity="1.0"
     inkscape:showpageshadow="2"
     inkscape:pageopacity="0.0"
     inkscape:pagecheckerboard="0"
     inkscape:deskcolor="#d1d1d1"
     showgrid="false"
     inkscape:zoom="34.541667"
     inkscape:cx="10.364294"
     inkscape:cy="12.014475"
     inkscape:window-width="1920"
     inkscape:window-height="1009"
     inkscape:window-x="1912"
     inkscape:window-y="-8"
     inkscape:window-maximized="1"
     inkscape:current-layer="svg10" />
  <path
     style="color:#000000;fill:currentColor;stroke-linecap:round;stroke-linejoin:round;-inkscape-stroke:none"
     d="m 16.501953,11.443359 a 0.75,0.75 0 0 0 -1.058594,0.05469 0.75,0.75 0 0 0 0.05469,1.058594 l 0.01172,0.0098 a 0.75,0.75 0 0 0 1.058593,-0.05469 0.75,0.75 0 0 0 -0.05469,-1.058594 z"
     id="path2" />
  <path
     style="color:#000000;fill:currentColor;stroke-linecap:round;stroke-linejoin:round;-inkscape-stroke:none"
     d="m 19.501953,11.443359 a 0.75,0.75 0 0 0 -1.058594,0.05469 0.75,0.75 0 0 0 0.05469,1.058594 l 0.01172,0.0098 a 0.75,0.75 0 0 0 1.058593,-0.05469 0.75,0.75 0 0 0 -0.05469,-1.058594 z"
     id="path4" />
  <path
     style="color:#000000;fill:currentColor;stroke-linecap:round;stroke-linejoin:round;-inkscape-stroke:none"
     d="m 22.501953,11.443359 a 0.75,0.75 0 0 0 -1.058594,0.05469 0.75,0.75 0 0 0 0.05469,1.058594 l 0.01172,0.0098 a 0.75,0.75 0 0 0 1.058593,-0.05469 0.75,0.75 0 0 0 -0.05469,-1.058594 z"
     id="path6" />
  <path
     style="color:#000000;fill:currentColor;stroke-linecap:round;stroke-linejoin:round;-inkscape-stroke:none"
     d="M 12,1.25 C 6.0718263,1.25 1.25,6.0718263 1.25,12 c 0,5.928127 4.8218217,10.75 10.75,10.75 3.511277,0 6.638806,-1.689117 8.599609,-4.298828 a 0.750075,0.750075 0 0 0 -0.15039,-1.050781 L 13.248047,12 20.449219,6.5996094 a 0.750075,0.750075 0 0 0 0.15039,-1.0507813 C 18.638806,2.9390843 15.511275,1.25 12,1.25 Z m 0,1.5 c 2.751622,0 5.116762,1.3014553 6.810547,3.203125 l -7.259766,5.447266 a 0.750075,0.750075 0 0 0 0,1.199218 l 7.259766,5.447266 C 17.116761,19.948526 14.751621,21.25 12,21.25 6.8824893,21.25 2.75,17.117462 2.75,12 2.75,6.8824848 6.8824848,2.75 12,2.75 Z"
     id="path8" />
</svg>
