<?xml version="1.0" encoding="UTF-8" standalone="no"?>
<svg
   width="24"
   height="24"
   viewBox="0 0 24 24"
   stroke-width="1.5"
   fill="none"
   version="1.1"
   id="svg10"
   sodipodi:docname="page-edit.svg"
   inkscape:version="1.2.1 (9c6d41e410, 2022-07-14)"
   xmlns:inkscape="http://www.inkscape.org/namespaces/inkscape"
   xmlns:sodipodi="http://sodipodi.sourceforge.net/DTD/sodipodi-0.dtd"
   xmlns="http://www.w3.org/2000/svg"
   xmlns:svg="http://www.w3.org/2000/svg">
  <defs
     id="defs14" />
  <sodipodi:namedview
     id="namedview12"
     pagecolor="#ffffff"
     bordercolor="#666666"
     borderopacity="1.0"
     inkscape:showpageshadow="2"
     inkscape:pageopacity="0.0"
     inkscape:pagecheckerboard="0"
     inkscape:deskcolor="#d1d1d1"
     showgrid="false"
     inkscape:zoom="34.541667"
     inkscape:cx="10.364294"
     inkscape:cy="12.014475"
     inkscape:window-width="1920"
     inkscape:window-height="1009"
     inkscape:window-x="1912"
     inkscape:window-y="-8"
     inkscape:window-maximized="1"
     inkscape:current-layer="svg10" />
  <path
     style="color:#000000;fill:currentColor;stroke-linecap:round;stroke-linejoin:round;-inkscape-stroke:none"
     d="M 4.5996094,1.25 C 3.8629077,1.25 3.25,1.8629077 3.25,2.5996094 V 21.400391 C 3.25,22.137086 3.862953,22.75 4.5996094,22.75 H 11 A 0.75,0.75 0 0 0 11.75,22 0.75,0.75 0 0 0 11,21.25 H 4.75 V 2.75 H 16.1875 L 19.25,5.8105469 V 12 A 0.75,0.75 0 0 0 20,12.75 0.75,0.75 0 0 0 20.75,12 V 5.7480469 c 0,-0.3577094 -0.14162,-0.7001462 -0.394531,-0.953125 a 0.750075,0.750075 0 0 0 0,-0.00195 L 17.207031,1.6445312 h -0.002 C 16.952233,1.3923213 16.609076,1.25 16.251953,1.25 Z"
     id="path2" />
  <path
     style="color:#000000;fill:currentColor;stroke-linecap:round;stroke-linejoin:round;-inkscape-stroke:none"
     d="M 8,5.25 A 0.75,0.75 0 0 0 7.25,6 0.75,0.75 0 0 0 8,6.75 h 4 A 0.75,0.75 0 0 0 12.75,6 0.75,0.75 0 0 0 12,5.25 Z m 0,4 A 0.75,0.75 0 0 0 7.25,10 0.75,0.75 0 0 0 8,10.75 h 8 A 0.75,0.75 0 0 0 16.75,10 0.75,0.75 0 0 0 16,9.25 Z m 0,4 A 0.75,0.75 0 0 0 7.25,14 0.75,0.75 0 0 0 8,14.75 h 3 A 0.75,0.75 0 0 0 11.75,14 0.75,0.75 0 0 0 11,13.25 Z"
     id="path4" />
  <path
     style="color:#000000;fill:currentColor;stroke-linecap:round;stroke-linejoin:round;-inkscape-stroke:none"
     d="m 19.746094,14.865234 c -0.480484,0 -0.960006,0.180709 -1.322266,0.542969 l -1,1 -2.990234,2.992188 c -0.262287,0.262286 -0.435114,0.600195 -0.492188,0.966796 l -0.242187,1.556641 a 0.750075,0.750075 0 0 0 0.855469,0.857422 l 1.55664,-0.242188 c 0.366454,-0.0572 0.704628,-0.230018 0.966797,-0.492187 l 2.992187,-2.992188 1,-1 c 0.724521,-0.72452 0.724521,-1.921963 0,-2.646484 -0.36226,-0.36226 -0.843734,-0.542969 -1.324218,-0.542969 z m -0.261719,1.605469 c 0.151279,-0.151278 0.374112,-0.151278 0.525391,0 0.151278,0.151279 0.151278,0.372159 0,0.523438 l -0.470704,0.470703 -0.523437,-0.525391 z M 17.955078,18 l 0.523438,0.525391 -2.460938,2.460937 c -0.03763,0.03763 -0.08417,0.06211 -0.136719,0.07031 l -0.541015,0.08398 0.08398,-0.541016 c 0.0081,-0.0522 0.0328,-0.101159 0.07031,-0.138672 z"
     id="path6" />
  <path
     style="color:#000000;fill:currentColor;stroke-linecap:round;stroke-linejoin:round;-inkscape-stroke:none"
     d="M 16,1.25 A 0.75,0.75 0 0 0 15.25,2 V 5.4003906 C 15.25,6.137047 15.862914,6.75 16.599609,6.75 H 20 A 0.75,0.75 0 0 0 20.75,6 0.75,0.75 0 0 0 20,5.25 H 16.75 V 2 A 0.75,0.75 0 0 0 16,1.25 Z"
     id="path8" />
</svg>
