<?xml version="1.0" encoding="UTF-8" standalone="no"?>
<svg
   width="24"
   height="24"
   stroke-width="1.5"
   viewBox="0 0 24 24"
   fill="none"
   version="1.1"
   id="svg10"
   sodipodi:docname="page-flip.svg"
   inkscape:version="1.2.1 (9c6d41e410, 2022-07-14)"
   xmlns:inkscape="http://www.inkscape.org/namespaces/inkscape"
   xmlns:sodipodi="http://sodipodi.sourceforge.net/DTD/sodipodi-0.dtd"
   xmlns="http://www.w3.org/2000/svg"
   xmlns:svg="http://www.w3.org/2000/svg">
  <defs
     id="defs14" />
  <sodipodi:namedview
     id="namedview12"
     pagecolor="#ffffff"
     bordercolor="#666666"
     borderopacity="1.0"
     inkscape:showpageshadow="2"
     inkscape:pageopacity="0.0"
     inkscape:pagecheckerboard="0"
     inkscape:deskcolor="#d1d1d1"
     showgrid="false"
     inkscape:zoom="34.541667"
     inkscape:cx="10.364294"
     inkscape:cy="12.014475"
     inkscape:window-width="1920"
     inkscape:window-height="1009"
     inkscape:window-x="1912"
     inkscape:window-y="-8"
     inkscape:window-maximized="1"
     inkscape:current-layer="svg10" />
  <path
     style="color:#000000;fill:currentColor;stroke-linecap:round;stroke-linejoin:round;-inkscape-stroke:none"
     d="M 12,10.25 A 0.75,0.75 0 0 0 11.25,11 0.75,0.75 0 0 0 12,11.75 H 14.5 17 A 0.75,0.75 0 0 0 17.75,11 0.75,0.75 0 0 0 17,10.25 h -2.5 z"
     id="path2" />
  <path
     style="color:#000000;fill:currentColor;stroke-linecap:round;stroke-linejoin:round;-inkscape-stroke:none"
     d="M 12,6.25 A 0.75,0.75 0 0 0 11.25,7 0.75,0.75 0 0 0 12,7.75 H 14.5 17 A 0.75,0.75 0 0 0 17.75,7 0.75,0.75 0 0 0 17,6.25 h -2.5 z"
     id="path4" />
  <path
     style="color:#000000;fill:currentColor;stroke-linecap:round;stroke-linejoin:round;-inkscape-stroke:none"
     d="M 8.5996094,2.25 C 7.8629077,2.25 7.25,2.8629077 7.25,3.5996094 V 15 A 0.75,0.75 0 0 0 8,15.75 0.75,0.75 0 0 0 8.75,15 V 3.75 h 11.5 V 17 c 0,1.803752 -1.446248,3.25 -3.25,3.25 A 0.75,0.75 0 0 0 16.25,21 0.75,0.75 0 0 0 17,21.75 c 2.614443,0 4.75,-2.135557 4.75,-4.75 V 3.5996094 C 21.75,2.862953 21.137086,2.25 20.400391,2.25 Z"
     id="path6" />
  <path
     style="color:#000000;fill:currentColor;stroke-linecap:round;stroke-linejoin:round;-inkscape-stroke:none"
     d="m 5,14.25 c -1.5098846,0 -2.75,1.240083 -2.75,2.75 v 1 c 0,2.062218 1.6878347,3.75 3.75,3.75 h 2 9 A 0.750075,0.750075 0 0 0 17.640625,20.628906 0.750075,0.750075 0 0 0 17,20.25 c -1.307633,0 -1.973565,-0.702884 -2.474609,-1.714844 C 14.024346,17.523197 13.834596,16.244652 13.777344,15.537109 13.720333,14.831846 13.134325,14.25 12.400391,14.25 H 8 Z m 0,1.5 h 3 4.306641 c 0.07012,0.819521 0.243158,2.175041 0.875,3.451172 0.192727,0.389252 0.552003,0.702702 0.853515,1.048828 H 8 6 C 4.7484686,20.25 3.75,19.251579 3.75,18 v -1 c 0,-0.699281 0.5507468,-1.25 1.25,-1.25 z"
     id="path8" />
</svg>
