<?xml version="1.0" encoding="UTF-8" standalone="no"?>
<svg
   width="24"
   height="24"
   stroke-width="1.5"
   viewBox="0 0 24 24"
   fill="none"
   version="1.1"
   id="svg14"
   sodipodi:docname="palette.svg"
   inkscape:version="1.2.1 (9c6d41e410, 2022-07-14)"
   xmlns:inkscape="http://www.inkscape.org/namespaces/inkscape"
   xmlns:sodipodi="http://sodipodi.sourceforge.net/DTD/sodipodi-0.dtd"
   xmlns="http://www.w3.org/2000/svg"
   xmlns:svg="http://www.w3.org/2000/svg">
  <defs
     id="defs18" />
  <sodipodi:namedview
     id="namedview16"
     pagecolor="#ffffff"
     bordercolor="#666666"
     borderopacity="1.0"
     inkscape:showpageshadow="2"
     inkscape:pageopacity="0.0"
     inkscape:pagecheckerboard="0"
     inkscape:deskcolor="#d1d1d1"
     showgrid="false"
     inkscape:zoom="34.541667"
     inkscape:cx="10.364294"
     inkscape:cy="12.014475"
     inkscape:window-width="1920"
     inkscape:window-height="1009"
     inkscape:window-x="1912"
     inkscape:window-y="-8"
     inkscape:window-maximized="1"
     inkscape:current-layer="svg14" />
  <path
     style="color:#000000;fill:currentColor;-inkscape-stroke:none"
     d="m 11.826172,2.25 -0.02344,0.00195 C 9.3727857,2.4038452 7.0860658,3.4537928 5.3886719,5.1992187 3.6912872,6.9446463 2.7031751,9.2601276 2.6191406,11.693359 v 0.002 0.002 c -0.040636,1.305626 0.1825455,2.60603 0.6542969,3.824218 0.4717499,1.218213 1.1823718,2.327915 2.0917969,3.265625 0.9094763,0.937861 1.9980735,1.684535 3.2011719,2.19336 1.2031116,0.50883 2.4964237,0.770181 3.8027347,0.769531 0.584975,6.46e-4 1.168998,-0.05305 1.74414,-0.160156 6.04e-4,-1.02e-4 0.0013,1.02e-4 0.002,0 0.34901,-0.05907 0.681481,-0.191744 0.976563,-0.386719 h 0.002 c 0.29225,-0.193244 0.540249,-0.444374 0.730469,-0.738281 l 0.002,-0.0039 c 0.213235,-0.323055 0.360136,-0.686343 0.43164,-1.066406 0.07165,-0.381661 0.06671,-0.774555 -0.01563,-1.154297 l 0.0039,0.01367 c -0.08195,-0.412523 -0.125362,-0.83145 -0.126953,-1.251953 v -0.0039 c 0.004,-1.201917 0.354797,-2.376849 1.009765,-3.384766 0.655735,-1.00896 1.589209,-1.807186 2.6875,-2.298828 l 0.002,-0.002 h 0.0039 c 0.322326,-0.147286 0.610063,-0.35797 0.849609,-0.619141 0.239615,-0.261108 0.425909,-0.568438 0.544922,-0.9023434 l 0.04297,-0.1210937 V 9.5390625 9.5195313 L 21.21875,9.7636719 C 21.454628,9.0781536 21.410704,8.3266166 21.095703,7.6738281 l -0.002,-0.00391 -0.002,-0.00391 C 20.284957,6.0398229 19.038719,4.671802 17.496094,3.7148438 15.953465,2.7578724 14.174674,2.250455 12.359375,2.25 Z m 0.0625,1.5 h 0.470703 c 1.536098,3.85e-4 3.042288,0.4304475 4.347656,1.2402344 1.303359,0.8085308 2.354264,1.9645812 3.03711,3.3378906 0.1426,0.2967401 0.163741,0.6360044 0.05664,0.9472656 l -0.01367,0.039063 c -0.05169,0.1337906 -0.12157,0.259338 -0.21875,0.3652344 h -0.002 c -0.103853,0.1132286 -0.229267,0.2036639 -0.36914,0.2675781 l 0.0059,-0.00195 c -1.361706,0.6095575 -2.518967,1.5985715 -3.332031,2.8496095 -0.812922,1.250989 -1.247857,2.711204 -1.251953,4.203125 V 17 v 0.002 c 0.0017,0.518391 0.0533,1.03652 0.154297,1.544922 l 0.002,0.0059 0.002,0.0059 c 0.03986,0.183857 0.04257,0.373455 0.0078,0.558593 -0.03482,0.185099 -0.107087,0.362713 -0.210937,0.519532 l -0.0039,0.0039 -0.002,0.0059 c -0.07833,0.122349 -0.181684,0.226599 -0.302734,0.306641 -0.121207,0.08009 -0.257461,0.13412 -0.400391,0.158203 h -0.0078 l -0.0059,0.002 C 13.363318,20.205044 12.86786,20.250548 12.371094,20.25 h -0.002 C 11.263853,20.25055 10.17041,20.028225 9.1523438,19.597656 8.1342644,19.167082 7.2128813,18.537679 6.4433594,17.744141 5.6738062,16.950653 5.0710442,16.009301 4.671875,14.978516 4.2726872,13.947706 4.0847563,12.848911 4.1191406,11.744141 4.1907828,9.6836662 5.0274423,7.7241795 6.4648437,6.2460937 7.900803,4.7695005 9.8333141,3.8805105 11.888672,3.75 Z"
     id="path2" />
  <path
     style="color:#000000;fill:currentColor;stroke-linecap:round;stroke-linejoin:round;-inkscape-stroke:none"
     d="m 8.5117188,15.441406 a 0.75,0.75 0 0 0 -1.0585938,0.05469 l -0.00977,0.01172 a 0.75,0.75 0 0 0 0.054687,1.058593 0.75,0.75 0 0 0 1.0585937,-0.05469 L 8.5664063,16.5 a 0.75,0.75 0 0 0 -0.054687,-1.058594 z"
     id="path4" />
  <path
     style="color:#000000;fill:currentColor;stroke-linecap:round;stroke-linejoin:round;-inkscape-stroke:none"
     d="M 5.9707031,11.25 A 0.75,0.75 0 0 0 5.453125,11.496094 l -0.00977,0.01172 a 0.75,0.75 0 0 0 0.054687,1.058593 0.75,0.75 0 0 0 1.0585937,-0.05469 L 6.5664062,12.5 A 0.75,0.75 0 0 0 6.5117187,11.441406 0.75,0.75 0 0 0 5.9707031,11.25 Z"
     id="path6" />
  <path
     style="color:#000000;fill:currentColor;stroke-linecap:round;stroke-linejoin:round;-inkscape-stroke:none"
     d="M 7.9707031,7.25 A 0.75,0.75 0 0 0 7.453125,7.4980469 l -0.00977,0.00977 a 0.75,0.75 0 0 0 0.054687,1.0605469 0.75,0.75 0 0 0 1.0585937,-0.056641 L 8.5683594,8.5 A 0.75,0.75 0 0 0 8.5117188,7.4414062 0.75,0.75 0 0 0 7.9707031,7.25 Z"
     id="path8" />
  <path
     style="color:#000000;fill:currentColor;stroke-linecap:round;stroke-linejoin:round;-inkscape-stroke:none"
     d="m 11.970703,5.25 a 0.75,0.75 0 0 0 -0.517578,0.2480469 l -0.0098,0.00977 a 0.75,0.75 0 0 0 0.05469,1.0605469 0.75,0.75 0 0 0 1.058594,-0.056641 L 12.568359,6.5 A 0.75,0.75 0 0 0 12.511719,5.4414062 0.75,0.75 0 0 0 11.970703,5.25 Z"
     id="path10" />
  <path
     style="color:#000000;fill:currentColor;stroke-linecap:round;stroke-linejoin:round;-inkscape-stroke:none"
     d="m 15.970703,7.25 a 0.75,0.75 0 0 0 -0.517578,0.2480469 l -0.0098,0.00977 a 0.75,0.75 0 0 0 0.05469,1.0605469 0.75,0.75 0 0 0 1.058594,-0.056641 L 16.568359,8.5 A 0.75,0.75 0 0 0 16.511719,7.4414062 0.75,0.75 0 0 0 15.970703,7.25 Z"
     id="path12" />
</svg>
