<?xml version="1.0" encoding="UTF-8" standalone="no"?>
<svg
   width="24"
   height="24"
   stroke-width="1.5"
   viewBox="0 0 24 24"
   fill="none"
   version="1.1"
   id="svg4"
   sodipodi:docname="panorama-enlarge.svg"
   inkscape:version="1.2.1 (9c6d41e410, 2022-07-14)"
   xmlns:inkscape="http://www.inkscape.org/namespaces/inkscape"
   xmlns:sodipodi="http://sodipodi.sourceforge.net/DTD/sodipodi-0.dtd"
   xmlns="http://www.w3.org/2000/svg"
   xmlns:svg="http://www.w3.org/2000/svg">
  <defs
     id="defs8" />
  <sodipodi:namedview
     id="namedview6"
     pagecolor="#ffffff"
     bordercolor="#666666"
     borderopacity="1.0"
     inkscape:showpageshadow="2"
     inkscape:pageopacity="0.0"
     inkscape:pagecheckerboard="0"
     inkscape:deskcolor="#d1d1d1"
     showgrid="false"
     inkscape:zoom="34.541667"
     inkscape:cx="10.364294"
     inkscape:cy="12.014475"
     inkscape:window-width="1920"
     inkscape:window-height="1009"
     inkscape:window-x="1912"
     inkscape:window-y="-8"
     inkscape:window-maximized="1"
     inkscape:current-layer="svg4" />
  <path
     style="color:#000000;fill:currentColor;stroke-linecap:round;stroke-linejoin:round;-inkscape-stroke:none"
     d="M 12,4.25 C 8.8893088,4.25 4.6515312,4.9501519 3.2949219,5.1855469 2.7229844,5.2847644 2.2720567,5.7604473 2.1992188,6.3339844 2.067159,7.3738534 1.75,10.03608 1.75,12 c 0,1.96392 0.3171574,4.626194 0.4492188,5.666016 0.072819,0.573523 0.5237999,1.049226 1.0957031,1.148437 C 4.6515611,19.049862 8.8893138,19.75 12,19.75 c 3.110715,0 7.348463,-0.700137 8.705078,-0.935547 0.571898,-0.09921 1.023038,-0.574719 1.095703,-1.148437 C 21.932889,16.62615 22.25,13.963923 22.25,12 22.25,10.036077 21.932887,7.3738977 21.800781,6.3339844 21.7281,5.7602687 21.276974,5.2847758 20.705078,5.1855469 19.348485,4.9501511 15.11072,4.25 12,4.25 Z m 0,1.5 c 2.837056,0 6.932318,0.6608253 8.322266,0.9003906 C 20.45632,7.7170384 20.75,10.245001 20.75,12 c 0,1.754999 -0.293682,4.283027 -0.427734,5.349609 C 18.932339,17.58918 14.837061,18.25 12,18.25 9.1629696,18.25 5.0676957,17.589181 3.6777344,17.349609 3.5437137,16.282987 3.25,13.755001 3.25,12 3.25,10.244999 3.5437122,7.7170788 3.6777344,6.6503906 5.0677048,6.4108246 9.1629746,5.75 12,5.75 Z"
     id="path2" />
</svg>
