<?xml version="1.0" encoding="UTF-8" standalone="no"?>
<svg
   width="24"
   height="24"
   stroke-width="1.5"
   viewBox="0 0 24 24"
   fill="none"
   version="1.1"
   id="svg8"
   sodipodi:docname="pants-pockets.svg"
   inkscape:version="1.2.1 (9c6d41e410, 2022-07-14)"
   xmlns:inkscape="http://www.inkscape.org/namespaces/inkscape"
   xmlns:sodipodi="http://sodipodi.sourceforge.net/DTD/sodipodi-0.dtd"
   xmlns="http://www.w3.org/2000/svg"
   xmlns:svg="http://www.w3.org/2000/svg">
  <defs
     id="defs12" />
  <sodipodi:namedview
     id="namedview10"
     pagecolor="#ffffff"
     bordercolor="#666666"
     borderopacity="1.0"
     inkscape:showpageshadow="2"
     inkscape:pageopacity="0.0"
     inkscape:pagecheckerboard="0"
     inkscape:deskcolor="#d1d1d1"
     showgrid="false"
     inkscape:zoom="34.541667"
     inkscape:cx="10.364294"
     inkscape:cy="12.014475"
     inkscape:window-width="1920"
     inkscape:window-height="1009"
     inkscape:window-x="1912"
     inkscape:window-y="-8"
     inkscape:window-maximized="1"
     inkscape:current-layer="svg8" />
  <path
     style="color:#000000;fill:currentColor;-inkscape-stroke:none"
     d="M 5.6347656,2.25 C 4.8702845,2.25 4.2447188,2.9124849 4.2871094,3.6757813 L 5.21875,20.474609 C 5.2580786,21.182568 5.8592656,21.75 6.5683594,21.75 h 2.8984375 c 0.6778361,0 1.2598371,-0.518347 1.3398441,-1.191406 v -0.002 L 12,10.414063 13.193359,20.558594 C 13.273365,21.231653 13.855355,21.75 14.533203,21.75 h 2.898438 c 0.709102,0 1.310192,-0.567442 1.349609,-1.275391 L 19.712891,3.6757813 C 19.755279,2.9125283 19.129705,2.25 18.365234,2.25 Z m 0.1582031,1.5 H 18.207031 l -0.916015,16.5 h -2.625 L 13.339844,8.9765625 C 13.256481,8.2678001 12.595804,7.7851563 12,7.7851562 c -0.595804,10e-8 -1.256481,0.4826439 -1.339844,1.1914063 L 9.3339844,20.25 h -2.625 z"
     id="path2" />
  <path
     style="color:#000000;fill:currentColor;-inkscape-stroke:none"
     d="M 7.75,3 V 5.5 C 7.75,6.1992396 7.1992396,6.75 6.5,6.75 H 5 v 1.5 H 6.5 C 8.0098982,8.25 9.25,7.0098982 9.25,5.5 V 3 Z"
     id="path4" />
  <path
     style="color:#000000;fill:currentColor;-inkscape-stroke:none"
     d="m 14.75,3 v 2.5 c 0,1.5098846 1.240083,2.75 2.75,2.75 h 1 v -1.5 h -1 C 16.800719,6.75 16.25,6.1992532 16.25,5.5 V 3 Z"
     id="path6" />
</svg>
