<?xml version="1.0" encoding="UTF-8" standalone="no"?>
<svg
   width="24"
   height="24"
   viewBox="0 0 24 24"
   stroke-width="1.5"
   fill="none"
   version="1.1"
   id="svg8"
   sodipodi:docname="path-arrow.svg"
   inkscape:version="1.2.1 (9c6d41e410, 2022-07-14)"
   xmlns:inkscape="http://www.inkscape.org/namespaces/inkscape"
   xmlns:sodipodi="http://sodipodi.sourceforge.net/DTD/sodipodi-0.dtd"
   xmlns="http://www.w3.org/2000/svg"
   xmlns:svg="http://www.w3.org/2000/svg">
  <defs
     id="defs12" />
  <sodipodi:namedview
     id="namedview10"
     pagecolor="#ffffff"
     bordercolor="#666666"
     borderopacity="1.0"
     inkscape:showpageshadow="2"
     inkscape:pageopacity="0.0"
     inkscape:pagecheckerboard="0"
     inkscape:deskcolor="#d1d1d1"
     showgrid="false"
     inkscape:zoom="34.541667"
     inkscape:cx="10.364294"
     inkscape:cy="12.014475"
     inkscape:window-width="1920"
     inkscape:window-height="1009"
     inkscape:window-x="1912"
     inkscape:window-y="-8"
     inkscape:window-maximized="1"
     inkscape:current-layer="svg8" />
  <path
     style="color:#000000;fill:currentColor;stroke-linecap:round;stroke-linejoin:round;-inkscape-stroke:none"
     d="m 18,2.25 a 0.75,0.75 0 0 0 -0.53125,0.21875 l -3.5,3.5 a 0.75,0.75 0 0 0 0,1.0625 0.75,0.75 0 0 0 1.0625,0 L 17.25,4.8125 V 16.5 A 0.75,0.75 0 0 0 18,17.25 0.75,0.75 0 0 0 18.75,16.5 V 4.8125 l 2.21875,2.21875 a 0.75,0.75 0 0 0 1.0625,0 0.75,0.75 0 0 0 0,-1.0625 l -3.5,-3.5 A 0.75,0.75 0 0 0 18,2.25 Z"
     id="path2" />
  <path
     style="color:#000000;fill:currentColor;stroke-linecap:round;stroke-linejoin:round;-inkscape-stroke:none"
     d="M 11,6.75 A 0.75,0.75 0 0 0 10.25,7.5 v 9 c 0,2.338326 1.911674,4.25 4.25,4.25 2.338326,0 4.25,-1.911674 4.25,-4.25 A 0.75,0.75 0 0 0 18,15.75 0.75,0.75 0 0 0 17.25,16.5 c 0,1.52767 -1.22233,2.75 -2.75,2.75 -1.52767,0 -2.75,-1.22233 -2.75,-2.75 v -9 A 0.75,0.75 0 0 0 11,6.75 Z"
     id="path4" />
  <path
     style="color:#000000;fill:currentColor;stroke-linecap:round;stroke-linejoin:round;-inkscape-stroke:none"
     d="M 7.5,3.25 C 5.1616738,3.25 3.25,5.1616738 3.25,7.5 v 12 A 0.75,0.75 0 0 0 4,20.25 0.75,0.75 0 0 0 4.75,19.5 v -12 c 0,-1.52767 1.22233,-2.75 2.75,-2.75 1.52767,0 2.75,1.22233 2.75,2.75 A 0.75,0.75 0 0 0 11,8.25 0.75,0.75 0 0 0 11.75,7.5 C 11.75,5.1616738 9.8383262,3.25 7.5,3.25 Z"
     id="path6" />
</svg>
