<?xml version="1.0" encoding="UTF-8" standalone="no"?>
<svg
   width="24"
   height="24"
   viewBox="0 0 24 24"
   stroke-width="1.5"
   fill="none"
   version="1.1"
   id="svg6"
   sodipodi:docname="paypal.svg"
   inkscape:version="1.2.1 (9c6d41e410, 2022-07-14)"
   xmlns:inkscape="http://www.inkscape.org/namespaces/inkscape"
   xmlns:sodipodi="http://sodipodi.sourceforge.net/DTD/sodipodi-0.dtd"
   xmlns="http://www.w3.org/2000/svg"
   xmlns:svg="http://www.w3.org/2000/svg">
  <defs
     id="defs10" />
  <sodipodi:namedview
     id="namedview8"
     pagecolor="#ffffff"
     bordercolor="#666666"
     borderopacity="1.0"
     inkscape:showpageshadow="2"
     inkscape:pageopacity="0.0"
     inkscape:pagecheckerboard="0"
     inkscape:deskcolor="#d1d1d1"
     showgrid="false"
     inkscape:zoom="34.541667"
     inkscape:cx="10.364294"
     inkscape:cy="12.014475"
     inkscape:window-width="1920"
     inkscape:window-height="1009"
     inkscape:window-x="1912"
     inkscape:window-y="-8"
     inkscape:window-maximized="1"
     inkscape:current-layer="svg6" />
  <path
     style="color:#000000;fill:currentColor;stroke-linecap:round;stroke-linejoin:round;-inkscape-stroke:none"
     d="M 6,2.25 A 0.750075,0.750075 0 0 0 5.265625,2.8476563 l -3,14.4999997 A 0.750075,0.750075 0 0 0 3,18.25 H 7.5 A 0.750075,0.750075 0 0 0 8.2324219,17.660156 L 9.3046875,12.75 H 13 c 1.687498,0 3.048093,-0.659818 3.935547,-1.658203 C 17.823001,10.093411 18.25,8.7916654 18.25,7.5 18.25,6.2083346 17.823001,4.9065885 16.935547,3.9082031 16.048093,2.9098177 14.687498,2.25 13,2.25 Z m 0.6113281,1.5 H 13 c 1.312499,0 2.201908,0.465184 2.814453,1.1542969 C 16.426998,5.5934098 16.75,6.5416676 16.75,7.5 c 0,0.9583324 -0.323002,1.9065902 -0.935547,2.595703 C 15.201908,10.784816 14.312499,11.25 13,11.25 H 8.6992188 A 0.750075,0.750075 0 0 0 7.9667969,11.839844 L 6.8964844,16.75 H 3.921875 Z"
     id="path2" />
  <path
     style="color:#000000;fill:currentColor;stroke-linecap:round;stroke-linejoin:round;-inkscape-stroke:none"
     d="M 9.8007813,5.75 A 0.750075,0.750075 0 0 0 9.0664063,6.3476562 L 6.0664062,20.847656 A 0.750075,0.750075 0 0 0 6.8007812,21.75 h 4.4999998 a 0.750075,0.750075 0 0 0 0.732422,-0.589844 L 13.103516,16.25 h 3.697265 c 1.687499,0 3.048093,-0.659818 3.935547,-1.658203 0.887454,-0.998386 1.314453,-2.300132 1.314453,-3.591797 0,-1.2916654 -0.426999,-2.5934115 -1.314453,-3.5917969 C 19.848874,6.4098177 18.48828,5.75 16.800781,5.75 Z m 0.6093747,1.5 h 6.390625 c 1.312499,0 2.201909,0.465184 2.814453,1.1542969 0.612545,0.6891129 0.935547,1.6373711 0.935547,2.5957031 0,0.958332 -0.323002,1.90659 -0.935547,2.595703 C 19.00269,14.284816 18.11328,14.75 16.800781,14.75 H 12.5 a 0.750075,0.750075 0 0 0 -0.732422,0.589844 L 10.695313,20.25 H 7.7226562 Z"
     id="path4" />
</svg>
