<?xml version="1.0" encoding="UTF-8" standalone="no"?>
<svg
   width="24"
   height="24"
   stroke-width="1.5"
   viewBox="0 0 24 24"
   fill="none"
   version="1.1"
   id="svg8"
   sodipodi:docname="pc-check.svg"
   inkscape:version="1.2.1 (9c6d41e410, 2022-07-14)"
   xmlns:inkscape="http://www.inkscape.org/namespaces/inkscape"
   xmlns:sodipodi="http://sodipodi.sourceforge.net/DTD/sodipodi-0.dtd"
   xmlns="http://www.w3.org/2000/svg"
   xmlns:svg="http://www.w3.org/2000/svg">
  <defs
     id="defs12" />
  <sodipodi:namedview
     id="namedview10"
     pagecolor="#ffffff"
     bordercolor="#666666"
     borderopacity="1.0"
     inkscape:showpageshadow="2"
     inkscape:pageopacity="0.0"
     inkscape:pagecheckerboard="0"
     inkscape:deskcolor="#d1d1d1"
     showgrid="false"
     inkscape:zoom="34.541667"
     inkscape:cx="10.364294"
     inkscape:cy="12.014475"
     inkscape:window-width="1920"
     inkscape:window-height="1009"
     inkscape:window-x="1912"
     inkscape:window-y="-8"
     inkscape:window-maximized="1"
     inkscape:current-layer="svg8" />
  <path
     style="color:#000000;fill:currentColor;stroke-linecap:round;stroke-linejoin:round;-inkscape-stroke:none"
     d="M 7,21.25 A 0.75,0.75 0 0 0 6.25,22 0.75,0.75 0 0 0 7,22.75 H 17 A 0.75,0.75 0 0 0 17.75,22 0.75,0.75 0 0 0 17,21.25 Z"
     id="path2" />
  <path
     style="color:#000000;fill:currentColor;-inkscape-stroke:none"
     d="M 4,1.25 C 2.4901018,1.25 1.25,2.4901018 1.25,4 v 13 c 0,1.509917 1.2401154,2.75 2.75,2.75 h 16 c 1.509904,0 2.75,-1.240096 2.75,-2.75 V 4 C 22.75,2.4901154 21.509917,1.25 20,1.25 Z m 0,1.5 h 16 c 0.699281,0 1.25,0.5507468 1.25,1.25 v 13 c 0,0.699294 -0.550706,1.25 -1.25,1.25 H 4 C 3.3007468,18.25 2.75,17.699281 2.75,17 V 4 C 2.75,3.3007604 3.3007604,2.75 4,2.75 Z"
     id="path4" />
  <path
     style="color:#000000;fill:currentColor;stroke-linecap:round;stroke-linejoin:round;-inkscape-stroke:none"
     d="M 15,7.75 A 0.75,0.75 0 0 0 14.46875,7.96875 L 11,11.4375 9.53125,9.96875 a 0.75,0.75 0 0 0 -1.0625,0 0.75,0.75 0 0 0 0,1.0625 l 2,2 a 0.750075,0.750075 0 0 0 1.0625,0 l 4,-4 a 0.75,0.75 0 0 0 0,-1.0625 A 0.75,0.75 0 0 0 15,7.75 Z"
     id="path6" />
</svg>
