<?xml version="1.0" encoding="UTF-8" standalone="no"?>
<svg
   width="24"
   height="24"
   stroke-width="1.5"
   viewBox="0 0 24 24"
   fill="none"
   version="1.1"
   id="svg8"
   sodipodi:docname="pc-firewall.svg"
   inkscape:version="1.2.1 (9c6d41e410, 2022-07-14)"
   xmlns:inkscape="http://www.inkscape.org/namespaces/inkscape"
   xmlns:sodipodi="http://sodipodi.sourceforge.net/DTD/sodipodi-0.dtd"
   xmlns="http://www.w3.org/2000/svg"
   xmlns:svg="http://www.w3.org/2000/svg">
  <defs
     id="defs12" />
  <sodipodi:namedview
     id="namedview10"
     pagecolor="#ffffff"
     bordercolor="#666666"
     borderopacity="1.0"
     inkscape:showpageshadow="2"
     inkscape:pageopacity="0.0"
     inkscape:pagecheckerboard="0"
     inkscape:deskcolor="#d1d1d1"
     showgrid="false"
     inkscape:zoom="34.541667"
     inkscape:cx="10.364294"
     inkscape:cy="12.014475"
     inkscape:window-width="1920"
     inkscape:window-height="1009"
     inkscape:window-x="1912"
     inkscape:window-y="-8"
     inkscape:window-maximized="1"
     inkscape:current-layer="svg8" />
  <path
     style="color:#000000;fill:currentColor;stroke-linecap:round;stroke-linejoin:round;-inkscape-stroke:none"
     d="M 7,21.25 A 0.75,0.75 0 0 0 6.25,22 0.75,0.75 0 0 0 7,22.75 H 17 A 0.75,0.75 0 0 0 17.75,22 0.75,0.75 0 0 0 17,21.25 Z"
     id="path2" />
  <path
     style="color:#000000;fill:currentColor;-inkscape-stroke:none"
     d="M 4,1.25 C 2.4901018,1.25 1.25,2.4901018 1.25,4 v 13 c 0,1.509917 1.2401154,2.75 2.75,2.75 h 16 c 1.509904,0 2.75,-1.240096 2.75,-2.75 V 4 C 22.75,2.4901154 21.509917,1.25 20,1.25 Z m 0,1.5 h 16 c 0.699281,0 1.25,0.5507468 1.25,1.25 v 13 c 0,0.699294 -0.550706,1.25 -1.25,1.25 H 4 C 3.3007468,18.25 2.75,17.699281 2.75,17 V 4 C 2.75,3.3007604 3.3007604,2.75 4,2.75 Z"
     id="path4" />
  <path
     style="color:#000000;fill:currentColor;stroke-linecap:round;stroke-linejoin:round;-inkscape-stroke:none"
     d="M 11.332031,5.3945312 8.2734375,6.1582031 C 7.6710472,6.308812 7.2388716,6.8629328 7.2558594,7.4921875 c 0.091962,3.4090155 1.1583959,5.4947595 2.2597656,6.6972655 1.10137,1.202507 2.294922,1.535156 2.294922,1.535156 a 0.750075,0.750075 0 0 0 0.378906,0 c 0,0 1.193555,-0.332649 2.294922,-1.535156 1.101367,-1.202507 2.167804,-3.28825 2.259766,-6.6972655 0.01692,-0.6291734 -0.41518,-1.1833734 -1.017578,-1.3339844 L 12.667969,5.3945312 a 0.750075,0.750075 0 0 0 -0.002,0 c -0.437896,-0.109467 -0.894136,-0.109467 -1.332032,0 a 0.750075,0.750075 0 0 0 -0.002,0 z m 0.365235,1.4550782 c 0.199103,-0.049773 0.406365,-0.049773 0.605468,0 l 2.919922,0.7285156 c -0.111062,3.016726 -1.008904,4.685966 -1.845703,5.599609 C 12.628492,13.994927 12.14487,14.099298 12,14.142578 11.85513,14.099298 11.37151,13.994927 10.623047,13.177734 9.7862453,12.264091 8.8884056,10.594851 8.7773438,7.578125 Z"
     id="path6" />
</svg>
