<?xml version="1.0" encoding="UTF-8" standalone="no"?>
<svg
   width="24"
   height="24"
   stroke-width="1.5"
   viewBox="0 0 24 24"
   fill="none"
   version="1.1"
   id="svg4"
   sodipodi:docname="pc-mouse.svg"
   inkscape:version="1.2.1 (9c6d41e410, 2022-07-14)"
   xmlns:inkscape="http://www.inkscape.org/namespaces/inkscape"
   xmlns:sodipodi="http://sodipodi.sourceforge.net/DTD/sodipodi-0.dtd"
   xmlns="http://www.w3.org/2000/svg"
   xmlns:svg="http://www.w3.org/2000/svg">
  <defs
     id="defs8" />
  <sodipodi:namedview
     id="namedview6"
     pagecolor="#ffffff"
     bordercolor="#666666"
     borderopacity="1.0"
     inkscape:showpageshadow="2"
     inkscape:pageopacity="0.0"
     inkscape:pagecheckerboard="0"
     inkscape:deskcolor="#d1d1d1"
     showgrid="false"
     inkscape:zoom="34.541667"
     inkscape:cx="10.364294"
     inkscape:cy="12.014475"
     inkscape:window-width="1920"
     inkscape:window-height="1009"
     inkscape:window-x="1912"
     inkscape:window-y="-8"
     inkscape:window-maximized="1"
     inkscape:current-layer="svg4" />
  <path
     style="color:#000000;fill:currentColor;stroke-linecap:round;-inkscape-stroke:none"
     d="M 12,1.25 C 7.1763951,1.25 3.25,5.1763951 3.25,10 v 4 c 0,4.823623 3.9263974,8.75 8.75,8.75 4.823621,0 8.75,-3.926379 8.75,-8.75 v -4 c 0,-4.7204833 -3.777379,-8.5284728 -8.458984,-8.6914063 A 0.75,0.75 0 0 0 12,1.25 Z M 11.25,2.9003906 V 9 A 0.75,0.75 0 0 0 12,9.75 0.75,0.75 0 0 0 12.75,9 V 2.9003906 C 16.390532,3.2912585 19.25,6.253257 19.25,10 v 4 c 0,4.01297 -3.23703,7.25 -7.25,7.25 -4.0129486,0 -7.25,-3.237032 -7.25,-7.25 v -4 c 0,-3.7467409 2.8594835,-6.7087412 6.5,-7.0996094 z"
     id="path2" />
</svg>
