<?xml version="1.0" encoding="UTF-8" standalone="no"?>
<svg
   width="24"
   height="24"
   viewBox="0 0 24 24"
   stroke-width="1.5"
   fill="none"
   version="1.1"
   id="svg12"
   sodipodi:docname="peace-hand.svg"
   inkscape:version="1.2.1 (9c6d41e410, 2022-07-14)"
   xmlns:inkscape="http://www.inkscape.org/namespaces/inkscape"
   xmlns:sodipodi="http://sodipodi.sourceforge.net/DTD/sodipodi-0.dtd"
   xmlns="http://www.w3.org/2000/svg"
   xmlns:svg="http://www.w3.org/2000/svg">
  <defs
     id="defs16" />
  <sodipodi:namedview
     id="namedview14"
     pagecolor="#ffffff"
     bordercolor="#666666"
     borderopacity="1.0"
     inkscape:showpageshadow="2"
     inkscape:pageopacity="0.0"
     inkscape:pagecheckerboard="0"
     inkscape:deskcolor="#d1d1d1"
     showgrid="false"
     inkscape:zoom="34.541667"
     inkscape:cx="10.364294"
     inkscape:cy="12.014475"
     inkscape:window-width="1920"
     inkscape:window-height="1009"
     inkscape:window-x="1912"
     inkscape:window-y="-8"
     inkscape:window-maximized="1"
     inkscape:current-layer="svg12" />
  <path
     style="color:#000000;fill:currentColor;stroke-linecap:round;-inkscape-stroke:none"
     d="m 12.537109,1.25 c -1.295341,0 -2.361328,1.0659815 -2.361328,2.3613281 v 4.8339844 a 0.75,0.75 0 0 0 0.75,0.75 0.75,0.75 0 0 0 0.75,-0.75 V 3.6113281 C 11.675781,3.1266366 12.052453,2.75 12.537109,2.75 c 0.484657,0 0.861328,0.3766366 0.861329,0.8613281 v 5.859375 a 0.75,0.75 0 0 0 0.75,0.7499999 0.75,0.75 0 0 0 0.75,-0.7499999 V 3.6113281 C 14.898438,2.3159815 13.832451,1.25 12.537109,1.25 Z"
     id="path2" />
  <path
     style="color:#000000;fill:currentColor;stroke-linecap:round;-inkscape-stroke:none"
     d="M 17.644531,2.8886719 C 16.408153,2.5354461 15.101564,3.2673926 14.755859,4.5058594 l -1.330078,4.7636719 a 0.75,0.75 0 0 0 0.521485,0.9238277 0.75,0.75 0 0 0 0.923828,-0.5195309 l 1.330078,-4.765625 c 0.126894,-0.4545915 0.577429,-0.7077787 1.03125,-0.578125 0.456098,0.1303201 0.706634,0.5885788 0.570312,1.0429688 L 15.626953,12.625 a 0.75,0.75 0 0 0 0.503906,0.933594 0.75,0.75 0 0 0 0.933594,-0.501953 L 19.240234,5.8046875 C 19.611512,4.5671391 18.886831,3.2436314 17.644531,2.8886719 Z"
     id="path4" />
  <path
     style="color:#000000;fill:currentColor;stroke-linecap:round;-inkscape-stroke:none"
     d="M 6.9804687,7.7070312 C 6.4119149,7.4931368 5.7628928,7.4943295 5.171875,7.7636719 3.996483,8.299333 3.4672087,9.7052227 3.9980469,10.882813 l 1.0546875,2.341796 c 0.5338751,1.184207 1.9508069,1.71634 3.1328125,1.177735 1.1754338,-0.535645 1.7047036,-1.941585 1.1738281,-3.119141 L 8.3027344,8.9414063 C 8.0358005,8.349304 7.5490226,7.9209257 6.9804687,7.7070312 Z M 6.4550781,9.1015625 c 0.2053904,0.07727 0.380563,0.2354243 0.4804688,0.4570313 l 1.0546875,2.3417972 c 0.1985638,0.440442 0.01193,0.936364 -0.4277344,1.136718 -0.4424128,0.201595 -0.942774,0.01351 -1.1425781,-0.429687 L 5.3652344,10.265625 C 5.1666333,9.8250564 5.3532823,9.3292844 5.7929687,9.1289063 6.0141701,9.028099 6.2496877,9.0242923 6.4550781,9.1015625 Z"
     id="path6" />
  <path
     style="color:#000000;fill:currentColor;stroke-linecap:round;-inkscape-stroke:none"
     d="M 9.9550781,6.609375 C 9.3931393,6.3979686 8.7500874,6.3998387 8.1660156,6.6660156 6.9767834,7.2079864 6.4633413,8.649951 7.0410156,9.8222656 L 7.1757812,10.095703 A 0.75,0.75 0 0 0 8.1816406,10.4375 0.75,0.75 0 0 0 8.5214844,9.4335938 L 8.3867188,9.1582031 C 8.1744539,8.7274393 8.3520763,8.2303985 8.7890625,8.03125 9.2175773,7.8359645 9.7009576,8.0179143 9.8945313,8.4472656 L 10.96875,10.828125 c 0.167995,0.372569 0.18363,0.795141 0.04492,1.179688 a 0.75,0.75 0 0 0 0.451172,0.958984 0.75,0.75 0 0 0 0.958984,-0.451172 c 0.270692,-0.750452 0.240114,-1.577257 -0.08789,-2.304687 L 11.261719,7.8300781 C 10.997906,7.2449346 10.517017,6.8207814 9.9550781,6.609375 Z"
     id="path8" />
  <path
     style="color:#000000;fill:currentColor;stroke-linecap:round;-inkscape-stroke:none"
     d="M 4.4667969,9.1621094 A 0.75,0.75 0 0 0 3.7304688,9.9257813 l 0.1464843,8.1914057 c 0,2.751731 2.2463018,4.998047 4.9980469,4.998047 h 0.2929688 4.6894532 c 1.577544,0 2.756937,-0.43964 3.535156,-1.417968 0.778219,-0.978329 1.202403,-2.311232 1.861328,-4.214844 0.736166,-2.126701 -0.02085,-3.689403 -0.99414,-4.458984 -0.973295,-0.769582 -2.091797,-0.921875 -2.091797,-0.921875 l -0.02148,-0.0039 -4.810546,-0.447265 c -1.238245,-0.115282 -2.3561416,0.800413 -2.4863286,2.037109 -0.1150556,1.093072 0.5743762,2.123503 1.6289066,2.433594 l 2.892578,0.849609 -0.185547,0.371094 a 0.75,0.75 0 0 0 0.335937,1.005859 0.75,0.75 0 0 0 1.00586,-0.335937 l 0.492187,-0.984375 c 0.250582,-0.502188 -0.02751,-1.142343 -0.566406,-1.300781 l -3.550781,-1.044922 c -0.369009,-0.108509 -0.600811,-0.455365 -0.560547,-0.837891 0.04599,-0.436903 0.418115,-0.739937 0.855469,-0.699219 l 4.746093,0.441407 c 0.0045,8.06e-4 0.784915,0.13898 1.384766,0.613281 0.601579,0.475667 1.090146,1.110673 0.507812,2.792968 -0.659573,1.905484 -1.113507,3.136337 -1.617187,3.769532 -0.50368,0.633195 -1.008776,0.853515 -2.361328,0.853515 H 9.1679688 8.875 c -1.9411102,0 -3.4980469,-1.556982 -3.4980469,-3.498047 v -0.0078 L 5.2304687,9.8984375 A 0.75,0.75 0 0 0 4.4667969,9.1621094 Z"
     id="path10" />
</svg>
