<?xml version="1.0" encoding="UTF-8" standalone="no"?>
<svg
   width="24"
   height="24"
   stroke-width="1.5"
   viewBox="0 0 24 24"
   fill="none"
   version="1.1"
   id="svg15"
   sodipodi:docname="pen-connect-bluetooth.svg"
   inkscape:version="1.2.1 (9c6d41e410, 2022-07-14)"
   xmlns:inkscape="http://www.inkscape.org/namespaces/inkscape"
   xmlns:sodipodi="http://sodipodi.sourceforge.net/DTD/sodipodi-0.dtd"
   xmlns="http://www.w3.org/2000/svg"
   xmlns:svg="http://www.w3.org/2000/svg">
  <sodipodi:namedview
     id="namedview17"
     pagecolor="#ffffff"
     bordercolor="#666666"
     borderopacity="1.0"
     inkscape:showpageshadow="2"
     inkscape:pageopacity="0.0"
     inkscape:pagecheckerboard="0"
     inkscape:deskcolor="#d1d1d1"
     showgrid="false"
     inkscape:zoom="34.541667"
     inkscape:cx="10.364294"
     inkscape:cy="12.014475"
     inkscape:window-width="1920"
     inkscape:window-height="1009"
     inkscape:window-x="1912"
     inkscape:window-y="-8"
     inkscape:window-maximized="1"
     inkscape:current-layer="svg15" />
  <path
     style="color:#000000;fill:currentColor;stroke-linecap:round;stroke-linejoin:round;-inkscape-stroke:none"
     d="m 20,4.1328125 c -0.736412,0 -1.473737,0.2784042 -2.03125,0.8359375 l -4,4 a 0.75,0.75 0 0 0 0,1.0625 0.75,0.75 0 0 0 1.0625,0 l 4,-4 c 0.541772,-0.5417917 1.395728,-0.5417917 1.9375,0 0.541795,0.5418148 0.541795,1.3956852 0,1.9375 L 9.1660156,19.773437 c -0.032023,0.03203 -0.073018,0.05535 -0.1171875,0.06641 L 6.53125,20.46875 7.2285156,17.681641 a 0.75,0.75 0 0 0 -0.546875,-0.910157 0.75,0.75 0 0 0 -0.9101562,0.546875 l -1,4 a 0.750075,0.750075 0 0 0 0.9101562,0.910157 l 3.7324219,-0.933594 c 0.3074904,-0.07695 0.5882035,-0.236571 0.8125005,-0.460938 L 22.03125,9.03125 c 1.115003,-1.1150435 1.115003,-2.9474565 0,-4.0625 C 21.473737,4.4112167 20.736412,4.1328125 20,4.1328125 Z"
     id="path2" />
  <path
     style="color:#000000;fill:currentColor;stroke-linecap:round;stroke-linejoin:round;-inkscape-stroke:none"
     d="m 17.5,5.75 a 0.75,0.75 0 0 0 -0.53125,0.21875 0.75,0.75 0 0 0 0,1.0625 l 3,3 a 0.75,0.75 0 0 0 1.0625,0 0.75,0.75 0 0 0 0,-1.0625 l -3,-3 A 0.75,0.75 0 0 0 17.5,5.75 Z"
     id="path4" />
  <path
     style="color:#000000;fill:currentColor;stroke-linecap:round;stroke-linejoin:round;-inkscape-stroke:none"
     d="M 8.0273438,2.3144531 A 0.750075,0.750075 0 0 0 7.5839844,3 V 7.5546875 L 5.4414062,5.9941406 A 0.75,0.75 0 0 0 4.3945312,6.1582031 0.75,0.75 0 0 0 4.5585937,7.2070312 L 7.0195312,9 4.5585937,10.792969 a 0.75,0.75 0 0 0 -0.1640625,1.048828 0.75,0.75 0 0 0 1.046875,0.164062 L 7.5839844,10.445313 V 15 a 0.750075,0.750075 0 0 0 1.2519531,0.556641 L 12.501953,12.257813 A 0.750075,0.750075 0 0 0 12.441406,11.09375 L 9.5683594,9 12.441406,6.90625 a 0.750075,0.750075 0 0 0 0.06055,-1.1640625 L 8.8359375,2.4433594 A 0.750075,0.750075 0 0 0 8.0273438,2.3144531 Z M 9.0839844,4.6835937 10.810547,6.2382812 9.0839844,7.4960937 Z m 0,5.8203123 1.7265626,1.257813 -1.7265626,1.554687 z"
     id="path6" />
  <defs
     id="defs13">
    <clipPath
       clipPathUnits="userSpaceOnUse"
       id="clipPath199">
      <g
         id="g203">
        <rect
           width="24"
           height="24"
           stroke-width="1.5"
           fill="#ffffff"
           id="rect201"
           x="0"
           y="0" />
      </g>
    </clipPath>
    <clipPath
       clipPathUnits="userSpaceOnUse"
       id="clipPath205">
      <g
         id="g209">
        <rect
           width="24"
           height="24"
           stroke-width="1.5"
           fill="#ffffff"
           id="rect207"
           x="0"
           y="0" />
      </g>
    </clipPath>
    <clipPath
       clipPathUnits="userSpaceOnUse"
       id="clipPath211">
      <g
         id="g215">
        <rect
           width="24"
           height="24"
           stroke-width="1.5"
           fill="#ffffff"
           id="rect213"
           x="0"
           y="0" />
      </g>
    </clipPath>
  </defs>
</svg>
