<?xml version="1.0" encoding="UTF-8" standalone="no"?>
<svg
   width="24"
   height="24"
   stroke-width="1.5"
   viewBox="0 0 24 24"
   fill="none"
   version="1.1"
   id="svg16"
   sodipodi:docname="pen-tablet-connect-usb.svg"
   inkscape:version="1.2.1 (9c6d41e410, 2022-07-14)"
   xmlns:inkscape="http://www.inkscape.org/namespaces/inkscape"
   xmlns:sodipodi="http://sodipodi.sourceforge.net/DTD/sodipodi-0.dtd"
   xmlns="http://www.w3.org/2000/svg"
   xmlns:svg="http://www.w3.org/2000/svg">
  <defs
     id="defs20" />
  <sodipodi:namedview
     id="namedview18"
     pagecolor="#ffffff"
     bordercolor="#666666"
     borderopacity="1.0"
     inkscape:showpageshadow="2"
     inkscape:pageopacity="0.0"
     inkscape:pagecheckerboard="0"
     inkscape:deskcolor="#d1d1d1"
     showgrid="false"
     inkscape:zoom="34.541667"
     inkscape:cx="10.364294"
     inkscape:cy="12.014475"
     inkscape:window-width="1920"
     inkscape:window-height="1009"
     inkscape:window-x="1912"
     inkscape:window-y="-8"
     inkscape:window-maximized="1"
     inkscape:current-layer="svg16" />
  <path
     style="color:#000000;fill:currentColor;stroke-linecap:round;stroke-linejoin:round;-inkscape-stroke:none"
     d="M 4,2.25 C 2.4901018,2.25 1.25,3.4901018 1.25,5 v 14 c 0,1.509917 1.2401154,2.75 2.75,2.75 h 16 c 1.509904,0 2.75,-1.240096 2.75,-2.75 V 17 A 0.75,0.75 0 0 0 22,16.25 0.75,0.75 0 0 0 21.25,17 v 2 c 0,0.699294 -0.550706,1.25 -1.25,1.25 H 4 C 3.3007468,20.25 2.75,19.699281 2.75,19 V 5 C 2.75,4.3007604 3.3007604,3.75 4,3.75 h 16 c 0.699281,0 1.25,0.5507468 1.25,1.25 V 7 A 0.75,0.75 0 0 0 22,7.75 0.75,0.75 0 0 0 22.75,7 V 5 C 22.75,3.4901154 21.509917,2.25 20,2.25 Z"
     id="path2" />
  <path
     style="color:#000000;fill:currentColor;-inkscape-stroke:none"
     d="m 2,11.25 v 1.5 h 4 v -1.5 z"
     id="path4" />
  <path
     style="color:#000000;fill:currentColor;-inkscape-stroke:none"
     d="m 5.25,3 v 18 h 1.5 V 3 Z"
     id="path6" />
  <path
     style="color:#000000;fill:currentColor;stroke-linecap:round;stroke-linejoin:round;-inkscape-stroke:none"
     d="M 11,11.25 A 0.75,0.75 0 0 0 10.25,12 0.75,0.75 0 0 0 11,12.75 h 8.25 A 0.75,0.75 0 0 0 20,12 0.75,0.75 0 0 0 19.25,11.25 Z"
     id="path8" />
  <path
     style="color:#000000;fill:currentColor;stroke-linecap:round;stroke-linejoin:round;-inkscape-stroke:none"
     d="m 18.898437,11.277344 a 0.75,0.75 0 0 0 -0.921875,0.523437 L 17.302734,14.25 h -1.078125 a 0.75,0.75 0 0 0 -0.75,0.75 0.75,0.75 0 0 0 0.75,0.75 H 17.875 a 0.750075,0.750075 0 0 0 0.722656,-0.550781 l 0.826172,-3 a 0.75,0.75 0 0 0 -0.525391,-0.921875 z"
     id="path10" />
  <path
     style="color:#000000;fill:currentColor;stroke-linecap:round;stroke-linejoin:round;-inkscape-stroke:none"
     d="m 14.574219,8.25 a 0.75,0.75 0 0 0 -0.75,0.75 0.75,0.75 0 0 0 0.75,0.75 h 1.402344 l 0.919921,2.507813 a 0.75,0.75 0 0 0 0.960938,0.447265 0.75,0.75 0 0 0 0.447265,-0.96289 L 17.205078,8.7421875 A 0.750075,0.750075 0 0 0 16.5,8.25 Z"
     id="path12" />
  <path
     style="color:#000000;fill:currentColor;stroke-linecap:round;stroke-linejoin:round;-inkscape-stroke:none"
     d="M 20.625,9.8867188 C 19.463639,9.8867188 18.5,10.83819 18.5,12 c 0,1.16181 0.963639,2.113281 2.125,2.113281 1.161361,0 2.125,-0.951471 2.125,-2.113281 0,-1.16181 -0.963639,-2.1132813 -2.125,-2.1132812 z m 0,1.5000002 c 0.357438,0 0.625,0.268892 0.625,0.613281 0,0.344389 -0.267562,0.613281 -0.625,0.613281 C 20.267562,12.613281 20,12.344389 20,12 c 0,-0.344389 0.267562,-0.613281 0.625,-0.613281 z"
     id="path14" />
</svg>
