<?xml version="1.0" encoding="UTF-8" standalone="no"?>
<svg
   width="24"
   height="24"
   stroke-width="1.5"
   viewBox="0 0 24 24"
   fill="none"
   version="1.1"
   id="svg14"
   sodipodi:docname="pen-tablet-connect-wifi.svg"
   inkscape:version="1.2.1 (9c6d41e410, 2022-07-14)"
   xmlns:inkscape="http://www.inkscape.org/namespaces/inkscape"
   xmlns:sodipodi="http://sodipodi.sourceforge.net/DTD/sodipodi-0.dtd"
   xmlns="http://www.w3.org/2000/svg"
   xmlns:svg="http://www.w3.org/2000/svg">
  <defs
     id="defs18" />
  <sodipodi:namedview
     id="namedview16"
     pagecolor="#ffffff"
     bordercolor="#666666"
     borderopacity="1.0"
     inkscape:showpageshadow="2"
     inkscape:pageopacity="0.0"
     inkscape:pagecheckerboard="0"
     inkscape:deskcolor="#d1d1d1"
     showgrid="false"
     inkscape:zoom="34.541667"
     inkscape:cx="10.364294"
     inkscape:cy="12.014475"
     inkscape:window-width="1920"
     inkscape:window-height="1009"
     inkscape:window-x="1912"
     inkscape:window-y="-8"
     inkscape:window-maximized="1"
     inkscape:current-layer="svg14" />
  <path
     style="color:#000000;fill:currentColor;stroke-linecap:round;stroke-linejoin:round;-inkscape-stroke:none"
     d="m 16.970703,14.75 a 0.75,0.75 0 0 0 -0.517578,0.246094 l -0.0098,0.01172 a 0.75,0.75 0 0 0 0.05469,1.058593 0.75,0.75 0 0 0 1.058594,-0.05469 L 17.566406,16 A 0.75,0.75 0 0 0 17.511719,14.941406 0.75,0.75 0 0 0 16.970703,14.75 Z"
     id="path2" />
  <path
     style="color:#000000;fill:currentColor;stroke-linecap:round;stroke-linejoin:round;-inkscape-stroke:none"
     d="m 17,8.9863281 c -2.084366,-1.33e-5 -4.168747,0.8443549 -5.576172,2.5332029 a 0.75,0.75 0 0 0 0.0957,1.056641 0.75,0.75 0 0 0 1.056641,-0.0957 c 2.185145,-2.6220777 6.662504,-2.6221833 8.847656,0 a 0.75,0.75 0 0 0 1.056641,0.0957 0.75,0.75 0 0 0 0.0957,-1.056641 C 21.168751,9.8306258 19.084366,8.9863414 17,8.9863281 Z"
     id="path4" />
  <path
     style="color:#000000;fill:currentColor;stroke-linecap:round;stroke-linejoin:round;-inkscape-stroke:none"
     d="m 17,11.761719 c -1.352999,0 -2.70561,0.597063 -3.599609,1.789062 a 0.75,0.75 0 0 0 0.15039,1.048828 0.75,0.75 0 0 0 1.048828,-0.15039 c 1.211999,-1.615999 3.588783,-1.615999 4.800782,0 a 0.75,0.75 0 0 0 1.048828,0.15039 0.75,0.75 0 0 0 0.15039,-1.048828 C 19.70561,12.358782 18.352999,11.761719 17,11.761719 Z"
     id="path6" />
  <path
     style="color:#000000;fill:currentColor;stroke-linecap:round;stroke-linejoin:round;-inkscape-stroke:none"
     d="M 4,2.25 C 2.4901018,2.25 1.25,3.4901018 1.25,5 v 14 c 0,1.509917 1.2401154,2.75 2.75,2.75 h 16 c 1.509904,0 2.75,-1.240096 2.75,-2.75 V 17 A 0.75,0.75 0 0 0 22,16.25 0.75,0.75 0 0 0 21.25,17 v 2 c 0,0.699294 -0.550706,1.25 -1.25,1.25 H 4 C 3.3007468,20.25 2.75,19.699281 2.75,19 V 5 C 2.75,4.3007604 3.3007604,3.75 4,3.75 h 16 c 0.699281,0 1.25,0.5507468 1.25,1.25 V 7 A 0.75,0.75 0 0 0 22,7.75 0.75,0.75 0 0 0 22.75,7 V 5 C 22.75,3.4901154 21.509917,2.25 20,2.25 Z"
     id="path8" />
  <path
     style="color:#000000;fill:currentColor;-inkscape-stroke:none"
     d="m 2,11.25 v 1.5 h 4 v -1.5 z"
     id="path10" />
  <path
     style="color:#000000;fill:currentColor;-inkscape-stroke:none"
     d="m 5.25,3 v 18 h 1.5 V 3 Z"
     id="path12" />
</svg>
