<?xml version="1.0" encoding="UTF-8" standalone="no"?>
<svg
   width="24"
   height="24"
   stroke-width="1.5"
   viewBox="0 0 24 24"
   fill="none"
   version="1.1"
   id="svg16"
   sodipodi:docname="perspective-view.svg"
   inkscape:version="1.2.1 (9c6d41e410, 2022-07-14)"
   xmlns:inkscape="http://www.inkscape.org/namespaces/inkscape"
   xmlns:sodipodi="http://sodipodi.sourceforge.net/DTD/sodipodi-0.dtd"
   xmlns="http://www.w3.org/2000/svg"
   xmlns:svg="http://www.w3.org/2000/svg">
  <defs
     id="defs20" />
  <sodipodi:namedview
     id="namedview18"
     pagecolor="#ffffff"
     bordercolor="#666666"
     borderopacity="1.0"
     inkscape:showpageshadow="2"
     inkscape:pageopacity="0.0"
     inkscape:pagecheckerboard="0"
     inkscape:deskcolor="#d1d1d1"
     showgrid="false"
     inkscape:zoom="34.541667"
     inkscape:cx="10.364294"
     inkscape:cy="12.014475"
     inkscape:window-width="1920"
     inkscape:window-height="1009"
     inkscape:window-x="1912"
     inkscape:window-y="-8"
     inkscape:window-maximized="1"
     inkscape:current-layer="svg16" />
  <path
     style="color:#000000;fill:currentColor;stroke-linecap:round;stroke-linejoin:round;-inkscape-stroke:none"
     d="M 4.1425781,2.25 A 0.750075,0.750075 0 0 0 3.4042969,2.8710938 L 0.26171875,20.871094 A 0.750075,0.750075 0 0 0 1,21.75 h 22 a 0.750075,0.750075 0 0 0 0.738281,-0.878906 L 20.595703,2.8710938 A 0.750075,0.750075 0 0 0 19.857422,2.25 Z m 0.6308594,1.5 H 19.226562 l 2.88086,16.5 H 1.8925781 Z"
     id="path2" />
  <path
     style="color:#000000;fill:currentColor;stroke-linecap:round;stroke-linejoin:round;-inkscape-stroke:none"
     d="M 2,15.75 A 0.75,0.75 0 0 0 1.25,16.5 0.75,0.75 0 0 0 2,17.25 H 22 A 0.75,0.75 0 0 0 22.75,16.5 0.75,0.75 0 0 0 22,15.75 Z"
     id="path4" />
  <path
     style="color:#000000;fill:currentColor;stroke-linecap:round;stroke-linejoin:round;-inkscape-stroke:none"
     d="M 3,11.25 A 0.75,0.75 0 0 0 2.25,12 0.75,0.75 0 0 0 3,12.75 H 21 A 0.75,0.75 0 0 0 21.75,12 0.75,0.75 0 0 0 21,11.25 Z"
     id="path6" />
  <path
     style="color:#000000;fill:currentColor;stroke-linecap:round;stroke-linejoin:round;-inkscape-stroke:none"
     d="M 4,6.75 A 0.75,0.75 0 0 0 3.25,7.5 0.75,0.75 0 0 0 4,8.25 H 20 A 0.75,0.75 0 0 0 20.75,7.5 0.75,0.75 0 0 0 20,6.75 Z"
     id="path8" />
  <path
     style="color:#000000;fill:currentColor;stroke-linecap:round;stroke-linejoin:round;-inkscape-stroke:none"
     d="M 12,2.25 A 0.75,0.75 0 0 0 11.25,3 V 21 A 0.75,0.75 0 0 0 12,21.75 0.75,0.75 0 0 0 12.75,21 V 3 A 0.75,0.75 0 0 0 12,2.25 Z"
     id="path10" />
  <path
     style="color:#000000;fill:currentColor;stroke-linecap:round;stroke-linejoin:round;-inkscape-stroke:none"
     d="M 8.0664063,2.7519531 A 0.75,0.75 0 0 0 7.2519531,3.4335938 l -1.5,17.0000002 a 0.75,0.75 0 0 0 0.6816406,0.814453 0.75,0.75 0 0 0 0.8144532,-0.681641 l 1.5,-16.9999997 A 0.75,0.75 0 0 0 8.0664063,2.7519531 Z"
     id="path12" />
  <path
     style="color:#000000;fill:currentColor;stroke-linecap:round;stroke-linejoin:round;-inkscape-stroke:none"
     d="m 15.933594,2.7519531 a 0.75,0.75 0 0 0 -0.681641,0.8144532 l 1.5,16.9999997 a 0.75,0.75 0 0 0 0.814453,0.681641 0.75,0.75 0 0 0 0.681641,-0.814453 l -1.5,-17.0000002 A 0.75,0.75 0 0 0 15.933594,2.7519531 Z"
     id="path14" />
</svg>
