<?xml version="1.0" encoding="UTF-8" standalone="no"?>
<svg
   width="24"
   height="24"
   stroke-width="1.5"
   viewBox="0 0 24 24"
   fill="none"
   version="1.1"
   id="svg6"
   sodipodi:docname="phone-outcome.svg"
   inkscape:version="1.2.1 (9c6d41e410, 2022-07-14)"
   xmlns:inkscape="http://www.inkscape.org/namespaces/inkscape"
   xmlns:sodipodi="http://sodipodi.sourceforge.net/DTD/sodipodi-0.dtd"
   xmlns="http://www.w3.org/2000/svg"
   xmlns:svg="http://www.w3.org/2000/svg">
  <defs
     id="defs10" />
  <sodipodi:namedview
     id="namedview8"
     pagecolor="#ffffff"
     bordercolor="#666666"
     borderopacity="1.0"
     inkscape:showpageshadow="2"
     inkscape:pageopacity="0.0"
     inkscape:pagecheckerboard="0"
     inkscape:deskcolor="#d1d1d1"
     showgrid="false"
     inkscape:zoom="34.541667"
     inkscape:cx="10.364294"
     inkscape:cy="12.014475"
     inkscape:window-width="1920"
     inkscape:window-height="1009"
     inkscape:window-x="1912"
     inkscape:window-y="-8"
     inkscape:window-maximized="1"
     inkscape:current-layer="svg6" />
  <path
     style="color:#000000;fill:currentColor;stroke-linecap:round;stroke-linejoin:round;-inkscape-stroke:none"
     d="m 19,1.25 a 0.75,0.75 0 0 0 -0.53125,0.21875 0.75,0.75 0 0 0 0,1.0625 L 20.1875,4.25 H 16 A 0.75,0.75 0 0 0 15.25,5 0.75,0.75 0 0 0 16,5.75 h 4.1875 l -1.71875,1.71875 a 0.75,0.75 0 0 0 0,1.0625 0.75,0.75 0 0 0 1.0625,0 l 3,-3 A 0.75,0.75 0 0 0 22.693359,5.2871094 0.75,0.75 0 0 0 22.75,5 0.75,0.75 0 0 0 22.693359,4.7128906 0.75,0.75 0 0 0 22.53125,4.46875 l -3,-3 A 0.75,0.75 0 0 0 19,1.25 Z"
     id="path2" />
  <path
     style="color:#000000;fill:currentColor;stroke-linecap:round;stroke-linejoin:round;-inkscape-stroke:none"
     d="M 4.0644531,1.25 C 2.5237168,1.25 1.2388479,2.5973337 1.4746094,4.1582031 1.9075398,7.0244147 3.15956,12.222028 6.96875,16.03125 c 3.983092,3.983092 9.586587,5.642717 12.673828,6.314453 C 21.261335,22.698 22.75,21.391013 22.75,19.765625 v -3.583984 a 0.750075,0.750075 0 0 0 -0.482422,-0.701172 l -3.882812,-1.478516 a 0.750075,0.750075 0 0 0 -0.410157,-0.03711 l -3.822265,0.742187 C 11.667991,13.423795 10.198565,12.025603 9.2890625,9.859375 L 10.007813,6.0078125 A 0.750075,0.750075 0 0 0 9.9726563,5.6054687 L 8.515625,1.7363281 A 0.750075,0.750075 0 0 0 7.8144531,1.25 Z m 0,1.5 H 7.2949219 L 8.4941406,5.9375 7.7636719,9.8632813 a 0.750075,0.750075 0 0 0 0.039063,0.4160157 c 1.0689482,2.672371 2.9845026,4.446679 5.8613286,5.890625 a 0.750075,0.750075 0 0 0 0.478515,0.06641 l 3.908203,-0.757812 3.199219,1.21875 v 3.068359 c 0,0.75861 -0.578222,1.267984 -1.289063,1.113281 C 17.015585,20.238043 11.65855,18.59605 8.03125,14.96875 4.5935072,11.530979 3.3668731,6.6359697 2.9589844,3.9355469 2.8579461,3.2666186 3.3500917,2.75 4.0644531,2.75 Z"
     id="path4" />
</svg>
