<?xml version="1.0" encoding="UTF-8" standalone="no"?>
<svg
   width="24"
   height="24"
   stroke-width="1.5"
   viewBox="0 0 24 24"
   fill="none"
   version="1.1"
   id="svg6"
   sodipodi:docname="phone-disabled.svg"
   inkscape:version="1.2.1 (9c6d41e410, 2022-07-14)"
   xmlns:inkscape="http://www.inkscape.org/namespaces/inkscape"
   xmlns:sodipodi="http://sodipodi.sourceforge.net/DTD/sodipodi-0.dtd"
   xmlns="http://www.w3.org/2000/svg"
   xmlns:svg="http://www.w3.org/2000/svg">
  <defs
     id="defs10" />
  <sodipodi:namedview
     id="namedview8"
     pagecolor="#ffffff"
     bordercolor="#666666"
     borderopacity="1.0"
     inkscape:showpageshadow="2"
     inkscape:pageopacity="0.0"
     inkscape:pagecheckerboard="0"
     inkscape:deskcolor="#d1d1d1"
     showgrid="false"
     inkscape:zoom="34.541667"
     inkscape:cx="10.364294"
     inkscape:cy="12.014475"
     inkscape:window-width="1920"
     inkscape:window-height="1009"
     inkscape:window-x="1912"
     inkscape:window-y="-8"
     inkscape:window-maximized="1"
     inkscape:current-layer="svg6" />
  <path
     style="color:#000000;fill:currentColor;stroke-linecap:round;stroke-linejoin:round;-inkscape-stroke:none"
     d="m 4.0644531,1.25 c -1.5403284,0 -2.8255455,1.347358 -2.5898437,2.9082031 0.2957638,1.958595 0.9783205,4.9967134 2.5917968,7.9492189 a 0.75,0.75 0 0 0 1.0175782,0.296875 0.75,0.75 0 0 0 0.2988281,-1.017578 C 3.8925319,8.6596498 3.2356868,5.778895 2.9570313,3.9335938 2.8560133,3.2646412 3.3496838,2.75 4.0644531,2.75 H 7.2949219 L 8.4941406,5.9375 8.0429688,8.3632813 a 0.75,0.75 0 0 0 0.5996093,0.8730468 0.75,0.75 0 0 0 0.875,-0.5996093 L 10.007813,6.0078125 A 0.750075,0.750075 0 0 0 9.9726563,5.6054687 L 8.515625,1.7363281 A 0.750075,0.750075 0 0 0 7.8144531,1.25 Z m 6.8320309,11.501953 a 0.75,0.75 0 0 0 -0.515625,0.25 0.75,0.75 0 0 0 0.0625,1.058594 c 0.899167,0.799546 1.967367,1.480276 3.220704,2.109375 a 0.750075,0.750075 0 0 0 0.478515,0.06641 l 3.908203,-0.757812 3.199219,1.21875 v 3.068359 c 0,0.759071 -0.576242,1.269882 -1.287109,1.115234 C 17.199752,20.27974 12.30633,18.798264 8.7207031,15.619141 a 0.75,0.75 0 0 0 -1.0585937,0.06445 0.75,0.75 0 0 0 0.064453,1.058593 c 3.9142255,3.47047 9.0217125,4.973437 11.9179685,5.603516 C 21.263261,22.697855 22.75,21.390551 22.75,19.765625 v -3.583984 a 0.750075,0.750075 0 0 0 -0.482422,-0.701172 l -3.882812,-1.478516 a 0.750075,0.750075 0 0 0 -0.410157,-0.03711 l -3.826171,0.742187 C 13.08019,14.154197 12.163485,13.583268 11.439453,12.939453 a 0.75,0.75 0 0 0 -0.542969,-0.1875 z"
     id="path2" />
  <path
     style="color:#000000;fill:currentColor;stroke-linecap:round;stroke-linejoin:round;-inkscape-stroke:none"
     d="m 21,2.25 a 0.75,0.75 0 0 0 -0.53125,0.21875 l -18,18 a 0.75,0.75 0 0 0 0,1.0625 0.75,0.75 0 0 0 1.0625,0 l 18,-18 a 0.75,0.75 0 0 0 0,-1.0625 A 0.75,0.75 0 0 0 21,2.25 Z"
     id="path4" />
</svg>
