<?xml version="1.0" encoding="UTF-8" standalone="no"?>
<svg
   width="24"
   height="24"
   stroke-width="1.5"
   viewBox="0 0 24 24"
   fill="none"
   version="1.1"
   id="svg12"
   sodipodi:docname="piggy-bank.svg"
   inkscape:version="1.3.1 (91b66b0783, 2023-11-16)"
   xmlns:inkscape="http://www.inkscape.org/namespaces/inkscape"
   xmlns:sodipodi="http://sodipodi.sourceforge.net/DTD/sodipodi-0.dtd"
   xmlns="http://www.w3.org/2000/svg"
   xmlns:svg="http://www.w3.org/2000/svg">
  <defs
     id="defs16" />
  <sodipodi:namedview
     id="namedview14"
     pagecolor="#ffffff"
     bordercolor="#666666"
     borderopacity="1.0"
     inkscape:showpageshadow="2"
     inkscape:pageopacity="0.0"
     inkscape:pagecheckerboard="0"
     inkscape:deskcolor="#d1d1d1"
     showgrid="false"
     inkscape:zoom="34.541667"
     inkscape:cx="10.364294"
     inkscape:cy="12.02895"
     inkscape:window-width="1920"
     inkscape:window-height="1009"
     inkscape:window-x="1912"
     inkscape:window-y="-8"
     inkscape:window-maximized="1"
     inkscape:current-layer="svg12" />
  <circle
     style="fill:#000000;stroke-width:2.27213;stroke-linecap:round;stroke-linejoin:round"
     id="circle2"
     cx="15.5"
     cy="12.5"
     r="1.25" />
  <path
     style="color:#000000;fill:currentColor;stroke-linecap:round;stroke-linejoin:round;-inkscape-stroke:none"
     d="M 11.765625,7.25 C 9.4659426,7.25 7.3696614,7.959989 5.8183594,9.1503906 4.2670573,10.340792 3.25,12.049531 3.25,13.958984 c 0,1.985361 1.1808775,3.670232 2.8417969,4.873047 L 5.7363281,20.007812 C 5.4794035,20.855138 6.1418932,21.75 7.0273437,21.75 h 1.7636719 c 0.2919524,0 0.5767236,-0.09396 0.8105469,-0.269531 l 1.1953125,-0.896485 h 1.935547 l 1.195312,0.896485 c 0.233838,0.175547 0.5186,0.269531 0.810547,0.269531 h 1.763672 c 0.885461,0 1.548111,-0.894806 1.291016,-1.742188 l -0.337891,-1.117187 c 0.931296,-0.666042 1.723396,-1.463992 2.212891,-2.425781 a 0.75,0.75 0 0 0 -0.328125,-1.007813 0.75,0.75 0 0 0 -1.007813,0.328125 c -0.430833,0.846528 -1.16633,1.613104 -2.130859,2.201172 A 0.750075,0.750075 0 0 0 15.873047,18.84375 L 16.298828,20.25 h -1.509765 l -1.355469,-1.015625 a 0.750075,0.750075 0 0 0 -0.451172,-0.150391 h -2.435547 a 0.750075,0.750075 0 0 0 -0.451172,0.150391 L 8.7402344,20.25 H 7.2304687 L 7.65625,18.84375 A 0.750075,0.750075 0 0 0 7.328125,17.986328 C 5.7090943,16.999156 4.75,15.546456 4.75,13.958984 4.75,12.577741 5.4715086,11.305915 6.7304687,10.339844 7.9894289,9.3737725 9.7769717,8.75 11.765625,8.75 c 0.6986,0 1.756673,0.2717091 2.546875,0.4765625 A 0.75,0.75 0 0 0 15.226563,8.6875 0.75,0.75 0 0 0 14.6875,7.7734375 C 13.916304,7.5735113 12.806423,7.25 11.765625,7.25 Z"
     id="path2" />
  <path
     style="color:#000000;fill:currentColor;stroke-linecap:round;stroke-linejoin:round;-inkscape-stroke:none"
     d="m 19.234375,6.2871094 a 0.750075,0.750075 0 0 0 -0.470703,0.00195 l -4.5,1.5 a 0.75,0.75 0 0 0 -0.474609,0.9472656 0.75,0.75 0 0 0 0.947265,0.4746094 l 3.488281,-1.1621094 -0.05859,2.5624999 a 0.750075,0.750075 0 0 0 0.460937,0.708985 L 20.25,12 v 2.544922 l -1.521484,0.789062 a 0.75,0.75 0 0 0 -0.320313,1.011719 0.75,0.75 0 0 0 1.011719,0.320313 l 1.925781,-1 A 0.750075,0.750075 0 0 0 21.75,15 V 11.5 A 0.750075,0.750075 0 0 0 21.289062,10.808594 L 19.677734,10.134766 19.75,7.0175781 A 0.750075,0.750075 0 0 0 19.234375,6.2871094 Z"
     id="path4" />
  <path
     style="color:#000000;fill:currentColor;stroke-linecap:round;stroke-linejoin:round;-inkscape-stroke:none"
     d="M 2,9.25 A 0.75,0.75 0 0 0 1.25,10 c 0,0 -0.0034,0.724415 0.296875,1.535156 0.3002744,0.810741 0.9746606,1.804508 2.2382813,2.183594 A 0.75,0.75 0 0 0 4.71875,13.214844 0.75,0.75 0 0 0 4.2148437,12.28125 C 3.4784664,12.060337 3.1528501,11.55293 2.953125,11.013672 2.7533999,10.474414 2.75,10 2.75,10 A 0.75,0.75 0 0 0 2,9.25 Z"
     id="path8" />
  <path
     style="color:#000000;fill:currentColor;stroke-linejoin:round;-inkscape-stroke:none"
     d="m 9.5,2.25 c -2.3458223,0 -4.25,1.9477452 -4.25,4.3144531 0,1.1320089 0.4337151,2.1719087 1.1425781,2.9433594 L 7.4960937,8.4921875 C 7.0338579,7.9891395 6.75,7.3157624 6.75,6.5644531 6.75,4.993685 7.9798261,3.75 9.5,3.75 c 1.520174,0 2.75,1.243685 2.75,2.8144531 0,0.3323943 -0.05622,0.6495491 -0.158203,0.9433594 l 1.417969,0.4902344 C 13.665784,7.5485579 13.75,7.065338 13.75,6.5644531 13.75,4.1977452 11.845822,2.25 9.5,2.25 Z"
     id="path10" />
</svg>
