<?xml version="1.0" encoding="UTF-8" standalone="no"?>
<svg
   width="24"
   height="24"
   viewBox="0 0 24 24"
   stroke-width="1.5"
   fill="none"
   version="1.1"
   id="svg8"
   sodipodi:docname="pin-slash.svg"
   inkscape:version="1.2.1 (9c6d41e410, 2022-07-14)"
   xmlns:inkscape="http://www.inkscape.org/namespaces/inkscape"
   xmlns:sodipodi="http://sodipodi.sourceforge.net/DTD/sodipodi-0.dtd"
   xmlns="http://www.w3.org/2000/svg"
   xmlns:svg="http://www.w3.org/2000/svg">
  <defs
     id="defs12" />
  <sodipodi:namedview
     id="namedview10"
     pagecolor="#ffffff"
     bordercolor="#666666"
     borderopacity="1.0"
     inkscape:showpageshadow="2"
     inkscape:pageopacity="0.0"
     inkscape:pagecheckerboard="0"
     inkscape:deskcolor="#d1d1d1"
     showgrid="false"
     inkscape:zoom="34.541667"
     inkscape:cx="10.364294"
     inkscape:cy="12.014475"
     inkscape:window-width="1920"
     inkscape:window-height="1009"
     inkscape:window-x="1912"
     inkscape:window-y="-8"
     inkscape:window-maximized="1"
     inkscape:current-layer="svg8" />
  <path
     style="color:#000000;fill:currentColor;stroke-linecap:round;stroke-linejoin:round;-inkscape-stroke:none"
     d="m 9.5,13.75 a 0.75,0.75 0 0 0 -0.53125,0.21875 l -6.5,6.5 a 0.75,0.75 0 0 0 0,1.0625 0.75,0.75 0 0 0 1.0625,0 l 6.5,-6.5 a 0.75,0.75 0 0 0 0,-1.0625 A 0.75,0.75 0 0 0 9.5,13.75 Z"
     id="path2" />
  <path
     style="color:#000000;fill:currentColor;stroke-linecap:round;stroke-linejoin:round;-inkscape-stroke:none"
     d="M 15.126953,1.921875 A 0.750075,0.750075 0 0 0 14.583984,2.1855469 L 10.912109,6.515625 A 0.75,0.75 0 0 0 11,7.5722656 0.75,0.75 0 0 0 12.056641,7.484375 l 3.146484,-3.7070312 4.697266,4.6972656 -3.685547,3.1289066 a 0.75,0.75 0 0 0 -0.08789,1.05664 0.75,0.75 0 0 0 1.056641,0.08594 L 21.492187,9.09375 a 0.750075,0.750075 0 0 0 0.04492,-1.1035156 L 15.6875,2.140625 A 0.750075,0.750075 0 0 0 15.126953,1.921875 Z M 6.7734375,7.0429687 A 0.750075,0.750075 0 0 0 6.1660156,7.2578125 L 4.4707031,8.9550781 a 0.750075,0.750075 0 0 0 0,1.0605469 l 9.1914059,9.193359 a 0.750075,0.750075 0 0 0 1.060547,0 l 1.697266,-1.697265 a 0.750075,0.750075 0 0 0 0.214844,-0.609375 l -0.101563,-0.980469 a 0.75,0.75 0 0 0 -0.822265,-0.667969 0.75,0.75 0 0 0 -0.669922,0.824219 l 0.06641,0.625 -0.914063,0.914062 -8.1328121,-8.132812 0.9140625,-0.9140625 0.625,0.064453 A 0.75,0.75 0 0 0 8.421875,7.9667969 0.75,0.75 0 0 0 7.7539062,7.1445312 Z"
     id="path4" />
  <path
     style="color:#000000;fill:currentColor;stroke-linecap:round;stroke-linejoin:round;-inkscape-stroke:none"
     d="m 3,2.25 a 0.75,0.75 0 0 0 -0.53125,0.21875 0.75,0.75 0 0 0 0,1.0625 l 18,18 a 0.75,0.75 0 0 0 1.0625,0 0.75,0.75 0 0 0 0,-1.0625 l -18,-18 A 0.75,0.75 0 0 0 3,2.25 Z"
     id="path6" />
</svg>
