<?xml version="1.0" encoding="UTF-8" standalone="no"?>
<svg
   width="24"
   height="24"
   viewBox="0 0 24 24"
   stroke-width="1.5"
   fill="none"
   version="1.1"
   id="svg6"
   sodipodi:docname="pin.svg"
   inkscape:version="1.2.1 (9c6d41e410, 2022-07-14)"
   xmlns:inkscape="http://www.inkscape.org/namespaces/inkscape"
   xmlns:sodipodi="http://sodipodi.sourceforge.net/DTD/sodipodi-0.dtd"
   xmlns="http://www.w3.org/2000/svg"
   xmlns:svg="http://www.w3.org/2000/svg">
  <defs
     id="defs10" />
  <sodipodi:namedview
     id="namedview8"
     pagecolor="#ffffff"
     bordercolor="#666666"
     borderopacity="1.0"
     inkscape:showpageshadow="2"
     inkscape:pageopacity="0.0"
     inkscape:pagecheckerboard="0"
     inkscape:deskcolor="#d1d1d1"
     showgrid="false"
     inkscape:zoom="34.541667"
     inkscape:cx="10.364294"
     inkscape:cy="12.014475"
     inkscape:window-width="1920"
     inkscape:window-height="1009"
     inkscape:window-x="1912"
     inkscape:window-y="-8"
     inkscape:window-maximized="1"
     inkscape:current-layer="svg6" />
  <path
     style="color:#000000;fill:currentColor;stroke-linecap:round;stroke-linejoin:round;-inkscape-stroke:none"
     d="m 9.5,13.75 a 0.75,0.75 0 0 0 -0.53125,0.21875 l -6.5,6.5 a 0.75,0.75 0 0 0 0,1.0625 0.75,0.75 0 0 0 1.0625,0 l 6.5,-6.5 a 0.75,0.75 0 0 0 0,-1.0625 A 0.75,0.75 0 0 0 9.5,13.75 Z"
     id="path2" />
  <path
     style="color:#000000;fill:currentColor;stroke-linecap:round;stroke-linejoin:round;-inkscape-stroke:none"
     d="M 15.126953,1.921875 A 0.750075,0.750075 0 0 0 14.583984,2.1855469 L 10.167969,7.3945312 6.7734375,7.0429687 A 0.750075,0.750075 0 0 0 6.1660156,7.2578125 L 4.4707031,8.9550781 a 0.750075,0.750075 0 0 0 0,1.0605469 l 9.1914059,9.193359 a 0.750075,0.750075 0 0 0 1.060547,0 l 1.697266,-1.697265 a 0.750075,0.750075 0 0 0 0.214844,-0.607422 L 16.283203,13.509766 21.492187,9.09375 a 0.750075,0.750075 0 0 0 0.04492,-1.1035156 L 15.6875,2.140625 a 0.750075,0.750075 0 0 0 -0.560547,-0.21875 z m 0.07617,1.8554688 4.697266,4.6972656 -4.888672,4.1484376 a 0.750075,0.750075 0 0 0 -0.259766,0.648437 l 0.355469,3.431641 -0.914063,0.914062 L 6.0605469,9.484375 6.9746094,8.5703125 10.40625,8.9257813 a 0.750075,0.750075 0 0 0 0.648438,-0.2597657 z"
     id="path4" />
</svg>
