<?xml version="1.0" encoding="UTF-8" standalone="no"?>
<svg
   width="24"
   height="24"
   viewBox="0 0 24 24"
   stroke-width="1.5"
   fill="none"
   version="1.1"
   id="svg10"
   sodipodi:docname="pine-tree.svg"
   inkscape:version="1.2.1 (9c6d41e410, 2022-07-14)"
   xmlns:inkscape="http://www.inkscape.org/namespaces/inkscape"
   xmlns:sodipodi="http://sodipodi.sourceforge.net/DTD/sodipodi-0.dtd"
   xmlns="http://www.w3.org/2000/svg"
   xmlns:svg="http://www.w3.org/2000/svg">
  <defs
     id="defs14" />
  <sodipodi:namedview
     id="namedview12"
     pagecolor="#ffffff"
     bordercolor="#666666"
     borderopacity="1.0"
     inkscape:showpageshadow="2"
     inkscape:pageopacity="0.0"
     inkscape:pagecheckerboard="0"
     inkscape:deskcolor="#d1d1d1"
     showgrid="false"
     inkscape:zoom="34.541667"
     inkscape:cx="10.364294"
     inkscape:cy="12.014475"
     inkscape:window-width="1920"
     inkscape:window-height="1009"
     inkscape:window-x="1912"
     inkscape:window-y="-8"
     inkscape:window-maximized="1"
     inkscape:current-layer="svg10" />
  <path
     style="color:#000000;fill:currentColor;stroke-linecap:round;stroke-linejoin:round;-inkscape-stroke:none"
     d="M 11.490234,1.4511719 6.4902344,6.09375 a 0.750075,0.750075 0 0 0 0.421875,1.2949219 c 0,0 3.0390738,0.3613281 5.0878906,0.3613281 2.048817,0 5.087891,-0.3613281 5.087891,-0.3613281 A 0.750075,0.750075 0 0 0 17.509766,6.09375 l -5,-4.6425781 a 0.750075,0.750075 0 0 0 -1.019532,0 z M 12,3.0214844 15.226563,6.0195312 C 14.180219,6.1237678 13.225935,6.25 12,6.25 10.774065,6.25 9.8197813,6.1237678 8.7734375,6.0195312 Z"
     id="path2" />
  <path
     style="color:#000000;fill:currentColor;stroke-linecap:round;stroke-linejoin:round;-inkscape-stroke:none"
     d="m 8.4550781,6.2519531 a 0.75,0.75 0 0 0 -0.515625,0.25 l -3.5,3.9394529 a 0.750075,0.750075 0 0 0 0.2792969,1.19336 c 0,0 2.7850431,1.115234 7.28125,1.115234 4.496207,0 7.28125,-1.115234 7.28125,-1.115234 a 0.750075,0.750075 0 0 0 0.279297,-1.19336 l -3.5,-3.9394529 a 0.75,0.75 0 0 0 -1.058594,-0.0625 0.75,0.75 0 0 0 -0.0625,1.0585938 l 2.710938,3.0507811 C 16.652545,10.844981 14.965203,11.25 12,11.25 9.0347973,11.25 7.3474548,10.844981 6.3496094,10.548828 L 9.0605469,7.4980469 a 0.75,0.75 0 0 0 -0.0625,-1.0585938 0.75,0.75 0 0 0 -0.5429688,-0.1875 z"
     id="path4" />
  <path
     style="color:#000000;fill:currentColor;stroke-linecap:round;stroke-linejoin:round;-inkscape-stroke:none"
     d="m 6.4472656,10.751953 a 0.75,0.75 0 0 0 -0.5136719,0.25586 L 2.4335938,15.03125 a 0.750075,0.750075 0 0 0 0.058594,1.044922 c 0,0 0.8020032,0.72004 2.3535156,1.376953 C 6.3972155,18.110038 8.7517136,18.75 12,18.75 c 3.248286,0 5.602784,-0.639962 7.154297,-1.296875 1.551512,-0.656913 2.353515,-1.376953 2.353515,-1.376953 a 0.750075,0.750075 0 0 0 0.05859,-1.044922 l -3.5,-4.023437 a 0.75,0.75 0 0 0 -1.058594,-0.07422 0.75,0.75 0 0 0 -0.07422,1.058594 l 2.912109,3.347656 C 19.57986,15.53723 19.482012,15.684297 18.570312,16.070312 17.196828,16.651848 15.051707,17.25 12,17.25 8.9482927,17.25 6.8031722,16.651848 5.4296875,16.070312 4.517988,15.684297 4.4201401,15.53723 4.1542969,15.339844 L 7.0664062,11.992188 A 0.75,0.75 0 0 0 6.9921875,10.933594 0.75,0.75 0 0 0 6.4472656,10.751953 Z"
     id="path6" />
  <path
     style="color:#000000;fill:currentColor;stroke-linecap:round;stroke-linejoin:round;-inkscape-stroke:none"
     d="M 12,18.25 A 0.75,0.75 0 0 0 11.25,19 v 3 A 0.75,0.75 0 0 0 12,22.75 0.75,0.75 0 0 0 12.75,22 V 19 A 0.75,0.75 0 0 0 12,18.25 Z"
     id="path8" />
</svg>
