<?xml version="1.0" encoding="UTF-8" standalone="no"?>
<svg
   width="24"
   height="24"
   stroke-width="1.5"
   viewBox="0 0 24 24"
   fill="none"
   version="1.1"
   id="svg6"
   sodipodi:docname="planet.svg"
   inkscape:version="1.2.1 (9c6d41e410, 2022-07-14)"
   xmlns:inkscape="http://www.inkscape.org/namespaces/inkscape"
   xmlns:sodipodi="http://sodipodi.sourceforge.net/DTD/sodipodi-0.dtd"
   xmlns="http://www.w3.org/2000/svg"
   xmlns:svg="http://www.w3.org/2000/svg">
  <defs
     id="defs10" />
  <sodipodi:namedview
     id="namedview8"
     pagecolor="#ffffff"
     bordercolor="#666666"
     borderopacity="1.0"
     inkscape:showpageshadow="2"
     inkscape:pageopacity="0.0"
     inkscape:pagecheckerboard="0"
     inkscape:deskcolor="#d1d1d1"
     showgrid="false"
     inkscape:zoom="34.541667"
     inkscape:cx="10.364294"
     inkscape:cy="12.014475"
     inkscape:window-width="1920"
     inkscape:window-height="1009"
     inkscape:window-x="1912"
     inkscape:window-y="-8"
     inkscape:window-maximized="1"
     inkscape:current-layer="svg6" />
  <path
     style="color:#000000;fill:currentColor;-inkscape-stroke:none"
     d="m 12,3.25 c -4.8236033,0 -8.75,3.9263967 -8.75,8.75 0,4.823603 3.9263967,8.75 8.75,8.75 4.823603,0 8.75,-3.926397 8.75,-8.75 0,-4.8236033 -3.926397,-8.75 -8.75,-8.75 z m 0,1.5 c 4.012944,0 7.25,3.2370561 7.25,7.25 0,4.012944 -3.237056,7.25 -7.25,7.25 C 7.9870561,19.25 4.75,16.012944 4.75,12 4.75,7.9870561 7.9870561,4.75 12,4.75 Z"
     id="circle2" />
  <path
     style="color:#000000;fill:currentColor;-inkscape-stroke:none"
     d="m 20.429687,5.2578125 c -0.868227,-0.054264 -1.907529,0.079479 -3.101562,0.359375 l 0.341797,1.4609375 c 1.103965,-0.2587833 2.037919,-0.3615215 2.666015,-0.3222656 0.628097,0.039256 0.816877,0.2118065 0.830079,0.2382812 0.01226,0.024598 0.04384,0.2359844 -0.240235,0.7011719 -0.284073,0.4651875 -0.82962,1.0796986 -1.580078,1.7402344 -1.500916,1.3210711 -3.813304,2.8451031 -6.529297,4.1992191 -2.716008,1.354165 -5.3229115,2.283857 -7.2812498,2.6875 -0.9791691,0.201821 -1.7993177,0.265973 -2.3417968,0.21289 C 2.6508802,16.482073 2.5024915,16.331224 2.4902344,16.306641 2.477111,16.280321 2.450518,16.027069 2.7949219,15.503906 3.1393258,14.980743 3.7816457,14.299799 4.6484375,13.576172 L 3.6855469,12.423828 c -0.9378765,0.782971 -1.6657729,1.529621 -2.1425782,2.253906 -0.4768052,0.724286 -0.77527055,1.539149 -0.3964843,2.298828 0.3532375,0.708466 1.1131348,0.975699 1.9003906,1.052735 0.7872558,0.07703 1.7192668,-0.01738 2.7910156,-0.238281 2.1434977,-0.441807 4.8362214,-1.412321 7.6484374,-2.814453 2.812202,-1.402082 5.208732,-2.968082 6.851563,-4.414063 0.821415,-0.7229903 1.456883,-1.4108417 1.86914,-2.0859375 0.412257,-0.6750958 0.65597,-1.441919 0.302735,-2.1503906 h -0.002 C 22.128114,5.5647074 21.297915,5.3120765 20.429687,5.2578125 Z"
     id="path4" />
</svg>
