<?xml version="1.0" encoding="UTF-8" standalone="no"?>
<svg
   width="24"
   height="24"
   stroke-width="1.5"
   viewBox="0 0 24 24"
   fill="none"
   version="1.1"
   id="svg6"
   sodipodi:docname="planet-alt.svg"
   inkscape:version="1.2.1 (9c6d41e410, 2022-07-14)"
   xmlns:inkscape="http://www.inkscape.org/namespaces/inkscape"
   xmlns:sodipodi="http://sodipodi.sourceforge.net/DTD/sodipodi-0.dtd"
   xmlns="http://www.w3.org/2000/svg"
   xmlns:svg="http://www.w3.org/2000/svg">
  <defs
     id="defs10" />
  <sodipodi:namedview
     id="namedview8"
     pagecolor="#ffffff"
     bordercolor="#666666"
     borderopacity="1.0"
     inkscape:showpageshadow="2"
     inkscape:pageopacity="0.0"
     inkscape:pagecheckerboard="0"
     inkscape:deskcolor="#d1d1d1"
     showgrid="false"
     inkscape:zoom="34.541667"
     inkscape:cx="10.364294"
     inkscape:cy="12.014475"
     inkscape:window-width="1920"
     inkscape:window-height="1009"
     inkscape:window-x="1912"
     inkscape:window-y="-8"
     inkscape:window-maximized="1"
     inkscape:current-layer="svg6" />
  <path
     style="color:#000000;fill:currentColor;-inkscape-stroke:none"
     d="m 12,3.25 c -4.8236033,0 -8.75,3.9263967 -8.75,8.75 0,4.823603 3.9263967,8.75 8.75,8.75 4.823603,0 8.75,-3.926397 8.75,-8.75 0,-4.8236033 -3.926397,-8.75 -8.75,-8.75 z m 0,1.5 c 4.012944,0 7.25,3.2370561 7.25,7.25 0,4.012944 -3.237056,7.25 -7.25,7.25 C 7.9870561,19.25 4.75,16.012944 4.75,12 4.75,7.9870561 7.9870561,4.75 12,4.75 Z"
     id="circle2" />
  <path
     style="color:#000000;fill:currentColor;-inkscape-stroke:none"
     d="M 3.5566406,5.2578125 C 2.6912566,5.312901 1.8611828,5.5664948 1.4824219,6.3261719 1.1291902,7.0346455 1.3728975,7.8014656 1.7851562,8.4765625 2.197415,9.1516594 2.8328785,9.8395071 3.6542969,10.5625 c 1.6428367,1.445986 4.0393401,3.01198 6.8515621,4.414063 2.812154,1.402134 5.504947,2.372646 7.648438,2.814453 1.071745,0.220903 2.003758,0.315316 2.791015,0.238281 0.787258,-0.07703 1.547149,-0.344269 1.900391,-1.052735 0.37973,-0.76149 0.07879,-1.576678 -0.400391,-2.302734 -0.479177,-0.726055 -1.210212,-1.474604 -2.152343,-2.259765 l -0.960938,1.152343 c 0.871067,0.725937 1.514682,1.408351 1.861328,1.933594 0.346647,0.525243 0.321764,0.780231 0.308594,0.806641 -0.01226,0.02458 -0.160643,0.175432 -0.703125,0.228515 -0.542482,0.05308 -1.362632,-0.01107 -2.341797,-0.21289 -1.958329,-0.403643 -4.565309,-1.333337 -7.28125,-2.6875 C 8.4597691,12.280651 6.1474071,10.756623 4.6464844,9.4355469 3.896023,8.7750086 3.3504821,8.1605026 3.0664063,7.6953125 2.7823304,7.2301224 2.8139089,7.0187363 2.8261719,6.9941406 2.8393206,6.9677685 3.0253086,6.7956508 3.6503906,6.7558594 4.2754726,6.716068 5.205084,6.8174784 6.3046875,7.0742187 L 6.6464844,5.6132812 C 5.4567302,5.3354921 4.4220246,5.202724 3.5566406,5.2578125 Z"
     id="path4" />
</svg>
