<?xml version="1.0" encoding="UTF-8" standalone="no"?>
<svg
   width="24"
   height="24"
   viewBox="0 0 24 24"
   stroke-width="1.5"
   fill="none"
   version="1.1"
   id="svg18"
   sodipodi:docname="planimetry.svg"
   inkscape:version="1.2.1 (9c6d41e410, 2022-07-14)"
   xmlns:inkscape="http://www.inkscape.org/namespaces/inkscape"
   xmlns:sodipodi="http://sodipodi.sourceforge.net/DTD/sodipodi-0.dtd"
   xmlns="http://www.w3.org/2000/svg"
   xmlns:svg="http://www.w3.org/2000/svg">
  <defs
     id="defs22" />
  <sodipodi:namedview
     id="namedview20"
     pagecolor="#ffffff"
     bordercolor="#666666"
     borderopacity="1.0"
     inkscape:showpageshadow="2"
     inkscape:pageopacity="0.0"
     inkscape:pagecheckerboard="0"
     inkscape:deskcolor="#d1d1d1"
     showgrid="false"
     inkscape:zoom="34.541667"
     inkscape:cx="10.364294"
     inkscape:cy="12.014475"
     inkscape:window-width="1920"
     inkscape:window-height="1009"
     inkscape:window-x="1912"
     inkscape:window-y="-8"
     inkscape:window-maximized="1"
     inkscape:current-layer="svg18" />
  <path
     style="color:#000000;fill:currentColor;stroke-linecap:round;stroke-linejoin:round;-inkscape-stroke:none"
     d="M 3,10.25 A 0.75,0.75 0 0 0 2.25,11 0.75,0.75 0 0 0 3,11.75 h 7.25 V 16 A 0.75,0.75 0 0 0 11,16.75 0.75,0.75 0 0 0 11.75,16 V 11 A 0.750075,0.750075 0 0 0 11,10.25 Z"
     id="path2" />
  <path
     style="color:#000000;fill:currentColor;stroke-linecap:round;stroke-linejoin:round;-inkscape-stroke:none"
     d="M 15,7.25 A 0.750075,0.750075 0 0 0 14.25,8 v 2 A 0.75,0.75 0 0 0 15,10.75 0.75,0.75 0 0 0 15.75,10 V 8.75 H 21 A 0.75,0.75 0 0 0 21.75,8 0.75,0.75 0 0 0 21,7.25 Z"
     id="path4" />
  <path
     style="color:#000000;fill:currentColor;stroke-linecap:round;stroke-linejoin:round;-inkscape-stroke:none"
     d="M 15,17.25 A 0.75,0.75 0 0 0 14.25,18 v 3 A 0.75,0.75 0 0 0 15,21.75 0.75,0.75 0 0 0 15.75,21 V 18 A 0.75,0.75 0 0 0 15,17.25 Z"
     id="path6" />
  <path
     style="color:#000000;fill:currentColor;stroke-linecap:round;stroke-linejoin:round;-inkscape-stroke:none"
     d="M 11,18.25 A 0.75,0.75 0 0 0 10.25,19 v 2 A 0.75,0.75 0 0 0 11,21.75 0.75,0.75 0 0 0 11.75,21 V 19 A 0.75,0.75 0 0 0 11,18.25 Z"
     id="path8" />
  <path
     style="color:#000000;fill:currentColor;stroke-linecap:round;stroke-linejoin:round;-inkscape-stroke:none"
     d="M 11,2.25 A 0.75,0.75 0 0 0 10.25,3 V 6 A 0.75,0.75 0 0 0 11,6.75 0.75,0.75 0 0 0 11.75,6 V 3 A 0.75,0.75 0 0 0 11,2.25 Z"
     id="path10" />
  <path
     style="color:#000000;fill:currentColor;stroke-linecap:round;stroke-linejoin:round;-inkscape-stroke:none"
     d="M 15,12.25 A 0.75,0.75 0 0 0 14.25,13 v 2 A 0.750075,0.750075 0 0 0 15,15.75 h 6 A 0.75,0.75 0 0 0 21.75,15 0.75,0.75 0 0 0 21,14.25 H 15.75 V 13 A 0.75,0.75 0 0 0 15,12.25 Z"
     id="path12" />
  <path
     style="color:#000000;fill:currentColor;stroke-linecap:round;stroke-linejoin:round;-inkscape-stroke:none"
     d="M 11,8.25 A 0.75,0.75 0 0 0 10.25,9 v 2 A 0.75,0.75 0 0 0 11,11.75 0.75,0.75 0 0 0 11.75,11 V 9 A 0.75,0.75 0 0 0 11,8.25 Z"
     id="path14" />
  <path
     style="color:#000000;fill:currentColor;stroke-linecap:round;stroke-linejoin:round;-inkscape-stroke:none"
     d="M 3.5996094,2.25 C 2.8629077,2.25 2.25,2.8629077 2.25,3.5996094 V 20.400391 C 2.25,21.137086 2.862953,21.75 3.5996094,21.75 H 20.400391 C 21.13704,21.75 21.75,21.13704 21.75,20.400391 V 3.5996094 C 21.75,2.862953 21.137086,2.25 20.400391,2.25 Z M 3.75,3.75 h 16.5 v 16.5 H 3.75 Z"
     id="path16" />
</svg>
