<?xml version="1.0" encoding="UTF-8" standalone="no"?>
<svg
   width="24"
   height="24"
   stroke-width="1.5"
   viewBox="0 0 24 24"
   fill="none"
   version="1.1"
   id="svg12"
   sodipodi:docname="plug-type-l.svg"
   inkscape:version="1.2.1 (9c6d41e410, 2022-07-14)"
   xmlns:inkscape="http://www.inkscape.org/namespaces/inkscape"
   xmlns:sodipodi="http://sodipodi.sourceforge.net/DTD/sodipodi-0.dtd"
   xmlns="http://www.w3.org/2000/svg"
   xmlns:svg="http://www.w3.org/2000/svg">
  <defs
     id="defs16" />
  <sodipodi:namedview
     id="namedview14"
     pagecolor="#ffffff"
     bordercolor="#666666"
     borderopacity="1.0"
     inkscape:showpageshadow="2"
     inkscape:pageopacity="0.0"
     inkscape:pagecheckerboard="0"
     inkscape:deskcolor="#d1d1d1"
     showgrid="false"
     inkscape:zoom="34.541667"
     inkscape:cx="10.364294"
     inkscape:cy="12.014475"
     inkscape:window-width="1920"
     inkscape:window-height="1009"
     inkscape:window-x="1912"
     inkscape:window-y="-8"
     inkscape:window-maximized="1"
     inkscape:current-layer="svg12" />
  <path
     style="color:#000000;fill:currentColor;stroke-linecap:round;stroke-linejoin:round;-inkscape-stroke:none"
     d="M 5.5996094,2.25 C 4.8629077,2.25 4.25,2.8629077 4.25,3.5996094 V 20.400391 C 4.25,21.137086 4.862953,21.75 5.5996094,21.75 H 10 A 0.75,0.75 0 0 0 10.75,21 0.75,0.75 0 0 0 10,20.25 H 5.75 V 3.75 H 10 A 0.75,0.75 0 0 0 10.75,3 0.75,0.75 0 0 0 10,2.25 Z"
     id="path2" />
  <path
     style="color:#000000;fill:currentColor;stroke-linecap:round;stroke-linejoin:round;-inkscape-stroke:none"
     d="M 11,6.25 A 0.75,0.75 0 0 0 10.25,7 0.75,0.75 0 0 0 11,7.75 h 2 A 0.75,0.75 0 0 0 13.75,7 0.75,0.75 0 0 0 13,6.25 Z"
     id="path4" />
  <path
     style="color:#000000;fill:currentColor;stroke-linecap:round;stroke-linejoin:round;-inkscape-stroke:none"
     d="M 11,11.25 A 0.75,0.75 0 0 0 10.25,12 0.75,0.75 0 0 0 11,12.75 h 2 A 0.75,0.75 0 0 0 13.75,12 0.75,0.75 0 0 0 13,11.25 Z"
     id="path6" />
  <path
     style="color:#000000;fill:currentColor;stroke-linecap:round;stroke-linejoin:round;-inkscape-stroke:none"
     d="M 11,16.25 A 0.75,0.75 0 0 0 10.25,17 0.75,0.75 0 0 0 11,17.75 h 2 A 0.75,0.75 0 0 0 13.75,17 0.75,0.75 0 0 0 13,16.25 Z"
     id="path8" />
  <path
     style="color:#000000;fill:currentColor;stroke-linecap:round;stroke-linejoin:round;-inkscape-stroke:none"
     d="M 14,2.25 A 0.75,0.75 0 0 0 13.25,3 0.75,0.75 0 0 0 14,3.75 h 4.25 v 16.5 H 14 A 0.75,0.75 0 0 0 13.25,21 0.75,0.75 0 0 0 14,21.75 h 4.400391 C 19.13704,21.75 19.75,21.13704 19.75,20.400391 V 3.5996094 C 19.75,2.862953 19.137086,2.25 18.400391,2.25 Z"
     id="path10" />
</svg>
