<?xml version="1.0" encoding="UTF-8" standalone="no"?>
<svg
   width="24"
   height="24"
   stroke-width="1.5"
   viewBox="0 0 24 24"
   fill="none"
   version="1.1"
   id="svg20"
   sodipodi:docname="plus-square-dashed.svg"
   inkscape:version="1.2.1 (9c6d41e410, 2022-07-14)"
   xmlns:inkscape="http://www.inkscape.org/namespaces/inkscape"
   xmlns:sodipodi="http://sodipodi.sourceforge.net/DTD/sodipodi-0.dtd"
   xmlns="http://www.w3.org/2000/svg"
   xmlns:svg="http://www.w3.org/2000/svg">
  <defs
     id="defs24" />
  <sodipodi:namedview
     id="namedview22"
     pagecolor="#ffffff"
     bordercolor="#666666"
     borderopacity="1.0"
     inkscape:showpageshadow="2"
     inkscape:pageopacity="0.0"
     inkscape:pagecheckerboard="0"
     inkscape:deskcolor="#d1d1d1"
     showgrid="false"
     inkscape:zoom="34.541667"
     inkscape:cx="10.364294"
     inkscape:cy="12.014475"
     inkscape:window-width="1920"
     inkscape:window-height="1009"
     inkscape:window-x="1912"
     inkscape:window-y="-8"
     inkscape:window-maximized="1"
     inkscape:current-layer="svg20" />
  <path
     style="color:#000000;fill:currentColor;stroke-linecap:round;stroke-linejoin:round;-inkscape-stroke:none"
     d="M 12,7.25 A 0.75,0.75 0 0 0 11.25,8 v 3.25 H 8 A 0.75,0.75 0 0 0 7.25,12 0.75,0.75 0 0 0 8,12.75 h 3.25 V 16 A 0.75,0.75 0 0 0 12,16.75 0.75,0.75 0 0 0 12.75,16 V 12.75 H 16 A 0.75,0.75 0 0 0 16.75,12 0.75,0.75 0 0 0 16,11.25 H 12.75 V 8 A 0.75,0.75 0 0 0 12,7.25 Z"
     id="path2" />
  <path
     style="color:#000000;fill:currentColor;stroke-linecap:round;stroke-linejoin:round;-inkscape-stroke:none"
     d="M 4,3.25 A 0.750075,0.750075 0 0 0 3.25,4 V 7 A 0.75,0.75 0 0 0 4,7.75 0.75,0.75 0 0 0 4.75,7 V 4.75 H 7 A 0.75,0.75 0 0 0 7.75,4 0.75,0.75 0 0 0 7,3.25 Z"
     id="path4" />
  <path
     style="color:#000000;fill:currentColor;stroke-linecap:round;stroke-linejoin:round;-inkscape-stroke:none"
     d="M 4,10.25 A 0.75,0.75 0 0 0 3.25,11 v 2 A 0.75,0.75 0 0 0 4,13.75 0.75,0.75 0 0 0 4.75,13 V 11 A 0.75,0.75 0 0 0 4,10.25 Z"
     id="path6" />
  <path
     style="color:#000000;fill:currentColor;stroke-linecap:round;stroke-linejoin:round;-inkscape-stroke:none"
     d="M 11,3.25 A 0.75,0.75 0 0 0 10.25,4 0.75,0.75 0 0 0 11,4.75 h 2 A 0.75,0.75 0 0 0 13.75,4 0.75,0.75 0 0 0 13,3.25 Z"
     id="path8" />
  <path
     style="color:#000000;fill:currentColor;stroke-linecap:round;stroke-linejoin:round;-inkscape-stroke:none"
     d="M 11,19.25 A 0.75,0.75 0 0 0 10.25,20 0.75,0.75 0 0 0 11,20.75 h 2 A 0.75,0.75 0 0 0 13.75,20 0.75,0.75 0 0 0 13,19.25 Z"
     id="path10" />
  <path
     style="color:#000000;fill:currentColor;stroke-linecap:round;stroke-linejoin:round;-inkscape-stroke:none"
     d="M 20,10.25 A 0.75,0.75 0 0 0 19.25,11 v 2 A 0.75,0.75 0 0 0 20,13.75 0.75,0.75 0 0 0 20.75,13 V 11 A 0.75,0.75 0 0 0 20,10.25 Z"
     id="path12" />
  <path
     style="color:#000000;fill:currentColor;stroke-linecap:round;stroke-linejoin:round;-inkscape-stroke:none"
     d="M 17,3.25 A 0.75,0.75 0 0 0 16.25,4 0.75,0.75 0 0 0 17,4.75 h 2.25 V 7 A 0.75,0.75 0 0 0 20,7.75 0.75,0.75 0 0 0 20.75,7 V 4 A 0.750075,0.750075 0 0 0 20,3.25 Z"
     id="path14" />
  <path
     style="color:#000000;fill:currentColor;stroke-linecap:round;stroke-linejoin:round;-inkscape-stroke:none"
     d="M 4,16.25 A 0.75,0.75 0 0 0 3.25,17 v 3 A 0.750075,0.750075 0 0 0 4,20.75 H 7 A 0.75,0.75 0 0 0 7.75,20 0.75,0.75 0 0 0 7,19.25 H 4.75 V 17 A 0.75,0.75 0 0 0 4,16.25 Z"
     id="path16" />
  <path
     style="color:#000000;fill:currentColor;stroke-linecap:round;stroke-linejoin:round;-inkscape-stroke:none"
     d="M 20,16.25 A 0.75,0.75 0 0 0 19.25,17 v 2.25 H 17 A 0.75,0.75 0 0 0 16.25,20 0.75,0.75 0 0 0 17,20.75 h 3 A 0.750075,0.750075 0 0 0 20.75,20 V 17 A 0.75,0.75 0 0 0 20,16.25 Z"
     id="path18" />
</svg>
