<?xml version="1.0" encoding="UTF-8" standalone="no"?>
<svg
   width="24"
   height="24"
   viewBox="0 0 24 24"
   stroke-width="1.5"
   fill="none"
   version="1.1"
   id="svg12"
   sodipodi:docname="podcast.svg"
   inkscape:version="1.2.1 (9c6d41e410, 2022-07-14)"
   xmlns:inkscape="http://www.inkscape.org/namespaces/inkscape"
   xmlns:sodipodi="http://sodipodi.sourceforge.net/DTD/sodipodi-0.dtd"
   xmlns="http://www.w3.org/2000/svg"
   xmlns:svg="http://www.w3.org/2000/svg">
  <defs
     id="defs16" />
  <sodipodi:namedview
     id="namedview14"
     pagecolor="#ffffff"
     bordercolor="#666666"
     borderopacity="1.0"
     inkscape:showpageshadow="2"
     inkscape:pageopacity="0.0"
     inkscape:pagecheckerboard="0"
     inkscape:deskcolor="#d1d1d1"
     showgrid="false"
     inkscape:zoom="34.541667"
     inkscape:cx="10.364294"
     inkscape:cy="12.014475"
     inkscape:window-width="1920"
     inkscape:window-height="1009"
     inkscape:window-x="1912"
     inkscape:window-y="-8"
     inkscape:window-maximized="1"
     inkscape:current-layer="svg12" />
  <path
     style="color:#000000;fill:currentColor;stroke-linecap:round;stroke-linejoin:round;-inkscape-stroke:none"
     d="M 12,0.25 C 6.0718263,0.25 1.25,5.0718263 1.25,11 c 0,3.51171 1.6884657,6.638901 4.2988281,8.599609 A 0.75,0.75 0 0 0 6.5996094,19.451172 0.75,0.75 0 0 0 6.4511719,18.400391 C 4.2037591,16.712303 2.75,14.031484 2.75,11 2.75,5.8824848 6.8824848,1.75 12,1.75 c 5.117462,0 9.25,4.1324893 9.25,9.25 0,3.031485 -1.45375,5.712303 -3.701172,7.400391 a 0.75,0.75 0 0 0 -0.148437,1.050781 0.75,0.75 0 0 0 1.050781,0.148437 C 21.061546,17.6389 22.75,14.511708 22.75,11 22.75,5.0718217 17.928127,0.25 12,0.25 Z"
     id="path2" />
  <path
     style="color:#000000;fill:currentColor;stroke-linecap:round;stroke-linejoin:round;-inkscape-stroke:none"
     d="M 12,0.25 C 6.0718263,0.25 1.25,5.0718263 1.25,11 c 0,3.51171 1.6884657,6.638901 4.2988281,8.599609 A 0.75,0.75 0 0 0 6.5996094,19.451172 0.75,0.75 0 0 0 6.4511719,18.400391 C 4.2037591,16.712303 2.75,14.031484 2.75,11 2.75,5.8824848 6.8824848,1.75 12,1.75 c 5.117462,0 9.25,4.1324893 9.25,9.25 0,3.031485 -1.45375,5.712303 -3.701172,7.400391 a 0.75,0.75 0 0 0 -0.148437,1.050781 0.75,0.75 0 0 0 1.050781,0.148437 C 21.061546,17.6389 22.75,14.511708 22.75,11 22.75,5.0718217 17.928127,0.25 12,0.25 Z"
     id="path4" />
  <path
     style="color:#000000;fill:currentColor;stroke-linecap:round;stroke-linejoin:round;-inkscape-stroke:none"
     d="m 12,4.25 c -3.719036,0 -6.75,3.030964 -6.75,6.75 0,1.724669 0.6505997,3.306583 1.71875,4.5 A 0.75,0.75 0 0 0 8.0273438,15.558594 0.75,0.75 0 0 0 8.0859375,14.5 C 7.2539297,13.570419 6.75,12.348728 6.75,11 6.75,8.0916226 9.0916226,5.75 12,5.75 c 2.908366,0 5.25,2.3416241 5.25,5.25 0,1.348731 -0.503915,2.570422 -1.335937,3.5 a 0.75,0.75 0 0 0 0.05859,1.058594 A 0.75,0.75 0 0 0 17.03125,15.5 C 18.099426,14.30658 18.75,12.724666 18.75,11 18.75,7.2809625 15.719027,4.25 12,4.25 Z"
     id="path6" />
  <path
     style="color:#000000;fill:currentColor;stroke-linecap:round;stroke-linejoin:round;-inkscape-stroke:none"
     d="m 12,8.25 c -1.509917,0 -2.75,1.2401154 -2.75,2.75 0,1.509904 1.240096,2.75 2.75,2.75 1.509904,0 2.75,-1.240096 2.75,-2.75 0,-1.5098846 -1.240083,-2.75 -2.75,-2.75 z m 0,1.5 c 0.699281,0 1.25,0.550747 1.25,1.25 0,0.699294 -0.550706,1.25 -1.25,1.25 -0.699294,0 -1.25,-0.550706 -1.25,-1.25 0,-0.699253 0.550719,-1.25 1.25,-1.25 z"
     id="path8" />
  <path
     style="color:#000000;fill:currentColor;stroke-linecap:round;stroke-linejoin:round;-inkscape-stroke:none"
     d="m 12,14.654297 c -0.532236,0 -1.064417,0.153599 -1.525391,0.460937 l -0.8144527,0.542969 c -0.898929,0.599185 -1.3651028,1.674673 -1.1875,2.740234 l 0.5097656,3.052735 C 9.2025785,22.772139 10.3542,23.75 11.693359,23.75 h 0.613282 c 1.339159,0 2.490819,-0.977845 2.710937,-2.298828 l 0.509766,-3.052735 c 0.177614,-1.065547 -0.288518,-2.141049 -1.1875,-2.740234 L 13.525391,15.115234 C 13.064417,14.807896 12.532236,14.654297 12,14.654297 Z m -0.693359,1.708984 c 0.421651,-0.281122 0.965067,-0.281122 1.386718,0 l 0.814454,0.542969 c 0.410816,0.273815 0.620248,0.759043 0.539062,1.246094 l -0.507812,3.052734 C 13.437781,21.812893 12.922879,22.25 12.306641,22.25 h -0.613282 c -0.616238,0 -1.131118,-0.437091 -1.232421,-1.044922 L 9.953125,18.152344 c -0.081177,-0.487037 0.128273,-0.97228 0.539063,-1.246094 z"
     id="path10" />
</svg>
