<?xml version="1.0" encoding="UTF-8" standalone="no"?>
<svg
   width="24"
   height="24"
   viewBox="0 0 24 24"
   stroke-width="1.5"
   fill="none"
   version="1.1"
   id="svg4"
   sodipodi:docname="polar-sh.svg"
   inkscape:version="1.3.1 (91b66b0783, 2023-11-16)"
   xmlns:inkscape="http://www.inkscape.org/namespaces/inkscape"
   xmlns:sodipodi="http://sodipodi.sourceforge.net/DTD/sodipodi-0.dtd"
   xmlns="http://www.w3.org/2000/svg"
   xmlns:svg="http://www.w3.org/2000/svg">
  <defs
     id="defs4" />
  <sodipodi:namedview
     id="namedview4"
     pagecolor="#ffffff"
     bordercolor="#666666"
     borderopacity="1.0"
     inkscape:showpageshadow="2"
     inkscape:pageopacity="0.0"
     inkscape:pagecheckerboard="0"
     inkscape:deskcolor="#d1d1d1"
     inkscape:zoom="33.875"
     inkscape:cx="11.98524"
     inkscape:cy="12"
     inkscape:window-width="1920"
     inkscape:window-height="1009"
     inkscape:window-x="1912"
     inkscape:window-y="-8"
     inkscape:window-maximized="1"
     inkscape:current-layer="svg4" />
  <path
     style="color:#000000;fill:currentColor;stroke-linecap:round;stroke-linejoin:round;-inkscape-stroke:none"
     d="M 12,1.25 C 6.0718263,1.25 1.25,6.0718263 1.25,12 1.25,17.928127 6.0718217,22.75 12,22.75 17.928132,22.75 22.75,17.928132 22.75,12 22.75,6.0718217 17.928127,1.25 12,1.25 Z m 0,1.5 c 5.117462,0 9.25,4.1324893 9.25,9.25 0,5.117457 -4.132543,9.25 -9.25,9.25 C 6.8824893,21.25 2.75,17.117462 2.75,12 2.75,6.8824848 6.8824848,2.75 12,2.75 Z"
     id="path1" />
  <path
     style="color:#000000;fill:currentColor;stroke-linecap:round;stroke-linejoin:round;-inkscape-stroke:none"
     d="M 12,1.25 C 11.194385,1.25 10.470715,1.6663527 9.8984375,2.2714844 9.3261604,2.876616 8.8609655,3.6845004 8.4746094,4.6503906 7.7018972,6.5821711 7.25,9.1575119 7.25,12 c 0,2.842464 0.4518978,5.417824 1.2246094,7.349609 0.3863558,0.965893 0.8515518,1.773771 1.4238281,2.378907 C 10.470714,22.333651 11.194382,22.75 12,22.75 c 0.805613,0 1.529289,-0.41635 2.101563,-1.021484 0.572273,-0.605135 1.037469,-1.413014 1.423828,-2.378907 C 16.298107,17.417825 16.75,14.842466 16.75,12 16.75,9.1575101 16.298108,6.5821701 15.525391,4.6503906 15.139032,3.6845009 14.673836,2.8766151 14.101563,2.2714844 13.529289,1.6663537 12.80561,1.25 12,1.25 Z m 0,1.5 c 0.298939,0 0.626891,0.1438583 1.011719,0.5507813 0.384828,0.4069229 0.78359,1.0624977 1.121094,1.9062499 C 14.807819,6.8945357 15.25,9.3196454 15.25,12 c 0,2.680329 -0.44218,5.105457 -1.117187,6.792969 -0.337504,0.843756 -0.736265,1.499323 -1.121094,1.90625 C 12.62689,21.106146 12.298936,21.25 12,21.25 11.701049,21.25 11.373111,21.106145 10.988281,20.699219 10.603452,20.292293 10.204688,19.636724 9.8671875,18.792969 9.1921856,17.105458 8.75,14.680331 8.75,12 8.75,9.3196436 9.1921861,6.8945346 9.8671875,5.2070312 10.204688,4.3632796 10.603452,3.7077033 10.988281,3.3007813 11.37311,2.8938592 11.701046,2.75 12,2.75 Z"
     id="path2" />
  <path
     style="color:#000000;fill:currentColor;stroke-linecap:round;stroke-linejoin:round;-inkscape-stroke:none"
     d="M 10.123047,2.2597656 A 0.75,0.75 0 0 0 9.5644531,2.390625 C 5.8475718,5.0455402 4.25,9.1479602 4.25,12.5 c 0,1.635858 0.2542106,3.581325 0.9257812,5.3125 0.6715707,1.731175 1.7993267,3.30225 3.5878907,3.898437 A 0.75,0.75 0 0 0 9.7109375,21.236328 0.75,0.75 0 0 0 9.2363281,20.289062 C 8.0248951,19.885251 7.1526469,18.760603 6.5742187,17.269531 5.9957906,15.778459 5.75,13.975139 5.75,12.5 5.75,9.630126 7.1524352,5.9544548 10.435547,3.609375 A 0.75,0.75 0 0 0 10.609375,2.5644531 0.75,0.75 0 0 0 10.123047,2.2597656 Z"
     id="path3" />
  <path
     style="color:#000000;fill:currentColor;stroke-linecap:round;stroke-linejoin:round;-inkscape-stroke:none"
     d="m 15.236328,2.2890625 a 0.75,0.75 0 0 0 -0.947265,0.4746094 0.75,0.75 0 0 0 0.474609,0.9472656 c 1.21143,0.4038101 2.083681,1.5284535 2.662109,3.0195312 C 18.00421,8.2215465 18.25,10.024883 18.25,11.5 c 0,2.869917 -1.402432,6.545543 -4.685547,8.890625 a 0.75,0.75 0 0 0 -0.173828,1.044922 0.75,0.75 0 0 0 1.044922,0.173828 C 18.152425,18.954462 19.75,14.852077 19.75,11.5 19.75,9.8641606 19.495789,7.918679 18.824219,6.1875 18.152649,4.456321 17.024895,2.8852514 15.236328,2.2890625 Z"
     id="path4" />
</svg>
