<?xml version="1.0" encoding="UTF-8" standalone="no"?>
<svg
   width="24"
   height="24"
   viewBox="0 0 24 24"
   stroke-width="1.5"
   fill="none"
   version="1.1"
   id="svg10"
   sodipodi:docname="post.svg"
   inkscape:version="1.2.1 (9c6d41e410, 2022-07-14)"
   xmlns:inkscape="http://www.inkscape.org/namespaces/inkscape"
   xmlns:sodipodi="http://sodipodi.sourceforge.net/DTD/sodipodi-0.dtd"
   xmlns="http://www.w3.org/2000/svg"
   xmlns:svg="http://www.w3.org/2000/svg">
  <defs
     id="defs14" />
  <sodipodi:namedview
     id="namedview12"
     pagecolor="#ffffff"
     bordercolor="#666666"
     borderopacity="1.0"
     inkscape:showpageshadow="2"
     inkscape:pageopacity="0.0"
     inkscape:pagecheckerboard="0"
     inkscape:deskcolor="#d1d1d1"
     showgrid="false"
     inkscape:zoom="34.541667"
     inkscape:cx="10.364294"
     inkscape:cy="12.014475"
     inkscape:window-width="1920"
     inkscape:window-height="1009"
     inkscape:window-x="1912"
     inkscape:window-y="-8"
     inkscape:window-maximized="1"
     inkscape:current-layer="svg10" />
  <path
     style="color:#000000;fill:currentColor;-inkscape-stroke:none"
     d="m 7.7851562,1.3574219 c -1.486955,-0.2621811 -2.925305,0.7435125 -3.1875,2.2304687 L 2.1679688,17.375 c -0.2621945,1.486967 0.7435128,2.923366 2.2304687,3.185547 l 11.8164065,2.083984 c 1.486991,0.262185 2.92532,-0.74351 3.1875,-2.230469 L 21.832031,6.6269531 C 22.09421,5.1400112 21.088528,3.7036005 19.601562,3.4414063 Z M 7.5234375,2.8339844 19.341797,4.9179687 c 0.688632,0.1214254 1.135093,0.7586297 1.013672,1.4472657 L 17.923828,20.152344 c -0.12142,0.688639 -0.758659,1.137039 -1.447266,1.015625 L 4.6582031,19.083984 C 3.9695812,18.962566 3.5231061,18.323397 3.6445313,17.634766 L 6.0761719,3.8476563 C 6.1975965,3.1590346 6.8348147,2.7125659 7.5234375,2.8339844 Z"
     id="path2" />
  <path
     style="color:#000000;fill:currentColor;stroke-linecap:round;-inkscape-stroke:none"
     d="m 9.0585938,5.6425781 a 0.75,0.75 0 0 0 -0.8691407,0.609375 0.75,0.75 0 0 0 0.609375,0.8691406 L 16.677734,8.5097656 A 0.75,0.75 0 0 0 17.546875,7.9003906 0.75,0.75 0 0 0 16.9375,7.0332031 Z"
     id="path4" />
  <path
     style="color:#000000;fill:currentColor;stroke-linecap:round;-inkscape-stroke:none"
     d="m 8.3652344,9.5820313 a 0.75,0.75 0 0 0 -0.8691407,0.6093747 0.75,0.75 0 0 0 0.6074219,0.869141 l 7.8789064,1.388672 a 0.75,0.75 0 0 0 0.86914,-0.609375 0.75,0.75 0 0 0 -0.609375,-0.867188 z"
     id="path6" />
  <path
     style="color:#000000;fill:currentColor;stroke-linecap:round;-inkscape-stroke:none"
     d="M 7.6699219,13.521484 A 0.75,0.75 0 0 0 6.8007812,14.130859 0.75,0.75 0 0 0 7.4101562,15 l 4.9238278,0.867188 a 0.75,0.75 0 0 0 0.869141,-0.607422 0.75,0.75 0 0 0 -0.609375,-0.869141 z"
     id="path8" />
</svg>
