<?xml version="1.0" encoding="UTF-8" standalone="no"?>
<svg
   width="24"
   height="24"
   viewBox="0 0 24 24"
   stroke-width="1.5"
   fill="none"
   version="1.1"
   id="svg10"
   sodipodi:docname="potion.svg"
   inkscape:version="1.2.1 (9c6d41e410, 2022-07-14)"
   xmlns:inkscape="http://www.inkscape.org/namespaces/inkscape"
   xmlns:sodipodi="http://sodipodi.sourceforge.net/DTD/sodipodi-0.dtd"
   xmlns="http://www.w3.org/2000/svg"
   xmlns:svg="http://www.w3.org/2000/svg">
  <defs
     id="defs14" />
  <sodipodi:namedview
     id="namedview12"
     pagecolor="#ffffff"
     bordercolor="#666666"
     borderopacity="1.0"
     inkscape:showpageshadow="2"
     inkscape:pageopacity="0.0"
     inkscape:pagecheckerboard="0"
     inkscape:deskcolor="#d1d1d1"
     showgrid="false"
     inkscape:zoom="34.541667"
     inkscape:cx="10.364294"
     inkscape:cy="12.014475"
     inkscape:window-width="1920"
     inkscape:window-height="1009"
     inkscape:window-x="1912"
     inkscape:window-y="-8"
     inkscape:window-maximized="1"
     inkscape:current-layer="svg10" />
  <path
     style="color:#000000;fill:currentColor;stroke-linecap:round;stroke-linejoin:round;-inkscape-stroke:none"
     d="M 10,3.25 A 0.750075,0.750075 0 0 0 9.25,4 V 6.4863281 C 4.7519252,8.2289365 2.9387283,12.259476 3.1328125,15.822266 3.2304562,17.614703 3.8087307,19.309082 4.8085937,20.59375 5.8084568,21.878418 7.2772561,22.75 9,22.75 h 6 c 1.722754,0 3.191542,-0.871581 4.191406,-2.15625 0.999864,-1.284669 1.578141,-2.979047 1.675781,-4.771484 C 21.061265,12.259476 19.248046,8.2289375 14.75,6.4863281 V 4 A 0.750075,0.750075 0 0 0 14,3.25 Z m 0.75,1.5 h 2.5 v 1.8183594 c 0,0.5891275 0.376112,1.0825205 0.896484,1.2792968 3.964589,1.4995785 5.388026,4.8587578 5.222657,7.8945318 -0.08268,1.517886 -0.585701,2.933127 -1.361329,3.929687 C 17.232185,20.668435 16.230543,21.25 15,21.25 H 9 C 7.7694719,21.25 6.7678155,20.668436 5.9921875,19.671875 5.2165595,18.675314 4.7135468,17.260074 4.6308594,15.742188 4.4654846,12.706414 5.8888961,9.3472358 9.8535156,7.8476562 10.373835,7.6508457 10.75,7.1574869 10.75,6.5683594 Z"
     id="path2" />
  <path
     style="color:#000000;fill:currentColor;-inkscape-stroke:none"
     d="m 6,9.25 v 1.5 h 12 v -1.5 z"
     id="path4" />
  <path
     style="color:#000000;fill:currentColor;stroke-linecap:round;-inkscape-stroke:none"
     d="M 9,1.25 A 0.75,0.75 0 0 0 8.25,2 0.75,0.75 0 0 0 9,2.75 h 6 A 0.75,0.75 0 0 0 15.75,2 0.75,0.75 0 0 0 15,1.25 Z"
     id="path6" />
  <path
     style="color:#000000;fill:currentColor;stroke-linecap:round;stroke-linejoin:round;-inkscape-stroke:none"
     d="m 11.460938,12.279297 a 0.75,0.75 0 0 0 -0.449219,0.357422 l -1.667969,3 A 0.750075,0.750075 0 0 0 10,16.75 h 2.724609 l -1.046875,1.886719 a 0.75,0.75 0 0 0 0.291016,1.019531 0.75,0.75 0 0 0 1.019531,-0.292969 l 1.667969,-3 A 0.750075,0.750075 0 0 0 14,15.25 h -2.724609 l 1.046875,-1.886719 A 0.75,0.75 0 0 0 12.03125,12.34375 0.75,0.75 0 0 0 11.460938,12.279297 Z"
     id="path8" />
</svg>
