<?xml version="1.0" encoding="UTF-8" standalone="no"?>
<svg
   width="24"
   height="24"
   stroke-width="1.5"
   viewBox="0 0 24 24"
   fill="none"
   version="1.1"
   id="svg8"
   sodipodi:docname="pound.svg"
   inkscape:version="1.2.1 (9c6d41e410, 2022-07-14)"
   xmlns:inkscape="http://www.inkscape.org/namespaces/inkscape"
   xmlns:sodipodi="http://sodipodi.sourceforge.net/DTD/sodipodi-0.dtd"
   xmlns="http://www.w3.org/2000/svg"
   xmlns:svg="http://www.w3.org/2000/svg">
  <defs
     id="defs12" />
  <sodipodi:namedview
     id="namedview10"
     pagecolor="#ffffff"
     bordercolor="#666666"
     borderopacity="1.0"
     inkscape:showpageshadow="2"
     inkscape:pageopacity="0.0"
     inkscape:pagecheckerboard="0"
     inkscape:deskcolor="#d1d1d1"
     showgrid="false"
     inkscape:zoom="34.541667"
     inkscape:cx="10.364294"
     inkscape:cy="12.014475"
     inkscape:window-width="1920"
     inkscape:window-height="1009"
     inkscape:window-x="1912"
     inkscape:window-y="-8"
     inkscape:window-maximized="1"
     inkscape:current-layer="svg8" />
  <path
     style="color:#000000;fill:currentColor;stroke-linecap:round;stroke-linejoin:round;-inkscape-stroke:none"
     d="M 10.380859,12.90625 A 0.75,0.75 0 0 0 9.9746094,13.3125 C 8.8976265,15.897174 7.2562822,18.405236 5.3417969,19.324219 A 0.750075,0.750075 0 0 0 5.6660156,20.75 H 16.222656 c 0,0 1.915478,0.05081 3.296875,-1.275391 a 0.75,0.75 0 0 0 0.02148,-1.060547 0.75,0.75 0 0 0 -1.060547,-0.02148 C 17.639668,19.19978 16.222656,19.25 16.222656,19.25 H 7.9511719 c 1.4788165,-1.425949 2.5914031,-3.401073 3.4082031,-5.361328 a 0.75,0.75 0 0 0 -0.404297,-0.980469 0.75,0.75 0 0 0 -0.574219,-0.002 z"
     id="path2" />
  <path
     style="color:#000000;fill:currentColor;stroke-linecap:round;stroke-linejoin:round;-inkscape-stroke:none"
     d="m 4,12.849609 a 0.75,0.75 0 0 0 -0.75,0.75 0.75,0.75 0 0 0 0.75,0.75 h 11.111328 a 0.75,0.75 0 0 0 0.75,-0.75 0.75,0.75 0 0 0 -0.75,-0.75 z"
     id="path4" />
  <path
     style="color:#000000;fill:currentColor;stroke-linecap:round;stroke-linejoin:round;-inkscape-stroke:none"
     d="m 12.333984,3.25 c -3.1505247,0 -5.7499996,2.4775953 -5.7499996,5.5507813 0,3.0732107 2.5994803,5.5488277 5.7499996,5.5488277 a 0.75,0.75 0 0 0 0.75,-0.75 0.75,0.75 0 0 0 -0.75,-0.75 c -2.3722944,0 -4.2499996,-1.820044 -4.2499996,-4.0488277 C 8.0839844,6.5720325 9.961695,4.75 12.333984,4.75 c 2.372278,0 4.25,1.8220363 4.25,4.0507813 a 0.75,0.75 0 0 0 0.75,0.75 0.75,0.75 0 0 0 0.75,-0.75 C 18.083984,5.7275915 15.484501,3.25 12.333984,3.25 Z"
     id="path6" />
</svg>
