<?xml version="1.0" encoding="UTF-8" standalone="no"?>
<svg
   width="24"
   height="24"
   viewBox="0 0 24 24"
   stroke-width="1.5"
   fill="none"
   version="1.1"
   id="svg14"
   sodipodi:docname="presentation.svg"
   inkscape:version="1.2.1 (9c6d41e410, 2022-07-14)"
   xmlns:inkscape="http://www.inkscape.org/namespaces/inkscape"
   xmlns:sodipodi="http://sodipodi.sourceforge.net/DTD/sodipodi-0.dtd"
   xmlns="http://www.w3.org/2000/svg"
   xmlns:svg="http://www.w3.org/2000/svg">
  <defs
     id="defs18" />
  <sodipodi:namedview
     id="namedview16"
     pagecolor="#ffffff"
     bordercolor="#666666"
     borderopacity="1.0"
     inkscape:showpageshadow="2"
     inkscape:pageopacity="0.0"
     inkscape:pagecheckerboard="0"
     inkscape:deskcolor="#d1d1d1"
     showgrid="false"
     inkscape:zoom="34.541667"
     inkscape:cx="10.364294"
     inkscape:cy="12.014475"
     inkscape:window-width="1920"
     inkscape:window-height="1009"
     inkscape:window-x="1912"
     inkscape:window-y="-8"
     inkscape:window-maximized="1"
     inkscape:current-layer="svg14" />
  <path
     style="color:#000000;fill:currentColor;stroke-linecap:round;stroke-linejoin:round;-inkscape-stroke:none"
     d="M 2.5996094,3.25 C 1.8629077,3.25 1.25,3.8629077 1.25,4.5996094 V 17.400391 C 1.25,18.137086 1.862953,18.75 2.5996094,18.75 H 21.400391 C 22.13704,18.75 22.75,18.13704 22.75,17.400391 V 4.5996094 C 22.75,3.862953 22.137086,3.25 21.400391,3.25 Z M 2.75,4.75 h 18.5 v 12.5 H 2.75 Z"
     id="path2" />
  <path
     style="color:#000000;fill:currentColor;stroke-linecap:round;stroke-linejoin:round;-inkscape-stroke:none"
     d="m 11.46875,17.46875 -3.5,3.5 a 0.75,0.75 0 0 0 0,1.0625 0.75,0.75 0 0 0 1.0625,0 L 12,19.0625 l 2.96875,2.96875 a 0.75,0.75 0 0 0 1.0625,0 0.75,0.75 0 0 0 0,-1.0625 l -3.5,-3.5 a 0.750075,0.750075 0 0 0 -1.0625,0 z"
     id="path4" />
  <path
     style="color:#000000;fill:currentColor;stroke-linecap:round;stroke-linejoin:round;-inkscape-stroke:none"
     d="M 12,1.25 A 0.75,0.75 0 0 0 11.25,2 V 4 A 0.75,0.75 0 0 0 12,4.75 0.75,0.75 0 0 0 12.75,4 V 2 A 0.75,0.75 0 0 0 12,1.25 Z"
     id="path6" />
  <path
     style="color:#000000;fill:currentColor;stroke-linecap:round;stroke-linejoin:round;-inkscape-stroke:none"
     d="M 9,11.25 A 0.75,0.75 0 0 0 8.25,12 v 2 A 0.75,0.75 0 0 0 9,14.75 0.75,0.75 0 0 0 9.75,14 V 12 A 0.75,0.75 0 0 0 9,11.25 Z"
     id="path8" />
  <path
     style="color:#000000;fill:currentColor;stroke-linecap:round;stroke-linejoin:round;-inkscape-stroke:none"
     d="M 12,9.25 A 0.75,0.75 0 0 0 11.25,10 v 4 A 0.75,0.75 0 0 0 12,14.75 0.75,0.75 0 0 0 12.75,14 V 10 A 0.75,0.75 0 0 0 12,9.25 Z"
     id="path10" />
  <path
     style="color:#000000;fill:currentColor;stroke-linecap:round;stroke-linejoin:round;-inkscape-stroke:none"
     d="M 15,7.25 A 0.75,0.75 0 0 0 14.25,8 v 6 A 0.75,0.75 0 0 0 15,14.75 0.75,0.75 0 0 0 15.75,14 V 8 A 0.75,0.75 0 0 0 15,7.25 Z"
     id="path12" />
</svg>
