<?xml version="1.0" encoding="UTF-8" standalone="no"?>
<svg
   width="24"
   height="24"
   stroke-width="1.5"
   viewBox="0 0 24 24"
   fill="none"
   version="1.1"
   id="svg6"
   sodipodi:docname="printer.svg"
   inkscape:version="1.2.1 (9c6d41e410, 2022-07-14)"
   xmlns:inkscape="http://www.inkscape.org/namespaces/inkscape"
   xmlns:sodipodi="http://sodipodi.sourceforge.net/DTD/sodipodi-0.dtd"
   xmlns="http://www.w3.org/2000/svg"
   xmlns:svg="http://www.w3.org/2000/svg">
  <defs
     id="defs10" />
  <sodipodi:namedview
     id="namedview8"
     pagecolor="#ffffff"
     bordercolor="#666666"
     borderopacity="1.0"
     inkscape:showpageshadow="2"
     inkscape:pageopacity="0.0"
     inkscape:pagecheckerboard="0"
     inkscape:deskcolor="#d1d1d1"
     showgrid="false"
     inkscape:zoom="34.541667"
     inkscape:cx="10.364294"
     inkscape:cy="12.014475"
     inkscape:window-width="1920"
     inkscape:window-height="1009"
     inkscape:window-x="1912"
     inkscape:window-y="-8"
     inkscape:window-maximized="1"
     inkscape:current-layer="svg6" />
  <path
     style="color:#000000;fill:currentColor;stroke-linecap:round;stroke-linejoin:round;-inkscape-stroke:none"
     d="m 16.970703,12.25 a 0.75,0.75 0 0 0 -0.517578,0.246094 l -0.0098,0.01172 a 0.75,0.75 0 0 0 0.05469,1.058593 0.75,0.75 0 0 0 1.058594,-0.05469 L 17.566406,13.5 A 0.75,0.75 0 0 0 17.511719,12.441406 0.75,0.75 0 0 0 16.970703,12.25 Z"
     id="path2" />
  <path
     style="color:#000000;fill:currentColor;stroke-linecap:round;stroke-linejoin:round;-inkscape-stroke:none"
     d="M 6.5996094,2.25 C 5.8629077,2.25 5.25,2.8629077 5.25,3.5996094 V 9.6054688 C 3.4994964,10.30688 2.25,12.005277 2.25,14 v 6.400391 C 2.25,21.137086 2.862953,21.75 3.5996094,21.75 H 20.400391 C 21.13704,21.75 21.75,21.13704 21.75,20.400391 V 14 c 0,-1.99473 -1.249502,-3.693122 -3,-4.3945312 V 3.5996094 C 18.75,2.862953 18.137086,2.25 17.400391,2.25 Z M 6.75,3.75 h 10.5 V 9.3007813 C 17.162632,9.2959481 17.088531,9.25 17,9.25 H 7 c -0.088532,0 -0.162631,0.045948 -0.25,0.050781 z m 0.25,7 h 10 c 1.803752,0 3.25,1.446248 3.25,3.25 v 6.25 H 3.75 V 14 c 0,-1.803761 1.4462005,-3.25 3.25,-3.25 z m 0,5.5 A 0.75,0.75 0 0 0 6.25,17 0.75,0.75 0 0 0 7,17.75 H 17 A 0.75,0.75 0 0 0 17.75,17 0.75,0.75 0 0 0 17,16.25 Z"
     id="path4" />
</svg>
