<?xml version="1.0" encoding="UTF-8" standalone="no"?>
<svg
   width="24"
   height="24"
   stroke-width="1.5"
   viewBox="0 0 24 24"
   fill="none"
   version="1.1"
   id="svg10"
   sodipodi:docname="printing-page.svg"
   inkscape:version="1.2.1 (9c6d41e410, 2022-07-14)"
   xmlns:inkscape="http://www.inkscape.org/namespaces/inkscape"
   xmlns:sodipodi="http://sodipodi.sourceforge.net/DTD/sodipodi-0.dtd"
   xmlns="http://www.w3.org/2000/svg"
   xmlns:svg="http://www.w3.org/2000/svg">
  <defs
     id="defs14" />
  <sodipodi:namedview
     id="namedview12"
     pagecolor="#ffffff"
     bordercolor="#666666"
     borderopacity="1.0"
     inkscape:showpageshadow="2"
     inkscape:pageopacity="0.0"
     inkscape:pagecheckerboard="0"
     inkscape:deskcolor="#d1d1d1"
     showgrid="false"
     inkscape:zoom="34.541667"
     inkscape:cx="10.364294"
     inkscape:cy="12.014475"
     inkscape:window-width="1920"
     inkscape:window-height="1009"
     inkscape:window-x="1912"
     inkscape:window-y="-8"
     inkscape:window-maximized="1"
     inkscape:current-layer="svg10" />
  <path
     style="color:#000000;fill:currentColor;-inkscape-stroke:none"
     d="M 7,6.25 C 4.3855329,6.25 2.25,8.3855329 2.25,11 v 6.400391 C 2.25,18.137086 2.862953,18.75 3.5996094,18.75 h 2.828125 v -1.5 H 3.75 V 11 C 3.75,9.1961915 5.1961915,7.75 7,7.75 h 10 c 1.803761,0 3.25,1.4462005 3.25,3.25 v 6.25 h -2.677734 v 1.5 h 2.828125 C 21.13704,18.75 21.75,18.13704 21.75,17.400391 V 11 C 21.75,8.3855239 19.614434,6.25 17,6.25 Z"
     id="path2" />
  <path
     style="color:#000000;fill:currentColor;-inkscape-stroke:none"
     d="M 8.5996094,2.25 C 7.8629077,2.25 7.25,2.8629077 7.25,3.5996094 V 7 h 1.5 V 3.75 h 6.5 V 7 h 1.5 V 3.5996094 C 16.75,2.862953 16.137086,2.25 15.400391,2.25 Z"
     id="path4" />
  <path
     style="color:#000000;fill:currentColor;-inkscape-stroke:none"
     d="m 7.5195312,13.25 c -0.6663176,0 -1.2416837,0.498673 -1.3359375,1.158203 L 5.6855469,17.894531 5.3554687,20.208984 C 5.2412108,21.008834 5.8834211,21.75 6.6914062,21.75 H 17.308594 c 0.807991,0 1.450338,-0.741098 1.335937,-1.541016 L 18.314453,17.894531 17.816406,14.408203 C 17.722025,13.748876 17.146784,13.25 16.480469,13.25 Z m 0.1308594,1.5 H 16.349609 L 16.828125,18.105469 17.134766,20.25 H 6.8652344 L 7.171875,18.105469 Z"
     id="path6" />
  <path
     style="color:#000000;fill:currentColor;stroke-linecap:round;stroke-linejoin:round;-inkscape-stroke:none"
     d="m 16.970703,9.25 a 0.75,0.75 0 0 0 -0.517578,0.2480469 l -0.0098,0.00977 a 0.75,0.75 0 0 0 0.05469,1.0605465 0.75,0.75 0 0 0 1.058594,-0.05664 L 17.568359,10.5 A 0.75,0.75 0 0 0 17.511719,9.4414063 0.75,0.75 0 0 0 16.970703,9.25 Z"
     id="path8" />
</svg>
