<?xml version="1.0" encoding="UTF-8" standalone="no"?>
<svg
   width="24"
   height="24"
   viewBox="0 0 24 24"
   stroke-width="1.5"
   fill="none"
   version="1.1"
   id="svg15"
   sodipodi:docname="priority-medium.svg"
   inkscape:version="1.2.1 (9c6d41e410, 2022-07-14)"
   xmlns:inkscape="http://www.inkscape.org/namespaces/inkscape"
   xmlns:sodipodi="http://sodipodi.sourceforge.net/DTD/sodipodi-0.dtd"
   xmlns="http://www.w3.org/2000/svg"
   xmlns:svg="http://www.w3.org/2000/svg">
  <sodipodi:namedview
     id="namedview17"
     pagecolor="#ffffff"
     bordercolor="#666666"
     borderopacity="1.0"
     inkscape:showpageshadow="2"
     inkscape:pageopacity="0.0"
     inkscape:pagecheckerboard="0"
     inkscape:deskcolor="#d1d1d1"
     showgrid="false"
     inkscape:zoom="34.541667"
     inkscape:cx="10.364294"
     inkscape:cy="12.014475"
     inkscape:window-width="1920"
     inkscape:window-height="1009"
     inkscape:window-x="1912"
     inkscape:window-y="-8"
     inkscape:window-maximized="1"
     inkscape:current-layer="svg15" />
  <path
     style="color:#000000;fill:currentColor;stroke-linecap:round;stroke-linejoin:round;-inkscape-stroke:none"
     d="m 12,0.50390625 c -0.347056,5.35e-6 -0.694616,0.13015208 -0.955078,0.390625 L 0.89453125,11.044922 c -0.5207624,0.520962 -0.52094584,1.389233 0,1.910156 L 11.044922,23.105469 c 0.520983,0.520983 1.389302,0.520854 1.910156,0 L 23.105469,12.955078 c 0.520983,-0.520983 0.520854,-1.389302 0,-1.910156 L 12.955078,0.89453125 C 12.694597,0.63415005 12.347056,0.5039009 12,0.50390625 Z M 12,2.0605469 21.939453,12 12,21.939453 2.0605469,12 Z"
     id="path2" />
  <path
     style="color:#000000;fill:currentColor;stroke-linecap:round;stroke-linejoin:round;-inkscape-stroke:none"
     d="M 6,11.25 A 0.75,0.75 0 0 0 5.25,12 0.75,0.75 0 0 0 6,12.75 h 4 A 0.75,0.75 0 0 0 10.75,12 0.75,0.75 0 0 0 10,11.25 Z"
     id="path4" />
  <path
     style="color:#000000;fill:currentColor;stroke-linecap:round;stroke-linejoin:round;-inkscape-stroke:none"
     d="M 14,11.25 A 0.75,0.75 0 0 0 13.25,12 0.75,0.75 0 0 0 14,12.75 h 4 A 0.75,0.75 0 0 0 18.75,12 0.75,0.75 0 0 0 18,11.25 Z"
     id="path6" />
  <defs
     id="defs13">
    <clipPath
       clipPathUnits="userSpaceOnUse"
       id="clipPath199">
      <g
         id="g203">
        <rect
           width="24"
           height="24"
           fill="#ffffff"
           id="rect201"
           x="0"
           y="0" />
      </g>
    </clipPath>
    <clipPath
       clipPathUnits="userSpaceOnUse"
       id="clipPath205">
      <g
         id="g209">
        <rect
           width="24"
           height="24"
           fill="#ffffff"
           id="rect207"
           x="0"
           y="0" />
      </g>
    </clipPath>
    <clipPath
       clipPathUnits="userSpaceOnUse"
       id="clipPath211">
      <g
         id="g215">
        <rect
           width="24"
           height="24"
           fill="#ffffff"
           id="rect213"
           x="0"
           y="0" />
      </g>
    </clipPath>
  </defs>
</svg>
