<?xml version="1.0" encoding="UTF-8" standalone="no"?>
<svg
   width="24"
   height="24"
   viewBox="0 0 24 24"
   stroke-width="1.5"
   fill="none"
   version="1.1"
   id="svg12"
   sodipodi:docname="private-wifi.svg"
   inkscape:version="1.2.1 (9c6d41e410, 2022-07-14)"
   xmlns:inkscape="http://www.inkscape.org/namespaces/inkscape"
   xmlns:sodipodi="http://sodipodi.sourceforge.net/DTD/sodipodi-0.dtd"
   xmlns="http://www.w3.org/2000/svg"
   xmlns:svg="http://www.w3.org/2000/svg">
  <defs
     id="defs16" />
  <sodipodi:namedview
     id="namedview14"
     pagecolor="#ffffff"
     bordercolor="#666666"
     borderopacity="1.0"
     inkscape:showpageshadow="2"
     inkscape:pageopacity="0.0"
     inkscape:pagecheckerboard="0"
     inkscape:deskcolor="#d1d1d1"
     showgrid="false"
     inkscape:zoom="34.541667"
     inkscape:cx="10.364294"
     inkscape:cy="12.014475"
     inkscape:window-width="1920"
     inkscape:window-height="1009"
     inkscape:window-x="1912"
     inkscape:window-y="-8"
     inkscape:window-maximized="1"
     inkscape:current-layer="svg12" />
  <path
     style="color:#000000;fill:currentColor;stroke-linecap:round;stroke-linejoin:round;-inkscape-stroke:none"
     d="m 11.970703,17.75 a 0.75,0.75 0 0 0 -0.517578,0.246094 l -0.0098,0.01172 a 0.75,0.75 0 0 0 0.05469,1.058594 0.75,0.75 0 0 0 1.058594,-0.05469 L 12.566406,19 A 0.75,0.75 0 0 0 12.511719,17.941406 0.75,0.75 0 0 0 11.970703,17.75 Z"
     id="path2" />
  <path
     style="color:#000000;fill:currentColor;stroke-linecap:round;stroke-linejoin:round;-inkscape-stroke:none"
     d="m 12,2.8808594 c -3.6609963,0 -7.3212219,1.1735336 -10.4492188,3.5195312 A 0.75,0.75 0 0 0 1.4003906,7.4492187 0.75,0.75 0 0 0 2.4492188,7.5996094 c 5.7439942,-4.3079957 13.3575682,-4.3079957 19.1015622,0 A 0.75,0.75 0 0 0 22.599609,7.4492187 0.75,0.75 0 0 0 22.449219,6.4003906 C 19.321222,4.054393 15.660996,2.8808594 12,2.8808594 Z"
     id="path4" />
  <path
     style="color:#000000;fill:currentColor;stroke-linecap:round;stroke-linejoin:round;-inkscape-stroke:none"
     d="m 12,7.9882812 c -2.6529973,0 -5.3052209,0.804111 -7.4492188,2.4121098 a 0.75,0.75 0 0 0 -0.1503906,1.048828 0.75,0.75 0 0 0 1.0488281,0.15039 c 3.7119963,-2.7839968 9.3895663,-2.7839968 13.1015623,0 a 0.75,0.75 0 0 0 1.048828,-0.15039 0.75,0.75 0 0 0 -0.15039,-1.048828 C 17.305221,8.7923922 14.652997,7.9882813 12,7.9882812 Z"
     id="path6" />
  <path
     style="color:#000000;fill:currentColor;stroke-linecap:round;stroke-linejoin:round;-inkscape-stroke:none"
     d="m 12,12.714844 c -1.332673,5.1e-5 -2.665568,0.38267 -3.8964844,1.148437 a 0.75,0.75 0 0 0 -0.2402344,1.033203 0.75,0.75 0 0 0 1.0332032,0.240235 c 2.0389626,-1.268463 4.1682976,-1.268739 6.2070316,0 a 0.75,0.75 0 0 0 1.033203,-0.240235 0.75,0.75 0 0 0 -0.240235,-1.033203 C 14.665553,13.097252 13.332673,12.714793 12,12.714844 Z"
     id="path8" />
  <path
     style="color:#000000;fill:currentColor;stroke-linecap:round;stroke-linejoin:round;-inkscape-stroke:none"
     d="m 19.5,14.25 c -0.885411,0 -1.586865,0.451161 -1.951172,0.982422 -0.364307,0.531261 -0.464844,1.083035 -0.464844,1.517578 v 1.216797 C 16.622121,18.182986 16.25,18.562738 16.25,19.099609 v 2.300782 c 0,0.736649 0.61296,1.349609 1.349609,1.349609 h 3.800782 C 22.13704,22.75 22.75,22.13704 22.75,21.400391 v -2.300782 c 0,-0.536871 -0.372121,-0.916623 -0.833984,-1.132812 V 16.75 c 0,-0.434543 -0.100537,-0.986317 -0.464844,-1.517578 C 21.086865,14.701161 20.385411,14.25 19.5,14.25 Z m 0,1.5 c 0.447888,0 0.579126,0.132165 0.714844,0.330078 0.135717,0.197914 0.201172,0.521166 0.201172,0.669922 v 1 h -1.832032 v -1 c 0,-0.148756 0.06546,-0.472008 0.201172,-0.669922 C 18.920874,15.882165 19.052112,15.75 19.5,15.75 Z m -1.75,3.5 h 0.08398 3.332032 0.08398 v 2 h -3.5 z"
     id="path10" />
</svg>
