<?xml version="1.0" encoding="UTF-8" standalone="no"?>
<svg
   width="24"
   height="24"
   viewBox="0 0 24 24"
   stroke-width="1.5"
   fill="none"
   version="1.1"
   id="svg10"
   sodipodi:docname="privacy-policy.svg"
   inkscape:version="1.2.1 (9c6d41e410, 2022-07-14)"
   xmlns:inkscape="http://www.inkscape.org/namespaces/inkscape"
   xmlns:sodipodi="http://sodipodi.sourceforge.net/DTD/sodipodi-0.dtd"
   xmlns="http://www.w3.org/2000/svg"
   xmlns:svg="http://www.w3.org/2000/svg">
  <defs
     id="defs14" />
  <sodipodi:namedview
     id="namedview12"
     pagecolor="#ffffff"
     bordercolor="#666666"
     borderopacity="1.0"
     inkscape:showpageshadow="2"
     inkscape:pageopacity="0.0"
     inkscape:pagecheckerboard="0"
     inkscape:deskcolor="#d1d1d1"
     showgrid="false"
     inkscape:zoom="34.541667"
     inkscape:cx="10.364294"
     inkscape:cy="12.014475"
     inkscape:window-width="1920"
     inkscape:window-height="1009"
     inkscape:window-x="1912"
     inkscape:window-y="-8"
     inkscape:window-maximized="1"
     inkscape:current-layer="svg10" />
  <path
     style="color:#000000;fill:currentColor;stroke-linecap:round;stroke-linejoin:round;-inkscape-stroke:none"
     d="M 4.5996094,1.25 C 3.8629077,1.25 3.25,1.8629077 3.25,2.5996094 V 21.400391 C 3.25,22.137086 3.862953,22.75 4.5996094,22.75 H 13 A 0.75,0.75 0 0 0 13.75,22 0.75,0.75 0 0 0 13,21.25 H 4.75 V 2.75 H 16.1875 L 19.25,5.8105469 V 12 A 0.75,0.75 0 0 0 20,12.75 0.75,0.75 0 0 0 20.75,12 V 5.7480469 c 0,-0.3577094 -0.14162,-0.7001462 -0.394531,-0.953125 a 0.750075,0.750075 0 0 0 0,-0.00195 L 17.207031,1.6445312 h -0.002 C 16.952233,1.3923213 16.609076,1.25 16.251953,1.25 Z"
     id="path2" />
  <path
     style="color:#000000;fill:currentColor;stroke-linecap:round;stroke-linejoin:round;-inkscape-stroke:none"
     d="M 8,5.25 A 0.75,0.75 0 0 0 7.25,6 0.75,0.75 0 0 0 8,6.75 h 4 A 0.75,0.75 0 0 0 12.75,6 0.75,0.75 0 0 0 12,5.25 Z m 0,4 A 0.75,0.75 0 0 0 7.25,10 0.75,0.75 0 0 0 8,10.75 h 8 A 0.75,0.75 0 0 0 16.75,10 0.75,0.75 0 0 0 16,9.25 Z m 0,4 A 0.75,0.75 0 0 0 7.25,14 0.75,0.75 0 0 0 8,14.75 h 3 A 0.75,0.75 0 0 0 11.75,14 0.75,0.75 0 0 0 11,13.25 Z"
     id="path4" />
  <path
     style="color:#000000;fill:currentColor;stroke-linecap:round;stroke-linejoin:round;-inkscape-stroke:none"
     d="M 16,1.25 A 0.75,0.75 0 0 0 15.25,2 V 5.4003906 C 15.25,6.137047 15.862914,6.75 16.599609,6.75 H 20 A 0.75,0.75 0 0 0 20.75,6 0.75,0.75 0 0 0 20,5.25 H 16.75 V 2 A 0.75,0.75 0 0 0 16,1.25 Z"
     id="path6" />
  <path
     style="color:#000000;fill:currentColor;stroke-linecap:round;stroke-linejoin:round;-inkscape-stroke:none"
     d="m 18.822266,14.398438 -2.554688,0.648437 c -0.598027,0.15198 -1.028568,0.705028 -1.009765,1.333984 0.09011,3.022013 1.028559,4.883684 2.003906,5.960938 0.975347,1.077254 2.044922,1.382812 2.044922,1.382812 a 0.750075,0.750075 0 0 0 0.386718,0 c 0,0 1.069575,-0.305558 2.044922,-1.382812 0.975347,-1.077254 1.913797,-2.938925 2.003906,-5.960938 0.0188,-0.628956 -0.411738,-1.182004 -1.009765,-1.333984 l -2.554688,-0.648437 c -0.444125,-0.112716 -0.911343,-0.112716 -1.355468,0 z m 0.36914,1.453125 c 0.202075,-0.05129 0.415113,-0.05129 0.617188,0 l 2.412109,0.613281 c -0.10812,2.631619 -0.880054,4.080876 -1.59375,4.86914 -0.621411,0.686338 -0.987333,0.75888 -1.126953,0.802735 -0.13962,-0.04386 -0.505542,-0.116397 -1.126953,-0.802735 -0.713696,-0.788264 -1.48563,-2.237521 -1.59375,-4.86914 z"
     id="path8" />
</svg>
