<?xml version="1.0" encoding="UTF-8" standalone="no"?>
<svg
   width="24"
   height="24"
   viewBox="0 0 24 24"
   stroke-width="1.5"
   fill="none"
   version="1.1"
   id="svg10"
   sodipodi:docname="project-curve-3d.svg"
   inkscape:version="1.2.1 (9c6d41e410, 2022-07-14)"
   xmlns:inkscape="http://www.inkscape.org/namespaces/inkscape"
   xmlns:sodipodi="http://sodipodi.sourceforge.net/DTD/sodipodi-0.dtd"
   xmlns="http://www.w3.org/2000/svg"
   xmlns:svg="http://www.w3.org/2000/svg">
  <defs
     id="defs14" />
  <sodipodi:namedview
     id="namedview12"
     pagecolor="#ffffff"
     bordercolor="#666666"
     borderopacity="1.0"
     inkscape:showpageshadow="2"
     inkscape:pageopacity="0.0"
     inkscape:pagecheckerboard="0"
     inkscape:deskcolor="#d1d1d1"
     showgrid="false"
     inkscape:zoom="34.541667"
     inkscape:cx="10.364294"
     inkscape:cy="12.014475"
     inkscape:window-width="1920"
     inkscape:window-height="1009"
     inkscape:window-x="1912"
     inkscape:window-y="-8"
     inkscape:window-maximized="1"
     inkscape:current-layer="svg10" />
  <path
     style="color:#000000;fill:currentColor;stroke-linecap:round;stroke-linejoin:round;-inkscape-stroke:none"
     d="m 12,12.25 c -2.5753528,0 -4.9099117,0.454964 -6.6679688,1.236328 C 4.4530027,13.87701 3.713552,14.348389 3.1640625,14.925781 2.614573,15.503174 2.25,16.219723 2.25,17 c 0,0.780277 0.364573,1.496826 0.9140625,2.074219 0.5494895,0.577392 1.2889402,1.048771 2.1679687,1.439453 C 7.0900883,21.295036 9.4246472,21.75 12,21.75 c 2.575372,0 4.909916,-0.454964 6.667969,-1.236328 0.879026,-0.390682 1.618482,-0.86206 2.167968,-1.439453 C 21.385424,18.496826 21.75,17.780274 21.75,17 21.75,16.219726 21.385424,15.503174 20.835937,14.925781 20.286451,14.348388 19.546995,13.87701 18.667969,13.486328 16.909916,12.704964 14.575372,12.25 12,12.25 Z m 0,1.5 c 2.395223,0 4.5593,0.441063 6.058594,1.107422 0.749647,0.333179 1.330049,0.723807 1.691406,1.103516 0.361357,0.379708 0.5,0.714787 0.5,1.039062 0,0.324275 -0.138643,0.659354 -0.5,1.039062 -0.361357,0.379709 -0.941759,0.770337 -1.691406,1.103516 C 16.5593,19.808937 14.395223,20.25 12,20.25 9.6047978,20.25 7.4407059,19.808938 5.9414062,19.142578 5.1917564,18.809398 4.6113596,18.418772 4.25,18.039062 3.8886404,17.659353 3.75,17.324272 3.75,17 c 0,-0.324272 0.1386404,-0.659353 0.5,-1.039062 0.3613596,-0.37971 0.9417564,-0.770336 1.6914062,-1.103516 C 7.4407059,14.191062 9.6047978,13.75 12,13.75 Z"
     id="path2" />
  <path
     style="color:#000000;fill:currentColor;stroke-linecap:round;stroke-linejoin:round;-inkscape-stroke:none"
     d="M 12,1.25 C 9.9377819,1.25 8.25,2.9378347 8.25,5 V 6 A 0.750075,0.750075 0 0 0 9,6.75 h 6 A 0.750075,0.750075 0 0 0 15.75,6 V 5 C 15.75,2.9378347 14.062218,1.25 12,1.25 Z m 0,1.5 c 1.251579,0 2.25,0.9984686 2.25,2.25 V 5.25 H 9.75 V 5 C 9.75,3.7484686 10.748421,2.75 12,2.75 Z"
     id="path4" />
  <path
     style="color:#000000;fill:currentColor;stroke-linecap:round;stroke-linejoin:round;-inkscape-stroke:none"
     d="m 7.3027344,7.7773437 a 0.75,0.75 0 0 0 -0.453125,0.3496094 l -4,6.9999999 a 0.75,0.75 0 0 0 0.2773437,1.023438 0.75,0.75 0 0 0 1.0234375,-0.277344 l 4,-7.0000001 A 0.75,0.75 0 0 0 7.8730469,7.8496094 0.75,0.75 0 0 0 7.3027344,7.7773437 Z"
     id="path6" />
  <path
     style="color:#000000;fill:currentColor;stroke-linecap:round;stroke-linejoin:round;-inkscape-stroke:none"
     d="m 16.697266,7.7773437 a 0.75,0.75 0 0 0 -0.570313,0.072266 0.75,0.75 0 0 0 -0.277344,1.0234375 l 4,7.0000001 a 0.75,0.75 0 0 0 1.023438,0.277344 0.75,0.75 0 0 0 0.277344,-1.023438 l -4,-6.9999999 A 0.75,0.75 0 0 0 16.697266,7.7773437 Z"
     id="path8" />
</svg>
