<?xml version="1.0" encoding="UTF-8" standalone="no"?>
<svg
   width="24"
   height="24"
   stroke-width="1.5"
   viewBox="0 0 24 24"
   fill="none"
   version="1.1"
   id="svg18"
   sodipodi:docname="puzzle.svg"
   inkscape:version="1.2.1 (9c6d41e410, 2022-07-14)"
   xmlns:inkscape="http://www.inkscape.org/namespaces/inkscape"
   xmlns:sodipodi="http://sodipodi.sourceforge.net/DTD/sodipodi-0.dtd"
   xmlns="http://www.w3.org/2000/svg"
   xmlns:svg="http://www.w3.org/2000/svg">
  <defs
     id="defs22" />
  <sodipodi:namedview
     id="namedview20"
     pagecolor="#ffffff"
     bordercolor="#666666"
     borderopacity="1.0"
     inkscape:showpageshadow="2"
     inkscape:pageopacity="0.0"
     inkscape:pagecheckerboard="0"
     inkscape:deskcolor="#d1d1d1"
     showgrid="false"
     inkscape:zoom="34.541667"
     inkscape:cx="10.364294"
     inkscape:cy="12.014475"
     inkscape:window-width="1920"
     inkscape:window-height="1009"
     inkscape:window-x="1912"
     inkscape:window-y="-8"
     inkscape:window-maximized="1"
     inkscape:current-layer="svg18" />
  <path
     style="color:#000000;fill:currentColor;stroke-linecap:round;stroke-linejoin:round;-inkscape-stroke:none"
     d="M 4,13.25 A 0.75,0.75 0 0 0 3.25,14 v 4.400391 C 3.25,19.137086 3.862953,19.75 4.5996094,19.75 H 10 A 0.75,0.75 0 0 0 10.75,19 0.75,0.75 0 0 0 10,18.25 H 4.75 V 14 A 0.75,0.75 0 0 0 4,13.25 Z"
     id="path2" />
  <path
     style="color:#000000;fill:currentColor;stroke-linecap:round;stroke-linejoin:round;-inkscape-stroke:none"
     d="M 19,13.25 A 0.75,0.75 0 0 0 18.25,14 v 4.25 H 14 A 0.75,0.75 0 0 0 13.25,19 0.75,0.75 0 0 0 14,19.75 h 4.400391 C 19.13704,19.75 19.75,19.13704 19.75,18.400391 V 14 A 0.75,0.75 0 0 0 19,13.25 Z"
     id="path4" />
  <path
     style="color:#000000;fill:currentColor;stroke-linecap:round;stroke-linejoin:round;-inkscape-stroke:none"
     d="M 14,4.25 A 0.75,0.75 0 0 0 13.25,5 0.75,0.75 0 0 0 14,5.75 h 4.25 V 10 A 0.75,0.75 0 0 0 19,10.75 0.75,0.75 0 0 0 19.75,10 V 5.5996094 C 19.75,4.862953 19.137086,4.25 18.400391,4.25 Z"
     id="path6" />
  <path
     style="color:#000000;fill:currentColor;stroke-linecap:round;stroke-linejoin:round;-inkscape-stroke:none"
     d="M 4.5996094,4.25 C 3.8629077,4.25 3.25,4.8629077 3.25,5.5996094 V 10 A 0.75,0.75 0 0 0 4,10.75 0.75,0.75 0 0 0 4.75,10 V 5.75 H 10 A 0.75,0.75 0 0 0 10.75,5 0.75,0.75 0 0 0 10,4.25 Z"
     id="path8" />
  <path
     style="color:#000000;fill:currentColor;stroke-linecap:round;stroke-linejoin:round;-inkscape-stroke:none"
     d="M 10,18.25 A 0.75,0.75 0 0 0 9.25,19 v 1 c 0,1.509904 1.240096,2.75 2.75,2.75 1.509904,0 2.75,-1.240096 2.75,-2.75 V 19 A 0.75,0.75 0 0 0 14,18.25 0.75,0.75 0 0 0 13.25,19 v 1 c 0,0.699294 -0.550706,1.25 -1.25,1.25 -0.699294,0 -1.25,-0.550706 -1.25,-1.25 V 19 A 0.75,0.75 0 0 0 10,18.25 Z"
     id="path10" />
  <path
     style="color:#000000;fill:currentColor;stroke-linecap:round;stroke-linejoin:round;-inkscape-stroke:none"
     d="M 4,9.25 A 0.75,0.75 0 0 0 3.25,10 0.75,0.75 0 0 0 4,10.75 h 1 c 0.6992532,0 1.25,0.550719 1.25,1.25 0,0.699281 -0.5507468,1.25 -1.25,1.25 H 4 A 0.75,0.75 0 0 0 3.25,14 0.75,0.75 0 0 0 4,14.75 H 5 C 6.5098846,14.75 7.75,13.509917 7.75,12 7.75,10.490083 6.5098846,9.25 5,9.25 Z"
     id="path12" />
  <path
     style="color:#000000;fill:currentColor;stroke-linecap:round;stroke-linejoin:round;-inkscape-stroke:none"
     d="M 19,9.25 A 0.75,0.75 0 0 0 18.25,10 0.75,0.75 0 0 0 19,10.75 h 1 c 0.699294,0 1.25,0.550706 1.25,1.25 0,0.699294 -0.550706,1.25 -1.25,1.25 H 19 A 0.75,0.75 0 0 0 18.25,14 0.75,0.75 0 0 0 19,14.75 h 1 c 1.509904,0 2.75,-1.240096 2.75,-2.75 0,-1.509904 -1.240096,-2.75 -2.75,-2.75 z"
     id="path14" />
  <path
     style="color:#000000;fill:currentColor;stroke-linecap:round;stroke-linejoin:round;-inkscape-stroke:none"
     d="M 12,1.25 C 10.490083,1.25 9.25,2.4901154 9.25,4 V 5 A 0.75,0.75 0 0 0 10,5.75 0.75,0.75 0 0 0 10.75,5 V 4 c 0,-0.6992532 0.550719,-1.25 1.25,-1.25 0.699281,0 1.25,0.5507468 1.25,1.25 V 5 A 0.75,0.75 0 0 0 14,5.75 0.75,0.75 0 0 0 14.75,5 V 4 C 14.75,2.4901154 13.509917,1.25 12,1.25 Z"
     id="path16" />
</svg>
