<?xml version="1.0" encoding="UTF-8" standalone="no"?>
<svg
   width="24"
   height="24"
   stroke-width="1.5"
   viewBox="0 0 24 24"
   fill="none"
   version="1.1"
   id="svg42"
   sodipodi:docname="qr-code.svg"
   inkscape:version="1.2.1 (9c6d41e410, 2022-07-14)"
   xmlns:inkscape="http://www.inkscape.org/namespaces/inkscape"
   xmlns:sodipodi="http://sodipodi.sourceforge.net/DTD/sodipodi-0.dtd"
   xmlns="http://www.w3.org/2000/svg"
   xmlns:svg="http://www.w3.org/2000/svg">
  <defs
     id="defs46" />
  <sodipodi:namedview
     id="namedview44"
     pagecolor="#ffffff"
     bordercolor="#666666"
     borderopacity="1.0"
     inkscape:showpageshadow="2"
     inkscape:pageopacity="0.0"
     inkscape:pagecheckerboard="0"
     inkscape:deskcolor="#d1d1d1"
     showgrid="false"
     inkscape:zoom="34.541667"
     inkscape:cx="10.364294"
     inkscape:cy="12.014475"
     inkscape:window-width="1920"
     inkscape:window-height="1009"
     inkscape:window-x="1912"
     inkscape:window-y="-8"
     inkscape:window-maximized="1"
     inkscape:current-layer="svg42" />
  <path
     style="color:#000000;fill:currentColor;stroke-linecap:round;stroke-linejoin:round;-inkscape-stroke:none"
     d="M 15,11.25 A 0.75,0.75 0 0 0 14.25,12 v 3 A 0.75,0.75 0 0 0 15,15.75 0.75,0.75 0 0 0 15.75,15 V 12 A 0.75,0.75 0 0 0 15,11.25 Z"
     id="path2" />
  <path
     style="color:#000000;fill:currentColor;stroke-linecap:round;stroke-linejoin:round;-inkscape-stroke:none"
     d="M 12,2.25 A 0.75,0.75 0 0 0 11.25,3 V 6 A 0.75,0.75 0 0 0 12,6.75 0.75,0.75 0 0 0 12.75,6 V 3 A 0.75,0.75 0 0 0 12,2.25 Z"
     id="path4" />
  <path
     style="color:#000000;fill:currentColor;stroke-linecap:round;stroke-linejoin:round;-inkscape-stroke:none"
     d="M 18,11.25 A 0.75,0.75 0 0 0 17.25,12 v 3 A 0.75,0.75 0 0 0 18,15.75 0.75,0.75 0 0 0 18.75,15 V 12 A 0.75,0.75 0 0 0 18,11.25 Z"
     id="path6" />
  <path
     style="color:#000000;fill:currentColor;stroke-linecap:round;stroke-linejoin:round;-inkscape-stroke:none"
     d="M 12,17.25 A 0.75,0.75 0 0 0 11.25,18 0.75,0.75 0 0 0 12,18.75 h 9 A 0.75,0.75 0 0 0 21.75,18 0.75,0.75 0 0 0 21,17.25 Z"
     id="path8" />
  <path
     style="color:#000000;fill:currentColor;stroke-linecap:round;stroke-linejoin:round;-inkscape-stroke:none"
     d="M 18,20.25 A 0.75,0.75 0 0 0 17.25,21 0.75,0.75 0 0 0 18,21.75 h 3 A 0.75,0.75 0 0 0 21.75,21 0.75,0.75 0 0 0 21,20.25 Z"
     id="path10" />
  <path
     style="color:#000000;fill:currentColor;stroke-linecap:round;stroke-linejoin:round;-inkscape-stroke:none"
     d="M 6,11.25 A 0.75,0.75 0 0 0 5.25,12 0.75,0.75 0 0 0 6,12.75 H 9 A 0.75,0.75 0 0 0 9.75,12 0.75,0.75 0 0 0 9,11.25 Z"
     id="path12" />
  <path
     style="color:#000000;fill:currentColor;stroke-linecap:round;stroke-linejoin:round;-inkscape-stroke:none"
     d="M 5.9707031,5.2519531 A 0.75,0.75 0 0 0 5.453125,5.4980469 l -0.00977,0.011719 a 0.75,0.75 0 0 0 0.054687,1.0585938 0.75,0.75 0 0 0 1.0585937,-0.054687 l 0.011719,-0.011719 A 0.75,0.75 0 0 0 6.5117187,5.4433594 0.75,0.75 0 0 0 5.9707031,5.2519531 Z"
     id="path14" />
  <path
     style="color:#000000;fill:currentColor;stroke-linecap:round;stroke-linejoin:round;-inkscape-stroke:none"
     d="m 11.970703,11.251953 a 0.75,0.75 0 0 0 -0.517578,0.246094 l -0.0098,0.01172 a 0.75,0.75 0 0 0 0.05469,1.058593 0.75,0.75 0 0 0 1.058594,-0.05469 l 0.0098,-0.01172 a 0.75,0.75 0 0 0 -0.05469,-1.058594 0.75,0.75 0 0 0 -0.541016,-0.191406 z"
     id="path16" />
  <path
     style="color:#000000;fill:currentColor;stroke-linecap:round;stroke-linejoin:round;-inkscape-stroke:none"
     d="m 3.5117188,11.443359 a 0.75,0.75 0 0 0 -1.0585938,0.05469 l -0.00977,0.01172 a 0.75,0.75 0 0 0 0.054687,1.058593 0.75,0.75 0 0 0 1.0585937,-0.05469 l 0.00977,-0.01172 a 0.75,0.75 0 0 0 -0.054687,-1.058594 z"
     id="path18" />
  <path
     style="color:#000000;fill:currentColor;stroke-linecap:round;stroke-linejoin:round;-inkscape-stroke:none"
     d="m 12.511719,8.4433594 a 0.75,0.75 0 0 0 -1.058594,0.054687 l -0.0098,0.011719 a 0.75,0.75 0 0 0 0.05469,1.0585938 0.75,0.75 0 0 0 1.058594,-0.054687 l 0.01172,-0.011719 a 0.75,0.75 0 0 0 -0.05664,-1.0585937 z"
     id="path20" />
  <path
     style="color:#000000;fill:currentColor;stroke-linecap:round;stroke-linejoin:round;-inkscape-stroke:none"
     d="m 11.970703,14.251953 a 0.75,0.75 0 0 0 -0.517578,0.246094 l -0.0098,0.01172 a 0.75,0.75 0 0 0 0.05469,1.058593 0.75,0.75 0 0 0 1.058594,-0.05469 l 0.0098,-0.01172 a 0.75,0.75 0 0 0 -0.05469,-1.058594 0.75,0.75 0 0 0 -0.541016,-0.191406 z"
     id="path22" />
  <path
     style="color:#000000;fill:currentColor;stroke-linecap:round;stroke-linejoin:round;-inkscape-stroke:none"
     d="m 14.970703,20.251953 a 0.75,0.75 0 0 0 -0.517578,0.246094 l -0.0098,0.01172 a 0.75,0.75 0 0 0 0.05469,1.058593 0.75,0.75 0 0 0 1.058594,-0.05469 l 0.0098,-0.01172 a 0.75,0.75 0 0 0 -0.05469,-1.058594 0.75,0.75 0 0 0 -0.541016,-0.191406 z"
     id="path24" />
  <path
     style="color:#000000;fill:currentColor;stroke-linecap:round;stroke-linejoin:round;-inkscape-stroke:none"
     d="m 11.970703,20.251953 a 0.75,0.75 0 0 0 -0.517578,0.246094 l -0.0098,0.01172 a 0.75,0.75 0 0 0 0.05469,1.058593 0.75,0.75 0 0 0 1.058594,-0.05469 l 0.0098,-0.01172 a 0.75,0.75 0 0 0 -0.05469,-1.058594 0.75,0.75 0 0 0 -0.541016,-0.191406 z"
     id="path26" />
  <path
     style="color:#000000;fill:currentColor;stroke-linecap:round;stroke-linejoin:round;-inkscape-stroke:none"
     d="m 20.970703,11.251953 a 0.75,0.75 0 0 0 -0.517578,0.246094 l -0.0098,0.01172 a 0.75,0.75 0 0 0 0.05469,1.058593 0.75,0.75 0 0 0 1.058594,-0.05469 l 0.0098,-0.01172 a 0.75,0.75 0 0 0 -0.05469,-1.058594 0.75,0.75 0 0 0 -0.541016,-0.191406 z"
     id="path28" />
  <path
     style="color:#000000;fill:currentColor;stroke-linecap:round;stroke-linejoin:round;-inkscape-stroke:none"
     d="m 20.970703,14.251953 a 0.75,0.75 0 0 0 -0.517578,0.246094 l -0.0098,0.01172 a 0.75,0.75 0 0 0 0.05469,1.058593 0.75,0.75 0 0 0 1.058594,-0.05469 l 0.0098,-0.01172 a 0.75,0.75 0 0 0 -0.05469,-1.058594 0.75,0.75 0 0 0 -0.541016,-0.191406 z"
     id="path30" />
  <path
     style="color:#000000;fill:currentColor;stroke-linecap:round;stroke-linejoin:round;-inkscape-stroke:none"
     d="m 17.970703,5.2519531 a 0.75,0.75 0 0 0 -0.517578,0.2460938 l -0.0098,0.011719 a 0.75,0.75 0 0 0 0.05469,1.0585938 0.75,0.75 0 0 0 1.058594,-0.054687 l 0.01172,-0.011719 A 0.75,0.75 0 0 0 18.511719,5.4433594 0.75,0.75 0 0 0 17.970703,5.2519531 Z"
     id="path32" />
  <path
     style="color:#000000;fill:currentColor;stroke-linecap:round;stroke-linejoin:round;-inkscape-stroke:none"
     d="M 3.5996094,2.25 C 2.8629077,2.25 2.25,2.8629077 2.25,3.5996094 V 8.4003906 C 2.25,9.1370923 2.8629077,9.75 3.5996094,9.75 H 8.4003906 C 9.1370923,9.75 9.75,9.1370923 9.75,8.4003906 V 3.5996094 C 9.75,2.8629077 9.1370923,2.25 8.4003906,2.25 Z M 3.75,3.75 h 4.5 v 4.5 h -4.5 z"
     id="path34" />
  <path
     style="color:#000000;fill:currentColor;stroke-linecap:round;stroke-linejoin:round;-inkscape-stroke:none"
     d="M 15.599609,2.25 C 14.862914,2.25 14.25,2.862953 14.25,3.5996094 V 8.4003906 C 14.25,9.137047 14.862914,9.75 15.599609,9.75 h 4.800782 C 21.137086,9.75 21.75,9.137047 21.75,8.4003906 V 3.5996094 C 21.75,2.862953 21.137086,2.25 20.400391,2.25 Z M 15.75,3.75 h 4.5 v 4.5 h -4.5 z"
     id="path36" />
  <path
     style="color:#000000;fill:currentColor;stroke-linecap:round;stroke-linejoin:round;-inkscape-stroke:none"
     d="M 5.9707031,17.251953 A 0.75,0.75 0 0 0 5.453125,17.498047 l -0.00977,0.01172 a 0.75,0.75 0 0 0 0.054687,1.058593 0.75,0.75 0 0 0 1.0585937,-0.05469 l 0.00977,-0.01172 A 0.75,0.75 0 0 0 6.5117187,17.443359 0.75,0.75 0 0 0 5.9707031,17.251953 Z"
     id="path38" />
  <path
     style="color:#000000;fill:currentColor;stroke-linecap:round;stroke-linejoin:round;-inkscape-stroke:none"
     d="M 3.5996094,14.25 C 2.862953,14.25 2.25,14.862914 2.25,15.599609 v 4.800782 C 2.25,21.137086 2.862953,21.75 3.5996094,21.75 H 8.4003906 C 9.137047,21.75 9.75,21.137086 9.75,20.400391 V 15.599609 C 9.75,14.862914 9.137047,14.25 8.4003906,14.25 Z M 3.75,15.75 h 4.5 v 4.5 h -4.5 z"
     id="path40" />
</svg>
