<?xml version="1.0" encoding="UTF-8" standalone="no"?>
<svg
   width="24"
   height="24"
   stroke-width="1.5"
   viewBox="0 0 24 24"
   fill="none"
   version="1.1"
   id="svg6"
   sodipodi:docname="question-mark.svg"
   inkscape:version="1.2.1 (9c6d41e410, 2022-07-14)"
   xmlns:inkscape="http://www.inkscape.org/namespaces/inkscape"
   xmlns:sodipodi="http://sodipodi.sourceforge.net/DTD/sodipodi-0.dtd"
   xmlns="http://www.w3.org/2000/svg"
   xmlns:svg="http://www.w3.org/2000/svg">
  <defs
     id="defs10" />
  <sodipodi:namedview
     id="namedview8"
     pagecolor="#ffffff"
     bordercolor="#666666"
     borderopacity="1.0"
     inkscape:showpageshadow="2"
     inkscape:pageopacity="0.0"
     inkscape:pagecheckerboard="0"
     inkscape:deskcolor="#d1d1d1"
     showgrid="false"
     inkscape:zoom="34.541667"
     inkscape:cx="10.364294"
     inkscape:cy="12.014475"
     inkscape:window-width="1920"
     inkscape:window-height="1009"
     inkscape:window-x="1912"
     inkscape:window-y="-8"
     inkscape:window-maximized="1"
     inkscape:current-layer="svg6" />
  <path
     style="color:#000000;fill:currentColor;stroke-linecap:round;stroke-linejoin:round;-inkscape-stroke:none"
     d="m 11.650391,3.75 c -1.096592,-3.7e-6 -2.2026388,0.3426861 -3.0625004,1.0722656 -0.8598615,0.7295796 -1.4375,1.8681964 -1.4375,3.2578125 a 0.75,0.75 0 0 0 0.75,0.75 0.75,0.75 0 0 0 0.75,-0.75 c 0,-0.9967615 0.3598611,-1.6496785 0.90625,-2.1132812 C 10.10303,5.5031942 10.871981,5.2499974 11.650391,5.25 c 0.778409,2.6e-6 1.547359,0.2531905 2.09375,0.7167969 0.54639,0.4636063 0.90625,1.1165284 0.90625,2.1132812 0,1.4545199 -0.584223,1.8102044 -1.457032,2.5957029 -0.872809,0.785499 -1.951171,1.968874 -1.951171,4.222657 a 0.75,0.75 0 0 0 0.75,0.75 0.75,0.75 0 0 0 0.75,-0.75 c 0,-1.837114 0.623338,-2.358885 1.455078,-3.107422 0.831739,-0.748538 1.953125,-1.756411 1.953125,-3.7109379 0,-1.3896098 -0.577641,-2.528231 -1.4375,-3.2578125 C 13.853031,4.0926841 12.746982,3.7500037 11.650391,3.75 Z"
     id="path2" />
  <path
     style="color:#000000;fill:currentColor;stroke-linecap:round;stroke-linejoin:round;-inkscape-stroke:none"
     d="m 11.970703,18.25 a 0.75,0.75 0 0 0 -0.517578,0.246094 l -0.0098,0.01172 a 0.75,0.75 0 0 0 0.05469,1.058594 0.75,0.75 0 0 0 1.058594,-0.05469 L 12.566406,19.5 A 0.75,0.75 0 0 0 12.511719,18.441406 0.75,0.75 0 0 0 11.970703,18.25 Z"
     id="path4" />
</svg>
