<?xml version="1.0" encoding="UTF-8" standalone="no"?>
<svg
   width="24"
   height="24"
   stroke-width="1.5"
   viewBox="0 0 24 24"
   fill="none"
   version="1.1"
   id="svg8"
   sodipodi:docname="quote-message.svg"
   inkscape:version="1.2.1 (9c6d41e410, 2022-07-14)"
   xmlns:inkscape="http://www.inkscape.org/namespaces/inkscape"
   xmlns:sodipodi="http://sodipodi.sourceforge.net/DTD/sodipodi-0.dtd"
   xmlns="http://www.w3.org/2000/svg"
   xmlns:svg="http://www.w3.org/2000/svg">
  <defs
     id="defs12" />
  <sodipodi:namedview
     id="namedview10"
     pagecolor="#ffffff"
     bordercolor="#666666"
     borderopacity="1.0"
     inkscape:showpageshadow="2"
     inkscape:pageopacity="0.0"
     inkscape:pagecheckerboard="0"
     inkscape:deskcolor="#d1d1d1"
     showgrid="false"
     inkscape:zoom="34.541667"
     inkscape:cx="10.364294"
     inkscape:cy="12.014475"
     inkscape:window-width="1920"
     inkscape:window-height="1009"
     inkscape:window-x="1912"
     inkscape:window-y="-8"
     inkscape:window-maximized="1"
     inkscape:current-layer="svg8" />
  <path
     style="color:#000000;fill:currentColor;-inkscape-stroke:none"
     d="M 5,2.25 C 3.4901018,2.25 2.25,3.4901018 2.25,5 v 15.289062 c 0,0.598396 0.4121684,1.101507 0.9023438,1.273438 0.4901753,0.171931 1.1281485,0.03758 1.5019531,-0.429688 L 6.984375,18.21875 C 7.221951,17.921804 7.5806668,17.75 7.9609375,17.75 H 19 c 1.509904,0 2.75,-1.240096 2.75,-2.75 V 5 C 21.75,3.4901154 20.509917,2.25 19,2.25 Z m 0,1.5 h 14 c 0.699281,0 1.25,0.5507468 1.25,1.25 v 10 c 0,0.699294 -0.550706,1.25 -1.25,1.25 H 7.9609375 c -0.8348681,0 -1.6249611,0.379397 -2.1464844,1.03125 L 3.75,19.861328 V 5 C 3.75,4.3007604 4.3007604,3.75 5,3.75 Z"
     id="path2" />
  <path
     style="color:#000000;fill:currentColor;stroke-linecap:round;-inkscape-stroke:none"
     d="M 8.5,6.25 C 7.5423831,6.25 6.75,7.0423831 6.75,8 v 1 c 0,0.9576169 0.7923831,1.75 1.75,1.75 h 0.9121094 c -0.065036,0.112125 -0.043016,0.175844 -0.1367188,0.300781 -0.3269996,0.436 -0.8066411,0.91797 -1.3066406,1.417969 a 0.75,0.75 0 0 0 0,1.0625 0.75,0.75 0 0 0 1.0625,0 c 0.4999995,-0.499999 1.02036,-1.018032 1.443359,-1.582031 0.260207,-0.346942 0.335499,-0.788011 0.476563,-1.199219 H 11.25 V 10 8 C 11.25,7.0424012 10.457622,6.25 9.5,6.25 Z m 0,1.5 h 1 C 9.6469767,7.75 9.75,7.8530399 9.75,8 V 9.25 H 8.5 C 8.353058,9.25 8.25,9.146942 8.25,9 V 8 C 8.25,7.853058 8.353058,7.75 8.5,7.75 Z"
     id="path4" />
  <path
     style="color:#000000;fill:currentColor;stroke-linecap:round;-inkscape-stroke:none"
     d="m 14.5,6.25 c -0.957622,0 -1.75,0.7924012 -1.75,1.75 v 1 c 0,0.9575988 0.792378,1.75 1.75,1.75 h 0.912109 c -0.06504,0.112125 -0.04301,0.175844 -0.136718,0.300781 -0.327,0.436 -0.806642,0.91797 -1.306641,1.417969 a 0.75,0.75 0 0 0 0,1.0625 0.75,0.75 0 0 0 1.0625,0 c 0.5,-0.499999 1.02036,-1.018032 1.443359,-1.582031 0.260207,-0.346942 0.335499,-0.788011 0.476563,-1.199219 H 17.25 V 10 8 c 0,-0.9575988 -0.792378,-1.75 -1.75,-1.75 z m 0,1.5 h 1 c 0.146977,0 0.25,0.1030399 0.25,0.25 V 9.25 H 14.5 C 14.353023,9.25 14.25,9.1469601 14.25,9 V 8 c 0,-0.1469601 0.103023,-0.25 0.25,-0.25 z"
     id="path6" />
</svg>
