<?xml version="1.0" encoding="UTF-8" standalone="no"?>
<svg
   width="24"
   height="24"
   viewBox="0 0 24 24"
   stroke-width="1.5"
   fill="none"
   version="1.1"
   id="svg10"
   sodipodi:docname="radiation.svg"
   inkscape:version="1.2.1 (9c6d41e410, 2022-07-14)"
   xmlns:inkscape="http://www.inkscape.org/namespaces/inkscape"
   xmlns:sodipodi="http://sodipodi.sourceforge.net/DTD/sodipodi-0.dtd"
   xmlns="http://www.w3.org/2000/svg"
   xmlns:svg="http://www.w3.org/2000/svg">
  <defs
     id="defs14" />
  <sodipodi:namedview
     id="namedview12"
     pagecolor="#ffffff"
     bordercolor="#666666"
     borderopacity="1.0"
     inkscape:showpageshadow="2"
     inkscape:pageopacity="0.0"
     inkscape:pagecheckerboard="0"
     inkscape:deskcolor="#d1d1d1"
     showgrid="false"
     inkscape:zoom="34.541667"
     inkscape:cx="10.364294"
     inkscape:cy="12.014475"
     inkscape:window-width="1920"
     inkscape:window-height="1009"
     inkscape:window-x="1912"
     inkscape:window-y="-8"
     inkscape:window-maximized="1"
     inkscape:current-layer="svg10" />
  <path
     style="color:#000000;fill:currentColor;stroke-linecap:round;stroke-linejoin:round;-inkscape-stroke:none"
     d="M 10.279297,15.302734 A 0.750075,0.750075 0 0 0 9.3691406,15.59375 l -3,4.662109 A 0.750075,0.750075 0 0 0 6.625,21.310547 C 8.2062807,22.225212 10.044821,22.75 12,22.75 c 1.955086,0 3.793691,-0.52479 5.375,-1.439453 a 0.750075,0.750075 0 0 0 0.255859,-1.054688 l -3,-4.662109 a 0.750075,0.750075 0 0 0 -0.910156,-0.291016 c 0,0 -0.920704,0.347657 -1.720703,0.347657 -0.799999,0 -1.720703,-0.347657 -1.720703,-0.347657 z m 0.08203,1.521485 c 0.381497,0.1318 0.775907,0.326172 1.638672,0.326172 0.862765,0 1.257175,-0.194372 1.638672,-0.326172 l 2.248047,3.496093 C 14.697612,20.877421 13.403112,21.25 12,21.25 c -1.403201,0 -2.6976375,-0.372581 -3.8867187,-0.929688 z"
     id="path2" />
  <path
     style="color:#000000;fill:currentColor;stroke-linecap:round;stroke-linejoin:round;-inkscape-stroke:none"
     d="m 16.785156,2.6191406 a 0.750075,0.750075 0 0 0 -0.455078,0.3769532 l -2.537109,4.9277343 a 0.750075,0.750075 0 0 0 0.203125,0.9335938 c 0,0 0.762108,0.6235799 1.162109,1.3164061 0.399982,0.692761 0.560547,1.664063 0.560547,1.664063 a 0.750075,0.750075 0 0 0 0.705078,0.642578 l 5.537109,0.267578 A 0.750075,0.750075 0 0 0 22.748047,12 C 22.749552,10.173236 22.28418,8.3181813 21.306641,6.625 20.329098,4.9318137 18.953928,3.6015259 17.371094,2.6894531 a 0.750075,0.750075 0 0 0 -0.585938,-0.070312 z m 0.472656,1.8535156 c 1.077684,0.7513339 2.046154,1.6866042 2.748047,2.9023438 0.701952,1.2158407 1.028813,2.5229702 1.140625,3.832031 L 16.994141,11.005859 C 16.917505,10.609479 16.888349,10.170863 16.457031,9.4238281 16.02569,8.6767191 15.660384,8.4324867 15.355469,8.1679688 Z"
     id="path4" />
  <path
     style="color:#000000;fill:currentColor;stroke-linecap:round;stroke-linejoin:round;-inkscape-stroke:none"
     d="M 7.2109375,2.6191406 A 0.750075,0.750075 0 0 0 6.6230469,2.6894531 C 5.0402242,3.6015363 3.6670114,4.931823 2.6894531,6.625 1.7118953,8.3181762 1.2465095,10.173221 1.2480469,12 a 0.750075,0.750075 0 0 0 0.7871094,0.748047 l 5.5371093,-0.267578 a 0.750075,0.750075 0 0 0 0.7050782,-0.640625 c 0,0 0.1605307,-0.971179 0.5605468,-1.664063 0.4,-0.6928157 1.1601563,-1.3183591 1.1601563,-1.3183591 A 0.750075,0.750075 0 0 0 10.201172,7.9238281 L 7.6660156,2.9960938 A 0.750075,0.750075 0 0 0 7.2109375,2.6191406 Z M 6.7382812,4.4726562 8.640625,8.1679688 C 8.3357801,8.4323993 7.9705115,8.6784944 7.5390625,9.4257813 7.1079032,10.17261 7.0786405,10.609368 7.0019531,11.005859 L 2.8496094,11.207031 C 2.961409,9.8979879 3.2863114,8.590845 3.9882813,7.375 4.6901948,6.1592527 5.6606057,5.2239959 6.7382812,4.4726562 Z"
     id="path6" />
  <path
     style="color:#000000;fill:currentColor;stroke-linecap:round;stroke-linejoin:round;-inkscape-stroke:none"
     d="m 12,9.25 c -1.509913,0 -2.75,1.240096 -2.75,2.75 0,1.509904 1.240096,2.75 2.75,2.75 1.50984,0 2.75,-1.240051 2.75,-2.75 0,-1.509949 -1.240151,-2.75 -2.75,-2.75 z m 0,1.5 c 0.699148,0 1.25,0.550751 1.25,1.25 0,0.699249 -0.550842,1.25 -1.25,1.25 -0.699294,0 -1.25,-0.550706 -1.25,-1.25 0,-0.699294 0.550715,-1.25 1.25,-1.25 z"
     id="path8" />
</svg>
