<?xml version="1.0" encoding="UTF-8" standalone="no"?>
<svg
   width="24"
   height="24"
   viewBox="0 0 24 24"
   stroke-width="1.5"
   fill="none"
   version="1.1"
   id="svg14"
   sodipodi:docname="raw-format.svg"
   inkscape:version="1.2.1 (9c6d41e410, 2022-07-14)"
   xmlns:inkscape="http://www.inkscape.org/namespaces/inkscape"
   xmlns:sodipodi="http://sodipodi.sourceforge.net/DTD/sodipodi-0.dtd"
   xmlns="http://www.w3.org/2000/svg"
   xmlns:svg="http://www.w3.org/2000/svg">
  <defs
     id="defs18" />
  <sodipodi:namedview
     id="namedview16"
     pagecolor="#ffffff"
     bordercolor="#666666"
     borderopacity="1.0"
     inkscape:showpageshadow="2"
     inkscape:pageopacity="0.0"
     inkscape:pagecheckerboard="0"
     inkscape:deskcolor="#d1d1d1"
     showgrid="false"
     inkscape:zoom="34.541667"
     inkscape:cx="10.364294"
     inkscape:cy="12.014475"
     inkscape:window-width="1920"
     inkscape:window-height="1009"
     inkscape:window-x="1912"
     inkscape:window-y="-8"
     inkscape:window-maximized="1"
     inkscape:current-layer="svg14" />
  <path
     style="color:#000000;fill:currentColor;stroke-linecap:round;-inkscape-stroke:none"
     d="M 4.5996094,2.25 C 3.8629077,2.25 3.25,2.8629077 3.25,3.5996094 V 6 A 0.75,0.75 0 0 0 4,6.75 0.75,0.75 0 0 0 4.75,6 V 3.75 h 14.5 V 6 A 0.75,0.75 0 0 0 20,6.75 0.75,0.75 0 0 0 20.75,6 V 3.5996094 C 20.75,2.862953 20.137086,2.25 19.400391,2.25 Z"
     id="path2" />
  <path
     style="color:#000000;fill:currentColor;stroke-linecap:round;-inkscape-stroke:none"
     d="M 4,17.25 A 0.75,0.75 0 0 0 3.25,18 v 2.400391 C 3.25,21.137086 3.862953,21.75 4.5996094,21.75 H 19.400391 C 20.13704,21.75 20.75,21.13704 20.75,20.400391 V 18 A 0.75,0.75 0 0 0 20,17.25 0.75,0.75 0 0 0 19.25,18 v 2.25 H 4.75 V 18 A 0.75,0.75 0 0 0 4,17.25 Z"
     id="path4" />
  <path
     style="color:#000000;fill:currentColor;stroke-linecap:round;stroke-linejoin:round;-inkscape-stroke:none"
     d="M 16.5,8.25 A 0.75,0.75 0 0 0 15.75,9 v 6 a 0.750075,0.750075 0 0 0 1.419922,0.335938 L 18,13.675781 18.830078,15.335938 A 0.750075,0.750075 0 0 0 20.25,15 V 9 A 0.75,0.75 0 0 0 19.5,8.25 0.75,0.75 0 0 0 18.75,9 v 2.824219 l -0.08008,-0.160156 a 0.750075,0.750075 0 0 0 -1.339844,0 L 17.25,11.824219 V 9 A 0.75,0.75 0 0 0 16.5,8.25 Z"
     id="path6" />
  <path
     style="color:#000000;fill:currentColor;stroke-linecap:round;stroke-linejoin:round;-inkscape-stroke:none"
     d="m 12,8.25 c -1.23374,0 -2.25,1.0162262 -2.25,2.25 V 12 15 A 0.75,0.75 0 0 0 10.5,15.75 0.75,0.75 0 0 0 11.25,15 v -2.25 h 1.5 V 15 A 0.75,0.75 0 0 0 13.5,15.75 0.75,0.75 0 0 0 14.25,15 V 12 10.5 C 14.25,9.2662262 13.23374,8.25 12,8.25 Z m 0,1.5 c 0.423058,0 0.75,0.326915 0.75,0.75 v 0.75 h -1.5 V 10.5 c 0,-0.423085 0.326942,-0.75 0.75,-0.75 z"
     id="path8" />
  <path
     style="color:#000000;fill:currentColor;stroke-linecap:round;stroke-linejoin:round;-inkscape-stroke:none"
     d="M 4.5,8.25 A 0.750075,0.750075 0 0 0 3.75,9 v 3 3 A 0.75,0.75 0 0 0 4.5,15.75 0.75,0.75 0 0 0 5.25,15 V 12 9.75 h 1.5 v 0.75 c 0,0.423058 -0.3269155,0.75 -0.75,0.75 A 0.75,0.75 0 0 0 5.25,12 0.75,0.75 0 0 0 6,12.75 c 1.2337738,0 2.25,-1.01626 2.25,-2.25 V 9.5996094 C 8.25,8.8629077 7.6370923,8.25 6.9003906,8.25 Z"
     id="path10" />
  <path
     style="color:#000000;fill:currentColor;stroke-linecap:round;stroke-linejoin:round;-inkscape-stroke:none"
     d="M 4.5,11.25 A 0.75,0.75 0 0 0 3.75,12 0.75,0.75 0 0 0 4.5,12.75 H 6 c 0.4230845,0 0.75,0.326942 0.75,0.75 V 15 A 0.75,0.75 0 0 0 7.5,15.75 0.75,0.75 0 0 0 8.25,15 V 13.5 C 8.25,12.26626 7.2337738,11.25 6,11.25 Z"
     id="path12" />
</svg>
