<?xml version="1.0" encoding="UTF-8" standalone="no"?>
<svg
   width="24"
   height="24"
   stroke-width="1.5"
   viewBox="0 0 24 24"
   fill="none"
   version="1.1"
   id="svg10"
   sodipodi:docname="receive-euros.svg"
   inkscape:version="1.2.1 (9c6d41e410, 2022-07-14)"
   xmlns:inkscape="http://www.inkscape.org/namespaces/inkscape"
   xmlns:sodipodi="http://sodipodi.sourceforge.net/DTD/sodipodi-0.dtd"
   xmlns="http://www.w3.org/2000/svg"
   xmlns:svg="http://www.w3.org/2000/svg">
  <defs
     id="defs14" />
  <sodipodi:namedview
     id="namedview12"
     pagecolor="#ffffff"
     bordercolor="#666666"
     borderopacity="1.0"
     inkscape:showpageshadow="2"
     inkscape:pageopacity="0.0"
     inkscape:pagecheckerboard="0"
     inkscape:deskcolor="#d1d1d1"
     showgrid="false"
     inkscape:zoom="34.541667"
     inkscape:cx="10.364294"
     inkscape:cy="12.014475"
     inkscape:window-width="1920"
     inkscape:window-height="1009"
     inkscape:window-x="1912"
     inkscape:window-y="-8"
     inkscape:window-maximized="1"
     inkscape:current-layer="svg10" />
  <path
     style="color:#000000;fill:currentColor;stroke-linecap:round;stroke-linejoin:round;-inkscape-stroke:none"
     d="m 16.824219,7.25 a 0.75,0.75 0 0 0 -0.525391,0.2304687 l -3.818359,3.9785153 -0.0098,0.0078 a 0.75,0.75 0 0 0 -0.0039,0.0039 l -0.0078,0.0098 a 0.75,0.75 0 0 0 0,0.01172 A 0.75,0.75 0 0 0 12.25,12 a 0.75,0.75 0 0 0 0.208984,0.507813 0.75,0.75 0 0 0 0,0.01172 l 0.0078,0.0098 a 0.75,0.75 0 0 0 0.0039,0.0039 l 0.0098,0.0078 3.818359,3.978515 a 0.75,0.75 0 0 0 1.060547,0.02148 0.75,0.75 0 0 0 0.02148,-1.060547 L 14.759766,12.75 H 21 A 0.75,0.75 0 0 0 21.75,12 0.75,0.75 0 0 0 21,11.25 H 14.759766 L 17.380859,8.5195313 A 0.75,0.75 0 0 0 17.359375,7.4589844 0.75,0.75 0 0 0 16.824219,7.25 Z"
     id="path2" />
  <path
     style="color:#000000;fill:currentColor;stroke-linecap:round;stroke-linejoin:round;-inkscape-stroke:none"
     d="M 8.8691406,6.25 C 5.7635664,6.25 3.25,8.8438261 3.25,12 c 0,3.156157 2.5135627,5.75 5.6191406,5.75 0.8822583,0 1.7227314,-0.209825 2.4667974,-0.582031 a 0.75,0.75 0 0 0 0.333984,-1.00586 0.75,0.75 0 0 0 -1.005859,-0.335937 C 10.12113,16.097765 9.5148808,16.25 8.8691406,16.25 6.5959439,16.25 4.75,14.366638 4.75,12 4.75,9.6333394 6.5959402,7.75 8.8691406,7.75 9.514907,7.75 10.121191,7.90219 10.664063,8.1738281 A 0.75,0.75 0 0 0 11.669922,7.8378906 0.75,0.75 0 0 0 11.335938,6.8320312 C 10.59181,6.45969 9.7513727,6.25 8.8691406,6.25 Z"
     id="path4" />
  <path
     style="color:#000000;fill:currentColor;stroke-linecap:round;stroke-linejoin:round;-inkscape-stroke:none"
     d="M 3,10.25 A 0.75,0.75 0 0 0 2.25,11 0.75,0.75 0 0 0 3,11.75 H 9 A 0.75,0.75 0 0 0 9.75,11 0.75,0.75 0 0 0 9,10.25 Z"
     id="path6" />
  <path
     style="color:#000000;fill:currentColor;stroke-linecap:round;stroke-linejoin:round;-inkscape-stroke:none"
     d="M 3,12.25 A 0.75,0.75 0 0 0 2.25,13 0.75,0.75 0 0 0 3,13.75 H 9 A 0.75,0.75 0 0 0 9.75,13 0.75,0.75 0 0 0 9,12.25 Z"
     id="path8" />
</svg>
