<?xml version="1.0" encoding="UTF-8" standalone="no"?>
<svg
   width="24"
   height="24"
   stroke-width="1.5"
   viewBox="0 0 24 24"
   fill="none"
   version="1.1"
   id="svg10"
   sodipodi:docname="receive-yens.svg"
   inkscape:version="1.2.1 (9c6d41e410, 2022-07-14)"
   xmlns:inkscape="http://www.inkscape.org/namespaces/inkscape"
   xmlns:sodipodi="http://sodipodi.sourceforge.net/DTD/sodipodi-0.dtd"
   xmlns="http://www.w3.org/2000/svg"
   xmlns:svg="http://www.w3.org/2000/svg">
  <defs
     id="defs14" />
  <sodipodi:namedview
     id="namedview12"
     pagecolor="#ffffff"
     bordercolor="#666666"
     borderopacity="1.0"
     inkscape:showpageshadow="2"
     inkscape:pageopacity="0.0"
     inkscape:pagecheckerboard="0"
     inkscape:deskcolor="#d1d1d1"
     showgrid="false"
     inkscape:zoom="34.541667"
     inkscape:cx="10.364294"
     inkscape:cy="12.014475"
     inkscape:window-width="1920"
     inkscape:window-height="1009"
     inkscape:window-x="1912"
     inkscape:window-y="-8"
     inkscape:window-maximized="1"
     inkscape:current-layer="svg10" />
  <path
     style="color:#000000;fill:currentColor;stroke-linecap:round;stroke-linejoin:round;-inkscape-stroke:none"
     d="m 16.824219,7.25 a 0.75,0.75 0 0 0 -0.525391,0.2304687 l -3.818359,3.9785153 -0.0098,0.0078 a 0.75,0.75 0 0 0 -0.0039,0.0039 l -0.0078,0.0098 a 0.75,0.75 0 0 0 0,0.01172 A 0.75,0.75 0 0 0 12.25,12 a 0.75,0.75 0 0 0 0.208984,0.507813 0.75,0.75 0 0 0 0,0.01172 l 0.0078,0.0098 a 0.75,0.75 0 0 0 0.0039,0.0039 l 0.0098,0.0078 3.818359,3.978515 a 0.75,0.75 0 0 0 1.060547,0.02148 0.75,0.75 0 0 0 0.02148,-1.060547 L 14.759766,12.75 H 21 A 0.75,0.75 0 0 0 21.75,12 0.75,0.75 0 0 0 21,11.25 H 14.759766 L 17.380859,8.5195313 A 0.75,0.75 0 0 0 17.359375,7.4589844 0.75,0.75 0 0 0 16.824219,7.25 Z"
     id="path2" />
  <path
     style="color:#000000;fill:currentColor;stroke-linecap:round;stroke-linejoin:round;-inkscape-stroke:none"
     d="M 3,12.25 A 0.75,0.75 0 0 0 2.25,13 0.75,0.75 0 0 0 3,13.75 h 8 A 0.75,0.75 0 0 0 11.75,13 0.75,0.75 0 0 0 11,12.25 Z"
     id="path4" />
  <path
     style="color:#000000;fill:currentColor;stroke-linecap:round;stroke-linejoin:round;-inkscape-stroke:none"
     d="M 3.1171875,6.2597656 A 0.75,0.75 0 0 0 2.5585938,6.3925781 0.75,0.75 0 0 0 2.3925781,7.4414062 L 6.25,12.746094 V 18 A 0.75,0.75 0 0 0 7,18.75 0.75,0.75 0 0 0 7.75,18 V 12.746094 L 11.607422,7.4414062 A 0.75,0.75 0 0 0 11.441406,6.3925781 0.75,0.75 0 0 0 10.392578,6.5585937 L 7,11.222656 3.6074219,6.5585937 A 0.75,0.75 0 0 0 3.1171875,6.2597656 Z"
     id="path6" />
  <path
     style="color:#000000;fill:currentColor;stroke-linecap:round;stroke-linejoin:round;-inkscape-stroke:none"
     d="M 3,14.25 A 0.75,0.75 0 0 0 2.25,15 0.75,0.75 0 0 0 3,15.75 h 8 A 0.75,0.75 0 0 0 11.75,15 0.75,0.75 0 0 0 11,14.25 Z"
     id="path8" />
</svg>
