<?xml version="1.0" encoding="UTF-8" standalone="no"?>
<svg
   width="24"
   height="24"
   stroke-width="1.5"
   viewBox="0 0 24 24"
   fill="none"
   version="1.1"
   id="svg10"
   sodipodi:docname="receive-pounds.svg"
   inkscape:version="1.2.1 (9c6d41e410, 2022-07-14)"
   xmlns:inkscape="http://www.inkscape.org/namespaces/inkscape"
   xmlns:sodipodi="http://sodipodi.sourceforge.net/DTD/sodipodi-0.dtd"
   xmlns="http://www.w3.org/2000/svg"
   xmlns:svg="http://www.w3.org/2000/svg">
  <defs
     id="defs14" />
  <sodipodi:namedview
     id="namedview12"
     pagecolor="#ffffff"
     bordercolor="#666666"
     borderopacity="1.0"
     inkscape:showpageshadow="2"
     inkscape:pageopacity="0.0"
     inkscape:pagecheckerboard="0"
     inkscape:deskcolor="#d1d1d1"
     showgrid="false"
     inkscape:zoom="34.541667"
     inkscape:cx="10.364294"
     inkscape:cy="12.014475"
     inkscape:window-width="1920"
     inkscape:window-height="1009"
     inkscape:window-x="1912"
     inkscape:window-y="-8"
     inkscape:window-maximized="1"
     inkscape:current-layer="svg10" />
  <path
     style="color:#000000;fill:currentColor;stroke-linecap:round;stroke-linejoin:round;-inkscape-stroke:none"
     d="m 16.824219,7.25 a 0.75,0.75 0 0 0 -0.525391,0.2304687 l -3.818359,3.9785153 -0.0098,0.0078 a 0.75,0.75 0 0 0 -0.0039,0.0039 l -0.0078,0.0098 a 0.75,0.75 0 0 0 0,0.01172 A 0.75,0.75 0 0 0 12.25,12 a 0.75,0.75 0 0 0 0.208984,0.507813 0.75,0.75 0 0 0 0,0.01172 l 0.0078,0.0098 a 0.75,0.75 0 0 0 0.0039,0.0039 l 0.0098,0.0078 3.818359,3.978515 a 0.75,0.75 0 0 0 1.060547,0.02148 0.75,0.75 0 0 0 0.02148,-1.060547 L 14.759766,12.75 H 21 A 0.75,0.75 0 0 0 21.75,12 0.75,0.75 0 0 0 21,11.25 H 14.759766 L 17.380859,8.5195313 A 0.75,0.75 0 0 0 17.359375,7.4589844 0.75,0.75 0 0 0 16.824219,7.25 Z"
     id="path2" />
  <path
     style="color:#000000;fill:currentColor;stroke-linecap:round;stroke-linejoin:round;-inkscape-stroke:none"
     d="M 7.2792969,12.302734 A 0.75,0.75 0 0 0 6.3027344,12.720703 C 5.668084,14.307353 4.684376,15.819895 3.6640625,16.330078 A 0.750075,0.750075 0 0 0 4,17.75 h 6.333984 c 0,0 1.265415,0.04513 2.197266,-0.886719 a 0.75,0.75 0 0 0 0,-1.060547 0.75,0.75 0 0 0 -1.0625,0 C 11.067202,16.204282 10.333984,16.25 10.333984,16.25 H 5.8984375 C 6.6430349,15.367757 7.2667772,14.355534 7.6972656,13.279297 A 0.75,0.75 0 0 0 7.2792969,12.302734 Z"
     id="path4" />
  <path
     style="color:#000000;fill:currentColor;stroke-linecap:round;stroke-linejoin:round;-inkscape-stroke:none"
     d="M 3,12.25 A 0.75,0.75 0 0 0 2.25,13 0.75,0.75 0 0 0 3,13.75 H 9.6660156 A 0.75,0.75 0 0 0 10.416016,13 0.75,0.75 0 0 0 9.6660156,12.25 Z"
     id="path6" />
  <path
     style="color:#000000;fill:currentColor;stroke-linecap:round;stroke-linejoin:round;-inkscape-stroke:none"
     d="m 8,6.25 c -2.0621803,0 -3.75,1.6878197 -3.75,3.75 0,2.062218 1.6878347,3.75 3.75,3.75 A 0.75,0.75 0 0 0 8.75,13 0.75,0.75 0 0 0 8,12.25 C 6.7484686,12.25 5.75,11.251579 5.75,10 5.75,8.7484837 6.7484837,7.75 8,7.75 c 1.2515163,0 2.25,0.9984837 2.25,2.25 A 0.75,0.75 0 0 0 11,10.75 0.75,0.75 0 0 0 11.75,10 C 11.75,7.9378197 10.06218,6.25 8,6.25 Z"
     id="path8" />
</svg>
