<?xml version="1.0" encoding="UTF-8" standalone="no"?>
<svg
   width="24"
   height="24"
   stroke-width="1.5"
   viewBox="0 0 24 24"
   fill="none"
   version="1.1"
   id="svg8"
   sodipodi:docname="redo-circle.svg"
   inkscape:version="1.2.1 (9c6d41e410, 2022-07-14)"
   xmlns:inkscape="http://www.inkscape.org/namespaces/inkscape"
   xmlns:sodipodi="http://sodipodi.sourceforge.net/DTD/sodipodi-0.dtd"
   xmlns="http://www.w3.org/2000/svg"
   xmlns:svg="http://www.w3.org/2000/svg">
  <defs
     id="defs12" />
  <sodipodi:namedview
     id="namedview10"
     pagecolor="#ffffff"
     bordercolor="#666666"
     borderopacity="1.0"
     inkscape:showpageshadow="2"
     inkscape:pageopacity="0.0"
     inkscape:pagecheckerboard="0"
     inkscape:deskcolor="#d1d1d1"
     showgrid="false"
     inkscape:zoom="34.541667"
     inkscape:cx="10.364294"
     inkscape:cy="12.014475"
     inkscape:window-width="1920"
     inkscape:window-height="1009"
     inkscape:window-x="1912"
     inkscape:window-y="-8"
     inkscape:window-maximized="1"
     inkscape:current-layer="svg8" />
  <path
     style="color:#000000;fill:currentColor;stroke-linecap:round;stroke-linejoin:round;-inkscape-stroke:none"
     d="m 9.8007813,9.875 c 0,0 -0.8724007,-0.00844 -1.7558594,0.464844 C 7.1614631,10.813125 6.25,11.891668 6.25,13.625 c 0,1.894906 0.8743486,3.059727 1.7636719,3.595703 C 8.9029952,17.756679 9.8007813,17.75 9.8007813,17.75 h 0.7988277 a 0.75,0.75 0 0 0 0.75,-0.75 0.75,0.75 0 0 0 -0.75,-0.75 H 9.8007813 c 0,0 -0.5029966,-0.0067 -1.0136719,-0.314453 C 8.2764341,15.627774 7.75,15.105091 7.75,13.625 7.75,12.358335 8.2373664,11.936874 8.7539063,11.660156 9.2704461,11.383438 9.8007813,11.375 9.8007813,11.375 H 17 A 0.75,0.75 0 0 0 17.75,10.625 0.75,0.75 0 0 0 17,9.875 Z"
     id="path2" />
  <path
     style="color:#000000;fill:currentColor;stroke-linecap:round;stroke-linejoin:round;-inkscape-stroke:none"
     d="m 13.513672,6.25 a 0.75,0.75 0 0 0 -0.535156,0.2109375 0.75,0.75 0 0 0 -0.01758,1.0605469 l 2.978515,3.0839846 -2.960937,2.855469 a 0.75,0.75 0 0 0 -0.01758,1.060546 0.75,0.75 0 0 0 1.060546,0.01758 l 3.5,-3.375 a 0.750075,0.750075 0 0 0 0.01758,-1.060547 L 14.039063,6.4785156 A 0.75,0.75 0 0 0 13.513672,6.25 Z"
     id="path4" />
  <path
     style="color:#000000;fill:currentColor;stroke-linecap:round;stroke-linejoin:round;-inkscape-stroke:none"
     d="M 12,1.25 C 6.0718263,1.25 1.25,6.0718263 1.25,12 1.25,17.928127 6.0718217,22.75 12,22.75 17.928132,22.75 22.75,17.928132 22.75,12 22.75,6.0718217 17.928127,1.25 12,1.25 Z m 0,1.5 c 5.117462,0 9.25,4.1324893 9.25,9.25 0,5.117457 -4.132543,9.25 -9.25,9.25 C 6.8824893,21.25 2.75,17.117462 2.75,12 2.75,6.8824848 6.8824848,2.75 12,2.75 Z"
     id="path6" />
</svg>
