<?xml version="1.0" encoding="UTF-8" standalone="no"?>
<svg
   width="24"
   height="24"
   stroke-width="1.5"
   viewBox="0 0 24 24"
   fill="none"
   version="1.1"
   id="svg6"
   sodipodi:docname="refresh.svg"
   inkscape:version="1.2.1 (9c6d41e410, 2022-07-14)"
   xmlns:inkscape="http://www.inkscape.org/namespaces/inkscape"
   xmlns:sodipodi="http://sodipodi.sourceforge.net/DTD/sodipodi-0.dtd"
   xmlns="http://www.w3.org/2000/svg"
   xmlns:svg="http://www.w3.org/2000/svg">
  <defs
     id="defs10" />
  <sodipodi:namedview
     id="namedview8"
     pagecolor="#ffffff"
     bordercolor="#666666"
     borderopacity="1.0"
     inkscape:showpageshadow="2"
     inkscape:pageopacity="0.0"
     inkscape:pagecheckerboard="0"
     inkscape:deskcolor="#d1d1d1"
     showgrid="false"
     inkscape:zoom="34.541667"
     inkscape:cx="10.364294"
     inkscape:cy="12.014475"
     inkscape:window-width="1920"
     inkscape:window-height="1009"
     inkscape:window-x="1912"
     inkscape:window-y="-8"
     inkscape:window-maximized="1"
     inkscape:current-layer="svg6" />
  <path
     style="color:#000000;fill:currentColor;stroke-linecap:round;stroke-linejoin:round;-inkscape-stroke:none"
     d="M 12,1.25 C 6.0718263,1.25 1.25,6.0718263 1.25,12 c 0,5.928127 4.8218217,10.75 10.75,10.75 5.380908,0 9.852688,-3.965952 10.630859,-9.138672 A 0.75,0.75 0 0 0 22,12.757813 0.75,0.75 0 0 0 21.146484,13.388672 C 20.477057,17.838542 16.645082,21.25 12,21.25 6.8824893,21.25 2.75,17.117462 2.75,12 2.75,6.8824848 6.8824848,2.75 12,2.75 c 3.799641,0 7.053778,2.2854061 8.480469,5.5507813 A 0.75,0.75 0 0 0 21.46875,8.6875 0.75,0.75 0 0 0 21.855469,7.6992187 C 20.195963,3.900981 16.40155,1.25 12,1.25 Z"
     id="path2" />
  <path
     style="color:#000000;fill:currentColor;stroke-linecap:round;stroke-linejoin:round;-inkscape-stroke:none"
     d="M 22,2.25 A 0.75,0.75 0 0 0 21.25,3 V 7.25 H 17 A 0.75,0.75 0 0 0 16.25,8 0.75,0.75 0 0 0 17,8.75 h 4.400391 C 22.137086,8.75 22.75,8.137047 22.75,7.4003906 V 3 A 0.75,0.75 0 0 0 22,2.25 Z"
     id="path4" />
</svg>
