<?xml version="1.0" encoding="UTF-8" standalone="no"?>
<svg
   width="24"
   height="24"
   stroke-width="1.5"
   viewBox="0 0 24 24"
   fill="none"
   version="1.1"
   id="svg12"
   sodipodi:docname="reminder-hand-gesture.svg"
   inkscape:version="1.2.1 (9c6d41e410, 2022-07-14)"
   xmlns:inkscape="http://www.inkscape.org/namespaces/inkscape"
   xmlns:sodipodi="http://sodipodi.sourceforge.net/DTD/sodipodi-0.dtd"
   xmlns="http://www.w3.org/2000/svg"
   xmlns:svg="http://www.w3.org/2000/svg">
  <defs
     id="defs16" />
  <sodipodi:namedview
     id="namedview14"
     pagecolor="#ffffff"
     bordercolor="#666666"
     borderopacity="1.0"
     inkscape:showpageshadow="2"
     inkscape:pageopacity="0.0"
     inkscape:pagecheckerboard="0"
     inkscape:deskcolor="#d1d1d1"
     showgrid="false"
     inkscape:zoom="34.541667"
     inkscape:cx="10.364294"
     inkscape:cy="12.014475"
     inkscape:window-width="1920"
     inkscape:window-height="1009"
     inkscape:window-x="1912"
     inkscape:window-y="-8"
     inkscape:window-maximized="1"
     inkscape:current-layer="svg12" />
  <path
     style="color:#000000;fill:currentColor;stroke-linecap:round;stroke-linejoin:round;-inkscape-stroke:none"
     d="m 7,6.9648437 c -1.1309522,10e-8 -2.25,0.991908 -2.25,2.4628907 v 8.4999996 c 0,0.106025 0.013122,0.223477 0.042969,0.335938 0.2053872,0.774038 0.6366944,1.824862 1.3828125,2.75 C 6.9218994,21.93881 8.0478371,22.75 9.5,22.75 h 4.621094 c 0.770374,0 1.505131,-0.324935 2.02539,-0.892578 l 3.785157,-4.126953 c 0.890977,-0.97195 0.962956,-2.452992 0.171875,-3.507813 l -2.003907,-2.671875 a 0.75,0.75 0 0 0 -1.048828,-0.15039 0.75,0.75 0 0 0 -0.15039,1.048828 l 2.003906,2.673828 c 0.363717,0.484978 0.331497,1.146901 -0.07813,1.59375 L 15.041016,20.84375 C 14.803676,21.102706 14.471918,21.25 14.121094,21.25 H 9.5 C 8.5937552,21.25 7.9090905,20.773251 7.34375,20.072266 6.7824332,19.376269 6.4061294,18.47553 6.25,17.894531 V 9.4277344 c 0,-0.814735 0.3809537,-0.9628906 0.75,-0.9628906 0.3690463,0 0.75,0.1481556 0.75,0.9628906 V 10 A 0.75,0.75 0 0 0 8.5,10.75 0.75,0.75 0 0 0 9.25,10 V 9.4277344 C 9.25,7.9567517 8.1309522,6.9648438 7,6.9648437 Z"
     id="path2" />
  <path
     style="color:#000000;fill:currentColor;stroke-linecap:round;stroke-linejoin:round;-inkscape-stroke:none"
     d="m 10,5.8222656 c -1.1309522,0 -2.25,0.9919079 -2.25,2.4628907 V 9.4277344 10 A 0.75,0.75 0 0 0 8.5,10.75 0.75,0.75 0 0 0 9.25,10 V 9.4277344 8.2851563 c 0,-0.8147351 0.3809537,-0.9628907 0.75,-0.9628907 0.369046,0 0.75,0.1481556 0.75,0.9628907 V 10 A 0.75,0.75 0 0 0 11.5,10.75 0.75,0.75 0 0 0 12.25,10 V 8.2851563 C 12.25,6.8141735 11.130952,5.8222656 10,5.8222656 Z"
     id="path4" />
  <path
     style="color:#000000;fill:currentColor;stroke-linecap:round;stroke-linejoin:round;-inkscape-stroke:none"
     d="m 13,5.0351562 c -1.130951,0 -2.25,0.9938647 -2.25,2.4648438 V 8.2851563 10 A 0.75,0.75 0 0 0 11.5,10.75 0.75,0.75 0 0 0 12.25,10 V 8.2851563 7.5 c 0,-0.8147286 0.380952,-0.9648438 0.75,-0.9648438 0.369048,0 0.75,0.1501152 0.75,0.9648438 V 10 A 0.75,0.75 0 0 0 14.5,10.75 0.75,0.75 0 0 0 15.25,10 V 7.5 C 15.25,6.0290209 14.130951,5.0351562 13,5.0351562 Z"
     id="path6" />
  <path
     style="color:#000000;fill:currentColor;stroke-linecap:round;stroke-linejoin:round;-inkscape-stroke:none"
     d="m 16,1.25 c -1.233131,0 -2.25,1.0142731 -2.25,2.2480469 V 7.5 10 A 0.75,0.75 0 0 0 14.5,10.75 0.75,0.75 0 0 0 15.25,10 V 7.5 3.4980469 C 15.25,3.0749623 15.576332,2.75 16,2.75 c 0.423058,0 0.75,0.3269155 0.75,0.75 V 12 15 A 0.75,0.75 0 0 0 17.5,15.75 0.75,0.75 0 0 0 18.25,15 V 12 3.5 C 18.25,2.2662262 17.23374,1.25 16,1.25 Z"
     id="path8" />
  <path
     style="color:#000000;fill:currentColor;-inkscape-stroke:none"
     d="m 12.25,3.25 c -1.0957,0 -2,0.9043453 -2,2 V 5.5 c 0,0.9575988 0.792378,1.75 1.75,1.75 V 5.75 C 11.853023,5.75 11.75,5.6469601 11.75,5.5 V 5.25 c 0,-0.2850639 0.214902,-0.5 0.5,-0.5 h 2.1875 3.125 2.0625 c 0.317051,0 0.459641,0.07509 0.515625,0.125 0.05598,0.04991 0.109375,0.1116731 0.109375,0.375 0,0.2633269 -0.05339,0.3250898 -0.109375,0.375 -0.05598,0.04991 -0.198574,0.125 -0.515625,0.125 h -2.0625 v 1.5 h 2.0625 c 0.557948,0 1.10286,-0.1359244 1.515625,-0.5039063 C 21.55339,6.3781119 21.75,5.8151023 21.75,5.25 21.75,4.6848977 21.55339,4.1218881 21.140625,3.7539063 20.72786,3.3859244 20.182948,3.25 19.625,3.25 h -2.0625 -3.125 z"
     id="path10" />
</svg>
