<?xml version="1.0" encoding="UTF-8" standalone="no"?>
<svg
   width="24"
   height="24"
   viewBox="0 0 24 24"
   stroke-width="1.5"
   fill="none"
   version="1.1"
   id="svg4"
   sodipodi:docname="reply.svg"
   inkscape:version="1.2.1 (9c6d41e410, 2022-07-14)"
   xmlns:inkscape="http://www.inkscape.org/namespaces/inkscape"
   xmlns:sodipodi="http://sodipodi.sourceforge.net/DTD/sodipodi-0.dtd"
   xmlns="http://www.w3.org/2000/svg"
   xmlns:svg="http://www.w3.org/2000/svg">
  <defs
     id="defs8" />
  <sodipodi:namedview
     id="namedview6"
     pagecolor="#ffffff"
     bordercolor="#666666"
     borderopacity="1.0"
     inkscape:showpageshadow="2"
     inkscape:pageopacity="0.0"
     inkscape:pagecheckerboard="0"
     inkscape:deskcolor="#d1d1d1"
     showgrid="false"
     inkscape:zoom="34.541667"
     inkscape:cx="10.364294"
     inkscape:cy="12.014475"
     inkscape:window-width="1920"
     inkscape:window-height="1009"
     inkscape:window-x="1912"
     inkscape:window-y="-8"
     inkscape:window-maximized="1"
     inkscape:current-layer="svg4" />
  <path
     style="color:#000000;fill:currentColor;stroke-linecap:round;stroke-linejoin:round;-inkscape-stroke:none"
     d="M 9,2.25 A 0.75,0.75 0 0 0 8.46875,2.46875 l -7,7 A 0.75,0.75 0 0 0 1.25,10 0.75,0.75 0 0 0 1.46875,10.53125 l 7,7 a 0.75,0.75 0 0 0 1.0625,0 0.75,0.75 0 0 0 0,-1.0625 L 3.8125,10.75 H 16 c 3.656246,0 5.25,2.363639 5.25,4.75 0,2.386361 -1.593754,4.75 -5.25,4.75 A 0.75,0.75 0 0 0 15.25,21 0.75,0.75 0 0 0 16,21.75 c 4.343746,0 6.75,-3.136367 6.75,-6.25 0,-3.113633 -2.406254,-6.25 -6.75,-6.25 H 3.8125 L 9.53125,3.53125 a 0.75,0.75 0 0 0 0,-1.0625 A 0.75,0.75 0 0 0 9,2.25 Z"
     id="path2" />
</svg>
