<?xml version="1.0" encoding="UTF-8" standalone="no"?>
<svg
   width="24"
   height="24"
   stroke-width="1.5"
   viewBox="0 0 24 24"
   fill="none"
   version="1.1"
   id="svg10"
   sodipodi:docname="report-columns.svg"
   inkscape:version="1.2.1 (9c6d41e410, 2022-07-14)"
   xmlns:inkscape="http://www.inkscape.org/namespaces/inkscape"
   xmlns:sodipodi="http://sodipodi.sourceforge.net/DTD/sodipodi-0.dtd"
   xmlns="http://www.w3.org/2000/svg"
   xmlns:svg="http://www.w3.org/2000/svg">
  <defs
     id="defs14" />
  <sodipodi:namedview
     id="namedview12"
     pagecolor="#ffffff"
     bordercolor="#666666"
     borderopacity="1.0"
     inkscape:showpageshadow="2"
     inkscape:pageopacity="0.0"
     inkscape:pagecheckerboard="0"
     inkscape:deskcolor="#d1d1d1"
     showgrid="false"
     inkscape:zoom="34.541667"
     inkscape:cx="10.364294"
     inkscape:cy="12.014475"
     inkscape:window-width="1920"
     inkscape:window-height="1009"
     inkscape:window-x="1912"
     inkscape:window-y="-8"
     inkscape:window-maximized="1"
     inkscape:current-layer="svg10" />
  <path
     style="color:#000000;fill:currentColor;-inkscape-stroke:none"
     d="M 3.5996094,2.25 C 2.8629077,2.25 2.25,2.8629077 2.25,3.5996094 V 7.4003906 C 2.25,8.1370923 2.8629077,8.75 3.5996094,8.75 H 9.4003906 C 10.137092,8.75 10.75,8.1370923 10.75,7.4003906 V 3.5996094 C 10.75,2.8629077 10.137092,2.25 9.4003906,2.25 Z M 3.75,3.75 h 5.5 v 3.5 h -5.5 z"
     id="path2" />
  <path
     style="color:#000000;fill:currentColor;-inkscape-stroke:none"
     d="M 14.599609,15.25 C 13.86296,15.25 13.25,15.86296 13.25,16.599609 v 3.800782 c 0,0.736649 0.61296,1.349609 1.349609,1.349609 h 5.800782 C 21.13704,21.75 21.75,21.13704 21.75,20.400391 V 16.599609 C 21.75,15.86296 21.13704,15.25 20.400391,15.25 Z M 14.75,16.75 h 5.5 v 3.5 h -5.5 z"
     id="path4" />
  <path
     style="color:#000000;fill:currentColor;-inkscape-stroke:none"
     d="M 14.599609,2.25 C 13.862914,2.25 13.25,2.862953 13.25,3.5996094 v 8.8007816 c 0,0.736649 0.61296,1.349609 1.349609,1.349609 h 5.800782 C 21.13704,13.75 21.75,13.13704 21.75,12.400391 V 3.5996094 C 21.75,2.862953 21.137086,2.25 20.400391,2.25 Z M 14.75,3.75 h 5.5 v 8.5 h -5.5 z"
     id="path6" />
  <path
     style="color:#000000;fill:currentColor;-inkscape-stroke:none"
     d="M 3.5996094,10.25 C 2.862953,10.25 2.25,10.862914 2.25,11.599609 v 8.800782 C 2.25,21.137086 2.862953,21.75 3.5996094,21.75 H 9.4003906 C 10.137047,21.75 10.75,21.137086 10.75,20.400391 V 11.599609 C 10.75,10.862914 10.137047,10.25 9.4003906,10.25 Z M 3.75,11.75 h 5.5 v 8.5 h -5.5 z"
     id="path8" />
</svg>
