<?xml version="1.0" encoding="UTF-8" standalone="no"?>
<svg
   width="24"
   height="24"
   viewBox="0 0 24 24"
   stroke-width="1.5"
   fill="none"
   version="1.1"
   id="svg10"
   sodipodi:docname="repository.svg"
   inkscape:version="1.2.1 (9c6d41e410, 2022-07-14)"
   xmlns:inkscape="http://www.inkscape.org/namespaces/inkscape"
   xmlns:sodipodi="http://sodipodi.sourceforge.net/DTD/sodipodi-0.dtd"
   xmlns="http://www.w3.org/2000/svg"
   xmlns:svg="http://www.w3.org/2000/svg">
  <defs
     id="defs14" />
  <sodipodi:namedview
     id="namedview12"
     pagecolor="#ffffff"
     bordercolor="#666666"
     borderopacity="1.0"
     inkscape:showpageshadow="2"
     inkscape:pageopacity="0.0"
     inkscape:pagecheckerboard="0"
     inkscape:deskcolor="#d1d1d1"
     showgrid="false"
     inkscape:zoom="34.541667"
     inkscape:cx="10.364294"
     inkscape:cy="12.014475"
     inkscape:window-width="1920"
     inkscape:window-height="1009"
     inkscape:window-x="1912"
     inkscape:window-y="-8"
     inkscape:window-maximized="1"
     inkscape:current-layer="svg10" />
  <path
     style="color:#000000;fill:currentColor;stroke-linecap:round;-inkscape-stroke:none"
     d="M 6,2.25 C 4.4901018,2.25 3.25,3.4901018 3.25,5 V 19 A 0.75,0.75 0 0 0 4,19.75 0.75,0.75 0 0 0 4.75,19 V 5 C 4.75,4.3007604 5.3007604,3.75 6,3.75 h 13.25 v 12.964844 a 0.75,0.75 0 0 0 0.75,0.75 0.75,0.75 0 0 0 0.75,-0.75 V 3.5996094 C 20.75,2.862953 20.137086,2.25 19.400391,2.25 Z"
     id="path2" />
  <path
     style="color:#000000;fill:currentColor;stroke-linecap:round;stroke-linejoin:round;-inkscape-stroke:none"
     d="M 15,16.25 A 0.75,0.75 0 0 0 14.25,17 v 5 a 0.750075,0.750075 0 0 0 1.154297,0.630859 L 17.5,21.291016 19.595703,22.630859 A 0.750075,0.750075 0 0 0 20.75,22 V 17 A 0.75,0.75 0 0 0 20,16.25 0.75,0.75 0 0 0 19.25,17 v 3.628906 l -1.345703,-0.861328 a 0.750075,0.750075 0 0 0 -0.808594,0 L 15.75,20.628906 V 17 A 0.75,0.75 0 0 0 15,16.25 Z"
     id="path4" />
  <path
     style="color:#000000;fill:currentColor;stroke-linecap:round;-inkscape-stroke:none"
     d="M 6,16.25 A 0.75,0.75 0 0 0 5.25,17 0.75,0.75 0 0 0 6,17.75 H 20 A 0.75,0.75 0 0 0 20.75,17 0.75,0.75 0 0 0 20,16.25 Z"
     id="path6" />
  <path
     style="color:#000000;fill:currentColor;stroke-linecap:round;stroke-linejoin:round;-inkscape-stroke:none"
     d="m 6,16.25 c -1.5098846,0 -2.75,1.240083 -2.75,2.75 0,1.509917 1.2401154,2.75 2.75,2.75 h 5.5 A 0.75,0.75 0 0 0 12.25,21 0.75,0.75 0 0 0 11.5,20.25 H 6 C 5.3007468,20.25 4.75,19.699281 4.75,19 4.75,18.300719 5.3007468,17.75 6,17.75 A 0.75,0.75 0 0 0 6.75,17 0.75,0.75 0 0 0 6,16.25 Z"
     id="path8" />
</svg>
