<?xml version="1.0" encoding="UTF-8" standalone="no"?>
<svg
   width="24"
   height="24"
   stroke-width="1.5"
   viewBox="0 0 24 24"
   fill="none"
   version="1.1"
   id="svg15"
   sodipodi:docname="restart.svg"
   inkscape:version="1.2.1 (9c6d41e410, 2022-07-14)"
   xmlns:inkscape="http://www.inkscape.org/namespaces/inkscape"
   xmlns:sodipodi="http://sodipodi.sourceforge.net/DTD/sodipodi-0.dtd"
   xmlns="http://www.w3.org/2000/svg"
   xmlns:svg="http://www.w3.org/2000/svg">
  <sodipodi:namedview
     id="namedview17"
     pagecolor="#ffffff"
     bordercolor="#666666"
     borderopacity="1.0"
     inkscape:showpageshadow="2"
     inkscape:pageopacity="0.0"
     inkscape:pagecheckerboard="0"
     inkscape:deskcolor="#d1d1d1"
     showgrid="false"
     inkscape:zoom="34.541667"
     inkscape:cx="10.364294"
     inkscape:cy="12.014475"
     inkscape:window-width="1920"
     inkscape:window-height="1009"
     inkscape:window-x="1912"
     inkscape:window-y="-8"
     inkscape:window-maximized="1"
     inkscape:current-layer="svg15" />
  <path
     style="color:#000000;fill:currentColor;stroke-linecap:round;stroke-linejoin:round;-inkscape-stroke:none"
     d="M 11.943359,1.3007812 C 7.7544429,1.2978211 3.7645778,3.7588859 2.0273438,7.8515625 -0.07516618,12.804728 1.8276895,18.469663 6.2851562,21.207031 a 0.75,0.75 0 0 0 1.03125,-0.248047 0.75,0.75 0 0 0 -0.2460937,-1.03125 C 3.2357676,17.572908 1.5912558,12.713326 3.40625,8.4375 5.4058136,3.7268123 10.824469,1.5375368 15.535156,3.5371094 c 4.71069,1.9995736 6.899917,7.4182206 4.900391,12.1289066 -0.781312,1.840697 -2.08332,3.290328 -3.664063,4.261718 a 0.75,0.75 0 0 0 -0.246093,1.033203 0.75,0.75 0 0 0 1.033203,0.246094 C 19.394848,20.078624 20.91132,18.384252 21.816406,16.251953 24.132676,10.795049 21.579947,4.4725721 16.123047,2.15625 14.758821,1.5771692 13.339665,1.301768 11.943359,1.3007812 Z"
     id="path2" />
  <path
     style="color:#000000;fill:currentColor;stroke-linecap:round;stroke-linejoin:round;-inkscape-stroke:none"
     d="M 17,15.25 A 0.75,0.75 0 0 0 16.25,16 v 4.400391 C 16.25,21.13704 16.86296,21.75 17.599609,21.75 H 22 A 0.75,0.75 0 0 0 22.75,21 0.75,0.75 0 0 0 22,20.25 H 17.75 V 16 A 0.75,0.75 0 0 0 17,15.25 Z"
     id="path4" />
  <path
     style="color:#000000;fill:currentColor;stroke-linecap:round;stroke-linejoin:round;-inkscape-stroke:none"
     d="m 11.970703,21.25 a 0.75,0.75 0 0 0 -0.517578,0.246094 l -0.0098,0.01172 a 0.75,0.75 0 0 0 0.05469,1.058594 0.75,0.75 0 0 0 1.058594,-0.05469 L 12.566406,22.5 A 0.75,0.75 0 0 0 12.511719,21.441406 0.75,0.75 0 0 0 11.970703,21.25 Z"
     id="path6" />
  <defs
     id="defs13">
    <clipPath
       clipPathUnits="userSpaceOnUse"
       id="clipPath199">
      <g
         id="g203">
        <rect
           width="24"
           height="24"
           stroke-width="1.5"
           fill="#ffffff"
           id="rect201"
           x="0"
           y="0" />
      </g>
    </clipPath>
    <clipPath
       clipPathUnits="userSpaceOnUse"
       id="clipPath205">
      <g
         id="g209">
        <rect
           width="24"
           height="24"
           stroke-width="1.5"
           fill="#ffffff"
           id="rect207"
           x="0"
           y="0" />
      </g>
    </clipPath>
    <clipPath
       clipPathUnits="userSpaceOnUse"
       id="clipPath211">
      <g
         id="g215">
        <rect
           width="24"
           height="24"
           stroke-width="1.5"
           fill="#ffffff"
           id="rect213"
           x="0"
           y="0" />
      </g>
    </clipPath>
  </defs>
</svg>
