<?xml version="1.0" encoding="UTF-8" standalone="no"?>
<svg
   width="24"
   height="24"
   stroke-width="1.5"
   viewBox="0 0 24 24"
   fill="none"
   version="1.1"
   id="svg10"
   sodipodi:docname="rotate-camera-right.svg"
   inkscape:version="1.2.1 (9c6d41e410, 2022-07-14)"
   xmlns:inkscape="http://www.inkscape.org/namespaces/inkscape"
   xmlns:sodipodi="http://sodipodi.sourceforge.net/DTD/sodipodi-0.dtd"
   xmlns="http://www.w3.org/2000/svg"
   xmlns:svg="http://www.w3.org/2000/svg">
  <defs
     id="defs14" />
  <sodipodi:namedview
     id="namedview12"
     pagecolor="#ffffff"
     bordercolor="#666666"
     borderopacity="1.0"
     inkscape:showpageshadow="2"
     inkscape:pageopacity="0.0"
     inkscape:pagecheckerboard="0"
     inkscape:deskcolor="#d1d1d1"
     showgrid="false"
     inkscape:zoom="34.541667"
     inkscape:cx="10.364294"
     inkscape:cy="12.014475"
     inkscape:window-width="1920"
     inkscape:window-height="1009"
     inkscape:window-x="1912"
     inkscape:window-y="-8"
     inkscape:window-maximized="1"
     inkscape:current-layer="svg10" />
  <path
     style="color:#000000;fill:currentColor;stroke-linecap:round;stroke-linejoin:round;-inkscape-stroke:none"
     d="M 12.001953,1.25 C 6.4360573,1.25 1.8458392,5.494977 1.3066406,10.925781 a 0.75,0.75 0 0 0 0.671875,0.820313 0.75,0.75 0 0 0 0.8203125,-0.671875 C 3.2630685,6.3983931 7.1971793,2.75 12.001953,2.75 c 3.691427,0 6.868796,2.1562965 8.355469,5.2734375 C 20.563108,8.4550203 21.002552,8.75 21.5,8.75 c 0.683091,0 1.251953,-0.5707702 1.251953,-1.2539063 V 3 a 0.75,0.75 0 0 0 -0.75,-0.75 0.75,0.75 0 0 0 -0.75,0.75 V 6.6835937 C 19.393803,3.4631851 15.979921,1.25 12.001953,1.25 Z"
     id="path2" />
  <path
     style="color:#000000;fill:currentColor;stroke-linecap:round;stroke-linejoin:round;-inkscape-stroke:none"
     d="M 10.226563,5.25 C 9.7686659,5.25 9.3397772,5.484284 9.0917969,5.8691406 L 7.6914062,8.0429688 H 6.5996094 C 5.8629077,8.0429688 5.25,8.6578296 5.25,9.3945313 V 16.400391 C 5.25,17.137086 5.862953,17.75 6.5996094,17.75 H 17.400391 C 18.13704,17.75 18.75,17.13704 18.75,16.400391 V 9.3945313 c 0,-0.7366565 -0.612914,-1.3515626 -1.349609,-1.3515625 H 16.308594 L 14.908203,5.8691406 C 14.660249,5.4844632 14.231334,5.25 13.773438,5.25 Z m 0.08203,1.5 h 3.382812 l 1.400391,2.1757813 c 0.247954,0.3846774 0.676869,0.6171874 1.134765,0.6171875 H 17.25 V 16.25 H 6.75 V 9.5429688 h 1.0234375 c 0.4579113,0 0.8867518,-0.232279 1.1347656,-0.6171875 z"
     id="path4" />
  <path
     style="color:#000000;fill:currentColor;stroke-linecap:round;stroke-linejoin:round;-inkscape-stroke:none"
     d="m 12,9.25 c -1.509904,0 -2.75,1.240096 -2.75,2.75 0,1.509904 1.240096,2.75 2.75,2.75 1.509904,0 2.75,-1.240096 2.75,-2.75 0,-1.509904 -1.240096,-2.75 -2.75,-2.75 z m 0,1.5 c 0.699294,0 1.25,0.550706 1.25,1.25 0,0.699294 -0.550706,1.25 -1.25,1.25 -0.699294,0 -1.25,-0.550706 -1.25,-1.25 0,-0.699294 0.550706,-1.25 1.25,-1.25 z"
     id="path6" />
  <path
     style="color:#000000;fill:currentColor;stroke-linecap:round;stroke-linejoin:round;-inkscape-stroke:none"
     d="m 22.076172,12.253906 a 0.75,0.75 0 0 0 -0.820313,0.671875 C 20.791638,17.601579 16.85551,21.25 12.050781,21.25 8.3593887,21.25 5.1838758,19.093678 3.6972656,15.976563 3.4914967,15.545227 3.0522261,15.25 2.5546875,15.25 c -0.6831361,0 -1.2539062,0.570815 -1.2539063,1.253906 V 21 a 0.75,0.75 0 0 0 0.7500001,0.75 0.75,0.75 0 0 0 0.75,-0.75 V 17.316406 C 4.6588543,20.536965 8.0727288,22.75 12.050781,22.75 c 5.565861,0 10.158088,-4.244989 10.697266,-9.675781 a 0.75,0.75 0 0 0 -0.671875,-0.820313 z"
     id="path8" />
</svg>
