<?xml version="1.0" encoding="UTF-8" standalone="no"?>
<svg
   width="24"
   stroke-width="1.5"
   height="24"
   viewBox="0 0 24 24"
   fill="none"
   version="1.1"
   id="svg12"
   sodipodi:docname="round-flask.svg"
   inkscape:version="1.2.1 (9c6d41e410, 2022-07-14)"
   xmlns:inkscape="http://www.inkscape.org/namespaces/inkscape"
   xmlns:sodipodi="http://sodipodi.sourceforge.net/DTD/sodipodi-0.dtd"
   xmlns="http://www.w3.org/2000/svg"
   xmlns:svg="http://www.w3.org/2000/svg">
  <defs
     id="defs16" />
  <sodipodi:namedview
     id="namedview14"
     pagecolor="#ffffff"
     bordercolor="#666666"
     borderopacity="1.0"
     inkscape:showpageshadow="2"
     inkscape:pageopacity="0.0"
     inkscape:pagecheckerboard="0"
     inkscape:deskcolor="#d1d1d1"
     showgrid="false"
     inkscape:zoom="34.541667"
     inkscape:cx="10.364294"
     inkscape:cy="12.014475"
     inkscape:window-width="1920"
     inkscape:window-height="1009"
     inkscape:window-x="1912"
     inkscape:window-y="-8"
     inkscape:window-maximized="1"
     inkscape:current-layer="svg12" />
  <path
     style="color:#000000;fill:currentColor;stroke-linejoin:round;-inkscape-stroke:none"
     d="m 5,14.25 v 1.5 h 14 v -1.5 z"
     id="path2" />
  <path
     style="color:#000000;fill:currentColor;stroke-linecap:round;stroke-linejoin:round;-inkscape-stroke:none"
     d="M 8,3.25 A 0.75,0.75 0 0 0 7.25,4 0.75,0.75 0 0 0 8,4.75 h 8 A 0.75,0.75 0 0 0 16.75,4 0.75,0.75 0 0 0 16,3.25 Z"
     id="path4" />
  <path
     style="color:#000000;fill:currentColor;stroke-linecap:round;stroke-linejoin:round;-inkscape-stroke:none"
     d="M 9,3.75 A 0.75,0.75 0 0 0 8.25,4.5 V 8.7539063 C 8.25,9.2255956 7.9645979,9.6921534 7.5039062,10.001953 5.1200449,11.604673 3.25,14.315442 3.25,17.460937 c 0,0.882145 0.1228694,1.737285 0.3535156,2.544922 C 3.9197426,21.113089 4.9822393,21.75 6.0507812,21.75 H 17.949219 c 1.06858,0 2.130957,-0.636986 2.447265,-1.744141 C 20.627097,19.198227 20.75,18.34307 20.75,17.460937 20.75,14.315442 18.879934,11.604673 16.496094,10.001953 16.035366,9.6921584 15.75,9.2256218 15.75,8.7539063 V 4.5 A 0.75,0.75 0 0 0 15,3.75 0.75,0.75 0 0 0 14.25,4.5 v 4.2539063 c 0,1.0546628 0.604085,1.9501827 1.410156,2.4921877 2.032756,1.366676 3.589844,3.671745 3.589844,6.214843 0,0.742266 -0.104088,1.457647 -0.296875,2.132813 C 18.840434,19.988194 18.442437,20.25 17.949219,20.25 H 6.0507812 C 5.5576447,20.25 5.1595076,19.988119 5.046875,19.59375 4.8540617,18.918589 4.75,18.203191 4.75,17.460937 4.75,14.917839 6.3070695,12.612771 8.3398438,11.246094 9.1458308,10.704094 9.75,9.8085953 9.75,8.7539063 V 4.5 A 0.75,0.75 0 0 0 9,3.75 Z"
     id="path6" />
  <path
     style="color:#000000;fill:currentColor;stroke-linecap:round;stroke-linejoin:round;-inkscape-stroke:none"
     d="m 12.970703,6.25 a 0.75,0.75 0 0 0 -0.517578,0.2480469 l -0.0098,0.00977 a 0.75,0.75 0 0 0 0.05469,1.0605469 0.75,0.75 0 0 0 1.058594,-0.056641 L 13.568359,7.5 A 0.75,0.75 0 0 0 13.511719,6.4414062 0.75,0.75 0 0 0 12.970703,6.25 Z"
     id="path8" />
  <path
     style="color:#000000;fill:currentColor;stroke-linecap:round;stroke-linejoin:round;-inkscape-stroke:none"
     d="m 11.511719,1.4414062 a 0.75,0.75 0 0 0 -1.058594,0.056641 l -0.0098,0.00977 a 0.75,0.75 0 0 0 0.05469,1.0605469 0.75,0.75 0 0 0 1.058594,-0.056641 L 11.568359,2.5 a 0.75,0.75 0 0 0 -0.05664,-1.0585938 z"
     id="path10" />
</svg>
