<?xml version="1.0" encoding="UTF-8" standalone="no"?>
<svg
   width="24"
   height="24"
   viewBox="0 0 24 24"
   stroke-width="1.5"
   fill="none"
   version="1.1"
   id="svg8"
   sodipodi:docname="rounded-mirror.svg"
   inkscape:version="1.2.1 (9c6d41e410, 2022-07-14)"
   xmlns:inkscape="http://www.inkscape.org/namespaces/inkscape"
   xmlns:sodipodi="http://sodipodi.sourceforge.net/DTD/sodipodi-0.dtd"
   xmlns="http://www.w3.org/2000/svg"
   xmlns:svg="http://www.w3.org/2000/svg">
  <defs
     id="defs12" />
  <sodipodi:namedview
     id="namedview10"
     pagecolor="#ffffff"
     bordercolor="#666666"
     borderopacity="1.0"
     inkscape:showpageshadow="2"
     inkscape:pageopacity="0.0"
     inkscape:pagecheckerboard="0"
     inkscape:deskcolor="#d1d1d1"
     showgrid="false"
     inkscape:zoom="34.541667"
     inkscape:cx="10.364294"
     inkscape:cy="12.014475"
     inkscape:window-width="1920"
     inkscape:window-height="1009"
     inkscape:window-x="1912"
     inkscape:window-y="-8"
     inkscape:window-maximized="1"
     inkscape:current-layer="svg8" />
  <path
     style="color:#000000;fill:currentColor;stroke-linecap:round;stroke-linejoin:round;-inkscape-stroke:none"
     d="M 12,1.25 C 7.1763951,1.25 3.25,5.1763951 3.25,10 v 4 c 0,4.823623 3.9263974,8.75 8.75,8.75 4.823621,0 8.75,-3.926379 8.75,-8.75 V 10 C 20.75,5.1763974 16.823623,1.25 12,1.25 Z m 0,1.5 c 4.012968,0 7.25,3.2370514 7.25,7.25 v 4 c 0,4.01297 -3.23703,7.25 -7.25,7.25 C 7.9870514,21.25 4.75,18.012968 4.75,14 V 10 C 4.75,5.9870537 7.9870537,2.75 12,2.75 Z"
     id="path2" />
  <path
     style="color:#000000;fill:currentColor;stroke-linecap:round;stroke-linejoin:round;-inkscape-stroke:none"
     d="m 17.59375,3.7558594 a 0.75,0.75 0 0 0 -0.554688,0.1523437 l -4.499999,3.5 a 0.75,0.75 0 0 0 -0.13086,1.0527344 0.75,0.75 0 0 0 1.052735,0.1308594 l 4.499999,-3.5 A 0.75,0.75 0 0 0 18.091797,4.0390625 0.75,0.75 0 0 0 17.59375,3.7558594 Z"
     id="path4" />
  <path
     style="color:#000000;fill:currentColor;stroke-linecap:round;stroke-linejoin:round;-inkscape-stroke:none"
     d="M 19.082031,6.2539062 A 0.75,0.75 0 0 0 18.53125,6.4140625 l -7.5,6.0000005 a 0.75,0.75 0 0 0 -0.117187,1.054687 0.75,0.75 0 0 0 1.054687,0.117188 l 7.5,-6.0000005 A 0.75,0.75 0 0 0 19.585937,6.53125 0.75,0.75 0 0 0 19.082031,6.2539062 Z"
     id="path6" />
</svg>
