<?xml version="1.0" encoding="UTF-8" standalone="no"?>
<svg
   width="24"
   height="24"
   stroke-width="1.5"
   viewBox="0 0 24 24"
   fill="none"
   version="1.1"
   id="svg10"
   sodipodi:docname="rss-feed-tag.svg"
   inkscape:version="1.2.1 (9c6d41e410, 2022-07-14)"
   xmlns:inkscape="http://www.inkscape.org/namespaces/inkscape"
   xmlns:sodipodi="http://sodipodi.sourceforge.net/DTD/sodipodi-0.dtd"
   xmlns="http://www.w3.org/2000/svg"
   xmlns:svg="http://www.w3.org/2000/svg">
  <defs
     id="defs14" />
  <sodipodi:namedview
     id="namedview12"
     pagecolor="#ffffff"
     bordercolor="#666666"
     borderopacity="1.0"
     inkscape:showpageshadow="2"
     inkscape:pageopacity="0.0"
     inkscape:pagecheckerboard="0"
     inkscape:deskcolor="#d1d1d1"
     showgrid="false"
     inkscape:zoom="34.541667"
     inkscape:cx="10.364294"
     inkscape:cy="12.014475"
     inkscape:window-width="1920"
     inkscape:window-height="1009"
     inkscape:window-x="1912"
     inkscape:window-y="-8"
     inkscape:window-maximized="1"
     inkscape:current-layer="svg10" />
  <path
     style="color:#000000;fill:currentColor;stroke-linecap:round;stroke-linejoin:round;-inkscape-stroke:none"
     d="M 7,11.25 A 0.75,0.75 0 0 0 6.25,12 0.75,0.75 0 0 0 7,12.75 c 1.333332,0 2.3702736,0.432774 3.09375,1.15625 C 10.817226,14.629726 11.25,15.666668 11.25,17 A 0.75,0.75 0 0 0 12,17.75 0.75,0.75 0 0 0 12.75,17 c 0,-1.666665 -0.567228,-3.129728 -1.59375,-4.15625 C 10.129728,11.817228 8.666665,11.25 7,11.25 Z"
     id="path2" />
  <path
     style="color:#000000;fill:currentColor;stroke-linecap:round;stroke-linejoin:round;-inkscape-stroke:none"
     d="M 7,6.25 A 0.75,0.75 0 0 0 6.25,7 0.75,0.75 0 0 0 7,7.75 c 2.8333305,0 5.120274,0.9327745 6.71875,2.53125 C 15.317226,11.879726 16.25,14.166669 16.25,17 A 0.75,0.75 0 0 0 17,17.75 0.75,0.75 0 0 0 17.75,17 c 0,-3.166663 -1.067229,-5.879729 -2.96875,-7.78125 C 12.879729,7.317229 10.166663,6.25 7,6.25 Z"
     id="path4" />
  <path
     style="color:#000000;fill:currentColor;stroke-linecap:round;stroke-linejoin:round;-inkscape-stroke:none"
     d="M 6.9707031,16.25 A 0.75,0.75 0 0 0 6.453125,16.496094 l -0.00977,0.01172 a 0.75,0.75 0 0 0 0.054687,1.058594 0.75,0.75 0 0 0 1.0585937,-0.05469 L 7.5664062,17.5 A 0.75,0.75 0 0 0 7.5117187,16.441406 0.75,0.75 0 0 0 6.9707031,16.25 Z"
     id="path6" />
  <path
     style="color:#000000;fill:currentColor;stroke-linecap:round;stroke-linejoin:round;-inkscape-stroke:none"
     d="M 8,2.25 C 4.8332519,2.25 2.25,4.8332519 2.25,8 v 8 c 0,3.166731 2.5832482,5.75 5.75,5.75 h 8 c 3.166735,0 5.75,-2.583265 5.75,-5.75 V 8 C 21.75,4.8332482 19.166731,2.25 16,2.25 Z m 0,1.5 h 8 c 2.356063,0 4.25,1.8939173 4.25,4.25 v 8 c 0,2.35606 -1.89394,4.25 -4.25,4.25 H 8 C 5.6439173,20.25 3.75,18.356063 3.75,16 V 8 C 3.75,5.6439137 5.6439137,3.75 8,3.75 Z"
     id="path8" />
</svg>
