<?xml version="1.0" encoding="UTF-8" standalone="no"?>
<svg
   width="24"
   height="24"
   stroke-width="1.5"
   viewBox="0 0 24 24"
   fill="none"
   version="1.1"
   id="svg12"
   sodipodi:docname="ruler-arrows.svg"
   inkscape:version="1.2.1 (9c6d41e410, 2022-07-14)"
   xmlns:inkscape="http://www.inkscape.org/namespaces/inkscape"
   xmlns:sodipodi="http://sodipodi.sourceforge.net/DTD/sodipodi-0.dtd"
   xmlns="http://www.w3.org/2000/svg"
   xmlns:svg="http://www.w3.org/2000/svg">
  <defs
     id="defs16" />
  <sodipodi:namedview
     id="namedview14"
     pagecolor="#ffffff"
     bordercolor="#666666"
     borderopacity="1.0"
     inkscape:showpageshadow="2"
     inkscape:pageopacity="0.0"
     inkscape:pagecheckerboard="0"
     inkscape:deskcolor="#d1d1d1"
     showgrid="false"
     inkscape:zoom="34.541667"
     inkscape:cx="10.364294"
     inkscape:cy="12.014475"
     inkscape:window-width="1920"
     inkscape:window-height="1009"
     inkscape:window-x="1912"
     inkscape:window-y="-8"
     inkscape:window-maximized="1"
     inkscape:current-layer="svg12" />
  <path
     style="color:#000000;fill:currentColor;stroke-linecap:round;stroke-linejoin:round;-inkscape-stroke:none"
     d="M 8.5996094,1.25 C 7.8629077,1.25 7.25,1.8629077 7.25,2.5996094 V 21.400391 C 7.25,22.137086 7.862953,22.75 8.5996094,22.75 H 15.400391 C 16.13704,22.75 16.75,22.13704 16.75,21.400391 V 2.5996094 C 16.75,1.862953 16.137086,1.25 15.400391,1.25 Z M 8.75,2.75 h 6.5 v 18.5 h -6.5 z"
     id="path2" />
  <path
     style="color:#000000;fill:currentColor;stroke-linecap:round;stroke-linejoin:round;-inkscape-stroke:none"
     d="M 13,16.25 A 0.75,0.75 0 0 0 12.25,17 0.75,0.75 0 0 0 13,17.75 h 3 A 0.75,0.75 0 0 0 16.75,17 0.75,0.75 0 0 0 16,16.25 Z"
     id="path4" />
  <path
     style="color:#000000;fill:currentColor;stroke-linecap:round;stroke-linejoin:round;-inkscape-stroke:none"
     d="M 13,6.25 A 0.75,0.75 0 0 0 12.25,7 0.75,0.75 0 0 0 13,7.75 h 3 A 0.75,0.75 0 0 0 16.75,7 0.75,0.75 0 0 0 16,6.25 Z"
     id="path6" />
  <path
     style="color:#000000;fill:currentColor;stroke-linecap:round;stroke-linejoin:round;-inkscape-stroke:none"
     d="m 21,9.25 a 0.75,0.75 0 0 0 -0.53125,0.21875 0.75,0.75 0 0 0 0,1.0625 L 21.1875,11.25 H 13 A 0.75,0.75 0 0 0 12.25,12 0.75,0.75 0 0 0 13,12.75 h 8.1875 l -0.71875,0.71875 a 0.75,0.75 0 0 0 0,1.0625 0.75,0.75 0 0 0 1.0625,0 l 2,-2 A 0.75,0.75 0 0 0 23.724609,12.0625 0.75,0.75 0 0 0 23.75,12 a 0.75,0.75 0 0 0 -0.02539,-0.128906 0.75,0.75 0 0 0 0,-0.06445 0.75,0.75 0 0 0 -0.01953,-0.0332 0.75,0.75 0 0 0 -0.173828,-0.304688 l -2,-2 A 0.75,0.75 0 0 0 21,9.25 Z"
     id="path8" />
  <path
     style="color:#000000;fill:currentColor;stroke-linecap:round;stroke-linejoin:round;-inkscape-stroke:none"
     d="M 3,9.25 A 0.75,0.75 0 0 0 2.46875,9.46875 l -2,2 A 0.75,0.75 0 0 0 0.25,12 0.75,0.75 0 0 0 0.46875,12.53125 l 2,2 a 0.75,0.75 0 0 0 1.0625,0 0.75,0.75 0 0 0 0,-1.0625 L 2.8125,12.75 H 8 A 0.75,0.75 0 0 0 8.75,12 0.75,0.75 0 0 0 8,11.25 H 2.8125 l 0.71875,-0.71875 a 0.75,0.75 0 0 0 0,-1.0625 A 0.75,0.75 0 0 0 3,9.25 Z"
     id="path10" />
</svg>
