<?xml version="1.0" encoding="UTF-8" standalone="no"?>
<svg
   width="24"
   height="24"
   stroke-width="1.5"
   viewBox="0 0 24 24"
   fill="none"
   version="1.1"
   id="svg6"
   sodipodi:docname="ruler-minus.svg"
   inkscape:version="1.2.1 (9c6d41e410, 2022-07-14)"
   xmlns:inkscape="http://www.inkscape.org/namespaces/inkscape"
   xmlns:sodipodi="http://sodipodi.sourceforge.net/DTD/sodipodi-0.dtd"
   xmlns="http://www.w3.org/2000/svg"
   xmlns:svg="http://www.w3.org/2000/svg">
  <defs
     id="defs10" />
  <sodipodi:namedview
     id="namedview8"
     pagecolor="#ffffff"
     bordercolor="#666666"
     borderopacity="1.0"
     inkscape:showpageshadow="2"
     inkscape:pageopacity="0.0"
     inkscape:pagecheckerboard="0"
     inkscape:deskcolor="#d1d1d1"
     showgrid="false"
     inkscape:zoom="34.541667"
     inkscape:cx="10.364294"
     inkscape:cy="12.014475"
     inkscape:window-width="1920"
     inkscape:window-height="1009"
     inkscape:window-x="1912"
     inkscape:window-y="-8"
     inkscape:window-maximized="1"
     inkscape:current-layer="svg6" />
  <path
     style="color:#000000;fill:currentColor;stroke-linecap:round;stroke-linejoin:round;-inkscape-stroke:none"
     d="M 15,4.25 A 0.75,0.75 0 0 0 14.25,5 0.75,0.75 0 0 0 15,5.75 h 3 3 A 0.75,0.75 0 0 0 21.75,5 0.75,0.75 0 0 0 21,4.25 h -3 z"
     id="path2" />
  <path
     style="color:#000000;fill:currentColor;stroke-linecap:round;stroke-linejoin:round;-inkscape-stroke:none"
     d="M 3.5996094,1.25 C 2.8629077,1.25 2.25,1.8629077 2.25,2.5996094 V 21.400391 C 2.25,22.137086 2.862953,22.75 3.5996094,22.75 H 10.400391 C 11.13704,22.75 11.75,22.13704 11.75,21.400391 V 17 12 7 2.5996094 C 11.75,1.862953 11.137086,1.25 10.400391,1.25 Z M 3.75,2.75 h 6.5 v 3.5 H 8 A 0.75,0.75 0 0 0 7.25,7 0.75,0.75 0 0 0 8,7.75 h 2.25 v 3.5 H 8 A 0.75,0.75 0 0 0 7.25,12 0.75,0.75 0 0 0 8,12.75 h 2.25 v 3.5 H 8 A 0.75,0.75 0 0 0 7.25,17 0.75,0.75 0 0 0 8,17.75 h 2.25 v 3.5 h -6.5 z"
     id="path4" />
</svg>
