<?xml version="1.0" encoding="UTF-8" standalone="no"?>
<svg
   width="24"
   height="24"
   stroke-width="1.5"
   viewBox="0 0 24 24"
   fill="none"
   version="1.1"
   id="svg12"
   sodipodi:docname="ruler-combine.svg"
   inkscape:version="1.2.1 (9c6d41e410, 2022-07-14)"
   xmlns:inkscape="http://www.inkscape.org/namespaces/inkscape"
   xmlns:sodipodi="http://sodipodi.sourceforge.net/DTD/sodipodi-0.dtd"
   xmlns="http://www.w3.org/2000/svg"
   xmlns:svg="http://www.w3.org/2000/svg">
  <defs
     id="defs16" />
  <sodipodi:namedview
     id="namedview14"
     pagecolor="#ffffff"
     bordercolor="#666666"
     borderopacity="1.0"
     inkscape:showpageshadow="2"
     inkscape:pageopacity="0.0"
     inkscape:pagecheckerboard="0"
     inkscape:deskcolor="#d1d1d1"
     showgrid="false"
     inkscape:zoom="34.541667"
     inkscape:cx="10.364294"
     inkscape:cy="12.014475"
     inkscape:window-width="1920"
     inkscape:window-height="1009"
     inkscape:window-x="1912"
     inkscape:window-y="-8"
     inkscape:window-maximized="1"
     inkscape:current-layer="svg12" />
  <path
     style="color:#000000;fill:currentColor;stroke-linecap:round;stroke-linejoin:round;-inkscape-stroke:none"
     d="M 2.5996094,1.25 C 1.8629077,1.25 1.25,1.8629077 1.25,2.5996094 V 21.400391 C 1.25,22.137086 1.862953,22.75 2.5996094,22.75 H 9.4003906 C 10.137047,22.75 10.75,22.137086 10.75,21.400391 V 10.75 H 21.400391 C 22.137086,10.75 22.75,10.137047 22.75,9.4003906 V 2.5996094 C 22.75,1.862953 22.137086,1.25 21.400391,1.25 Z M 2.75,2.75 h 18.5 v 6.5 H 10.599609 C 9.8629597,9.25 9.25,9.8629597 9.25,10.599609 V 21.25 h -6.5 z"
     id="path2" />
  <path
     style="color:#000000;fill:currentColor;stroke-linecap:round;stroke-linejoin:round;-inkscape-stroke:none"
     d="M 16,6.25 A 0.75,0.75 0 0 0 15.25,7 v 3 A 0.75,0.75 0 0 0 16,10.75 0.75,0.75 0 0 0 16.75,10 V 7 A 0.75,0.75 0 0 0 16,6.25 Z"
     id="path4" />
  <path
     style="color:#000000;fill:currentColor;stroke-linecap:round;stroke-linejoin:round;-inkscape-stroke:none"
     d="M 10,6.25 A 0.75,0.75 0 0 0 9.25,7 v 3 A 0.75,0.75 0 0 0 10,10.75 0.75,0.75 0 0 0 10.75,10 V 7 A 0.75,0.75 0 0 0 10,6.25 Z"
     id="path6" />
  <path
     style="color:#000000;fill:currentColor;stroke-linecap:round;stroke-linejoin:round;-inkscape-stroke:none"
     d="M 7,15.25 A 0.75,0.75 0 0 0 6.25,16 0.75,0.75 0 0 0 7,16.75 h 3 A 0.75,0.75 0 0 0 10.75,16 0.75,0.75 0 0 0 10,15.25 Z"
     id="path8" />
  <path
     style="color:#000000;fill:currentColor;stroke-linecap:round;stroke-linejoin:round;-inkscape-stroke:none"
     d="M 7,9.25 A 0.75,0.75 0 0 0 6.25,10 0.75,0.75 0 0 0 7,10.75 h 3 A 0.75,0.75 0 0 0 10.75,10 0.75,0.75 0 0 0 10,9.25 Z"
     id="path10" />
</svg>
