<?xml version="1.0" encoding="UTF-8" standalone="no"?>
<svg
   width="24"
   height="24"
   stroke-width="1.5"
   viewBox="0 0 24 24"
   fill="none"
   version="1.1"
   id="svg10"
   sodipodi:docname="running.svg"
   inkscape:version="1.2.1 (9c6d41e410, 2022-07-14)"
   xmlns:inkscape="http://www.inkscape.org/namespaces/inkscape"
   xmlns:sodipodi="http://sodipodi.sourceforge.net/DTD/sodipodi-0.dtd"
   xmlns="http://www.w3.org/2000/svg"
   xmlns:svg="http://www.w3.org/2000/svg">
  <defs
     id="defs14" />
  <sodipodi:namedview
     id="namedview12"
     pagecolor="#ffffff"
     bordercolor="#666666"
     borderopacity="1.0"
     inkscape:showpageshadow="2"
     inkscape:pageopacity="0.0"
     inkscape:pagecheckerboard="0"
     inkscape:deskcolor="#d1d1d1"
     showgrid="false"
     inkscape:zoom="34.541667"
     inkscape:cx="10.364294"
     inkscape:cy="12.014475"
     inkscape:window-width="1920"
     inkscape:window-height="1009"
     inkscape:window-x="1912"
     inkscape:window-y="-8"
     inkscape:window-maximized="1"
     inkscape:current-layer="svg10" />
  <path
     style="color:#000000;fill:currentColor;stroke-linecap:round;stroke-linejoin:round;-inkscape-stroke:none"
     d="m 15,2.25 c -1.509917,0 -2.75,1.2401154 -2.75,2.75 0,1.5098846 1.240083,2.75 2.75,2.75 1.509917,0 2.75,-1.2401154 2.75,-2.75 0,-1.5098846 -1.240083,-2.75 -2.75,-2.75 z m 0,1.5 c 0.699281,0 1.25,0.5507468 1.25,1.25 0,0.6992532 -0.550719,1.25 -1.25,1.25 -0.699281,0 -1.25,-0.5507468 -1.25,-1.25 0,-0.6992532 0.550719,-1.25 1.25,-1.25 z"
     id="path2" />
  <path
     style="color:#000000;fill:currentColor;stroke-linecap:round;stroke-linejoin:round;-inkscape-stroke:none"
     d="M 13.082031,7.6816406 A 0.75,0.75 0 0 0 12.027344,7.7988281 L 8.71875,11.933594 a 0.750075,0.750075 0 0 0 0.056641,0.998047 l 3.7675784,3.769531 -1.853516,4.074219 a 0.75,0.75 0 0 0 0.373047,0.99414 0.75,0.75 0 0 0 0.992188,-0.373047 l 2.068359,-4.548828 A 0.750075,0.750075 0 0 0 13.970703,16.007812 L 10.310547,12.345703 13.199219,8.7363281 A 0.75,0.75 0 0 0 13.082031,7.6816406 Z"
     id="path4" />
  <path
     style="color:#000000;fill:currentColor;stroke-linecap:round;stroke-linejoin:round;-inkscape-stroke:none"
     d="M 10.240234,5.5957031 A 0.750075,0.750075 0 0 0 9.2734375,5.6621094 L 5.8867187,8.9707031 a 0.75,0.75 0 0 0 -0.013672,1.0605469 0.75,0.75 0 0 0 1.0605468,0.01367 l 2.9335938,-2.8652345 2.2363285,1.6425781 2.839843,3.2460934 a 0.750075,0.750075 0 0 0 0.564454,0.257813 h 3.722656 a 0.75,0.75 0 0 0 0.75,-0.75 0.75,0.75 0 0 0 -0.75,-0.75 H 15.847656 L 13.177734,7.7734375 A 0.750075,0.750075 0 0 0 13.056641,7.6621094 Z"
     id="path6" />
  <path
     style="color:#000000;fill:currentColor;stroke-linecap:round;stroke-linejoin:round;-inkscape-stroke:none"
     d="M 9.0390625,14.974609 A 0.75,0.75 0 0 0 8.4746094,15.085938 L 7.4238281,15.787109 H 4.3417969 a 0.75,0.75 0 0 0 -0.75,0.75 0.75,0.75 0 0 0 0.75,0.75 h 3.3085937 a 0.750075,0.750075 0 0 0 0.4160157,-0.125 L 9.3066406,16.333984 A 0.75,0.75 0 0 0 9.515625,15.294922 0.75,0.75 0 0 0 9.0390625,14.974609 Z"
     id="path8" />
</svg>
