<?xml version="1.0" encoding="UTF-8" standalone="no"?>
<svg
   width="24"
   height="24"
   stroke-width="1.5"
   viewBox="0 0 24 24"
   fill="none"
   version="1.1"
   id="svg18"
   sodipodi:docname="safari.svg"
   inkscape:version="1.2.1 (9c6d41e410, 2022-07-14)"
   xmlns:inkscape="http://www.inkscape.org/namespaces/inkscape"
   xmlns:sodipodi="http://sodipodi.sourceforge.net/DTD/sodipodi-0.dtd"
   xmlns="http://www.w3.org/2000/svg"
   xmlns:svg="http://www.w3.org/2000/svg">
  <defs
     id="defs22" />
  <sodipodi:namedview
     id="namedview20"
     pagecolor="#ffffff"
     bordercolor="#666666"
     borderopacity="1.0"
     inkscape:showpageshadow="2"
     inkscape:pageopacity="0.0"
     inkscape:pagecheckerboard="0"
     inkscape:deskcolor="#d1d1d1"
     showgrid="false"
     inkscape:zoom="34.541667"
     inkscape:cx="10.364294"
     inkscape:cy="12.014475"
     inkscape:window-width="1920"
     inkscape:window-height="1009"
     inkscape:window-x="1912"
     inkscape:window-y="-8"
     inkscape:window-maximized="1"
     inkscape:current-layer="svg18" />
  <path
     style="color:#000000;fill:currentColor;stroke-linecap:round;stroke-linejoin:round;-inkscape-stroke:none"
     d="m 17.208984,6.3476562 a 0.750075,0.750075 0 0 0 -0.623047,0.046875 l -6.365234,3.5351563 a 0.75,0.75 0 0 0 -0.06641,0.083984 0.75,0.75 0 0 0 -0.09961,0.04102 0.75,0.75 0 0 0 -0.060547,0.148437 0.75,0.75 0 0 0 -0.064453,0.01758 l -3.5351563,6.365234 a 0.750075,0.750075 0 0 0 1.0195313,1.019532 l 6.3652345,-3.535156 a 0.75,0.75 0 0 0 0.128906,-0.109375 0.75,0.75 0 0 0 0.03711,-0.01563 0.75,0.75 0 0 0 0.02539,-0.03711 0.75,0.75 0 0 0 0.07813,-0.117187 0.75,0.75 0 0 0 0.002,-0.0059 0.75,0.75 0 0 0 0.002,0 0.75,0.75 0 0 0 0.01758,-0.0059 L 17.605469,7.4140625 A 0.750075,0.750075 0 0 0 17.208984,6.3476562 Z m -2.189453,2.6328126 -1.777343,3.2011722 -1.423829,-1.423828 z m -4.261718,2.8398442 1.421875,1.421875 -3.1992192,1.777343 z"
     id="path2" />
  <path
     style="color:#000000;fill:currentColor;stroke-linecap:round;stroke-linejoin:round;-inkscape-stroke:none"
     d="M 12,1.25 C 6.0718263,1.25 1.25,6.0718263 1.25,12 1.25,17.928127 6.0718217,22.75 12,22.75 17.928132,22.75 22.75,17.928132 22.75,12 22.75,6.0718217 17.928127,1.25 12,1.25 Z m 0,1.5 c 5.117462,0 9.25,4.1324893 9.25,9.25 0,5.117457 -4.132543,9.25 -9.25,9.25 C 6.8824893,21.25 2.75,17.117462 2.75,12 2.75,6.8824848 6.8824848,2.75 12,2.75 Z"
     id="path4" />
  <path
     style="color:#000000;fill:currentColor;stroke-linecap:round;stroke-linejoin:round;-inkscape-stroke:none"
     d="M 18,11.25 A 0.75,0.75 0 0 0 17.25,12 0.75,0.75 0 0 0 18,12.75 h 1 A 0.75,0.75 0 0 0 19.75,12 0.75,0.75 0 0 0 19,11.25 Z"
     id="path6" />
  <path
     style="color:#000000;fill:currentColor;stroke-linecap:round;stroke-linejoin:round;-inkscape-stroke:none"
     d="M 5,11.25 A 0.75,0.75 0 0 0 4.25,12 0.75,0.75 0 0 0 5,12.75 H 6 A 0.75,0.75 0 0 0 6.75,12 0.75,0.75 0 0 0 6,11.25 Z"
     id="path8" />
  <path
     style="color:#000000;fill:currentColor;stroke-linecap:round;stroke-linejoin:round;-inkscape-stroke:none"
     d="M 12,4.25 A 0.75,0.75 0 0 0 11.25,5 V 6 A 0.75,0.75 0 0 0 12,6.75 0.75,0.75 0 0 0 12.75,6 V 5 A 0.75,0.75 0 0 0 12,4.25 Z"
     id="path10" />
  <path
     style="color:#000000;fill:currentColor;stroke-linecap:round;stroke-linejoin:round;-inkscape-stroke:none"
     d="M 12,17.25 A 0.75,0.75 0 0 0 11.25,18 v 1 A 0.75,0.75 0 0 0 12,19.75 0.75,0.75 0 0 0 12.75,19 V 18 A 0.75,0.75 0 0 0 12,17.25 Z"
     id="path12" />
  <path
     style="color:#000000;fill:currentColor;stroke-linecap:round;stroke-linejoin:round;-inkscape-stroke:none"
     d="m 7.0507812,6.3007812 a 0.75,0.75 0 0 0 -0.53125,0.21875 0.75,0.75 0 0 0 0,1.0605469 l 0.7070313,0.7070313 a 0.75,0.75 0 0 0 1.0605469,0 0.75,0.75 0 0 0 0,-1.0605469 L 7.5800781,6.5195312 a 0.75,0.75 0 0 0 -0.5292969,-0.21875 z"
     id="path14" />
  <path
     style="color:#000000;fill:currentColor;stroke-linecap:round;stroke-linejoin:round;-inkscape-stroke:none"
     d="m 16.242187,15.492188 a 0.75,0.75 0 0 0 -0.529296,0.220703 0.75,0.75 0 0 0 0,1.060546 l 0.707031,0.707032 a 0.75,0.75 0 0 0 1.060547,0 0.75,0.75 0 0 0 0,-1.060547 l -0.707032,-0.707031 a 0.75,0.75 0 0 0 -0.53125,-0.220703 z"
     id="path16" />
</svg>
