<?xml version="1.0" encoding="UTF-8" standalone="no"?>
<svg
   width="24"
   height="24"
   viewBox="0 0 24 24"
   stroke-width="1.5"
   fill="none"
   version="1.1"
   id="svg26"
   sodipodi:docname="safe-arrow-right.svg"
   inkscape:version="1.2.1 (9c6d41e410, 2022-07-14)"
   xmlns:inkscape="http://www.inkscape.org/namespaces/inkscape"
   xmlns:sodipodi="http://sodipodi.sourceforge.net/DTD/sodipodi-0.dtd"
   xmlns="http://www.w3.org/2000/svg"
   xmlns:svg="http://www.w3.org/2000/svg">
  <defs
     id="defs30" />
  <sodipodi:namedview
     id="namedview28"
     pagecolor="#ffffff"
     bordercolor="#666666"
     borderopacity="1.0"
     inkscape:showpageshadow="2"
     inkscape:pageopacity="0.0"
     inkscape:pagecheckerboard="0"
     inkscape:deskcolor="#d1d1d1"
     showgrid="false"
     inkscape:zoom="34.541667"
     inkscape:cx="10.364294"
     inkscape:cy="12.014475"
     inkscape:window-width="1920"
     inkscape:window-height="1009"
     inkscape:window-x="1912"
     inkscape:window-y="-8"
     inkscape:window-maximized="1"
     inkscape:current-layer="svg26" />
  <path
     style="color:#000000;fill:currentColor;-inkscape-stroke:none"
     d="M 5,2.25 C 3.4901018,2.25 2.25,3.4901018 2.25,5 v 14 c 0,1.509917 1.2401154,2.75 2.75,2.75 h 7 c 1.509904,0 2.75,-1.240096 2.75,-2.75 V 5 C 14.75,3.4901154 13.509917,2.25 12,2.25 Z m 0,1.5 h 7 c 0.699281,0 1.25,0.5507468 1.25,1.25 v 14 c 0,0.699294 -0.550706,1.25 -1.25,1.25 H 5 C 4.3007468,20.25 3.75,19.699281 3.75,19 V 5 C 3.75,4.3007604 4.3007604,3.75 5,3.75 Z"
     id="path2" />
  <path
     style="color:#000000;fill:currentColor;stroke-linecap:round;stroke-linejoin:round;-inkscape-stroke:none"
     d="M 12,2.25 A 0.75,0.75 0 0 0 11.25,3 0.75,0.75 0 0 0 12,3.75 h 7 c 0.699281,0 1.25,0.5507468 1.25,1.25 V 5.5 A 0.75,0.75 0 0 0 21,6.25 0.75,0.75 0 0 0 21.75,5.5 V 5 C 21.75,3.4901154 20.509917,2.25 19,2.25 Z m 9,15.5 A 0.75,0.75 0 0 0 20.25,18.5 V 19 c 0,0.699294 -0.550706,1.25 -1.25,1.25 H 12 A 0.75,0.75 0 0 0 11.25,21 0.75,0.75 0 0 0 12,21.75 h 7 c 1.509904,0 2.75,-1.240096 2.75,-2.75 V 18.5 A 0.75,0.75 0 0 0 21,17.75 Z"
     id="path4" />
  <path
     style="color:#000000;fill:currentColor;stroke-linecap:round;stroke-linejoin:round;-inkscape-stroke:none"
     d="M 8.5,8.25 C 7.6804709,8.25 7.1072689,8.8635935 6.7675781,9.5429688 6.4278874,10.222344 6.25,11.070222 6.25,12 c 0,0.929778 0.1778874,1.777656 0.5175781,2.457031 C 7.1072689,15.136406 7.6804709,15.75 8.5,15.75 c 0.8195291,0 1.3927311,-0.613594 1.732422,-1.292969 C 10.572113,13.777656 10.75,12.929778 10.75,12 10.75,11.070222 10.572113,10.222344 10.232422,9.5429688 9.8927311,8.8635935 9.3195291,8.25 8.5,8.25 Z m 0,1.5 c 0.0089,0 0.1874238,0.058445 0.390625,0.464844 C 9.0938262,10.621242 9.25,11.27288 9.25,12 9.25,12.72712 9.0938262,13.378758 8.890625,13.785156 8.6874238,14.191555 8.5089001,14.25 8.5,14.25 c -0.0089,0 -0.1874238,-0.05845 -0.390625,-0.464844 C 7.9061738,13.378758 7.75,12.72712 7.75,12 7.75,11.27288 7.9061738,10.621242 8.109375,10.214844 8.3125762,9.8084451 8.4910999,9.75 8.5,9.75 Z"
     id="path6" />
  <path
     style="color:#000000;fill:currentColor;stroke-linecap:round;stroke-linejoin:round;-inkscape-stroke:none"
     d="M 10.5,7.75 A 0.75,0.75 0 0 0 9.96875,7.96875 l -1,1 a 0.75,0.75 0 0 0 0,1.0625 0.75,0.75 0 0 0 1.0625,0 l 1,-1 a 0.75,0.75 0 0 0 0,-1.0625 A 0.75,0.75 0 0 0 10.5,7.75 Z"
     id="path8" />
  <path
     style="color:#000000;fill:currentColor;stroke-linecap:round;stroke-linejoin:round;-inkscape-stroke:none"
     d="m 6.5,7.75 a 0.75,0.75 0 0 0 -0.53125,0.21875 0.75,0.75 0 0 0 0,1.0625 l 1,1 a 0.75,0.75 0 0 0 1.0625,0 0.75,0.75 0 0 0 0,-1.0625 l -1,-1 A 0.75,0.75 0 0 0 6.5,7.75 Z"
     id="path10" />
  <path
     style="color:#000000;fill:currentColor;stroke-linecap:round;stroke-linejoin:round;-inkscape-stroke:none"
     d="m 7.5,13.75 a 0.75,0.75 0 0 0 -0.53125,0.21875 l -1,1 a 0.75,0.75 0 0 0 0,1.0625 0.75,0.75 0 0 0 1.0625,0 l 1,-1 a 0.75,0.75 0 0 0 0,-1.0625 A 0.75,0.75 0 0 0 7.5,13.75 Z"
     id="path12" />
  <path
     style="color:#000000;fill:currentColor;stroke-linecap:round;stroke-linejoin:round;-inkscape-stroke:none"
     d="m 9.5,13.75 a 0.75,0.75 0 0 0 -0.53125,0.21875 0.75,0.75 0 0 0 0,1.0625 l 1,1 a 0.75,0.75 0 0 0 1.0625,0 0.75,0.75 0 0 0 0,-1.0625 l -1,-1 A 0.75,0.75 0 0 0 9.5,13.75 Z"
     id="path14" />
  <path
     style="color:#000000;fill:currentColor;stroke-linecap:round;stroke-linejoin:round;-inkscape-stroke:none"
     d="M 2,7.25 A 0.75,0.75 0 0 0 1.25,8 0.75,0.75 0 0 0 2,8.75 H 3 A 0.75,0.75 0 0 0 3.75,8 0.75,0.75 0 0 0 3,7.25 Z"
     id="path16" />
  <path
     style="color:#000000;fill:currentColor;stroke-linecap:round;stroke-linejoin:round;-inkscape-stroke:none"
     d="M 2,5.25 A 0.75,0.75 0 0 0 1.25,6 0.75,0.75 0 0 0 2,6.75 H 3 A 0.75,0.75 0 0 0 3.75,6 0.75,0.75 0 0 0 3,5.25 Z"
     id="path18" />
  <path
     style="color:#000000;fill:currentColor;stroke-linecap:round;stroke-linejoin:round;-inkscape-stroke:none"
     d="M 2,15.25 A 0.75,0.75 0 0 0 1.25,16 0.75,0.75 0 0 0 2,16.75 H 3 A 0.75,0.75 0 0 0 3.75,16 0.75,0.75 0 0 0 3,15.25 Z"
     id="path20" />
  <path
     style="color:#000000;fill:currentColor;stroke-linecap:round;stroke-linejoin:round;-inkscape-stroke:none"
     d="M 2,17.25 A 0.75,0.75 0 0 0 1.25,18 0.75,0.75 0 0 0 2,18.75 H 3 A 0.75,0.75 0 0 0 3.75,18 0.75,0.75 0 0 0 3,17.25 Z"
     id="path22" />
  <path
     style="color:#000000;fill:currentColor;stroke-linecap:round;stroke-linejoin:round;-inkscape-stroke:none"
     d="m 18.5,7.75 a 0.75,0.75 0 0 0 -0.53125,0.21875 0.75,0.75 0 0 0 0,1.0625 L 20.1875,11.25 H 15 A 0.75,0.75 0 0 0 14.25,12 0.75,0.75 0 0 0 15,12.75 h 5.1875 l -2.21875,2.21875 a 0.75,0.75 0 0 0 0,1.0625 0.75,0.75 0 0 0 1.0625,0 l 3.5,-3.5 A 0.75,0.75 0 0 0 22.724609,12.0625 0.75,0.75 0 0 0 22.75,12 0.75,0.75 0 0 0 22.724609,11.871094 0.75,0.75 0 0 0 22.705078,11.773438 0.75,0.75 0 0 0 22.53125,11.46875 l -3.5,-3.5 A 0.75,0.75 0 0 0 18.5,7.75 Z"
     id="path24" />
</svg>
