<?xml version="1.0" encoding="UTF-8" standalone="no"?>
<svg
   width="24"
   height="24"
   stroke-width="1.5"
   viewBox="0 0 24 24"
   fill="none"
   version="1.1"
   id="svg6"
   sodipodi:docname="sandals.svg"
   inkscape:version="1.2.1 (9c6d41e410, 2022-07-14)"
   xmlns:inkscape="http://www.inkscape.org/namespaces/inkscape"
   xmlns:sodipodi="http://sodipodi.sourceforge.net/DTD/sodipodi-0.dtd"
   xmlns="http://www.w3.org/2000/svg"
   xmlns:svg="http://www.w3.org/2000/svg">
  <defs
     id="defs10" />
  <sodipodi:namedview
     id="namedview8"
     pagecolor="#ffffff"
     bordercolor="#666666"
     borderopacity="1.0"
     inkscape:showpageshadow="2"
     inkscape:pageopacity="0.0"
     inkscape:pagecheckerboard="0"
     inkscape:deskcolor="#d1d1d1"
     showgrid="false"
     inkscape:zoom="34.541667"
     inkscape:cx="10.364294"
     inkscape:cy="12.014475"
     inkscape:window-width="1920"
     inkscape:window-height="1009"
     inkscape:window-x="1912"
     inkscape:window-y="-8"
     inkscape:window-maximized="1"
     inkscape:current-layer="svg6" />
  <path
     style="color:#000000;fill:currentColor;stroke-linecap:round;stroke-linejoin:round;-inkscape-stroke:none"
     d="m 18,2.25 c -2.472265,0 -3.842893,1.232939 -4.375,2.4492187 -0.495001,1.1314642 -0.388307,2.1434118 -0.371094,2.2910157 A 0.75,0.75 0 0 0 13.25,7 a 0.75,0.75 0 0 0 0.0039,0.00977 c 3.71e-4,0.00307 -2.31e-4,0.033351 0,0.035156 a 0.75,0.75 0 0 0 -0.002,0.00781 l 0.0039,0.041016 0.210938,2.958984 0.585937,8.214844 c 0.139621,1.95544 1.77994,3.482422 3.740235,3.482422 h 0.414062 c 1.960295,0 3.600616,-1.527014 3.740235,-3.482422 l 0.585937,-8.214844 0.210938,-2.958984 0.0039,-0.041016 a 0.75,0.75 0 0 0 -0.002,-0.019531 c 1.87e-4,-0.00149 -2.47e-4,-0.021392 0,-0.023437 A 0.75,0.75 0 0 0 22.75,7 0.75,0.75 0 0 0 22.746094,6.9824219 C 22.764188,6.8249957 22.867202,5.8242843 22.375,4.6992187 21.842893,3.482939 20.472265,2.25 18,2.25 Z m 0,1.5 c 2.027831,0 2.657133,0.767063 3,1.5507812 C 21.202688,5.7640804 21.141511,5.9374886 21.150391,6.25 H 14.849609 C 14.858489,5.9374886 14.797312,5.7640804 15,5.3007812 15.342867,4.517063 15.972169,3.75 18,3.75 Z m -3.195312,4 h 6.390624 l -0.107421,1.5 h -6.175782 z m 0.214843,3 h 5.960938 l -0.529297,7.410156 C 20.366591,19.344745 19.394533,20.25 18.207031,20.25 h -0.414062 c -1.187502,0 -2.159562,-0.905287 -2.244141,-2.089844 z"
     id="path2" />
  <path
     style="color:#000000;fill:currentColor;stroke-linecap:round;stroke-linejoin:round;-inkscape-stroke:none"
     d="M 6,2.25 C 3.5277487,2.25 2.1571107,3.4829413 1.625,4.6992187 1.1299953,5.8306807 1.2366944,6.8426306 1.2539062,6.9902344 A 0.75,0.75 0 0 0 1.25,7 a 0.75,0.75 0 0 0 0.00391,0.00977 c 4.122e-4,0.00341 0.00171,0.037214 0.00195,0.039063 a 0.75,0.75 0 0 0 -0.00391,0.00391 l 0.00391,0.041016 0.2109375,2.958984 0.5859375,8.214844 C 2.1924024,20.222981 3.8326588,21.75 5.7929687,21.75 h 0.4140625 c 1.96031,0 3.6005664,-1.527019 3.7402344,-3.482422 l 0.5859374,-8.214844 0.210938,-2.958984 0.0039,-0.041016 a 0.75,0.75 0 0 0 -0.002,-0.019531 c 1.87e-4,-0.00149 -2.47e-4,-0.021392 0,-0.023437 A 0.75,0.75 0 0 0 10.75,7 0.75,0.75 0 0 0 10.746094,6.9824219 C 10.764184,6.824996 10.867217,5.8242776 10.375,4.6992187 9.8428762,3.4829462 8.4722333,2.25 6,2.25 Z m 0,1.5 c 2.0277922,0 2.6571172,0.7670558 3,1.5507812 C 9.202697,5.7640847 9.1415041,5.9374874 9.1503906,6.25 H 2.8496094 C 2.858491,5.9374881 2.7973101,5.7640818 3,5.3007812 3.3428709,4.5170607 3.9721858,3.75 6,3.75 Z m -3.1953125,4 h 6.390625 L 9.0878906,9.25 H 2.9121094 Z m 0.2148438,3 H 8.9804688 L 8.4511719,18.160156 C 8.3665602,19.34475 7.3945581,20.25 6.2070312,20.25 H 5.7929687 c -1.1875268,0 -2.1595289,-0.90525 -2.2441406,-2.089844 z"
     id="path4" />
</svg>
