<?xml version="1.0" encoding="UTF-8" standalone="no"?>
<svg
   width="24"
   height="24"
   stroke-width="1.5"
   viewBox="0 0 24 24"
   fill="none"
   version="1.1"
   id="svg20"
   sodipodi:docname="scale-frame-enlarge.svg"
   inkscape:version="1.2.1 (9c6d41e410, 2022-07-14)"
   xmlns:inkscape="http://www.inkscape.org/namespaces/inkscape"
   xmlns:sodipodi="http://sodipodi.sourceforge.net/DTD/sodipodi-0.dtd"
   xmlns="http://www.w3.org/2000/svg"
   xmlns:svg="http://www.w3.org/2000/svg">
  <defs
     id="defs24" />
  <sodipodi:namedview
     id="namedview22"
     pagecolor="#ffffff"
     bordercolor="#666666"
     borderopacity="1.0"
     inkscape:showpageshadow="2"
     inkscape:pageopacity="0.0"
     inkscape:pagecheckerboard="0"
     inkscape:deskcolor="#d1d1d1"
     showgrid="false"
     inkscape:zoom="34.541667"
     inkscape:cx="10.364294"
     inkscape:cy="12.014475"
     inkscape:window-width="1920"
     inkscape:window-height="1009"
     inkscape:window-x="1912"
     inkscape:window-y="-8"
     inkscape:window-maximized="1"
     inkscape:current-layer="svg20" />
  <path
     style="color:#000000;fill:currentColor;stroke-linecap:round;stroke-linejoin:round;-inkscape-stroke:none"
     d="M 3,12.25 A 0.750075,0.750075 0 0 0 2.25,13 v 7.400391 C 2.25,21.137086 2.862953,21.75 3.5996094,21.75 H 11 A 0.750075,0.750075 0 0 0 11.75,21 V 13.599609 C 11.75,12.86296 11.13704,12.25 10.400391,12.25 Z m 0.75,1.5 h 6.5 v 6.5 h -6.5 z"
     id="path2" />
  <path
     style="color:#000000;fill:currentColor;stroke-linecap:round;stroke-linejoin:round;-inkscape-stroke:none"
     d="M 11,20.25 A 0.75,0.75 0 0 0 10.25,21 0.75,0.75 0 0 0 11,21.75 h 3 A 0.75,0.75 0 0 0 14.75,21 0.75,0.75 0 0 0 14,20.25 Z"
     id="path4" />
  <path
     style="color:#000000;fill:currentColor;stroke-linecap:round;stroke-linejoin:round;-inkscape-stroke:none"
     d="M 3,9.25 A 0.75,0.75 0 0 0 2.25,10 v 3 A 0.75,0.75 0 0 0 3,13.75 0.75,0.75 0 0 0 3.75,13 V 10 A 0.75,0.75 0 0 0 3,9.25 Z"
     id="path6" />
  <path
     style="color:#000000;fill:currentColor;stroke-linecap:round;stroke-linejoin:round;-inkscape-stroke:none"
     d="M 3.5996094,2.25 C 2.8629077,2.25 2.25,2.8629077 2.25,3.5996094 V 6 A 0.75,0.75 0 0 0 3,6.75 0.75,0.75 0 0 0 3.75,6 V 3.75 H 6 A 0.75,0.75 0 0 0 6.75,3 0.75,0.75 0 0 0 6,2.25 Z"
     id="path8" />
  <path
     style="color:#000000;fill:currentColor;stroke-linecap:round;stroke-linejoin:round;-inkscape-stroke:none"
     d="M 10,2.25 A 0.75,0.75 0 0 0 9.25,3 0.75,0.75 0 0 0 10,3.75 h 4 A 0.75,0.75 0 0 0 14.75,3 0.75,0.75 0 0 0 14,2.25 Z"
     id="path10" />
  <path
     style="color:#000000;fill:currentColor;stroke-linecap:round;stroke-linejoin:round;-inkscape-stroke:none"
     d="M 21,9.25 A 0.75,0.75 0 0 0 20.25,10 v 4 A 0.75,0.75 0 0 0 21,14.75 0.75,0.75 0 0 0 21.75,14 V 10 A 0.75,0.75 0 0 0 21,9.25 Z"
     id="path12" />
  <path
     style="color:#000000;fill:currentColor;stroke-linecap:round;stroke-linejoin:round;-inkscape-stroke:none"
     d="M 18,2.25 A 0.75,0.75 0 0 0 17.25,3 0.75,0.75 0 0 0 18,3.75 h 2.25 V 6 A 0.75,0.75 0 0 0 21,6.75 0.75,0.75 0 0 0 21.75,6 V 3.5996094 C 21.75,2.862953 21.137086,2.25 20.400391,2.25 Z"
     id="path14" />
  <path
     style="color:#000000;fill:currentColor;stroke-linecap:round;stroke-linejoin:round;-inkscape-stroke:none"
     d="M 21,17.25 A 0.75,0.75 0 0 0 20.25,18 v 2.25 H 18 A 0.75,0.75 0 0 0 17.25,21 0.75,0.75 0 0 0 18,21.75 h 2.400391 C 21.13704,21.75 21.75,21.13704 21.75,20.400391 V 18 A 0.75,0.75 0 0 0 21,17.25 Z"
     id="path16" />
  <path
     style="color:#000000;fill:currentColor;stroke-linecap:round;stroke-linejoin:round;-inkscape-stroke:none"
     d="M 11,9.25 A 0.75,0.75 0 0 0 10.25,10 0.75,0.75 0 0 0 11,10.75 h 2.25 V 13 A 0.75,0.75 0 0 0 14,13.75 0.75,0.75 0 0 0 14.75,13 V 10 A 0.750075,0.750075 0 0 0 14,9.25 Z"
     id="path18" />
</svg>
