<?xml version="1.0" encoding="UTF-8" standalone="no"?>
<svg
   width="24"
   height="24"
   stroke-width="1.5"
   viewBox="0 0 24 24"
   fill="none"
   version="1.1"
   id="svg12"
   sodipodi:docname="scale-frame-reduce.svg"
   inkscape:version="1.2.1 (9c6d41e410, 2022-07-14)"
   xmlns:inkscape="http://www.inkscape.org/namespaces/inkscape"
   xmlns:sodipodi="http://sodipodi.sourceforge.net/DTD/sodipodi-0.dtd"
   xmlns="http://www.w3.org/2000/svg"
   xmlns:svg="http://www.w3.org/2000/svg">
  <defs
     id="defs16" />
  <sodipodi:namedview
     id="namedview14"
     pagecolor="#ffffff"
     bordercolor="#666666"
     borderopacity="1.0"
     inkscape:showpageshadow="2"
     inkscape:pageopacity="0.0"
     inkscape:pagecheckerboard="0"
     inkscape:deskcolor="#d1d1d1"
     showgrid="false"
     inkscape:zoom="34.541667"
     inkscape:cx="10.364294"
     inkscape:cy="12.014475"
     inkscape:window-width="1920"
     inkscape:window-height="1009"
     inkscape:window-x="1912"
     inkscape:window-y="-8"
     inkscape:window-maximized="1"
     inkscape:current-layer="svg12" />
  <path
     style="color:#000000;fill:currentColor;stroke-linecap:round;stroke-linejoin:round;-inkscape-stroke:none"
     d="M 9,12.25 A 0.75,0.75 0 0 0 8.25,13 0.75,0.75 0 0 0 9,13.75 h 1.25 V 15 A 0.75,0.75 0 0 0 11,15.75 0.75,0.75 0 0 0 11.75,15 V 13.599609 C 11.75,12.86296 11.13704,12.25 10.400391,12.25 Z"
     id="path2" />
  <path
     style="color:#000000;fill:currentColor;stroke-linecap:round;stroke-linejoin:round;-inkscape-stroke:none"
     d="M 3,12.25 A 0.75,0.75 0 0 0 2.25,13 0.75,0.75 0 0 0 3,13.75 H 6 A 0.75,0.75 0 0 0 6.75,13 0.75,0.75 0 0 0 6,12.25 Z"
     id="path4" />
  <path
     style="color:#000000;fill:currentColor;stroke-linecap:round;stroke-linejoin:round;-inkscape-stroke:none"
     d="M 11,17.25 A 0.75,0.75 0 0 0 10.25,18 v 3 A 0.75,0.75 0 0 0 11,21.75 0.75,0.75 0 0 0 11.75,21 V 18 A 0.75,0.75 0 0 0 11,17.25 Z"
     id="path6" />
  <path
     style="color:#000000;fill:currentColor;stroke-linecap:round;stroke-linejoin:round;stroke-miterlimit:1.5;-inkscape-stroke:none"
     d="M 3.5996094,2.25 C 2.8631239,2.25 2.25,2.8631239 2.25,3.5996094 V 20.400391 C 2.25,21.136869 2.8631691,21.75 3.5996094,21.75 H 20.400391 C 21.136824,21.75 21.75,21.136824 21.75,20.400391 V 3.5996094 C 21.75,2.8631691 21.136869,2.25 20.400391,2.25 Z M 3.75,3.75 h 16.5 v 16.5 H 3.75 Z"
     id="path8" />
  <path
     style="color:#000000;fill:currentColor;stroke-linecap:round;stroke-linejoin:round;-inkscape-stroke:none"
     d="M 13,7.25 A 0.75,0.75 0 0 0 12.25,8 v 3 A 0.750075,0.750075 0 0 0 13,11.75 h 3 A 0.75,0.75 0 0 0 16.75,11 0.75,0.75 0 0 0 16,10.25 H 13.75 V 8 A 0.75,0.75 0 0 0 13,7.25 Z"
     id="path10" />
</svg>
