<?xml version="1.0" encoding="UTF-8" standalone="no"?>
<svg
   width="24"
   height="24"
   stroke-width="1.5"
   viewBox="0 0 24 24"
   fill="none"
   version="1.1"
   id="svg32"
   sodipodi:docname="scan-barcode.svg"
   inkscape:version="1.2.1 (9c6d41e410, 2022-07-14)"
   xmlns:inkscape="http://www.inkscape.org/namespaces/inkscape"
   xmlns:sodipodi="http://sodipodi.sourceforge.net/DTD/sodipodi-0.dtd"
   xmlns="http://www.w3.org/2000/svg"
   xmlns:svg="http://www.w3.org/2000/svg">
  <defs
     id="defs36" />
  <sodipodi:namedview
     id="namedview34"
     pagecolor="#ffffff"
     bordercolor="#666666"
     borderopacity="1.0"
     inkscape:showpageshadow="2"
     inkscape:pageopacity="0.0"
     inkscape:pagecheckerboard="0"
     inkscape:deskcolor="#d1d1d1"
     showgrid="false"
     inkscape:zoom="34.541667"
     inkscape:cx="10.364294"
     inkscape:cy="12.014475"
     inkscape:window-width="1920"
     inkscape:window-height="1009"
     inkscape:window-x="1912"
     inkscape:window-y="-8"
     inkscape:window-maximized="1"
     inkscape:current-layer="svg32" />
  <path
     style="color:#000000;fill:currentColor;stroke-linecap:round;stroke-linejoin:round;-inkscape-stroke:none"
     d="M 10,5.25 A 0.750075,0.750075 0 0 0 9.25,6 v 6 A 0.75,0.75 0 0 0 10,12.75 0.75,0.75 0 0 0 10.75,12 V 6.75 H 11 A 0.75,0.75 0 0 0 11.75,6 0.75,0.75 0 0 0 11,5.25 Z"
     id="path2" />
  <path
     style="color:#000000;fill:currentColor;stroke-linecap:round;stroke-linejoin:round;-inkscape-stroke:none"
     d="M 11,5.25 A 0.75,0.75 0 0 0 10.25,6 v 5.25 H 10 A 0.75,0.75 0 0 0 9.25,12 0.75,0.75 0 0 0 10,12.75 h 1 A 0.750075,0.750075 0 0 0 11.75,12 V 6 A 0.75,0.75 0 0 0 11,5.25 Z"
     id="path4" />
  <path
     style="color:#000000;fill:currentColor;stroke-linecap:round;stroke-linejoin:round;-inkscape-stroke:none"
     d="M 10,14.25 A 0.750075,0.750075 0 0 0 9.25,15 v 3 A 0.75,0.75 0 0 0 10,18.75 0.75,0.75 0 0 0 10.75,18 V 15.75 H 11 A 0.75,0.75 0 0 0 11.75,15 0.75,0.75 0 0 0 11,14.25 Z"
     id="path6" />
  <path
     style="color:#000000;fill:currentColor;stroke-linecap:round;stroke-linejoin:round;-inkscape-stroke:none"
     d="M 11,14.25 A 0.75,0.75 0 0 0 10.25,15 v 2.25 H 10 A 0.75,0.75 0 0 0 9.25,18 0.75,0.75 0 0 0 10,18.75 h 1 A 0.750075,0.750075 0 0 0 11.75,18 V 15 A 0.75,0.75 0 0 0 11,14.25 Z"
     id="path8" />
  <path
     style="color:#000000;fill:currentColor;stroke-linecap:round;stroke-linejoin:round;-inkscape-stroke:none"
     d="M 7,5.25 A 0.75,0.75 0 0 0 6.25,6 v 6 A 0.75,0.75 0 0 0 7,12.75 0.75,0.75 0 0 0 7.75,12 V 6 A 0.75,0.75 0 0 0 7,5.25 Z"
     id="path10" />
  <path
     style="color:#000000;fill:currentColor;stroke-linecap:round;stroke-linejoin:round;-inkscape-stroke:none"
     d="M 7,14.25 A 0.75,0.75 0 0 0 6.25,15 v 3 A 0.75,0.75 0 0 0 7,18.75 0.75,0.75 0 0 0 7.75,18 V 15 A 0.75,0.75 0 0 0 7,14.25 Z"
     id="path12" />
  <path
     style="color:#000000;fill:currentColor;stroke-linecap:round;stroke-linejoin:round;-inkscape-stroke:none"
     d="M 14,5.25 A 0.75,0.75 0 0 0 13.25,6 v 6 A 0.75,0.75 0 0 0 14,12.75 0.75,0.75 0 0 0 14.75,12 V 6 A 0.75,0.75 0 0 0 14,5.25 Z"
     id="path14" />
  <path
     style="color:#000000;fill:currentColor;stroke-linecap:round;stroke-linejoin:round;-inkscape-stroke:none"
     d="M 14,14.25 A 0.75,0.75 0 0 0 13.25,15 v 3 A 0.75,0.75 0 0 0 14,18.75 0.75,0.75 0 0 0 14.75,18 V 15 A 0.75,0.75 0 0 0 14,14.25 Z"
     id="path16" />
  <path
     style="color:#000000;fill:currentColor;stroke-linecap:round;stroke-linejoin:round;-inkscape-stroke:none"
     d="M 17,5.25 A 0.75,0.75 0 0 0 16.25,6 v 6 A 0.75,0.75 0 0 0 17,12.75 0.75,0.75 0 0 0 17.75,12 V 6 A 0.75,0.75 0 0 0 17,5.25 Z"
     id="path18" />
  <path
     style="color:#000000;fill:currentColor;stroke-linecap:round;stroke-linejoin:round;-inkscape-stroke:none"
     d="M 17,14.25 A 0.75,0.75 0 0 0 16.25,15 v 3 A 0.75,0.75 0 0 0 17,18.75 0.75,0.75 0 0 0 17.75,18 V 15 A 0.75,0.75 0 0 0 17,14.25 Z"
     id="path20" />
  <path
     style="color:#000000;fill:currentColor;stroke-linecap:round;stroke-linejoin:round;-inkscape-stroke:none"
     d="M 3,2.25 A 0.750075,0.750075 0 0 0 2.25,3 V 6 A 0.75,0.75 0 0 0 3,6.75 0.75,0.75 0 0 0 3.75,6 V 3.75 H 6 A 0.75,0.75 0 0 0 6.75,3 0.75,0.75 0 0 0 6,2.25 Z"
     id="path22" />
  <path
     style="color:#000000;fill:currentColor;stroke-linecap:round;stroke-linejoin:round;-inkscape-stroke:none"
     d="M 2,11.25 A 0.75,0.75 0 0 0 1.25,12 0.75,0.75 0 0 0 2,12.75 H 12 22 A 0.75,0.75 0 0 0 22.75,12 0.75,0.75 0 0 0 22,11.25 H 12 Z"
     id="path24" />
  <path
     style="color:#000000;fill:currentColor;stroke-linecap:round;stroke-linejoin:round;-inkscape-stroke:none"
     d="M 18,2.25 A 0.75,0.75 0 0 0 17.25,3 0.75,0.75 0 0 0 18,3.75 h 2.25 V 6 A 0.75,0.75 0 0 0 21,6.75 0.75,0.75 0 0 0 21.75,6 V 3 A 0.750075,0.750075 0 0 0 21,2.25 Z"
     id="path26" />
  <path
     style="color:#000000;fill:currentColor;stroke-linecap:round;stroke-linejoin:round;-inkscape-stroke:none"
     d="M 3,17.25 A 0.75,0.75 0 0 0 2.25,18 v 3 A 0.750075,0.750075 0 0 0 3,21.75 H 6 A 0.75,0.75 0 0 0 6.75,21 0.75,0.75 0 0 0 6,20.25 H 3.75 V 18 A 0.75,0.75 0 0 0 3,17.25 Z"
     id="path28" />
  <path
     style="color:#000000;fill:currentColor;stroke-linecap:round;stroke-linejoin:round;-inkscape-stroke:none"
     d="M 21,17.25 A 0.75,0.75 0 0 0 20.25,18 v 2.25 H 18 A 0.75,0.75 0 0 0 17.25,21 0.75,0.75 0 0 0 18,21.75 h 3 A 0.750075,0.750075 0 0 0 21.75,21 V 18 A 0.75,0.75 0 0 0 21,17.25 Z"
     id="path30" />
</svg>
