<?xml version="1.0" encoding="UTF-8" standalone="no"?>
<svg
   width="24"
   height="24"
   stroke-width="1.5"
   viewBox="0 0 24 24"
   fill="none"
   version="1.1"
   id="svg10"
   sodipodi:docname="scarf.svg"
   inkscape:version="1.2.1 (9c6d41e410, 2022-07-14)"
   xmlns:inkscape="http://www.inkscape.org/namespaces/inkscape"
   xmlns:sodipodi="http://sodipodi.sourceforge.net/DTD/sodipodi-0.dtd"
   xmlns="http://www.w3.org/2000/svg"
   xmlns:svg="http://www.w3.org/2000/svg">
  <defs
     id="defs14" />
  <sodipodi:namedview
     id="namedview12"
     pagecolor="#ffffff"
     bordercolor="#666666"
     borderopacity="1.0"
     inkscape:showpageshadow="2"
     inkscape:pageopacity="0.0"
     inkscape:pagecheckerboard="0"
     inkscape:deskcolor="#d1d1d1"
     showgrid="false"
     inkscape:zoom="34.541667"
     inkscape:cx="10.364294"
     inkscape:cy="12.014475"
     inkscape:window-width="1920"
     inkscape:window-height="1009"
     inkscape:window-x="1912"
     inkscape:window-y="-8"
     inkscape:window-maximized="1"
     inkscape:current-layer="svg10" />
  <path
     style="color:#000000;fill:currentColor;stroke-linecap:round;stroke-linejoin:round;-inkscape-stroke:none"
     d="M 5,2.25 C 3.4901018,2.25 2.25,3.4901018 2.25,5 v 4 c 0,1.509917 1.2401154,2.75 2.75,2.75 H 15 A 0.75,0.75 0 0 0 15.75,11 0.75,0.75 0 0 0 15,10.25 H 5 C 4.3007468,10.25 3.75,9.6992806 3.75,9 V 5 C 3.75,4.3007604 4.3007604,3.75 5,3.75 h 14 c 0.699281,0 1.25,0.5507468 1.25,1.25 V 21 A 0.75,0.75 0 0 0 21,21.75 0.75,0.75 0 0 0 21.75,21 V 5 C 21.75,3.4901154 20.509917,2.25 19,2.25 Z"
     id="path2" />
  <path
     style="color:#000000;fill:currentColor;stroke-linecap:round;stroke-linejoin:round;-inkscape-stroke:none"
     d="M 18,18.25 A 0.75,0.75 0 0 0 17.25,19 v 2 A 0.75,0.75 0 0 0 18,21.75 0.75,0.75 0 0 0 18.75,21 V 19 A 0.75,0.75 0 0 0 18,18.25 Z"
     id="path4" />
  <path
     style="color:#000000;fill:currentColor;stroke-linecap:round;stroke-linejoin:round;-inkscape-stroke:none"
     d="M 15,2.25 A 0.75,0.75 0 0 0 14.25,3 v 4 4 10 A 0.75,0.75 0 0 0 15,21.75 0.75,0.75 0 0 0 15.75,21 V 11 7 3 A 0.75,0.75 0 0 0 15,2.25 Z"
     id="path6" />
  <path
     style="color:#000000;fill:currentColor;stroke-linecap:round;stroke-linejoin:round;-inkscape-stroke:none"
     d="M 3,6.25 A 0.75,0.75 0 0 0 2.25,7 0.75,0.75 0 0 0 3,7.75 H 15 A 0.75,0.75 0 0 0 15.75,7 0.75,0.75 0 0 0 15,6.25 Z"
     id="path8" />
</svg>
