<?xml version="1.0" encoding="UTF-8" standalone="no"?>
<svg
   width="24"
   height="24"
   stroke-width="1.5"
   viewBox="0 0 24 24"
   fill="none"
   version="1.1"
   id="svg6"
   sodipodi:docname="scissor-alt.svg"
   inkscape:version="1.2.1 (9c6d41e410, 2022-07-14)"
   xmlns:inkscape="http://www.inkscape.org/namespaces/inkscape"
   xmlns:sodipodi="http://sodipodi.sourceforge.net/DTD/sodipodi-0.dtd"
   xmlns="http://www.w3.org/2000/svg"
   xmlns:svg="http://www.w3.org/2000/svg">
  <defs
     id="defs10" />
  <sodipodi:namedview
     id="namedview8"
     pagecolor="#ffffff"
     bordercolor="#666666"
     borderopacity="1.0"
     inkscape:showpageshadow="2"
     inkscape:pageopacity="0.0"
     inkscape:pagecheckerboard="0"
     inkscape:deskcolor="#d1d1d1"
     showgrid="false"
     inkscape:zoom="34.541667"
     inkscape:cx="10.364294"
     inkscape:cy="12.014475"
     inkscape:window-width="1920"
     inkscape:window-height="1009"
     inkscape:window-x="1912"
     inkscape:window-y="-8"
     inkscape:window-maximized="1"
     inkscape:current-layer="svg6" />
  <path
     style="color:#000000;fill:currentColor;stroke-linecap:round;stroke-linejoin:round;-inkscape-stroke:none"
     d="M 8,2.25 C 5.9378197,2.25 4.25,3.9378197 4.25,6 c 0,2.0621803 1.6878197,3.75 3.75,3.75 0.8404068,0 1.571609,-0.3421058 2.199219,-0.8125 l 9.326172,7.642578 a 0.75,0.75 0 0 0 1.054687,-0.105469 0.75,0.75 0 0 0 -0.105469,-1.054687 L 11.207031,7.8261719 C 11.520827,7.2770089 11.75,6.6740447 11.75,6 11.75,3.9378197 10.06218,2.25 8,2.25 Z m 0,1.5 c 1.2515163,0 2.25,0.9984837 2.25,2.25 0,0.5803492 -0.215298,1.1011279 -0.5722656,1.5 C 9.2649553,7.9612026 8.6711386,8.25 8,8.25 6.7484837,8.25 5.75,7.2515163 5.75,6 5.75,4.7484837 6.7484837,3.75 8,3.75 Z"
     id="path2" />
  <path
     style="color:#000000;fill:currentColor;stroke-linecap:round;stroke-linejoin:round;-inkscape-stroke:none"
     d="M 19.525391,7.4199219 10.199219,15.0625 C 9.5716236,14.592125 8.8404282,14.25 8,14.25 c -2.0621653,0 -3.75,1.687782 -3.75,3.75 0,2.062218 1.6878347,3.75 3.75,3.75 2.062165,0 3.75,-1.687782 3.75,-3.75 0,-0.674071 -0.229181,-1.277024 -0.542969,-1.826172 L 20.474609,8.5800781 A 0.75,0.75 0 0 0 20.580078,7.5253906 0.75,0.75 0 0 0 19.525391,7.4199219 Z M 8,15.75 c 0.6711105,0 1.2649407,0.288819 1.6777344,0.75 C 10.034753,16.898959 10.25,17.419589 10.25,18 10.25,19.251579 9.2515314,20.25 8,20.25 6.7484686,20.25 5.75,19.251579 5.75,18 5.75,16.748421 6.7484686,15.75 8,15.75 Z"
     id="path4" />
</svg>
