<?xml version="1.0" encoding="UTF-8" standalone="no"?>
<svg
   width="24"
   height="24"
   stroke-width="1.5"
   viewBox="0 0 24 24"
   fill="none"
   version="1.1"
   id="svg6"
   sodipodi:docname="scissor.svg"
   inkscape:version="1.2.1 (9c6d41e410, 2022-07-14)"
   xmlns:inkscape="http://www.inkscape.org/namespaces/inkscape"
   xmlns:sodipodi="http://sodipodi.sourceforge.net/DTD/sodipodi-0.dtd"
   xmlns="http://www.w3.org/2000/svg"
   xmlns:svg="http://www.w3.org/2000/svg">
  <defs
     id="defs10" />
  <sodipodi:namedview
     id="namedview8"
     pagecolor="#ffffff"
     bordercolor="#666666"
     borderopacity="1.0"
     inkscape:showpageshadow="2"
     inkscape:pageopacity="0.0"
     inkscape:pagecheckerboard="0"
     inkscape:deskcolor="#d1d1d1"
     showgrid="false"
     inkscape:zoom="34.541667"
     inkscape:cx="10.364294"
     inkscape:cy="12.014475"
     inkscape:window-width="1920"
     inkscape:window-height="1009"
     inkscape:window-x="1912"
     inkscape:window-y="-8"
     inkscape:window-maximized="1"
     inkscape:current-layer="svg6" />
  <path
     style="color:#000000;fill:currentColor;stroke-linecap:round;stroke-linejoin:round;-inkscape-stroke:none"
     d="M 5,1.25 C 2.9378197,1.25 1.25,2.9378197 1.25,5 1.25,7.0621803 2.9378197,8.75 5,8.75 5.834373,8.75 6.5602565,8.4115508 7.1855469,7.9472656 L 19.509766,18.568359 a 0.75,0.75 0 0 0 1.058593,-0.07813 0.75,0.75 0 0 0 -0.07813,-1.058593 L 8.1992188,6.8398437 C 8.5178931,6.2875583 8.75,5.6796469 8.75,5 8.75,2.9378197 7.0621803,1.25 5,1.25 Z m 0,1.5 C 6.2515163,2.75 7.25,3.7484837 7.25,5 7.25,5.5803817 7.0347096,6.1011532 6.6777344,6.5 6.2649425,6.9612084 5.6711386,7.25 5,7.25 3.7484837,7.25 2.75,6.2515163 2.75,5 2.75,3.7484837 3.7484837,2.75 5,2.75 Z"
     id="path2" />
  <path
     style="color:#000000;fill:currentColor;stroke-linecap:round;stroke-linejoin:round;-inkscape-stroke:none"
     d="M 19.509766,5.4316406 7.1855469,16.052734 C 6.5602709,15.588467 5.8343942,15.25 5,15.25 c -2.0621653,0 -3.75,1.687782 -3.75,3.75 0,2.062218 1.6878347,3.75 3.75,3.75 2.0621653,0 3.75,-1.687782 3.75,-3.75 0,-0.679674 -0.2321158,-1.287574 -0.5507812,-1.839844 L 20.490234,6.5683594 a 0.75,0.75 0 0 0 0.07813,-1.0585938 0.75,0.75 0 0 0 -1.058593,-0.078125 z M 5,16.75 c 0.6711105,0 1.2649279,0.288813 1.6777344,0.75 C 7.0347601,17.898933 7.25,18.419556 7.25,19 7.25,20.251579 6.2515314,21.25 5,21.25 3.7484686,21.25 2.75,20.251579 2.75,19 2.75,17.748421 3.7484686,16.75 5,16.75 Z"
     id="path4" />
</svg>
