<?xml version="1.0" encoding="UTF-8" standalone="no"?>
<svg
   width="24"
   height="24"
   viewBox="0 0 24 24"
   stroke-width="1.5"
   fill="none"
   version="1.1"
   id="svg18"
   sodipodi:docname="screenshot.svg"
   inkscape:version="1.2.1 (9c6d41e410, 2022-07-14)"
   xmlns:inkscape="http://www.inkscape.org/namespaces/inkscape"
   xmlns:sodipodi="http://sodipodi.sourceforge.net/DTD/sodipodi-0.dtd"
   xmlns="http://www.w3.org/2000/svg"
   xmlns:svg="http://www.w3.org/2000/svg">
  <defs
     id="defs22" />
  <sodipodi:namedview
     id="namedview20"
     pagecolor="#ffffff"
     bordercolor="#666666"
     borderopacity="1.0"
     inkscape:showpageshadow="2"
     inkscape:pageopacity="0.0"
     inkscape:pagecheckerboard="0"
     inkscape:deskcolor="#d1d1d1"
     showgrid="false"
     inkscape:zoom="34.541667"
     inkscape:cx="10.364294"
     inkscape:cy="12.014475"
     inkscape:window-width="1920"
     inkscape:window-height="1009"
     inkscape:window-x="1912"
     inkscape:window-y="-8"
     inkscape:window-maximized="1"
     inkscape:current-layer="svg18" />
  <path
     style="color:#000000;fill:currentColor;stroke-linecap:round;stroke-linejoin:round;-inkscape-stroke:none"
     d="m 14.226563,10.25 c -0.457922,0 -0.886805,0.23452 -1.134766,0.619141 l -1.400391,2.173828 H 10.599609 C 9.8629597,13.042969 9.25,13.657882 9.25,14.394531 v 7.00586 C 9.25,22.13704 9.8629597,22.75 10.599609,22.75 H 21.400391 C 22.13704,22.75 22.75,22.13704 22.75,21.400391 v -7.00586 c 0,-0.736649 -0.61296,-1.351562 -1.349609,-1.351562 H 20.308594 L 18.908203,10.869141 C 18.660242,10.48452 18.231359,10.25 17.773437,10.25 Z m 0.08203,1.5 h 3.382812 l 1.400391,2.175781 c 0.247915,0.384773 0.676844,0.617188 1.134765,0.617188 H 21.25 V 21.25 h -10.5 v -6.707031 h 1.023438 c 0.457921,0 0.88685,-0.232415 1.134765,-0.617188 z"
     id="path2" />
  <path
     style="color:#000000;fill:currentColor;stroke-linecap:round;stroke-linejoin:round;-inkscape-stroke:none"
     d="m 16,14.25 c -1.509904,0 -2.75,1.240096 -2.75,2.75 0,1.509904 1.240096,2.75 2.75,2.75 1.509904,0 2.75,-1.240096 2.75,-2.75 0,-1.509904 -1.240096,-2.75 -2.75,-2.75 z m 0,1.5 c 0.699294,0 1.25,0.550706 1.25,1.25 0,0.699294 -0.550706,1.25 -1.25,1.25 -0.699294,0 -1.25,-0.550706 -1.25,-1.25 0,-0.699294 0.550706,-1.25 1.25,-1.25 z"
     id="path4" />
  <path
     style="color:#000000;fill:currentColor;stroke-linecap:round;stroke-linejoin:round;-inkscape-stroke:none"
     d="M 3,17.25 A 0.75,0.75 0 0 0 2.25,18 v 3 A 0.750075,0.750075 0 0 0 3,21.75 H 5.5 A 0.75,0.75 0 0 0 6.25,21 0.75,0.75 0 0 0 5.5,20.25 H 3.75 V 18 A 0.75,0.75 0 0 0 3,17.25 Z"
     id="path6" />
  <path
     style="color:#000000;fill:currentColor;stroke-linecap:round;stroke-linejoin:round;-inkscape-stroke:none"
     d="M 3,8.75 A 0.75,0.75 0 0 0 2.25,9.5 v 5 A 0.75,0.75 0 0 0 3,15.25 0.75,0.75 0 0 0 3.75,14.5 v -5 A 0.75,0.75 0 0 0 3,8.75 Z"
     id="path8" />
  <path
     style="color:#000000;fill:currentColor;stroke-linecap:round;stroke-linejoin:round;-inkscape-stroke:none"
     d="M 3,2.25 A 0.750075,0.750075 0 0 0 2.25,3 V 6 A 0.75,0.75 0 0 0 3,6.75 0.75,0.75 0 0 0 3.75,6 V 3.75 H 6 A 0.75,0.75 0 0 0 6.75,3 0.75,0.75 0 0 0 6,2.25 Z"
     id="path10" />
  <path
     style="color:#000000;fill:currentColor;stroke-linecap:round;stroke-linejoin:round;-inkscape-stroke:none"
     d="M 9.5,2.25 A 0.75,0.75 0 0 0 8.75,3 0.75,0.75 0 0 0 9.5,3.75 h 5 A 0.75,0.75 0 0 0 15.25,3 0.75,0.75 0 0 0 14.5,2.25 Z"
     id="path12" />
  <path
     style="color:#000000;fill:currentColor;stroke-linecap:round;stroke-linejoin:round;-inkscape-stroke:none"
     d="M 18,2.25 A 0.75,0.75 0 0 0 17.25,3 0.75,0.75 0 0 0 18,3.75 h 2.25 V 5.5 A 0.75,0.75 0 0 0 21,6.25 0.75,0.75 0 0 0 21.75,5.5 V 3 A 0.750075,0.750075 0 0 0 21,2.25 Z"
     id="path14" />
  <path
     style="color:#000000;fill:currentColor;stroke-linecap:round;stroke-linejoin:round;-inkscape-stroke:none"
     d="M 21,7.75 A 0.75,0.75 0 0 0 20.25,8.5 V 10 A 0.75,0.75 0 0 0 21,10.75 0.75,0.75 0 0 0 21.75,10 V 8.5 A 0.75,0.75 0 0 0 21,7.75 Z"
     id="path16" />
</svg>
