<?xml version="1.0" encoding="UTF-8" standalone="no"?>
<svg
   width="24"
   height="24"
   stroke-width="1.5"
   viewBox="0 0 24 24"
   fill="none"
   version="1.1"
   id="svg6"
   sodipodi:docname="sea-waves.svg"
   inkscape:version="1.2.1 (9c6d41e410, 2022-07-14)"
   xmlns:inkscape="http://www.inkscape.org/namespaces/inkscape"
   xmlns:sodipodi="http://sodipodi.sourceforge.net/DTD/sodipodi-0.dtd"
   xmlns="http://www.w3.org/2000/svg"
   xmlns:svg="http://www.w3.org/2000/svg">
  <defs
     id="defs10" />
  <sodipodi:namedview
     id="namedview8"
     pagecolor="#ffffff"
     bordercolor="#666666"
     borderopacity="1.0"
     inkscape:showpageshadow="2"
     inkscape:pageopacity="0.0"
     inkscape:pagecheckerboard="0"
     inkscape:deskcolor="#d1d1d1"
     showgrid="false"
     inkscape:zoom="34.541667"
     inkscape:cx="10.364294"
     inkscape:cy="12.014475"
     inkscape:window-width="1920"
     inkscape:window-height="1009"
     inkscape:window-x="1912"
     inkscape:window-y="-8"
     inkscape:window-maximized="1"
     inkscape:current-layer="svg6" />
  <path
     style="color:#000000;fill:currentColor;stroke-linecap:round;stroke-linejoin:round;-inkscape-stroke:none"
     d="M 7.3457031,6.25 A 0.750075,0.750075 0 0 0 6.7070312,6.6035156 c 0,0 -0.4209957,0.6768848 -1.125,1.3574219 C 4.878027,8.6414746 3.9392959,9.25 3,9.25 A 0.75,0.75 0 0 0 2.25,10 0.75,0.75 0 0 0 3,10.75 C 4.5434616,10.75 5.7772808,9.8585239 6.625,9.0390625 7.0742797,8.6047591 7.1099375,8.4815486 7.34375,8.1679688 7.5775552,8.481625 7.6146754,8.6042804 8.0644531,9.0390625 8.9121782,9.8585244 10.145976,10.75 11.689453,10.75 c 1.543439,0 2.890323,-0.8649392 3.884766,-1.6660156 C 16.213968,8.5686328 16.36303,8.3539481 16.640625,8.0507813 16.908388,8.350076 17.057251,8.5549806 17.634766,9.0625 18.538995,9.8571356 19.66618,10.75 21,10.75 A 0.75,0.75 0 0 0 21.75,10 0.75,0.75 0 0 0 21,9.25 C 20.471722,9.25 19.427644,8.6428629 18.625,7.9375 17.822356,7.2321371 17.232422,6.5214844 17.232422,6.5214844 a 0.750075,0.750075 0 0 0 -1.154297,0 c 0,0 -0.577682,0.6956092 -1.445312,1.3945312 C 13.765182,8.6149377 12.628712,9.25 11.689453,9.25 10.750132,9.25 9.8114302,8.6414741 9.1074219,7.9609375 8.4034135,7.2804009 7.9824219,6.6035156 7.9824219,6.6035156 A 0.750075,0.750075 0 0 0 7.3457031,6.25 Z"
     id="path2" />
  <path
     style="color:#000000;fill:currentColor;stroke-linecap:round;stroke-linejoin:round;-inkscape-stroke:none"
     d="m 7.3457031,13.25 a 0.750075,0.750075 0 0 0 -0.6386719,0.353516 c 0,0 -0.4209957,0.676884 -1.125,1.357422 C 4.878027,15.641475 3.9392959,16.25 3,16.25 A 0.75,0.75 0 0 0 2.25,17 0.75,0.75 0 0 0 3,17.75 c 1.5434616,0 2.7772808,-0.891476 3.625,-1.710938 0.4492797,-0.434303 0.4849375,-0.557513 0.71875,-0.871093 0.2338052,0.313656 0.2709254,0.436311 0.7207031,0.871093 C 8.9121782,16.858524 10.145976,17.75 11.689453,17.75 c 1.543439,0 2.890323,-0.864939 3.884766,-1.666016 0.639749,-0.515351 0.788811,-0.730036 1.066406,-1.033203 0.267763,0.299295 0.416626,0.5042 0.994141,1.011719 C 18.538995,16.857136 19.66618,17.75 21,17.75 A 0.75,0.75 0 0 0 21.75,17 0.75,0.75 0 0 0 21,16.25 c -0.528278,0 -1.572356,-0.607137 -2.375,-1.3125 -0.802644,-0.705363 -1.392578,-1.416016 -1.392578,-1.416016 a 0.750075,0.750075 0 0 0 -1.154297,0 c 0,0 -0.577682,0.69561 -1.445312,1.394532 -0.867631,0.698922 -2.004101,1.333984 -2.94336,1.333984 -0.939321,0 -1.8780228,-0.608526 -2.5820311,-1.289062 -0.7040084,-0.680537 -1.125,-1.357422 -1.125,-1.357422 A 0.750075,0.750075 0 0 0 7.3457031,13.25 Z"
     id="path4" />
</svg>
