<?xml version="1.0" encoding="UTF-8" standalone="no"?>
<svg
   width="24"
   height="24"
   stroke-width="1.5"
   viewBox="0 0 24 24"
   fill="none"
   version="1.1"
   id="svg8"
   sodipodi:docname="sea-and-sun.svg"
   inkscape:version="1.2.1 (9c6d41e410, 2022-07-14)"
   xmlns:inkscape="http://www.inkscape.org/namespaces/inkscape"
   xmlns:sodipodi="http://sodipodi.sourceforge.net/DTD/sodipodi-0.dtd"
   xmlns="http://www.w3.org/2000/svg"
   xmlns:svg="http://www.w3.org/2000/svg">
  <defs
     id="defs12" />
  <sodipodi:namedview
     id="namedview10"
     pagecolor="#ffffff"
     bordercolor="#666666"
     borderopacity="1.0"
     inkscape:showpageshadow="2"
     inkscape:pageopacity="0.0"
     inkscape:pagecheckerboard="0"
     inkscape:deskcolor="#d1d1d1"
     showgrid="false"
     inkscape:zoom="34.541667"
     inkscape:cx="10.364294"
     inkscape:cy="12.014475"
     inkscape:window-width="1920"
     inkscape:window-height="1009"
     inkscape:window-x="1912"
     inkscape:window-y="-8"
     inkscape:window-maximized="1"
     inkscape:current-layer="svg8" />
  <path
     style="color:#000000;fill:currentColor;stroke-linecap:round;stroke-linejoin:round;-inkscape-stroke:none"
     d="m 7.3457031,11.25 a 0.750075,0.750075 0 0 0 -0.6386719,0.353516 c 0,0 -0.4209957,0.676884 -1.125,1.357422 C 4.878027,13.641475 3.9392959,14.25 3,14.25 A 0.75,0.75 0 0 0 2.25,15 0.75,0.75 0 0 0 3,15.75 c 1.5434616,0 2.7772808,-0.891476 3.625,-1.710937 0.4492797,-0.434304 0.4849375,-0.557514 0.71875,-0.871094 0.2338052,0.313656 0.2709254,0.436311 0.7207031,0.871094 C 8.9121782,14.858524 10.145976,15.75 11.689453,15.75 c 1.543439,0 2.890323,-0.864939 3.884766,-1.666016 0.639749,-0.515351 0.788811,-0.730036 1.066406,-1.033203 0.267763,0.299295 0.416626,0.5042 0.994141,1.011719 C 18.538995,14.857136 19.66618,15.75 21,15.75 A 0.75,0.75 0 0 0 21.75,15 0.75,0.75 0 0 0 21,14.25 c -0.528278,0 -1.572356,-0.607137 -2.375,-1.3125 -0.802644,-0.705363 -1.392578,-1.416016 -1.392578,-1.416016 a 0.750075,0.750075 0 0 0 -1.154297,0 c 0,0 -0.577682,0.69561 -1.445312,1.394532 -0.867631,0.698922 -2.004101,1.333984 -2.94336,1.333984 -0.939321,0 -1.8780228,-0.608526 -2.5820311,-1.289062 -0.7040084,-0.680537 -1.125,-1.357422 -1.125,-1.357422 A 0.750075,0.750075 0 0 0 7.3457031,11.25 Z"
     id="path2" />
  <path
     style="color:#000000;fill:currentColor;stroke-linecap:round;stroke-linejoin:round;-inkscape-stroke:none"
     d="m 7.3457031,16.25 a 0.750075,0.750075 0 0 0 -0.6386719,0.353516 c 0,0 -0.4209957,0.676884 -1.125,1.357421 C 4.878027,18.641475 3.9392959,19.25 3,19.25 A 0.75,0.75 0 0 0 2.25,20 0.75,0.75 0 0 0 3,20.75 c 1.5434616,0 2.7772808,-0.891476 3.625,-1.710938 0.4492797,-0.434303 0.4849375,-0.557513 0.71875,-0.871093 0.2338052,0.313656 0.2709254,0.436311 0.7207031,0.871093 C 8.9121782,19.858524 10.145976,20.75 11.689453,20.75 c 1.543439,0 2.890323,-0.864939 3.884766,-1.666016 0.639749,-0.515351 0.788811,-0.730036 1.066406,-1.033203 0.267763,0.299295 0.416626,0.5042 0.994141,1.011719 C 18.538995,19.857136 19.66618,20.75 21,20.75 A 0.75,0.75 0 0 0 21.75,20 0.75,0.75 0 0 0 21,19.25 c -0.528278,0 -1.572356,-0.607137 -2.375,-1.3125 -0.802644,-0.705363 -1.392578,-1.416016 -1.392578,-1.416016 a 0.750075,0.750075 0 0 0 -1.154297,0 c 0,0 -0.577682,0.69561 -1.445312,1.394532 -0.867631,0.698922 -2.004101,1.333984 -2.94336,1.333984 -0.939321,0 -1.8780228,-0.608526 -2.5820311,-1.289063 -0.7040084,-0.680536 -1.125,-1.357421 -1.125,-1.357421 A 0.750075,0.750075 0 0 0 7.3457031,16.25 Z"
     id="path4" />
  <path
     style="color:#000000;fill:currentColor;stroke-linecap:round;stroke-linejoin:round;-inkscape-stroke:none"
     d="M 12,2.25 C 7.7286834,2.25 4.25,5.7286834 4.25,10 A 0.75,0.75 0 0 0 5,10.75 0.75,0.75 0 0 0 5.75,10 c 0,-3.4606557 2.7893443,-6.25 6.25,-6.25 3.460667,0 6.25,2.789343 6.25,6.25 A 0.75,0.75 0 0 0 19,10.75 0.75,0.75 0 0 0 19.75,10 C 19.75,5.7286847 16.271326,2.25 12,2.25 Z"
     id="path6" />
</svg>
