<?xml version="1.0" encoding="UTF-8" standalone="no"?>
<svg
   width="24"
   height="24"
   stroke-width="1.5"
   viewBox="0 0 24 24"
   fill="none"
   version="1.1"
   id="svg6"
   sodipodi:docname="search-engine.svg"
   inkscape:version="1.2.1 (9c6d41e410, 2022-07-14)"
   xmlns:inkscape="http://www.inkscape.org/namespaces/inkscape"
   xmlns:sodipodi="http://sodipodi.sourceforge.net/DTD/sodipodi-0.dtd"
   xmlns="http://www.w3.org/2000/svg"
   xmlns:svg="http://www.w3.org/2000/svg">
  <defs
     id="defs10" />
  <sodipodi:namedview
     id="namedview8"
     pagecolor="#ffffff"
     bordercolor="#666666"
     borderopacity="1.0"
     inkscape:showpageshadow="2"
     inkscape:pageopacity="0.0"
     inkscape:pagecheckerboard="0"
     inkscape:deskcolor="#d1d1d1"
     showgrid="false"
     inkscape:zoom="34.541667"
     inkscape:cx="10.364294"
     inkscape:cy="12.014475"
     inkscape:window-width="1920"
     inkscape:window-height="1009"
     inkscape:window-x="1912"
     inkscape:window-y="-8"
     inkscape:window-maximized="1"
     inkscape:current-layer="svg6" />
  <path
     style="color:#000000;fill:currentColor;-inkscape-stroke:none"
     d="M 5,2.25 C 3.4901018,2.25 2.25,3.4901018 2.25,5 v 14 c 0,1.509917 1.2401154,2.75 2.75,2.75 h 14 c 1.509904,0 2.75,-1.240096 2.75,-2.75 V 5 C 21.75,3.4901154 20.509917,2.25 19,2.25 Z m 0,1.5 h 14 c 0.699281,0 1.25,0.5507468 1.25,1.25 v 14 c 0,0.699294 -0.550706,1.25 -1.25,1.25 H 5 C 4.3007468,20.25 3.75,19.699281 3.75,19 V 5 C 3.75,4.3007604 4.3007604,3.75 5,3.75 Z"
     id="path2" />
  <path
     style="color:#000000;fill:currentColor;stroke-linecap:round;stroke-linejoin:round;-inkscape-stroke:none"
     d="M 11.427734,7.25 C 9.1288345,7.25 7.25,9.1288345 7.25,11.427734 c 0,2.298837 1.8788398,4.179688 4.177734,4.179688 0.876448,0 1.64992,-0.334519 2.324219,-0.798828 l 1.716797,1.720703 a 0.75,0.75 0 0 0 1.060547,0.002 0.75,0.75 0 0 0 0.002,-1.060547 L 14.8125,13.746094 c 0.461829,-0.67315 0.794922,-1.444405 0.794922,-2.31836 C 15.607422,9.1288398 13.726571,7.25 11.427734,7.25 Z m 0,1.5 c 1.48816,0 2.679688,1.1894728 2.679688,2.677734 0,0.741868 -0.298266,1.405406 -0.78125,1.890625 -6.03e-4,6.06e-4 -0.0014,0.0013 -0.002,0.002 -0.485732,0.487062 -1.151059,0.787109 -1.896485,0.787109 C 9.9394728,14.107422 8.75,12.915894 8.75,11.427734 8.75,9.9394781 9.9394781,8.75 11.427734,8.75 Z"
     id="path4" />
</svg>
