<?xml version="1.0" encoding="UTF-8" standalone="no"?>
<svg
   width="24"
   height="24"
   viewBox="0 0 24 24"
   stroke-width="1.5"
   fill="none"
   version="1.1"
   id="svg14"
   sodipodi:docname="secure-window.svg"
   inkscape:version="1.2.1 (9c6d41e410, 2022-07-14)"
   xmlns:inkscape="http://www.inkscape.org/namespaces/inkscape"
   xmlns:sodipodi="http://sodipodi.sourceforge.net/DTD/sodipodi-0.dtd"
   xmlns="http://www.w3.org/2000/svg"
   xmlns:svg="http://www.w3.org/2000/svg">
  <defs
     id="defs18" />
  <sodipodi:namedview
     id="namedview16"
     pagecolor="#ffffff"
     bordercolor="#666666"
     borderopacity="1.0"
     inkscape:showpageshadow="2"
     inkscape:pageopacity="0.0"
     inkscape:pagecheckerboard="0"
     inkscape:deskcolor="#d1d1d1"
     showgrid="false"
     inkscape:zoom="34.541667"
     inkscape:cx="10.364294"
     inkscape:cy="12.014475"
     inkscape:window-width="1920"
     inkscape:window-height="1009"
     inkscape:window-x="1912"
     inkscape:window-y="-8"
     inkscape:window-maximized="1"
     inkscape:current-layer="svg14" />
  <path
     style="color:#000000;fill:currentColor;stroke-linecap:round;-inkscape-stroke:none"
     d="M 4,2.25 C 2.4901018,2.25 1.25,3.4901018 1.25,5 v 14 c 0,1.509917 1.2401154,2.75 2.75,2.75 h 9 A 0.75,0.75 0 0 0 13.75,21 0.75,0.75 0 0 0 13,20.25 H 4 C 3.3007468,20.25 2.75,19.699281 2.75,19 V 5 C 2.75,4.3007604 3.3007604,3.75 4,3.75 h 16 c 0.699281,0 1.25,0.5507468 1.25,1.25 v 7 A 0.75,0.75 0 0 0 22,12.75 0.75,0.75 0 0 0 22.75,12 V 5 C 22.75,3.4901154 21.509917,2.25 20,2.25 Z"
     id="path2" />
  <path
     style="color:#000000;fill:currentColor;stroke-linecap:round;stroke-linejoin:round;-inkscape-stroke:none"
     d="M 2,6.25 A 0.75,0.75 0 0 0 1.25,7 0.75,0.75 0 0 0 2,7.75 H 22 A 0.75,0.75 0 0 0 22.75,7 0.75,0.75 0 0 0 22,6.25 Z"
     id="path4" />
  <path
     style="color:#000000;fill:currentColor;stroke-linecap:round;stroke-linejoin:round;-inkscape-stroke:none"
     d="M 4.9707031,4.25 A 0.75,0.75 0 0 0 4.453125,4.4980469 l -0.00977,0.00977 a 0.75,0.75 0 0 0 0.054687,1.0605469 0.75,0.75 0 0 0 1.0585937,-0.056641 L 5.5683594,5.5 A 0.75,0.75 0 0 0 5.5117187,4.4414062 0.75,0.75 0 0 0 4.9707031,4.25 Z"
     id="path6" />
  <path
     style="color:#000000;fill:currentColor;stroke-linecap:round;stroke-linejoin:round;-inkscape-stroke:none"
     d="M 7.9707031,4.25 A 0.75,0.75 0 0 0 7.453125,4.4980469 l -0.00977,0.00977 a 0.75,0.75 0 0 0 0.054687,1.0605469 0.75,0.75 0 0 0 1.0585937,-0.056641 L 8.5683594,5.5 A 0.75,0.75 0 0 0 8.5117188,4.4414062 0.75,0.75 0 0 0 7.9707031,4.25 Z"
     id="path8" />
  <path
     style="color:#000000;fill:currentColor;stroke-linecap:round;stroke-linejoin:round;-inkscape-stroke:none"
     d="m 10.970703,4.25 a 0.75,0.75 0 0 0 -0.517578,0.2480469 l -0.0098,0.00977 a 0.75,0.75 0 0 0 0.05469,1.0605469 0.75,0.75 0 0 0 1.058594,-0.056641 L 11.568359,5.5 A 0.75,0.75 0 0 0 11.511719,4.4414062 0.75,0.75 0 0 0 10.970703,4.25 Z"
     id="path10" />
  <path
     style="color:#000000;fill:currentColor;stroke-linecap:round;stroke-linejoin:round;-inkscape-stroke:none"
     d="m 17.822266,13.398438 -2.554688,0.648437 c -0.598027,0.15198 -1.028568,0.705028 -1.009765,1.333984 0.09011,3.022013 1.028559,4.883684 2.003906,5.960938 0.975347,1.077254 2.044922,1.382812 2.044922,1.382812 a 0.750075,0.750075 0 0 0 0.386718,0 c 0,0 1.069575,-0.305558 2.044922,-1.382812 0.975347,-1.077254 1.913797,-2.938925 2.003906,-5.960938 0.0188,-0.628956 -0.411738,-1.182004 -1.009765,-1.333984 l -2.554688,-0.648437 c -0.444125,-0.112716 -0.911343,-0.112716 -1.355468,0 z m 0.36914,1.453125 c 0.202075,-0.05129 0.415113,-0.05129 0.617188,0 l 2.412109,0.613281 c -0.10812,2.631619 -0.880054,4.080876 -1.59375,4.86914 -0.621411,0.686338 -0.987333,0.75888 -1.126953,0.802735 -0.13962,-0.04386 -0.505542,-0.116397 -1.126953,-0.802735 -0.713696,-0.788264 -1.48563,-2.237521 -1.59375,-4.86914 z"
     id="path12" />
</svg>
