<?xml version="1.0" encoding="UTF-8" standalone="no"?>
<svg
   width="24"
   height="24"
   stroke-width="1.5"
   viewBox="0 0 24 24"
   fill="none"
   version="1.1"
   id="svg6"
   sodipodi:docname="security-pass.svg"
   inkscape:version="1.2.1 (9c6d41e410, 2022-07-14)"
   xmlns:inkscape="http://www.inkscape.org/namespaces/inkscape"
   xmlns:sodipodi="http://sodipodi.sourceforge.net/DTD/sodipodi-0.dtd"
   xmlns="http://www.w3.org/2000/svg"
   xmlns:svg="http://www.w3.org/2000/svg">
  <defs
     id="defs10" />
  <sodipodi:namedview
     id="namedview8"
     pagecolor="#ffffff"
     bordercolor="#666666"
     borderopacity="1.0"
     inkscape:showpageshadow="2"
     inkscape:pageopacity="0.0"
     inkscape:pagecheckerboard="0"
     inkscape:deskcolor="#d1d1d1"
     showgrid="false"
     inkscape:zoom="34.541667"
     inkscape:cx="10.364294"
     inkscape:cy="12.014475"
     inkscape:window-width="1920"
     inkscape:window-height="1009"
     inkscape:window-x="1912"
     inkscape:window-y="-8"
     inkscape:window-maximized="1"
     inkscape:current-layer="svg6" />
  <path
     style="color:#000000;fill:currentColor;stroke-linecap:round;stroke-linejoin:round;-inkscape-stroke:none"
     d="M 20,5.25 A 0.75,0.75 0 0 0 19.46875,5.46875 L 12,12.9375 9.53125,10.46875 a 0.75,0.75 0 0 0 -1.0625,0 0.75,0.75 0 0 0 0,1.0625 l 3,3 a 0.750075,0.750075 0 0 0 1.0625,0 l 8,-8 a 0.75,0.75 0 0 0 0,-1.0625 A 0.75,0.75 0 0 0 20,5.25 Z"
     id="path2" />
  <path
     style="color:#000000;fill:currentColor;stroke-linecap:round;stroke-linejoin:round;-inkscape-stroke:none"
     d="m 12,3.25 c -4.8236049,0 -8.75,3.9263951 -8.75,8.75 0,4.823623 3.9263974,8.75 8.75,8.75 4.823621,0 8.75,-3.926379 8.75,-8.75 A 0.75,0.75 0 0 0 20,11.25 0.75,0.75 0 0 0 19.25,12 c 0,4.01297 -3.23703,7.25 -7.25,7.25 -4.0129486,0 -7.25,-3.237032 -7.25,-7.25 0,-4.0129463 3.2370537,-7.25 7.25,-7.25 0.8604,0 1.683627,0.150157 2.447266,0.4238281 A 0.75,0.75 0 0 0 15.40625,4.7207031 0.75,0.75 0 0 0 14.953125,3.7617188 C 14.030165,3.4309505 13.034199,3.25 12,3.25 Z"
     id="path4" />
</svg>
