<?xml version="1.0" encoding="UTF-8" standalone="no"?>
<svg
   width="24"
   height="24"
   viewBox="0 0 24 24"
   stroke-width="1.5"
   fill="none"
   version="1.1"
   id="svg13"
   sodipodi:docname="send-diagonal.svg"
   inkscape:version="1.2.1 (9c6d41e410, 2022-07-14)"
   xmlns:inkscape="http://www.inkscape.org/namespaces/inkscape"
   xmlns:sodipodi="http://sodipodi.sourceforge.net/DTD/sodipodi-0.dtd"
   xmlns="http://www.w3.org/2000/svg"
   xmlns:svg="http://www.w3.org/2000/svg">
  <sodipodi:namedview
     id="namedview15"
     pagecolor="#ffffff"
     bordercolor="#666666"
     borderopacity="1.0"
     inkscape:showpageshadow="2"
     inkscape:pageopacity="0.0"
     inkscape:pagecheckerboard="0"
     inkscape:deskcolor="#d1d1d1"
     showgrid="false"
     inkscape:zoom="34.541667"
     inkscape:cx="10.364294"
     inkscape:cy="12.014475"
     inkscape:window-width="1920"
     inkscape:window-height="1009"
     inkscape:window-x="1912"
     inkscape:window-y="-8"
     inkscape:window-maximized="1"
     inkscape:current-layer="svg13" />
  <path
     style="color:#000000;fill:currentColor;stroke-linecap:round;stroke-linejoin:round;-inkscape-stroke:none"
     d="M 21.994141,2.8203125 1.8417969,7.1640625 A 0.750075,0.750075 0 0 0 1.6132812,8.5410156 l 7.2207032,4.3378904 1.6074216,8.267578 A 0.750075,0.750075 0 0 0 11.8125,21.404297 L 22.787109,3.953125 A 0.750075,0.750075 0 0 0 21.994141,2.8203125 Z M 20.568359,4.6621094 11.552734,19 10.242188,12.265625 a 0.750075,0.750075 0 0 0 -0.3496099,-0.5 L 4.0097656,8.2324219 Z"
     id="path2" />
  <path
     style="color:#000000;fill:currentColor;stroke-linecap:round;stroke-linejoin:round;-inkscape-stroke:none"
     d="m 22.283203,2.8144531 a 0.75,0.75 0 0 0 -0.560547,0.125 L 9.0253906,11.830078 a 0.75,0.75 0 0 0 -0.1835937,1.042969 0.75,0.75 0 0 0 1.0449219,0.185547 L 22.582031,4.1679687 A 0.75,0.75 0 0 0 22.767578,3.1230469 0.75,0.75 0 0 0 22.283203,2.8144531 Z"
     id="path4" />
  <defs
     id="defs11">
    <clipPath
       clipPathUnits="userSpaceOnUse"
       id="clipPath196">
      <g
         id="g200">
        <rect
           width="24"
           height="24"
           fill="#ffffff"
           id="rect198"
           x="0"
           y="0" />
      </g>
    </clipPath>
    <clipPath
       clipPathUnits="userSpaceOnUse"
       id="clipPath202">
      <g
         id="g206">
        <rect
           width="24"
           height="24"
           fill="#ffffff"
           id="rect204"
           x="0"
           y="0" />
      </g>
    </clipPath>
  </defs>
</svg>
