<?xml version="1.0" encoding="UTF-8" standalone="no"?>
<svg
   width="24"
   height="24"
   viewBox="0 0 24 24"
   stroke-width="1.5"
   fill="none"
   version="1.1"
   id="svg6"
   sodipodi:docname="send.svg"
   inkscape:version="1.2.1 (9c6d41e410, 2022-07-14)"
   xmlns:inkscape="http://www.inkscape.org/namespaces/inkscape"
   xmlns:sodipodi="http://sodipodi.sourceforge.net/DTD/sodipodi-0.dtd"
   xmlns="http://www.w3.org/2000/svg"
   xmlns:svg="http://www.w3.org/2000/svg">
  <defs
     id="defs10" />
  <sodipodi:namedview
     id="namedview8"
     pagecolor="#ffffff"
     bordercolor="#666666"
     borderopacity="1.0"
     inkscape:showpageshadow="2"
     inkscape:pageopacity="0.0"
     inkscape:pagecheckerboard="0"
     inkscape:deskcolor="#d1d1d1"
     showgrid="false"
     inkscape:zoom="34.541667"
     inkscape:cx="10.364294"
     inkscape:cy="12.014475"
     inkscape:window-width="1920"
     inkscape:window-height="1009"
     inkscape:window-x="1912"
     inkscape:window-y="-8"
     inkscape:window-maximized="1"
     inkscape:current-layer="svg6" />
  <path
     style="color:#000000;fill:currentColor;stroke-linecap:round;stroke-linejoin:round;-inkscape-stroke:none"
     d="M 3.2910156,3.3085938 A 0.750075,0.750075 0 0 0 2.3144531,4.3046875 L 5.7421875,12 2.3144531,19.695312 a 0.750075,0.750075 0 0 0 0.9765625,0.996094 l 19.0000004,-8 a 0.750075,0.750075 0 0 0 0,-1.382812 z M 4.4570312,5.4277344 20.066406,12 4.4570312,18.572266 7.2480469,12.304688 a 0.750075,0.750075 0 0 0 0,-0.609375 z"
     id="path2" />
  <path
     style="color:#000000;fill:currentColor;stroke-linecap:round;stroke-linejoin:round;-inkscape-stroke:none"
     d="M 6.5,11.25 A 0.75,0.75 0 0 0 5.75,12 0.75,0.75 0 0 0 6.5,12.75 H 22 A 0.75,0.75 0 0 0 22.75,12 0.75,0.75 0 0 0 22,11.25 Z"
     id="path4" />
</svg>
