<?xml version="1.0" encoding="UTF-8" standalone="no"?>
<svg
   width="24"
   height="24"
   viewBox="0 0 24 24"
   stroke-width="1.5"
   fill="none"
   version="1.1"
   id="svg10"
   sodipodi:docname="send-mail.svg"
   inkscape:version="1.2.1 (9c6d41e410, 2022-07-14)"
   xmlns:inkscape="http://www.inkscape.org/namespaces/inkscape"
   xmlns:sodipodi="http://sodipodi.sourceforge.net/DTD/sodipodi-0.dtd"
   xmlns="http://www.w3.org/2000/svg"
   xmlns:svg="http://www.w3.org/2000/svg">
  <defs
     id="defs14" />
  <sodipodi:namedview
     id="namedview12"
     pagecolor="#ffffff"
     bordercolor="#666666"
     borderopacity="1.0"
     inkscape:showpageshadow="2"
     inkscape:pageopacity="0.0"
     inkscape:pagecheckerboard="0"
     inkscape:deskcolor="#d1d1d1"
     showgrid="false"
     inkscape:zoom="34.541667"
     inkscape:cx="10.364294"
     inkscape:cy="12.014475"
     inkscape:window-width="1920"
     inkscape:window-height="1009"
     inkscape:window-x="1912"
     inkscape:window-y="-8"
     inkscape:window-maximized="1"
     inkscape:current-layer="svg10" />
  <path
     style="color:#000000;fill:currentColor;stroke-linecap:round;stroke-linejoin:round;-inkscape-stroke:none"
     d="M 18.146484,8.2636719 A 0.75,0.75 0 0 0 17.583984,8.375 L 13.5,11.097656 9.4160156,8.375 A 0.75,0.75 0 0 0 8.375,8.5839844 0.75,0.75 0 0 0 8.5839844,9.625 l 4.4999996,3 a 0.750075,0.750075 0 0 0 0.832032,0 l 4.5,-3 A 0.75,0.75 0 0 0 18.625,8.5839844 0.75,0.75 0 0 0 18.146484,8.2636719 Z"
     id="path2" />
  <path
     style="color:#000000;fill:currentColor;stroke-linecap:round;stroke-linejoin:round;-inkscape-stroke:none"
     d="M 3,12.75 A 0.75,0.75 0 0 0 2.25,13.5 0.75,0.75 0 0 0 3,14.25 H 5 A 0.75,0.75 0 0 0 5.75,13.5 0.75,0.75 0 0 0 5,12.75 Z"
     id="path4" />
  <path
     style="color:#000000;fill:currentColor;stroke-linecap:round;stroke-linejoin:round;-inkscape-stroke:none"
     d="M 1,9.75 A 0.75,0.75 0 0 0 0.25,10.5 0.75,0.75 0 0 0 1,11.25 H 5 A 0.75,0.75 0 0 0 5.75,10.5 0.75,0.75 0 0 0 5,9.75 Z"
     id="path6" />
  <path
     style="color:#000000;fill:currentColor;stroke-linecap:round;-inkscape-stroke:none"
     d="M 7,4.25 C 5.4901018,4.25 4.25,5.4901018 4.25,7 V 7.5 A 0.75,0.75 0 0 0 5,8.25 0.75,0.75 0 0 0 5.75,7.5 V 7 C 5.75,6.3007604 6.3007604,5.75 7,5.75 h 13 c 0.699281,0 1.25,0.5507468 1.25,1.25 v 10 c 0,0.699294 -0.550706,1.25 -1.25,1.25 H 7 C 6.3007468,18.25 5.75,17.699281 5.75,17 V 16.5 A 0.75,0.75 0 0 0 5,15.75 0.75,0.75 0 0 0 4.25,16.5 V 17 c 0,1.509917 1.2401154,2.75 2.75,2.75 h 13 c 1.509904,0 2.75,-1.240096 2.75,-2.75 V 7 C 22.75,5.4901154 21.509917,4.25 20,4.25 Z"
     id="path8" />
</svg>
