<?xml version="1.0" encoding="UTF-8" standalone="no"?>
<svg
   width="24"
   height="24"
   stroke-width="1.5"
   viewBox="0 0 24 24"
   fill="none"
   version="1.1"
   id="svg6"
   sodipodi:docname="send-dollars.svg"
   inkscape:version="1.2.1 (9c6d41e410, 2022-07-14)"
   xmlns:inkscape="http://www.inkscape.org/namespaces/inkscape"
   xmlns:sodipodi="http://sodipodi.sourceforge.net/DTD/sodipodi-0.dtd"
   xmlns="http://www.w3.org/2000/svg"
   xmlns:svg="http://www.w3.org/2000/svg">
  <defs
     id="defs10" />
  <sodipodi:namedview
     id="namedview8"
     pagecolor="#ffffff"
     bordercolor="#666666"
     borderopacity="1.0"
     inkscape:showpageshadow="2"
     inkscape:pageopacity="0.0"
     inkscape:pagecheckerboard="0"
     inkscape:deskcolor="#d1d1d1"
     showgrid="false"
     inkscape:zoom="34.541667"
     inkscape:cx="10.364294"
     inkscape:cy="12.014475"
     inkscape:window-width="1920"
     inkscape:window-height="1009"
     inkscape:window-x="1912"
     inkscape:window-y="-8"
     inkscape:window-maximized="1"
     inkscape:current-layer="svg6" />
  <path
     style="color:#000000;fill:currentColor;stroke-linecap:round;stroke-linejoin:round;-inkscape-stroke:none"
     d="M 6.5,4.25 A 0.75,0.75 0 0 0 5.75,5 V 6.3964844 C 5.1522453,6.4700056 4.5326168,6.4920305 4.0351562,6.8398437 3.3144432,7.3437501 2.8339844,8.2346835 2.8339844,9.3085938 c 0,1.0559602 0.6280321,1.8748672 1.3730468,2.3125002 0.7450148,0.437633 1.6002591,0.635971 2.4023438,0.83789 0.8020847,0.201919 1.5497012,0.40669 2.0078125,0.675782 C 9.0752988,13.403858 9.25,13.594892 9.25,14.154297 9.25,14.843948 8.9925564,15.217068 8.515625,15.525391 8.0386936,15.833714 7.303352,16.0043 6.5253906,15.978516 5.3532846,15.939622 4.135018,15.438409 3.5820313,14.757813 a 0.75,0.75 0 0 0 -1.0546875,-0.109375 0.75,0.75 0 0 0 -0.109375,1.054687 c 0.7973054,0.981296 2.0518306,1.443811 3.3320312,1.625 V 19 A 0.75,0.75 0 0 0 6.5,19.75 0.75,0.75 0 0 0 7.25,19 V 17.291016 C 7.9789024,17.219407 8.7290392,17.173711 9.3300781,16.785156 10.155095,16.251805 10.75,15.307344 10.75,14.154297 c 0,-1.055943 -0.628034,-1.874884 -1.3730469,-2.3125 C 8.63194,11.40418 7.7766905,11.205824 6.9746094,11.003906 6.1725282,10.801988 5.4229534,10.595273 4.9648437,10.326172 4.5067341,10.057071 4.3339844,9.8680315 4.3339844,9.3085938 c 0,-0.6814981 0.2076709,-0.9915584 0.5605468,-1.2382813 C 5.2474072,7.8235896 5.8208358,7.6808796 6.4804687,7.6972656 7.5892688,7.7248086 8.8881555,8.2236721 9.4921875,8.78125 A 0.75,0.75 0 0 0 10.550781,8.7402344 0.75,0.75 0 0 0 10.507813,7.6796875 C 9.6804604,6.9159643 8.4778318,6.5011535 7.25,6.3359375 V 5 A 0.75,0.75 0 0 0 6.5,4.25 Z"
     id="path2" />
  <path
     style="color:#000000;fill:currentColor;stroke-linecap:round;stroke-linejoin:round;-inkscape-stroke:none"
     d="m 17.175781,7.25 a 0.75,0.75 0 0 0 -0.535156,0.2089844 0.75,0.75 0 0 0 -0.02148,1.0605469 L 19.240234,11.25 H 13 A 0.75,0.75 0 0 0 12.25,12 0.75,0.75 0 0 0 13,12.75 h 6.240234 l -2.621093,2.730469 a 0.75,0.75 0 0 0 0.02148,1.060547 0.75,0.75 0 0 0 1.060547,-0.02148 l 3.818359,-3.978515 0.0098,-0.0078 0.002,-0.002 a 0.75,0.75 0 0 0 0.002,-0.002 l 0.0078,-0.0098 a 0.75,0.75 0 0 0 0.07422,-0.115234 0.75,0.75 0 0 0 0.07617,-0.117188 0.75,0.75 0 0 0 0.03125,-0.144531 0.75,0.75 0 0 0 0.02539,-0.138672 A 0.75,0.75 0 0 0 21.75,12 a 0.75,0.75 0 0 0 -0.002,-0.0078 0.75,0.75 0 0 0 -0.02344,-0.119141 0.75,0.75 0 0 0 -0.002,-0.01563 0.75,0.75 0 0 0 -0.0039,-0.01367 0.75,0.75 0 0 0 -0.02344,-0.125 0.75,0.75 0 0 0 -0.0059,-0.01172 0.75,0.75 0 0 0 -0.06641,-0.09961 0.75,0.75 0 0 0 -0.02148,-0.0332 0.75,0.75 0 0 0 -0.06055,-0.09375 l -0.0059,-0.0059 -0.0039,-0.0059 a 0.75,0.75 0 0 0 -0.0039,-0.002 l -0.0078,-0.0078 -3.818359,-3.9785153 A 0.75,0.75 0 0 0 17.175781,7.25 Z"
     id="path4" />
</svg>
