<?xml version="1.0" encoding="UTF-8" standalone="no"?>
<svg
   width="24"
   height="24"
   stroke-width="1.5"
   viewBox="0 0 24 24"
   fill="none"
   version="1.1"
   id="svg10"
   sodipodi:docname="send-yens.svg"
   inkscape:version="1.2.1 (9c6d41e410, 2022-07-14)"
   xmlns:inkscape="http://www.inkscape.org/namespaces/inkscape"
   xmlns:sodipodi="http://sodipodi.sourceforge.net/DTD/sodipodi-0.dtd"
   xmlns="http://www.w3.org/2000/svg"
   xmlns:svg="http://www.w3.org/2000/svg">
  <defs
     id="defs14" />
  <sodipodi:namedview
     id="namedview12"
     pagecolor="#ffffff"
     bordercolor="#666666"
     borderopacity="1.0"
     inkscape:showpageshadow="2"
     inkscape:pageopacity="0.0"
     inkscape:pagecheckerboard="0"
     inkscape:deskcolor="#d1d1d1"
     showgrid="false"
     inkscape:zoom="34.541667"
     inkscape:cx="10.364294"
     inkscape:cy="12.014475"
     inkscape:window-width="1920"
     inkscape:window-height="1009"
     inkscape:window-x="1912"
     inkscape:window-y="-8"
     inkscape:window-maximized="1"
     inkscape:current-layer="svg10" />
  <path
     style="color:#000000;fill:currentColor;stroke-linecap:round;stroke-linejoin:round;-inkscape-stroke:none"
     d="m 17.175781,7.25 a 0.75,0.75 0 0 0 -0.535156,0.2089844 0.75,0.75 0 0 0 -0.02148,1.0605469 L 19.240234,11.25 H 13 A 0.75,0.75 0 0 0 12.25,12 0.75,0.75 0 0 0 13,12.75 h 6.240234 l -2.621093,2.730469 a 0.75,0.75 0 0 0 0.02148,1.060547 0.75,0.75 0 0 0 1.060547,-0.02148 l 3.818359,-3.978515 0.0098,-0.0078 0.002,-0.002 a 0.75,0.75 0 0 0 0.002,-0.002 l 0.0078,-0.0098 a 0.75,0.75 0 0 0 0.07422,-0.115234 0.75,0.75 0 0 0 0.07617,-0.117188 0.75,0.75 0 0 0 0.03125,-0.144531 0.75,0.75 0 0 0 0.02539,-0.138672 A 0.75,0.75 0 0 0 21.75,12 a 0.75,0.75 0 0 0 -0.002,-0.0078 0.75,0.75 0 0 0 -0.02344,-0.119141 0.75,0.75 0 0 0 -0.002,-0.01563 0.75,0.75 0 0 0 -0.0039,-0.01367 0.75,0.75 0 0 0 -0.02344,-0.125 0.75,0.75 0 0 0 -0.0059,-0.01172 0.75,0.75 0 0 0 -0.06641,-0.09961 0.75,0.75 0 0 0 -0.02148,-0.0332 0.75,0.75 0 0 0 -0.06055,-0.09375 l -0.0059,-0.0059 -0.0039,-0.0059 a 0.75,0.75 0 0 0 -0.0039,-0.002 l -0.0078,-0.0078 -3.818359,-3.9785153 A 0.75,0.75 0 0 0 17.175781,7.25 Z"
     id="path2" />
  <path
     style="color:#000000;fill:currentColor;stroke-linecap:round;stroke-linejoin:round;-inkscape-stroke:none"
     d="M 3,12.25 A 0.75,0.75 0 0 0 2.25,13 0.75,0.75 0 0 0 3,13.75 h 8 A 0.75,0.75 0 0 0 11.75,13 0.75,0.75 0 0 0 11,12.25 Z"
     id="path4" />
  <path
     style="color:#000000;fill:currentColor;stroke-linecap:round;stroke-linejoin:round;-inkscape-stroke:none"
     d="M 3.1171875,6.2597656 A 0.75,0.75 0 0 0 2.5585938,6.3925781 0.75,0.75 0 0 0 2.3925781,7.4414062 L 6.25,12.746094 V 18 A 0.75,0.75 0 0 0 7,18.75 0.75,0.75 0 0 0 7.75,18 V 12.746094 L 11.607422,7.4414062 A 0.75,0.75 0 0 0 11.441406,6.3925781 0.75,0.75 0 0 0 10.392578,6.5585937 L 7,11.222656 3.6074219,6.5585937 A 0.75,0.75 0 0 0 3.1171875,6.2597656 Z"
     id="path6" />
  <path
     style="color:#000000;fill:currentColor;stroke-linecap:round;stroke-linejoin:round;-inkscape-stroke:none"
     d="M 3,14.25 A 0.75,0.75 0 0 0 2.25,15 0.75,0.75 0 0 0 3,15.75 h 8 A 0.75,0.75 0 0 0 11.75,15 0.75,0.75 0 0 0 11,14.25 Z"
     id="path8" />
</svg>
