<?xml version="1.0" encoding="UTF-8" standalone="no"?>
<svg
   width="24"
   height="24"
   stroke-width="1.5"
   viewBox="0 0 24 24"
   fill="none"
   version="1.1"
   id="svg10"
   sodipodi:docname="server.svg"
   inkscape:version="1.2.1 (9c6d41e410, 2022-07-14)"
   xmlns:inkscape="http://www.inkscape.org/namespaces/inkscape"
   xmlns:sodipodi="http://sodipodi.sourceforge.net/DTD/sodipodi-0.dtd"
   xmlns="http://www.w3.org/2000/svg"
   xmlns:svg="http://www.w3.org/2000/svg">
  <defs
     id="defs14" />
  <sodipodi:namedview
     id="namedview12"
     pagecolor="#ffffff"
     bordercolor="#666666"
     borderopacity="1.0"
     inkscape:showpageshadow="2"
     inkscape:pageopacity="0.0"
     inkscape:pagecheckerboard="0"
     inkscape:deskcolor="#d1d1d1"
     showgrid="false"
     inkscape:zoom="34.541667"
     inkscape:cx="10.364294"
     inkscape:cy="12.014475"
     inkscape:window-width="1920"
     inkscape:window-height="1009"
     inkscape:window-x="1912"
     inkscape:window-y="-8"
     inkscape:window-maximized="1"
     inkscape:current-layer="svg10" />
  <path
     style="color:#000000;fill:currentColor;stroke-linecap:round;stroke-linejoin:round;-inkscape-stroke:none"
     d="M 5.9707031,17.25 A 0.75,0.75 0 0 0 5.453125,17.496094 l -0.00977,0.01172 a 0.75,0.75 0 0 0 0.054687,1.058594 0.75,0.75 0 0 0 1.0585937,-0.05469 L 6.5664062,18.5 A 0.75,0.75 0 0 0 6.5117187,17.441406 0.75,0.75 0 0 0 5.9707031,17.25 Z"
     id="path2" />
  <path
     style="color:#000000;fill:currentColor;stroke-linecap:round;stroke-linejoin:round;-inkscape-stroke:none"
     d="M 5.9707031,5.25 A 0.75,0.75 0 0 0 5.453125,5.4980469 l -0.00977,0.00977 a 0.75,0.75 0 0 0 0.054687,1.0605469 0.75,0.75 0 0 0 1.0585937,-0.056641 L 6.5683594,6.5 A 0.75,0.75 0 0 0 6.5117187,5.4414062 0.75,0.75 0 0 0 5.9707031,5.25 Z"
     id="path4" />
  <path
     style="color:#000000;fill:currentColor;-inkscape-stroke:none"
     d="M 2.5996094,1.25 C 1.8629077,1.25 1.25,1.8629077 1.25,2.5996094 V 9.4003906 C 1.25,10.137092 1.8629077,10.75 2.5996094,10.75 H 21.400391 C 22.137086,10.75 22.75,10.137047 22.75,9.4003906 V 2.5996094 C 22.75,1.862953 22.137086,1.25 21.400391,1.25 Z M 2.75,2.75 h 18.5 v 6.5 H 2.75 Z"
     id="path6" />
  <path
     style="color:#000000;fill:currentColor;-inkscape-stroke:none"
     d="M 2.5996094,13.25 C 1.862953,13.25 1.25,13.862914 1.25,14.599609 v 6.800782 C 1.25,22.137086 1.862953,22.75 2.5996094,22.75 H 21.400391 C 22.13704,22.75 22.75,22.13704 22.75,21.400391 V 14.599609 C 22.75,13.86296 22.13704,13.25 21.400391,13.25 Z M 2.75,14.75 h 18.5 v 6.5 H 2.75 Z"
     id="path8" />
</svg>
