<?xml version="1.0" encoding="UTF-8" standalone="no"?>
<svg
   width="24"
   height="24"
   stroke-width="1.5"
   viewBox="0 0 24 24"
   fill="none"
   version="1.1"
   id="svg6"
   sodipodi:docname="settings-profiles.svg"
   inkscape:version="1.2.1 (9c6d41e410, 2022-07-14)"
   xmlns:inkscape="http://www.inkscape.org/namespaces/inkscape"
   xmlns:sodipodi="http://sodipodi.sourceforge.net/DTD/sodipodi-0.dtd"
   xmlns="http://www.w3.org/2000/svg"
   xmlns:svg="http://www.w3.org/2000/svg">
  <defs
     id="defs10" />
  <sodipodi:namedview
     id="namedview8"
     pagecolor="#ffffff"
     bordercolor="#666666"
     borderopacity="1.0"
     inkscape:showpageshadow="2"
     inkscape:pageopacity="0.0"
     inkscape:pagecheckerboard="0"
     inkscape:deskcolor="#d1d1d1"
     showgrid="false"
     inkscape:zoom="34.541667"
     inkscape:cx="10.364294"
     inkscape:cy="12.014475"
     inkscape:window-width="1920"
     inkscape:window-height="1009"
     inkscape:window-x="1912"
     inkscape:window-y="-8"
     inkscape:window-maximized="1"
     inkscape:current-layer="svg6" />
  <path
     style="color:#000000;fill:currentColor;-inkscape-stroke:none"
     d="m 12,1.4472656 c -0.316779,0 -0.632978,0.109403 -0.884766,0.328125 L 9.2148438,3.4257813 6.7070312,3.2070313 C 6.0424679,3.1490831 5.423691,3.5981233 5.2734375,4.2480469 L 4.7070312,6.7011719 2.5488281,7.9980469 C 1.9771494,8.341786 1.7414927,9.067518 2.0019531,9.6816406 L 2.984375,12 2.0019531,14.318359 c -0.2604986,0.614146 -0.024743,1.339802 0.546875,1.683594 l 2.1582031,1.296875 0.5664063,2.453125 c 0.1502416,0.649917 0.7689448,1.099038 1.4335937,1.041016 l 2.5078126,-0.21875 1.9003902,1.65039 c 0.503601,0.437332 1.265931,0.437332 1.769532,0 l 1.90039,-1.65039 2.507813,0.21875 c 0.664657,0.05803 1.283248,-0.391228 1.433593,-1.041016 l 0.566407,-2.453125 2.158203,-1.296875 c 0.571015,-0.343456 0.806241,-1.069843 0.546875,-1.683594 v -0.002 L 21.015625,12 21.998047,9.6835938 v -0.00195 C 22.257375,9.0679129 22.022247,8.34145 21.451172,7.9980469 L 19.292969,6.7011719 18.726562,4.2480469 C 18.576205,3.5982524 17.957541,3.1490765 17.292969,3.2070313 l -2.507813,0.21875 -1.90039,-1.6503907 C 12.632978,1.5566686 12.316779,1.4472656 12,1.4472656 Z m 0,1.5449219 1.849609,1.609375 c 0.275967,0.2396952 0.63774,0.3559638 1.001954,0.3242187 l 2.441406,-0.2109375 0.552734,2.3867188 c 0.08239,0.3557328 0.305685,0.6631067 0.619141,0.8515625 l 2.101562,1.2636719 -0.957031,2.2558591 c -0.142607,0.336419 -0.142607,0.718269 0,1.054688 l 0.957031,2.255859 -2.101562,1.263672 c -0.313511,0.188466 -0.536768,0.49581 -0.619141,0.851562 l -0.552734,2.386719 -2.439453,-0.210937 h -0.002 c -0.363933,-0.03137 -0.726587,0.08518 -1.001954,0.324218 L 12,21.007812 10.150391,19.398437 C 9.8745043,19.158888 9.51106,19.042266 9.1464844,19.074219 L 6.7070312,19.285156 6.1542969,16.898437 C 6.0719663,16.542189 5.8485109,16.235274 5.5351562,16.046875 L 3.4335938,14.783203 4.390625,12.527344 c 0.142578,-0.336403 0.142578,-0.718285 0,-1.054688 L 3.4335938,9.2167969 5.5351562,7.953125 C 5.8484556,7.7647363 6.0719449,7.4577917 6.1542969,7.1015625 L 6.7070312,4.7148437 9.1464844,4.9257812 C 9.5106912,4.9575218 9.8743901,4.841346 10.150391,4.6015625 Z"
     id="path2" />
  <path
     style="color:#000000;fill:currentColor;stroke-linecap:round;stroke-linejoin:round;-inkscape-stroke:none"
     d="M 16,9.25 A 0.75,0.75 0 0 0 15.46875,9.46875 L 11,13.9375 9.53125,12.46875 a 0.75,0.75 0 0 0 -1.0625,0 0.75,0.75 0 0 0 0,1.0625 l 2,2 a 0.750075,0.750075 0 0 0 1.0625,0 l 5,-5 a 0.75,0.75 0 0 0 0,-1.0625 A 0.75,0.75 0 0 0 16,9.25 Z"
     id="path4" />
</svg>
