<?xml version="1.0" encoding="UTF-8" standalone="no"?>
<svg
   width="24"
   height="24"
   stroke-width="1.5"
   viewBox="0 0 24 24"
   fill="none"
   version="1.1"
   id="svg6"
   sodipodi:docname="settings.svg"
   inkscape:version="1.2.1 (9c6d41e410, 2022-07-14)"
   xmlns:inkscape="http://www.inkscape.org/namespaces/inkscape"
   xmlns:sodipodi="http://sodipodi.sourceforge.net/DTD/sodipodi-0.dtd"
   xmlns="http://www.w3.org/2000/svg"
   xmlns:svg="http://www.w3.org/2000/svg">
  <defs
     id="defs10" />
  <sodipodi:namedview
     id="namedview8"
     pagecolor="#ffffff"
     bordercolor="#666666"
     borderopacity="1.0"
     inkscape:showpageshadow="2"
     inkscape:pageopacity="0.0"
     inkscape:pagecheckerboard="0"
     inkscape:deskcolor="#d1d1d1"
     showgrid="false"
     inkscape:zoom="34.541667"
     inkscape:cx="10.364294"
     inkscape:cy="12.014475"
     inkscape:window-width="1920"
     inkscape:window-height="1009"
     inkscape:window-x="1912"
     inkscape:window-y="-8"
     inkscape:window-maximized="1"
     inkscape:current-layer="svg6" />
  <path
     style="color:#000000;fill:currentColor;stroke-linecap:round;stroke-linejoin:round;-inkscape-stroke:none"
     d="m 12,8.25 c -2.062203,0 -3.75,1.687797 -3.75,3.75 0,2.062203 1.687797,3.75 3.75,3.75 2.062203,0 3.75,-1.687797 3.75,-3.75 0,-2.062203 -1.687797,-3.75 -3.75,-3.75 z m 0,1.5 c 1.251594,0 2.25,0.998406 2.25,2.25 0,1.251594 -0.998406,2.25 -2.25,2.25 -1.251594,0 -2.25,-0.998406 -2.25,-2.25 0,-1.251594 0.998406,-2.25 2.25,-2.25 z"
     id="path2" />
  <path
     style="color:#000000;fill:currentColor;stroke-linecap:round;stroke-linejoin:round;-inkscape-stroke:none"
     d="m 10.980469,1.25 a 0.750075,0.750075 0 0 0 -0.72461,0.5585937 L 9.7167969,3.8535156 7.8496094,4.640625 6.4980469,3.4394531 A 0.750075,0.750075 0 0 0 5.46875,3.46875 l -2,2 A 0.750075,0.750075 0 0 0 3.4179688,6.4726562 L 4.5917969,7.9179687 3.8242188,9.8046875 1.8300781,10.269531 A 0.750075,0.750075 0 0 0 1.25,11 v 2 a 0.750075,0.750075 0 0 0 0.5527344,0.722656 L 3.8515625,14.283203 4.640625,16.154297 3.4394531,17.5 a 0.750075,0.750075 0 0 0 0.029297,1.03125 l 2,2 a 0.750075,0.750075 0 0 0 1.0058594,0.05078 l 1.4433593,-1.177734 1.8437501,0.757812 0.5117192,2.021485 A 0.750075,0.750075 0 0 0 11,22.75 h 2 a 0.750075,0.750075 0 0 0 0.726563,-0.566406 l 0.511718,-2.021485 1.882813,-0.779297 C 16.619741,19.795304 17.5,20.558594 17.5,20.558594 a 0.750075,0.750075 0 0 0 1.03125,-0.02734 l 2,-2 a 0.750075,0.750075 0 0 0 0.04102,-1.015625 l -1.1875,-1.402344 0.779296,-1.882812 2.025391,-0.527344 A 0.750075,0.750075 0 0 0 22.75,12.976563 V 11 A 0.750075,0.750075 0 0 0 22.185547,10.273438 L 20.169922,9.7597656 19.392578,7.8808594 20.572266,6.484375 A 0.750075,0.750075 0 0 0 20.53125,5.46875 l -2,-2 A 0.750075,0.750075 0 0 0 17.513672,3.4296875 L 16.125,4.6152344 14.1875,3.8183594 13.660156,1.8085937 A 0.750075,0.750075 0 0 0 12.935547,1.25 Z m 0.578125,1.5 h 0.798828 l 0.474609,1.8105469 A 0.750075,0.750075 0 0 0 13.273438,5.0625 l 2.705078,1.1132812 a 0.750075,0.750075 0 0 0 0.773437,-0.1230468 l 1.208984,-1.03125 1.021485,1.0214843 -1.03125,1.2167969 A 0.750075,0.750075 0 0 0 17.832031,8.03125 l 1.097656,2.650391 a 0.750075,0.750075 0 0 0 0.507813,0.441406 l 1.8125,0.460937 v 0.8125 l -1.824219,0.476563 a 0.750075,0.750075 0 0 0 -0.503906,0.4375 l -1.099609,2.652344 a 0.750075,0.750075 0 0 0 0.121093,0.771484 l 1.03711,1.224609 -1.023438,1.021485 C 17.560399,18.625546 17.101725,18.199547 16.691406,17.90625 a 0.750075,0.750075 0 0 0 -0.722656,-0.08398 l -2.650391,1.097656 a 0.750075,0.750075 0 0 0 -0.441406,0.509765 L 12.416016,21.25 H 11.583984 L 11.125,19.427734 A 0.750075,0.750075 0 0 0 10.681641,18.917969 L 8.0761719,17.847656 A 0.750075,0.750075 0 0 0 7.3164062,17.958984 L 6.0507812,18.990234 5.03125,17.970703 6.0761719,16.798828 A 0.750075,0.750075 0 0 0 6.2070312,16.007812 L 5.0917969,13.363281 A 0.750075,0.750075 0 0 0 4.5976562,12.931641 L 2.75,12.427734 V 11.595703 L 4.5429687,11.175781 A 0.750075,0.750075 0 0 0 5.0664062,10.728516 L 6.1484375,8.0722656 A 0.750075,0.750075 0 0 0 6.0351562,7.3164062 L 5.0078125,6.0527344 6.0292969,5.03125 7.2050781,6.0761719 A 0.750075,0.750075 0 0 0 7.9960937,6.2070312 L 10.640625,5.0917969 a 0.750075,0.750075 0 0 0 0.433594,-0.5 z"
     id="path4" />
</svg>
