<?xml version="1.0" encoding="UTF-8" standalone="no"?>
<svg
   width="24"
   height="24"
   stroke-width="1.5"
   viewBox="0 0 24 24"
   fill="none"
   version="1.1"
   id="svg12"
   sodipodi:docname="share-android.svg"
   inkscape:version="1.2.1 (9c6d41e410, 2022-07-14)"
   xmlns:inkscape="http://www.inkscape.org/namespaces/inkscape"
   xmlns:sodipodi="http://sodipodi.sourceforge.net/DTD/sodipodi-0.dtd"
   xmlns="http://www.w3.org/2000/svg"
   xmlns:svg="http://www.w3.org/2000/svg">
  <defs
     id="defs16" />
  <sodipodi:namedview
     id="namedview14"
     pagecolor="#ffffff"
     bordercolor="#666666"
     borderopacity="1.0"
     inkscape:showpageshadow="2"
     inkscape:pageopacity="0.0"
     inkscape:pagecheckerboard="0"
     inkscape:deskcolor="#d1d1d1"
     showgrid="false"
     inkscape:zoom="34.541667"
     inkscape:cx="10.364294"
     inkscape:cy="12.014475"
     inkscape:window-width="1920"
     inkscape:window-height="1009"
     inkscape:window-x="1912"
     inkscape:window-y="-8"
     inkscape:window-maximized="1"
     inkscape:current-layer="svg12" />
  <path
     style="color:#000000;fill:currentColor;stroke-linecap:round;stroke-linejoin:round;-inkscape-stroke:none"
     d="m 18,15.25 c -2.062203,0 -3.75,1.687797 -3.75,3.75 0,2.062203 1.687797,3.75 3.75,3.75 2.062203,0 3.75,-1.687797 3.75,-3.75 0,-2.062203 -1.687797,-3.75 -3.75,-3.75 z m 0,1.5 c 1.251594,0 2.25,0.998406 2.25,2.25 0,1.251594 -0.998406,2.25 -2.25,2.25 -1.251594,0 -2.25,-0.998406 -2.25,-2.25 0,-1.251594 0.998406,-2.25 2.25,-2.25 z"
     id="path2" />
  <path
     style="color:#000000;fill:currentColor;stroke-linecap:round;stroke-linejoin:round;-inkscape-stroke:none"
     d="m 18,1.25 c -2.062218,0 -3.75,1.6878347 -3.75,3.75 0,2.0621653 1.687782,3.75 3.75,3.75 2.062218,0 3.75,-1.6878347 3.75,-3.75 0,-2.0621653 -1.687782,-3.75 -3.75,-3.75 z m 0,1.5 c 1.251579,0 2.25,0.9984686 2.25,2.25 0,1.2515314 -0.998421,2.25 -2.25,2.25 -1.251579,0 -2.25,-0.9984686 -2.25,-2.25 0,-1.2515314 0.998421,-2.25 2.25,-2.25 z"
     id="path4" />
  <path
     style="color:#000000;fill:currentColor;stroke-linecap:round;stroke-linejoin:round;-inkscape-stroke:none"
     d="M 6,8.25 C 3.9378347,8.25 2.25,9.9377819 2.25,12 2.25,14.062218 3.9378347,15.75 6,15.75 8.0621653,15.75 9.75,14.062218 9.75,12 9.75,9.9377819 8.0621653,8.25 6,8.25 Z m 0,1.5 c 1.2515314,0 2.25,0.998421 2.25,2.25 0,1.251579 -0.9984686,2.25 -2.25,2.25 C 4.7484686,14.25 3.75,13.251579 3.75,12 3.75,10.748421 4.7484686,9.75 6,9.75 Z"
     id="path6" />
  <path
     style="color:#000000;fill:currentColor;-inkscape-stroke:none"
     d="m 15.126953,5.8496094 -6.9999999,4 0.7460938,1.3007816 7.0000001,-4.0000004 z"
     id="path8" />
  <path
     style="color:#000000;fill:currentColor;-inkscape-stroke:none"
     d="m 8.8730469,12.849609 -0.7460938,1.300782 6.9999999,4 0.746094,-1.300782 z"
     id="path10" />
</svg>
