<?xml version="1.0" encoding="UTF-8" standalone="no"?>
<svg
   width="24"
   height="24"
   stroke-width="1.5"
   viewBox="0 0 24 24"
   fill="none"
   version="1.1"
   id="svg4"
   sodipodi:docname="shield-alt.svg"
   inkscape:version="1.2.1 (9c6d41e410, 2022-07-14)"
   xmlns:inkscape="http://www.inkscape.org/namespaces/inkscape"
   xmlns:sodipodi="http://sodipodi.sourceforge.net/DTD/sodipodi-0.dtd"
   xmlns="http://www.w3.org/2000/svg"
   xmlns:svg="http://www.w3.org/2000/svg">
  <defs
     id="defs8" />
  <sodipodi:namedview
     id="namedview6"
     pagecolor="#ffffff"
     bordercolor="#666666"
     borderopacity="1.0"
     inkscape:showpageshadow="2"
     inkscape:pageopacity="0.0"
     inkscape:pagecheckerboard="0"
     inkscape:deskcolor="#d1d1d1"
     showgrid="false"
     inkscape:zoom="34.541667"
     inkscape:cx="10.364294"
     inkscape:cy="12.014475"
     inkscape:window-width="1920"
     inkscape:window-height="1009"
     inkscape:window-x="1912"
     inkscape:window-y="-8"
     inkscape:window-maximized="1"
     inkscape:current-layer="svg4" />
  <path
     style="color:#000000;fill:currentColor;stroke-linecap:round;stroke-linejoin:round;-inkscape-stroke:none"
     d="M 11.404297,1.3652344 3.7421875,3.0664063 C 2.8568593,3.2631401 2.2603302,4.1231101 2.3886719,5.0214844 2.4918233,5.7435843 2.6470757,6.8381037 2.828125,8.1054688 c 0.3085397,2.1597972 0.6888499,4.8219992 1,7.0000002 0.1718806,1.203204 0.323779,2.25861 0.4296875,3 C 4.2931696,18.352983 4.4915097,19.533181 5.5957031,20.5 6.6998965,21.466819 8.6344264,22.25 12,22.25 c 3.365574,0 5.300102,-0.783181 6.404297,-1.75 1.104195,-0.966819 1.302533,-2.146982 1.33789,-2.394531 0.105896,-0.741368 0.257787,-1.796795 0.429688,-3 0.311098,-2.17799 0.691403,-4.840221 1,-7.0000002 0.180994,-1.2673294 0.33634,-2.3618 0.439453,-3.0839844 0.12834,-0.8983649 -0.46818,-1.7583466 -1.353516,-1.9550781 L 12.595703,1.3652344 c -0.392906,-0.087297 -0.7985,-0.087297 -1.191406,0 z m 0.324219,1.4628906 c 0.178693,-0.039703 0.364275,-0.039703 0.542968,0 l 7.66211,1.703125 c 0.134864,0.029968 0.212819,0.1430828 0.193359,0.2792969 C 20.045409,5.3816642 19.911399,6.3115231 19.777344,7.25 H 4.2226562 C 4.088591,6.3115449 3.9546401,5.381731 3.8730469,4.8105469 3.8535887,4.6743422 3.9315554,4.561216 4.0664062,4.53125 Z M 4.4375,8.75 h 15.125 c -0.254587,1.781887 -0.53165,3.725251 -0.785156,5.5 H 5.2226562 C 4.9691178,12.475259 4.6920511,10.531874 4.4375,8.75 Z m 0.9980469,7 H 18.564453 c -0.112904,0.790238 -0.230931,1.614493 -0.306641,2.144531 -0.03534,0.247451 -0.08867,0.817133 -0.841796,1.476563 C 16.662887,20.030523 15.13442,20.75 12,20.75 8.8655801,20.75 7.3371116,20.030523 6.5839844,19.371094 5.8308571,18.711664 5.7775403,18.142016 5.7421875,17.894531 5.6664732,17.364509 5.548438,16.540237 5.4355469,15.75 Z"
     id="path2" />
</svg>
