<?xml version="1.0" encoding="UTF-8" standalone="no"?>
<svg
   width="24"
   height="24"
   stroke-width="1.5"
   viewBox="0 0 24 24"
   fill="none"
   version="1.1"
   id="svg6"
   sodipodi:docname="shield-upload.svg"
   inkscape:version="1.2.1 (9c6d41e410, 2022-07-14)"
   xmlns:inkscape="http://www.inkscape.org/namespaces/inkscape"
   xmlns:sodipodi="http://sodipodi.sourceforge.net/DTD/sodipodi-0.dtd"
   xmlns="http://www.w3.org/2000/svg"
   xmlns:svg="http://www.w3.org/2000/svg">
  <defs
     id="defs10" />
  <sodipodi:namedview
     id="namedview8"
     pagecolor="#ffffff"
     bordercolor="#666666"
     borderopacity="1.0"
     inkscape:showpageshadow="2"
     inkscape:pageopacity="0.0"
     inkscape:pagecheckerboard="0"
     inkscape:deskcolor="#d1d1d1"
     showgrid="false"
     inkscape:zoom="34.541667"
     inkscape:cx="10.364294"
     inkscape:cy="12.014475"
     inkscape:window-width="1920"
     inkscape:window-height="1009"
     inkscape:window-x="1912"
     inkscape:window-y="-8"
     inkscape:window-maximized="1"
     inkscape:current-layer="svg6" />
  <path
     style="color:#000000;fill:currentColor;stroke-linecap:round;stroke-linejoin:round;-inkscape-stroke:none"
     d="m 12,7.25 a 0.75,0.75 0 0 0 -0.53125,0.21875 l -3,3 a 0.75,0.75 0 0 0 0,1.0625 0.75,0.75 0 0 0 1.0625,0 L 11.25,9.8125 V 15 A 0.75,0.75 0 0 0 12,15.75 0.75,0.75 0 0 0 12.75,15 V 9.8125 l 1.71875,1.71875 a 0.75,0.75 0 0 0 1.0625,0 0.75,0.75 0 0 0 0,-1.0625 l -3,-3 A 0.75,0.75 0 0 0 12,7.25 Z"
     id="path2" />
  <path
     style="color:#000000;fill:currentColor;stroke-linecap:round;stroke-linejoin:round;-inkscape-stroke:none"
     d="M 11.404297,1.3652344 3.7421875,3.0664063 C 2.8602565,3.2623852 2.2603296,4.121153 2.3886719,5.0195312 L 4.2578125,18.105469 C 4.2931696,18.352983 4.4915097,19.533181 5.5957031,20.5 6.6998965,21.466819 8.6344264,22.25 12,22.25 c 3.365574,0 5.300102,-0.783181 6.404297,-1.75 1.104195,-0.966819 1.302533,-2.146982 1.33789,-2.394531 L 21.611328,5.0195312 C 21.739669,4.1211829 21.139755,3.2623838 20.257812,3.0664063 L 12.595703,1.3652344 c -0.392906,-0.087297 -0.7985,-0.087297 -1.191406,0 z m 0.324219,1.4628906 c 0.178693,-0.039703 0.364275,-0.039703 0.542968,0 l 7.66211,1.703125 c 0.138257,0.030722 0.212819,0.13918 0.193359,0.2753906 L 18.257812,17.894531 c -0.03534,0.247451 -0.08867,0.817133 -0.841796,1.476563 C 16.662887,20.030523 15.13442,20.75 12,20.75 8.8655801,20.75 7.3371116,20.030523 6.5839844,19.371094 5.8308571,18.711664 5.7775403,18.142016 5.7421875,17.894531 L 3.8730469,4.8066406 C 3.8535893,4.6704399 3.9281583,4.5619709 4.0664062,4.53125 Z"
     id="path4" />
</svg>
