<?xml version="1.0" encoding="UTF-8" standalone="no"?>
<svg
   width="24"
   height="24"
   stroke-width="1.5"
   viewBox="0 0 24 24"
   fill="none"
   version="1.1"
   id="svg8"
   sodipodi:docname="shield-question.svg"
   inkscape:version="1.2.1 (9c6d41e410, 2022-07-14)"
   xmlns:inkscape="http://www.inkscape.org/namespaces/inkscape"
   xmlns:sodipodi="http://sodipodi.sourceforge.net/DTD/sodipodi-0.dtd"
   xmlns="http://www.w3.org/2000/svg"
   xmlns:svg="http://www.w3.org/2000/svg">
  <defs
     id="defs12" />
  <sodipodi:namedview
     id="namedview10"
     pagecolor="#ffffff"
     bordercolor="#666666"
     borderopacity="1.0"
     inkscape:showpageshadow="2"
     inkscape:pageopacity="0.0"
     inkscape:pagecheckerboard="0"
     inkscape:deskcolor="#d1d1d1"
     showgrid="false"
     inkscape:zoom="34.541667"
     inkscape:cx="10.364294"
     inkscape:cy="12.014475"
     inkscape:window-width="1920"
     inkscape:window-height="1009"
     inkscape:window-x="1912"
     inkscape:window-y="-8"
     inkscape:window-maximized="1"
     inkscape:current-layer="svg8" />
  <path
     style="color:#000000;fill:currentColor;stroke-linecap:round;stroke-linejoin:round;-inkscape-stroke:none"
     d="M 11.75,5.625 C 10.903409,5.6249977 10.047361,5.8884947 9.375,6.4589844 8.7026394,7.029474 8.25,7.9285667 8.25,9 A 0.75,0.75 0 0 0 9,9.75 0.75,0.75 0 0 0 9.75,9 C 9.75,8.3214201 9.9848617,7.9080279 10.34375,7.6035156 10.702638,7.2990033 11.221592,7.1249986 11.75,7.125 c 0.528408,1.4e-6 1.04736,0.1740014 1.40625,0.4785156 C 13.51514,7.9080298 13.75,8.3214293 13.75,9 c 0,0.999999 -0.35642,1.174905 -1.001953,1.755859 C 12.102513,11.336814 11.25,12.291668 11.25,14 A 0.75,0.75 0 0 0 12,14.75 0.75,0.75 0 0 0 12.75,14 c 0,-1.291665 0.397488,-1.586865 1.001953,-2.130859 C 14.356418,11.325146 15.25,10.499999 15.25,9 15.25,7.9285725 14.797359,7.029474 14.125,6.4589844 13.452641,5.8884948 12.596591,5.6250023 11.75,5.625 Z"
     id="path2" />
  <path
     style="color:#000000;fill:currentColor;stroke-linecap:round;stroke-linejoin:round;-inkscape-stroke:none"
     d="m 11.970703,17.25 a 0.75,0.75 0 0 0 -0.517578,0.246094 l -0.0098,0.01172 a 0.75,0.75 0 0 0 0.05469,1.058594 0.75,0.75 0 0 0 1.058594,-0.05469 L 12.566406,18.5 A 0.75,0.75 0 0 0 12.511719,17.441406 0.75,0.75 0 0 0 11.970703,17.25 Z"
     id="path4" />
  <path
     style="color:#000000;fill:currentColor;stroke-linecap:round;stroke-linejoin:round;-inkscape-stroke:none"
     d="M 11.404297,1.3652344 3.7421875,3.0664063 C 2.8602565,3.2623852 2.2603296,4.121153 2.3886719,5.0195312 L 4.2578125,18.105469 C 4.2931696,18.352983 4.4915097,19.533181 5.5957031,20.5 6.6998965,21.466819 8.6344264,22.25 12,22.25 c 3.365574,0 5.300102,-0.783181 6.404297,-1.75 1.104195,-0.966819 1.302533,-2.146982 1.33789,-2.394531 L 21.611328,5.0195312 C 21.739669,4.1211829 21.139755,3.2623838 20.257812,3.0664063 L 12.595703,1.3652344 c -0.392906,-0.087297 -0.7985,-0.087297 -1.191406,0 z m 0.324219,1.4628906 c 0.178693,-0.039703 0.364275,-0.039703 0.542968,0 l 7.66211,1.703125 c 0.138257,0.030722 0.212819,0.13918 0.193359,0.2753906 L 18.257812,17.894531 c -0.03534,0.247451 -0.08867,0.817133 -0.841796,1.476563 C 16.662887,20.030523 15.13442,20.75 12,20.75 8.8655801,20.75 7.3371116,20.030523 6.5839844,19.371094 5.8308571,18.711664 5.7775403,18.142016 5.7421875,17.894531 L 3.8730469,4.8066406 C 3.8535893,4.6704399 3.9281583,4.5619709 4.0664062,4.53125 Z"
     id="path6" />
</svg>
