<?xml version="1.0" encoding="UTF-8" standalone="no"?>
<svg
   width="24"
   height="24"
   stroke-width="1.5"
   viewBox="0 0 24 24"
   fill="none"
   version="1.1"
   id="svg8"
   sodipodi:docname="shield-eye.svg"
   inkscape:version="1.2.1 (9c6d41e410, 2022-07-14)"
   xmlns:inkscape="http://www.inkscape.org/namespaces/inkscape"
   xmlns:sodipodi="http://sodipodi.sourceforge.net/DTD/sodipodi-0.dtd"
   xmlns="http://www.w3.org/2000/svg"
   xmlns:svg="http://www.w3.org/2000/svg">
  <defs
     id="defs12" />
  <sodipodi:namedview
     id="namedview10"
     pagecolor="#ffffff"
     bordercolor="#666666"
     borderopacity="1.0"
     inkscape:showpageshadow="2"
     inkscape:pageopacity="0.0"
     inkscape:pagecheckerboard="0"
     inkscape:deskcolor="#d1d1d1"
     showgrid="false"
     inkscape:zoom="34.541667"
     inkscape:cx="10.364294"
     inkscape:cy="12.014475"
     inkscape:window-width="1920"
     inkscape:window-height="1009"
     inkscape:window-x="1912"
     inkscape:window-y="-8"
     inkscape:window-maximized="1"
     inkscape:current-layer="svg8" />
  <path
     style="color:#000000;fill:currentColor;stroke-linecap:round;stroke-linejoin:round;-inkscape-stroke:none"
     d="M 12,7.25 C 10.416668,7.25 9.3167517,7.5143149 8.5957031,7.8027344 7.8746545,8.0911538 7.46875,8.46875 7.46875,8.46875 a 0.75,0.75 0 0 0 0,1.0625 0.75,0.75 0 0 0 1.0625,0 c 0,0 0.094097,-0.1224043 0.6230469,-0.3339844 C 9.683247,8.9856856 10.583335,8.75 12,8.75 c 1.416665,0 2.316753,0.2356856 2.845703,0.4472656 0.52895,0.2115801 0.623047,0.3339844 0.623047,0.3339844 a 0.75,0.75 0 0 0 1.0625,0 0.75,0.75 0 0 0 0,-1.0625 c 0,0 -0.405905,-0.3775962 -1.126953,-0.6660156 C 14.683248,7.5143149 13.583332,7.25 12,7.25 Z"
     id="path2" />
  <g
     id="path4">
    <path
       style="color:#000000;fill:currentColor;stroke-width:1.5;stroke-linecap:round;stroke-linejoin:round;-inkscape-stroke:none"
       d="m 12,14 c 0.5523,0 1,-0.4477 1,-1 0,-0.5523 -0.4477,-1 -1,-1 -0.5523,0 -1,0.4477 -1,1 0,0.5523 0.4477,1 1,1 z"
       id="path247" />
    <path
       style="color:#000000;fill:currentColor;stroke-linecap:round;stroke-linejoin:round;-inkscape-stroke:none"
       d="m 12,11.25 c -0.957604,0 -1.75,0.792396 -1.75,1.75 0,0.957604 0.792396,1.75 1.75,1.75 0.957604,0 1.75,-0.792396 1.75,-1.75 0,-0.957604 -0.792396,-1.75 -1.75,-1.75 z m 0,1.5 c 0.146995,0 0.25,0.103005 0.25,0.25 0,0.146995 -0.103005,0.25 -0.25,0.25 -0.146995,0 -0.25,-0.103005 -0.25,-0.25 0,-0.146995 0.103005,-0.25 0.25,-0.25 z"
       id="path249" />
  </g>
  <path
     style="color:#000000;fill:currentColor;stroke-linecap:round;stroke-linejoin:round;-inkscape-stroke:none"
     d="M 11.404297,1.3652344 3.7421875,3.0664063 C 2.8602565,3.2623852 2.2603296,4.121153 2.3886719,5.0195312 L 4.2578125,18.105469 C 4.2931696,18.352983 4.4915097,19.533181 5.5957031,20.5 6.6998965,21.466819 8.6344264,22.25 12,22.25 c 3.365574,0 5.300102,-0.783181 6.404297,-1.75 1.104195,-0.966819 1.302533,-2.146982 1.33789,-2.394531 L 21.611328,5.0195312 C 21.739669,4.1211829 21.139755,3.2623838 20.257812,3.0664063 L 12.595703,1.3652344 c -0.392906,-0.087297 -0.7985,-0.087297 -1.191406,0 z m 0.324219,1.4628906 c 0.178693,-0.039703 0.364275,-0.039703 0.542968,0 l 7.66211,1.703125 c 0.138257,0.030722 0.212819,0.13918 0.193359,0.2753906 L 18.257812,17.894531 c -0.03534,0.247451 -0.08867,0.817133 -0.841796,1.476563 C 16.662887,20.030523 15.13442,20.75 12,20.75 8.8655801,20.75 7.3371116,20.030523 6.5839844,19.371094 5.8308571,18.711664 5.7775403,18.142016 5.7421875,17.894531 L 3.8730469,4.8066406 C 3.8535893,4.6704399 3.9281583,4.5619709 4.0664062,4.53125 Z"
     id="path6" />
</svg>
