<?xml version="1.0" encoding="UTF-8" standalone="no"?>
<svg
   width="24"
   height="24"
   viewBox="0 0 24 24"
   stroke-width="1.5"
   fill="none"
   version="1.1"
   id="svg8"
   sodipodi:docname="shirt.svg"
   inkscape:version="1.2.1 (9c6d41e410, 2022-07-14)"
   xmlns:inkscape="http://www.inkscape.org/namespaces/inkscape"
   xmlns:sodipodi="http://sodipodi.sourceforge.net/DTD/sodipodi-0.dtd"
   xmlns="http://www.w3.org/2000/svg"
   xmlns:svg="http://www.w3.org/2000/svg">
  <defs
     id="defs12" />
  <sodipodi:namedview
     id="namedview10"
     pagecolor="#ffffff"
     bordercolor="#666666"
     borderopacity="1.0"
     inkscape:showpageshadow="2"
     inkscape:pageopacity="0.0"
     inkscape:pagecheckerboard="0"
     inkscape:deskcolor="#d1d1d1"
     showgrid="false"
     inkscape:zoom="34.541667"
     inkscape:cx="10.364294"
     inkscape:cy="12.014475"
     inkscape:window-width="1920"
     inkscape:window-height="1009"
     inkscape:window-x="1912"
     inkscape:window-y="-8"
     inkscape:window-maximized="1"
     inkscape:current-layer="svg8" />
  <path
     style="color:#000000;fill:currentColor;stroke-linecap:round;stroke-linejoin:round;-inkscape-stroke:none"
     d="M 6,3.25 A 0.75,0.75 0 0 0 5.25,4 0.75,0.75 0 0 0 6,4.75 h 2.4355469 c 0.042904,0.3508096 -0.0052,0.53647 0.2695312,1.0859375 C 9.1695204,6.764822 10.250002,7.75 12,7.75 13.749998,7.75 14.83048,6.764822 15.294922,5.8359375 15.569656,5.28647 15.521549,5.1008096 15.564453,4.75 H 18 A 0.75,0.75 0 0 0 18.75,4 0.75,0.75 0 0 0 18,3.25 H 15 A 0.750075,0.750075 0 0 0 14.25,4 c 0,0 -0.0094,0.5929485 -0.294922,1.1640625 C 13.669521,5.7351765 13.249999,6.25 12,6.25 10.750001,6.25 10.330479,5.7351765 10.044922,5.1640625 9.7593649,4.5929485 9.75,4 9.75,4 A 0.750075,0.750075 0 0 0 9,3.25 Z m 0,7 A 0.75,0.75 0 0 0 5.25,11 v 8.400391 C 5.25,20.137086 5.862953,20.75 6.5996094,20.75 H 17.400391 C 18.13704,20.75 18.75,20.13704 18.75,19.400391 V 11 A 0.75,0.75 0 0 0 18,10.25 0.75,0.75 0 0 0 17.25,11 v 8.25 H 6.75 V 11 A 0.75,0.75 0 0 0 6,10.25 Z"
     id="path2" />
  <path
     style="color:#000000;fill:currentColor;stroke-linecap:round;stroke-linejoin:round;-inkscape-stroke:none"
     d="m 18.279297,3.3027344 a 0.75,0.75 0 0 0 -0.976563,0.4179687 0.75,0.75 0 0 0 0.417969,0.9765625 L 22.025391,6.4179687 20.492187,10.25 H 18 A 0.75,0.75 0 0 0 17.25,11 0.75,0.75 0 0 0 18,11.75 h 2.59375 c 0.549825,0 1.049658,-0.337483 1.253906,-0.847656 a 0.750075,0.750075 0 0 0 0,-0.002 l 1.625,-4.0644535 C 23.746079,6.1520033 23.404779,5.3536641 22.720703,5.0800781 Z"
     id="path4" />
  <path
     style="color:#000000;fill:currentColor;stroke-linecap:round;stroke-linejoin:round;-inkscape-stroke:none"
     d="M 5.7207031,3.3027344 1.2792969,5.0800781 C 0.59526288,5.3536739 0.25373369,6.1519235 0.52734375,6.8359375 L 2.1523438,10.900391 C 2.3565049,11.410794 2.8564375,11.75 3.40625,11.75 H 6 A 0.75,0.75 0 0 0 6.75,11 0.75,0.75 0 0 0 6,10.25 H 3.5078125 L 1.9746094,6.4179687 6.2792969,4.6972656 A 0.75,0.75 0 0 0 6.6953125,3.7207031 0.75,0.75 0 0 0 5.7207031,3.3027344 Z"
     id="path6" />
</svg>
