<?xml version="1.0" encoding="UTF-8" standalone="no"?>
<svg
   width="24"
   height="24"
   viewBox="0 0 24 24"
   stroke-width="1.5"
   fill="none"
   version="1.1"
   id="svg8"
   sodipodi:docname="shirt-tank-top.svg"
   inkscape:version="1.2.1 (9c6d41e410, 2022-07-14)"
   xmlns:inkscape="http://www.inkscape.org/namespaces/inkscape"
   xmlns:sodipodi="http://sodipodi.sourceforge.net/DTD/sodipodi-0.dtd"
   xmlns="http://www.w3.org/2000/svg"
   xmlns:svg="http://www.w3.org/2000/svg">
  <defs
     id="defs12" />
  <sodipodi:namedview
     id="namedview10"
     pagecolor="#ffffff"
     bordercolor="#666666"
     borderopacity="1.0"
     inkscape:showpageshadow="2"
     inkscape:pageopacity="0.0"
     inkscape:pagecheckerboard="0"
     inkscape:deskcolor="#d1d1d1"
     showgrid="false"
     inkscape:zoom="34.541667"
     inkscape:cx="10.364294"
     inkscape:cy="12.014475"
     inkscape:window-width="1920"
     inkscape:window-height="1009"
     inkscape:window-x="1912"
     inkscape:window-y="-8"
     inkscape:window-maximized="1"
     inkscape:current-layer="svg8" />
  <path
     style="color:#000000;fill:currentColor;stroke-linecap:round;stroke-linejoin:round;-inkscape-stroke:none"
     d="M 7.3535156,5.265625 A 0.750075,0.750075 0 0 0 6.875,5.5839844 c 0,0 -0.801829,1.1340287 -1.0976563,2.21875 -0.316808,1.1616395 -0.027572,2.1486117 0.2910157,2.9492186 0.3185879,0.800607 0.6400495,1.462108 0.6816406,2.285156 0.145322,2.875822 -1.4589844,7.71875 -1.4589844,7.71875 A 0.750075,0.750075 0 0 0 6,21.75 h 12 a 0.750075,0.750075 0 0 0 0.708984,-0.994141 c 0,0 -1.604288,-4.842921 -1.458984,-7.71875 0.04159,-0.823053 0.363059,-1.484551 0.681641,-2.285156 C 18.250222,9.9513485 18.539439,8.9643698 18.222656,7.8027344 17.926794,6.7180725 17.125,5.5839844 17.125,5.5839844 A 0.750075,0.750075 0 0 0 16.083984,5.375 c 0,0 -0.266464,0.1877798 -0.945312,0.4140625 C 14.459824,6.0153452 13.416665,6.25 12,6.25 10.583335,6.25 9.5401762,6.0153452 8.8613281,5.7890625 8.1824801,5.5627798 7.9160156,5.375 7.9160156,5.375 a 0.750075,0.750075 0 0 0 -0.5625,-0.109375 z M 7.8457031,6.9667969 C 8.0598217,7.0690906 8.0468668,7.0970025 8.3886719,7.2109375 9.2098223,7.4846543 10.416668,7.75 12,7.75 c 1.583332,0 2.790178,-0.2653457 3.611328,-0.5390625 0.341805,-0.113935 0.32885,-0.1418469 0.542969,-0.2441406 0.228345,0.3883676 0.509949,0.8158425 0.623047,1.2304687 0.207117,0.7594927 0.04703,1.2780887 -0.240235,2.0000004 -0.287267,0.721911 -0.7282,1.59988 -0.787109,2.765625 -0.144755,2.864966 0.843643,6.053125 1.248047,7.287109 H 7.0019531 C 7.4063615,19.016016 8.3947738,15.827863 8.25,12.962891 8.1910912,11.797141 7.7501621,10.919175 7.4628906,10.197266 7.1756192,9.4753566 7.0155248,8.9567542 7.2226562,8.1972656 7.3357227,7.7826804 7.6173531,7.3551643 7.8457031,6.9667969 Z"
     id="path2" />
  <path
     style="color:#000000;fill:currentColor;stroke-linecap:round;stroke-linejoin:round;-inkscape-stroke:none"
     d="M 7.5,2.25 A 0.75,0.75 0 0 0 6.75,3 V 6 A 0.75,0.75 0 0 0 7.5,6.75 0.75,0.75 0 0 0 8.25,6 V 3 A 0.75,0.75 0 0 0 7.5,2.25 Z"
     id="path4" />
  <path
     style="color:#000000;fill:currentColor;stroke-linecap:round;stroke-linejoin:round;-inkscape-stroke:none"
     d="M 16.5,2.25 A 0.75,0.75 0 0 0 15.75,3 V 6 A 0.75,0.75 0 0 0 16.5,6.75 0.75,0.75 0 0 0 17.25,6 V 3 A 0.75,0.75 0 0 0 16.5,2.25 Z"
     id="path6" />
</svg>
