<?xml version="1.0" encoding="UTF-8" standalone="no"?>
<svg
   width="24"
   height="24"
   stroke-width="1.5"
   viewBox="0 0 24 24"
   fill="none"
   version="1.1"
   id="svg8"
   sodipodi:docname="shopping-bag-check.svg"
   inkscape:version="1.2.1 (9c6d41e410, 2022-07-14)"
   xmlns:inkscape="http://www.inkscape.org/namespaces/inkscape"
   xmlns:sodipodi="http://sodipodi.sourceforge.net/DTD/sodipodi-0.dtd"
   xmlns="http://www.w3.org/2000/svg"
   xmlns:svg="http://www.w3.org/2000/svg">
  <defs
     id="defs12" />
  <sodipodi:namedview
     id="namedview10"
     pagecolor="#ffffff"
     bordercolor="#666666"
     borderopacity="1.0"
     inkscape:showpageshadow="2"
     inkscape:pageopacity="0.0"
     inkscape:pagecheckerboard="0"
     inkscape:deskcolor="#d1d1d1"
     showgrid="false"
     inkscape:zoom="34.541667"
     inkscape:cx="10.364294"
     inkscape:cy="12.014475"
     inkscape:window-width="1920"
     inkscape:window-height="1009"
     inkscape:window-x="1912"
     inkscape:window-y="-8"
     inkscape:window-maximized="1"
     inkscape:current-layer="svg8" />
  <path
     style="color:#000000;fill:currentColor;stroke-linecap:round;stroke-linejoin:round;-inkscape-stroke:none"
     d="m 6.7167969,7.25 c -1.35194,0 -2.5131678,0.9958085 -2.71875,2.3320313 L 2.6132813,18.582031 C 2.3591199,20.234032 3.6605839,21.75 5.3320312,21.75 H 12 A 0.75,0.75 0 0 0 12.75,21 0.75,0.75 0 0 0 12,20.25 H 5.3320312 c -0.7800901,0 -1.3549464,-0.668457 -1.2363281,-1.439453 L 5.4804687,9.8105469 C 5.5751062,9.1954316 6.0944588,8.75 6.7167969,8.75 H 17.285156 c 0.622283,0 1.139746,0.4454498 1.234375,1.0605469 l 0.738281,4.8027341 a 0.75,0.75 0 0 0 0.855469,0.628907 0.75,0.75 0 0 0 0.628906,-0.855469 L 20.001953,9.5820313 C 19.796383,8.2458103 18.637071,7.25 17.285156,7.25 Z"
     id="path2" />
  <path
     style="color:#000000;fill:currentColor;stroke-linecap:round;stroke-linejoin:round;-inkscape-stroke:none"
     d="m 22,16.25 a 0.75,0.75 0 0 0 -0.53125,0.21875 L 17,20.9375 14.53125,18.46875 a 0.75,0.75 0 0 0 -1.0625,0 0.75,0.75 0 0 0 0,1.0625 l 3,3 a 0.750075,0.750075 0 0 0 1.0625,0 l 5,-5 a 0.75,0.75 0 0 0 0,-1.0625 A 0.75,0.75 0 0 0 22,16.25 Z"
     id="path4" />
  <path
     style="color:#000000;fill:currentColor;stroke-linecap:round;stroke-linejoin:round;-inkscape-stroke:none"
     d="M 12,2.25 C 10.490083,2.25 9.25,3.4901154 9.25,5 A 0.75,0.75 0 0 0 10,5.75 0.75,0.75 0 0 0 10.75,5 c 0,-0.6992532 0.550719,-1.25 1.25,-1.25 0.699281,0 1.25,0.5507468 1.25,1.25 A 0.75,0.75 0 0 0 14,5.75 0.75,0.75 0 0 0 14.75,5 C 14.75,3.4901154 13.509917,2.25 12,2.25 Z"
     id="path6" />
</svg>
