<?xml version="1.0" encoding="UTF-8" standalone="no"?>
<svg
   width="24"
   height="24"
   stroke-width="1.5"
   viewBox="0 0 24 24"
   fill="none"
   version="1.1"
   id="svg24"
   sodipodi:docname="shopping-code-xmark.svg"
   inkscape:version="1.2.1 (9c6d41e410, 2022-07-14)"
   xmlns:inkscape="http://www.inkscape.org/namespaces/inkscape"
   xmlns:sodipodi="http://sodipodi.sourceforge.net/DTD/sodipodi-0.dtd"
   xmlns="http://www.w3.org/2000/svg"
   xmlns:svg="http://www.w3.org/2000/svg">
  <defs
     id="defs28" />
  <sodipodi:namedview
     id="namedview26"
     pagecolor="#ffffff"
     bordercolor="#666666"
     borderopacity="1.0"
     inkscape:showpageshadow="2"
     inkscape:pageopacity="0.0"
     inkscape:pagecheckerboard="0"
     inkscape:deskcolor="#d1d1d1"
     showgrid="false"
     inkscape:zoom="34.541667"
     inkscape:cx="10.364294"
     inkscape:cy="12.014475"
     inkscape:window-width="1920"
     inkscape:window-height="1009"
     inkscape:window-x="1912"
     inkscape:window-y="-8"
     inkscape:window-maximized="1"
     inkscape:current-layer="svg24" />
  <path
     style="color:#000000;fill:currentColor;stroke-linecap:round;stroke-linejoin:round;-inkscape-stroke:none"
     d="M 6,4.25 A 0.75,0.75 0 0 0 5.25,5 V 7 A 0.75,0.75 0 0 0 6,7.75 0.75,0.75 0 0 0 6.75,7 V 5 A 0.75,0.75 0 0 0 6,4.25 Z"
     id="path2" />
  <path
     style="color:#000000;fill:currentColor;stroke-linecap:round;stroke-linejoin:round;-inkscape-stroke:none"
     d="M 10,4.25 A 0.75,0.75 0 0 0 9.25,5 v 6 A 0.75,0.75 0 0 0 10,11.75 0.75,0.75 0 0 0 10.75,11 V 5 A 0.75,0.75 0 0 0 10,4.25 Z"
     id="path4" />
  <path
     style="color:#000000;fill:currentColor;stroke-linecap:round;stroke-linejoin:round;-inkscape-stroke:none"
     d="M 18,4.25 A 0.75,0.75 0 0 0 17.25,5 V 6 A 0.75,0.75 0 0 0 18,6.75 0.75,0.75 0 0 0 18.75,6 V 5 A 0.75,0.75 0 0 0 18,4.25 Z"
     id="path6" />
  <path
     style="color:#000000;fill:currentColor;stroke-linecap:round;stroke-linejoin:round;-inkscape-stroke:none"
     d="M 6,9.25 A 0.75,0.75 0 0 0 5.25,10 v 6 A 0.75,0.75 0 0 0 6,16.75 0.75,0.75 0 0 0 6.75,16 V 10 A 0.75,0.75 0 0 0 6,9.25 Z"
     id="path8" />
  <path
     style="color:#000000;fill:currentColor;stroke-linecap:round;stroke-linejoin:round;-inkscape-stroke:none"
     d="M 6,17.75 A 0.75,0.75 0 0 0 5.25,18.5 V 19 A 0.75,0.75 0 0 0 6,19.75 0.75,0.75 0 0 0 6.75,19 V 18.5 A 0.75,0.75 0 0 0 6,17.75 Z"
     id="path10" />
  <path
     style="color:#000000;fill:currentColor;stroke-linecap:round;stroke-linejoin:round;-inkscape-stroke:none"
     d="M 10,17.75 A 0.75,0.75 0 0 0 9.25,18.5 V 19 A 0.75,0.75 0 0 0 10,19.75 0.75,0.75 0 0 0 10.75,19 V 18.5 A 0.75,0.75 0 0 0 10,17.75 Z"
     id="path12" />
  <path
     style="color:#000000;fill:currentColor;stroke-linecap:round;stroke-linejoin:round;-inkscape-stroke:none"
     d="M 10,13.25 A 0.75,0.75 0 0 0 9.25,14 v 2 A 0.75,0.75 0 0 0 10,16.75 0.75,0.75 0 0 0 10.75,16 V 14 A 0.75,0.75 0 0 0 10,13.25 Z"
     id="path14" />
  <path
     style="color:#000000;fill:currentColor;stroke-linecap:round;stroke-linejoin:round;-inkscape-stroke:none"
     d="M 14,12.25 A 0.75,0.75 0 0 0 13.25,13 v 2 A 0.75,0.75 0 0 0 14,15.75 0.75,0.75 0 0 0 14.75,15 V 13 A 0.75,0.75 0 0 0 14,12.25 Z"
     id="path16" />
  <path
     style="color:#000000;fill:currentColor;stroke-linecap:round;stroke-linejoin:round;-inkscape-stroke:none"
     d="M 14,4.25 A 0.75,0.75 0 0 0 13.25,5 v 5 A 0.75,0.75 0 0 0 14,10.75 0.75,0.75 0 0 0 14.75,10 V 5 A 0.75,0.75 0 0 0 14,4.25 Z"
     id="path18" />
  <path
     style="color:#000000;fill:currentColor;stroke-linecap:round;stroke-linejoin:round;-inkscape-stroke:none"
     d="M 18,8.25 A 0.75,0.75 0 0 0 17.25,9 v 4 A 0.75,0.75 0 0 0 18,13.75 0.75,0.75 0 0 0 18.75,13 V 9 A 0.75,0.75 0 0 0 18,8.25 Z"
     id="path20" />
  <path
     style="color:#000000;fill:currentColor;stroke-linecap:round;stroke-linejoin:round;-inkscape-stroke:none"
     d="m 16.121094,16.371094 a 0.75,0.75 0 0 0 -0.529297,0.220703 0.75,0.75 0 0 0 0,1.060547 l 1.591797,1.589843 -1.591797,1.591797 a 0.75,0.75 0 0 0 0,1.060547 0.75,0.75 0 0 0 1.060547,0 l 1.589843,-1.589844 1.591797,1.589844 a 0.75,0.75 0 0 0 1.060547,0 0.75,0.75 0 0 0 0,-1.060547 l -1.589844,-1.591797 1.589844,-1.589843 a 0.75,0.75 0 0 0 0,-1.060547 0.75,0.75 0 0 0 -1.060547,0 l -1.591797,1.591797 -1.589843,-1.591797 a 0.75,0.75 0 0 0 -0.53125,-0.220703 z"
     id="path22" />
</svg>
