<?xml version="1.0" encoding="UTF-8" standalone="no"?>
<svg
   width="24"
   height="24"
   stroke-width="1.5"
   viewBox="0 0 24 24"
   fill="none"
   version="1.1"
   id="svg12"
   sodipodi:docname="shop-four-tiles-window.svg"
   inkscape:version="1.2.1 (9c6d41e410, 2022-07-14)"
   xmlns:inkscape="http://www.inkscape.org/namespaces/inkscape"
   xmlns:sodipodi="http://sodipodi.sourceforge.net/DTD/sodipodi-0.dtd"
   xmlns="http://www.w3.org/2000/svg"
   xmlns:svg="http://www.w3.org/2000/svg">
  <defs
     id="defs16" />
  <sodipodi:namedview
     id="namedview14"
     pagecolor="#ffffff"
     bordercolor="#666666"
     borderopacity="1.0"
     inkscape:showpageshadow="2"
     inkscape:pageopacity="0.0"
     inkscape:pagecheckerboard="0"
     inkscape:deskcolor="#d1d1d1"
     showgrid="false"
     inkscape:zoom="34.541667"
     inkscape:cx="10.364294"
     inkscape:cy="12.014475"
     inkscape:window-width="1920"
     inkscape:window-height="1009"
     inkscape:window-x="1912"
     inkscape:window-y="-8"
     inkscape:window-maximized="1"
     inkscape:current-layer="svg12" />
  <path
     style="color:#000000;fill:currentColor;-inkscape-stroke:none"
     d="m 2.25,9 v 10 c 0,1.509917 1.2401154,2.75 2.75,2.75 h 14 c 1.509904,0 2.75,-1.240096 2.75,-2.75 V 9 h -1.5 v 10 c 0,0.699294 -0.550706,1.25 -1.25,1.25 H 5 C 4.3007468,20.25 3.75,19.699281 3.75,19 V 9 Z"
     id="path2" />
  <path
     style="color:#000000;fill:currentColor;-inkscape-stroke:none"
     d="m 15.664063,2.25 0.609374,6.0917969 0.189454,0.1894531 c 0,0 1.197918,1.21875 3.03125,1.21875 1.316344,0 2.220866,-0.627247 2.634765,-0.9941406 0.346307,-0.3070392 0.457125,-0.7628845 0.392578,-1.1503907 L 21.816406,3.3789063 C 21.7088,2.7330205 21.139164,2.25 20.484375,2.25 Z m 1.658203,1.5 h 3.037109 l 0.652344,3.9296875 C 20.743708,7.9012552 20.268872,8.25 19.494141,8.25 c -0.970974,0 -1.573198,-0.4690658 -1.78711,-0.6503906 z"
     id="path4" />
  <path
     style="color:#000000;fill:currentColor;-inkscape-stroke:none"
     d="m 11.244141,2.25 v 6.0605469 l 0.21875,0.2207031 c 0,0 1.197918,1.21875 3.03125,1.21875 1.833331,0 3.029296,-1.21875 3.029296,-1.21875 L 17.775391,8.2792969 17.171875,2.25 h -0.677734 z m 1.5,1.5 h 3.070312 l 0.388672,3.9042969 C 15.931183,7.8697988 15.383723,8.25 14.494141,8.25 c -0.930968,0 -1.505402,-0.4222792 -1.75,-0.6230469 z"
     id="path6" />
  <path
     style="color:#000000;fill:currentColor;-inkscape-stroke:none"
     d="M 6.8144531,2.25 6.2109375,8.2792969 6.4628906,8.53125 c 0,0 1.1979185,1.21875 3.03125,1.21875 1.8333394,0 3.0292974,-1.21875 3.0292974,-1.21875 L 12.744141,8.3105469 V 2.25 h -0.75 z m 1.3574219,1.5 h 3.072266 V 7.625 C 11.001239,7.8247643 10.427483,8.25 9.4941406,8.25 8.6031787,8.25 8.052351,7.8693915 7.78125,7.6542969 Z"
     id="path8" />
  <path
     style="color:#000000;fill:currentColor;-inkscape-stroke:none"
     d="M 3.5019531,2.25 C 2.8471638,2.25 2.2775699,2.7330403 2.1699219,3.3789063 L 1.4648437,7.6054687 C 1.4003502,7.9924977 1.5124006,8.446923 1.8574219,8.7539063 2.2713467,9.1209124 3.1777732,9.75 4.4941406,9.75 6.3274721,9.75 7.5234375,8.53125 7.5234375,8.53125 L 7.7128906,8.3417969 8.3222656,2.25 h -0.828125 z m 0.1269532,1.5 H 6.6640625 L 6.2792969,7.5996094 C 6.0653788,7.7809354 5.4651138,8.25 4.4941406,8.25 3.7181733,8.25 3.2420549,7.8991793 2.9746094,7.6777344 Z"
     id="path10" />
</svg>
