<?xml version="1.0" encoding="UTF-8" standalone="no"?>
<svg
   width="24"
   height="24"
   stroke-width="1.5"
   viewBox="0 0 24 24"
   fill="none"
   version="1.1"
   id="svg10"
   sodipodi:docname="shop-window.svg"
   inkscape:version="1.2.1 (9c6d41e410, 2022-07-14)"
   xmlns:inkscape="http://www.inkscape.org/namespaces/inkscape"
   xmlns:sodipodi="http://sodipodi.sourceforge.net/DTD/sodipodi-0.dtd"
   xmlns="http://www.w3.org/2000/svg"
   xmlns:svg="http://www.w3.org/2000/svg">
  <defs
     id="defs14" />
  <sodipodi:namedview
     id="namedview12"
     pagecolor="#ffffff"
     bordercolor="#666666"
     borderopacity="1.0"
     inkscape:showpageshadow="2"
     inkscape:pageopacity="0.0"
     inkscape:pagecheckerboard="0"
     inkscape:deskcolor="#d1d1d1"
     showgrid="false"
     inkscape:zoom="34.541667"
     inkscape:cx="10.364294"
     inkscape:cy="12.014475"
     inkscape:window-width="1920"
     inkscape:window-height="1009"
     inkscape:window-x="1912"
     inkscape:window-y="-8"
     inkscape:window-maximized="1"
     inkscape:current-layer="svg10" />
  <path
     style="color:#000000;fill:currentColor;-inkscape-stroke:none"
     d="m 14.685547,2.25 0.542969,6.515625 c 0.03494,0.418101 0.266692,0.8103074 0.640625,1.0332031 0.409304,0.2439529 1.171984,0.6908459 1.910156,0.9179689 1.260582,0.387804 2.772087,0.232017 3.658203,0.123047 0.797895,-0.09801 1.317124,-0.9275729 1.101562,-1.6816409 L 20.845703,3.2285156 C 20.681058,2.6523007 20.146223,2.25 19.546875,2.25 Z m 1.630859,1.5 h 3.117188 l 1.599609,5.5957031 c -0.828284,0.086419 -2.098049,0.157293 -2.8125,-0.0625 -0.429059,-0.1320142 -1.119457,-0.5080547 -1.505859,-0.734375 z"
     id="path2" />
  <path
     style="color:#000000;fill:currentColor;-inkscape-stroke:none"
     d="M 7.8105469,2.25 7.2832031,8.5761719 c -0.041436,0.4972154 0.2005076,0.9957684 0.6445313,1.2578125 0.4233317,0.2498116 1.1472783,0.6661036 1.8515625,0.8828126 1.5842301,0.487472 2.8571761,0.487472 4.4414061,0 0.704291,-0.216711 1.428246,-0.633004 1.851563,-0.8828126 0.44416,-0.2620289 0.685958,-0.7607086 0.644531,-1.2578125 L 16.189453,2.25 Z m 1.3789062,1.5 h 5.6210939 l 0.402344,4.8398438 c -0.395816,0.2286056 -1.030318,0.5692712 -1.433594,0.6933593 -1.401767,0.4313272 -2.156827,0.4313272 -3.558594,0 C 9.8174207,9.1591129 9.1829324,8.8184475 8.7871094,8.5898438 Z"
     id="path4" />
  <path
     style="color:#000000;fill:currentColor;-inkscape-stroke:none"
     d="M 4.453125,2.25 C 3.8537749,2.25 3.3189411,2.6522273 3.1542969,3.2285156 L 1.4609375,9.1582031 C 1.2454954,9.9122396 1.764603,10.741837 2.5625,10.839844 3.4485887,10.948816 4.960136,11.104612 6.2207031,10.716797 6.9588326,10.489675 7.7215371,10.042811 8.1308594,9.7988281 8.5047074,9.5759693 8.7366092,9.1839932 8.7714844,8.765625 L 9.3144531,2.25 Z m 0.1132812,1.5 H 7.6835937 L 7.2851562,8.5488281 c -0.3863408,0.2262964 -1.0768171,0.6023593 -1.5058593,0.734375 -0.7143898,0.219783 -1.984245,0.1489167 -2.8125,0.0625 z"
     id="path6" />
  <path
     style="color:#000000;fill:currentColor;-inkscape-stroke:none"
     d="m 2.25,10 v 9 c 0,1.509917 1.2401154,2.75 2.75,2.75 h 14 c 1.509904,0 2.75,-1.240096 2.75,-2.75 v -9 h -1.5 v 9 c 0,0.699294 -0.550706,1.25 -1.25,1.25 H 5 C 4.3007468,20.25 3.75,19.699281 3.75,19 v -9 z"
     id="path8" />
</svg>
