<?xml version="1.0" encoding="UTF-8" standalone="no"?>
<svg
   width="24"
   height="24"
   stroke-width="1.5"
   viewBox="0 0 24 24"
   fill="none"
   version="1.1"
   id="svg4"
   sodipodi:docname="short-pants.svg"
   inkscape:version="1.2.1 (9c6d41e410, 2022-07-14)"
   xmlns:inkscape="http://www.inkscape.org/namespaces/inkscape"
   xmlns:sodipodi="http://sodipodi.sourceforge.net/DTD/sodipodi-0.dtd"
   xmlns="http://www.w3.org/2000/svg"
   xmlns:svg="http://www.w3.org/2000/svg">
  <defs
     id="defs8" />
  <sodipodi:namedview
     id="namedview6"
     pagecolor="#ffffff"
     bordercolor="#666666"
     borderopacity="1.0"
     inkscape:showpageshadow="2"
     inkscape:pageopacity="0.0"
     inkscape:pagecheckerboard="0"
     inkscape:deskcolor="#d1d1d1"
     showgrid="false"
     inkscape:zoom="34.541667"
     inkscape:cx="10.364294"
     inkscape:cy="12.014475"
     inkscape:window-width="1920"
     inkscape:window-height="1009"
     inkscape:window-x="1912"
     inkscape:window-y="-8"
     inkscape:window-maximized="1"
     inkscape:current-layer="svg4" />
  <path
     style="color:#000000;fill:currentColor;stroke-linecap:round;stroke-linejoin:round;-inkscape-stroke:none"
     d="m 3.6582031,3.25 c -0.7835721,0 -1.4168759,0.6964274 -1.34375,1.4765625 L 3.703125,19.525391 C 3.7675622,20.212558 4.3566393,20.75 5.046875,20.75 h 6.353516 C 12.13704,20.75 12.75,20.13704 12.75,19.400391 v -1.84961 h 6.216797 c 0.678742,0 1.260908,-0.519288 1.339844,-1.193359 L 21.666016,4.7578125 C 21.758605,3.9679192 21.121425,3.25 20.326172,3.25 Z m 0.1660157,1.5 H 20.15625 L 18.832031,16.050781 H 12.75 V 12 A 0.75,0.75 0 0 0 12,11.25 0.75,0.75 0 0 0 11.25,12 V 16.800781 19.25 H 5.1816406 Z"
     id="path2" />
</svg>
