<?xml version="1.0" encoding="UTF-8" standalone="no"?>
<svg
   width="24"
   height="24"
   stroke-width="1.5"
   viewBox="0 0 24 24"
   fill="none"
   version="1.1"
   id="svg10"
   sodipodi:docname="shuffle.svg"
   inkscape:version="1.2.1 (9c6d41e410, 2022-07-14)"
   xmlns:inkscape="http://www.inkscape.org/namespaces/inkscape"
   xmlns:sodipodi="http://sodipodi.sourceforge.net/DTD/sodipodi-0.dtd"
   xmlns="http://www.w3.org/2000/svg"
   xmlns:svg="http://www.w3.org/2000/svg">
  <defs
     id="defs14" />
  <sodipodi:namedview
     id="namedview12"
     pagecolor="#ffffff"
     bordercolor="#666666"
     borderopacity="1.0"
     inkscape:showpageshadow="2"
     inkscape:pageopacity="0.0"
     inkscape:pagecheckerboard="0"
     inkscape:deskcolor="#d1d1d1"
     showgrid="false"
     inkscape:zoom="34.541667"
     inkscape:cx="10.364294"
     inkscape:cy="12.014475"
     inkscape:window-width="1920"
     inkscape:window-height="1009"
     inkscape:window-x="1912"
     inkscape:window-y="-8"
     inkscape:window-maximized="1"
     inkscape:current-layer="svg10" />
  <path
     style="color:#000000;fill:currentColor;stroke-linecap:round;stroke-linejoin:round;-inkscape-stroke:none"
     d="m 22,6.25 c -1.499999,0 -3.714694,-0.012077 -5.869141,0.7285156 -2.154446,0.7405923 -4.260481,2.3081141 -5.335937,5.2656254 -0.9382609,2.580217 -2.3630561,3.75026 -3.9433595,4.371093 C 5.2712591,17.236068 3.4999985,17.25 2,17.25 A 0.75,0.75 0 0 0 1.25,18 0.75,0.75 0 0 0 2,18.75 c 1.4999985,0 3.4787444,0.01393 5.3984375,-0.740234 C 9.3181306,17.2556 11.143341,15.675637 12.205078,12.755859 13.12962,10.213366 14.773591,9.0308932 16.619141,8.3964844 18.46469,7.7620756 20.500001,7.75 22,7.75 A 0.75,0.75 0 0 0 22.75,7 0.75,0.75 0 0 0 22,6.25 Z"
     id="path2" />
  <path
     style="color:#000000;fill:currentColor;stroke-linecap:round;stroke-linejoin:round;-inkscape-stroke:none"
     d="m 19.46875,4.46875 a 0.75,0.75 0 0 0 0,1.0625 c 0,0 0.810193,0.8101871 1.46875,1.46875 -0.658557,0.6585629 -1.46875,1.46875 -1.46875,1.46875 a 0.75,0.75 0 0 0 0,1.0625 0.75,0.75 0 0 0 1.0625,0 c 0,0 1.218972,-1.2189218 2,-2 a 0.750075,0.750075 0 0 0 0,-1.0625 c -0.781028,-0.7810782 -2,-2 -2,-2 a 0.75,0.75 0 0 0 -1.0625,0 z"
     id="path4" />
  <path
     style="color:#000000;fill:currentColor;stroke-linecap:round;stroke-linejoin:round;-inkscape-stroke:none"
     d="M 2,6.25 A 0.75,0.75 0 0 0 1.25,7 0.75,0.75 0 0 0 2,7.75 c 1.5000014,5e-6 3.2712593,0.013935 4.8515625,0.6347656 1.5803032,0.6208312 3.0050985,1.7908714 3.9433595,4.3710934 1.075457,2.957507 3.181491,4.525034 5.335937,5.265625 C 18.285306,18.762075 20.500001,18.75 22,18.75 A 0.75,0.75 0 0 0 22.75,18 0.75,0.75 0 0 0 22,17.25 c -1.499999,0 -3.53531,-0.01208 -5.380859,-0.646484 -1.84555,-0.634408 -3.489522,-1.816887 -4.414063,-4.359375 C 11.143341,9.3243583 9.3181308,7.7443969 7.3984375,6.9902344 5.4787442,6.2360719 3.4999956,6.250005 2,6.25 Z"
     id="path6" />
  <path
     style="color:#000000;fill:currentColor;stroke-linecap:round;stroke-linejoin:round;-inkscape-stroke:none"
     d="m 20,15.25 a 0.75,0.75 0 0 0 -0.53125,0.21875 0.75,0.75 0 0 0 0,1.0625 L 20.9375,18 19.46875,19.46875 a 0.75,0.75 0 0 0 0,1.0625 0.75,0.75 0 0 0 1.0625,0 l 2,-2 a 0.750075,0.750075 0 0 0 0,-1.0625 l -2,-2 A 0.75,0.75 0 0 0 20,15.25 Z"
     id="path8" />
</svg>
