<?xml version="1.0" encoding="UTF-8" standalone="no"?>
<svg
   width="24"
   height="24"
   viewBox="0 0 24 24"
   stroke-width="1.5"
   fill="none"
   version="1.1"
   id="svg12"
   sodipodi:docname="sine-wave.svg"
   inkscape:version="1.2.1 (9c6d41e410, 2022-07-14)"
   xmlns:inkscape="http://www.inkscape.org/namespaces/inkscape"
   xmlns:sodipodi="http://sodipodi.sourceforge.net/DTD/sodipodi-0.dtd"
   xmlns="http://www.w3.org/2000/svg"
   xmlns:svg="http://www.w3.org/2000/svg">
  <defs
     id="defs16" />
  <sodipodi:namedview
     id="namedview14"
     pagecolor="#ffffff"
     bordercolor="#666666"
     borderopacity="1.0"
     inkscape:showpageshadow="2"
     inkscape:pageopacity="0.0"
     inkscape:pagecheckerboard="0"
     inkscape:deskcolor="#d1d1d1"
     showgrid="false"
     inkscape:zoom="34.541667"
     inkscape:cx="10.364294"
     inkscape:cy="12.014475"
     inkscape:window-width="1920"
     inkscape:window-height="1009"
     inkscape:window-x="1912"
     inkscape:window-y="-8"
     inkscape:window-maximized="1"
     inkscape:current-layer="svg12" />
  <path
     style="color:#000000;fill:currentColor;stroke-linecap:round;stroke-linejoin:round;-inkscape-stroke:none"
     d="M 6.8574219,2.25 C 5.9645653,2.25 5.1861962,2.7162942 4.609375,3.3652344 4.0325538,4.0141746 3.6023856,4.8546411 3.2597656,5.796875 2.5745256,7.6813429 2.2500782,9.9881216 2.25,12 A 0.75,0.75 0 0 0 3,12.75 0.75,0.75 0 0 0 3.75,12 C 3.7500718,10.154742 4.0694881,7.9617904 4.6699219,6.3105469 4.9701387,5.4849251 5.3430291,4.7972087 5.7304687,4.3613281 6.1179084,3.9254475 6.4645648,3.75 6.8574219,3.75 c 0.1904767,-4.9e-6 0.4662912,0.120324 0.8359375,0.5273437 0.3696463,0.4070198 0.780709,1.061421 1.1855469,1.8710938 0.8096756,1.6193456 1.6104907,3.8535115 2.4140627,6.1035155 0.803571,2.250004 1.608499,4.515831 2.486328,6.271484 0.438914,0.877827 0.893639,1.629683 1.417969,2.207032 0.524329,0.577348 1.171499,1.019531 1.945312,1.019531 0.892854,0 1.67122,-0.466293 2.248047,-1.115234 0.576827,-0.648941 1.006982,-1.489403 1.349609,-2.431641 C 21.425489,16.318649 21.75,14.011881 21.75,12 A 0.75,0.75 0 0 0 21,11.25 0.75,0.75 0 0 0 20.25,12 c 0,1.845215 -0.319477,4.038207 -0.919922,5.689453 -0.300222,0.825623 -0.673099,1.513333 -1.060547,1.949219 C 17.882084,20.074558 17.535423,20.25 17.142578,20.25 c -0.190486,0 -0.466285,-0.120313 -0.835937,-0.527344 -0.369653,-0.40703 -0.780707,-1.061414 -1.185547,-1.871094 C 14.311413,16.232204 13.510603,13.998051 12.707031,11.748047 11.90346,9.4980429 11.098527,7.2322041 10.220703,5.4765625 9.7817912,4.5987417 9.3270623,3.8468719 8.8027344,3.2695313 8.2784064,2.6921906 7.6312342,2.2499799 6.8574219,2.25 Z"
     id="path2" />
  <path
     style="color:#000000;fill:currentColor;stroke-linecap:round;stroke-linejoin:round;-inkscape-stroke:none"
     d="M 3,11.25 A 0.75,0.75 0 0 0 2.25,12 0.75,0.75 0 0 0 3,12.75 H 5 A 0.75,0.75 0 0 0 5.75,12 0.75,0.75 0 0 0 5,11.25 Z"
     id="path4" />
  <path
     style="color:#000000;fill:currentColor;stroke-linecap:round;stroke-linejoin:round;-inkscape-stroke:none"
     d="M 19,11.25 A 0.75,0.75 0 0 0 18.25,12 0.75,0.75 0 0 0 19,12.75 h 2 A 0.75,0.75 0 0 0 21.75,12 0.75,0.75 0 0 0 21,11.25 Z"
     id="path6" />
  <path
     style="color:#000000;fill:currentColor;stroke-linecap:round;stroke-linejoin:round;-inkscape-stroke:none"
     d="M 15.5,11.25 A 0.75,0.75 0 0 0 14.75,12 0.75,0.75 0 0 0 15.5,12.75 h 1 A 0.75,0.75 0 0 0 17.25,12 0.75,0.75 0 0 0 16.5,11.25 Z"
     id="path8" />
  <path
     style="color:#000000;fill:currentColor;stroke-linecap:round;stroke-linejoin:round;-inkscape-stroke:none"
     d="M 7.5,11.25 A 0.75,0.75 0 0 0 6.75,12 0.75,0.75 0 0 0 7.5,12.75 h 1 A 0.75,0.75 0 0 0 9.25,12 0.75,0.75 0 0 0 8.5,11.25 Z"
     id="path10" />
</svg>
