<?xml version="1.0" encoding="UTF-8" standalone="no"?>
<svg
   width="24"
   height="24"
   stroke-width="1.5"
   viewBox="0 0 24 24"
   fill="none"
   version="1.1"
   id="svg16"
   sodipodi:docname="skateboarding.svg"
   inkscape:version="1.2.1 (9c6d41e410, 2022-07-14)"
   xmlns:inkscape="http://www.inkscape.org/namespaces/inkscape"
   xmlns:sodipodi="http://sodipodi.sourceforge.net/DTD/sodipodi-0.dtd"
   xmlns="http://www.w3.org/2000/svg"
   xmlns:svg="http://www.w3.org/2000/svg">
  <defs
     id="defs20" />
  <sodipodi:namedview
     id="namedview18"
     pagecolor="#ffffff"
     bordercolor="#666666"
     borderopacity="1.0"
     inkscape:showpageshadow="2"
     inkscape:pageopacity="0.0"
     inkscape:pagecheckerboard="0"
     inkscape:deskcolor="#d1d1d1"
     showgrid="false"
     inkscape:zoom="34.541667"
     inkscape:cx="10.364294"
     inkscape:cy="12.014475"
     inkscape:window-width="1920"
     inkscape:window-height="1009"
     inkscape:window-x="1912"
     inkscape:window-y="-8"
     inkscape:window-maximized="1"
     inkscape:current-layer="svg16" />
  <path
     style="color:#000000;fill:currentColor;stroke-linecap:round;stroke-linejoin:round;-inkscape-stroke:none"
     d="m 4.7207031,18.302734 a 0.75,0.75 0 0 0 -0.4101562,0.402344 0.75,0.75 0 0 0 0.3945312,0.984375 l 2.3320313,1 A 0.750075,0.750075 0 0 0 7.3339844,20.75 h 9.3320316 a 0.750075,0.750075 0 0 0 0.296875,-0.06055 l 2.332031,-1 a 0.75,0.75 0 0 0 0.394531,-0.984375 0.75,0.75 0 0 0 -0.984375,-0.394531 L 16.513672,19.25 H 7.4863281 L 5.2949219,18.310547 a 0.75,0.75 0 0 0 -0.5742188,-0.0078 z"
     id="path2" />
  <path
     style="color:#000000;fill:currentColor;stroke-linecap:round;stroke-linejoin:round;-inkscape-stroke:none"
     d="M 7.9707031,21.25 A 0.75,0.75 0 0 0 7.453125,21.496094 l -0.00977,0.01172 a 0.75,0.75 0 0 0 0.054687,1.058594 0.75,0.75 0 0 0 1.0585937,-0.05469 L 8.5664063,22.5 A 0.75,0.75 0 0 0 8.5117188,21.441406 0.75,0.75 0 0 0 7.9707031,21.25 Z"
     id="path4" />
  <path
     style="color:#000000;fill:currentColor;stroke-linecap:round;stroke-linejoin:round;-inkscape-stroke:none"
     d="m 16.511719,21.441406 a 0.75,0.75 0 0 0 -1.058594,0.05469 l -0.0098,0.01172 a 0.75,0.75 0 0 0 0.05469,1.058594 0.75,0.75 0 0 0 1.058594,-0.05469 L 16.566406,22.5 a 0.75,0.75 0 0 0 -0.05469,-1.058594 z"
     id="path6" />
  <path
     style="color:#000000;fill:currentColor;stroke-linecap:round;stroke-linejoin:round;-inkscape-stroke:none"
     d="m 11.498047,5.2363281 c -0.588167,-3.44e-5 -1.21311,0.1153438 -1.8339845,0.4257813 -1.1715649,0.5857874 -3,1.5 -3,1.5 A 0.75,0.75 0 0 0 6.3300781,8.1679688 0.75,0.75 0 0 0 7.3359375,8.5039063 c 0,0 1.8284273,-0.9142087 3.0000005,-1.5000001 0.850795,-0.4253978 1.752262,-0.2305244 2.466796,0.039063 L 9.5214844,9.4296875 A 0.750075,0.750075 0 0 0 9.4882813,10.617188 L 13.25,13.689453 v 3.644531 a 0.75,0.75 0 0 0 0.75,0.75 0.75,0.75 0 0 0 0.75,-0.75 v -4 a 0.750075,0.750075 0 0 0 -0.275391,-0.582031 l -3.283203,-2.68164 3.519532,-2.5625005 a 0.750075,0.750075 0 0 0 -0.01367,-1.2246094 c 0,0 -1.434719,-1.0467717 -3.199219,-1.046875 z"
     id="path8" />
  <path
     style="color:#000000;fill:currentColor;stroke-linecap:round;stroke-linejoin:round;-inkscape-stroke:none"
     d="m 9.6953125,12.609375 a 0.75,0.75 0 0 0 -0.5625,0.111328 L 8.0820313,13.421875 H 5 a 0.75,0.75 0 0 0 -0.75,0.75 0.75,0.75 0 0 0 0.75,0.75 H 8.3085938 A 0.750075,0.750075 0 0 0 8.7246094,14.794922 L 9.9648438,13.96875 A 0.75,0.75 0 0 0 10.171875,12.927734 0.75,0.75 0 0 0 9.6953125,12.609375 Z"
     id="path10" />
  <path
     style="color:#000000;fill:currentColor;stroke-linecap:round;stroke-linejoin:round;-inkscape-stroke:none"
     d="m 15.166016,8.4589844 a 0.75,0.75 0 0 0 -0.75,0.75 0.75,0.75 0 0 0 0.75,0.75 h 2.720703 a 0.75,0.75 0 0 0 0.75,-0.75 0.75,0.75 0 0 0 -0.75,-0.75 z"
     id="path12" />
  <path
     style="color:#000000;fill:currentColor;stroke-linecap:round;stroke-linejoin:round;-inkscape-stroke:none"
     d="m 17,1.25 c -1.509917,0 -2.75,1.2401154 -2.75,2.75 0,1.5098846 1.240083,2.75 2.75,2.75 1.509917,0 2.75,-1.2401154 2.75,-2.75 0,-1.5098846 -1.240083,-2.75 -2.75,-2.75 z m 0,1.5 c 0.699281,0 1.25,0.5507468 1.25,1.25 0,0.6992532 -0.550719,1.25 -1.25,1.25 -0.699281,0 -1.25,-0.5507468 -1.25,-1.25 0,-0.6992532 0.550719,-1.25 1.25,-1.25 z"
     id="path14" />
</svg>
