<?xml version="1.0" encoding="UTF-8" standalone="no"?>
<svg
   width="24"
   height="24"
   stroke-width="1.5"
   viewBox="0 0 24 24"
   fill="none"
   version="1.1"
   id="svg6"
   sodipodi:docname="skip-next.svg"
   inkscape:version="1.2.1 (9c6d41e410, 2022-07-14)"
   xmlns:inkscape="http://www.inkscape.org/namespaces/inkscape"
   xmlns:sodipodi="http://sodipodi.sourceforge.net/DTD/sodipodi-0.dtd"
   xmlns="http://www.w3.org/2000/svg"
   xmlns:svg="http://www.w3.org/2000/svg">
  <defs
     id="defs10" />
  <sodipodi:namedview
     id="namedview8"
     pagecolor="#ffffff"
     bordercolor="#666666"
     borderopacity="1.0"
     inkscape:showpageshadow="2"
     inkscape:pageopacity="0.0"
     inkscape:pagecheckerboard="0"
     inkscape:deskcolor="#d1d1d1"
     showgrid="false"
     inkscape:zoom="34.541667"
     inkscape:cx="10.364294"
     inkscape:cy="12.014475"
     inkscape:window-width="1920"
     inkscape:window-height="1009"
     inkscape:window-x="1912"
     inkscape:window-y="-8"
     inkscape:window-maximized="1"
     inkscape:current-layer="svg6" />
  <path
     style="color:#000000;fill:currentColor;stroke-linecap:round;stroke-linejoin:round;-inkscape-stroke:none"
     d="M 18,6.25 A 0.75,0.75 0 0 0 17.25,7 V 17 A 0.75,0.75 0 0 0 18,17.75 0.75,0.75 0 0 0 18.75,17 V 7 A 0.75,0.75 0 0 0 18,6.25 Z"
     id="path2" />
  <path
     style="color:#000000;fill:currentColor;stroke-linecap:round;stroke-linejoin:round;-inkscape-stroke:none"
     d="M 6.0253906,4.5527344 C 5.5845359,4.7663732 5.25,5.1992224 5.25,5.7382812 V 18.261719 c 0,1.078119 1.3393582,1.728517 2.1855469,1.060547 a 0.750075,0.750075 0 0 0 0.00195,0 l 7.931641,-6.263672 c 0.668919,-0.529605 0.668919,-1.587583 0,-2.117188 L 7.4355469,4.6777344 C 7.0124488,4.3437141 6.4662454,4.3390955 6.0253906,4.5527344 Z M 6.75,6.046875 14.291016,12 6.75,17.953125 Z"
     id="path4" />
</svg>
