<?xml version="1.0" encoding="UTF-8" standalone="no"?>
<svg
   width="24"
   height="24"
   viewBox="0 0 24 24"
   stroke-width="1.5"
   fill="none"
   version="1.1"
   id="svg10"
   sodipodi:docname="sleeper-chair.svg"
   inkscape:version="1.2.1 (9c6d41e410, 2022-07-14)"
   xmlns:inkscape="http://www.inkscape.org/namespaces/inkscape"
   xmlns:sodipodi="http://sodipodi.sourceforge.net/DTD/sodipodi-0.dtd"
   xmlns="http://www.w3.org/2000/svg"
   xmlns:svg="http://www.w3.org/2000/svg">
  <defs
     id="defs14" />
  <sodipodi:namedview
     id="namedview12"
     pagecolor="#ffffff"
     bordercolor="#666666"
     borderopacity="1.0"
     inkscape:showpageshadow="2"
     inkscape:pageopacity="0.0"
     inkscape:pagecheckerboard="0"
     inkscape:deskcolor="#d1d1d1"
     showgrid="false"
     inkscape:zoom="34.541667"
     inkscape:cx="10.364294"
     inkscape:cy="12.014475"
     inkscape:window-width="1920"
     inkscape:window-height="1009"
     inkscape:window-x="1912"
     inkscape:window-y="-8"
     inkscape:window-maximized="1"
     inkscape:current-layer="svg10" />
  <path
     style="color:#000000;fill:currentColor;stroke-linecap:round;stroke-linejoin:round;-inkscape-stroke:none"
     d="M 4,17.25 A 0.75,0.75 0 0 0 3.25,18 v 3 A 0.75,0.75 0 0 0 4,21.75 0.75,0.75 0 0 0 4.75,21 V 18 A 0.75,0.75 0 0 0 4,17.25 Z"
     id="path2" />
  <path
     style="color:#000000;fill:currentColor;stroke-linecap:round;stroke-linejoin:round;-inkscape-stroke:none"
     d="M 7,2.25 C 5.4901018,2.25 4.25,3.4901018 4.25,5 v 5 A 0.75,0.75 0 0 0 5,10.75 0.75,0.75 0 0 0 5.75,10 V 5 C 5.75,4.3007604 6.3007604,3.75 7,3.75 h 10 c 0.699281,0 1.25,0.5507468 1.25,1.25 v 5 A 0.75,0.75 0 0 0 19,10.75 0.75,0.75 0 0 0 19.75,10 V 5 C 19.75,3.4901154 18.509917,2.25 17,2.25 Z"
     id="path4" />
  <path
     style="color:#000000;fill:currentColor;stroke-linecap:round;stroke-linejoin:round;-inkscape-stroke:none"
     d="m 4.5,9.25 c -1.7860432,0 -3.25,1.463968 -3.25,3.25 0,1.311045 0.8721837,2.310318 2,2.822266 V 18 A 0.750075,0.750075 0 0 0 4,18.75 H 20 A 0.750075,0.750075 0 0 0 20.75,18 v -2.677734 c 1.127809,-0.511947 2,-1.511214 2,-2.822266 0,-1.786036 -1.463964,-3.25 -3.25,-3.25 -1.786036,0 -3.25,1.463964 -3.25,3.25 v 0.75 H 7.75 V 12.5 C 7.75,10.713968 6.2860432,9.25 4.5,9.25 Z m 0,1.5 c 0.9753741,0 1.75,0.774635 1.75,1.75 V 14 A 0.750075,0.750075 0 0 0 7,14.75 H 17 A 0.750075,0.750075 0 0 0 17.75,14 v -1.5 c 0,-0.975361 0.774639,-1.75 1.75,-1.75 0.975361,0 1.75,0.774639 1.75,1.75 0,0.854435 -0.601541,1.553104 -1.398438,1.714844 A 0.750075,0.750075 0 0 0 19.25,14.949219 V 17.25 H 4.75 V 14.949219 A 0.750075,0.750075 0 0 0 4.1484375,14.214844 C 3.3515191,14.053102 2.75,13.354443 2.75,12.5 c 0,-0.975365 0.7746259,-1.75 1.75,-1.75 z"
     id="path6" />
  <path
     style="color:#000000;fill:currentColor;stroke-linecap:round;stroke-linejoin:round;-inkscape-stroke:none"
     d="M 20,17.25 A 0.75,0.75 0 0 0 19.25,18 v 3 A 0.75,0.75 0 0 0 20,21.75 0.75,0.75 0 0 0 20.75,21 V 18 A 0.75,0.75 0 0 0 20,17.25 Z"
     id="path8" />
</svg>
