<?xml version="1.0" encoding="UTF-8" standalone="no"?>
<svg
   width="24"
   height="24"
   viewBox="0 0 24 24"
   stroke-width="1.5"
   fill="none"
   version="1.1"
   id="svg8"
   sodipodi:docname="small-lamp-alt.svg"
   inkscape:version="1.2.1 (9c6d41e410, 2022-07-14)"
   xmlns:inkscape="http://www.inkscape.org/namespaces/inkscape"
   xmlns:sodipodi="http://sodipodi.sourceforge.net/DTD/sodipodi-0.dtd"
   xmlns="http://www.w3.org/2000/svg"
   xmlns:svg="http://www.w3.org/2000/svg">
  <defs
     id="defs12" />
  <sodipodi:namedview
     id="namedview10"
     pagecolor="#ffffff"
     bordercolor="#666666"
     borderopacity="1.0"
     inkscape:showpageshadow="2"
     inkscape:pageopacity="0.0"
     inkscape:pagecheckerboard="0"
     inkscape:deskcolor="#d1d1d1"
     showgrid="false"
     inkscape:zoom="34.541667"
     inkscape:cx="10.364294"
     inkscape:cy="12.014475"
     inkscape:window-width="1920"
     inkscape:window-height="1009"
     inkscape:window-x="1912"
     inkscape:window-y="-8"
     inkscape:window-maximized="1"
     inkscape:current-layer="svg8" />
  <path
     style="color:#000000;fill:currentColor;stroke-linecap:round;stroke-linejoin:round;-inkscape-stroke:none"
     d="m 7.4472656,2.25 c -0.592931,0 -1.1225875,0.3949754 -1.2929687,0.9628906 L 3.5136719,12.011719 C 3.2597109,12.858329 3.9227848,13.75 4.8066406,13.75 H 19.193359 c 0.88386,0 1.546963,-0.891636 1.292969,-1.738281 L 17.845703,3.2128906 C 17.675222,2.6450906 17.145682,2.25 16.552734,2.25 Z m 0.109375,1.5 h 8.8867184 l 2.548828,8.5 H 5.0078125 Z"
     id="path2" />
  <path
     style="color:#000000;fill:currentColor;stroke-linecap:round;stroke-linejoin:round;-inkscape-stroke:none"
     d="M 8,12.25 A 0.75,0.75 0 0 0 7.25,13 v 2 A 0.75,0.75 0 0 0 8,15.75 0.75,0.75 0 0 0 8.75,15 V 13 A 0.75,0.75 0 0 0 8,12.25 Z"
     id="path4" />
  <path
     style="color:#000000;fill:currentColor;stroke-linecap:round;stroke-linejoin:round;-inkscape-stroke:none"
     d="M 12,14.25 A 0.75,0.75 0 0 0 11.25,15 v 5.25 H 8 A 0.75,0.75 0 0 0 7.25,21 0.75,0.75 0 0 0 8,21.75 h 4 4 A 0.75,0.75 0 0 0 16.75,21 0.75,0.75 0 0 0 16,20.25 H 12.75 V 15 A 0.75,0.75 0 0 0 12,14.25 Z"
     id="path6" />
</svg>
