<?xml version="1.0" encoding="UTF-8" standalone="no"?>
<svg
   width="24"
   height="24"
   viewBox="0 0 24 24"
   stroke-width="1.5"
   fill="none"
   version="1.1"
   id="svg8"
   sodipodi:docname="small-lamp.svg"
   inkscape:version="1.2.1 (9c6d41e410, 2022-07-14)"
   xmlns:inkscape="http://www.inkscape.org/namespaces/inkscape"
   xmlns:sodipodi="http://sodipodi.sourceforge.net/DTD/sodipodi-0.dtd"
   xmlns="http://www.w3.org/2000/svg"
   xmlns:svg="http://www.w3.org/2000/svg">
  <defs
     id="defs12" />
  <sodipodi:namedview
     id="namedview10"
     pagecolor="#ffffff"
     bordercolor="#666666"
     borderopacity="1.0"
     inkscape:showpageshadow="2"
     inkscape:pageopacity="0.0"
     inkscape:pagecheckerboard="0"
     inkscape:deskcolor="#d1d1d1"
     showgrid="false"
     inkscape:zoom="34.541667"
     inkscape:cx="10.364294"
     inkscape:cy="12.014475"
     inkscape:window-width="1920"
     inkscape:window-height="1009"
     inkscape:window-x="1912"
     inkscape:window-y="-8"
     inkscape:window-maximized="1"
     inkscape:current-layer="svg8" />
  <path
     style="color:#000000;fill:currentColor;stroke-linecap:round;stroke-linejoin:round;-inkscape-stroke:none"
     d="m 7.4472656,2.25 c -0.592931,0 -1.1225875,0.3949754 -1.2929687,0.9628906 L 3.5136719,12.011719 C 3.2597109,12.858329 3.9227848,13.75 4.8066406,13.75 H 19.193359 c 0.88386,0 1.546963,-0.891636 1.292969,-1.738281 L 17.845703,3.2128906 C 17.675222,2.6450906 17.145682,2.25 16.552734,2.25 Z m 0.109375,1.5 h 8.8867184 l 2.548828,8.5 H 5.0078125 Z"
     id="path2" />
  <path
     style="color:#000000;fill:currentColor;stroke-linecap:round;stroke-linejoin:round;-inkscape-stroke:none"
     d="M 12,14.25 A 0.75,0.75 0 0 0 11.25,15 v 2 A 0.75,0.75 0 0 0 12,17.75 0.75,0.75 0 0 0 12.75,17 V 15 A 0.75,0.75 0 0 0 12,14.25 Z"
     id="path4" />
  <path
     style="color:#000000;fill:currentColor;stroke-linecap:round;stroke-linejoin:round;-inkscape-stroke:none"
     d="m 12,16.25 c -1.702295,0 -2.909041,0.694464 -3.6191406,1.558594 C 7.6707598,18.672723 7.418856,19.648302 7.3164062,20.285156 7.1911858,21.063502 7.8631039,21.75 8.5996094,21.75 h 6.8007816 c 0.736498,0 1.408308,-0.686623 1.283203,-1.464844 -0.102441,-0.63687 -0.35435,-1.612433 -1.064453,-2.476562 C 14.909037,16.944465 13.70229,16.25 12,16.25 Z m 0,1.5 c 1.324007,0 1.999339,0.450421 2.458984,1.009766 0.388367,0.472605 0.525644,1.029915 0.626954,1.490234 H 8.9140625 C 9.0153782,19.789672 9.1526517,19.232371 9.5410156,18.759766 10.000657,18.200422 10.675988,17.75 12,17.75 Z"
     id="path6" />
</svg>
