<?xml version="1.0" encoding="UTF-8" standalone="no"?>
<svg
   width="24"
   height="24"
   stroke-width="1.5"
   viewBox="0 0 24 24"
   fill="none"
   version="1.1"
   id="svg12"
   sodipodi:docname="smoking.svg"
   inkscape:version="1.2.1 (9c6d41e410, 2022-07-14)"
   xmlns:inkscape="http://www.inkscape.org/namespaces/inkscape"
   xmlns:sodipodi="http://sodipodi.sourceforge.net/DTD/sodipodi-0.dtd"
   xmlns="http://www.w3.org/2000/svg"
   xmlns:svg="http://www.w3.org/2000/svg">
  <defs
     id="defs16" />
  <sodipodi:namedview
     id="namedview14"
     pagecolor="#ffffff"
     bordercolor="#666666"
     borderopacity="1.0"
     inkscape:showpageshadow="2"
     inkscape:pageopacity="0.0"
     inkscape:pagecheckerboard="0"
     inkscape:deskcolor="#d1d1d1"
     showgrid="false"
     inkscape:zoom="34.541667"
     inkscape:cx="10.364294"
     inkscape:cy="12.014475"
     inkscape:window-width="1920"
     inkscape:window-height="1009"
     inkscape:window-x="1912"
     inkscape:window-y="-8"
     inkscape:window-maximized="1"
     inkscape:current-layer="svg12" />
  <path
     style="color:#000000;fill:currentColor;stroke-linecap:round;stroke-linejoin:round;-inkscape-stroke:none"
     d="M 18,18.25 A 0.75,0.75 0 0 0 17.25,19 v 3 A 0.75,0.75 0 0 0 18,22.75 0.75,0.75 0 0 0 18.75,22 V 19 A 0.75,0.75 0 0 0 18,18.25 Z"
     id="path2" />
  <path
     style="color:#000000;fill:currentColor;stroke-linecap:round;stroke-linejoin:round;-inkscape-stroke:none"
     d="m 13.5,5.25 c -1.786032,0 -3.25,1.4639568 -3.25,3.25 V 11 c 0,2.062294 1.687873,3.75 3.75,3.75 h 1 c 0.874999,0 1.460782,0.21961 1.800781,0.474609 C 17.140781,15.479609 17.25,15.75 17.25,16 A 0.75,0.75 0 0 0 18,16.75 0.75,0.75 0 0 0 18.75,16 c 0,-0.749999 -0.390782,-1.47961 -1.050781,-1.974609 C 17.039219,13.530391 16.124999,13.25 15,13.25 h -1 c -1.251469,0 -2.25,-0.998497 -2.25,-2.25 V 8.5 c 0,-0.9753741 0.774635,-1.75 1.75,-1.75 H 14 A 0.75,0.75 0 0 0 14.75,6 0.75,0.75 0 0 0 14,5.25 Z"
     id="path4" />
  <path
     style="color:#000000;fill:currentColor;stroke-linecap:round;stroke-linejoin:round;-inkscape-stroke:none"
     d="M 18,1.25 A 0.75,0.75 0 0 0 17.25,2 0.75,0.75 0 0 0 18,2.75 c 0.583333,0 1.452084,0.216146 2.105469,0.71875 C 20.758854,3.971354 21.25,4.7083346 21.25,6 c 0,1.333332 -0.369886,1.9033911 -0.949219,2.3378906 -0.579333,0.4344996 -1.482423,0.683594 -2.482422,0.9335938 a 0.750075,0.750075 0 0 0 0,1.4570316 c 0.942932,0.235733 1.7568,0.554482 2.361328,1.259765 C 20.784216,12.693564 21.25,13.861113 21.25,16 A 0.75,0.75 0 0 0 22,16.75 0.75,0.75 0 0 0 22.75,16 c 0,-2.361109 -0.534217,-3.943566 -1.429688,-4.988281 -0.38751,-0.452096 -0.84452,-0.7475 -1.30664,-1.00586 C 20.413405,9.8439075 20.837438,9.8084453 21.199219,9.5371094 22.119884,8.8466101 22.75,7.666665 22.75,6 22.75,4.2916684 21.991144,3.0286447 21.019531,2.28125 20.047918,1.5338553 18.916666,1.25 18,1.25 Z"
     id="path6" />
  <path
     style="color:#000000;fill:currentColor;stroke-linecap:round;stroke-linejoin:round;-inkscape-stroke:none"
     d="M 22,18.25 A 0.75,0.75 0 0 0 21.25,19 v 3 A 0.75,0.75 0 0 0 22,22.75 0.75,0.75 0 0 0 22.75,22 V 19 A 0.75,0.75 0 0 0 22,18.25 Z"
     id="path8" />
  <path
     style="color:#000000;fill:currentColor;-inkscape-stroke:none"
     d="M 2.5996094,18.25 C 1.864683,18.25 1.25,18.864683 1.25,19.599609 v 1.800782 C 1.25,22.135317 1.864683,22.75 2.5996094,22.75 H 13.400391 C 14.135317,22.75 14.75,22.135317 14.75,21.400391 V 19.599609 C 14.75,18.864683 14.135317,18.25 13.400391,18.25 Z M 2.75,19.75 h 10.5 v 1.5 H 2.75 Z"
     id="rect10" />
</svg>
