<?xml version="1.0" encoding="UTF-8" standalone="no"?>
<svg
   width="24"
   height="24"
   stroke-width="1.5"
   viewBox="0 0 24 24"
   fill="none"
   version="1.1"
   id="svg10444"
   sodipodi:docname="snapchat.svg"
   inkscape:version="1.2.1 (9c6d41e410, 2022-07-14)"
   xmlns:inkscape="http://www.inkscape.org/namespaces/inkscape"
   xmlns:sodipodi="http://sodipodi.sourceforge.net/DTD/sodipodi-0.dtd"
   xmlns="http://www.w3.org/2000/svg"
   xmlns:svg="http://www.w3.org/2000/svg">
  <defs
     id="defs10448" />
  <sodipodi:namedview
     id="namedview10446"
     pagecolor="#ffffff"
     bordercolor="#666666"
     borderopacity="1.0"
     inkscape:showpageshadow="2"
     inkscape:pageopacity="0.0"
     inkscape:pagecheckerboard="0"
     inkscape:deskcolor="#d1d1d1"
     showgrid="false"
     inkscape:zoom="34.541667"
     inkscape:cx="10.364294"
     inkscape:cy="9.6984318"
     inkscape:window-width="1920"
     inkscape:window-height="1009"
     inkscape:window-x="-8"
     inkscape:window-y="-8"
     inkscape:window-maximized="1"
     inkscape:current-layer="svg10444" />
  <path
     style="color:#000000;fill:currentColor;stroke-linecap:round;stroke-linejoin:round;-inkscape-stroke:none"
     d="m 12,1.25 c -3.3749988,5.6e-6 -6.75,2.6666567 -6.75,7.5 V 9.5 H 4.3730469 c -0.6126478,0 -1.1255887,0.4334713 -1.2871094,0.9375 -0.1615207,0.504029 0.00344,1.155607 0.5019531,1.511719 l 1.4472656,1.033203 C 4.8457424,13.463582 4.6220017,14.029976 4.0996094,14.65625 3.4407275,15.446155 2.5248425,16.177891 1.2949219,16.529297 A 0.750075,0.750075 0 0 0 0.875,17.666016 c 0.2242701,0.336408 0.5914146,0.753969 1.1113281,1.128906 0.3842917,0.277133 0.9403389,0.408783 1.4882813,0.521484 L 4.375,20.666016 a 0.750075,0.750075 0 0 0 0.7714844,0.320312 L 7.3515625,20.544922 C 8.3558154,21.313602 10.138848,22.5 12,22.5 c 1.861152,0 3.644188,-1.186383 4.648437,-1.955078 l 2.205079,0.441406 A 0.750075,0.750075 0 0 0 19.625,20.666016 l 0.900391,-1.34961 c 0.547943,-0.112701 1.103985,-0.244351 1.488281,-0.521484 0.519918,-0.374938 0.887056,-0.792465 1.111328,-1.128906 A 0.750075,0.750075 0 0 0 22.705078,16.529297 C 21.475157,16.177891 20.559275,15.446155 19.900391,14.65625 19.377996,14.029976 19.154248,13.463572 18.964844,12.982422 l 1.447265,-1.033203 C 20.910625,11.593121 21.075565,10.94154 20.914062,10.4375 20.75256,9.9334597 20.239601,9.5 19.626953,9.5 H 18.75 V 8.75 C 18.75,3.9166382 15.374999,1.2499944 12,1.25 Z m 0,1.5 c 2.624995,-4.4e-6 5.25,1.8332988 5.25,6 v 1.5 A 0.750075,0.750075 0 0 0 18,11 h 1.160156 l -1.595703,1.140625 a 0.750075,0.750075 0 0 0 -0.285156,0.814453 c 0.201641,0.705834 0.662914,1.693691 1.470703,2.66211 0.601662,0.721303 1.475785,1.356126 2.494141,1.853515 -0.04761,0.03922 -0.05678,0.07285 -0.107422,0.109375 C 20.789963,17.83014 20.391666,18 20,18 a 0.750075,0.750075 0 0 0 -0.625,0.333984 l -0.720703,1.082032 -2.007813,-0.402344 a 0.750075,0.750075 0 0 0 -0.615234,0.15039 C 15.289423,19.757577 13.183343,21 12,21 10.816657,21 8.7106301,19.757599 7.96875,19.164062 A 0.750075,0.750075 0 0 0 7.3535156,19.013672 L 5.3457031,19.416016 4.625,18.333984 A 0.750075,0.750075 0 0 0 4,18 C 3.6083337,18 3.2100344,17.83014 2.8632813,17.580078 2.812636,17.543555 2.8034717,17.509926 2.7558594,17.470703 3.7742129,16.973313 4.6483415,16.33849 5.25,15.617188 6.0577842,14.64877 6.5190501,13.660891 6.7207031,12.955078 A 0.750075,0.750075 0 0 0 6.4355469,12.140625 L 4.8398437,11 H 6 a 0.750075,0.750075 0 0 0 0.75,-0.75 v -1.5 c 0,-4.1666797 2.6250048,-5.9999956 5.25,-6 z"
     id="path10442" />
</svg>
