<?xml version="1.0" encoding="UTF-8" standalone="no"?>
<svg
   width="24"
   height="24"
   stroke-width="1.5"
   viewBox="0 0 24 24"
   fill="none"
   version="1.1"
   id="svg4"
   sodipodi:docname="snow-flake.svg"
   inkscape:version="1.2.1 (9c6d41e410, 2022-07-14)"
   xmlns:inkscape="http://www.inkscape.org/namespaces/inkscape"
   xmlns:sodipodi="http://sodipodi.sourceforge.net/DTD/sodipodi-0.dtd"
   xmlns="http://www.w3.org/2000/svg"
   xmlns:svg="http://www.w3.org/2000/svg">
  <defs
     id="defs8" />
  <sodipodi:namedview
     id="namedview6"
     pagecolor="#ffffff"
     bordercolor="#666666"
     borderopacity="1.0"
     inkscape:showpageshadow="2"
     inkscape:pageopacity="0.0"
     inkscape:pagecheckerboard="0"
     inkscape:deskcolor="#d1d1d1"
     showgrid="false"
     inkscape:zoom="34.541667"
     inkscape:cx="10.364294"
     inkscape:cy="12.014475"
     inkscape:window-width="1920"
     inkscape:window-height="1009"
     inkscape:window-x="1912"
     inkscape:window-y="-8"
     inkscape:window-maximized="1"
     inkscape:current-layer="svg4" />
  <path
     style="color:#000000;fill:currentColor;stroke-linecap:round;stroke-linejoin:round;-inkscape-stroke:none"
     d="M 12,1.25 A 0.75,0.75 0 0 0 11.25,2 V 3.890625 L 9.7792969,3.3027344 A 0.75,0.75 0 0 0 8.8027344,3.7207031 0.75,0.75 0 0 0 9.2207031,4.6972656 L 11.25,5.5097656 V 10.736328 L 7.1894531,8.5214844 6.7421875,5.3945312 A 0.75,0.75 0 0 0 5.8945312,4.7578125 0.75,0.75 0 0 0 5.2578125,5.6054687 L 5.5410156,7.5878906 3.3730469,6.3496094 A 0.75,0.75 0 0 0 2.3496094,6.6269531 0.75,0.75 0 0 0 2.6269531,7.6503906 L 4.5839844,8.7675781 2.7949219,9.2792969 a 0.75,0.75 0 0 0 -0.515625,0.9257811 0.75,0.75 0 0 0 0.9257812,0.515625 L 6.4101562,9.8046875 10.433594,12 6.4101562,14.195313 3.2050781,13.279297 a 0.75,0.75 0 0 0 -0.9257812,0.515625 0.75,0.75 0 0 0 0.515625,0.925781 l 1.7890625,0.511719 -1.9570313,1.117187 a 0.75,0.75 0 0 0 -0.2773437,1.023438 0.75,0.75 0 0 0 1.0234375,0.277344 l 2.1679687,-1.238282 -0.2832031,1.982422 a 0.75,0.75 0 0 0 0.6367187,0.847656 0.75,0.75 0 0 0 0.8476563,-0.636718 L 7.1894531,15.478516 11.25,13.263672 v 4.8125 l -2.1367187,1.28125 a 0.75,0.75 0 0 0 -0.2558594,1.029297 0.75,0.75 0 0 0 1.0292969,0.255859 L 11.25,19.824219 V 22 A 0.75,0.75 0 0 0 12,22.75 0.75,0.75 0 0 0 12.75,22 v -2.175781 l 1.363281,0.818359 a 0.75,0.75 0 0 0 1.029297,-0.255859 0.75,0.75 0 0 0 -0.255859,-1.029297 L 12.75,18.076172 v -4.8125 l 4.060547,2.214844 0.447265,3.126953 a 0.75,0.75 0 0 0 0.847657,0.636718 0.75,0.75 0 0 0 0.636718,-0.847656 l -0.283203,-1.982422 2.167969,1.238282 a 0.75,0.75 0 0 0 1.023438,-0.277344 0.75,0.75 0 0 0 -0.277344,-1.023438 l -1.957031,-1.117187 1.789062,-0.511719 a 0.75,0.75 0 0 0 0.515625,-0.925781 0.75,0.75 0 0 0 -0.925781,-0.515625 L 17.589844,14.195313 13.566406,12 17.589844,9.8046875 20.794922,10.720703 A 0.75,0.75 0 0 0 21.720703,10.205078 0.75,0.75 0 0 0 21.205078,9.2792969 L 19.416016,8.7675781 21.373047,7.6503906 A 0.75,0.75 0 0 0 21.650391,6.6269531 0.75,0.75 0 0 0 20.626953,6.3496094 L 18.458984,7.5878906 18.742187,5.6054687 A 0.75,0.75 0 0 0 18.105469,4.7578125 0.75,0.75 0 0 0 17.257812,5.3945312 L 16.810547,8.5214844 12.75,10.736328 V 5.5097656 l 2.029297,-0.8125 A 0.75,0.75 0 0 0 15.197266,3.7207031 0.75,0.75 0 0 0 14.220703,3.3027344 L 12.75,3.890625 V 2 A 0.75,0.75 0 0 0 12,1.25 Z"
     id="path2" />
</svg>
