<?xml version="1.0" encoding="UTF-8" standalone="no"?>
<svg
   width="24"
   height="24"
   stroke-width="1.5"
   viewBox="0 0 24 24"
   fill="none"
   version="1.1"
   id="svg8"
   sodipodi:docname="soap.svg"
   inkscape:version="1.2.1 (9c6d41e410, 2022-07-14)"
   xmlns:inkscape="http://www.inkscape.org/namespaces/inkscape"
   xmlns:sodipodi="http://sodipodi.sourceforge.net/DTD/sodipodi-0.dtd"
   xmlns="http://www.w3.org/2000/svg"
   xmlns:svg="http://www.w3.org/2000/svg">
  <defs
     id="defs12" />
  <sodipodi:namedview
     id="namedview10"
     pagecolor="#ffffff"
     bordercolor="#666666"
     borderopacity="1.0"
     inkscape:showpageshadow="2"
     inkscape:pageopacity="0.0"
     inkscape:pagecheckerboard="0"
     inkscape:deskcolor="#d1d1d1"
     showgrid="false"
     inkscape:zoom="34.541667"
     inkscape:cx="10.364294"
     inkscape:cy="12.014475"
     inkscape:window-width="1920"
     inkscape:window-height="1009"
     inkscape:window-x="1912"
     inkscape:window-y="-8"
     inkscape:window-maximized="1"
     inkscape:current-layer="svg8" />
  <path
     style="color:#000000;fill:currentColor;stroke-linecap:round;-inkscape-stroke:none"
     d="M 11,6.25 C 8.3855329,6.25 6.25,8.3855329 6.25,11 v 9.400391 C 6.25,21.137086 6.862953,21.75 7.5996094,21.75 H 16.400391 C 17.13704,21.75 17.75,21.13704 17.75,20.400391 V 11 C 17.75,8.3855239 15.614434,6.25 13,6.25 Z m 0,1.5 h 2 c 1.803761,0 3.25,1.4462005 3.25,3.25 v 9.25 H 7.75 V 11 C 7.75,9.1961915 9.1961915,7.75 11,7.75 Z"
     id="path2" />
  <path
     style="color:#000000;fill:currentColor;stroke-linecap:round;-inkscape-stroke:none"
     d="M 7,12.25 A 0.75,0.75 0 0 0 6.25,13 0.75,0.75 0 0 0 7,13.75 H 17 A 0.75,0.75 0 0 0 17.75,13 0.75,0.75 0 0 0 17,12.25 Z"
     id="path4" />
  <path
     style="color:#000000;fill:currentColor;stroke-linecap:round;-inkscape-stroke:none"
     d="M 9,2.25 A 0.75,0.75 0 0 0 8.25,3 0.75,0.75 0 0 0 9,3.75 h 2.25 V 7 A 0.75,0.75 0 0 0 12,7.75 0.75,0.75 0 0 0 12.75,7 V 3.75 H 13 A 0.75,0.75 0 0 0 13.75,3 0.75,0.75 0 0 0 13,2.25 h -1 z"
     id="path6" />
</svg>
