<?xml version="1.0" encoding="UTF-8" standalone="no"?>
<svg
   width="24"
   height="24"
   stroke-width="1.5"
   viewBox="0 0 24 24"
   fill="none"
   version="1.1"
   id="svg4"
   sodipodi:docname="soccer-ball.svg"
   inkscape:version="1.2.1 (9c6d41e410, 2022-07-14)"
   xmlns:inkscape="http://www.inkscape.org/namespaces/inkscape"
   xmlns:sodipodi="http://sodipodi.sourceforge.net/DTD/sodipodi-0.dtd"
   xmlns="http://www.w3.org/2000/svg"
   xmlns:svg="http://www.w3.org/2000/svg">
  <defs
     id="defs8" />
  <sodipodi:namedview
     id="namedview6"
     pagecolor="#ffffff"
     bordercolor="#666666"
     borderopacity="1.0"
     inkscape:showpageshadow="2"
     inkscape:pageopacity="0.0"
     inkscape:pagecheckerboard="0"
     inkscape:deskcolor="#d1d1d1"
     showgrid="false"
     inkscape:zoom="34.541667"
     inkscape:cx="10.364294"
     inkscape:cy="12.014475"
     inkscape:window-width="1920"
     inkscape:window-height="1009"
     inkscape:window-x="1912"
     inkscape:window-y="-8"
     inkscape:window-maximized="1"
     inkscape:current-layer="svg4" />
  <path
     style="color:#000000;fill:currentColor;stroke-linecap:round;stroke-linejoin:round;-inkscape-stroke:none"
     d="M 12,1.25 C 6.0718263,1.25 1.25,6.0718263 1.25,12 c 0,0.266641 0.1331718,0.490127 0.1523437,0.751953 a 0.75,0.75 0 0 0 0.1210938,0.78125 0.75,0.75 0 0 0 0.041016,0.01563 c 0.1820939,1.202791 0.482294,2.330999 1.0292969,3.369141 a 0.75,0.75 0 0 0 -0.00195,0.002 0.75,0.75 0 0 0 0.5,0.734375 c 1.544554,2.419193 3.9447363,4.093067 6.8515625,4.679687 a 0.75,0.75 0 0 0 0.9277346,0.205078 0.75,0.75 0 0 0 0.01563,-0.01367 C 11.270518,22.567045 11.605294,22.75 12,22.75 c 0.398829,0 0.737317,-0.184044 1.125,-0.226563 a 0.75,0.75 0 0 0 0.0039,0.01563 0.75,0.75 0 0 0 0.927735,-0.205078 c 2.891918,-0.583613 5.281897,-2.242487 6.828125,-4.642578 a 0.75,0.75 0 0 0 0.523437,-0.771484 0.75,0.75 0 0 0 -0.002,-0.002 c 0.547006,-1.038142 0.847201,-2.166349 1.029297,-3.369141 a 0.75,0.75 0 0 0 0.04102,-0.01563 0.75,0.75 0 0 0 0.138672,-0.863281 C 22.630473,12.436225 22.75,12.237487 22.75,12 22.75,9.4465289 21.728617,7.1956267 20.236328,5.3496094 A 0.75,0.75 0 0 0 19.810547,4.7167969 C 18.692906,3.5179028 17.327678,2.6024514 15.767578,2.0117188 A 0.75,0.75 0 0 0 15.236328,1.9042969 C 14.198678,1.5699092 13.147499,1.25 12,1.25 Z m 0,1.5 c 0.514573,0 0.957763,0.2126035 1.449219,0.2929688 L 12,4.078125 10.550781,3.0429688 C 11.04224,2.9626036 11.485422,2.75 12,2.75 Z M 8.5429688,3.4472656 11.25,5.3847656 V 7.6171875 L 8.1132813,9.8964844 6.1425781,8.9726563 5.3320312,5.6367187 C 6.2321573,4.6929435 7.3125598,3.9437389 8.5429688,3.4472656 Z m 6.9140622,0 c 1.230406,0.4964737 2.310808,1.2456776 3.210938,2.1894531 L 17.857422,8.9726563 15.886719,9.8964844 12.75,7.6171875 V 5.3847656 Z M 4.1992187,7.3222656 4.671875,9.2714844 2.9472656,11.021484 C 3.0967078,9.6627904 3.5281858,8.4373992 4.1992187,7.3222656 Z m 15.6015623,0 c 0.671038,1.1151336 1.102509,2.3405257 1.251953,3.6992184 L 19.328125,9.2714844 Z M 12,8.9277344 14.923828,11.050781 13.806641,14.486328 H 10.193359 L 9.0761719,11.050781 Z M 5.6621094,10.404297 7.5820312,11.304688 8.8164063,15.105469 7.6503906,16.707031 3.953125,16.310547 C 3.4290825,15.335996 3.1221245,14.275033 2.9765625,13.128906 Z m 12.6757816,0 2.685546,2.724609 c -0.145563,1.146127 -0.452515,2.20709 -0.976562,3.181641 l -3.697266,0.396484 -1.166015,-1.601562 1.234375,-3.800781 z m -8.306641,5.582031 h 3.9375 l 1.138672,1.5625 -1.978516,3.472656 C 12.741646,21.070685 12.40086,21.25 12,21.25 c -0.400864,0 -0.741643,-0.179315 -1.128906,-0.228516 L 8.8925781,17.548828 Z M 5.046875,17.9375 7.5371094,18.205078 8.9179688,20.628906 C 7.3801947,20.080561 6.0849565,19.154025 5.046875,17.9375 Z m 13.90625,0 c -1.038087,1.216526 -2.333325,2.14306 -3.871094,2.691406 l 1.38086,-2.423828 z"
     id="path2" />
</svg>
