<?xml version="1.0" encoding="UTF-8" standalone="no"?>
<svg
   width="24"
   height="24"
   viewBox="0 0 24 24"
   stroke-width="1.5"
   fill="none"
   version="1.1"
   id="svg24"
   sodipodi:docname="soil-alt.svg"
   inkscape:version="1.2.1 (9c6d41e410, 2022-07-14)"
   xmlns:inkscape="http://www.inkscape.org/namespaces/inkscape"
   xmlns:sodipodi="http://sodipodi.sourceforge.net/DTD/sodipodi-0.dtd"
   xmlns="http://www.w3.org/2000/svg"
   xmlns:svg="http://www.w3.org/2000/svg">
  <defs
     id="defs28" />
  <sodipodi:namedview
     id="namedview26"
     pagecolor="#ffffff"
     bordercolor="#666666"
     borderopacity="1.0"
     inkscape:showpageshadow="2"
     inkscape:pageopacity="0.0"
     inkscape:pagecheckerboard="0"
     inkscape:deskcolor="#d1d1d1"
     showgrid="false"
     inkscape:zoom="34.541667"
     inkscape:cx="10.364294"
     inkscape:cy="12.014475"
     inkscape:window-width="1920"
     inkscape:window-height="1009"
     inkscape:window-x="1912"
     inkscape:window-y="-8"
     inkscape:window-maximized="1"
     inkscape:current-layer="svg24" />
  <path
     style="color:#000000;fill:currentColor;stroke-linecap:round;stroke-linejoin:round;-inkscape-stroke:none"
     d="M 2,11.25 A 0.75,0.75 0 0 0 1.25,12 0.75,0.75 0 0 0 2,12.75 H 6 A 0.75,0.75 0 0 0 6.75,12 0.75,0.75 0 0 0 6,11.25 Z"
     id="path2" />
  <path
     style="color:#000000;fill:currentColor;stroke-linecap:round;stroke-linejoin:round;-inkscape-stroke:none"
     d="M 17,11.25 A 0.75,0.75 0 0 0 16.25,12 0.75,0.75 0 0 0 17,12.75 h 5 A 0.75,0.75 0 0 0 22.75,12 0.75,0.75 0 0 0 22,11.25 Z"
     id="path4" />
  <path
     style="color:#000000;fill:currentColor;stroke-linecap:round;stroke-linejoin:round;-inkscape-stroke:none"
     d="M 2.9707031,19.25 A 0.75,0.75 0 0 0 2.453125,19.496094 l -0.00977,0.01172 a 0.75,0.75 0 0 0 0.054687,1.058594 0.75,0.75 0 0 0 1.0585937,-0.05469 L 3.5664063,20.5 A 0.75,0.75 0 0 0 3.5117188,19.441406 0.75,0.75 0 0 0 2.9707031,19.25 Z"
     id="path6" />
  <path
     style="color:#000000;fill:currentColor;stroke-linecap:round;stroke-linejoin:round;-inkscape-stroke:none"
     d="m 6.5117187,15.441406 a 0.75,0.75 0 0 0 -1.0585937,0.05469 l -0.00977,0.01172 a 0.75,0.75 0 0 0 0.054687,1.058593 0.75,0.75 0 0 0 1.0585937,-0.05469 L 6.5664062,16.5 a 0.75,0.75 0 0 0 -0.054687,-1.058594 z"
     id="path8" />
  <path
     style="color:#000000;fill:currentColor;stroke-linecap:round;stroke-linejoin:round;-inkscape-stroke:none"
     d="M 8.9707031,19.25 A 0.75,0.75 0 0 0 8.453125,19.496094 l -0.00977,0.01172 a 0.75,0.75 0 0 0 0.054687,1.058594 0.75,0.75 0 0 0 1.0585937,-0.05469 L 9.5664063,20.5 A 0.75,0.75 0 0 0 9.5117188,19.441406 0.75,0.75 0 0 0 8.9707031,19.25 Z"
     id="path10" />
  <path
     style="color:#000000;fill:currentColor;stroke-linecap:round;stroke-linejoin:round;-inkscape-stroke:none"
     d="m 11.970703,15.25 a 0.75,0.75 0 0 0 -0.517578,0.246094 l -0.0098,0.01172 a 0.75,0.75 0 0 0 0.05469,1.058593 0.75,0.75 0 0 0 1.058594,-0.05469 L 12.566406,16.5 A 0.75,0.75 0 0 0 12.511719,15.441406 0.75,0.75 0 0 0 11.970703,15.25 Z"
     id="path12" />
  <path
     style="color:#000000;fill:currentColor;stroke-linecap:round;stroke-linejoin:round;-inkscape-stroke:none"
     d="m 14.970703,19.25 a 0.75,0.75 0 0 0 -0.517578,0.246094 l -0.0098,0.01172 a 0.75,0.75 0 0 0 0.05469,1.058594 0.75,0.75 0 0 0 1.058594,-0.05469 L 15.566406,20.5 A 0.75,0.75 0 0 0 15.511719,19.441406 0.75,0.75 0 0 0 14.970703,19.25 Z"
     id="path14" />
  <path
     style="color:#000000;fill:currentColor;stroke-linecap:round;stroke-linejoin:round;-inkscape-stroke:none"
     d="m 17.970703,15.25 a 0.75,0.75 0 0 0 -0.517578,0.246094 l -0.0098,0.01172 a 0.75,0.75 0 0 0 0.05469,1.058593 0.75,0.75 0 0 0 1.058594,-0.05469 L 18.566406,16.5 A 0.75,0.75 0 0 0 18.511719,15.441406 0.75,0.75 0 0 0 17.970703,15.25 Z"
     id="path16" />
  <path
     style="color:#000000;fill:currentColor;stroke-linecap:round;stroke-linejoin:round;-inkscape-stroke:none"
     d="m 21.511719,19.441406 a 0.75,0.75 0 0 0 -1.058594,0.05469 l -0.0098,0.01172 a 0.75,0.75 0 0 0 0.05469,1.058594 0.75,0.75 0 0 0 1.058594,-0.05469 L 21.566406,20.5 a 0.75,0.75 0 0 0 -0.05469,-1.058594 z"
     id="path18" />
  <path
     style="color:#000000;fill:currentColor;stroke-linecap:round;stroke-linejoin:round;-inkscape-stroke:none"
     d="m 12.509766,6.4511719 a 0.75,0.75 0 0 0 -1.058594,0.039063 C 9.142749,8.97324 8.2714844,12.824219 8.2714844,12.824219 a 0.75,0.75 0 0 0 0.5527344,0.904297 0.75,0.75 0 0 0 0.9042968,-0.552735 c 0,0 0.9287394,-3.6313855 2.8203124,-5.6660154 a 0.75,0.75 0 0 0 -0.03906,-1.0585937 z"
     id="path20" />
  <path
     style="color:#000000;fill:currentColor;stroke-linecap:round;stroke-linejoin:round;-inkscape-stroke:none"
     d="m 15.556641,1.0371094 -4.146485,0.3984375 c -2.8791457,0.2772164 -5.0018384,2.85331 -4.7246091,5.7324218 0.278052,2.8876563 2.8962896,4.9979553 5.7753911,4.7207033 2.926564,-0.281742 5.128384,-2.8950168 4.845703,-5.8300783 l -0.375,-3.8886718 c -0.06587,-0.6837485 -0.691288,-1.19864696 -1.375,-1.1328125 z m -0.09375,1.515625 0.351562,3.6503906 c 0.203318,2.1110335 -1.378416,3.989302 -3.498047,4.193359 C 10.244232,10.596031 8.3764419,9.0870761 8.1777344,7.0234375 7.9782041,4.9512543 9.4824584,3.1272574 11.554688,2.9277344 Z"
     id="path22" />
</svg>
