<?xml version="1.0" encoding="UTF-8" standalone="no"?>
<svg
   width="24"
   height="24"
   viewBox="0 0 24 24"
   stroke-width="1.5"
   fill="none"
   version="1.1"
   id="svg8"
   sodipodi:docname="sound-high.svg"
   inkscape:version="1.2.1 (9c6d41e410, 2022-07-14)"
   xmlns:inkscape="http://www.inkscape.org/namespaces/inkscape"
   xmlns:sodipodi="http://sodipodi.sourceforge.net/DTD/sodipodi-0.dtd"
   xmlns="http://www.w3.org/2000/svg"
   xmlns:svg="http://www.w3.org/2000/svg">
  <defs
     id="defs12" />
  <sodipodi:namedview
     id="namedview10"
     pagecolor="#ffffff"
     bordercolor="#666666"
     borderopacity="1.0"
     inkscape:showpageshadow="2"
     inkscape:pageopacity="0.0"
     inkscape:pagecheckerboard="0"
     inkscape:deskcolor="#d1d1d1"
     showgrid="false"
     inkscape:zoom="34.541667"
     inkscape:cx="10.364294"
     inkscape:cy="12.014475"
     inkscape:window-width="1920"
     inkscape:window-height="1009"
     inkscape:window-x="1912"
     inkscape:window-y="-8"
     inkscape:window-maximized="1"
     inkscape:current-layer="svg8" />
  <path
     style="color:#000000;fill:currentColor;-inkscape-stroke:none"
     d="m 12.9375,3.1210938 c -0.3073,0.00358 -0.618122,0.089286 -0.900391,0.2753906 L 6.0371094,7.3515625 c -0.040915,0.026976 -0.087741,0.041016 -0.1367188,0.041016 H 3 c -1.5098982,0 -2.75,1.2400765 -2.75,2.7499999 v 3.714844 c 0,1.509917 1.2401154,2.75 2.75,2.75 h 2.9003906 c 0.048774,0 0.09564,0.01394 0.1367188,0.04102 l 5.9999996,3.955079 C 13.166198,21.347977 14.75,20.494949 14.75,19.142578 V 4.8574219 c 0,-1.0142983 -0.8906,-1.7470705 -1.8125,-1.7363281 z m -0.07422,1.5273437 C 13.064006,4.5160963 13.25,4.6170411 13.25,4.8574219 V 19.142578 c 0,0.240228 -0.186008,0.341322 -0.386719,0.208984 L 6.8632812,15.396484 C 6.5776004,15.208164 6.2429963,15.107422 5.9003906,15.107422 H 3 c -0.6992532,0 -1.25,-0.550719 -1.25,-1.25 V 10.142578 C 1.75,9.4432838 2.3007604,8.8925781 3,8.8925781 h 2.9003906 c 0.3424013,0 0.6770462,-0.100599 0.9628906,-0.2890625 z"
     id="path2" />
  <path
     style="color:#000000;fill:currentColor;stroke-linecap:round;stroke-linejoin:round;-inkscape-stroke:none"
     d="m 17.5,6.75 a 0.75,0.75 0 0 0 -0.53125,0.21875 0.75,0.75 0 0 0 0,1.0625 c 0,0 1.28125,1.2687522 1.28125,3.46875 0,2.199998 -1.28125,3.46875 -1.28125,3.46875 a 0.75,0.75 0 0 0 0,1.0625 0.75,0.75 0 0 0 1.0625,0 c 0,0 1.71875,-1.731253 1.71875,-4.53125 0,-2.7999972 -1.71875,-4.53125 -1.71875,-4.53125 A 0.75,0.75 0 0 0 17.5,6.75 Z"
     id="path4" />
  <path
     style="color:#000000;fill:currentColor;stroke-linecap:round;stroke-linejoin:round;-inkscape-stroke:none"
     d="m 20.5,3.75 a 0.75,0.75 0 0 0 -0.53125,0.21875 0.75,0.75 0 0 0 0,1.0625 c 0,0 2.28125,2.246532 2.28125,6.46875 0,4.222218 -2.28125,6.46875 -2.28125,6.46875 a 0.75,0.75 0 0 0 0,1.0625 0.75,0.75 0 0 0 1.0625,0 c 0,0 2.71875,-2.753477 2.71875,-7.53125 0,-4.777773 -2.71875,-7.53125 -2.71875,-7.53125 A 0.75,0.75 0 0 0 20.5,3.75 Z"
     id="path6" />
</svg>
