<?xml version="1.0" encoding="UTF-8" standalone="no"?>
<svg
   width="24"
   height="24"
   viewBox="0 0 24 24"
   stroke-width="1.5"
   fill="none"
   version="1.1"
   id="svg6"
   sodipodi:docname="sparks.svg"
   inkscape:version="1.2.1 (9c6d41e410, 2022-07-14)"
   xmlns:inkscape="http://www.inkscape.org/namespaces/inkscape"
   xmlns:sodipodi="http://sodipodi.sourceforge.net/DTD/sodipodi-0.dtd"
   xmlns="http://www.w3.org/2000/svg"
   xmlns:svg="http://www.w3.org/2000/svg">
  <defs
     id="defs10" />
  <sodipodi:namedview
     id="namedview8"
     pagecolor="#ffffff"
     bordercolor="#666666"
     borderopacity="1.0"
     inkscape:showpageshadow="2"
     inkscape:pageopacity="0.0"
     inkscape:pagecheckerboard="0"
     inkscape:deskcolor="#d1d1d1"
     showgrid="false"
     inkscape:zoom="34.541667"
     inkscape:cx="10.364294"
     inkscape:cy="12.014475"
     inkscape:window-width="1920"
     inkscape:window-height="1009"
     inkscape:window-x="1912"
     inkscape:window-y="-8"
     inkscape:window-maximized="1"
     inkscape:current-layer="svg6" />
  <path
     style="color:#000000;fill:currentColor;stroke-linejoin:round;-inkscape-stroke:none"
     d="m 14.25,8 c 0,2.367138 -0.500424,3.883149 -1.449219,4.824219 C 11.851986,13.765289 10.332162,14.25 8,14.25 v 1.5 c 2.329115,0 3.847631,0.497622 4.798828,1.447266 C 13.750025,18.146909 14.25,19.663867 14.25,22 h 1.5 c 0,-2.336895 0.498221,-3.853689 1.447266,-4.802734 C 18.146311,16.248221 19.663105,15.75 22,15.75 a 0.750075,0.750075 0 0 0 0,-1.5 c -2.339932,0 -3.858047,-0.485312 -4.804688,-1.425781 C 16.248672,11.88375 15.75,10.36789 15.75,8 Z m 0.748047,3.935547 c 0.297555,0.724891 0.614908,1.430836 1.140625,1.953125 0.521448,0.518048 1.221284,0.824762 1.9375,1.117187 -0.71723,0.296738 -1.418389,0.609795 -1.939453,1.13086 C 15.61262,16.660818 15.297228,17.365364 15,18.087891 c -0.298408,-0.72379 -0.617142,-1.428547 -1.142578,-1.953125 -0.521632,-0.520781 -1.222599,-0.832233 -1.939453,-1.128907 0.715928,-0.29237 1.415437,-0.599375 1.9375,-1.117187 0.526204,-0.52192 0.843976,-1.228455 1.142578,-1.953125 z"
     id="path2" />
  <path
     style="color:#000000;fill:currentColor;stroke-linejoin:round;-inkscape-stroke:none"
     d="M 5.75,2 C 5.75,3.4834064 5.4378948,4.3731546 4.8964844,4.9101562 4.3550739,5.4471579 3.4616958,5.75 2,5.75 v 1.5 c 1.4586467,0 2.350717,0.3086336 2.8945312,0.8515625 C 5.4383455,8.6444914 5.75,9.537009 5.75,11 h 1.5 C 7.25,9.5362494 7.5592304,8.6438946 8.1015625,8.1015625 8.6438946,7.5592304 9.5362494,7.25 11,7.25 V 5.75 C 9.5332097,5.75 8.6395352,5.4465586 8.0996094,4.9101562 7.5596835,4.3737539 7.25,3.4841568 7.25,2 Z M 6.4980469,5.046875 C 6.6715913,5.3622348 6.7899728,5.7232645 7.0429687,5.9746094 7.2920848,6.2220997 7.6473002,6.3339976 7.9570312,6.5039062 7.6464352,6.6759329 7.2901803,6.791851 7.0410156,7.0410156 6.7887833,7.293248 6.6712758,7.6535927 6.4980469,7.96875 6.3243988,7.653823 6.2074313,7.292958 5.9550781,7.0410156 5.7052728,6.791617 5.3482842,6.6760208 5.0371094,6.5039062 5.3471051,6.3339949 5.7035818,6.2221205 5.953125,5.9746094 6.2064577,5.7233396 6.3239985,5.3623276 6.4980469,5.046875 Z"
     id="path4" />
</svg>
