<?xml version="1.0" encoding="UTF-8" standalone="no"?>
<svg
   width="24"
   height="24"
   viewBox="0 0 24 24"
   stroke-width="1.5"
   fill="none"
   version="1.1"
   id="svg6"
   sodipodi:docname="sphere.svg"
   inkscape:version="1.2.1 (9c6d41e410, 2022-07-14)"
   xmlns:inkscape="http://www.inkscape.org/namespaces/inkscape"
   xmlns:sodipodi="http://sodipodi.sourceforge.net/DTD/sodipodi-0.dtd"
   xmlns="http://www.w3.org/2000/svg"
   xmlns:svg="http://www.w3.org/2000/svg">
  <defs
     id="defs10" />
  <sodipodi:namedview
     id="namedview8"
     pagecolor="#ffffff"
     bordercolor="#666666"
     borderopacity="1.0"
     inkscape:showpageshadow="2"
     inkscape:pageopacity="0.0"
     inkscape:pagecheckerboard="0"
     inkscape:deskcolor="#d1d1d1"
     showgrid="false"
     inkscape:zoom="34.541667"
     inkscape:cx="10.364294"
     inkscape:cy="12.014475"
     inkscape:window-width="1920"
     inkscape:window-height="1009"
     inkscape:window-x="1912"
     inkscape:window-y="-8"
     inkscape:window-maximized="1"
     inkscape:current-layer="svg6" />
  <path
     style="color:#000000;fill:currentColor;stroke-linecap:round;stroke-linejoin:round;-inkscape-stroke:none"
     d="M 12,1.25 C 6.0718263,1.25 1.25,6.0718263 1.25,12 1.25,17.928127 6.0718217,22.75 12,22.75 17.928132,22.75 22.75,17.928132 22.75,12 22.75,6.0718217 17.928127,1.25 12,1.25 Z m 0,1.5 c 5.117462,0 9.25,4.1324893 9.25,9.25 0,5.117457 -4.132543,9.25 -9.25,9.25 C 6.8824893,21.25 2.75,17.117462 2.75,12 2.75,6.8824848 6.8824848,2.75 12,2.75 Z"
     id="path2" />
  <path
     style="color:#000000;fill:currentColor;stroke-linecap:round;stroke-linejoin:round;-inkscape-stroke:none"
     d="M 12,1.25 C 10.005372,1.25 8.2856576,2.5890081 7.1132812,4.5429687 5.9409049,6.4969294 5.25,9.116979 5.25,12 c 0,2.882997 0.6909058,5.503065 1.8632812,7.457031 C 8.2856567,21.410997 10.005368,22.75 12,22.75 A 0.75,0.75 0 0 0 12.75,22 0.75,0.75 0 0 0 12,21.25 C 10.680925,21.25 9.3995855,20.350877 8.4003906,18.685547 7.4011958,17.020216 6.75,14.639797 6.75,12 6.75,9.3601765 7.4011967,6.9797764 8.4003906,5.3144531 9.3995846,3.6491299 10.680921,2.75 12,2.75 A 0.75,0.75 0 0 0 12.75,2 0.75,0.75 0 0 0 12,1.25 Z"
     id="path4" />
</svg>
