<?xml version="1.0" encoding="UTF-8" standalone="no"?>
<svg
   width="24"
   height="24"
   viewBox="0 0 24 24"
   stroke-width="1.5"
   fill="none"
   version="1.1"
   id="svg16"
   sodipodi:docname="spiral.svg"
   inkscape:version="1.2.1 (9c6d41e410, 2022-07-14)"
   xmlns:inkscape="http://www.inkscape.org/namespaces/inkscape"
   xmlns:sodipodi="http://sodipodi.sourceforge.net/DTD/sodipodi-0.dtd"
   xmlns="http://www.w3.org/2000/svg"
   xmlns:svg="http://www.w3.org/2000/svg">
  <defs
     id="defs20" />
  <sodipodi:namedview
     id="namedview18"
     pagecolor="#ffffff"
     bordercolor="#666666"
     borderopacity="1.0"
     inkscape:showpageshadow="2"
     inkscape:pageopacity="0.0"
     inkscape:pagecheckerboard="0"
     inkscape:deskcolor="#d1d1d1"
     showgrid="false"
     inkscape:zoom="34.541667"
     inkscape:cx="10.364294"
     inkscape:cy="12.014475"
     inkscape:window-width="1920"
     inkscape:window-height="1009"
     inkscape:window-x="1912"
     inkscape:window-y="-8"
     inkscape:window-maximized="1"
     inkscape:current-layer="svg16" />
  <path
     style="color:#000000;fill:currentColor;stroke-linecap:round;stroke-linejoin:round;-inkscape-stroke:none"
     d="M 11.5,2.25 C 8.8702393,2.25 6.799664,2.5465725 5.3007812,3.1269531 4.5513399,3.4171434 3.936571,3.7782725 3.4824219,4.2558594 3.0282727,4.7334462 2.75,5.3549371 2.75,6.0039062 2.75,6.652874 3.0299396,7.2730866 3.484375,7.75 3.9388104,8.2269134 4.5513761,8.5898282 5.3007812,8.8789063 6.7995915,9.4570624 8.8706258,9.75 11.5,9.75 c 3.606997,0 5.76669,-0.7746235 7.041016,-1.6230469 0.637162,-0.4242117 1.047712,-0.8649059 1.300781,-1.2148437 0.253068,-0.3499378 0.369141,-0.6699219 0.36914,-0.6699219 a 0.750075,0.750075 0 0 0 0,-0.4746094 c 0,0 -0.1162,-0.3211857 -0.36914,-0.671875 C 19.588857,4.7450139 19.178194,4.3042552 18.541016,3.8789063 17.266659,3.0282084 15.107281,2.25 11.5,2.25 Z m 0,1.5 c 3.392712,0 5.233343,0.7237094 6.208984,1.375 0.487821,0.3256453 0.76466,0.6350998 0.917969,0.8476562 0.01756,0.024347 0.0036,0.010884 0.01758,0.03125 -0.01346,0.019508 -8.5e-4,0.00617 -0.01758,0.029297 -0.153181,0.2118154 -0.430133,0.5189575 -0.917969,0.84375 C 16.733312,7.5265383 14.892996,8.25 11.5,8.25 8.9865194,8.25 7.057269,7.9473759 5.8417969,7.4785156 5.2340608,7.2440855 4.8123045,6.9688055 4.5703125,6.7148437 4.3283205,6.460882 4.25,6.2569226 4.25,6.0039062 4.25,5.7508863 4.3280342,5.5457974 4.5703125,5.2910156 4.8125908,5.0362338 5.2340971,4.7606973 5.8417969,4.5253906 7.0571964,4.0547773 8.9869058,3.75 11.5,3.75 Z"
     id="path2" />
  <path
     style="color:#000000;fill:currentColor;stroke-linecap:round;stroke-linejoin:round;-inkscape-stroke:none"
     d="M 11.5,8.25 C 8.8702393,8.25 6.7996649,8.5465695 5.3007812,9.1269531 4.5513394,9.417145 3.9365708,9.7782691 3.4824219,10.255859 3.0282729,10.73345 2.75,11.354934 2.75,12.003906 c 0,0.648972 0.2799381,1.26918 0.734375,1.746094 0.4544369,0.476914 1.0670007,0.839833 1.8164062,1.128906 C 6.7995923,15.457053 8.8706282,15.75 11.5,15.75 c 3.606996,0 5.76669,-0.774629 7.041016,-1.623047 0.637162,-0.424209 1.047712,-0.864908 1.300781,-1.214844 0.253069,-0.349936 0.369141,-0.669922 0.36914,-0.669921 a 0.750075,0.750075 0 0 0 0,-0.47461 c 0,0 -0.1162,-0.321184 -0.36914,-0.671875 C 19.588857,10.745012 19.178194,10.304258 18.541016,9.8789063 17.266659,9.0282027 15.107282,8.25 11.5,8.25 Z m 0,1.5 c 3.392711,0 5.233343,0.723705 6.208984,1.375 0.487821,0.325647 0.764659,0.635098 0.917969,0.847656 0.01756,0.02435 0.0036,0.01088 0.01758,0.03125 -0.01346,0.01951 -8.5e-4,0.0062 -0.01758,0.0293 -0.153181,0.211814 -0.430133,0.51896 -0.917969,0.84375 C 16.733312,13.526534 14.892997,14.25 11.5,14.25 8.9865169,14.25 7.0572682,13.947368 5.8417969,13.478516 5.2340612,13.24409 4.812303,12.968804 4.5703125,12.714844 4.328322,12.460884 4.25,12.256933 4.25,12.003906 4.25,11.750879 4.328034,11.5458 4.5703125,11.291016 4.812591,11.036232 5.2340975,10.760698 5.8417969,10.525391 7.0571956,10.054775 8.9869058,9.75 11.5,9.75 Z"
     id="path4" />
  <path
     style="color:#000000;fill:currentColor;stroke-linecap:round;stroke-linejoin:round;-inkscape-stroke:none"
     d="m 11.5,14.25 c -2.6297607,0 -4.7003351,0.296569 -6.1992188,0.876953 C 4.5513394,15.417145 3.9365708,15.778269 3.4824219,16.255859 3.0282729,16.73345 2.75,17.354934 2.75,18.003906 c 0,0.648972 0.2799381,1.26918 0.734375,1.746094 0.4544369,0.476914 1.0670007,0.839833 1.8164062,1.128906 C 6.7995923,21.457053 8.8706282,21.75 11.5,21.75 c 3.606996,0 5.76669,-0.774629 7.041016,-1.623047 0.637162,-0.424209 1.047712,-0.864908 1.300781,-1.214844 0.253069,-0.349936 0.369141,-0.669922 0.36914,-0.669922 a 0.750075,0.750075 0 0 0 0,-0.474609 c 0,0 -0.1162,-0.321184 -0.36914,-0.671875 -0.25294,-0.350691 -0.663603,-0.791445 -1.300781,-1.216797 C 17.266659,15.028203 15.107282,14.25 11.5,14.25 Z m 0,1.5 c 3.392711,0 5.233343,0.723705 6.208984,1.375 0.487821,0.325647 0.764659,0.635098 0.917969,0.847656 0.01756,0.02435 0.0036,0.01088 0.01758,0.03125 -0.01346,0.01951 -8.5e-4,0.0062 -0.01758,0.0293 -0.153181,0.211814 -0.430133,0.51896 -0.917969,0.84375 C 16.733312,19.526534 14.892997,20.25 11.5,20.25 8.9865169,20.25 7.0572682,19.947368 5.8417969,19.478516 5.2340612,19.24409 4.812303,18.968804 4.5703125,18.714844 4.328322,18.460884 4.25,18.256933 4.25,18.003906 4.25,17.750879 4.328034,17.5458 4.5703125,17.291016 4.812591,17.036232 5.2340975,16.760698 5.8417969,16.525391 7.0571956,16.054775 8.9869058,15.75 11.5,15.75 Z"
     id="path6" />
  <path
     style="color:#000000;fill:currentColor;stroke-linecap:round;stroke-linejoin:round;-inkscape-stroke:none"
     d="m 20.023437,5.4628906 a 0.75,0.75 0 0 0 -1.060546,0.013672 0.75,0.75 0 0 0 0.01367,1.0605469 c 0,0 0.149482,0.1354984 0.353516,0.5410156 C 19.534112,7.4836422 19.75,8.1109577 19.75,9 c 0,0.8890423 -0.215888,1.516358 -0.419922,1.921875 -0.204034,0.405517 -0.353516,0.541016 -0.353516,0.541016 a 0.75,0.75 0 0 0 -0.01367,1.060547 0.75,0.75 0 0 0 1.060546,0.01367 c 0,0 0.350519,-0.353174 0.646485,-0.941406 C 20.965888,11.007471 21.25,10.135956 21.25,9 21.25,7.8640443 20.965888,6.9925287 20.669922,6.4042969 20.373956,5.816065 20.023438,5.4628906 20.023437,5.4628906 Z"
     id="path8" />
  <path
     style="color:#000000;fill:currentColor;stroke-linecap:round;stroke-linejoin:round;-inkscape-stroke:none"
     d="M 20.5,3.25 A 0.75,0.75 0 0 0 19.75,4 c 0,0.9796286 -0.658203,1.3710937 -0.658203,1.3710937 a 0.75,0.75 0 0 0 -0.220703,1.0371094 0.75,0.75 0 0 0 1.037109,0.2207031 C 19.908203,6.6289062 21.25,5.7203686 21.25,4 A 0.75,0.75 0 0 0 20.5,3.25 Z"
     id="path10" />
  <path
     style="color:#000000;fill:currentColor;stroke-linecap:round;stroke-linejoin:round;-inkscape-stroke:none"
     d="m 20.023437,11.462891 a 0.75,0.75 0 0 0 -1.060546,0.01367 0.75,0.75 0 0 0 0.01367,1.060546 c 0,0 0.149482,0.135499 0.353516,0.541016 C 19.534112,13.483642 19.75,14.110958 19.75,15 c 0,0.889042 -0.215888,1.516358 -0.419922,1.921875 -0.204034,0.405517 -0.353516,0.541016 -0.353516,0.541016 a 0.75,0.75 0 0 0 -0.01367,1.060546 0.75,0.75 0 0 0 1.060546,0.01367 c 0,0 0.350519,-0.353174 0.646485,-0.941406 C 20.965888,17.007471 21.25,16.135956 21.25,15 c 0,-1.135956 -0.284112,-2.007471 -0.580078,-2.595703 -0.295966,-0.588232 -0.646484,-0.941406 -0.646485,-0.941406 z"
     id="path12" />
  <path
     style="color:#000000;fill:currentColor;stroke-linecap:round;stroke-linejoin:round;-inkscape-stroke:none"
     d="m 19.908203,17.371094 a 0.75,0.75 0 0 0 -1.037109,0.220703 0.75,0.75 0 0 0 0.220703,1.037109 c 0,0 0.658203,0.391465 0.658203,1.371094 A 0.75,0.75 0 0 0 20.5,20.75 0.75,0.75 0 0 0 21.25,20 c 0,-1.720369 -1.341797,-2.628906 -1.341797,-2.628906 z"
     id="path14" />
</svg>
