<?xml version="1.0" encoding="UTF-8" standalone="no"?>
<svg
   width="24"
   height="24"
   stroke-width="1.5"
   viewBox="0 0 24 24"
   fill="none"
   version="1.1"
   id="svg10"
   sodipodi:docname="spock-hand-gesture.svg"
   inkscape:version="1.2.1 (9c6d41e410, 2022-07-14)"
   xmlns:inkscape="http://www.inkscape.org/namespaces/inkscape"
   xmlns:sodipodi="http://sodipodi.sourceforge.net/DTD/sodipodi-0.dtd"
   xmlns="http://www.w3.org/2000/svg"
   xmlns:svg="http://www.w3.org/2000/svg">
  <defs
     id="defs14" />
  <sodipodi:namedview
     id="namedview12"
     pagecolor="#ffffff"
     bordercolor="#666666"
     borderopacity="1.0"
     inkscape:showpageshadow="2"
     inkscape:pageopacity="0.0"
     inkscape:pagecheckerboard="0"
     inkscape:deskcolor="#d1d1d1"
     showgrid="false"
     inkscape:zoom="34.541667"
     inkscape:cx="10.364294"
     inkscape:cy="12.014475"
     inkscape:window-width="1920"
     inkscape:window-height="1009"
     inkscape:window-x="1912"
     inkscape:window-y="-8"
     inkscape:window-maximized="1"
     inkscape:current-layer="svg10" />
  <path
     style="color:#000000;fill:currentColor;stroke-linecap:round;stroke-linejoin:round;-inkscape-stroke:none"
     d="m 18.123047,6.7597656 a 0.75,0.75 0 0 0 -0.863281,0.6171875 0.75,0.75 0 0 0 0.617187,0.8632813 l 0.917969,0.1523437 c 0.717197,0.1195329 1.173341,0.7940633 1.015625,1.5039063 L 19.28125,12.273438 C 19.259715,12.370233 19.25,12.467812 19.25,12.566406 V 17.5 c 0,1.599998 -1.266669,3.25 -3.25,3.25 H 9.4199219 c -0.365386,0 -0.7114246,-0.158112 -0.9492188,-0.435547 L 3.921875,15.007813 c -0.263349,-0.307224 -0.2703461,-0.746574 -0.017578,-1.0625 0.3332695,-0.416628 0.9260681,-0.428782 1.2773437,-0.02734 l 2.2539063,2.576172 A 0.750075,0.750075 0 0 0 8.75,16 V 12.5 A 0.75,0.75 0 0 0 8,11.75 0.75,0.75 0 0 0 7.25,12.5 v 1.503906 L 6.3105469,12.929688 c -0.9467631,-1.081961 -2.6799958,-1.044646 -3.578125,0.07813 -0.6970911,0.871272 -0.6754088,2.127434 0.050781,2.974609 l 4.5488281,5.30664 C 7.8541563,21.898227 8.617609,22.25 9.4199219,22.25 H 16 c 2.816664,0 4.75,-2.350002 4.75,-4.75 v -4.919922 l 0.525391,-2.357422 C 21.615074,8.6938214 20.587769,7.1715292 19.042969,6.9140625 Z"
     id="path2" />
  <path
     style="color:#000000;fill:currentColor;stroke-linecap:round;stroke-linejoin:round;-inkscape-stroke:none"
     d="M 8.8769531,4.2597656 8.0859375,4.3925781 C 6.4788235,4.6604373 5.4469195,6.2927816 5.8945312,7.859375 l 1.3847657,4.845703 a 0.75,0.75 0 0 0 0.9257812,0.515625 0.75,0.75 0 0 0 0.515625,-0.925781 L 7.3359375,7.4472656 C 7.1274899,6.7177213 7.5836076,5.9958342 8.3320313,5.8710937 L 9.1230469,5.7402344 A 0.75,0.75 0 0 0 9.7402344,4.8769531 0.75,0.75 0 0 0 8.8769531,4.2597656 Z"
     id="path4" />
  <path
     style="color:#000000;fill:currentColor;stroke-linecap:round;stroke-linejoin:round;-inkscape-stroke:none"
     d="M 10.015625,1.9863281 C 8.7125124,2.2034987 7.8610606,3.5193138 8.1972656,4.796875 l 2.0781254,7.894531 a 0.75,0.75 0 0 0 0.916015,0.533203 0.75,0.75 0 0 0 0.533203,-0.916015 L 9.6484375,4.4160156 C 9.5309629,3.9696185 9.8063531,3.542686 10.261719,3.4667969 c 0.395888,-0.065987 0.763068,0.1703867 0.865234,0.5585937 l 2.148438,8.1660154 a 0.75,0.75 0 0 0 0.916015,0.533203 0.75,0.75 0 0 0 0.533203,-0.916015 L 12.576172,3.6445313 C 12.280139,2.5196798 11.162935,1.7950949 10.015625,1.9863281 Z"
     id="path6" />
  <path
     style="color:#000000;fill:currentColor;stroke-linecap:round;stroke-linejoin:round;-inkscape-stroke:none"
     d="M 17.107422,3.5078125 C 15.888058,3.3045803 14.714136,4.1267419 14.486328,5.3417969 l -1.222656,6.5195311 a 0.75,0.75 0 0 0 0.597656,0.875 0.75,0.75 0 0 0 0.875,-0.597656 l 1.222656,-6.5214845 c 0.08039,-0.4287834 0.47211,-0.7025669 0.902344,-0.6308594 0.436987,0.072833 0.719282,0.46926 0.646484,0.90625 l -0.246093,1.4726563 -0.998047,4.9882816 a 0.75,0.75 0 0 0 0.589844,0.882812 0.75,0.75 0 0 0 0.882812,-0.589844 l 1,-4.9999996 a 0.750075,0.750075 0 0 0 0.0039,-0.023437 l 0.246094,-1.484375 a 0.750075,0.750075 0 0 0 0.002,0 C 19.194283,4.9020836 18.344033,3.7139194 17.107422,3.5078125 Z"
     id="path8" />
</svg>
