<?xml version="1.0" encoding="UTF-8" standalone="no"?>
<svg
   width="24"
   height="24"
   viewBox="0 0 24 24"
   stroke-width="1.5"
   fill="none"
   version="1.1"
   id="svg10"
   sodipodi:docname="spotify.svg"
   inkscape:version="1.2.1 (9c6d41e410, 2022-07-14)"
   xmlns:inkscape="http://www.inkscape.org/namespaces/inkscape"
   xmlns:sodipodi="http://sodipodi.sourceforge.net/DTD/sodipodi-0.dtd"
   xmlns="http://www.w3.org/2000/svg"
   xmlns:svg="http://www.w3.org/2000/svg">
  <defs
     id="defs14" />
  <sodipodi:namedview
     id="namedview12"
     pagecolor="#ffffff"
     bordercolor="#666666"
     borderopacity="1.0"
     inkscape:showpageshadow="2"
     inkscape:pageopacity="0.0"
     inkscape:pagecheckerboard="0"
     inkscape:deskcolor="#d1d1d1"
     showgrid="false"
     inkscape:zoom="34.541667"
     inkscape:cx="10.364294"
     inkscape:cy="12.014475"
     inkscape:window-width="1920"
     inkscape:window-height="1009"
     inkscape:window-x="1912"
     inkscape:window-y="-8"
     inkscape:window-maximized="1"
     inkscape:current-layer="svg10" />
  <path
     style="color:#000000;fill:currentColor;stroke-linecap:round;stroke-linejoin:round;-inkscape-stroke:none"
     d="m 9.7871094,13.998047 c -1.7725287,0.0024 -2.9492188,0.269531 -2.9492188,0.269531 a 0.75,0.75 0 0 0 -0.5703125,0.894531 0.75,0.75 0 0 0 0.8945313,0.570313 c 0,0 4.2875676,-0.933824 8.5332036,0.953125 a 0.75,0.75 0 0 0 0.990234,-0.38086 0.75,0.75 0 0 0 -0.38086,-0.990234 C 13.92751,14.25793 11.559638,13.995611 9.7871094,13.998047 Z"
     id="path2" />
  <path
     style="color:#000000;fill:currentColor;stroke-linecap:round;stroke-linejoin:round;-inkscape-stroke:none"
     d="m 10.105469,10.867188 c -2.2267464,0.003 -3.7871096,0.404296 -3.7871096,0.404296 a 0.75,0.75 0 0 0 -0.546875,0.910157 0.75,0.75 0 0 0 0.9101562,0.546875 c 0,0 5.7532054,-1.392999 10.4316404,1.414062 a 0.75,0.75 0 0 0 1.029297,-0.255859 0.75,0.75 0 0 0 -0.255859,-1.029297 c -2.660778,-1.596466 -5.554504,-1.99323 -7.78125,-1.990234 z"
     id="path4" />
  <path
     style="color:#000000;fill:currentColor;stroke-linecap:round;stroke-linejoin:round;-inkscape-stroke:none"
     d="M 11.818359,7.9433594 C 9.4753206,7.7471336 7.4036091,8.0053331 5.8769531,8.2597656 A 0.75,0.75 0 0 0 5.2597656,9.1230469 0.75,0.75 0 0 0 6.1230469,9.7402344 C 9.0697289,9.2491403 13.833963,8.7750448 18.613281,11.642578 a 0.75,0.75 0 0 0 1.029297,-0.255859 0.75,0.75 0 0 0 -0.255859,-1.029297 C 16.776383,8.7912515 14.161398,8.1395852 11.818359,7.9433594 Z"
     id="path6" />
  <path
     style="color:#000000;fill:currentColor;stroke-linecap:round;stroke-linejoin:round;-inkscape-stroke:none"
     d="M 12,1.25 C 6.0718263,1.25 1.25,6.0718263 1.25,12 1.25,17.928127 6.0718217,22.75 12,22.75 17.928132,22.75 22.75,17.928132 22.75,12 22.75,6.0718217 17.928127,1.25 12,1.25 Z m 0,1.5 c 5.117462,0 9.25,4.1324893 9.25,9.25 0,5.117457 -4.132543,9.25 -9.25,9.25 C 6.8824893,21.25 2.75,17.117462 2.75,12 2.75,6.8824848 6.8824848,2.75 12,2.75 Z"
     id="path8" />
</svg>
