<?xml version="1.0" encoding="UTF-8" standalone="no"?>
<svg
   width="24"
   height="24"
   viewBox="0 0 24 24"
   stroke-width="1.5"
   fill="none"
   version="1.1"
   id="svg20"
   sodipodi:docname="square-3d-three-points.svg"
   inkscape:version="1.2.1 (9c6d41e410, 2022-07-14)"
   xmlns:inkscape="http://www.inkscape.org/namespaces/inkscape"
   xmlns:sodipodi="http://sodipodi.sourceforge.net/DTD/sodipodi-0.dtd"
   xmlns="http://www.w3.org/2000/svg"
   xmlns:svg="http://www.w3.org/2000/svg">
  <defs
     id="defs24" />
  <sodipodi:namedview
     id="namedview22"
     pagecolor="#ffffff"
     bordercolor="#666666"
     borderopacity="1.0"
     inkscape:showpageshadow="2"
     inkscape:pageopacity="0.0"
     inkscape:pagecheckerboard="0"
     inkscape:deskcolor="#d1d1d1"
     showgrid="false"
     inkscape:zoom="34.541667"
     inkscape:cx="10.364294"
     inkscape:cy="12.014475"
     inkscape:window-width="1920"
     inkscape:window-height="1009"
     inkscape:window-x="1912"
     inkscape:window-y="-8"
     inkscape:window-maximized="1"
     inkscape:current-layer="svg20" />
  <path
     style="color:#000000;fill:currentColor;-inkscape-stroke:none"
     d="M 3.5996094,2.25 C 2.8629077,2.25 2.25,2.8629077 2.25,3.5996094 V 21 h 1.5 V 3.75 H 21 v -1.5 z"
     id="path2" />
  <path
     style="color:#000000;fill:currentColor;stroke-linecap:round;stroke-linejoin:round;-inkscape-stroke:none"
     d="M 21,16.25 A 0.75,0.75 0 0 0 20.25,17 v 3.25 H 17 A 0.75,0.75 0 0 0 16.25,21 0.75,0.75 0 0 0 17,21.75 h 3.400391 C 21.13704,21.75 21.75,21.13704 21.75,20.400391 V 17 A 0.75,0.75 0 0 0 21,16.25 Z"
     id="path4" />
  <path
     style="color:#000000;fill:currentColor;stroke-linecap:round;stroke-linejoin:round;-inkscape-stroke:none"
     d="M 21,6.25 A 0.75,0.75 0 0 0 20.25,7 V 9 A 0.75,0.75 0 0 0 21,9.75 0.75,0.75 0 0 0 21.75,9 V 7 A 0.75,0.75 0 0 0 21,6.25 Z"
     id="path6" />
  <path
     style="color:#000000;fill:currentColor;stroke-linecap:round;stroke-linejoin:round;-inkscape-stroke:none"
     d="M 21,11.25 A 0.75,0.75 0 0 0 20.25,12 v 2 A 0.75,0.75 0 0 0 21,14.75 0.75,0.75 0 0 0 21.75,14 V 12 A 0.75,0.75 0 0 0 21,11.25 Z"
     id="path8" />
  <path
     style="color:#000000;fill:currentColor;stroke-linecap:round;stroke-linejoin:round;-inkscape-stroke:none"
     d="M 7,20.25 A 0.75,0.75 0 0 0 6.25,21 0.75,0.75 0 0 0 7,21.75 H 9 A 0.75,0.75 0 0 0 9.75,21 0.75,0.75 0 0 0 9,20.25 Z"
     id="path10" />
  <path
     style="color:#000000;fill:currentColor;stroke-linecap:round;stroke-linejoin:round;-inkscape-stroke:none"
     d="M 12,20.25 A 0.75,0.75 0 0 0 11.25,21 0.75,0.75 0 0 0 12,21.75 h 2 A 0.75,0.75 0 0 0 14.75,21 0.75,0.75 0 0 0 14,20.25 Z"
     id="path12" />
  <g
     id="path14">
    <path
       style="color:#000000;fill:currentColor;stroke-width:1.5;stroke-linecap:round;stroke-linejoin:round;-inkscape-stroke:none"
       d="M 3,4 C 3.55228,4 4,3.55228 4,3 4,2.44772 3.55228,2 3,2 2.44772,2 2,2.44772 2,3 2,3.55228 2.44772,4 3,4 Z"
       id="path267" />
    <path
       style="color:#000000;fill:currentColor;stroke-linecap:round;stroke-linejoin:round;-inkscape-stroke:none"
       d="M 3,1.25 C 2.0423831,1.25 1.25,2.0423831 1.25,3 1.25,3.9576169 2.0423831,4.75 3,4.75 3.9576169,4.75 4.75,3.9576169 4.75,3 4.75,2.0423831 3.9576169,1.25 3,1.25 Z m 0,1.5 C 3.146942,2.75 3.25,2.853058 3.25,3 3.25,3.146942 3.146942,3.25 3,3.25 2.853058,3.25 2.75,3.146942 2.75,3 2.75,2.853058 2.853058,2.75 3,2.75 Z"
       id="path269" />
  </g>
  <g
     id="path16">
    <path
       style="color:#000000;fill:currentColor;stroke-width:1.5;stroke-linecap:round;stroke-linejoin:round;-inkscape-stroke:none"
       d="m 3,22 c 0.55228,0 1,-0.4477 1,-1 0,-0.5523 -0.44772,-1 -1,-1 -0.55228,0 -1,0.4477 -1,1 0,0.5523 0.44772,1 1,1 z"
       id="path261" />
    <path
       style="color:#000000;fill:currentColor;stroke-linecap:round;stroke-linejoin:round;-inkscape-stroke:none"
       d="m 3,19.25 c -0.9575988,0 -1.75,0.792378 -1.75,1.75 0,0.957622 0.7924012,1.75 1.75,1.75 0.9575988,0 1.75,-0.792378 1.75,-1.75 0,-0.957622 -0.7924012,-1.75 -1.75,-1.75 z m 0,1.5 c 0.1469601,0 0.25,0.103023 0.25,0.25 0,0.146977 -0.1030399,0.25 -0.25,0.25 -0.1469601,0 -0.25,-0.103023 -0.25,-0.25 0,-0.146977 0.1030399,-0.25 0.25,-0.25 z"
       id="path263" />
  </g>
  <g
     id="path18">
    <path
       style="color:#000000;fill:currentColor;stroke-width:1.5;stroke-linecap:round;stroke-linejoin:round;-inkscape-stroke:none"
       d="m 21,4 c 0.5523,0 1,-0.44772 1,-1 0,-0.55228 -0.4477,-1 -1,-1 -0.5523,0 -1,0.44772 -1,1 0,0.55228 0.4477,1 1,1 z"
       id="path255" />
    <path
       style="color:#000000;fill:currentColor;stroke-linecap:round;stroke-linejoin:round;-inkscape-stroke:none"
       d="m 21,1.25 c -0.957622,0 -1.75,0.7924012 -1.75,1.75 0,0.9575988 0.792378,1.75 1.75,1.75 0.957622,0 1.75,-0.7924012 1.75,-1.75 0,-0.9575988 -0.792378,-1.75 -1.75,-1.75 z m 0,1.5 c 0.146977,0 0.25,0.1030399 0.25,0.25 0,0.1469601 -0.103023,0.25 -0.25,0.25 -0.146977,0 -0.25,-0.1030399 -0.25,-0.25 0,-0.1469601 0.103023,-0.25 0.25,-0.25 z"
       id="path257" />
  </g>
</svg>
