<?xml version="1.0" encoding="UTF-8" standalone="no"?>
<svg
   width="24"
   height="24"
   viewBox="0 0 24 24"
   stroke-width="1.5"
   fill="none"
   version="1.1"
   id="svg14"
   sodipodi:docname="stackoverflow.svg"
   inkscape:version="1.2.1 (9c6d41e410, 2022-07-14)"
   xmlns:inkscape="http://www.inkscape.org/namespaces/inkscape"
   xmlns:sodipodi="http://sodipodi.sourceforge.net/DTD/sodipodi-0.dtd"
   xmlns="http://www.w3.org/2000/svg"
   xmlns:svg="http://www.w3.org/2000/svg">
  <defs
     id="defs18" />
  <sodipodi:namedview
     id="namedview16"
     pagecolor="#ffffff"
     bordercolor="#666666"
     borderopacity="1.0"
     inkscape:showpageshadow="2"
     inkscape:pageopacity="0.0"
     inkscape:pagecheckerboard="0"
     inkscape:deskcolor="#d1d1d1"
     showgrid="false"
     inkscape:zoom="34.541667"
     inkscape:cx="10.364294"
     inkscape:cy="12.014475"
     inkscape:window-width="1920"
     inkscape:window-height="1009"
     inkscape:window-x="1912"
     inkscape:window-y="-8"
     inkscape:window-maximized="1"
     inkscape:current-layer="svg14" />
  <path
     style="color:#000000;fill:currentColor;stroke-linecap:round;stroke-linejoin:round;-inkscape-stroke:none"
     d="M 5,14.25 A 0.75,0.75 0 0 0 4.25,15 v 6 A 0.750075,0.750075 0 0 0 5,21.75 H 19 A 0.750075,0.750075 0 0 0 19.75,21 V 15 A 0.75,0.75 0 0 0 19,14.25 0.75,0.75 0 0 0 18.25,15 v 5.25 H 5.75 V 15 A 0.75,0.75 0 0 0 5,14.25 Z"
     id="path2" />
  <path
     style="color:#000000;fill:currentColor;stroke-linecap:round;stroke-linejoin:round;-inkscape-stroke:none"
     d="M 8,16.25 A 0.75,0.75 0 0 0 7.25,17 0.75,0.75 0 0 0 8,17.75 h 8 A 0.75,0.75 0 0 0 16.75,17 0.75,0.75 0 0 0 16,16.25 Z"
     id="path4" />
  <path
     style="color:#000000;fill:currentColor;stroke-linecap:round;stroke-linejoin:round;-inkscape-stroke:none"
     d="m 8.2441406,12.265625 a 0.75,0.75 0 0 0 -0.890625,0.578125 0.75,0.75 0 0 0 0.578125,0.890625 l 7.8242184,1.662109 a 0.75,0.75 0 0 0 0.890625,-0.578125 0.75,0.75 0 0 0 -0.578125,-0.888671 z"
     id="path6" />
  <path
     style="color:#000000;fill:currentColor;stroke-linecap:round;stroke-linejoin:round;-inkscape-stroke:none"
     d="M 9.7792969,8.3203125 A 0.75,0.75 0 0 0 8.7832031,8.6835938 0.75,0.75 0 0 0 9.1445313,9.6796875 l 7.2519527,3.3808595 a 0.75,0.75 0 0 0 0.996094,-0.363281 0.75,0.75 0 0 0 -0.363281,-0.996094 z"
     id="path8" />
  <path
     style="color:#000000;fill:currentColor;stroke-linecap:round;stroke-linejoin:round;-inkscape-stroke:none"
     d="m 11.978516,4.7519531 a 0.75,0.75 0 0 0 -0.507813,0.265625 0.75,0.75 0 0 0 0.0918,1.0566406 l 6.128906,5.1425783 a 0.75,0.75 0 0 0 1.056641,-0.0918 0.75,0.75 0 0 0 -0.09375,-1.056641 L 12.527344,4.9257812 A 0.75,0.75 0 0 0 11.978516,4.7519531 Z"
     id="path10" />
  <path
     style="color:#000000;fill:currentColor;stroke-linecap:round;stroke-linejoin:round;-inkscape-stroke:none"
     d="M 15.199219,1.7558594 A 0.75,0.75 0 0 0 14.646484,1.9082031 0.75,0.75 0 0 0 14.517578,2.9609375 L 19.443359,9.265625 A 0.75,0.75 0 0 0 20.496094,9.3945313 0.75,0.75 0 0 0 20.625,8.3417969 L 15.699219,2.0390625 a 0.75,0.75 0 0 0 -0.5,-0.2832031 z"
     id="path12" />
</svg>
