<?xml version="1.0" encoding="UTF-8" standalone="no"?>
<svg
   width="24"
   height="24"
   stroke-width="1.5"
   viewBox="0 0 24 24"
   fill="none"
   version="1.1"
   id="svg4"
   sodipodi:docname="star.svg"
   inkscape:version="1.2.1 (9c6d41e410, 2022-07-14)"
   xmlns:inkscape="http://www.inkscape.org/namespaces/inkscape"
   xmlns:sodipodi="http://sodipodi.sourceforge.net/DTD/sodipodi-0.dtd"
   xmlns="http://www.w3.org/2000/svg"
   xmlns:svg="http://www.w3.org/2000/svg">
  <defs
     id="defs8" />
  <sodipodi:namedview
     id="namedview6"
     pagecolor="#ffffff"
     bordercolor="#666666"
     borderopacity="1.0"
     inkscape:showpageshadow="2"
     inkscape:pageopacity="0.0"
     inkscape:pagecheckerboard="0"
     inkscape:deskcolor="#d1d1d1"
     showgrid="false"
     inkscape:zoom="34.541667"
     inkscape:cx="10.364294"
     inkscape:cy="12.014475"
     inkscape:window-width="1920"
     inkscape:window-height="1009"
     inkscape:window-x="1912"
     inkscape:window-y="-8"
     inkscape:window-maximized="1"
     inkscape:current-layer="svg4" />
  <path
     style="color:#000000;fill:currentColor;stroke-linecap:round;stroke-linejoin:round;-inkscape-stroke:none"
     d="m 12,1.7792969 c -0.59614,0 -1.191716,0.2970892 -1.486328,0.890625 L 8.0898438,7.5507812 2.6699219,8.3378906 C 1.3604406,8.5281897 0.80256271,10.238927 1.7539062,11.160156 l 3.9179688,3.794922 -0.9238281,5.359375 c -0.2253386,1.306454 1.2310047,2.357644 2.4042968,1.744141 L 12,19.523437 l 4.847656,2.535157 c 1.173302,0.613481 2.629706,-0.437689 2.404297,-1.744141 l -0.923828,-5.359375 3.917969,-3.794922 c 0.951234,-0.92126 0.39347,-2.6319656 -0.916016,-2.8222654 L 15.910156,7.5507812 13.486328,2.6699219 C 13.191716,2.0763861 12.59614,1.7792969 12,1.7792969 Z m -0.142578,1.5585937 c 0.07758,-0.1562871 0.20758,-0.1562871 0.285156,0 l 2.597656,5.2324219 a 0.750075,0.750075 0 0 0 0.564454,0.4082031 l 5.808593,0.84375 c 0.181113,0.02632 0.217609,0.1379798 0.08984,0.2617184 L 17,14.152344 a 0.750075,0.750075 0 0 0 -0.216797,0.666015 l 0.992188,5.75 c 0.02939,0.170347 -0.07193,0.244075 -0.232422,0.160157 l -5.195313,-2.714844 a 0.750075,0.750075 0 0 0 -0.695312,0 l -5.1953128,2.714844 c -0.1604465,0.0839 -0.261803,0.01019 -0.2324218,-0.160157 l 0.9921875,-5.75 A 0.750075,0.750075 0 0 0 7,14.152344 L 2.796875,10.083984 C 2.6690596,9.9602149 2.7056015,9.8485863 2.8867188,9.8222656 l 5.8085937,-0.84375 A 0.750075,0.750075 0 0 0 9.2597656,8.5703125 Z"
     id="path2" />
</svg>
