<?xml version="1.0" encoding="UTF-8" standalone="no"?>
<svg
   width="24"
   height="24"
   stroke-width="1.5"
   viewBox="0 0 24 24"
   fill="none"
   version="1.1"
   id="svg16"
   sodipodi:docname="star-half-dashed.svg"
   inkscape:version="1.2.1 (9c6d41e410, 2022-07-14)"
   xmlns:inkscape="http://www.inkscape.org/namespaces/inkscape"
   xmlns:sodipodi="http://sodipodi.sourceforge.net/DTD/sodipodi-0.dtd"
   xmlns="http://www.w3.org/2000/svg"
   xmlns:svg="http://www.w3.org/2000/svg">
  <defs
     id="defs20" />
  <sodipodi:namedview
     id="namedview18"
     pagecolor="#ffffff"
     bordercolor="#666666"
     borderopacity="1.0"
     inkscape:showpageshadow="2"
     inkscape:pageopacity="0.0"
     inkscape:pagecheckerboard="0"
     inkscape:deskcolor="#d1d1d1"
     showgrid="false"
     inkscape:zoom="34.541667"
     inkscape:cx="10.364294"
     inkscape:cy="12.014475"
     inkscape:window-width="1920"
     inkscape:window-height="1009"
     inkscape:window-x="1912"
     inkscape:window-y="-8"
     inkscape:window-maximized="1"
     inkscape:current-layer="svg16" />
  <path
     style="color:#000000;fill:currentColor;stroke-linecap:round;stroke-linejoin:round;-inkscape-stroke:none"
     d="m 12,1.7792969 c -0.596121,-8.6e-6 -1.191664,0.2971618 -1.486328,0.890625 l -0.496094,0.9980469 a 0.75,0.75 0 0 0 0.337891,1.0058593 0.75,0.75 0 0 0 1.005859,-0.3378906 l 0.496094,-0.9980469 c 0.07767,-0.1564323 0.207554,-0.1563406 0.285156,0 a 0.75,0.75 0 0 0 1.00586,0.3378907 0.75,0.75 0 0 0 0.33789,-1.0058594 C 13.19173,2.0764129 12.596121,1.7793055 12,1.7792969 Z"
     id="path2" />
  <path
     style="color:#000000;fill:currentColor;stroke-linecap:round;stroke-linejoin:round;-inkscape-stroke:none"
     d="m 11.652344,18.013672 -1.572266,0.822265 a 0.75,0.75 0 0 0 -0.3164061,1.011719 0.75,0.75 0 0 0 1.0117191,0.316406 l 1.572265,-0.822265 a 0.75,0.75 0 0 0 0.316407,-1.011719 0.75,0.75 0 0 0 -1.011719,-0.316406 z"
     id="path4" />
  <path
     style="color:#000000;fill:currentColor;stroke-linecap:round;stroke-linejoin:round;-inkscape-stroke:none"
     d="m 5.7988281,18.628906 a 0.75,0.75 0 0 0 -0.8671875,0.613281 l -0.1835937,1.072266 c -0.2253852,1.306445 1.2309525,2.357671 2.4042968,1.744141 L 8,21.615234 A 0.75,0.75 0 0 0 8.3164063,20.603516 0.75,0.75 0 0 0 7.3046875,20.287109 l -0.8476563,0.441407 c -0.1603943,0.08387 -0.2617764,0.01 -0.2324218,-0.160157 L 6.4101562,19.496094 A 0.75,0.75 0 0 0 5.7988281,18.628906 Z"
     id="path6" />
  <path
     style="color:#000000;fill:currentColor;stroke-linecap:round;stroke-linejoin:round;-inkscape-stroke:none"
     d="m 5.7714844,13.269531 a 0.75,0.75 0 0 0 -0.5273438,0.226563 0.75,0.75 0 0 0 0.017578,1.060547 L 5.671875,14.955078 5.5136719,15.873047 A 0.75,0.75 0 0 0 6.125,16.738281 0.75,0.75 0 0 0 6.9921875,16.126953 L 7.2167969,14.818359 A 0.750075,0.750075 0 0 0 7,14.152344 L 6.3046875,13.480469 A 0.75,0.75 0 0 0 5.7714844,13.269531 Z"
     id="path8" />
  <path
     style="color:#000000;fill:currentColor;stroke-linecap:round;stroke-linejoin:round;-inkscape-stroke:none"
     d="M 3.78125,8.1757813 2.6699219,8.3378906 C 1.3604854,8.5282008 0.8026788,10.238863 1.7539062,11.160156 l 1.4238282,1.378907 a 0.75,0.75 0 0 0 1.0605468,-0.01758 0.75,0.75 0 0 0 -0.017578,-1.060546 L 2.796875,10.083984 C 2.6689435,9.9600788 2.7055567,9.8485953 2.8867188,9.8222656 L 3.9980469,9.6601563 A 0.75,0.75 0 0 0 4.6308594,8.8105469 0.75,0.75 0 0 0 3.78125,8.1757813 Z"
     id="path10" />
  <path
     style="color:#000000;fill:currentColor;stroke-linecap:round;stroke-linejoin:round;-inkscape-stroke:none"
     d="M 9.7246094,5.9453125 A 0.75,0.75 0 0 0 8.71875,6.2851562 L 8.0898438,7.5507812 6.8925781,7.7246094 A 0.75,0.75 0 0 0 6.2578125,8.5742188 0.75,0.75 0 0 0 7.1074219,9.2089844 L 8.6953125,8.9785156 A 0.750075,0.750075 0 0 0 9.2597656,8.5703125 L 10.0625,6.9511719 A 0.75,0.75 0 0 0 9.7246094,5.9453125 Z"
     id="path12" />
  <path
     style="color:#000000;fill:currentColor;stroke-linecap:round;stroke-linejoin:round;-inkscape-stroke:none"
     d="M 12,1.75 A 0.750075,0.750075 0 0 0 11.25,2.5 v 16.177734 a 0.750075,0.750075 0 0 0 0.402344,0.664063 l 5.195312,2.716797 c 1.173302,0.613481 2.629706,-0.437689 2.404297,-1.744141 l -0.923828,-5.359375 3.917969,-3.794922 c 0.951234,-0.92126 0.39347,-2.6319656 -0.916016,-2.8222654 L 15.910156,7.5507812 13.486328,2.6699219 C 13.191716,2.0763861 12.583175,1.75 12,1.75 Z m 0.75,2.8105469 1.990234,4.0097656 a 0.750075,0.750075 0 0 0 0.564454,0.4082031 l 5.808593,0.84375 c 0.181113,0.02632 0.217609,0.1379798 0.08984,0.2617184 L 17,14.152344 a 0.750075,0.750075 0 0 0 -0.216797,0.666015 l 0.992188,5.75 c 0.02939,0.170347 -0.07193,0.244075 -0.232422,0.160157 L 12.75,18.224609 Z"
     id="path14" />
</svg>
