<?xml version="1.0" encoding="UTF-8" standalone="no"?>
<svg
   width="24"
   height="24"
   stroke-width="1.5"
   viewBox="0 0 24 24"
   fill="none"
   version="1.1"
   id="svg22"
   sodipodi:docname="star-dashed.svg"
   inkscape:version="1.2.1 (9c6d41e410, 2022-07-14)"
   xmlns:inkscape="http://www.inkscape.org/namespaces/inkscape"
   xmlns:sodipodi="http://sodipodi.sourceforge.net/DTD/sodipodi-0.dtd"
   xmlns="http://www.w3.org/2000/svg"
   xmlns:svg="http://www.w3.org/2000/svg">
  <defs
     id="defs26" />
  <sodipodi:namedview
     id="namedview24"
     pagecolor="#ffffff"
     bordercolor="#666666"
     borderopacity="1.0"
     inkscape:showpageshadow="2"
     inkscape:pageopacity="0.0"
     inkscape:pagecheckerboard="0"
     inkscape:deskcolor="#d1d1d1"
     showgrid="false"
     inkscape:zoom="34.541667"
     inkscape:cx="10.364294"
     inkscape:cy="12.014475"
     inkscape:window-width="1920"
     inkscape:window-height="1009"
     inkscape:window-x="1912"
     inkscape:window-y="-8"
     inkscape:window-maximized="1"
     inkscape:current-layer="svg22" />
  <path
     style="color:#000000;fill:currentColor;stroke-linecap:round;stroke-linejoin:round;-inkscape-stroke:none"
     d="m 12,1.7792969 c -0.596121,-8.6e-6 -1.191664,0.2971618 -1.486328,0.890625 l -0.496094,0.9980469 a 0.75,0.75 0 0 0 0.337891,1.0058593 0.75,0.75 0 0 0 1.005859,-0.3378906 l 0.496094,-0.9980469 c 0.07767,-0.1564323 0.207554,-0.1563406 0.285156,0 l 0.992188,1.9960938 A 0.75,0.75 0 0 0 14.140625,5.671875 0.75,0.75 0 0 0 14.478516,4.6660156 L 13.486328,2.6699219 C 13.19173,2.0764129 12.596121,1.7793055 12,1.7792969 Z"
     id="path2" />
  <path
     style="color:#000000;fill:currentColor;stroke-linecap:round;stroke-linejoin:round;-inkscape-stroke:none"
     d="m 15.25,6.7167969 a 0.75,0.75 0 0 0 -0.572266,0.039063 0.75,0.75 0 0 0 -0.33789,1.0039062 l 0.40039,0.8105469 a 0.750075,0.750075 0 0 0 0.564454,0.4082031 l 1.453124,0.2109375 A 0.75,0.75 0 0 0 17.607422,8.5546875 0.75,0.75 0 0 0 16.972656,7.7050781 L 15.910156,7.5507812 15.683594,7.09375 A 0.75,0.75 0 0 0 15.25,6.7167969 Z"
     id="path4" />
  <path
     style="color:#000000;fill:currentColor;stroke-linecap:round;stroke-linejoin:round;-inkscape-stroke:none"
     d="m 19.876953,8.1269531 a 0.75,0.75 0 0 0 -0.849609,0.6347657 0.75,0.75 0 0 0 0.634765,0.8496093 l 1.451172,0.2109375 c 0.181135,0.026323 0.217666,0.1379471 0.08984,0.2617184 l -1.050781,1.017579 a 0.75,0.75 0 0 0 -0.01758,1.060546 0.75,0.75 0 0 0 1.060546,0.01563 l 1.050782,-1.017578 C 23.19747,10.238929 22.639542,8.5281871 21.330078,8.3378906 Z"
     id="path6" />
  <path
     style="color:#000000;fill:currentColor;stroke-linecap:round;stroke-linejoin:round;-inkscape-stroke:none"
     d="m 18.583984,12.923828 a 0.75,0.75 0 0 0 -0.533203,0.210938 L 17,14.152344 a 0.750075,0.750075 0 0 0 -0.216797,0.666015 l 0.248047,1.4375 a 0.75,0.75 0 0 0 0.865234,0.613282 0.75,0.75 0 0 0 0.611328,-0.867188 l -0.179687,-1.046875 0.765625,-0.742187 a 0.75,0.75 0 0 0 0.01758,-1.060547 0.75,0.75 0 0 0 -0.527344,-0.228516 z"
     id="path8" />
  <path
     style="color:#000000;fill:currentColor;stroke-linecap:round;stroke-linejoin:round;-inkscape-stroke:none"
     d="m 18.138672,18.265625 a 0.75,0.75 0 0 0 -0.611328,0.865234 l 0.246093,1.4375 c 0.02774,0.168284 -0.07089,0.243597 -0.230468,0.160157 l -1.298828,-0.677735 a 0.75,0.75 0 0 0 -1.013672,0.316406 0.75,0.75 0 0 0 0.318359,1.011719 l 1.298828,0.679688 c 1.173302,0.613481 2.629706,-0.437689 2.404297,-1.744141 l -0.248047,-1.4375 a 0.75,0.75 0 0 0 -0.865234,-0.611328 z"
     id="path10" />
  <path
     style="color:#000000;fill:currentColor;stroke-linecap:round;stroke-linejoin:round;-inkscape-stroke:none"
     d="m 11.652344,18.013672 -1.572266,0.822265 a 0.75,0.75 0 0 0 -0.3164061,1.011719 0.75,0.75 0 0 0 1.0117191,0.316406 L 12,19.523437 l 0.951172,0.498047 a 0.75,0.75 0 0 0 1.011719,-0.316406 0.75,0.75 0 0 0 -0.316407,-1.013672 l -1.298828,-0.677734 a 0.750075,0.750075 0 0 0 -0.695312,0 z"
     id="path12" />
  <path
     style="color:#000000;fill:currentColor;stroke-linecap:round;stroke-linejoin:round;-inkscape-stroke:none"
     d="m 5.7988281,18.628906 a 0.75,0.75 0 0 0 -0.8671875,0.613281 l -0.1835937,1.072266 c -0.2253852,1.306445 1.2309525,2.357671 2.4042968,1.744141 L 8,21.615234 A 0.75,0.75 0 0 0 8.3164063,20.603516 0.75,0.75 0 0 0 7.3046875,20.287109 l -0.8476563,0.441407 c -0.1603943,0.08387 -0.2617764,0.01 -0.2324218,-0.160157 L 6.4101562,19.496094 A 0.75,0.75 0 0 0 5.7988281,18.628906 Z"
     id="path14" />
  <path
     style="color:#000000;fill:currentColor;stroke-linecap:round;stroke-linejoin:round;-inkscape-stroke:none"
     d="m 5.7714844,13.269531 a 0.75,0.75 0 0 0 -0.5273438,0.226563 0.75,0.75 0 0 0 0.017578,1.060547 L 5.671875,14.955078 5.5136719,15.873047 A 0.75,0.75 0 0 0 6.125,16.738281 0.75,0.75 0 0 0 6.9921875,16.126953 L 7.2167969,14.818359 A 0.750075,0.750075 0 0 0 7,14.152344 L 6.3046875,13.480469 A 0.75,0.75 0 0 0 5.7714844,13.269531 Z"
     id="path16" />
  <path
     style="color:#000000;fill:currentColor;stroke-linecap:round;stroke-linejoin:round;-inkscape-stroke:none"
     d="M 3.78125,8.1757813 2.6699219,8.3378906 C 1.3604854,8.5282008 0.8026788,10.238863 1.7539062,11.160156 l 1.4238282,1.378907 a 0.75,0.75 0 0 0 1.0605468,-0.01758 0.75,0.75 0 0 0 -0.017578,-1.060546 L 2.796875,10.083984 C 2.6689435,9.9600788 2.7055567,9.8485953 2.8867188,9.8222656 L 3.9980469,9.6601563 A 0.75,0.75 0 0 0 4.6308594,8.8105469 0.75,0.75 0 0 0 3.78125,8.1757813 Z"
     id="path18" />
  <path
     style="color:#000000;fill:currentColor;stroke-linecap:round;stroke-linejoin:round;-inkscape-stroke:none"
     d="M 9.7246094,5.9453125 A 0.75,0.75 0 0 0 8.71875,6.2851562 L 8.0898438,7.5507812 6.8925781,7.7246094 A 0.75,0.75 0 0 0 6.2578125,8.5742188 0.75,0.75 0 0 0 7.1074219,9.2089844 L 8.6953125,8.9785156 A 0.750075,0.750075 0 0 0 9.2597656,8.5703125 L 10.0625,6.9511719 A 0.75,0.75 0 0 0 9.7246094,5.9453125 Z"
     id="path20" />
</svg>
