<?xml version="1.0" encoding="UTF-8" standalone="no"?>
<svg
   width="24"
   height="24"
   viewBox="0 0 24 24"
   stroke-width="1.5"
   fill="none"
   version="1.1"
   id="svg10"
   sodipodi:docname="strategy.svg"
   inkscape:version="1.2.1 (9c6d41e410, 2022-07-14)"
   xmlns:inkscape="http://www.inkscape.org/namespaces/inkscape"
   xmlns:sodipodi="http://sodipodi.sourceforge.net/DTD/sodipodi-0.dtd"
   xmlns="http://www.w3.org/2000/svg"
   xmlns:svg="http://www.w3.org/2000/svg">
  <defs
     id="defs14" />
  <sodipodi:namedview
     id="namedview12"
     pagecolor="#ffffff"
     bordercolor="#666666"
     borderopacity="1.0"
     inkscape:showpageshadow="2"
     inkscape:pageopacity="0.0"
     inkscape:pagecheckerboard="0"
     inkscape:deskcolor="#d1d1d1"
     showgrid="false"
     inkscape:zoom="34.541667"
     inkscape:cx="10.364294"
     inkscape:cy="12.014475"
     inkscape:window-width="1920"
     inkscape:window-height="1009"
     inkscape:window-x="1912"
     inkscape:window-y="-8"
     inkscape:window-maximized="1"
     inkscape:current-layer="svg10" />
  <path
     style="color:#000000;fill:currentColor;stroke-linecap:round;stroke-linejoin:round;-inkscape-stroke:none"
     d="M 19.828125,5.2695312 C 15.525469,6.2819209 12.135603,7.5620242 9.671875,9.8925781 7.2081466,12.223132 5.7653063,15.563574 5.2539062,20.421875 a 0.75,0.75 0 0 0 0.6679688,0.824219 0.75,0.75 0 0 0 0.8242187,-0.667969 c 0.488599,-4.64169 1.7957644,-7.551261 3.9570313,-9.595703 2.161267,-2.0444418 5.271414,-3.2643449 9.46875,-4.2519533 A 0.75,0.75 0 0 0 20.730469,5.828125 0.75,0.75 0 0 0 19.828125,5.2695312 Z"
     id="path2" />
  <path
     style="color:#000000;fill:currentColor;stroke-linecap:round;stroke-linejoin:round;-inkscape-stroke:none"
     d="m 16.224609,3.1289063 a 0.75,0.75 0 0 0 -0.996093,0.3632812 0.75,0.75 0 0 0 0.363281,0.9960937 l 3.80664,1.7753907 -1.77539,3.8066411 a 0.75,0.75 0 0 0 0.363281,0.996093 0.75,0.75 0 0 0 0.996094,-0.361328 L 21.074219,6.21875 A 0.750075,0.750075 0 0 0 20.710937,5.2207031 Z"
     id="path4" />
  <path
     style="color:#000000;fill:currentColor;stroke-linecap:round;stroke-linejoin:round;-inkscape-stroke:none"
     d="M 5,2.25 C 3.4901018,2.25 2.25,3.4901018 2.25,5 2.25,6.5098982 3.4901018,7.75 5,7.75 6.5098982,7.75 7.75,6.5098982 7.75,5 7.75,3.4901018 6.5098982,2.25 5,2.25 Z m 0,1.5 C 5.6992396,3.75 6.25,4.3007604 6.25,5 6.25,5.6992396 5.6992396,6.25 5,6.25 4.3007604,6.25 3.75,5.6992396 3.75,5 3.75,4.3007604 4.3007604,3.75 5,3.75 Z"
     id="path6" />
  <path
     style="color:#000000;fill:currentColor;stroke-linecap:round;stroke-linejoin:round;-inkscape-stroke:none"
     d="m 16,15.25 a 0.75,0.75 0 0 0 -0.53125,0.21875 0.75,0.75 0 0 0 0,1.0625 l 1.591797,1.589844 -1.591797,1.591797 a 0.75,0.75 0 0 0 0,1.060546 0.75,0.75 0 0 0 1.0625,0 l 1.589844,-1.589843 1.591797,1.589843 a 0.75,0.75 0 0 0 1.060546,0 0.75,0.75 0 0 0 0,-1.060546 l -1.589843,-1.591797 1.589843,-1.589844 a 0.75,0.75 0 0 0 0,-1.0625 0.75,0.75 0 0 0 -1.060546,0 L 18.121094,17.060547 16.53125,15.46875 A 0.75,0.75 0 0 0 16,15.25 Z"
     id="path8" />
</svg>
