<?xml version="1.0" encoding="UTF-8" standalone="no"?>
<svg
   width="24"
   height="24"
   stroke-width="1.5"
   viewBox="0 0 24 24"
   fill="none"
   version="1.1"
   id="svg8"
   sodipodi:docname="stretching.svg"
   inkscape:version="1.2.1 (9c6d41e410, 2022-07-14)"
   xmlns:inkscape="http://www.inkscape.org/namespaces/inkscape"
   xmlns:sodipodi="http://sodipodi.sourceforge.net/DTD/sodipodi-0.dtd"
   xmlns="http://www.w3.org/2000/svg"
   xmlns:svg="http://www.w3.org/2000/svg">
  <defs
     id="defs12" />
  <sodipodi:namedview
     id="namedview10"
     pagecolor="#ffffff"
     bordercolor="#666666"
     borderopacity="1.0"
     inkscape:showpageshadow="2"
     inkscape:pageopacity="0.0"
     inkscape:pagecheckerboard="0"
     inkscape:deskcolor="#d1d1d1"
     showgrid="false"
     inkscape:zoom="34.541667"
     inkscape:cx="10.364294"
     inkscape:cy="12.014475"
     inkscape:window-width="1920"
     inkscape:window-height="1009"
     inkscape:window-x="1912"
     inkscape:window-y="-8"
     inkscape:window-maximized="1"
     inkscape:current-layer="svg8" />
  <path
     style="color:#000000;fill:currentColor;stroke-linecap:round;stroke-linejoin:round;-inkscape-stroke:none"
     d="m 16,2.25 c -1.509917,0 -2.75,1.2401154 -2.75,2.75 0,1.5098846 1.240083,2.75 2.75,2.75 1.509917,0 2.75,-1.2401154 2.75,-2.75 0,-1.5098846 -1.240083,-2.75 -2.75,-2.75 z m 0,1.5 c 0.699281,0 1.25,0.5507468 1.25,1.25 0,0.6992532 -0.550719,1.25 -1.25,1.25 -0.699281,0 -1.25,-0.5507468 -1.25,-1.25 0,-0.6992532 0.550719,-1.25 1.25,-1.25 z"
     id="path2" />
  <path
     style="color:#000000;fill:currentColor;stroke-linecap:round;stroke-linejoin:round;-inkscape-stroke:none"
     d="M 13.570313,8.265625 8.6621094,9.3144531 A 0.750075,0.750075 0 0 0 8.2265625,10.509766 l 1.6367188,2.095703 a 0.75,0.75 0 0 0 1.0527347,0.128906 0.75,0.75 0 0 0 0.128906,-1.052734 L 10.148438,10.53125 12.757813,9.9746094 11.923828,13.984375 9.4296875,18.773437 4.9199219,19.253906 a 0.75,0.75 0 0 0 -0.6660157,0.826172 0.75,0.75 0 0 0 0.8261719,0.666016 l 4.9082032,-0.523438 a 0.750075,0.750075 0 0 0 0.5859377,-0.40039 l 2.726562,-5.238282 a 0.750075,0.750075 0 0 0 0.07031,-0.193359 L 14.460938,9.1523438 A 0.750075,0.750075 0 0 0 13.570313,8.265625 Z"
     id="path4" />
  <path
     style="color:#000000;fill:currentColor;stroke-linecap:round;stroke-linejoin:round;-inkscape-stroke:none"
     d="m 14.818359,14.535156 a 0.75,0.75 0 0 0 -0.75,0.75 0.75,0.75 0 0 0 0.75,0.75 H 16.25 V 20 A 0.75,0.75 0 0 0 17,20.75 0.75,0.75 0 0 0 17.75,20 v -4.714844 a 0.750075,0.750075 0 0 0 -0.75,-0.75 z"
     id="path6" />
</svg>
