<?xml version="1.0" encoding="UTF-8" standalone="no"?>
<svg
   width="24"
   height="24"
   viewBox="0 0 24 24"
   stroke-width="1.5"
   fill="none"
   version="1.1"
   id="svg6"
   sodipodi:docname="strikethrough.svg"
   inkscape:version="1.2.1 (9c6d41e410, 2022-07-14)"
   xmlns:inkscape="http://www.inkscape.org/namespaces/inkscape"
   xmlns:sodipodi="http://sodipodi.sourceforge.net/DTD/sodipodi-0.dtd"
   xmlns="http://www.w3.org/2000/svg"
   xmlns:svg="http://www.w3.org/2000/svg">
  <defs
     id="defs10" />
  <sodipodi:namedview
     id="namedview8"
     pagecolor="#ffffff"
     bordercolor="#666666"
     borderopacity="1.0"
     inkscape:showpageshadow="2"
     inkscape:pageopacity="0.0"
     inkscape:pagecheckerboard="0"
     inkscape:deskcolor="#d1d1d1"
     showgrid="false"
     inkscape:zoom="34.541667"
     inkscape:cx="10.364294"
     inkscape:cy="12.014475"
     inkscape:window-width="1920"
     inkscape:window-height="1009"
     inkscape:window-x="1912"
     inkscape:window-y="-8"
     inkscape:window-maximized="1"
     inkscape:current-layer="svg6" />
  <path
     style="color:#000000;fill:currentColor;stroke-linecap:round;stroke-linejoin:round;-inkscape-stroke:none"
     d="M 3,11.25 A 0.75,0.75 0 0 0 2.25,12 0.75,0.75 0 0 0 3,12.75 H 21 A 0.75,0.75 0 0 0 21.75,12 0.75,0.75 0 0 0 21,11.25 Z"
     id="path2" />
  <path
     style="color:#000000;fill:currentColor;stroke-linecap:round;stroke-linejoin:round;-inkscape-stroke:none"
     d="M 10.068359,2.25 C 7.4163282,2.25 5.25,4.4163528 5.25,7.0683594 c 0,2.0709244 1.3302576,3.9154366 3.2949219,4.5703126 l 3.2187501,1.072266 a 0.75,0.75 0 0 0 0.947266,-0.47461 0.75,0.75 0 0 0 -0.47461,-0.947265 L 9.0195313,10.214844 C 7.6619389,9.7623211 6.75,8.4993914 6.75,7.0683594 6.75,5.2270104 8.226975,3.75 10.068359,3.75 h 6.216797 a 0.75,0.75 0 0 0 0.75,-0.75 0.75,0.75 0 0 0 -0.75,-0.75 z m 7.087891,12.089844 a 0.75,0.75 0 0 0 -0.304688,1.015625 C 17.107294,15.828919 17.25,16.366789 17.25,16.931641 17.25,18.773011 15.773011,20.25 13.931641,20.25 H 6 A 0.75,0.75 0 0 0 5.25,21 0.75,0.75 0 0 0 6,21.75 h 7.931641 c 2.652025,0 4.818359,-2.166334 4.818359,-4.818359 0,-0.817348 -0.206857,-1.599762 -0.578125,-2.28711 A 0.75,0.75 0 0 0 17.15625,14.339844 Z"
     id="path4" />
</svg>
