<?xml version="1.0" encoding="UTF-8" standalone="no"?>
<svg
   width="24"
   height="24"
   stroke-width="1.5"
   viewBox="0 0 24 24"
   fill="none"
   version="1.1"
   id="svg21"
   sodipodi:docname="stroller.svg"
   inkscape:version="1.2.1 (9c6d41e410, 2022-07-14)"
   xmlns:inkscape="http://www.inkscape.org/namespaces/inkscape"
   xmlns:sodipodi="http://sodipodi.sourceforge.net/DTD/sodipodi-0.dtd"
   xmlns="http://www.w3.org/2000/svg"
   xmlns:svg="http://www.w3.org/2000/svg">
  <sodipodi:namedview
     id="namedview23"
     pagecolor="#ffffff"
     bordercolor="#666666"
     borderopacity="1.0"
     inkscape:showpageshadow="2"
     inkscape:pageopacity="0.0"
     inkscape:pagecheckerboard="0"
     inkscape:deskcolor="#d1d1d1"
     showgrid="false"
     inkscape:zoom="34.541667"
     inkscape:cx="10.364294"
     inkscape:cy="12.014475"
     inkscape:window-width="1920"
     inkscape:window-height="1009"
     inkscape:window-x="1912"
     inkscape:window-y="-8"
     inkscape:window-maximized="1"
     inkscape:current-layer="svg21" />
  <path
     style="color:#000000;fill:currentColor;stroke-linecap:round;stroke-linejoin:round;-inkscape-stroke:none"
     d="m 11.5,2.25 c -5.0997451,0 -9.25,4.1502549 -9.25,9.25 0,1.795282 0.5144318,3.478344 1.4023438,4.898437 a 0.75,0.75 0 0 0 1.0332031,0.238282 0.75,0.75 0 0 0 0.2382812,-1.035156 C 4.1798417,14.411658 3.75,13.009914 3.75,11.5 3.75,7.2109144 7.2109144,3.75 11.5,3.75 A 0.75,0.75 0 0 0 12.25,3 0.75,0.75 0 0 0 11.5,2.25 Z"
     id="path2" />
  <path
     style="color:#000000;fill:currentColor;stroke-linecap:round;stroke-linejoin:round;-inkscape-stroke:none"
     d="M 20,8.75 A 0.750075,0.750075 0 0 0 19.25,9.5 v 2 c 0,1.509914 -0.429882,2.911651 -1.173828,4.101563 a 0.75,0.75 0 0 0 0.238281,1.035156 0.75,0.75 0 0 0 1.033203,-0.238282 C 20.235509,14.978352 20.75,13.295282 20.75,11.5 V 10.25 H 22.5 A 0.75,0.75 0 0 0 23.25,9.5 0.75,0.75 0 0 0 22.5,8.75 Z"
     id="path4" />
  <path
     style="color:#000000;fill:currentColor;stroke-linecap:round;stroke-linejoin:round;-inkscape-stroke:none"
     d="m 8,16.25 c -1.5098846,0 -2.75,1.240083 -2.75,2.75 0,1.509917 1.2401154,2.75 2.75,2.75 1.5098846,0 2.75,-1.240083 2.75,-2.75 0,-1.509917 -1.2401154,-2.75 -2.75,-2.75 z m 0,1.5 c 0.6992532,0 1.25,0.550719 1.25,1.25 0,0.699281 -0.5507468,1.25 -1.25,1.25 -0.6992532,0 -1.25,-0.550719 -1.25,-1.25 0,-0.699281 0.5507468,-1.25 1.25,-1.25 z"
     id="path6" />
  <path
     style="color:#000000;fill:currentColor;stroke-linecap:round;stroke-linejoin:round;-inkscape-stroke:none"
     d="m 15,16.25 c -1.509904,0 -2.75,1.240096 -2.75,2.75 0,1.509904 1.240096,2.75 2.75,2.75 1.509904,0 2.75,-1.240096 2.75,-2.75 0,-1.509904 -1.240096,-2.75 -2.75,-2.75 z m 0,1.5 c 0.699294,0 1.25,0.550706 1.25,1.25 0,0.699294 -0.550706,1.25 -1.25,1.25 -0.699294,0 -1.25,-0.550706 -1.25,-1.25 0,-0.699294 0.550706,-1.25 1.25,-1.25 z"
     id="path8" />
  <path
     style="color:#000000;fill:currentColor;stroke-linecap:round;stroke-linejoin:round;-inkscape-stroke:none"
     d="M 11.5,2.25 A 0.75,0.75 0 0 0 10.75,3 v 9 A 0.75,0.75 0 0 0 11.5,12.75 0.75,0.75 0 0 0 12.25,12 V 3 A 0.75,0.75 0 0 0 11.5,2.25 Z"
     id="path10" />
  <path
     style="color:#000000;fill:currentColor;stroke-linecap:round;stroke-linejoin:round;-inkscape-stroke:none"
     d="M 3.5,11.25 A 0.75,0.75 0 0 0 2.75,12 0.75,0.75 0 0 0 3.5,12.75 h 16 A 0.75,0.75 0 0 0 20.25,12 0.75,0.75 0 0 0 19.5,11.25 Z"
     id="path12" />
  <defs
     id="defs19">
    <clipPath
       clipPathUnits="userSpaceOnUse"
       id="clipPath208">
      <g
         id="g212">
        <rect
           width="24"
           height="24"
           stroke-width="1.5"
           fill="#ffffff"
           id="rect210"
           x="0"
           y="0" />
      </g>
    </clipPath>
    <clipPath
       clipPathUnits="userSpaceOnUse"
       id="clipPath214">
      <g
         id="g218">
        <rect
           width="24"
           height="24"
           stroke-width="1.5"
           fill="#ffffff"
           id="rect216"
           x="0"
           y="0" />
      </g>
    </clipPath>
    <clipPath
       clipPathUnits="userSpaceOnUse"
       id="clipPath220">
      <g
         id="g224">
        <rect
           width="24"
           height="24"
           stroke-width="1.5"
           fill="#ffffff"
           id="rect222"
           x="0"
           y="0" />
      </g>
    </clipPath>
    <clipPath
       clipPathUnits="userSpaceOnUse"
       id="clipPath226">
      <g
         id="g230">
        <rect
           width="24"
           height="24"
           stroke-width="1.5"
           fill="#ffffff"
           id="rect228"
           x="0"
           y="0" />
      </g>
    </clipPath>
    <clipPath
       clipPathUnits="userSpaceOnUse"
       id="clipPath232">
      <g
         id="g236">
        <rect
           width="24"
           height="24"
           stroke-width="1.5"
           fill="#ffffff"
           id="rect234"
           x="0"
           y="0" />
      </g>
    </clipPath>
    <clipPath
       clipPathUnits="userSpaceOnUse"
       id="clipPath238">
      <g
         id="g242">
        <rect
           width="24"
           height="24"
           stroke-width="1.5"
           fill="#ffffff"
           id="rect240"
           x="0"
           y="0" />
      </g>
    </clipPath>
  </defs>
</svg>
