<?xml version="1.0" encoding="UTF-8" standalone="no"?>
<svg
   width="24"
   height="24"
   stroke-width="1.5"
   viewBox="0 0 24 24"
   fill="none"
   version="1.1"
   id="svg6"
   sodipodi:docname="style-border.svg"
   inkscape:version="1.2.1 (9c6d41e410, 2022-07-14)"
   xmlns:inkscape="http://www.inkscape.org/namespaces/inkscape"
   xmlns:sodipodi="http://sodipodi.sourceforge.net/DTD/sodipodi-0.dtd"
   xmlns="http://www.w3.org/2000/svg"
   xmlns:svg="http://www.w3.org/2000/svg">
  <defs
     id="defs10" />
  <sodipodi:namedview
     id="namedview8"
     pagecolor="#ffffff"
     bordercolor="#666666"
     borderopacity="1.0"
     inkscape:showpageshadow="2"
     inkscape:pageopacity="0.0"
     inkscape:pagecheckerboard="0"
     inkscape:deskcolor="#d1d1d1"
     showgrid="false"
     inkscape:zoom="34.541667"
     inkscape:cx="10.364294"
     inkscape:cy="12.014475"
     inkscape:window-width="1920"
     inkscape:window-height="1009"
     inkscape:window-x="1912"
     inkscape:window-y="-8"
     inkscape:window-maximized="1"
     inkscape:current-layer="svg6" />
  <path
     style="color:#000000;fill:currentColor;stroke-linecap:round;stroke-linejoin:round;stroke-miterlimit:1.5;stroke-dasharray:2, 2;-inkscape-stroke:none"
     d="m 7.9902344,1.25 -0.1542969,0.00195 a 0.74967495,0.74967495 0 0 0 -0.019531,0 l -0.1542968,0.00586 a 0.74967495,0.74967495 0 0 0 -0.017578,0.00195 l -0.1542968,0.00977 a 0.74967495,0.74967495 0 0 0 -0.017578,0.00195 l -0.1523437,0.013672 a 0.74967495,0.74967495 0 0 0 -0.019531,0.00195 l -0.1503906,0.015625 a 0.74967495,0.74967495 0 0 0 -0.017578,0.00391 l -0.1503906,0.019531 a 0.74967495,0.74967495 0 0 0 -0.019531,0.00391 l -0.1484375,0.023437 a 0.74967495,0.74967495 0 0 0 -0.017578,0.00391 l -0.1464844,0.027344 a 0.74967495,0.74967495 0 0 0 -0.019531,0.00391 L 6.4863281,1.421875 a 0.74967495,0.74967495 0 0 0 -0.019531,0.00391 l -0.1445313,0.035156 a 0.74967495,0.74967495 0 0 0 -0.017578,0.00391 l -0.1425781,0.039063 a 0.74967495,0.74967495 0 0 0 -0.017578,0.00586 l -0.1425781,0.041016 a 0.74967495,0.74967495 0 0 0 -0.017578,0.00586 L 5.84375,1.6015625 a 0.74967495,0.74967495 0 0 0 -0.017578,0.00586 l -0.039063,0.013672 A 0.74959999,0.74959999 0 0 0 5.3300781,2.578125 0.74959999,0.74959999 0 0 0 6.2851562,3.0351563 l 0.03125,-0.00977 L 6.4375,2.9863281 6.5625,2.9492188 6.6875,2.9140625 6.8144531,2.8847656 6.9414062,2.8554688 7.0703125,2.8320313 7.1992187,2.8105469 7.3300781,2.7910156 7.4628906,2.7773438 7.5957031,2.765625 7.7285156,2.7558594 7.8632812,2.7519531 8.0097656,2.75 A 0.74959999,0.74959999 0 0 0 8.75,1.9902344 0.74959999,0.74959999 0 0 0 7.9902344,1.25 Z M 10,1.25 A 0.74959999,0.74959999 0 0 0 9.25,2 0.74959999,0.74959999 0 0 0 10,2.75 h 2 A 0.74959999,0.74959999 0 0 0 12.75,2 0.74959999,0.74959999 0 0 0 12,1.25 Z m 4,0 A 0.74959999,0.74959999 0 0 0 13.25,2 0.74959999,0.74959999 0 0 0 14,2.75 H 15.990234 16 l 0.136719,0.00195 0.134765,0.00391 0.132813,0.00977 0.132812,0.011719 0.132813,0.013672 0.130859,0.019531 0.128906,0.021484 0.128907,0.023437 0.126953,0.029297 0.126953,0.029297 0.125,0.035156 0.0293,0.00781 A 0.74959999,0.74959999 0 0 0 18.398437,2.453125 0.74959999,0.74959999 0 0 0 17.894531,1.5214844 l -0.03906,-0.011719 a 0.74967495,0.74967495 0 0 0 -0.01758,-0.00586 l -0.142579,-0.039063 a 0.74967495,0.74967495 0 0 0 -0.01758,-0.00391 l -0.144531,-0.035156 a 0.74967495,0.74967495 0 0 0 -0.01953,-0.00391 l -0.144531,-0.033203 a 0.74967495,0.74967495 0 0 0 -0.01953,-0.00391 l -0.146484,-0.027344 a 0.74967495,0.74967495 0 0 0 -0.01758,-0.00391 l -0.148438,-0.023437 a 0.74967495,0.74967495 0 0 0 -0.01953,-0.00391 l -0.150391,-0.019531 a 0.74967495,0.74967495 0 0 0 -0.01758,-0.00391 l -0.15039,-0.015625 a 0.74967495,0.74967495 0 0 0 -0.01953,-0.00195 l -0.152343,-0.013672 a 0.74967495,0.74967495 0 0 0 -0.01758,-0.00195 l -0.154297,-0.00977 a 0.74967495,0.74967495 0 0 0 -0.01758,-0.00195 l -0.154297,-0.00586 a 0.74967495,0.74967495 0 0 0 -0.01953,0 L 16.009766,1.25 a 0.74959999,0.74959999 0 0 0 -0.0039,0.00195 A 0.74959999,0.74959999 0 0 0 16,1.25 Z m 5.339844,1.1191406 a 0.74959999,0.74959999 0 0 0 -0.482422,0.3105469 0.74959999,0.74959999 0 0 0 0.1875,1.0429688 l 0.0957,0.070312 0.09961,0.076172 0.09961,0.080078 0.0957,0.080078 0.09375,0.083984 0.09375,0.085937 0.08984,0.087891 0.08789,0.089844 0.08594,0.09375 0.08398,0.09375 0.08008,0.095703 0.08008,0.099609 0.07617,0.099609 0.07031,0.09375 a 0.74959999,0.74959999 0 0 0 1.046875,0.1640625 0.74959999,0.74959999 0 0 0 0.164062,-1.046875 L 21.414062,3.96875 a 0.74967495,0.74967495 0 0 0 -0.01172,-0.015625 l -0.08789,-0.1132812 a 0.74967495,0.74967495 0 0 0 -0.0098,-0.013672 l -0.0918,-0.1132813 a 0.74967495,0.74967495 0 0 0 -0.0098,-0.013672 l -0.09375,-0.109375 a 0.74967495,0.74967495 0 0 0 -0.01172,-0.013672 L 21.001953,3.46875 a 0.74967495,0.74967495 0 0 0 -0.01172,-0.013672 l -0.09766,-0.1054687 a 0.74967495,0.74967495 0 0 0 -0.01367,-0.013672 L 20.779297,3.234375 a 0.74967495,0.74967495 0 0 0 -0.01367,-0.013672 l -0.101563,-0.099609 a 0.74967495,0.74967495 0 0 0 -0.01367,-0.013672 l -0.105469,-0.097656 a 0.74967495,0.74967495 0 0 0 -0.01367,-0.011719 l -0.107422,-0.095703 a 0.74967495,0.74967495 0 0 0 -0.01367,-0.011719 l -0.109375,-0.09375 a 0.74967495,0.74967495 0 0 0 -0.01367,-0.00977 l -0.113281,-0.091797 a 0.74967495,0.74967495 0 0 0 -0.01367,-0.00977 L 20.046875,2.5976563 A 0.74967495,0.74967495 0 0 0 20.03125,2.5859375 L 19.914062,2.5019531 A 0.74967495,0.74967495 0 0 0 19.900391,2.4902344 0.74959999,0.74959999 0 0 0 19.339844,2.3691406 Z M 4.3710937,2.5390625 A 0.74959999,0.74959999 0 0 0 3.8203125,2.7011719 l -0.1074219,0.085937 a 0.74967495,0.74967495 0 0 0 -0.013672,0.00977 l -0.109375,0.09375 a 0.74967495,0.74967495 0 0 0 -0.013672,0.011719 L 3.46875,2.9980469 a 0.74967495,0.74967495 0 0 0 -0.013672,0.011719 l -0.1054687,0.097656 a 0.74967495,0.74967495 0 0 0 -0.013672,0.013672 L 3.234375,3.2207031 a 0.74967495,0.74967495 0 0 0 -0.013672,0.013672 l -0.099609,0.1015625 a 0.74967495,0.74967495 0 0 0 -0.013672,0.013672 L 3.0097656,3.4550781 A 0.74967495,0.74967495 0 0 0 2.9980469,3.46875 l -0.095703,0.1074219 a 0.74967495,0.74967495 0 0 0 -0.011719,0.013672 l -0.09375,0.109375 a 0.74967495,0.74967495 0 0 0 -0.00977,0.013672 l -0.091797,0.1132813 a 0.74967495,0.74967495 0 0 0 -0.00977,0.013672 L 2.5976563,3.953125 A 0.74967495,0.74967495 0 0 0 2.5859375,3.96875 l -0.083984,0.1171875 a 0.74967495,0.74967495 0 0 0 -0.011719,0.013672 L 2.4082031,4.21875 a 0.74967495,0.74967495 0 0 0 -0.00977,0.013672 L 2.3242188,4.3457031 A 0.74959999,0.74959999 0 0 0 2.5390625,5.3828125 0.74959999,0.74959999 0 0 0 3.5761719,5.1699219 L 3.6464844,5.0644531 3.71875,4.9609375 3.7929688,4.859375 l 0.076172,-0.099609 0.080078,-0.099609 0.080078,-0.095703 0.083984,-0.09375 0.085937,-0.09375 0.087891,-0.089844 0.089844,-0.087891 0.09375,-0.085937 0.09375,-0.083984 0.095703,-0.080078 0.099609,-0.082031 A 0.74959999,0.74959999 0 0 0 4.8730469,2.8144531 0.74959999,0.74959999 0 0 0 4.3710937,2.5390625 Z M 21.541016,5.5820312 A 0.74959999,0.74959999 0 0 0 21.037109,6.515625 l 0.01367,0.046875 0.03516,0.125 0.0293,0.1269531 0.0293,0.1269531 0.02344,0.1289063 0.02148,0.1289062 0.01953,0.1308594 0.01367,0.1328125 0.01172,0.1328125 0.0098,0.1425781 c 0.0084,0.1578998 0.0053,0.337664 0.0059,0.5410157 A 0.74959999,0.74959999 0 0 0 22.001953,9.0273438 0.74959999,0.74959999 0 0 0 22.75,8.2753906 c -4.94e-4,-0.1852933 0.0029,-0.3935956 -0.0098,-0.625 a 0.74967495,0.74967495 0 0 0 0,-0.00586 l -0.0098,-0.1542968 a 0.74967495,0.74967495 0 0 0 -0.002,-0.017578 l -0.01367,-0.1523437 a 0.74967495,0.74967495 0 0 0 -0.002,-0.019531 l -0.01563,-0.1503906 a 0.74967495,0.74967495 0 0 0 -0.0039,-0.017578 l -0.01953,-0.1503906 a 0.74967495,0.74967495 0 0 0 -0.0039,-0.019531 l -0.02344,-0.1484375 a 0.74967495,0.74967495 0 0 0 -0.0039,-0.017578 l -0.02734,-0.1464844 a 0.74967495,0.74967495 0 0 0 -0.0039,-0.019531 l -0.0332,-0.1445313 a 0.74967495,0.74967495 0 0 0 -0.0039,-0.019531 l -0.03516,-0.1445313 a 0.74967495,0.74967495 0 0 0 -0.0039,-0.017578 l -0.03906,-0.1425781 a 0.74967495,0.74967495 0 0 0 -0.0059,-0.017578 l -0.01563,-0.056641 A 0.74959999,0.74959999 0 0 0 21.541016,5.5820312 Z M 2.3457031,5.859375 a 0.74959999,0.74959999 0 0 0 -0.90625,0.5507812 l -0.013672,0.056641 a 0.74967495,0.74967495 0 0 0 -0.00391,0.019531 l -0.033203,0.1445313 a 0.74967495,0.74967495 0 0 0 -0.00391,0.019531 L 1.3574219,6.796875 a 0.74967495,0.74967495 0 0 0 -0.00391,0.017578 l -0.023437,0.1484375 a 0.74967495,0.74967495 0 0 0 -0.00391,0.019531 l -0.019531,0.1503906 a 0.74967495,0.74967495 0 0 0 -0.00391,0.017578 l -0.015625,0.1503906 a 0.74967495,0.74967495 0 0 0 -0.00195,0.019531 l -0.013672,0.1523437 a 0.74967495,0.74967495 0 0 0 -0.00195,0.017578 l -0.00977,0.1542968 a 0.74967495,0.74967495 0 0 0 -0.00195,0.017578 l -0.00586,0.1542968 a 0.74967495,0.74967495 0 0 0 0,0.019531 L 1.25,7.9902344 A 0.74967495,0.74967495 0 0 0 1.25,8 v 0.5742188 a 0.74959999,0.74959999 0 0 0 0.75,0.75 0.74959999,0.74959999 0 0 0 0.75,-0.75 V 8.0039063 l 0.00195,-0.1406251 0.00391,-0.1347656 0.00977,-0.1328125 0.011719,-0.1328125 0.013672,-0.1328125 0.019531,-0.1308594 0.021484,-0.1289062 0.023437,-0.1289063 0.029297,-0.1269531 0.011719,-0.048828 A 0.74959999,0.74959999 0 0 0 2.3457031,5.859375 Z M 22,9.5273438 a 0.74959999,0.74959999 0 0 0 -0.75,0.7500002 v 2 a 0.74959999,0.74959999 0 0 0 0.75,0.75 0.74959999,0.74959999 0 0 0 0.75,-0.75 v -2 A 0.74959999,0.74959999 0 0 0 22,9.5273438 Z M 2,9.8242188 A 0.74959999,0.74959999 0 0 0 1.25,10.574219 v 2 a 0.74959999,0.74959999 0 0 0 0.75,0.75 0.74959999,0.74959999 0 0 0 0.75,-0.75 v -2 A 0.74959999,0.74959999 0 0 0 2,9.8242188 Z m 20.09375,3.7089842 a 0.74959999,0.74959999 0 0 0 -0.837891,0.650391 c -0.101206,0.80712 0.01655,1.498555 -0.01172,2.05664 a 0.74959999,0.74959999 0 0 0 0.710937,0.785157 0.74959999,0.74959999 0 0 0 0.787109,-0.710938 c 0.0392,-0.773856 -0.06343,-1.421936 0.002,-1.943359 A 0.74959999,0.74959999 0 0 0 22.09375,13.533203 Z M 2,13.824219 a 0.74959999,0.74959999 0 0 0 -0.75,0.75 V 16 a 0.74967495,0.74967495 0 0 0 0,0.0098 l 0.00195,0.154296 a 0.74967495,0.74967495 0 0 0 0,0.01953 l 0.00586,0.154297 a 0.74967495,0.74967495 0 0 0 0.00195,0.01758 l 0.00977,0.154297 a 0.74967495,0.74967495 0 0 0 0.00195,0.01758 l 0.00977,0.111328 a 0.74959999,0.74959999 0 0 0 0.8125,0.68164 0.74959999,0.74959999 0 0 0 0.6796875,-0.8125 L 2.765625,16.404297 2.7558594,16.271484 2.7519531,16.136719 2.75,15.996094 v -1.421875 a 0.74959999,0.74959999 0 0 0 -0.75,-0.75 z m 19.857422,3.705078 a 0.74959999,0.74959999 0 0 0 -0.976563,0.410156 l -0.04297,0.103516 -0.05078,0.117187 -0.05469,0.115235 -0.05664,0.115234 -0.05859,0.111328 -0.0625,0.111328 -0.06445,0.109375 -0.06641,0.107422 -0.07031,0.105469 -0.07227,0.103515 -0.07422,0.101563 -0.07617,0.09961 -0.08008,0.09961 -0.08398,0.09961 a 0.74959999,0.74959999 0 0 0 0.08789,1.056641 0.74959999,0.74959999 0 0 0 1.056641,-0.08789 l 0.0918,-0.107422 a 0.74967495,0.74967495 0 0 0 0.0098,-0.01367 l 0.0918,-0.113281 a 0.74967495,0.74967495 0 0 0 0.0098,-0.01367 l 0.08789,-0.113281 a 0.74967495,0.74967495 0 0 0 0.01172,-0.01563 l 0.08398,-0.117188 a 0.74967495,0.74967495 0 0 0 0.01172,-0.01367 l 0.08203,-0.119141 a 0.74967495,0.74967495 0 0 0 0.0098,-0.01367 l 0.08008,-0.121094 a 0.74967495,0.74967495 0 0 0 0.0098,-0.01563 l 0.07617,-0.123047 a 0.74967495,0.74967495 0 0 0 0.0098,-0.01563 l 0.07227,-0.125 a 0.74967495,0.74967495 0 0 0 0.0098,-0.01563 l 0.07031,-0.125 a 0.74967495,0.74967495 0 0 0 0.0098,-0.01758 l 0.06641,-0.126953 a 0.74967495,0.74967495 0 0 0 0.0098,-0.01758 l 0.06445,-0.128906 a 0.74967495,0.74967495 0 0 0 0.0078,-0.01758 l 0.06055,-0.13086 a 0.74967495,0.74967495 0 0 0 0.0078,-0.01758 l 0.05859,-0.132812 a 0.74967495,0.74967495 0 0 0 0.0078,-0.01758 l 0.04492,-0.111329 A 0.74959999,0.74959999 0 0 0 21.857422,17.529297 Z M 2.7988281,17.791016 A 0.74959999,0.74959999 0 0 0 2.2246094,17.816406 0.74959999,0.74959999 0 0 0 1.8632812,18.8125 l 0.048828,0.105469 a 0.74967495,0.74967495 0 0 0 0.00781,0.01758 l 0.064453,0.128906 a 0.74967495,0.74967495 0 0 0 0.00977,0.01758 l 0.066406,0.126953 a 0.74967495,0.74967495 0 0 0 0.00977,0.01758 l 0.070312,0.125 a 0.74967495,0.74967495 0 0 0 0.00977,0.01563 l 0.072266,0.125 a 0.74967495,0.74967495 0 0 0 0.00977,0.01563 l 0.076172,0.123047 a 0.74967495,0.74967495 0 0 0 0.00977,0.01563 l 0.080078,0.121094 a 0.74967495,0.74967495 0 0 0 0.00977,0.01367 l 0.082031,0.119141 a 0.74967495,0.74967495 0 0 0 0.011719,0.01367 l 0.083984,0.117188 a 0.74967495,0.74967495 0 0 0 0.011719,0.01563 l 0.087891,0.113281 a 0.74967495,0.74967495 0 0 0 0.00977,0.01367 l 0.091797,0.113281 a 0.74967495,0.74967495 0 0 0 0.00977,0.01367 l 0.09375,0.109375 a 0.74967495,0.74967495 0 0 0 0.011719,0.01367 l 0.095703,0.107422 a 0.74967495,0.74967495 0 0 0 0.011719,0.01367 l 0.097656,0.105469 a 0.74967495,0.74967495 0 0 0 0.013672,0.01367 l 0.00391,0.0039 a 0.74959999,0.74959999 0 0 0 1.0585937,0.01172 0.74959999,0.74959999 0 0 0 0.015625,-1.05664 l -0.00195,-0.0039 -0.083984,-0.08984 -0.083984,-0.09375 -0.080078,-0.0957 -0.080078,-0.09961 -0.076172,-0.09961 -0.074219,-0.101563 -0.072266,-0.103515 -0.070312,-0.105469 -0.066406,-0.107422 -0.064453,-0.109375 -0.0625,-0.111328 -0.058594,-0.111328 -0.056641,-0.115234 -0.044922,-0.0957 A 0.74959999,0.74959999 0 0 0 2.7988281,17.791016 Z M 18.625,20.548828 l -0.01172,0.0059 -0.111328,0.0625 -0.111328,0.05859 -0.115234,0.05664 -0.115235,0.05469 -0.117187,0.05078 -0.117188,0.04883 -0.121094,0.04492 -0.121093,0.04297 -0.121094,0.03906 -0.125,0.03711 -0.125,0.03516 -0.126953,0.0293 -0.126953,0.0293 L 17,21.154297 a 0.74959999,0.74959999 0 0 0 -0.595703,0.876953 0.74959999,0.74959999 0 0 0 0.878906,0.595703 l 0.06641,-0.01172 a 0.74967495,0.74967495 0 0 0 0.01953,-0.0039 l 0.144531,-0.0332 a 0.74967495,0.74967495 0 0 0 0.01953,-0.0039 l 0.144531,-0.03516 a 0.74967495,0.74967495 0 0 0 0.01758,-0.0039 l 0.142579,-0.03906 a 0.74967495,0.74967495 0 0 0 0.01758,-0.0059 l 0.142578,-0.04102 a 0.74967495,0.74967495 0 0 0 0.01758,-0.0059 l 0.140625,-0.04492 a 0.74967495,0.74967495 0 0 0 0.01758,-0.0059 L 18.3125,22.34375 a 0.74967495,0.74967495 0 0 0 0.01758,-0.0078 l 0.136719,-0.05078 a 0.74967495,0.74967495 0 0 0 0.01758,-0.0078 l 0.134766,-0.05469 a 0.74967495,0.74967495 0 0 0 0.01758,-0.0078 l 0.132812,-0.05859 a 0.74967495,0.74967495 0 0 0 0.01758,-0.0078 l 0.13086,-0.06055 a 0.74967495,0.74967495 0 0 0 0.01758,-0.0078 l 0.128906,-0.06445 a 0.74967495,0.74967495 0 0 0 0.01758,-0.0098 l 0.126953,-0.06641 a 0.74967495,0.74967495 0 0 0 0.01758,-0.0098 l 0.125,-0.07031 a 0.74967495,0.74967495 0 0 0 0.01563,-0.0098 l 0.01953,-0.0098 A 0.74959999,0.74959999 0 0 0 19.650391,20.8125 0.74959999,0.74959999 0 0 0 18.625,20.548828 Z M 5.0332031,20.619141 A 0.74959999,0.74959999 0 0 0 4.5917969,20.986328 0.74959999,0.74959999 0 0 0 4.9042969,22 l 0.013672,0.0059 a 0.74967495,0.74967495 0 0 0 0.017578,0.0098 l 0.1289062,0.06445 a 0.74967495,0.74967495 0 0 0 0.017578,0.0078 l 0.1308594,0.06055 a 0.74967495,0.74967495 0 0 0 0.017578,0.0078 l 0.1328125,0.05859 a 0.74967495,0.74967495 0 0 0 0.017578,0.0078 l 0.1347656,0.05469 a 0.74967495,0.74967495 0 0 0 0.017578,0.0078 l 0.1367188,0.05078 a 0.74967495,0.74967495 0 0 0 0.017578,0.0078 l 0.1386719,0.04883 a 0.74967495,0.74967495 0 0 0 0.017578,0.0059 l 0.140625,0.04492 a 0.74967495,0.74967495 0 0 0 0.017578,0.0059 l 0.1425781,0.04102 a 0.74967495,0.74967495 0 0 0 0.017578,0.0059 l 0.1425781,0.03906 a 0.74967495,0.74967495 0 0 0 0.017578,0.0039 l 0.1445313,0.03516 a 0.74967495,0.74967495 0 0 0 0.019531,0.0039 l 0.1445313,0.0332 a 0.74967495,0.74967495 0 0 0 0.019531,0.0039 l 0.1464844,0.02734 a 0.74967495,0.74967495 0 0 0 0.017578,0.0039 l 0.1484375,0.02344 a 0.74967495,0.74967495 0 0 0 0.019531,0.0039 l 0.064453,0.0078 A 0.74959999,0.74959999 0 0 0 7.8925781,22.042969 0.74959999,0.74959999 0 0 0 7.2558594,21.197266 l -0.056641,-0.0078 -0.1289062,-0.02148 -0.1289063,-0.02344 -0.1269531,-0.0293 -0.1269531,-0.0293 -0.125,-0.03516 -0.125,-0.03711 -0.1210938,-0.03906 -0.1210937,-0.04297 -0.1210938,-0.04492 -0.1171875,-0.04883 -0.1171875,-0.05078 -0.1152343,-0.05469 -0.1152344,-0.05664 -0.00586,-0.002 A 0.74959999,0.74959999 0 0 0 5.0332031,20.619141 Z M 9.1484375,21.25 a 0.74959999,0.74959999 0 0 0 -0.75,0.75 0.74959999,0.74959999 0 0 0 0.75,0.75 h 2.0000005 a 0.74959999,0.74959999 0 0 0 0.75,-0.75 0.74959999,0.74959999 0 0 0 -0.75,-0.75 z m 4.0000005,0 a 0.74959999,0.74959999 0 0 0 -0.75,0.75 0.74959999,0.74959999 0 0 0 0.75,0.75 h 2 a 0.74959999,0.74959999 0 0 0 0.75,-0.75 0.74959999,0.74959999 0 0 0 -0.75,-0.75 z"
     id="path2" />
  <path
     style="color:#000000;fill:currentColor;stroke-linecap:round;stroke-linejoin:round;stroke-miterlimit:1.5;-inkscape-stroke:none"
     d="M 8,4.25 C 5.9380358,4.25 4.25,5.9380358 4.25,8 v 8 c 0,2.062002 1.6880509,3.75 3.75,3.75 h 8 c 2.061987,0 3.75,-1.688013 3.75,-3.75 V 8 C 19.75,5.9380509 18.062002,4.25 16,4.25 Z m 0,1.5 h 8 c 1.251795,0 2.25,0.9982524 2.25,2.25 v 8 c 0,1.25181 -0.99819,2.25 -2.25,2.25 H 8 C 6.7482524,18.25 5.75,17.251795 5.75,16 V 8 C 5.75,6.7482675 6.7482675,5.75 8,5.75 Z"
     id="path4" />
</svg>
