<?xml version="1.0" encoding="UTF-8" standalone="no"?>
<svg
   width="24"
   height="24"
   viewBox="0 0 24 24"
   stroke-width="1.5"
   fill="none"
   version="1.1"
   id="svg8"
   sodipodi:docname="submit-document.svg"
   inkscape:version="1.2.1 (9c6d41e410, 2022-07-14)"
   xmlns:inkscape="http://www.inkscape.org/namespaces/inkscape"
   xmlns:sodipodi="http://sodipodi.sourceforge.net/DTD/sodipodi-0.dtd"
   xmlns="http://www.w3.org/2000/svg"
   xmlns:svg="http://www.w3.org/2000/svg">
  <defs
     id="defs12" />
  <sodipodi:namedview
     id="namedview10"
     pagecolor="#ffffff"
     bordercolor="#666666"
     borderopacity="1.0"
     inkscape:showpageshadow="2"
     inkscape:pageopacity="0.0"
     inkscape:pagecheckerboard="0"
     inkscape:deskcolor="#d1d1d1"
     showgrid="false"
     inkscape:zoom="34.541667"
     inkscape:cx="10.364294"
     inkscape:cy="12.014475"
     inkscape:window-width="1920"
     inkscape:window-height="1009"
     inkscape:window-x="1912"
     inkscape:window-y="-8"
     inkscape:window-maximized="1"
     inkscape:current-layer="svg8" />
  <path
     style="color:#000000;fill:currentColor;stroke-linecap:round;stroke-linejoin:round;-inkscape-stroke:none"
     d="M 4.5996094,1.25 C 3.8629077,1.25 3.25,1.8629077 3.25,2.5996094 V 21.400391 C 3.25,22.137086 3.862953,22.75 4.5996094,22.75 H 14 A 0.75,0.75 0 0 0 14.75,22 0.75,0.75 0 0 0 14,21.25 H 4.75 V 2.75 H 16.1875 L 19.25,5.8105469 V 13 A 0.75,0.75 0 0 0 20,13.75 0.75,0.75 0 0 0 20.75,13 V 5.7480469 c 0,-0.3577094 -0.14162,-0.7001462 -0.394531,-0.953125 a 0.750075,0.750075 0 0 0 0,-0.00195 L 17.207031,1.6445312 h -0.002 C 16.952233,1.3923213 16.609076,1.25 16.251953,1.25 Z"
     id="path2" />
  <path
     style="color:#000000;fill:currentColor;stroke-linecap:round;stroke-linejoin:round;-inkscape-stroke:none"
     d="M 16,1.25 A 0.75,0.75 0 0 0 15.25,2 V 5.4003906 C 15.25,6.137047 15.862914,6.75 16.599609,6.75 H 20 A 0.75,0.75 0 0 0 20.75,6 0.75,0.75 0 0 0 20,5.25 H 16.75 V 2 A 0.75,0.75 0 0 0 16,1.25 Z"
     id="path4" />
  <path
     style="color:#000000;fill:currentColor;stroke-linecap:round;stroke-linejoin:round;-inkscape-stroke:none"
     d="m 19,15.25 a 0.75,0.75 0 0 0 -0.53125,0.21875 0.75,0.75 0 0 0 0,1.0625 L 20.1875,18.25 H 16 A 0.75,0.75 0 0 0 15.25,19 0.75,0.75 0 0 0 16,19.75 h 4.1875 l -1.71875,1.71875 a 0.75,0.75 0 0 0 0,1.0625 0.75,0.75 0 0 0 1.0625,0 l 3,-3 A 0.75,0.75 0 0 0 22.724609,19.0625 0.75,0.75 0 0 0 22.75,19 a 0.75,0.75 0 0 0 -0.02539,-0.128906 0.75,0.75 0 0 0 0,-0.06445 0.75,0.75 0 0 0 -0.01953,-0.0332 0.75,0.75 0 0 0 -0.173828,-0.304687 l -3,-3 A 0.75,0.75 0 0 0 19,15.25 Z"
     id="path6" />
</svg>
