<?xml version="1.0" encoding="UTF-8" standalone="no"?>
<svg
   width="24"
   height="24"
   stroke-width="1.5"
   viewBox="0 0 24 24"
   fill="none"
   version="1.1"
   id="svg6"
   sodipodi:docname="suggestion.svg"
   inkscape:version="1.2.1 (9c6d41e410, 2022-07-14)"
   xmlns:inkscape="http://www.inkscape.org/namespaces/inkscape"
   xmlns:sodipodi="http://sodipodi.sourceforge.net/DTD/sodipodi-0.dtd"
   xmlns="http://www.w3.org/2000/svg"
   xmlns:svg="http://www.w3.org/2000/svg">
  <defs
     id="defs10" />
  <sodipodi:namedview
     id="namedview8"
     pagecolor="#ffffff"
     bordercolor="#666666"
     borderopacity="1.0"
     inkscape:showpageshadow="2"
     inkscape:pageopacity="0.0"
     inkscape:pagecheckerboard="0"
     inkscape:deskcolor="#d1d1d1"
     showgrid="false"
     inkscape:zoom="34.541667"
     inkscape:cx="10.364294"
     inkscape:cy="12.014475"
     inkscape:window-width="1920"
     inkscape:window-height="1009"
     inkscape:window-x="1912"
     inkscape:window-y="-8"
     inkscape:window-maximized="1"
     inkscape:current-layer="svg6" />
  <path
     style="color:#000000;fill:currentColor;-inkscape-stroke:none"
     d="M 3.5996094,2.25 C 2.8629077,2.25 2.25,2.8629077 2.25,3.5996094 V 17.400391 C 2.25,18.137086 2.862953,18.75 3.5996094,18.75 h 4.0761718 l 3.3417968,3.550781 c 0.525678,0.55852 1.439166,0.55852 1.964844,0 L 16.324219,18.75 h 4.076172 C 21.13704,18.75 21.75,18.13704 21.75,17.400391 V 3.5996094 C 21.75,2.862953 21.137086,2.25 20.400391,2.25 Z M 3.75,3.75 h 16.5 v 13.5 h -3.990234 c -0.371869,0 -0.729481,0.154928 -0.984375,0.425781 L 12,21.154297 8.7246094,17.675781 C 8.4697114,17.4049 8.1120957,17.25 7.7402344,17.25 H 3.75 Z"
     id="path2" />
  <path
     style="color:#000000;fill:currentColor;stroke-linecap:round;stroke-linejoin:round;-inkscape-stroke:none"
     d="M 12,6.25 A 0.750075,0.750075 0 0 0 11.34375,6.6367187 L 10.023438,9.0234375 7.6367187,10.34375 a 0.750075,0.750075 0 0 0 0,1.3125 l 2.3867193,1.320313 1.320312,2.386718 a 0.750075,0.750075 0 0 0 1.3125,0 l 1.320313,-2.386718 2.386718,-1.320313 a 0.750075,0.750075 0 0 0 0,-1.3125 L 13.976563,9.0234375 12.65625,6.6367187 A 0.750075,0.750075 0 0 0 12,6.25 Z M 12,8.5488281 12.769531,9.9375 A 0.750075,0.750075 0 0 0 13.0625,10.230469 L 14.451172,11 13.0625,11.769531 A 0.750075,0.750075 0 0 0 12.769531,12.0625 L 12,13.451172 11.230469,12.0625 A 0.750075,0.750075 0 0 0 10.9375,11.769531 L 9.5488281,11 10.9375,10.230469 A 0.750075,0.750075 0 0 0 11.230469,9.9375 Z"
     id="path4" />
</svg>
