<?xml version="1.0" encoding="UTF-8" standalone="no"?>
<svg
   width="24"
   height="24"
   stroke-width="1.5"
   viewBox="0 0 24 24"
   fill="none"
   version="1.1"
   id="svg20"
   sodipodi:docname="sun-light.svg"
   inkscape:version="1.2.1 (9c6d41e410, 2022-07-14)"
   xmlns:inkscape="http://www.inkscape.org/namespaces/inkscape"
   xmlns:sodipodi="http://sodipodi.sourceforge.net/DTD/sodipodi-0.dtd"
   xmlns="http://www.w3.org/2000/svg"
   xmlns:svg="http://www.w3.org/2000/svg">
  <defs
     id="defs24" />
  <sodipodi:namedview
     id="namedview22"
     pagecolor="#ffffff"
     bordercolor="#666666"
     borderopacity="1.0"
     inkscape:showpageshadow="2"
     inkscape:pageopacity="0.0"
     inkscape:pagecheckerboard="0"
     inkscape:deskcolor="#d1d1d1"
     showgrid="false"
     inkscape:zoom="34.541667"
     inkscape:cx="10.364294"
     inkscape:cy="12.014475"
     inkscape:window-width="1920"
     inkscape:window-height="1009"
     inkscape:window-x="1912"
     inkscape:window-y="-8"
     inkscape:window-maximized="1"
     inkscape:current-layer="svg20" />
  <path
     style="color:#000000;fill:currentColor;stroke-linecap:round;stroke-linejoin:round;-inkscape-stroke:none"
     d="m 12,5.25 c -3.719036,0 -6.75,3.030964 -6.75,6.75 0,3.719027 3.0309625,6.75 6.75,6.75 3.719029,0 6.75,-3.030971 6.75,-6.75 0,-3.7190375 -3.030973,-6.75 -6.75,-6.75 z m 0,1.5 c 2.908366,0 5.25,2.3416241 5.25,5.25 0,2.908365 -2.341635,5.25 -5.25,5.25 C 9.0916241,17.25 6.75,14.908366 6.75,12 6.75,9.0916226 9.0916226,6.75 12,6.75 Z"
     id="path2" />
  <path
     style="color:#000000;fill:currentColor;stroke-linecap:round;stroke-linejoin:round;-inkscape-stroke:none"
     d="M 22,11.25 A 0.75,0.75 0 0 0 21.25,12 0.75,0.75 0 0 0 22,12.75 h 1 A 0.75,0.75 0 0 0 23.75,12 0.75,0.75 0 0 0 23,11.25 Z"
     id="path4" />
  <path
     style="color:#000000;fill:currentColor;stroke-linecap:round;stroke-linejoin:round;-inkscape-stroke:none"
     d="M 12,0.25 A 0.75,0.75 0 0 0 11.25,1 V 2 A 0.75,0.75 0 0 0 12,2.75 0.75,0.75 0 0 0 12.75,2 V 1 A 0.75,0.75 0 0 0 12,0.25 Z"
     id="path6" />
  <path
     style="color:#000000;fill:currentColor;stroke-linecap:round;stroke-linejoin:round;-inkscape-stroke:none"
     d="M 12,21.25 A 0.75,0.75 0 0 0 11.25,22 v 1 A 0.75,0.75 0 0 0 12,23.75 0.75,0.75 0 0 0 12.75,23 V 22 A 0.75,0.75 0 0 0 12,21.25 Z"
     id="path8" />
  <path
     style="color:#000000;fill:currentColor;stroke-linecap:round;stroke-linejoin:round;-inkscape-stroke:none"
     d="m 19,18.25 a 0.75,0.75 0 0 0 -0.53125,0.21875 0.75,0.75 0 0 0 0,1.0625 l 1,1 a 0.75,0.75 0 0 0 1.0625,0 0.75,0.75 0 0 0 0,-1.0625 l -1,-1 A 0.75,0.75 0 0 0 19,18.25 Z"
     id="path10" />
  <path
     style="color:#000000;fill:currentColor;stroke-linecap:round;stroke-linejoin:round;-inkscape-stroke:none"
     d="m 20,3.25 a 0.75,0.75 0 0 0 -0.53125,0.21875 l -1,1 a 0.75,0.75 0 0 0 0,1.0625 0.75,0.75 0 0 0 1.0625,0 l 1,-1 a 0.75,0.75 0 0 0 0,-1.0625 A 0.75,0.75 0 0 0 20,3.25 Z"
     id="path12" />
  <path
     style="color:#000000;fill:currentColor;stroke-linecap:round;stroke-linejoin:round;-inkscape-stroke:none"
     d="m 5,18.25 a 0.75,0.75 0 0 0 -0.53125,0.21875 l -1,1 a 0.75,0.75 0 0 0 0,1.0625 0.75,0.75 0 0 0 1.0625,0 l 1,-1 a 0.75,0.75 0 0 0 0,-1.0625 A 0.75,0.75 0 0 0 5,18.25 Z"
     id="path14" />
  <path
     style="color:#000000;fill:currentColor;stroke-linecap:round;stroke-linejoin:round;-inkscape-stroke:none"
     d="m 4,3.25 a 0.75,0.75 0 0 0 -0.53125,0.21875 0.75,0.75 0 0 0 0,1.0625 l 1,1 a 0.75,0.75 0 0 0 1.0625,0 0.75,0.75 0 0 0 0,-1.0625 l -1,-1 A 0.75,0.75 0 0 0 4,3.25 Z"
     id="path16" />
  <path
     style="color:#000000;fill:currentColor;stroke-linecap:round;stroke-linejoin:round;-inkscape-stroke:none"
     d="M 1,11.25 A 0.75,0.75 0 0 0 0.25,12 0.75,0.75 0 0 0 1,12.75 H 2 A 0.75,0.75 0 0 0 2.75,12 0.75,0.75 0 0 0 2,11.25 Z"
     id="path18" />
</svg>
