<?xml version="1.0" encoding="UTF-8" standalone="no"?>
<svg
   width="24"
   height="24"
   viewBox="0 0 24 24"
   stroke-width="1.5"
   fill="none"
   version="1.1"
   id="svg14"
   sodipodi:docname="sweep-3d.svg"
   inkscape:version="1.2.1 (9c6d41e410, 2022-07-14)"
   xmlns:inkscape="http://www.inkscape.org/namespaces/inkscape"
   xmlns:sodipodi="http://sodipodi.sourceforge.net/DTD/sodipodi-0.dtd"
   xmlns="http://www.w3.org/2000/svg"
   xmlns:svg="http://www.w3.org/2000/svg">
  <defs
     id="defs18" />
  <sodipodi:namedview
     id="namedview16"
     pagecolor="#ffffff"
     bordercolor="#666666"
     borderopacity="1.0"
     inkscape:showpageshadow="2"
     inkscape:pageopacity="0.0"
     inkscape:pagecheckerboard="0"
     inkscape:deskcolor="#d1d1d1"
     showgrid="false"
     inkscape:zoom="34.541667"
     inkscape:cx="10.364294"
     inkscape:cy="12.014475"
     inkscape:window-width="1920"
     inkscape:window-height="1009"
     inkscape:window-x="1912"
     inkscape:window-y="-8"
     inkscape:window-maximized="1"
     inkscape:current-layer="svg14" />
  <path
     style="color:#000000;fill:currentColor;stroke-linecap:round;stroke-linejoin:round;-inkscape-stroke:none"
     d="m 8.5,15.75 a 0.75,0.75 0 0 0 -0.53125,0.21875 l -5.5,5.5 a 0.75,0.75 0 0 0 0,1.0625 0.75,0.75 0 0 0 1.0625,0 l 5.5,-5.5 a 0.75,0.75 0 0 0 0,-1.0625 A 0.75,0.75 0 0 0 8.5,15.75 Z"
     id="path2" />
  <path
     style="color:#000000;fill:currentColor;stroke-linecap:round;stroke-linejoin:round;-inkscape-stroke:none"
     d="m 20,4.25 a 0.75,0.75 0 0 0 -0.53125,0.21875 l -2.5,2.5 a 0.75,0.75 0 0 0 0,1.0625 0.75,0.75 0 0 0 1.0625,0 l 2.5,-2.5 a 0.75,0.75 0 0 0 0,-1.0625 A 0.75,0.75 0 0 0 20,4.25 Z"
     id="path4" />
  <path
     style="color:#000000;fill:currentColor;stroke-linecap:round;stroke-linejoin:round;-inkscape-stroke:none"
     d="M 8.5,8.25 A 0.750075,0.750075 0 0 0 7.8515625,8.6230469 L 2.0195313,18.623047 a 0.75,0.75 0 0 0 0.2695312,1.02539 0.75,0.75 0 0 0 1.0253906,-0.271484 L 8.5,10.488281 14.193359,20.25 H 7 A 0.75,0.75 0 0 0 6.25,21 0.75,0.75 0 0 0 7,21.75 h 8.5 a 0.750075,0.750075 0 0 0 0.648437,-1.126953 L 9.1484375,8.6230469 A 0.750075,0.750075 0 0 0 8.5,8.25 Z"
     id="path6" />
  <path
     style="color:#000000;fill:currentColor;stroke-linecap:round;stroke-linejoin:round;-inkscape-stroke:none"
     d="m 14.691406,2.2753906 a 0.75,0.75 0 0 0 -0.568359,0.076172 0.75,0.75 0 0 0 -0.271484,1.0253906 l 6.999999,11.9999999 a 0.75,0.75 0 0 0 1.025391,0.271485 0.75,0.75 0 0 0 0.271484,-1.025391 L 15.148438,2.6230469 A 0.75,0.75 0 0 0 14.691406,2.2753906 Z"
     id="path8" />
  <path
     style="color:#000000;fill:currentColor;stroke-linecap:round;stroke-linejoin:round;-inkscape-stroke:none"
     d="m 14.5,2.25 a 0.75,0.75 0 0 0 -0.53125,0.21875 l -6,6 a 0.75,0.75 0 0 0 0,1.0625 0.75,0.75 0 0 0 1.0625,0 l 6,-6 a 0.75,0.75 0 0 0 0,-1.0625 A 0.75,0.75 0 0 0 14.5,2.25 Z"
     id="path10" />
  <path
     style="color:#000000;fill:currentColor;stroke-linecap:round;stroke-linejoin:round;-inkscape-stroke:none"
     d="m 21.5,14.25 a 0.75,0.75 0 0 0 -0.53125,0.21875 l -6,6 a 0.75,0.75 0 0 0 0,1.0625 0.75,0.75 0 0 0 1.0625,0 l 6,-6 a 0.75,0.75 0 0 0 0,-1.0625 A 0.75,0.75 0 0 0 21.5,14.25 Z"
     id="path12" />
</svg>
