<?xml version="1.0" encoding="UTF-8" standalone="no"?>
<svg
   width="24"
   height="24"
   stroke-width="1.5"
   viewBox="0 0 24 24"
   fill="none"
   version="1.1"
   id="svg10"
   sodipodi:docname="swimming.svg"
   inkscape:version="1.2.1 (9c6d41e410, 2022-07-14)"
   xmlns:inkscape="http://www.inkscape.org/namespaces/inkscape"
   xmlns:sodipodi="http://sodipodi.sourceforge.net/DTD/sodipodi-0.dtd"
   xmlns="http://www.w3.org/2000/svg"
   xmlns:svg="http://www.w3.org/2000/svg">
  <defs
     id="defs14" />
  <sodipodi:namedview
     id="namedview12"
     pagecolor="#ffffff"
     bordercolor="#666666"
     borderopacity="1.0"
     inkscape:showpageshadow="2"
     inkscape:pageopacity="0.0"
     inkscape:pagecheckerboard="0"
     inkscape:deskcolor="#d1d1d1"
     showgrid="false"
     inkscape:zoom="34.541667"
     inkscape:cx="10.364294"
     inkscape:cy="12.014475"
     inkscape:window-width="1920"
     inkscape:window-height="1009"
     inkscape:window-x="1912"
     inkscape:window-y="-8"
     inkscape:window-maximized="1"
     inkscape:current-layer="svg10" />
  <path
     style="color:#000000;fill:currentColor;stroke-linecap:round;stroke-linejoin:round;-inkscape-stroke:none"
     d="m 7.3457031,11.25 a 0.750075,0.750075 0 0 0 -0.6386719,0.353516 c 0,0 -0.4209957,0.676884 -1.125,1.357422 C 4.878027,13.641475 3.9392959,14.25 3,14.25 A 0.75,0.75 0 0 0 2.25,15 0.75,0.75 0 0 0 3,15.75 c 1.5434616,0 2.7772808,-0.891476 3.625,-1.710937 0.4492797,-0.434304 0.4849375,-0.557514 0.71875,-0.871094 0.2338052,0.313656 0.2709254,0.436311 0.7207031,0.871094 C 8.9121782,14.858524 10.145976,15.75 11.689453,15.75 c 1.543439,0 2.890323,-0.864939 3.884766,-1.666016 0.639749,-0.515351 0.788811,-0.730036 1.066406,-1.033203 0.267763,0.299295 0.416626,0.5042 0.994141,1.011719 C 18.538995,14.857136 19.66618,15.75 21,15.75 A 0.75,0.75 0 0 0 21.75,15 0.75,0.75 0 0 0 21,14.25 c -0.528278,0 -1.572356,-0.607137 -2.375,-1.3125 -0.802644,-0.705363 -1.392578,-1.416016 -1.392578,-1.416016 a 0.750075,0.750075 0 0 0 -1.154297,0 c 0,0 -0.577682,0.69561 -1.445312,1.394532 -0.867631,0.698922 -2.004101,1.333984 -2.94336,1.333984 -0.939321,0 -1.8780228,-0.608526 -2.5820311,-1.289062 -0.7040084,-0.680537 -1.125,-1.357422 -1.125,-1.357422 A 0.750075,0.750075 0 0 0 7.3457031,11.25 Z"
     id="path2" />
  <path
     style="color:#000000;fill:currentColor;stroke-linecap:round;stroke-linejoin:round;-inkscape-stroke:none"
     d="m 7.3457031,16.25 a 0.750075,0.750075 0 0 0 -0.6386719,0.353516 c 0,0 -0.4209957,0.676884 -1.125,1.357421 C 4.878027,18.641475 3.9392959,19.25 3,19.25 A 0.75,0.75 0 0 0 2.25,20 0.75,0.75 0 0 0 3,20.75 c 1.5434616,0 2.7772808,-0.891476 3.625,-1.710938 0.4492797,-0.434303 0.4849375,-0.557513 0.71875,-0.871093 0.2338052,0.313656 0.2709254,0.436311 0.7207031,0.871093 C 8.9121782,19.858524 10.145976,20.75 11.689453,20.75 c 1.543439,0 2.890323,-0.864939 3.884766,-1.666016 0.639749,-0.515351 0.788811,-0.730036 1.066406,-1.033203 0.267763,0.299295 0.416626,0.5042 0.994141,1.011719 C 18.538995,19.857136 19.66618,20.75 21,20.75 A 0.75,0.75 0 0 0 21.75,20 0.75,0.75 0 0 0 21,19.25 c -0.528278,0 -1.572356,-0.607137 -2.375,-1.3125 -0.802644,-0.705363 -1.392578,-1.416016 -1.392578,-1.416016 a 0.750075,0.750075 0 0 0 -1.154297,0 c 0,0 -0.577682,0.69561 -1.445312,1.394532 -0.867631,0.698922 -2.004101,1.333984 -2.94336,1.333984 -0.939321,0 -1.8780228,-0.608526 -2.5820311,-1.289063 -0.7040084,-0.680536 -1.125,-1.357421 -1.125,-1.357421 A 0.750075,0.750075 0 0 0 7.3457031,16.25 Z"
     id="path4" />
  <path
     style="color:#000000;fill:currentColor;stroke-linecap:round;stroke-linejoin:round;-inkscape-stroke:none"
     d="M 9.03125,3.734375 C 8.5346305,3.6763666 8.0171285,3.8001419 7.5917969,4.1191406 6.6911902,4.7945956 6.5233133,6.1053096 7.2265625,6.984375 L 7.8867187,7.8105469 4.6015625,9.8632813 a 0.75,0.75 0 0 0 -0.2382813,1.0351567 0.75,0.75 0 0 0 1.0351563,0.238281 l 4,-2.5000002 a 0.750075,0.750075 0 0 0 0.1875,-1.1054688 l -1.1875,-1.484375 C 8.2119476,5.8137615 8.2533553,5.4974835 8.4921875,5.3183594 8.7160831,5.1504377 9.0122344,5.1853845 9.1914063,5.4003906 l 4.2324217,5.0800784 a 0.75,0.75 0 0 0 1.056641,0.0957 0.75,0.75 0 0 0 0.0957,-1.0566407 L 10.34375,4.4414062 C 10.003386,4.0329698 9.5278695,3.7923834 9.03125,3.734375 Z"
     id="path6" />
  <path
     style="color:#000000;fill:currentColor;stroke-linecap:round;stroke-linejoin:round;-inkscape-stroke:none"
     d="m 16.5,2.25 c -1.786032,0 -3.25,1.4639568 -3.25,3.25 0,1.7860432 1.463968,3.25 3.25,3.25 1.786032,0 3.25,-1.4639568 3.25,-3.25 0,-1.7860432 -1.463968,-3.25 -3.25,-3.25 z m 0,1.5 c 0.975365,0 1.75,0.7746259 1.75,1.75 0,0.9753741 -0.774635,1.75 -1.75,1.75 -0.975365,0 -1.75,-0.7746259 -1.75,-1.75 0,-0.9753741 0.774635,-1.75 1.75,-1.75 z"
     id="path8" />
</svg>
