<?xml version="1.0" encoding="UTF-8" standalone="no"?>
<svg
   width="24"
   height="24"
   stroke-width="1.5"
   viewBox="0 0 24 24"
   fill="none"
   version="1.1"
   id="svg6"
   sodipodi:docname="swipe-two-fingers-up-gesture.svg"
   inkscape:version="1.2.1 (9c6d41e410, 2022-07-14)"
   xmlns:inkscape="http://www.inkscape.org/namespaces/inkscape"
   xmlns:sodipodi="http://sodipodi.sourceforge.net/DTD/sodipodi-0.dtd"
   xmlns="http://www.w3.org/2000/svg"
   xmlns:svg="http://www.w3.org/2000/svg">
  <defs
     id="defs10" />
  <sodipodi:namedview
     id="namedview8"
     pagecolor="#ffffff"
     bordercolor="#666666"
     borderopacity="1.0"
     inkscape:showpageshadow="2"
     inkscape:pageopacity="0.0"
     inkscape:pagecheckerboard="0"
     inkscape:deskcolor="#d1d1d1"
     showgrid="false"
     inkscape:zoom="34.541667"
     inkscape:cx="10.364294"
     inkscape:cy="12.014475"
     inkscape:window-width="1920"
     inkscape:window-height="1009"
     inkscape:window-x="1912"
     inkscape:window-y="-8"
     inkscape:window-maximized="1"
     inkscape:current-layer="svg6" />
  <path
     style="color:#000000;fill:currentColor;stroke-linecap:round;stroke-linejoin:round;-inkscape-stroke:none"
     d="m 6.484375,4.25 a 0.75,0.75 0 0 0 -0.2382813,0.1054687 0.75,0.75 0 0 0 -0.015625,0.00586 0.75,0.75 0 0 0 -0.017578,0.00781 0.75,0.75 0 0 0 -0.2324219,0.089844 l -0.00977,0.00781 a 0.75,0.75 0 0 0 -0.00391,0.00391 l -0.00781,0.00977 -2.4785156,2.3789063 a 0.75,0.75 0 0 0 -0.021484,1.0605469 0.75,0.75 0 0 0 1.0605468,0.021484 L 5.75,6.7597656 V 11.402344 C 3.7802192,11.770348 2.25,13.427308 2.25,15.5 c 0,2.338326 1.9116738,4.25 4.25,4.25 2.3383262,0 4.25,-1.911674 4.25,-4.25 0,-2.072692 -1.5302192,-3.729652 -3.5,-4.097656 V 6.7597656 L 8.4804688,7.9414062 A 0.75,0.75 0 0 0 9.5410156,7.9199219 0.75,0.75 0 0 0 9.5195313,6.859375 L 7.0410156,4.4804687 a 0.75,0.75 0 0 0 -0.00195,-0.00195 L 7.03125,4.46875 a 0.75,0.75 0 0 0 -0.00586,-0.00391 l -0.00586,-0.00586 A 0.75,0.75 0 0 0 7.0117187,4.4570312 0.75,0.75 0 0 0 6.5292969,4.2558594 0.75,0.75 0 0 0 6.5097656,4.2519531 0.75,0.75 0 0 0 6.5,4.25 0.75,0.75 0 0 0 6.4921875,4.2539062 0.75,0.75 0 0 0 6.484375,4.25 Z M 6.5,12.75 c 1.52767,0 2.75,1.22233 2.75,2.75 0,1.52767 -1.22233,2.75 -2.75,2.75 -1.52767,0 -2.75,-1.22233 -2.75,-2.75 0,-1.52767 1.22233,-2.75 2.75,-2.75 z"
     id="path2" />
  <path
     style="color:#000000;fill:currentColor;stroke-linecap:round;stroke-linejoin:round;-inkscape-stroke:none"
     d="m 17.484375,4.25 a 0.75,0.75 0 0 0 -0.238281,0.1054687 0.75,0.75 0 0 0 -0.01563,0.00586 0.75,0.75 0 0 0 -0.01758,0.00781 0.75,0.75 0 0 0 -0.232422,0.089844 l -0.0098,0.00781 a 0.75,0.75 0 0 0 -0.0039,0.00391 l -0.0078,0.00977 -2.478515,2.3789063 a 0.75,0.75 0 0 0 -0.02149,1.0605469 0.75,0.75 0 0 0 1.060547,0.021484 L 16.75,6.7597656 v 4.6425784 c -1.969781,0.368004 -3.5,2.024964 -3.5,4.097656 0,2.338326 1.911674,4.25 4.25,4.25 2.338326,0 4.25,-1.911674 4.25,-4.25 0,-2.072692 -1.530219,-3.729652 -3.5,-4.097656 V 6.7597656 l 1.230469,1.1816406 A 0.75,0.75 0 0 0 20.541016,7.9199219 0.75,0.75 0 0 0 20.519531,6.859375 L 18.041016,4.4804687 a 0.75,0.75 0 0 0 -0.002,-0.00195 l -0.0078,-0.00977 a 0.75,0.75 0 0 0 -0.0059,-0.00391 l -0.0059,-0.00586 a 0.75,0.75 0 0 0 -0.0078,-0.00195 0.75,0.75 0 0 0 -0.482422,-0.2011718 0.75,0.75 0 0 0 -0.01953,-0.00391 A 0.75,0.75 0 0 0 17.5,4.25 0.75,0.75 0 0 0 17.492187,4.2539062 0.75,0.75 0 0 0 17.484375,4.25 Z M 17.5,12.75 c 1.52767,0 2.75,1.22233 2.75,2.75 0,1.52767 -1.22233,2.75 -2.75,2.75 -1.52767,0 -2.75,-1.22233 -2.75,-2.75 0,-1.52767 1.22233,-2.75 2.75,-2.75 z"
     id="path4" />
</svg>
