<?xml version="1.0" encoding="UTF-8" standalone="no"?>
<svg
   width="24"
   height="24"
   stroke-width="1.5"
   viewBox="0 0 24 24"
   fill="none"
   version="1.1"
   id="svg4"
   sodipodi:docname="swipe-right-gesture.svg"
   inkscape:version="1.2.1 (9c6d41e410, 2022-07-14)"
   xmlns:inkscape="http://www.inkscape.org/namespaces/inkscape"
   xmlns:sodipodi="http://sodipodi.sourceforge.net/DTD/sodipodi-0.dtd"
   xmlns="http://www.w3.org/2000/svg"
   xmlns:svg="http://www.w3.org/2000/svg">
  <defs
     id="defs8" />
  <sodipodi:namedview
     id="namedview6"
     pagecolor="#ffffff"
     bordercolor="#666666"
     borderopacity="1.0"
     inkscape:showpageshadow="2"
     inkscape:pageopacity="0.0"
     inkscape:pagecheckerboard="0"
     inkscape:deskcolor="#d1d1d1"
     showgrid="false"
     inkscape:zoom="34.541667"
     inkscape:cx="10.364294"
     inkscape:cy="12.014475"
     inkscape:window-width="1920"
     inkscape:window-height="1009"
     inkscape:window-x="1912"
     inkscape:window-y="-8"
     inkscape:window-maximized="1"
     inkscape:current-layer="svg4" />
  <path
     style="color:#000000;fill:currentColor;stroke-linecap:round;stroke-linejoin:round;-inkscape-stroke:none"
     d="m 8,5.25 c -3.719036,0 -6.75,3.030964 -6.75,6.75 0,3.719027 3.0309625,6.75 6.75,6.75 3.453155,0 6.206388,-2.649309 6.597656,-6 H 20.1875 l -1.71875,1.71875 a 0.75,0.75 0 0 0 0,1.0625 0.75,0.75 0 0 0 1.0625,0 l 3,-3 A 0.75,0.75 0 0 0 22.724609,12.0625 0.75,0.75 0 0 0 22.75,12 a 0.75,0.75 0 0 0 -0.02539,-0.128906 0.75,0.75 0 0 0 0,-0.06445 0.75,0.75 0 0 0 -0.01953,-0.0332 0.75,0.75 0 0 0 -0.173828,-0.304688 l -3,-3 a 0.75,0.75 0 0 0 -1.0625,0 0.75,0.75 0 0 0 0,1.0625 L 20.1875,11.25 H 14.597656 C 14.206388,7.8993032 11.453154,5.25 8,5.25 Z m 0,1.5 c 2.908366,0 5.25,2.3416241 5.25,5.25 0,2.908365 -2.341635,5.25 -5.25,5.25 C 5.0916241,17.25 2.75,14.908366 2.75,12 2.75,9.0916226 5.0916226,6.75 8,6.75 Z"
     id="path2" />
</svg>
