<?xml version="1.0" encoding="UTF-8" standalone="no"?>
<svg
   width="24"
   height="24"
   stroke-width="1.5"
   viewBox="0 0 24 24"
   fill="none"
   version="1.1"
   id="svg6"
   sodipodi:docname="swipe-two-fingers-right-gesture.svg"
   inkscape:version="1.2.1 (9c6d41e410, 2022-07-14)"
   xmlns:inkscape="http://www.inkscape.org/namespaces/inkscape"
   xmlns:sodipodi="http://sodipodi.sourceforge.net/DTD/sodipodi-0.dtd"
   xmlns="http://www.w3.org/2000/svg"
   xmlns:svg="http://www.w3.org/2000/svg">
  <defs
     id="defs10" />
  <sodipodi:namedview
     id="namedview8"
     pagecolor="#ffffff"
     bordercolor="#666666"
     borderopacity="1.0"
     inkscape:showpageshadow="2"
     inkscape:pageopacity="0.0"
     inkscape:pagecheckerboard="0"
     inkscape:deskcolor="#d1d1d1"
     showgrid="false"
     inkscape:zoom="34.541667"
     inkscape:cx="10.364294"
     inkscape:cy="12.014475"
     inkscape:window-width="1920"
     inkscape:window-height="1009"
     inkscape:window-x="1912"
     inkscape:window-y="-8"
     inkscape:window-maximized="1"
     inkscape:current-layer="svg6" />
  <path
     style="color:#000000;fill:currentColor;stroke-linecap:round;stroke-linejoin:round;-inkscape-stroke:none"
     d="m 8.5,13.25 c -2.3383262,0 -4.25,1.911674 -4.25,4.25 0,2.338326 1.9116738,4.25 4.25,4.25 2.072692,0 3.729652,-1.530219 4.097656,-3.5 h 4.642578 l -1.18164,1.230469 a 0.75,0.75 0 0 0 0.02148,1.060547 0.75,0.75 0 0 0 1.060547,-0.02148 l 2.378906,-2.478515 0.0098,-0.0078 0.002,-0.002 a 0.75,0.75 0 0 0 0.002,-0.002 l 0.0078,-0.0098 a 0.75,0.75 0 0 0 0.07422,-0.115234 0.75,0.75 0 0 0 0.07617,-0.117188 0.75,0.75 0 0 0 0.03125,-0.144531 0.75,0.75 0 0 0 0.02539,-0.138672 0.75,0.75 0 0 0 0.002,-0.0039 0.75,0.75 0 0 0 -0.002,-0.0078 0.75,0.75 0 0 0 -0.02344,-0.11914 0.75,0.75 0 0 0 -0.002,-0.01563 0.75,0.75 0 0 0 -0.0039,-0.01367 0.75,0.75 0 0 0 -0.02344,-0.125 0.75,0.75 0 0 0 -0.0059,-0.01172 0.75,0.75 0 0 0 -0.06641,-0.09961 0.75,0.75 0 0 0 -0.02148,-0.0332 0.75,0.75 0 0 0 -0.06055,-0.09375 l -0.0059,-0.0059 -0.0039,-0.0059 a 0.75,0.75 0 0 0 -0.0039,-0.002 l -0.0078,-0.0078 -2.378906,-2.478515 a 0.75,0.75 0 0 0 -1.060547,-0.02149 0.75,0.75 0 0 0 -0.02148,1.060547 L 17.240234,16.75 H 12.597656 C 12.229652,14.780219 10.572692,13.25 8.5,13.25 Z m 0,1.5 c 1.52767,0 2.75,1.22233 2.75,2.75 0,1.52767 -1.22233,2.75 -2.75,2.75 -1.52767,0 -2.75,-1.22233 -2.75,-2.75 0,-1.52767 1.22233,-2.75 2.75,-2.75 z"
     id="path2" />
  <path
     style="color:#000000;fill:currentColor;stroke-linecap:round;stroke-linejoin:round;-inkscape-stroke:none"
     d="m 8.5,2.25 c -2.3383262,0 -4.25,1.9116738 -4.25,4.25 0,2.3383262 1.9116738,4.25 4.25,4.25 2.072692,0 3.729652,-1.5302192 4.097656,-3.5 h 4.642578 l -1.18164,1.2304688 a 0.75,0.75 0 0 0 0.02148,1.0605468 0.75,0.75 0 0 0 1.060547,-0.021484 l 2.378906,-2.4785157 0.0098,-0.00781 0.002,-0.00195 a 0.75,0.75 0 0 0 0.002,-0.00195 l 0.0078,-0.00977 a 0.75,0.75 0 0 0 0.07422,-0.1152343 0.75,0.75 0 0 0 0.07617,-0.1171875 0.75,0.75 0 0 0 0.03125,-0.1445313 0.75,0.75 0 0 0 0.02539,-0.1386719 A 0.75,0.75 0 0 0 19.75,6.5 a 0.75,0.75 0 0 0 -0.002,-0.00781 0.75,0.75 0 0 0 -0.02344,-0.1191406 0.75,0.75 0 0 0 -0.002,-0.015625 0.75,0.75 0 0 0 -0.0039,-0.013672 0.75,0.75 0 0 0 -0.02344,-0.125 0.75,0.75 0 0 0 -0.0059,-0.011719 0.75,0.75 0 0 0 -0.06641,-0.099609 0.75,0.75 0 0 0 -0.02148,-0.033203 0.75,0.75 0 0 0 -0.06055,-0.09375 l -0.0059,-0.00586 -0.0039,-0.00586 a 0.75,0.75 0 0 0 -0.0039,-0.00195 l -0.0078,-0.00781 -2.378906,-2.4785156 a 0.75,0.75 0 0 0 -1.060547,-0.021484 0.75,0.75 0 0 0 -0.02148,1.0605468 L 17.240234,5.75 H 12.597656 C 12.229652,3.7802192 10.572692,2.25 8.5,2.25 Z m 0,1.5 c 1.52767,0 2.75,1.22233 2.75,2.75 0,1.52767 -1.22233,2.75 -2.75,2.75 C 6.97233,9.25 5.75,8.02767 5.75,6.5 5.75,4.97233 6.97233,3.75 8.5,3.75 Z"
     id="path4" />
</svg>
