<?xml version="1.0" encoding="UTF-8" standalone="no"?>
<svg
   width="24"
   height="24"
   stroke-width="1.5"
   viewBox="0 0 24 24"
   fill="none"
   version="1.1"
   id="svg6"
   sodipodi:docname="swipe-two-fingers-down-gesture.svg"
   inkscape:version="1.2.1 (9c6d41e410, 2022-07-14)"
   xmlns:inkscape="http://www.inkscape.org/namespaces/inkscape"
   xmlns:sodipodi="http://sodipodi.sourceforge.net/DTD/sodipodi-0.dtd"
   xmlns="http://www.w3.org/2000/svg"
   xmlns:svg="http://www.w3.org/2000/svg">
  <defs
     id="defs10" />
  <sodipodi:namedview
     id="namedview8"
     pagecolor="#ffffff"
     bordercolor="#666666"
     borderopacity="1.0"
     inkscape:showpageshadow="2"
     inkscape:pageopacity="0.0"
     inkscape:pagecheckerboard="0"
     inkscape:deskcolor="#d1d1d1"
     showgrid="false"
     inkscape:zoom="34.541667"
     inkscape:cx="10.364294"
     inkscape:cy="12.014475"
     inkscape:window-width="1920"
     inkscape:window-height="1009"
     inkscape:window-x="1912"
     inkscape:window-y="-8"
     inkscape:window-maximized="1"
     inkscape:current-layer="svg6" />
  <path
     style="color:#000000;fill:currentColor;stroke-linecap:round;stroke-linejoin:round;-inkscape-stroke:none"
     d="m 6.5,4.25 c -2.3383262,0 -4.25,1.9116738 -4.25,4.25 0,2.072692 1.5302192,3.729652 3.5,4.097656 v 4.642578 l -1.2304688,-1.18164 a 0.75,0.75 0 0 0 -1.0605468,0.02148 0.75,0.75 0 0 0 0.021484,1.060547 l 2.4785156,2.378906 0.00781,0.0098 a 0.75,0.75 0 0 0 0.00391,0.0039 l 0.00977,0.0078 a 0.75,0.75 0 0 0 0.2324219,0.08984 0.75,0.75 0 0 0 0.017578,0.0078 0.75,0.75 0 0 0 0.015625,0.0059 0.75,0.75 0 0 0 0.2460938,0.101563 A 0.75,0.75 0 0 0 6.5,19.75 a 0.75,0.75 0 0 0 0.00781,-0.0039 0.75,0.75 0 0 0 0.2460937,-0.101563 0.75,0.75 0 0 0 0.015625,-0.0059 0.75,0.75 0 0 0 0.017578,-0.0078 0.75,0.75 0 0 0 0.2324218,-0.08984 l 0.00977,-0.0078 0.00195,-0.002 a 0.75,0.75 0 0 0 0.00195,-0.002 l 0.00781,-0.0098 2.4785157,-2.378906 a 0.75,0.75 0 0 0 0.021484,-1.060547 0.75,0.75 0 0 0 -1.0605468,-0.02148 L 7.25,17.240234 V 12.597656 C 9.2197808,12.229652 10.75,10.572692 10.75,8.5 10.75,6.1616738 8.8383262,4.25 6.5,4.25 Z m 0,1.5 c 1.52767,0 2.75,1.22233 2.75,2.75 0,1.52767 -1.22233,2.75 -2.75,2.75 -1.52767,0 -2.75,-1.22233 -2.75,-2.75 0,-1.52767 1.22233,-2.75 2.75,-2.75 z"
     id="path2" />
  <path
     style="color:#000000;fill:currentColor;stroke-linecap:round;stroke-linejoin:round;-inkscape-stroke:none"
     d="m 17.5,4.25 c -2.338326,0 -4.25,1.9116738 -4.25,4.25 0,2.072692 1.530219,3.729652 3.5,4.097656 v 4.642578 l -1.230469,-1.18164 a 0.75,0.75 0 0 0 -1.060547,0.02148 0.75,0.75 0 0 0 0.02149,1.060547 l 2.478515,2.378906 0.0078,0.0098 a 0.75,0.75 0 0 0 0.0039,0.0039 l 0.0098,0.0078 a 0.75,0.75 0 0 0 0.232422,0.08984 0.75,0.75 0 0 0 0.01758,0.0078 0.75,0.75 0 0 0 0.01563,0.0059 0.75,0.75 0 0 0 0.246093,0.101563 0.75,0.75 0 0 0 0.0078,0.0039 0.75,0.75 0 0 0 0.0078,-0.0039 0.75,0.75 0 0 0 0.246094,-0.101563 0.75,0.75 0 0 0 0.01563,-0.0059 0.75,0.75 0 0 0 0.01758,-0.0078 0.75,0.75 0 0 0 0.232422,-0.08984 l 0.0098,-0.0078 0.002,-0.002 a 0.75,0.75 0 0 0 0.002,-0.002 l 0.0078,-0.0098 2.478515,-2.378906 a 0.75,0.75 0 0 0 0.02148,-1.060547 0.75,0.75 0 0 0 -1.060547,-0.02148 L 18.25,17.240234 V 12.597656 C 20.219781,12.229652 21.75,10.572692 21.75,8.5 21.75,6.1616738 19.838326,4.25 17.5,4.25 Z m 0,1.5 c 1.52767,0 2.75,1.22233 2.75,2.75 0,1.52767 -1.22233,2.75 -2.75,2.75 -1.52767,0 -2.75,-1.22233 -2.75,-2.75 0,-1.52767 1.22233,-2.75 2.75,-2.75 z"
     id="path4" />
</svg>
