<?xml version="1.0" encoding="UTF-8" standalone="no"?>
<svg
   width="24"
   height="24"
   stroke-width="1.5"
   viewBox="0 0 24 24"
   fill="none"
   version="1.1"
   id="svg6"
   sodipodi:docname="swipe-two-fingers-left-gesture.svg"
   inkscape:version="1.2.1 (9c6d41e410, 2022-07-14)"
   xmlns:inkscape="http://www.inkscape.org/namespaces/inkscape"
   xmlns:sodipodi="http://sodipodi.sourceforge.net/DTD/sodipodi-0.dtd"
   xmlns="http://www.w3.org/2000/svg"
   xmlns:svg="http://www.w3.org/2000/svg">
  <defs
     id="defs10" />
  <sodipodi:namedview
     id="namedview8"
     pagecolor="#ffffff"
     bordercolor="#666666"
     borderopacity="1.0"
     inkscape:showpageshadow="2"
     inkscape:pageopacity="0.0"
     inkscape:pagecheckerboard="0"
     inkscape:deskcolor="#d1d1d1"
     showgrid="false"
     inkscape:zoom="34.541667"
     inkscape:cx="10.364294"
     inkscape:cy="12.014475"
     inkscape:window-width="1920"
     inkscape:window-height="1009"
     inkscape:window-x="1912"
     inkscape:window-y="-8"
     inkscape:window-maximized="1"
     inkscape:current-layer="svg6" />
  <path
     style="color:#000000;fill:currentColor;stroke-linecap:round;stroke-linejoin:round;-inkscape-stroke:none"
     d="m 15.5,13.25 c -2.072692,0 -3.729652,1.530219 -4.097656,3.5 H 6.7597656 l 1.1816406,-1.230469 a 0.75,0.75 0 0 0 -0.021484,-1.060547 0.75,0.75 0 0 0 -1.0605469,0.02149 l -2.3789063,2.478515 -0.00977,0.0078 a 0.75,0.75 0 0 0 -0.00391,0.0039 l -0.00781,0.0098 a 0.75,0.75 0 0 0 -0.089844,0.232422 0.75,0.75 0 0 0 -0.00781,0.01758 0.75,0.75 0 0 0 -0.00586,0.01563 A 0.75,0.75 0 0 0 4.2539062,17.492187 0.75,0.75 0 0 0 4.25,17.5 a 0.75,0.75 0 0 0 0.00391,0.0078 0.75,0.75 0 0 0 0.1015625,0.246094 0.75,0.75 0 0 0 0.00586,0.01563 0.75,0.75 0 0 0 0.00781,0.01758 0.75,0.75 0 0 0 0.089844,0.232422 l 0.00781,0.0098 a 0.75,0.75 0 0 0 0.00391,0.0039 l 0.00977,0.0078 2.3789063,2.478515 a 0.75,0.75 0 0 0 1.0605469,0.02148 0.75,0.75 0 0 0 0.021484,-1.060547 L 6.7597656,18.25 h 4.6425784 c 0.368004,1.969781 2.024964,3.5 4.097656,3.5 2.338326,0 4.25,-1.911674 4.25,-4.25 0,-2.338326 -1.911674,-4.25 -4.25,-4.25 z m 0,1.5 c 1.52767,0 2.75,1.22233 2.75,2.75 0,1.52767 -1.22233,2.75 -2.75,2.75 -1.52767,0 -2.75,-1.22233 -2.75,-2.75 0,-1.52767 1.22233,-2.75 2.75,-2.75 z"
     id="path2" />
  <path
     style="color:#000000;fill:currentColor;stroke-linecap:round;stroke-linejoin:round;-inkscape-stroke:none"
     d="m 15.5,2.25 c -2.072692,0 -3.729652,1.5302192 -4.097656,3.5 H 6.7597656 L 7.9414062,4.5195312 A 0.75,0.75 0 0 0 7.9199219,3.4589844 0.75,0.75 0 0 0 6.859375,3.4804688 l -2.3789063,2.4785156 -0.00977,0.00781 a 0.75,0.75 0 0 0 -0.00391,0.00391 l -0.00781,0.00977 a 0.75,0.75 0 0 0 -0.089844,0.2324219 0.75,0.75 0 0 0 -0.00781,0.017578 0.75,0.75 0 0 0 -0.00586,0.015625 A 0.75,0.75 0 0 0 4.2539062,6.4921875 0.75,0.75 0 0 0 4.25,6.5 a 0.75,0.75 0 0 0 0.00391,0.00781 0.75,0.75 0 0 0 0.1015625,0.2460937 0.75,0.75 0 0 0 0.00586,0.015625 0.75,0.75 0 0 0 0.00781,0.017578 0.75,0.75 0 0 0 0.089844,0.2324218 l 0.00781,0.00977 a 0.75,0.75 0 0 0 0.00391,0.00391 l 0.00977,0.00781 2.3789063,2.4785157 a 0.75,0.75 0 0 0 1.0605469,0.021484 0.75,0.75 0 0 0 0.021484,-1.0605468 L 6.7597656,7.25 h 4.6425784 c 0.368004,1.9697808 2.024964,3.5 4.097656,3.5 2.338326,0 4.25,-1.9116738 4.25,-4.25 0,-2.3383262 -1.911674,-4.25 -4.25,-4.25 z m 0,1.5 c 1.52767,0 2.75,1.22233 2.75,2.75 0,1.52767 -1.22233,2.75 -2.75,2.75 -1.52767,0 -2.75,-1.22233 -2.75,-2.75 0,-1.52767 1.22233,-2.75 2.75,-2.75 z"
     id="path4" />
</svg>
