<?xml version="1.0" encoding="UTF-8" standalone="no"?>
<svg
   width="24"
   height="24"
   stroke-width="1.5"
   viewBox="0 0 24 24"
   fill="none"
   version="1.1"
   id="svg6"
   sodipodi:docname="switch-off.svg"
   inkscape:version="1.2.1 (9c6d41e410, 2022-07-14)"
   xmlns:inkscape="http://www.inkscape.org/namespaces/inkscape"
   xmlns:sodipodi="http://sodipodi.sourceforge.net/DTD/sodipodi-0.dtd"
   xmlns="http://www.w3.org/2000/svg"
   xmlns:svg="http://www.w3.org/2000/svg">
  <defs
     id="defs10" />
  <sodipodi:namedview
     id="namedview8"
     pagecolor="#ffffff"
     bordercolor="#666666"
     borderopacity="1.0"
     inkscape:showpageshadow="2"
     inkscape:pageopacity="0.0"
     inkscape:pagecheckerboard="0"
     inkscape:deskcolor="#d1d1d1"
     showgrid="false"
     inkscape:zoom="34.541667"
     inkscape:cx="10.364294"
     inkscape:cy="12.014475"
     inkscape:window-width="1920"
     inkscape:window-height="1009"
     inkscape:window-x="1912"
     inkscape:window-y="-8"
     inkscape:window-maximized="1"
     inkscape:current-layer="svg6" />
  <g
     id="path2">
    <path
       style="color:#000000;fill:currentColor;stroke-width:1.5;stroke-linecap:round;stroke-linejoin:round;-inkscape-stroke:none"
       d="m 7,13 c 0.55228,0 1,-0.4477 1,-1 0,-0.5523 -0.44772,-1 -1,-1 -0.55228,0 -1,0.4477 -1,1 0,0.5523 0.44772,1 1,1 z"
       id="path191" />
    <path
       style="color:#000000;fill:currentColor;stroke-linecap:round;stroke-linejoin:round;-inkscape-stroke:none"
       d="m 7,10.25 c -0.9575988,0 -1.75,0.792378 -1.75,1.75 0,0.957622 0.7924012,1.75 1.75,1.75 0.9575988,0 1.75,-0.792378 1.75,-1.75 0,-0.957622 -0.7924012,-1.75 -1.75,-1.75 z m 0,1.5 c 0.1469601,0 0.25,0.103023 0.25,0.25 0,0.146977 -0.1030399,0.25 -0.25,0.25 -0.1469601,0 -0.25,-0.103023 -0.25,-0.25 0,-0.146977 0.1030399,-0.25 0.25,-0.25 z"
       id="path193" />
  </g>
  <path
     style="color:#000000;fill:currentColor;-inkscape-stroke:none"
     d="m 7,6.25 c -3.1667481,0 -5.75,2.5832519 -5.75,5.75 0,3.166731 2.5832482,5.75 5.75,5.75 h 10 c 3.166735,0 5.75,-2.583265 5.75,-5.75 0,-3.1667518 -2.583269,-5.75 -5.75,-5.75 z m 0,1.5 h 10 c 2.356063,0 4.25,1.8939173 4.25,4.25 0,2.35606 -1.89394,4.25 -4.25,4.25 H 7 C 4.6439173,16.25 2.75,14.356063 2.75,12 2.75,9.6439137 4.6439137,7.75 7,7.75 Z"
     id="path4" />
</svg>
