<?xml version="1.0" encoding="UTF-8" standalone="no"?>
<svg
   width="24"
   height="24"
   stroke-width="1.5"
   viewBox="0 0 24 24"
   fill="none"
   version="1.1"
   id="svg18"
   sodipodi:docname="system-restart.svg"
   inkscape:version="1.2.1 (9c6d41e410, 2022-07-14)"
   xmlns:inkscape="http://www.inkscape.org/namespaces/inkscape"
   xmlns:sodipodi="http://sodipodi.sourceforge.net/DTD/sodipodi-0.dtd"
   xmlns="http://www.w3.org/2000/svg"
   xmlns:svg="http://www.w3.org/2000/svg">
  <defs
     id="defs22" />
  <sodipodi:namedview
     id="namedview20"
     pagecolor="#ffffff"
     bordercolor="#666666"
     borderopacity="1.0"
     inkscape:showpageshadow="2"
     inkscape:pageopacity="0.0"
     inkscape:pagecheckerboard="0"
     inkscape:deskcolor="#d1d1d1"
     showgrid="false"
     inkscape:zoom="34.541667"
     inkscape:cx="10.364294"
     inkscape:cy="12.014475"
     inkscape:window-width="1920"
     inkscape:window-height="1009"
     inkscape:window-x="1912"
     inkscape:window-y="-8"
     inkscape:window-maximized="1"
     inkscape:current-layer="svg18" />
  <path
     style="color:#000000;fill:currentColor;stroke-linecap:round;stroke-linejoin:round;-inkscape-stroke:none"
     d="M 12,1.25 A 0.75,0.75 0 0 0 11.25,2 V 6 A 0.75,0.75 0 0 0 12,6.75 0.75,0.75 0 0 0 12.75,6 V 2 A 0.75,0.75 0 0 0 12,1.25 Z"
     id="path2" />
  <path
     style="color:#000000;fill:currentColor;stroke-linecap:round;stroke-linejoin:round;-inkscape-stroke:none"
     d="M 12,17.25 A 0.75,0.75 0 0 0 11.25,18 v 4 A 0.75,0.75 0 0 0 12,22.75 0.75,0.75 0 0 0 12.75,22 V 18 A 0.75,0.75 0 0 0 12,17.25 Z"
     id="path4" />
  <path
     style="color:#000000;fill:currentColor;stroke-linecap:round;stroke-linejoin:round;-inkscape-stroke:none"
     d="M 18,11.25 A 0.75,0.75 0 0 0 17.25,12 0.75,0.75 0 0 0 18,12.75 h 4 A 0.75,0.75 0 0 0 22.75,12 0.75,0.75 0 0 0 22,11.25 Z"
     id="path6" />
  <path
     style="color:#000000;fill:currentColor;stroke-linecap:round;stroke-linejoin:round;-inkscape-stroke:none"
     d="M 2,11.25 A 0.75,0.75 0 0 0 1.25,12 0.75,0.75 0 0 0 2,12.75 H 6 A 0.75,0.75 0 0 0 6.75,12 0.75,0.75 0 0 0 6,11.25 Z"
     id="path8" />
  <path
     style="color:#000000;fill:currentColor;stroke-linecap:round;stroke-linejoin:round;-inkscape-stroke:none"
     d="m 4.9296875,4.1796875 a 0.75,0.75 0 0 0 -0.53125,0.21875 0.75,0.75 0 0 0 0,1.0605469 l 2.828125,2.828125 a 0.75,0.75 0 0 0 1.0605469,0 0.75,0.75 0 0 0 0,-1.0605469 l -2.828125,-2.828125 a 0.75,0.75 0 0 0 -0.5292969,-0.21875 z"
     id="path10" />
  <path
     style="color:#000000;fill:currentColor;stroke-linecap:round;stroke-linejoin:round;-inkscape-stroke:none"
     d="m 16.242187,15.492188 a 0.75,0.75 0 0 0 -0.529296,0.220703 0.75,0.75 0 0 0 0,1.060546 l 2.828125,2.828125 a 0.75,0.75 0 0 0 1.060546,0 0.75,0.75 0 0 0 0,-1.060546 l -2.828125,-2.828125 a 0.75,0.75 0 0 0 -0.53125,-0.220703 z"
     id="path12" />
  <path
     style="color:#000000;fill:currentColor;stroke-linecap:round;stroke-linejoin:round;-inkscape-stroke:none"
     d="m 19.070312,4.1796875 a 0.75,0.75 0 0 0 -0.529296,0.21875 l -2.828125,2.828125 a 0.75,0.75 0 0 0 0,1.0605469 0.75,0.75 0 0 0 1.060546,0 l 2.828125,-2.828125 a 0.75,0.75 0 0 0 0,-1.0605469 0.75,0.75 0 0 0 -0.53125,-0.21875 z"
     id="path14" />
  <path
     style="color:#000000;fill:currentColor;stroke-linecap:round;stroke-linejoin:round;-inkscape-stroke:none"
     d="m 7.7578125,15.492188 a 0.75,0.75 0 0 0 -0.53125,0.220703 l -2.828125,2.828125 a 0.75,0.75 0 0 0 0,1.060546 0.75,0.75 0 0 0 1.0605469,0 l 2.828125,-2.828125 a 0.75,0.75 0 0 0 0,-1.060546 0.75,0.75 0 0 0 -0.5292969,-0.220703 z"
     id="path16" />
</svg>
