<?xml version="1.0" encoding="UTF-8" standalone="no"?>
<svg
   width="24"
   height="24"
   stroke-width="1.5"
   viewBox="0 0 24 24"
   fill="none"
   version="1.1"
   id="svg6"
   sodipodi:docname="telegram-circle.svg"
   inkscape:version="1.2.1 (9c6d41e410, 2022-07-14)"
   xmlns:inkscape="http://www.inkscape.org/namespaces/inkscape"
   xmlns:sodipodi="http://sodipodi.sourceforge.net/DTD/sodipodi-0.dtd"
   xmlns="http://www.w3.org/2000/svg"
   xmlns:svg="http://www.w3.org/2000/svg">
  <defs
     id="defs10" />
  <sodipodi:namedview
     id="namedview8"
     pagecolor="#ffffff"
     bordercolor="#666666"
     borderopacity="1.0"
     inkscape:showpageshadow="2"
     inkscape:pageopacity="0.0"
     inkscape:pagecheckerboard="0"
     inkscape:deskcolor="#d1d1d1"
     showgrid="false"
     inkscape:zoom="34.541667"
     inkscape:cx="10.364294"
     inkscape:cy="12.014475"
     inkscape:window-width="1920"
     inkscape:window-height="1009"
     inkscape:window-x="1912"
     inkscape:window-y="-8"
     inkscape:window-maximized="1"
     inkscape:current-layer="svg6" />
  <path
     style="color:#000000;fill:currentColor;stroke-linecap:round;stroke-linejoin:round;-inkscape-stroke:none"
     d="M 17.753906,7.2910156 4.7539062,11.791016 a 0.750075,0.750075 0 0 0 0.00977,1.419922 l 4.3261719,1.441406 4.3789062,4.378906 a 0.750075,0.750075 0 0 0 1.232422,-0.263672 l 4,-10.4999999 a 0.75,0.75 0 0 0 0.0059,-0.058594 0.75,0.75 0 0 0 0.03125,-0.1230469 0.75,0.75 0 0 0 -0.0039,-0.140625 0.75,0.75 0 0 0 0,-0.00781 0.75,0.75 0 0 0 -0.002,-0.072266 0.75,0.75 0 0 0 -0.01758,-0.072266 0.75,0.75 0 0 0 -0.0059,-0.039063 0.75,0.75 0 0 0 -0.02539,-0.027344 0.75,0.75 0 0 0 -0.07031,-0.1582031 0.75,0.75 0 0 0 -0.01367,-0.00195 0.75,0.75 0 0 0 -0.228515,-0.1933593 0.75,0.75 0 0 0 -0.06836,-0.048828 0.75,0.75 0 0 0 -0.03516,-0.025391 0.75,0.75 0 0 0 -0.257812,0.00781 0.75,0.75 0 0 0 -0.25586,-0.015625 z m -1.330078,2.7402344 -2.71289,7.117187 -3.050782,-3.050781 z m -3.183594,0.410156 -3.8632809,2.728516 -2.046875,-0.683594 z"
     id="path2" />
  <path
     style="color:#000000;fill:currentColor;stroke-linecap:round;stroke-linejoin:round;-inkscape-stroke:none"
     d="M 12,1.25 C 6.0718263,1.25 1.25,6.0718263 1.25,12 1.25,17.928127 6.0718217,22.75 12,22.75 17.928132,22.75 22.75,17.928132 22.75,12 22.75,6.0718217 17.928127,1.25 12,1.25 Z m 0,1.5 c 5.117462,0 9.25,4.1324893 9.25,9.25 0,5.117457 -4.132543,9.25 -9.25,9.25 C 6.8824893,21.25 2.75,17.117462 2.75,12 2.75,6.8824848 6.8824848,2.75 12,2.75 Z"
     id="path4" />
</svg>
