<?xml version="1.0" encoding="UTF-8" standalone="no"?>
<svg
   width="24"
   height="24"
   stroke-width="1.5"
   viewBox="0 0 24 24"
   fill="none"
   version="1.1"
   id="svg4"
   sodipodi:docname="telegram.svg"
   inkscape:version="1.2.1 (9c6d41e410, 2022-07-14)"
   xmlns:inkscape="http://www.inkscape.org/namespaces/inkscape"
   xmlns:sodipodi="http://sodipodi.sourceforge.net/DTD/sodipodi-0.dtd"
   xmlns="http://www.w3.org/2000/svg"
   xmlns:svg="http://www.w3.org/2000/svg">
  <defs
     id="defs8" />
  <sodipodi:namedview
     id="namedview6"
     pagecolor="#ffffff"
     bordercolor="#666666"
     borderopacity="1.0"
     inkscape:showpageshadow="2"
     inkscape:pageopacity="0.0"
     inkscape:pagecheckerboard="0"
     inkscape:deskcolor="#d1d1d1"
     showgrid="false"
     inkscape:zoom="34.541667"
     inkscape:cx="10.364294"
     inkscape:cy="12.014475"
     inkscape:window-width="1920"
     inkscape:window-height="1009"
     inkscape:window-x="1912"
     inkscape:window-y="-8"
     inkscape:window-maximized="1"
     inkscape:current-layer="svg4" />
  <path
     style="color:#000000;fill:currentColor;stroke-linecap:round;stroke-linejoin:round;-inkscape-stroke:none"
     d="m 21.123047,4.2597656 a 0.75,0.75 0 0 0 -0.002,0.00195 0.75,0.75 0 0 0 -0.195313,0.044922 0.75,0.75 0 0 0 -0.201172,-0.00391 L 1.7246094,11.802734 a 0.750075,0.750075 0 0 0 0.1699218,1.439454 L 8.25,14.150391 V 19 a 0.750075,0.750075 0 0 0 1.2832031,0.527344 l 2.8066409,-2.832032 5.736328,3.923829 a 0.750075,0.750075 0 0 0 1.164062,-0.496094 l 2.5,-15.0000001 a 0.75,0.75 0 0 0 0,-0.00781 0.75,0.75 0 0 0 -0.0098,-0.097656 0.75,0.75 0 0 0 -0.01758,-0.1757812 0.75,0.75 0 0 0 -0.01563,-0.1132813 0.75,0.75 0 0 0 0,-0.00391 0.75,0.75 0 0 0 -0.0098,-0.00977 0.75,0.75 0 0 0 -0.04297,-0.060547 0.75,0.75 0 0 0 -0.0332,-0.087891 0.75,0.75 0 0 0 -0.05664,-0.035156 0.75,0.75 0 0 0 -0.207031,-0.1679688 0.75,0.75 0 0 0 -0.111328,-0.052734 0.75,0.75 0 0 0 -0.09961,-0.044922 0.75,0.75 0 0 0 -0.01172,-0.00586 0.75,0.75 0 0 0 -0.002,0 z M 19.962891,6.6523437 17.953125,18.716797 10.3125,13.488281 Z M 15.501953,7.9765625 8.8105469,12.714844 4.9082031,12.158203 Z M 9.75,14.921875 11.083984,15.833984 9.75,17.177734 Z"
     id="path2" />
</svg>
