<?xml version="1.0" encoding="UTF-8" standalone="no"?>
<svg
   width="24"
   height="24"
   stroke-width="1.5"
   viewBox="0 0 24 24"
   fill="none"
   version="1.1"
   id="svg8"
   sodipodi:docname="text-arrows-up-down.svg"
   inkscape:version="1.2.1 (9c6d41e410, 2022-07-14)"
   xmlns:inkscape="http://www.inkscape.org/namespaces/inkscape"
   xmlns:sodipodi="http://sodipodi.sourceforge.net/DTD/sodipodi-0.dtd"
   xmlns="http://www.w3.org/2000/svg"
   xmlns:svg="http://www.w3.org/2000/svg">
  <defs
     id="defs12" />
  <sodipodi:namedview
     id="namedview10"
     pagecolor="#ffffff"
     bordercolor="#666666"
     borderopacity="1.0"
     inkscape:showpageshadow="2"
     inkscape:pageopacity="0.0"
     inkscape:pagecheckerboard="0"
     inkscape:deskcolor="#d1d1d1"
     showgrid="false"
     inkscape:zoom="34.541667"
     inkscape:cx="10.364294"
     inkscape:cy="12.014475"
     inkscape:window-width="1920"
     inkscape:window-height="1009"
     inkscape:window-x="1912"
     inkscape:window-y="-8"
     inkscape:window-maximized="1"
     inkscape:current-layer="svg8" />
  <path
     style="color:#000000;fill:currentColor;stroke-linecap:round;stroke-linejoin:round;-inkscape-stroke:none"
     d="m 18,10.25 a 0.75,0.75 0 0 0 -0.53125,0.21875 l -2,2 a 0.75,0.75 0 0 0 0,1.0625 0.75,0.75 0 0 0 1.0625,0 L 17.25,12.8125 v 6.048828 L 16.585937,18.03125 A 0.75,0.75 0 0 0 15.53125,17.914062 0.75,0.75 0 0 0 15.414063,18.96875 l 1.999999,2.5 a 0.75,0.75 0 0 0 0.03711,0.02148 0.75,0.75 0 0 0 0.05859,0.05859 0.75,0.75 0 0 0 0.02148,0.03711 0.75,0.75 0 0 0 0.203125,0.05859 0.75,0.75 0 0 0 0.226562,0.08984 A 0.75,0.75 0 0 0 18,21.75 a 0.75,0.75 0 0 0 0.03906,-0.01563 0.75,0.75 0 0 0 0.226563,-0.08984 0.75,0.75 0 0 0 0.203125,-0.05859 0.75,0.75 0 0 0 0.03125,-0.04102 0.75,0.75 0 0 0 0.04883,-0.05469 0.75,0.75 0 0 0 0.03711,-0.02148 l 2,-2.5 A 0.75,0.75 0 0 0 20.46875,17.914062 0.75,0.75 0 0 0 19.414062,18.03125 L 18.75,18.861328 V 12.8125 l 0.71875,0.71875 a 0.75,0.75 0 0 0 1.0625,0 0.75,0.75 0 0 0 0,-1.0625 l -2,-2 A 0.75,0.75 0 0 0 18,10.25 Z"
     id="path2" />
  <path
     style="color:#000000;fill:currentColor;stroke-linecap:round;stroke-linejoin:round;-inkscape-stroke:none"
     d="M 9,4.25 A 0.75,0.75 0 0 0 8.25,5 V 16.25 H 7 A 0.75,0.75 0 0 0 6.25,17 0.75,0.75 0 0 0 7,17.75 h 2 2 A 0.75,0.75 0 0 0 11.75,17 0.75,0.75 0 0 0 11,16.25 H 9.75 V 5 A 0.75,0.75 0 0 0 9,4.25 Z"
     id="path4" />
  <path
     style="color:#000000;fill:currentColor;stroke-linecap:round;stroke-linejoin:round;-inkscape-stroke:none"
     d="M 3,4.25 A 0.750075,0.750075 0 0 0 2.25,5 V 7 A 0.75,0.75 0 0 0 3,7.75 0.75,0.75 0 0 0 3.75,7 V 5.75 h 10.5 V 7 A 0.75,0.75 0 0 0 15,7.75 0.75,0.75 0 0 0 15.75,7 V 5 A 0.750075,0.750075 0 0 0 15,4.25 Z"
     id="path6" />
</svg>
