<?xml version="1.0" encoding="UTF-8" standalone="no"?>
<svg
   width="24"
   height="24"
   stroke-width="1.5"
   viewBox="0 0 24 24"
   fill="none"
   version="1.1"
   id="svg6"
   sodipodi:docname="text.svg"
   inkscape:version="1.2.1 (9c6d41e410, 2022-07-14)"
   xmlns:inkscape="http://www.inkscape.org/namespaces/inkscape"
   xmlns:sodipodi="http://sodipodi.sourceforge.net/DTD/sodipodi-0.dtd"
   xmlns="http://www.w3.org/2000/svg"
   xmlns:svg="http://www.w3.org/2000/svg">
  <defs
     id="defs10" />
  <sodipodi:namedview
     id="namedview8"
     pagecolor="#ffffff"
     bordercolor="#666666"
     borderopacity="1.0"
     inkscape:showpageshadow="2"
     inkscape:pageopacity="0.0"
     inkscape:pagecheckerboard="0"
     inkscape:deskcolor="#d1d1d1"
     showgrid="false"
     inkscape:zoom="34.541667"
     inkscape:cx="10.364294"
     inkscape:cy="12.014475"
     inkscape:window-width="1920"
     inkscape:window-height="1009"
     inkscape:window-x="1912"
     inkscape:window-y="-8"
     inkscape:window-maximized="1"
     inkscape:current-layer="svg6" />
  <path
     style="color:#000000;fill:currentColor;stroke-linecap:round;stroke-linejoin:round;-inkscape-stroke:none"
     d="M 5,4.25 A 0.750075,0.750075 0 0 0 4.25,5 V 7 A 0.75,0.75 0 0 0 5,7.75 0.75,0.75 0 0 0 5.75,7 V 5.75 h 12.5 V 7 A 0.75,0.75 0 0 0 19,7.75 0.75,0.75 0 0 0 19.75,7 V 5 A 0.750075,0.750075 0 0 0 19,4.25 Z"
     id="path2" />
  <path
     style="color:#000000;fill:currentColor;stroke-linecap:round;stroke-linejoin:round;-inkscape-stroke:none"
     d="M 12,4.25 A 0.75,0.75 0 0 0 11.25,5 V 18.25 H 10 A 0.75,0.75 0 0 0 9.25,19 0.75,0.75 0 0 0 10,19.75 h 2 2 A 0.75,0.75 0 0 0 14.75,19 0.75,0.75 0 0 0 14,18.25 H 12.75 V 5 A 0.75,0.75 0 0 0 12,4.25 Z"
     id="path4" />
</svg>
