<?xml version="1.0" encoding="UTF-8" standalone="no"?>
<svg
   width="24"
   height="24"
   viewBox="0 0 24 24"
   stroke-width="1.5"
   fill="none"
   version="1.1"
   id="svg10"
   sodipodi:docname="text-box.svg"
   inkscape:version="1.2.1 (9c6d41e410, 2022-07-14)"
   xmlns:inkscape="http://www.inkscape.org/namespaces/inkscape"
   xmlns:sodipodi="http://sodipodi.sourceforge.net/DTD/sodipodi-0.dtd"
   xmlns="http://www.w3.org/2000/svg"
   xmlns:svg="http://www.w3.org/2000/svg">
  <defs
     id="defs14" />
  <sodipodi:namedview
     id="namedview12"
     pagecolor="#ffffff"
     bordercolor="#666666"
     borderopacity="1.0"
     inkscape:showpageshadow="2"
     inkscape:pageopacity="0.0"
     inkscape:pagecheckerboard="0"
     inkscape:deskcolor="#d1d1d1"
     showgrid="false"
     inkscape:zoom="34.541667"
     inkscape:cx="10.364294"
     inkscape:cy="12.014475"
     inkscape:window-width="1920"
     inkscape:window-height="1009"
     inkscape:window-x="1912"
     inkscape:window-y="-8"
     inkscape:window-maximized="1"
     inkscape:current-layer="svg10" />
  <path
     style="color:#000000;fill:currentColor;stroke-linecap:round;stroke-linejoin:round;-inkscape-stroke:none"
     d="M 8,7.25 A 0.75,0.75 0 0 0 7.25,8 0.75,0.75 0 0 0 8,8.75 h 3.25 V 16 A 0.75,0.75 0 0 0 12,16.75 0.75,0.75 0 0 0 12.75,16 V 8.75 H 16 A 0.75,0.75 0 0 0 16.75,8 0.75,0.75 0 0 0 16,7.25 h -4 z"
     id="path2" />
  <path
     style="color:#000000;fill:currentColor;stroke-linejoin:round;-inkscape-stroke:none"
     d="M 5,2.25 C 3.4901018,2.25 2.25,3.4901018 2.25,5 v 5.5 h 1.5 V 5 C 3.75,4.3007604 4.3007604,3.75 5,3.75 h 14 c 0.699281,0 1.25,0.5507468 1.25,1.25 v 5.5 h 1.5 V 5 C 21.75,3.4901154 20.509917,2.25 19,2.25 Z M 2.25,13.5 V 19 c 0,1.509917 1.2401154,2.75 2.75,2.75 h 14 c 1.509904,0 2.75,-1.240096 2.75,-2.75 v -5.5 h -1.5 V 19 c 0,0.699294 -0.550706,1.25 -1.25,1.25 H 5 C 4.3007468,20.25 3.75,19.699281 3.75,19 v -5.5 z"
     id="path4" />
  <path
     style="color:#000000;fill:currentColor;stroke-linejoin:round;-inkscape-stroke:none"
     d="m 19.5,9.75 a 0.750075,0.750075 0 0 0 -0.75,0.75 v 3 a 0.750075,0.750075 0 0 0 0.75,0.75 h 3 a 0.750075,0.750075 0 0 0 0.75,-0.75 v -3 A 0.750075,0.750075 0 0 0 22.5,9.75 Z m 0.75,1.5 h 1.5 v 1.5 h -1.5 z"
     id="path6" />
  <path
     style="color:#000000;fill:currentColor;stroke-linejoin:round;-inkscape-stroke:none"
     d="M 1.5,9.75 A 0.750075,0.750075 0 0 0 0.75,10.5 v 3 a 0.750075,0.750075 0 0 0 0.75,0.75 h 3 A 0.750075,0.750075 0 0 0 5.25,13.5 v -3 A 0.750075,0.750075 0 0 0 4.5,9.75 Z m 0.75,1.5 h 1.5 v 1.5 h -1.5 z"
     id="path8" />
</svg>
