<?xml version="1.0" encoding="UTF-8" standalone="no"?>
<svg
   width="24"
   height="24"
   stroke-width="1.5"
   viewBox="0 0 24 24"
   fill="none"
   version="1.1"
   id="svg8"
   sodipodi:docname="three-stars.svg"
   inkscape:version="1.2.1 (9c6d41e410, 2022-07-14)"
   xmlns:inkscape="http://www.inkscape.org/namespaces/inkscape"
   xmlns:sodipodi="http://sodipodi.sourceforge.net/DTD/sodipodi-0.dtd"
   xmlns="http://www.w3.org/2000/svg"
   xmlns:svg="http://www.w3.org/2000/svg">
  <defs
     id="defs12" />
  <sodipodi:namedview
     id="namedview10"
     pagecolor="#ffffff"
     bordercolor="#666666"
     borderopacity="1.0"
     inkscape:showpageshadow="2"
     inkscape:pageopacity="0.0"
     inkscape:pagecheckerboard="0"
     inkscape:deskcolor="#d1d1d1"
     showgrid="false"
     inkscape:zoom="34.541667"
     inkscape:cx="10.364294"
     inkscape:cy="12.014475"
     inkscape:window-width="1920"
     inkscape:window-height="1009"
     inkscape:window-x="1912"
     inkscape:window-y="-8"
     inkscape:window-maximized="1"
     inkscape:current-layer="svg8" />
  <path
     style="color:#000000;fill:currentColor;stroke-linecap:round;stroke-linejoin:round;-inkscape-stroke:none"
     d="m 6,11.25 c -0.4022792,0 -0.8183527,0.249157 -1.0039063,0.642578 l -0.8691406,1.841797 -1.9296875,0.294922 c -0.8899438,0.136124 -1.24014373,1.28671 -0.6230469,1.916016 l 1.4160157,1.441406 -0.3359375,2.046875 c -0.069882,0.426423 0.1165802,0.850345 0.4316406,1.089843 0.3150604,0.239499 0.8063867,0.304956 1.1972656,0.08984 L 6,19.667969 7.7167969,20.613281 c 0.3908789,0.215112 0.8822052,0.149655 1.1972656,-0.08984 0.3150604,-0.239498 0.5015225,-0.66342 0.4316406,-1.089843 L 9.0097656,17.386719 10.425781,15.945313 c 0.617027,-0.629322 0.266905,-1.77989 -0.6230466,-1.916016 L 7.8730469,13.734375 7.0039062,11.892578 C 6.8183527,11.499157 6.4022792,11.25 6,11.25 Z m 0,2.027344 0.6875,1.457031 a 0.750075,0.750075 0 0 0 0.5644531,0.421875 l 1.6035157,0.246094 -1.1816407,1.205078 A 0.750075,0.750075 0 0 0 7.46875,17.253906 l 0.2714844,1.660156 -1.3789063,-0.759765 a 0.750075,0.750075 0 0 0 -0.7226562,0 L 4.2597656,18.914062 4.53125,17.253906 A 0.750075,0.750075 0 0 0 4.3261719,16.607422 L 3.1445313,15.402344 4.7480469,15.15625 A 0.750075,0.750075 0 0 0 5.3125,14.734375 Z"
     id="path2" />
  <path
     style="color:#000000;fill:currentColor;stroke-linecap:round;stroke-linejoin:round;-inkscape-stroke:none"
     d="m 18,11.25 c -0.402279,0 -0.8184,0.249022 -1.003906,0.642578 l -0.869141,1.841797 -1.929687,0.294922 c -0.889964,0.136137 -1.240082,1.286686 -0.623047,1.916016 l 1.416015,1.441406 -0.335937,2.046875 c -0.06995,0.426424 0.116558,0.850323 0.431641,1.089843 0.315082,0.239521 0.8064,0.304908 1.197265,0.08984 L 18,19.667969 l 1.716797,0.945312 c 0.390865,0.215064 0.882183,0.149677 1.197265,-0.08984 0.315083,-0.23952 0.501592,-0.663419 0.431641,-1.089843 l -0.335937,-2.046875 1.416015,-1.441406 c 0.617035,-0.62933 0.266917,-1.779879 -0.623047,-1.916016 L 19.873047,13.734375 19.003906,11.892578 C 18.8184,11.499022 18.402279,11.25 18,11.25 Z m 0,2.027344 0.6875,1.457031 a 0.750075,0.750075 0 0 0 0.564453,0.421875 l 1.603516,0.246094 -1.181641,1.205078 a 0.750075,0.750075 0 0 0 -0.205078,0.646484 l 0.271484,1.660156 -1.378906,-0.759765 a 0.750075,0.750075 0 0 0 -0.722656,0 l -1.378906,0.759765 0.271484,-1.660156 A 0.750075,0.750075 0 0 0 16.326172,16.607422 L 15.144531,15.402344 16.748047,15.15625 A 0.750075,0.750075 0 0 0 17.3125,14.734375 Z"
     id="path4" />
  <path
     style="color:#000000;fill:currentColor;stroke-linecap:round;stroke-linejoin:round;-inkscape-stroke:none"
     d="m 12,2.25 c -0.402289,0 -0.818407,0.2490209 -1.003906,0.6425781 L 10.126953,4.734375 8.1972656,5.0292969 C 7.307257,5.1654313 6.956902,6.3160115 7.5742187,6.9453125 L 8.9902344,8.3867188 8.6542969,10.433594 c -0.069882,0.426423 0.1165802,0.850345 0.4316406,1.089844 0.3150604,0.239498 0.8063867,0.304955 1.1972655,0.08984 L 12,10.667969 l 1.716797,0.945312 c 0.390865,0.215064 0.882183,0.149677 1.197266,-0.08984 0.315082,-0.239521 0.501591,-0.66342 0.43164,-1.089844 L 15.009766,8.3867188 16.425781,6.9453125 C 17.043036,6.3159876 16.692763,5.1654435 15.802734,5.0292969 L 13.873047,4.734375 13.003906,2.8925781 C 12.818407,2.4990209 12.402289,2.25 12,2.25 Z m 0,2.0273437 0.6875,1.4570313 a 0.750075,0.750075 0 0 0 0.564453,0.421875 l 1.603516,0.2460937 -1.181641,1.2050782 A 0.750075,0.750075 0 0 0 13.46875,8.2539063 l 0.271484,1.6601562 -1.378906,-0.7597656 a 0.750075,0.750075 0 0 0 -0.722656,0 L 10.259766,9.9140625 10.53125,8.2539063 A 0.750075,0.750075 0 0 0 10.326172,7.6074219 L 9.1445313,6.4023437 10.748047,6.15625 A 0.750075,0.750075 0 0 0 11.3125,5.734375 Z"
     id="path6" />
</svg>
