<?xml version="1.0" encoding="UTF-8" standalone="no"?>
<svg
   width="24"
   height="24"
   viewBox="0 0 24 24"
   stroke-width="1.5"
   fill="none"
   version="1.1"
   id="svg4"
   sodipodi:docname="threads.svg"
   inkscape:version="1.2.1 (9c6d41e410, 2022-07-14)"
   xmlns:inkscape="http://www.inkscape.org/namespaces/inkscape"
   xmlns:sodipodi="http://sodipodi.sourceforge.net/DTD/sodipodi-0.dtd"
   xmlns="http://www.w3.org/2000/svg"
   xmlns:svg="http://www.w3.org/2000/svg">
  <defs
     id="defs8" />
  <sodipodi:namedview
     id="namedview6"
     pagecolor="#ffffff"
     bordercolor="#666666"
     borderopacity="1.0"
     inkscape:showpageshadow="2"
     inkscape:pageopacity="0.0"
     inkscape:pagecheckerboard="0"
     inkscape:deskcolor="#d1d1d1"
     showgrid="false"
     inkscape:zoom="34.541667"
     inkscape:cx="10.364294"
     inkscape:cy="12.014475"
     inkscape:window-width="1920"
     inkscape:window-height="1009"
     inkscape:window-x="1912"
     inkscape:window-y="-8"
     inkscape:window-maximized="1"
     inkscape:current-layer="svg4" />
  <path
     style="color:#000000;fill:currentColor;stroke-linecap:round;stroke-linejoin:round;-inkscape-stroke:none"
     d="M 13,1.25 C 10.388968,1.25 7.9227818,1.9142629 6.1171875,3.6464844 4.3115932,5.3787059 3.25,8.1156892 3.25,12 c 0,3.884311 1.0615932,6.621294 2.8671875,8.353516 C 7.9227818,22.085737 10.388968,22.75 13,22.75 c 3.266663,0 6.015474,-1.718575 7.226562,-4.041016 0.605545,-1.16122 0.817254,-2.49585 0.457032,-3.787109 -0.360223,-1.291259 -1.284169,-2.50239 -2.78125,-3.455078 a 0.750075,0.750075 0 0 0 -0.06641,-0.03711 c -0.187509,-0.09375 -0.421067,-0.107637 -0.61914,-0.1875 -0.01999,-0.285047 0.01416,-0.545477 -0.02344,-0.837891 C 16.947577,8.4927388 15.723271,7.1238338 14.203125,6.6074219 12.682979,6.09101 10.883246,6.3852292 9.4433594,7.5429687 A 0.75,0.75 0 0 0 9.3300781,8.5976563 0.75,0.75 0 0 0 10.384766,8.7128906 c 1.06451,-0.8559184 2.32071,-1.0304316 3.335937,-0.6855468 1.015227,0.3448847 1.806211,1.1675107 1.986328,2.5683592 0.009,0.06968 -0.0038,0.122573 0.0039,0.191406 -1.184595,-0.250778 -2.403066,-0.360512 -3.539063,-0.164062 -0.921512,0.159358 -1.7774,0.474088 -2.4472656,1.025391 -0.6663889,0.548441 -1.1164005,1.379638 -1.1210938,2.33789 -5.971e-4,0.01357 -0.041165,0.881874 0.4433594,1.771485 0.4882956,0.896533 1.612729,1.792968 3.453125,1.792968 1.948998,0 3.395112,-0.874576 4.119141,-2.230468 0.385289,-0.721534 0.572487,-1.552702 0.644531,-2.44336 1.115368,0.762525 1.739748,1.60538 1.974609,2.447266 0.249152,0.893113 0.117111,1.815128 -0.339844,2.691406 C 17.984528,19.76818 15.733331,21.25 13,21.25 10.640447,21.25 8.6060669,20.66426 7.1542969,19.271484 5.7025269,17.878709 4.75,15.615682 4.75,12 4.75,8.3843183 5.7025269,6.121291 7.1542969,4.7285156 8.6060669,3.3357403 10.640447,2.75 13,2.75 c 3.250342,0 6.056976,1.5946098 7.121094,4.9003906 a 0.75,0.75 0 0 0 0.943359,0.484375 0.75,0.75 0 0 0 0.484375,-0.9433594 C 20.286348,3.2693943 16.765451,1.25 13,1.25 Z m 1.855469,10.841797 c 0.323042,0.04522 0.585181,0.184901 0.894531,0.263672 -0.03392,0.891729 -0.15377,1.695504 -0.455078,2.259765 -0.488921,0.915605 -1.243924,1.435547 -2.794922,1.435547 -1.409631,0 -1.860554,-0.506301 -2.134766,-1.009765 -0.274211,-0.503465 -0.265625,-1.013672 -0.265625,-1.013672 a 0.750075,0.750075 0 0 0 0,-0.02734 c 0,-0.535415 0.188612,-0.874741 0.578125,-1.195312 0.389514,-0.320572 1.009006,-0.574984 1.75,-0.703125 0.740995,-0.128142 1.594109,-0.126461 2.427735,-0.0098 z"
     id="path2" />
</svg>
