<?xml version="1.0" encoding="UTF-8" standalone="no"?>
<svg
   width="24"
   height="24"
   stroke-width="1.5"
   viewBox="0 0 24 24"
   fill="none"
   version="1.1"
   id="svg6"
   sodipodi:docname="thumbs-up.svg"
   inkscape:version="1.2.1 (9c6d41e410, 2022-07-14)"
   xmlns:inkscape="http://www.inkscape.org/namespaces/inkscape"
   xmlns:sodipodi="http://sodipodi.sourceforge.net/DTD/sodipodi-0.dtd"
   xmlns="http://www.w3.org/2000/svg"
   xmlns:svg="http://www.w3.org/2000/svg">
  <defs
     id="defs10" />
  <sodipodi:namedview
     id="namedview8"
     pagecolor="#ffffff"
     bordercolor="#666666"
     borderopacity="1.0"
     inkscape:showpageshadow="2"
     inkscape:pageopacity="0.0"
     inkscape:pagecheckerboard="0"
     inkscape:deskcolor="#d1d1d1"
     showgrid="false"
     inkscape:zoom="34.541667"
     inkscape:cx="10.364294"
     inkscape:cy="12.014475"
     inkscape:window-width="1920"
     inkscape:window-height="1009"
     inkscape:window-x="1912"
     inkscape:window-y="-8"
     inkscape:window-maximized="1"
     inkscape:current-layer="svg6" />
  <path
     style="color:#000000;fill:currentColor;stroke-linecap:round;-inkscape-stroke:none"
     d="M 12.533203,1.9902344 C 11.790764,2.0401691 11.071105,2.4238844 10.650391,3.125 L 7.9394531,7.6425781 C 7.7129842,8.0200327 7.3073795,8.25 6.8671875,8.25 H 4.0996094 C 3.3629077,8.25 2.75,8.8629077 2.75,9.5996094 V 19.400391 C 2.75,20.137086 3.362953,20.75 4.0996094,20.75 H 16.472656 c 1.236526,0 2.327006,-0.834302 2.652344,-2.027344 l 1.910156,-7 C 21.507277,9.9917285 20.175026,8.25 18.380859,8.25 H 14.007813 L 14.972656,5.0351562 C 15.19724,4.2867246 15.038872,3.4734159 14.550781,2.8632813 14.039998,2.224791 13.275642,1.9402996 12.533203,1.9902344 Z m 0.09766,1.4667969 c 0.27006,-0.018168 0.548731,0.094601 0.748047,0.34375 0.181309,0.2266444 0.239666,0.524747 0.15625,0.8027343 L 12.513672,8.0117188 C 12.259652,8.8583855 12.922731,9.75 13.806641,9.75 h 4.574218 c 0.843231,0 1.42891,0.764655 1.207032,1.578125 l -1.910157,7 C 17.528472,18.875482 17.039929,19.25 16.472656,19.25 H 4.25 v -9.5 h 2.6171875 c 0.9648666,0 1.8629647,-0.5085732 2.359375,-1.3359375 l 2.7089845,-4.515625 c 0.164185,-0.2736134 0.425252,-0.4232386 0.695312,-0.4414062 z"
     id="path2" />
  <path
     style="color:#000000;fill:currentColor;stroke-linecap:round;stroke-linejoin:round;-inkscape-stroke:none"
     d="M 7,8.25 A 0.75,0.75 0 0 0 6.25,9 V 20 A 0.75,0.75 0 0 0 7,20.75 0.75,0.75 0 0 0 7.75,20 V 9 A 0.75,0.75 0 0 0 7,8.25 Z"
     id="path4" />
</svg>
