<?xml version="1.0" encoding="UTF-8" standalone="no"?>
<svg
   width="24"
   height="24"
   stroke-width="1.5"
   viewBox="0 0 24 24"
   fill="none"
   version="1.1"
   id="svg6"
   sodipodi:docname="thumbs-down.svg"
   inkscape:version="1.2.1 (9c6d41e410, 2022-07-14)"
   xmlns:inkscape="http://www.inkscape.org/namespaces/inkscape"
   xmlns:sodipodi="http://sodipodi.sourceforge.net/DTD/sodipodi-0.dtd"
   xmlns="http://www.w3.org/2000/svg"
   xmlns:svg="http://www.w3.org/2000/svg">
  <defs
     id="defs10" />
  <sodipodi:namedview
     id="namedview8"
     pagecolor="#ffffff"
     bordercolor="#666666"
     borderopacity="1.0"
     inkscape:showpageshadow="2"
     inkscape:pageopacity="0.0"
     inkscape:pagecheckerboard="0"
     inkscape:deskcolor="#d1d1d1"
     showgrid="false"
     inkscape:zoom="34.541667"
     inkscape:cx="10.364294"
     inkscape:cy="12.014475"
     inkscape:window-width="1920"
     inkscape:window-height="1009"
     inkscape:window-x="1912"
     inkscape:window-y="-8"
     inkscape:window-maximized="1"
     inkscape:current-layer="svg6" />
  <path
     style="color:#000000;fill:currentColor;stroke-linecap:round;-inkscape-stroke:none"
     d="M 4.0996094,2.75 C 3.3629077,2.75 2.75,3.3629077 2.75,4.0996094 V 13.900391 C 2.75,14.637086 3.362953,15.25 4.0996094,15.25 h 2.7675781 c 0.440192,0 0.8457982,0.229976 1.0722656,0.607422 L 10.650391,20.375 c 0.841432,1.402196 2.878835,1.538771 3.90039,0.261719 0.488046,-0.610094 0.646422,-1.423435 0.421875,-2.171875 L 14.007813,15.25 h 4.373046 c 1.794167,0 3.126418,-1.741728 2.654297,-3.472656 L 19.125,4.7773437 C 18.799652,3.5843722 17.709204,2.75 16.472656,2.75 Z M 4.25,4.25 h 12.222656 c 0.567251,0 1.055827,0.3746083 1.205078,0.921875 l 1.910157,7 C 19.809769,12.985345 19.22409,13.75 18.380859,13.75 h -4.574218 c -0.88386,0 -1.546963,0.891636 -1.292969,1.738281 l 1.021484,3.408203 c 0.08345,0.278159 0.0251,0.576029 -0.15625,0.802735 -0.398643,0.498346 -1.114993,0.449546 -1.443359,-0.09766 L 9.2265625,15.085938 C 8.7301506,14.258584 7.8320541,13.75 6.8671875,13.75 H 4.25 Z"
     id="path2" />
  <path
     style="color:#000000;fill:currentColor;stroke-linecap:round;stroke-linejoin:round;-inkscape-stroke:none"
     d="M 7,2.75 A 0.75,0.75 0 0 0 6.25,3.5 v 11 A 0.75,0.75 0 0 0 7,15.25 0.75,0.75 0 0 0 7.75,14.5 V 3.5 A 0.75,0.75 0 0 0 7,2.75 Z"
     id="path4" />
</svg>
