<?xml version="1.0" encoding="UTF-8" standalone="no"?>
<svg
   width="24"
   height="24"
   stroke-width="1.5"
   viewBox="0 0 24 24"
   fill="none"
   version="1.1"
   id="svg6"
   sodipodi:docname="tiktok.svg"
   inkscape:version="1.2.1 (9c6d41e410, 2022-07-14)"
   xmlns:inkscape="http://www.inkscape.org/namespaces/inkscape"
   xmlns:sodipodi="http://sodipodi.sourceforge.net/DTD/sodipodi-0.dtd"
   xmlns="http://www.w3.org/2000/svg"
   xmlns:svg="http://www.w3.org/2000/svg">
  <defs
     id="defs10" />
  <sodipodi:namedview
     id="namedview8"
     pagecolor="#ffffff"
     bordercolor="#666666"
     borderopacity="1.0"
     inkscape:showpageshadow="2"
     inkscape:pageopacity="0.0"
     inkscape:pagecheckerboard="0"
     inkscape:deskcolor="#d1d1d1"
     showgrid="false"
     inkscape:zoom="34.541667"
     inkscape:cx="10.364294"
     inkscape:cy="12.014475"
     inkscape:window-width="1920"
     inkscape:window-height="1009"
     inkscape:window-x="1912"
     inkscape:window-y="-8"
     inkscape:window-maximized="1"
     inkscape:current-layer="svg6" />
  <path
     style="color:#000000;fill:currentColor;stroke-linecap:round;stroke-linejoin:round;-inkscape-stroke:none"
     d="M 8,2.25 C 4.8332519,2.25 2.25,4.8332519 2.25,8 v 8 c 0,3.166731 2.5832482,5.75 5.75,5.75 h 8 c 3.166735,0 5.75,-2.583265 5.75,-5.75 V 8 C 21.75,4.8332482 19.166731,2.25 16,2.25 Z m 0,1.5 h 8 c 2.356063,0 4.25,1.8939173 4.25,4.25 v 8 c 0,2.35606 -1.89394,4.25 -4.25,4.25 H 8 C 5.6439173,20.25 3.75,18.356063 3.75,16 V 8 C 3.75,5.6439137 5.6439137,3.75 8,3.75 Z"
     id="path2" />
  <path
     style="color:#000000;fill:currentColor;stroke-linecap:round;stroke-linejoin:round;-inkscape-stroke:none"
     d="M 12.880859,5.2597656 A 0.750075,0.750075 0 0 0 12.25,6 v 9 c 0,1.251594 -0.998406,2.25 -2.25,2.25 -1.2515314,0 -2.25,-0.998421 -2.25,-2.25 0,-1.251579 0.9984686,-2.25 2.25,-2.25 A 0.75,0.75 0 0 0 10.75,12 0.75,0.75 0 0 0 10,11.25 c -2.0621653,0 -3.75,1.687782 -3.75,3.75 0,2.062218 1.6878347,3.75 3.75,3.75 2.062203,0 3.75,-1.687797 3.75,-3.75 V 8.4453125 C 14.514535,9.1579151 15.612213,9.75 17,9.75 A 0.75,0.75 0 0 0 17.75,9 0.75,0.75 0 0 0 17,8.25 C 16.008334,8.25 15.293261,7.855199 14.742188,7.3320312 14.191114,6.8088635 13.834893,6.1355741 13.710938,5.7636719 A 0.750075,0.750075 0 0 0 12.880859,5.2597656 Z"
     id="path4" />
</svg>
