<?xml version="1.0" encoding="UTF-8" standalone="no"?>
<svg
   width="24"
   height="24"
   stroke-width="1.5"
   viewBox="0 0 24 24"
   fill="none"
   version="1.1"
   id="svg10"
   sodipodi:docname="timer-off.svg"
   inkscape:version="1.2.1 (9c6d41e410, 2022-07-14)"
   xmlns:inkscape="http://www.inkscape.org/namespaces/inkscape"
   xmlns:sodipodi="http://sodipodi.sourceforge.net/DTD/sodipodi-0.dtd"
   xmlns="http://www.w3.org/2000/svg"
   xmlns:svg="http://www.w3.org/2000/svg">
  <defs
     id="defs14" />
  <sodipodi:namedview
     id="namedview12"
     pagecolor="#ffffff"
     bordercolor="#666666"
     borderopacity="1.0"
     inkscape:showpageshadow="2"
     inkscape:pageopacity="0.0"
     inkscape:pagecheckerboard="0"
     inkscape:deskcolor="#d1d1d1"
     showgrid="false"
     inkscape:zoom="34.541667"
     inkscape:cx="10.364294"
     inkscape:cy="12.014475"
     inkscape:window-width="1920"
     inkscape:window-height="1009"
     inkscape:window-x="1912"
     inkscape:window-y="-8"
     inkscape:window-maximized="1"
     inkscape:current-layer="svg10" />
  <path
     style="color:#000000;fill:currentColor;stroke-linecap:round;stroke-linejoin:round;-inkscape-stroke:none"
     d="M 9,1.25 A 0.75,0.75 0 0 0 8.25,2 0.75,0.75 0 0 0 9,2.75 h 6 A 0.75,0.75 0 0 0 15.75,2 0.75,0.75 0 0 0 15,1.25 Z"
     id="path2" />
  <path
     style="color:#000000;fill:currentColor;stroke-linecap:round;stroke-linejoin:round;-inkscape-stroke:none"
     d="M 5.0136719,6.25 A 0.75,0.75 0 0 0 4.4785156,6.4609375 0.75,0.75 0 0 0 4.4609375,7.5214844 L 18.460937,22.021484 a 0.75,0.75 0 0 0 1.060547,0.01758 0.75,0.75 0 0 0 0.01758,-1.060546 L 5.5390625,6.4785156 A 0.75,0.75 0 0 0 5.0136719,6.25 Z"
     id="path4" />
  <path
     style="color:#000000;fill:currentColor;stroke-linecap:round;stroke-linejoin:round;-inkscape-stroke:none"
     d="M 12,9.25 A 0.75,0.75 0 0 0 11.25,10 v 4 A 0.75,0.75 0 0 0 12,14.75 0.75,0.75 0 0 0 12.75,14 V 10 A 0.75,0.75 0 0 0 12,9.25 Z"
     id="path6" />
  <path
     style="color:#000000;fill:currentColor;stroke-linecap:round;stroke-linejoin:round;-inkscape-stroke:none"
     d="m 12,5.25 c -1.071327,0 -2.1000088,0.1930277 -3.0507812,0.546875 A 0.75,0.75 0 0 0 8.5078125,6.7617187 0.75,0.75 0 0 0 9.4707031,7.203125 C 10.257369,6.910353 11.108729,6.75 12,6.75 c 4.012968,0 7.25,3.2370514 7.25,7.25 0,0.963576 -0.187742,1.879798 -0.527344,2.71875 a 0.75,0.75 0 0 0 0.414063,0.976562 0.75,0.75 0 0 0 0.976562,-0.414062 C 20.523679,16.267404 20.75,15.158222 20.75,14 20.75,9.1763974 16.823623,5.25 12,5.25 Z M 6.1699219,7.75 A 0.75,0.75 0 0 0 5.6464844,7.984375 C 4.1622255,9.5516168 3.25,11.674158 3.25,14 c 0,4.823623 3.9263974,8.75 8.75,8.75 2.188822,0 4.19774,-0.806566 5.732422,-2.138672 A 0.75,0.75 0 0 0 17.808594,19.552734 0.75,0.75 0 0 0 16.75,19.478516 C 15.477084,20.583408 13.820974,21.25 12,21.25 7.9870514,21.25 4.75,18.012968 4.75,14 4.75,12.065046 5.5031365,10.3157 6.734375,9.015625 A 0.75,0.75 0 0 0 6.7070312,7.9550781 0.75,0.75 0 0 0 6.1699219,7.75 Z"
     id="path8" />
</svg>
