<?xml version="1.0" encoding="UTF-8" standalone="no"?>
<svg
   width="24"
   height="24"
   viewBox="0 0 24 24"
   stroke-width="1.5"
   fill="none"
   version="1.1"
   id="svg10"
   sodipodi:docname="tools.svg"
   inkscape:version="1.2.1 (9c6d41e410, 2022-07-14)"
   xmlns:inkscape="http://www.inkscape.org/namespaces/inkscape"
   xmlns:sodipodi="http://sodipodi.sourceforge.net/DTD/sodipodi-0.dtd"
   xmlns="http://www.w3.org/2000/svg"
   xmlns:svg="http://www.w3.org/2000/svg">
  <defs
     id="defs14" />
  <sodipodi:namedview
     id="namedview12"
     pagecolor="#ffffff"
     bordercolor="#666666"
     borderopacity="1.0"
     inkscape:showpageshadow="2"
     inkscape:pageopacity="0.0"
     inkscape:pagecheckerboard="0"
     inkscape:deskcolor="#d1d1d1"
     showgrid="false"
     inkscape:zoom="34.541667"
     inkscape:cx="10.364294"
     inkscape:cy="12.014475"
     inkscape:window-width="1920"
     inkscape:window-height="1009"
     inkscape:window-x="1912"
     inkscape:window-y="-8"
     inkscape:window-maximized="1"
     inkscape:current-layer="svg10" />
  <path
     style="color:#000000;fill:currentColor;stroke-linecap:round;stroke-linejoin:round;-inkscape-stroke:none"
     d="M 10.050781,9.8574219 A 0.75,0.75 0 0 0 9.5195313,10.076172 l -7.0703125,7.070312 c -1.0677035,1.067635 -1.0677035,2.82299 0,3.890625 1.0676427,1.067725 2.8210209,1.06772 3.8886718,0 l 7.0703124,-7.072265 a 0.75,0.75 0 0 0 0,-1.060547 0.75,0.75 0 0 0 -1.060547,0 l -7.0703123,7.072265 c -0.4944475,0.49448 -1.2731424,0.494474 -1.7675781,0 -0.494395,-0.494363 -0.494395,-1.273214 0,-1.767578 l 7.0703124,-7.072265 a 0.75,0.75 0 0 0 0,-1.060547 0.75,0.75 0 0 0 -0.529297,-0.2187501 z"
     id="path2" />
  <path
     style="color:#000000;fill:currentColor;stroke-linecap:round;stroke-linejoin:round;-inkscape-stroke:none"
     d="m 17.193359,13.048828 a 0.75,0.75 0 0 0 -0.53125,0.220703 0.75,0.75 0 0 0 0,1.060547 l 3.878907,3.878906 c 0.494435,0.494373 0.494435,1.273206 0,1.767578 -0.494373,0.494436 -1.273206,0.494436 -1.767579,0 l -6.208984,-6.208984 a 0.75,0.75 0 0 0 -1.060547,0 0.75,0.75 0 0 0 0,1.060547 l 6.208985,6.208984 c 1.067626,1.067763 2.821046,1.067763 3.888671,0 1.067763,-1.067626 1.067763,-2.822999 0,-3.890625 l -3.878906,-3.876953 a 0.75,0.75 0 0 0 -0.529297,-0.220703 z"
     id="path4" />
  <path
     style="color:#000000;fill:currentColor;stroke-linecap:round;stroke-linejoin:round;-inkscape-stroke:none"
     d="M 4.2910156,1.0175781 A 0.750075,0.750075 0 0 0 3.3730469,1.1308594 L 1.9589844,2.5449219 A 0.750075,0.750075 0 0 0 1.8476562,3.4609375 L 3.96875,6.9960937 A 0.750075,0.750075 0 0 0 4.8476562,7.3222656 L 6.53125,6.7617187 9.0332031,9.2636719 a 0.75,0.75 0 0 0 1.0605469,0 0.75,0.75 0 0 0 0,-1.0605469 L 7.5898437,5.6992187 8.1503906,4.0195312 A 0.750075,0.750075 0 0 0 7.8261719,3.1386719 Z M 4.0195312,2.6054688 6.5371094,4.1152344 6.140625,5.3105469 4.9453125,5.7089844 3.4335938,3.1914063 Z"
     id="path6" />
  <path
     style="color:#000000;fill:currentColor;stroke-linecap:round;stroke-linejoin:round;-inkscape-stroke:none"
     d="M 16.390625,1.5546875 C 15.733299,1.4566829 15.040482,1.4663086 14.351563,1.5664062 12.973723,1.7666015 11.593545,2.3458969 10.580078,3.359375 8.5702264,5.3692036 8.4143164,8.4894156 9.3515625,10.880859 a 0.75,0.75 0 0 0 0.9726565,0.423829 0.75,0.75 0 0 0 0.423828,-0.972657 C 9.9976947,8.4174593 10.17142,5.8891098 11.640625,4.4199219 c 0.726032,-0.7260402 1.821698,-1.2087213 2.925781,-1.3691406 0.663331,-0.09638 1.160625,0.1288731 1.728516,0.2519531 l -2.037109,2.0351562 a 0.750075,0.750075 0 0 0 -0.216797,0.4628906 l -0.283203,3.1113282 a 0.750075,0.750075 0 0 0 0.814453,0.8144531 l 3.111328,-0.28125 a 0.750075,0.750075 0 0 0 0.46289,-0.2167969 l 2.035157,-2.0351562 c 0.12259,0.5672933 0.348179,1.062298 0.251953,1.7246094 -0.160413,1.1040972 -0.64116,2.1997532 -1.367188,2.9257812 -1.469295,1.46921 -3.999515,1.643013 -5.914062,0.892578 a 0.75,0.75 0 0 0 -0.972656,0.425781 0.75,0.75 0 0 0 0.425781,0.970704 c 2.391448,0.937363 5.511583,0.78127 7.521484,-1.228516 1.013471,-1.013471 1.590829,-2.391678 1.791016,-3.7695314 0.200186,-1.377853 0.03664,-2.7736021 -0.617188,-3.8632812 A 0.750075,0.750075 0 0 0 20.126953,5.1269531 L 17.277344,7.9746094 15.333984,8.1503906 15.509766,6.2070312 18.359375,3.359375 A 0.750075,0.750075 0 0 0 18.214844,2.1855469 C 17.670001,1.8586471 17.047951,1.6526921 16.390625,1.5546875 Z"
     id="path8" />
</svg>
