<?xml version="1.0" encoding="UTF-8" standalone="no"?>
<svg
   width="24"
   height="24"
   viewBox="0 0 24 24"
   stroke-width="1.5"
   fill="none"
   version="1.1"
   id="svg10"
   sodipodi:docname="tournament.svg"
   inkscape:version="1.2.1 (9c6d41e410, 2022-07-14)"
   xmlns:inkscape="http://www.inkscape.org/namespaces/inkscape"
   xmlns:sodipodi="http://sodipodi.sourceforge.net/DTD/sodipodi-0.dtd"
   xmlns="http://www.w3.org/2000/svg"
   xmlns:svg="http://www.w3.org/2000/svg">
  <defs
     id="defs14" />
  <sodipodi:namedview
     id="namedview12"
     pagecolor="#ffffff"
     bordercolor="#666666"
     borderopacity="1.0"
     inkscape:showpageshadow="2"
     inkscape:pageopacity="0.0"
     inkscape:pagecheckerboard="0"
     inkscape:deskcolor="#d1d1d1"
     showgrid="false"
     inkscape:zoom="34.541667"
     inkscape:cx="10.364294"
     inkscape:cy="12.014475"
     inkscape:window-width="1920"
     inkscape:window-height="1009"
     inkscape:window-x="1912"
     inkscape:window-y="-8"
     inkscape:window-maximized="1"
     inkscape:current-layer="svg10" />
  <path
     style="color:#000000;fill:currentColor;stroke-linecap:round;stroke-linejoin:round;-inkscape-stroke:none"
     d="M 3,2.25 A 0.75,0.75 0 0 0 2.25,3 0.75,0.75 0 0 0 3,3.75 h 4.25 v 4.5 H 3 A 0.75,0.75 0 0 0 2.25,9 0.75,0.75 0 0 0 3,9.75 H 8 A 0.750075,0.750075 0 0 0 8.75,9 V 3 A 0.750075,0.750075 0 0 0 8,2.25 Z"
     id="path2" />
  <path
     style="color:#000000;fill:currentColor;stroke-linecap:round;stroke-linejoin:round;-inkscape-stroke:none"
     d="M 8,5.25 A 0.75,0.75 0 0 0 7.25,6 0.75,0.75 0 0 0 8,6.75 h 6.25 v 10.5 H 8 A 0.75,0.75 0 0 0 7.25,18 0.75,0.75 0 0 0 8,18.75 h 7 A 0.750075,0.750075 0 0 0 15.75,18 V 6 A 0.750075,0.750075 0 0 0 15,5.25 Z"
     id="path4" />
  <path
     style="color:#000000;fill:currentColor;stroke-linecap:round;stroke-linejoin:round;-inkscape-stroke:none"
     d="M 15,11.25 A 0.75,0.75 0 0 0 14.25,12 0.75,0.75 0 0 0 15,12.75 h 7 A 0.75,0.75 0 0 0 22.75,12 0.75,0.75 0 0 0 22,11.25 Z"
     id="path6" />
  <path
     style="color:#000000;fill:currentColor;stroke-linecap:round;stroke-linejoin:round;-inkscape-stroke:none"
     d="M 3,14.25 A 0.75,0.75 0 0 0 2.25,15 0.75,0.75 0 0 0 3,15.75 h 4.25 v 4.5 H 3 A 0.75,0.75 0 0 0 2.25,21 0.75,0.75 0 0 0 3,21.75 H 8 A 0.750075,0.750075 0 0 0 8.75,21 V 15 A 0.750075,0.750075 0 0 0 8,14.25 Z"
     id="path8" />
</svg>
