<?xml version="1.0" encoding="UTF-8" standalone="no"?>
<svg
   width="24"
   height="24"
   stroke-width="1.5"
   viewBox="0 0 24 24"
   fill="none"
   version="1.1"
   id="svg8"
   sodipodi:docname="tower-warning.svg"
   inkscape:version="1.2.1 (9c6d41e410, 2022-07-14)"
   xmlns:inkscape="http://www.inkscape.org/namespaces/inkscape"
   xmlns:sodipodi="http://sodipodi.sourceforge.net/DTD/sodipodi-0.dtd"
   xmlns="http://www.w3.org/2000/svg"
   xmlns:svg="http://www.w3.org/2000/svg">
  <defs
     id="defs12" />
  <sodipodi:namedview
     id="namedview10"
     pagecolor="#ffffff"
     bordercolor="#666666"
     borderopacity="1.0"
     inkscape:showpageshadow="2"
     inkscape:pageopacity="0.0"
     inkscape:pagecheckerboard="0"
     inkscape:deskcolor="#d1d1d1"
     showgrid="false"
     inkscape:zoom="34.541667"
     inkscape:cx="10.364294"
     inkscape:cy="12.014475"
     inkscape:window-width="1920"
     inkscape:window-height="1009"
     inkscape:window-x="1912"
     inkscape:window-y="-8"
     inkscape:window-maximized="1"
     inkscape:current-layer="svg8" />
  <path
     style="color:#000000;fill:currentColor;stroke-linecap:round;stroke-linejoin:round;-inkscape-stroke:none"
     d="M 12,9.25 A 0.75,0.75 0 0 0 11.25,10 v 3 A 0.75,0.75 0 0 0 12,13.75 0.75,0.75 0 0 0 12.75,13 V 10 A 0.75,0.75 0 0 0 12,9.25 Z"
     id="path2" />
  <path
     style="color:#000000;fill:currentColor;stroke-linecap:round;stroke-linejoin:round;-inkscape-stroke:none"
     d="m 11.970703,16.25 a 0.75,0.75 0 0 0 -0.517578,0.246094 l -0.0098,0.01172 a 0.75,0.75 0 0 0 0.05469,1.058594 0.75,0.75 0 0 0 1.058594,-0.05469 L 12.566406,17.5 A 0.75,0.75 0 0 0 12.511719,16.441406 0.75,0.75 0 0 0 11.970703,16.25 Z"
     id="path4" />
  <path
     style="color:#000000;fill:currentColor;-inkscape-stroke:none"
     d="M 3.5996094,1.25 C 2.8629077,1.25 2.25,1.8629077 2.25,2.5996094 v 5.21875 c 0,0.2664421 0.078749,0.5263376 0.2265625,0.7480469 L 4.25,11.226563 V 20 c 0,1.509917 1.2401154,2.75 2.75,2.75 h 10 c 1.509904,0 2.75,-1.240096 2.75,-2.75 V 11.226563 L 21.523437,8.5664063 C 21.671139,8.3448309 21.75,8.0849704 21.75,7.8183594 v -5.21875 C 21.75,1.862953 21.137086,1.25 20.400391,1.25 H 18.599609 C 17.862914,1.25 17.25,1.862953 17.25,2.5996094 V 4.25 h -2.5 V 2.5996094 C 14.75,1.862953 14.137086,1.25 13.400391,1.25 H 10.599609 C 9.8629144,1.25 9.25,1.862953 9.25,2.5996094 V 4.25 H 6.75 V 2.5996094 C 6.75,1.8629077 6.1370923,1.25 5.4003906,1.25 Z M 3.75,2.75 h 1.5 V 4.4003906 C 5.25,5.1370923 5.8629077,5.75 6.5996094,5.75 H 9.4003906 C 10.137092,5.75 10.75,5.1370923 10.75,4.4003906 V 2.75 h 2.5 V 4.4003906 C 13.25,5.137047 13.862914,5.75 14.599609,5.75 h 2.800782 C 18.137086,5.75 18.75,5.137047 18.75,4.4003906 V 2.75 h 1.5 V 7.7734375 L 18.476562,10.433594 C 18.328957,10.655114 18.25,10.91504 18.25,11.181641 V 20 c 0,0.699294 -0.550706,1.25 -1.25,1.25 H 7 C 6.3007468,21.25 5.75,20.699281 5.75,20 v -8.818359 c 0,-0.266433 -0.078846,-0.526393 -0.2265625,-0.748047 L 3.75,7.7734375 Z"
     id="path6" />
</svg>
