<?xml version="1.0" encoding="UTF-8" standalone="no"?>
<svg
   width="24"
   height="24"
   stroke-width="1.5"
   viewBox="0 0 24 24"
   fill="none"
   version="1.1"
   id="svg6"
   sodipodi:docname="tower-no-access.svg"
   inkscape:version="1.2.1 (9c6d41e410, 2022-07-14)"
   xmlns:inkscape="http://www.inkscape.org/namespaces/inkscape"
   xmlns:sodipodi="http://sodipodi.sourceforge.net/DTD/sodipodi-0.dtd"
   xmlns="http://www.w3.org/2000/svg"
   xmlns:svg="http://www.w3.org/2000/svg">
  <defs
     id="defs10" />
  <sodipodi:namedview
     id="namedview8"
     pagecolor="#ffffff"
     bordercolor="#666666"
     borderopacity="1.0"
     inkscape:showpageshadow="2"
     inkscape:pageopacity="0.0"
     inkscape:pagecheckerboard="0"
     inkscape:deskcolor="#d1d1d1"
     showgrid="false"
     inkscape:zoom="34.541667"
     inkscape:cx="10.364294"
     inkscape:cy="12.014475"
     inkscape:window-width="1920"
     inkscape:window-height="1009"
     inkscape:window-x="1912"
     inkscape:window-y="-8"
     inkscape:window-maximized="1"
     inkscape:current-layer="svg6" />
  <path
     style="color:#000000;fill:currentColor;stroke-linecap:round;stroke-linejoin:round;-inkscape-stroke:none"
     d="m 17,13.25 c -2.614443,0 -4.75,2.135557 -4.75,4.75 0,1.290208 0.518328,2.468279 1.357422,3.324219 C 14.468661,22.202659 15.675684,22.75 17,22.75 c 2.614443,0 4.75,-2.135557 4.75,-4.75 0,-1.290208 -0.518328,-2.468279 -1.357422,-3.324219 C 19.531339,13.797341 18.324316,13.25 17,13.25 Z m 0,1.5 c 0.637141,0 1.192341,0.228995 1.691406,0.542969 l -4.435547,4.345703 C 13.963261,19.151792 13.75,18.613329 13.75,18 c 0,-1.803752 1.446248,-3.25 3.25,-3.25 z m 2.744141,1.611328 C 20.036739,16.848208 20.25,17.386671 20.25,18 c 0,1.803752 -1.446248,3.25 -3.25,3.25 -0.637141,0 -1.192341,-0.228995 -1.691406,-0.542969 z"
     id="path2" />
  <path
     style="color:#000000;fill:currentColor;stroke-linecap:round;stroke-linejoin:round;-inkscape-stroke:none"
     d="M 3.5996094,1.25 C 2.8629077,1.25 2.25,1.8629077 2.25,2.5996094 v 5.21875 c 0,0.2664421 0.078749,0.5263376 0.2265625,0.7480469 L 4.25,11.226563 V 20 c 0,1.509917 1.2401154,2.75 2.75,2.75 H 9 A 0.75,0.75 0 0 0 9.75,22 0.75,0.75 0 0 0 9,21.25 H 7 C 6.3007468,21.25 5.75,20.699281 5.75,20 v -8.818359 c 0,-0.266433 -0.078846,-0.526393 -0.2265625,-0.748047 L 3.75,7.7734375 V 2.75 h 1.5 V 4.4003906 C 5.25,5.1370923 5.8629077,5.75 6.5996094,5.75 H 9.4003906 C 10.137092,5.75 10.75,5.1370923 10.75,4.4003906 V 2.75 h 2.5 V 4.4003906 C 13.25,5.137047 13.862914,5.75 14.599609,5.75 h 2.800782 C 18.137086,5.75 18.75,5.137047 18.75,4.4003906 V 2.75 h 1.5 v 5.0214844 l -0.875,1.3125 A 0.75,0.75 0 0 0 19.583984,10.125 0.75,0.75 0 0 0 20.625,9.9160156 L 21.523437,8.5664063 C 21.671139,8.3448309 21.75,8.0849704 21.75,7.8183594 v -5.21875 C 21.75,1.862953 21.137086,1.25 20.400391,1.25 H 18.599609 C 17.862914,1.25 17.25,1.862953 17.25,2.5996094 V 4.25 h -2.5 V 2.5996094 C 14.75,1.862953 14.137086,1.25 13.400391,1.25 H 10.599609 C 9.8629144,1.25 9.25,1.862953 9.25,2.5996094 V 4.25 H 6.75 V 2.5996094 C 6.75,1.8629077 6.1370923,1.25 5.4003906,1.25 Z"
     id="path4" />
</svg>
