<?xml version="1.0" encoding="UTF-8" standalone="no"?>
<svg
   width="24"
   height="24"
   viewBox="0 0 24 24"
   stroke-width="1.5"
   fill="none"
   version="1.1"
   id="svg18"
   sodipodi:docname="train.svg"
   inkscape:version="1.2.1 (9c6d41e410, 2022-07-14)"
   xmlns:inkscape="http://www.inkscape.org/namespaces/inkscape"
   xmlns:sodipodi="http://sodipodi.sourceforge.net/DTD/sodipodi-0.dtd"
   xmlns="http://www.w3.org/2000/svg"
   xmlns:svg="http://www.w3.org/2000/svg">
  <defs
     id="defs22" />
  <sodipodi:namedview
     id="namedview20"
     pagecolor="#ffffff"
     bordercolor="#666666"
     borderopacity="1.0"
     inkscape:showpageshadow="2"
     inkscape:pageopacity="0.0"
     inkscape:pagecheckerboard="0"
     inkscape:deskcolor="#d1d1d1"
     showgrid="false"
     inkscape:zoom="34.541667"
     inkscape:cx="10.364294"
     inkscape:cy="12.014475"
     inkscape:window-width="1920"
     inkscape:window-height="1009"
     inkscape:window-x="1912"
     inkscape:window-y="-8"
     inkscape:window-maximized="1"
     inkscape:current-layer="svg18" />
  <path
     style="color:#000000;fill:currentColor;stroke-linecap:round;stroke-linejoin:round;-inkscape-stroke:none"
     d="M 9.609375,6.25 C 7.7632998,6.25 6.25,7.7632998 6.25,9.609375 6.25,10.23081 6.7691896,10.75 7.390625,10.75 h 9.21875 C 17.230819,10.75 17.75,10.230834 17.75,9.609375 17.75,7.7632824 16.236664,6.25 14.390625,6.25 Z m 0,1.5 h 4.78125 c 0.89411,0 1.526763,0.6656517 1.710937,1.5 H 7.8984375 C 8.0825999,8.4156441 8.7152098,7.75 9.609375,7.75 Z"
     id="path2" />
  <path
     style="color:#000000;fill:currentColor;stroke-linecap:round;stroke-linejoin:round;-inkscape-stroke:none"
     d="M 9,2.25 C 5.280964,2.25 2.25,5.280964 2.25,9 v 4 c 0,3.719027 3.0309625,6.75 6.75,6.75 h 6 c 3.719029,0 6.75,-3.030971 6.75,-6.75 V 9 C 21.75,5.2809625 18.719027,2.25 15,2.25 Z m 0,1.5 h 6 c 2.908366,0 5.25,2.3416241 5.25,5.25 v 4 c 0,2.908365 -2.341635,5.25 -5.25,5.25 H 9 C 6.0916241,18.25 3.75,15.908366 3.75,13 V 9 C 3.75,6.0916226 6.0916226,3.75 9,3.75 Z"
     id="path4" />
  <path
     style="color:#000000;fill:currentColor;stroke-linecap:round;stroke-linejoin:round;-inkscape-stroke:none"
     d="m 16.511719,14.441406 a 0.75,0.75 0 0 0 -1.058594,0.05469 l -0.0098,0.01172 a 0.75,0.75 0 0 0 0.05469,1.058593 0.75,0.75 0 0 0 1.058594,-0.05469 L 16.566406,15.5 a 0.75,0.75 0 0 0 -0.05469,-1.058594 z"
     id="path6" />
  <path
     style="color:#000000;fill:currentColor;stroke-linecap:round;stroke-linejoin:round;-inkscape-stroke:none"
     d="M 7.9707031,14.25 A 0.75,0.75 0 0 0 7.453125,14.496094 l -0.00977,0.01172 a 0.75,0.75 0 0 0 0.054687,1.058593 0.75,0.75 0 0 0 1.0585937,-0.05469 L 8.5664063,15.5 A 0.75,0.75 0 0 0 8.5117188,14.441406 0.75,0.75 0 0 0 7.9707031,14.25 Z"
     id="path8" />
  <path
     style="color:#000000;fill:currentColor;stroke-linecap:round;-inkscape-stroke:none"
     d="M 10.417969,18.253906 A 0.75,0.75 0 0 0 9.9140625,18.53125 l -2,2.5 A 0.75,0.75 0 0 0 8.03125,22.085937 0.75,0.75 0 0 0 9.0859375,21.96875 l 2.0000005,-2.5 A 0.75,0.75 0 0 0 10.96875,18.414062 0.75,0.75 0 0 0 10.417969,18.253906 Z"
     id="path10" />
  <path
     style="color:#000000;fill:currentColor;stroke-linecap:round;-inkscape-stroke:none"
     d="m 13.582031,18.253906 a 0.75,0.75 0 0 0 -0.550781,0.160156 0.75,0.75 0 0 0 -0.117187,1.054688 l 2,2.5 a 0.75,0.75 0 0 0 1.054687,0.117187 0.75,0.75 0 0 0 0.117187,-1.054687 l -1.999999,-2.5 a 0.75,0.75 0 0 0 -0.503907,-0.277344 z"
     id="path12" />
  <path
     style="color:#000000;fill:currentColor;stroke-linecap:round;-inkscape-stroke:none"
     d="m 16.582031,18.253906 a 0.75,0.75 0 0 0 -0.550781,0.160156 0.75,0.75 0 0 0 -0.117187,1.054688 l 1.999999,2.5 a 0.75,0.75 0 0 0 1.054688,0.117187 0.75,0.75 0 0 0 0.117187,-1.054687 l -2,-2.5 a 0.75,0.75 0 0 0 -0.503906,-0.277344 z"
     id="path14" />
  <path
     style="color:#000000;fill:currentColor;stroke-linecap:round;-inkscape-stroke:none"
     d="M 7.4179687,18.253906 A 0.75,0.75 0 0 0 6.9140625,18.53125 l -2,2.5 A 0.75,0.75 0 0 0 5.03125,22.085937 0.75,0.75 0 0 0 6.0859375,21.96875 l 2,-2.5 A 0.75,0.75 0 0 0 7.96875,18.414062 0.75,0.75 0 0 0 7.4179687,18.253906 Z"
     id="path16" />
</svg>
