<?xml version="1.0" encoding="UTF-8" standalone="no"?>
<svg
   width="24"
   height="24"
   viewBox="0 0 24 24"
   stroke-width="1.5"
   fill="none"
   version="1.1"
   id="svg18"
   sodipodi:docname="tram.svg"
   inkscape:version="1.2.1 (9c6d41e410, 2022-07-14)"
   xmlns:inkscape="http://www.inkscape.org/namespaces/inkscape"
   xmlns:sodipodi="http://sodipodi.sourceforge.net/DTD/sodipodi-0.dtd"
   xmlns="http://www.w3.org/2000/svg"
   xmlns:svg="http://www.w3.org/2000/svg">
  <defs
     id="defs22" />
  <sodipodi:namedview
     id="namedview20"
     pagecolor="#ffffff"
     bordercolor="#666666"
     borderopacity="1.0"
     inkscape:showpageshadow="2"
     inkscape:pageopacity="0.0"
     inkscape:pagecheckerboard="0"
     inkscape:deskcolor="#d1d1d1"
     showgrid="false"
     inkscape:zoom="34.541667"
     inkscape:cx="10.364294"
     inkscape:cy="12.014475"
     inkscape:window-width="1920"
     inkscape:window-height="1009"
     inkscape:window-x="1912"
     inkscape:window-y="-8"
     inkscape:window-maximized="1"
     inkscape:current-layer="svg18" />
  <path
     style="color:#000000;fill:currentColor;stroke-linecap:round;stroke-linejoin:round;-inkscape-stroke:none"
     d="m 14.970703,15.25 a 0.75,0.75 0 0 0 -0.517578,0.246094 l -0.0098,0.01172 a 0.75,0.75 0 0 0 0.05469,1.058593 0.75,0.75 0 0 0 1.058594,-0.05469 L 15.566406,16.5 A 0.75,0.75 0 0 0 15.511719,15.441406 0.75,0.75 0 0 0 14.970703,15.25 Z"
     id="path2" />
  <path
     style="color:#000000;fill:currentColor;stroke-linecap:round;stroke-linejoin:round;-inkscape-stroke:none"
     d="M 8.9707031,15.25 A 0.75,0.75 0 0 0 8.453125,15.496094 l -0.00977,0.01172 a 0.75,0.75 0 0 0 0.054687,1.058593 0.75,0.75 0 0 0 1.0585937,-0.05469 L 9.5664063,16.5 A 0.75,0.75 0 0 0 9.5117188,15.441406 0.75,0.75 0 0 0 8.9707031,15.25 Z"
     id="path4" />
  <path
     style="color:#000000;fill:currentColor;stroke-linecap:round;stroke-linejoin:round;-inkscape-stroke:none"
     d="M 7,1.25 A 0.75,0.75 0 0 0 6.25,2 0.75,0.75 0 0 0 7,2.75 h 6.039063 l -0.625,2.5 H 9 C 5.8332519,5.25 3.25,7.8332519 3.25,11 v 7 c 0,1.509917 1.2401154,2.75 2.75,2.75 h 12 c 1.509904,0 2.75,-1.240096 2.75,-2.75 V 11 C 20.75,7.8332482 18.166731,5.25 15,5.25 h -1.039062 l 0.625,-2.5 H 17 A 0.75,0.75 0 0 0 17.75,2 0.75,0.75 0 0 0 17,1.25 h -3 z m 2,5.5 h 4 2 c 2.356063,0 4.25,1.8939173 4.25,4.25 v 7 c 0,0.699294 -0.550706,1.25 -1.25,1.25 H 6 C 5.3007468,19.25 4.75,18.699281 4.75,18 V 11 C 4.75,8.6439137 6.6439137,6.75 9,6.75 Z"
     id="path6" />
  <path
     style="color:#000000;fill:currentColor;stroke-linecap:round;-inkscape-stroke:none"
     d="M 10.417969,19.253906 A 0.75,0.75 0 0 0 9.9140625,19.53125 l -2,2.5 A 0.75,0.75 0 0 0 8.03125,23.085937 0.75,0.75 0 0 0 9.0859375,22.96875 l 2.0000005,-2.5 A 0.75,0.75 0 0 0 10.96875,19.414062 0.75,0.75 0 0 0 10.417969,19.253906 Z"
     id="path8" />
  <path
     style="color:#000000;fill:currentColor;stroke-linecap:round;-inkscape-stroke:none"
     d="m 13.582031,19.253906 a 0.75,0.75 0 0 0 -0.550781,0.160156 0.75,0.75 0 0 0 -0.117187,1.054688 l 2,2.5 a 0.75,0.75 0 0 0 1.054687,0.117187 0.75,0.75 0 0 0 0.117187,-1.054687 l -1.999999,-2.5 a 0.75,0.75 0 0 0 -0.503907,-0.277344 z"
     id="path10" />
  <path
     style="color:#000000;fill:currentColor;stroke-linecap:round;-inkscape-stroke:none"
     d="m 16.582031,19.253906 a 0.75,0.75 0 0 0 -0.550781,0.160156 0.75,0.75 0 0 0 -0.117187,1.054688 l 1.999999,2.5 a 0.75,0.75 0 0 0 1.054688,0.117187 0.75,0.75 0 0 0 0.117187,-1.054687 l -2,-2.5 a 0.75,0.75 0 0 0 -0.503906,-0.277344 z"
     id="path12" />
  <path
     style="color:#000000;fill:currentColor;stroke-linecap:round;-inkscape-stroke:none"
     d="M 7.4179687,19.253906 A 0.75,0.75 0 0 0 6.9140625,19.53125 l -2,2.5 A 0.75,0.75 0 0 0 5.03125,23.085937 0.75,0.75 0 0 0 6.0859375,22.96875 l 2,-2.5 A 0.75,0.75 0 0 0 7.96875,19.414062 0.75,0.75 0 0 0 7.4179687,19.253906 Z"
     id="path14" />
  <path
     style="color:#000000;fill:currentColor;stroke-linecap:round;stroke-linejoin:round;-inkscape-stroke:none"
     d="M 9.609375,8.25 C 7.7632824,8.25 6.25,9.7633357 6.25,11.609375 6.25,12.230819 6.7691665,12.75 7.390625,12.75 h 9.21875 C 17.230842,12.75 17.75,12.230842 17.75,11.609375 17.75,9.7633183 16.236682,8.25 14.390625,8.25 Z m 0,1.5 h 4.78125 c 0.894095,0 1.52676,0.66568 1.710937,1.5 H 7.8984375 C 8.0826031,10.415672 8.7152248,9.75 9.609375,9.75 Z"
     id="path16" />
</svg>
