<?xml version="1.0" encoding="UTF-8" standalone="no"?>
<svg
   width="24"
   height="24"
   stroke-width="1.5"
   viewBox="0 0 24 24"
   fill="none"
   version="1.1"
   id="svg8"
   sodipodi:docname="transition-down.svg"
   inkscape:version="1.2.1 (9c6d41e410, 2022-07-14)"
   xmlns:inkscape="http://www.inkscape.org/namespaces/inkscape"
   xmlns:sodipodi="http://sodipodi.sourceforge.net/DTD/sodipodi-0.dtd"
   xmlns="http://www.w3.org/2000/svg"
   xmlns:svg="http://www.w3.org/2000/svg">
  <defs
     id="defs12" />
  <sodipodi:namedview
     id="namedview10"
     pagecolor="#ffffff"
     bordercolor="#666666"
     borderopacity="1.0"
     inkscape:showpageshadow="2"
     inkscape:pageopacity="0.0"
     inkscape:pagecheckerboard="0"
     inkscape:deskcolor="#d1d1d1"
     showgrid="false"
     inkscape:zoom="34.541667"
     inkscape:cx="10.364294"
     inkscape:cy="12.014475"
     inkscape:window-width="1920"
     inkscape:window-height="1009"
     inkscape:window-x="1912"
     inkscape:window-y="-8"
     inkscape:window-maximized="1"
     inkscape:current-layer="svg8" />
  <path
     style="color:#000000;fill:currentColor;-inkscape-stroke:none"
     d="M 6,1.25 C 3.9378197,1.25 2.25,2.9378197 2.25,5 v 2 c 0,2.0621803 1.6878197,3.75 3.75,3.75 h 12 c 2.062218,0 3.75,-1.6878347 3.75,-3.75 V 5 C 21.75,2.9378347 20.062218,1.25 18,1.25 Z m 0,1.5 h 12 c 1.251579,0 2.25,0.9984686 2.25,2.25 v 2 c 0,1.2515314 -0.998421,2.25 -2.25,2.25 H 6 C 4.7484837,9.25 3.75,8.2515163 3.75,7 V 5 C 3.75,3.7484837 4.7484837,2.75 6,2.75 Z"
     id="path2" />
  <path
     style="color:#000000;fill:currentColor;stroke-linecap:round;stroke-linejoin:round;-inkscape-stroke:none"
     d="M 3,15.25 A 0.75,0.75 0 0 0 2.25,16 v 2 c 0,2.614434 2.1355239,4.75 4.75,4.75 h 10 c 2.614443,0 4.75,-2.135557 4.75,-4.75 V 16 A 0.75,0.75 0 0 0 21,15.25 0.75,0.75 0 0 0 20.25,16 v 2 c 0,1.803752 -1.446248,3.25 -3.25,3.25 H 7 C 5.1962005,21.25 3.75,19.803761 3.75,18 V 16 A 0.75,0.75 0 0 0 3,15.25 Z"
     id="path4" />
  <path
     style="color:#000000;fill:currentColor;stroke-linecap:round;stroke-linejoin:round;-inkscape-stroke:none"
     d="M 12,9.25 A 0.75,0.75 0 0 0 11.25,10 v 6.1875 L 9.53125,14.46875 a 0.75,0.75 0 0 0 -1.0625,0 0.75,0.75 0 0 0 0,1.0625 l 3,3 a 0.75,0.75 0 0 0 1.0625,0 l 3,-3 a 0.75,0.75 0 0 0 0,-1.0625 0.75,0.75 0 0 0 -1.0625,0 L 12.75,16.1875 V 10 A 0.75,0.75 0 0 0 12,9.25 Z"
     id="path6" />
</svg>
