<?xml version="1.0" encoding="UTF-8" standalone="no"?>
<svg
   width="24"
   height="24"
   stroke-width="1.5"
   viewBox="0 0 24 24"
   fill="none"
   version="1.1"
   id="svg8"
   sodipodi:docname="transition-up.svg"
   inkscape:version="1.2.1 (9c6d41e410, 2022-07-14)"
   xmlns:inkscape="http://www.inkscape.org/namespaces/inkscape"
   xmlns:sodipodi="http://sodipodi.sourceforge.net/DTD/sodipodi-0.dtd"
   xmlns="http://www.w3.org/2000/svg"
   xmlns:svg="http://www.w3.org/2000/svg">
  <defs
     id="defs12" />
  <sodipodi:namedview
     id="namedview10"
     pagecolor="#ffffff"
     bordercolor="#666666"
     borderopacity="1.0"
     inkscape:showpageshadow="2"
     inkscape:pageopacity="0.0"
     inkscape:pagecheckerboard="0"
     inkscape:deskcolor="#d1d1d1"
     showgrid="false"
     inkscape:zoom="34.541667"
     inkscape:cx="10.364294"
     inkscape:cy="12.014475"
     inkscape:window-width="1920"
     inkscape:window-height="1009"
     inkscape:window-x="1912"
     inkscape:window-y="-8"
     inkscape:window-maximized="1"
     inkscape:current-layer="svg8" />
  <path
     style="color:#000000;fill:currentColor;-inkscape-stroke:none"
     d="m 6,13.25 c -2.0621653,0 -3.75,1.687782 -3.75,3.75 v 2 c 0,2.062218 1.6878347,3.75 3.75,3.75 h 12 c 2.062203,0 3.75,-1.687797 3.75,-3.75 v -2 c 0,-2.062203 -1.687797,-3.75 -3.75,-3.75 z m 0,1.5 h 12 c 1.251594,0 2.25,0.998406 2.25,2.25 v 2 c 0,1.251594 -0.998406,2.25 -2.25,2.25 H 6 C 4.7484686,21.25 3.75,20.251579 3.75,19 v -2 c 0,-1.251579 0.9984686,-2.25 2.25,-2.25 z"
     id="path2" />
  <path
     style="color:#000000;fill:currentColor;stroke-linecap:round;stroke-linejoin:round;-inkscape-stroke:none"
     d="M 7,1.25 C 4.3855329,1.25 2.25,3.3855329 2.25,6 V 8 A 0.75,0.75 0 0 0 3,8.75 0.75,0.75 0 0 0 3.75,8 V 6 C 3.75,4.1961915 5.1961915,2.75 7,2.75 h 10 c 1.803761,0 3.25,1.4462005 3.25,3.25 V 8 A 0.75,0.75 0 0 0 21,8.75 0.75,0.75 0 0 0 21.75,8 V 6 C 21.75,3.3855239 19.614434,1.25 17,1.25 Z"
     id="path4" />
  <path
     style="color:#000000;fill:currentColor;stroke-linecap:round;stroke-linejoin:round;-inkscape-stroke:none"
     d="m 12,5.25 a 0.75,0.75 0 0 0 -0.53125,0.21875 l -3,3 a 0.75,0.75 0 0 0 0,1.0625 0.75,0.75 0 0 0 1.0625,0 L 11.25,7.8125 V 14 A 0.75,0.75 0 0 0 12,14.75 0.75,0.75 0 0 0 12.75,14 V 7.8125 l 1.71875,1.71875 a 0.75,0.75 0 0 0 1.0625,0 0.75,0.75 0 0 0 0,-1.0625 l -3,-3 A 0.75,0.75 0 0 0 12,5.25 Z"
     id="path6" />
</svg>
