<?xml version="1.0" encoding="UTF-8" standalone="no"?>
<svg
   width="24"
   height="24"
   stroke-width="1.5"
   viewBox="0 0 24 24"
   fill="none"
   version="1.1"
   id="svg6"
   sodipodi:docname="translate.svg"
   inkscape:version="1.2.1 (9c6d41e410, 2022-07-14)"
   xmlns:inkscape="http://www.inkscape.org/namespaces/inkscape"
   xmlns:sodipodi="http://sodipodi.sourceforge.net/DTD/sodipodi-0.dtd"
   xmlns="http://www.w3.org/2000/svg"
   xmlns:svg="http://www.w3.org/2000/svg">
  <defs
     id="defs10" />
  <sodipodi:namedview
     id="namedview8"
     pagecolor="#ffffff"
     bordercolor="#666666"
     borderopacity="1.0"
     inkscape:showpageshadow="2"
     inkscape:pageopacity="0.0"
     inkscape:pagecheckerboard="0"
     inkscape:deskcolor="#d1d1d1"
     showgrid="false"
     inkscape:zoom="34.541667"
     inkscape:cx="10.364294"
     inkscape:cy="12.014475"
     inkscape:window-width="1920"
     inkscape:window-height="1009"
     inkscape:window-x="1912"
     inkscape:window-y="-8"
     inkscape:window-maximized="1"
     inkscape:current-layer="svg6" />
  <path
     style="color:#000000;fill:currentColor;stroke-linecap:round;stroke-linejoin:round;-inkscape-stroke:none"
     d="M 9,2.25 A 0.75,0.75 0 0 0 8.25,3 V 4.25 H 2 A 0.75,0.75 0 0 0 1.25,5 0.75,0.75 0 0 0 2,5.75 h 7 3.337891 C 11.582611,7.7064717 10.415947,9.5899717 9,11.333984 8.0832666,10.196479 6.9028613,8.6299413 6.6699219,8.1640625 A 0.75,0.75 0 0 0 5.6640625,7.8300781 0.75,0.75 0 0 0 5.3300781,8.8359375 c 0.4410878,0.8821756 1.6791924,2.4836675 2.6875,3.6738285 -1.4798253,1.654868 -3.0705713,3.189695 -4.5058593,4.419921 a 0.75,0.75 0 0 0 -0.082031,1.058594 0.75,0.75 0 0 0 1.0585937,0.08203 c 1.4247499,-1.221193 3.0124893,-2.770892 4.5136719,-4.43164 l 2.4765629,2.40039 a 0.75,0.75 0 0 0 1.060547,-0.01758 0.75,0.75 0 0 0 -0.01758,-1.060546 L 9.9921875,12.509766 C 11.679426,10.47265 13.132268,8.2027815 13.974609,5.75 H 16 A 0.75,0.75 0 0 0 16.75,5 0.75,0.75 0 0 0 16,4.25 H 13.5 9.75 V 3 A 0.75,0.75 0 0 0 9,2.25 Z"
     id="path2" />
  <path
     style="color:#000000;fill:currentColor;stroke-linecap:round;stroke-linejoin:round;-inkscape-stroke:none"
     d="m 17.5,9.75 a 0.750075,0.750075 0 0 0 -0.701172,0.482422 l -2.857422,7.5 -1.142578,3 a 0.75,0.75 0 0 0 0.433594,0.96875 0.75,0.75 0 0 0 0.96875,-0.433594 L 15.160156,18.75 h 4.679688 l 0.958984,2.517578 a 0.75,0.75 0 0 0 0.96875,0.433594 0.75,0.75 0 0 0 0.433594,-0.96875 l -1.142578,-3 -0.0078,-0.01953 -2.849609,-7.480469 A 0.750075,0.750075 0 0 0 17.5,9.75 Z m 0,2.857422 1.769531,4.642578 h -3.539062 z"
     id="path4" />
</svg>
