<?xml version="1.0" encoding="UTF-8" standalone="no"?>
<svg
   width="24"
   height="24"
   viewBox="0 0 24 24"
   stroke-width="1.5"
   fill="none"
   version="1.1"
   id="svg6"
   sodipodi:docname="trash.svg"
   inkscape:version="1.2.1 (9c6d41e410, 2022-07-14)"
   xmlns:inkscape="http://www.inkscape.org/namespaces/inkscape"
   xmlns:sodipodi="http://sodipodi.sourceforge.net/DTD/sodipodi-0.dtd"
   xmlns="http://www.w3.org/2000/svg"
   xmlns:svg="http://www.w3.org/2000/svg">
  <defs
     id="defs10" />
  <sodipodi:namedview
     id="namedview8"
     pagecolor="#ffffff"
     bordercolor="#666666"
     borderopacity="1.0"
     inkscape:showpageshadow="2"
     inkscape:pageopacity="0.0"
     inkscape:pagecheckerboard="0"
     inkscape:deskcolor="#d1d1d1"
     showgrid="false"
     inkscape:zoom="34.541667"
     inkscape:cx="10.364294"
     inkscape:cy="12.014475"
     inkscape:window-width="1920"
     inkscape:window-height="1009"
     inkscape:window-x="1912"
     inkscape:window-y="-8"
     inkscape:window-maximized="1"
     inkscape:current-layer="svg6" />
  <path
     style="color:#000000;fill:currentColor;stroke-linecap:round;stroke-linejoin:round;-inkscape-stroke:none"
     d="M 3.8710938,8.2617188 A 0.75,0.75 0 0 0 3.2617188,9.1289063 L 5.2558594,20.476562 C 5.4861856,21.786548 6.6347623,22.75 7.9648437,22.75 h 8.0703123 c 1.33005,0 2.478708,-0.963425 2.708985,-2.273438 L 20.738281,9.1289063 A 0.75,0.75 0 0 0 20.128906,8.2617188 0.75,0.75 0 0 0 19.261719,8.8710938 L 17.265625,20.216797 C 17.159702,20.819382 16.646904,21.25 16.035156,21.25 H 7.9648437 C 7.3530272,21.25 6.8403284,20.819409 6.734375,20.216797 L 4.7382812,8.8710938 A 0.75,0.75 0 0 0 3.8710938,8.2617188 Z"
     id="path2" />
  <path
     style="color:#000000;fill:currentColor;stroke-linecap:round;stroke-linejoin:round;-inkscape-stroke:none"
     d="M 10.625,1.25 C 9.1151018,1.25 7.875,2.4901018 7.875,4 V 5.25 H 3 A 0.75,0.75 0 0 0 2.25,6 0.75,0.75 0 0 0 3,6.75 H 8.625 15.375 21 A 0.75,0.75 0 0 0 21.75,6 0.75,0.75 0 0 0 21,5.25 H 16.125 V 4 c 0,-1.5098846 -1.240083,-2.75 -2.75,-2.75 z m 0,1.5 h 2.75 c 0.699281,0 1.25,0.5507468 1.25,1.25 V 5.25 H 9.375 V 4 c 0,-0.6992396 0.5507604,-1.25 1.25,-1.25 z"
     id="path4" />
</svg>
