<?xml version="1.0" encoding="UTF-8" standalone="no"?>
<svg
   width="24"
   height="24"
   stroke-width="1.5"
   viewBox="0 0 24 24"
   fill="none"
   version="1.1"
   id="svg16"
   sodipodi:docname="treadmill.svg"
   inkscape:version="1.2.1 (9c6d41e410, 2022-07-14)"
   xmlns:inkscape="http://www.inkscape.org/namespaces/inkscape"
   xmlns:sodipodi="http://sodipodi.sourceforge.net/DTD/sodipodi-0.dtd"
   xmlns="http://www.w3.org/2000/svg"
   xmlns:svg="http://www.w3.org/2000/svg">
  <defs
     id="defs20" />
  <sodipodi:namedview
     id="namedview18"
     pagecolor="#ffffff"
     bordercolor="#666666"
     borderopacity="1.0"
     inkscape:showpageshadow="2"
     inkscape:pageopacity="0.0"
     inkscape:pagecheckerboard="0"
     inkscape:deskcolor="#d1d1d1"
     showgrid="false"
     inkscape:zoom="34.541667"
     inkscape:cx="10.364294"
     inkscape:cy="12.014475"
     inkscape:window-width="1920"
     inkscape:window-height="1009"
     inkscape:window-x="1912"
     inkscape:window-y="-8"
     inkscape:window-maximized="1"
     inkscape:current-layer="svg16" />
  <path
     style="color:#000000;fill:currentColor;stroke-linecap:round;stroke-linejoin:round;-inkscape-stroke:none"
     d="m 13,1.25 c -1.509917,0 -2.75,1.2401154 -2.75,2.75 0,1.5098846 1.240083,2.75 2.75,2.75 1.509917,0 2.75,-1.2401154 2.75,-2.75 0,-1.5098846 -1.240083,-2.75 -2.75,-2.75 z m 0,1.5 c 0.699281,0 1.25,0.5507468 1.25,1.25 0,0.6992532 -0.550719,1.25 -1.25,1.25 -0.699281,0 -1.25,-0.5507468 -1.25,-1.25 0,-0.6992532 0.550719,-1.25 1.25,-1.25 z"
     id="path2" />
  <path
     style="color:#000000;fill:currentColor;stroke-linecap:round;stroke-linejoin:round;-inkscape-stroke:none"
     d="M 11.082031,6.6816406 A 0.75,0.75 0 0 0 10.027344,6.7988281 L 6.71875,10.933594 a 0.750075,0.750075 0 0 0 0.056641,0.998047 l 3.7675784,3.769531 -1.8535159,4.074219 a 0.75,0.75 0 0 0 0.3730469,0.99414 0.75,0.75 0 0 0 0.992188,-0.373047 l 2.068359,-4.548828 A 0.750075,0.750075 0 0 0 11.970703,15.007813 L 8.3105469,11.345703 11.199219,7.7363281 A 0.75,0.75 0 0 0 11.082031,6.6816406 Z"
     id="path4" />
  <path
     style="color:#000000;fill:currentColor;stroke-linecap:round;stroke-linejoin:round;-inkscape-stroke:none"
     d="M 8.2402344,4.5957031 A 0.750075,0.750075 0 0 0 7.2734375,4.6621094 L 3.8867188,7.9707031 A 0.75,0.75 0 0 0 3.8730469,9.03125 0.75,0.75 0 0 0 4.9335937,9.0449219 l 2.9335938,-2.8652344 2.2363285,1.6425781 2.839843,3.2460934 a 0.750075,0.750075 0 0 0 0.564454,0.257813 h 1.722656 a 0.75,0.75 0 0 0 0.75,-0.75 0.75,0.75 0 0 0 -0.75,-0.7500001 H 13.847656 L 11.177734,6.7734375 A 0.750075,0.750075 0 0 0 11.056641,6.6621094 Z"
     id="path6" />
  <path
     style="color:#000000;fill:currentColor;stroke-linecap:round;stroke-linejoin:round;-inkscape-stroke:none"
     d="M 7.0390625,13.974609 A 0.75,0.75 0 0 0 6.4746094,14.085938 L 5.4238281,14.787109 H 2.3417969 a 0.75,0.75 0 0 0 -0.75,0.75 0.75,0.75 0 0 0 0.75,0.75 h 3.3085937 a 0.750075,0.750075 0 0 0 0.4160156,-0.125 L 7.3066406,15.333984 A 0.75,0.75 0 0 0 7.515625,14.294922 0.75,0.75 0 0 0 7.0390625,13.974609 Z"
     id="path8" />
  <path
     style="color:#000000;fill:currentColor;stroke-linecap:round;stroke-linejoin:round;-inkscape-stroke:none"
     d="m 18.650391,7.25 a 0.75,0.75 0 0 0 -0.75,0.75 V 18.878906 L 3.2460938,20.792969 a 0.75,0.75 0 0 0 -0.6464844,0.841797 0.75,0.75 0 0 0 0.8398437,0.646484 l 15.3085939,-2 a 0.750075,0.750075 0 0 0 0.652344,-0.744141 V 8 a 0.75,0.75 0 0 0 -0.75,-0.75 z"
     id="path10" />
  <path
     style="color:#000000;fill:currentColor;stroke-linecap:round;stroke-linejoin:round;-inkscape-stroke:none"
     d="m 20.392578,5.4414062 -2.240234,2 a 0.750075,0.750075 0 0 0 -0.0059,0.00391 l -1.65039,1.5 a 0.75,0.75 0 0 0 -0.05078,1.0585935 0.75,0.75 0 0 0 1.058594,0.05078 L 19.152344,8.5566406 21.390625,6.5585937 A 0.75,0.75 0 0 0 21.451172,5.5 0.75,0.75 0 0 0 20.392578,5.4414062 Z"
     id="path12" />
  <path
     style="color:#000000;fill:currentColor;stroke-linecap:round;stroke-linejoin:round;-inkscape-stroke:none"
     d="m 18.638672,18.787109 a 0.75,0.75 0 0 0 -0.525391,0.228516 0.75,0.75 0 0 0 0.01563,1.060547 l 2.240235,2.171875 a 0.75,0.75 0 0 0 1.060546,-0.01563 0.75,0.75 0 0 0 -0.01563,-1.060547 l -2.240234,-2.173828 a 0.75,0.75 0 0 0 -0.535156,-0.210938 z"
     id="path14" />
</svg>
