<?xml version="1.0" encoding="UTF-8" standalone="no"?>
<svg
   width="24"
   height="24"
   viewBox="0 0 24 24"
   stroke-width="1.5"
   fill="none"
   version="1.1"
   id="svg10"
   sodipodi:docname="tree.svg"
   inkscape:version="1.2.1 (9c6d41e410, 2022-07-14)"
   xmlns:inkscape="http://www.inkscape.org/namespaces/inkscape"
   xmlns:sodipodi="http://sodipodi.sourceforge.net/DTD/sodipodi-0.dtd"
   xmlns="http://www.w3.org/2000/svg"
   xmlns:svg="http://www.w3.org/2000/svg">
  <defs
     id="defs14" />
  <sodipodi:namedview
     id="namedview12"
     pagecolor="#ffffff"
     bordercolor="#666666"
     borderopacity="1.0"
     inkscape:showpageshadow="2"
     inkscape:pageopacity="0.0"
     inkscape:pagecheckerboard="0"
     inkscape:deskcolor="#d1d1d1"
     showgrid="false"
     inkscape:zoom="34.541667"
     inkscape:cx="10.364294"
     inkscape:cy="12.014475"
     inkscape:window-width="1920"
     inkscape:window-height="1009"
     inkscape:window-x="1912"
     inkscape:window-y="-8"
     inkscape:window-maximized="1"
     inkscape:current-layer="svg10" />
  <path
     style="color:#000000;fill:currentColor;stroke-linecap:round;stroke-linejoin:round;-inkscape-stroke:none"
     d="M 12,9.25 A 0.75,0.75 0 0 0 11.25,10 v 4 8 A 0.75,0.75 0 0 0 12,22.75 0.75,0.75 0 0 0 12.75,22 v -7.537109 l 3.585937,-1.792969 a 0.75,0.75 0 0 0 0.333985,-1.005859 0.75,0.75 0 0 0 -1.005859,-0.333985 L 12.75,12.787109 V 10 A 0.75,0.75 0 0 0 12,9.25 Z"
     id="path2" />
  <path
     style="color:#000000;fill:currentColor;stroke-linecap:round;stroke-linejoin:round;-inkscape-stroke:none"
     d="M 12,1.25 C 8.8332519,1.25 6.25,3.8332519 6.25,7 A 0.75,0.75 0 0 0 7,7.75 0.75,0.75 0 0 0 7.75,7 c 0,-2.3560863 1.8939137,-4.25 4.25,-4.25 2.356063,0 4.25,1.8939173 4.25,4.25 A 0.75,0.75 0 0 0 17,7.75 0.75,0.75 0 0 0 17.75,7 C 17.75,3.8332482 15.166731,1.25 12,1.25 Z"
     id="path4" />
  <path
     style="color:#000000;fill:currentColor;stroke-linecap:round;stroke-linejoin:round;-inkscape-stroke:none"
     d="m 7.5,6.25 c -3.4428955,0 -6.25,2.8071045 -6.25,6.25 0,3.442921 2.8071095,6.25 6.25,6.25 H 12 A 0.75,0.75 0 0 0 12.75,18 0.75,0.75 0 0 0 12,17.25 H 7.5 C 4.8677566,17.25 2.75,15.132272 2.75,12.5 2.75,9.8677616 4.8677616,7.75 7.5,7.75 H 9 A 0.75,0.75 0 0 0 9.75,7 0.75,0.75 0 0 0 9,6.25 Z"
     id="path6" />
  <path
     style="color:#000000;fill:currentColor;stroke-linecap:round;stroke-linejoin:round;-inkscape-stroke:none"
     d="m 17.066406,6.2753906 a 0.75,0.75 0 0 0 -0.8125,0.6796875 0.75,0.75 0 0 0 0.679688,0.8144531 C 19.356632,7.9878839 21.25,10.013859 21.25,12.5 c 0,2.632277 -2.117723,4.75 -4.75,4.75 H 12 A 0.75,0.75 0 0 0 11.25,18 0.75,0.75 0 0 0 12,18.75 h 4.5 c 3.442917,0 6.25,-2.807083 6.25,-6.25 0,-3.2518132 -2.500038,-5.9377225 -5.683594,-6.2246094 z"
     id="path8" />
</svg>
