<?xml version="1.0" encoding="UTF-8" standalone="no"?>
<svg
   width="24"
   height="24"
   stroke-width="1.5"
   viewBox="0 0 24 24"
   fill="none"
   version="1.1"
   id="svg12"
   sodipodi:docname="trekking.svg"
   inkscape:version="1.2.1 (9c6d41e410, 2022-07-14)"
   xmlns:inkscape="http://www.inkscape.org/namespaces/inkscape"
   xmlns:sodipodi="http://sodipodi.sourceforge.net/DTD/sodipodi-0.dtd"
   xmlns="http://www.w3.org/2000/svg"
   xmlns:svg="http://www.w3.org/2000/svg">
  <defs
     id="defs16" />
  <sodipodi:namedview
     id="namedview14"
     pagecolor="#ffffff"
     bordercolor="#666666"
     borderopacity="1.0"
     inkscape:showpageshadow="2"
     inkscape:pageopacity="0.0"
     inkscape:pagecheckerboard="0"
     inkscape:deskcolor="#d1d1d1"
     showgrid="false"
     inkscape:zoom="34.541667"
     inkscape:cx="10.364294"
     inkscape:cy="12.014475"
     inkscape:window-width="1920"
     inkscape:window-height="1009"
     inkscape:window-x="1912"
     inkscape:window-y="-8"
     inkscape:window-maximized="1"
     inkscape:current-layer="svg12" />
  <path
     style="color:#000000;fill:currentColor;stroke-linecap:round;stroke-linejoin:round;-inkscape-stroke:none"
     d="m 10.726563,7.8027344 a 0.750075,0.750075 0 0 0 -0.464844,0.5625 L 9.2617188,13.865234 a 0.750075,0.750075 0 0 0 0.25,0.705079 l 3.2753902,2.80664 0.466797,4.205078 a 0.75,0.75 0 0 0 0.828125,0.664063 0.75,0.75 0 0 0 0.664063,-0.828125 l -0.5,-4.5 a 0.750075,0.750075 0 0 0 -0.257813,-0.488282 l -3.173828,-2.718749 0.707031,-3.882813 3.029297,2.271484 a 0.750075,0.750075 0 0 0 0.785157,0.07031 l 2.999999,-1.5 A 0.75,0.75 0 0 0 18.669922,9.6640625 0.75,0.75 0 0 0 17.664062,9.3300781 L 15.080078,10.621094 11.449219,7.9003906 a 0.750075,0.750075 0 0 0 -0.722656,-0.097656 z"
     id="path2" />
  <path
     style="color:#000000;fill:currentColor;stroke-linecap:round;stroke-linejoin:round;-inkscape-stroke:none"
     d="M 18,7.75 A 0.75,0.75 0 0 0 17.25,8.5 V 10 21.5 A 0.75,0.75 0 0 0 18,22.25 0.75,0.75 0 0 0 18.75,21.5 V 10 8.5 A 0.75,0.75 0 0 0 18,7.75 Z"
     id="path4" />
  <path
     style="color:#000000;fill:currentColor;stroke-linecap:round;stroke-linejoin:round;-inkscape-stroke:none"
     d="m 9.7304688,16.300781 a 0.75,0.75 0 0 0 -0.4160157,0.394531 l -2,4.5 a 0.75,0.75 0 0 0 0.3808594,0.990235 0.75,0.75 0 0 0 0.9902344,-0.38086 l 2.0000001,-4.5 a 0.75,0.75 0 0 0 -0.380859,-0.990234 0.75,0.75 0 0 0 -0.5742192,-0.01367 z"
     id="path6" />
  <path
     style="color:#000000;fill:currentColor;stroke-linecap:round;stroke-linejoin:round;-inkscape-stroke:none"
     d="M 8.0839844,7.875 C 7.1579747,8.4923398 6.5052801,9.4488168 6.0390625,10.248047 5.5728449,11.047277 5.3027344,11.720703 5.3027344,11.720703 a 0.750075,0.750075 0 0 0 0.3613281,0.949219 l 2,1 A 0.75,0.75 0 0 0 8.6699219,13.335938 0.75,0.75 0 0 0 8.3359375,12.330078 L 7.0039062,11.664063 C 7.1126417,11.43098 7.1239211,11.36541 7.3359375,11.001953 7.7447191,10.301185 8.3420268,9.5076592 8.9160156,9.125 A 0.75,0.75 0 0 0 9.125,8.0839844 0.75,0.75 0 0 0 8.0839844,7.875 Z"
     id="path8" />
  <path
     style="color:#000000;fill:currentColor;stroke-linecap:round;stroke-linejoin:round;-inkscape-stroke:none"
     d="m 12,1.75 c -1.509917,0 -2.75,1.2401154 -2.75,2.75 0,1.5098846 1.240083,2.75 2.75,2.75 1.509917,0 2.75,-1.2401154 2.75,-2.75 0,-1.5098846 -1.240083,-2.75 -2.75,-2.75 z m 0,1.5 c 0.699281,0 1.25,0.5507468 1.25,1.25 0,0.6992532 -0.550719,1.25 -1.25,1.25 -0.699281,0 -1.25,-0.5507468 -1.25,-1.25 0,-0.6992532 0.550719,-1.25 1.25,-1.25 z"
     id="path10" />
</svg>
