<?xml version="1.0" encoding="UTF-8" standalone="no"?>
<svg
   width="24"
   height="24"
   stroke-width="1.5"
   viewBox="0 0 24 24"
   fill="none"
   version="1.1"
   id="svg6"
   sodipodi:docname="triangle-flag-two-stripes.svg"
   inkscape:version="1.2.1 (9c6d41e410, 2022-07-14)"
   xmlns:inkscape="http://www.inkscape.org/namespaces/inkscape"
   xmlns:sodipodi="http://sodipodi.sourceforge.net/DTD/sodipodi-0.dtd"
   xmlns="http://www.w3.org/2000/svg"
   xmlns:svg="http://www.w3.org/2000/svg">
  <defs
     id="defs10" />
  <sodipodi:namedview
     id="namedview8"
     pagecolor="#ffffff"
     bordercolor="#666666"
     borderopacity="1.0"
     inkscape:showpageshadow="2"
     inkscape:pageopacity="0.0"
     inkscape:pagecheckerboard="0"
     inkscape:deskcolor="#d1d1d1"
     showgrid="false"
     inkscape:zoom="34.541667"
     inkscape:cx="10.364294"
     inkscape:cy="12.014475"
     inkscape:window-width="1920"
     inkscape:window-height="1009"
     inkscape:window-x="1912"
     inkscape:window-y="-8"
     inkscape:window-maximized="1"
     inkscape:current-layer="svg6" />
  <path
     style="color:#000000;fill:currentColor;stroke-linecap:round;stroke-linejoin:round;-inkscape-stroke:none"
     d="M 7.9550781,2.4199219 C 7.5482399,2.6465545 7.25,3.0666595 7.25,3.5761719 V 16 21 A 0.75,0.75 0 0 0 8,21.75 0.75,0.75 0 0 0 8.75,21 v -4.597656 l 9.388672,-6.259766 C 18.932568,9.6133215 18.912749,8.373313 18.101562,7.8710937 L 9.3105469,2.4296875 C 8.8773251,2.1615021 8.3619163,2.1932893 7.9550781,2.4199219 Z M 8.75,3.8457031 17.113281,9.0234375 8.75,14.597656 Z"
     id="path2" />
  <path
     style="color:#000000;fill:currentColor;stroke-linecap:round;stroke-linejoin:round;-inkscape-stroke:none"
     d="m 14.074219,5.90625 -6.5000003,4.476563 a 0.75,0.75 0 0 0 -0.1914062,1.042968 0.75,0.75 0 0 0 1.0429688,0.191407 L 14.925781,7.1425781 A 0.75,0.75 0 0 0 15.117188,6.0976562 0.75,0.75 0 0 0 14.074219,5.90625 Z"
     id="path4" />
</svg>
