<?xml version="1.0" encoding="UTF-8" standalone="no"?>
<svg
   width="24"
   height="24"
   stroke-width="1.5"
   viewBox="0 0 24 24"
   fill="none"
   version="1.1"
   id="svg4"
   sodipodi:docname="triangle-flag-circle.svg"
   inkscape:version="1.2.1 (9c6d41e410, 2022-07-14)"
   xmlns:inkscape="http://www.inkscape.org/namespaces/inkscape"
   xmlns:sodipodi="http://sodipodi.sourceforge.net/DTD/sodipodi-0.dtd"
   xmlns="http://www.w3.org/2000/svg"
   xmlns:svg="http://www.w3.org/2000/svg">
  <defs
     id="defs8" />
  <sodipodi:namedview
     id="namedview6"
     pagecolor="#ffffff"
     bordercolor="#666666"
     borderopacity="1.0"
     inkscape:showpageshadow="2"
     inkscape:pageopacity="0.0"
     inkscape:pagecheckerboard="0"
     inkscape:deskcolor="#d1d1d1"
     showgrid="false"
     inkscape:zoom="34.541667"
     inkscape:cx="10.364294"
     inkscape:cy="12.014475"
     inkscape:window-width="1920"
     inkscape:window-height="1009"
     inkscape:window-x="1912"
     inkscape:window-y="-8"
     inkscape:window-maximized="1"
     inkscape:current-layer="svg4" />
  <path
     style="color:#000000;fill:currentColor;stroke-linecap:round;stroke-linejoin:round;-inkscape-stroke:none"
     d="M 12,1.25 C 6.0718263,1.25 1.25,6.0718263 1.25,12 c 0,4.682917 3.0519798,8.568385 7.2382813,10.039062 A 0.75,0.75 0 0 0 9,22.25 0.75,0.75 0 0 0 9.1738281,22.177734 C 10.094787,22.435373 10.997859,22.75 12,22.75 17.928132,22.75 22.75,17.928132 22.75,12 22.75,6.0718217 17.928127,1.25 12,1.25 Z m 0,1.5 c 5.117462,0 9.25,4.1324893 9.25,9.25 0,5.117457 -4.132543,9.25 -9.25,9.25 -0.798794,0 -1.511175,-0.263724 -2.25,-0.453125 v -4.867187 l 7.203125,-4.238282 c 0.87759,-0.515974 0.848777,-1.8811048 -0.05078,-2.3574216 l -6.669922,-3.53125 C 9.3625989,5.3422462 8.25,6.0118961 8.25,6.9960937 V 15.5 20.425781 C 5.0165812,18.98592 2.75,15.774559 2.75,12 2.75,6.8824848 6.8824848,2.75 12,2.75 Z M 9.75,7.2460937 15.962891,10.535156 9.75,14.1875 Z"
     id="path2" />
</svg>
