<?xml version="1.0" encoding="UTF-8" standalone="no"?>
<svg
   width="24"
   height="24"
   viewBox="0 0 24 24"
   stroke-width="1.5"
   fill="none"
   version="1.1"
   id="svg14"
   sodipodi:docname="truck-green.svg"
   inkscape:version="1.2.1 (9c6d41e410, 2022-07-14)"
   xmlns:inkscape="http://www.inkscape.org/namespaces/inkscape"
   xmlns:sodipodi="http://sodipodi.sourceforge.net/DTD/sodipodi-0.dtd"
   xmlns="http://www.w3.org/2000/svg"
   xmlns:svg="http://www.w3.org/2000/svg">
  <defs
     id="defs18" />
  <sodipodi:namedview
     id="namedview16"
     pagecolor="#ffffff"
     bordercolor="#666666"
     borderopacity="1.0"
     inkscape:showpageshadow="2"
     inkscape:pageopacity="0.0"
     inkscape:pagecheckerboard="0"
     inkscape:deskcolor="#d1d1d1"
     showgrid="false"
     inkscape:zoom="34.541667"
     inkscape:cx="10.364294"
     inkscape:cy="12.014475"
     inkscape:window-width="1920"
     inkscape:window-height="1009"
     inkscape:window-x="1912"
     inkscape:window-y="-8"
     inkscape:window-maximized="1"
     inkscape:current-layer="svg14" />
  <path
     style="color:#000000;fill:currentColor;stroke-linecap:round;stroke-linejoin:round;stroke-miterlimit:1.5;-inkscape-stroke:none"
     d="m 7,12.25 c -1.5098846,0 -2.75,1.240083 -2.75,2.75 0,1.509917 1.2401154,2.75 2.75,2.75 1.5098846,0 2.75,-1.240083 2.75,-2.75 0,-1.509917 -1.2401154,-2.75 -2.75,-2.75 z m 0,1.5 c 0.6992532,0 1.25,0.550719 1.25,1.25 0,0.699281 -0.5507468,1.25 -1.25,1.25 -0.6992532,0 -1.25,-0.550719 -1.25,-1.25 0,-0.699281 0.5507468,-1.25 1.25,-1.25 z"
     id="path2" />
  <path
     style="color:#000000;fill:currentColor;stroke-linecap:round;-inkscape-stroke:none"
     d="M 2.5996094,3.25 C 1.8629077,3.25 1.25,3.8629077 1.25,4.5996094 V 14.400391 C 1.25,15.137086 1.862953,15.75 2.5996094,15.75 h 2.0507812 a 0.75,0.75 0 0 0 0.75,-0.75 0.75,0.75 0 0 0 -0.75,-0.75 H 2.75 v -9.5 h 10.5 V 15 A 0.75,0.75 0 0 0 14,15.75 0.75,0.75 0 0 0 14.75,15 V 4.5996094 C 14.75,3.862953 14.137086,3.25 13.400391,3.25 Z"
     id="path4" />
  <path
     style="color:#000000;fill:currentColor;stroke-linecap:round;-inkscape-stroke:none"
     d="m 9.0488281,14.25 a 0.75,0.75 0 0 0 -0.75,0.75 0.75,0.75 0 0 0 0.75,0.75 H 14 A 0.75,0.75 0 0 0 14.75,15 0.75,0.75 0 0 0 14,14.25 Z"
     id="path6" />
  <path
     style="color:#000000;fill:currentColor;stroke-linecap:round;-inkscape-stroke:none"
     d="M 14,6.25 A 0.75,0.75 0 0 0 13.25,7 0.75,0.75 0 0 0 14,7.75 h 5.511719 L 20.75,10.53125 V 12 A 0.75,0.75 0 0 0 21.5,12.75 0.75,0.75 0 0 0 22.25,12 v -1.498047 c 0,-0.188786 -0.0406,-0.374381 -0.117188,-0.5468749 L 20.84375,7.0507812 C 20.62784,6.5649725 20.140949,6.25 19.609375,6.25 Z"
     id="path8" />
  <path
     style="color:#000000;fill:currentColor;stroke-linecap:round;stroke-linejoin:round;-inkscape-stroke:none"
     d="m 19.5,17.441406 c -2.327167,2.086029 -3.220703,5.34961 -3.220703,5.34961 a 0.75,0.75 0 0 0 0.511719,0.929687 0.75,0.75 0 0 0 0.929687,-0.511719 c 0,0 0.906468,-2.971622 2.779297,-4.65039 A 0.75,0.75 0 0 0 20.558594,17.5 0.75,0.75 0 0 0 19.5,17.441406 Z"
     id="path10" />
  <path
     style="color:#000000;fill:currentColor;stroke-linecap:round;stroke-linejoin:round;-inkscape-stroke:none"
     d="m 21.978516,14.285156 -2.984375,0.28125 c -2.095438,0.196924 -3.644083,2.075485 -3.4375,4.169922 0.206708,2.094457 2.086228,3.644063 4.18164,3.447266 l 0.134766,-0.01172 c 2.169687,-0.203811 3.772601,-2.14966 3.558594,-4.318359 l -0.25586,-2.580078 c -0.05872,-0.594621 -0.602307,-1.044175 -1.197265,-0.988282 z m -0.25586,1.53125 0.214844,2.185547 c 0.134392,1.361897 -0.842568,2.547793 -2.205078,2.675781 l -0.134766,0.01367 c -1.288385,0.121003 -2.421737,-0.813823 -2.548828,-2.101562 -0.127017,-1.287759 0.795625,-2.408221 2.083984,-2.529297 z"
     id="path12" />
</svg>
