<?xml version="1.0" encoding="UTF-8" standalone="no"?>
<svg
   width="24"
   height="24"
   stroke-width="1.5"
   viewBox="0 0 24 24"
   fill="none"
   version="1.1"
   id="svg16"
   sodipodi:docname="truck-length.svg"
   inkscape:version="1.2.1 (9c6d41e410, 2022-07-14)"
   xmlns:inkscape="http://www.inkscape.org/namespaces/inkscape"
   xmlns:sodipodi="http://sodipodi.sourceforge.net/DTD/sodipodi-0.dtd"
   xmlns="http://www.w3.org/2000/svg"
   xmlns:svg="http://www.w3.org/2000/svg">
  <defs
     id="defs20" />
  <sodipodi:namedview
     id="namedview18"
     pagecolor="#ffffff"
     bordercolor="#666666"
     borderopacity="1.0"
     inkscape:showpageshadow="2"
     inkscape:pageopacity="0.0"
     inkscape:pagecheckerboard="0"
     inkscape:deskcolor="#d1d1d1"
     showgrid="false"
     inkscape:zoom="34.541667"
     inkscape:cx="10.364294"
     inkscape:cy="12.014475"
     inkscape:window-width="1920"
     inkscape:window-height="1009"
     inkscape:window-x="1912"
     inkscape:window-y="-8"
     inkscape:window-maximized="1"
     inkscape:current-layer="svg16" />
  <path
     style="color:#000000;fill:currentColor;stroke-linecap:round;stroke-linejoin:round;stroke-miterlimit:1.5;-inkscape-stroke:none"
     d="m 7,11.25 c -1.5098846,0 -2.75,1.240083 -2.75,2.75 0,1.509917 1.2401154,2.75 2.75,2.75 1.5098846,0 2.75,-1.240083 2.75,-2.75 0,-1.509917 -1.2401154,-2.75 -2.75,-2.75 z m 0,1.5 c 0.6992532,0 1.25,0.550719 1.25,1.25 0,0.699281 -0.5507468,1.25 -1.25,1.25 -0.6992532,0 -1.25,-0.550719 -1.25,-1.25 0,-0.699281 0.5507468,-1.25 1.25,-1.25 z"
     id="path2" />
  <path
     style="color:#000000;fill:currentColor;stroke-linecap:round;stroke-linejoin:round;stroke-miterlimit:1.5;-inkscape-stroke:none"
     d="m 17,11.25 c -1.509904,0 -2.75,1.240096 -2.75,2.75 0,1.509904 1.240096,2.75 2.75,2.75 1.509904,0 2.75,-1.240096 2.75,-2.75 0,-1.509904 -1.240096,-2.75 -2.75,-2.75 z m 0,1.5 c 0.699294,0 1.25,0.550706 1.25,1.25 0,0.699294 -0.550706,1.25 -1.25,1.25 -0.699294,0 -1.25,-0.550706 -1.25,-1.25 0,-0.699294 0.550706,-1.25 1.25,-1.25 z"
     id="path4" />
  <path
     style="color:#000000;fill:currentColor;stroke-linecap:round;-inkscape-stroke:none"
     d="M 2.5996094,2.25 C 1.8629077,2.25 1.25,2.8629077 1.25,3.5996094 V 13.400391 C 1.25,14.137086 1.862953,14.75 2.5996094,14.75 h 2.0507812 a 0.75,0.75 0 0 0 0.75,-0.75 0.75,0.75 0 0 0 -0.75,-0.75 H 2.75 v -9.5 h 10.5 V 14 A 0.75,0.75 0 0 0 14,14.75 0.75,0.75 0 0 0 14.75,14 V 3.5996094 C 14.75,2.862953 14.137086,2.25 13.400391,2.25 Z"
     id="path6" />
  <path
     style="color:#000000;fill:currentColor;stroke-linecap:round;-inkscape-stroke:none"
     d="m 9.0507813,13.25 a 0.75,0.75 0 0 0 -0.75,0.75 0.75,0.75 0 0 0 0.75,0.75 H 14 A 0.75,0.75 0 0 0 14.75,14 0.75,0.75 0 0 0 14,13.25 Z"
     id="path8" />
  <path
     style="color:#000000;fill:currentColor;stroke-linecap:round;-inkscape-stroke:none"
     d="M 14,5.25 A 0.75,0.75 0 0 0 13.25,6 0.75,0.75 0 0 0 14,6.75 h 5.511719 L 21.25,10.65625 V 13.25 H 19.5 A 0.75,0.75 0 0 0 18.75,14 0.75,0.75 0 0 0 19.5,14.75 h 1.900391 C 22.13704,14.75 22.75,14.13704 22.75,13.400391 v -2.773438 c 0,-0.188786 -0.0406,-0.374381 -0.117188,-0.546875 L 20.84375,6.0507812 C 20.62784,5.5649725 20.140949,5.25 19.609375,5.25 Z"
     id="path10" />
  <path
     style="color:#000000;fill:currentColor;stroke-linecap:round;-inkscape-stroke:none"
     d="M 14,13.25 A 0.75,0.75 0 0 0 13.25,14 0.75,0.75 0 0 0 14,14.75 h 1 A 0.75,0.75 0 0 0 15.75,14 0.75,0.75 0 0 0 15,13.25 Z"
     id="path12" />
  <path
     style="color:#000000;fill:currentColor;stroke-linecap:round;stroke-linejoin:round;-inkscape-stroke:none"
     d="m 4.75,17.5 a 0.75,0.75 0 0 0 -0.53125,0.21875 l -1.75,1.75 A 0.75,0.75 0 0 0 2.25,20 0.75,0.75 0 0 0 2.46875,20.53125 l 1.75,1.75 a 0.75,0.75 0 0 0 1.0625,0 0.75,0.75 0 0 0 0,-1.0625 L 4.8125,20.75 h 14.125 l -0.46875,0.46875 a 0.75,0.75 0 0 0 0,1.0625 0.75,0.75 0 0 0 1.0625,0 l 1.75,-1.75 a 0.75,0.75 0 0 0 0.193359,-0.337891 0.75,0.75 0 0 0 0,-0.130859 A 0.75,0.75 0 0 0 21.5,20 0.75,0.75 0 0 0 21.474609,19.871094 0.75,0.75 0 0 0 21.455078,19.773437 0.75,0.75 0 0 0 21.28125,19.46875 l -1.75,-1.75 a 0.75,0.75 0 0 0 -1.0625,0 0.75,0.75 0 0 0 0,1.0625 L 18.9375,19.25 H 4.8125 l 0.46875,-0.46875 a 0.75,0.75 0 0 0 0,-1.0625 A 0.75,0.75 0 0 0 4.75,17.5 Z"
     id="path14" />
</svg>
