<?xml version="1.0" encoding="UTF-8" standalone="no"?>
<svg
   width="24"
   height="24"
   viewBox="0 0 24 24"
   stroke-width="1.5"
   fill="none"
   version="1.1"
   id="svg12"
   sodipodi:docname="tunnel.svg"
   inkscape:version="1.2.1 (9c6d41e410, 2022-07-14)"
   xmlns:inkscape="http://www.inkscape.org/namespaces/inkscape"
   xmlns:sodipodi="http://sodipodi.sourceforge.net/DTD/sodipodi-0.dtd"
   xmlns="http://www.w3.org/2000/svg"
   xmlns:svg="http://www.w3.org/2000/svg">
  <defs
     id="defs16" />
  <sodipodi:namedview
     id="namedview14"
     pagecolor="#ffffff"
     bordercolor="#666666"
     borderopacity="1.0"
     inkscape:showpageshadow="2"
     inkscape:pageopacity="0.0"
     inkscape:pagecheckerboard="0"
     inkscape:deskcolor="#d1d1d1"
     showgrid="false"
     inkscape:zoom="34.541667"
     inkscape:cx="10.364294"
     inkscape:cy="12.014475"
     inkscape:window-width="1920"
     inkscape:window-height="1009"
     inkscape:window-x="1912"
     inkscape:window-y="-8"
     inkscape:window-maximized="1"
     inkscape:current-layer="svg12" />
  <path
     style="color:#000000;fill:currentColor;stroke-linecap:round;stroke-linejoin:round;-inkscape-stroke:none"
     d="m 3.2363281,13.289063 a 0.75,0.75 0 0 0 -0.9472656,0.474609 0.75,0.75 0 0 0 0.4746094,0.947266 l 18.0000001,5.999999 a 0.75,0.75 0 0 0 0.947265,-0.474609 0.75,0.75 0 0 0 -0.474609,-0.947266 z"
     id="path2" />
  <path
     style="color:#000000;fill:currentColor;stroke-linecap:round;-inkscape-stroke:none"
     d="M 16,9.25 A 0.75,0.75 0 0 0 15.25,10 v 1 A 0.75,0.75 0 0 0 16,11.75 0.75,0.75 0 0 0 16.75,11 V 10 A 0.75,0.75 0 0 0 16,9.25 Z"
     id="path4" />
  <path
     style="color:#000000;fill:currentColor;stroke-linecap:round;-inkscape-stroke:none"
     d="M 12,8.25 A 0.75,0.75 0 0 0 11.25,9 v 1 A 0.75,0.75 0 0 0 12,10.75 0.75,0.75 0 0 0 12.75,10 V 9 A 0.75,0.75 0 0 0 12,8.25 Z"
     id="path6" />
  <path
     style="color:#000000;fill:currentColor;stroke-linecap:round;-inkscape-stroke:none"
     d="M 8,7.25 A 0.75,0.75 0 0 0 7.25,8 V 9 A 0.75,0.75 0 0 0 8,9.75 0.75,0.75 0 0 0 8.75,9 V 8 A 0.75,0.75 0 0 0 8,7.25 Z"
     id="path8" />
  <path
     style="color:#000000;fill:currentColor;stroke-linecap:round;stroke-linejoin:round;-inkscape-stroke:none"
     d="M 12,2.25 C 9.4144288,2.25 6.9337449,3.2771926 5.1054687,5.1054687 3.2771926,6.9337449 2.25,9.4144288 2.25,12 v 9 A 0.750075,0.750075 0 0 0 3,21.75 H 21 A 0.750075,0.750075 0 0 0 21.75,21 V 12 C 21.75,9.4144309 20.722775,6.9337454 18.894531,5.1054687 17.06619,3.2772034 14.585525,2.25 12,2.25 Z m 0,1.5 c 2.18827,0 4.286529,0.8686244 5.833984,2.4160156 C 19.381337,7.7133956 20.25,9.8116739 20.25,12 v 8.25 H 3.75 V 12 C 3.75,9.811676 4.6186351,7.7133961 6.1660156,6.1660156 7.7133961,4.6186351 9.811676,3.75 12,3.75 Z"
     id="path10" />
</svg>
