<?xml version="1.0" encoding="UTF-8" standalone="no"?>
<svg
   width="24"
   height="24"
   stroke-width="1.5"
   viewBox="0 0 24 24"
   fill="none"
   version="1.1"
   id="svg12"
   sodipodi:docname="tv-fix.svg"
   inkscape:version="1.2.1 (9c6d41e410, 2022-07-14)"
   xmlns:inkscape="http://www.inkscape.org/namespaces/inkscape"
   xmlns:sodipodi="http://sodipodi.sourceforge.net/DTD/sodipodi-0.dtd"
   xmlns="http://www.w3.org/2000/svg"
   xmlns:svg="http://www.w3.org/2000/svg">
  <defs
     id="defs16" />
  <sodipodi:namedview
     id="namedview14"
     pagecolor="#ffffff"
     bordercolor="#666666"
     borderopacity="1.0"
     inkscape:showpageshadow="2"
     inkscape:pageopacity="0.0"
     inkscape:pagecheckerboard="0"
     inkscape:deskcolor="#d1d1d1"
     showgrid="false"
     inkscape:zoom="34.541667"
     inkscape:cx="10.364294"
     inkscape:cy="12.014475"
     inkscape:window-width="1920"
     inkscape:window-height="1009"
     inkscape:window-x="1912"
     inkscape:window-y="-8"
     inkscape:window-maximized="1"
     inkscape:current-layer="svg12" />
  <path
     style="color:#000000;fill:currentColor;-inkscape-stroke:none"
     d="M 4,6.25 C 2.4901018,6.25 1.25,7.4901018 1.25,9 v 11 c 0,1.509917 1.2401154,2.75 2.75,2.75 h 16 c 1.509904,0 2.75,-1.240096 2.75,-2.75 V 9 C 22.75,7.4901154 21.509917,6.25 20,6.25 Z m 0,1.5 h 16 c 0.699281,0 1.25,0.5507468 1.25,1.25 v 11 c 0,0.699294 -0.550706,1.25 -1.25,1.25 H 4 C 3.3007468,21.25 2.75,20.699281 2.75,20 V 9 C 2.75,8.3007604 3.3007604,7.75 4,7.75 Z"
     id="path2" />
  <path
     style="color:#000000;fill:currentColor;stroke-linecap:round;stroke-linejoin:round;-inkscape-stroke:none"
     d="m 13.65625,12.078125 a 0.75,0.75 0 0 0 -0.529297,0.220703 l -2.828125,2.828125 a 0.75,0.75 0 0 0 0,1.060547 0.75,0.75 0 0 0 1.060547,0 L 14.1875,13.359375 a 0.75,0.75 0 0 0 0,-1.060547 0.75,0.75 0 0 0 -0.53125,-0.220703 z"
     id="path4" />
  <path
     style="color:#000000;fill:currentColor;stroke-linecap:round;stroke-linejoin:round;-inkscape-stroke:none"
     d="m 13.65625,9.25 a 0.75,0.75 0 0 0 -0.529297,0.21875 c -1.067762,1.067626 -1.067762,2.822999 0,3.890625 1.067603,1.06774 2.820987,1.067685 3.888672,0 a 0.75,0.75 0 0 0 0,-1.060547 0.75,0.75 0 0 0 -1.060547,0 c -0.494513,0.494514 -1.273183,0.494459 -1.767578,0 -0.494436,-0.494372 -0.494436,-1.273205 0,-1.767578 a 0.75,0.75 0 0 0 0,-1.0625 A 0.75,0.75 0 0 0 13.65625,9.25 Z"
     id="path6" />
  <path
     style="color:#000000;fill:currentColor;stroke-linecap:round;stroke-linejoin:round;-inkscape-stroke:none"
     d="m 9.4140625,14.326172 c -0.7053608,1e-6 -1.4114927,0.266927 -1.9453125,0.800781 a 0.75,0.75 0 0 0 0,1.060547 0.75,0.75 0 0 0 1.0625,0 c 0.4944589,-0.494491 1.2730601,-0.494518 1.767578,0 0.494354,0.494354 0.494354,1.273224 0,1.767578 a 0.75,0.75 0 0 0 0,1.060547 0.75,0.75 0 0 0 1.060547,0 c 1.067644,-1.067644 1.067644,-2.821028 0,-3.888672 -0.53384,-0.53384 -1.239952,-0.800782 -1.9453125,-0.800781 z"
     id="path8" />
  <path
     style="color:#000000;fill:currentColor;stroke-linecap:round;stroke-linejoin:round;-inkscape-stroke:none"
     d="m 8.5,1.75 a 0.75,0.75 0 0 0 -0.53125,0.21875 0.75,0.75 0 0 0 0,1.0625 l 3.5,3.5 a 0.750075,0.750075 0 0 0 1.0625,0 l 3.5,-3.5 a 0.75,0.75 0 0 0 0,-1.0625 0.75,0.75 0 0 0 -1.0625,0 L 12,4.9375 9.03125,1.96875 A 0.75,0.75 0 0 0 8.5,1.75 Z"
     id="path10" />
</svg>
