<?xml version="1.0" encoding="UTF-8" standalone="no"?>
<svg
   width="24"
   height="24"
   stroke-width="1.5"
   viewBox="0 0 24 24"
   fill="none"
   version="1.1"
   id="svg10"
   sodipodi:docname="tv-warning.svg"
   inkscape:version="1.2.1 (9c6d41e410, 2022-07-14)"
   xmlns:inkscape="http://www.inkscape.org/namespaces/inkscape"
   xmlns:sodipodi="http://sodipodi.sourceforge.net/DTD/sodipodi-0.dtd"
   xmlns="http://www.w3.org/2000/svg"
   xmlns:svg="http://www.w3.org/2000/svg">
  <defs
     id="defs14" />
  <sodipodi:namedview
     id="namedview12"
     pagecolor="#ffffff"
     bordercolor="#666666"
     borderopacity="1.0"
     inkscape:showpageshadow="2"
     inkscape:pageopacity="0.0"
     inkscape:pagecheckerboard="0"
     inkscape:deskcolor="#d1d1d1"
     showgrid="false"
     inkscape:zoom="34.541667"
     inkscape:cx="10.364294"
     inkscape:cy="12.014475"
     inkscape:window-width="1920"
     inkscape:window-height="1009"
     inkscape:window-x="1912"
     inkscape:window-y="-8"
     inkscape:window-maximized="1"
     inkscape:current-layer="svg10" />
  <path
     style="color:#000000;fill:currentColor;stroke-linecap:round;stroke-linejoin:round;-inkscape-stroke:none"
     d="M 12,10.25 A 0.75,0.75 0 0 0 11.25,11 v 3 A 0.75,0.75 0 0 0 12,14.75 0.75,0.75 0 0 0 12.75,14 V 11 A 0.75,0.75 0 0 0 12,10.25 Z"
     id="path2" />
  <path
     style="color:#000000;fill:currentColor;stroke-linecap:round;stroke-linejoin:round;-inkscape-stroke:none"
     d="m 11.970703,17.25 a 0.75,0.75 0 0 0 -0.517578,0.246094 l -0.0098,0.01172 a 0.75,0.75 0 0 0 0.05469,1.058594 0.75,0.75 0 0 0 1.058594,-0.05469 L 12.566406,18.5 A 0.75,0.75 0 0 0 12.511719,17.441406 0.75,0.75 0 0 0 11.970703,17.25 Z"
     id="path4" />
  <path
     style="color:#000000;fill:currentColor;-inkscape-stroke:none"
     d="M 4,6.25 C 2.4901018,6.25 1.25,7.4901018 1.25,9 v 11 c 0,1.509917 1.2401154,2.75 2.75,2.75 h 16 c 1.509904,0 2.75,-1.240096 2.75,-2.75 V 9 C 22.75,7.4901154 21.509917,6.25 20,6.25 Z m 0,1.5 h 16 c 0.699281,0 1.25,0.5507468 1.25,1.25 v 11 c 0,0.699294 -0.550706,1.25 -1.25,1.25 H 4 C 3.3007468,21.25 2.75,20.699281 2.75,20 V 9 C 2.75,8.3007604 3.3007604,7.75 4,7.75 Z"
     id="path6" />
  <path
     style="color:#000000;fill:currentColor;stroke-linecap:round;stroke-linejoin:round;-inkscape-stroke:none"
     d="m 8.5,1.75 a 0.75,0.75 0 0 0 -0.53125,0.21875 0.75,0.75 0 0 0 0,1.0625 l 3.5,3.5 a 0.750075,0.750075 0 0 0 1.0625,0 l 3.5,-3.5 a 0.75,0.75 0 0 0 0,-1.0625 0.75,0.75 0 0 0 -1.0625,0 L 12,4.9375 9.03125,1.96875 A 0.75,0.75 0 0 0 8.5,1.75 Z"
     id="path8" />
</svg>
