<?xml version="1.0" encoding="UTF-8" standalone="no"?>
<svg
   width="24"
   height="24"
   stroke-width="1.5"
   viewBox="0 0 24 24"
   fill="none"
   version="1.1"
   id="svg4"
   sodipodi:docname="twitter.svg"
   inkscape:version="1.2.1 (9c6d41e410, 2022-07-14)"
   xmlns:inkscape="http://www.inkscape.org/namespaces/inkscape"
   xmlns:sodipodi="http://sodipodi.sourceforge.net/DTD/sodipodi-0.dtd"
   xmlns="http://www.w3.org/2000/svg"
   xmlns:svg="http://www.w3.org/2000/svg">
  <defs
     id="defs8" />
  <sodipodi:namedview
     id="namedview6"
     pagecolor="#ffffff"
     bordercolor="#666666"
     borderopacity="1.0"
     inkscape:showpageshadow="2"
     inkscape:pageopacity="0.0"
     inkscape:pagecheckerboard="0"
     inkscape:deskcolor="#d1d1d1"
     showgrid="false"
     inkscape:zoom="34.541667"
     inkscape:cx="10.364294"
     inkscape:cy="12.014475"
     inkscape:window-width="1920"
     inkscape:window-height="1009"
     inkscape:window-x="1912"
     inkscape:window-y="-8"
     inkscape:window-maximized="1"
     inkscape:current-layer="svg4" />
  <path
     style="color:#000000;fill:currentColor;stroke-linecap:round;stroke-linejoin:round;-inkscape-stroke:none"
     d="m 23.216797,2.2929688 a 0.750075,0.750075 0 0 0 -0.597656,0.072266 c 0,0 -1.770655,0.9784735 -2.746094,1.3457031 C 19.243526,3.1490695 18.57483,2.612638 17.75,2.40625 16.710744,2.1462202 15.616099,2.2117313 14.615234,2.59375 13.614387,2.9757622 12.754021,3.6565511 12.152344,4.5429687 11.55058,5.4293531 11.235642,6.4795834 11.25,7.5507812 V 7.7207031 C 9.8691934,7.6536573 8.5072642,7.360308 7.2675781,6.7363281 5.8077622,6.0015534 4.5525351,4.9155614 3.6132813,3.578125 A 0.750075,0.750075 0 0 0 2.3144531,3.7050781 c 0,0 -1.0735344,2.3900437 -0.9394531,5.3398438 0.1198722,2.6371981 1.4374151,5.7357641 5.0644531,7.8769531 -1.676191,0.872357 -3.5074475,1.41355 -5.4101562,1.337891 a 0.750075,0.750075 0 0 0 -0.39257815,1.40625 C 5.3428832,22.280551 10.615356,22.297603 14.726563,20.109375 18.837769,17.921147 21.75,13.498909 21.75,7.5097656 a 0.750075,0.750075 0 0 0 0,-0.00195 c -7.16e-4,-0.2215198 -0.03582,-0.4407502 -0.06445,-0.6601563 0.51734,-0.6161923 0.984872,-1.3504488 1.330078,-2.046875 0.407108,-0.8213077 0.681641,-1.5136718 0.681641,-1.5136718 A 0.750075,0.750075 0 0 0 23.216797,2.2929688 Z m -5.832031,1.5683593 c 0.741333,0.1854958 1.408616,0.5952331 1.910156,1.171875 a 0.750075,0.750075 0 0 0 0.78125,0.2246094 C 20.59603,5.1012712 20.794781,4.9177468 21.347656,4.640625 21.021881,5.2272349 20.667339,5.8755167 20.392578,6.1464844 A 0.750075,0.750075 0 0 0 20.183594,6.8203125 C 20.227182,7.0483287 20.24925,7.279663 20.25,7.5117187 20.249347,13.021484 17.661764,16.848623 14.023438,18.785156 11.095007,20.343841 7.4685576,20.585781 3.9238281,19.40625 5.5169248,19.080633 7.0604737,18.554933 8.421875,17.630859 A 0.750075,0.750075 0 0 0 8.3046875,16.324219 C 4.0331455,14.425756 2.9909184,11.526777 2.875,8.9765625 2.8074882,7.4912977 3.0596924,6.3199691 3.3105469,5.4628906 4.2551491,6.5109128 5.3263686,7.4382559 6.59375,8.0761719 c 1.6807107,0.8459639 3.544776,1.261655 5.425781,1.2128906 A 0.750075,0.750075 0 0 0 12.75,8.5410156 v -1 a 0.750075,0.750075 0 0 0 0,-0.011719 C 12.739758,6.7651566 12.963343,6.0170197 13.392578,5.3847656 13.8217,4.7525648 14.436439,4.2686009 15.150391,3.9960938 15.864325,3.7235931 16.643423,3.6758384 17.384766,3.8613281 Z"
     id="path2" />
</svg>
