<?xml version="1.0" encoding="UTF-8" standalone="no"?>
<svg
   width="24"
   height="24"
   viewBox="0 0 24 24"
   stroke-width="1.5"
   fill="none"
   version="1.1"
   id="svg12"
   sodipodi:docname="two-seater-sofa.svg"
   inkscape:version="1.2.1 (9c6d41e410, 2022-07-14)"
   xmlns:inkscape="http://www.inkscape.org/namespaces/inkscape"
   xmlns:sodipodi="http://sodipodi.sourceforge.net/DTD/sodipodi-0.dtd"
   xmlns="http://www.w3.org/2000/svg"
   xmlns:svg="http://www.w3.org/2000/svg">
  <defs
     id="defs16" />
  <sodipodi:namedview
     id="namedview14"
     pagecolor="#ffffff"
     bordercolor="#666666"
     borderopacity="1.0"
     inkscape:showpageshadow="2"
     inkscape:pageopacity="0.0"
     inkscape:pagecheckerboard="0"
     inkscape:deskcolor="#d1d1d1"
     showgrid="false"
     inkscape:zoom="34.541667"
     inkscape:cx="10.364294"
     inkscape:cy="12.014475"
     inkscape:window-width="1920"
     inkscape:window-height="1009"
     inkscape:window-x="1912"
     inkscape:window-y="-8"
     inkscape:window-maximized="1"
     inkscape:current-layer="svg12" />
  <path
     style="color:#000000;fill:currentColor;stroke-linecap:round;stroke-linejoin:round;-inkscape-stroke:none"
     d="M 2,15.25 A 0.75,0.75 0 0 0 1.25,16 v 3 A 0.75,0.75 0 0 0 2,19.75 0.75,0.75 0 0 0 2.75,19 V 16 A 0.75,0.75 0 0 0 2,15.25 Z"
     id="path2" />
  <path
     style="color:#000000;fill:currentColor;stroke-linecap:round;stroke-linejoin:round;-inkscape-stroke:none"
     d="m 14,4.25 c -1.509917,0 -2.75,1.2401154 -2.75,2.75 v 6 A 0.75,0.75 0 0 0 12,13.75 0.75,0.75 0 0 0 12.75,13 V 7 c 0,-0.6992532 0.550719,-1.25 1.25,-1.25 h 4 c 0.699281,0 1.25,0.5507468 1.25,1.25 V 9 A 0.75,0.75 0 0 0 20,9.75 0.75,0.75 0 0 0 20.75,9 V 7 C 20.75,5.4901154 19.509917,4.25 18,4.25 Z"
     id="path4" />
  <path
     style="color:#000000;fill:currentColor;stroke-linecap:round;stroke-linejoin:round;-inkscape-stroke:none"
     d="M 6,4.25 C 4.4901018,4.25 3.25,5.4901018 3.25,7 V 9 A 0.75,0.75 0 0 0 4,9.75 0.75,0.75 0 0 0 4.75,9 V 7 C 4.75,6.3007604 5.3007604,5.75 6,5.75 h 4 c 0.699281,0 1.25,0.5507468 1.25,1.25 v 6 A 0.75,0.75 0 0 0 12,13.75 0.75,0.75 0 0 0 12.75,13 V 7 C 12.75,5.4901154 11.509917,4.25 10,4.25 Z"
     id="path6" />
  <path
     style="color:#000000;fill:currentColor;stroke-linecap:round;stroke-linejoin:round;-inkscape-stroke:none"
     d="M 4,8.25 C 2.4901018,8.25 1.25,9.4901018 1.25,11 v 6 A 0.750075,0.750075 0 0 0 2,17.75 H 22 A 0.750075,0.750075 0 0 0 22.75,17 V 11 C 22.75,9.4901154 21.509917,8.25 20,8.25 18.490083,8.25 17.25,9.4901154 17.25,11 v 1.25 H 6.75 V 11 C 6.75,9.4901018 5.5098982,8.25 4,8.25 Z m 0,1.5 c 0.6992396,0 1.25,0.55076 1.25,1.25 v 2 A 0.750075,0.750075 0 0 0 6,13.75 H 18 A 0.750075,0.750075 0 0 0 18.75,13 v -2 c 0,-0.699253 0.550719,-1.25 1.25,-1.25 0.699281,0 1.25,0.550747 1.25,1.25 v 5.25 H 2.75 V 11 C 2.75,10.30076 3.3007604,9.75 4,9.75 Z"
     id="path8" />
  <path
     style="color:#000000;fill:currentColor;stroke-linecap:round;stroke-linejoin:round;-inkscape-stroke:none"
     d="M 22,15.25 A 0.75,0.75 0 0 0 21.25,16 v 3 A 0.75,0.75 0 0 0 22,19.75 0.75,0.75 0 0 0 22.75,19 V 16 A 0.75,0.75 0 0 0 22,15.25 Z"
     id="path10" />
</svg>
