<?xml version="1.0" encoding="UTF-8" standalone="no"?>
<svg
   width="24"
   height="24"
   stroke-width="1.5"
   viewBox="0 0 24 24"
   fill="none"
   version="1.1"
   id="svg6"
   sodipodi:docname="type.svg"
   inkscape:version="1.2.1 (9c6d41e410, 2022-07-14)"
   xmlns:inkscape="http://www.inkscape.org/namespaces/inkscape"
   xmlns:sodipodi="http://sodipodi.sourceforge.net/DTD/sodipodi-0.dtd"
   xmlns="http://www.w3.org/2000/svg"
   xmlns:svg="http://www.w3.org/2000/svg">
  <defs
     id="defs10" />
  <sodipodi:namedview
     id="namedview8"
     pagecolor="#ffffff"
     bordercolor="#666666"
     borderopacity="1.0"
     inkscape:showpageshadow="2"
     inkscape:pageopacity="0.0"
     inkscape:pagecheckerboard="0"
     inkscape:deskcolor="#d1d1d1"
     showgrid="false"
     inkscape:zoom="34.541667"
     inkscape:cx="10.364294"
     inkscape:cy="12.014475"
     inkscape:window-width="1920"
     inkscape:window-height="1009"
     inkscape:window-x="1912"
     inkscape:window-y="-8"
     inkscape:window-maximized="1"
     inkscape:current-layer="svg6" />
  <path
     style="color:#000000;fill:currentColor;-inkscape-stroke:none"
     d="M 5,1.25 C 3.4901018,1.25 2.25,2.4901018 2.25,4 v 7.751953 c 0,0.357748 0.1414935,0.702108 0.3945313,0.955078 L 6.25,16.310547 V 20 c 0,1.509917 1.2401154,2.75 2.75,2.75 h 6 c 1.509904,0 2.75,-1.240096 2.75,-2.75 v -3.689453 l 3.605469,-3.605469 C 21.608447,12.4521 21.75,12.10967 21.75,11.751953 V 4 C 21.75,2.4901154 20.509917,1.25 19,1.25 h -7 z m 0,1.5 h 7 7 c 0.699281,0 1.25,0.5507468 1.25,1.25 v 7.689453 l -3.605469,3.605469 C 16.391553,15.5479 16.25,15.89033 16.25,16.248047 V 20 c 0,0.699294 -0.550706,1.25 -1.25,1.25 H 9 C 8.3007468,21.25 7.75,20.699281 7.75,20 v -3.751953 c 0,-0.357123 -0.1423213,-0.70028 -0.3945313,-0.953125 v -0.002 L 3.75,11.689453 V 4 C 3.75,3.3007604 4.3007604,2.75 5,2.75 Z"
     id="path2" />
  <path
     style="color:#000000;fill:currentColor;stroke-linecap:round;stroke-linejoin:round;-inkscape-stroke:none"
     d="m 12,5.25 a 0.750075,0.750075 0 0 0 -0.683594,0.4394531 l -1.9999997,4.4003909 -0.5,1.099609 a 0.75,0.75 0 0 0 0.3730468,0.994141 0.75,0.75 0 0 0 0.9941409,-0.373047 l 0.300781,-0.660156 h 3.03125 l 0.300781,0.660156 a 0.75,0.75 0 0 0 0.994141,0.373047 0.75,0.75 0 0 0 0.373047,-0.994141 l -0.490235,-1.076172 -0.0098,-0.02344 -2,-4.4003909 A 0.750075,0.750075 0 0 0 12,5.25 Z m 0,2.5644531 0.833984,1.8359375 h -1.667968 z"
     id="path4" />
</svg>
