<?xml version="1.0" encoding="UTF-8" standalone="no"?>
<svg
   width="24"
   height="24"
   stroke-width="1.5"
   viewBox="0 0 24 24"
   fill="none"
   version="1.1"
   id="svg6"
   sodipodi:docname="umbrella.svg"
   inkscape:version="1.2.1 (9c6d41e410, 2022-07-14)"
   xmlns:inkscape="http://www.inkscape.org/namespaces/inkscape"
   xmlns:sodipodi="http://sodipodi.sourceforge.net/DTD/sodipodi-0.dtd"
   xmlns="http://www.w3.org/2000/svg"
   xmlns:svg="http://www.w3.org/2000/svg">
  <defs
     id="defs10" />
  <sodipodi:namedview
     id="namedview8"
     pagecolor="#ffffff"
     bordercolor="#666666"
     borderopacity="1.0"
     inkscape:showpageshadow="2"
     inkscape:pageopacity="0.0"
     inkscape:pagecheckerboard="0"
     inkscape:deskcolor="#d1d1d1"
     showgrid="false"
     inkscape:zoom="34.541667"
     inkscape:cx="10.364294"
     inkscape:cy="12.014475"
     inkscape:window-width="1920"
     inkscape:window-height="1009"
     inkscape:window-x="1912"
     inkscape:window-y="-8"
     inkscape:window-maximized="1"
     inkscape:current-layer="svg6" />
  <path
     style="color:#000000;fill:currentColor;-inkscape-stroke:none"
     d="M 12,0.25 C 8.8778657,0.25 5.9259864,1.4020846 3.7070313,3.4980469 1.488295,5.5943157 0.25,8.4089698 0.25,11.390625 0.25,12.155901 0.90565467,12.75 1.6445312,12.75 c 0.7388637,0 1.3945313,-0.594099 1.3945313,-1.359375 0,-0.582009 0.5056252,-1.085938 1.1933594,-1.085937 0.3115749,0 0.3753077,0.05611 0.4707031,0.154296 0.095395,0.09819 0.2021428,0.304933 0.3125,0.589844 0.1103572,0.284911 0.2138515,0.635711 0.4667969,0.998047 C 5.7353673,12.409211 6.2547628,12.75 6.8222656,12.75 c 0.5675019,0 1.0868944,-0.340793 1.3398438,-0.703125 0.2529493,-0.362332 0.354482,-0.713133 0.4648437,-0.998047 0.1103618,-0.284914 0.219057,-0.491656 0.3144532,-0.589844 0.095396,-0.09819 0.1571985,-0.154297 0.46875,-0.154296 0.6231227,0 1.0464657,0.389882 1.3828127,0.890625 0.336346,0.500742 0.486328,1.009765 0.486328,1.009765 L 12,14.738281 12.720703,12.205078 c 0,0 0.149983,-0.509023 0.486328,-1.009765 0.336346,-0.500743 0.759696,-0.890626 1.382813,-0.890625 0.311558,0 0.401776,0.06241 0.515625,0.171875 0.113848,0.109462 0.232536,0.317891 0.351562,0.595703 0.119026,0.277811 0.225679,0.610849 0.453125,0.957031 0.227447,0.346182 0.713194,0.720703 1.267578,0.720703 0.554388,0 1.040119,-0.374512 1.267578,-0.720703 0.22746,-0.346191 0.334104,-0.679217 0.453125,-0.957031 0.119022,-0.277815 0.239677,-0.486246 0.353516,-0.595703 0.113839,-0.109458 0.204067,-0.171875 0.515625,-0.171875 0.687802,0 1.19336,0.503918 1.193359,1.085937 0,0.765232 0.655667,1.359375 1.394532,1.359375 C 23.094341,12.75 23.75,12.155857 23.75,11.390625 23.75,8.4089932 22.512072,5.594329 20.292969,3.4980469 18.074212,1.4018697 15.122109,0.25 12,0.25 Z m 0,1.5 c 2.754285,0 5.327633,1.0088118 7.263672,2.8378906 1.692753,1.5990641 2.564099,3.6730458 2.792969,5.8769534 -0.41865,-0.9256664 -1.200266,-1.6601565 -2.289063,-1.6601565 -0.634641,0 -1.193571,0.2427027 -1.556641,0.5917969 -0.363069,0.3490942 -0.54849,0.7523506 -0.691406,1.0859376 -0.142915,0.333587 -0.2543,0.610295 -0.328125,0.722656 -0.07382,0.112361 0.02689,0.04492 -0.01367,0.04492 -0.04051,0 0.06016,0.06745 -0.01367,-0.04492 -0.07383,-0.112369 -0.185201,-0.389065 -0.328125,-0.722656 C 16.693014,10.148831 16.507607,9.7455732 16.144531,9.3964844 15.781455,9.0473955 15.224485,8.8046875 14.589844,8.8046875 13.343938,8.8046875 12.490081,9.6078686 12,10.320313 11.509917,9.6078684 10.656065,8.8046875 9.4101563,8.8046875 c -0.6346377,0 -1.1948016,0.2490108 -1.5449219,0.609375 -0.3501203,0.3603642 -0.5102533,0.7653085 -0.6367188,1.0917965 -0.1264655,0.326488 -0.2297028,0.587375 -0.296875,0.683594 -0.067172,0.09622 0.018522,0.06055 -0.109375,0.06055 -0.1279015,0 -0.042207,0.03567 -0.109375,-0.06055 C 6.6457226,11.093237 6.5424782,10.83235 6.4160156,10.505859 6.2895531,10.179369 6.1294248,9.7744289 5.7792969,9.4140625 5.429169,9.0536961 4.867071,8.8046875 4.2324219,8.8046875 c -1.0887731,0 -1.8704134,0.7344888 -2.2890625,1.6601565 C 2.1722515,8.2609421 3.0438318,6.1869663 4.7363281,4.5878906 6.6726489,2.7588968 9.2457402,1.75 12,1.75 Z"
     id="path2" />
  <path
     style="color:#000000;fill:currentColor;stroke-linecap:round;stroke-linejoin:round;-inkscape-stroke:none"
     d="M 12,11.25 A 0.75,0.75 0 0 0 11.25,12 v 8 c 0,0.812499 -0.277684,1.326908 -0.685547,1.689453 C 10.15659,22.051998 9.5833328,22.25 9,22.25 8.4166673,22.25 7.8434101,22.051998 7.4355469,21.689453 7.0276837,21.326908 6.75,20.812499 6.75,20 A 0.75,0.75 0 0 0 6,19.25 0.75,0.75 0 0 0 5.25,20 c 0,1.187499 0.4723174,2.173093 1.1894531,2.810547 C 7.1565888,23.448001 8.0833343,23.75 9,23.75 c 0.9166658,0 1.843411,-0.301999 2.560547,-0.939453 C 12.277683,22.173093 12.75,21.187499 12.75,20 V 12 A 0.75,0.75 0 0 0 12,11.25 Z"
     id="path4" />
</svg>
