<?xml version="1.0" encoding="UTF-8" standalone="no"?>
<svg
   width="24"
   height="24"
   stroke-width="1.5"
   viewBox="0 0 24 24"
   fill="none"
   version="1.1"
   id="svg6"
   sodipodi:docname="underline.svg"
   inkscape:version="1.2.1 (9c6d41e410, 2022-07-14)"
   xmlns:inkscape="http://www.inkscape.org/namespaces/inkscape"
   xmlns:sodipodi="http://sodipodi.sourceforge.net/DTD/sodipodi-0.dtd"
   xmlns="http://www.w3.org/2000/svg"
   xmlns:svg="http://www.w3.org/2000/svg">
  <defs
     id="defs10" />
  <sodipodi:namedview
     id="namedview8"
     pagecolor="#ffffff"
     bordercolor="#666666"
     borderopacity="1.0"
     inkscape:showpageshadow="2"
     inkscape:pageopacity="0.0"
     inkscape:pagecheckerboard="0"
     inkscape:deskcolor="#d1d1d1"
     showgrid="false"
     inkscape:zoom="34.541667"
     inkscape:cx="10.364294"
     inkscape:cy="12.014475"
     inkscape:window-width="1920"
     inkscape:window-height="1009"
     inkscape:window-x="1912"
     inkscape:window-y="-8"
     inkscape:window-maximized="1"
     inkscape:current-layer="svg6" />
  <path
     style="color:#000000;fill:currentColor;stroke-linecap:round;stroke-linejoin:round;-inkscape-stroke:none"
     d="M 8,4.25 A 0.75,0.75 0 0 0 7.25,5 v 6 c 0,2.614434 2.1355239,4.75 4.75,4.75 2.614443,0 4.75,-2.135557 4.75,-4.75 V 5 A 0.75,0.75 0 0 0 16,4.25 0.75,0.75 0 0 0 15.25,5 v 6 c 0,1.803752 -1.446248,3.25 -3.25,3.25 -1.803799,0 -3.25,-1.446239 -3.25,-3.25 V 5 A 0.75,0.75 0 0 0 8,4.25 Z"
     id="path2" />
  <path
     style="color:#000000;fill:currentColor;stroke-linecap:round;stroke-linejoin:round;-inkscape-stroke:none"
     d="M 6,18.25 A 0.75,0.75 0 0 0 5.25,19 0.75,0.75 0 0 0 6,19.75 H 18 A 0.75,0.75 0 0 0 18.75,19 0.75,0.75 0 0 0 18,18.25 Z"
     id="path4" />
</svg>
