<?xml version="1.0" encoding="UTF-8" standalone="no"?>
<svg
   width="24"
   height="24"
   viewBox="0 0 24 24"
   stroke-width="1.5"
   fill="none"
   version="1.1"
   id="svg6"
   sodipodi:docname="undo.svg"
   inkscape:version="1.2.1 (9c6d41e410, 2022-07-14)"
   xmlns:inkscape="http://www.inkscape.org/namespaces/inkscape"
   xmlns:sodipodi="http://sodipodi.sourceforge.net/DTD/sodipodi-0.dtd"
   xmlns="http://www.w3.org/2000/svg"
   xmlns:svg="http://www.w3.org/2000/svg">
  <defs
     id="defs10" />
  <sodipodi:namedview
     id="namedview8"
     pagecolor="#ffffff"
     bordercolor="#666666"
     borderopacity="1.0"
     inkscape:showpageshadow="2"
     inkscape:pageopacity="0.0"
     inkscape:pagecheckerboard="0"
     inkscape:deskcolor="#d1d1d1"
     showgrid="false"
     inkscape:zoom="34.541667"
     inkscape:cx="10.364294"
     inkscape:cy="12.014475"
     inkscape:window-width="1920"
     inkscape:window-height="1009"
     inkscape:window-x="1912"
     inkscape:window-y="-8"
     inkscape:window-maximized="1"
     inkscape:current-layer="svg6" />
  <path
     style="color:#000000;fill:currentColor;stroke-linecap:round;stroke-linejoin:round;-inkscape-stroke:none"
     d="M 4.5,7.25 A 0.75,0.75 0 0 0 3.75,8 0.75,0.75 0 0 0 4.5,8.75 H 15 c 0,0 1.103988,0.011365 2.179687,0.5175781 1.0757,0.5062133 2.070313,1.3501759 2.070313,3.4374999 0,2.410936 -1.034292,3.40568 -2.101563,3.970703 C 16.081167,17.240805 15,17.25 15,17.25 H 6.2851562 a 0.75,0.75 0 0 0 -0.75,0.75 0.75,0.75 0 0 0 0.75,0.75 H 15 c 0,0 1.418835,0.01045 2.851562,-0.748047 C 19.28429,17.243453 20.75,15.588237 20.75,12.705078 20.75,10.086507 19.244611,8.5804168 17.820312,7.9101562 16.396014,7.2398957 15,7.25 15,7.25 Z"
     id="path2" />
  <path
     style="color:#000000;fill:currentColor;stroke-linecap:round;stroke-linejoin:round;-inkscape-stroke:none"
     d="M 7.5,3.75 A 0.75,0.75 0 0 0 6.96875,3.96875 l -3.5,3.5 a 0.750075,0.750075 0 0 0 0,1.0625 c 1.3668248,1.3668248 2.1331653,2.133195 3.5,3.5 a 0.75,0.75 0 0 0 1.0625,0 0.75,0.75 0 0 0 0,-1.0625 C 6.8718916,9.809417 6.0907123,9.0282182 5.0625,8 L 8.03125,5.03125 a 0.75,0.75 0 0 0 0,-1.0625 A 0.75,0.75 0 0 0 7.5,3.75 Z"
     id="path4" />
</svg>
