<?xml version="1.0" encoding="UTF-8" standalone="no"?>
<svg
   width="24"
   height="24"
   stroke-width="1.5"
   viewBox="0 0 24 24"
   fill="none"
   version="1.1"
   id="svg6"
   sodipodi:docname="unity-5.svg"
   inkscape:version="1.2.1 (9c6d41e410, 2022-07-14)"
   xmlns:inkscape="http://www.inkscape.org/namespaces/inkscape"
   xmlns:sodipodi="http://sodipodi.sourceforge.net/DTD/sodipodi-0.dtd"
   xmlns="http://www.w3.org/2000/svg"
   xmlns:svg="http://www.w3.org/2000/svg">
  <defs
     id="defs10" />
  <sodipodi:namedview
     id="namedview8"
     pagecolor="#ffffff"
     bordercolor="#666666"
     borderopacity="1.0"
     inkscape:showpageshadow="2"
     inkscape:pageopacity="0.0"
     inkscape:pagecheckerboard="0"
     inkscape:deskcolor="#d1d1d1"
     showgrid="false"
     inkscape:zoom="34.541667"
     inkscape:cx="10.364294"
     inkscape:cy="12.014475"
     inkscape:window-width="1920"
     inkscape:window-height="1009"
     inkscape:window-x="1912"
     inkscape:window-y="-8"
     inkscape:window-maximized="1"
     inkscape:current-layer="svg6" />
  <path
     style="color:#000000;fill:currentColor;stroke-linecap:round;stroke-linejoin:round;-inkscape-stroke:none"
     d="m 6.2207031,2.25 c -0.5796048,0 -1.0995471,0.3773422 -1.28125,0.9277344 L 1.4316406,13.796875 c -0.190708,0.577781 0.03535,1.220089 0.5449219,1.552734 l 9.2851565,6.064453 c 0.446835,0.291912 1.029727,0.291912 1.476562,0 l 9.283203,-6.062499 c 0.511481,-0.334129 0.735603,-0.98126 0.541016,-1.560547 L 18.996094,3.1699219 C 18.812421,2.6226218 18.293899,2.25 17.716797,2.25 Z m 0.109375,1.5 H 17.607422 L 21.103516,14.160156 12,20.105469 2.8945313,14.15625 Z"
     id="path2" />
  <path
     style="color:#000000;fill:currentColor;stroke-linecap:round;stroke-linejoin:round;-inkscape-stroke:none"
     d="M 10,5.25 A 0.750075,0.750075 0 0 0 9.2539063,5.9257812 l -0.5,4.9999998 A 0.750075,0.750075 0 0 0 10.148438,11.375 c 0.388887,-0.672287 1.112307,-1.125 1.951171,-1.125 1.25147,0 2.25,0.998437 2.25,2.25 0,0.623986 -0.252156,1.180079 -0.658203,1.587891 C 13.283235,14.497115 12.726348,14.75 12.099609,14.75 c -0.838864,0 -1.562284,-0.452713 -1.951171,-1.125 A 0.75,0.75 0 0 0 9.125,13.351563 0.75,0.75 0 0 0 8.8515625,14.375 c 0.6485115,1.121111 1.8659135,1.875 3.2480465,1.875 1.03286,0 1.97627,-0.421787 2.654297,-1.101562 0.675598,-0.67747 1.095703,-1.619081 1.095703,-2.648438 0,-2.062233 -1.687872,-3.75 -3.75,-3.75 -0.60578,0 -1.157585,0.1961513 -1.666015,0.453125 L 10.679688,6.75 H 14.5 A 0.75,0.75 0 0 0 15.25,6 0.75,0.75 0 0 0 14.5,5.25 Z"
     id="path4" />
</svg>
