<?xml version="1.0" encoding="UTF-8" standalone="no"?>
<svg
   width="24"
   height="24"
   stroke-width="1.5"
   viewBox="0 0 24 24"
   fill="none"
   version="1.1"
   id="svg11"
   sodipodi:docname="unity.svg"
   inkscape:version="1.2.1 (9c6d41e410, 2022-07-14)"
   xmlns:inkscape="http://www.inkscape.org/namespaces/inkscape"
   xmlns:sodipodi="http://sodipodi.sourceforge.net/DTD/sodipodi-0.dtd"
   xmlns="http://www.w3.org/2000/svg"
   xmlns:svg="http://www.w3.org/2000/svg">
  <sodipodi:namedview
     id="namedview13"
     pagecolor="#ffffff"
     bordercolor="#666666"
     borderopacity="1.0"
     inkscape:showpageshadow="2"
     inkscape:pageopacity="0.0"
     inkscape:pagecheckerboard="0"
     inkscape:deskcolor="#d1d1d1"
     showgrid="false"
     inkscape:zoom="34.541667"
     inkscape:cx="10.364294"
     inkscape:cy="12.014475"
     inkscape:window-width="1920"
     inkscape:window-height="1009"
     inkscape:window-x="1912"
     inkscape:window-y="-8"
     inkscape:window-maximized="1"
     inkscape:current-layer="svg11" />
  <path
     style="color:#000000;fill:currentColor;stroke-linecap:round;stroke-linejoin:round;-inkscape-stroke:none"
     d="m 18.376953,3.2597656 -6,1 a 0.75,0.75 0 0 0 -0.617187,0.8632813 0.75,0.75 0 0 0 0.863281,0.6171875 L 17.087891,4.9960937 13.058594,12.25 H 5.6699219 l 2.890625,-3.2519531 a 0.75,0.75 0 0 0 -0.0625,-1.0585938 0.75,0.75 0 0 0 -1.0585938,0.0625 L 3.46875,12.46875 l -0.029297,0.0332 a 0.75,0.75 0 0 0 -0.078125,0.226563 0.75,0.75 0 0 0 -0.00391,0.0078 0.75,0.75 0 0 0 -0.097656,0.240235 A 0.75,0.75 0 0 0 3.25,13 a 0.75,0.75 0 0 0 0.00977,0.02344 0.75,0.75 0 0 0 0.097656,0.240234 0.75,0.75 0 0 0 0.00391,0.0078 0.75,0.75 0 0 0 0.078125,0.226563 l 0.029297,0.0332 3.9707031,4.466797 a 0.75,0.75 0 0 0 1.0585938,0.0625 0.75,0.75 0 0 0 0.0625,-1.058594 L 5.6699219,13.75 H 13.115234 L 16.949219,19.117187 12.5625,18.751953 A 0.75,0.75 0 0 0 11.751953,19.4375 0.75,0.75 0 0 0 12.4375,20.248047 l 6,0.5 a 0.75,0.75 0 0 0 0.03516,-0.03125 0.75,0.75 0 0 0 0.154297,-0.03516 0.75,0.75 0 0 0 0.271484,-0.0625 0.75,0.75 0 0 0 0.03711,-0.0098 0.75,0.75 0 0 0 0.261719,-0.378906 0.75,0.75 0 0 0 0.02539,-0.0332 l 1.5,-5.5 a 0.75,0.75 0 0 0 -0.52539,-0.919922 0.75,0.75 0 0 0 -0.919922,0.52539 l -1.083985,3.978516 -3.808593,-5.330078 3.876953,-6.9785158 1.015625,3.7246094 a 0.75,0.75 0 0 0 0.919922,0.5253904 0.75,0.75 0 0 0 0.52539,-0.9199216 l -1.5,-5.5 a 0.75,0.75 0 0 0 -0.002,-0.00195 0.75,0.75 0 0 0 -0.341797,-0.4453125 0.75,0.75 0 0 0 -0.0098,-0.00586 0.75,0.75 0 0 0 -0.0059,-0.00586 0.75,0.75 0 0 0 -0.01172,0.00391 0.75,0.75 0 0 0 -0.429687,-0.054687 0.75,0.75 0 0 0 -0.04492,-0.033203 z"
     id="path2" />
  <defs
     id="defs9">
    <clipPath
       clipPathUnits="userSpaceOnUse"
       id="clipPath193">
      <g
         id="g197">
        <rect
           width="24"
           height="24"
           stroke-width="1.5"
           fill="#ffffff"
           id="rect195"
           x="0"
           y="0" />
      </g>
    </clipPath>
  </defs>
</svg>
