<?xml version="1.0" encoding="UTF-8" standalone="no"?>
<svg
   width="24"
   height="24"
   viewBox="0 0 24 24"
   stroke-width="1.5"
   fill="none"
   version="1.1"
   id="svg8"
   sodipodi:docname="unjoin-3d.svg"
   inkscape:version="1.2.1 (9c6d41e410, 2022-07-14)"
   xmlns:inkscape="http://www.inkscape.org/namespaces/inkscape"
   xmlns:sodipodi="http://sodipodi.sourceforge.net/DTD/sodipodi-0.dtd"
   xmlns="http://www.w3.org/2000/svg"
   xmlns:svg="http://www.w3.org/2000/svg">
  <defs
     id="defs12" />
  <sodipodi:namedview
     id="namedview10"
     pagecolor="#ffffff"
     bordercolor="#666666"
     borderopacity="1.0"
     inkscape:showpageshadow="2"
     inkscape:pageopacity="0.0"
     inkscape:pagecheckerboard="0"
     inkscape:deskcolor="#d1d1d1"
     showgrid="false"
     inkscape:zoom="34.541667"
     inkscape:cx="10.364294"
     inkscape:cy="12.014475"
     inkscape:window-width="1920"
     inkscape:window-height="1009"
     inkscape:window-x="1912"
     inkscape:window-y="-8"
     inkscape:window-maximized="1"
     inkscape:current-layer="svg8" />
  <path
     style="color:#000000;fill:currentColor;stroke-linecap:round;stroke-linejoin:round;-inkscape-stroke:none"
     d="m 11.835938,6.3300781 a 0.75,0.75 0 0 0 -1.00586,0.3339844 L 8.3300781,11.664063 A 0.750075,0.750075 0 0 0 9,12.75 h 4.787109 l -1.957031,3.914062 a 0.75,0.75 0 0 0 0.333985,1.00586 0.75,0.75 0 0 0 1.005859,-0.333985 l 2.5,-4.999999 A 0.750075,0.750075 0 0 0 15,11.25 H 10.212891 L 12.169922,7.3359375 A 0.75,0.75 0 0 0 11.835938,6.3300781 Z"
     id="path2" />
  <path
     style="color:#000000;fill:currentColor;stroke-linecap:round;stroke-linejoin:round;-inkscape-stroke:none"
     d="m 17,16.25 a 0.75,0.75 0 0 0 -0.53125,0.21875 0.75,0.75 0 0 0 0,1.0625 l 2.560547,2.558594 h -1.726563 a 0.75,0.75 0 0 0 -0.75,0.75 0.75,0.75 0 0 0 0.75,0.75 h 3.535157 a 0.75,0.75 0 0 0 0.53125,-0.220703 0.75,0.75 0 0 0 0.193359,-0.46875 0.75,0.75 0 0 0 0.02539,-0.06055 v -3.53711 a 0.75,0.75 0 0 0 -0.75,-0.75 0.75,0.75 0 0 0 -0.75,0.75 v 1.72461 L 17.53125,16.46875 A 0.75,0.75 0 0 0 17,16.25 Z"
     id="path4" />
  <path
     style="color:#000000;fill:currentColor;stroke-linecap:round;stroke-linejoin:round;-inkscape-stroke:none"
     d="M 2.7675781,2.0175781 A 0.75,0.75 0 0 0 2.2382813,2.2382813 0.75,0.75 0 0 0 2.0175781,2.7675781 v 3.5351563 a 0.75,0.75 0 0 0 0.75,0.75 0.75,0.75 0 0 0 0.75,-0.75 V 4.578125 l 2.5585938,2.5585937 a 0.75,0.75 0 0 0 1.0605468,0 0.75,0.75 0 0 0 0,-1.0605468 L 4.578125,3.5175781 h 1.7246094 a 0.75,0.75 0 0 0 0.75,-0.75 0.75,0.75 0 0 0 -0.75,-0.75 z"
     id="path6" />
</svg>
