<?xml version="1.0" encoding="UTF-8" standalone="no"?>
<svg
   width="24px"
   height="24px"
   viewBox="0 0 24 24"
   stroke-width="1.5"
   fill="none"
   color="#000000"
   version="1.1"
   id="svg5"
   sodipodi:docname="uo-folder-user.svg"
   inkscape:version="1.3.2 (091e20e, 2023-11-25, custom)"
   xmlns:inkscape="http://www.inkscape.org/namespaces/inkscape"
   xmlns:sodipodi="http://sodipodi.sourceforge.net/DTD/sodipodi-0.dtd"
   xmlns="http://www.w3.org/2000/svg"
   xmlns:svg="http://www.w3.org/2000/svg">
  <defs
     id="defs5" />
  <sodipodi:namedview
     id="namedview5"
     pagecolor="#ffffff"
     bordercolor="#666666"
     borderopacity="1.0"
     inkscape:showpageshadow="2"
     inkscape:pageopacity="0.0"
     inkscape:pagecheckerboard="0"
     inkscape:deskcolor="#d1d1d1"
     showgrid="true"
     inkscape:zoom="30.708333"
     inkscape:cx="11.462687"
     inkscape:cy="15.972863"
     inkscape:window-width="1920"
     inkscape:window-height="1009"
     inkscape:window-x="1912"
     inkscape:window-y="-8"
     inkscape:window-maximized="1"
     inkscape:current-layer="svg5">
    <inkscape:grid
       id="grid22"
       units="px"
       originx="0"
       originy="0"
       spacingx="1"
       spacingy="1"
       empcolor="#0099e5"
       empopacity="0.30196078"
       color="#0099e5"
       opacity="0.14901961"
       empspacing="5"
       dotted="false"
       gridanglex="30"
       gridanglez="30"
       visible="true" />
  </sodipodi:namedview>
  <path
     style="color:#000000;fill:#000000;stroke-linecap:round;stroke-linejoin:round;-inkscape-stroke:none"
     d="M 2.5996094,3.25 C 1.8629077,3.25 1.25,3.8629077 1.25,4.5996094 V 10.400391 C 1.25,11.137086 1.862953,11.75 2.5996094,11.75 H 21.400391 C 22.13704,11.75 22.75,11.13704 22.75,10.400391 V 7.5996094 C 22.75,6.862953 22.137086,6.25 21.400391,6.25 H 12.779297 L 9.65625,3.5742188 C 9.4117205,3.3646317 9.0994491,3.25 8.7773438,3.25 Z M 2.75,4.75 H 8.7207031 L 11.84375,7.4257812 C 12.088322,7.6355016 12.400571,7.75 12.722656,7.75 H 21.25 v 2.5 H 2.75 Z"
     id="path1" />
  <path
     style="color:#000000;fill:#000000;stroke-linecap:round;stroke-linejoin:round;-inkscape-stroke:none"
     d="M 22,9.25 A 0.75,0.75 0 0 0 21.25,10 v 4 A 0.75,0.75 0 0 0 22,14.75 0.75,0.75 0 0 0 22.75,14 V 10 A 0.75,0.75 0 0 0 22,9.25 Z"
     id="path2" />
  <path
     style="color:#000000;fill:#000000;stroke-linecap:round;stroke-linejoin:round;-inkscape-stroke:none"
     d="M 2,9.25 A 0.75,0.75 0 0 0 1.25,10 v 9.400391 C 1.25,20.137086 1.862953,20.75 2.5996094,20.75 H 13 A 0.75,0.75 0 0 0 13.75,20 0.75,0.75 0 0 0 13,19.25 H 2.75 V 10 A 0.75,0.75 0 0 0 2,9.25 Z"
     id="path3" />
  <path
     style="color:#000000;fill:#000000;stroke-linecap:round;stroke-linejoin:round;-inkscape-stroke:none"
     d="m 18.720703,18.359374 c -1.907761,0 -3.470703,1.562937 -3.470703,3.470704 v 0.388671 a 0.75,0.75 0 0 0 0.75,0.75 0.75,0.75 0 0 0 0.75,-0.75 v -0.388671 c 0,-1.097107 0.8736,-1.970704 1.970703,-1.970704 1.09711,0 1.970704,0.873595 1.970704,1.970704 v 0.388671 a 0.75,0.75 0 0 0 0.75,0.75 0.75,0.75 0 0 0 0.75,-0.75 v -0.388671 c 0,-1.907765 -1.562938,-3.470704 -3.470704,-3.470704 z"
     id="path2-0" />
  <path
     style="color:#000000;fill:#000000;stroke-linecap:round;stroke-linejoin:round;-inkscape-stroke:none"
     d="m 18.720703,15.25 c -1.263863,0 -2.304687,1.040823 -2.304687,2.304687 0,1.263855 1.040814,2.304687 2.304687,2.304687 1.263866,0 2.304688,-1.040823 2.304688,-2.304687 0,-1.263872 -1.040832,-2.304688 -2.304688,-2.304687 z m 0,1.499999 c 0.453183,0 0.804688,0.351492 0.804688,0.804688 0,0.453172 -0.351514,0.804687 -0.804688,0.804687 -0.453195,0 -0.804687,-0.351506 -0.804687,-0.804687 0,-0.453205 0.351483,-0.804688 0.804687,-0.804688 z"
     id="path3-6" />
</svg>
