<?xml version="1.0" encoding="UTF-8" standalone="no"?>
<svg
   width="24"
   height="24"
   viewBox="0 0 24 24"
   stroke-width="1.5"
   fill="none"
   version="1.1"
   id="svg8"
   sodipodi:docname="uo-user-settings.svg"
   inkscape:version="1.3.2 (091e20e, 2023-11-25, custom)"
   xmlns:inkscape="http://www.inkscape.org/namespaces/inkscape"
   xmlns:sodipodi="http://sodipodi.sourceforge.net/DTD/sodipodi-0.dtd"
   xmlns="http://www.w3.org/2000/svg"
   xmlns:svg="http://www.w3.org/2000/svg">
  <defs
     id="defs12" />
  <sodipodi:namedview
     id="namedview10"
     pagecolor="#ffffff"
     bordercolor="#666666"
     borderopacity="1.0"
     inkscape:showpageshadow="2"
     inkscape:pageopacity="0.0"
     inkscape:pagecheckerboard="0"
     inkscape:deskcolor="#d1d1d1"
     showgrid="true"
     inkscape:zoom="24.424647"
     inkscape:cx="10.767812"
     inkscape:cy="17.052447"
     inkscape:window-width="1920"
     inkscape:window-height="1009"
     inkscape:window-x="1912"
     inkscape:window-y="-8"
     inkscape:window-maximized="1"
     inkscape:current-layer="svg8">
    <inkscape:grid
       id="grid1"
       units="px"
       originx="0"
       originy="0"
       spacingx="1"
       spacingy="1"
       empcolor="#0099e5"
       empopacity="0.30196078"
       color="#0099e5"
       opacity="0.14901961"
       empspacing="5"
       dotted="false"
       gridanglex="30"
       gridanglez="30"
       visible="true" />
  </sodipodi:namedview>
  <path
     style="color:#000000;fill:currentColor;stroke-linecap:round;stroke-linejoin:round;-inkscape-stroke:none"
     d="M 12,3.25 C 9.3855329,3.25 7.25,5.3855329 7.25,8 c 0,2.614434 2.1355239,4.75 4.75,4.75 2.614443,0 4.75,-2.135557 4.75,-4.75 0,-2.6144761 -2.135566,-4.75 -4.75,-4.75 z m 0,1.5 c 1.803761,0 3.25,1.4462005 3.25,3.25 0,1.8037521 -1.446248,3.25 -3.25,3.25 C 10.196201,11.25 8.75,9.8037612 8.75,8 8.75,6.1961915 10.196191,4.75 12,4.75 Z"
     id="path2" />
  <path
     style="color:#000000;fill:currentColor;stroke-linecap:round;stroke-linejoin:round;-inkscape-stroke:none"
     d="m 12,11.25 c -4.2713153,0 -7.75,3.478674 -7.75,7.75 v 1 A 0.75,0.75 0 0 0 5,20.75 0.75,0.75 0 0 0 5.75,20 v -1 c 0,-3.460667 2.789343,-6.25 6.25,-6.25 0.961034,0 1.866267,0.216131 2.677734,0.601563 a 0.75,0.75 0 0 0 1,-0.355469 0.75,0.75 0 0 0 -0.355468,-1 C 14.315135,11.517726 13.186164,11.25 12,11.25 Z"
     id="path4" />
  <path
     style="color:#000000;fill:currentColor;stroke-linecap:round;stroke-linejoin:round;-inkscape-stroke:none"
     d="m 18.027346,15.183606 c -0.497981,0 -0.9704,0.135072 -1.375,0.369141 -0.822193,0.475601 -1.375,1.368913 -1.375,2.380859 0,1.011946 0.552807,1.905258 1.375,2.380858 0.4046,0.234069 0.877019,0.369141 1.375,0.369141 1.509904,0 2.75,-1.240095 2.75,-2.749999 0,-1.509904 -1.240096,-2.75 -2.75,-2.75 z m 0,1.5 c 0.699294,0 1.25,0.550706 1.25,1.25 0,0.699294 -0.550706,1.25 -1.25,1.25 -0.230619,0 -0.441201,-0.05968 -0.625,-0.166016 -0.373406,-0.215998 -0.625,-0.615331 -0.625,-1.083984 0,-0.468653 0.251594,-0.867986 0.625,-1.083984 0.183799,-0.106332 0.394381,-0.166016 0.625,-0.166016 z"
     id="path8" />
  <path
     style="color:#000000;fill:currentColor;stroke-linecap:round;stroke-linejoin:round;stroke-dasharray:0.3, 2;-inkscape-stroke:none"
     d="m 18.007815,14.183606 -0.07422,0.002 a 0.75,0.75 0 0 0 -0.730469,0.769531 0.75,0.75 0 0 0 0.767578,0.730469 l 0.05664,-0.002 0.117187,0.0039 0.05078,0.0039 A 0.75,0.75 0 0 0 19,15 0.75,0.75 0 0 0 18.308594,14.195313 l -0.07031,-0.0059 a 0.750075,0.750075 0 0 0 -0.03711,-0.002 l -0.154297,-0.0038 a 0.750075,0.750075 0 0 0 -0.03906,0 z m -1.839844,0.691406 a 0.75,0.75 0 0 0 -0.544922,0.181641 l -0.103516,0.08984 a 0.750075,0.750075 0 0 0 -0.02734,0.02344 l -0.103516,0.09961 a 0.750075,0.750075 0 0 0 -0.02539,0.02539 l -0.01367,0.01367 a 0.75,0.75 0 0 0 0.02539,1.060547 0.75,0.75 0 0 0 1.060547,-0.02539 v -0.002 l 0.08008,-0.07422 0.08984,-0.07813 a 0.75,0.75 0 0 0 0.07617,-1.058593 0.75,0.75 0 0 0 -0.513672,-0.25586 z m 3.867187,0.09766 a 0.75,0.75 0 0 0 -0.523437,0.232422 0.75,0.75 0 0 0 0.02539,1.058594 l 0.08203,0.07813 0.07422,0.08008 0.0039,0.0039 a 0.75,0.75 0 0 0 1.058594,0.07617 0.75,0.75 0 0 0 0.07617,-1.058593 l -0.01758,-0.01758 a 0.750075,0.750075 0 0 0 -0.02344,-0.02734 l -0.09961,-0.103516 a 0.750075,0.750075 0 0 0 -0.02539,-0.02539 l -0.09375,-0.08984 a 0.75,0.75 0 0 0 -0.53711,-0.207032 z m -4.894531,1.878907 a 0.75,0.75 0 0 0 -0.83789,0.65039 l -0.0039,0.03125 a 0.750075,0.750075 0 0 0 -0.0039,0.03711 l -0.01172,0.152343 a 0.750075,0.750075 0 0 0 -0.002,0.03711 l -0.002,0.117187 a 0.75,0.75 0 0 0 0.730551,0.769528 0.75,0.75 0 0 0 0.767578,-0.732422 l 0.0039,-0.09766 0.0078,-0.113281 0.002,-0.01172 a 0.75,0.75 0 0 0 -0.650391,-0.839843 z m 5.824219,0.146484 a 0.75,0.75 0 0 0 -0.691406,0.804688 v 0.01367 l 0.0039,0.117185 -0.002,0.09375 a 0.75,0.75 0 0 0 0.730469,0.769531 0.75,0.75 0 0 0 0.767578,-0.732422 l 0.004,-0.111328 a 0.750075,0.750075 0 0 0 0,-0.03906 l -0.0039,-0.154297 a 0.750075,0.750075 0 0 0 -0.002,-0.03711 l -0.002,-0.0332 a 0.75,0.75 0 0 0 -0.8046,-0.691411 z m -0.705078,2.128906 a 0.75,0.75 0 0 0 -0.513672,0.257813 l -0.05273,0.06055 -0.07422,0.08008 -0.0293,0.02539 a 0.75,0.75 0 0 0 -0.02539,1.060546 0.75,0.75 0 0 0 1.060547,0.02539 l 0.04102,-0.03906 a 0.750075,0.750075 0 0 0 0.02539,-0.02539 l 0.09961,-0.103516 a 0.750075,0.750075 0 0 0 0.02344,-0.02734 l 0.06641,-0.07422 a 0.75,0.75 0 0 0 -0.07618,-1.058606 0.75,0.75 0 0 0 -0.544922,-0.181641 z m -5.076172,0.04102 a 0.75,0.75 0 0 0 -0.126953,1.054687 l 0.06641,0.08203 a 0.750075,0.750075 0 0 0 0.02148,0.02734 l 0.0957,0.109375 a 0.750075,0.750075 0 0 0 0.02344,0.02734 l 0.03516,0.03516 a 0.75,0.75 0 0 0 1.060547,0.02539 0.75,0.75 0 0 0 0.02539,-1.060547 l -0.02344,-0.02344 -0.07031,-0.08008 -0.05469,-0.07031 a 0.75,0.75 0 0 0 -1.052734,-0.126953 z m 2.490234,0.988281 a 0.75,0.75 0 0 0 -0.839843,0.648437 0.75,0.75 0 0 0 0.65039,0.839843 l 0.142578,0.01758 a 0.750075,0.750075 0 0 0 0.03711,0.0039 l 0.152343,0.01172 a 0.750075,0.750075 0 0 0 0.03711,0.002 h 0.0039 a 0.75,0.75 0 0 0 0.0918,-0.08789 0.75,0.75 0 0 0 0.09766,0.0918 l 0.154297,-0.0039 a 0.750075,0.750075 0 0 0 0.03711,-0.002 l 0.144532,-0.01172 a 0.75,0.75 0 0 0 0.691406,-0.804688 0.75,0.75 0 0 0 -0.804688,-0.691405 l -0.125,0.0098 -0.136718,0.0039 a 0.75,0.75 0 0 0 -0.01758,0.01758 0.75,0.75 0 0 0 -0.09375,-0.02148 l -0.09961,-0.0078 z"
     id="path10" />
</svg>
