<?xml version="1.0" encoding="UTF-8" standalone="no"?>
<svg
   width="24"
   height="24"
   stroke-width="1.5"
   viewBox="0 0 24 24"
   fill="none"
   version="1.1"
   id="svg16"
   sodipodi:docname="usb.svg"
   inkscape:version="1.2.1 (9c6d41e410, 2022-07-14)"
   xmlns:inkscape="http://www.inkscape.org/namespaces/inkscape"
   xmlns:sodipodi="http://sodipodi.sourceforge.net/DTD/sodipodi-0.dtd"
   xmlns="http://www.w3.org/2000/svg"
   xmlns:svg="http://www.w3.org/2000/svg">
  <defs
     id="defs20" />
  <sodipodi:namedview
     id="namedview18"
     pagecolor="#ffffff"
     bordercolor="#666666"
     borderopacity="1.0"
     inkscape:showpageshadow="2"
     inkscape:pageopacity="0.0"
     inkscape:pagecheckerboard="0"
     inkscape:deskcolor="#d1d1d1"
     showgrid="false"
     inkscape:zoom="34.541667"
     inkscape:cx="10.364294"
     inkscape:cy="12.014475"
     inkscape:window-width="1920"
     inkscape:window-height="1009"
     inkscape:window-x="1912"
     inkscape:window-y="-8"
     inkscape:window-maximized="1"
     inkscape:current-layer="svg16" />
  <path
     style="color:#000000;fill:currentColor;stroke-linecap:round;stroke-linejoin:round;-inkscape-stroke:none"
     d="M 12.5,1.25 A 0.75,0.75 0 0 0 11.75,2 V 17 A 0.75,0.75 0 0 0 12.5,17.75 0.75,0.75 0 0 0 13.25,17 V 2 A 0.75,0.75 0 0 0 12.5,1.25 Z"
     id="path2" />
  <path
     style="color:#000000;fill:currentColor;stroke-linecap:round;stroke-linejoin:round;-inkscape-stroke:none"
     d="M 18,7.75 A 0.75,0.75 0 0 0 17.25,8.5 v 2.974609 l -5.005859,1.820313 a 0.75,0.75 0 0 0 -0.449219,0.960937 0.75,0.75 0 0 0 0.960937,0.449219 l 5.5,-2 A 0.750075,0.750075 0 0 0 18.75,12 V 8.5 A 0.75,0.75 0 0 0 18,7.75 Z"
     id="path4" />
  <path
     style="color:#000000;fill:currentColor;stroke-linecap:round;stroke-linejoin:round;-inkscape-stroke:none"
     d="M 7,10.75 A 0.75,0.75 0 0 0 6.25,11.5 v 3 a 0.750075,0.750075 0 0 0 0.5527344,0.722656 l 5.4999996,1.5 a 0.75,0.75 0 0 0 0.919922,-0.52539 0.75,0.75 0 0 0 -0.52539,-0.919922 L 7.75,13.927734 V 11.5 A 0.75,0.75 0 0 0 7,10.75 Z"
     id="path6" />
  <path
     style="color:#000000;fill:currentColor;stroke-linecap:round;stroke-linejoin:round;-inkscape-stroke:none"
     d="m 12.5,16.25 c -1.786036,0 -3.25,1.463964 -3.25,3.25 0,1.786036 1.463964,3.25 3.25,3.25 1.786036,0 3.25,-1.463964 3.25,-3.25 0,-1.786036 -1.463964,-3.25 -3.25,-3.25 z m 0,1.5 c 0.975361,0 1.75,0.774639 1.75,1.75 0,0.975361 -0.774639,1.75 -1.75,1.75 -0.975361,0 -1.75,-0.774639 -1.75,-1.75 0,-0.975361 0.774639,-1.75 1.75,-1.75 z"
     id="path8" />
  <path
     style="color:#000000;fill:currentColor;stroke-linecap:round;stroke-linejoin:round;-inkscape-stroke:none"
     d="M 16.5,4.75 A 0.750075,0.750075 0 0 0 15.75,5.5 v 3 a 0.750075,0.750075 0 0 0 0.75,0.75 h 3 A 0.750075,0.750075 0 0 0 20.25,8.5 v -3 A 0.750075,0.750075 0 0 0 19.5,4.75 Z m 0.75,1.5 h 1.5 v 1.5 h -1.5 z"
     id="path10" />
  <path
     style="color:#000000;fill:currentColor;stroke-linecap:round;stroke-linejoin:round;-inkscape-stroke:none"
     d="m 11.96875,1.46875 -2,2 a 0.75,0.75 0 0 0 0,1.0625 0.75,0.75 0 0 0 1.0625,0 L 12.5,3.0625 13.96875,4.53125 a 0.75,0.75 0 0 0 1.0625,0 0.75,0.75 0 0 0 0,-1.0625 l -2,-2 a 0.750075,0.750075 0 0 0 -1.0625,0 z"
     id="path12" />
  <path
     style="color:#000000;fill:currentColor;stroke-linecap:round;stroke-linejoin:round;-inkscape-stroke:none"
     d="M 7,6.25 C 5.4901018,6.25 4.25,7.4901018 4.25,9 4.25,10.509917 5.4901154,11.75 7,11.75 8.5098846,11.75 9.75,10.509917 9.75,9 9.75,7.4901018 8.5098982,6.25 7,6.25 Z m 0,1.5 C 7.6992396,7.75 8.25,8.3007604 8.25,9 8.25,9.6992806 7.6992532,10.25 7,10.25 6.3007468,10.25 5.75,9.6992806 5.75,9 5.75,8.3007604 6.3007604,7.75 7,7.75 Z"
     id="path14" />
</svg>
