<?xml version="1.0" encoding="UTF-8" standalone="no"?>
<svg
   width="24"
   height="24"
   viewBox="0 0 24 24"
   stroke-width="1.5"
   fill="none"
   version="1.1"
   id="svg8"
   sodipodi:docname="user-crown.svg"
   inkscape:version="1.2.1 (9c6d41e410, 2022-07-14)"
   xmlns:inkscape="http://www.inkscape.org/namespaces/inkscape"
   xmlns:sodipodi="http://sodipodi.sourceforge.net/DTD/sodipodi-0.dtd"
   xmlns="http://www.w3.org/2000/svg"
   xmlns:svg="http://www.w3.org/2000/svg">
  <defs
     id="defs12" />
  <sodipodi:namedview
     id="namedview10"
     pagecolor="#ffffff"
     bordercolor="#666666"
     borderopacity="1.0"
     inkscape:showpageshadow="2"
     inkscape:pageopacity="0.0"
     inkscape:pagecheckerboard="0"
     inkscape:deskcolor="#d1d1d1"
     showgrid="false"
     inkscape:zoom="34.541667"
     inkscape:cx="10.364294"
     inkscape:cy="12.014475"
     inkscape:window-width="1920"
     inkscape:window-height="1009"
     inkscape:window-x="1912"
     inkscape:window-y="-8"
     inkscape:window-maximized="1"
     inkscape:current-layer="svg8" />
  <path
     style="color:#000000;fill:currentColor;stroke-linecap:round;stroke-linejoin:round;-inkscape-stroke:none"
     d="M 12,3.25 C 9.3855329,3.25 7.25,5.3855329 7.25,8 c 0,2.614434 2.1355239,4.75 4.75,4.75 2.614443,0 4.75,-2.135557 4.75,-4.75 0,-2.6144761 -2.135566,-4.75 -4.75,-4.75 z m 0,1.5 c 1.803761,0 3.25,1.4462005 3.25,3.25 0,1.8037521 -1.446248,3.25 -3.25,3.25 C 10.196201,11.25 8.75,9.8037612 8.75,8 8.75,6.1961915 10.196191,4.75 12,4.75 Z"
     id="path2" />
  <path
     style="color:#000000;fill:currentColor;stroke-linecap:round;stroke-linejoin:round;-inkscape-stroke:none"
     d="m 12,11.25 c -4.2713153,0 -7.75,3.478674 -7.75,7.75 v 1 A 0.75,0.75 0 0 0 5,20.75 0.75,0.75 0 0 0 5.75,20 v -1 c 0,-3.460667 2.789343,-6.25 6.25,-6.25 0.961034,0 1.866267,0.216131 2.677734,0.601563 a 0.75,0.75 0 0 0 1,-0.355469 0.75,0.75 0 0 0 -0.355468,-1 C 14.315135,11.517726 13.186164,11.25 12,11.25 Z"
     id="path4" />
  <path
     style="color:#000000;fill:currentColor;stroke-linecap:round;stroke-linejoin:round;-inkscape-stroke:none"
     d="m 17,15.25 a 0.750075,0.750075 0 0 0 -0.576172,0.269531 l -1.115234,1.337891 -2.964844,-1.523438 a 0.750075,0.750075 0 0 0 -1.083984,0.789063 l 1,6 A 0.750075,0.750075 0 0 0 13,22.75 h 8 a 0.750075,0.750075 0 0 0 0.740234,-0.626953 l 1,-6 A 0.750075,0.750075 0 0 0 21.65625,15.333984 l -2.964844,1.523438 -1.115234,-1.337891 A 0.750075,0.750075 0 0 0 17,15.25 Z m 0,1.921875 0.923828,1.107422 a 0.750075,0.750075 0 0 0 0.919922,0.1875 L 21.013672,17.349609 20.363281,21.25 h -6.728515 l -0.648438,-3.900391 2.169922,1.117188 a 0.750075,0.750075 0 0 0 0.919922,-0.1875 z"
     id="path6" />
</svg>
