<?xml version="1.0" encoding="UTF-8" standalone="no"?>
<svg
   width="24"
   height="24"
   stroke-width="1.5"
   viewBox="0 0 24 24"
   fill="none"
   version="1.1"
   id="svg12"
   sodipodi:docname="user-cart.svg"
   inkscape:version="1.2.1 (9c6d41e410, 2022-07-14)"
   xmlns:inkscape="http://www.inkscape.org/namespaces/inkscape"
   xmlns:sodipodi="http://sodipodi.sourceforge.net/DTD/sodipodi-0.dtd"
   xmlns="http://www.w3.org/2000/svg"
   xmlns:svg="http://www.w3.org/2000/svg">
  <defs
     id="defs16" />
  <sodipodi:namedview
     id="namedview14"
     pagecolor="#ffffff"
     bordercolor="#666666"
     borderopacity="1.0"
     inkscape:showpageshadow="2"
     inkscape:pageopacity="0.0"
     inkscape:pagecheckerboard="0"
     inkscape:deskcolor="#d1d1d1"
     showgrid="false"
     inkscape:zoom="34.541667"
     inkscape:cx="10.364294"
     inkscape:cy="12.014475"
     inkscape:window-width="1920"
     inkscape:window-height="1009"
     inkscape:window-x="1912"
     inkscape:window-y="-8"
     inkscape:window-maximized="1"
     inkscape:current-layer="svg12" />
  <path
     style="color:#000000;fill:currentColor;stroke-linecap:round;stroke-linejoin:round;-inkscape-stroke:none"
     d="m 22.236328,11.789063 a 0.75,0.75 0 0 0 -0.947266,0.474609 L 20.626953,14.25 H 14.5 a 0.750075,0.750075 0 0 0 -0.720703,0.955078 l 1,3.5 A 0.750075,0.750075 0 0 0 15.5,19.25 H 20 a 0.750075,0.750075 0 0 0 0.710937,-0.513672 l 1.167969,-3.5 0.832031,-2.5 A 0.75,0.75 0 0 0 22.236328,11.789063 Z M 15.494141,15.75 h 4.632812 l -0.667969,2 h -3.392578 z"
     id="path2" />
  <path
     style="color:#000000;fill:currentColor;stroke-linecap:round;stroke-linejoin:round;-inkscape-stroke:none"
     d="m 17.011719,19.941406 a 0.75,0.75 0 0 0 -1.058594,0.05469 l -0.0098,0.01172 a 0.75,0.75 0 0 0 0.05469,1.058594 0.75,0.75 0 0 0 1.058594,-0.05469 L 17.066406,21 a 0.75,0.75 0 0 0 -0.05469,-1.058594 z"
     id="path4" />
  <path
     style="color:#000000;fill:currentColor;stroke-linecap:round;stroke-linejoin:round;-inkscape-stroke:none"
     d="m 20.011719,19.941406 a 0.75,0.75 0 0 0 -1.058594,0.05469 l -0.0098,0.01172 a 0.75,0.75 0 0 0 0.05469,1.058594 0.75,0.75 0 0 0 1.058594,-0.05469 L 20.066406,21 a 0.75,0.75 0 0 0 -0.05469,-1.058594 z"
     id="path6" />
  <path
     style="color:#000000;fill:currentColor;stroke-linecap:round;stroke-linejoin:round;-inkscape-stroke:none"
     d="M 9,2.25 C 6.3855329,2.25 4.25,4.3855329 4.25,7 4.25,9.6144671 6.3855329,11.75 9,11.75 11.614434,11.75 13.75,9.6144761 13.75,7 13.75,4.3855239 11.614434,2.25 9,2.25 Z m 0,1.5 c 1.803761,0 3.25,1.4462005 3.25,3.25 0,1.8037995 -1.446239,3.25 -3.25,3.25 C 7.1961915,10.25 5.75,8.8038085 5.75,7 5.75,5.1961915 7.1961915,3.75 9,3.75 Z"
     id="path8" />
  <path
     style="color:#000000;fill:currentColor;stroke-linecap:round;stroke-linejoin:round;-inkscape-stroke:none"
     d="M 9,10.25 C 4.7286847,10.25 1.25,13.728674 1.25,18 A 0.75,0.75 0 0 0 2,18.75 0.75,0.75 0 0 0 2.75,18 c 0,-3.460667 2.789343,-6.25 6.25,-6.25 1.463561,0 2.802752,0.500623 3.867188,1.339844 a 0.75,0.75 0 0 0 1.052734,-0.125 0.75,0.75 0 0 0 -0.125,-1.054688 C 12.47636,10.870578 10.806436,10.25 9,10.25 Z"
     id="path10" />
</svg>
