<?xml version="1.0" encoding="UTF-8" standalone="no"?>
<svg
   width="24"
   height="24"
   viewBox="0 0 24 24"
   stroke-width="1.5"
   fill="none"
   version="1.1"
   id="svg8"
   sodipodi:docname="user-star.svg"
   inkscape:version="1.2.1 (9c6d41e410, 2022-07-14)"
   xmlns:inkscape="http://www.inkscape.org/namespaces/inkscape"
   xmlns:sodipodi="http://sodipodi.sourceforge.net/DTD/sodipodi-0.dtd"
   xmlns="http://www.w3.org/2000/svg"
   xmlns:svg="http://www.w3.org/2000/svg">
  <defs
     id="defs12" />
  <sodipodi:namedview
     id="namedview10"
     pagecolor="#ffffff"
     bordercolor="#666666"
     borderopacity="1.0"
     inkscape:showpageshadow="2"
     inkscape:pageopacity="0.0"
     inkscape:pagecheckerboard="0"
     inkscape:deskcolor="#d1d1d1"
     showgrid="false"
     inkscape:zoom="34.541667"
     inkscape:cx="10.364294"
     inkscape:cy="12.014475"
     inkscape:window-width="1920"
     inkscape:window-height="1009"
     inkscape:window-x="1912"
     inkscape:window-y="-8"
     inkscape:window-maximized="1"
     inkscape:current-layer="svg8" />
  <path
     style="color:#000000;fill:currentColor;stroke-linecap:round;stroke-linejoin:round;-inkscape-stroke:none"
     d="M 12,3.25 C 9.3855329,3.25 7.25,5.3855329 7.25,8 c 0,2.614434 2.1355239,4.75 4.75,4.75 2.614443,0 4.75,-2.135557 4.75,-4.75 0,-2.6144761 -2.135566,-4.75 -4.75,-4.75 z m 0,1.5 c 1.803761,0 3.25,1.4462005 3.25,3.25 0,1.8037521 -1.446248,3.25 -3.25,3.25 C 10.196201,11.25 8.75,9.8037612 8.75,8 8.75,6.1961915 10.196191,4.75 12,4.75 Z"
     id="path2" />
  <path
     style="color:#000000;fill:currentColor;stroke-linecap:round;stroke-linejoin:round;-inkscape-stroke:none"
     d="m 12,11.25 c -4.2713153,0 -7.75,3.478674 -7.75,7.75 v 1 A 0.75,0.75 0 0 0 5,20.75 0.75,0.75 0 0 0 5.75,20 v -1 c 0,-3.460667 2.789343,-6.25 6.25,-6.25 0.961034,0 1.866267,0.216131 2.677734,0.601563 a 0.75,0.75 0 0 0 1,-0.355469 0.75,0.75 0 0 0 -0.355468,-1 C 14.315135,11.517726 13.186164,11.25 12,11.25 Z"
     id="path4" />
  <path
     style="color:#000000;fill:currentColor;stroke-linecap:round;stroke-linejoin:round;-inkscape-stroke:none"
     d="m 18,13.25 c -0.402279,0 -0.8184,0.249022 -1.003906,0.642578 l -0.869141,1.841797 -1.929687,0.294922 c -0.889964,0.136137 -1.240082,1.286686 -0.623047,1.916015 l 1.416015,1.441407 -0.335937,2.046875 c -0.06995,0.426424 0.116558,0.850323 0.431641,1.089843 0.315082,0.239521 0.8064,0.304908 1.197265,0.08984 L 18,21.667969 l 1.716797,0.945312 c 0.390865,0.215064 0.882183,0.149677 1.197265,-0.08984 0.315083,-0.23952 0.501592,-0.663419 0.431641,-1.089843 l -0.335937,-2.046875 1.416015,-1.441407 c 0.617035,-0.629329 0.266917,-1.779878 -0.623047,-1.916015 L 19.873047,15.734375 19.003906,13.892578 C 18.8184,13.499022 18.402279,13.25 18,13.25 Z m 0,2.027344 0.6875,1.457031 a 0.750075,0.750075 0 0 0 0.564453,0.421875 l 1.603516,0.246094 -1.181641,1.205078 a 0.750075,0.750075 0 0 0 -0.205078,0.646484 l 0.271484,1.660156 -1.378906,-0.759765 a 0.750075,0.750075 0 0 0 -0.722656,0 l -1.378906,0.759765 0.271484,-1.660156 A 0.750075,0.750075 0 0 0 16.326172,18.607422 L 15.144531,17.402344 16.748047,17.15625 A 0.750075,0.750075 0 0 0 17.3125,16.734375 Z"
     id="path6" />
</svg>
