<?xml version="1.0" encoding="UTF-8" standalone="no"?>
<svg
   width="24"
   height="24"
   viewBox="0 0 24 24"
   stroke-width="1.5"
   fill="none"
   version="1.1"
   id="svg6"
   sodipodi:docname="vegan.svg"
   inkscape:version="1.2.1 (9c6d41e410, 2022-07-14)"
   xmlns:inkscape="http://www.inkscape.org/namespaces/inkscape"
   xmlns:sodipodi="http://sodipodi.sourceforge.net/DTD/sodipodi-0.dtd"
   xmlns="http://www.w3.org/2000/svg"
   xmlns:svg="http://www.w3.org/2000/svg">
  <defs
     id="defs10" />
  <sodipodi:namedview
     id="namedview8"
     pagecolor="#ffffff"
     bordercolor="#666666"
     borderopacity="1.0"
     inkscape:showpageshadow="2"
     inkscape:pageopacity="0.0"
     inkscape:pagecheckerboard="0"
     inkscape:deskcolor="#d1d1d1"
     showgrid="false"
     inkscape:zoom="34.541667"
     inkscape:cx="10.364294"
     inkscape:cy="12.014475"
     inkscape:window-width="1920"
     inkscape:window-height="1009"
     inkscape:window-x="1912"
     inkscape:window-y="-8"
     inkscape:window-maximized="1"
     inkscape:current-layer="svg6" />
  <path
     style="color:#000000;fill:currentColor;stroke-linecap:round;stroke-linejoin:round;-inkscape-stroke:none"
     d="M 2.8105469,8.2753906 A 0.75,0.75 0 0 0 2.3515625,8.6210938 0.75,0.75 0 0 0 2.6210938,9.6484375 C 4.0723764,10.496531 5.8902162,13.174867 7.1914062,15.625 c 1.3011901,2.450133 2.1699219,4.650391 2.1699219,4.650391 a 0.750075,0.750075 0 0 0 1.3964849,-0.0039 c 0,0 0.607103,-1.56148 1.519531,-3.443359 0.912428,-1.881879 2.155614,-4.0852 3.265625,-5.248047 a 0.75,0.75 0 0 0 -0.02539,-1.060547 0.75,0.75 0 0 0 -1.060547,0.02539 c -1.360587,1.42535 -2.588777,3.689089 -3.529297,5.628906 -0.53281,1.09892 -0.613897,1.358199 -0.888671,2.013672 C 9.6804074,17.339636 9.4307607,16.64507 8.515625,14.921875 7.1697702,12.387638 5.4570301,9.5659667 3.3789063,8.3515625 A 0.75,0.75 0 0 0 2.8105469,8.2753906 Z"
     id="path2" />
  <path
     style="color:#000000;fill:currentColor;stroke-linecap:round;stroke-linejoin:round;-inkscape-stroke:none"
     d="M 19.791016,4.3085937 15.074219,4.7636719 C 11.854761,5.073659 9.4830298,7.9524311 9.7929688,11.171875 c 0.3108792,3.227898 3.2356342,5.587284 6.4550782,5.277344 3.273249,-0.315258 5.735888,-3.237626 5.419922,-6.5195315 L 21.242187,5.5058594 C 21.172636,4.7836348 20.513273,4.2390414 19.791016,4.3085937 Z m -0.02539,1.5097657 0.410156,4.2539066 c 0.236634,2.457889 -1.603967,4.64527 -4.070312,4.882812 -2.41255,0.232259 -4.588793,-1.523837 -4.820313,-3.927734 -0.23226,-2.4125708 1.521057,-4.5391923 3.933594,-4.7714846 z"
     id="path4" />
</svg>
