<?xml version="1.0" encoding="UTF-8" standalone="no"?>
<svg
   width="24"
   height="24"
   viewBox="0 0 24 24"
   stroke-width="1.5"
   fill="none"
   version="1.1"
   id="svg8"
   sodipodi:docname="vegan-circle.svg"
   inkscape:version="1.2.1 (9c6d41e410, 2022-07-14)"
   xmlns:inkscape="http://www.inkscape.org/namespaces/inkscape"
   xmlns:sodipodi="http://sodipodi.sourceforge.net/DTD/sodipodi-0.dtd"
   xmlns="http://www.w3.org/2000/svg"
   xmlns:svg="http://www.w3.org/2000/svg">
  <defs
     id="defs12" />
  <sodipodi:namedview
     id="namedview10"
     pagecolor="#ffffff"
     bordercolor="#666666"
     borderopacity="1.0"
     inkscape:showpageshadow="2"
     inkscape:pageopacity="0.0"
     inkscape:pagecheckerboard="0"
     inkscape:deskcolor="#d1d1d1"
     showgrid="false"
     inkscape:zoom="34.541667"
     inkscape:cx="10.364294"
     inkscape:cy="12.014475"
     inkscape:window-width="1920"
     inkscape:window-height="1009"
     inkscape:window-x="1912"
     inkscape:window-y="-8"
     inkscape:window-maximized="1"
     inkscape:current-layer="svg8" />
  <path
     style="color:#000000;fill:currentColor;stroke-linecap:round;stroke-linejoin:round;-inkscape-stroke:none"
     d="M 6.3867187,9.3574219 A 0.75,0.75 0 0 0 5.3574219,9.6132813 0.75,0.75 0 0 0 5.6132812,10.642578 c 0.9347444,0.560847 2.242253,2.492835 3.1582032,4.263672 0.9159501,1.770837 1.5292966,3.363281 1.5292966,3.363281 a 0.750075,0.750075 0 0 0 1.400391,-0.0039 c 0,0 0.427584,-1.129169 1.070312,-2.490234 0.642729,-1.361066 1.525685,-2.957098 2.277344,-3.765625 a 0.75,0.75 0 0 0 -0.03906,-1.058594 0.75,0.75 0 0 0 -1.058594,0.03906 c -0.998339,1.073871 -1.865386,2.7262 -2.535156,4.144532 -0.261158,0.553037 -0.2554,0.588887 -0.435547,1.013671 C 10.700134,15.490405 10.630524,15.237632 10.103516,14.21875 9.1444677,12.364591 7.9519719,10.296574 6.3867187,9.3574219 Z"
     id="path2" />
  <path
     style="color:#000000;fill:currentColor;stroke-linecap:round;stroke-linejoin:round;-inkscape-stroke:none"
     d="M 17.503906,6.6210937 14.21875,6.9375 c -2.363962,0.22763 -4.110468,2.3450179 -3.882812,4.708984 0.228476,2.372501 2.380155,4.106563 4.74414,3.878907 2.401549,-0.231249 4.210588,-2.377008 3.978516,-4.78711 L 18.761719,7.6582031 C 18.701431,7.0329581 18.129256,6.5608968 17.503906,6.6210937 Z m -0.201172,1.5253907 0.263672,2.7363286 c 0.152728,1.586094 -1.036212,2.996839 -2.630859,3.15039 -1.557011,0.149943 -2.956346,-0.982755 -3.105469,-2.53125 -0.149944,-1.5570094 0.976169,-2.9223359 2.533203,-3.0722655 z"
     id="path4" />
  <path
     style="color:#000000;fill:currentColor;stroke-linecap:round;stroke-linejoin:round;-inkscape-stroke:none"
     d="M 12,1.25 C 6.0718263,1.25 1.25,6.0718263 1.25,12 1.25,17.928127 6.0718217,22.75 12,22.75 17.928132,22.75 22.75,17.928132 22.75,12 22.75,6.0718217 17.928127,1.25 12,1.25 Z m 0,1.5 c 5.117462,0 9.25,4.1324893 9.25,9.25 0,5.117457 -4.132543,9.25 -9.25,9.25 C 6.8824893,21.25 2.75,17.117462 2.75,12 2.75,6.8824848 6.8824848,2.75 12,2.75 Z"
     id="path6" />
</svg>
