<?xml version="1.0" encoding="UTF-8" standalone="no"?>
<svg
   width="24"
   height="24"
   viewBox="0 0 24 24"
   stroke-width="1.5"
   fill="none"
   version="1.1"
   id="svg16"
   sodipodi:docname="vehicle-green.svg"
   inkscape:version="1.2.1 (9c6d41e410, 2022-07-14)"
   xmlns:inkscape="http://www.inkscape.org/namespaces/inkscape"
   xmlns:sodipodi="http://sodipodi.sourceforge.net/DTD/sodipodi-0.dtd"
   xmlns="http://www.w3.org/2000/svg"
   xmlns:svg="http://www.w3.org/2000/svg">
  <defs
     id="defs20" />
  <sodipodi:namedview
     id="namedview18"
     pagecolor="#ffffff"
     bordercolor="#666666"
     borderopacity="1.0"
     inkscape:showpageshadow="2"
     inkscape:pageopacity="0.0"
     inkscape:pagecheckerboard="0"
     inkscape:deskcolor="#d1d1d1"
     showgrid="false"
     inkscape:zoom="34.541667"
     inkscape:cx="10.364294"
     inkscape:cy="12.014475"
     inkscape:window-width="1920"
     inkscape:window-height="1009"
     inkscape:window-x="1912"
     inkscape:window-y="-8"
     inkscape:window-maximized="1"
     inkscape:current-layer="svg16" />
  <path
     style="color:#000000;fill:currentColor;stroke-linecap:round;stroke-linejoin:round;-inkscape-stroke:none"
     d="M 7,9.25 A 0.75,0.75 0 0 0 6.25,10 0.75,0.75 0 0 0 7,10.75 h 8 A 0.75,0.75 0 0 0 15.75,10 0.75,0.75 0 0 0 15,9.25 Z"
     id="path2" />
  <path
     style="color:#000000;fill:currentColor;stroke-linecap:round;stroke-linejoin:round;-inkscape-stroke:none"
     d="M 6,13.25 A 0.75,0.75 0 0 0 5.25,14 0.75,0.75 0 0 0 6,14.75 H 7 A 0.75,0.75 0 0 0 7.75,14 0.75,0.75 0 0 0 7,13.25 Z"
     id="path4" />
  <path
     style="color:#000000;fill:currentColor;stroke-linecap:round;stroke-linejoin:round;-inkscape-stroke:none"
     d="M 15,13.25 A 0.75,0.75 0 0 0 14.25,14 0.75,0.75 0 0 0 15,14.75 h 1 A 0.75,0.75 0 0 0 16.75,14 0.75,0.75 0 0 0 16,13.25 Z"
     id="path6" />
  <path
     style="color:#000000;fill:currentColor;stroke-linecap:round;-inkscape-stroke:none"
     d="m 1.25,17.25 v 3.150391 C 1.25,21.137086 1.862953,21.75 2.5996094,21.75 H 5.4003906 C 6.137047,21.75 6.75,21.137086 6.75,20.400391 V 18.75 H 13 A 0.75,0.75 0 0 0 13.75,18 0.75,0.75 0 0 0 13,17.25 H 6.75 6 Z m 1.5,1.5 h 2.5 v 1.5 h -2.5 z"
     id="path8" />
  <path
     style="color:#000000;fill:currentColor;stroke-linecap:round;-inkscape-stroke:none"
     d="M 6.3183594,3.25 C 5.2203353,3.25 4.2235543,3.9067634 3.7910156,4.9160156 L 1.4726562,10.328125 C 1.3259178,10.670455 1.25,11.037769 1.25,11.410156 V 18 A 0.75,0.75 0 0 0 2,18.75 0.75,0.75 0 0 0 2.75,18 v -6.589844 c 0,-0.169212 0.034921,-0.336718 0.1015625,-0.492187 L 5.1699219,5.5078125 C 5.3677026,5.0463262 5.816285,4.75 6.3183594,4.75 h 9.3632816 c 0.502143,0 0.9506,0.2962541 1.148437,0.7578125 l 2.318359,5.4101565 C 19.215066,11.073394 19.25,11.240907 19.25,11.410156 V 12.5 A 0.75,0.75 0 0 0 20,13.25 0.75,0.75 0 0 0 20.75,12.5 v -1.089844 c 0,-0.37235 -0.07588,-0.739657 -0.222656,-1.082031 L 18.208984,4.9160156 C 17.776422,3.9068355 16.779696,3.25 15.681641,3.25 Z"
     id="path10" />
  <path
     style="color:#000000;fill:currentColor;stroke-linecap:round;stroke-linejoin:round;-inkscape-stroke:none"
     d="m 19.5,17.441406 c -2.327167,2.086029 -3.220703,5.34961 -3.220703,5.34961 a 0.75,0.75 0 0 0 0.511719,0.929687 0.75,0.75 0 0 0 0.929687,-0.511719 c 0,0 0.906468,-2.971622 2.779297,-4.65039 A 0.75,0.75 0 0 0 20.558594,17.5 0.75,0.75 0 0 0 19.5,17.441406 Z"
     id="path12" />
  <path
     style="color:#000000;fill:currentColor;stroke-linecap:round;stroke-linejoin:round;-inkscape-stroke:none"
     d="m 21.978516,14.285156 -2.984375,0.28125 c -2.095438,0.196924 -3.644083,2.075485 -3.4375,4.169922 0.206708,2.094457 2.086228,3.644063 4.18164,3.447266 l 0.134766,-0.01172 c 2.169687,-0.203811 3.772601,-2.14966 3.558594,-4.318359 l -0.25586,-2.580078 c -0.05872,-0.594621 -0.602307,-1.044175 -1.197265,-0.988282 z m -0.25586,1.53125 0.214844,2.185547 c 0.134392,1.361897 -0.842568,2.547793 -2.205078,2.675781 l -0.134766,0.01367 c -1.288385,0.121003 -2.421737,-0.813823 -2.548828,-2.101562 -0.127017,-1.287759 0.795625,-2.408221 2.083984,-2.529297 z"
     id="path14" />
</svg>
