<?xml version="1.0" encoding="UTF-8" standalone="no"?>
<svg
   width="24"
   height="24"
   viewBox="0 0 24 24"
   stroke-width="1.5"
   fill="none"
   version="1.1"
   id="svg22"
   sodipodi:docname="video-projector.svg"
   inkscape:version="1.2.1 (9c6d41e410, 2022-07-14)"
   xmlns:inkscape="http://www.inkscape.org/namespaces/inkscape"
   xmlns:sodipodi="http://sodipodi.sourceforge.net/DTD/sodipodi-0.dtd"
   xmlns="http://www.w3.org/2000/svg"
   xmlns:svg="http://www.w3.org/2000/svg">
  <defs
     id="defs26" />
  <sodipodi:namedview
     id="namedview24"
     pagecolor="#ffffff"
     bordercolor="#666666"
     borderopacity="1.0"
     inkscape:showpageshadow="2"
     inkscape:pageopacity="0.0"
     inkscape:pagecheckerboard="0"
     inkscape:deskcolor="#d1d1d1"
     showgrid="false"
     inkscape:zoom="34.541667"
     inkscape:cx="10.364294"
     inkscape:cy="12.014475"
     inkscape:window-width="1920"
     inkscape:window-height="1009"
     inkscape:window-x="1912"
     inkscape:window-y="-8"
     inkscape:window-maximized="1"
     inkscape:current-layer="svg22" />
  <path
     style="color:#000000;fill:currentColor;stroke-linecap:round;stroke-linejoin:round;-inkscape-stroke:none"
     d="M 4,18.25 A 0.75,0.75 0 0 0 3.25,19 0.75,0.75 0 0 0 4,19.75 H 6 A 0.75,0.75 0 0 0 6.75,19 0.75,0.75 0 0 0 6,18.25 Z"
     id="path2" />
  <path
     style="color:#000000;fill:currentColor;stroke-linecap:round;stroke-linejoin:round;-inkscape-stroke:none"
     d="M 18,18.25 A 0.75,0.75 0 0 0 17.25,19 0.75,0.75 0 0 0 18,19.75 h 2 A 0.75,0.75 0 0 0 20.75,19 0.75,0.75 0 0 0 20,18.25 Z"
     id="path4" />
  <path
     style="color:#000000;fill:currentColor;-inkscape-stroke:none"
     d="M 2.5996094,6.25 C 1.8629077,6.25 1.25,6.8629077 1.25,7.5996094 V 16.400391 C 1.25,17.137086 1.862953,17.75 2.5996094,17.75 H 21.400391 C 22.13704,17.75 22.75,17.13704 22.75,16.400391 V 7.5996094 C 22.75,6.862953 22.137086,6.25 21.400391,6.25 Z M 2.75,7.75 h 18.5 v 8.5 H 2.75 Z"
     id="path6" />
  <path
     style="color:#000000;fill:currentColor;stroke-linecap:round;stroke-linejoin:round;-inkscape-stroke:none"
     d="M 4.9707031,9.25 A 0.75,0.75 0 0 0 4.453125,9.4980469 l -0.00977,0.00977 a 0.75,0.75 0 0 0 0.054687,1.0605465 0.75,0.75 0 0 0 1.0585937,-0.05664 L 5.5683594,10.5 A 0.75,0.75 0 0 0 5.5117187,9.4414063 0.75,0.75 0 0 0 4.9707031,9.25 Z"
     id="path8" />
  <path
     style="color:#000000;fill:currentColor;stroke-linecap:round;stroke-linejoin:round;-inkscape-stroke:none"
     d="M 8.5117188,9.4414063 A 0.75,0.75 0 0 0 7.453125,9.4980469 l -0.00977,0.00977 a 0.75,0.75 0 0 0 0.054687,1.0605465 0.75,0.75 0 0 0 1.0585937,-0.05664 L 8.5683594,10.5 A 0.75,0.75 0 0 0 8.5117188,9.4414063 Z"
     id="path10" />
  <path
     style="color:#000000;fill:currentColor;stroke-linecap:round;stroke-linejoin:round;-inkscape-stroke:none"
     d="m 11.511719,9.4414063 a 0.75,0.75 0 0 0 -1.058594,0.056641 l -0.0098,0.00977 a 0.75,0.75 0 0 0 0.05469,1.0605465 0.75,0.75 0 0 0 1.058594,-0.05664 L 11.568359,10.5 a 0.75,0.75 0 0 0 -0.05664,-1.0585937 z"
     id="path12" />
  <path
     style="color:#000000;fill:currentColor;stroke-linecap:round;stroke-linejoin:round;-inkscape-stroke:none"
     d="M 4.9707031,13.25 A 0.75,0.75 0 0 0 4.453125,13.496094 l -0.00977,0.01172 a 0.75,0.75 0 0 0 0.054687,1.058593 0.75,0.75 0 0 0 1.0585937,-0.05469 L 5.5664062,14.5 A 0.75,0.75 0 0 0 5.5117187,13.441406 0.75,0.75 0 0 0 4.9707031,13.25 Z"
     id="path14" />
  <path
     style="color:#000000;fill:currentColor;stroke-linecap:round;stroke-linejoin:round;-inkscape-stroke:none"
     d="M 7.9707031,13.25 A 0.75,0.75 0 0 0 7.453125,13.496094 l -0.00977,0.01172 a 0.75,0.75 0 0 0 0.054687,1.058593 0.75,0.75 0 0 0 1.0585937,-0.05469 L 8.5664063,14.5 A 0.75,0.75 0 0 0 8.5117188,13.441406 0.75,0.75 0 0 0 7.9707031,13.25 Z"
     id="path16" />
  <path
     style="color:#000000;fill:currentColor;stroke-linecap:round;stroke-linejoin:round;-inkscape-stroke:none"
     d="m 10.970703,13.25 a 0.75,0.75 0 0 0 -0.517578,0.246094 l -0.0098,0.01172 a 0.75,0.75 0 0 0 0.05469,1.058593 0.75,0.75 0 0 0 1.058594,-0.05469 L 11.566406,14.5 A 0.75,0.75 0 0 0 11.511719,13.441406 0.75,0.75 0 0 0 10.970703,13.25 Z"
     id="path18" />
  <path
     style="color:#000000;fill:currentColor;stroke-linecap:round;stroke-linejoin:round;-inkscape-stroke:none"
     d="m 17,9.25 c -1.509904,0 -2.75,1.240096 -2.75,2.75 0,1.509904 1.240096,2.75 2.75,2.75 1.509904,0 2.75,-1.240096 2.75,-2.75 0,-1.509904 -1.240096,-2.75 -2.75,-2.75 z m 0,1.5 c 0.699294,0 1.25,0.550706 1.25,1.25 0,0.699294 -0.550706,1.25 -1.25,1.25 -0.699294,0 -1.25,-0.550706 -1.25,-1.25 0,-0.699294 0.550706,-1.25 1.25,-1.25 z"
     id="path20" />
</svg>
