<?xml version="1.0" encoding="UTF-8" standalone="no"?>
<svg
   width="24"
   height="24"
   stroke-width="1.5"
   viewBox="0 0 24 24"
   fill="none"
   version="1.1"
   id="svg4"
   sodipodi:docname="video-camera.svg"
   inkscape:version="1.2.1 (9c6d41e410, 2022-07-14)"
   xmlns:inkscape="http://www.inkscape.org/namespaces/inkscape"
   xmlns:sodipodi="http://sodipodi.sourceforge.net/DTD/sodipodi-0.dtd"
   xmlns="http://www.w3.org/2000/svg"
   xmlns:svg="http://www.w3.org/2000/svg">
  <defs
     id="defs8" />
  <sodipodi:namedview
     id="namedview6"
     pagecolor="#ffffff"
     bordercolor="#666666"
     borderopacity="1.0"
     inkscape:showpageshadow="2"
     inkscape:pageopacity="0.0"
     inkscape:pagecheckerboard="0"
     inkscape:deskcolor="#d1d1d1"
     showgrid="false"
     inkscape:zoom="34.541667"
     inkscape:cx="10.364294"
     inkscape:cy="12.014475"
     inkscape:window-width="1920"
     inkscape:window-height="1009"
     inkscape:window-x="1912"
     inkscape:window-y="-8"
     inkscape:window-maximized="1"
     inkscape:current-layer="svg4" />
  <path
     style="color:#000000;fill:currentColor;stroke-linecap:round;stroke-linejoin:round;-inkscape-stroke:none"
     d="M 3.5996094,6.25 C 2.8629077,6.25 2.25,6.8629077 2.25,7.5996094 V 16.400391 C 2.25,17.137086 2.862953,17.75 3.5996094,17.75 H 14.400391 C 15.13704,17.75 15.75,17.13704 15.75,16.400391 v -2.798828 l 3.785156,3.154296 C 20.37392,17.454901 21.75,16.810602 21.75,15.71875 v -7.4375 c 0,-1.0918506 -1.376053,-1.736087 -2.214844,-1.0371094 L 15.75,10.398438 V 7.5996094 C 15.75,6.862953 15.137086,6.25 14.400391,6.25 Z M 3.75,7.75 h 10.5 V 12 16.25 H 3.75 Z m 16.5,0.8515625 V 15.398438 L 16.171875,12 Z"
     id="path2" />
</svg>
