<?xml version="1.0" encoding="UTF-8" standalone="no"?>
<svg
   width="24"
   height="24"
   stroke-width="1.5"
   viewBox="0 0 24 24"
   fill="none"
   version="1.1"
   id="svg10"
   sodipodi:docname="view-360.svg"
   inkscape:version="1.2.1 (9c6d41e410, 2022-07-14)"
   xmlns:inkscape="http://www.inkscape.org/namespaces/inkscape"
   xmlns:sodipodi="http://sodipodi.sourceforge.net/DTD/sodipodi-0.dtd"
   xmlns="http://www.w3.org/2000/svg"
   xmlns:svg="http://www.w3.org/2000/svg">
  <defs
     id="defs14" />
  <sodipodi:namedview
     id="namedview12"
     pagecolor="#ffffff"
     bordercolor="#666666"
     borderopacity="1.0"
     inkscape:showpageshadow="2"
     inkscape:pageopacity="0.0"
     inkscape:pagecheckerboard="0"
     inkscape:deskcolor="#d1d1d1"
     showgrid="false"
     inkscape:zoom="34.541667"
     inkscape:cx="10.364294"
     inkscape:cy="12.014475"
     inkscape:window-width="1920"
     inkscape:window-height="1009"
     inkscape:window-x="1912"
     inkscape:window-y="-8"
     inkscape:window-maximized="1"
     inkscape:current-layer="svg10" />
  <path
     style="color:#000000;fill:currentColor;stroke-linecap:round;stroke-linejoin:round;-inkscape-stroke:none"
     d="M 3,4.25 A 0.75,0.75 0 0 0 2.25,5 0.75,0.75 0 0 0 3,5.75 h 2.75 c 0.5611709,0 1,0.4388291 1,1 0,0.5611709 -0.4388291,1 -1,1 H 4 A 0.75,0.75 0 0 0 3.25,8.5 0.75,0.75 0 0 0 4,9.25 h 1.75 c 0.5611709,0 1,0.4388291 1,1 0,0.561171 -0.4388291,1 -1,1 H 3 A 0.75,0.75 0 0 0 2.25,12 0.75,0.75 0 0 0 3,12.75 h 2.75 c 1.3718271,0 2.5,-1.128173 2.5,-2.5 C 8.25,9.5694245 7.9668678,8.9526331 7.5195312,8.5 7.9668678,8.0473669 8.25,7.4305755 8.25,6.75 8.25,5.3781729 7.1218271,4.25 5.75,4.25 Z"
     id="path2" />
  <path
     style="color:#000000;fill:currentColor;stroke-linecap:round;stroke-linejoin:round;-inkscape-stroke:none"
     d="M 3,14.25 A 0.75,0.75 0 0 0 2.25,15 c 0,1.960847 1.1955253,3.683735 2.9707031,4.867187 C 6.995881,21.05064 9.3796121,21.75 12,21.75 c 2.620407,0 5.004123,-0.699359 6.779297,-1.882813 C 20.554471,18.683734 21.75,16.960844 21.75,15 A 0.75,0.75 0 0 0 21,14.25 0.75,0.75 0 0 0 20.25,15 c 0,1.352853 -0.820561,2.631021 -2.302734,3.619141 C 16.465093,19.60726 14.350188,20.25 12,20.25 9.6498329,20.25 7.5349133,19.607261 6.0527344,18.619141 4.5705555,17.631021 3.75,16.35285 3.75,15 A 0.75,0.75 0 0 0 3,14.25 Z"
     id="path4" />
  <path
     style="color:#000000;fill:currentColor;stroke-linecap:round;stroke-linejoin:round;-inkscape-stroke:none"
     d="M 13,4.25 C 10.937782,4.25 9.25,5.9378347 9.25,8 V 9.5 10 a 0.75,0.75 0 0 0 0.2226563,0.533203 C 9.7507733,11.755938 10.697522,12.75 12,12.75 h 0.5 c 1.509904,0 2.75,-1.240096 2.75,-2.75 V 9.5 C 15.25,7.9901154 14.009917,6.75 12.5,6.75 H 12 c -0.344796,0 -0.581618,0.2513623 -0.886719,0.3691406 C 11.471464,6.3559862 12.094372,5.75 13,5.75 h 1 A 0.75,0.75 0 0 0 14.75,5 0.75,0.75 0 0 0 14,4.25 Z m -1,4 h 0.5 c 0.699281,0 1.25,0.5507468 1.25,1.25 V 10 c 0,0.699294 -0.550706,1.25 -1.25,1.25 H 12 c -0.699294,0 -1.25,-0.550706 -1.25,-1.25 V 9.5 c 0,-0.6992532 0.550719,-1.25 1.25,-1.25 z"
     id="path6" />
  <path
     style="color:#000000;fill:currentColor;stroke-linecap:round;stroke-linejoin:round;-inkscape-stroke:none"
     d="M 19,4.25 C 17.490083,4.25 16.25,5.4901154 16.25,7 V 8.5 10 c 0,1.509904 1.240096,2.75 2.75,2.75 h 0.5 c 1.509904,0 2.75,-1.240096 2.75,-2.75 V 8.5 7 c 0,-1.5098846 -1.240083,-2.75 -2.75,-2.75 z m 0,1.5 h 0.5 c 0.699281,0 1.25,0.5507468 1.25,1.25 V 8.5 10 c 0,0.699294 -0.550706,1.25 -1.25,1.25 H 19 c -0.699294,0 -1.25,-0.550706 -1.25,-1.25 V 8.5 7 c 0,-0.6992532 0.550719,-1.25 1.25,-1.25 z"
     id="path8" />
</svg>
