<?xml version="1.0" encoding="UTF-8" standalone="no"?>
<svg
   width="24"
   height="24"
   stroke-width="1.5"
   viewBox="0 0 24 24"
   fill="none"
   version="1.1"
   id="svg14"
   sodipodi:docname="voice-check.svg"
   inkscape:version="1.2.1 (9c6d41e410, 2022-07-14)"
   xmlns:inkscape="http://www.inkscape.org/namespaces/inkscape"
   xmlns:sodipodi="http://sodipodi.sourceforge.net/DTD/sodipodi-0.dtd"
   xmlns="http://www.w3.org/2000/svg"
   xmlns:svg="http://www.w3.org/2000/svg">
  <defs
     id="defs18" />
  <sodipodi:namedview
     id="namedview16"
     pagecolor="#ffffff"
     bordercolor="#666666"
     borderopacity="1.0"
     inkscape:showpageshadow="2"
     inkscape:pageopacity="0.0"
     inkscape:pagecheckerboard="0"
     inkscape:deskcolor="#d1d1d1"
     showgrid="false"
     inkscape:zoom="34.541667"
     inkscape:cx="10.364294"
     inkscape:cy="12.014475"
     inkscape:window-width="1920"
     inkscape:window-height="1009"
     inkscape:window-x="1912"
     inkscape:window-y="-8"
     inkscape:window-maximized="1"
     inkscape:current-layer="svg14" />
  <path
     style="color:#000000;fill:currentColor;stroke-linecap:round;stroke-linejoin:round;-inkscape-stroke:none"
     d="M 12,2.25 A 0.75,0.75 0 0 0 11.25,3 V 19 A 0.75,0.75 0 0 0 12,19.75 0.75,0.75 0 0 0 12.75,19 V 3 A 0.75,0.75 0 0 0 12,2.25 Z"
     id="path2" />
  <path
     style="color:#000000;fill:currentColor;stroke-linecap:round;stroke-linejoin:round;-inkscape-stroke:none"
     d="M 8,7.25 A 0.75,0.75 0 0 0 7.25,8 v 6 A 0.75,0.75 0 0 0 8,14.75 0.75,0.75 0 0 0 8.75,14 V 8 A 0.75,0.75 0 0 0 8,7.25 Z"
     id="path4" />
  <path
     style="color:#000000;fill:currentColor;stroke-linecap:round;stroke-linejoin:round;-inkscape-stroke:none"
     d="M 20,8.25 A 0.75,0.75 0 0 0 19.25,9 v 4 A 0.75,0.75 0 0 0 20,13.75 0.75,0.75 0 0 0 20.75,13 V 9 A 0.75,0.75 0 0 0 20,8.25 Z"
     id="path6" />
  <path
     style="color:#000000;fill:currentColor;stroke-linecap:round;stroke-linejoin:round;-inkscape-stroke:none"
     d="M 4,8.25 A 0.75,0.75 0 0 0 3.25,9 v 4 A 0.75,0.75 0 0 0 4,13.75 0.75,0.75 0 0 0 4.75,13 V 9 A 0.75,0.75 0 0 0 4,8.25 Z"
     id="path8" />
  <path
     style="color:#000000;fill:currentColor;stroke-linecap:round;stroke-linejoin:round;-inkscape-stroke:none"
     d="M 16,5.25 A 0.75,0.75 0 0 0 15.25,6 v 9 A 0.75,0.75 0 0 0 16,15.75 0.75,0.75 0 0 0 16.75,15 V 6 A 0.75,0.75 0 0 0 16,5.25 Z"
     id="path10" />
  <path
     style="color:#000000;fill:currentColor;stroke-linecap:round;stroke-linejoin:round;-inkscape-stroke:none"
     d="m 22.5,15.75 a 0.75,0.75 0 0 0 -0.53125,0.21875 L 17.5,20.4375 16.03125,18.96875 a 0.75,0.75 0 0 0 -1.0625,0 0.75,0.75 0 0 0 0,1.0625 l 2,2 a 0.750075,0.750075 0 0 0 1.0625,0 l 5,-5 a 0.75,0.75 0 0 0 0,-1.0625 A 0.75,0.75 0 0 0 22.5,15.75 Z"
     id="path12" />
</svg>
