<?xml version="1.0" encoding="UTF-8" standalone="no"?>
<svg
   width="24"
   height="24"
   stroke-width="1.5"
   viewBox="0 0 24 24"
   fill="none"
   version="1.1"
   id="svg16"
   sodipodi:docname="voice-lock-circle.svg"
   inkscape:version="1.2.1 (9c6d41e410, 2022-07-14)"
   xmlns:inkscape="http://www.inkscape.org/namespaces/inkscape"
   xmlns:sodipodi="http://sodipodi.sourceforge.net/DTD/sodipodi-0.dtd"
   xmlns="http://www.w3.org/2000/svg"
   xmlns:svg="http://www.w3.org/2000/svg">
  <defs
     id="defs20" />
  <sodipodi:namedview
     id="namedview18"
     pagecolor="#ffffff"
     bordercolor="#666666"
     borderopacity="1.0"
     inkscape:showpageshadow="2"
     inkscape:pageopacity="0.0"
     inkscape:pagecheckerboard="0"
     inkscape:deskcolor="#d1d1d1"
     showgrid="false"
     inkscape:zoom="34.541667"
     inkscape:cx="10.364294"
     inkscape:cy="12.014475"
     inkscape:window-width="1920"
     inkscape:window-height="1009"
     inkscape:window-x="1912"
     inkscape:window-y="-8"
     inkscape:window-maximized="1"
     inkscape:current-layer="svg16" />
  <path
     style="color:#000000;fill:currentColor;stroke-linecap:round;stroke-linejoin:round;-inkscape-stroke:none"
     d="M 12,1.25 C 6.0718263,1.25 1.25,6.0718263 1.25,12 c 0,5.928127 4.8218217,10.75 10.75,10.75 0.735199,0 1.453582,-0.07387 2.148438,-0.214844 a 0.75,0.75 0 0 0 0.585937,-0.884765 0.75,0.75 0 0 0 -0.882812,-0.585938 C 13.254019,21.185682 12.6346,21.25 12,21.25 6.8824893,21.25 2.75,17.117462 2.75,12 2.75,6.8824848 6.8824848,2.75 12,2.75 c 5.117462,0 9.25,4.1324893 9.25,9.25 0,0.235299 -0.0082,0.468497 -0.02539,0.699219 a 0.75,0.75 0 0 0 0.691407,0.802734 0.75,0.75 0 0 0 0.804687,-0.691406 C 22.740682,12.542869 22.75,12.272701 22.75,12 22.75,6.0718217 17.928127,1.25 12,1.25 Z"
     id="path2" />
  <path
     style="color:#000000;fill:currentColor;stroke-linecap:round;stroke-linejoin:round;-inkscape-stroke:none"
     d="M 12,5.25 A 0.75,0.75 0 0 0 11.25,6 V 18 A 0.75,0.75 0 0 0 12,18.75 0.75,0.75 0 0 0 12.75,18 V 6 A 0.75,0.75 0 0 0 12,5.25 Z"
     id="path4" />
  <path
     style="color:#000000;fill:currentColor;stroke-linecap:round;stroke-linejoin:round;-inkscape-stroke:none"
     d="M 9,8.25 A 0.75,0.75 0 0 0 8.25,9 v 6 A 0.75,0.75 0 0 0 9,15.75 0.75,0.75 0 0 0 9.75,15 V 9 A 0.75,0.75 0 0 0 9,8.25 Z"
     id="path6" />
  <path
     style="color:#000000;fill:currentColor;stroke-linecap:round;stroke-linejoin:round;-inkscape-stroke:none"
     d="M 18,10.25 A 0.75,0.75 0 0 0 17.25,11 v 2 A 0.75,0.75 0 0 0 18,13.75 0.75,0.75 0 0 0 18.75,13 V 11 A 0.75,0.75 0 0 0 18,10.25 Z"
     id="path8" />
  <path
     style="color:#000000;fill:currentColor;stroke-linecap:round;stroke-linejoin:round;-inkscape-stroke:none"
     d="M 6,10.25 A 0.75,0.75 0 0 0 5.25,11 v 2 A 0.75,0.75 0 0 0 6,13.75 0.75,0.75 0 0 0 6.75,13 V 11 A 0.75,0.75 0 0 0 6,10.25 Z"
     id="path10" />
  <path
     style="color:#000000;fill:currentColor;stroke-linecap:round;stroke-linejoin:round;-inkscape-stroke:none"
     d="M 15,6.25 A 0.75,0.75 0 0 0 14.25,7 V 17 A 0.75,0.75 0 0 0 15,17.75 0.75,0.75 0 0 0 15.75,17 V 7 A 0.75,0.75 0 0 0 15,6.25 Z"
     id="path12" />
  <path
     style="color:#000000;fill:currentColor;stroke-linecap:round;stroke-linejoin:round;-inkscape-stroke:none"
     d="m 19.5,14.25 c -0.885411,0 -1.586865,0.451161 -1.951172,0.982422 -0.364307,0.531261 -0.464844,1.083035 -0.464844,1.517578 v 1.216797 C 16.622121,18.182986 16.25,18.562738 16.25,19.099609 v 2.300782 c 0,0.736649 0.61296,1.349609 1.349609,1.349609 h 3.800782 C 22.13704,22.75 22.75,22.13704 22.75,21.400391 v -2.300782 c 0,-0.536871 -0.372121,-0.916623 -0.833984,-1.132812 V 16.75 c 0,-0.434543 -0.100537,-0.986317 -0.464844,-1.517578 C 21.086865,14.701161 20.385411,14.25 19.5,14.25 Z m 0,1.5 c 0.447888,0 0.579126,0.132165 0.714844,0.330078 0.135717,0.197914 0.201172,0.521166 0.201172,0.669922 v 1 h -1.832032 v -1 c 0,-0.148756 0.06546,-0.472008 0.201172,-0.669922 C 18.920874,15.882165 19.052112,15.75 19.5,15.75 Z m -1.75,3.5 h 0.08398 3.332032 0.08398 v 2 h -3.5 z"
     id="path14" />
</svg>
