<?xml version="1.0" encoding="UTF-8" standalone="no"?>
<svg
   width="24"
   height="24"
   stroke-width="1.5"
   viewBox="0 0 24 24"
   fill="none"
   version="1.1"
   id="svg14"
   sodipodi:docname="voice-square.svg"
   inkscape:version="1.2.1 (9c6d41e410, 2022-07-14)"
   xmlns:inkscape="http://www.inkscape.org/namespaces/inkscape"
   xmlns:sodipodi="http://sodipodi.sourceforge.net/DTD/sodipodi-0.dtd"
   xmlns="http://www.w3.org/2000/svg"
   xmlns:svg="http://www.w3.org/2000/svg">
  <defs
     id="defs18" />
  <sodipodi:namedview
     id="namedview16"
     pagecolor="#ffffff"
     bordercolor="#666666"
     borderopacity="1.0"
     inkscape:showpageshadow="2"
     inkscape:pageopacity="0.0"
     inkscape:pagecheckerboard="0"
     inkscape:deskcolor="#d1d1d1"
     showgrid="false"
     inkscape:zoom="34.541667"
     inkscape:cx="10.364294"
     inkscape:cy="12.014475"
     inkscape:window-width="1920"
     inkscape:window-height="1009"
     inkscape:window-x="1912"
     inkscape:window-y="-8"
     inkscape:window-maximized="1"
     inkscape:current-layer="svg14" />
  <path
     style="color:#000000;fill:currentColor;stroke-linecap:round;stroke-linejoin:round;-inkscape-stroke:none"
     d="M 3.5996094,2.25 C 2.8629077,2.25 2.25,2.8629077 2.25,3.5996094 V 20.400391 C 2.25,21.137086 2.862953,21.75 3.5996094,21.75 H 20.400391 C 21.13704,21.75 21.75,21.13704 21.75,20.400391 V 3.5996094 C 21.75,2.862953 21.137086,2.25 20.400391,2.25 Z M 3.75,3.75 h 16.5 v 16.5 H 3.75 Z"
     id="path2" />
  <path
     style="color:#000000;fill:currentColor;stroke-linecap:round;stroke-linejoin:round;-inkscape-stroke:none"
     d="M 12,5.25 A 0.75,0.75 0 0 0 11.25,6 V 18 A 0.75,0.75 0 0 0 12,18.75 0.75,0.75 0 0 0 12.75,18 V 6 A 0.75,0.75 0 0 0 12,5.25 Z"
     id="path4" />
  <path
     style="color:#000000;fill:currentColor;stroke-linecap:round;stroke-linejoin:round;-inkscape-stroke:none"
     d="M 9,8.25 A 0.75,0.75 0 0 0 8.25,9 v 6 A 0.75,0.75 0 0 0 9,15.75 0.75,0.75 0 0 0 9.75,15 V 9 A 0.75,0.75 0 0 0 9,8.25 Z"
     id="path6" />
  <path
     style="color:#000000;fill:currentColor;stroke-linecap:round;stroke-linejoin:round;-inkscape-stroke:none"
     d="M 18,10.25 A 0.75,0.75 0 0 0 17.25,11 v 2 A 0.75,0.75 0 0 0 18,13.75 0.75,0.75 0 0 0 18.75,13 V 11 A 0.75,0.75 0 0 0 18,10.25 Z"
     id="path8" />
  <path
     style="color:#000000;fill:currentColor;stroke-linecap:round;stroke-linejoin:round;-inkscape-stroke:none"
     d="M 6,10.25 A 0.75,0.75 0 0 0 5.25,11 v 2 A 0.75,0.75 0 0 0 6,13.75 0.75,0.75 0 0 0 6.75,13 V 11 A 0.75,0.75 0 0 0 6,10.25 Z"
     id="path10" />
  <path
     style="color:#000000;fill:currentColor;stroke-linecap:round;stroke-linejoin:round;-inkscape-stroke:none"
     d="M 15,6.25 A 0.75,0.75 0 0 0 14.25,7 V 17 A 0.75,0.75 0 0 0 15,17.75 0.75,0.75 0 0 0 15.75,17 V 7 A 0.75,0.75 0 0 0 15,6.25 Z"
     id="path12" />
</svg>
