<?xml version="1.0" encoding="UTF-8" standalone="no"?>
<svg
   width="24"
   height="24"
   stroke-width="1.5"
   viewBox="0 0 24 24"
   fill="none"
   version="1.1"
   id="svg8"
   sodipodi:docname="vr-tag.svg"
   inkscape:version="1.2.1 (9c6d41e410, 2022-07-14)"
   xmlns:inkscape="http://www.inkscape.org/namespaces/inkscape"
   xmlns:sodipodi="http://sodipodi.sourceforge.net/DTD/sodipodi-0.dtd"
   xmlns="http://www.w3.org/2000/svg"
   xmlns:svg="http://www.w3.org/2000/svg">
  <defs
     id="defs12" />
  <sodipodi:namedview
     id="namedview10"
     pagecolor="#ffffff"
     bordercolor="#666666"
     borderopacity="1.0"
     inkscape:showpageshadow="2"
     inkscape:pageopacity="0.0"
     inkscape:pagecheckerboard="0"
     inkscape:deskcolor="#d1d1d1"
     showgrid="false"
     inkscape:zoom="34.541667"
     inkscape:cx="10.364294"
     inkscape:cy="12.014475"
     inkscape:window-width="1920"
     inkscape:window-height="1009"
     inkscape:window-x="1912"
     inkscape:window-y="-8"
     inkscape:window-maximized="1"
     inkscape:current-layer="svg8" />
  <path
     style="color:#000000;fill:currentColor;-inkscape-stroke:none"
     d="M 8,2.25 C 4.280964,2.25 1.25,5.280964 1.25,9 v 6 c 0,3.719027 3.0309625,6.75 6.75,6.75 h 8 c 3.719029,0 6.75,-3.030971 6.75,-6.75 V 9 C 22.75,5.2809625 19.719027,2.25 16,2.25 Z m 0,1.5 h 8 c 2.908366,0 5.25,2.3416241 5.25,5.25 v 6 c 0,2.908365 -2.341635,5.25 -5.25,5.25 H 8 C 5.0916241,20.25 2.75,17.908366 2.75,15 V 9 C 2.75,6.0916226 5.0916226,3.75 8,3.75 Z"
     id="path2" />
  <path
     style="color:#000000;fill:currentColor;stroke-linecap:round;stroke-linejoin:round;-inkscape-stroke:none"
     d="M 13,7.75 A 0.750075,0.750075 0 0 0 12.25,8.5 V 12.699219 15.5 A 0.75,0.75 0 0 0 13,16.25 0.75,0.75 0 0 0 13.75,15.5 v -2.050781 h 1.736328 l 1.917969,2.505859 a 0.75,0.75 0 0 0 1.050781,0.140625 0.75,0.75 0 0 0 0.140625,-1.050781 l -1.433594,-1.873047 c 0.159116,-0.05229 0.252078,0.0074 0.414063,-0.08789 C 18.248595,12.688607 18.75,11.81968 18.75,10.599609 18.75,9.3795392 18.248595,8.5106115 17.576172,8.1152344 16.903748,7.7198572 16.214572,7.75 15.857422,7.75 Z m 0.75,1.5 h 2.107422 c 0.35715,0 0.738534,0.028581 0.958984,0.1582031 C 17.036857,9.5378255 17.25,9.7196817 17.25,10.599609 c 0,0.879928 -0.213143,1.061784 -0.433594,1.191407 -0.22045,0.129622 -0.601834,0.158203 -0.958984,0.158203 H 13.75 Z"
     id="path4" />
  <path
     style="color:#000000;fill:currentColor;stroke-linecap:round;stroke-linejoin:round;-inkscape-stroke:none"
     d="m 5.2792969,7.8027344 a 0.75,0.75 0 0 0 -0.5742188,0.00781 0.75,0.75 0 0 0 -0.3945312,0.984375 l 3,7.0000001 a 0.750075,0.750075 0 0 0 1.3789062,0 L 11.689453,8.7949219 A 0.75,0.75 0 0 0 11.294922,7.8105469 0.75,0.75 0 0 0 10.310547,8.2050781 L 8,13.595703 5.6894531,8.2050781 A 0.75,0.75 0 0 0 5.2792969,7.8027344 Z"
     id="path6" />
</svg>
