<?xml version="1.0" encoding="UTF-8" standalone="no"?>
<svg
   width="24"
   height="24"
   viewBox="0 0 24 24"
   stroke-width="1.5"
   fill="none"
   version="1.1"
   id="svg6"
   sodipodi:docname="vue-js.svg"
   inkscape:version="1.2.1 (9c6d41e410, 2022-07-14)"
   xmlns:inkscape="http://www.inkscape.org/namespaces/inkscape"
   xmlns:sodipodi="http://sodipodi.sourceforge.net/DTD/sodipodi-0.dtd"
   xmlns="http://www.w3.org/2000/svg"
   xmlns:svg="http://www.w3.org/2000/svg">
  <defs
     id="defs10" />
  <sodipodi:namedview
     id="namedview8"
     pagecolor="#ffffff"
     bordercolor="#666666"
     borderopacity="1.0"
     inkscape:showpageshadow="2"
     inkscape:pageopacity="0.0"
     inkscape:pagecheckerboard="0"
     inkscape:deskcolor="#d1d1d1"
     showgrid="false"
     inkscape:zoom="34.541667"
     inkscape:cx="10.364294"
     inkscape:cy="12.014475"
     inkscape:window-width="1920"
     inkscape:window-height="1009"
     inkscape:window-x="1912"
     inkscape:window-y="-8"
     inkscape:window-maximized="1"
     inkscape:current-layer="svg6" />
  <path
     style="color:#000000;fill:currentColor;stroke-linecap:round;stroke-linejoin:round;-inkscape-stroke:none"
     d="M 1.5,3.25 A 0.750075,0.750075 0 0 0 0.8671875,4.4023437 L 11.367188,20.902344 a 0.750075,0.750075 0 0 0 1.265625,0 L 23.132812,4.4023437 A 0.750075,0.750075 0 0 0 22.5,3.25 h -4 A 0.750075,0.750075 0 0 0 17.871094,3.5917969 L 12,12.625 6.1289062,3.5917969 A 0.750075,0.750075 0 0 0 5.5,3.25 Z m 1.3652344,1.5 H 5.09375 l 6.277344,9.658203 a 0.750075,0.750075 0 0 0 1.257812,0 L 18.90625,4.75 h 2.228516 L 12,19.103516 Z"
     id="path2" />
  <path
     style="color:#000000;fill:currentColor;stroke-linecap:round;stroke-linejoin:round;-inkscape-stroke:none"
     d="M 5.5,3.25 A 0.75,0.75 0 0 0 4.75,4 0.75,0.75 0 0 0 5.5,4.75 h 3.6132813 l 2.2773437,3.1855469 a 0.750075,0.750075 0 0 0 1.21875,0 L 14.886719,4.75 H 18.5 A 0.75,0.75 0 0 0 19.25,4 0.75,0.75 0 0 0 18.5,3.25 h -4 A 0.750075,0.750075 0 0 0 13.890625,3.5644531 L 12,6.2109375 10.109375,3.5644531 A 0.750075,0.750075 0 0 0 9.5,3.25 Z"
     id="path4" />
</svg>
