<?xml version="1.0" encoding="UTF-8" standalone="no"?>
<svg
   width="24"
   height="24"
   stroke-width="1.5"
   viewBox="0 0 24 24"
   fill="none"
   version="1.1"
   id="svg10"
   sodipodi:docname="waist.svg"
   inkscape:version="1.2.1 (9c6d41e410, 2022-07-14)"
   xmlns:inkscape="http://www.inkscape.org/namespaces/inkscape"
   xmlns:sodipodi="http://sodipodi.sourceforge.net/DTD/sodipodi-0.dtd"
   xmlns="http://www.w3.org/2000/svg"
   xmlns:svg="http://www.w3.org/2000/svg">
  <defs
     id="defs14" />
  <sodipodi:namedview
     id="namedview12"
     pagecolor="#ffffff"
     bordercolor="#666666"
     borderopacity="1.0"
     inkscape:showpageshadow="2"
     inkscape:pageopacity="0.0"
     inkscape:pagecheckerboard="0"
     inkscape:deskcolor="#d1d1d1"
     showgrid="false"
     inkscape:zoom="34.541667"
     inkscape:cx="10.364294"
     inkscape:cy="12.014475"
     inkscape:window-width="1920"
     inkscape:window-height="1009"
     inkscape:window-x="1912"
     inkscape:window-y="-8"
     inkscape:window-maximized="1"
     inkscape:current-layer="svg10" />
  <path
     style="color:#000000;fill:currentColor;stroke-linecap:round;stroke-linejoin:round;-inkscape-stroke:none"
     d="m 18.121094,3.3046875 a 0.75,0.75 0 0 0 -0.410157,0.4003906 c 0,0 -1.660156,3.7884074 -1.660156,7.1523439 0,1.165974 0.406622,2.142142 0.892578,3.019531 0.559448,1.009863 1.220116,1.925394 1.683594,3.019531 C 18.994847,17.764703 19.25,18.741724 19.25,20 A 0.75,0.75 0 0 0 20,20.75 0.75,0.75 0 0 0 20.75,20 c 0,-1.466921 -0.311682,-2.673474 -0.742188,-3.689453 -0.54232,-1.28026 -1.254401,-2.262022 -1.751953,-3.160156 -0.432242,-0.78041 -0.705078,-1.469745 -0.705078,-2.292969 0,-2.8488375 1.539063,-6.5625001 1.539063,-6.5625001 a 0.75,0.75 0 0 0 -0.394532,-0.984375 0.75,0.75 0 0 0 -0.574218,-0.00586 z"
     id="path2" />
  <path
     style="color:#000000;fill:currentColor;stroke-linecap:round;stroke-linejoin:round;-inkscape-stroke:none"
     d="m 5.8789062,3.3046875 a 0.75,0.75 0 0 0 -0.5722656,0.00586 0.75,0.75 0 0 0 -0.3964844,0.984375 c 0,0 1.5390625,3.7136465 1.5390625,6.5625001 0,0.823269 -0.272795,1.512622 -0.7050781,2.292969 -0.497487,0.898103 -1.2096099,1.879893 -1.7519531,3.160156 C 3.5617944,17.326491 3.25,18.533079 3.25,20 A 0.75,0.75 0 0 0 4,20.75 0.75,0.75 0 0 0 4.75,20 c 0,-1.258276 0.2552208,-2.235261 0.6230469,-3.103516 0.4634957,-1.094134 1.1241818,-2.009636 1.6835937,-3.019531 0.486076,-0.877452 0.8925782,-1.853602 0.8925781,-3.019531 0,-3.3639204 -1.6601562,-7.1523439 -1.6601562,-7.1523439 A 0.75,0.75 0 0 0 5.8789062,3.3046875 Z"
     id="path4" />
  <path
     style="color:#000000;fill:currentColor;stroke-linecap:round;stroke-linejoin:round;-inkscape-stroke:none"
     d="m 6.4003906,12.763672 a 0.75,0.75 0 0 0 -0.75,0.75 0.75,0.75 0 0 0 0.75,0.75 H 17.599609 a 0.75,0.75 0 0 0 0.75,-0.75 0.75,0.75 0 0 0 -0.75,-0.75 z"
     id="path6" />
  <path
     style="color:#000000;fill:currentColor;stroke-linecap:round;stroke-linejoin:round;-inkscape-stroke:none"
     d="m 4.8261719,15.867188 a 0.75,0.75 0 0 0 -0.8789063,0.593749 0.75,0.75 0 0 0 0.59375,0.878907 c 0,0 1.3820173,0.270442 2.9550781,0.814453 1.5730609,0.544011 3.2965873,1.429561 3.8886723,2.27539 a 0.750075,0.750075 0 0 0 1.230468,0 c 0.592091,-0.845838 2.315649,-1.73138 3.888672,-2.27539 1.573023,-0.54401 2.955078,-0.814453 2.955078,-0.814453 a 0.75,0.75 0 0 0 0.59375,-0.878907 0.75,0.75 0 0 0 -0.878906,-0.593749 c 0,0 -1.474932,0.286327 -3.160156,0.86914 C 14.580138,17.232098 13.070482,17.97806 12,19.050781 10.929506,17.978056 9.4198935,17.232097 7.9863281,16.736328 6.3010672,16.153515 4.8261719,15.867187 4.8261719,15.867188 Z"
     id="path8" />
</svg>
