<?xml version="1.0" encoding="UTF-8" standalone="no"?>
<svg
   width="24"
   height="24"
   stroke-width="1.5"
   viewBox="0 0 24 24"
   fill="none"
   version="1.1"
   id="svg10"
   sodipodi:docname="walking.svg"
   inkscape:version="1.2.1 (9c6d41e410, 2022-07-14)"
   xmlns:inkscape="http://www.inkscape.org/namespaces/inkscape"
   xmlns:sodipodi="http://sodipodi.sourceforge.net/DTD/sodipodi-0.dtd"
   xmlns="http://www.w3.org/2000/svg"
   xmlns:svg="http://www.w3.org/2000/svg">
  <defs
     id="defs14" />
  <sodipodi:namedview
     id="namedview12"
     pagecolor="#ffffff"
     bordercolor="#666666"
     borderopacity="1.0"
     inkscape:showpageshadow="2"
     inkscape:pageopacity="0.0"
     inkscape:pagecheckerboard="0"
     inkscape:deskcolor="#d1d1d1"
     showgrid="false"
     inkscape:zoom="34.541667"
     inkscape:cx="10.364294"
     inkscape:cy="12.014475"
     inkscape:window-width="1920"
     inkscape:window-height="1009"
     inkscape:window-x="1912"
     inkscape:window-y="-8"
     inkscape:window-maximized="1"
     inkscape:current-layer="svg10" />
  <path
     style="color:#000000;fill:currentColor;stroke-linecap:round;stroke-linejoin:round;-inkscape-stroke:none"
     d="m 12.623047,8.4003906 a 0.75,0.75 0 0 0 -0.910156,0.5449219 l -1.408203,5.6347655 a 0.750075,0.750075 0 0 0 0.134765,0.642578 l 4.931641,6.337891 a 0.75,0.75 0 0 0 1.052734,0.132812 0.75,0.75 0 0 0 0.130859,-1.052734 L 11.847656,14.589844 13.167969,9.3085938 A 0.75,0.75 0 0 0 12.623047,8.4003906 Z"
     id="path2" />
  <path
     style="color:#000000;fill:currentColor;stroke-linecap:round;stroke-linejoin:round;-inkscape-stroke:none"
     d="m 10.222656,17.541016 a 0.75,0.75 0 0 0 -0.4941404,0.292968 l -2.1132812,2.816407 a 0.75,0.75 0 0 0 0.1503906,1.050781 0.75,0.75 0 0 0 1.0488281,-0.150391 l 2.1132809,-2.816406 a 0.75,0.75 0 0 0 -0.15039,-1.050781 0.75,0.75 0 0 0 -0.554688,-0.142578 z"
     id="path4" />
  <path
     style="color:#000000;fill:currentColor;stroke-linecap:round;stroke-linejoin:round;-inkscape-stroke:none"
     d="M 12.441406,8.3769531 C 11.687091,8.3769371 10.480517,8.4338866 9.3945313,9.1289063 8.3085456,9.8239259 7.4648438,11.202785 7.4648437,13.353516 a 0.75,0.75 0 0 0 0.7500001,0.75 0.75,0.75 0 0 0 0.75,-0.75 c 0,-1.793576 0.5633886,-2.529014 1.2382812,-2.960938 0.674893,-0.4319241 1.583998,-0.5156388 2.238281,-0.5156249 h 0.929688 c 0.182378,0.6222299 0.36966,1.2888419 0.861328,2.0136719 0.638995,0.942024 1.60418,1.851285 2.957031,2.189453 A 0.75,0.75 0 0 0 18.099609,13.535156 0.75,0.75 0 0 0 17.552734,12.625 C 16.651688,12.399768 15.974288,11.785467 15.474609,11.048828 14.974931,10.312189 14.679888,9.459929 14.583984,8.9804688 A 0.750075,0.750075 0 0 0 13.849609,8.3769531 Z"
     id="path6" />
  <path
     style="color:#000000;fill:currentColor;stroke-linecap:round;stroke-linejoin:round;-inkscape-stroke:none"
     d="m 13,2.25 c -1.509917,0 -2.75,1.2401154 -2.75,2.75 0,1.5098846 1.240083,2.75 2.75,2.75 1.509917,0 2.75,-1.2401154 2.75,-2.75 0,-1.5098846 -1.240083,-2.75 -2.75,-2.75 z m 0,1.5 c 0.699281,0 1.25,0.5507468 1.25,1.25 0,0.6992532 -0.550719,1.25 -1.25,1.25 -0.699281,0 -1.25,-0.5507468 -1.25,-1.25 0,-0.6992532 0.550719,-1.25 1.25,-1.25 z"
     id="path8" />
</svg>
