<?xml version="1.0" encoding="UTF-8" standalone="no"?>
<svg
   width="24"
   stroke-width="1.5"
   height="24"
   viewBox="0 0 24 24"
   fill="none"
   version="1.1"
   id="svg8"
   sodipodi:docname="wallet.svg"
   inkscape:version="1.2.1 (9c6d41e410, 2022-07-14)"
   xmlns:inkscape="http://www.inkscape.org/namespaces/inkscape"
   xmlns:sodipodi="http://sodipodi.sourceforge.net/DTD/sodipodi-0.dtd"
   xmlns="http://www.w3.org/2000/svg"
   xmlns:svg="http://www.w3.org/2000/svg">
  <defs
     id="defs12" />
  <sodipodi:namedview
     id="namedview10"
     pagecolor="#ffffff"
     bordercolor="#666666"
     borderopacity="1.0"
     inkscape:showpageshadow="2"
     inkscape:pageopacity="0.0"
     inkscape:pagecheckerboard="0"
     inkscape:deskcolor="#d1d1d1"
     showgrid="false"
     inkscape:zoom="34.541667"
     inkscape:cx="10.364294"
     inkscape:cy="12.014475"
     inkscape:window-width="1920"
     inkscape:window-height="1009"
     inkscape:window-x="1912"
     inkscape:window-y="-8"
     inkscape:window-maximized="1"
     inkscape:current-layer="svg8" />
  <path
     style="color:#000000;fill:currentColor;-inkscape-stroke:none"
     d="M 5,6.25 C 3.4901018,6.25 2.25,7.4901018 2.25,9 v 9 c 0,1.509917 1.2401154,2.75 2.75,2.75 h 14 c 1.509904,0 2.75,-1.240096 2.75,-2.75 V 9 C 21.75,7.4901154 20.509917,6.25 19,6.25 Z m 0,1.5 h 14 c 0.699281,0 1.25,0.5507468 1.25,1.25 v 9 c 0,0.699294 -0.550706,1.25 -1.25,1.25 H 5 C 4.3007468,19.25 3.75,18.699281 3.75,18 V 9 C 3.75,8.3007604 4.3007604,7.75 5,7.75 Z"
     id="path2" />
  <g
     id="path4">
    <path
       style="color:#000000;fill:currentColor;stroke-width:1.5;stroke-linecap:round;stroke-linejoin:round;-inkscape-stroke:none"
       d="M 16.5,14 C 16.2239,14 16,13.7761 16,13.5 16,13.2239 16.2239,13 16.5,13 c 0.2761,0 0.5,0.2239 0.5,0.5 0,0.2761 -0.2239,0.5 -0.5,0.5 z"
       id="path193" />
    <path
       style="color:#000000;fill:currentColor;stroke-linecap:round;stroke-linejoin:round;-inkscape-stroke:none"
       d="m 16.5,12.25 c -0.681568,0 -1.25,0.568432 -1.25,1.25 0,0.681568 0.568432,1.25 1.25,1.25 0.681568,0 1.25,-0.568432 1.25,-1.25 0,-0.681568 -0.568432,-1.25 -1.25,-1.25 z m 0,1 c 0.129369,0 0.25,0.120631 0.25,0.25 0,0.129369 -0.120631,0.25 -0.25,0.25 -0.129369,0 -0.25,-0.120631 -0.25,-0.25 0,-0.129369 0.120631,-0.25 0.25,-0.25 z"
       id="path195" />
  </g>
  <path
     style="color:#000000;fill:currentColor;-inkscape-stroke:none"
     d="m 16.560547,2.9160156 c -0.405222,-0.087824 -0.837619,-0.085878 -1.269531,0.029297 L 4.2910156,5.8789062 C 3.090719,6.1989899 2.25,7.2948612 2.25,8.5371094 V 9 h 1.5 V 8.5371094 c 0,-0.56995 0.3770327,-1.0621285 0.9277344,-1.2089844 L 15.677734,4.3945312 C 16.489481,4.1780696 17.25,4.7634074 17.25,5.6035156 V 7 h 1.5 V 5.6035156 c 0,-1.3410069 -0.973788,-2.4240283 -2.189453,-2.6875 z"
     id="path6" />
</svg>
