<?xml version="1.0" encoding="UTF-8" standalone="no"?>
<svg
   width="24"
   height="24"
   viewBox="0 0 24 24"
   stroke-width="1.5"
   fill="none"
   version="1.1"
   id="svg20"
   sodipodi:docname="watering-soil.svg"
   inkscape:version="1.2.1 (9c6d41e410, 2022-07-14)"
   xmlns:inkscape="http://www.inkscape.org/namespaces/inkscape"
   xmlns:sodipodi="http://sodipodi.sourceforge.net/DTD/sodipodi-0.dtd"
   xmlns="http://www.w3.org/2000/svg"
   xmlns:svg="http://www.w3.org/2000/svg">
  <defs
     id="defs24" />
  <sodipodi:namedview
     id="namedview22"
     pagecolor="#ffffff"
     bordercolor="#666666"
     borderopacity="1.0"
     inkscape:showpageshadow="2"
     inkscape:pageopacity="0.0"
     inkscape:pagecheckerboard="0"
     inkscape:deskcolor="#d1d1d1"
     showgrid="false"
     inkscape:zoom="34.541667"
     inkscape:cx="10.364294"
     inkscape:cy="12.014475"
     inkscape:window-width="1920"
     inkscape:window-height="1009"
     inkscape:window-x="1912"
     inkscape:window-y="-8"
     inkscape:window-maximized="1"
     inkscape:current-layer="svg20" />
  <path
     style="color:#000000;fill:currentColor;stroke-linecap:round;stroke-linejoin:round;-inkscape-stroke:none"
     d="M 2,11.25 A 0.75,0.75 0 0 0 1.25,12 0.75,0.75 0 0 0 2,12.75 H 4 A 0.75,0.75 0 0 0 4.75,12 0.75,0.75 0 0 0 4,11.25 Z"
     id="path2" />
  <path
     style="color:#000000;fill:currentColor;stroke-linecap:round;stroke-linejoin:round;-inkscape-stroke:none"
     d="M 20,11.25 A 0.75,0.75 0 0 0 19.25,12 0.75,0.75 0 0 0 20,12.75 h 2 A 0.75,0.75 0 0 0 22.75,12 0.75,0.75 0 0 0 22,11.25 Z"
     id="path4" />
  <path
     style="color:#000000;fill:currentColor;stroke-linecap:round;stroke-linejoin:round;-inkscape-stroke:none"
     d="M 2.9707031,19.25 A 0.75,0.75 0 0 0 2.453125,19.496094 l -0.00977,0.01172 a 0.75,0.75 0 0 0 0.054687,1.058594 0.75,0.75 0 0 0 1.0585937,-0.05469 L 3.5664063,20.5 A 0.75,0.75 0 0 0 3.5117188,19.441406 0.75,0.75 0 0 0 2.9707031,19.25 Z"
     id="path6" />
  <path
     style="color:#000000;fill:currentColor;stroke-linecap:round;stroke-linejoin:round;-inkscape-stroke:none"
     d="m 6.5117187,15.441406 a 0.75,0.75 0 0 0 -1.0585937,0.05469 l -0.00977,0.01172 a 0.75,0.75 0 0 0 0.054687,1.058593 0.75,0.75 0 0 0 1.0585937,-0.05469 L 6.5664062,16.5 a 0.75,0.75 0 0 0 -0.054687,-1.058594 z"
     id="path8" />
  <path
     style="color:#000000;fill:currentColor;stroke-linecap:round;stroke-linejoin:round;-inkscape-stroke:none"
     d="M 8.9707031,19.25 A 0.75,0.75 0 0 0 8.453125,19.496094 l -0.00977,0.01172 a 0.75,0.75 0 0 0 0.054687,1.058594 0.75,0.75 0 0 0 1.0585937,-0.05469 L 9.5664063,20.5 A 0.75,0.75 0 0 0 9.5117188,19.441406 0.75,0.75 0 0 0 8.9707031,19.25 Z"
     id="path10" />
  <path
     style="color:#000000;fill:currentColor;stroke-linecap:round;stroke-linejoin:round;-inkscape-stroke:none"
     d="m 14.970703,19.25 a 0.75,0.75 0 0 0 -0.517578,0.246094 l -0.0098,0.01172 a 0.75,0.75 0 0 0 0.05469,1.058594 0.75,0.75 0 0 0 1.058594,-0.05469 L 15.566406,20.5 A 0.75,0.75 0 0 0 15.511719,19.441406 0.75,0.75 0 0 0 14.970703,19.25 Z"
     id="path12" />
  <path
     style="color:#000000;fill:currentColor;stroke-linecap:round;stroke-linejoin:round;-inkscape-stroke:none"
     d="m 17.970703,15.25 a 0.75,0.75 0 0 0 -0.517578,0.246094 l -0.0098,0.01172 a 0.75,0.75 0 0 0 0.05469,1.058593 0.75,0.75 0 0 0 1.058594,-0.05469 L 18.566406,16.5 A 0.75,0.75 0 0 0 18.511719,15.441406 0.75,0.75 0 0 0 17.970703,15.25 Z"
     id="path14" />
  <path
     style="color:#000000;fill:currentColor;stroke-linecap:round;stroke-linejoin:round;-inkscape-stroke:none"
     d="m 21.511719,19.441406 a 0.75,0.75 0 0 0 -1.058594,0.05469 l -0.0098,0.01172 a 0.75,0.75 0 0 0 0.05469,1.058594 0.75,0.75 0 0 0 1.058594,-0.05469 L 21.566406,20.5 a 0.75,0.75 0 0 0 -0.05469,-1.058594 z"
     id="path16" />
  <path
     style="color:#000000;fill:currentColor;stroke-linecap:round;stroke-linejoin:round;-inkscape-stroke:none"
     d="m 12,2.4863281 c -0.336928,-3.4e-6 -0.673063,0.1261536 -0.925781,0.3789063 L 7.96875,5.96875 c -2.2196092,2.2196092 -2.2196092,5.842891 0,8.0625 2.219599,2.219611 5.842892,2.219608 8.0625,0 2.219609,-2.219609 2.219609,-5.8428908 0,-8.0625 L 12.925781,2.8652344 C 12.673067,2.6124734 12.336928,2.4863316 12,2.4863281 Z m 0,1.5742188 2.96875,2.9707031 c 1.646387,1.6463869 1.646387,4.291113 0,5.9375 -1.646388,1.646388 -4.291123,1.646386 -5.9375,0 -1.6463869,-1.646387 -1.6463869,-4.2911131 0,-5.9375 z"
     id="path18" />
</svg>
