<?xml version="1.0" encoding="UTF-8" standalone="no"?>
<svg
   width="24"
   height="24"
   viewBox="0 0 24 24"
   stroke-width="1.5"
   fill="none"
   version="1.1"
   id="svg2"
   sodipodi:docname="web-window.svg"
   inkscape:version="1.3.2 (091e20e, 2023-11-25, custom)"
   xmlns:inkscape="http://www.inkscape.org/namespaces/inkscape"
   xmlns:sodipodi="http://sodipodi.sourceforge.net/DTD/sodipodi-0.dtd"
   xmlns="http://www.w3.org/2000/svg"
   xmlns:svg="http://www.w3.org/2000/svg">
  <defs
     id="defs2" />
  <sodipodi:namedview
     id="namedview2"
     pagecolor="#ffffff"
     bordercolor="#666666"
     borderopacity="1.0"
     inkscape:showpageshadow="2"
     inkscape:pageopacity="0.0"
     inkscape:pagecheckerboard="0"
     inkscape:deskcolor="#d1d1d1"
     inkscape:zoom="33.875"
     inkscape:cx="11.98524"
     inkscape:cy="12"
     inkscape:window-width="1920"
     inkscape:window-height="1009"
     inkscape:window-x="3832"
     inkscape:window-y="-8"
     inkscape:window-maximized="1"
     inkscape:current-layer="svg2" />
  <path
     style="color:#000000;fill:currentColor;stroke-linecap:round;stroke-linejoin:round;-inkscape-stroke:none"
     d="M 5,6.25 A 0.75,0.75 0 0 0 4.25,7 0.75,0.75 0 0 0 5,7.75 H 6 A 0.75,0.75 0 0 0 6.75,7 0.75,0.75 0 0 0 6,6.25 Z"
     id="path1" />
  <path
     style="color:#000000;fill:currentColor;-inkscape-stroke:none"
     d="M 4.2226562,3.25 C 2.5784468,3.25 1.25,4.6287265 1.25,6.2851562 V 17.714844 C 1.25,19.371301 2.5784672,20.75 4.2226562,20.75 H 19.777344 C 21.421533,20.75 22.75,19.371293 22.75,17.714844 V 6.2851562 C 22.75,4.6287344 21.421553,3.25 19.777344,3.25 Z m 0,1.5 H 19.777344 C 20.587732,4.75 21.25,5.4168606 21.25,6.2851562 V 17.714844 C 21.25,18.583192 20.587752,19.25 19.777344,19.25 H 4.2226562 C 3.4122478,19.25 2.75,18.583184 2.75,17.714844 V 6.2851562 C 2.75,5.4168685 3.4122682,4.75 4.2226562,4.75 Z"
     id="path2" />
</svg>
