<?xml version="1.0" encoding="UTF-8" standalone="no"?>
<svg
   width="24"
   height="24"
   viewBox="0 0 24 24"
   stroke-width="1.5"
   fill="none"
   version="1.1"
   id="svg18"
   sodipodi:docname="webp-format.svg"
   inkscape:version="1.2.1 (9c6d41e410, 2022-07-14)"
   xmlns:inkscape="http://www.inkscape.org/namespaces/inkscape"
   xmlns:sodipodi="http://sodipodi.sourceforge.net/DTD/sodipodi-0.dtd"
   xmlns="http://www.w3.org/2000/svg"
   xmlns:svg="http://www.w3.org/2000/svg">
  <defs
     id="defs22" />
  <sodipodi:namedview
     id="namedview20"
     pagecolor="#ffffff"
     bordercolor="#666666"
     borderopacity="1.0"
     inkscape:showpageshadow="2"
     inkscape:pageopacity="0.0"
     inkscape:pagecheckerboard="0"
     inkscape:deskcolor="#d1d1d1"
     showgrid="false"
     inkscape:zoom="34.541667"
     inkscape:cx="10.364294"
     inkscape:cy="12.014475"
     inkscape:window-width="1920"
     inkscape:window-height="1009"
     inkscape:window-x="1912"
     inkscape:window-y="-8"
     inkscape:window-maximized="1"
     inkscape:current-layer="svg18" />
  <path
     style="color:#000000;fill:currentColor;stroke-linecap:round;-inkscape-stroke:none"
     d="M 4.5996094,2.25 C 3.8629077,2.25 3.25,2.8629077 3.25,3.5996094 V 6 A 0.75,0.75 0 0 0 4,6.75 0.75,0.75 0 0 0 4.75,6 V 3.75 h 14.5 V 6 A 0.75,0.75 0 0 0 20,6.75 0.75,0.75 0 0 0 20.75,6 V 3.5996094 C 20.75,2.862953 20.137086,2.25 19.400391,2.25 Z"
     id="path2" />
  <path
     style="color:#000000;fill:currentColor;stroke-linecap:round;-inkscape-stroke:none"
     d="M 4,17.25 A 0.75,0.75 0 0 0 3.25,18 v 2.400391 C 3.25,21.137086 3.862953,21.75 4.5996094,21.75 H 19.400391 C 20.13704,21.75 20.75,21.13704 20.75,20.400391 V 18 A 0.75,0.75 0 0 0 20,17.25 0.75,0.75 0 0 0 19.25,18 v 2.25 H 4.75 V 18 A 0.75,0.75 0 0 0 4,17.25 Z"
     id="path4" />
  <path
     style="color:#000000;fill:currentColor;stroke-linecap:round;stroke-linejoin:round;-inkscape-stroke:none"
     d="M 13.5,8.25 A 0.750075,0.750075 0 0 0 12.75,9 v 3 3 A 0.75,0.75 0 0 0 13.5,15.75 0.75,0.75 0 0 0 14.25,15 V 12 9.75 h 1.5 v 0.75 c 0,0.42304 -0.32696,0.75 -0.75,0.75 A 0.75,0.75 0 0 0 14.25,12 0.75,0.75 0 0 0 15,12.75 c 1.233758,0 2.25,-1.016242 2.25,-2.25 V 9.5996094 C 17.25,8.862953 16.637086,8.25 15.900391,8.25 Z"
     id="path6" />
  <path
     style="color:#000000;fill:currentColor;stroke-linecap:round;stroke-linejoin:round;-inkscape-stroke:none"
     d="M 13.5,11.25 A 0.75,0.75 0 0 0 12.75,12 0.75,0.75 0 0 0 13.5,12.75 H 15 c 0.42304,0 0.75,0.32696 0.75,0.75 v 0.75 H 13.5 A 0.75,0.75 0 0 0 12.75,15 0.75,0.75 0 0 0 13.5,15.75 h 2.400391 C 16.63704,15.75 17.25,15.13704 17.25,14.400391 V 13.5 c 0,-1.233758 -1.016242,-2.25 -2.25,-2.25 z"
     id="path8" />
  <path
     style="color:#000000;fill:currentColor;stroke-linecap:round;stroke-linejoin:round;-inkscape-stroke:none"
     d="M 19.5,8.25 A 0.750075,0.750075 0 0 0 18.75,9 v 3 3 A 0.75,0.75 0 0 0 19.5,15.75 0.75,0.75 0 0 0 20.25,15 V 12.75 H 22.5 A 0.750075,0.750075 0 0 0 23.25,12 V 9 A 0.750075,0.750075 0 0 0 22.5,8.25 Z m 0.75,1.5 h 1.5 v 1.5 h -1.5 z"
     id="path10" />
  <path
     style="color:#000000;fill:currentColor;stroke-linecap:round;stroke-linejoin:round;-inkscape-stroke:none"
     d="M 1.5,8.25 A 0.75,0.75 0 0 0 0.75,9 v 6 a 0.750075,0.750075 0 0 0 1.4199219,0.335938 L 3,13.675781 3.8300781,15.335938 A 0.750075,0.750075 0 0 0 5.25,15 V 9 A 0.75,0.75 0 0 0 4.5,8.25 0.75,0.75 0 0 0 3.75,9 v 2.824219 l -0.080078,-0.160156 a 0.750075,0.750075 0 0 0 -1.3398438,0 L 2.25,11.824219 V 9 A 0.75,0.75 0 0 0 1.5,8.25 Z"
     id="path12" />
  <path
     style="color:#000000;fill:currentColor;stroke-linecap:round;stroke-linejoin:round;-inkscape-stroke:none"
     d="M 7.5,8.25 A 0.750075,0.750075 0 0 0 6.75,9 v 6 a 0.750075,0.750075 0 0 0 0.75,0.75 h 3 A 0.75,0.75 0 0 0 11.25,15 0.75,0.75 0 0 0 10.5,14.25 H 8.25 V 9.75 H 10.5 A 0.75,0.75 0 0 0 11.25,9 0.75,0.75 0 0 0 10.5,8.25 Z"
     id="path14" />
  <path
     style="color:#000000;fill:currentColor;stroke-linecap:round;stroke-linejoin:round;-inkscape-stroke:none"
     d="M 7.5,11.25 A 0.75,0.75 0 0 0 6.75,12 0.75,0.75 0 0 0 7.5,12.75 h 2 A 0.75,0.75 0 0 0 10.25,12 0.75,0.75 0 0 0 9.5,11.25 Z"
     id="path16" />
</svg>
