<?xml version="1.0" encoding="UTF-8" standalone="no"?>
<svg
   width="24"
   height="24"
   stroke-width="1.5"
   viewBox="0 0 24 24"
   fill="none"
   version="1.1"
   id="svg10"
   sodipodi:docname="weight-alt.svg"
   inkscape:version="1.2.1 (9c6d41e410, 2022-07-14)"
   xmlns:inkscape="http://www.inkscape.org/namespaces/inkscape"
   xmlns:sodipodi="http://sodipodi.sourceforge.net/DTD/sodipodi-0.dtd"
   xmlns="http://www.w3.org/2000/svg"
   xmlns:svg="http://www.w3.org/2000/svg">
  <defs
     id="defs14" />
  <sodipodi:namedview
     id="namedview12"
     pagecolor="#ffffff"
     bordercolor="#666666"
     borderopacity="1.0"
     inkscape:showpageshadow="2"
     inkscape:pageopacity="0.0"
     inkscape:pagecheckerboard="0"
     inkscape:deskcolor="#d1d1d1"
     showgrid="false"
     inkscape:zoom="34.541667"
     inkscape:cx="10.364294"
     inkscape:cy="12.014475"
     inkscape:window-width="1920"
     inkscape:window-height="1009"
     inkscape:window-x="1912"
     inkscape:window-y="-8"
     inkscape:window-maximized="1"
     inkscape:current-layer="svg10" />
  <path
     style="color:#000000;fill:currentColor;stroke-linecap:round;stroke-linejoin:round;-inkscape-stroke:none"
     d="M 3.5996094,4.25 C 2.8629077,4.25 2.25,4.8629077 2.25,5.5996094 V 20.400391 C 2.25,21.137086 2.862953,21.75 3.5996094,21.75 H 20.400391 C 21.13704,21.75 21.75,21.13704 21.75,20.400391 V 5.5996094 C 21.75,4.862953 21.137086,4.25 20.400391,4.25 H 16.5 A 0.75,0.75 0 0 0 15.75,5 0.75,0.75 0 0 0 16.5,5.75 h 3.75 v 14.5 H 3.75 V 5.75 H 7.5 A 0.75,0.75 0 0 0 8.25,5 0.75,0.75 0 0 0 7.5,4.25 Z"
     id="path2" />
  <path
     style="color:#000000;fill:currentColor;stroke-linecap:round;stroke-linejoin:round;-inkscape-stroke:none"
     d="M 9.6933594,1.25 C 8.3542037,1.25 7.2025797,2.227895 6.9824219,3.5488281 L 6.7773437,4.7773437 c -0.024473,0.1469065 -0.024473,0.2984061 0,0.4453125 L 6.9824219,6.4511719 C 7.2025797,7.772105 8.3542037,8.75 9.6933594,8.75 h 4.6132816 c 1.339174,0 2.490816,-0.9778687 2.710937,-2.2988281 l 0.205078,-1.2285157 a 0.750075,0.750075 0 0 0 0,-0.00195 c 0.0242,-0.1463546 0.0242,-0.2950516 0,-0.4414062 a 0.750075,0.750075 0 0 0 0,-0.00195 L 17.017578,3.5488281 C 16.797457,2.2278687 15.645815,1.25 14.306641,1.25 Z m 0,1.5 h 4.6132816 c 0.616223,0 1.131143,0.4371432 1.232422,1.0449219 L 15.740234,5 15.539063,6.2050781 C 15.437784,6.8128568 14.922864,7.25 14.306641,7.25 H 9.6933594 C 9.077177,7.25 8.5622394,6.8128831 8.4609375,6.2050781 L 8.2597656,5 8.4609375,3.7949219 C 8.5622394,3.1871169 9.077177,2.75 9.6933594,2.75 Z"
     id="path4" />
  <path
     style="color:#000000;fill:currentColor;stroke-linecap:round;stroke-linejoin:round;-inkscape-stroke:none"
     d="m 10.720703,4.8027344 a 0.75,0.75 0 0 0 -0.417969,0.9765625 l 1,2.5 a 0.75,0.75 0 0 0 0.976563,0.4179687 0.75,0.75 0 0 0 0.417969,-0.9765625 l -1,-2.5 A 0.75,0.75 0 0 0 10.720703,4.8027344 Z"
     id="path6" />
  <path
     style="color:#000000;fill:currentColor;stroke-linecap:round;stroke-linejoin:round;-inkscape-stroke:none"
     d="M 7,16.25 A 0.75,0.75 0 0 0 6.25,17 0.75,0.75 0 0 0 7,17.75 H 17 A 0.75,0.75 0 0 0 17.75,17 0.75,0.75 0 0 0 17,16.25 Z"
     id="path8" />
</svg>
