<?xml version="1.0" encoding="UTF-8" standalone="no"?>
<svg
   width="24"
   height="24"
   viewBox="0 0 24 24"
   stroke-width="1.5"
   fill="none"
   version="1.1"
   id="svg2"
   sodipodi:docname="whatsapp.svg"
   inkscape:version="1.4 (86a8ad7, 2024-10-11)"
   xmlns:inkscape="http://www.inkscape.org/namespaces/inkscape"
   xmlns:sodipodi="http://sodipodi.sourceforge.net/DTD/sodipodi-0.dtd"
   xmlns="http://www.w3.org/2000/svg"
   xmlns:svg="http://www.w3.org/2000/svg">
  <defs
     id="defs2" />
  <sodipodi:namedview
     id="namedview2"
     pagecolor="#ffffff"
     bordercolor="#666666"
     borderopacity="1.0"
     inkscape:showpageshadow="2"
     inkscape:pageopacity="0.0"
     inkscape:pagecheckerboard="0"
     inkscape:deskcolor="#d1d1d1"
     inkscape:zoom="33.625"
     inkscape:cx="11.98513"
     inkscape:cy="12"
     inkscape:window-width="1920"
     inkscape:window-height="1009"
     inkscape:window-x="1912"
     inkscape:window-y="-8"
     inkscape:window-maximized="1"
     inkscape:current-layer="svg2" />
  <path
     style="fill:currentColor;stroke-linecap:round;stroke-linejoin:round"
     d="M 12,1.25 C 6.0718203,1.25 1.25,6.0718203 1.25,12 c 0,1.410765 0.3305347,2.738095 0.8261719,3.974609 l -0.8183594,5.414063 a 0.750075,0.750075 0 0 0 0.8652344,0.851562 L 6.9238281,21.435547 C 8.4403441,22.25293 10.159654,22.75 12,22.75 17.928138,22.75 22.75,17.928138 22.75,12 22.75,6.0718158 17.928133,1.25 12,1.25 Z m 0,1.5 c 5.117467,0 9.25,4.1324842 9.25,9.25 0,5.117462 -4.132538,9.25 -9.25,9.25 -1.687712,0 -3.2645499,-0.449399 -4.625,-1.236328 a 0.750075,0.750075 0 0 0 -0.4980469,-0.0918 L 2.8964844,20.587891 3.5742188,16.111328 A 0.750075,0.750075 0 0 0 3.5195313,15.699219 C 3.024711,14.566735 2.75,13.317823 2.75,12 2.75,6.8824797 6.8824797,2.75 12,2.75 Z"
     id="path1" />
  <path
     style="fill:currentColor;stroke-linecap:round;stroke-linejoin:round"
     d="M 7.9433594,6.25 C 6.9576898,6.25 6.1180969,7.1422711 6.2695312,8.1523438 6.4941513,9.650721 7.131796,12.366567 9.1464844,14.396484 11.245144,16.511047 14.134107,17.361382 15.728516,17.710937 16.773677,17.940155 17.75,17.075624 17.75,16.039062 v -1.824218 a 0.750075,0.750075 0 0 0 -0.480469,-0.699219 l -1.960937,-0.753906 a 0.750075,0.750075 0 0 0 -0.41211,-0.03516 l -2.080078,0.40625 a 0.75,0.75 0 0 0 -0.591797,0.878906 0.75,0.75 0 0 0 0.878907,0.591797 l 1.86914,-0.363282 1.277344,0.490235 v 1.308593 c 0,0.176239 -0.06798,0.235814 -0.199219,0.207032 C 14.59919,15.927849 11.955158,15.097282 10.210938,13.339844 8.5662859,11.682761 7.951893,9.2634303 7.7519531,7.9296875 7.7333074,7.8053201 7.7903089,7.75 7.9433594,7.75 H 9.3164063 L 9.796875,9.0371094 9.4453125,10.933594 a 0.75,0.75 0 0 0 0.6015625,0.873047 0.75,0.75 0 0 0 0.873047,-0.59961 l 0.388672,-2.1015622 a 0.750075,0.750075 0 0 0 -0.0332,-0.3984375 L 10.539063,6.7382812 A 0.750075,0.750075 0 0 0 9.8378906,6.25 Z"
     id="path2" />
</svg>
