<?xml version="1.0" encoding="UTF-8" standalone="no"?>
<svg
   width="24"
   height="24"
   stroke-width="1.5"
   viewBox="0 0 24 24"
   fill="none"
   version="1.1"
   id="svg12"
   sodipodi:docname="wifi-off.svg"
   inkscape:version="1.2.1 (9c6d41e410, 2022-07-14)"
   xmlns:inkscape="http://www.inkscape.org/namespaces/inkscape"
   xmlns:sodipodi="http://sodipodi.sourceforge.net/DTD/sodipodi-0.dtd"
   xmlns="http://www.w3.org/2000/svg"
   xmlns:svg="http://www.w3.org/2000/svg">
  <defs
     id="defs16" />
  <sodipodi:namedview
     id="namedview14"
     pagecolor="#ffffff"
     bordercolor="#666666"
     borderopacity="1.0"
     inkscape:showpageshadow="2"
     inkscape:pageopacity="0.0"
     inkscape:pagecheckerboard="0"
     inkscape:deskcolor="#d1d1d1"
     showgrid="false"
     inkscape:zoom="34.541667"
     inkscape:cx="10.364294"
     inkscape:cy="12.014475"
     inkscape:window-width="1920"
     inkscape:window-height="1009"
     inkscape:window-x="1912"
     inkscape:window-y="-8"
     inkscape:window-maximized="1"
     inkscape:current-layer="svg12" />
  <path
     style="color:#000000;fill:currentColor;stroke-linecap:round;stroke-linejoin:round;-inkscape-stroke:none"
     d="m 11.970703,18.75 a 0.75,0.75 0 0 0 -0.517578,0.246094 l -0.0098,0.01172 a 0.75,0.75 0 0 0 0.05469,1.058594 0.75,0.75 0 0 0 1.058594,-0.05469 L 12.566406,20 A 0.75,0.75 0 0 0 12.511719,18.941406 0.75,0.75 0 0 0 11.970703,18.75 Z"
     id="path2" />
  <path
     style="color:#000000;fill:currentColor;stroke-linecap:round;stroke-linejoin:round;-inkscape-stroke:none"
     d="m 3,2.25 a 0.75,0.75 0 0 0 -0.53125,0.21875 0.75,0.75 0 0 0 0,1.0625 l 18,18 a 0.75,0.75 0 0 0 1.0625,0 0.75,0.75 0 0 0 0,-1.0625 l -18,-18 A 0.75,0.75 0 0 0 3,2.25 Z"
     id="path4" />
  <path
     style="color:#000000;fill:currentColor;stroke-linecap:round;stroke-linejoin:round;-inkscape-stroke:none"
     d="M 13.173828,3.9160156 C 12.085782,3.84091 10.992238,3.8702406 9.9082031,4.0039062 A 0.75,0.75 0 0 0 9.2558594,4.8398437 0.75,0.75 0 0 0 10.091797,5.4921875 c 3.956051,-0.4877963 8.039016,0.5424267 11.458984,3.1074219 A 0.75,0.75 0 0 0 22.599609,8.4492188 0.75,0.75 0 0 0 22.449219,7.4003906 C 19.6556,5.3051611 16.437966,4.1413325 13.173828,3.9160156 Z m -7.7011718,1.25 C 4.103864,5.7278399 2.7860903,6.4739089 1.5507812,7.4003906 A 0.75,0.75 0 0 0 1.4003906,8.4492188 0.75,0.75 0 0 0 2.4492188,8.5996094 C 3.5834274,7.7489529 4.7919236,7.0681822 6.0429687,6.5546875 A 0.75,0.75 0 0 0 6.4511719,5.5761719 0.75,0.75 0 0 0 5.4726562,5.1660156 Z"
     id="path6" />
  <path
     style="color:#000000;fill:currentColor;stroke-linecap:round;stroke-linejoin:round;-inkscape-stroke:none"
     d="M 9.3671875,9.265625 C 7.6370402,9.6194942 5.9800708,10.328397 4.5507812,11.400391 a 0.75,0.75 0 0 0 -0.1503906,1.048828 0.75,0.75 0 0 0 1.0488281,0.15039 C 6.6865265,11.671605 8.1389593,11.047105 9.6679688,10.734375 A 0.75,0.75 0 0 0 10.253906,9.8496094 0.75,0.75 0 0 0 9.3671875,9.265625 Z m 5.5156255,0.052734 a 0.75,0.75 0 0 0 -0.896485,0.5683594 0.75,0.75 0 0 0 0.566406,0.8964842 c 1.447669,0.326415 2.82077,0.933495 3.998047,1.816406 a 0.75,0.75 0 0 0 1.048828,-0.15039 0.75,0.75 0 0 0 -0.15039,-1.048828 C 18.089298,10.380504 16.521941,9.6879438 14.882813,9.3183594 Z"
     id="path8" />
  <path
     style="color:#000000;fill:currentColor;stroke-linecap:round;stroke-linejoin:round;-inkscape-stroke:none"
     d="m 12,13.714844 c -1.332673,5.1e-5 -2.665568,0.38267 -3.8964844,1.148437 a 0.75,0.75 0 0 0 -0.2402344,1.033203 0.75,0.75 0 0 0 1.0332032,0.240235 c 2.0389626,-1.268463 4.1682976,-1.268739 6.2070316,0 a 0.75,0.75 0 0 0 1.033203,-0.240235 0.75,0.75 0 0 0 -0.240235,-1.033203 C 14.665553,14.097252 13.332673,13.714793 12,13.714844 Z"
     id="path10" />
</svg>
