<?xml version="1.0" encoding="UTF-8" standalone="no"?>
<svg
   width="24"
   height="24"
   stroke-width="1.5"
   viewBox="0 0 24 24"
   fill="none"
   version="1.1"
   id="svg10"
   sodipodi:docname="wifi-tag.svg"
   inkscape:version="1.2.1 (9c6d41e410, 2022-07-14)"
   xmlns:inkscape="http://www.inkscape.org/namespaces/inkscape"
   xmlns:sodipodi="http://sodipodi.sourceforge.net/DTD/sodipodi-0.dtd"
   xmlns="http://www.w3.org/2000/svg"
   xmlns:svg="http://www.w3.org/2000/svg">
  <defs
     id="defs14" />
  <sodipodi:namedview
     id="namedview12"
     pagecolor="#ffffff"
     bordercolor="#666666"
     borderopacity="1.0"
     inkscape:showpageshadow="2"
     inkscape:pageopacity="0.0"
     inkscape:pagecheckerboard="0"
     inkscape:deskcolor="#d1d1d1"
     showgrid="false"
     inkscape:zoom="34.541667"
     inkscape:cx="10.364294"
     inkscape:cy="12.014475"
     inkscape:window-width="1920"
     inkscape:window-height="1009"
     inkscape:window-x="1912"
     inkscape:window-y="-8"
     inkscape:window-maximized="1"
     inkscape:current-layer="svg10" />
  <path
     style="color:#000000;fill:currentColor;-inkscape-stroke:none"
     d="M 8,2.25 C 4.280964,2.25 1.25,5.280964 1.25,9 v 6 c 0,3.719027 3.0309625,6.75 6.75,6.75 h 8 c 3.719029,0 6.75,-3.030971 6.75,-6.75 V 9 C 22.75,5.2809625 19.719027,2.25 16,2.25 Z m 0,1.5 h 8 c 2.908366,0 5.25,2.3416241 5.25,5.25 v 6 c 0,2.908365 -2.341635,5.25 -5.25,5.25 H 8 C 5.0916241,20.25 2.75,17.908366 2.75,15 V 9 C 2.75,6.0916226 5.0916226,3.75 8,3.75 Z"
     id="path2" />
  <path
     style="color:#000000;fill:currentColor;stroke-linecap:round;stroke-linejoin:round;-inkscape-stroke:none"
     d="m 11.970703,14 a 0.75,0.75 0 0 0 -0.517578,0.246094 l -0.0098,0.01172 a 0.75,0.75 0 0 0 0.05469,1.058593 0.75,0.75 0 0 0 1.058594,-0.05469 L 12.566406,15.25 A 0.75,0.75 0 0 0 12.511719,14.191406 0.75,0.75 0 0 0 11.970703,14 Z"
     id="path4" />
  <path
     style="color:#000000;fill:currentColor;stroke-linecap:round;stroke-linejoin:round;-inkscape-stroke:none"
     d="M 12,8.2363281 C 9.9156336,8.2363148 7.8312533,9.080683 6.4238281,10.769531 a 0.75,0.75 0 0 0 0.095703,1.056641 0.75,0.75 0 0 0 1.0566407,-0.0957 c 2.1851446,-2.6220777 6.6625041,-2.6221833 8.8476561,0 a 0.75,0.75 0 0 0 1.056641,0.0957 0.75,0.75 0 0 0 0.0957,-1.056641 C 16.168751,9.0806258 14.084366,8.2363414 12,8.2363281 Z"
     id="path6" />
  <path
     style="color:#000000;fill:currentColor;stroke-linecap:round;stroke-linejoin:round;-inkscape-stroke:none"
     d="m 12,11.011719 c -1.352999,0 -2.7056103,0.597063 -3.5996094,1.789062 a 0.75,0.75 0 0 0 0.1503907,1.048828 0.75,0.75 0 0 0 1.0488281,-0.15039 c 1.2119986,-1.615999 3.5887826,-1.615999 4.8007816,0 a 0.75,0.75 0 0 0 1.048828,0.15039 0.75,0.75 0 0 0 0.15039,-1.048828 C 14.70561,11.608782 13.352999,11.011719 12,11.011719 Z"
     id="path8" />
</svg>
