<?xml version="1.0" encoding="UTF-8" standalone="no"?>
<svg
   width="24"
   height="24"
   stroke-width="1.5"
   viewBox="0 0 24 24"
   fill="none"
   version="1.1"
   id="svg10"
   sodipodi:docname="wifi.svg"
   inkscape:version="1.2.1 (9c6d41e410, 2022-07-14)"
   xmlns:inkscape="http://www.inkscape.org/namespaces/inkscape"
   xmlns:sodipodi="http://sodipodi.sourceforge.net/DTD/sodipodi-0.dtd"
   xmlns="http://www.w3.org/2000/svg"
   xmlns:svg="http://www.w3.org/2000/svg">
  <defs
     id="defs14" />
  <sodipodi:namedview
     id="namedview12"
     pagecolor="#ffffff"
     bordercolor="#666666"
     borderopacity="1.0"
     inkscape:showpageshadow="2"
     inkscape:pageopacity="0.0"
     inkscape:pagecheckerboard="0"
     inkscape:deskcolor="#d1d1d1"
     showgrid="false"
     inkscape:zoom="34.541667"
     inkscape:cx="10.364294"
     inkscape:cy="12.014475"
     inkscape:window-width="1920"
     inkscape:window-height="1009"
     inkscape:window-x="1912"
     inkscape:window-y="-8"
     inkscape:window-maximized="1"
     inkscape:current-layer="svg10" />
  <path
     style="color:#000000;fill:currentColor;stroke-linecap:round;stroke-linejoin:round;-inkscape-stroke:none"
     d="m 11.970703,18.75 a 0.75,0.75 0 0 0 -0.517578,0.246094 l -0.0098,0.01172 a 0.75,0.75 0 0 0 0.05469,1.058594 0.75,0.75 0 0 0 1.058594,-0.05469 L 12.566406,20 A 0.75,0.75 0 0 0 12.511719,18.941406 0.75,0.75 0 0 0 11.970703,18.75 Z"
     id="path2" />
  <path
     style="color:#000000;fill:currentColor;stroke-linecap:round;stroke-linejoin:round;-inkscape-stroke:none"
     d="m 12,3.8808594 c -3.6609963,0 -7.3212219,1.1735336 -10.4492188,3.5195312 A 0.75,0.75 0 0 0 1.4003906,8.4492188 0.75,0.75 0 0 0 2.4492188,8.5996094 c 5.7439942,-4.3079957 13.3575682,-4.3079957 19.1015622,0 A 0.75,0.75 0 0 0 22.599609,8.4492188 0.75,0.75 0 0 0 22.449219,7.4003906 C 19.321222,5.054393 15.660996,3.8808594 12,3.8808594 Z"
     id="path4" />
  <path
     style="color:#000000;fill:currentColor;stroke-linecap:round;stroke-linejoin:round;-inkscape-stroke:none"
     d="m 12,8.9882813 c -2.6529973,0 -5.3052209,0.8041109 -7.4492188,2.4121097 a 0.75,0.75 0 0 0 -0.1503906,1.048828 0.75,0.75 0 0 0 1.0488281,0.15039 c 3.7119963,-2.7839968 9.3895663,-2.7839968 13.1015623,0 a 0.75,0.75 0 0 0 1.048828,-0.15039 0.75,0.75 0 0 0 -0.15039,-1.048828 C 17.305221,9.7923922 14.652997,8.9882813 12,8.9882813 Z"
     id="path6" />
  <path
     style="color:#000000;fill:currentColor;stroke-linecap:round;stroke-linejoin:round;-inkscape-stroke:none"
     d="m 12,13.714844 c -1.332673,5.1e-5 -2.665568,0.38267 -3.8964844,1.148437 a 0.75,0.75 0 0 0 -0.2402344,1.033203 0.75,0.75 0 0 0 1.0332032,0.240235 c 2.0389626,-1.268463 4.1682976,-1.268739 6.2070316,0 a 0.75,0.75 0 0 0 1.033203,-0.240235 0.75,0.75 0 0 0 -0.240235,-1.033203 C 14.665553,14.097252 13.332673,13.714793 12,13.714844 Z"
     id="path8" />
</svg>
