<?xml version="1.0" encoding="UTF-8" standalone="no"?>
<svg
   width="24"
   height="24"
   stroke-width="1.5"
   viewBox="0 0 24 24"
   fill="none"
   version="1.1"
   id="svg8"
   sodipodi:docname="wind.svg"
   inkscape:version="1.2.1 (9c6d41e410, 2022-07-14)"
   xmlns:inkscape="http://www.inkscape.org/namespaces/inkscape"
   xmlns:sodipodi="http://sodipodi.sourceforge.net/DTD/sodipodi-0.dtd"
   xmlns="http://www.w3.org/2000/svg"
   xmlns:svg="http://www.w3.org/2000/svg">
  <defs
     id="defs12" />
  <sodipodi:namedview
     id="namedview10"
     pagecolor="#ffffff"
     bordercolor="#666666"
     borderopacity="1.0"
     inkscape:showpageshadow="2"
     inkscape:pageopacity="0.0"
     inkscape:pagecheckerboard="0"
     inkscape:deskcolor="#d1d1d1"
     showgrid="false"
     inkscape:zoom="34.541667"
     inkscape:cx="10.364294"
     inkscape:cy="12.014475"
     inkscape:window-width="1920"
     inkscape:window-height="1009"
     inkscape:window-x="1912"
     inkscape:window-y="-8"
     inkscape:window-maximized="1"
     inkscape:current-layer="svg8" />
  <path
     style="color:#000000;fill:currentColor;stroke-linecap:round;stroke-linejoin:round;-inkscape-stroke:none"
     d="m 18.279297,6.25 a 0.75,0.75 0 0 0 -0.75,0.75 0.75,0.75 0 0 0 0.75,0.75 C 19.410069,7.75 20.25,8.5605132 20.25,9.5 c 0,0.939474 -0.839935,1.75 -1.970703,1.75 H 3 A 0.75,0.75 0 0 0 2.25,12 0.75,0.75 0 0 0 3,12.75 H 18.279297 C 20.154726,12.75 21.75,11.321924 21.75,9.5 21.75,7.6780696 20.154722,6.25 18.279297,6.25 Z"
     id="path2" />
  <path
     style="color:#000000;fill:currentColor;stroke-linecap:round;stroke-linejoin:round;-inkscape-stroke:none"
     d="M 3,14.25 A 0.75,0.75 0 0 0 2.25,15 0.75,0.75 0 0 0 3,15.75 h 14.9375 c 0.459814,0 0.942392,0.112207 1.257812,0.349609 C 19.510733,16.337011 19.75,16.677926 19.75,17.5 c 0,0.822074 -0.239267,1.162989 -0.554688,1.400391 C 18.879892,19.137793 18.397314,19.25 17.9375,19.25 a 0.75,0.75 0 0 0 -0.75,0.75 0.75,0.75 0 0 0 0.75,0.75 c 0.679285,0 1.479102,-0.137793 2.160156,-0.650391 C 20.77871,19.587012 21.25,18.677924 21.25,17.5 21.25,16.322076 20.77871,15.412988 20.097656,14.900391 19.416602,14.387793 18.616785,14.25 17.9375,14.25 Z"
     id="path4" />
  <path
     style="color:#000000;fill:currentColor;stroke-linecap:round;stroke-linejoin:round;-inkscape-stroke:none"
     d="M 10.412109,3.25 A 0.75,0.75 0 0 0 9.6621094,4 0.75,0.75 0 0 0 10.412109,4.75 C 11.449984,4.75 12.25,5.5389301 12.25,6.5 c 0,0.9610699 -0.800016,1.75 -1.837891,1.75 H 3 A 0.75,0.75 0 0 0 2.25,9 0.75,0.75 0 0 0 3,9.75 h 7.412109 C 12.233032,9.75 13.75,8.3003474 13.75,6.5 13.75,4.6996526 12.233032,3.25 10.412109,3.25 Z"
     id="path6" />
</svg>
