<?xml version="1.0" encoding="UTF-8" standalone="no"?>
<svg
   width="24"
   height="24"
   viewBox="0 0 24 24"
   stroke-width="1.5"
   fill="none"
   version="1.1"
   id="svg10"
   sodipodi:docname="wolf.svg"
   inkscape:version="1.2.1 (9c6d41e410, 2022-07-14)"
   xmlns:inkscape="http://www.inkscape.org/namespaces/inkscape"
   xmlns:sodipodi="http://sodipodi.sourceforge.net/DTD/sodipodi-0.dtd"
   xmlns="http://www.w3.org/2000/svg"
   xmlns:svg="http://www.w3.org/2000/svg">
  <defs
     id="defs14" />
  <sodipodi:namedview
     id="namedview12"
     pagecolor="#ffffff"
     bordercolor="#666666"
     borderopacity="1.0"
     inkscape:showpageshadow="2"
     inkscape:pageopacity="0.0"
     inkscape:pagecheckerboard="0"
     inkscape:deskcolor="#d1d1d1"
     showgrid="false"
     inkscape:zoom="34.541667"
     inkscape:cx="10.364294"
     inkscape:cy="12.014475"
     inkscape:window-width="1920"
     inkscape:window-height="1009"
     inkscape:window-x="1912"
     inkscape:window-y="-8"
     inkscape:window-maximized="1"
     inkscape:current-layer="svg10" />
  <path
     style="color:#000000;fill:currentColor;stroke-linecap:round;stroke-linejoin:round;-inkscape-stroke:none"
     d="M 18.980469,1.328125 C 18.284483,1.6718244 17.329034,2.3612331 16.474609,2.9941406 15.83481,3.4680659 15.543388,3.7005017 15.302734,3.8886719 14.76347,3.5628734 13.587095,2.9160156 12,2.9160156 c -1.585031,0 -2.7598935,0.6441904 -3.3007812,0.9707032 C 8.458941,3.6982657 8.1704277,3.4688666 7.546875,2.9980469 6.7115584,2.3673327 5.7876431,1.6844854 5.1796875,1.3457031 A 0.750075,0.750075 0 0 0 4.1894531,1.5859375 C 2.6239715,3.9520374 2.562201,5.9128932 3,7.2363281 3.2568255,8.012693 3.6285628,8.5023957 3.9355469,8.8359375 3.1400703,10.452058 2.25,12.727849 2.25,15.333984 a 0.750075,0.750075 0 0 0 0.75,0.75 c 2.4174422,0 3.7813541,1.287499 3.890625,1.392578 0.062674,0.258717 0.2620533,1.186361 0.9394531,2.390625 C 8.5960504,21.228914 9.9421278,22.75 12,22.75 c 2.057868,0 3.403951,-1.521087 4.169922,-2.882813 0.677398,-1.204264 0.876779,-2.131908 0.939453,-2.390625 C 17.218647,17.371483 18.582558,16.083984 21,16.083984 a 0.750075,0.750075 0 0 0 0.75,-0.75 c 0,-2.605355 -0.890272,-4.880015 -1.685547,-6.4960934 0.307534,-0.3319497 0.680361,-0.820585 0.947266,-1.59375 0.454853,-1.3176124 0.433197,-3.2747262 -1.066407,-5.6445312 A 0.750075,0.750075 0 0 0 18.980469,1.328125 Z m -0.0059,1.7949219 c 0.818053,1.6254299 0.88829,2.8531463 0.619141,3.6328125 C 19.46466,7.1298055 19.392903,7.0882645 19.238281,7.2988281 19.096326,7.0799828 18.794922,6.5605469 18.794922,6.5605469 a 0.75,0.75 0 0 0 -1.046875,-0.1679688 0.75,0.75 0 0 0 -0.167969,1.046875 c 0,0 0.418391,0.5773018 0.939453,1.5742188 0.706629,1.3520381 1.479845,3.4632571 1.626953,5.6894531 -2.568229,0.309126 -4.173828,1.763672 -4.173828,1.763672 a 0.750075,0.750075 0 0 0 -0.205078,0.36914 c 0,0 -0.265972,1.158604 -0.90625,2.296875 C 14.22105,20.271084 13.317128,21.25 12,21.25 c -1.317134,0 -2.2210493,-0.978916 -2.8613281,-2.117188 -0.6402789,-1.138271 -0.90625,-2.296875 -0.90625,-2.296875 a 0.750075,0.750075 0 0 0 -0.2050781,-0.36914 c 0,0 -1.6056005,-1.454546 -4.1738282,-1.763672 C 4.0006237,12.476929 4.7738258,10.365705 5.4804687,9.0136719 6.0015238,8.0167508 6.4199219,7.4394531 6.4199219,7.4394531 A 0.75,0.75 0 0 0 6.2519531,6.3925781 0.75,0.75 0 0 0 5.2050781,6.5605469 c 0,0 -0.3000568,0.5158271 -0.4394531,0.7304687 C 4.6168087,7.0832097 4.5459177,7.1268358 4.4257812,6.7636719 4.1691625,5.9879318 4.264211,4.7617087 5.1308594,3.1308594 c 0.4722378,0.3202553 0.9456801,0.63706 1.5117187,1.0644531 0.8201793,0.6192846 1.5175781,1.171875 1.5175782,1.171875 a 0.750075,0.750075 0 0 0 0.8769531,0.037109 c 0,0 1.6046096,-0.9882813 2.9628906,-0.9882813 1.358281,0 2.962891,0.9882813 2.962891,0.9882813 a 0.750075,0.750075 0 0 0 0.876953,-0.037109 c 0,0 0.696223,-0.5508775 1.529297,-1.1679688 0.587546,-0.4352198 1.106565,-0.7592533 1.605468,-1.0761718 z"
     id="path2" />
  <path
     style="color:#000000;fill:currentColor;stroke-linecap:round;stroke-linejoin:round;-inkscape-stroke:none"
     d="M 11,17.25 A 0.75,0.75 0 0 0 10.25,18 0.75,0.75 0 0 0 11,18.75 h 0.25 V 19 A 0.75,0.75 0 0 0 12,19.75 0.75,0.75 0 0 0 12.75,19 V 18.75 H 13 A 0.75,0.75 0 0 0 13.75,18 0.75,0.75 0 0 0 13,17.25 h -1 z"
     id="path4" />
  <path
     style="color:#000000;fill:currentColor;stroke-linecap:round;stroke-linejoin:round;-inkscape-stroke:none"
     d="m 8.5,11.75 a 0.75,0.75 0 0 0 -0.53125,0.21875 0.75,0.75 0 0 0 0,1.0625 l 1.5,1.5 a 0.75,0.75 0 0 0 1.0625,0 0.75,0.75 0 0 0 0,-1.0625 l -1.5,-1.5 A 0.75,0.75 0 0 0 8.5,11.75 Z"
     id="path6" />
  <path
     style="color:#000000;fill:currentColor;stroke-linecap:round;stroke-linejoin:round;-inkscape-stroke:none"
     d="m 15.5,11.75 a 0.75,0.75 0 0 0 -0.53125,0.21875 l -1.5,1.5 a 0.75,0.75 0 0 0 0,1.0625 0.75,0.75 0 0 0 1.0625,0 l 1.5,-1.5 a 0.75,0.75 0 0 0 0,-1.0625 A 0.75,0.75 0 0 0 15.5,11.75 Z"
     id="path8" />
</svg>
