<?xml version="1.0" encoding="UTF-8" standalone="no"?>
<svg
   width="24"
   height="24"
   viewBox="0 0 24 24"
   stroke-width="1.5"
   fill="none"
   version="1.1"
   id="svg13"
   sodipodi:docname="wrench.svg"
   inkscape:version="1.2.1 (9c6d41e410, 2022-07-14)"
   xmlns:inkscape="http://www.inkscape.org/namespaces/inkscape"
   xmlns:sodipodi="http://sodipodi.sourceforge.net/DTD/sodipodi-0.dtd"
   xmlns="http://www.w3.org/2000/svg"
   xmlns:svg="http://www.w3.org/2000/svg">
  <sodipodi:namedview
     id="namedview15"
     pagecolor="#ffffff"
     bordercolor="#666666"
     borderopacity="1.0"
     inkscape:showpageshadow="2"
     inkscape:pageopacity="0.0"
     inkscape:pagecheckerboard="0"
     inkscape:deskcolor="#d1d1d1"
     showgrid="false"
     inkscape:zoom="34.541667"
     inkscape:cx="10.364294"
     inkscape:cy="12.014475"
     inkscape:window-width="1920"
     inkscape:window-height="1009"
     inkscape:window-x="1912"
     inkscape:window-y="-8"
     inkscape:window-maximized="1"
     inkscape:current-layer="svg13" />
  <path
     style="color:#000000;fill:currentColor;stroke-linecap:round;stroke-linejoin:round;-inkscape-stroke:none"
     d="M 10.050781,9.8574219 A 0.75,0.75 0 0 0 9.5195313,10.076172 l -7.0703125,7.070312 c -1.0676809,1.067613 -1.0676258,2.822931 0,3.890625 1.067661,1.067607 2.8210026,1.067601 3.8886718,0 l 7.0703124,-7.072265 a 0.75,0.75 0 0 0 0,-1.060547 0.75,0.75 0 0 0 -1.060547,0 l -7.0703123,7.072265 c -0.4944291,0.494398 -1.2731607,0.494393 -1.7675781,0 -0.4944726,-0.494504 -0.4944176,-1.273192 0,-1.767578 l 7.0703124,-7.072265 a 0.75,0.75 0 0 0 0,-1.060547 0.75,0.75 0 0 0 -0.529297,-0.2187501 z"
     id="path2" />
  <path
     style="color:#000000;fill:currentColor;stroke-linecap:round;stroke-linejoin:round;-inkscape-stroke:none"
     d="M 16.390625,1.5546875 C 15.733299,1.4566829 15.040482,1.4663086 14.351563,1.5664062 12.973723,1.7666015 11.593545,2.3458969 10.580078,3.359375 8.5701928,5.3692026 8.4142949,8.4894065 9.3515625,10.880859 a 0.75,0.75 0 0 0 0.9726565,0.423829 0.75,0.75 0 0 0 0.423828,-0.972657 C 9.9976761,8.4174485 10.171394,5.8891108 11.640625,4.4199219 c 0.726032,-0.7260402 1.821698,-1.2087213 2.925781,-1.3691406 0.663331,-0.09638 1.160625,0.1288731 1.728516,0.2519531 l -2.037109,2.0351562 a 0.750075,0.750075 0 0 0 -0.216797,0.4628906 l -0.283203,3.1113282 a 0.750075,0.750075 0 0 0 0.814453,0.8144531 l 3.111328,-0.28125 a 0.750075,0.750075 0 0 0 0.46289,-0.2167969 l 2.035157,-2.0351562 c 0.122588,0.5672931 0.348186,1.062299 0.251953,1.7246094 -0.160424,1.1040952 -0.641116,2.1997512 -1.367188,2.9257812 -1.469176,1.469176 -3.999522,1.64301 -5.914062,0.892578 a 0.75,0.75 0 0 0 -0.972656,0.425781 0.75,0.75 0 0 0 0.425781,0.970704 c 2.391456,0.937366 5.511664,0.781304 7.521484,-1.228516 1.013527,-1.013468 1.590815,-2.391672 1.791016,-3.7695314 C 22.11817,7.7569061 21.954612,6.361164 21.300781,5.2714844 A 0.750075,0.750075 0 0 0 20.126953,5.1269531 L 17.277344,7.9746094 15.333984,8.1503906 15.509766,6.2070312 18.359375,3.359375 A 0.750075,0.750075 0 0 0 18.214844,2.1855469 C 17.670001,1.8586471 17.047951,1.6526921 16.390625,1.5546875 Z"
     id="path4" />
  <defs
     id="defs11">
    <clipPath
       clipPathUnits="userSpaceOnUse"
       id="clipPath196">
      <g
         id="g200">
        <rect
           width="24"
           height="24"
           fill="#ffffff"
           id="rect198"
           x="0"
           y="0" />
      </g>
    </clipPath>
    <clipPath
       clipPathUnits="userSpaceOnUse"
       id="clipPath202">
      <g
         id="g206">
        <rect
           width="24"
           height="24"
           fill="#ffffff"
           id="rect204"
           x="0"
           y="0" />
      </g>
    </clipPath>
  </defs>
</svg>
