<?xml version="1.0" encoding="UTF-8" standalone="no"?>
<svg
   width="24"
   height="24"
   stroke-width="1.5"
   viewBox="0 0 24 24"
   fill="none"
   version="1.1"
   id="svg20"
   sodipodi:docname="www.svg"
   inkscape:version="1.2.1 (9c6d41e410, 2022-07-14)"
   xmlns:inkscape="http://www.inkscape.org/namespaces/inkscape"
   xmlns:sodipodi="http://sodipodi.sourceforge.net/DTD/sodipodi-0.dtd"
   xmlns="http://www.w3.org/2000/svg"
   xmlns:svg="http://www.w3.org/2000/svg">
  <defs
     id="defs24" />
  <sodipodi:namedview
     id="namedview22"
     pagecolor="#ffffff"
     bordercolor="#666666"
     borderopacity="1.0"
     inkscape:showpageshadow="2"
     inkscape:pageopacity="0.0"
     inkscape:pagecheckerboard="0"
     inkscape:deskcolor="#d1d1d1"
     showgrid="false"
     inkscape:zoom="34.541667"
     inkscape:cx="10.364294"
     inkscape:cy="12.014475"
     inkscape:window-width="1920"
     inkscape:window-height="1009"
     inkscape:window-x="1912"
     inkscape:window-y="-8"
     inkscape:window-maximized="1"
     inkscape:current-layer="svg20" />
  <path
     style="color:#000000;fill:currentColor;stroke-linecap:round;stroke-linejoin:round;-inkscape-stroke:none"
     d="M 3.53125,16.275391 A 0.75,0.75 0 0 0 2.9628906,16.351562 0.75,0.75 0 0 0 2.6894531,17.375 C 4.5483156,20.588406 8.0269129,22.75 12,22.75 c 3.97305,0 7.451734,-2.161587 9.310547,-5.375 A 0.75,0.75 0 0 0 21.037109,16.351562 0.75,0.75 0 0 0 20.013672,16.625 C 18.414488,19.389582 15.429743,21.25 12,21.25 8.5702145,21.25 5.5855622,19.389588 3.9863281,16.625 A 0.75,0.75 0 0 0 3.53125,16.275391 Z"
     id="path2" />
  <path
     style="color:#000000;fill:currentColor;stroke-linecap:round;stroke-linejoin:round;-inkscape-stroke:none"
     d="M 12,1.25 C 8.0269143,1.25 4.5483157,3.411583 2.6894531,6.625 A 0.75,0.75 0 0 0 2.9628906,7.6484375 0.75,0.75 0 0 0 3.9863281,7.375 C 5.5855621,4.610403 8.5702131,2.75 12,2.75 c 3.429744,0 6.414488,1.8604094 8.013672,4.625 A 0.75,0.75 0 0 0 21.037109,7.6484375 0.75,0.75 0 0 0 21.310547,6.625 C 19.451734,3.4115766 15.973049,1.25 12,1.25 Z"
     id="path4" />
  <path
     style="color:#000000;fill:currentColor;stroke-linecap:round;stroke-linejoin:round;-inkscape-stroke:none"
     d="m 15.501953,16.279297 a 0.75,0.75 0 0 0 -0.927734,0.513672 c -0.850772,2.970888 -2.171875,4.703125 -2.171875,4.703125 a 0.75,0.75 0 0 0 0.144531,1.052734 0.75,0.75 0 0 0 1.050781,-0.144531 c 0,0 1.495142,-1.97476 2.417969,-5.197266 a 0.75,0.75 0 0 0 -0.513672,-0.927734 z"
     id="path6" />
  <path
     style="color:#000000;fill:currentColor;stroke-linecap:round;stroke-linejoin:round;-inkscape-stroke:none"
     d="m 13.101563,1.3066406 a 0.75,0.75 0 0 0 -0.554688,0.1445313 0.75,0.75 0 0 0 -0.144531,1.0507812 c 0,0 1.321104,1.7341714 2.171875,4.7050781 a 0.75,0.75 0 0 0 0.927734,0.5136719 0.75,0.75 0 0 0 0.513672,-0.9277344 C 15.092798,3.5704417 13.597656,1.5957031 13.597656,1.5957031 A 0.75,0.75 0 0 0 13.101563,1.3066406 Z"
     id="path8" />
  <path
     style="color:#000000;fill:currentColor;stroke-linecap:round;stroke-linejoin:round;-inkscape-stroke:none"
     d="M 8.4980469,16.279297 A 0.75,0.75 0 0 0 7.984375,17.207031 c 0.922855,3.222495 2.417969,5.197266 2.417969,5.197266 a 0.75,0.75 0 0 0 1.050781,0.144531 0.75,0.75 0 0 0 0.144531,-1.052734 c 0,0 -1.321072,-1.732226 -2.1718747,-4.703125 A 0.75,0.75 0 0 0 8.4980469,16.279297 Z"
     id="path10" />
  <path
     style="color:#000000;fill:currentColor;stroke-linecap:round;stroke-linejoin:round;-inkscape-stroke:none"
     d="m 11.453125,1.4511719 a 0.75,0.75 0 0 0 -1.050781,0.1445312 c 0,0 -1.4951138,1.9747493 -2.417969,5.1972656 A 0.75,0.75 0 0 0 8.4980469,7.7207031 0.75,0.75 0 0 0 9.4257813,7.2070312 C 10.276584,4.2361138 11.597656,2.5019531 11.597656,2.5019531 A 0.75,0.75 0 0 0 11.453125,1.4511719 Z"
     id="path12" />
  <path
     style="color:#000000;fill:currentColor;stroke-linecap:round;stroke-linejoin:round;-inkscape-stroke:none"
     d="M 12,9.25 A 0.750075,0.750075 0 0 0 11.28125,9.7851563 L 10.5,12.388672 9.71875,9.7851563 A 0.75,0.75 0 0 0 8.7851563,9.28125 0.75,0.75 0 0 0 8.28125,10.214844 l 1.5,5 a 0.750075,0.750075 0 0 0 1.4375,0 L 12,12.611328 l 0.78125,2.603516 a 0.750075,0.750075 0 0 0 1.4375,0 l 1.5,-5 A 0.75,0.75 0 0 0 15.214844,9.28125 0.75,0.75 0 0 0 14.28125,9.7851563 L 13.5,12.388672 12.71875,9.7851563 A 0.750075,0.750075 0 0 0 12,9.25 Z"
     id="path14" />
  <path
     style="color:#000000;fill:currentColor;stroke-linecap:round;stroke-linejoin:round;-inkscape-stroke:none"
     d="M 4,9.25 A 0.750075,0.750075 0 0 0 3.28125,9.7851563 L 2.5,12.388672 1.71875,9.7851563 A 0.75,0.75 0 0 0 0.78515625,9.28125 0.75,0.75 0 0 0 0.28125,10.214844 l 1.5,5 a 0.750075,0.750075 0 0 0 1.4375,0 L 4,12.611328 4.78125,15.214844 a 0.750075,0.750075 0 0 0 1.4375,0 l 1.5,-5 A 0.75,0.75 0 0 0 7.2148437,9.28125 0.75,0.75 0 0 0 6.28125,9.7851563 L 5.5,12.388672 4.71875,9.7851563 A 0.750075,0.750075 0 0 0 4,9.25 Z"
     id="path16" />
  <path
     style="color:#000000;fill:currentColor;stroke-linecap:round;stroke-linejoin:round;-inkscape-stroke:none"
     d="M 20,9.25 A 0.750075,0.750075 0 0 0 19.28125,9.7851563 L 18.5,12.388672 17.71875,9.7851563 A 0.75,0.75 0 0 0 16.785156,9.28125 0.75,0.75 0 0 0 16.28125,10.214844 l 1.5,5 a 0.750075,0.750075 0 0 0 1.4375,0 L 20,12.611328 l 0.78125,2.603516 a 0.750075,0.750075 0 0 0 1.4375,0 l 1.5,-5 A 0.75,0.75 0 0 0 23.214844,9.28125 0.75,0.75 0 0 0 22.28125,9.7851563 L 21.5,12.388672 20.71875,9.7851563 A 0.750075,0.750075 0 0 0 20,9.25 Z"
     id="path18" />
</svg>
