<?xml version="1.0" encoding="UTF-8" standalone="no"?>
<svg
   width="24"
   height="24"
   viewBox="0 0 24 24"
   stroke-width="1.5"
   fill="none"
   version="1.1"
   id="svg2"
   sodipodi:docname="x.svg"
   inkscape:version="1.3.1 (91b66b0783, 2023-11-16)"
   xmlns:inkscape="http://www.inkscape.org/namespaces/inkscape"
   xmlns:sodipodi="http://sodipodi.sourceforge.net/DTD/sodipodi-0.dtd"
   xmlns="http://www.w3.org/2000/svg"
   xmlns:svg="http://www.w3.org/2000/svg">
  <defs
     id="defs2" />
  <sodipodi:namedview
     id="namedview2"
     pagecolor="#ffffff"
     bordercolor="#666666"
     borderopacity="1.0"
     inkscape:showpageshadow="2"
     inkscape:pageopacity="0.0"
     inkscape:pagecheckerboard="0"
     inkscape:deskcolor="#d1d1d1"
     inkscape:zoom="33.875"
     inkscape:cx="11.98524"
     inkscape:cy="12"
     inkscape:window-width="1920"
     inkscape:window-height="1009"
     inkscape:window-x="1912"
     inkscape:window-y="-8"
     inkscape:window-maximized="1"
     inkscape:current-layer="svg2" />
  <path
     style="color:#000000;fill:currentColor;-inkscape-stroke:none"
     d="M 4.2265625,2.25 C 3.152207,2.25 2.5025213,3.5816457 3.1621094,4.4296875 L 16.228516,21.228516 C 16.483934,21.556718 16.876938,21.75 17.292969,21.75 h 2.480468 c 1.074304,0 1.724036,-1.331652 1.064454,-2.179688 L 7.7714844,2.7714844 C 7.5160759,2.4430731 7.1230207,2.25 6.7070312,2.25 Z m 0.3066406,1.5 h 2.0996094 l 12.8339845,16.5 h -2.09961 z"
     id="path1" />
  <path
     style="color:#000000;fill:currentColor;stroke-linecap:round;-inkscape-stroke:none"
     d="m 19.955078,2.2519531 a 0.75,0.75 0 0 0 -0.515625,0.25 L 3.4394531,20.501953 a 0.75,0.75 0 0 0 0.0625,1.058594 0.75,0.75 0 0 0 1.0585938,-0.0625 L 20.560547,3.4980469 a 0.75,0.75 0 0 0 -0.0625,-1.0585938 0.75,0.75 0 0 0 -0.542969,-0.1875 z"
     id="path2" />
</svg>
