<?xml version="1.0" encoding="UTF-8" standalone="no"?>
<svg
   width="24"
   height="24"
   viewBox="0 0 24 24"
   stroke-width="1.5"
   fill="none"
   version="1.1"
   id="svg6"
   sodipodi:docname="xbox-b.svg"
   inkscape:version="1.2.1 (9c6d41e410, 2022-07-14)"
   xmlns:inkscape="http://www.inkscape.org/namespaces/inkscape"
   xmlns:sodipodi="http://sodipodi.sourceforge.net/DTD/sodipodi-0.dtd"
   xmlns="http://www.w3.org/2000/svg"
   xmlns:svg="http://www.w3.org/2000/svg">
  <defs
     id="defs10" />
  <sodipodi:namedview
     id="namedview8"
     pagecolor="#ffffff"
     bordercolor="#666666"
     borderopacity="1.0"
     inkscape:showpageshadow="2"
     inkscape:pageopacity="0.0"
     inkscape:pagecheckerboard="0"
     inkscape:deskcolor="#d1d1d1"
     showgrid="false"
     inkscape:zoom="34.541667"
     inkscape:cx="10.364294"
     inkscape:cy="12.014475"
     inkscape:window-width="1920"
     inkscape:window-height="1009"
     inkscape:window-x="1912"
     inkscape:window-y="-8"
     inkscape:window-maximized="1"
     inkscape:current-layer="svg6" />
  <path
     style="color:#000000;fill:currentColor;stroke-linecap:round;stroke-linejoin:round;-inkscape-stroke:none"
     d="M 12,1.25 C 6.0718263,1.25 1.25,6.0718263 1.25,12 1.25,17.928127 6.0718217,22.75 12,22.75 17.928132,22.75 22.75,17.928132 22.75,12 22.75,6.0718217 17.928127,1.25 12,1.25 Z m 0,1.5 c 5.117462,0 9.25,4.1324893 9.25,9.25 0,5.117457 -4.132543,9.25 -9.25,9.25 C 6.8824893,21.25 2.75,17.117462 2.75,12 2.75,6.8824848 6.8824848,2.75 12,2.75 Z"
     id="path2" />
  <path
     style="color:#000000;fill:currentColor;stroke-linecap:round;stroke-linejoin:round;-inkscape-stroke:none"
     d="M 9.5,7.25 A 0.750075,0.750075 0 0 0 8.75,8 V 11.826172 16 a 0.750075,0.750075 0 0 0 0.75,0.75 h 3.097656 c 0.839597,0 1.564613,-0.38002 2.009766,-0.929687 C 15.052574,15.270645 15.25,14.585695 15.25,13.912109 c 0,-0.673585 -0.197426,-1.356582 -0.642578,-1.90625 -0.06234,-0.07697 -0.167405,-0.117743 -0.240234,-0.1875 0.05598,-0.05204 0.168819,-0.03723 0.21875,-0.09375 C 15.039722,11.210974 15.25,10.556023 15.25,9.9121094 15.25,9.2681958 15.039722,8.6151975 14.585938,8.1015625 14.132153,7.5879275 13.420104,7.25 12.597656,7.25 Z m 0.75,1.5 h 2.347656 c 0.445151,0 0.685219,0.1399919 0.865235,0.34375 C 13.642906,9.2975081 13.75,9.5994989 13.75,9.9121094 c 0,0.3126106 -0.107094,0.6165546 -0.287109,0.8203126 -0.180016,0.203758 -0.420084,0.34375 -0.865235,0.34375 H 10.25 Z m 0,3.826172 h 2.347656 c 0.428002,0 0.655103,0.142062 0.84375,0.375 0.188647,0.232938 0.308594,0.591049 0.308594,0.960937 0,0.369889 -0.119947,0.729953 -0.308594,0.962891 -0.188647,0.232938 -0.415748,0.375 -0.84375,0.375 H 10.25 Z"
     id="path4" />
</svg>
