<?xml version="1.0" encoding="UTF-8" standalone="no"?>
<svg
   width="24"
   height="24"
   stroke-width="1.5"
   viewBox="0 0 24 24"
   fill="none"
   version="1.1"
   id="svg4"
   sodipodi:docname="xmark.svg"
   inkscape:version="1.2.1 (9c6d41e410, 2022-07-14)"
   xmlns:inkscape="http://www.inkscape.org/namespaces/inkscape"
   xmlns:sodipodi="http://sodipodi.sourceforge.net/DTD/sodipodi-0.dtd"
   xmlns="http://www.w3.org/2000/svg"
   xmlns:svg="http://www.w3.org/2000/svg">
  <defs
     id="defs8" />
  <sodipodi:namedview
     id="namedview6"
     pagecolor="#ffffff"
     bordercolor="#666666"
     borderopacity="1.0"
     inkscape:showpageshadow="2"
     inkscape:pageopacity="0.0"
     inkscape:pagecheckerboard="0"
     inkscape:deskcolor="#d1d1d1"
     showgrid="false"
     inkscape:zoom="34.541667"
     inkscape:cx="10.364294"
     inkscape:cy="12.014475"
     inkscape:window-width="1920"
     inkscape:window-height="1009"
     inkscape:window-x="1912"
     inkscape:window-y="-8"
     inkscape:window-maximized="1"
     inkscape:current-layer="svg4" />
  <path
     style="color:#000000;fill:currentColor;stroke-linecap:round;stroke-linejoin:round;-inkscape-stroke:none"
     d="m 6.7578125,6.0078125 a 0.75,0.75 0 0 0 -0.5292969,0.21875 0.75,0.75 0 0 0 0,1.0605469 L 10.939453,12 6.2285156,16.712891 a 0.75,0.75 0 0 0 0,1.060546 0.75,0.75 0 0 0 1.0605469,0 L 12,13.0625 l 4.712891,4.710937 a 0.75,0.75 0 0 0 1.060546,0 0.75,0.75 0 0 0 0,-1.060546 L 13.0625,12 17.773437,7.2871094 a 0.75,0.75 0 0 0 0,-1.0605469 0.75,0.75 0 0 0 -1.060546,0 L 12,10.9375 7.2890625,6.2265625 a 0.75,0.75 0 0 0 -0.53125,-0.21875 z"
     id="path2" />
</svg>
