<?xml version="1.0" encoding="UTF-8" standalone="no"?>
<svg
   width="24"
   height="24"
   stroke-width="1.5"
   viewBox="0 0 24 24"
   fill="none"
   version="1.1"
   id="svg8"
   sodipodi:docname="yen.svg"
   inkscape:version="1.2.1 (9c6d41e410, 2022-07-14)"
   xmlns:inkscape="http://www.inkscape.org/namespaces/inkscape"
   xmlns:sodipodi="http://sodipodi.sourceforge.net/DTD/sodipodi-0.dtd"
   xmlns="http://www.w3.org/2000/svg"
   xmlns:svg="http://www.w3.org/2000/svg">
  <defs
     id="defs12" />
  <sodipodi:namedview
     id="namedview10"
     pagecolor="#ffffff"
     bordercolor="#666666"
     borderopacity="1.0"
     inkscape:showpageshadow="2"
     inkscape:pageopacity="0.0"
     inkscape:pagecheckerboard="0"
     inkscape:deskcolor="#d1d1d1"
     showgrid="false"
     inkscape:zoom="34.541667"
     inkscape:cx="10.364294"
     inkscape:cy="12.014475"
     inkscape:window-width="1920"
     inkscape:window-height="1009"
     inkscape:window-x="1912"
     inkscape:window-y="-8"
     inkscape:window-maximized="1"
     inkscape:current-layer="svg8" />
  <path
     style="color:#000000;fill:currentColor;stroke-linecap:round;stroke-linejoin:round;-inkscape-stroke:none"
     d="M 6,11.25 A 0.75,0.75 0 0 0 5.25,12 0.75,0.75 0 0 0 6,12.75 H 18 A 0.75,0.75 0 0 0 18.75,12 0.75,0.75 0 0 0 18,11.25 Z"
     id="path2" />
  <path
     style="color:#000000;fill:currentColor;stroke-linecap:round;stroke-linejoin:round;-inkscape-stroke:none"
     d="M 6.1054687,3.2578125 A 0.75,0.75 0 0 0 5.5507812,3.4003906 0.75,0.75 0 0 0 5.4003906,4.4492187 L 11.25,12.248047 V 20 A 0.75,0.75 0 0 0 12,20.75 0.75,0.75 0 0 0 12.75,20 V 12.248047 L 18.599609,4.4492187 A 0.75,0.75 0 0 0 18.449219,3.4003906 0.75,0.75 0 0 0 17.400391,3.5507813 L 12,10.751953 6.5996094,3.5507813 A 0.75,0.75 0 0 0 6.1054687,3.2578125 Z"
     id="path4" />
  <path
     style="color:#000000;fill:currentColor;stroke-linecap:round;stroke-linejoin:round;-inkscape-stroke:none"
     d="M 6,15.25 A 0.75,0.75 0 0 0 5.25,16 0.75,0.75 0 0 0 6,16.75 H 18 A 0.75,0.75 0 0 0 18.75,16 0.75,0.75 0 0 0 18,15.25 Z"
     id="path6" />
</svg>
