<?xml version="1.0" encoding="UTF-8" standalone="no"?>
<svg
   width="24"
   height="24"
   stroke-width="1.5"
   viewBox="0 0 24 24"
   fill="none"
   version="1.1"
   id="svg10"
   sodipodi:docname="yoga.svg"
   inkscape:version="1.2.1 (9c6d41e410, 2022-07-14)"
   xmlns:inkscape="http://www.inkscape.org/namespaces/inkscape"
   xmlns:sodipodi="http://sodipodi.sourceforge.net/DTD/sodipodi-0.dtd"
   xmlns="http://www.w3.org/2000/svg"
   xmlns:svg="http://www.w3.org/2000/svg">
  <defs
     id="defs14" />
  <sodipodi:namedview
     id="namedview12"
     pagecolor="#ffffff"
     bordercolor="#666666"
     borderopacity="1.0"
     inkscape:showpageshadow="2"
     inkscape:pageopacity="0.0"
     inkscape:pagecheckerboard="0"
     inkscape:deskcolor="#d1d1d1"
     showgrid="false"
     inkscape:zoom="34.541667"
     inkscape:cx="10.364294"
     inkscape:cy="12.014475"
     inkscape:window-width="1920"
     inkscape:window-height="1009"
     inkscape:window-x="1912"
     inkscape:window-y="-8"
     inkscape:window-maximized="1"
     inkscape:current-layer="svg10" />
  <path
     style="color:#000000;fill:currentColor;stroke-linecap:round;stroke-linejoin:round;-inkscape-stroke:none"
     d="m 14.255859,14.324219 a 0.75,0.75 0 0 0 -0.365234,0.996094 l 0.857422,1.843749 a 0.750075,0.750075 0 0 0 0.525391,0.417969 c 0,0 0.897461,0.19504 1.767578,0.59961 0.435058,0.202285 0.85093,0.458557 1.11914,0.71875 0.26821,0.260192 0.375,0.475197 0.375,0.714843 0,0.191096 -0.03921,0.255812 -0.0957,0.324219 -0.0565,0.06841 -0.157189,0.137393 -0.291016,0.191406 C 17.880784,20.238885 17.572266,20.25 17.572266,20.25 h -4.376953 l -2.082032,-1.15625 a 0.75,0.75 0 0 0 -1.019531,0.292969 0.75,0.75 0 0 0 0.292969,1.019531 l 2.25,1.25 A 0.750075,0.750075 0 0 0 13,21.75 h 4.572266 c 0,0 0.547222,0.01136 1.136718,-0.226563 0.294748,-0.118961 0.621785,-0.308119 0.886719,-0.628906 0.264935,-0.320786 0.439453,-0.778493 0.439453,-1.279297 0,-0.734552 -0.375083,-1.349621 -0.830078,-1.791015 -0.454995,-0.441394 -1.002034,-0.755889 -1.53125,-1.001953 -0.859605,-0.399683 -1.411564,-0.506942 -1.697265,-0.574219 L 15.251953,14.6875 a 0.75,0.75 0 0 0 -0.996094,-0.363281 z"
     id="path2" />
  <path
     style="color:#000000;fill:currentColor;stroke-linecap:round;stroke-linejoin:round;-inkscape-stroke:none"
     d="M 9.7441406,14.324219 A 0.75,0.75 0 0 0 8.7480469,14.6875 l -0.7246094,1.560547 c -0.2857042,0.06728 -0.8376525,0.174536 -1.6972656,0.574219 -0.5292206,0.246064 -1.0762505,0.560559 -1.53125,1.001953 -0.4549995,0.441393 -0.8300782,1.056461 -0.8300781,1.791015 -1e-7,0.500802 0.1745214,0.95851 0.4394531,1.279297 0.2649317,0.320787 0.5919726,0.509944 0.8867187,0.628906 C 5.8805078,21.761362 6.4277344,21.75 6.4277344,21.75 H 8.5 a 0.750075,0.750075 0 0 0 0.3652344,-0.09375 l 2.2499996,-1.25 a 0.750075,0.750075 0 0 0 0.03711,-0.02344 l 2.75,-1.75 a 0.75,0.75 0 0 0 0.230469,-1.035156 0.75,0.75 0 0 0 -1.035157,-0.230469 L 10.367188,19.105469 8.3066406,20.25 H 6.4277344 c 0,0 -0.308525,-0.01112 -0.5761719,-0.119141 -0.1338235,-0.05401 -0.2345202,-0.123 -0.2910156,-0.191406 -0.056496,-0.06841 -0.095703,-0.133121 -0.095703,-0.324219 0,-0.239644 0.1067865,-0.45465 0.375,-0.714843 0.2682136,-0.260193 0.6840772,-0.516465 1.1191407,-0.71875 0.8701268,-0.404571 1.7675781,-0.59961 1.7675781,-0.59961 A 0.750075,0.750075 0 0 0 9.2519531,17.164062 L 10.109375,15.320313 A 0.75,0.75 0 0 0 9.7441406,14.324219 Z"
     id="path4" />
  <path
     style="color:#000000;fill:currentColor;stroke-linecap:round;stroke-linejoin:round;-inkscape-stroke:none"
     d="m 12,8.2578125 c 0.02737,0 -0.446779,-0.032684 -0.966797,0.035156 C 10.513186,8.3608089 9.846791,8.5321102 9.15625,8.9375 7.8594776,9.6987848 6.585627,11.39692 5.8730469,14.378906 c -1.2136593,0.390296 -3.03125,0.814453 -3.03125,0.814453 a 0.75,0.75 0 0 0 -0.5742188,0.890625 0.75,0.75 0 0 0 0.890625,0.576172 c 0,0 2.1379635,-0.454077 3.5234375,-0.951172 A 0.750075,0.750075 0 0 0 7.1640625,15.150391 C 7.7782079,12.065787 8.939965,10.80347 9.9160156,10.230469 10.404041,9.943968 10.86265,9.8267719 11.226563,9.7792969 11.590475,9.7318218 11.758325,9.7578125 12,9.7578125 c 0.241675,0 0.409527,-0.025991 0.773438,0.021484 0.36391,0.047475 0.822524,0.1646715 1.310546,0.4511721 0.976045,0.573 2.137818,1.835318 2.751953,4.919922 a 0.750075,0.750075 0 0 0 0.482422,0.558593 c 1.385472,0.497098 3.523438,0.951172 3.523438,0.951172 a 0.75,0.75 0 0 0 0.890625,-0.576172 0.75,0.75 0 0 0 -0.574219,-0.890625 c 0,0 -1.817597,-0.424159 -3.03125,-0.814453 C 17.414383,11.39692 16.140518,9.6987855 14.84375,8.9375 14.153211,8.5321098 13.486813,8.360809 12.966797,8.2929688 12.44678,8.2251285 11.972625,8.2578125 12,8.2578125 Z"
     id="path6" />
  <path
     style="color:#000000;fill:currentColor;stroke-linecap:round;stroke-linejoin:round;-inkscape-stroke:none"
     d="M 12,2.25 C 10.490083,2.25 9.25,3.4901154 9.25,5 9.25,6.5098846 10.490083,7.75 12,7.75 13.509917,7.75 14.75,6.5098846 14.75,5 14.75,3.4901154 13.509917,2.25 12,2.25 Z m 0,1.5 c 0.699281,0 1.25,0.5507468 1.25,1.25 0,0.6992532 -0.550719,1.25 -1.25,1.25 -0.699281,0 -1.25,-0.5507468 -1.25,-1.25 0,-0.6992532 0.550719,-1.25 1.25,-1.25 z"
     id="path8" />
</svg>
