<?xml version="1.0" encoding="UTF-8" standalone="no"?>
<svg
   width="24"
   height="24"
   stroke-width="1.5"
   viewBox="0 0 24 24"
   fill="none"
   version="1.1"
   id="svg6"
   sodipodi:docname="youtube.svg"
   inkscape:version="1.3.1 (91b66b0783, 2023-11-16)"
   xmlns:inkscape="http://www.inkscape.org/namespaces/inkscape"
   xmlns:sodipodi="http://sodipodi.sourceforge.net/DTD/sodipodi-0.dtd"
   xmlns="http://www.w3.org/2000/svg"
   xmlns:svg="http://www.w3.org/2000/svg">
  <defs
     id="defs10" />
  <sodipodi:namedview
     id="namedview8"
     pagecolor="#ffffff"
     bordercolor="#666666"
     borderopacity="1.0"
     inkscape:showpageshadow="2"
     inkscape:pageopacity="0.0"
     inkscape:pagecheckerboard="0"
     inkscape:deskcolor="#d1d1d1"
     showgrid="false"
     inkscape:zoom="34.541667"
     inkscape:cx="10.364294"
     inkscape:cy="12.02895"
     inkscape:window-width="1920"
     inkscape:window-height="1009"
     inkscape:window-x="1912"
     inkscape:window-y="-8"
     inkscape:window-maximized="1"
     inkscape:current-layer="svg6" />
  <g
     id="path3"
     transform="translate(-5.963812,0.74994575)">
    <path
       style="color:#000000;fill:#000000;stroke-linecap:round;stroke-linejoin:round;-inkscape-stroke:none"
       d="m 16.463812,9.2500545 v 3.9999995 l 3.5,-2 z"
       id="path5" />
    <path
       style="color:#000000;fill:#000000;stroke-linecap:round;stroke-linejoin:round;-inkscape-stroke:none"
       d="M 16.835937,8.5996094 A 0.750075,0.750075 0 0 0 15.712891,9.25 v 4 a 0.750075,0.750075 0 0 0 1.123046,0.650391 l 3.5,-2 a 0.750075,0.750075 0 0 0 0,-1.300782 z m 0.376954,1.9414066 1.240234,0.708984 -1.240234,0.708984 z"
       id="path6" />
  </g>
  <path
     style="color:#000000;fill:currentColor;-inkscape-stroke:none"
     d="m 12,4.1503906 c -1.192789,0 -2.5782484,0.026121 -3.9335937,0.064453 -1.4255636,0.04032 -2.5106962,0.068065 -3.4218751,0.21875 C 3.7333524,4.5842786 2.9532849,4.8931869 2.3671875,5.4960937 1.7790834,6.1010716 1.4937377,6.8933808 1.3691406,7.8183594 1.2445436,8.743338 1.25,9.8452952 1.25,11.292969 v 1.414062 c 0,1.447649 -0.00546,2.549636 0.1191406,3.47461 0.1245958,0.924973 0.4099291,1.717312 0.9980469,2.322265 0.5860899,0.602925 1.3661787,0.911808 2.2773437,1.0625 0.9111651,0.150692 1.9963358,0.176447 3.4218751,0.216797 1.3553643,0.03832 2.7407967,0.06641 3.9335937,0.06641 1.192797,0 2.5782,-0.02808 3.933594,-0.06641 1.425544,-0.04035 2.510716,-0.06611 3.421875,-0.216797 0.911158,-0.150692 1.691253,-0.459581 2.277343,-1.0625 0.58813,-0.604951 0.873449,-1.39729 0.998047,-2.322265 C 22.755458,15.256665 22.75,14.15468 22.75,12.707031 v -1.414062 c 0,-1.4476738 0.0055,-2.5496301 -0.119141,-3.4746096 C 22.506261,6.8933799 22.220922,6.1010709 21.632812,5.4960937 21.046712,4.893184 20.266651,4.5842784 19.355469,4.4335937 18.444287,4.2829091 17.359142,4.2551637 15.933594,4.2148437 14.578288,4.176512 13.192789,4.1503906 12,4.1503906 Z m 0,1.5 c 1.169609,0 2.543934,0.026365 3.890625,0.064453 1.425549,0.04032 2.479937,0.074763 3.220703,0.1972657 0.740767,0.1225026 1.125914,0.3003469 1.445313,0.6289062 0.317389,0.326492 0.484161,0.7229618 0.585937,1.4785157 C 21.244354,8.7750851 21.25,9.8452952 21.25,11.292969 v 1.414062 c 0,1.447649 -0.0056,2.51789 -0.107422,3.273438 -0.101776,0.755548 -0.268568,1.152068 -0.585937,1.478515 -0.319409,0.32858 -0.704573,0.506399 -1.445313,0.628907 -0.74074,0.122507 -1.79515,0.156915 -3.220703,0.197265 -1.346804,0.03808 -2.721025,0.06445 -3.890625,0.06445 -1.1696,0 -2.5438521,-0.02637 -3.890625,-0.06445 C 6.6838271,18.244806 5.6294202,18.210398 4.8886719,18.087891 4.1479236,17.965383 3.7627586,17.787558 3.4433594,17.458984 3.1259981,17.132538 2.9591959,16.736019 2.8574219,15.980469 2.7556478,15.224919 2.75,14.15468 2.75,12.707031 V 11.292969 C 2.75,9.8452952 2.7556467,8.775086 2.8574219,8.0195313 2.9591971,7.2639765 3.1259744,6.8675069 3.4433594,6.5410156 3.7627611,6.2124534 4.1479099,6.0346118 4.8886719,5.9121094 5.6294339,5.789607 6.6838114,5.7551637 8.109375,5.7148437 9.4561069,5.6767556 10.830391,5.6503906 12,5.6503906 Z"
     id="path4" />
</svg>
