<?xml version="1.0" encoding="UTF-8" standalone="no"?>
<svg
   width="24"
   height="24"
   viewBox="0 0 24 24"
   stroke-width="1.5"
   fill="none"
   version="1.1"
   id="svg8"
   sodipodi:docname="zoom-out.svg"
   inkscape:version="1.2.1 (9c6d41e410, 2022-07-14)"
   xmlns:inkscape="http://www.inkscape.org/namespaces/inkscape"
   xmlns:sodipodi="http://sodipodi.sourceforge.net/DTD/sodipodi-0.dtd"
   xmlns="http://www.w3.org/2000/svg"
   xmlns:svg="http://www.w3.org/2000/svg">
  <defs
     id="defs12" />
  <sodipodi:namedview
     id="namedview10"
     pagecolor="#ffffff"
     bordercolor="#666666"
     borderopacity="1.0"
     inkscape:showpageshadow="2"
     inkscape:pageopacity="0.0"
     inkscape:pagecheckerboard="0"
     inkscape:deskcolor="#d1d1d1"
     showgrid="false"
     inkscape:zoom="34.541667"
     inkscape:cx="10.364294"
     inkscape:cy="12.014475"
     inkscape:window-width="1920"
     inkscape:window-height="1009"
     inkscape:window-x="1912"
     inkscape:window-y="-8"
     inkscape:window-maximized="1"
     inkscape:current-layer="svg8" />
  <path
     style="color:#000000;fill:currentColor;stroke-linecap:round;stroke-linejoin:round;-inkscape-stroke:none"
     d="m 17,16.25 a 0.75,0.75 0 0 0 -0.53125,0.21875 0.75,0.75 0 0 0 0,1.0625 l 4,4 a 0.75,0.75 0 0 0 1.0625,0 0.75,0.75 0 0 0 0,-1.0625 l -4,-4 A 0.75,0.75 0 0 0 17,16.25 Z"
     id="path2" />
  <path
     style="color:#000000;fill:currentColor;stroke-linecap:round;stroke-linejoin:round;-inkscape-stroke:none"
     d="m 11,2.25 c -4.8236049,0 -8.75,3.9263951 -8.75,8.75 0,4.823623 3.9263974,8.75 8.75,8.75 2.416003,0 4.612077,-0.982813 6.195312,-2.570313 C 18.773083,15.597762 19.75,13.407606 19.75,11 19.75,6.1763974 15.823623,2.25 11,2.25 Z m 0,1.5 c 4.012968,0 7.25,3.2370514 7.25,7.25 0,2.00299 -0.808361,3.806869 -2.117188,5.119141 C 14.819451,17.436038 13.009993,18.25 11,18.25 6.9870514,18.25 3.75,15.012968 3.75,11 3.75,6.9870537 6.9870537,3.75 11,3.75 Z"
     id="path4" />
  <path
     style="color:#000000;fill:currentColor;stroke-linecap:round;stroke-linejoin:round;-inkscape-stroke:none"
     d="M 8,10.25 A 0.75,0.75 0 0 0 7.25,11 0.75,0.75 0 0 0 8,11.75 h 6 A 0.75,0.75 0 0 0 14.75,11 0.75,0.75 0 0 0 14,10.25 Z"
     id="path6" />
</svg>
